<?xml version="1.0" encoding="utf-8" ?>
<svg baseProfile="tiny" height="100%" version="1.2" width="100%" xmlns="http://www.w3.org/2000/svg" xmlns:ev="http://www.w3.org/2001/xml-events" xmlns:xlink="http://www.w3.org/1999/xlink"><defs /><g transform="translate(0, 1000) scale(1, -1)"><path d="M8.526321411132812 332.1470031738281C10.89471435546875 333.23699951171875 11.984207153320312 333.4739990234375 15.157913208007812 333.4739990234375C21.50531005859375 333.4739990234375 26.668411254882812 330.2049865722656 29.321121215820312 324.52099609375L30.315826416015625 322.3420104980469L30.457931518554688 235.56300354003906C30.505340576171875 187.81600952148438 30.647445678710938 148.7370147705078 30.78955078125 148.7370147705078C30.884246826171875 148.7370147705078 59.4947509765625 155.79501342773438 94.310546875 164.36801147460938C144.21604919433594 176.67800903320312 157.4950408935547 180.03701782226562 162.904052734375 180.03701782226562C165.17604064941406 180.03701782226562 166.05905151367188 179.4440155029297 167.68405151367188 178.67401123046875C170.90504455566406 177.1110076904297 173.70004272460938 174.31600952148438 175.21604919433594 171.04701232910156L176.21104431152344 168.86801147460938V-76.73678588867188V-322.3419952392578L175.21604919433594 -324.52098083496094C172.42105102539062 -330.53697204589844 166.73704528808594 -333.5449981689453 161.05303955078125 -333.5449981689453C155.3680419921875 -333.5449981689453 149.68405151367188 -330.53697204589844 146.88905334472656 -324.52098083496094L145.89505004882812 -322.3419952392578L145.7530517578125 -233.62098693847656C145.70506286621094 -178.43698120117188 145.4680633544922 -144.94699096679688 145.18406677246094 -144.94699096679688C144.9470672607422 -144.94699096679688 116.2420654296875 -151.95797729492188 81.42636108398438 -160.5789794921875C31.549758911132812 -172.87197875976562 18.435867309570312 -176.18798828125 13.139663696289062 -176.18798828125C10.946456909179688 -176.18798828125 10.093856811523438 -175.61898803710938 8.526382446289062 -174.8839874267578C5.305328369140625 -173.32098388671875 2.510589599609375 -170.52598571777344 0.9947967529296875 -167.2579803466797L6.103515625e-05 -165.0789794921875V78.63162231445312V322.342041015625L0.9947967529296875 324.5210266113281C2.5105743408203125 327.7890319824219 5.3053131103515625 330.58404541015625 8.5263671875 332.14703369140625ZM145.56304931640625 16.010528564453125C145.58506774902344 30.842025756835938 145.59906005859375 42.46223449707031 145.59906005859375 51.563629150390625C145.59906005859375 82.00093078613281 145.4400634765625 84.2689208984375 144.8670654296875 84.2689208984375L144.85305786132812 84.2684326171875C144.37905883789062 84.22113037109375 118.46806335449219 77.92112731933594 87.30006408691406 70.20002746582031L30.552658081054688 56.13163757324219V-12.173660278320312C30.552642822265625 -49.784149169921875 30.694747924804688 -80.52626037597656 30.931640625 -80.52626037597656L88.34213256835938 -66.41046142578125L145.42103576660156 -52.29466247558594Z" fill="black" /></g></svg>