<?xml version="1.0" encoding="utf-8" ?>
<svg baseProfile="tiny" height="100%" version="1.2" width="100%" xmlns="http://www.w3.org/2000/svg" xmlns:ev="http://www.w3.org/2001/xml-events" xmlns:xlink="http://www.w3.org/1999/xlink"><defs /><g transform="translate(0, 1000) scale(1, -1)"><path d="M-5.4473724365234375 622.2319946289062C-3.74481201171875 623.0339965820312 -1.8385467529296875 623.4169921875 0.08172607421875 623.4169921875C3.7176513671875 623.4169921875 7.40380859375 622.0419921875 9.852615356445312 619.531982421875C12.221084594726562 617.1630249023438 12.694686889648438 615.8839721679688 14.210479736328125 608.6370239257812C25.389480590820312 554.8740234375 48.12628173828125 497.7950134277344 75.22108459472656 455.21099853515625L79.29469299316406 448.8160095214844L79.34208679199219 444.26800537109375L79.34228515625 444.197998046875C79.34230041503906 436.2309875488281 73.45660400390625 430.968994140625 66.44931030273438 430.968994140625C63.87229919433594 430.968994140625 61.14349365234375 431.6809997558594 58.5 433.23199462890625C51.82110595703125 437.1629943847656 41.92109680175781 441.71099853515625 35.52630615234375 443.74700927734375C29.98419189453125 445.5469970703125 16.531600952148438 448.5790100097656 14.115798950195312 448.5790100097656C14.0592041015625 448.5790100097656 14.032196044921875 448.4989929199219 14.032196044921875 448.3590087890625C14.032196044921875 448.02899169921875 14.181503295898438 447.3680114746094 14.447402954101562 446.6369934082031C15.063201904296875 444.9320068359375 15.15789794921875 422.47900390625 15.15789794921875 276.29998779296875V107.9530029296875L16.957901000976562 109.42098999023438C44.417510986328125 132.5749969482422 73.47840881347656 144.447998046875 101.6920166015625 144.447998046875C112.90101623535156 144.447998046875 123.97601318359375 142.57400512695312 134.7630157470703 138.78900146484375C167.28302001953125 127.36799621582031 185.17401123046875 97.2008056640625 185.17401123046875 61.63459777832031C185.17401123046875 42.18220520019531 179.822021484375 21.11480712890625 168.58401489257812 0.61578369140625C152.85801696777344 -28.136795043945312 131.968017578125 -51.01580810546875 74.13160705566406 -102.78900146484375L17.621109008789062 -154.2790069580078C7.2473907470703125 -164.03701782226562 5.9210662841796875 -164.84201049804688 1.52587890625e-05 -164.84201049804688C-6.4894561767578125 -164.84201049804688 -12.078887939453125 -161.1470184326172 -14.210479736328125 -155.51101684570312L-15.157882690429688 -152.95301818847656V145.8469696044922C-15.157882690429688 406.2319793701172 -15.063186645507812 444.93199157714844 -14.4473876953125 446.63697814941406C-14.181488037109375 447.3679962158203 -14.032180786132812 448.0289764404297 -14.032180786132812 448.35899353027344C-14.032180786132812 448.4989776611328 -14.059188842773438 448.57899475097656 -14.11578369140625 448.57899475097656C-16.531585693359375 448.57899475097656 -29.984176635742188 445.54698181152344 -35.52629089355469 443.7469940185547C-41.92108154296875 441.7109832763672 -51.82109069824219 437.16297912597656 -58.49998474121094 433.2319793701172C-61.14347839355469 431.6809844970703 -63.872283935546875 430.96897888183594 -66.44929504394531 430.96897888183594C-73.45658874511719 430.96897888183594 -79.34228515625 436.23097229003906 -79.34228515625 444.19798278808594L-79.34208679199219 444.2679901123047L-79.29469299316406 448.8159942626953L-75.22108459472656 455.2109832763672C-48.4578857421875 497.2739715576172 -27.9473876953125 548.3839569091797 -14.92108154296875 605.3679656982422C-12.173690795898438 617.4470062255859 -10.894683837890625 619.6739959716797 -5.447357177734375 622.2319793701172ZM81.14212036132812 95.68418884277344C78.23532104492188 96.24678039550781 74.4210205078125 96.58259582519531 71.16903686523438 96.58259582519531C69.49263000488281 96.58259582519531 67.96572875976562 96.4932861328125 66.78952026367188 96.29998779296875C47.510528564453125 93.36317443847656 30.978927612304688 82.13679504394531 18.663238525390625 63.66319274902344L15.157943725585938 58.40528869628906V-26.810501098632812L15.205337524414062 -112.0260009765625L17.810531616210938 -109.18399047851562C71.33683776855469 -51.205291748046875 106.20004272460938 15.489501953125 106.2950439453125 59.92109680175781V60.15629577636719C106.29505920410156 82.48748779296875 99.55136108398438 91.95518493652344 81.14215087890625 95.68418884277344Z" fill="black" /></g></svg>