<?xml version="1.0" encoding="utf-8" ?>
<svg baseProfile="tiny" height="100%" version="1.2" width="100%" xmlns="http://www.w3.org/2000/svg" xmlns:ev="http://www.w3.org/2001/xml-events" xmlns:xlink="http://www.w3.org/1999/xlink"><defs /><g transform="translate(0, 1000) scale(1, -1)"><path d="M-5.968414306640625 455.6369934082031C-4.116241455078125 456.3580017089844 -2.1783599853515625 456.6969909667969 -0.260589599609375 456.6969909667969C6.0123138427734375 456.6969909667969 12.070205688476562 453.0679931640625 14.210494995117188 447.29998779296875C15.15789794921875 444.78900146484375 15.15789794921875 443.7950134277344 15.15789794921875 399.5050048828125C15.15789794921875 363.8190002441406 15.297195434570312 354.4549865722656 15.759597778320312 354.4549865722656L15.773696899414062 354.4580078125C35.62107849121094 361.84698486328125 110.93698120117188 386.5260009765625 113.68397521972656 386.5260009765625C123.14598083496094 386.5260009765625 128.9619903564453 378.8890075683594 128.9619903564453 371.0780029296875C128.9619903564453 366.2959899902344 126.781982421875 361.4490051269531 121.92597961425781 358.24700927734375C121.26298522949219 357.8210144042969 97.05787658691406 349.43701171875 68.06837463378906 339.6319885253906L15.394668579101562 321.77398681640625L15.2525634765625 281.1319885253906C15.23126220703125 273.8500061035156 15.219573974609375 267.7929992675781 15.219573974609375 262.7799987792969C15.219573974609375 245.67799377441406 15.355972290039062 240.7239990234375 15.714263916015625 240.7239990234375L15.72625732421875 240.7259979248047C35.621063232421875 248.16297912597656 110.93696594238281 272.8419952392578 113.6839599609375 272.8419952392578C123.14596557617188 272.8419952392578 128.96197509765625 265.20497131347656 128.96197509765625 257.3929901123047C128.96197509765625 252.6119842529297 126.78196716308594 247.76498413085938 121.92596435546875 244.56298828125C121.26296997070312 244.13697814941406 97.057861328125 235.75299072265625 68.068359375 225.94699096679688L15.3946533203125 208.0889892578125L15.252548217773438 158.02098083496094L15.157852172851562 107.90498352050781L16.910446166992188 109.42097473144531C44.404052734375 132.57498168945312 73.47456359863281 144.44798278808594 101.69096374511719 144.44798278808594C112.90095520019531 144.44798278808594 123.9759521484375 142.57398986816406 134.76295471191406 138.7889862060547C167.282958984375 127.36798095703125 185.1739501953125 97.20079040527344 185.1739501953125 61.63458251953125C185.1739501953125 42.18218994140625 179.82196044921875 21.114791870117188 168.58395385742188 0.6157684326171875C152.8579559326172 -28.136810302734375 131.96795654296875 -51.01582336425781 74.13154602050781 -102.78901672363281L17.621047973632812 -154.27902221679688C7.2473297119140625 -164.0370330810547 5.9210052490234375 -164.84202575683594 -4.57763671875e-05 -164.84202575683594C-6.4895172119140625 -164.84202575683594 -12.078948974609375 -161.14703369140625 -14.210540771484375 -155.5110321044922C-15.157943725585938 -152.95303344726562 -15.157943725585938 -152.66802978515625 -15.157943725585938 22.263168334960938C-15.157943725585938 118.657958984375 -15.300048828125 197.52597045898438 -15.442138671875 197.52597045898438C-15.63165283203125 197.52597045898438 -36.236846923828125 190.6109619140625 -61.200042724609375 182.13197326660156C-97.63894653320312 169.79197692871094 -106.84504699707031 166.60296630859375 -111.33604431152344 166.60296630859375C-113.06803894042969 166.60296630859375 -114.09904479980469 167.07797241210938 -115.72105407714844 167.68397521972656C-121.83004760742188 169.95596313476562 -125.00604248046875 176.08897399902344 -125.00604248046875 182.1609649658203C-125.00604248046875 187.48297119140625 -122.56605529785156 192.75897216796875 -117.52104187011719 195.3469696044922C-116.57405090332031 195.8679656982422 -68.921142578125 212.115966796875 -19.989547729492188 228.64697265625L-15.157943725585938 230.30496215820312V270.7579650878906C-15.157943725585938 293.0209655761719 -15.300048828125 311.2109680175781 -15.442138671875 311.2109680175781C-15.63165283203125 311.2109680175781 -36.236846923828125 304.29498291015625 -61.200042724609375 295.81597900390625C-97.63894653320312 283.4759826660156 -106.84504699707031 280.2869567871094 -111.33604431152344 280.2869567871094C-113.06803894042969 280.2869567871094 -114.09904479980469 280.761962890625 -115.72105407714844 281.36798095703125C-121.83004760742188 283.6399841308594 -125.00604248046875 289.7729797363281 -125.00604248046875 295.844970703125C-125.00604248046875 301.1669616699219 -122.56605529785156 306.4429626464844 -117.52104187011719 309.031982421875C-116.57405090332031 309.552978515625 -68.921142578125 325.7999572753906 -19.989547729492188 342.33197021484375L-15.157943725585938 343.9889831542969V394.38897705078125C-15.157943725585938 443.84197998046875 -15.157943725585938 444.7889709472656 -14.210540771484375 447.2999572753906C-12.931640625 450.6629638671875 -9.284255981445312 454.35797119140625 -5.9684600830078125 455.636962890625ZM81.14204406738281 95.68417358398438C78.23524475097656 96.24676513671875 74.42094421386719 96.58258056640625 71.16896057128906 96.58258056640625C69.4925537109375 96.58258056640625 67.96565246582031 96.49327087402344 66.78944396972656 96.29997253417969C47.51045227050781 93.3631591796875 30.978851318359375 82.13677978515625 18.663162231445312 63.663177490234375L15.157867431640625 58.4052734375V-26.810516357421875L15.20526123046875 -112.02601623535156L17.810455322265625 -109.18400573730469C71.33676147460938 -51.20530700683594 106.19996643066406 15.489486694335938 106.29496765136719 59.92108154296875V60.156280517578125C106.29498291015625 82.48747253417969 99.55128479003906 91.95516967773438 81.14207458496094 95.68417358398438Z" fill="black" /></g></svg>