<?xml version="1.0" encoding="utf-8" ?>
<svg baseProfile="tiny" height="100%" version="1.2" width="100%" xmlns="http://www.w3.org/2000/svg" xmlns:ev="http://www.w3.org/2001/xml-events" xmlns:xlink="http://www.w3.org/1999/xlink"><defs /><g transform="translate(0, 1000) scale(1, -1)"><path d="M179.24899291992188 455.6369934082031C181.1009979248047 456.3580017089844 183.03900146484375 456.6969909667969 184.95700073242188 456.6969909667969C191.22900390625 456.6969909667969 197.28700256347656 453.0679931640625 199.42799377441406 447.29998779296875L200.375 444.74200439453125V145.89501953125V-152.9530029296875L199.42799377441406 -155.51100158691406C197.2960205078125 -161.1470184326172 191.70701599121094 -164.84201049804688 185.21701049804688 -164.84201049804688C179.2960205078125 -164.84201049804688 177.9700164794922 -164.03701782226562 167.59600830078125 -154.27902221679688L111.08601379394531 -102.78901672363281C60.44871520996094 -57.41050720214844 39.843414306640625 -35.90531921386719 24.022415161132812 -11.794708251953125C7.5223388671875 13.307785034179688 1.52587890625e-05 38.73799133300781 1.52587890625e-05 61.58097839355469C1.52587890625e-05 108.38998413085938 31.58660888671875 144.33499145507812 82.23652648925781 144.33499145507812C88.25880432128906 144.33499145507812 94.55061340332031 143.8269805908203 101.09101867675781 142.7679901123047C124.49101257324219 138.97898864746094 145.66500854492188 128.46298217773438 168.30702209472656 109.42097473144531L170.05902099609375 107.95298767089844V276.3469696044922C170.0590057373047 444.41099548339844 170.0590057373047 444.7419891357422 171.0070037841797 447.2999725341797C172.28599548339844 450.66297912597656 175.93299865722656 454.3579864501953 179.24899291992188 455.63697814941406ZM124.11199951171875 95.21049499511719C120.24700927734375 96.15278625488281 116.42098999023438 96.6016845703125 112.72698974609375 96.6016845703125C96.36929321289062 96.6016845703125 82.62600708007812 87.79408264160156 79.72769165039062 74.03678894042969C79.02239990234375 70.78639221191406 78.67939758300781 66.81639099121094 78.67939758300781 62.36448669433594C78.67939758300781 53.06239318847656 80.17691040039062 41.656585693359375 82.99609375 30.315780639648438C92.80130004882812 -9.331588745117188 126.24299621582031 -64.61051940917969 167.40699768066406 -109.18400573730469L170.01199340820312 -112.02601623535156L170.0590057373047 -26.810516357421875V58.4052734375L166.5540008544922 63.663177490234375C155.51698303222656 80.2420654296875 140.83297729492188 91.18417358398438 124.11198425292969 95.21047973632812Z" fill="black" /></g></svg>