<?xml version="1.0" encoding="utf-8" ?>
<svg baseProfile="tiny" height="100%" version="1.2" width="100%" xmlns="http://www.w3.org/2000/svg" xmlns:ev="http://www.w3.org/2001/xml-events" xmlns:xlink="http://www.w3.org/1999/xlink"><defs /><g transform="translate(0, 1000) scale(1, -1)"><path d="M87.45440673828125 371.97198486328125C89.82279968261719 373.06201171875 90.91229248046875 373.29901123046875 94.08590698242188 373.29901123046875C100.43299865722656 373.29901123046875 105.59600830078125 370.0299987792969 108.24899291992188 364.34600830078125L109.24398803710938 362.1669921875L109.385986328125 291.9670104980469C109.43299865722656 253.31399536132812 109.62300109863281 221.72000122070312 109.81199645996094 221.72000122070312C110.00199890136719 221.72000122070312 118.57499694824219 224.51400756835938 128.85400390625 227.9250030517578L147.61199951171875 234.1300048828125L151.63900756835938 233.9409942626953C157.843994140625 233.6090087890625 162.20199584960938 230.8620147705078 164.75999450683594 225.60401916503906L166.08599853515625 222.90402221679688V188.56201171875C166.08599853515625 184.52099609375 166.08900451660156 180.9290008544922 166.08900451660156 177.7310028076172C166.08900451660156 150.23199462890625 165.8979949951172 151.8990020751953 162.24899291992188 147.8249969482422C159.5959930419922 144.88800048828125 158.27000427246094 144.36700439453125 132.83299255371094 136.02999877929688L109.48100280761719 128.35699462890625V90.08290100097656V51.8092041015625L139.46499633789062 61.66180419921875C161.0229949951172 68.7998046875 169.74400329589844 71.63558959960938 174.74600219726562 71.63558959960938C177.9759979248047 71.63558959960938 179.65499877929688 70.4530029296875 182.23899841308594 68.48291015625C187.28399658203125 64.61759948730469 188.06500244140625 63.61810302734375 188.06500244140625 38.73680114746094C188.06500244140625 34.65130615234375 188.04400634765625 29.921905517578125 188.01800537109375 24.4302978515625L187.875 -8.253952026367188L186.73899841308594 -10.764495849609375C186.02798461914062 -12.280303955078125 184.65399169921875 -14.127593994140625 183.0439910888672 -15.596099853515625L180.48597717285156 -17.964508056640625L144.95999145507812 -29.664505004882812L109.48098754882812 -41.364501953125V-77.50660705566406C109.48097229003906 -97.40132141113281 109.52796936035156 -113.64901733398438 109.62297058105469 -113.64901733398438C109.71797180175781 -113.64901733398438 118.19596862792969 -110.66401672363281 128.4749755859375 -106.97001647949219C146.1439666748047 -100.67001342773438 147.32797241210938 -100.291015625 150.7389678955078 -100.291015625L150.85797119140625 -100.29000854492188C157.2529754638672 -100.29000854492188 163.0199737548828 -104.06700134277344 165.18597412109375 -109.62200927734375C165.89596557617188 -111.47900390625 166.240966796875 -127.80999755859375 166.240966796875 -144.54200744628906C166.240966796875 -162.38900756835938 165.84896850585938 -180.6929931640625 165.09097290039062 -182.3800048828125C162.10696411132812 -188.77499389648438 162.34396362304688 -188.67999267578125 116.490966796875 -204.73800659179688L109.48097229003906 -207.2010040283203L109.38597106933594 -284.64898681640625L109.24397277832031 -362.09600830078125L108.24897766113281 -364.2749938964844C105.45399475097656 -370.2909851074219 99.77018737792969 -373.29901123046875 94.08589172363281 -373.29901123046875C88.40168762207031 -373.29901123046875 82.71748352050781 -370.2909851074219 79.92277526855469 -364.2749938964844L78.92808532714844 -362.09600830078125L78.78587341308594 -290.14300537109375C78.69248962402344 -227.0050048828125 78.59907531738281 -218.51699829101562 78.00639343261719 -218.51699829101562C77.99798583984375 -218.51699829101562 77.98939514160156 -218.5189971923828 77.98068237304688 -218.52200317382812C77.55438232421875 -218.66400146484375 71.87019348144531 -220.7010040283203 65.28587341308594 -223.02200317382812L47.99647521972656 -229.17999267578125C44.41157531738281 -230.46200561523438 41.25639343261719 -231.11000061035156 38.46238708496094 -231.11000061035156C34.13128662109375 -231.11000061035156 30.6680908203125 -229.55299377441406 27.817489624023438 -226.38600158691406C24.168182373046875 -222.31199645996094 23.97808837890625 -224.01600646972656 23.97808837890625 -196.49099731445312C23.97808837890625 -193.29100036621094 23.980682373046875 -189.69500732421875 23.980682373046875 -185.6490020751953V-151.3070068359375L25.2122802734375 -148.7010040283203C26.443771362304688 -146.09600830078125 28.622772216796875 -143.5860137939453 30.801666259765625 -142.1170196533203C31.464874267578125 -141.69100952148438 42.454376220703125 -137.6170196533203 55.19647216796875 -133.0700225830078L78.45437622070312 -124.78001403808594L78.59646606445312 -88.11711120605469C78.61907958984375 -80.26490783691406 78.63357543945312 -74.07542419433594 78.63357543945312 -69.20591735839844C78.63357543945312 -54.32112121582031 78.49797058105469 -51.77131652832031 78.04316711425781 -51.77131652832031C78.02297973632812 -51.77131652832031 78.00216674804688 -51.77632141113281 77.98066711425781 -51.78550720214844C66.84906005859375 -56.04872131347656 17.775375366210938 -71.49081420898438 15.312271118164062 -71.49081420898438C8.396453857421875 -71.49081420898438 2.4753875732421875 -66.99081420898438 0.7227630615234375 -60.4066162109375C0.2372283935546875 -58.60321044921875 -3.0517578125e-05 -42.862518310546875 -3.0517578125e-05 -26.828811645507812C-3.0517578125e-05 -10.013320922851562 0.26092529296875 7.12445068359375 0.7701263427734375 8.846038818359375C3.0911865234375 16.709182739257812 2.3806610107421875 16.330276489257812 43.3543701171875 29.92498779296875L78.45437622070312 41.53028869628906L78.59646606445312 79.756591796875C78.6043701171875 83.26181030273438 78.6082763671875 86.66049194335938 78.6082763671875 89.89080810546875C78.6082763671875 106.0419921875 78.50956726074219 117.98300170898438 78.31227111816406 117.98300170898438C78.12277221679688 117.98300170898438 69.97537231445312 115.33000183105469 60.21746826171875 112.06199645996094C48.24346923828125 108.07099914550781 41.5501708984375 106.12899780273438 37.04107666015625 106.12899780273438C32.9345703125 106.12899780273438 30.639663696289062 107.73899841308594 27.817474365234375 110.87799072265625C24.168167114257812 114.95098876953125 23.978073120117188 113.24700927734375 23.978073120117188 140.77200317382812C23.978073120117188 143.97300720214844 23.980667114257812 147.5679931640625 23.980667114257812 151.61399841308594V185.95700073242188L25.212265014648438 188.56199645996094C28.1490478515625 194.71998596191406 28.1490478515625 194.71998596191406 56.04905700683594 203.9089813232422L78.691162109375 211.34597778320312L78.78585815429688 286.75697326660156L78.92807006835938 362.16697692871094L79.92276000976562 364.3459930419922C81.43856811523438 367.61399841308594 84.2332763671875 370.4089813232422 87.45437622070312 371.9719696044922Z" fill="black" /></g></svg>