<?xml version="1.0" encoding="utf-8" ?>
<svg baseProfile="tiny" height="100%" version="1.2" width="100%" xmlns="http://www.w3.org/2000/svg" xmlns:ev="http://www.w3.org/2001/xml-events" xmlns:xlink="http://www.w3.org/1999/xlink"><defs /><g transform="translate(0, 1000) scale(1, -1)"><path d="M160.10499572753906 386.1470031738281C162.47401428222656 387.23699951171875 163.56301879882812 387.4739990234375 166.7370147705078 387.4739990234375C173.08401489257812 387.4739990234375 178.24700927734375 384.2049865722656 180.90000915527344 378.52099609375L181.89501953125 376.3420104980469L182.13201904296875 281.6050109863281L182.36801147460938 186.8209991455078L201.07901000976562 191.46299743652344C213.44203186035156 194.50698852539062 220.49302673339844 196.0339813232422 225.1480255126953 196.0339813232422C229.83802795410156 196.0339813232422 232.09503173828125 194.4829864501953 234.9000244140625 191.36798095703125C238.5490264892578 187.29498291015625 238.73902893066406 188.9989776611328 238.73902893066406 161.47398376464844L238.73703002929688 150.63198852539062L238.73902893066406 139.8009796142578C238.739013671875 112.30198669433594 238.54901123046875 113.96798706054688 234.90000915527344 109.89497375488281C232.10501098632812 106.81599426269531 229.92601013183594 106.010986328125 212.9210205078125 101.84199523925781C187.01101684570312 95.49467468261719 182.55801391601562 94.35789489746094 182.32101440429688 94.16838073730469C182.25201416015625 94.06437683105469 182.2080078125 75.02339172363281 182.2080078125 47.87928771972656C182.2080078125 37.94378662109375 182.21401977539062 26.92279052734375 182.22601318359375 15.347381591796875L182.36801147460938 -63.284210205078125L201.07901000976562 -58.642120361328125C213.44203186035156 -55.5986328125 220.49302673339844 -54.07102966308594 225.1480255126953 -54.07102966308594C229.83802795410156 -54.07102966308594 232.09503173828125 -55.62232971191406 234.9000244140625 -58.73683166503906C238.5490264892578 -62.81053161621094 238.73902893066406 -61.10612487792969 238.73902893066406 -88.6312255859375L238.73703002929688 -99.47372436523438L238.73902893066406 -110.30401611328125C238.739013671875 -137.80299377441406 238.54901123046875 -136.13699340820312 234.90000915527344 -140.21099853515625C231.67901611328125 -143.81100463867188 232.53201293945312 -143.5260009765625 198.2370147705078 -151.86300659179688C191.32101440429688 -153.5679931640625 184.87901306152344 -155.1320037841797 183.93202209472656 -155.41600036621094L182.13201904296875 -155.88900756835938L182.03701782226562 -251.90499877929688L181.89501953125 -347.9209899902344L180.90000915527344 -350.1000061035156C178.10501098632812 -356.1159973144531 172.4210205078125 -359.1239929199219 166.7370147705078 -359.1239929199219C161.05300903320312 -359.1239929199219 155.36801147460938 -356.1159973144531 152.5740203857422 -350.1000061035156L151.57901000976562 -347.9209899902344L151.43701171875 -255.64700317382812L151.34201049804688 -163.42100524902344L150.25302124023438 -163.6580047607422L133.81600952148438 -167.6840057373047L102.78901672363281 -175.31100463867188C94.21580505371094 -177.39500427246094 86.77891540527344 -179.19500732421875 86.35261535644531 -179.33700561523438C85.54740905761719 -179.57400512695312 85.50001525878906 -184.9739990234375 85.40531921386719 -277.9580078125L85.26322937011719 -376.3420104980469L84.2684326171875 -378.52099609375C81.47372436523438 -384.5369873046875 75.78952026367188 -387.5450134277344 70.10533142089844 -387.5450134277344C64.42112731933594 -387.5450134277344 58.73683166503906 -384.5369873046875 55.942138671875 -378.52099609375L54.94743347167969 -376.3420104980469L54.80534362792969 -281.70001220703125C54.71244812011719 -193.83700561523438 54.66505432128906 -187.28700256347656 53.904449462890625 -187.28700256347656C53.88923645019531 -187.28700256347656 53.873748779296875 -187.2899932861328 53.857940673828125 -187.2949981689453C45.66325378417969 -189.75799560546875 17.526351928710938 -196.10499572753906 14.731643676757812 -196.10499572753906C8.810577392578125 -196.10499572753906 3.55267333984375 -192.69500732421875 0.994781494140625 -187.1529998779297C4.57763671875e-05 -184.9739990234375 4.57763671875e-05 -184.68899536132812 4.57763671875e-05 -150.6320037841797V-116.28900146484375L1.1368865966796875 -113.82598876953125C4.2631988525390625 -106.9110107421875 4.357940673828125 -106.86300659179688 45.6158447265625 -96.868408203125L54.710540771484375 -94.64210510253906V-15.773696899414062C54.71052551269531 57.29740905761719 54.665435791015625 62.81941223144531 53.95793151855469 62.81941223144531C53.94073486328125 62.81941223144531 53.92323303222656 62.81611633300781 53.90533447265625 62.810516357421875C45.663238525390625 60.347412109375 17.526336669921875 54.00001525878906 14.73162841796875 54.00001525878906C8.810562133789062 54.00001525878906 3.5526580810546875 57.41050720214844 0.9947662353515625 62.95262145996094C3.0517578125e-05 65.13160705566406 3.0517578125e-05 65.41581726074219 3.0517578125e-05 99.47370910644531V133.8159942626953L1.136871337890625 136.2790069580078C4.26318359375 143.1950225830078 4.3579254150390625 143.2420196533203 45.56843566894531 153.2370147705078L54.71052551269531 155.4630126953125L54.805328369140625 251.6680145263672L54.947418212890625 347.92100524902344L55.94212341308594 350.1000213623047C58.73681640625 356.1160125732422 64.42111206054688 359.12400817871094 70.10531616210938 359.12400817871094C75.78950500488281 359.12400817871094 81.47370910644531 356.1160125732422 84.26841735839844 350.1000213623047L85.26321411132812 347.92100524902344L85.40530395507812 255.50502014160156L85.5 163.04202270507812L89.1947021484375 163.9420166015625C91.1842041015625 164.46299743652344 104.02099609375 167.58900451660156 117.71099853515625 170.9530029296875L146.93699645996094 178.10499572753906L151.3419952392578 179.14700317382812L151.43699645996094 277.72100830078125L151.57899475097656 376.3420104980469L152.57400512695312 378.52099609375C154.08900451660156 381.78900146484375 156.88400268554688 384.5840148925781 160.10499572753906 386.1470031738281ZM151.3419952392578 7.8631591796875C151.34201049804688 51.1763916015625 151.20001220703125 86.63690185546875 151.01101684570312 86.63690185546875V86.63681030273438C150.77403259277344 86.63681030273438 143.384033203125 84.8367919921875 134.52603149414062 82.61050415039062L102.78903198242188 74.79470825195312C94.2158203125 72.71051025390625 86.7789306640625 70.91049194335938 86.35263061523438 70.76840209960938C85.54742431640625 70.53160095214844 85.50003051757812 66.36318969726562 85.50003051757812 -8.289474487304688V-87.06321716308594L89.19473266601562 -86.16322326660156C91.18423461914062 -85.64210510253906 104.02102661132812 -82.51582336425781 117.71102905273438 -79.15261840820312L146.98402404785156 -72.00001525878906L151.34202575683594 -70.95791625976562Z" fill="black" /></g></svg>