<?xml version="1.0" encoding="utf-8" ?>
<svg baseProfile="tiny" height="100%" version="1.2" width="100%" xmlns="http://www.w3.org/2000/svg" xmlns:ev="http://www.w3.org/2001/xml-events" xmlns:xlink="http://www.w3.org/1999/xlink"><defs /><g transform="translate(0, 1000) scale(1, -1)"><path d="M-5.968414306640625 455.6369934082031C-4.116241455078125 456.3580017089844 -2.1783599853515625 456.6969909667969 -0.260589599609375 456.6969909667969C6.0123138427734375 456.6969909667969 12.070205688476562 453.0679931640625 14.210494995117188 447.29998779296875C15.15789794921875 444.74200439453125 15.15789794921875 444.4110107421875 15.15789794921875 276.34698486328125V107.9530029296875L16.957901000976562 109.42098999023438C44.36891174316406 132.5240020751953 75.43351745605469 144.55999755859375 103.70901489257812 144.55999755859375C121.75502014160156 144.55999755859375 138.6640167236328 139.65699768066406 152.7630157470703 129.60000610351562L155.13201904296875 127.89498901367188L155.36801147460938 286.9110107421875L155.60501098632812 445.9739990234375L156.6000213623047 448.1050109863281C159.24700927734375 453.7919921875 164.90501403808594 456.59100341796875 170.53701782226562 456.59100341796875C176.4940185546875 456.59100341796875 182.42401123046875 453.4599914550781 184.7370147705078 447.29998779296875C185.68402099609375 444.74200439453125 185.68402099609375 444.4110107421875 185.68402099609375 276.34698486328125V107.9530029296875L187.4840087890625 109.42098999023438C214.94400024414062 132.5749969482422 244.0050048828125 144.447998046875 272.218994140625 144.447998046875C283.427001953125 144.447998046875 294.50201416015625 142.57400512695312 305.28900146484375 138.78900146484375C337.8089904785156 127.36799621582031 355.70001220703125 97.2008056640625 355.70001220703125 61.63459777832031C355.70001220703125 42.18220520019531 350.3479919433594 21.11480712890625 339.1109924316406 0.61578369140625C323.3840026855469 -28.136795043945312 302.4949951171875 -51.01580810546875 244.6580047607422 -102.78900146484375L188.14700317382812 -154.2790069580078C177.7740020751953 -164.03701782226562 176.44700622558594 -164.84201049804688 170.5260009765625 -164.84201049804688C165.97900390625 -164.84201049804688 162.75799560546875 -163.56301879882812 159.6790008544922 -160.53201293945312C155.64199829101562 -156.45401000976562 155.36099243164062 -160.8710174560547 155.36099243164062 -113.76600646972656C155.36099243164062 -106.15301513671875 155.3679962158203 -97.19462585449219 155.3679962158203 -86.63682556152344V-20.321121215820312L151.7209930419922 -24.963226318359375C134.7629852294922 -46.657928466796875 117.99497985839844 -63.52113342285156 74.13157653808594 -102.78903198242188L17.621078491210938 -154.27903747558594C7.2473602294921875 -164.03704833984375 5.9210357666015625 -164.842041015625 -1.52587890625e-05 -164.842041015625C-6.4894866943359375 -164.842041015625 -12.07891845703125 -161.1470489501953 -14.21051025390625 -155.51104736328125L-15.157913208007812 -152.9530487060547V145.8949737548828V444.74195861816406L-14.21051025390625 447.29994201660156C-12.931594848632812 450.66294860839844 -9.284210205078125 454.3579559326172 -5.968414306640625 455.63694763183594ZM81.14208984375 95.68415832519531C78.23529052734375 96.24674987792969 74.42098999023438 96.58256530761719 71.16900634765625 96.58256530761719C69.49259948730469 96.58256530761719 67.9656982421875 96.49325561523438 66.78948974609375 96.29995727539062C47.510498046875 93.36314392089844 30.978897094726562 82.13676452636719 18.6632080078125 63.66316223144531L15.157913208007812 58.40525817871094V-26.810531616210938L15.205307006835938 -112.02603149414062L17.810501098632812 -109.18402099609375C71.33680725097656 -51.205322265625 106.20001220703125 15.489471435546875 106.29501342773438 59.92106628417969V60.15626525878906C106.29502868652344 82.48745727539062 99.55133056640625 91.95515441894531 81.14212036132812 95.68415832519531ZM251.66802978515625 95.68415832519531C248.76202392578125 96.24674987792969 244.94703674316406 96.58256530761719 241.69503784179688 96.58256530761719C240.01902770996094 96.58256530761719 238.49203491210938 96.49325561523438 237.31602478027344 96.29995727539062C218.0370330810547 93.36314392089844 201.50503540039062 82.13676452636719 189.18902587890625 63.66316223144531L185.6840362548828 58.40525817871094V-26.810531616210938L185.73202514648438 -112.02603149414062L188.3370361328125 -109.18402099609375C241.863037109375 -51.205322265625 276.7260437011719 15.489471435546875 276.821044921875 59.92106628417969V60.15626525878906C276.821044921875 82.48745727539062 270.0780334472656 91.95515441894531 251.66802978515625 95.68415832519531Z" fill="black" /></g></svg>