<?xml version="1.0" encoding="utf-8" ?>
<svg baseProfile="tiny" height="100%" version="1.2" width="100%" xmlns="http://www.w3.org/2000/svg" xmlns:ev="http://www.w3.org/2001/xml-events" xmlns:xlink="http://www.w3.org/1999/xlink"><defs /><g transform="translate(0, 1000) scale(1, -1)"><path d="M179.24899291992188 455.6369934082031C181.1009979248047 456.3580017089844 183.03900146484375 456.6969909667969 184.95700073242188 456.6969909667969C191.22900390625 456.6969909667969 197.28700256347656 453.0679931640625 199.42799377441406 447.29998779296875C200.375 444.78900146484375 200.375 444.0320129394531 200.375 356.0679931640625V267.3949890136719L253.94900512695312 240.6320037841797C313.15899658203125 211.02598571777344 311.02801513671875 212.2579803466797 313.11199951171875 206.66798400878906C313.8710021972656 204.64797973632812 314.2250061035156 202.6379852294922 314.2250061035156 200.708984375C314.2250061035156 192.50997924804688 307.8190002441406 185.7639923095703 298.8429870605469 185.7639923095703C298.59600830078125 185.7639923095703 298.34698486328125 185.76898193359375 298.09600830078125 185.77899169921875L294.1650085449219 185.92098999023438L247.5070037841797 209.27398681640625C221.83297729492188 222.06300354003906 200.7539825439453 232.57899475097656 200.6119842529297 232.57899475097656C200.46998596191406 232.57899475097656 200.37498474121094 145.8470001220703 200.37498474121094 39.78950500488281C200.37498474121094 -152.71600341796875 200.37498474121094 -152.9530029296875 199.427978515625 -155.51100158691406C197.29598999023438 -161.14700317382812 191.7069854736328 -164.8419952392578 185.21697998046875 -164.8419952392578C179.29598999023438 -164.8419952392578 177.96998596191406 -164.03700256347656 167.59597778320312 -154.2790069580078L111.08598327636719 -102.78900146484375C60.44868469238281 -57.410491943359375 39.8433837890625 -35.905303955078125 24.022384643554688 -11.794692993164062C7.522308349609375 13.30780029296875 -1.52587890625e-05 38.738006591796875 -1.52587890625e-05 61.58099365234375C-1.52587890625e-05 108.38999938964844 31.586578369140625 144.3350067138672 82.23649597167969 144.3350067138672C88.25877380371094 144.3350067138672 94.55058288574219 143.82699584960938 101.09098815917969 142.76800537109375C124.49098205566406 138.97900390625 145.66497802734375 128.46299743652344 168.30699157714844 109.42098999023438L170.05899047851562 107.9530029296875V177.96299743652344V247.9739990234375L116.48599243164062 274.73699951171875C57.274993896484375 304.3420104980469 59.40660095214844 303.1109924316406 57.32240295410156 308.70001220703125C56.563507080078125 310.72100830078125 56.20899963378906 312.7300109863281 56.20899963378906 314.65899658203125C56.20899963378906 322.8590087890625 62.61480712890625 329.6050109863281 71.59170532226562 329.6050109863281C71.83859252929688 329.6050109863281 72.08749389648438 329.6000061035156 72.33819580078125 329.5889892578125L76.26979064941406 329.4469909667969L122.92799377441406 306.1419982910156C148.60098266601562 293.30499267578125 169.6799774169922 282.78900146484375 169.82199096679688 282.78900146484375C169.96498107910156 282.78900146484375 170.05899047851562 319.21600341796875 170.05899047851562 363.78900146484375C170.05899047851562 443.9840087890625 170.05899047851562 444.78900146484375 171.00698852539062 447.29998779296875C172.28598022460938 450.6629943847656 175.9329833984375 454.3580017089844 179.2489776611328 455.6369934082031ZM124.11198425292969 95.21051025390625C120.24699401855469 96.15280151367188 116.42097473144531 96.60169982910156 112.72697448730469 96.60169982910156C96.36927795410156 96.60169982910156 82.62599182128906 87.79409790039062 79.72767639160156 74.03680419921875C79.02238464355469 70.78640747070312 78.67938232421875 66.81640625 78.67938232421875 62.364501953125C78.67938232421875 53.062408447265625 80.17689514160156 41.65660095214844 82.99607849121094 30.3157958984375C92.80128479003906 -9.331573486328125 126.24298095703125 -64.61050415039062 167.406982421875 -109.18399047851562L170.01197814941406 -112.0260009765625L170.05899047851562 -26.810501098632812V58.40528869628906L166.55398559570312 63.66319274902344C155.5169677734375 80.24208068847656 140.8329620361328 91.18418884277344 124.11196899414062 95.21049499511719Z" fill="black" /></g></svg>