<?xml version="1.0" encoding="utf-8" ?>
<svg baseProfile="tiny" height="100%" version="1.2" width="100%" xmlns="http://www.w3.org/2000/svg" xmlns:ev="http://www.w3.org/2001/xml-events" xmlns:xlink="http://www.w3.org/1999/xlink"><defs /><g transform="translate(0, 1000) scale(1, -1)"><path d="M63.47630310058594 371.97198486328125C65.84471130371094 373.06201171875 66.93411254882812 373.29901123046875 70.10781860351562 373.29901123046875C76.45521545410156 373.29901123046875 81.61842346191406 370.0299987792969 84.27101135253906 364.34600830078125L85.26570129394531 362.1669921875L85.40779113769531 271.125C85.45518493652344 221.00900268554688 85.64468383789062 180.03599548339844 85.83409118652344 180.03599548339844C86.02357482910156 180.03599548339844 94.59727478027344 182.8300018310547 104.87599182128906 186.24099731445312L123.63398742675781 192.4459991455078L127.65998840332031 192.2570037841797C133.86598205566406 191.92498779296875 138.22398376464844 189.177978515625 140.781982421875 183.91998291015625L142.1079864501953 181.21998596191406V146.87799072265625L142.1099853515625 136.04698181152344C142.11000061035156 108.54798889160156 141.9199981689453 110.21397399902344 138.27099609375 106.14097595214844C135.6179962158203 103.20399475097656 134.29200744628906 102.6829833984375 108.85501098632812 94.34608459472656L85.50260925292969 86.67237854003906V7.3302459716796875C85.50260925292969 -36.24871826171875 85.54991149902344 -71.96452331542969 85.64471435546875 -71.96452331542969C85.73942565917969 -71.96452331542969 94.21841430664062 -68.98031616210938 104.49702453613281 -65.28550720214844C122.166015625 -58.98551940917969 123.35002136230469 -58.60661315917969 126.76002502441406 -58.60661315917969L126.88002014160156 -58.606109619140625C133.27401733398438 -58.60609436035156 139.04202270507812 -62.383209228515625 141.2080078125 -67.93820190429688C141.9180145263672 -69.7947998046875 142.2630157470703 -86.12539672851562 142.2630157470703 -102.85800170898438C142.2630157470703 -120.70500183105469 141.8710174560547 -139.00900268554688 141.11302185058594 -140.6959991455078C138.12901306152344 -147.09100341796875 138.31800842285156 -146.99600219726562 92.51310729980469 -163.0540008544922L85.50260925292969 -165.51699829101562L85.40780639648438 -263.8070068359375L85.26571655273438 -362.09600830078125L84.27102661132812 -364.2749938964844C81.47633361816406 -370.2909851074219 75.79202270507812 -373.29901123046875 70.10783386230469 -373.29901123046875C64.42362976074219 -373.29901123046875 58.73942565917969 -370.2909851074219 55.944732666015625 -364.2749938964844L54.94993591308594 -362.09600830078125L54.807830810546875 -269.3009948730469C54.7142333984375 -187.43600463867188 54.62052917480469 -176.83399963378906 54.023223876953125 -176.83399963378906C54.01643371582031 -176.83399963378906 54.009521484375 -176.8350067138672 54.00262451171875 -176.83799743652344C53.576324462890625 -176.97999572753906 47.89202880859375 -179.01699829101562 41.307830810546875 -181.33799743652344L24.0184326171875 -187.49600219726562C20.433425903320312 -188.7779998779297 17.278335571289062 -189.42599487304688 14.484329223632812 -189.42599487304688C10.153228759765625 -189.42599487304688 6.6900177001953125 -187.86900329589844 3.839447021484375 -184.7010040283203C0.190093994140625 -180.6280059814453 3.0517578125e-05 -182.33200073242188 3.0517578125e-05 -154.8070068359375C3.0517578125e-05 -151.6060028076172 0.002593994140625 -148.01100158691406 0.002593994140625 -143.96400451660156V-109.62199401855469L1.2341766357421875 -107.01698303222656C2.4657440185546875 -104.4119873046875 4.6446990966796875 -101.90098571777344 6.823638916015625 -100.4329833984375C7.4868011474609375 -100.00698852539062 18.476318359375 -95.93287658691406 31.218414306640625 -91.38548278808594L54.476318359375 -83.09608459472656L54.61842346191406 -3.3749847412109375C54.626312255859375 3.927642822265625 54.630218505859375 11.00921630859375 54.630218505859375 17.740615844726562C54.630218505859375 51.39741516113281 54.53150939941406 76.29872131347656 54.33412170410156 76.29872131347656C54.14471435546875 76.29872131347656 45.997314453125 73.6461181640625 36.239410400390625 70.37760925292969C24.265411376953125 66.38630676269531 17.572113037109375 64.44502258300781 13.063018798828125 64.44502258300781C8.956512451171875 64.44502258300781 6.66162109375 66.05511474609375 3.8394317626953125 69.19340515136719C0.1900787353515625 73.26710510253906 1.52587890625e-05 71.56271362304688 1.52587890625e-05 99.08781433105469C1.52587890625e-05 102.28800964355469 0.0025787353515625 105.88401794433594 0.0025787353515625 109.93000793457031V144.2720184326172L1.234161376953125 146.87802124023438C4.170989990234375 153.03602600097656 4.170989990234375 153.03602600097656 32.07099914550781 162.22503662109375L54.713104248046875 169.6620330810547L54.80780029296875 265.9140319824219L54.94990539550781 362.1670227050781L55.9447021484375 364.3460388183594C57.46049499511719 367.6140441894531 60.25520324707031 370.4090270996094 63.47630310058594 371.9720153808594Z" fill="black" /></g></svg>