<?xml version="1.0" encoding="utf-8" ?>
<svg baseProfile="tiny" height="100%" version="1.2" width="100%" xmlns="http://www.w3.org/2000/svg" xmlns:ev="http://www.w3.org/2001/xml-events" xmlns:xlink="http://www.w3.org/1999/xlink"><defs /><g transform="translate(0, 1000) scale(1, -1)"><path d="M-5.968414306640625 455.6369934082031C-4.116241455078125 456.3580017089844 -2.1783599853515625 456.6969909667969 -0.260589599609375 456.6969909667969C6.0123138427734375 456.6969909667969 12.070205688476562 453.0679931640625 14.210494995117188 447.29998779296875C15.15789794921875 444.74200439453125 15.15789794921875 444.4110107421875 15.15789794921875 276.34698486328125V107.9530029296875L16.957901000976562 109.42098999023438C44.417510986328125 132.5749969482422 73.47840881347656 144.447998046875 101.6920166015625 144.447998046875C112.90101623535156 144.447998046875 123.97601318359375 142.57400512695312 134.7630157470703 138.78900146484375C167.28302001953125 127.36799621582031 185.17401123046875 97.2008056640625 185.17401123046875 61.63459777832031C185.17401123046875 42.18220520019531 179.822021484375 21.11480712890625 168.58401489257812 0.61578369140625C152.47901916503906 -28.847396850585938 132.58401489257812 -50.399993896484375 69.63160705566406 -106.81600952148438L28.942108154296875 -143.71600341796875L17.478912353515625 -154.3260040283203L15.157913208007812 -156.41099548339844V-173.60499572753906C15.157913208007812 -187.43701171875 15.015823364257812 -191.17901611328125 14.447418212890625 -192.7420196533203C14.1815185546875 -193.4730224609375 14.032211303710938 -194.13401794433594 14.032211303710938 -194.46401977539062C14.032211303710938 -194.60401916503906 14.059219360351562 -194.68402099609375 14.115814208984375 -194.68402099609375C16.5316162109375 -194.68402099609375 29.984207153320312 -191.65301513671875 35.52632141113281 -189.85301208496094C41.921112060546875 -187.81600952148438 51.82112121582031 -183.2680206298828 58.50001525878906 -179.33702087402344C61.14350891113281 -177.7860107421875 63.872314453125 -177.07501220703125 66.44932556152344 -177.07501220703125C73.45661926269531 -177.07501220703125 79.34231567382812 -182.33702087402344 79.34231567382812 -190.30401611328125L79.34211730957031 -190.37400817871094L79.29472351074219 -194.9210205078125L75.22111511230469 -201.31600952148438C48.126312255859375 -243.9000244140625 25.389511108398438 -300.9790344238281 14.21051025390625 -354.7420349121094C11.936813354492188 -365.7790222167969 8.431594848632812 -369.4740295410156 0.2368621826171875 -369.4740295410156C-8.52630615234375 -369.4740295410156 -11.652587890625 -365.7790222167969 -14.92108154296875 -351.4740295410156C-27.9473876953125 -294.4890441894531 -48.4578857421875 -243.3790283203125 -75.22108459472656 -201.31602478027344L-79.29469299316406 -194.92103576660156V-190.42103576660156L-79.29489135742188 -190.35003662109375C-79.29489135742188 -182.32102966308594 -73.44419860839844 -177.06802368164062 -66.45809936523438 -177.06802368164062C-63.88099670410156 -177.06802368164062 -61.14939880371094 -177.7830352783203 -58.5 -179.3370361328125C-51.82110595703125 -183.26803588867188 -41.92109680175781 -187.81602478027344 -35.52630615234375 -189.85302734375C-29.98419189453125 -191.6530303955078 -16.531600952148438 -194.6840362548828 -14.115798950195312 -194.6840362548828C-14.0592041015625 -194.6840362548828 -14.032196044921875 -194.60403442382812 -14.032196044921875 -194.4640350341797C-14.032196044921875 -194.134033203125 -14.181503295898438 -193.47303771972656 -14.447402954101562 -192.74203491210938C-15.063201904296875 -191.0370330810547 -15.15789794921875 -149.96803283691406 -15.15789794921875 126.99497985839844V444.7419891357422L-14.210494995117188 447.2999725341797C-12.93157958984375 450.66297912597656 -9.284194946289062 454.3579864501953 -5.9683990478515625 455.63697814941406ZM81.14210510253906 95.68418884277344C78.23530578613281 96.24678039550781 74.42100524902344 96.58259582519531 71.16902160644531 96.58259582519531C69.49261474609375 96.58259582519531 67.96571350097656 96.4932861328125 66.78950500488281 96.29998779296875C47.51051330566406 93.36317443847656 30.978912353515625 82.13679504394531 18.663223266601562 63.66319274902344L15.157928466796875 58.40528869628906V-26.810501098632812L15.205322265625 -112.0260009765625L17.810516357421875 -109.18399047851562C71.33682250976562 -51.205291748046875 106.20002746582031 15.489501953125 106.29502868652344 59.92109680175781V60.15629577636719C106.2950439453125 82.48748779296875 99.55134582519531 91.95518493652344 81.14213562011719 95.68418884277344Z" fill="black" /></g></svg>