<?xml version="1.0" encoding="utf-8" ?>
<svg baseProfile="tiny" height="100%" version="1.2" width="100%" xmlns="http://www.w3.org/2000/svg" xmlns:ev="http://www.w3.org/2001/xml-events" xmlns:xlink="http://www.w3.org/1999/xlink"><defs /><g transform="translate(0, 1000) scale(1, -1)"><path d="M73.8948974609375 499.0740051269531C75.59750366210938 499.8760070800781 77.50369262695312 500.2590026855469 79.42401123046875 500.2590026855469C83.05990600585938 500.2590026855469 86.74609375 498.8840026855469 89.19490051269531 496.3739929199219C91.56329345703125 494.0050048828125 92.03700256347656 492.72601318359375 93.55279541015625 485.47900390625C104.73199462890625 431.71600341796875 127.468994140625 374.6369934082031 154.56300354003906 332.0530090332031L158.63699340820312 325.6579895019531L158.6840057373047 321.1109924316406L158.68499755859375 321.0400085449219C158.68499755859375 313.072998046875 152.7989959716797 307.8110046386719 145.79200744628906 307.8110046386719C143.21499633789062 307.8110046386719 140.48599243164062 308.52301025390625 137.8419952392578 310.0740051269531C125.4320068359375 317.4159851074219 112.31100463867188 322.20001220703125 98.10018920898438 324.6629943847656C96.22599792480469 324.9989929199219 95.10420227050781 325.2359924316406 94.47850036621094 325.2359924316406C93.98249816894531 325.2359924316406 93.79840087890625 325.0870056152344 93.79840087890625 324.72100830078125C93.79840087890625 324.3110046386719 94.02859497070312 323.6289978027344 94.31069946289062 322.5790100097656C94.87908935546875 320.3999938964844 94.97380065917969 306.75799560546875 94.97380065917969 234.37899780273438C94.97380065917969 187.2949981689453 95.068603515625 148.73699951171875 95.210693359375 148.73699951171875C95.30538940429688 148.73699951171875 123.91600036621094 155.7949981689453 158.73199462890625 164.3679962158203C208.63699340820312 176.67799377441406 221.91600036621094 180.03700256347656 227.3249969482422 180.03700256347656C229.5970001220703 180.03700256347656 230.47999572753906 179.44400024414062 232.10499572753906 178.6739959716797C235.3260040283203 177.11099243164062 238.12100219726562 174.3159942626953 239.63699340820312 171.0469970703125L240.6320037841797 168.8679962158203L240.7740020751953 -75.55259704589844C240.7940216064453 -120.781982421875 240.80601501464844 -157.8829803466797 240.80601501464844 -188.28099060058594C240.80601501464844 -299.1029815673828 240.65101623535156 -320.8319854736328 240.20501708984375 -322.57899475097656C239.9230194091797 -323.6289825439453 239.69300842285156 -324.3109893798828 239.69300842285156 -324.7209930419922C239.69300842285156 -325.0869903564453 239.87701416015625 -325.23597717285156 240.37301635742188 -325.23597717285156C240.99900817871094 -325.23597717285156 242.1210174560547 -324.9989776611328 243.99501037597656 -324.66297912597656C258.2050018310547 -322.1999969482422 271.3260040283203 -317.4159698486328 283.7370147705078 -310.07398986816406C286.3810272216797 -308.5229949951172 289.10902404785156 -307.8109893798828 291.68601989746094 -307.8109893798828C298.6940155029297 -307.8109893798828 304.5790252685547 -313.07298278808594 304.5790252685547 -321.0399932861328V-321.11097717285156L304.5320281982422 -325.65797424316406L300.45802307128906 -332.05299377441406C273.36302185058594 -374.63697814941406 250.6260223388672 -431.7159881591797 239.44801330566406 -485.47898864746094C237.17401123046875 -496.51597595214844 233.6690216064453 -500.2109832763672 225.47401428222656 -500.2109832763672C216.7110137939453 -500.2109832763672 213.58401489257812 -496.51597595214844 210.31600952148438 -482.2109832763672C197.29000854492188 -425.2259979248047 176.77902221679688 -374.11598205566406 150.01602172851562 -332.05299377441406L145.9420166015625 -325.65797424316406V-321.15797424316406V-321.0869903564453C145.94200134277344 -313.05799865722656 151.79299926757812 -307.8049774169922 158.7790069580078 -307.8049774169922C161.3560028076172 -307.8049774169922 164.08799743652344 -308.5199737548828 166.73699951171875 -310.07398986816406C179.24200439453125 -317.46299743652344 192.3159942626953 -322.2469940185547 206.71600341796875 -324.7109832763672C208.66799926757812 -325.0449981689453 209.843994140625 -325.28099060058594 210.50599670410156 -325.28099060058594C211.04800415039062 -325.28099060058594 211.24600219726562 -325.1229705810547 211.24600219726562 -324.73097229003906C211.24600219726562 -324.31199645996094 211.0189971923828 -323.62498474121094 210.74200439453125 -322.57899475097656C210.1739959716797 -320.3999786376953 210.07899475097656 -306.47398376464844 210.07899475097656 -232.48397827148438C210.07899475097656 -177.06298828125 209.88999938964844 -144.94699096679688 209.60499572753906 -144.94699096679688C209.36900329589844 -144.94699096679688 180.66299438476562 -151.95797729492188 145.84800720214844 -160.5789794921875C95.97090148925781 -172.87197875976562 82.85699462890625 -176.18798828125 77.560791015625 -176.18798828125C75.36759948730469 -176.18798828125 74.51499938964844 -175.61898803710938 72.947509765625 -174.8839874267578C69.72650146484375 -173.32098388671875 66.93170166015625 -170.52598571777344 65.4158935546875 -167.2579803466797L64.42120361328125 -165.0789794921875L64.27909851074219 77.44741821289062C64.25868225097656 122.32003784179688 64.24708557128906 159.13003540039062 64.24708557128906 189.29002380371094C64.24708557128906 299.2480163574219 64.40147399902344 320.83203125 64.84748840332031 322.57904052734375C65.12448120117188 323.6250305175781 65.35148620605469 324.3120422363281 65.35148620605469 324.73101806640625C65.35148620605469 325.1230163574219 65.15298461914062 325.2810363769531 64.611083984375 325.2810363769531C63.94877624511719 325.2810363769531 62.773681640625 325.0450439453125 60.82118225097656 324.7110290527344C46.42118835449219 322.2470397949219 33.34748840332031 317.4630432128906 20.84228515625 310.07403564453125C18.198684692382812 308.5230407714844 15.469985961914062 307.81103515625 12.89288330078125 307.81103515625C5.885589599609375 307.81103515625 -1.52587890625e-05 313.0730285644531 -1.52587890625e-05 321.0400390625C-1.52587890625e-05 321.06402587890625 3.0517578125e-05 321.0870361328125 0.0001373291015625 321.11102294921875L0.0475006103515625 325.65802001953125L4.121185302734375 332.05303955078125C30.8843994140625 374.11602783203125 51.3948974609375 425.2260437011719 64.42120361328125 482.2110290527344C67.16860961914062 494.2890319824219 68.447509765625 496.5160217285156 73.8948974609375 499.07403564453125ZM209.98399353027344 16.010528564453125C210.0059814453125 30.842025756835938 210.01998901367188 42.46223449707031 210.01998901367188 51.563629150390625C210.01998901367188 82.00093078613281 209.86097717285156 84.2689208984375 209.28797912597656 84.2689208984375L209.27398681640625 84.2684326171875C208.8000030517578 84.22113037109375 182.88999938964844 77.92112731933594 151.7209930419922 70.20002746582031L94.97380065917969 56.13163757324219V-12.173660278320312C94.97378540039062 -49.784149169921875 95.11589050292969 -80.52626037597656 95.352783203125 -80.52626037597656L152.7629852294922 -66.41046142578125L209.84197998046875 -52.29466247558594Z" fill="black" /></g></svg>