<?xml version="1.0" encoding="utf-8" ?>
<svg baseProfile="tiny" height="100%" version="1.2" width="100%" xmlns="http://www.w3.org/2000/svg" xmlns:ev="http://www.w3.org/2001/xml-events" xmlns:xlink="http://www.w3.org/1999/xlink"><defs /><g transform="translate(0, 1000) scale(1, -1)"><path d="M73.8948974609375 499.0740051269531C75.59750366210938 499.8760070800781 77.50369262695312 500.2590026855469 79.42401123046875 500.2590026855469C83.05990600585938 500.2590026855469 86.74609375 498.8840026855469 89.19490051269531 496.3739929199219C91.56329345703125 494.0050048828125 92.03700256347656 492.72601318359375 93.55279541015625 485.47900390625C104.73199462890625 431.71600341796875 127.468994140625 374.6369934082031 154.56300354003906 332.0530090332031L158.63699340820312 325.6579895019531L158.6840057373047 321.1109924316406L158.68499755859375 321.0400085449219C158.68499755859375 313.072998046875 152.7989959716797 307.8110046386719 145.79200744628906 307.8110046386719C143.21499633789062 307.8110046386719 140.48599243164062 308.52301025390625 137.8419952392578 310.0740051269531C125.4320068359375 317.4159851074219 112.31100463867188 322.20001220703125 98.10018920898438 324.6629943847656C96.22599792480469 324.9989929199219 95.10420227050781 325.2359924316406 94.47850036621094 325.2359924316406C93.98249816894531 325.2359924316406 93.79840087890625 325.0870056152344 93.79840087890625 324.72100830078125C93.79840087890625 324.3110046386719 94.02859497070312 323.6289978027344 94.31069946289062 322.5790100097656C94.87908935546875 320.3999938964844 94.97380065917969 306.75799560546875 94.97380065917969 234.37899780273438C94.97380065917969 187.2949981689453 95.068603515625 148.73699951171875 95.210693359375 148.73699951171875C95.30538940429688 148.73699951171875 123.91600036621094 155.7949981689453 158.73199462890625 164.3679962158203C208.63699340820312 176.67799377441406 221.91600036621094 180.03700256347656 227.3249969482422 180.03700256347656C229.5970001220703 180.03700256347656 230.47999572753906 179.44400024414062 232.10499572753906 178.6739959716797C235.3260040283203 177.11099243164062 238.12100219726562 174.3159942626953 239.63699340820312 171.0469970703125L240.6320037841797 168.8679962158203V-76.73680114746094V-322.3420104980469L239.63699340820312 -324.52099609375C236.8419952392578 -330.5369873046875 231.1580047607422 -333.5450134277344 225.4739990234375 -333.5450134277344C219.7899932861328 -333.5450134277344 214.10499572753906 -330.5369873046875 211.31100463867188 -324.52099609375L210.3159942626953 -322.3420104980469L210.1739959716797 -233.62100219726562C210.12599182128906 -178.43699645996094 209.88998413085938 -144.94700622558594 209.60498046875 -144.94700622558594C209.36898803710938 -144.94700622558594 180.66297912597656 -151.95799255371094 145.84799194335938 -160.57899475097656C95.97088623046875 -172.8719940185547 82.85697937011719 -176.18800354003906 77.56077575683594 -176.18800354003906C75.36758422851562 -176.18800354003906 74.51498413085938 -175.61900329589844 72.94749450683594 -174.88400268554688C69.72648620605469 -173.3209991455078 66.93168640136719 -170.5260009765625 65.41587829589844 -167.25799560546875L64.42118835449219 -165.07899475097656L64.27908325195312 77.44740295410156C64.2586669921875 122.32002258300781 64.2470703125 159.13002014160156 64.2470703125 189.29000854492188C64.2470703125 299.2480010986328 64.40145874023438 320.83201599121094 64.84747314453125 322.5790252685547C65.12446594238281 323.62501525878906 65.35147094726562 324.31202697753906 65.35147094726562 324.7310028076172C65.35147094726562 325.1230010986328 65.15296936035156 325.28102111816406 64.61106872558594 325.28102111816406C63.948760986328125 325.28102111816406 62.77366638183594 325.04502868652344 60.8211669921875 324.7110137939453C46.421173095703125 322.2470245361328 33.34747314453125 317.46302795410156 20.842269897460938 310.0740203857422C18.19866943359375 308.5230255126953 15.469970703125 307.81101989746094 12.892868041992188 307.81101989746094C5.8855743408203125 307.81101989746094 -3.0517578125e-05 313.07301330566406 -3.0517578125e-05 321.04002380371094C-3.0517578125e-05 321.0640106201172 1.52587890625e-05 321.08702087402344 0.0001220703125 321.1110076904297L0.0474853515625 325.6580047607422L4.1211700439453125 332.0530242919922C30.884384155273438 374.1160125732422 51.39488220214844 425.2260284423828 64.42118835449219 482.2110137939453C67.16859436035156 494.2890167236328 68.44749450683594 496.51600646972656 73.89488220214844 499.0740203857422ZM209.98397827148438 16.010513305664062C210.00596618652344 30.842010498046875 210.0199737548828 42.46221923828125 210.0199737548828 51.56361389160156C210.0199737548828 82.00091552734375 209.8609619140625 84.26890563964844 209.2879638671875 84.26890563964844L209.2739715576172 84.26841735839844C208.79998779296875 84.22111511230469 182.88998413085938 77.92111206054688 151.72097778320312 70.20001220703125L94.97378540039062 56.131622314453125V-12.173675537109375C94.97377014160156 -49.78416442871094 95.11587524414062 -80.52627563476562 95.35276794433594 -80.52627563476562L152.76296997070312 -66.41047668457031L209.8419647216797 -52.294677734375Z" fill="black" /></g></svg>