<?xml version="1.0" encoding="utf-8" ?>
<svg baseProfile="tiny" height="100%" version="1.2" width="100%" xmlns="http://www.w3.org/2000/svg" xmlns:ev="http://www.w3.org/2001/xml-events" xmlns:xlink="http://www.w3.org/1999/xlink"><defs /><g transform="translate(0, 1000) scale(1, -1)"><path d="M25.34210205078125 266.47900390625C26.573699951171875 267.0480041503906 28.3262939453125 267.3789978027344 30.3157958984375 267.3789978027344C36.23680114746094 267.3789978027344 37.942108154296875 265.9110107421875 44.905303955078125 255.06300354003906C87.44210815429688 188.55799865722656 112.5 118.5 119.79499816894531 45.931793212890625C121.78399658203125 26.368606567382812 121.9739990234375 22.389694213867188 121.9739990234375 0.2212371826171875C121.9739990234375 -21.94720458984375 121.78399658203125 -25.926101684570312 119.79499816894531 -45.48930358886719C112.5 -118.05799865722656 87.44210815429688 -188.11599731445312 44.905303955078125 -254.62100219726562C39.15730285644531 -263.5929870605469 35.17279052734375 -267.3789978027344 30.553192138671875 -267.3789978027344C28.929306030273438 -267.3789978027344 27.227005004882812 -266.9110107421875 25.34210205078125 -266.0369873046875C21.102691650390625 -264.05999755859375 19.033905029296875 -261.5690002441406 19.033905029296875 -257.2860107421875C19.033905029296875 -253.7689971923828 20.429107666015625 -249.04299926757812 23.1632080078125 -242.39999389648438C53.2969970703125 -169.20599365234375 68.79460144042969 -86.42109680175781 68.79460144042969 0.03839111328125C68.79460144042969 16.869400024414062 68.20730590820312 33.839599609375 67.02630615234375 50.90550231933594C62.3367919921875 118.54800415039062 47.368408203125 184.10499572753906 23.1632080078125 242.8419952392578C20.429107666015625 249.48500061035156 19.033905029296875 254.21099853515625 19.033905029296875 257.72900390625C19.033905029296875 262.0119934082031 21.102691650390625 264.50201416015625 25.34210205078125 266.47900390625Z" fill="black" /></g></svg>