<?xml version="1.0" encoding="utf-8" ?>
<svg baseProfile="tiny" height="100%" version="1.2" width="100%" xmlns="http://www.w3.org/2000/svg" xmlns:ev="http://www.w3.org/2001/xml-events" xmlns:xlink="http://www.w3.org/1999/xlink"><defs /><g transform="translate(0, 1000) scale(1, -1)"><path d="M-35.28950500488281 266.20001220703125C-33.80421447753906 266.8919982910156 -32.198516845703125 267.21600341796875 -30.593307495117188 267.21600341796875C-26.15771484375 267.21600341796875 -21.725616455078125 264.739013671875 -19.847412109375 260.7049865722656C-19.203720092773438 259.302001953125 -18.841812133789062 258.0660095214844 -18.841812133789062 256.5660095214844C-18.841812133789062 253.76100158691406 -20.107620239257812 250.03199768066406 -23.163223266601562 242.56300354003906C-48.931610107421875 179.98899841308594 -63.04740905761719 115.47299194335938 -67.83161926269531 38.31010437011719C-68.23420715332031 31.796905517578125 -68.43551635742188 15.738998413085938 -68.43551635742188 -0.2833251953125C-68.43551635742188 -16.305694580078125 -68.23420715332031 -32.29249572753906 -67.83161926269531 -38.663604736328125C-62.85791015625 -116.39498901367188 -48.931610107421875 -180.1529998779297 -23.163223266601562 -242.6790008544922C-19.468414306640625 -251.7740020751953 -18.947418212890625 -253.33700561523438 -18.947418212890625 -255.84800720214844C-18.947418212890625 -262.66900634765625 -23.494720458984375 -267.21600341796875 -30.315811157226562 -267.21600341796875C-36.23681640625 -267.21600341796875 -37.94212341308594 -265.74798583984375 -44.90531921386719 -254.89999389648438C-87.44212341308594 -188.39500427246094 -112.50001525878906 -118.33700561523438 -119.79501342773438 -45.76890563964844C-121.78401184082031 -26.205703735351562 -121.97401428222656 -22.226699829101562 -121.97401428222656 -0.0583343505859375C-121.97401428222656 22.110107421875 -121.78401184082031 26.089004516601562 -119.79501342773438 45.652191162109375C-112.50001525878906 118.22100830078125 -87.44212341308594 188.2790069580078 -44.90531921386719 254.78399658203125C-39.60002136230469 263.0260009765625 -37.98951721191406 264.9209899902344 -35.289520263671875 266.20001220703125Z" fill="black" /></g></svg>