<?xml version="1.0" encoding="utf-8" ?>
<svg baseProfile="tiny" height="100%" version="1.2" width="100%" xmlns="http://www.w3.org/2000/svg" xmlns:ev="http://www.w3.org/2001/xml-events" xmlns:xlink="http://www.w3.org/1999/xlink"><defs /><g transform="translate(0, 1000) scale(1, -1)"><path d="M183.03500366210938 386.1470031738281C185.4029998779297 387.23699951171875 186.4929962158203 387.4739990234375 189.66700744628906 387.4739990234375C196.01400756835938 387.4739990234375 201.177001953125 384.2049865722656 203.8300018310547 378.52099609375L204.82400512695312 376.3420104980469L205.06100463867188 302.4469909667969L205.29800415039062 228.5050048828125L224.00900268554688 233.14700317382812C236.37100219726562 236.1909942626953 243.42300415039062 237.71800231933594 248.07699584960938 237.71800231933594C252.76800537109375 237.71800231933594 255.0240020751953 236.16700744628906 257.8299865722656 233.05299377441406C261.47900390625 228.97900390625 261.66900634765625 230.68299865722656 261.66900634765625 203.1580047607422L261.6669921875 192.3159942626953L261.66900634765625 181.48500061035156C261.66900634765625 153.9860076904297 261.47900390625 155.65301513671875 257.8299865722656 151.57901000976562C255.03500366210938 148.50001525878906 252.8560028076172 147.6950225830078 235.8509979248047 143.52601623535156C209.89300537109375 137.17901611328125 205.48800659179688 136.04202270507812 205.25100708007812 135.85301208496094C205.18099975585938 135.74900817871094 205.13699340820312 126.76002502441406 205.13699340820312 113.99702453613281C205.13699340820312 109.32501220703125 205.14300537109375 104.14802551269531 205.156005859375 98.71580505371094L205.29800415039062 61.768402099609375L213.3509979248047 63.757904052734375L243.9029998779297 71.24211120605469C259.0349884033203 74.95310974121094 266.3519744873047 76.64552307128906 270.84898376464844 76.64552307128906C274.5039825439453 76.64552307128906 276.29698181152344 75.52821350097656 278.9089813232422 73.46841430664062C283.83497619628906 69.551513671875 284.5959930419922 68.83601379394531 284.5959930419922 44.50080871582031C284.5959930419922 40.28941345214844 284.57298278808594 35.370513916015625 284.5449981689453 29.605316162109375L284.4029998779297 -3.0789337158203125L283.26698303222656 -5.5420989990234375C282.0349884033203 -8.336822509765625 278.3879852294922 -12.031585693359375 275.82997131347656 -13.073684692382812C274.4089813232422 -13.689483642578125 255.9349822998047 -18.2841796875 214.15599060058594 -28.515792846679688C209.60897827148438 -29.652587890625 205.72398376464844 -30.647384643554688 205.4879913330078 -30.836776733398438C205.28099060058594 -30.960586547851562 205.14698791503906 -42.18408203125 205.14698791503906 -59.783782958984375C205.14698791503906 -62.39439392089844 205.1499786376953 -65.14527893066406 205.15599060058594 -68.02108764648438L205.29798889160156 -104.96798706054688L224.0089874267578 -100.32598876953125C236.37098693847656 -97.28280639648438 243.42298889160156 -95.75520324707031 248.0769805908203 -95.75520324707031C252.7679901123047 -95.75520324707031 255.02398681640625 -97.30650329589844 257.82997131347656 -100.42098999023438C261.47898864746094 -104.4949951171875 261.6689910888672 -102.79000854492188 261.6689910888672 -130.31500244140625L261.66697692871094 -141.1580047607422L261.6689910888672 -151.98800659179688C261.6689910888672 -179.48699951171875 261.47898864746094 -177.8209991455078 257.82997131347656 -181.89500427246094C254.60897827148438 -185.4949951171875 255.4609832763672 -185.21099853515625 221.1669921875 -193.5469970703125C214.25099182128906 -195.2530059814453 207.80899047851562 -196.8159942626953 206.86097717285156 -197.10000610351562L205.0609893798828 -197.57400512695312L204.96697998046875 -272.74700927734375L204.82398986816406 -347.9209899902344L203.82998657226562 -350.1000061035156C201.03497314453125 -356.1159973144531 195.35096740722656 -359.1239929199219 189.66697692871094 -359.1239929199219C183.98196411132812 -359.1239929199219 178.2979736328125 -356.1159973144531 175.5029754638672 -350.1000061035156L174.50897216796875 -347.9209899902344L174.36697387695312 -276.489013671875L174.27197265625 -205.10499572753906L173.18197631835938 -205.3419952392578L156.74496459960938 -209.3679962158203L125.71896362304688 -216.9949951171875C117.14495849609375 -219.07899475097656 109.70896911621094 -220.87899780273438 109.28196716308594 -221.02099609375C108.47695922851562 -221.25799560546875 108.42996215820312 -225.66299438476562 108.3349609375 -298.79998779296875L108.19296264648438 -376.3420104980469L107.19796752929688 -378.52099609375C104.40296936035156 -384.5369873046875 98.71917724609375 -387.5450134277344 93.03497314453125 -387.5450134277344C87.35076904296875 -387.5450134277344 81.66647338867188 -384.5369873046875 78.87176513671875 -378.52099609375L77.87705993652344 -376.3420104980469L77.73497009277344 -302.5419921875C77.64248657226562 -234.42300415039062 77.59507751464844 -228.97000122070312 76.84358215332031 -228.97000122070312C76.82539367675781 -228.97000122070312 76.80668640136719 -228.97300720214844 76.78758239746094 -228.97900390625C68.59288024902344 -231.44200134277344 40.45597839355469 -237.78900146484375 37.661285400390625 -237.78900146484375C31.740188598632812 -237.78900146484375 26.482284545898438 -234.37899780273438 23.924392700195312 -228.83700561523438C22.9296875 -226.6580047607422 22.9296875 -226.37399291992188 22.9296875 -192.3159942626953V-157.9739990234375L24.066482543945312 -155.51100158691406C27.192886352539062 -148.5950164794922 27.287582397460938 -148.54701232910156 68.54548645019531 -138.55300903320312L77.64018249511719 -136.32601928710938V-99.14212036132812C77.64018249511719 -65.44732666015625 77.59669494628906 -62.22633361816406 76.92527770996094 -62.22633361816406C76.89637756347656 -62.22633361816406 76.86628723144531 -62.232330322265625 76.83497619628906 -62.24212646484375C76.36128234863281 -62.38423156738281 71.19807434082031 -63.663238525390625 65.32438659667969 -65.084228515625L36.24018859863281 -72.18952941894531C24.087890625 -75.17692565917969 17.794692993164062 -76.59471130371094 13.715591430664062 -76.59471130371094C10.16278076171875 -76.59471130371094 8.289596557617188 -75.51921081542969 5.6875762939453125 -73.46841430664062C0.7611846923828125 -69.551513671875 -1.52587890625e-05 -68.83601379394531 -1.52587890625e-05 -44.50080871582031C-1.52587890625e-05 -40.28941345214844 0.0227813720703125 -35.370513916015625 0.0507354736328125 -29.605316162109375L0.192840576171875 3.0789337158203125L1.4244232177734375 5.6841888427734375C2.8454742431640625 8.668411254882812 5.49810791015625 11.510482788085938 8.150741577148438 12.836776733398438C9.713897705078125 13.64208984375 28.566482543945312 18.426284790039062 67.59808349609375 27.9473876953125L77.64018249511719 30.410491943359375V67.59469604492188C77.64018249511719 101.29000854492188 77.59669494628906 104.51100158691406 76.92527770996094 104.51100158691406C76.89637756347656 104.51100158691406 76.86628723144531 104.5050048828125 76.83497619628906 104.4949951171875C68.59288024902344 102.03199768066406 40.45597839355469 95.6842041015625 37.661285400390625 95.6842041015625C31.740188598632812 95.6842041015625 26.482284545898438 99.09469604492188 23.924392700195312 104.63699340820312C22.9296875 106.81600952148438 22.9296875 107.10000610351562 22.9296875 141.1580047607422V175.5L24.066482543945312 177.96299743652344C27.192886352539062 184.8789825439453 27.287582397460938 184.9259796142578 68.49809265136719 194.92098999023438L77.64018249511719 197.14698791503906L77.7349853515625 272.51097106933594L77.8770751953125 347.9209747314453L78.87178039550781 350.09999084472656C81.66648864746094 356.11598205566406 87.35078430175781 359.1239776611328 93.03498840332031 359.1239776611328C98.71919250488281 359.1239776611328 104.40298461914062 356.11598205566406 107.19798278808594 350.09999084472656L108.19297790527344 347.9209747314453L108.33497619628906 276.3469696044922L108.42997741699219 204.72598266601562L112.12397766113281 205.62599182128906C114.11398315429688 206.14698791503906 126.95097351074219 209.27398681640625 140.63998413085938 212.63697814941406L169.8669891357422 219.7889862060547L174.27198791503906 220.8319854736328L174.3669891357422 298.56297302246094L174.5089874267578 376.3419952392578L175.50299072265625 378.52098083496094C177.0189971923828 381.7889862060547 179.81399536132812 384.58399963378906 183.03500366210938 386.14698791503906ZM174.27200317382812 91.23158264160156C174.27200317382812 111.61898803710938 174.1300048828125 128.32098388671875 173.9409942626953 128.32098388671875H173.94000244140625C173.7030029296875 128.3209991455078 166.31399536132812 126.52099609375 157.45599365234375 124.29499816894531L125.10299682617188 116.33699035644531C116.1510009765625 114.15797424316406 108.76100158691406 112.26298522949219 108.61900329589844 112.16798400878906C108.55000305175781 112.06398010253906 108.50599670410156 103.07597351074219 108.50599670410156 90.29408264160156C108.50599670410156 85.61578369140625 108.51199340820312 80.42918395996094 108.52400207519531 74.98417663574219L108.66700744628906 38.036773681640625L113.16700744628906 39.12628173828125L168.9669952392578 52.81578063964844L174.27200317382812 54.09468078613281ZM174.27200317382812 -75.50532531738281C174.27200317382812 -46.17890930175781 174.13099670410156 -38.415618896484375 173.70700073242188 -38.415618896484375L173.7030029296875 -38.41581726074219C173.3719940185547 -38.46321105957031 172.0449981689453 -38.79472351074219 170.718994140625 -39.126312255859375C167.9720001220703 -39.88421630859375 150.72999572753906 -44.14741516113281 127.85099792480469 -49.68951416015625L110.22999572753906 -54.04742431640625L108.42999267578125 -54.5211181640625V-91.61051940917969V-128.7470245361328L112.12399291992188 -127.84703063964844C114.11399841308594 -127.32603454589844 126.95098876953125 -124.20004272460938 140.63999938964844 -120.83705139160156L169.91400146484375 -113.68405151367188L174.27200317382812 -112.64205932617188Z" fill="black" /></g></svg>