<?xml version="1.0" encoding="utf-8" ?>
<svg baseProfile="tiny" height="100%" version="1.2" width="100%" xmlns="http://www.w3.org/2000/svg" xmlns:ev="http://www.w3.org/2001/xml-events" xmlns:xlink="http://www.w3.org/1999/xlink"><defs /><g transform="translate(0, 1000) scale(1, -1)"><path d="M169.53199768066406 386.1470031738281C171.90000915527344 387.23699951171875 172.99002075195312 387.4739990234375 176.1630096435547 387.4739990234375C182.51101684570312 387.4739990234375 187.67401123046875 384.2049865722656 190.32601928710938 378.52099609375L191.32101440429688 376.3420104980469L191.55801391601562 281.6050109863281L191.79501342773438 186.8209991455078L210.50502014160156 191.46299743652344C222.86801147460938 194.50698852539062 229.9190216064453 196.0339813232422 234.5740203857422 196.0339813232422C239.26402282714844 196.0339813232422 241.52101135253906 194.4829864501953 244.32601928710938 191.36798095703125C247.97601318359375 187.29498291015625 248.166015625 188.9989776611328 248.166015625 161.47398376464844L248.1630096435547 150.63198852539062L248.166015625 139.8009796142578C248.16600036621094 112.30198669433594 247.9759979248047 113.96798706054688 244.3260040283203 109.89497375488281C241.53199768066406 106.81599426269531 239.35299682617188 106.010986328125 222.34800720214844 101.84199523925781C196.43699645996094 95.49467468261719 191.98399353027344 94.35789489746094 191.7480010986328 94.16838073730469C191.67799377441406 94.06437683105469 191.63400268554688 75.02339172363281 191.63400268554688 47.87928771972656C191.63400268554688 37.94378662109375 191.63999938964844 26.92279052734375 191.6529998779297 15.347381591796875L191.7949981689453 -63.284210205078125L210.5050048828125 -58.642120361328125C222.8679962158203 -55.5986328125 229.91900634765625 -54.07102966308594 234.57400512695312 -54.07102966308594C239.26400756835938 -54.07102966308594 241.52099609375 -55.62232971191406 244.3260040283203 -58.73683166503906C247.9759979248047 -62.81053161621094 248.16600036621094 -61.10612487792969 248.16600036621094 -88.6312255859375L248.16299438476562 -99.47372436523438L248.16600036621094 -110.30401611328125C248.16598510742188 -137.80299377441406 247.97598266601562 -136.13699340820312 244.32598876953125 -140.21099853515625C241.10498046875 -143.81100463867188 241.95797729492188 -143.5260009765625 207.66297912597656 -151.86300659179688C200.74798583984375 -153.5679931640625 194.3049774169922 -155.1320037841797 193.3579864501953 -155.41600036621094L191.5579833984375 -155.88900756835938L191.46298217773438 -251.90499877929688L191.32098388671875 -347.9209899902344L190.32598876953125 -350.1000061035156C187.53199768066406 -356.1159973144531 181.84800720214844 -359.1239929199219 176.16299438476562 -359.1239929199219C170.47900390625 -359.1239929199219 164.7949981689453 -356.1159973144531 162.0 -350.1000061035156L161.0050048828125 -347.9209899902344L160.86300659179688 -255.64700317382812L160.7689971923828 -163.42100524902344L159.6790008544922 -163.6580047607422L143.24200439453125 -167.6840057373047L112.21600341796875 -175.31100463867188C103.64199829101562 -177.39500427246094 96.20539855957031 -179.19500732421875 95.77909851074219 -179.33700561523438C94.97380065917969 -179.57400512695312 94.92649841308594 -185.54200744628906 94.92649841308594 -295.72100830078125C94.92649841308594 -394.4840087890625 94.83169555664062 -412.2950134277344 94.2633056640625 -414.4739990234375C93.981201171875 -415.52398681640625 93.75100708007812 -416.20599365234375 93.75100708007812 -416.614990234375C93.75100708007812 -416.98199462890625 93.93521118164062 -417.1310119628906 94.43109130859375 -417.1310119628906C95.05679321289062 -417.1310119628906 96.1785888671875 -416.8940124511719 98.05279541015625 -416.5580139160156C112.26300048828125 -414.0950012207031 125.38400268554688 -409.3110046386719 137.7949981689453 -401.9679870605469C140.43800354003906 -400.4179992675781 143.16700744628906 -399.70599365234375 145.74400329589844 -399.70599365234375C152.7519989013672 -399.70599365234375 158.63699340820312 -404.9679870605469 158.63699340820312 -412.93499755859375V-413.0050048828125L158.58999633789062 -417.5530090332031L154.51600646972656 -423.9469909667969C127.42100524902344 -466.5320129394531 104.68400573730469 -523.6110229492188 93.50541687011719 -577.3740234375C91.23170471191406 -588.4110107421875 87.72651672363281 -592.10498046875 79.53172302246094 -592.10498046875C70.76861572265625 -592.10498046875 67.64231872558594 -588.4110107421875 64.37382507324219 -574.10498046875C51.34751892089844 -517.1209716796875 30.837020874023438 -466.010986328125 4.0738525390625 -423.9469909667969L0.0001678466796875 -417.5530090332031V-413.0530090332031C6.103515625e-05 -413.02899169921875 1.52587890625e-05 -413.0050048828125 1.52587890625e-05 -412.98199462890625C1.52587890625e-05 -404.9530029296875 5.850738525390625 -399.70001220703125 12.836807250976562 -399.70001220703125C15.413909912109375 -399.70001220703125 18.145523071289062 -400.41400146484375 20.794921875 -401.9679870605469C33.30021667480469 -409.3580017089844 46.373809814453125 -414.1419982910156 60.77381896972656 -416.6050109863281C62.726318359375 -416.9389953613281 63.901519775390625 -417.1759948730469 64.56381225585938 -417.1759948730469C65.10560607910156 -417.1759948730469 65.30412292480469 -417.01800537109375 65.30412292480469 -416.6260070800781C65.30412292480469 -416.2070007324219 65.07711791992188 -415.5199890136719 64.80021667480469 -414.4739990234375C64.23170471191406 -412.2950134277344 64.13700866699219 -395.0050048828125 64.13700866699219 -299.4630126953125C64.13700866699219 -194.50799560546875 64.09132385253906 -187.28799438476562 63.37171936035156 -187.28799438476562C63.358612060546875 -187.28799438476562 63.34532165527344 -187.29100036621094 63.33171081542969 -187.2949981689453C55.08961486816406 -189.75799560546875 26.95281982421875 -196.10499572753906 24.15802001953125 -196.10499572753906C18.237014770507812 -196.10499572753906 12.979110717773438 -192.69500732421875 10.421218872070312 -187.1529998779297C9.426483154296875 -184.9739990234375 9.426483154296875 -184.68899536132812 9.426483154296875 -150.6320037841797V-116.28900146484375L10.563308715820312 -113.82598876953125C13.689620971679688 -106.9110107421875 13.784408569335938 -106.86300659179688 55.04231262207031 -96.868408203125L64.13700866699219 -94.64210510253906V-15.773696899414062C64.13700866699219 57.29740905761719 64.09181213378906 62.81941223144531 63.38441467285156 62.81941223144531C63.367218017578125 62.81941223144531 63.34971618652344 62.81611633300781 63.33171081542969 62.810516357421875C55.08961486816406 60.347412109375 26.95281982421875 54.00001525878906 24.15802001953125 54.00001525878906C18.237014770507812 54.00001525878906 12.979110717773438 57.41050720214844 10.421218872070312 62.95262145996094C9.426483154296875 65.13160705566406 9.426483154296875 65.41581726074219 9.426483154296875 99.47370910644531V133.8159942626953L10.563308715820312 136.2790069580078C13.689620971679688 143.1950225830078 13.784408569335938 143.2420196533203 54.99491882324219 153.2370147705078L64.13702392578125 155.4630126953125L64.23171997070312 251.6680145263672L64.37382507324219 347.92100524902344L65.36862182617188 350.1000213623047C68.163330078125 356.1160125732422 73.8475341796875 359.12400817871094 79.53173828125 359.12400817871094C85.21592712402344 359.12400817871094 90.90023803710938 356.1160125732422 93.69493103027344 350.1000213623047L94.68962097167969 347.92100524902344L94.83172607421875 255.50502014160156L94.926513671875 163.04202270507812L98.6212158203125 163.9420166015625C100.61099243164062 164.46299743652344 113.447998046875 167.58900451660156 127.13699340820312 170.9530029296875L156.36300659179688 178.10499572753906L160.7689971923828 179.14700317382812L160.86300659179688 277.72100830078125L161.0050048828125 376.3420104980469L162.0 378.52099609375C163.51600646972656 381.78900146484375 166.31100463867188 384.5840148925781 169.53199768066406 386.1470031738281ZM160.7689971923828 7.8631591796875C160.76901245117188 51.1763916015625 160.62701416015625 86.63690185546875 160.43701171875 86.63690185546875V86.63681030273438C160.1999969482422 86.63681030273438 152.81100463867188 84.8367919921875 143.9530029296875 82.61050415039062L112.21600341796875 74.79470825195312C103.64199829101562 72.71051025390625 96.20539855957031 70.91049194335938 95.77909851074219 70.76840209960938C94.97380065917969 70.53160095214844 94.92649841308594 66.36318969726562 94.92649841308594 -8.289474487304688V-87.06321716308594L98.62120056152344 -86.16322326660156C100.61097717285156 -85.64210510253906 113.44798278808594 -82.51582336425781 127.13697814941406 -79.15261840820312L156.4109649658203 -72.00001525878906L160.7689666748047 -70.95791625976562Z" fill="black" /></g></svg>