<?xml version="1.0" encoding="utf-8" ?>
<svg baseProfile="tiny" height="100%" version="1.2" width="100%" xmlns="http://www.w3.org/2000/svg" xmlns:ev="http://www.w3.org/2001/xml-events" xmlns:xlink="http://www.w3.org/1999/xlink"><defs /><g transform="translate(0, 1000) scale(1, -1)"><path d="M0 90V135.4739990234375H45.47369384765625H90.9473876953125V100.98899841308594V66.55259704589844L113.21098327636719 44.28950500488281L135.47398376464844 22.02630615234375L157.7369842529297 44.28950500488281L179.99998474121094 66.55259704589844V100.98899841308594V135.4739990234375H225.47398376464844H270.9469757080078V90.0V44.52630615234375H236.46298217773438H202.02598571777344L179.7629852294922 22.263214111328125L157.49998474121094 1.52587890625e-05L179.7629852294922 -22.26318359375L202.02598571777344 -44.526275634765625H236.46298217773438H270.9469757080078V-89.99996948242188V-135.47396850585938H225.47398376464844H179.99998474121094V-100.98896789550781V-66.55256652832031L157.7369842529297 -44.28947448730469L135.47398376464844 -22.026275634765625L113.21098327636719 -44.28947448730469L90.9473876953125 -66.55256652832031V-100.98896789550781V-135.47396850585938H45.47369384765625H0.0V-89.99996948242188V-44.526275634765625H34.48419189453125H68.92108154296875L91.18417358398438 -22.26318359375L113.44697570800781 1.52587890625e-05L91.18417358398438 22.263214111328125L68.92108154296875 44.52630615234375H34.48419189453125H0.0Z" fill="black" /></g></svg>