<?xml version="1.0" encoding="utf-8" ?>
<svg baseProfile="tiny" height="100%" version="1.2" width="100%" xmlns="http://www.w3.org/2000/svg" xmlns:ev="http://www.w3.org/2001/xml-events" xmlns:xlink="http://www.w3.org/1999/xlink"><defs /><g transform="translate(0, 1000) scale(1, -1)"><path d="M170.47900390625 590.968017578125C172.1820068359375 591.77099609375 174.08799743652344 592.1539916992188 176.00799560546875 592.1539916992188C179.6439971923828 592.1539916992188 183.3300018310547 590.7789916992188 185.7790069580078 588.2680053710938C188.1479949951172 585.9000244140625 188.62100219726562 584.6209716796875 190.13699340820312 577.3740234375C201.3159942626953 523.6110229492188 224.05299377441406 466.5320129394531 251.1479949951172 423.9469909667969L255.2209930419922 417.5530090332031L255.2689971923828 413.0050048828125V412.93499755859375C255.26901245117188 404.9679870605469 249.3830108642578 399.70599365234375 242.3760223388672 399.70599365234375C239.79901123046875 399.70599365234375 237.0700225830078 400.4179992675781 234.42601013183594 401.9679870605469C222.01602172851562 409.3110046386719 208.89501953125 414.0950012207031 194.68402099609375 416.5580139160156C192.6950225830078 416.9049987792969 191.53302001953125 417.1109924316406 190.90802001953125 417.1109924316406C190.45901489257812 417.1109924316406 190.2880096435547 417.0050048828125 190.2880096435547 416.7669982910156C190.2880096435547 416.5260009765625 190.4650115966797 416.14801025390625 190.70501708984375 415.6109924316406C191.17901611328125 414.52099609375 191.3690185546875 391.4049987792969 191.55801391601562 300.5530090332031L191.79501342773438 186.8209991455078L210.50502014160156 191.46299743652344C222.02700805664062 194.29798889160156 229.52301025390625 195.81698608398438 234.70401000976562 195.81698608398438C241.64401245117188 195.81698608398438 244.42901611328125 193.09197998046875 247.1690216064453 187.15298461914062C247.95001220703125 185.44699096679688 248.3410186767578 168.0389862060547 248.3410186767578 150.63198852539062C248.3410186767578 133.22398376464844 247.95001220703125 115.81599426269531 247.1690216064453 114.11097717285156C244.2320098876953 107.76298522949219 242.05300903320312 106.67399597167969 222.3480224609375 101.84199523925781C196.43701171875 95.49467468261719 191.9840087890625 94.35789489746094 191.74801635742188 94.16838073730469C191.67800903320312 94.06437683105469 191.63401794433594 75.02339172363281 191.63401794433594 47.87928771972656C191.63401794433594 37.94378662109375 191.6400146484375 26.92279052734375 191.65301513671875 15.347381591796875L191.79501342773438 -63.284210205078125L210.50502014160156 -58.642120361328125C222.86801147460938 -55.5986328125 229.9190216064453 -54.07102966308594 234.5740203857422 -54.07102966308594C239.26402282714844 -54.07102966308594 241.52101135253906 -55.62232971191406 244.32601928710938 -58.73683166503906C247.97601318359375 -62.81053161621094 248.166015625 -61.10612487792969 248.166015625 -88.6312255859375L248.1630096435547 -99.47372436523438L248.166015625 -110.30401611328125C248.16600036621094 -137.80299377441406 247.9759979248047 -136.13699340820312 244.3260040283203 -140.21099853515625C241.10499572753906 -143.81100463867188 241.95799255371094 -143.5260009765625 207.66299438476562 -151.86300659179688C200.7480010986328 -153.5679931640625 194.30499267578125 -155.1320037841797 193.35800170898438 -155.41600036621094L191.55799865722656 -155.88900756835938L191.46299743652344 -251.90499877929688L191.3209991455078 -347.9209899902344L190.3260040283203 -350.1000061035156C187.53201293945312 -356.1159973144531 181.8480224609375 -359.1239929199219 176.1630096435547 -359.1239929199219C170.47901916503906 -359.1239929199219 164.79501342773438 -356.1159973144531 162.00001525878906 -350.1000061035156L161.00502014160156 -347.9209899902344L160.86302185058594 -255.64700317382812L160.76901245117188 -163.42100524902344L159.67901611328125 -163.6580047607422L143.2420196533203 -167.6840057373047L112.21601867675781 -175.31100463867188C103.64201354980469 -177.39500427246094 96.20541381835938 -179.19500732421875 95.77911376953125 -179.33700561523438C94.97381591796875 -179.57400512695312 94.926513671875 -185.54200744628906 94.926513671875 -295.72100830078125C94.926513671875 -394.4840087890625 94.83171081542969 -412.2950134277344 94.26332092285156 -414.4739990234375C93.98121643066406 -415.52398681640625 93.75102233886719 -416.20599365234375 93.75102233886719 -416.614990234375C93.75102233886719 -416.98199462890625 93.93522644042969 -417.1310119628906 94.43110656738281 -417.1310119628906C95.05680847167969 -417.1310119628906 96.17860412597656 -416.8940124511719 98.05281066894531 -416.5580139160156C112.26301574707031 -414.0950012207031 125.38401794433594 -409.3110046386719 137.79501342773438 -401.9679870605469C140.43801879882812 -400.4179992675781 143.16702270507812 -399.70599365234375 145.7440185546875 -399.70599365234375C152.75201416015625 -399.70599365234375 158.6370086669922 -404.9679870605469 158.6370086669922 -412.93499755859375V-413.0050048828125L158.5900115966797 -417.5530090332031L154.51602172851562 -423.9469909667969C127.4210205078125 -466.5320129394531 104.68402099609375 -523.6110229492188 93.50543212890625 -577.3740234375C91.23171997070312 -588.4110107421875 87.72653198242188 -592.10498046875 79.53173828125 -592.10498046875C70.76863098144531 -592.10498046875 67.642333984375 -588.4110107421875 64.37384033203125 -574.10498046875C51.3475341796875 -517.1209716796875 30.8370361328125 -466.010986328125 4.0738677978515625 -423.9469909667969L0.00018310546875 -417.5530090332031V-413.0530090332031C7.62939453125e-05 -413.02899169921875 3.0517578125e-05 -413.0050048828125 3.0517578125e-05 -412.98199462890625C3.0517578125e-05 -404.9530029296875 5.8507537841796875 -399.70001220703125 12.836822509765625 -399.70001220703125C15.413925170898438 -399.70001220703125 18.145538330078125 -400.41400146484375 20.794937133789062 -401.9679870605469C33.30023193359375 -409.3580017089844 46.37382507324219 -414.1419982910156 60.773834228515625 -416.6050109863281C62.72633361816406 -416.9389953613281 63.90153503417969 -417.1759948730469 64.56382751464844 -417.1759948730469C65.10562133789062 -417.1759948730469 65.30413818359375 -417.01800537109375 65.30413818359375 -416.6260070800781C65.30413818359375 -416.2070007324219 65.07713317871094 -415.5199890136719 64.80023193359375 -414.4739990234375C64.23171997070312 -412.2950134277344 64.13702392578125 -395.0050048828125 64.13702392578125 -299.4630126953125C64.13702392578125 -194.50799560546875 64.09133911132812 -187.28799438476562 63.371734619140625 -187.28799438476562C63.35862731933594 -187.28799438476562 63.3453369140625 -187.29100036621094 63.33172607421875 -187.2949981689453C55.089630126953125 -189.75799560546875 26.952835083007812 -196.10499572753906 24.158035278320312 -196.10499572753906C18.237030029296875 -196.10499572753906 12.9791259765625 -192.69500732421875 10.421234130859375 -187.1529998779297C9.426498413085938 -184.9739990234375 9.426498413085938 -184.68899536132812 9.426498413085938 -150.6320037841797V-116.28900146484375L10.563323974609375 -113.82598876953125C13.68963623046875 -106.9110107421875 13.784423828125 -106.86300659179688 55.042327880859375 -96.868408203125L64.13702392578125 -94.64210510253906V-15.773696899414062C64.13702392578125 57.29740905761719 64.09182739257812 62.81941223144531 63.384429931640625 62.81941223144531C63.36723327636719 62.81941223144531 63.3497314453125 62.81611633300781 63.33172607421875 62.810516357421875C55.089630126953125 60.347412109375 26.952835083007812 54.00001525878906 24.158035278320312 54.00001525878906C18.237030029296875 54.00001525878906 12.9791259765625 57.41050720214844 10.421234130859375 62.95262145996094C9.426498413085938 65.13160705566406 9.426498413085938 65.41581726074219 9.426498413085938 99.47370910644531V133.8159942626953L10.563323974609375 136.2790069580078C13.68963623046875 143.1950225830078 13.784423828125 143.2420196533203 54.99493408203125 153.2370147705078L64.13703918457031 155.4630126953125L64.23173522949219 251.6680145263672L64.37384033203125 347.92100524902344L65.36863708496094 350.1000213623047C68.16334533691406 356.1160125732422 73.84754943847656 359.12400817871094 79.53175354003906 359.12400817871094C85.2159423828125 359.12400817871094 90.90025329589844 356.1160125732422 93.6949462890625 350.1000213623047L94.68963623046875 347.92100524902344L94.83174133300781 255.50502014160156L94.92652893066406 163.04202270507812L98.62123107910156 163.9420166015625C100.61100769042969 164.46299743652344 113.44801330566406 167.58900451660156 127.13700866699219 170.9530029296875L156.41099548339844 178.10499572753906L160.7689971923828 179.14700317382812V295.5320129394531C160.76901245117188 394.43701171875 160.86302185058594 412.2950134277344 161.43202209472656 414.4739990234375C161.70901489257812 415.5199890136719 161.93601989746094 416.2070007324219 161.93601989746094 416.6260070800781C161.93601989746094 417.01800537109375 161.7370147705078 417.1759948730469 161.1950225830078 417.1759948730469C160.53302001953125 417.1759948730469 159.35801696777344 416.9389953613281 157.40501403808594 416.6050109863281C143.00502014160156 414.1419982910156 129.93202209472656 409.3580017089844 117.42601013183594 401.9679870605469C114.78300476074219 400.4179992675781 112.05401611328125 399.70599365234375 109.47700500488281 399.70599365234375C102.47001647949219 399.70599365234375 96.58421325683594 404.9679870605469 96.58421325683594 412.93499755859375L96.58441162109375 413.0050048828125L96.6317138671875 417.5530090332031L100.70501708984375 423.9469909667969C127.468994140625 466.010986328125 147.97900390625 517.1209716796875 161.0050048828125 574.10498046875C163.7530059814453 586.1840209960938 165.03199768066406 588.4110107421875 170.47900390625 590.968017578125ZM160.7689971923828 7.8631591796875C160.76901245117188 51.1763916015625 160.62701416015625 86.63690185546875 160.43701171875 86.63690185546875V86.63681030273438C160.1999969482422 86.63681030273438 152.81100463867188 84.8367919921875 143.9530029296875 82.61050415039062L112.21600341796875 74.79470825195312C103.64199829101562 72.71051025390625 96.20539855957031 70.91049194335938 95.77909851074219 70.76840209960938C94.97380065917969 70.53160095214844 94.92649841308594 66.36318969726562 94.92649841308594 -8.289474487304688V-87.06321716308594L98.62120056152344 -86.16322326660156C100.61097717285156 -85.64210510253906 113.44798278808594 -82.51582336425781 127.13697814941406 -79.15261840820312L156.4109649658203 -72.00001525878906L160.7689666748047 -70.95791625976562Z" fill="black" /></g></svg>