<?xml version="1.0" encoding="utf-8" ?>
<svg baseProfile="tiny" height="100%" version="1.2" width="100%" xmlns="http://www.w3.org/2000/svg" xmlns:ev="http://www.w3.org/2001/xml-events" xmlns:xlink="http://www.w3.org/1999/xlink"><defs /><g transform="translate(0, 1000) scale(1, -1)"><path d="M-5.968414306640625 455.6369934082031C-4.116241455078125 456.3580017089844 -2.1783599853515625 456.6969909667969 -0.260589599609375 456.6969909667969C6.0123138427734375 456.6969909667969 12.070205688476562 453.0679931640625 14.210494995117188 447.29998779296875C15.15789794921875 444.74200439453125 15.15789794921875 444.4110107421875 15.15789794921875 276.34698486328125V107.9530029296875L16.957901000976562 109.42098999023438C44.417510986328125 132.5749969482422 73.47840881347656 144.447998046875 101.6920166015625 144.447998046875C112.90101623535156 144.447998046875 123.97601318359375 142.57400512695312 134.7630157470703 138.78900146484375C167.28302001953125 127.36799621582031 185.17401123046875 97.2008056640625 185.17401123046875 61.63459777832031C185.17401123046875 42.18220520019531 179.822021484375 21.11480712890625 168.58401489257812 0.61578369140625C152.85801696777344 -28.136795043945312 131.968017578125 -51.01580810546875 74.13160705566406 -102.78900146484375L17.621109008789062 -154.2790069580078C7.2473907470703125 -164.03701782226562 5.9210662841796875 -164.84201049804688 1.52587890625e-05 -164.84201049804688C-6.4894561767578125 -164.84201049804688 -12.078887939453125 -161.1470184326172 -14.210479736328125 -155.51101684570312L-15.157882690429688 -152.95301818847656V145.89500427246094V444.7419891357422L-14.210479736328125 447.2999725341797C-12.931564331054688 450.66297912597656 -9.2841796875 454.3579864501953 -5.9683837890625 455.63697814941406ZM81.14212036132812 95.68418884277344C78.23532104492188 96.24678039550781 74.4210205078125 96.58259582519531 71.16903686523438 96.58259582519531C69.49263000488281 96.58259582519531 67.96572875976562 96.4932861328125 66.78952026367188 96.29998779296875C47.510528564453125 93.36317443847656 30.978927612304688 82.13679504394531 18.663238525390625 63.66319274902344L15.157943725585938 58.40528869628906V-26.810501098632812L15.205337524414062 -112.0260009765625L17.810531616210938 -109.18399047851562C71.33683776855469 -51.205291748046875 106.20004272460938 15.489501953125 106.2950439453125 59.92109680175781V60.15629577636719C106.29505920410156 82.48748779296875 99.55136108398438 91.95518493652344 81.14215087890625 95.68418884277344Z" fill="black" /></g></svg>