<?xml version="1.0" encoding="utf-8" ?>
<svg baseProfile="tiny" height="100%" version="1.2" width="100%" xmlns="http://www.w3.org/2000/svg" xmlns:ev="http://www.w3.org/2001/xml-events" xmlns:xlink="http://www.w3.org/1999/xlink"><defs /><g transform="translate(0, 1000) scale(1, -1)"><path d="M-5.4473724365234375 622.2319946289062C-3.74481201171875 623.0339965820312 -1.8385467529296875 623.4169921875 0.08172607421875 623.4169921875C3.7176513671875 623.4169921875 7.40380859375 622.0419921875 9.852615356445312 619.531982421875C12.221084594726562 617.1630249023438 12.694686889648438 615.8839721679688 14.210479736328125 608.6370239257812C25.389480590820312 554.8740234375 48.12628173828125 497.7950134277344 75.22108459472656 455.21099853515625L79.29469299316406 448.8160095214844L79.34208679199219 444.26800537109375L79.34228515625 444.197998046875C79.34230041503906 436.2309875488281 73.45660400390625 430.968994140625 66.44931030273438 430.968994140625C63.87229919433594 430.968994140625 61.14349365234375 431.6809997558594 58.5 433.23199462890625C51.82110595703125 437.1629943847656 41.92109680175781 441.71099853515625 35.52630615234375 443.74700927734375C29.98419189453125 445.5469970703125 16.531600952148438 448.5790100097656 14.115798950195312 448.5790100097656C14.0592041015625 448.5790100097656 14.032196044921875 448.4989929199219 14.032196044921875 448.3590087890625C14.032196044921875 448.02899169921875 14.181503295898438 447.3680114746094 14.447402954101562 446.6369934082031C15.063201904296875 444.9320068359375 15.15789794921875 422.47900390625 15.15789794921875 276.29998779296875V107.9530029296875L16.957901000976562 109.42098999023438C44.417510986328125 132.5749969482422 73.47840881347656 144.447998046875 101.6920166015625 144.447998046875C112.90101623535156 144.447998046875 123.97601318359375 142.57400512695312 134.7630157470703 138.78900146484375C167.28302001953125 127.36799621582031 185.17401123046875 97.2008056640625 185.17401123046875 61.63459777832031C185.17401123046875 42.18220520019531 179.822021484375 21.11480712890625 168.58401489257812 0.61578369140625C152.47901916503906 -28.847396850585938 132.58401489257812 -50.399993896484375 69.63160705566406 -106.81600952148438L28.942108154296875 -143.71600341796875L17.478912353515625 -154.3260040283203L15.157913208007812 -156.41099548339844V-173.60499572753906C15.157913208007812 -187.43701171875 15.015823364257812 -191.17901611328125 14.447418212890625 -192.7420196533203C14.1815185546875 -193.4730224609375 14.032211303710938 -194.13401794433594 14.032211303710938 -194.46401977539062C14.032211303710938 -194.60401916503906 14.059219360351562 -194.68402099609375 14.115814208984375 -194.68402099609375C16.5316162109375 -194.68402099609375 29.984207153320312 -191.65301513671875 35.52632141113281 -189.85301208496094C41.921112060546875 -187.81600952148438 51.82112121582031 -183.2680206298828 58.50001525878906 -179.33702087402344C61.14350891113281 -177.7860107421875 63.872314453125 -177.07501220703125 66.44932556152344 -177.07501220703125C73.45661926269531 -177.07501220703125 79.34231567382812 -182.33702087402344 79.34231567382812 -190.30401611328125L79.34211730957031 -190.37400817871094L79.29472351074219 -194.9210205078125L75.22111511230469 -201.31600952148438C48.126312255859375 -243.9000244140625 25.389511108398438 -300.9790344238281 14.21051025390625 -354.7420349121094C11.936813354492188 -365.7790222167969 8.431594848632812 -369.4740295410156 0.2368621826171875 -369.4740295410156C-8.52630615234375 -369.4740295410156 -11.652587890625 -365.7790222167969 -14.92108154296875 -351.4740295410156C-27.9473876953125 -294.4890441894531 -48.4578857421875 -243.3790283203125 -75.22108459472656 -201.31602478027344L-79.29469299316406 -194.92103576660156V-190.42103576660156L-79.29489135742188 -190.35003662109375C-79.29489135742188 -182.32102966308594 -73.44419860839844 -177.06802368164062 -66.45809936523438 -177.06802368164062C-63.88099670410156 -177.06802368164062 -61.14939880371094 -177.7830352783203 -58.5 -179.3370361328125C-51.82110595703125 -183.26803588867188 -41.92109680175781 -187.81602478027344 -35.52630615234375 -189.85302734375C-29.98419189453125 -191.6530303955078 -16.531600952148438 -194.6840362548828 -14.115798950195312 -194.6840362548828C-14.0592041015625 -194.6840362548828 -14.032196044921875 -194.60403442382812 -14.032196044921875 -194.4640350341797C-14.032196044921875 -194.134033203125 -14.181503295898438 -193.47303771972656 -14.447402954101562 -192.74203491210938C-15.063201904296875 -191.0370330810547 -15.15789794921875 -149.96803283691406 -15.15789794921875 126.94694519042969C-15.15789794921875 403.8629608154297 -15.063201904296875 444.9319610595703 -14.447402954101562 446.63694763183594C-14.181503295898438 447.3679656982422 -14.032196044921875 448.02894592285156 -14.032196044921875 448.3589630126953C-14.032196044921875 448.4989471435547 -14.0592041015625 448.57896423339844 -14.115798950195312 448.57896423339844C-16.531600952148438 448.57896423339844 -29.98419189453125 445.5469512939453 -35.52630615234375 443.74696350097656C-41.92109680175781 441.71095275878906 -51.82110595703125 437.16294860839844 -58.5 433.23194885253906C-61.14349365234375 431.6809539794922 -63.87229919433594 430.9689483642578 -66.44931030273438 430.9689483642578C-73.45660400390625 430.9689483642578 -79.34230041503906 436.23094177246094 -79.34230041503906 444.1979522705078L-79.34210205078125 444.26795959472656L-79.29470825195312 448.8159637451172L-75.22109985351562 455.21095275878906C-48.45790100097656 497.27394104003906 -27.947402954101562 548.3839263916016 -14.921096801757812 605.3679351806641C-12.1737060546875 617.4469757080078 -10.894699096679688 619.6739654541016 -5.4473724365234375 622.2319488525391ZM81.14210510253906 95.68415832519531C78.23530578613281 96.24674987792969 74.42100524902344 96.58256530761719 71.16902160644531 96.58256530761719C69.49261474609375 96.58256530761719 67.96571350097656 96.49325561523438 66.78950500488281 96.29995727539062C47.51051330566406 93.36314392089844 30.978912353515625 82.13676452636719 18.663223266601562 63.66316223144531L15.157928466796875 58.40525817871094V-26.810531616210938L15.205322265625 -112.02603149414062L17.810516357421875 -109.18402099609375C71.33682250976562 -51.205322265625 106.20002746582031 15.489471435546875 106.29502868652344 59.92106628417969V60.15626525878906C106.2950439453125 82.48745727539062 99.55134582519531 91.95515441894531 81.14213562011719 95.68415832519531Z" fill="black" /></g></svg>