<?xml version="1.0" encoding="utf-8" ?>
<svg baseProfile="tiny" height="100%" version="1.2" width="100%" xmlns="http://www.w3.org/2000/svg" xmlns:ev="http://www.w3.org/2001/xml-events" xmlns:xlink="http://www.w3.org/1999/xlink"><defs /><g transform="translate(0, 1000) scale(1, -1)"><path d="M259.6759948730469 390.74200439453125C260.7969970703125 391.0220031738281 261.94000244140625 391.1570129394531 263.0830078125 391.1570129394531C268.89599609375 391.1570129394531 274.68499755859375 387.6789855957031 277.2969970703125 382.21600341796875L278.52899169921875 379.6099853515625L278.7659912109375 284.3529968261719L279.00299072265625 189.09500122070312L297.7130126953125 192.60000610351562C309.62701416015625 194.79600524902344 316.5950012207031 195.9429931640625 321.1960144042969 195.9429931640625C326.4179992675781 195.9429931640625 328.59100341796875 194.46600341796875 331.48699951171875 191.3679962158203C335.2139892578125 187.38099670410156 335.37200927734375 188.70700073242188 335.37200927734375 159.36199951171875L335.3710021972656 150.3470001220703V116.24198913574219L334.0450134277344 113.5419921875C330.72900390625 106.81600952148438 329.5920104980469 106.38900756835938 302.1659851074219 101.36799621582031C289.51800537109375 99.0 279.04998779296875 97.010498046875 278.9549865722656 96.91571044921875C278.885986328125 96.84640502929688 278.8420104980469 77.53549194335938 278.8420104980469 49.96539306640625C278.8420104980469 39.87409973144531 278.8479919433594 28.676300048828125 278.8599853515625 16.910491943359375L279.00299072265625 -62.905303955078125L297.7130126953125 -59.40000915527344C309.62701416015625 -57.20361328125 316.5950012207031 -56.05671691894531 321.1960144042969 -56.05671691894531C326.4179992675781 -56.05671691894531 328.59100341796875 -57.534210205078125 331.48699951171875 -60.63160705566406C335.2139892578125 -64.61860656738281 335.37200927734375 -63.29270935058594 335.37200927734375 -92.63810729980469L335.3710021972656 -101.65299987792969V-135.75799560546875L334.0450134277344 -138.45799255371094C330.7760009765625 -145.08998107910156 329.3080139160156 -145.65798950195312 304.48699951171875 -150.20498657226562C293.0710144042969 -152.28997802734375 282.6029968261719 -154.2319793701172 281.2760009765625 -154.5159912109375L278.7659912109375 -154.989990234375V-248.5419921875L278.7669982910156 -273.62098693847656C278.7669982910156 -348.99497985839844 278.64898681640625 -345.0489959716797 276.0660095214844 -349.01097106933594C273.1289978027344 -353.4869842529297 268.25 -355.72499084472656 263.3710021972656 -355.72499084472656C258.49200439453125 -355.72499084472656 253.61300659179688 -353.4869842529297 250.67599487304688 -349.01097106933594C248.09300231933594 -345.0489959716797 247.97500610351562 -348.7989959716797 247.97500610351562 -275.63197326660156L247.9759979248047 -251.28997802734375V-160.531982421875L246.9340057373047 -160.7679901123047C246.31797790527344 -160.91098022460938 231.4919891357422 -163.65798950195312 214.0129852294922 -166.8319854736328L182.1339874267578 -172.70498657226562L182.0389862060547 -267.4419708251953L181.89698791503906 -362.17897033691406L180.90298461914062 -364.3579864501953C178.10797119140625 -370.3739776611328 172.42396545410156 -373.38197326660156 166.7389678955078 -373.38197326660156C161.05496215820312 -373.38197326660156 155.3709716796875 -370.3739776611328 152.5759735107422 -364.3579864501953L151.58197021484375 -362.17897033691406L151.43896484375 -270.2369842529297L151.344970703125 -178.34197998046875L118.51797485351562 -184.3109893798828L85.7393798828125 -190.32598876953125L85.50257873535156 -285.01597595214844L85.26567077636719 -379.70497131347656L84.03407287597656 -382.3109893798828C81.23936462402344 -388.20799255371094 75.67355346679688 -391.15699768066406 70.10775756835938 -391.15699768066406C64.54194641113281 -391.15699768066406 58.97625732421875 -388.20799255371094 56.18145751953125 -382.3109893798828L54.949859619140625 -379.70497131347656L54.80775451660156 -287.9049835205078C54.76045227050781 -237.45797729492188 54.5235595703125 -196.15298461914062 54.33406066894531 -196.15298461914062C54.1446533203125 -196.15298461914062 45.902557373046875 -197.66798400878906 36.04985046386719 -199.46798706054688C24.967056274414062 -201.52297973632812 18.353057861328125 -202.59999084472656 13.936248779296875 -202.59999084472656C8.7821044921875 -202.59999084472656 6.61981201171875 -201.1339874267578 3.8393707275390625 -198.04698181152344C0.1900177001953125 -193.97398376464844 -4.57763671875e-05 -195.677978515625 -4.57763671875e-05 -168.15298461914062C-4.57763671875e-05 -164.9519805908203 0.0025177001953125 -161.3569793701172 0.0025177001953125 -157.3109893798828V-122.96798706054688L1.0919952392578125 -120.552978515625C2.370941162109375 -117.75796508789062 5.3077850341796875 -114.72596740722656 8.149887084960938 -113.25796508789062C10.376251220703125 -112.1209716796875 12.318359375 -111.69497680664062 36.80775451660156 -107.24197387695312L54.71305847167969 -104.02098083496094V-24.063186645507812C54.71305847167969 19.89471435546875 54.570953369140625 55.847320556640625 54.33406066894531 55.847320556640625C54.1446533203125 55.847320556640625 45.902557373046875 54.37892150878906 36.04985046386719 52.53150939941406C24.967056274414062 50.476715087890625 18.353057861328125 49.40040588378906 13.936248779296875 49.40040588378906C8.7821044921875 49.40040588378906 6.61981201171875 50.86601257324219 3.8393707275390625 53.95262145996094C0.1900177001953125 58.02632141113281 -4.57763671875e-05 56.32182312011719 -4.57763671875e-05 83.84701538085938C-4.57763671875e-05 87.04762268066406 0.0025177001953125 90.64341735839844 0.0025177001953125 94.68940734863281V129.03199768066406L1.0919952392578125 131.44700622558594C2.370941162109375 134.2419891357422 5.3077850341796875 137.27398681640625 8.149887084960938 138.7419891357422C10.376251220703125 139.8789825439453 12.318359375 140.3049774169922 36.80775451660156 144.7579803466797L54.71305847167969 147.97898864746094V244.98898315429688C54.71305847167969 254.5409698486328 54.71185302734375 263.177978515625 54.71185302734375 270.9919738769531C54.71185302734375 349.1349792480469 54.82936096191406 344.9539794921875 57.413055419921875 348.91595458984375C60.349853515625 353.3919677734375 65.22885131835938 355.6299743652344 70.10775756835938 355.6299743652344C74.98675537109375 355.6299743652344 79.86564636230469 353.3919677734375 82.80255126953125 348.91595458984375C85.38624572753906 344.9539794921875 85.50364685058594 348.93896484375 85.50364685058594 273.18096923828125L85.50254821777344 247.97396850585938C85.50254821777344 161.0999755859375 85.54985046386719 153.89996337890625 86.26045227050781 153.89996337890625C86.97096252441406 153.89996337890625 147.6029510498047 164.88897705078125 150.2549591064453 165.50497436523438L151.34495544433594 165.74197387695312L151.43894958496094 263.9369812011719L151.5819549560547 362.083984375L152.57595825195312 364.2629699707031C155.3709716796875 370.2789611816406 161.05496215820312 373.2869567871094 166.7389678955078 373.2869567871094C172.42396545410156 373.2869567871094 178.10797119140625 370.2789611816406 180.90296936035156 364.2629699707031L181.89697265625 362.083984375L182.03897094726562 266.7319641113281L182.13397216796875 171.33197021484375L183.45997619628906 171.615966796875C186.39695739746094 172.23196411132812 247.07595825195312 183.26797485351562 247.50296020507812 183.26797485351562C247.78695678710938 183.26797485351562 248.02395629882812 218.65296936035156 248.07095336914062 281.4629821777344L248.21295166015625 379.6099548339844L249.44496154785156 382.2159729003906C251.48194885253906 386.4789733886719 255.2239532470703 389.60498046875 259.6759490966797 390.7419738769531ZM247.9759521484375 11.32098388671875C247.97593688964844 74.986572265625 247.83494567871094 91.32637023925781 247.40994262695312 91.32637023925781L247.40794372558594 91.32627868652344C247.075927734375 91.32627868652344 232.2499237060547 88.57888793945312 214.48692321777344 85.31048583984375L182.13392639160156 79.294677734375V-0.6632232666015625V-80.66853332519531L183.45993041992188 -80.38432312011719C186.44491577148438 -79.76850891113281 247.07591247558594 -68.73161315917969 247.50291442871094 -68.73161315917969C247.8339080810547 -68.73161315917969 247.9759063720703 -40.40531921386719 247.9759063720703 11.32098388671875ZM151.1549072265625 -86.1632080078125C151.22491455078125 -86.0592041015625 151.26890563964844 -66.73899841308594 151.26890563964844 -39.18499755859375C151.26890563964844 -29.099594116210938 151.26290893554688 -17.910995483398438 151.24990844726562 -6.1579437255859375L151.10791015625 73.61048889160156L118.42391967773438 67.64208984375L85.73931884765625 61.673583984375L85.59721374511719 -18.18951416015625C85.57551574707031 -35.54530334472656 85.56132507324219 -49.14210510253906 85.56132507324219 -59.79170227050781C85.56132507324219 -95.70489501953125 85.72322082519531 -98.10000610351562 86.30772399902344 -98.10000610351562C87.53932189941406 -98.10000610351562 150.8709259033203 -86.39999389648438 151.15492248535156 -86.1632080078125Z" fill="black" /></g></svg>