<?xml version="1.0" encoding="utf-8" ?>
<svg baseProfile="tiny" height="100%" version="1.2" width="100%" xmlns="http://www.w3.org/2000/svg" xmlns:ev="http://www.w3.org/2001/xml-events" xmlns:xlink="http://www.w3.org/1999/xlink"><defs /><g transform="translate(0, 1000) scale(1, -1)"><path d="M-5.968414306640625 455.6369934082031C-4.116241455078125 456.3580017089844 -2.1783599853515625 456.6969909667969 -0.260589599609375 456.6969909667969C6.0123138427734375 456.6969909667969 12.070205688476562 453.0679931640625 14.210494995117188 447.29998779296875C15.15789794921875 444.78900146484375 15.15789794921875 443.9840087890625 15.15789794921875 363.78900146484375C15.15789794921875 319.21600341796875 15.252593994140625 282.78900146484375 15.394699096679688 282.78900146484375C15.53680419921875 282.78900146484375 36.61579895019531 293.30499267578125 62.28950500488281 306.1419982910156L108.94700622558594 329.4469909667969L112.87901306152344 329.5889892578125C113.13002014160156 329.6000061035156 113.37901306152344 329.6050109863281 113.62501525878906 329.6050109863281C122.60200500488281 329.6050109863281 129.0080108642578 322.8590087890625 129.0080108642578 314.65899658203125C129.0080108642578 312.7300109863281 128.65402221679688 310.72100830078125 127.89500427246094 308.70001220703125C125.81101989746094 303.1109924316406 127.9420166015625 304.3420104980469 68.73161315917969 274.73699951171875L15.157913208007812 247.9739990234375V177.96299743652344V107.9530029296875L16.957916259765625 109.42098999023438C44.41752624511719 132.5749969482422 73.47842407226562 144.447998046875 101.69203186035156 144.447998046875C112.90103149414062 144.447998046875 123.97602844238281 142.57400512695312 134.76303100585938 138.78900146484375C167.2830352783203 127.36799621582031 185.1740264892578 97.2008056640625 185.1740264892578 61.63459777832031C185.1740264892578 42.18220520019531 179.82203674316406 21.11480712890625 168.5840301513672 0.61578369140625C152.8580322265625 -28.136795043945312 131.96803283691406 -51.01580810546875 74.13162231445312 -102.78900146484375L17.621124267578125 -154.2790069580078C7.247406005859375 -164.03701782226562 5.92108154296875 -164.84201049804688 3.0517578125e-05 -164.84201049804688C-6.48944091796875 -164.84201049804688 -12.078872680664062 -161.1470184326172 -14.210464477539062 -155.51101684570312C-15.157867431640625 -152.95301818847656 -15.157867431640625 -152.7160186767578 -15.157867431640625 39.78948974609375C-15.157867431640625 145.84698486328125 -15.2525634765625 232.5789794921875 -15.394668579101562 232.5789794921875C-15.536773681640625 232.5789794921875 -36.61576843261719 222.06298828125 -62.28947448730469 209.27398681640625L-108.94697570800781 185.92098999023438L-112.87898254394531 185.77899169921875C-113.12998962402344 185.7689971923828 -113.37898254394531 185.76400756835938 -113.62498474121094 185.76400756835938C-122.60197448730469 185.76400756835938 -129.0079803466797 192.50999450683594 -129.0079803466797 200.70899963378906C-129.0079803466797 202.63800048828125 -128.65399169921875 204.6479949951172 -127.89497375488281 206.66799926757812C-125.81098937988281 212.25799560546875 -127.94198608398438 211.0260009765625 -68.73158264160156 240.6320037841797L-15.157882690429688 267.3949890136719V356.0679931640625C-15.157882690429688 444.0320129394531 -15.157882690429688 444.78900146484375 -14.210479736328125 447.29998779296875C-12.93157958984375 450.6629943847656 -9.284194946289062 454.3580017089844 -5.9683990478515625 455.6369934082031ZM81.14210510253906 95.6842041015625C78.23530578613281 96.24679565429688 74.42100524902344 96.58261108398438 71.16902160644531 96.58261108398438C69.49261474609375 96.58261108398438 67.96571350097656 96.49330139160156 66.78950500488281 96.30000305175781C47.51051330566406 93.36318969726562 30.978912353515625 82.13681030273438 18.663223266601562 63.6632080078125L15.157928466796875 58.405303955078125V-26.81048583984375L15.205322265625 -112.02598571777344L17.810516357421875 -109.18397521972656C71.33682250976562 -51.20527648925781 106.20002746582031 15.489517211914062 106.29502868652344 59.921112060546875V60.15631103515625C106.2950439453125 82.48750305175781 99.55134582519531 91.9552001953125 81.14213562011719 95.6842041015625Z" fill="black" /></g></svg>