<?xml version="1.0" encoding="utf-8" ?>
<svg baseProfile="tiny" height="100%" version="1.2" width="100%" xmlns="http://www.w3.org/2000/svg" xmlns:ev="http://www.w3.org/2001/xml-events" xmlns:xlink="http://www.w3.org/1999/xlink"><defs /><g transform="translate(0, 1000) scale(1, -1)"><path d="M-5.968414306640625 455.6369934082031C-4.116241455078125 456.3580017089844 -2.1783599853515625 456.6969909667969 -0.260589599609375 456.6969909667969C6.0123138427734375 456.6969909667969 12.070205688476562 453.0679931640625 14.210494995117188 447.29998779296875C15.15789794921875 444.78900146484375 15.15789794921875 444.0320129394531 15.15789794921875 357.1579895019531C15.15789794921875 308.93701171875 15.300003051757812 269.5260009765625 15.489501953125 269.5260009765625C15.631607055664062 269.5260009765625 47.17889404296875 281.6050109863281 85.59469604492188 296.3840026855469L155.36798095703125 323.19500732421875V383.9679870605469C155.3679962158203 443.8890075683594 155.3679962158203 444.78900146484375 156.3159942626953 447.29998779296875C158.55499267578125 453.2900085449219 164.5780029296875 456.67401123046875 170.63800048828125 456.67401123046875C174.44900512695312 456.67401123046875 178.2760009765625 455.3349914550781 181.1840057373047 452.4630126953125C185.8260040283203 447.9159851074219 185.39999389648438 453.69500732421875 185.6840057373047 390.4580078125L185.92100524902344 334.989013671875L232.8159942626953 353.0369873046875C271.4490203857422 367.9010009765625 280.8100128173828 371.5889892578125 285.47901916503906 371.5889892578125C287.1940155029297 371.5889892578125 288.27601623535156 371.0920104980469 289.94200134277344 370.4679870605469C296.11500549316406 368.1340026855469 299.3770294189453 362.1780090332031 299.3770294189453 356.1619873046875C299.3770294189453 351.1910095214844 297.15000915527344 346.17999267578125 292.50001525878906 343.1369934082031C291.88401794433594 342.75799560546875 267.6320037841797 333.28399658203125 238.6420135498047 322.1050109863281L185.9210205078125 301.8320007324219L185.77902221679688 204.8679962158203L185.68402099609375 107.9530029296875L187.43701171875 109.42098999023438C214.92999267578125 132.5749969482422 244.00100708007812 144.447998046875 272.2179870605469 144.447998046875C283.427001953125 144.447998046875 294.50201416015625 142.57400512695312 305.28900146484375 138.78900146484375C337.8089904785156 127.36799621582031 355.70001220703125 97.2008056640625 355.70001220703125 61.63459777832031C355.70001220703125 42.18220520019531 350.3479919433594 21.11480712890625 339.1109924316406 0.61578369140625C323.3840026855469 -28.136795043945312 302.4949951171875 -51.01580810546875 244.6580047607422 -102.78900146484375L188.14700317382812 -154.2790069580078C177.7740020751953 -164.03701782226562 176.44700622558594 -164.84201049804688 170.5260009765625 -164.84201049804688C165.97900390625 -164.84201049804688 162.75799560546875 -163.56301879882812 159.6790008544922 -160.53201293945312C155.64199829101562 -156.45401000976562 155.36099243164062 -160.8710174560547 155.36099243164062 -113.76600646972656C155.36099243164062 -106.15301513671875 155.3679962158203 -97.19462585449219 155.3679962158203 -86.63682556152344V-20.321121215820312L151.7209930419922 -24.963226318359375C134.7629852294922 -46.657928466796875 117.99497985839844 -63.52113342285156 74.13157653808594 -102.78903198242188L17.621078491210938 -154.27903747558594C7.2473602294921875 -164.03704833984375 5.9210357666015625 -164.842041015625 -1.52587890625e-05 -164.842041015625C-6.1105499267578125 -164.842041015625 -11.510513305664062 -161.5260467529297 -13.926315307617188 -156.3160400390625L-14.921112060546875 -154.18405151367188L-15.157913208007812 35.099945068359375L-15.39471435546875 224.43194580078125L-60.39471435546875 207.09494018554688C-97.39080810546875 192.84994506835938 -106.49899291992188 189.25494384765625 -111.13299560546875 189.25494384765625C-112.84799194335938 189.25494384765625 -113.94999694824219 189.74693298339844 -115.62600708007812 190.37393188476562C-121.80000305175781 192.7079315185547 -125.06100463867188 198.6639404296875 -125.06100463867188 204.679931640625C-125.06100463867188 209.65093994140625 -122.83499145507812 214.6619415283203 -118.18399047851562 217.70494079589844C-117.5679931640625 218.0839385986328 -94.21578979492188 227.22593688964844 -66.22109985351562 237.97894287109375L-15.394699096679688 257.54193115234375L-15.15789794921875 351.7579345703125L-14.921096801757812 445.97393798828125L-13.926300048828125 448.1049499511719C-12.552597045898438 451.04193115234375 -8.905258178710938 454.54693603515625 -5.968414306640625 455.6369323730469ZM155.3679962158203 208.84693908691406C155.36801147460938 253.42095947265625 155.22601318359375 289.8949432373047 155.03701782226562 289.8949432373047C154.80001831054688 289.84693908691406 123.25300598144531 277.76795959472656 84.93162536621094 263.0369415283203L15.157913208007812 236.178955078125V172.04196166992188V107.95295715332031L16.957916259765625 109.42094421386719C44.33982849121094 132.5249481201172 75.51123046875 144.58294677734375 103.80703735351562 144.58294677734375C121.572021484375 144.58294677734375 138.2040252685547 139.8299560546875 152.0530242919922 130.07395935058594L154.80003356933594 128.178955078125C154.80404663085938 128.17694091796875 154.8070526123047 128.17494201660156 154.81105041503906 128.17494201660156C155.2290496826172 128.17494201660156 155.3680419921875 144.7389373779297 155.3680419921875 208.84693908691406ZM81.14215087890625 95.68412780761719C78.2353515625 96.24671936035156 74.42105102539062 96.58253479003906 71.1690673828125 96.58253479003906C69.49266052246094 96.58253479003906 67.96575927734375 96.49322509765625 66.78955078125 96.2999267578125C47.51055908203125 93.36311340332031 30.978958129882812 82.13673400878906 18.66326904296875 63.66313171386719L15.157974243164062 58.40522766113281V-26.810562133789062L15.205368041992188 -112.02606201171875L17.810562133789062 -109.18405151367188C71.33686828613281 -51.205352783203125 106.2000732421875 15.48944091796875 106.29507446289062 59.92103576660156V60.15623474121094C106.29508972167969 82.4874267578125 99.5513916015625 91.95512390136719 81.14218139648438 95.68412780761719ZM251.6680908203125 95.68412780761719C248.7620849609375 96.24671936035156 244.9470977783203 96.58253479003906 241.69509887695312 96.58253479003906C240.0190887451172 96.58253479003906 238.49209594726562 96.49322509765625 237.3160858154297 96.2999267578125C218.03709411621094 93.36311340332031 201.50509643554688 82.13673400878906 189.1890869140625 63.66313171386719L185.68409729003906 58.40522766113281V-26.810562133789062L185.73208618164062 -112.02606201171875L188.33709716796875 -109.18405151367188C241.86309814453125 -51.205352783203125 276.7261047363281 15.48944091796875 276.82110595703125 59.92103576660156V60.15623474121094C276.82110595703125 82.4874267578125 270.0780944824219 91.95512390136719 251.6680908203125 95.68412780761719Z" fill="black" /></g></svg>