<?xml version="1.0" encoding="utf-8" ?>
<svg baseProfile="tiny" height="100%" version="1.2" width="100%" xmlns="http://www.w3.org/2000/svg" xmlns:ev="http://www.w3.org/2001/xml-events" xmlns:xlink="http://www.w3.org/1999/xlink"><defs /><g transform="translate(0, 1000) scale(1, -1)"><path d="M8.526321411132812 332.1470031738281C10.89471435546875 333.23699951171875 11.984207153320312 333.4739990234375 15.157913208007812 333.4739990234375C21.50531005859375 333.4739990234375 26.668411254882812 330.2049865722656 29.321121215820312 324.52099609375L30.315826416015625 322.3420104980469L30.457931518554688 235.56300354003906C30.505340576171875 187.81600952148438 30.647445678710938 148.7370147705078 30.78955078125 148.7370147705078C30.884246826171875 148.7370147705078 59.4947509765625 155.79501342773438 94.310546875 164.36801147460938C144.21604919433594 176.67800903320312 157.4950408935547 180.03701782226562 162.904052734375 180.03701782226562C165.17604064941406 180.03701782226562 166.05905151367188 179.4440155029297 167.68405151367188 178.67401123046875C170.90504455566406 177.1110076904297 173.70004272460938 174.31600952148438 175.21604919433594 171.04701232910156L176.21104431152344 168.86801147460938L176.35304260253906 -75.55258178710938C176.373046875 -120.78196716308594 176.38504028320312 -157.88296508789062 176.38504028320312 -188.28097534179688C176.38504028320312 -299.10296630859375 176.23004150390625 -320.83197021484375 175.78404235839844 -322.5789794921875C175.50204467773438 -323.62896728515625 175.2720489501953 -324.31097412109375 175.2720489501953 -324.7209777832031C175.2720489501953 -325.08697509765625 175.45603942871094 -325.2359619140625 175.95204162597656 -325.2359619140625C176.5780487060547 -325.2359619140625 177.70004272460938 -324.99896240234375 179.5740509033203 -324.6629638671875C193.78404235839844 -322.1999816894531 206.90504455566406 -317.41595458984375 219.3160400390625 -310.073974609375C221.95904541015625 -308.5229797363281 224.68804931640625 -307.81097412109375 227.26504516601562 -307.81097412109375C234.2720489501953 -307.81097412109375 240.15805053710938 -313.0729675292969 240.15805053710938 -321.03997802734375V-321.1109619140625L240.1110382080078 -325.657958984375L236.03704833984375 -332.052978515625C208.9420623779297 -374.636962890625 186.20506286621094 -431.7159729003906 175.02606201171875 -485.4789733886719C172.75306701660156 -496.5159606933594 169.24705505371094 -500.2109680175781 161.0530548095703 -500.2109680175781C152.2890625 -500.2109680175781 149.16305541992188 -496.5159606933594 145.8950653076172 -482.2109680175781C132.86805725097656 -425.2259826660156 112.35806274414062 -374.115966796875 85.59475708007812 -332.052978515625L81.52114868164062 -325.657958984375V-321.157958984375L81.52093505859375 -321.08697509765625C81.52093505859375 -313.0579833984375 87.37162780761719 -307.8049621582031 94.35772705078125 -307.8049621582031C96.93482971191406 -307.8049621582031 99.66642761230469 -308.51995849609375 102.3160400390625 -310.073974609375C114.82102966308594 -317.4629821777344 127.89501953125 -322.2469787597656 142.29502868652344 -324.7109680175781C144.2470245361328 -325.04498291015625 145.42202758789062 -325.2809753417969 146.0850372314453 -325.2809753417969C146.62603759765625 -325.2809753417969 146.8250274658203 -325.1229553222656 146.8250274658203 -324.73095703125C146.8250274658203 -324.3119812011719 146.59803771972656 -323.6249694824219 146.32102966308594 -322.5789794921875C145.75303649902344 -320.39996337890625 145.6580352783203 -306.4739685058594 145.6580352783203 -232.4839630126953C145.6580352783203 -177.06297302246094 145.46803283691406 -144.9469757080078 145.1840362548828 -144.9469757080078C144.94703674316406 -144.9469757080078 116.24203491210938 -151.9579620361328 81.42633056640625 -160.57896423339844C31.549728393554688 -172.87196350097656 18.435836791992188 -176.18797302246094 13.139633178710938 -176.18797302246094C10.946426391601562 -176.18797302246094 10.093826293945312 -175.6189727783203 8.526351928710938 -174.88397216796875C5.3052978515625 -173.3209686279297 2.51055908203125 -170.52597045898438 0.9947662353515625 -167.25796508789062L3.0517578125e-05 -165.07896423339844V78.63163757324219V322.34205627441406L0.9947662353515625 324.5210418701172C2.5105438232421875 327.78904724121094 5.3052825927734375 330.5840606689453 8.526336669921875 332.1470489501953ZM145.56301879882812 16.010543823242188C145.5850372314453 30.842041015625 145.59902954101562 42.462249755859375 145.59902954101562 51.56364440917969C145.59902954101562 82.00094604492188 145.44003295898438 84.26893615722656 144.86703491210938 84.26893615722656L144.85302734375 84.26844787597656C144.3790283203125 84.22114562988281 118.46803283691406 77.921142578125 87.30003356933594 70.20004272460938L30.552627563476562 56.13165283203125V-12.17364501953125C30.5526123046875 -49.78413391113281 30.694717407226562 -80.5262451171875 30.931610107421875 -80.5262451171875L88.34210205078125 -66.41044616699219L145.42100524902344 -52.294647216796875Z" fill="black" /></g></svg>