<?xml version="1.0" encoding="utf-8" ?>
<svg baseProfile="tiny" height="100%" version="1.2" width="100%" xmlns="http://www.w3.org/2000/svg" xmlns:ev="http://www.w3.org/2001/xml-events" xmlns:xlink="http://www.w3.org/1999/xlink"><defs /><g transform="translate(0, 1000) scale(1, -1)"><path d="M-19.375 519.8280029296875C-17.875 520.0 -14.421905517578125 520.073974609375 -9.970703125 520.073974609375C3.3828125 520.073974609375 25.718795776367188 519.406982421875 31.25 518.7030029296875C132.75 505.3909912109375 215.06199645996094 438.2030029296875 246.875 342.7030029296875C255.69400024414062 316.3179931640625 260.13299560546875 288.2250061035156 260.13299560546875 260.0419921875C260.13299560546875 239.09100341796875 257.67999267578125 218.09100341796875 252.75 197.7030029296875C230.31199645996094 104.8909912109375 155.31199645996094 29.890899658203125 62.5 7.453399658203125C41.64250183105469 2.418487548828125 20.749404907226562 0.0 0.1815338134765625 0.0C-109.97200012207031 0.0 -210.7989959716797 69.36900329589844 -246.875 177.7030029296875C-255.69400024414062 204.08900451660156 -260.13299560546875 232.1820068359375 -260.13299560546875 260.364990234375C-260.13299560546875 281.3160095214844 -257.67999267578125 302.3160095214844 -252.75 322.7030029296875C-227.31199645996094 427.7030029296875 -135.25 508.2659912109375 -28.4375 518.8909912109375ZM29.6875 498.0780029296875C24.731094360351562 498.7860107421875 3.4818572998046875 499.4230041503906 -9.395523071289062 499.4230041503906C-13.56829833984375 499.4230041503906 -16.86199951171875 499.3559875488281 -18.4375 499.2030029296875C-139.5 487.5159912109375 -230.875 395.2030029296875 -239.125 276.3280029296875L-239.5 270.2030029296875H0.0H239.5L239.125 276.3280029296875C231.18800354003906 390.8909912109375 145.625 481.5159912109375 29.6875 498.0780029296875ZM239.06199645996094 243.8280029296875 239.5 249.5780029296875H0.0H-239.5L-239.06199645996094 243.8280029296875C-231.12498474121094 133.3280029296875 -148.99998474121094 42.578399658203125 -40.31248474121094 24.078399658203125C-24.624984741210938 21.390899658203125 -21.312484741210938 21.140899658203125 1.52587890625e-05 21.140899658203125C21.312515258789062 21.140899658203125 24.625015258789062 21.390899658203125 40.31251525878906 24.078399658203125C149.00001525878906 42.578399658203125 231.12501525878906 133.3280029296875 239.06201171875 243.8280029296875Z" fill="black" /></g></svg>