<?xml version="1.0" encoding="utf-8" ?>
<svg baseProfile="tiny" height="100%" version="1.2" width="100%" xmlns="http://www.w3.org/2000/svg" xmlns:ev="http://www.w3.org/2001/xml-events" xmlns:xlink="http://www.w3.org/1999/xlink"><defs /><g transform="translate(0, 1000) scale(1, -1)"><path d="M-36.25920104980469 1019.1500244140625C-23.689376831054688 1020.0800170898438 -11.182281494140625 1020.5399780273438 1.2438507080078125 1020.5399780273438C255.7320098876953 1020.5399780273438 476.2790069580078 827.8179931640625 506.4910125732422 571.4010009765625C508.94700622558594 550.583984375 510.1420135498047 529.9769897460938 510.1420135498047 509.6449890136719C510.1420135498047 228.47900390625 281.6630096435547 0.0 0.4966583251953125 0.0C-19.835281372070312 0.0 -40.44268798828125 1.1947479248046875 -61.259185791015625 3.6507110595703125C-293.6339874267578 31.02569580078125 -479.1339874267578 216.5260009765625 -506.5089874267578 448.9010009765625C-508.9509735107422 469.5820007324219 -510.14198303222656 490.0989990234375 -510.14198303222656 510.3760070800781C-510.14198303222656 775.0399780273438 -307.3049774169922 999.0070190429688 -36.25920104980469 1019.1500244140625ZM33.67829895019531 998.5880126953125C22.0714111328125 999.447998046875 10.471420288085938 999.8729858398438 -1.1000213623046875 999.8729858398438C-149.35098266601562 999.8729858398438 -292.90098571777344 930.1110229492188 -386.0089874267578 811.0880126953125C-395.7589874267578 798.5880126953125 -414.3839874267578 771.9630126953125 -414.3839874267578 770.4630126953125C-414.3839874267578 770.2760009765625 -227.8839874267578 770.1510009765625 -0.0091400146484375 770.1510009765625C227.92800903320312 770.1510009765625 414.3660125732422 770.2760009765625 414.3660125732422 770.4630126953125C414.3660125732422 771.0880126953125 406.0530242919922 783.6510009765625 399.4910125732422 792.9630126953125C314.7410125732422 912.8380126953125 181.67800903320312 987.5880126953125 33.678314208984375 998.5880126953125ZM434.1780090332031 736.2760009765625 427.2409973144531 749.5260009765625H-0.0091552734375H-427.2590026855469L-434.1969909667969 736.2760009765625C-467.6340026855469 672.1510009765625 -489.3840026855469 589.0260009765625 -489.3840026855469 525.5880126953125V520.1510009765625H-0.0091552734375H489.3659973144531V525.5880126953125C489.3659973144531 589.0260009765625 467.6159973144531 672.1510009765625 434.1780090332031 736.2760009765625ZM489.3659973144531 494.4010009765625V499.5260009765625H-0.0091552734375H-489.3840026855469V494.4010009765625C-489.3840026855469 430.7760009765625 -467.1340026855469 346.5880126953125 -433.3219909667969 282.3380126953125L-427.0719909667969 270.4630126953125H-0.0091552734375H427.0530090332031L433.3030090332031 282.3380126953125C467.1159973144531 346.5880126953125 489.3659973144531 430.7760009765625 489.3659973144531 494.4010009765625ZM410.6780090332031 243.7760009765625 414.3659973144531 249.5260009765625H-0.0091552734375H-414.3840026855469L-410.6969909667969 243.7760009765625C-320.3789978027344 103.17800903320312 -163.2429962158203 20.71600341796875 0.748931884765625 20.71600341796875C36.939605712890625 20.71600341796875 73.46420288085938 24.732101440429688 109.67800903320312 33.02569580078125C232.55299377441406 61.15069580078125 343.1159973144531 138.58799743652344 410.6780090332031 243.7760009765625Z" fill="black" /></g></svg>