<?xml version="1.0" encoding="utf-8" ?>
<svg baseProfile="tiny" height="100%" version="1.2" width="100%" xmlns="http://www.w3.org/2000/svg" xmlns:ev="http://www.w3.org/2001/xml-events" xmlns:xlink="http://www.w3.org/1999/xlink"><defs /><g transform="translate(0, 1000) scale(1, -1)"><path d="M-30.796005249023438 769.35400390625C-19.93231201171875 770.2650146484375 -9.142120361328125 770.7130126953125 1.556182861328125 770.7130126953125C210.9569854736328 770.7130126953125 385.14198303222656 599.4140014648438 385.14198303222656 385.2919921875C385.14198303222656 169.4409942626953 210.2679901123047 0.0 0.3905487060546875 0.0C-15.858413696289062 0.0 -32.31721496582031 1.0156402587890625 -48.9210205078125 3.1040191650390625C-222.10801696777344 24.91650390625 -360.23301696777344 163.04200744628906 -382.04600524902344 336.22900390625C-384.1280059814453 352.78900146484375 -385.1420135498047 369.218994140625 -385.1420135498047 385.45001220703125C-385.1420135498047 583.6279907226562 -234.02601623535156 752.31201171875 -30.7960205078125 769.35400390625ZM28.5789794921875 748.72900390625C19.030670166015625 749.5130004882812 9.49664306640625 749.8989868164062 -0.00225830078125 749.8989868164062C-145.69602966308594 749.8989868164062 -283.1280212402344 659.1610107421875 -337.1080322265625 523.9169921875L-338.5460205078125 520.2919921875H0.141510009765625H338.8289794921875L337.3919677734375 523.9169921875C287.5169677734375 648.9169921875 165.8919677734375 737.47900390625 28.578964233398438 748.72900390625ZM347.89195251464844 494.85400390625 346.26695251464844 499.6669921875H0.1414947509765625H-345.98304748535156L-347.60804748535156 494.85400390625C-358.75904846191406 460.6629943847656 -364.3230438232422 423.83099365234375 -364.3230438232422 386.5799865722656C-364.3230438232422 348.2460021972656 -358.43104553222656 309.4670104980469 -346.67103576660156 272.6669921875L-345.92103576660156 270.2919921875H0.1414947509765625H346.20396423339844L346.95396423339844 272.6669921875C358.7139434814453 309.4670104980469 364.60594177246094 348.2460021972656 364.60594177246094 386.5799865722656C364.60594177246094 423.83099365234375 359.0419464111328 460.6629943847656 347.89195251464844 494.85400390625ZM337.95396423339844 248.29200744628906 338.32896423339844 249.66700744628906H0.1414947509765625H-338.04603576660156L-337.67103576660156 248.29200744628906C-333.17103576660156 233.35401916503906 -311.48304748535156 194.16702270507812 -295.48304748535156 172.10401916503906C-222.45204162597656 71.32281494140625 -111.15504455566406 20.932113647460938 0.1414947509765625 20.932113647460938C111.43795776367188 20.932113647460938 222.73495483398438 71.32281494140625 295.76695251464844 172.10401916503906C311.76695251464844 194.16702270507812 333.45396423339844 233.35401916503906 337.95396423339844 248.29202270507812Z" fill="black" /></g></svg>