<?xml version="1.0" encoding="utf-8" ?>
<svg baseProfile="tiny" height="100%" version="1.2" width="100%" xmlns="http://www.w3.org/2000/svg" xmlns:ev="http://www.w3.org/2001/xml-events" xmlns:xlink="http://www.w3.org/1999/xlink"><defs /><g transform="translate(0, 1000) scale(1, -1)"><path d="M-19.375 519.8280029296875C-17.875 520.0 -14.421905517578125 520.073974609375 -9.970703125 520.073974609375C3.3828125 520.073974609375 25.718795776367188 519.406982421875 31.25 518.7030029296875C132.75 505.3909912109375 215.06199645996094 438.2030029296875 246.875 342.7030029296875C255.69400024414062 316.3179931640625 260.13299560546875 288.2250061035156 260.13299560546875 260.0419921875C260.13299560546875 239.09100341796875 257.67999267578125 218.09100341796875 252.75 197.7030029296875C230.31199645996094 104.8909912109375 155.31199645996094 29.890899658203125 62.5 7.453399658203125C41.64250183105469 2.418487548828125 20.749404907226562 0.0 0.1815338134765625 0.0C-109.97200012207031 0.0 -210.7989959716797 69.36900329589844 -246.875 177.7030029296875C-255.69400024414062 204.08900451660156 -260.13299560546875 232.1820068359375 -260.13299560546875 260.364990234375C-260.13299560546875 281.3160095214844 -257.67999267578125 302.3160095214844 -252.75 322.7030029296875C-227.31199645996094 427.7030029296875 -135.25 508.2659912109375 -28.4375 518.8909912109375ZM29.6875 498.0780029296875C24.731094360351562 498.7860107421875 3.4818572998046875 499.4230041503906 -9.395523071289062 499.4230041503906C-13.56829833984375 499.4230041503906 -16.86199951171875 499.3559875488281 -18.4375 499.2030029296875C-130.43800354003906 488.3909912109375 -217.75 408.7030029296875 -236.125 300.5159912109375C-238.81199645996094 284.8280029296875 -239.06199645996094 281.5159912109375 -239.06199645996094 260.2030029296875C-239.06199645996094 238.89100646972656 -238.81199645996094 235.5780029296875 -236.125 219.89100646972656C-219.125 120.0159912109375 -140.18800354003906 41.078399658203125 -40.3125 24.078399658203125C-24.625 21.390899658203125 -21.3125 21.140899658203125 0.0 21.140899658203125C21.3125 21.140899658203125 24.625 21.390899658203125 40.3125 24.078399658203125C140.18800354003906 41.078399658203125 219.125 120.0159912109375 236.125 219.89100646972656C238.81199645996094 235.5780029296875 239.06199645996094 238.89100646972656 239.06199645996094 260.2030029296875C239.06199645996094 281.5159912109375 238.81199645996094 284.8280029296875 236.125 300.5159912109375C218.43800354003906 404.5159912109375 136.625 482.8280029296875 29.6875 498.0780029296875ZM-8.125 472.2659912109375C-6.6485137939453125 472.4700012207031 -4.7496490478515625 472.5639953613281 -2.6555938720703125 472.5639953613281C3.582733154296875 472.5639953613281 11.55340576171875 471.7330017089844 15.25 470.5159912109375C38.004791259765625 463.10101318359375 49.986602783203125 442.8219909667969 49.986602783203125 422.47100830078125C49.986602783203125 405.4259948730469 41.5819091796875 388.3320007324219 24.0625 378.7030029296875C21.6875 377.3280029296875 19.5625 376.2030029296875 19.4375 376.0780029296875C19.190994262695312 375.8320007324219 12.80859375 294.2380065917969 12.80859375 291.6409912109375C12.80859375 291.60400390625 12.809906005859375 291.5830078125 12.8125 291.5780029296875H12.814804077148438C13.045013427734375 291.5780029296875 25.502822875976562 305.9670104980469 40.62501525878906 323.6409912109375L68.31251525878906 355.8909912109375L66.93751525878906 360.5159912109375C65.52061462402344 365.2640075683594 64.82960510253906 370.1579895019531 64.82960510253906 375.02398681640625C64.82960510253906 386.6860046386719 68.79740905761719 398.1889953613281 76.25001525878906 407.1409912109375C86.34080505371094 419.2439880371094 100.65202331542969 425.05999755859375 114.85902404785156 425.05999755859375C132.85801696777344 425.05999755859375 150.6900177001953 415.7250061035156 159.56201171875 398.0159912109375C163.364013671875 390.42401123046875 165.0860137939453 382.6719970703125 165.0860137939453 375.18798828125C165.0860137939453 348.32501220703125 142.90301513671875 324.9339904785156 115.14500427246094 324.9339904785156C110.33900451660156 324.9339904785156 105.36601257324219 325.635009765625 100.31201171875 327.1409912109375L95.68751525878906 328.5159912109375L63.43751525878906 300.8280029296875C45.76380920410156 285.70599365234375 31.374221801757812 273.24798583984375 31.374221801757812 273.01800537109375L31.375015258789062 273.0159912109375L31.437515258789062 273.0119934082031C34.03471374511719 273.0119934082031 115.62901306152344 279.3940124511719 115.87501525878906 279.6409912109375C116.00001525878906 279.7659912109375 117.12501525878906 281.8909912109375 118.50001525878906 284.2659912109375C127.85601806640625 301.32000732421875 145.25901794433594 310.23199462890625 162.7360076904297 310.23199462890625C176.89801025390625 310.23199462890625 191.1090087890625 304.3800048828125 201.12501525878906 292.2659912109375C208.62501525878906 283.16400146484375 212.49801635742188 271.51800537109375 212.49801635742188 259.89599609375C212.49801635742188 251.56700134277344 210.5080108642578 243.24899291992188 206.43801879882812 235.89100646972656C196.90101623535156 218.75 179.71900939941406 210.18800354003906 162.5390167236328 210.18800354003906C145.26602172851562 210.18800354003906 127.99501037597656 218.843994140625 118.50001525878906 236.14100646972656C117.12501525878906 238.5780029296875 116.00001525878906 240.64100646972656 115.87501525878906 240.76600646972656C115.62901306152344 241.01199340820312 34.03471374511719 247.39500427246094 31.437515258789062 247.39500427246094C31.400421142578125 247.39500427246094 31.379409790039062 247.3939971923828 31.375015258789062 247.39100646972656L31.374221801757812 247.38900756835938C31.374221801757812 247.1580047607422 45.76380920410156 234.7010040283203 63.43751525878906 219.5780029296875L95.68751525878906 191.89100646972656L100.31201171875 193.26600646972656C105.05999755859375 194.68301391601562 109.95401000976562 195.37400817871094 114.82099914550781 195.37400817871094C126.48199462890625 195.37400817871094 137.98599243164062 191.40602111816406 146.93800354003906 183.95301818847656C159.04100036621094 173.86302185058594 164.85699462890625 159.55201721191406 164.85699462890625 145.3450164794922C164.85699462890625 127.34501647949219 155.52200317382812 109.51301574707031 137.81199645996094 100.64100646972656C130.2209930419922 96.83912658691406 122.46800231933594 95.11772155761719 114.98500061035156 95.11772155761719C88.12149047851562 95.11772155761719 64.7305908203125 117.30101013183594 64.7305908203125 145.05801391601562C64.7305908203125 149.864013671875 65.43179321289062 154.83702087402344 66.9375 159.89102172851562L68.3125 164.51602172851562L40.625 196.76602172851562C25.5028076171875 214.44003295898438 13.044998168945312 228.8290252685547 12.814804077148438 228.8290252685547L12.8125 228.82803344726562C12.809906005859375 228.82403564453125 12.80859375 228.8030242919922 12.80859375 228.7660369873047C12.80859375 226.16903686523438 19.190994262695312 144.5750274658203 19.4375 144.32803344726562C19.5625 144.20303344726562 21.6875 143.07803344726562 24.0625 141.70303344726562C41.3594970703125 132.2090301513672 50.01580810546875 114.93803405761719 50.01580810546875 97.66433715820312C50.01580810546875 80.48452758789062 41.45320129394531 63.30242919921875 24.3125 53.76593017578125C17.0625 49.73463439941406 8.53125 47.719024658203125 0.0 47.719024658203125C-8.53125 47.719024658203125 -17.0625 49.73463439941406 -24.3125 53.76593017578125C-41.45320129394531 63.30242919921875 -50.01580810546875 80.48452758789062 -50.01580810546875 97.66433715820312C-50.01580810546875 114.93803405761719 -41.3594970703125 132.2090301513672 -24.0625 141.70303344726562C-21.625 143.07803344726562 -19.5625 144.20303344726562 -19.4375 144.32803344726562C-19.190994262695312 144.5750274658203 -12.80859375 226.16903686523438 -12.80859375 228.7660369873047C-12.80859375 228.8030242919922 -12.809906005859375 228.82403564453125 -12.8125 228.82803344726562L-12.814804077148438 228.8290252685547C-13.045013427734375 228.82904052734375 -25.502822875976562 214.44004821777344 -40.62501525878906 196.76605224609375L-68.31251525878906 164.51605224609375L-66.93751525878906 159.89105224609375C-65.52061462402344 155.14306640625 -64.82960510253906 150.24905395507812 -64.82960510253906 145.383056640625C-64.82960510253906 133.72105407714844 -68.79740905761719 122.21806335449219 -76.25001525878906 113.26605224609375C-86.34080505371094 101.16305541992188 -100.65202331542969 95.34695434570312 -114.85902404785156 95.34695434570312C-132.85801696777344 95.34695434570312 -150.6900177001953 104.68206787109375 -159.56201171875 122.39105224609375C-163.364013671875 129.98306274414062 -165.0860137939453 137.7350616455078 -165.0860137939453 145.2180633544922C-165.0860137939453 172.08206176757812 -142.90301513671875 195.4730682373047 -115.14500427246094 195.4730682373047C-110.33900451660156 195.4730682373047 -105.36601257324219 194.77206420898438 -100.31201171875 193.2660675048828L-95.68751525878906 191.8910675048828L-63.43751525878906 219.57806396484375C-45.76380920410156 234.70106506347656 -31.374221801757812 247.15806579589844 -31.374221801757812 247.38906860351562L-31.375015258789062 247.3910675048828C-31.379409790039062 247.39407348632812 -31.400421142578125 247.39508056640625 -31.437515258789062 247.39508056640625C-34.03471374511719 247.39508056640625 -115.62901306152344 241.01206970214844 -115.87501525878906 240.76608276367188C-116.00001525878906 240.64108276367188 -117.12501525878906 238.5780792236328 -118.50001525878906 236.14108276367188C-127.99501037597656 218.8440704345703 -145.26602172851562 210.18807983398438 -162.5390167236328 210.18807983398438C-179.71900939941406 210.18807983398438 -196.90101623535156 218.7500762939453 -206.43801879882812 235.89108276367188C-210.46900939941406 243.14108276367188 -212.4840087890625 251.6720733642578 -212.4840087890625 260.2030792236328C-212.4840087890625 268.7350616455078 -210.46900939941406 277.2660675048828 -206.43801879882812 284.5160675048828C-196.90101623535156 301.65708923339844 -179.71900939941406 310.2190704345703 -162.5390167236328 310.2190704345703C-145.26602172851562 310.2190704345703 -127.99501037597656 301.5630645751953 -118.50001525878906 284.2660675048828C-117.12501525878906 281.8910675048828 -116.00001525878906 279.7660675048828 -115.87501525878906 279.6410675048828C-115.62901306152344 279.3940887451172 -34.03471374511719 273.01206970214844 -31.437515258789062 273.01206970214844L-31.375015258789062 273.0160675048828L-31.374221801757812 273.01808166503906C-31.374221801757812 273.24806213378906 -45.76380920410156 285.70606994628906 -63.43751525878906 300.8280792236328L-95.68751525878906 328.5160675048828L-100.31201171875 327.1410675048828C-105.05999755859375 325.7240753173828 -109.95401000976562 325.03306579589844 -114.82099914550781 325.03306579589844C-126.48199462890625 325.03306579589844 -137.98599243164062 329.00108337402344 -146.93800354003906 336.4530792236328C-159.04100036621094 346.54408264160156 -164.85699462890625 360.85508728027344 -164.85699462890625 375.0620880126953C-164.85699462890625 393.0610809326172 -155.52200317382812 410.8940887451172 -137.81199645996094 419.7660675048828C-130.2209930419922 423.5680694580078 -122.46800231933594 425.28907775878906 -114.98500061035156 425.28907775878906C-88.12149047851562 425.28907775878906 -64.7305908203125 403.10606384277344 -64.7305908203125 375.3480682373047C-64.7305908203125 370.54307556152344 -65.43179321289062 365.57008361816406 -66.9375 360.5160675048828L-68.3125 355.8910675048828L-40.625 323.6410675048828C-25.5028076171875 305.9670867919922 -13.044998168945312 291.5780792236328 -12.814804077148438 291.5780792236328H-12.8125C-12.809906005859375 291.5830841064453 -12.80859375 291.6040802001953 -12.80859375 291.6410675048828C-12.80859375 294.2380828857422 -19.190994262695312 375.8320770263672 -19.4375 376.0780792236328C-19.5625 376.2030792236328 -21.625 377.3280792236328 -24.0625 378.7030792236328C-41.556793212890625 388.32508850097656 -49.6531982421875 405.50108337402344 -49.6531982421875 422.5660858154297C-49.6531982421875 445.73707580566406 -34.72419738769531 468.7030792236328 -8.125 472.2660675048828Z" fill="black" /></g></svg>