<?xml version="1.0" encoding="utf-8" ?>
<svg baseProfile="tiny" height="100%" version="1.2" width="100%" xmlns="http://www.w3.org/2000/svg" xmlns:ev="http://www.w3.org/2001/xml-events" xmlns:xlink="http://www.w3.org/1999/xlink"><defs /><g transform="translate(0, 1000) scale(1, -1)"><path d="M-6.0157928466796875 18.236801147460938C-3.899871826171875 18.90191650390625 -1.8217010498046875 19.222015380859375 0.180755615234375 19.222015380859375C9.161148071289062 19.222015380859375 16.619277954101562 12.782913208007812 19.13677978515625 2.131591796875L22.7841796875 -13.452590942382812C40.54736328125 -89.85789489746094 71.00527954101562 -164.98397827148438 106.01097106933594 -218.84197998046875C113.06796264648438 -229.68898010253906 113.6839599609375 -231.11097717285156 113.6839599609375 -236.84197998046875C113.6839599609375 -248.1239776611328 104.62297058105469 -255.97598266601562 94.74166870117188 -255.97598266601562C91.18106079101562 -255.97598266601562 87.51406860351562 -254.9569854736328 84.12626647949219 -252.7109832763672C80.9052734375 -250.5789794921875 79.38946533203125 -248.68399047851562 74.03677368164062 -240.39498901367188C46.70526123046875 -197.7629852294922 23.5894775390625 -148.12098693847656 5.589447021484375 -93.4578857421875C2.6526031494140625 -84.50529479980469 0.1420745849609375 -77.21049499511719 -3.0517578125e-05 -77.21049499511719C-0.1421356201171875 -77.21049499511719 -2.6526641845703125 -84.50529479980469 -5.589508056640625 -93.4578857421875C-23.58953857421875 -148.12098693847656 -46.705322265625 -197.7629852294922 -74.03683471679688 -240.39498901367188C-79.3895263671875 -248.68399047851562 -80.90533447265625 -250.5789794921875 -84.12632751464844 -252.7109832763672C-87.51412963867188 -254.9569854736328 -91.18112182617188 -255.97598266601562 -94.74172973632812 -255.97598266601562C-104.62303161621094 -255.97598266601562 -113.68402099609375 -248.1239776611328 -113.68402099609375 -236.84197998046875C-113.68402099609375 -231.11097717285156 -113.06802368164062 -229.68898010253906 -106.01103210449219 -218.84197998046875C-71.00534057617188 -164.98397827148438 -40.54742431640625 -89.85789489746094 -22.784225463867188 -13.452590942382812L-19.136825561523438 2.131591796875C-17.100021362304688 10.800003051757812 -12.789520263671875 16.105300903320312 -6.01580810546875 18.236801147460938Z" fill="black" /></g></svg>