<?xml version="1.0" encoding="utf-8" ?>
<svg baseProfile="tiny" height="100%" version="1.2" width="100%" xmlns="http://www.w3.org/2000/svg" xmlns:ev="http://www.w3.org/2001/xml-events" xmlns:xlink="http://www.w3.org/1999/xlink"><defs /><g transform="translate(0, 1000) scale(1, -1)"><path d="M230.92100524902344 112.9739990234375C232.38998413085938 113.44699096679688 234.2589874267578 113.6669921875 236.21498107910156 113.6669921875C239.9349822998047 113.6669921875 243.96998596191406 112.87100219726562 246.17398071289062 111.5050048828125C252.5909881591797 107.44999694824219 255.8829803466797 101.86900329589844 255.8829803466797 95.4569091796875C255.8829803466797 91.45709228515625 254.60198974609375 87.1343994140625 251.99998474121094 82.65789794921875C237.0139923095703 56.8345947265625 229.48898315429688 28.475296020507812 229.48898315429688 0.059783935546875C229.48898315429688 -25.055404663085938 235.3669891357422 -50.214508056640625 247.16798400878906 -73.70529174804688C248.44699096679688 -76.26319885253906 250.62599182128906 -80.28948974609375 251.99998474121094 -82.65789794921875C255.0789794921875 -87.96319580078125 255.7889862060547 -90.23680114746094 255.7889862060547 -94.73680114746094C255.7889862060547 -105.72599792480469 247.8319854736328 -113.68399047851562 236.84197998046875 -113.68399047851562C231.11097717285156 -113.68399047851562 229.68898010253906 -113.0679931640625 218.84197998046875 -106.01100158691406C163.0889892578125 -69.77369689941406 82.4683837890625 -37.65789794921875 5.21051025390625 -20.889495849609375C-7.15264892578125 -18.189498901367188 -7.484222412109375 -18.094696044921875 -9.710540771484375 -16.8157958984375C-15.898513793945312 -13.189193725585938 -18.930221557617188 -6.7316436767578125 -18.930221557617188 -0.282257080078125C-18.930221557617188 6.746307373046875 -15.329513549804688 13.76519775390625 -8.28948974609375 17.100006103515625C-6.584228515625 17.905303955078125 -1.56317138671875 19.3262939453125 4.2631378173828125 20.605300903320312C85.07368469238281 38.65260314941406 162.7579803466797 69.58419799804688 218.84197998046875 106.01100158691406C226.46798706054688 110.9840087890625 228.7419891357422 112.31100463867188 230.92098999023438 112.9739990234375Z" fill="black" /></g></svg>