<?xml version="1.0" encoding="utf-8" ?>
<svg baseProfile="tiny" height="100%" version="1.2" width="100%" xmlns="http://www.w3.org/2000/svg" xmlns:ev="http://www.w3.org/2001/xml-events" xmlns:xlink="http://www.w3.org/1999/xlink"><defs /><g transform="translate(0, 1000) scale(1, -1)"><path d="M-100.70500183105469 255.07899475097656C-98.97767639160156 255.63002014160156 -97.19868469238281 255.90501403808594 -95.36817932128906 255.90501403808594C-91.37628173828125 255.90501403808594 -87.13958740234375 254.5980224609375 -82.65788269042969 252.00001525878906C-80.28947448730469 250.6260223388672 -76.26318359375 248.447021484375 -73.70527648925781 247.1680145263672C-50.21449279785156 235.3670196533203 -25.055389404296875 229.489013671875 0.0597991943359375 229.489013671875C28.475311279296875 229.489013671875 56.83460998535156 237.01402282714844 82.65791320800781 252.00001525878906C87.96321105957031 255.07901000976562 90.23681640625 255.7890167236328 94.73681640625 255.7890167236328C105.72601318359375 255.7890167236328 113.68400573730469 247.83201599121094 113.68400573730469 236.84201049804688C113.68400573730469 231.1110076904297 113.06800842285156 229.6890106201172 106.01101684570312 218.84201049804688C69.82112121582031 163.1370086669922 37.65791320800781 82.46841430664062 20.889511108398438 5.210540771484375C18.18951416015625 -7.152618408203125 18.094711303710938 -7.48419189453125 16.815811157226562 -9.71051025390625C13.189208984375 -15.898483276367188 6.731658935546875 -18.930191040039062 0.2822723388671875 -18.930191040039062C-6.7462921142578125 -18.930191040039062 -13.765182495117188 -15.329483032226562 -17.099990844726562 -8.289459228515625C-17.905288696289062 -6.584197998046875 -19.326278686523438 -1.563140869140625 -20.60528564453125 4.2631683349609375C-38.652587890625 85.07371520996094 -69.58418273925781 162.7580108642578 -106.010986328125 218.84201049804688C-113.06797790527344 229.6890106201172 -113.68397521972656 231.1110076904297 -113.68397521972656 236.84201049804688C-113.68397521972656 245.32101440429688 -108.47398376464844 252.6160125732422 -100.70498657226562 255.07901000976562Z" fill="black" /></g></svg>