<?xml version="1.0" encoding="utf-8" ?>
<svg baseProfile="tiny" height="100%" version="1.2" width="100%" xmlns="http://www.w3.org/2000/svg" xmlns:ev="http://www.w3.org/2001/xml-events" xmlns:xlink="http://www.w3.org/1999/xlink"><defs /><g transform="translate(0, 1000) scale(1, -1)"><path d="M-5.7315826416015625 18.284194946289062C-4.135040283203125 18.884185791015625 -2.3813018798828125 19.165390014648438 -0.56927490234375 19.165390014648438C6.0592498779296875 19.165390014648438 13.467880249023438 15.401992797851562 16.815780639648438 9.71051025390625C18.094680786132812 7.48419189453125 18.189483642578125 7.152618408203125 20.889480590820312 -5.210540771484375C37.65788269042969 -82.46841430664062 69.773681640625 -163.08901977539062 106.010986328125 -218.84201049804688C113.06797790527344 -229.6890106201172 113.68397521972656 -231.1110076904297 113.68397521972656 -236.84201049804688C113.68397521972656 -248.41201782226562 105.58998107910156 -255.68202209472656 95.44058227539062 -255.68202209472656C91.37959289550781 -255.68202209472656 86.98979187011719 -254.5180206298828 82.65788269042969 -252.00001525878906C56.83457946777344 -237.01402282714844 28.47528076171875 -229.489013671875 0.0597686767578125 -229.489013671875C-25.055419921875 -229.489013671875 -50.21452331542969 -235.3670196533203 -73.70530700683594 -247.1680145263672C-76.26321411132812 -248.447021484375 -80.28950500488281 -250.6260223388672 -82.65791320800781 -252.00001525878906C-86.98982238769531 -254.5180206298828 -91.37962341308594 -255.68202209472656 -95.44061279296875 -255.68202209472656C-105.59001159667969 -255.68202209472656 -113.68400573730469 -248.41201782226562 -113.68400573730469 -236.84201049804688C-113.68400573730469 -231.1110076904297 -113.06800842285156 -229.6890106201172 -106.01101684570312 -218.84201049804688C-69.58421325683594 -162.7580108642578 -38.652618408203125 -85.07371520996094 -20.605316162109375 -4.2631683349609375C-17.242111206054688 10.847381591796875 -14.5421142578125 14.92108154296875 -5.731597900390625 18.2841796875Z" fill="black" /></g></svg>