<?xml version="1.0" encoding="utf-8" ?>
<svg baseProfile="tiny" height="100%" version="1.2" width="100%" xmlns="http://www.w3.org/2000/svg" xmlns:ev="http://www.w3.org/2001/xml-events" xmlns:xlink="http://www.w3.org/1999/xlink"><defs /><g transform="translate(0, 1000) scale(1, -1)"><path d="M-242.81100463867188 112.9739990234375C-241.47000122070312 113.38800048828125 -239.125 113.60198974609375 -236.80299377441406 113.60198974609375C-234.61399841308594 113.60198974609375 -232.44500732421875 113.41200256347656 -231.1580047607422 113.02099609375C-228.74200439453125 112.31100463867188 -226.6580047607422 111.07901000976562 -218.8419952392578 106.01100158691406C-164.98399353027344 71.00531005859375 -89.85791015625 40.547393798828125 -13.452606201171875 22.784194946289062L2.1315765380859375 19.136795043945312C13.31048583984375 16.531585693359375 18.9473876953125 10.089492797851562 18.9473876953125 -1.52587890625e-05C18.9473876953125 -10.089523315429688 13.31048583984375 -16.5316162109375 2.131561279296875 -19.136810302734375L-13.452621459960938 -22.784210205078125C-89.85792541503906 -40.547393798828125 -164.9840087890625 -71.00531005859375 -218.84201049804688 -106.01100158691406C-229.6890106201172 -113.0679931640625 -231.1110076904297 -113.68399047851562 -236.84201049804688 -113.68399047851562C-247.83201599121094 -113.68399047851562 -255.7890167236328 -105.72599792480469 -255.7890167236328 -94.73680114746094C-255.7890167236328 -85.87890625 -252.99501037597656 -82.13681030273438 -240.39501953125 -74.03680419921875C-197.7630157470703 -46.705291748046875 -148.1210174560547 -23.589508056640625 -93.45791625976562 -5.5894775390625C-84.50532531738281 -2.6526336669921875 -77.21052551269531 -0.1421051025390625 -77.21052551269531 0.0C-77.21052551269531 0.1421051025390625 -84.50532531738281 2.6526336669921875 -93.45791625976562 5.5894775390625C-137.17901611328125 19.989501953125 -174.83702087402344 36.33160400390625 -212.2110137939453 57.221099853515625C-226.04202270507812 64.94210815429688 -244.9420166015625 76.59469604492188 -249.01602172851562 79.91049194335938C-253.6420135498047 83.69219970703125 -255.80201721191406 89.11529541015625 -255.80201721191406 94.52149963378906C-255.80201721191406 102.45599365234375 -251.15000915527344 110.35400390625 -242.81101989746094 112.9739990234375Z" fill="black" /></g></svg>