<?xml version="1.0" encoding="utf-8" ?>
<svg baseProfile="tiny" height="100%" version="1.2" width="100%" xmlns="http://www.w3.org/2000/svg" xmlns:ev="http://www.w3.org/2001/xml-events" xmlns:xlink="http://www.w3.org/1999/xlink"><defs /><g transform="translate(0, 1000) scale(1, -1)"><path d="M-242.81100463867188 112.9739990234375C-241.47000122070312 113.38800048828125 -239.125 113.60198974609375 -236.80299377441406 113.60198974609375C-234.61399841308594 113.60198974609375 -232.44500732421875 113.41200256347656 -231.1580047607422 113.02099609375C-228.74200439453125 112.31100463867188 -226.6580047607422 111.07901000976562 -218.8419952392578 106.01100158691406C-162.75799560546875 69.58419799804688 -85.07369995117188 38.65260314941406 -4.263153076171875 20.605300903320312C1.5631561279296875 19.3262939453125 6.5842132568359375 17.905303955078125 8.289474487304688 17.100006103515625C15.329498291015625 13.76519775390625 18.930206298828125 6.746307373046875 18.930206298828125 -0.282257080078125C18.930206298828125 -6.7316436767578125 15.89849853515625 -13.189193725585938 9.710525512695312 -16.8157958984375C7.4842071533203125 -18.094696044921875 7.1526336669921875 -18.189498901367188 -5.2105255126953125 -20.889495849609375C-82.46839904785156 -37.65789794921875 -163.13699340820312 -69.82110595703125 -218.8419952392578 -106.01100158691406C-229.68899536132812 -113.0679931640625 -231.11099243164062 -113.68399047851562 -236.8419952392578 -113.68399047851562C-248.41200256347656 -113.68399047851562 -255.6820068359375 -105.58999633789062 -255.6820068359375 -95.44059753417969C-255.6820068359375 -91.37960815429688 -254.51800537109375 -86.98980712890625 -252.0 -82.65789794921875C-250.62600708007812 -80.28948974609375 -248.44700622558594 -76.26319885253906 -247.16799926757812 -73.70529174804688C-235.36700439453125 -50.214508056640625 -229.48899841308594 -25.055404663085938 -229.48899841308594 0.059783935546875C-229.48899841308594 28.475296020507812 -237.01400756835938 56.8345947265625 -252.0 82.65789794921875C-254.4929962158203 86.97259521484375 -255.68099975585938 91.37899780273438 -255.68099975585938 95.47500610351562C-255.68099975585938 103.51998901367188 -251.0970001220703 110.36799621582031 -242.81100463867188 112.9739990234375Z" fill="black" /></g></svg>