<?xml version="1.0" encoding="utf-8" ?>
<svg baseProfile="tiny" height="100%" version="1.2" width="100%" xmlns="http://www.w3.org/2000/svg" xmlns:ev="http://www.w3.org/2001/xml-events" xmlns:xlink="http://www.w3.org/1999/xlink"><defs /><g transform="translate(0, 1000) scale(1, -1)"><path d="M230.92100524902344 112.9739990234375C232.2419891357422 113.406005859375 234.53797912597656 113.61900329589844 236.8319854736328 113.61900329589844C239.06198120117188 113.61900329589844 241.28997802734375 113.41799926757812 242.62098693847656 113.02099609375C251.07598876953125 110.447998046875 255.81698608398438 102.50700378417969 255.81698608398438 94.51899719238281C255.81698608398438 89.12530517578125 253.6549835205078 83.70989990234375 249.0159912109375 79.91049194335938C244.94198608398438 76.59469604492188 226.0419921875 64.94210815429688 212.2109832763672 57.221099853515625C174.8369903564453 36.33160400390625 137.17898559570312 19.989501953125 93.4578857421875 5.5894775390625C84.50529479980469 2.6526336669921875 77.21049499511719 0.1421051025390625 77.21049499511719 0.0C77.21049499511719 -0.1421051025390625 84.50529479980469 -2.6526336669921875 93.4578857421875 -5.5894775390625C148.12098693847656 -23.589508056640625 197.7629852294922 -46.705291748046875 240.39498901367188 -74.03680419921875C252.99497985839844 -82.13681030273438 255.7889862060547 -85.87890625 255.7889862060547 -94.73680114746094C255.7889862060547 -105.72599792480469 247.8319854736328 -113.68399047851562 236.84197998046875 -113.68399047851562C231.11097717285156 -113.68399047851562 229.68898010253906 -113.0679931640625 218.84197998046875 -106.01100158691406C164.98397827148438 -71.00531005859375 89.85789489746094 -40.547393798828125 13.452590942382812 -22.784194946289062L-2.131591796875 -19.136795043945312C-13.310501098632812 -16.531585693359375 -18.947402954101562 -10.089492797851562 -18.947402954101562 1.52587890625e-05C-18.947402954101562 10.089523315429688 -13.310501098632812 16.5316162109375 -2.1315765380859375 19.136810302734375L13.452606201171875 22.784210205078125C89.85791015625 40.547393798828125 164.98399353027344 71.00531005859375 218.8419952392578 106.01100158691406C226.46800231933594 110.9840087890625 228.74200439453125 112.31100463867188 230.92100524902344 112.9739990234375Z" fill="black" /></g></svg>