<?xml version="1.0" encoding="utf-8" ?>
<svg baseProfile="tiny" height="100%" version="1.2" width="100%" xmlns="http://www.w3.org/2000/svg" xmlns:ev="http://www.w3.org/2001/xml-events" xmlns:xlink="http://www.w3.org/1999/xlink"><defs /><g transform="translate(0, 1000) scale(1, -1)"><path d="M-100.70500183105469 255.07899475097656C-98.41998291015625 255.80300903320312 -96.29048156738281 256.1790008544922 -94.26408386230469 256.1790008544922C-87.00758361816406 256.1790008544922 -81.07218933105469 251.35501098632812 -74.03678894042969 240.39501953125C-46.70527648925781 197.7630157470703 -23.589492797851562 148.1210174560547 -5.5894622802734375 93.45791625976562C-2.652618408203125 84.50532531738281 -0.14208984375 77.21052551269531 1.52587890625e-05 77.21052551269531C0.142120361328125 77.21052551269531 2.65264892578125 84.50532531738281 5.5894927978515625 93.45791625976562C23.589523315429688 148.1210174560547 46.70530700683594 197.7630157470703 74.03681945800781 240.39501953125C82.13682556152344 252.99501037597656 85.87892150878906 255.7890167236328 94.73681640625 255.7890167236328C105.72601318359375 255.7890167236328 113.68400573730469 247.83201599121094 113.68400573730469 236.84201049804688C113.68400573730469 231.1110076904297 113.06800842285156 229.6890106201172 106.01101684570312 218.84201049804688C71.00532531738281 164.9840087890625 40.54740905761719 89.85792541503906 22.784210205078125 13.452621459960938L19.136810302734375 -2.131561279296875C16.531600952148438 -13.310470581054688 10.089508056640625 -18.947372436523438 0.0 -18.947372436523438C-10.089508056640625 -18.947372436523438 -16.531600952148438 -13.310470581054688 -19.136795043945312 -2.1315460205078125L-22.784194946289062 13.45263671875C-40.54737854003906 89.85794067382812 -71.00529479980469 164.98402404785156 -106.010986328125 218.84202575683594C-113.06797790527344 229.68902587890625 -113.68397521972656 231.11102294921875 -113.68397521972656 236.84202575683594C-113.68397521972656 245.32102966308594 -108.47398376464844 252.61602783203125 -100.70498657226562 255.0790252685547Z" fill="black" /></g></svg>