<?xml version="1.0" encoding="utf-8" ?>
<svg baseProfile="tiny" height="100%" version="1.2" width="100%" xmlns="http://www.w3.org/2000/svg" xmlns:ev="http://www.w3.org/2001/xml-events" xmlns:xlink="http://www.w3.org/1999/xlink"><defs /><g transform="translate(0, 1000) scale(1, -1)"><path d="M-12.47259521484375 1437.8499755859375C-11.320404052734375 1438.260009765625 -10.171401977539062 1438.449951171875 -9.063201904296875 1438.449951171875C-4.126953125 1438.449951171875 0.0 1434.6600341796875 0.0 1429.3399658203125C0.0 1426.8599853515625 -0.2900543212890625 1426.1800537109375 -3.8997039794921875 1419.6700439453125C-74.90670776367188 1291.9300537109375 -110.48699951171875 1142.9200439453125 -110.48699951171875 979.0659790039062C-110.48699951171875 833.614990234375 -82.44920349121094 676.4710083007812 -26.2666015625 512.1370239257812C-9.283294677734375 462.4429931640625 -1.387054443359375 419.6239929199219 -1.387054443359375 374.4419860839844C-1.387054443359375 361.6629943847656 -2.0187225341796875 348.69500732421875 -3.255126953125 335.3290100097656C-14.76080322265625 210.3769989013672 -87.82379150390625 89.77670288085938 -205.49200439453125 1.3727569580078125C-207.52200317382812 -0.141998291015625 -209.16600036621094 -1.49560546875 -209.16600036621094 -1.6245269775390625C-209.16600036621094 -1.7534332275390625 -207.52200317382812 -3.1070556640625 -205.49200439453125 -4.621826171875C-96.42900085449219 -86.54779052734375 -24.558395385742188 -197.77000427246094 -6.63916015625 -312.3110046386719C-3.120697021484375 -334.77398681640625 -1.3265838623046875 -356.2349853515625 -1.3265838623046875 -377.4119873046875C-1.3265838623046875 -422.3810119628906 -9.4171142578125 -466.0660095214844 -26.2666015625 -515.3209838867188C-57.335296630859375 -606.27099609375 -78.50970458984375 -689.197021484375 -92.98049926757812 -776.8909912109375C-104.48800659179688 -846.5609741210938 -110.2080078125 -914.364990234375 -110.2080078125 -979.8289794921875C-110.2080078125 -1144.280029296875 -74.1134033203125 -1293.949951171875 -2.997283935546875 -1421.3399658203125C-0.322296142578125 -1426.1099853515625 0.0 -1426.97998046875 0.0 -1429.3699951171875C0.0 -1434.6800537109375 -4.0694732666015625 -1438.449951171875 -8.997528076171875 -1438.449951171875C-10.08270263671875 -1438.449951171875 -11.209503173828125 -1438.260009765625 -12.343704223632812 -1437.8699951171875C-15.598800659179688 -1436.780029296875 -15.566604614257812 -1436.81005859375 -27.781295776367188 -1414.3800048828125C-139.02699279785156 -1210.3299560546875 -198.46600341796875 -996.6519775390625 -198.46600341796875 -802.6329956054688C-198.46600341796875 -788.8469848632812 -198.16600036621094 -775.1599731445312 -197.56300354003906 -761.5830078125C-192.98699951171875 -658.1599731445312 -176.13099670410156 -566.3400268554688 -145.1909942626953 -476.1960144042969C-124.46800231933594 -415.8630065917969 -114.76699829101562 -373.0950012207031 -110.093994140625 -321.33599853515625C-108.76400756835938 -306.6700134277344 -108.10699462890625 -292.2380065917969 -108.10699462890625 -278.08099365234375C-108.10699462890625 -164.95899963378906 -150.07200622558594 -69.372802734375 -226.14999389648438 -12.227798461914062C-233.11199951171875 -7.0067596435546875 -233.98199462890625 -5.8142852783203125 -233.98199462890625 -1.6245269775390625C-233.98199462890625 2.5652313232421875 -233.11199951171875 3.7577056884765625 -226.14999389648438 8.978790283203125C-153.0229949951172 63.89689636230469 -110.77099609375 155.0399932861328 -108.32099914550781 263.135986328125C-108.23199462890625 267.10400390625 -108.18600463867188 271.06298828125 -108.18600463867188 275.0140075683594C-108.18600463867188 337.7279968261719 -119.56199645996094 398.79400634765625 -144.51499938964844 471.01300048828125C-180.59300231933594 575.3259887695312 -198.51100158691406 684.3720092773438 -198.51100158691406 796.3090209960938C-198.51100158691406 1001.6500244140625 -138.21299743652344 1216.719970703125 -19.111801147460938 1430.1500244140625C-16.211196899414062 1435.3299560546875 -14.76080322265625 1437.010009765625 -12.47259521484375 1437.8499755859375Z" fill="black" /></g></svg>