<?xml version="1.0" encoding="utf-8" ?>
<svg baseProfile="tiny" height="100%" version="1.2" width="100%" xmlns="http://www.w3.org/2000/svg" xmlns:ev="http://www.w3.org/2001/xml-events" xmlns:xlink="http://www.w3.org/1999/xlink"><defs /><g transform="translate(0, 1000) scale(1, -1)"><path d="M-18.685195922851562 437.79998779296875C-18.27069091796875 437.85101318359375 -17.86138916015625 437.8760070800781 -17.45867919921875 437.8760070800781C-12.435791015625 437.8760070800781 -8.447357177734375 434.00201416015625 -8.447357177734375 428.8429870605469C-8.447357177734375 426.6440124511719 -8.6407470703125 426.0509948730469 -10.586776733398438 422.49798583984375C-28.111679077148438 390.5270080566406 -36.875579833984375 353.79400634765625 -36.875579833984375 311.78900146484375C-36.875579833984375 268.03900146484375 -27.368392944335938 218.57000732421875 -8.350662231445312 162.80499267578125L-5.8486175537109375 155.4929962158203C-3.2498779296875 147.85401916503906 -1.243408203125 138.70401000976562 -0.2401885986328125 129.95301818847656C-0.07598876953125 128.4960174560547 1.52587890625e-05 123.53901672363281 1.52587890625e-05 118.19102478027344C1.52587890625e-05 111.33601379394531 -0.1248779296875 103.8380126953125 -0.348968505859375 102.24900817871094C-2.403778076171875 87.8651123046875 -5.3167877197265625 77.42181396484375 -10.46588134765625 66.04780578613281C-20.969680786132812 42.84040832519531 -37.14228820800781 23.488906860351562 -64.0723876953125 1.889190673828125C-65.63168334960938 0.63214111328125 -66.91288757324219 -0.4315338134765625 -66.91288757324219 -0.491973876953125C-66.91288757324219 -0.552398681640625 -65.61958312988281 -1.6402435302734375 -64.02409362792969 -2.909393310546875C-37.26307678222656 -24.339889526367188 -20.95758056640625 -43.84858703613281 -10.46588134765625 -67.03169250488281C-5.3167877197265625 -78.40568542480469 -2.403778076171875 -88.84898376464844 -0.348968505859375 -103.23298645019531C-0.1248779296875 -104.82197570800781 1.52587890625e-05 -112.31999206542969 1.52587890625e-05 -119.17498779296875C1.52587890625e-05 -124.52299499511719 -0.07598876953125 -129.47998046875 -0.2401885986328125 -130.9359893798828C-1.243408203125 -139.68798828125 -3.2498779296875 -148.82498168945312 -5.8486175537109375 -156.47698974609375L-8.108917236328125 -163.06398010253906C-23.544204711914062 -208.1849822998047 -33.11720275878906 -251.38497924804688 -35.95770263671875 -288.7699737548828C-36.56590270996094 -296.7689971923828 -36.869598388671875 -304.6169891357422 -36.869598388671875 -312.3099822998047C-36.869598388671875 -353.69798278808594 -28.077301025390625 -390.6119842529297 -10.5867919921875 -422.51499938964844C-9.059677124023438 -425.30699157714844 -8.334823608398438 -427.2939910888672 -8.334823608398438 -429.1269989013672C-8.334823608398438 -430.42698669433594 -8.699844360351562 -431.65098571777344 -9.402252197265625 -433.03099060058594C-11.02740478515625 -436.2069854736328 -14.238296508789062 -437.87599182128906 -17.461593627929688 -437.87599182128906C-20.039703369140625 -437.87599182128906 -22.62579345703125 -436.80799865722656 -24.414505004882812 -434.58998107910156C-25.22430419921875 -433.5869903564453 -30.470199584960938 -424.07398986816406 -35.71600341796875 -414.11399841308594C-71.13259887695312 -346.86598205566406 -88.668701171875 -285.55198669433594 -88.668701171875 -227.6069793701172C-88.668701171875 -196.06597900390625 -83.47320556640625 -165.52398681640625 -73.13780212402344 -135.56597900390625C-64.19329833984375 -109.62698364257812 -59.9385986328125 -88.31718444824219 -59.92649841308594 -69.44918823242188C-59.92559814453125 -69.06309509277344 -59.925201416015625 -68.69818115234375 -59.925201416015625 -68.35157775878906C-59.925201416015625 -63.93428039550781 -60.005706787109375 -62.50907897949219 -60.39790344238281 -58.63117980957031C-62.5010986328125 -37.49067687988281 -71.65109252929688 -19.891891479492188 -86.37319946289062 -8.687057495117188C-90.13229370117188 -5.8224029541015625 -91.17179870605469 -4.0455780029296875 -91.17179870605469 -0.491973876953125C-91.17179870605469 3.0616607666015625 -90.13229370117188 4.838470458984375 -86.37319946289062 7.7031097412109375C-71.65109252929688 18.907913208007812 -62.5010986328125 36.50682067871094 -60.39790344238281 57.647216796875C-60.005706787109375 61.525115966796875 -59.925201416015625 62.95042419433594 -59.925201416015625 67.36761474609375C-59.925201416015625 67.71421813964844 -59.92559814453125 68.07920837402344 -59.92649841308594 68.46522521972656C-59.9385986328125 86.6201171875 -64.03619384765625 107.77302551269531 -72.18289184570312 131.7410125732422C-75.47059631347656 141.4110107421875 -76.81230163574219 145.6420135498047 -78.32319641113281 151.15301513671875C-85.26361083984375 176.49700927734375 -88.7777099609375 201.90101623535156 -88.7777099609375 227.84201049804688C-88.7777099609375 290.08900451660156 -68.54499816894531 355.43101501464844 -26.868194580078125 430.4750213623047C-23.882705688476562 435.85401916503906 -22.190505981445312 437.36500549316406 -18.685195922851562 437.8000030517578Z" fill="black" /></g></svg>