<?xml version="1.0" encoding="utf-8" ?>
<svg baseProfile="tiny" height="100%" version="1.2" width="100%" xmlns="http://www.w3.org/2000/svg" xmlns:ev="http://www.w3.org/2001/xml-events" xmlns:xlink="http://www.w3.org/1999/xlink"><defs /><g transform="translate(0, 1000) scale(1, -1)"><path d="M-11.752899169921875 1610.1500244140625C-10.947402954101562 1610.4000244140625 -10.1278076171875 1610.52001953125 -9.315216064453125 1610.52001953125C-4.8630828857421875 1610.52001953125 -0.6224517822265625 1607.010009765625 -0.0672760009765625 1602.3699951171875C-0.025390625 1602.0 0.0 1601.6600341796875 0.0 1601.3199462890625C0.0 1599.25 -0.9300689697265625 1597.260009765625 -4.7612152099609375 1590.3299560546875C-70.80470275878906 1470.449951171875 -110.88400268554688 1332.3199462890625 -122.04400634765625 1186.0899658203125C-124.39599609375 1155.3499755859375 -125.56399536132812 1124.06005859375 -125.56399536132812 1092.300048828125C-125.56399536132812 929.8800048828125 -94.99800109863281 755.3300170898438 -35.747802734375 581.4229736328125L-28.526397705078125 560.2839965820312C-12.763504028320312 514.010009765625 -4.8755950927734375 465.2130126953125 -4.8755950927734375 416.22900390625C-4.8755950927734375 368.614990234375 -12.328506469726562 320.8240051269531 -27.246200561523438 275.0039978027344C-60.49769592285156 172.68899536132812 -130.05299377441406 79.072509765625 -229.25 2.9517974853515625C-232.5 0.4571075439453125 -235.1580047607422 -1.7093353271484375 -235.1580047607422 -1.84063720703125C-235.1580047607422 -1.971923828125 -232.5 -4.13836669921875 -229.25 -6.633056640625C-130.05299377441406 -82.75369262695312 -60.49769592285156 -176.3699951171875 -27.246200561523438 -278.68499755859375C-12.336395263671875 -324.5140075683594 -4.883453369140625 -372.3349914550781 -4.883453369140625 -419.9649963378906C-4.883453369140625 -469.0159912109375 -12.787704467773438 -517.864990234375 -28.591995239257812 -564.1290283203125C-50.847198486328125 -629.2540283203125 -64.1083984375 -673.3040161132812 -76.91009521484375 -724.281005859375C-109.21600341796875 -852.9459838867188 -125.31399536132812 -976.1929931640625 -125.31399536132812 -1092.719970703125C-125.31399536132812 -1277.1700439453125 -84.98348999023438 -1444.780029296875 -4.7612152099609375 -1590.4000244140625C-0.9300689697265625 -1597.3299560546875 0.0 -1599.3199462890625 0.0 -1601.3900146484375C0.0 -1601.72998046875 -0.025390625 -1602.0799560546875 -0.0672760009765625 -1602.43994140625C-0.672088623046875 -1607.4100341796875 -4.972503662109375 -1610.52001953125 -9.339431762695312 -1610.52001953125C-11.60870361328125 -1610.52001953125 -13.895904541015625 -1609.6800537109375 -15.69189453125 -1607.8299560546875C-17.891098022460938 -1605.530029296875 -39.227203369140625 -1566.010009765625 -54.162506103515625 -1536.56005859375C-122.99600219726562 -1400.699951171875 -171.7740020751953 -1259.4200439453125 -196.7530059814453 -1123.5899658203125C-210.59300231933594 -1048.3299560546875 -217.5019989013672 -973.7579956054688 -217.5019989013672 -900.1959838867188C-217.5019989013672 -771.9000244140625 -196.48699951171875 -646.677978515625 -154.57400512695312 -526.2169799804688C-129.18299865722656 -453.2349853515625 -116.78199768066406 -382.1889953613281 -116.78199768066406 -316.2090148925781C-116.78199768066406 -188.73500061035156 -163.07200622558594 -80.17269897460938 -251.40699768066406 -13.099502563476562C-258.3330078125 -7.8147430419921875 -259.38299560546875 -6.665863037109375 -260.0400085449219 -3.64599609375C-260.21600341796875 -2.7975311279296875 -260.3179931640625 -2.035797119140625 -260.3179931640625 -1.320556640625C-260.3179931640625 1.948883056640625 -258.1940002441406 4.2471923828125 -251.40699768066406 9.41827392578125C-163.0709991455078 76.49169921875 -116.76699829101562 185.08299255371094 -116.76699829101562 312.5589904785156C-116.76699829101562 378.5379943847656 -129.1719970703125 449.57598876953125 -154.57400512695312 522.5349731445312C-196.7449951171875 643.6690063476562 -217.71299743652344 769.594970703125 -217.71299743652344 898.3270263671875C-217.71299743652344 1120.699951171875 -155.14500427246094 1351.43994140625 -31.218002319335938 1580.31005859375C-15.92169189453125 1608.5400390625 -15.659103393554688 1608.969970703125 -11.752899169921875 1610.1500244140625Z" fill="black" /></g></svg>