<?xml version="1.0" encoding="utf-8" ?>
<svg baseProfile="tiny" height="100%" version="1.2" width="100%" xmlns="http://www.w3.org/2000/svg" xmlns:ev="http://www.w3.org/2001/xml-events" xmlns:xlink="http://www.w3.org/1999/xlink"><defs /><g transform="translate(0, 1000) scale(1, -1)"><path d="M-16.133697509765625 378.25201416015625C-15.752593994140625 378.29901123046875 -15.375 378.3219909667969 -15.002304077148438 378.3219909667969C-10.057601928710938 378.3219909667969 -5.970184326171875 374.27301025390625 -5.970184326171875 369.3479919433594C-5.970184326171875 369.0169982910156 -5.9886932373046875 368.6809997558594 -6.026702880859375 368.3429870605469C-6.2036590576171875 366.822998046875 -6.5367431640625 365.9179992675781 -7.8066253662109375 363.62799072265625C-22.832901000976562 336.4419860839844 -30.352508544921875 305.4079895019531 -30.352508544921875 269.6470031738281C-30.352508544921875 231.26600646972656 -21.690597534179688 187.43899536132812 -4.35089111328125 137.0800018310547C-2.477294921875 131.64599609375 -1.2386474609375 127.29499816894531 -0.24981689453125 122.74700927734375L0.0 121.57000732421875V100.64901733398438V79.72702026367188L-0.24981689453125 78.55081176757812C-6.4534759521484375 49.853729248046875 -23.6488037109375 24.903732299804688 -53.365997314453125 1.452667236328125C-54.635894775390625 0.4534149169921875 -55.67680358886719 -0.3896942138671875 -55.67680358886719 -0.420928955078125C-55.67680358886719 -0.4521484375 -54.635894775390625 -1.2952728271484375 -53.365997314453125 -2.2945098876953125C-23.6488037109375 -25.745574951171875 -6.4534759521484375 -50.69557189941406 -0.24981689453125 -79.39266967773438L0.0 -80.56887817382812V-101.490966796875V-122.41197204589844L-0.24981689453125 -123.58897399902344C-1.2386474609375 -128.13697814941406 -2.477294921875 -132.4879913330078 -4.35089111328125 -137.92198181152344C-16.466796875 -173.13497924804688 -24.408706665039062 -205.4119873046875 -27.937301635742188 -233.7349853515625C-29.534500122070312 -246.5389862060547 -30.332305908203125 -258.4419708251953 -30.332305908203125 -269.8479766845703C-30.332305908203125 -280.2209930419922 -29.672393798828125 -290.18299865722656 -28.353607177734375 -300.0389862060547C-25.335098266601562 -322.67799377441406 -18.288299560546875 -344.54698181152344 -7.921112060546875 -363.42897033691406C-6.5367431640625 -365.93699645996094 -6.2036590576171875 -366.81199645996094 -6.026702880859375 -368.3519744873047C-5.987213134765625 -368.70399475097656 -5.9680328369140625 -369.0509796142578 -5.9680328369140625 -369.39198303222656C-5.9680328369140625 -374.4769744873047 -10.223098754882812 -378.3219757080078 -14.997802734375 -378.3219757080078C-16.3240966796875 -378.3219757080078 -17.690505981445312 -378.02598571777344 -19.01690673828125 -377.3769989013672C-21.223602294921875 -376.2939910888672 -21.931396484375 -375.4399871826172 -24.512802124023438 -370.78797912597656C-53.938507080078125 -317.6709747314453 -70.30120849609375 -272.3309783935547 -75.81790161132812 -228.6339874267578C-77.19259643554688 -217.7679901123047 -77.87728881835938 -206.9849853515625 -77.87728881835938 -196.1169891357422C-77.87728881835938 -189.7869873046875 -77.64498901367188 -183.427978515625 -77.181396484375 -177.00698852539062C-75.78659057617188 -157.739990234375 -71.52940368652344 -136.7039794921875 -65.34660339355469 -118.56098937988281C-57.75860595703125 -96.25498962402344 -54.55259704589844 -82.43208312988281 -53.29319763183594 -66.56898498535156C-53.092803955078125 -64.05908203125 -52.99369812011719 -61.586181640625 -52.99369812011719 -59.15618896484375C-52.99369812011719 -37.600982666015625 -60.789398193359375 -19.416976928710938 -74.83940124511719 -8.70635986328125C-76.837890625 -7.17626953125 -77.13980102539062 -6.9056396484375 -77.79550170898438 -6.11456298828125C-79.1123046875 -4.501190185546875 -79.77059936523438 -2.4610748291015625 -79.77059936523438 -0.4209442138671875C-79.77059936523438 1.6191864013671875 -79.1123046875 3.6593170166015625 -77.79550170898438 5.2726898193359375C-77.13980102539062 6.063751220703125 -76.837890625 6.334381103515625 -74.83940124511719 7.8644866943359375C-68.70860290527344 12.538009643554688 -63.4833984375 19.012313842773438 -59.7987060546875 26.485916137695312C-55.291900634765625 35.62181091308594 -53.04249572753906 46.05741882324219 -53.04249572753906 58.22682189941406C-53.04249572753906 68.82351684570312 -54.74810791015625 80.73481750488281 -58.15409851074219 94.247314453125C-59.81950378417969 100.87800598144531 -61.370391845703125 105.92601013183594 -65.52349853515625 118.24000549316406C-69.41639709472656 129.7930145263672 -72.77850341796875 143.3870086669922 -74.67289733886719 155.19100952148438C-76.85589599609375 168.80702209472656 -77.96389770507812 182.38201904296875 -77.96389770507812 196.05801391601562C-77.96389770507812 250.00302124023438 -60.724395751953125 305.5170135498047 -24.221298217773438 371.2990264892578C-21.431793212890625 376.3260040283203 -19.703903198242188 377.8040008544922 -16.133697509765625 378.2520294189453Z" fill="black" /></g></svg>