<?xml version="1.0" encoding="utf-8" ?>
<svg baseProfile="tiny" height="100%" version="1.2" width="100%" xmlns="http://www.w3.org/2000/svg" xmlns:ev="http://www.w3.org/2001/xml-events" xmlns:xlink="http://www.w3.org/1999/xlink"><defs /><g transform="translate(0, 1000) scale(1, -1)"><path d="M-13.102706909179688 8535.2998046875C-12.0001220703125 8535.7900390625 -10.847808837890625 8536.01953125 -9.703567504882812 8536.01953125C-4.7763824462890625 8536.01953125 -1.52587890625e-05 8531.830078125 -1.52587890625e-05 8527.009765625C-1.52587890625e-05 8526.4404296875 -0.0660247802734375 8525.8603515625 -0.20556640625 8525.2900390625C-0.4458770751953125 8524.16015625 -7.4952392578125 8510.9501953125 -15.826309204101562 8495.9697265625C-352.19300842285156 7888.68017578125 -575.4489898681641 7229.72998046875 -687.4380035400391 6513.72998046875C-739.9959869384766 6177.669921875 -766.0630035400391 5832.4501953125 -766.0630035400391 5482.31005859375C-766.0630035400391 4650.35986328125 -618.9000396728516 3790.610107421875 -330.24400329589844 2959.820068359375C-227.12001037597656 2663.1201171875 -181.00701904296875 2399.669921875 -181.00701904296875 2105.719970703125C-181.00701904296875 2098.7099609375 -181.03302001953125 2091.68994140625 -181.0860137939453 2084.64990234375C-181.4860076904297 2027.06005859375 -181.80702209472656 2017.2099609375 -184.45001220703125 1966.5C-224.50302124023438 1207.81005859375 -617.9060363769531 487.333984375 -1250.7500305175781 13.505462646484375L-1278.7800598144531 -7.482452392578125L-1281.1100158691406 -9.32489013671875L-1278.7800598144531 -11.087234497070312C-1277.5000305175781 -12.128646850585938 -1264.8399963378906 -21.581146240234375 -1250.7500305175781 -32.155242919921875C-617.9060363769531 -505.9840393066406 -224.50302124023438 -1226.4599914550781 -184.45001220703125 -1985.1500549316406C-181.80702209472656 -2035.8600158691406 -181.4860076904297 -2045.7099914550781 -181.0860137939453 -2103.300079345703C-181.03302001953125 -2110.340118408203 -181.00701904296875 -2117.360137939453 -181.00701904296875 -2124.370147705078C-181.00701904296875 -2418.320098876953 -227.12001037597656 -2681.850128173828 -330.24400329589844 -2978.470001220703C-617.5999908447266 -3805.370147705078 -764.1790313720703 -4661.790069580078 -764.1790313720703 -5490.600128173828C-764.1790313720703 -5832.270050048828 -739.2680206298828 -6169.250030517578 -689.0399932861328 -6497.540069580078C-578.6530303955078 -7218.980010986328 -354.11500549316406 -7885.299835205078 -15.586013793945312 -8495.790069580078C-4.83209228515625 -8515.200225830078 -0.2378082275390625 -8523.959991455078 -0.2378082275390625 -8528.700225830078C-0.2378082275390625 -8531.900421142578 -2.3375244140625 -8533.250030517578 -6.0533294677734375 -8534.799835205078C-7.7116546630859375 -8535.500030517578 -9.03143310546875 -8536.019561767578 -10.295318603515625 -8536.019561767578C-14.831512451171875 -8536.019561767578 -18.647720336914062 -8529.330108642578 -34.81150817871094 -8500.200225830078C-507.2790069580078 -7650.109893798828 -805.9149932861328 -6723.439971923828 -908.6110382080078 -5789.000030517578C-910.2140045166016 -5774.660186767578 -911.9760284423828 -5758.799835205078 -912.6170196533203 -5753.750030517578C-914.0590362548828 -5742.379913330078 -919.3460235595703 -5688.779815673828 -922.6300201416016 -5652.819854736328C-940.8440093994141 -5450.040069580078 -949.9329986572266 -5247.720245361328 -949.9329986572266 -5046.220245361328C-949.9329986572266 -4369.500030517578 -847.4170074462891 -3702.080108642578 -643.7800445556641 -3057.770050048828C-625.9959869384766 -3001.620147705078 -605.0080108642578 -2938.649932861328 -576.2500152587891 -2855.500030517578C-465.3920135498047 -2535.139923095703 -411.91700744628906 -2210.040069580078 -411.91700744628906 -1895.6999816894531C-411.91700744628906 -1137.9200744628906 -722.6770172119141 -442.6480407714844 -1289.439956665039 -26.948211669921875C-1301.250015258789 -18.29681396484375 -1307.1600494384766 -13.810821533203125 -1307.1600494384766 -9.324859619140625C-1307.1600494384766 -4.8389129638671875 -1301.250015258789 -0.3529510498046875 -1289.439956665039 8.29852294921875C-1074.5899810791016 165.86798095703125 -887.3029937744141 373.6639862060547 -744.6339874267578 612.7809906005859C-523.9990386962891 982.4099578857422 -411.8030242919922 1419.8299407958984 -411.8030242919922 1875.439926147461C-411.8030242919922 2192.669906616211 -466.19602966308594 2518.719955444336 -576.2500152587891 2836.850082397461C-628.5600128173828 2988.330062866211 -660.1220245361328 3087.189926147461 -696.4099884033203 3214.149887084961C-866.4180450439453 3807.979965209961 -951.8330230712891 4419.109848022461 -951.8330230712891 5037.700180053711C-951.8330230712891 5262.930160522461 -940.5100250244141 5489.149887084961 -917.8239898681641 5715.879867553711C-916.0609893798828 5733.259750366211 -914.2990264892578 5750.080062866211 -913.8180084228516 5753.120101928711C-913.4180450439453 5756.249984741211 -911.5750274658203 5772.109848022461 -909.8130035400391 5788.370101928711C-808.2379913330078 6717.370101928711 -506.6380157470703 7652.370101928711 -34.81150817871094 8500.769515991211C-16.547210693359375 8533.620101928711 -16.467117309570312 8533.780258178711 -13.10272216796875 8535.299789428711Z" fill="black" /></g></svg>