<?xml version="1.0" encoding="utf-8" ?>
<svg baseProfile="tiny" height="100%" version="1.2" width="100%" xmlns="http://www.w3.org/2000/svg" xmlns:ev="http://www.w3.org/2001/xml-events" xmlns:xlink="http://www.w3.org/1999/xlink"><defs /><g transform="translate(0, 1000) scale(1, -1)"><path d="M-11.255096435546875 3278.530029296875C-10.50750732421875 3278.7099609375 -9.764129638671875 3278.800048828125 -9.03643798828125 3278.800048828125C-4.1664886474609375 3278.800048828125 0.0 3274.860107421875 0.0 3269.679931640625C0.0 3266.97998046875 -0.294891357421875 3266.2900390625 -8.35528564453125 3251.639892578125C-185.74899291992188 2929.429931640625 -275.4200134277344 2558.75 -275.4200134277344 2160.080078125C-275.4200134277344 1926.510009765625 -244.63900756835938 1683.3299560546875 -182.68600463867188 1434.6700439453125C-157.5709991455078 1333.9100341796875 -135.40499877929688 1260.2900390625 -90.38449096679688 1127.97998046875C-73.42819213867188 1078.0400390625 -60.60040283203125 1025.31005859375 -52.29420471191406 971.4390258789062C-44.95399475097656 923.7119750976562 -41.34480285644531 875.9739990234375 -41.34480285644531 828.5020141601562C-41.34480285644531 515.8330078125 -197.91299438476562 214.72998046875 -476.2510070800781 4.5368194580078125C-482.0010070800781 0.21173095703125 -486.7200012207031 -3.4744110107421875 -486.7200012207031 -3.6710205078125C-486.7200012207031 -3.86761474609375 -482.0010070800781 -7.5537872314453125 -476.29998779296875 -11.878829956054688C-256.9490051269531 -177.51002502441406 -108.86399841308594 -404.3800354003906 -59.66650390625 -650.2220153808594C-47.45030212402344 -711.2480163574219 -41.38459777832031 -773.4240417480469 -41.38459777832031 -835.4700012207031C-41.38459777832031 -937.6780090332031 -57.844207763671875 -1039.5300598144531 -90.38449096679688 -1135.3199768066406C-118.5469970703125 -1218.0899963378906 -126.45999145507812 -1242.3199768066406 -140.95899963378906 -1290.6300354003906C-167.7449951171875 -1379.7400207519531 -189.76300048828125 -1465.8900451660156 -208.78399658203125 -1555.7900695800781C-252.75 -1763.6999816894531 -274.5780029296875 -1967.2400207519531 -274.5780029296875 -2163.820098876953C-274.5780029296875 -2563.209991455078 -184.4770050048828 -2933.909942626953 -6.8808135986328125 -3254.320098876953C-0.2457427978515625 -3266.260040283203 0.0 -3266.899932861328 0.0 -3269.600128173828C0.0 -3274.949981689453 -4.40118408203125 -3278.800079345703 -9.0853271484375 -3278.800079345703C-10.6820068359375 -3278.800079345703 -12.311492919921875 -3278.360137939453 -13.810806274414062 -3277.370147705078C-19.708602905273438 -3273.439971923828 -79.8175048828125 -3159.560089111328 -115.35198974609375 -3084.800079345703C-303.4670104980469 -2689.540069580078 -398.14898681640625 -2285.209991455078 -398.14898681640625 -1888.9800109863281C-398.14898681640625 -1616.9700012207031 -353.5270080566406 -1348.7800598144531 -263.8789978027344 -1089.9599914550781C-216.468994140625 -953.0570373535156 -193.43499755859375 -817.1870422363281 -193.43499755859375 -688.4490051269531C-193.43499755859375 -411.34002685546875 -300.1610107421875 -167.2780303955078 -500.2359924316406 -17.137725830078125C-510.9989929199219 -9.077392578125 -511.9330139160156 -7.9961090087890625 -511.9330139160156 -3.6710357666015625C-511.9330139160156 0.654052734375 -510.9989929199219 1.7353363037109375 -500.0880126953125 9.894012451171875C-301.8550109863281 158.61697387695312 -193.40899658203125 402.5859680175781 -193.40899658203125 682.1039733886719C-193.40899658203125 757.4809875488281 -201.2949981689453 835.4429626464844 -217.4340057373047 914.8199768066406C-230.16299438476562 977.3369445800781 -245.00599670410156 1029.4799499511719 -271.989013671875 1106.0600280761719C-280.5899963378906 1130.4799499511719 -299.07000732421875 1190.5400085449219 -309.2439880371094 1227.1600036621094C-369.760986328125 1444.4499206542969 -398.6369934082031 1656.8000183105469 -398.6369934082031 1884.0699157714844C-398.6369934082031 1888.9999694824219 -398.62298583984375 1893.9300231933594 -398.59600830078125 1898.8799743652344C-398.3500061035156 1944.4899597167969 -398.15399169921875 1953.8699645996094 -396.77801513671875 1986.8499450683594C-379.0350036621094 2414.989959716797 -251.98500061035156 2850.639862060547 -26.097991943359375 3258.080047607422C-15.629302978515625 3276.959930419922 -15.186996459960938 3277.550018310547 -11.255096435546875 3278.529998779297Z" fill="black" /></g></svg>