<?xml version="1.0" encoding="utf-8" ?>
<svg baseProfile="tiny" height="100%" version="1.2" width="100%" xmlns="http://www.w3.org/2000/svg" xmlns:ev="http://www.w3.org/2001/xml-events" xmlns:xlink="http://www.w3.org/1999/xlink"><defs /><g transform="translate(0, 1000) scale(1, -1)"><path d="M-16.03619384765625 1004.6500244140625C-15.400802612304688 1004.739990234375 -14.6968994140625 1004.8099975585938 -14.271896362304688 1004.8099975585938C-14.152603149414062 1004.8099975585938 -14.0552978515625 1004.8099975585938 -13.987594604492188 1004.7899780273438C-13.67889404296875 1004.77001953125 -12.92120361328125 1004.6300048828125 -12.303802490234375 1004.5399780273438C-8.93609619140625 1003.97998046875 -6.0455169677734375 1000.9199829101562 -5.4842529296875 997.2739868164062C-5.3860931396484375 996.6500244140625 -5.323577880859375 996.1110229492188 -5.323577880859375 995.5789794921875C-5.323577880859375 993.5269775390625 -6.25537109375 991.5880126953125 -9.665756225585938 985.3469848632812C-55.77079772949219 901.1719970703125 -78.83869934082031 803.35400390625 -78.83869934082031 694.6530151367188C-78.83869934082031 592.2849731445312 -58.38079833984375 480.2650146484375 -17.43939208984375 360.89801025390625C-9.609634399414062 338.1390075683594 -6.0455169677734375 324.3869934082031 -3.3513946533203125 306.5950012207031C-1.11163330078125 291.9289855957031 0.0 277.3659973144531 0.0 262.9419860839844C0.0 166.2169952392578 -49.98820495605469 75.73210144042969 -144.99000549316406 2.2708740234375C-147.26300048828125 0.5028533935546875 -149.11500549316406 -1.0125885009765625 -149.11500549316406 -1.124847412109375C-149.11500549316406 -1.2371063232421875 -147.26300048828125 -2.752532958984375 -144.99000549316406 -4.5205535888671875C-49.98820495605469 -77.981689453125 0.0 -168.46600341796875 0.0 -265.1919860839844C0.0 -279.6159973144531 -1.11163330078125 -294.1789855957031 -3.3513946533203125 -308.8450012207031C-6.0735931396484375 -326.6650085449219 -9.6376953125 -340.4159851074219 -17.43939208984375 -363.14801025390625C-58.21929931640625 -481.94500732421875 -78.59660339355469 -593.5969848632812 -78.59660339355469 -695.6489868164062C-78.59660339355469 -804.5679931640625 -55.384796142578125 -902.551025390625 -8.992218017578125 -986.614013671875C-6.1777496337890625 -991.7109985351562 -5.323272705078125 -993.5709838867188 -5.323272705078125 -995.5780029296875C-5.323272705078125 -996.1129760742188 -5.3838958740234375 -996.6589965820312 -5.4842529296875 -997.2780151367188C-6.2150421142578125 -1001.9600219726562 -10.311798095703125 -1004.8099975585938 -14.50689697265625 -1004.8099975585938C-16.755905151367188 -1004.8099975585938 -19.033096313476562 -1003.989990234375 -20.835205078125 -1002.1900024414062C-21.901596069335938 -1001.1199951171875 -25.746307373046875 -994.3880004882812 -33.57609558105469 -979.8510131835938C-105.3909912109375 -846.4910278320312 -145.91600036621094 -714.9840087890625 -153.156005859375 -591.8679809570312C-154.22300720214844 -574.2160034179688 -154.3070068359375 -570.3709716796875 -154.3070068359375 -547.6680297851562C-154.2790069580078 -524.2630004882812 -154.11000061035156 -518.2570190429688 -152.9040069580078 -500.239990234375C-149.70399475097656 -453.0929870605469 -141.4250030517578 -405.6090087890625 -128.37600708007812 -359.9209899902344C-124.58700561523438 -346.6189880371094 -122.25799560546875 -339.29400634765625 -115.32598876953125 -318.947998046875C-103.45500183105469 -284.0360107421875 -96.01809692382812 -250.6959991455078 -92.73471069335938 -217.4969940185547C-91.598388671875 -206.10899353027344 -91.03579711914062 -194.9759979248047 -91.03579711914062 -184.1269989013672C-91.03579711914062 -109.50799560546875 -117.65299987792969 -48.385406494140625 -167.24400329589844 -10.750701904296875C-172.82899475097656 -6.5411529541015625 -173.86700439453125 -5.0257110595703125 -173.86700439453125 -1.124847412109375C-173.86700439453125 2.776031494140625 -172.82899475097656 4.291473388671875 -167.24400329589844 8.501052856445312C-125.4010009765625 40.24119567871094 -99.2174072265625 89.83000183105469 -92.73471069335938 149.5780029296875C-91.60720825195312 159.9510040283203 -91.04660034179688 170.64199829101562 -91.04660034179688 181.6009979248047C-91.04660034179688 223.56500244140625 -99.26570129394531 269.47900390625 -115.35400390625 316.697998046875C-120.29299926757812 331.2349853515625 -123.21200561523438 340.18701171875 -125.6820068359375 348.4100036621094C-145.0399932861328 412.7950134277344 -154.6820068359375 478.5119934082031 -154.6820068359375 546.2670288085938C-154.6820068359375 548.7410278320312 -154.66900634765625 551.218017578125 -154.64300537109375 553.697021484375C-154.47500610351562 569.4409790039062 -154.3350067138672 573.875 -153.46499633789062 589.47802734375C-146.58900451660156 712.8189697265625 -105.3070068359375 847.1599731445312 -33.435791015625 980.1270141601562C-20.694793701171875 1003.6699829101562 -20.526504516601562 1003.9199829101562 -16.03619384765625 1004.6500244140625Z" fill="black" /></g></svg>