<?xml version="1.0" encoding="utf-8" ?>
<svg baseProfile="tiny" height="100%" version="1.2" width="100%" xmlns="http://www.w3.org/2000/svg" xmlns:ev="http://www.w3.org/2001/xml-events" xmlns:xlink="http://www.w3.org/1999/xlink"><defs /><g transform="translate(0, 1000) scale(1, -1)"><path d="M-13.493301391601562 311.9639892578125C-13.089920043945312 312.0150146484375 -12.691818237304688 312.0400085449219 -12.300521850585938 312.0400085449219C-7.21844482421875 312.0400085449219 -3.2639007568359375 307.87799072265625 -3.2639007568359375 303.0199890136719C-3.2639007568359375 302.0429992675781 -3.423675537109375 301.0379943847656 -3.7661895751953125 300.03399658203125C-3.90283203125 299.6319885253906 -4.4066925048828125 298.572998046875 -4.902008056640625 297.677001953125C-6.7893829345703125 294.22601318359375 -7.8397979736328125 292.14300537109375 -9.325775146484375 288.9570007324219C-18.817916870117188 268.5710144042969 -23.569107055664062 245.58399963378906 -23.569107055664062 219.7169952392578C-23.569107055664062 188.05499267578125 -16.450515747070312 152.07899475097656 -2.1948089599609375 111.281005859375C-1.4945220947265625 109.2659912109375 -1.058990478515625 107.83099365234375 -0.4697265625 105.59300231933594L-1.52587890625e-05 103.80799865722656V82.29600524902344V60.77500915527344L-0.35015869140625 59.45130920410156C-5.8926849365234375 38.23771667480469 -19.070037841796875 19.449615478515625 -41.163238525390625 1.25067138671875C-42.170928955078125 0.4222869873046875 -42.99932861328125 -0.295074462890625 -42.99932861328125 -0.3377838134765625C-42.99932861328125 -0.3804779052734375 -42.170928955078125 -1.09783935546875 -41.163238525390625 -1.926239013671875C-19.070037841796875 -20.12518310546875 -5.8926849365234375 -38.91328430175781 -0.3501739501953125 -60.12687683105469L-3.0517578125e-05 -61.45057678222656V-82.97157287597656V-104.48396301269531L-0.4697418212890625 -106.26896667480469C-1.101715087890625 -108.66899108886719 -1.4945526123046875 -109.9329833984375 -2.4766693115234375 -112.76799011230469C-16.507644653320312 -153.02198791503906 -23.518539428710938 -188.44297790527344 -23.518539428710938 -219.7319793701172C-23.518539428710938 -249.17498779296875 -17.310440063476562 -274.95997619628906 -4.90203857421875 -297.6689910888672C-3.72808837890625 -299.80897521972656 -3.249114990234375 -301.2639923095703 -3.249114990234375 -302.8779754638672C-3.249114990234375 -303.2479705810547 -3.274322509765625 -303.62599182128906 -3.3221282958984375 -304.0229949951172C-3.9185333251953125 -308.95899963378906 -8.050933837890625 -312.0399932861328 -12.33984375 -312.0399932861328C-14.499542236328125 -312.0399932861328 -16.698837280273438 -311.2589874267578 -18.50634765625 -309.5399932861328C-19.684951782226562 -308.4209747314453 -20.393753051757812 -307.23399353027344 -24.740646362304688 -299.1549835205078C-51.94635009765625 -248.61798095703125 -64.93014526367188 -204.35398864746094 -64.93014526367188 -161.5059814453125C-64.93014526367188 -155.3409881591797 -64.66134643554688 -149.2059783935547 -64.12745666503906 -143.08499145507812C-62.70124816894531 -126.70498657226562 -59.57563781738281 -112.22099304199219 -53.631744384765625 -94.44938659667969C-48.30274963378906 -78.53068542480469 -46.07374572753906 -68.58148193359375 -44.946441650390625 -55.80558776855469C-44.81434631347656 -54.31858825683594 -44.75184631347656 -52.45127868652344 -44.75184631347656 -50.46388244628906C-44.75184631347656 -46.92698669433594 -44.94975280761719 -43.00947570800781 -45.305145263671875 -40.17718505859375C-47.030242919921875 -26.581390380859375 -53.179046630859375 -15.376876831054688 -62.98313903808594 -7.9640655517578125C-65.77143859863281 -5.85894775390625 -67.1656494140625 -3.098358154296875 -67.1656494140625 -0.3377838134765625C-67.1656494140625 2.42279052734375 -65.77143859863281 5.183380126953125 -62.98313903808594 7.2884979248046875C-53.82814025878906 14.214523315429688 -48.06355285644531 24.044113159179688 -45.74064636230469 36.70051574707031C-45.10154724121094 40.176910400390625 -44.73814392089844 45.203216552734375 -44.73814392089844 49.731109619140625C-44.73814392089844 51.67701721191406 -44.80525207519531 53.53080749511719 -44.946441650390625 55.13002014160156C-46.07374572753906 67.92301940917969 -48.30274963378906 77.85511779785156 -53.631744384765625 93.77381896972656C-57.38084411621094 104.98701477050781 -59.57563781738281 113.07402038574219 -61.26654052734375 121.95600891113281C-63.74964904785156 134.98802185058594 -65.00395202636719 148.06800842285156 -65.00395202636719 161.3150177001953C-65.00395202636719 205.74700927734375 -50.893951416015625 252.05801391601562 -21.717453002929688 304.71400451660156C-19.847152709960938 308.08702087402344 -19.505538940429688 308.59901428222656 -18.50634765625 309.54701232910156C-17.080245971679688 310.8970184326172 -15.3636474609375 311.73402404785156 -13.49334716796875 311.96400451660156Z" fill="black" /></g></svg>