<?xml version="1.0" encoding="utf-8" ?>
<svg baseProfile="tiny" height="100%" version="1.2" width="100%" xmlns="http://www.w3.org/2000/svg" xmlns:ev="http://www.w3.org/2001/xml-events" xmlns:xlink="http://www.w3.org/1999/xlink"><defs /><g transform="translate(0, 1000) scale(1, -1)"><path d="M-18.593795776367188 687.9739990234375C-18.344482421875 687.9940185546875 -18.09698486328125 688.0029907226562 -17.8516845703125 688.0029907226562C-12.880081176757812 688.0029907226562 -8.796188354492188 684.010009765625 -8.796188354492188 678.9229736328125C-8.796188354492188 676.7979736328125 -9.159759521484375 675.822021484375 -11.51348876953125 671.5549926757812C-41.36158752441406 617.4970092773438 -56.38648986816406 554.3070068359375 -56.38648986816406 483.5469970703125C-56.38648986816406 452.96099853515625 -53.57928466796875 420.96099853515625 -47.948486328125 387.6719970703125C-39.987884521484375 340.5400085449219 -28.850692749023438 298.0589904785156 -10.288787841796875 243.86500549316406C-5.543060302734375 229.99200439453125 -2.30908203125 215.0850067138672 -0.89300537109375 200.52200317382812C-0.296600341796875 194.35499572753906 1.52587890625e-05 188.2100067138672 1.52587890625e-05 182.09500122070312C1.52587890625e-05 124.24600219726562 -26.544692993164062 69.05290222167969 -76.95869445800781 22.844497680664062C-85.18708801269531 15.304901123046875 -99.59658813476562 3.1917724609375 -104.30398559570312 -0.1378936767578125C-104.781982421875 -0.4727783203125 -105.02198791503906 -0.630645751953125 -105.02198791503906 -0.78851318359375C-105.02198791503906 -0.9463958740234375 -104.781982421875 -1.1042633056640625 -104.30398559570312 -1.4391326904296875C-102.88798522949219 -2.4342193603515625 -95.156982421875 -8.653427124023438 -91.02357482910156 -12.097900390625C-51.77568054199219 -44.91619873046875 -26.018585205078125 -79.26528930664062 -11.915390014648438 -117.57598876953125C-4.0047607421875 -139.08399963378906 -0.04278564453125 -161.5399932861328 -0.04278564453125 -183.95199584960938C-0.04278564453125 -204.75 -3.454559326171875 -225.51100158691406 -10.288787841796875 -245.44200134277344C-27.568588256835938 -295.8080139160156 -38.20817565917969 -335.47698974609375 -46.24537658691406 -379.58599853515625C-52.91468811035156 -416.1659851074219 -56.243682861328125 -451.1369934082031 -56.243682861328125 -484.3900146484375C-56.243682861328125 -554.8489990234375 -41.29759216308594 -617.5969848632812 -11.51348876953125 -671.6010131835938C-9.159759521484375 -675.8690185546875 -8.796188354492188 -676.844970703125 -8.796188354492188 -678.968994140625C-8.796188354492188 -684.2769775390625 -12.999481201171875 -688.0029907226562 -17.794082641601562 -688.0029907226562C-19.239089965820312 -688.0029907226562 -20.737777709960938 -687.6649780273438 -22.191390991210938 -686.9290161132812C-24.487686157226562 -685.7620239257812 -24.98529052734375 -684.9970092773438 -32.14208984375 -671.8880004882812C-91.84648132324219 -562.2579956054688 -120.45498657226562 -463.6889953613281 -120.49298095703125 -367.5299987792969C-120.49298095703125 -352.0299987792969 -120.45498657226562 -350.46099853515625 -119.72798156738281 -337.9649963378906C-117.35499572753906 -297.5880126953125 -109.91099548339844 -260.5790100097656 -95.52058410644531 -217.60000610351562C-84.306884765625 -184.0919952392578 -79.23579406738281 -161.12899780273438 -77.05427551269531 -133.87899780273438C-76.60987854003906 -128.33900451660156 -76.38948059082031 -122.89599609375 -76.38948059082031 -117.56199645996094C-76.38948059082031 -71.22380065917969 -93.01939392089844 -33.066802978515625 -123.82298278808594 -9.591079711914062C-128.3009796142578 -6.18487548828125 -129.4299774169922 -4.4434967041015625 -129.4299774169922 -0.78851318359375C-129.4299774169922 2.866455078125 -128.3009796142578 4.6078338623046875 -123.82298278808594 8.0140380859375C-93.03378295898438 31.491897583007812 -76.39009094238281 69.68440246582031 -76.39009094238281 116.00700378417969C-76.39009094238281 121.33499145507812 -76.61018371582031 126.76998901367188 -77.05427551269531 132.302001953125C-79.25498962402344 159.7429962158203 -84.26858520507812 182.36199951171875 -95.71199035644531 216.5970001220703C-108.05497741699219 253.49099731445312 -114.79098510742188 283.8399963378906 -118.36898803710938 318.7829895019531C-119.99298095703125 334.5669860839844 -120.8079833984375 350.4530029296875 -120.8079833984375 366.4649963378906C-120.8079833984375 464.3819885253906 -90.33558654785156 566.9509887695312 -28.200088500976562 679.0180053710938C-24.238983154296875 686.156005859375 -22.650680541992188 687.6290283203125 -18.593780517578125 687.9739990234375Z" fill="black" /></g></svg>