<?xml version="1.0" encoding="utf-8" ?>
<svg baseProfile="tiny" height="100%" version="1.2" width="100%" xmlns="http://www.w3.org/2000/svg" xmlns:ev="http://www.w3.org/2001/xml-events" xmlns:xlink="http://www.w3.org/1999/xlink"><defs /><g transform="translate(0, 1000) scale(1, -1)"><path d="M-13.55279541015625 3365.85009765625C-12.007400512695312 3366.659912109375 -10.417800903320312 3367.030029296875 -8.8956298828125 3367.030029296875C-4.116119384765625 3367.030029296875 -0.00079345703125 3363.360107421875 -0.00079345703125 3358.1201171875C-0.00079345703125 3357.889892578125 -0.0088348388671875 3357.659912109375 -0.02520751953125 3357.419921875C-0.22711181640625 3354.93994140625 -1.03472900390625 3353.22998046875 -7.09185791015625 3342.27001953125C-190.53599548339844 3011.389892578125 -283.3550109863281 2628.75 -283.3550109863281 2217.0C-283.3550109863281 1978.760009765625 -252.2830047607422 1730.780029296875 -189.71499633789062 1477.4300537109375C-164.37600708007812 1374.8199462890625 -137.7239990234375 1285.719970703125 -95.42510986328125 1162.4100341796875C-60.27040100097656 1059.949951171875 -43.22050476074219 955.0800170898438 -43.22050476074219 850.9019775390625C-43.22050476074219 532.8109741210938 -202.1739959716797 221.15899658203125 -490.0480194091797 4.0848846435546875C-495.4490203857422 -0.003692626953125 -499.89100646972656 -3.537017822265625 -499.89100646972656 -3.789398193359375C-499.89100646972656 -4.041778564453125 -495.4490203857422 -7.575103759765625 -490.0480194091797 -11.6636962890625C-288.4960174560547 -163.64700317382812 -144.6900177001953 -367.0660095214844 -80.93852233886719 -590.322021484375C-55.90301513671875 -677.9810180664062 -43.41700744628906 -767.9569702148438 -43.41700744628906 -857.6890258789062C-43.41700744628906 -963.5280151367188 -60.7877197265625 -1069.030029296875 -95.42512512207031 -1169.989990234375C-114.50502014160156 -1225.6700439453125 -121.42001342773438 -1246.4599609375 -132.92901611328125 -1283.1099853515625C-187.5440216064453 -1456.5899658203125 -228.4300079345703 -1636.0899658203125 -253.06201171875 -1810.3299560546875C-272.7720184326172 -1949.8199462890625 -282.57102966308594 -2086.760009765625 -282.57102966308594 -2220.43994140625C-282.57102966308594 -2632.1298828125 -189.64401245117188 -3012.919921875 -7.0918731689453125 -3342.280029296875C-1.0347442626953125 -3353.239990234375 -0.2271270751953125 -3354.949951171875 -0.0252227783203125 -3357.429931640625C-0.0083160400390625 -3357.669921875 -1.52587890625e-05 -3357.909912109375 -1.52587890625e-05 -3358.139892578125C-1.52587890625e-05 -3363.360107421875 -4.066253662109375 -3367.030029296875 -8.888702392578125 -3367.030029296875C-10.354019165039062 -3367.030029296875 -11.88922119140625 -3366.68994140625 -13.401412963867188 -3365.9599609375C-15.925216674804688 -3364.739990234375 -15.925216674804688 -3364.739990234375 -26.525222778320312 -3345.56005859375C-221.7670135498047 -2993.139892578125 -345.4340057373047 -2618.5 -389.5500030517578 -2245.68994140625C-401.61000061035156 -2143.840087890625 -407.6120147705078 -2041.989990234375 -407.6120147705078 -1940.699951171875C-407.6120147705078 -1665.9599609375 -363.4510040283203 -1395.300048828125 -276.2310028076172 -1139.6500244140625L-263.86402893066406 -1103.1600341796875C-219.02001953125 -970.0070190429688 -197.2880096435547 -837.072998046875 -197.2880096435547 -710.3870239257812C-197.2880096435547 -424.68701171875 -307.81202697753906 -170.76400756835938 -513.0139923095703 -17.77130126953125C-524.1190338134766 -9.493209838867188 -525.3809967041016 -8.079864501953125 -525.3809967041016 -3.789398193359375C-525.3809967041016 0.501068115234375 -524.1190338134766 1.914398193359375 -513.0139923095703 10.1925048828125C-307.83802795410156 163.19200134277344 -197.27601623535156 417.22698974609375 -197.27601623535156 702.9349975585938C-197.27601623535156 829.6060180664062 -219.00901794433594 962.5029907226562 -263.86402893066406 1095.5799560546875L-277.0380096435547 1134.449951171875C-355.8820037841797 1366.22998046875 -397.7770233154297 1599.280029296875 -407.31700134277344 1859.030029296875C-407.8570098876953 1873.7900390625 -408.17701721191406 1911.25 -408.17701721191406 1943.9100341796875C-408.17701721191406 1963.1700439453125 -408.06602478027344 1980.760009765625 -407.82200622558594 1991.030029296875C-397.02000427246094 2447.7900390625 -268.76002502441406 2905.81005859375 -30.7147216796875 3337.97998046875C-16.1776123046875 3364.330078125 -16.076614379882812 3364.530029296875 -13.552810668945312 3365.85009765625Z" fill="black" /></g></svg>