<?xml version="1.0" encoding="utf-8" ?>
<svg baseProfile="tiny" height="100%" version="1.2" width="100%" xmlns="http://www.w3.org/2000/svg" xmlns:ev="http://www.w3.org/2001/xml-events" xmlns:xlink="http://www.w3.org/1999/xlink"><defs /><g transform="translate(0, 1000) scale(1, -1)"><path d="M-13.001602172851562 5922.240234375C-12.121612548828125 5922.6298828125 -11.098220825195312 5922.81982421875 -10.027313232421875 5922.81982421875C-7.4472503662109375 5922.81982421875 -4.591400146484375 5921.75 -2.801025390625 5919.91015625C-1.0169677734375 5918.14990234375 -1.52587890625e-05 5916.7099609375 -1.52587890625e-05 5914.58984375C-1.52587890625e-05 5911.080078125 -2.7796783447265625 5905.68017578125 -9.468063354492188 5893.83984375C-131.60801696777344 5677.35986328125 -243.4140167236328 5416.5498046875 -324.01902770996094 5159.7998046875C-455.16001892089844 4742.240234375 -519.6970367431641 4305.08984375 -519.6970367431641 3834.72998046875C-519.6970367431641 3738.050048828125 -519.4970245361328 3722.449951171875 -517.0300445556641 3654.050048828125C-498.0290069580078 3126.2900390625 -393.7560272216797 2583.590087890625 -209.14601135253906 2051.9599609375C-186.3450164794922 1986.3599853515625 -171.7440185546875 1937.1500244140625 -157.61001586914062 1878.6199951171875C-124.99601745605469 1743.5899658203125 -109.10301208496094 1607.47998046875 -109.10301208496094 1472.469970703125C-109.10301208496094 913.9000244140625 -381.1120147705078 374.1719970703125 -866.3830108642578 8.3126220703125C-876.9829864501953 0.3121795654296875 -885.7169952392578 -6.4882049560546875 -885.7169952392578 -6.821563720703125C-885.7169952392578 -7.1549072265625 -876.9829864501953 -13.955307006835938 -866.3830108642578 -21.955703735351562C-415.22401428222656 -361.97499084472656 -140.1420135498047 -861.2029876708984 -111.67402648925781 -1391.5699310302734C-109.94601440429688 -1423.8799896240234 -109.07701110839844 -1455.949935913086 -109.07701110839844 -1487.810043334961C-109.07701110839844 -1683.3799896240234 -141.7840118408203 -1871.489974975586 -209.14601135253906 -2065.600082397461C-415.57701110839844 -2660.469955444336 -519.0540313720703 -3262.020004272461 -519.0540313720703 -3840.959945678711C-519.0540313720703 -4363.310043334961 -434.8140106201172 -4867.249984741211 -265.9490203857422 -5331.249984741211C-194.07801818847656 -5528.729965209961 -97.40632629394531 -5740.479965209961 -6.134552001953125 -5900.080062866211C-1.9729156494140625 -5907.359848022461 -0.05755615234375 -5911.540023803711 -0.05755615234375 -5914.629867553711C-0.05755615234375 -5916.839828491211 -1.0344390869140625 -5918.479965209961 -2.867706298828125 -5920.290023803711C-5.201171875 -5922.620101928711 -5.6011810302734375 -5922.819808959961 -9.334732055664062 -5922.819808959961C-15.001708984375 -5922.819808959961 -15.535110473632812 -5922.089828491211 -29.602523803710938 -5896.879867553711C-218.5460205078125 -5556.999984741211 -367.3550262451172 -5203.580062866211 -476.2270050048828 -4836.419906616211C-610.5839996337891 -4383.339828491211 -677.6859893798828 -3924.479965209961 -677.6859893798828 -3470.919906616211C-677.6859893798828 -2975.820053100586 -597.7329864501953 -2487.030014038086 -438.02500915527344 -2018.9300384521484C-386.7560272216797 -1868.729965209961 -367.15501403808594 -1798.719955444336 -344.95301818847656 -1686.9200286865234C-318.64100646972656 -1554.280014038086 -305.82701110839844 -1422.709945678711 -305.82701110839844 -1294.300033569336C-305.82701110839844 -774.5679779052734 -515.7160186767578 -306.44798278808594 -890.0510406494141 -28.022689819335938C-911.5880279541016 -12.017578125 -911.7190093994141 -11.95428466796875 -911.7190093994141 -7.0053863525390625L-911.7180328369141 -6.8215484619140625L-911.7190093994141 -6.5499114990234375C-911.7190093994141 -1.689788818359375 -911.5260162353516 -1.595703125 -890.0510406494141 14.379608154296875C-519.2249908447266 290.4469909667969 -305.63401794433594 757.4580078125 -305.63401794433594 1279.02001953125C-305.63401794433594 1325.1500244140625 -307.3040008544922 1371.699951171875 -310.6850128173828 1418.5899658203125C-324.4190216064453 1608.469970703125 -360.75401306152344 1781.1500244140625 -428.35801696777344 1976.9599609375C-580.3670196533203 2417.510009765625 -661.2379913330078 2853.81005859375 -676.7050323486328 3317.360107421875C-678.3620147705078 3367.010009765625 -679.1880035400391 3416.760009765625 -679.1880035400391 3466.590087890625C-679.1880035400391 4274.91015625 -461.9440155029297 5104.33984375 -51.80381774902344 5856.169921875C-20.535308837890625 5913.580078125 -16.268417358398438 5920.77978515625 -13.001617431640625 5922.240234375Z" fill="black" /></g></svg>