<?xml version="1.0" encoding="utf-8" ?>
<svg baseProfile="tiny" height="100%" version="1.2" width="100%" xmlns="http://www.w3.org/2000/svg" xmlns:ev="http://www.w3.org/2001/xml-events" xmlns:xlink="http://www.w3.org/1999/xlink"><defs /><g transform="translate(0, 1000) scale(1, -1)"><path d="M-12.115692138671875 278.6310119628906C-11.7113037109375 278.68701171875 -11.309906005859375 278.7149963378906 -10.913406372070312 278.7149963378906C-6.044097900390625 278.7149963378906 -1.9044342041015625 274.6000061035156 -1.9044342041015625 269.73199462890625C-1.9044342041015625 269.385009765625 -1.9254150390625 269.0350036621094 -1.9686126708984375 268.6820068359375C-2.166229248046875 267.07000732421875 -2.41705322265625 266.42401123046875 -3.7928009033203125 263.9010009765625C-15.161300659179688 243.08900451660156 -20.837295532226562 219.26699829101562 -20.837295532226562 192.2949981689453C-20.837295532226562 179.3419952392578 -19.5281982421875 165.66299438476562 -16.91180419921875 151.24200439453125C-13.879104614257812 134.52699279785156 -9.539016723632812 118.26899719238281 -3.093536376953125 99.48001098632812C-1.808990478515625 95.73280334472656 -0.934906005859375 92.67730712890625 -0.22802734375 89.4241943359375L0.0 88.3599853515625V72.40597534179688V56.45947265625L-0.266021728515625 55.22807312011719C-4.6668853759765625 35.09358215332031 -16.42529296875 17.003677368164062 -35.685791015625 0.7151336669921875C-36.30909729003906 0.183074951171875 -36.825897216796875 -0.2729644775390625 -36.825897216796875 -0.31097412109375C-36.825897216796875 -0.348968505859375 -36.30909729003906 -0.805023193359375 -35.685791015625 -1.3370819091796875C-16.42529296875 -17.6256103515625 -4.6668853759765625 -35.71551513671875 -0.266021728515625 -55.85002136230469L0.0 -57.0814208984375V-73.02792358398438V-88.98202514648438L-0.22802734375 -90.04611206054688C-1.0033111572265625 -93.59562683105469 -1.793792724609375 -96.3243408203125 -3.5191650390625 -101.36402893066406C-15.024093627929688 -135.0160369873047 -20.776092529296875 -165.34703063964844 -20.776092529296875 -192.4800262451172C-20.776092529296875 -219.4100341796875 -15.109603881835938 -243.18902587890625 -3.7776031494140625 -263.9370422363281C-2.363983154296875 -266.530029296875 -1.907012939453125 -267.8180236816406 -1.907012939453125 -269.4710388183594C-1.907012939453125 -269.69403076171875 -1.915283203125 -269.92303466796875 -1.93060302734375 -270.1620178222656C-2.2613067626953125 -275.2940368652344 -6.41314697265625 -278.71502685546875 -10.931106567382812 -278.71502685546875C-12.643402099609375 -278.71502685546875 -14.408294677734375 -278.2230224609375 -16.037704467773438 -277.1480407714844C-17.390594482421875 -276.25103759765625 -18.219100952148438 -275.2400207519531 -19.556900024414062 -272.8230285644531C-44.78990173339844 -227.4900360107422 -57.227996826171875 -185.69703674316406 -57.227996826171875 -145.81703186035156C-57.227996826171875 -134.5580291748047 -56.2366943359375 -123.4520263671875 -54.26220703125 -112.46102905273438C-52.552001953125 -102.94503784179688 -50.302093505859375 -94.44692993164062 -46.64610290527344 -83.72982788085938C-41.99400329589844 -70.09262084960938 -39.687591552734375 -57.68522644042969 -39.687591552734375 -46.80113220214844C-39.687591552734375 -29.695236206054688 -45.38459777832031 -16.352127075195312 -56.626007080078125 -7.9117889404296875C-59.423095703125 -5.81396484375 -60.68479919433594 -3.4501190185546875 -60.68479919433594 -0.3109893798828125C-60.68479919433594 2.828155517578125 -59.423095703125 5.1920013427734375 -56.626007080078125 7.289825439453125C-45.38459777832031 15.73016357421875 -39.687591552734375 29.073165893554688 -39.687591552734375 46.179168701171875C-39.687591552734375 57.063262939453125 -41.99400329589844 69.47067260742188 -46.64610290527344 83.10787963867188C-50.94059753417969 95.69476318359375 -53.289306640625 105.08895874023438 -55.09820556640625 116.85498046875C-56.55029296875 126.302978515625 -57.27830505371094 135.8499755859375 -57.27830505371094 145.51397705078125C-57.27830505371094 185.52696228027344 -44.798492431640625 227.5479736328125 -19.556900024414062 272.8089599609375C-17.428604125976562 276.6319580078125 -15.460006713867188 278.1669616699219 -12.115692138671875 278.6309814453125Z" fill="black" /></g></svg>