<?xml version="1.0" encoding="utf-8" ?>
<svg baseProfile="tiny" height="100%" version="1.2" width="100%" xmlns="http://www.w3.org/2000/svg" xmlns:ev="http://www.w3.org/2001/xml-events" xmlns:xlink="http://www.w3.org/1999/xlink"><defs /><g transform="translate(0, 1000) scale(1, -1)"><path d="M-13.079299926757812 1838.5C-11.929718017578125 1839.030029296875 -10.680908203125 1839.280029296875 -9.427963256835938 1839.280029296875C-5.5698394775390625 1839.280029296875 -1.6725006103515625 1836.93994140625 -0.5113983154296875 1833.4000244140625C-0.18463134765625 1832.4200439453125 -1.52587890625e-05 1831.530029296875 -1.52587890625e-05 1830.5999755859375C-1.52587890625e-05 1828.2099609375 -1.2089385986328125 1825.469970703125 -4.3380584716796875 1819.8900146484375C-98.12861633300781 1651.1800537109375 -145.47401428222656 1456.4300537109375 -145.5120086669922 1239.3299560546875C-145.5120086669922 1188.5999755859375 -144.12400817871094 1155.5899658203125 -140.072021484375 1108.02001953125C-127.166015625 957.5419921875 -94.63961791992188 808.4520263671875 -40.01600646972656 649.0079956054688C-18.937820434570312 587.530029296875 -9.227523803710938 533.7039794921875 -9.227523803710938 475.2149963378906C-9.227523803710938 461.2489929199219 -9.781158447265625 447.0169982910156 -10.865921020507812 432.35198974609375C-22.646011352539062 271.9320068359375 -114.48600769042969 115.82699584960938 -263.3880157470703 2.978424072265625C-266.95201110839844 0.31475830078125 -269.8400115966797 -1.973724365234375 -269.8400115966797 -2.086273193359375C-269.8400115966797 -2.1988372802734375 -266.95201110839844 -4.449798583984375 -263.3880157470703 -7.150970458984375C-114.48600769042969 -120.0 -22.646011352539062 -276.1050109863281 -10.865921020507812 -436.52398681640625C-9.781158447265625 -451.19000244140625 -9.227523803710938 -465.4209899902344 -9.227523803710938 -479.3869934082031C-9.227523803710938 -537.8759765625 -18.937820434570312 -591.7020263671875 -40.01600646972656 -653.1810302734375C-110.33201599121094 -858.3599853515625 -145.39501953125 -1056.22998046875 -145.39501953125 -1240.81005859375C-145.39501953125 -1454.7900390625 -98.27742004394531 -1650.9300537109375 -4.3380584716796875 -1819.93994140625C-1.2089385986328125 -1825.52001953125 -1.52587890625e-05 -1828.25 -1.52587890625e-05 -1830.6400146484375C-1.52587890625e-05 -1831.5799560546875 -0.18463134765625 -1832.4599609375 -0.5113983154296875 -1833.43994140625C-1.72821044921875 -1837.1600341796875 -5.5162200927734375 -1839.280029296875 -9.278717041015625 -1839.280029296875C-11.664413452148438 -1839.280029296875 -14.039810180664062 -1838.4300537109375 -15.743011474609375 -1836.5899658203125C-19.457107543945312 -1832.5799560546875 -54.38471984863281 -1766.469970703125 -72.01731872558594 -1730.0799560546875C-185.60301208496094 -1495.43994140625 -242.76602172851562 -1261.3699951171875 -242.76602172851562 -1034.449951171875C-242.76602172851562 -911.8070068359375 -226.0690155029297 -791.25 -192.55702209472656 -673.8150024414062C-185.42901611328125 -648.8289794921875 -179.83901977539062 -631.3090209960938 -168.95901489257812 -599.719970703125C-141.35101318359375 -519.47998046875 -127.90202331542969 -440.72601318359375 -127.90202331542969 -367.0690002441406C-127.90202331542969 -219.32000732421875 -182.0150146484375 -92.07598876953125 -284.50901794433594 -14.466598510742188C-294.18800354003906 -7.1134490966796875 -294.63902282714844 -6.588226318359375 -294.63902282714844 -2.086273193359375C-294.63902282714844 2.4156646728515625 -294.18800354003906 2.9409027099609375 -284.50901794433594 10.294097900390625C-182.0430145263672 87.87640380859375 -127.90501403808594 215.25799560546875 -127.90501403808594 363.010009765625C-127.90501403808594 436.67498779296875 -141.36302185058594 515.4030151367188 -168.99700927734375 595.5469970703125C-184.4910125732422 640.4920043945312 -193.64501953125 671.218017578125 -204.37501525878906 714.0989990234375C-230.29202270507812 817.625 -243.166015625 923.8779907226562 -243.166015625 1031.8299560546875C-243.166015625 1291.0999755859375 -168.90602111816406 1560.1600341796875 -22.721023559570312 1824.77001953125C-16.643417358398438 1835.760009765625 -15.555419921875 1837.3699951171875 -13.079315185546875 1838.5Z" fill="black" /></g></svg>