<?xml version="1.0" encoding="utf-8" ?>
<svg baseProfile="tiny" height="100%" version="1.2" width="100%" xmlns="http://www.w3.org/2000/svg" xmlns:ev="http://www.w3.org/2001/xml-events" xmlns:xlink="http://www.w3.org/1999/xlink"><defs /><g transform="translate(0, 1000) scale(1, -1)"><path d="M-11.085601806640625 1686.969970703125C-10.4302978515625 1687.1099853515625 -9.7843017578125 1687.1700439453125 -9.153610229492188 1687.1700439453125C-4.0878143310546875 1687.1700439453125 -0.0093231201171875 1683.1300048828125 -0.0093231201171875 1678.1099853515625C-0.0093231201171875 1677.52001953125 -0.0652313232421875 1676.9200439453125 -0.1819915771484375 1676.31005859375C-0.38836669921875 1675.2099609375 -1.7298126220703125 1672.4300537109375 -3.89678955078125 1668.5C-89.19999694824219 1515.3599853515625 -132.24200439453125 1336.8399658203125 -132.24200439453125 1140.6099853515625C-132.24200439453125 1033.4000244140625 -119.39300537109375 920.9000244140625 -93.56809997558594 804.364013671875C-77.5050048828125 731.9249877929688 -61.0635986328125 674.5180053710938 -31.173095703125 586.635009765625C-14.677200317382812 538.0980224609375 -6.2428741455078125 486.375 -6.2428741455078125 434.76300048828125C-6.2428741455078125 417.28399658203125 -7.210235595703125 399.8179931640625 -9.159439086914062 382.4930114746094C-25.222503662109375 239.54100036621094 -105.36599731445312 107.52799987792969 -238.7209930419922 4.476470947265625C-243.05499267578125 1.1056365966796875 -246.6320037841797 -1.749267578125 -246.6320037841797 -1.8868560791015625C-246.6320037841797 -2.024444580078125 -243.05499267578125 -4.87933349609375 -238.7209930419922 -8.25018310546875C-105.36599731445312 -111.302001953125 -25.222503662109375 -243.31500244140625 -9.159439086914062 -386.2659912109375C-7.210235595703125 -403.5920104980469 -6.2428741455078125 -421.0530090332031 -6.2428741455078125 -438.5270080566406C-6.2428741455078125 -490.12298583984375 -14.677200317382812 -541.8200073242188 -31.173095703125 -590.4089965820312C-65.56950378417969 -691.5679931640625 -83.79959106445312 -757.781005859375 -101.135009765625 -844.426025390625C-121.68399047851562 -947.0239868164062 -131.9010009765625 -1046.5 -131.9010009765625 -1141.8599853515625C-131.9010009765625 -1337.510009765625 -88.90200805664062 -1515.8699951171875 -3.89678955078125 -1668.489990234375C-0.9585113525390625 -1673.75 0.0 -1675.9200439453125 0.0 -1678.030029296875C0.0 -1678.5799560546875 -0.0669403076171875 -1679.1400146484375 -0.1819915771484375 -1679.739990234375C-1.0620269775390625 -1684.3800048828125 -5.1223602294921875 -1687.1700439453125 -9.239715576171875 -1687.1700439453125C-11.559494018554688 -1687.1700439453125 -13.89739990234375 -1686.280029296875 -15.6947021484375 -1684.3499755859375C-16.829803466796875 -1683.1500244140625 -22.4364013671875 -1673.239990234375 -31.207504272460938 -1657.0400390625C-160.468994140625 -1418.2900390625 -225.906005859375 -1176.02001953125 -225.906005859375 -943.5369873046875C-225.906005859375 -814.0570068359375 -205.60899353027344 -687.6129760742188 -164.73399353027344 -566.5029907226562C-155.0 -537.6790161132812 -151.83599853515625 -528.0139770507812 -148.9810028076172 -518.52001953125C-129.85299682617188 -454.260986328125 -120.5159912109375 -391.7950134277344 -120.5159912109375 -333.125C-120.5159912109375 -197.7790069580078 -170.2050018310547 -82.63861083984375 -264.00201416015625 -12.309005737304688C-270.84698486328125 -7.18389892578125 -271.6730041503906 -6.0832061767578125 -271.6730041503906 -1.8868560791015625C-271.6730041503906 2.309478759765625 -270.84698486328125 3.4101715087890625 -264.00201416015625 8.535232543945312C-188.02099609375 65.52998352050781 -138.5240020751953 155.3049774169922 -124.90299987792969 260.90098571777344C-121.92500305175781 283.93199157714844 -120.42401123046875 307.04298400878906 -120.42401123046875 330.4239959716797C-120.42401123046875 400.73497009277344 -133.9929962158203 473.4829864501953 -161.74200439453125 553.7869720458984C-204.75100708007812 678.2440032958984 -226.08700561523438 808.6110076904297 -226.08700561523438 942.0599822998047C-226.08700561523438 1177.239974975586 -159.822998046875 1421.989974975586 -29.143707275390625 1660.8299407958984C-15.247604370117188 1686.249984741211 -15.350799560546875 1686.1199798583984 -11.085601806640625 1686.969955444336Z" fill="black" /></g></svg>