<?xml version="1.0" encoding="utf-8" ?>
<svg baseProfile="tiny" height="100%" version="1.2" width="100%" xmlns="http://www.w3.org/2000/svg" xmlns:ev="http://www.w3.org/2001/xml-events" xmlns:xlink="http://www.w3.org/1999/xlink"><defs /><g transform="translate(0, 1000) scale(1, -1)"><path d="M-13.304794311523438 6764.2001953125C-12.070785522460938 6764.759765625 -10.798690795898438 6765.009765625 -9.553115844726562 6765.009765625C-4.5645751953125 6765.009765625 1.52587890625e-05 6760.93017578125 1.52587890625e-05 6755.81982421875C1.52587890625e-05 6755.3798828125 -0.033660888671875 6754.93017578125 -0.1036224365234375 6754.47998046875C-0.32122802734375 6753.18017578125 -6.341522216796875 6741.56982421875 -13.522384643554688 6728.72998046875C-127.1829833984375 6524.18994140625 -226.48098754882812 6305.5 -308.51698303222656 6079.33984375C-502.4559783935547 5544.47021484375 -599.2310028076172 4965.009765625 -599.2310028076172 4365.5C-599.2310028076172 3705.360107421875 -481.89097595214844 3020.919921875 -247.73397827148438 2344.93994140625C-169.3199920654297 2118.6298828125 -131.64698791503906 1904.3699951171875 -131.64698791503906 1680.1099853515625C-131.64698791503906 1636.56005859375 -133.06797790527344 1592.6300048828125 -135.88697814941406 1548.1600341796875C-173.67698669433594 951.6409912109375 -486.4419708251953 388.70703125 -990.6959686279297 9.791534423828125C-1002.8799896240234 0.6522979736328125 -1012.8199920654297 -7.0362701416015625 -1012.8199920654297 -7.326416015625C-1012.8199920654297 -7.616546630859375 -1002.8799896240234 -15.305068969726562 -990.6959686279297 -24.444366455078125C-486.4419708251953 -403.3599548339844 -173.67698669433594 -966.2939758300781 -135.88697814941406 -1562.8100280761719C-133.07098388671875 -1607.2299499511719 -131.6519775390625 -1651.1299743652344 -131.6519775390625 -1694.6499938964844C-131.6519775390625 -1919.0199890136719 -169.36598205566406 -2133.479949951172 -247.73397827148438 -2359.590057373047C-481.7419891357422 -3034.639862060547 -597.9429779052734 -3714.550018310547 -597.9429779052734 -4369.379852294922C-597.9429779052734 -5219.790008544922 -401.96299743652344 -6027.899871826172 -13.522384643554688 -6728.149871826172C-4.04119873046875 -6745.290008544922 -0.10528564453125 -6752.950164794922 -0.10528564453125 -6757.299774169922C-0.10528564453125 -6760.029754638672 -1.6650390625 -6761.459930419922 -4.38311767578125 -6763.109832763672C-6.35260009765625 -6764.299774169922 -7.989410400390625 -6765.009735107422 -9.557952880859375 -6765.009735107422C-13.939483642578125 -6765.009735107422 -17.788482666015625 -6759.459930419922 -26.86859130859375 -6743.169891357422C-399.83697509765625 -6075.779754638672 -642.6799621582031 -5336.379852294922 -727.7619934082031 -4609.589813232422C-729.9379577636719 -4590.660125732422 -732.2589416503906 -4571.359832763672 -732.8389587402344 -4566.790008544922C-739.6569519042969 -4513.839813232422 -750.1019592285156 -4392.709930419922 -755.6869812011719 -4302.769989013672C-762.3479919433594 -4195.189910888672 -765.6639709472656 -4087.459930419922 -765.6639709472656 -3979.830047607422C-765.6639709472656 -3407.709930419922 -671.9999694824219 -2838.189910888672 -489.34295654296875 -2306.639862060547C-470.1939697265625 -2251.009979248047 -456.7759704589844 -2210.830047607422 -450.3199768066406 -2190.229949951172C-376.073974609375 -1952.9100036621094 -340.1319580078125 -1714.9799499511719 -340.1319580078125 -1485.3899841308594C-340.1319580078125 -891.5769958496094 -580.5589904785156 -353.5249938964844 -1020.5799865722656 -25.967620849609375C-1033.3100280761719 -16.501907348632812 -1039.6700134277344 -11.914215087890625 -1039.6700134277344 -7.3264617919921875C-1039.6700134277344 -2.7386932373046875 -1033.3100280761719 1.84906005859375 -1020.5799865722656 11.314682006835938C-582.8629455566406 337.1429901123047 -340.178955078125 873.3950042724609 -340.178955078125 1470.270004272461C-340.178955078125 1634.489974975586 -358.5499572753906 1803.290023803711 -396.282958984375 1973.5699310302734C-419.49298095703125 2078.310043334961 -440.31097412109375 2149.679916381836 -488.61798095703125 2289.820053100586C-672.1379699707031 2822.560043334961 -767.2369689941406 3398.999984741211 -767.2369689941406 3972.639877319336C-767.2369689941406 4045.840072631836 -765.6889953613281 4118.999984741211 -762.5779724121094 4192.009750366211C-757.2099914550781 4317.129867553711 -743.9369812011719 4490.700180053711 -734.2899475097656 4561.930160522461C-733.6369934082031 4566.359848022461 -732.0409851074219 4580.069808959961 -730.6629943847656 4592.399887084961C-647.9019470214844 5321.220199584961 -402.3749694824219 6071.939926147461 -27.30377197265625 6742.950180053711C-15.843368530273438 6763.479965209961 -16.278564453125 6762.819808959961 -13.304763793945312 6764.200180053711Z" fill="black" /></g></svg>