<?xml version="1.0" encoding="utf-8" ?>
<svg baseProfile="tiny" height="100%" version="1.2" width="100%" xmlns="http://www.w3.org/2000/svg" xmlns:ev="http://www.w3.org/2001/xml-events" xmlns:xlink="http://www.w3.org/1999/xlink"><defs /><g transform="translate(0, 1000) scale(1, -1)"><path d="M-19.775894165039062 711.0040283203125C-19.049484252929688 711.1619873046875 -18.331787109375 711.2379760742188 -17.631790161132812 711.2379760742188C-13.143478393554688 711.2379760742188 -9.380386352539062 708.1229858398438 -8.712692260742188 703.4840087890625C-8.637664794921875 702.9459838867188 -8.595993041992188 702.4580078125 -8.595993041992188 701.989013671875C-8.595993041992188 700.22900390625 -9.181533813476562 698.7260131835938 -10.790786743164062 695.8049926757812C-33.51078796386719 654.89697265625 -48.215484619140625 608.7039794921875 -54.667388916015625 557.9409790039062C-55.06318664550781 554.7739868164062 -55.221588134765625 553.3690185546875 -56.032989501953125 544.760009765625C-57.34577941894531 531.0239868164062 -58.07958984375 512.5700073242188 -58.07958984375 496.2300109863281C-58.07958984375 489.1669921875 -57.94248962402344 482.4989929199219 -57.6558837890625 476.77801513671875C-54.09349060058594 406.6579895019531 -38.79498291015625 332.8970031738281 -11.582382202148438 254.8209991455078C-3.86077880859375 232.66900634765625 1.52587890625e-05 210.42999267578125 1.52587890625e-05 188.2050018310547C1.52587890625e-05 172.20700073242188 -2.00042724609375 156.2169952392578 -6.001312255859375 140.27099609375C-18.647781372070312 89.80410766601562 -50.55088806152344 44.85870361328125 -103.15498352050781 3.3569488525390625L-107.70698547363281 -0.2252197265625L-108.39997863769531 -0.7793731689453125L-107.70698547363281 -1.3137359619140625C-107.33097839355469 -1.630401611328125 -105.29298400878906 -3.23345947265625 -103.15498352050781 -4.91571044921875C-50.55088806152344 -46.41741943359375 -18.647781372070312 -91.36280822753906 -6.001312255859375 -141.83001708984375C-2.003021240234375 -157.7650146484375 -0.0060272216796875 -173.75201416015625 -0.0060272216796875 -189.74501037597656C-0.0060272216796875 -211.98802185058594 -3.8686981201171875 -234.2410125732422 -11.582382202148438 -256.38002014160156C-37.647186279296875 -331.0910186767578 -53.49967956542969 -405.6840057373047 -57.14128112792969 -470.71702575683594C-57.69598388671875 -480.6780242919922 -57.97297668457031 -490.51100158691406 -57.97297668457031 -500.2110137939453C-57.97297668457031 -573.5709991455078 -42.13188171386719 -639.3380279541016 -10.790786743164062 -695.7800445556641C-9.181533813476562 -698.7020416259766 -8.595993041992188 -700.2050323486328 -8.595993041992188 -701.9640045166016C-8.595993041992188 -702.4340362548828 -8.637664794921875 -702.9210357666016 -8.712692260742188 -703.4589996337891C-9.391616821289062 -708.1360015869141 -13.348480224609375 -711.2379913330078 -17.68109130859375 -711.2379913330078C-19.031890869140625 -711.2379913330078 -20.419082641601562 -710.9359893798828 -21.754989624023438 -710.2870025634766C-23.912185668945312 -709.2180328369141 -24.76318359375 -708.1500396728516 -27.969284057617188 -702.3510284423828C-92.02027893066406 -586.8499908447266 -123.27998352050781 -481.3730010986328 -123.27998352050781 -380.48402404785156C-123.27998352050781 -372.20301818847656 -123.06999206542969 -363.95301818847656 -122.64997863769531 -355.7310028076172C-120.333984375 -310.8050079345703 -112.79399108886719 -271.71800231933594 -97.71287536621094 -226.6940155029297C-88.76728820800781 -199.9960174560547 -85.00698852539062 -185.6470184326172 -81.38528442382812 -164.5900115966797C-78.88587951660156 -149.99700927734375 -77.64878845214844 -136.03701782226562 -77.64878845214844 -122.79301452636719C-77.64878845214844 -73.74461364746094 -94.61787414550781 -34.52992248535156 -127.28099060058594 -9.4874267578125C-131.29798889160156 -6.4000244140625 -132.1689910888672 -5.23236083984375 -132.6639862060547 -2.2043304443359375C-132.77297973632812 -1.5411376953125 -132.8309783935547 -0.9224700927734375 -132.8309783935547 -0.335601806640625C-132.8309783935547 2.685211181640625 -131.29098510742188 4.8628997802734375 -127.28099060058594 7.92864990234375C-94.61787414550781 32.97117614746094 -77.64878845214844 72.18577575683594 -77.64878845214844 121.2349853515625C-77.64878845214844 134.4779815673828 -78.88587951660156 148.43898010253906 -81.38528442382812 163.03099060058594C-84.94767761230469 183.75198364257812 -89.28187561035156 200.2579803466797 -97.51487731933594 224.54098510742188C-114.79399108886719 275.4609832763672 -123.47999572753906 327.09898376464844 -123.47999572753906 380.07997131347656C-123.47999572753906 481.17198181152344 -91.85758972167969 587.1559906005859 -27.969284057617188 702.3749847412109C-24.268386840820312 709.0649871826172 -23.120590209960938 710.2719573974609 -19.77587890625 711.0040130615234Z" fill="black" /></g></svg>