<?xml version="1.0" encoding="utf-8" ?>
<svg baseProfile="tiny" height="100%" version="1.2" width="100%" xmlns="http://www.w3.org/2000/svg" xmlns:ev="http://www.w3.org/2001/xml-events" xmlns:xlink="http://www.w3.org/1999/xlink"><defs /><g transform="translate(0, 1000) scale(1, -1)"><path d="M-19.516006469726562 606.3300170898438C-19.067718505859375 606.3989868164062 -18.622711181640625 606.4329833984375 -18.1837158203125 606.4329833984375C-13.364013671875 606.4329833984375 -9.262680053710938 602.416015625 -9.262680053710938 597.3400268554688C-9.262680053710938 595.0999755859375 -9.515228271484375 594.4099731445312 -12.04071044921875 589.8140258789062C-37.58491516113281 543.2520141601562 -50.35711669921875 489.531005859375 -50.35711669921875 428.5950012207031C-50.35711669921875 366.2309875488281 -36.97882080078125 296.30999755859375 -10.222320556640625 218.7740020751953C-3.409271240234375 199.01600646972656 -1.52587890625e-05 179.6020050048828 -1.52587890625e-05 160.41299438476562C-1.52587890625e-05 139.2949981689453 -4.1290130615234375 118.44999694824219 -12.394210815429688 97.72100830078125C-26.2169189453125 63.03810119628906 -54.58612060546875 28.43939208984375 -92.75410461425781 -0.300201416015625L-93.25920104980469 -0.68743896484375L-92.75410461425781 -1.0578460693359375C-71.89390563964844 -16.78302001953125 -50.8148193359375 -37.47491455078125 -37.14372253417969 -55.7086181640625C-12.535919189453125 -88.49301147460938 -0.038604736328125 -124.64201354980469 -0.038604736328125 -161.77101135253906C-0.038604736328125 -180.9110107421875 -3.359405517578125 -200.31101989746094 -10.05401611328125 -219.64401245117188C-34.4835205078125 -290.15501403808594 -48.087310791015625 -356.49000549316406 -50.0908203125 -414.81101989746094C-50.17201232910156 -417.28501892089844 -50.20921325683594 -421.8830108642578 -50.20921325683594 -426.9510040283203C-50.20921325683594 -435.5380096435547 -50.10252380371094 -445.47300720214844 -49.922515869140625 -448.70301818847656C-46.85821533203125 -503.35301208496094 -34.50041198730469 -549.1820220947266 -11.636611938476562 -590.5830230712891C-9.548904418945312 -594.3709869384766 -9.262680053710938 -595.1620025634766 -9.262680053710938 -597.3679962158203C-9.262680053710938 -602.8419952392578 -13.678115844726562 -606.4329986572266 -18.301712036132812 -606.4329986572266C-20.559921264648438 -606.4329986572266 -22.867919921875 -605.5760040283203 -24.735321044921875 -603.6640167236328C-25.829620361328125 -602.5529937744141 -25.829620361328125 -602.5360260009766 -31.55401611328125 -592.0640411376953C-54.60301208496094 -549.8720245361328 -75.26121520996094 -503.1850128173828 -86.13740539550781 -468.6540069580078L-87.83790588378906 -463.3500213623047C-103.33001708984375 -415.0220184326172 -111.08100891113281 -367.53700256347656 -111.08100891113281 -321.3240203857422C-111.08100891113281 -287.3310089111328 -106.88700866699219 -254.02601623535156 -98.49531555175781 -221.58001708984375C-95.39741516113281 -209.61001586914062 -93.61280822753906 -203.7510223388672 -89.03330993652344 -190.28201293945312C-78.19071960449219 -158.52801513671875 -72.7357177734375 -131.7080078125 -71.96121215820312 -106.52101135253906C-71.90650939941406 -104.73802185058594 -71.87931823730469 -102.96900939941406 -71.87931823730469 -101.21501159667969C-71.87931823730469 -61.40771484375 -85.93101501464844 -29.286209106445312 -112.20001220703125 -9.274002075195312C-116.42601013183594 -6.0582427978515625 -117.48701477050781 -4.3409423828125 -117.48701477050781 -0.6874542236328125C-117.48701477050781 2.966033935546875 -116.42601013183594 4.683349609375 -112.20001220703125 7.899078369140625C-85.67842102050781 28.101089477539062 -71.89581298828125 60.0972900390625 -71.89581298828125 100.36598205566406C-71.89581298828125 111.37698364257812 -72.92631530761719 123.0059814453125 -75.00862121582031 135.18199157714844C-78.29171752929688 154.39198303222656 -81.86100769042969 167.74298095703125 -90.73381042480469 193.94097900390625C-104.30001831054688 234.01197814941406 -111.1920166015625 277.06398010253906 -111.1920166015625 320.9029998779297C-111.1920166015625 338.16197204589844 -110.12400817871094 355.54298400878906 -107.97401428222656 372.91099548339844C-99.15191650390625 444.29698181152344 -73.44282531738281 516.5079803466797 -26.991317749023438 600.3530120849609C-24.886810302734375 604.1580047607422 -22.799118041992188 605.8249969482422 -19.516021728515625 606.3300018310547Z" fill="black" /></g></svg>