<?xml version="1.0" encoding="utf-8" ?>
<svg baseProfile="tiny" height="100%" version="1.2" width="100%" xmlns="http://www.w3.org/2000/svg" xmlns:ev="http://www.w3.org/2001/xml-events" xmlns:xlink="http://www.w3.org/1999/xlink"><defs /><g transform="translate(0, 1000) scale(1, -1)"><path d="M-14.479293823242188 1124.780029296875C-13.920089721679688 1124.8699951171875 -13.366485595703125 1124.9200439453125 -12.822677612304688 1124.9200439453125C-8.3372802734375 1124.9200439453125 -4.523284912109375 1121.8299560546875 -3.80023193359375 1117.3699951171875C-3.7035675048828125 1116.77001953125 -3.6416168212890625 1116.25 -3.6416168212890625 1115.739990234375C-3.6416168212890625 1113.719970703125 -4.592376708984375 1111.75 -8.13336181640625 1105.260009765625C-60.88288879394531 1008.6900024414062 -87.34327697753906 897.947998046875 -87.34327697753906 774.552001953125C-87.34327697753906 708.9539794921875 -79.86518859863281 639.7789916992188 -64.88337707519531 567.2570190429688C-53.00218200683594 509.7250061035156 -39.4716796875 461.1940002441406 -16.687789916992188 394.57501220703125C-5.51959228515625 361.9070129394531 1.52587890625e-05 328.14801025390625 1.52587890625e-05 294.3630065917969C1.52587890625e-05 235.54299926757812 -16.729385375976562 176.64100646972656 -49.507781982421875 123.26499938964844C-76.54087829589844 79.23500061035156 -117.02098083496094 35.652099609375 -163.65098571777344 0.427947998046875C-164.8669891357422 -0.494598388671875 -165.47499084472656 -0.8859710693359375 -165.47499084472656 -1.27734375C-165.47499084472656 -1.668731689453125 -164.8669891357422 -2.0601043701171875 -163.65098571777344 -2.9826507568359375C-117.02098083496094 -38.20680236816406 -76.54087829589844 -81.78970336914062 -49.507781982421875 -125.82000732421875C-16.729385375976562 -179.17799377441406 1.52587890625e-05 -238.11900329589844 1.52587890625e-05 -296.9469909667969C1.52587890625e-05 -330.7380065917969 -5.51959228515625 -364.49200439453125 -16.687789916992188 -397.1300048828125C-35.78147888183594 -452.9289855957031 -47.662689208984375 -493.7449951171875 -58.5933837890625 -541.1019897460938C-77.62507629394531 -623.635009765625 -87.12698364257812 -701.948974609375 -87.12698364257812 -775.72998046875C-87.12698364257812 -898.6519775390625 -60.75257873535156 -1008.989990234375 -8.13336181640625 -1105.300048828125C-4.9091796875 -1111.199951171875 -3.5709686279296875 -1114.0799560546875 -3.5709686279296875 -1116.4100341796875C-3.5709686279296875 -1117.760009765625 -4.01812744140625 -1118.9200439453125 -4.806640625 -1120.3699951171875C-6.432769775390625 -1123.3399658203125 -9.690536499023438 -1124.9200439453125 -12.908187866210938 -1124.9200439453125C-15.38818359375 -1124.9200439453125 -17.844284057617188 -1123.97998046875 -19.511276245117188 -1122.02001953125C-22.838088989257812 -1118.1099853515625 -50.234588623046875 -1065.77001953125 -62.618988037109375 -1039.68994140625C-132.04898071289062 -893.4320068359375 -166.67398071289062 -753.6290283203125 -166.67398071289062 -618.4550170898438C-166.67398071289062 -532.489990234375 -152.66998291015625 -448.39801025390625 -124.708984375 -365.7080078125C-112.26799011230469 -328.8340148925781 -106.48098754882812 -306.5530090332031 -101.25398254394531 -275.1029968261719C-97.54878234863281 -252.86199951171875 -95.72758483886719 -231.25799560546875 -95.72758483886719 -210.4929962158203C-95.72758483886719 -125.49899291992188 -126.23997497558594 -54.561004638671875 -182.96798706054688 -11.537094116210938C-189.4539794921875 -6.58892822265625 -190.34898376464844 -5.35888671875 -190.34898376464844 -1.27734375C-190.34898376464844 2.8041839599609375 -189.4539794921875 4.0342254638671875 -182.96798706054688 8.982376098632812C-126.23997497558594 52.00630187988281 -95.72758483886719 122.94400024414062 -95.72758483886719 207.93899536132812C-95.72758483886719 228.70399475097656 -97.54878234863281 250.30799865722656 -101.25398254394531 272.54901123046875C-106.48098754882812 303.9989929199219 -112.26799011230469 326.27899169921875 -124.708984375 363.15301513671875C-130.35598754882812 379.8420104980469 -133.37498474121094 389.375 -136.8409881591797 401.4519958496094C-156.8529815673828 471.3949890136719 -166.84298706054688 543.0189819335938 -166.84298706054688 616.1179809570312C-166.84298706054688 775.4429931640625 -119.38499450683594 941.7750244140625 -24.79498291015625 1112.97998046875C-19.287689208984375 1122.989990234375 -18.281280517578125 1124.1300048828125 -14.479278564453125 1124.780029296875Z" fill="black" /></g></svg>