<?xml version="1.0" encoding="utf-8" ?>
<svg baseProfile="tiny" height="100%" version="1.2" width="100%" xmlns="http://www.w3.org/2000/svg" xmlns:ev="http://www.w3.org/2001/xml-events" xmlns:xlink="http://www.w3.org/1999/xlink"><defs /><g transform="translate(0, 1000) scale(1, -1)"><path d="M-11.479293823242188 4510.31982421875C-10.670578002929688 4510.5 -9.879501342773438 4510.580078125 -9.11529541015625 4510.580078125C-4.06829833984375 4510.580078125 -0.1954803466796875 4506.7998046875 -0.1954803466796875 4501.35986328125C-0.1954803466796875 4498.72998046875 -0.852203369140625 4497.18017578125 -6.4642486572265625 4487.2099609375C-260.7589874267578 4032.14990234375 -388.8939971923828 3503.179931640625 -388.8939971923828 2941.300048828125C-388.8939971923828 2497.300048828125 -308.8879852294922 2032.75 -147.8999786376953 1567.8699951171875C-101.62998962402344 1434.18994140625 -80.07768249511719 1322.969970703125 -73.03279113769531 1181.0C-72.55508422851562 1171.3499755859375 -72.3162841796875 1150.4000244140625 -72.3162841796875 1129.4200439453125C-72.3162841796875 1108.43994140625 -72.55508422851562 1087.43994140625 -73.03279113769531 1077.7099609375C-74.22679138183594 1053.469970703125 -75.48057556152344 1033.2900390625 -76.79399108886719 1018.3099975585938C-108.91398620605469 640.9249877929688 -304.8579864501953 288.0220031738281 -623.6710052490234 33.091705322265625C-638.1779632568359 21.509307861328125 -664.0889739990234 1.568634033203125 -669.9999847412109 -2.55084228515625C-671.8809661865234 -3.8643035888671875 -672.8209686279297 -4.431488037109375 -672.8209686279297 -4.9986572265625C-672.8209686279297 -5.5658416748046875 -671.8809661865234 -6.1330108642578125 -669.9999847412109 -7.44647216796875C-664.2089691162109 -11.44659423828125 -638.2979583740234 -31.38720703125 -623.7899627685547 -42.9696044921875C-393.4569854736328 -226.91400146484375 -225.81198120117188 -463.33599853515625 -138.64598083496094 -727.10302734375C-95.3809814453125 -857.9500122070312 -71.74398803710938 -1004.3900146484375 -71.74398803710938 -1137.949951171875C-71.74398803710938 -1155.8800048828125 -72.17039489746094 -1173.5899658203125 -73.03279113769531 -1190.989990234375C-80.07768249511719 -1332.9100341796875 -101.57098388671875 -1443.949951171875 -147.83998107910156 -1577.6300048828125C-308.3009796142578 -2041.4200439453125 -388.08497619628906 -2503.72998046875 -388.08497619628906 -2945.610107421875C-388.08497619628906 -3502.52001953125 -261.35597229003906 -4026.989990234375 -9.688201904296875 -4481.08984375C-2.4957427978515625 -4494.1201171875 1.52587890625e-05 -4498.93994140625 1.52587890625e-05 -4502.14013671875C1.52587890625e-05 -4503.58984375 -0.51129150390625 -4504.7099609375 -1.3298187255859375 -4506.10009765625C-3.0859222412109375 -4509.1201171875 -5.6909942626953125 -4510.580078125 -8.473388671875 -4510.580078125C-12.123382568359375 -4510.580078125 -16.078582763671875 -4508.06982421875 -18.822677612304688 -4503.2998046875C-43.2410888671875 -4460.91015625 -93.27198791503906 -4366.10009765625 -121.92898559570312 -4307.77001953125C-391.4269714355469 -3759.8798828125 -528.9219665527344 -3190.85009765625 -528.9219665527344 -2623.260009765625L-528.9239807128906 -2617.929931640625C-528.9239807128906 -2541.06005859375 -527.6299743652344 -2496.699951171875 -523.3099670410156 -2421.4599609375C-506.17596435546875 -2122.409912109375 -446.6519775390625 -1816.800048828125 -351.0079650878906 -1536.6700439453125C-334.5309753417969 -1488.31005859375 -325.3359680175781 -1460.8499755859375 -321.3359680175781 -1448.010009765625C-278.23095703125 -1308.550048828125 -255.18597412109375 -1178.449951171875 -247.96197509765625 -1033.6800537109375C-247.45396423339844 -1023.3499755859375 -247.19996643066406 -996.510986328125 -247.19996643066406 -969.7420043945312C-247.19996643066406 -942.9730224609375 -247.45396423339844 -916.27099609375 -247.96197509765625 -906.2109985351562C-252.9769744873047 -807.9400024414062 -265.1559753417969 -722.9829711914062 -286.5889587402344 -636.7130126953125C-350.5309753417969 -379.2149963378906 -493.51898193359375 -159.3300018310547 -690.0599670410156 -16.043701171875C-695.9109802246094 -11.77490234375 -698.8359680175781 -8.386795043945312 -698.8359680175781 -4.9986572265625C-698.8359680175781 -1.61053466796875 -695.9109802246094 1.777587890625 -690.0599670410156 6.0463409423828125C-493.51898193359375 149.33299255371094 -350.5309753417969 369.2179870605469 -286.5889587402344 626.7150268554688C-265.1559753417969 713.0460205078125 -252.9769744873047 797.8829956054688 -247.96197509765625 896.2130126953125C-247.45396423339844 906.2730102539062 -247.19996643066406 932.9749755859375 -247.19996643066406 959.7440185546875C-247.19996643066406 986.5139770507812 -247.45396423339844 1013.3499755859375 -247.96197509765625 1023.6799926757812C-255.8419647216797 1181.949951171875 -283.4249572753906 1327.030029296875 -333.9329833984375 1476.219970703125L-354.5909729003906 1537.4200439453125C-471.8439636230469 1885.5699462890625 -529.8929748535156 2249.35009765625 -529.8929748535156 2617.580078125C-529.8929748535156 3229.0 -369.8499755859375 3852.68994140625 -55.062255859375 4437.47998046875C-19.658554077148438 4503.27001953125 -16.07635498046875 4509.2998046875 -11.479248046875 4510.31982421875Z" fill="black" /></g></svg>