<?xml version="1.0" encoding="utf-8" ?>
<svg baseProfile="tiny" height="100%" version="1.2" width="100%" xmlns="http://www.w3.org/2000/svg" xmlns:ev="http://www.w3.org/2001/xml-events" xmlns:xlink="http://www.w3.org/1999/xlink"><defs /><g transform="translate(0, 1000) scale(1, -1)"><path d="M-14.87640380859375 10840.900390625C-13.7218017578125 10841.7998046875 -11.89239501953125 10842.2998046875 -9.950286865234375 10842.2998046875C-7.1750335693359375 10842.2998046875 -4.16937255859375 10841.400390625 -2.57269287109375 10839.900390625C-0.92645263671875 10838.2001953125 -0.034332275390625 10836.599609375 -0.034332275390625 10834.5C-0.034332275390625 10831.0 -2.427398681640625 10825.900390625 -7.8198699951171875 10816.2998046875C-289.0859832763672 10316.900390625 -523.2180023193359 9747.6396484375 -683.6179656982422 9172.7998046875C-884.7739715576172 8452.099609375 -984.9290008544922 7697.06982421875 -984.9290008544922 6925.9501953125C-984.9290008544922 5877.3798828125 -799.7369842529297 4799.0498046875 -431.4829864501953 3736.830078125C-307.16798400878906 3378.31005859375 -245.3109893798828 3022.320068359375 -245.3109893798828 2662.169921875C-245.3109893798828 2493.93994140625 -258.80699157714844 2324.81005859375 -285.73899841308594 2154.090087890625C-419.08897399902344 1308.5699462890625 -900.7419891357422 525.0239868164062 -1607.030014038086 4.46905517578125C-1618.8799896240234 -4.3063812255859375 -1628.6500091552734 -11.815277099609375 -1628.6500091552734 -12.177169799804688C-1628.6500091552734 -12.538986206054688 -1618.8799896240234 -20.047882080078125 -1607.030014038086 -28.823287963867188C-1134.780014038086 -376.85499572753906 -754.0930023193359 -851.7230072021484 -519.3279876708984 -1385.489974975586C-337.35398864746094 -1799.229965209961 -245.74998474121094 -2241.179916381836 -245.74998474121094 -2683.909896850586C-245.74998474121094 -3029.379867553711 -301.5249786376953 -3375.320053100586 -413.66099548339844 -3708.709945678711L-443.8769989013672 -3797.370101928711C-798.3439788818359 -4820.529769897461 -981.6060028076172 -5892.220199584961 -981.6060028076172 -6940.970199584961C-981.6060028076172 -6953.240219116211 -981.5809783935547 -6965.520004272461 -981.5309906005859 -6977.790023803711C-981.0779876708984 -7093.680160522461 -980.6259613037109 -7123.169906616211 -978.1829681396484 -7203.959945678711C-938.9199676513672 -8509.330062866211 -608.6199798583984 -9741.959945678711 -12.433822631835938 -10807.900375366211C-3.47198486328125 -10823.900375366211 -1.52587890625e-05 -10830.599594116211 -1.52587890625e-05 -10834.700180053711C-1.52587890625e-05 -10836.799789428711 -0.9545440673828125 -10838.200180053711 -2.5727081298828125 -10839.799789428711C-4.2444915771484375 -10841.400375366211 -6.985198974609375 -10842.299789428711 -9.618392944335938 -10842.299789428711C-11.830108642578125 -10842.299789428711 -13.965911865234375 -10841.700180053711 -15.328720092773438 -10840.400375366211C-19.12841796875 -10836.900375366211 -86.07501220703125 -10714.900375366211 -134.29501342773438 -10623.700180053711C-654.2160339355469 -9640.360336303711 -993.4730529785156 -8565.690414428711 -1124.1999816894531 -7488.029769897461C-1131.3500061035156 -7429.680160522461 -1137.4100646972656 -7374.399887084961 -1144.7400207519531 -7303.470199584961L-1150.5300598144531 -7246.479965209961C-1166.5400695800781 -7092.589828491211 -1180.3800354003906 -6856.740219116211 -1186.4399719238281 -6631.749984741211C-1187.2600402832031 -6602.979965209961 -1187.6600646972656 -6522.299789428711 -1187.6600646972656 -6441.600082397461C-1187.6600646972656 -6360.910140991211 -1187.2600402832031 -6280.189926147461 -1186.4399719238281 -6251.330062866211C-1161.7400207519531 -5340.580062866211 -1013.2900085449219 -4516.419906616211 -722.1580505371094 -3672.979965209961C-591.2500305175781 -3293.739974975586 -523.5800476074219 -2955.290023803711 -506.843017578125 -2595.499984741211C-504.4010314941406 -2542.850082397461 -504.0390319824219 -2525.479965209961 -503.49603271484375 -2452.110092163086C-503.44403076171875 -2444.300033569336 -503.4190368652344 -2436.489974975586 -503.4190368652344 -2428.689926147461C-503.4190368652344 -1437.540023803711 -919.3150329589844 -556.1069793701172 -1635.4399719238281 -31.537399291992188C-1654.3100891113281 -17.811203002929688 -1654.8000793457031 -17.507904052734375 -1654.8000793457031 -12.9617919921875V-12.17718505859375V-11.392486572265625C-1654.8000793457031 -6.84637451171875 -1654.3100891113281 -6.5431671142578125 -1635.4399719238281 7.183074951171875C-1018.8000183105469 458.8009948730469 -616.6720275878906 1187.2499694824219 -524.0320129394531 2020.1899108886719C-510.27703857421875 2144.129852294922 -502.7530212402344 2287.669891357422 -502.7530212402344 2415.399871826172C-502.7530212402344 2454.850067138672 -503.4710388183594 2492.779998779297 -504.9430236816406 2528.169891357422C-510.9140319824219 2670.300018310547 -521.6800231933594 2788.449920654297 -540.7690124511719 2920.810028076172C-576.9560241699219 3171.489959716797 -630.0610046386719 3382.199920654297 -730.0290222167969 3671.689910888672C-892.2380065917969 4141.220184326172 -1015.5500183105469 4640.249969482422 -1091.6300354003906 5135.470184326172C-1149.6200256347656 5512.819793701172 -1178.8399963378906 5848.269989013672 -1189.1600646972656 6254.569793701172C-1189.9200744628906 6283.879852294922 -1190.3100891113281 6356.999969482422 -1190.3100891113281 6430.279754638672C-1190.3100891113281 6503.560028076172 -1189.9200744628906 6576.990203857422 -1189.1600646972656 6606.939910888672C-1183.2800598144531 6841.979949951172 -1167.3500061035156 7112.209930419922 -1150.5300598144531 7260.120086669922C-1149.8000793457031 7266.640106201172 -1147.5400695800781 7288.350067138672 -1145.5500793457031 7308.519989013672C-1031.1100158691406 8447.610321044922 -682.0800476074219 9589.769500732422 -129.77102661132812 10632.299774169922C-83.08953857421875 10720.400360107422 -18.042831420898438 10838.599578857422 -14.876434326171875 10840.900360107422Z" fill="black" /></g></svg>