<?xml version="1.0" encoding="utf-8" ?>
<svg baseProfile="tiny" height="100%" version="1.2" width="100%" xmlns="http://www.w3.org/2000/svg" xmlns:ev="http://www.w3.org/2001/xml-events" xmlns:xlink="http://www.w3.org/1999/xlink"><defs /><g transform="translate(0, 1000) scale(1, -1)"><path d="M-19.473403930664062 828.1589965820312C-18.585617065429688 828.4959716796875 -17.67181396484375 828.6530151367188 -16.764617919921875 828.6530151367188C-12.265518188476562 828.6530151367188 -7.92657470703125 824.791015625 -7.715118408203125 819.8889770507812C-7.7005157470703125 819.552978515625 -7.689971923828125 819.2540283203125 -7.689971923828125 818.9739990234375C-7.689971923828125 817.0390014648438 -8.193618774414062 816.031005859375 -11.3419189453125 810.2789916992188C-48.1533203125 742.8690185546875 -66.56201171875 665.0640258789062 -66.56201171875 577.9080200195312C-66.56201171875 492.9960021972656 -49.08891296386719 399.2080078125 -14.137115478515625 297.510009765625C-4.6233367919921875 269.8169860839844 -0.0234832763671875 244.66799926757812 -0.0234832763671875 218.9320068359375C-0.0234832763671875 207.48599243164062 -0.933319091796875 195.9239959716797 -2.725341796875 183.97000122070312C-12.843521118164062 116.47000122070312 -52.36891174316406 55.73759460449219 -120.97801208496094 2.1668548583984375C-123.12701416015625 0.4805145263671875 -124.90501403808594 -0.9748382568359375 -124.90501403808594 -1.0672454833984375C-124.90501403808594 -1.1596527099609375 -123.12701416015625 -2.6150054931640625 -120.97801208496094 -4.301361083984375C-52.36891174316406 -57.872100830078125 -12.843521118164062 -118.60400390625 -2.725341796875 -186.10499572753906C-0.919677734375 -198.12600708007812 -1.52587890625e-05 -209.6959991455078 -1.52587890625e-05 -221.14300537109375C-1.52587890625e-05 -246.8939971923828 -4.653961181640625 -272.0199890136719 -14.345016479492188 -300.2460021972656C-48.95600891113281 -401.1510009765625 -66.41691589355469 -495.0010070800781 -66.41691589355469 -579.9600219726562C-66.41691589355469 -593.5540161132812 -65.96981811523438 -606.9210205078125 -65.07441711425781 -620.052978515625C-60.36181640625 -688.9400024414062 -41.83500671386719 -754.8920288085938 -11.827011108398438 -809.594970703125C-7.8285675048828125 -816.9140014648438 -7.784393310546875 -816.9429931640625 -7.784393310546875 -819.5770263671875L-7.7844085693359375 -819.7589721679688C-7.7844085693359375 -825.2109985351562 -11.226409912109375 -828.6530151367188 -16.678207397460938 -828.6530151367188C-21.621810913085938 -828.6530151367188 -22.799911499023438 -827.5670166015625 -27.697311401367188 -818.719970703125C-64.01171875 -753.0670166015625 -89.28401184082031 -693.9520263671875 -108.989013671875 -628.5999755859375C-127.15701293945312 -568.3330078125 -136.23802185058594 -507.9360046386719 -136.23802185058594 -448.572998046875C-136.23802185058594 -385.6549987792969 -126.03602600097656 -323.89898681640625 -105.63902282714844 -264.6929931640625C-90.85850524902344 -221.78199768066406 -83.48442077636719 -182.23800659179688 -83.48442077636719 -146.87100219726562C-83.48442077636719 -104.5780029296875 -94.02970886230469 -68.25959777832031 -115.06401062011719 -39.299102783203125C-122.80302429199219 -28.626495361328125 -132.6210174560547 -18.531402587890625 -142.80902099609375 -10.76959228515625C-148.65301513671875 -6.311126708984375 -149.3920135498047 -5.2253875732421875 -149.3920135498047 -1.0672454833984375C-149.3920135498047 3.0908966064453125 -148.65301513671875 4.1766357421875 -142.80902099609375 8.635086059570312C-130.86502075195312 17.736801147460938 -120.30801391601562 29.102401733398438 -111.46101379394531 42.36219787597656C-92.83860778808594 70.31379699707031 -83.50871276855469 104.98100280761719 -83.50871276855469 144.86900329589844C-83.50871276855469 180.24200439453125 -90.84602355957031 219.718994140625 -105.54701232910156 262.2590026855469C-126.15301513671875 321.8680114746094 -136.46701049804688 383.04901123046875 -136.46701049804688 445.9410095214844C-136.46701049804688 559.9459838867188 -102.57701110839844 679.573974609375 -34.67372131347656 805.6589965820312C-23.539108276367188 826.333984375 -23.308120727539062 826.7030029296875 -19.473419189453125 828.1589965820312Z" fill="black" /></g></svg>