<?xml version="1.0" encoding="utf-8" ?>
<svg baseProfile="tiny" height="100%" version="1.2" width="100%" xmlns="http://www.w3.org/2000/svg" xmlns:ev="http://www.w3.org/2001/xml-events" xmlns:xlink="http://www.w3.org/1999/xlink"><defs /><g transform="translate(0, 1000) scale(1, -1)"><path d="M-19.5989990234375 527.343994140625C-19.156997680664062 527.4030151367188 -18.720596313476562 527.4320068359375 -18.29150390625 527.4320068359375C-13.302200317382812 527.4320068359375 -9.313156127929688 523.5540161132812 -9.313156127929688 518.3880004882812C-9.313156127929688 516.239990234375 -9.59075927734375 515.364013671875 -11.022598266601562 512.7919921875C-33.235107421875 473.0799865722656 -44.365509033203125 426.739990234375 -44.365509033203125 374.28900146484375C-44.365509033203125 348.3559875488281 -41.644500732421875 320.9289855957031 -36.19659423828125 292.07000732421875C-29.724105834960938 257.8080139160156 -21.542205810546875 227.72500610351562 -7.7790374755859375 187.60400390625C-2.59130859375 172.468994140625 0.0 156.4600067138672 0.0 140.44500732421875C0.0 123.66900634765625 -2.843353271484375 106.88800048828125 -8.524185180664062 91.10159301757812C-20.38800048828125 58.154693603515625 -42.47920227050781 29.970901489257812 -78.74270629882812 1.5094757080078125C-80.11599731445312 0.4282989501953125 -81.25570678710938 -0.521392822265625 -81.25570678710938 -0.579833984375C-81.25570678710938 -0.638275146484375 -80.11599731445312 -1.5879669189453125 -78.72799682617188 -2.6691436767578125C-42.47920227050781 -31.130599975585938 -20.38800048828125 -59.31439208984375 -8.524185180664062 -92.26119995117188C-2.843353271484375 -108.04800415039062 0.0 -124.83999633789062 0.0 -141.62100219726562C0.0 -157.64100646972656 -2.59130859375 -173.6510009765625 -7.7790374755859375 -188.76400756835938C-28.277694702148438 -248.41900634765625 -39.367095947265625 -297.3940124511719 -43.107391357421875 -344.87799072265625C-43.90960693359375 -355.010009765625 -44.309295654296875 -364.9739990234375 -44.309295654296875 -374.7560119628906C-44.309295654296875 -426.6159973144531 -33.07460021972656 -473.3500061035156 -11.022598266601562 -512.7830200195312C-9.59075927734375 -515.35498046875 -9.313156127929688 -516.2310180664062 -9.313156127929688 -518.3790283203125C-9.313156127929688 -523.7940063476562 -13.59320068359375 -527.4320068359375 -18.253097534179688 -527.4320068359375C-20.206405639648438 -527.4320068359375 -22.22650146484375 -526.7930297851562 -24.0260009765625 -525.3770141601562C-25.165603637695312 -524.4719848632812 -25.764694213867188 -523.594970703125 -28.3507080078125 -518.9340209960938C-77.25680541992188 -430.8340148925781 -101.27700805664062 -352.281005859375 -101.27700805664062 -277.6090087890625C-101.27700805664062 -239.49099731445312 -95.01800537109375 -202.38400268554688 -82.614501953125 -165.5330047607422C-75.52828979492188 -144.50900268554688 -72.24090576171875 -132.0019989013672 -69.43569946289062 -115.41900634765625C-67.69830322265625 -105.17401123046875 -66.83399963378906 -95.42359924316406 -66.83399963378906 -86.20709228515625C-66.83399963378906 -57.911407470703125 -74.98019409179688 -34.6470947265625 -91.0155029296875 -17.542694091796875C-94.06919860839844 -14.2991943359375 -96.90359497070312 -11.771499633789062 -101.52099609375 -8.221176147460938C-104.31100463867188 -6.0661163330078125 -105.70599365234375 -3.322967529296875 -105.70599365234375 -0.579833984375C-105.70599365234375 2.1633148193359375 -104.31100463867188 4.90643310546875 -101.52099609375 7.061492919921875C-96.90359497070312 10.611907958984375 -94.06919860839844 13.139495849609375 -91.0155029296875 16.383102416992188C-74.89540100097656 33.57569885253906 -66.85420227050781 55.97349548339844 -66.85420227050781 84.17950439453125C-66.85420227050781 106.69400024414062 -71.97769165039062 132.90899658203125 -82.20539855957031 163.1320037841797C-91.55609130859375 190.75999450683594 -96.96209716796875 215.23300170898438 -99.57730102539062 241.66400146484375C-100.72799682617188 253.29600524902344 -101.3070068359375 264.97601318359375 -101.3070068359375 276.73199462890625C-101.3070068359375 352.1260070800781 -77.48919677734375 430.6419982910156 -27.941604614257812 519.68798828125C-24.741897583007812 525.4299926757812 -23.16400146484375 526.8770141601562 -19.5989990234375 527.343994140625Z" fill="black" /></g></svg>