<?xml version="1.0" encoding="utf-8" ?>
<svg baseProfile="tiny" height="100%" version="1.2" width="100%" xmlns="http://www.w3.org/2000/svg" xmlns:ev="http://www.w3.org/2001/xml-events" xmlns:xlink="http://www.w3.org/1999/xlink"><defs /><g transform="translate(0, 1000) scale(1, -1)"><path d="M-19.33209228515625 811.9849853515625C-18.505096435546875 812.2570190429688 -17.660903930664062 812.385009765625 -16.824005126953125 812.385009765625C-12.299697875976562 812.385009765625 -7.985321044921875 808.656982421875 -7.71783447265625 803.8800048828125C-7.7006378173828125 803.56201171875 -7.6903228759765625 803.2689819335938 -7.6903228759765625 802.9910278320312C-7.6903228759765625 801.0770263671875 -8.180267333984375 799.8880004882812 -10.276092529296875 796.0919799804688C-46.994598388671875 729.260986328125 -65.35389709472656 653.0960083007812 -65.35389709472656 567.4310302734375C-65.35389709472656 484.2860107421875 -48.05870056152344 392.1919860839844 -13.468399047851562 290.99700927734375C-5.1821746826171875 266.7489929199219 -1.5145263671875 248.61500549316406 -0.314605712890625 225.95199584960938C-0.104736328125 221.92999267578125 0.0 217.92300415039062 0.0 213.92999267578125C0.0 141.69200134277344 -34.289703369140625 74.427490234375 -100.51899719238281 17.1448974609375C-106.49600219726562 11.960403442382812 -119.60400390625 1.297027587890625 -122.23001098632812 -0.5594482421875L-122.77401733398438 -0.9443206787109375L-122.23001098632812 -1.329193115234375C-119.60400390625 -3.1856689453125 -106.49600219726562 -13.8489990234375 -100.51899719238281 -19.033599853515625C-34.289703369140625 -76.31610107421875 0.0 -143.58099365234375 0.0 -215.81900024414062C0.0 -219.81100463867188 -0.104736328125 -223.81900024414062 -0.314605712890625 -227.84100341796875C-1.5145263671875 -250.63900756835938 -5.1142578125 -268.4119873046875 -13.604202270507812 -293.3380126953125C-48.003509521484375 -394.3420104980469 -65.20320129394531 -485.9800109863281 -65.20320129394531 -568.6279907226562C-65.20320129394531 -654.0050048828125 -46.848907470703125 -729.7890014648438 -10.140304565429688 -796.39599609375C-8.167007446289062 -799.968017578125 -7.6900482177734375 -801.166015625 -7.6900482177734375 -803.0640258789062C-7.6900482177734375 -803.343017578125 -7.7003936767578125 -803.6380004882812 -7.71783447265625 -803.9580078125C-8.00616455078125 -809.0709838867188 -12.393295288085938 -812.385009765625 -16.877593994140625 -812.385009765625C-19.08380126953125 -812.385009765625 -21.313507080078125 -811.5830078125 -23.090301513671875 -809.7990112304688C-24.177001953125 -808.7119750976562 -27.505096435546875 -802.8939819335938 -34.908294677734375 -789.1510009765625C-62.82330322265625 -737.260986328125 -86.00650024414062 -683.6719970703125 -101.40200805664062 -635.426025390625L-105.38601684570312 -622.9749755859375C-123.64903259277344 -566.0009765625 -134.4080352783203 -497.2650146484375 -134.4080352783203 -438.38800048828125C-134.4080352783203 -436.24700927734375 -134.39402770996094 -434.1199951171875 -134.3650360107422 -432.0069885253906C-133.5280303955078 -369.8160095214844 -124.26803588867188 -317.20098876953125 -103.37103271484375 -255.98199462890625C-91.73443603515625 -221.86399841308594 -85.463134765625 -191.88900756835938 -83.01803588867188 -158.63099670410156C-82.74993896484375 -154.94700622558594 -82.62222290039062 -150.6540069580078 -82.62222290039062 -146.07400512695312C-82.62222290039062 -134.41099548339844 -83.45033264160156 -120.8909912109375 -84.89712524414062 -110.86099243164062C-91.00993347167969 -68.59219360351562 -111.13702392578125 -32.57220458984375 -141.36102294921875 -9.909713745117188C-146.13803100585938 -6.332611083984375 -147.02102661132812 -4.9062957763671875 -147.02102661132812 -0.9443206787109375C-147.02102661132812 3.0402984619140625 -146.13803100585938 4.4439697265625 -141.36102294921875 8.021072387695312C-111.20503234863281 30.593002319335938 -91.00993347167969 66.70359802246094 -84.89712524414062 108.97200012207031C-83.45033264160156 119.00199890136719 -82.62222290039062 132.52200317382812 -82.62222290039062 144.18499755859375C-82.62222290039062 148.76499938964844 -82.74993896484375 153.0590057373047 -83.01803588867188 156.74200439453125C-85.463134765625 190.0 -91.73443603515625 220.02099609375 -103.37103271484375 254.093994140625C-110.00503540039062 273.5190124511719 -113.06103515625 283.5480041503906 -117.22702026367188 299.6000061035156C-128.79302978515625 344.2040100097656 -134.57603454589844 390.0409851074219 -134.57603454589844 436.8169860839844C-134.57603454589844 478.7650146484375 -129.92503356933594 521.468017578125 -120.62303161621094 564.7130126953125C-116.79702758789062 582.5079956054688 -109.39303588867188 610.875 -105.70303344726562 621.8779907226562L-102.78302001953125 631.0469970703125C-85.68952941894531 685.4739990234375 -60.35552978515625 743.2509765625 -27.890029907226562 801.9329833984375C-23.407333374023438 810.0159912109375 -22.682830810546875 810.85302734375 -19.332122802734375 811.9849853515625Z" fill="black" /></g></svg>