<?xml version="1.0" encoding="utf-8" ?>
<svg baseProfile="tiny" height="100%" version="1.2" width="100%" xmlns="http://www.w3.org/2000/svg" xmlns:ev="http://www.w3.org/2001/xml-events" xmlns:xlink="http://www.w3.org/1999/xlink"><defs /><g transform="translate(0, 1000) scale(1, -1)"><path d="M-14.373199462890625 6718.6298828125C-12.819900512695312 6719.669921875 -11.061996459960938 6720.169921875 -9.320022583007812 6720.169921875C-6.213653564453125 6720.169921875 -3.157989501953125 6718.58984375 -1.4037322998046875 6715.68017578125C-0.51959228515625 6714.27001953125 0.0 6713.10986328125 0.0 6711.64013671875C0.0 6708.68994140625 -2.1103515625 6704.509765625 -7.6002655029296875 6694.64013671875C-396.65098571777344 5995.6201171875 -594.9359588623047 5198.66015625 -594.9359588623047 4337.2998046875C-594.9359588623047 4262.41015625 -593.4369964599609 4187.02978515625 -590.4340057373047 4111.18994140625C-567.6660003662109 3537.360107421875 -453.0299835205078 2934.7900390625 -258.8479766845703 2367.8798828125L-236.15098571777344 2301.590087890625C-178.0769805908203 2131.179931640625 -142.9869842529297 1951.050048828125 -133.61997985839844 1775.239990234375C-131.17098999023438 1728.4100341796875 -130.8099822998047 1714.5799560546875 -130.8099822998047 1665.719970703125C-130.8099822998047 1616.6600341796875 -131.17098999023438 1601.1600341796875 -133.69198608398438 1555.47998046875C-166.0439910888672 955.7890014648438 -479.1849822998047 387.72601318359375 -987.0839691162109 7.4315185546875C-997.6039886474609 -0.4222259521484375 -1006.1799774169922 -7.0510711669921875 -1006.1799774169922 -7.3392791748046875C-1006.1799774169922 -7.6274871826171875 -997.6039886474609 -14.256378173828125 -987.0839691162109 -22.110092163085938C-479.1849822998047 -402.4039764404297 -166.0439910888672 -970.4680023193359 -133.69198608398438 -1570.1600189208984C-131.17098999023438 -1615.8399505615234 -130.8099822998047 -1631.3299407958984 -130.8099822998047 -1680.4000091552734C-130.8099822998047 -1729.249984741211 -131.17098999023438 -1743.0899505615234 -133.61997985839844 -1789.9200286865234C-142.91497802734375 -1965.300033569336 -178.0769805908203 -2145.860092163086 -235.79098510742188 -2315.189926147461L-257.76698303222656 -2379.310043334961C-479.73097229003906 -3026.759994506836 -593.3909759521484 -3698.949935913086 -593.3909759521484 -4346.729965209961C-593.3909759521484 -4584.640121459961 -578.0599822998047 -4819.259750366211 -547.1309661865234 -5048.149887084961C-466.6479949951172 -5643.879867553711 -286.87599182128906 -6192.410140991211 -7.6002349853515625 -6694.189926147461C-2.5109100341796875 -6703.299789428711 -0.07861328125 -6708.680160522461 -0.07861328125 -6712.279769897461C-0.07861328125 -6715.259750366211 -1.7394256591796875 -6717.020004272461 -4.934295654296875 -6718.689926147461C-6.7285919189453125 -6719.609848022461 -8.233795166015625 -6720.169906616211 -9.659423828125 -6720.169906616211C-14.015869140625 -6720.169906616211 -17.629165649414062 -6714.979965209961 -26.478073120117188 -6699.229965209961C-396.39695739746094 -6037.859848022461 -637.5569610595703 -5304.580062866211 -723.0109405517578 -4581.240219116211C-725.1729278564453 -4562.799789428711 -727.2629547119141 -4545.430160522461 -727.6949615478516 -4542.700180053711C-728.1269683837891 -4539.890121459961 -729.8559722900391 -4523.890121459961 -731.6579742431641 -4507.029769897461C-746.5009307861328 -4365.299789428711 -754.7149810791016 -4239.930160522461 -759.4699249267578 -4084.439926147461C-760.5389556884766 -4048.709945678711 -761.0569610595703 -4009.280014038086 -761.0569610595703 -3967.780014038086C-761.0569610595703 -3849.860092163086 -756.8789825439453 -3715.179916381836 -749.3109283447266 -3600.969955444336C-719.6969757080078 -3157.120101928711 -629.1989288330078 -2705.999984741211 -486.53395080566406 -2291.050033569336L-464.41395568847656 -2226.199935913086C-379.44895935058594 -1974.790023803711 -338.4099578857422 -1721.0799407958984 -338.4099578857422 -1476.479965209961C-338.4099578857422 -882.2339935302734 -580.6179351806641 -341.74998474121094 -1023.6199493408203 -18.651596069335938C-1029.6999053955078 -14.220306396484375 -1032.7499542236328 -10.779800415039062 -1032.7499542236328 -7.33929443359375C-1032.7499542236328 -3.8987884521484375 -1029.6999053955078 -0.4582672119140625 -1023.6199493408203 3.9729766845703125C-644.4019317626953 280.58302307128906 -402.2329559326172 725.7970123291016 -349.41795349121094 1243.500015258789C-341.98594665527344 1316.459976196289 -338.26695251464844 1389.6300201416016 -338.26695251464844 1463.030044555664C-338.26695251464844 1719.780044555664 -383.7659454345703 1979.310073852539 -474.93394470214844 2242.510025024414C-667.9349517822266 2799.510025024414 -762.1279449462891 3357.760025024414 -762.1279449462891 3944.840103149414C-762.1279449462891 3953.689956665039 -762.1069488525391 3962.550064086914 -762.0639801025391 3971.409927368164C-761.7039337158203 4050.379898071289 -761.4149322509766 4066.879898071289 -759.3979644775391 4124.879898071289C-754.8589630126953 4255.729995727539 -743.4739532470703 4413.810073852539 -730.6489410400391 4524.560073852539C-721.0659332275391 4606.770034790039 -713.7169342041016 4663.979995727539 -705.3579254150391 4720.609878540039C-608.1589508056641 5384.080093383789 -386.0929412841797 6041.479995727539 -53.20954895019531 6651.049819946289C-23.23565673828125 6706.029800415039 -17.039154052734375 6716.830093383789 -14.373153686523438 6718.629898071289Z" fill="black" /></g></svg>