<?xml version="1.0" encoding="utf-8" ?>
<svg baseProfile="tiny" height="100%" version="1.2" width="100%" xmlns="http://www.w3.org/2000/svg" xmlns:ev="http://www.w3.org/2001/xml-events" xmlns:xlink="http://www.w3.org/1999/xlink"><defs /><g transform="translate(0, 1000) scale(1, -1)"><path d="M-11.567001342773438 269.5660095214844C-11.457412719726562 269.5820007324219 -11.27471923828125 269.5889892578125 -11.052215576171875 269.5889892578125C-10.336013793945312 269.5889892578125 -9.207733154296875 269.5169982910156 -8.776260375976562 269.427001953125C-4.432464599609375 268.5150146484375 -1.54864501953125 264.73199462890625 -1.54864501953125 260.5719909667969C-1.54864501953125 259.60400390625 -1.70458984375 258.6159973144531 -2.0343475341796875 257.6400146484375C-2.2252960205078125 257.0669860839844 -2.57781982421875 256.3689880371094 -3.9952392578125 253.7469940185547C-14.9215087890625 233.52099609375 -20.3856201171875 209.947998046875 -20.3856201171875 183.5070037841797C-20.3856201171875 157.18099975585938 -14.969314575195312 128.01199340820312 -4.134765625 96.4722900390625C-2.0196533203125 90.30319213867188 -1.09429931640625 86.631103515625 -0.2203369140625 80.91000366210938L-1.52587890625e-05 79.4486083984375V69.38711547851562V59.332916259765625L-0.264404296875 57.5924072265625C-0.5581817626953125 55.62409973144531 -0.8813323974609375 53.81010437011719 -1.145721435546875 52.62770080566406C-5.63299560546875 32.695709228515625 -16.311325073242188 16.075897216796875 -34.980224609375 -0.0444793701171875L-35.25921630859375 -0.286834716796875L-34.980224609375 -0.5218505859375C-23.244232177734375 -10.664093017578125 -14.90863037109375 -20.718292236328125 -8.974578857421875 -31.903396606445312C-4.5607452392578125 -40.23899841308594 -1.6377716064453125 -49.03729248046875 -0.2644195556640625 -58.166107177734375L-3.0517578125e-05 -59.9066162109375V-69.9608154296875V-80.022216796875L-0.2203521728515625 -81.48371887207031C-1.1016387939453125 -87.27091979980469 -2.0049591064453125 -90.84022521972656 -4.208221435546875 -97.26631164550781C-14.957412719726562 -128.59701538085938 -20.330612182617188 -157.5640106201172 -20.330612182617188 -183.72401428222656C-20.330612182617188 -210.59400939941406 -14.661819458007812 -234.50401306152344 -3.3269195556640625 -254.97401428222656C-1.872772216796875 -257.60401916503906 -1.579010009765625 -258.5290069580078 -1.579010009765625 -260.56300354003906C-1.579010009765625 -265.9030303955078 -5.8548736572265625 -269.58900451660156 -10.55511474609375 -269.58900451660156C-12.274307250976562 -269.58900451660156 -14.050216674804688 -269.0960235595703 -15.694412231445312 -268.01002502441406C-17.537811279296875 -266.7840118408203 -18.52191162109375 -265.23402404785156 -23.795013427734375 -255.16500854492188C-44.27381896972656 -216.05201721191406 -54.56681823730469 -178.00901794433594 -54.56681823730469 -141.9350128173828C-54.56681823730469 -121.55302429199219 -51.28071594238281 -101.79801940917969 -44.689117431640625 -82.83500671386719C-41.30351257324219 -73.10411071777344 -39.33522033691406 -64.82722473144531 -38.37321472167969 -56.32270812988281C-38.01191711425781 -53.10700988769531 -37.832611083984375 -49.99371337890625 -37.832611083984375 -46.99101257324219C-37.832611083984375 -29.79071044921875 -43.715118408203125 -16.219223022460938 -54.96360778808594 -7.8219451904296875C-57.673614501953125 -5.7949676513671875 -58.93681335449219 -3.4007720947265625 -58.93681335449219 -0.2868499755859375C-58.93681335449219 2.8270721435546875 -57.673614501953125 5.22125244140625 -54.96360778808594 7.24822998046875C-45.8275146484375 14.07098388671875 -40.01091003417969 24.705276489257812 -38.37321472167969 37.586883544921875C-38.00541687011719 40.46058654785156 -37.82121276855469 43.41798400878906 -37.82121276855469 46.46568298339844C-37.82121276855469 57.17308044433594 -40.09521484375 68.99568176269531 -44.67442321777344 82.22459411621094C-50.09440612792969 97.86769104003906 -53.42131042480469 114.86198425292969 -54.31001281738281 131.46697998046875C-54.55232238769531 136.07199096679688 -54.59642028808594 137.59197998046875 -54.59642028808594 142.15298461914062C-54.59642028808594 146.7139892578125 -54.55232238769531 148.24098205566406 -54.31001281738281 152.87498474121094C-52.46661376953125 187.49598693847656 -40.82611083984375 224.50997924804688 -19.807220458984375 262.5969696044922C-18.375106811523438 265.1969757080078 -17.985809326171875 265.82798767089844 -17.427719116210938 266.47499084472656C-15.929519653320312 268.1999969482422 -14.027313232421875 269.19898986816406 -11.5670166015625 269.5659942626953Z" fill="black" /></g></svg>