<?xml version="1.0" encoding="utf-8" ?>
<svg baseProfile="tiny" height="100%" version="1.2" width="100%" xmlns="http://www.w3.org/2000/svg" xmlns:ev="http://www.w3.org/2001/xml-events" xmlns:xlink="http://www.w3.org/1999/xlink"><defs /><g transform="translate(0, 1000) scale(1, -1)"><path d="M-11.45599365234375 3527.06005859375C-10.64459228515625 3527.22998046875 -9.849990844726562 3527.31005859375 -9.08154296875 3527.31005859375C-4.7316131591796875 3527.31005859375 -1.2199249267578125 3524.64990234375 -0.25079345703125 3520.31005859375C-0.1039886474609375 3519.659912109375 -0.01513671875 3519.06005859375 -0.01513671875 3518.429931640625C-0.01513671875 3515.860107421875 -1.48394775390625 3512.830078125 -6.4979248046875 3503.75C-172.14599609375 3206.27001953125 -270.11700439453125 2860.840087890625 -292.6759948730469 2494.889892578125C-296.23199462890625 2437.1298828125 -298.00299072265625 2378.85009765625 -298.00299072265625 2320.159912109375C-298.00299072265625 1973.77001953125 -236.3209991455078 1612.949951171875 -115.87200927734375 1258.010009765625C-92.51998901367188 1189.239990234375 -91.08209228515625 1184.8299560546875 -84.43829345703125 1160.780029296875C-65.54820251464844 1092.510009765625 -53.69850158691406 1022.7000122070312 -49.484100341796875 954.6749877929688C-47.847991943359375 927.7529907226562 -47.550506591796875 917.8359985351562 -47.550506591796875 889.22900390625C-47.550506591796875 860.6209716796875 -47.847991943359375 850.7050170898438 -49.484100341796875 823.781982421875C-68.91970825195312 509.93798828125 -241.7570037841797 206.05999755859375 -516.6309661865234 2.2347412109375C-521.0439910888672 -1.037567138671875 -524.6630096435547 -3.8140716552734375 -524.6630096435547 -3.9628143310546875C-524.6630096435547 -4.1115570068359375 -521.0439910888672 -6.8880615234375 -516.6309661865234 -10.160400390625C-391.58897399902344 -102.87600708007812 -280.03297424316406 -224.843994140625 -202.14198303222656 -354.0010070800781C-99.51078796386719 -524.1110229492188 -47.55049133300781 -706.7160034179688 -47.55049133300781 -897.1539916992188C-47.55049133300781 -925.7620239257812 -47.84797668457031 -935.677978515625 -49.48408508300781 -962.5999755859375C-54.83879089355469 -1049.0699462890625 -72.29109191894531 -1137.219970703125 -100.45298767089844 -1220.4200439453125L-136.15098571777344 -1327.260009765625C-243.46998596191406 -1664.969970703125 -297.0349884033203 -1996.25 -297.0349884033203 -2322.949951171875C-297.0349884033203 -2328.449951171875 -297.0199737548828 -2333.949951171875 -296.98997497558594 -2339.449951171875C-296.6919708251953 -2388.780029296875 -296.44398498535156 -2400.8798828125 -294.90699768066406 -2439.60009765625C-279.14097595214844 -2828.31005859375 -180.02899169921875 -3193.169921875 -5.3079681396484375 -3505.97998046875C-1.2842864990234375 -3513.159912109375 1.52587890625e-05 -3515.889892578125 1.52587890625e-05 -3518.419921875C1.52587890625e-05 -3519.10009765625 -0.0930328369140625 -3519.77001953125 -0.2507781982421875 -3520.5C-1.1682586669921875 -3524.780029296875 -5.134185791015625 -3527.31005859375 -9.146957397460938 -3527.31005859375C-11.42279052734375 -3527.31005859375 -13.713577270507812 -3526.489990234375 -15.47198486328125 -3524.719970703125C-20.479583740234375 -3519.56005859375 -71.84489440917969 -3422.97998046875 -101.09698486328125 -3363.780029296875C-316.22999572753906 -2927.949951171875 -424.6809844970703 -2478.8701171875 -424.6809844970703 -2038.0799560546875C-424.6809844970703 -1744.699951171875 -376.6389923095703 -1454.989990234375 -280.03297424316406 -1175.300048828125C-260.64698791503906 -1119.219970703125 -247.9049835205078 -1075.050048828125 -236.4019775390625 -1024.6300048828125C-214.84799194335938 -929.8369750976562 -204.34397888183594 -836.4509887695312 -204.34397888183594 -746.2949829101562C-204.34397888183594 -444.2919921875 -322.2109832763672 -178.5419921875 -537.4050140380859 -17.795791625976562C-548.8090057373047 -9.267898559570312 -549.6019744873047 -8.375457763671875 -549.6019744873047 -3.962799072265625C-549.6019744873047 0.449859619140625 -548.8090057373047 1.3423004150390625 -537.4050140380859 9.870147705078125C-357.0809783935547 144.58001708984375 -240.7159881591797 358.2220001220703 -211.9099884033203 607.6120147705078C-206.81698608398438 651.6640167236328 -204.2639923095703 695.8319854736328 -204.2639923095703 740.2160186767578C-204.2639923095703 879.4600372314453 -229.38998413085938 1020.8200225830078 -280.03297424316406 1167.3700103759766C-305.9139862060547 1242.240005493164 -324.4569854736328 1303.719985961914 -343.69398498535156 1378.5899810791016C-398.4249725341797 1591.6100006103516 -425.53697204589844 1810.280044555664 -425.53697204589844 2031.240005493164C-425.53697204589844 2523.260025024414 -291.08998107910156 3026.570083618164 -27.767898559570312 3503.800064086914C-16.513198852539062 3524.229995727539 -15.075302124023438 3526.260025024414 -11.45599365234375 3527.060073852539Z" fill="black" /></g></svg>