<?xml version="1.0" encoding="utf-8" ?>
<svg baseProfile="tiny" height="100%" version="1.2" width="100%" xmlns="http://www.w3.org/2000/svg" xmlns:ev="http://www.w3.org/2001/xml-events" xmlns:xlink="http://www.w3.org/1999/xlink"><defs /><g transform="translate(0, 1000) scale(1, -1)"><path d="M-13.036895751953125 9429.6396484375C-12.15789794921875 9430.01953125 -11.085906982421875 9430.1904296875 -9.950286865234375 9430.1904296875C-7.2439117431640625 9430.1904296875 -4.1765594482421875 9429.1904296875 -2.5006256103515625 9427.509765625C-0.938720703125 9425.919921875 -0.0069580078125 9424.5498046875 -0.0069580078125 9422.4501953125C-0.0069580078125 9418.3701171875 -3.505462646484375 9411.5595703125 -12.697006225585938 9395.1396484375C-363.87901306152344 8768.91015625 -612.4170074462891 8058.72998046875 -743.2710113525391 7307.85009765625C-814.8740386962891 6897.0400390625 -850.3860015869141 6473.52001953125 -850.3860015869141 6043.6298828125C-850.3860015869141 5129.2998046875 -689.7340240478516 4186.14990234375 -373.9910125732422 3275.159912109375C-321.3090057373047 3123.14990234375 -291.99400329589844 3020.159912109375 -265.48402404785156 2894.070068359375C-225.33502197265625 2702.85009765625 -205.5690155029297 2510.27001953125 -205.5690155029297 2318.85009765625C-205.5690155029297 1682.239990234375 -424.20701599121094 1058.5400390625 -838.7780303955078 540.8150024414062C-999.9669952392578 339.5199890136719 -1196.3299713134766 150.80099487304688 -1400.010025024414 1.3387603759765625C-1408.500015258789 -4.94903564453125 -1415.469985961914 -10.302200317382812 -1415.469985961914 -10.641998291015625C-1415.469985961914 -10.981903076171875 -1408.500015258789 -16.335098266601562 -1400.010025024414 -22.622802734375L-1310.1100006103516 -91.78860473632812C-682.3480377197266 -593.4530029296875 -287.40602111816406 -1314.510009765625 -216.9660186767578 -2087.320068359375C-209.2670135498047 -2171.9599609375 -205.42401123046875 -2256.5 -205.42401123046875 -2340.830078125C-205.42401123046875 -2653.010009765625 -258.0960235595703 -2962.3701171875 -362.85902404785156 -3264.14990234375C-677.7589874267578 -4171.2099609375 -836.9940338134766 -5060.080078125 -847.9550323486328 -5972.75C-848.3109893798828 -6002.43994140625 -848.4890289306641 -6032.10009765625 -848.4890289306641 -6061.759765625C-848.4890289306641 -7141.1298828125 -612.5590362548828 -8195.990234375 -169.21202087402344 -9095.66015625L-148.8190155029297 -9137.1298828125C-123.75300598144531 -9189.0400390625 -60.28041076660156 -9309.7001953125 -19.494720458984375 -9382.8603515625C-4.8758544921875 -9409.2001953125 -1.52587890625e-05 -9418.1103515625 -1.52587890625e-05 -9422.7099609375C-1.52587890625e-05 -9424.83984375 -1.0530242919921875 -9426.0498046875 -2.6705780029296875 -9427.6396484375C-4.3274993896484375 -9429.33984375 -6.8570404052734375 -9430.1904296875 -9.340682983398438 -9430.1904296875C-11.696914672851562 -9430.1904296875 -14.011810302734375 -9429.4296875 -15.501113891601562 -9427.900390625C-21.364013671875 -9421.9501953125 -107.18400573730469 -9263.3896484375 -160.03501892089844 -9161.08984375C-613.8620147705078 -8281.8203125 -906.8390045166016 -7305.58984375 -1002.4300079345703 -6354.10009765625C-1003.8800201416016 -6340.080078125 -1005.4000396728516 -6325.89013671875 -1005.9099884033203 -6322.66015625C-1010.3300323486328 -6291.64013671875 -1023.6699981689453 -6123.740234375 -1029.280044555664 -6029.08984375C-1038.000015258789 -5880.259765625 -1042.3700103759766 -5732.14990234375 -1042.3700103759766 -5584.72021484375C-1042.3700103759766 -4764.16015625 -907.2210235595703 -3964.8798828125 -636.4640045166016 -3183.010009765625C-536.6240386962891 -2894.699951171875 -480.6280059814453 -2634.610107421875 -457.51600646972656 -2352.0C-450.59901428222656 -2267.419921875 -447.1850128173828 -2183.429931640625 -447.1850128173828 -2100.239990234375C-447.1850128173828 -1254.550048828125 -800.0340118408203 -491.57598876953125 -1412.500015258789 -37.237701416015625C-1440.1400299072266 -16.7008056640625 -1441.4000396728516 -16.01690673828125 -1441.4000396728516 -11.983901977539062L-1441.3900299072266 -10.641998291015625L-1441.4000396728516 -9.3001708984375C-1441.4000396728516 -5.2671661376953125 -1440.1400299072266 -4.583282470703125 -1412.500015258789 15.953598022460938C-1275.270034790039 117.74800109863281 -1142.209976196289 244.0989990234375 -1029.199966430664 379.7959899902344C-646.8230133056641 839.1849975585938 -447.1840057373047 1441.2900390625 -447.1840057373047 2079.139892578125C-447.1840057373047 2404.0 -498.96800231933594 2738.1298828125 -604.7700347900391 3067.409912109375C-612.7570343017578 3092.219970703125 -627.7970123291016 3136.739990234375 -648.0200347900391 3195.2900390625C-910.0930328369141 3954.719970703125 -1044.439956665039 4765.3701171875 -1044.439956665039 5579.990234375C-1044.439956665039 5708.52978515625 -1041.0999908447266 5837.18017578125 -1034.3800201416016 5965.740234375C-1028.4300689697266 6079.259765625 -1016.2000274658203 6242.66015625 -1008.8000030517578 6306.47021484375C-1008.1200103759766 6312.58984375 -1005.4900054931641 6337.56982421875 -1002.9400177001953 6362.1298828125C-893.2440338134766 7410.490234375 -561.0949859619141 8450.6103515625 -33.68470764160156 9396.83984375C-17.115509033203125 9426.490234375 -15.925918579101562 9428.3603515625 -13.036911010742188 9429.6396484375Z" fill="black" /></g></svg>