<?xml version="1.0" encoding="utf-8" ?>
<svg baseProfile="tiny" height="100%" version="1.2" width="100%" xmlns="http://www.w3.org/2000/svg" xmlns:ev="http://www.w3.org/2001/xml-events" xmlns:xlink="http://www.w3.org/1999/xlink"><defs /><g transform="translate(0, 1000) scale(1, -1)"><path d="M-13.923904418945312 4332.990234375C-12.459014892578125 4333.85009765625 -10.897613525390625 4334.240234375 -9.371109008789062 4334.240234375C-4.5614013671875 4334.240234375 -0.0990753173828125 4330.35986328125 -0.0990753173828125 4324.9599609375C-0.0990753173828125 4322.77978515625 -1.1890106201171875 4320.43017578125 -8.1875 4307.8701171875C-228.2960205078125 3910.85009765625 -350.54002380371094 3458.760009765625 -369.8140106201172 2970.409912109375C-371.82200622558594 2919.1298828125 -372.10902404785156 2901.75 -372.10902404785156 2830.43994140625C-372.10902404785156 2762.06005859375 -371.82200622558594 2745.080078125 -370.1010284423828 2697.639892578125C-355.47300720214844 2301.31005859375 -278.66200256347656 1906.5799560546875 -135.8240203857422 1493.8499755859375C-90.00621032714844 1361.52001953125 -67.53730773925781 1224.6500244140625 -67.53730773925781 1088.02001953125C-67.53730773925781 799.572021484375 -167.69100952148438 512.2310180664062 -359.71800231933594 271.1180114746094C-439.7420196533203 170.61500549316406 -540.9900054931641 72.63589477539062 -638.6820220947266 1.2168731689453125C-642.9850006103516 -1.93817138671875 -646.5410308837891 -4.634307861328125 -646.5410308837891 -4.8064117431640625C-646.5410308837891 -4.9785003662109375 -642.9850006103516 -7.6746368408203125 -638.6820220947266 -10.829696655273438C-540.9900054931641 -82.24870300292969 -439.6840057373047 -180.22799682617188 -359.71800231933594 -280.7300109863281C-167.64601135253906 -521.8519897460938 -67.55830383300781 -808.9140014648438 -67.55830383300781 -1097.3800048828125C-67.55830383300781 -1234.0 -90.00741577148438 -1370.93994140625 -135.76602172851562 -1503.4599609375C-197.20401000976562 -1681.2900390625 -239.3670196533203 -1828.4300537109375 -275.7360076904297 -1991.6300048828125C-339.87501525878906 -2279.5 -371.7060089111328 -2562.260009765625 -371.7060089111328 -2835.800048828125C-371.7060089111328 -3371.090087890625 -249.8190155029297 -3871.110107421875 -9.621597290039062 -4305.14990234375C-2.4247283935546875 -4318.1298828125 -1.52587890625e-05 -4322.66015625 -1.52587890625e-05 -4325.68017578125C-1.52587890625e-05 -4327.06005859375 -0.5100860595703125 -4328.1201171875 -1.303741455078125 -4329.52978515625C-3.09503173828125 -4332.7001953125 -5.765289306640625 -4334.240234375 -8.606719970703125 -4334.240234375C-12.134918212890625 -4334.240234375 -15.927017211914062 -4331.8701171875 -18.627822875976562 -4327.2900390625C-41.80320739746094 -4287.93994140625 -97.90580749511719 -4180.77978515625 -130.43202209472656 -4113.5498046875C-381.6330108642578 -3595.030029296875 -510.3000030517578 -3054.5 -510.3000030517578 -2517.739990234375V-2517.3798828125C-510.3000030517578 -2447.449951171875 -509.6690216064453 -2418.419921875 -506.62901306152344 -2356.179931640625C-492.9760284423828 -2077.7900390625 -445.01902770996094 -1808.5799560546875 -361.6680145263672 -1542.469970703125C-356.04701232910156 -1524.5699462890625 -341.0170135498047 -1479.5400390625 -323.75001525878906 -1428.5999755859375C-267.18101501464844 -1262.2099609375 -239.26101684570312 -1093.18994140625 -239.26101684570312 -930.2940063476562C-239.26101684570312 -690.301025390625 -299.86500549316406 -463.5950012207031 -418.7460174560547 -278.14898681640625C-486.55101013183594 -172.36900329589844 -564.6820220947266 -89.0177001953125 -667.0780181884766 -13.181594848632812C-670.2620391845703 -10.829696655273438 -671.8540191650391 -7.81805419921875 -671.8540191650391 -4.8064117431640625C-671.8540191650391 -1.7947540283203125 -670.2620391845703 1.2168731689453125 -667.0780181884766 3.5688323974609375C-564.6820220947266 79.4049072265625 -486.55101013183594 162.75599670410156 -418.7460174560547 268.5360107421875C-299.88002014160156 453.9670104980469 -239.2670135498047 680.8250122070312 -239.2670135498047 920.8790283203125C-239.2670135498047 1083.4000244140625 -267.0500030517578 1251.97998046875 -323.34901428222656 1417.8399658203125L-339.69801330566406 1466.02001953125C-454.2000274658203 1803.4100341796875 -511.5380096435547 2155.6298828125 -511.5380096435547 2513.159912109375C-511.5380096435547 2826.25 -467.56700134277344 3143.419921875 -379.50901794433594 3458.300048828125C-297.87901306152344 3750.0 -181.3710174560547 4033.260009765625 -31.477523803710938 4304.43017578125C-17.13641357421875 4330.35986328125 -16.390609741210938 4331.6201171875 -13.923919677734375 4332.990234375Z" fill="black" /></g></svg>