<?xml version="1.0" encoding="utf-8" ?>
<svg baseProfile="tiny" height="100%" version="1.2" width="100%" xmlns="http://www.w3.org/2000/svg" xmlns:ev="http://www.w3.org/2001/xml-events" xmlns:xlink="http://www.w3.org/1999/xlink"><defs /><g transform="translate(0, 1000) scale(1, -1)"><path d="M-12.829803466796875 1301.3900146484375C-11.802902221679688 1301.77001953125 -10.768707275390625 1301.949951171875 -9.761734008789062 1301.949951171875C-5.05145263671875 1301.949951171875 -0.9356536865234375 1298.02001953125 -0.9356536865234375 1292.760009765625V1289.989990234375L-3.092926025390625 1286.050048828125C-67.55770874023438 1169.0899658203125 -99.57220458984375 1038.3499755859375 -99.57220458984375 891.3499755859375C-99.57220458984375 848.8930053710938 -96.90139770507812 805.0800170898438 -91.57040405273438 759.8510131835938C-80.28839111328125 663.968994140625 -57.40380859375 566.5709838867188 -21.604705810546875 462.1470031738281C-9.856277465820312 427.89300537109375 -3.7051239013671875 399.7900085449219 -1.2271728515625 369.3550109863281C-0.407562255859375 359.2090148925781 0.0 349.10699462890625 0.0 339.0559997558594C0.0 212.19000244140625 -64.93949890136719 93.60769653320312 -185.82000732421875 1.3063507080078125C-187.802001953125 -0.180419921875 -189.406005859375 -1.492279052734375 -189.406005859375 -1.60888671875C-189.406005859375 -1.725494384765625 -187.802001953125 -3.037353515625 -185.8489990234375 -4.5241241455078125C-64.94149780273438 -96.82559204101562 -1.52587890625e-05 -215.4080047607422 -1.52587890625e-05 -342.27398681640625C-1.52587890625e-05 -352.32501220703125 -0.4075775146484375 -362.427001953125 -1.2271728515625 -372.572998046875C-3.7051239013671875 -403.00799560546875 -9.856277465820312 -431.1109924316406 -21.604705810546875 -465.364990234375C-73.51370239257812 -616.7880249023438 -99.44338989257812 -759.2030029296875 -99.44338989257812 -890.6680297851562C-99.44338989257812 -1037.030029296875 -67.30389404296875 -1169.8199462890625 -3.092926025390625 -1286.3499755859375L-0.9356536865234375 -1290.2900390625V-1293.06005859375C-0.935638427734375 -1298.68994140625 -4.2006988525390625 -1301.949951171875 -9.827117919921875 -1301.949951171875C-15.045379638671875 -1301.949951171875 -15.832489013671875 -1301.18994140625 -21.983688354492188 -1290.0899658203125C-129.52899169921875 -1096.06005859375 -183.64598083496094 -904.4849853515625 -183.64598083496094 -720.5440063476562C-183.64598083496094 -619.3809814453125 -167.2769775390625 -520.5260009765625 -134.42398071289062 -424.8429870605469C-121.74298095703125 -387.9360046386719 -114.19297790527344 -358.8999938964844 -108.6829833984375 -325.9289855957031C-104.22398376464844 -299.2650146484375 -102.02897644042969 -273.4179992675781 -102.02897644042969 -248.60899353027344C-102.02897644042969 -147.53399658203125 -138.4619903564453 -63.675994873046875 -206.69297790527344 -11.899703979492188C-213.22299194335938 -6.9729156494140625 -214.1849822998047 -5.6319122314453125 -214.1849822998047 -1.60888671875C-214.1849822998047 2.4141387939453125 -213.22299194335938 3.755157470703125 -206.69297790527344 8.681900024414062C-138.4619903564453 60.45829772949219 -102.02897644042969 144.3159942626953 -102.02897644042969 245.39100646972656C-102.02897644042969 270.20098876953125 -104.22398376464844 296.0469970703125 -108.6829833984375 322.71099853515625C-114.19297790527344 355.6830139160156 -121.77198791503906 384.7179870605469 -134.4539794921875 421.65399169921875C-155.35598754882812 482.5539855957031 -169.14498901367188 541.9080200195312 -176.9869842529297 604.614990234375C-179.52297973632812 624.9340209960938 -180.60198974609375 636.6240234375 -182.2629852294922 661.4619750976562C-182.35098266601562 662.7440185546875 -182.6129913330078 667.6129760742188 -182.84597778320312 672.2479858398438C-183.61097717285156 687.5390014648438 -183.9919891357422 702.89599609375 -183.9919891357422 718.31201171875C-183.9919891357422 897.5549926757812 -132.42098999023438 1084.949951171875 -31.16668701171875 1272.9300537109375C-16.881988525390625 1299.4300537109375 -16.532180786132812 1300.02001953125 -12.829788208007812 1301.3900146484375Z" fill="black" /></g></svg>