<?xml version="1.0" encoding="utf-8" ?>
<svg baseProfile="tiny" height="100%" version="1.2" width="100%" xmlns="http://www.w3.org/2000/svg" xmlns:ev="http://www.w3.org/2001/xml-events" xmlns:xlink="http://www.w3.org/1999/xlink"><defs /><g transform="translate(0, 1000) scale(1, -1)"><path d="M-19.749099731445312 503.3479919433594C-19.246810913085938 503.427001953125 -18.750320434570312 503.4649963378906 -18.262420654296875 503.4649963378906C-13.335708618164062 503.4649963378906 -9.297805786132812 499.56298828125 -9.297805786132812 494.4150085449219C-9.297805786132812 492.2130126953125 -9.534698486328125 491.531005859375 -11.652816772460938 487.6570129394531C-32.27471923828125 450.0409851074219 -42.57731628417969 406.7929992675781 -42.57731628417969 357.7900085449219C-42.57731628417969 333.3800048828125 -40.02101135253906 307.5419921875 -34.91041564941406 280.260986328125C-28.681411743164062 246.9980010986328 -21.212310791015625 219.50399780273438 -7.2632904052734375 178.5489959716797C-2.4308624267578125 164.3769989013672 -0.0353240966796875 149.36900329589844 -0.0353240966796875 134.31199645996094C-0.0353240966796875 114.45899963378906 -4.199554443359375 94.52040100097656 -12.433212280273438 76.29389953613281C-24.5985107421875 49.357391357421875 -43.814910888671875 26.378494262695312 -74.68110656738281 1.8946075439453125C-76.29751586914062 0.612579345703125 -77.63531494140625 -0.502227783203125 -77.63531494140625 -0.5579681396484375C-77.63531494140625 -0.61370849609375 -76.29751586914062 -1.728515625 -74.68110656738281 -3.0105438232421875C-50.02992248535156 -22.575393676757812 -33.363616943359375 -40.57940673828125 -21.100814819335938 -60.896697998046875C-7.1239166259765625 -84.05319213867188 -1.52587890625e-05 -109.48199462890625 -1.52587890625e-05 -135.17300415039062C-1.52587890625e-05 -148.28700256347656 -1.8563385009765625 -161.47000122070312 -5.605010986328125 -174.4530029296875C-6.2878265380859375 -176.83599853515625 -7.1100006103515625 -179.34500122070312 -9.130584716796875 -185.156005859375C-26.814117431640625 -236.3249969482422 -38.087615966796875 -286.93701171875 -41.40411376953125 -330.052001953125C-42.138214111328125 -339.6109924316406 -42.50502014160156 -348.9830017089844 -42.50502014160156 -358.1650085449219C-42.50502014160156 -406.8529968261719 -32.19331359863281 -450.20001220703125 -11.652816772460938 -487.6579895019531C-9.534698486328125 -491.5320129394531 -9.297805786132812 -492.2149963378906 -9.297805786132812 -494.4159851074219C-9.307647705078125 -499.82000732421875 -13.614212036132812 -503.4649963378906 -18.273910522460938 -503.4649963378906C-20.21112060546875 -503.4649963378906 -22.20941162109375 -502.8349914550781 -23.985321044921875 -501.44000244140625C-25.141921997070312 -500.53399658203125 -25.699310302734375 -499.7120056152344 -27.984710693359375 -495.60101318359375C-71.12760925292969 -417.9410095214844 -93.88362121582031 -348.85101318359375 -97.49272155761719 -284.5539855957031C-97.99441528320312 -275.385009765625 -98.05012512207031 -273.6289978027344 -98.05012512207031 -264.0C-98.05012512207031 -254.3990020751953 -97.99441528320312 -252.83799743652344 -97.49272155761719 -243.72500610351562C-96.09921264648438 -219.08700561523438 -91.50071716308594 -193.40499877929688 -84.1151123046875 -168.96299743652344C-83.15361022949219 -165.8000030517578 -81.88551330566406 -161.92599487304688 -79.12631225585938 -153.7740020751953C-69.91502380371094 -126.64199829101562 -65.27000427246094 -102.1719970703125 -65.27000427246094 -81.17779541015625C-65.27000427246094 -71.26910400390625 -66.30471801757812 -62.134490966796875 -68.38241577148438 -53.8594970703125C-72.99491882324219 -35.49310302734375 -82.81910705566406 -19.788299560546875 -96.04351806640625 -9.601821899414062L-98.38461303710938 -7.80419921875C-100.78802490234375 -5.957794189453125 -101.99002075195312 -3.25787353515625 -101.99002075195312 -0.5579681396484375C-101.99002075195312 2.1419525146484375 -100.78802490234375 4.8418731689453125 -98.38462829589844 6.688262939453125L-96.04353332519531 8.485885620117188C-79.66981506347656 21.097122192382812 -68.85621643066406 41.67921447753906 -66.0692138671875 65.56391906738281C-65.51051330566406 70.36981201171875 -65.22880554199219 75.32142639160156 -65.22880554199219 80.45001220703125C-65.22880554199219 102.05801391601562 -70.23112487792969 126.80900573730469 -80.603515625 157.04701232910156C-85.91270446777344 172.5430145263672 -90.30232238769531 189.4190216064453 -93.01960754394531 204.77500915527344C-96.4796142578125 224.32701110839844 -98.22781372070312 243.9450225830078 -98.22781372070312 263.79100036621094C-98.22781372070312 335.7040252685547 -75.27421569824219 410.6160125732422 -27.636306762695312 496.2270050048828C-24.765716552734375 501.3970184326172 -23.218917846679688 502.79002380371094 -19.749114990234375 503.34800720214844Z" fill="black" /></g></svg>