<?xml version="1.0" encoding="utf-8" ?>
<svg baseProfile="tiny" height="100%" version="1.2" width="100%" xmlns="http://www.w3.org/2000/svg" xmlns:ev="http://www.w3.org/2001/xml-events" xmlns:xlink="http://www.w3.org/1999/xlink"><defs /><g transform="translate(0, 1000) scale(1, -1)"><path d="M-16.295806884765625 1109.3699951171875C-15.157302856445312 1109.8499755859375 -13.999298095703125 1110.0699462890625 -12.871597290039062 1110.0699462890625C-8.15277099609375 1110.0699462890625 -3.9658660888671875 1106.1800537109375 -3.9658660888671875 1100.9000244140625V1100.81005859375C-3.96588134765625 1098.1400146484375 -3.99285888671875 1098.1199951171875 -8.930938720703125 1089.1800537109375C-60.37091064453125 995.81201171875 -86.13810729980469 885.6060180664062 -86.13810729980469 763.72900390625C-86.13810729980469 652.4240112304688 -64.64671325683594 531.3839721679688 -21.591812133789062 404.54998779296875L-16.075119018554688 388.33099365234375C-5.4496612548828125 356.989013671875 -1.52587890625e-05 323.25799560546875 -1.52587890625e-05 289.7170104980469C-1.52587890625e-05 278.2409973144531 -0.6379241943359375 266.7879943847656 -1.9246826171875 255.4600067138672C-12.737518310546875 160.3520050048828 -66.80140686035156 73.43569946289062 -159.593017578125 1.88372802734375C-161.7720184326172 0.2287139892578125 -163.53701782226562 -1.23321533203125 -163.53701782226562 -1.34356689453125C-163.53701782226562 -1.453887939453125 -161.7720184326172 -2.91583251953125 -159.593017578125 -4.5708465576171875C-66.80140686035156 -76.12289428710938 -12.737518310546875 -163.03900146484375 -1.9246826171875 -258.1470031738281C-0.6410675048828125 -269.4620056152344 -0.0049285888671875 -280.906005859375 -0.0049285888671875 -292.37298583984375C-0.0049285888671875 -326.0010070800781 -5.4753570556640625 -359.8290100097656 -16.13031005859375 -391.156005859375C-44.70692443847656 -475.06500244140625 -60.5399169921875 -536.1630249023438 -72.62161254882812 -608.8740234375C-81.54042053222656 -662.5560302734375 -85.97061157226562 -714.7340087890625 -85.97061157226562 -764.969970703125C-85.97061157226562 -886.5670166015625 -60.01371765136719 -996.780029296875 -8.930938720703125 -1089.3800048828125C-3.99285888671875 -1098.3299560546875 -3.96588134765625 -1098.3499755859375 -3.96588134765625 -1101.010009765625V-1101.0999755859375C-3.9658966064453125 -1106.4599609375 -7.579345703125 -1110.0699462890625 -12.930633544921875 -1110.0699462890625C-17.730133056640625 -1110.0699462890625 -19.109329223632812 -1108.8299560546875 -23.908828735351562 -1100.219970703125C-87.21333312988281 -986.5490112304688 -130.6580352783203 -870.2839965820312 -150.98703002929688 -760.1699829101562C-160.39503479003906 -709.1820068359375 -165.09103393554688 -658.6719970703125 -165.09103393554688 -608.9019775390625C-165.09103393554688 -524.4249877929688 -151.5630340576172 -442.0830078125 -124.58901977539062 -363.1579895019531L-118.96202087402344 -346.2770080566406C-103.00701904296875 -297.02899169921875 -95.17631530761719 -250.08900451660156 -95.17631530761719 -207.00599670410156C-95.17631530761719 -123.0159912109375 -124.93801879882812 -53.6824951171875 -182.2940216064453 -10.47369384765625C-187.17701721191406 -6.80511474609375 -188.36302185058594 -5.039764404296875 -188.36302185058594 -1.34356689453125C-188.36302185058594 2.3526458740234375 -187.17701721191406 4.118011474609375 -182.2940216064453 7.7866363525390625C-140.6430206298828 39.17680358886719 -112.70100402832031 85.29669189453125 -101.22601318359375 141.6230010986328C-97.19172668457031 161.4010009765625 -95.18771362304688 182.35400390625 -95.18771362304688 204.2030029296875C-95.18771362304688 249.88099670410156 -103.94601440429688 299.4739990234375 -121.22401428222656 350.4309997558594C-134.10601806640625 388.385986328125 -140.8360137939453 411.8869934082031 -147.37301635742188 441.5119934082031C-159.32801818847656 495.73199462890625 -165.291015625 550.9959716796875 -165.291015625 607.1599731445312C-165.291015625 760.291015625 -120.95901489257812 920.1079711914062 -32.84602355957031 1083.6600341796875C-20.157516479492188 1107.239990234375 -19.716110229492188 1107.9100341796875 -16.295822143554688 1109.3699951171875Z" fill="black" /></g></svg>