<?xml version="1.0" encoding="utf-8" ?>
<svg baseProfile="tiny" height="100%" version="1.2" width="100%" xmlns="http://www.w3.org/2000/svg" xmlns:ev="http://www.w3.org/2001/xml-events" xmlns:xlink="http://www.w3.org/1999/xlink"><defs /><g transform="translate(0, 1000) scale(1, -1)"><path d="M-10.671005249023438 1382.1099853515625C-10.142410278320312 1382.18994140625 -9.619979858398438 1382.22998046875 -9.107131958007812 1382.22998046875C-4.6033477783203125 1382.22998046875 -0.839019775390625 1379.1600341796875 -0.14410400390625 1374.6800537109375C-0.0567169189453125 1374.1199951171875 -1.52587890625e-05 1373.6300048828125 -1.52587890625e-05 1373.1300048828125C-1.52587890625e-05 1371.0 -1.05517578125 1368.8399658203125 -5.2527313232421875 1361.1500244140625C-72.21151733398438 1238.8399658203125 -105.75201416015625 1097.31005859375 -105.75201416015625 941.8289794921875C-105.75201416015625 802.3270263671875 -78.75282287597656 651.5869750976562 -24.665512084960938 493.3949890136719C-18.473220825195312 475.25201416015625 -17.018112182617188 470.73199462890625 -14.850814819335938 462.83599853515625C-5.2510986328125 427.8819885253906 -0.5351104736328125 392.86199951171875 -0.5351104736328125 358.2080078125C-0.5351104736328125 227.44500732421875 -67.68342590332031 101.885009765625 -192.97201538085938 4.6696929931640625L-199.8140106201172 -0.655670166015625L-200.89801025390625 -1.5225830078125L-199.8140106201172 -2.3585357666015625C-199.22601318359375 -2.853912353515625 -196.1610107421875 -5.237945556640625 -192.97201538085938 -7.7148590087890625C-67.47520446777344 -105.09199523925781 -0.491973876953125 -230.83798217773438 -0.491973876953125 -361.05299377441406C-0.491973876953125 -403.60899353027344 -7.646270751953125 -446.6429901123047 -22.250518798828125 -489.31898498535156C-48.660614013671875 -566.4439544677734 -65.84422302246094 -628.9860076904297 -79.83871459960938 -698.9279632568359C-96.88371276855469 -784.0590057373047 -105.37400817871094 -865.9879608154297 -105.37400817871094 -944.1469573974609C-105.37400817871094 -1098.8199310302734 -72.12281799316406 -1238.729965209961 -6.119659423828125 -1359.489974975586C-0.1655426025390625 -1370.3899993896484 -0.0510406494140625 -1370.520004272461 -0.0510406494140625 -1372.8499603271484C-0.0510406494140625 -1372.949935913086 -0.0512237548828125 -1373.040023803711 -0.0512237548828125 -1373.1399993896484C-0.0512237548828125 -1378.4000091552734 -4.304901123046875 -1382.229965209961 -9.068832397460938 -1382.229965209961C-10.33331298828125 -1382.229965209961 -11.633819580078125 -1381.959945678711 -12.900222778320312 -1381.3799896240234C-15.872512817382812 -1380.020004272461 -15.71771240234375 -1380.259994506836 -25.53240966796875 -1362.3699798583984C-113.12202453613281 -1202.6700286865234 -167.67601013183594 -1038.949935913086 -185.41702270507812 -882.6840057373047C-189.80001831054688 -843.9780120849609 -191.9840087890625 -805.4099578857422 -191.9840087890625 -767.1420135498047C-191.9840087890625 -659.9749603271484 -174.8590087890625 -555.1619720458984 -140.95701599121094 -456.2839813232422L-135.19801330566406 -439.3169708251953C-115.18801879882812 -378.7179718017578 -105.39901733398438 -320.2069854736328 -105.39901733398438 -266.02699279785156C-105.39901733398438 -158.48898315429688 -143.96202087402344 -68.00889587402344 -217.71002197265625 -12.11138916015625C-224.73802185058594 -6.7860107421875 -225.5740203857422 -5.6714019775390625 -225.5740203857422 -1.5225677490234375C-225.5740203857422 2.626251220703125 -224.73802185058594 3.7408599853515625 -217.71002197265625 9.06622314453125C-143.947021484375 64.98541259765625 -105.37501525878906 155.6640167236328 -105.37501525878906 263.1260223388672C-105.37501525878906 318.63401794433594 -115.666015625 378.62001037597656 -136.7150115966797 440.6060028076172C-150.6160125732422 481.56800842285156 -156.2200164794922 500.3930206298828 -164.54901123046875 533.9550323486328C-183.0900115966797 608.7280426025391 -192.30401611328125 685.6710357666016 -192.30401611328125 764.1110382080078C-192.30401611328125 961.2630157470703 -134.10301208496094 1167.8800201416016 -19.525909423828125 1373.290054321289C-15.686721801757812 1380.1600494384766 -14.293411254882812 1381.550064086914 -10.6710205078125 1382.1100006103516Z" fill="black" /></g></svg>