<?xml version="1.0" encoding="utf-8" ?>
<svg baseProfile="tiny" height="100%" version="1.2" width="100%" xmlns="http://www.w3.org/2000/svg" xmlns:ev="http://www.w3.org/2001/xml-events" xmlns:xlink="http://www.w3.org/1999/xlink"><defs /><g transform="translate(0, 1000) scale(1, -1)"><path d="M-10.795700073242188 2086.669921875C-9.979705810546875 2086.840087890625 -9.074951171875 2086.949951171875 -8.648574829101562 2086.949951171875L-8.492279052734375 2086.93994140625C-8.179962158203125 2086.860107421875 -7.28204345703125 2086.669921875 -6.540283203125 2086.510009765625C-2.253662109375 2085.64990234375 -0.0471038818359375 2082.8701171875 -0.0471038818359375 2078.85009765625C-0.0471038818359375 2076.179931640625 -1.027801513671875 2072.949951171875 -3.0266571044921875 2069.3701171875C-111.87100219726562 1874.8800048828125 -167.1909942626953 1648.949951171875 -167.1909942626953 1398.6600341796875C-167.1909942626953 1360.050048828125 -166.95599365234375 1348.4599609375 -165.62899780273438 1319.219970703125C-158.718994140625 1168.050048828125 -131.15699768066406 1006.6599731445312 -85.206298828125 848.3930053710938C-73.76750183105469 809.0399780273438 -65.25669860839844 782.3369750976562 -45.033905029296875 722.8779907226562C-24.368804931640625 662.0289916992188 -14.095993041992188 598.6920166015625 -14.095993041992188 535.1680297851562C-14.095993041992188 451.56201171875 -31.891006469726562 367.63299560546875 -67.20870971679688 288.6340026855469C-72.79150390625 276.1409912109375 -82.43440246582031 256.4649963378906 -86.37750244140625 249.51600646972656L-90.86709594726562 241.3179931640625C-137.63699340820312 154.57000732421875 -214.0 67.6278076171875 -299.80999755859375 3.36761474609375C-303.83099365234375 0.3615264892578125 -307.1109924316406 -2.17608642578125 -307.1109924316406 -2.293212890625C-307.1109924316406 -2.4103240966796875 -303.83099365234375 -4.94793701171875 -299.80999755859375 -7.95404052734375C-214.0 -72.21420288085938 -137.63699340820312 -159.15699768066406 -90.86709594726562 -245.9040069580078L-86.37750244140625 -254.1020050048828C-82.43440246582031 -261.05201721191406 -72.79150390625 -280.72801208496094 -67.20870971679688 -293.2210235595703C-31.891006469726562 -372.2200164794922 -14.095993041992188 -456.13502502441406 -14.095993041992188 -539.7379913330078C-14.095993041992188 -603.2589874267578 -24.368804931640625 -666.5990142822266 -45.033905029296875 -727.4650421142578L-56.51170349121094 -761.4300079345703C-115.34501647949219 -936.1350250244141 -151.4180145263672 -1113.3399810791016 -163.05201721191406 -1284.760025024414C-165.70201110839844 -1323.6800689697266 -167.02101135253906 -1362.199966430664 -167.02101135253906 -1400.260025024414C-167.02101135253906 -1647.6500396728516 -111.29701232910156 -1875.810073852539 -3.02667236328125 -2069.280044555664C-1.0001983642578125 -2072.899917602539 -1.52587890625e-05 -2076.090103149414 -1.52587890625e-05 -2078.740005493164C-1.52587890625e-05 -2082.810073852539 -2.381256103515625 -2085.580093383789 -7.047821044921875 -2086.570083618164C-8.124588012695312 -2086.800064086914 -9.052413940429688 -2086.949966430664 -9.903335571289062 -2086.949966430664C-14.019515991210938 -2086.949966430664 -16.335922241210938 -2083.399917602539 -25.006317138671875 -2067.679946899414C-164.3410186767578 -1815.240005493164 -246.9110107421875 -1549.770034790039 -265.33802795410156 -1295.1100006103516C-268.1370086669922 -1256.449966430664 -269.53700256347656 -1218.050064086914 -269.53700256347656 -1179.9200592041016C-269.53700256347656 -1031.4100494384766 -248.2980194091797 -886.8800201416016 -205.80101013183594 -745.8140411376953C-200.29701232910156 -727.5430450439453 -195.18301391601562 -711.8880157470703 -185.34400939941406 -683.1540069580078C-154.42800903320312 -592.7100372314453 -139.3590087890625 -504.0690155029297 -139.3590087890625 -421.03501892089844C-139.3590087890625 -250.9560089111328 -202.58201599121094 -104.40400695800781 -322.3360137939453 -14.08331298828125C-328.9540252685547 -9.086212158203125 -332.2620086669922 -5.689727783203125 -332.2620086669922 -2.2932281494140625C-332.2620086669922 1.103271484375 -328.9540252685547 4.4997711181640625 -322.3360137939453 9.496917724609375C-203.47702026367188 99.12648010253906 -139.34701538085938 245.5339813232422 -139.34701538085938 417.0229949951172C-139.34701538085938 466.33497619628906 -144.65000915527344 517.7199554443359 -155.47901916503906 570.4260101318359C-163.5600128173828 609.7789764404297 -172.3830108642578 641.0889739990234 -188.6630096435547 688.3279876708984C-243.00901794433594 846.0779876708984 -269.9970245361328 1010.1799774169922 -269.9970245361328 1177.540023803711C-269.9970245361328 1470.999984741211 -187.0170135498047 1774.479965209961 -23.0543212890625 2071.330062866211C-15.636611938476562 2084.719955444336 -14.777816772460938 2085.770004272461 -10.79571533203125 2086.669906616211Z" fill="black" /></g></svg>