<?xml version="1.0" encoding="utf-8" ?>
<svg baseProfile="tiny" height="100%" version="1.2" width="100%" xmlns="http://www.w3.org/2000/svg" xmlns:ev="http://www.w3.org/2001/xml-events" xmlns:xlink="http://www.w3.org/1999/xlink"><defs /><g transform="translate(0, 1000) scale(1, -1)"><path d="M-20.441192626953125 734.81201171875C-19.498794555664062 735.1630249023438 -18.53790283203125 735.3259887695312 -17.591293334960938 735.3259887695312C-12.9049072265625 735.3259887695312 -8.5697021484375 731.3170166015625 -8.5697021484375 726.1740112304688C-8.5697021484375 723.8410034179688 -8.753936767578125 723.3499755859375 -11.55810546875 718.2739868164062C-30.593399047851562 683.6420288085938 -44.429901123046875 644.4039916992188 -52.146392822265625 603.1610107421875C-54.295501708984375 591.739990234375 -56.77220153808594 574.85400390625 -57.386199951171875 567.6489868164062C-57.447601318359375 566.8709716796875 -57.67279052734375 564.2310180664062 -57.89790344238281 561.8150024414062C-59.25410461425781 546.9810180664062 -59.930999755859375 531.7570190429688 -59.930999755859375 516.156005859375C-59.930999755859375 440.4010009765625 -43.969696044921875 355.7749938964844 -12.315399169921875 263.9020080566406C-5.867919921875 245.17300415039062 -2.87957763671875 231.74600219726562 -0.8941650390625 212.52699279785156C-0.29498291015625 206.72999572753906 0.0 200.81300354003906 0.0 194.81700134277344C0.0 161.28199768066406 -9.227294921875 125.29800415039062 -26.07000732421875 94.42559814453125C-44.16380310058594 61.2467041015625 -74.78410339355469 27.10589599609375 -110.5419921875 0.2721710205078125C-111.37100219726562 -0.3418731689453125 -111.78500366210938 -0.59771728515625 -111.78500366210938 -0.8535614013671875C-111.78500366210938 -1.1094207763671875 -111.37100219726562 -1.365264892578125 -110.5419921875 -1.9793243408203125C-74.78410339355469 -28.813003540039062 -44.16380310058594 -62.95390319824219 -26.07000732421875 -96.1326904296875C-9.227294921875 -127.0050048828125 0.0 -162.98899841308594 0.0 -196.5240020751953C0.0 -202.52000427246094 -0.29498291015625 -208.43800354003906 -0.8941650390625 -214.23399353027344C-1.4263458251953125 -219.43299865722656 -1.7538299560546875 -221.9499969482422 -2.449737548828125 -226.61700439453125C-4.496551513671875 -240.1060028076172 -7.177886962890625 -250.70799255371094 -12.315399169921875 -265.6090087890625C-43.756500244140625 -356.7690124511719 -59.7998046875 -441.8389892578125 -59.7998046875 -516.9739990234375C-59.7998046875 -528.85498046875 -59.39869689941406 -540.4869995117188 -58.59379577636719 -551.8560180664062C-58.34820556640625 -555.5189819335938 -57.79559326171875 -562.0490112304688 -57.18150329589844 -568.843994140625C-52.59669494628906 -618.7050170898438 -35.44439697265625 -674.9509887695312 -11.55810546875 -718.343017578125C-8.753936767578125 -723.4199829101562 -8.5697021484375 -723.9110107421875 -8.5697021484375 -726.2440185546875C-8.5697021484375 -731.5780029296875 -12.822006225585938 -735.3259887695312 -17.5802001953125 -735.3259887695312C-19.1029052734375 -735.3259887695312 -20.677505493164062 -734.9429931640625 -22.180999755859375 -734.10400390625C-23.961700439453125 -733.1010131835938 -24.903305053710938 -731.8319702148438 -28.0758056640625 -726.1010131835938C-82.664306640625 -627.7109985351562 -114.677001953125 -533.9669799804688 -123.39599609375 -446.95599365234375C-125.10000610351562 -429.885009765625 -126.07099914550781 -408.5690002441406 -126.07099914550781 -390.760986328125C-126.07099914550781 -384.3999938964844 -125.94699096679688 -378.4859924316406 -125.68800354003906 -373.3739929199219C-123.04800415039062 -321.343994140625 -115.35198974609375 -280.87799072265625 -99.03890991210938 -233.16700744628906C-85.65879821777344 -194.0070037841797 -78.97369384765625 -158.59800720214844 -78.97369384765625 -127.25100708007812C-78.97369384765625 -89.83261108398438 -88.49899291992188 -58.201904296875 -107.53298950195312 -32.886199951171875C-113.63299560546875 -24.780792236328125 -122.5570068359375 -15.8157958984375 -130.41600036621094 -9.900482177734375C-135.20599365234375 -6.298095703125 -136.29100036621094 -4.640167236328125 -136.29100036621094 -0.8535614013671875C-136.29100036621094 2.9330291748046875 -135.20599365234375 4.5909423828125 -130.41600036621094 8.193344116210938C-122.5570068359375 14.108596801757812 -113.63299560546875 23.073699951171875 -107.53298950195312 31.179107666015625C-88.50630187988281 56.48500061035156 -78.97799682617188 88.20220947265625 -78.97799682617188 125.66200256347656C-78.97799682617188 156.94900512695312 -85.625 192.2429962158203 -98.93649291992188 231.1529998779297C-117.35600280761719 284.9549865722656 -126.25799560546875 337.1839904785156 -126.25799560546875 392.4460144042969C-126.25799560546875 404.7959899902344 -125.81300354003906 417.2969970703125 -124.93099975585938 430.0010070800781C-118.62699890136719 520.6539916992188 -87.51528930664062 617.2020263671875 -31.596405029296875 719.625C-24.002700805664062 733.5230102539062 -24.043594360351562 733.4609985351562 -20.441192626953125 734.81201171875Z" fill="black" /></g></svg>