<?xml version="1.0" encoding="utf-8" ?>
<svg baseProfile="tiny" height="100%" version="1.2" width="100%" xmlns="http://www.w3.org/2000/svg" xmlns:ev="http://www.w3.org/2001/xml-events" xmlns:xlink="http://www.w3.org/1999/xlink"><defs /><g transform="translate(0, 1000) scale(1, -1)"><path d="M-19.55499267578125 574.9580078125C-19.151702880859375 575.0079956054688 -18.752700805664062 575.0330200195312 -18.3594970703125 575.0330200195312C-13.354598999023438 575.0330200195312 -9.282119750976562 571.093994140625 -9.282119750976562 565.9619750976562C-9.282119750976562 563.760009765625 -9.537338256835938 563.010986328125 -11.658905029296875 559.1820068359375C-35.76629638671875 515.5809936523438 -48.03990173339844 464.05999755859375 -48.03990173339844 406.9280090332031C-48.03990173339844 397.29901123046875 -47.691192626953125 387.510009765625 -46.991790771484375 377.572998046875C-43.45050048828125 327.4209899902344 -30.976303100585938 269.83599853515625 -11.14849853515625 212.01100158691406C-6.8574676513671875 199.5050048828125 -6.5862884521484375 198.65899658203125 -4.895416259765625 192.05499267578125C-1.625579833984375 179.2760009765625 0.0 166.10400390625 0.0 152.927001953125C0.0 134.60699462890625 -3.1426849365234375 116.27899169921875 -9.377822875976562 98.99359130859375C-22.282699584960938 63.21409606933594 -46.226104736328125 32.63490295410156 -85.59469604492188 1.6887054443359375C-87.1260986328125 0.47637939453125 -88.38619995117188 -0.5764312744140625 -88.38619995117188 -0.640228271484375C-88.38619995117188 -0.70404052734375 -87.1260986328125 -1.7568511962890625 -85.59469604492188 -2.96917724609375C-46.226104736328125 -33.91529846191406 -22.282699584960938 -64.49459838867188 -9.377822875976562 -100.27400207519531C-3.137451171875 -117.572998046875 -0.011810302734375 -135.91799926757812 -0.011810302734375 -154.24000549316406C-0.011810302734375 -171.46600341796875 -2.7745361328125 -188.6699981689453 -8.309066772460938 -204.96499633789062L-15.535202026367188 -226.51499938964844C-37.07421875 -293.48097229003906 -47.84651184082031 -353.87098693847656 -47.84651184082031 -408.0029754638672C-47.84651184082031 -465.2799835205078 -35.78620910644531 -515.5489959716797 -11.658920288085938 -559.1869964599609C-9.537353515625 -563.0149993896484 -9.282135009765625 -563.7649993896484 -9.282135009765625 -565.9659881591797C-9.282135009765625 -571.4210052490234 -13.714920043945312 -575.0330047607422 -18.345321655273438 -575.0330047607422C-20.552719116210938 -575.0330047607422 -22.80511474609375 -574.2119598388672 -24.643508911132812 -572.3790130615234C-27.33941650390625 -569.6829681396484 -44.90211486816406 -536.1519622802734 -55.175018310546875 -514.1229705810547C-89.13601684570312 -441.23997497558594 -105.43901062011719 -377.67298889160156 -107.14500427246094 -311.45799255371094C-107.21702575683594 -308.6799774169922 -107.25300598144531 -305.87498474121094 -107.25300598144531 -303.0499725341797C-107.25300598144531 -273.21299743652344 -103.28501892089844 -241.00099182128906 -96.04301452636719 -212.38198852539062C-92.69322204589844 -199.17398071289062 -90.89071655273438 -193.20797729492188 -85.53091430664062 -177.41598510742188C-75.17332458496094 -146.95298767089844 -70.030517578125 -119.385986328125 -70.030517578125 -95.24798583984375C-70.030517578125 -57.527679443359375 -82.58952331542969 -28.183090209960938 -107.43202209472656 -9.25408935546875C-111.67601013183594 -6.0318603515625 -112.77601623535156 -4.26123046875 -112.77601623535156 -0.6402130126953125C-112.77601623535156 2.980804443359375 -111.67601013183594 4.751434326171875 -107.43202209472656 7.973663330078125C-88.75311279296875 22.218521118164062 -76.37471008300781 43.68931579589844 -71.89231872558594 69.70651245117188C-70.58871459960938 77.24131774902344 -69.93992614746094 85.27522277832031 -69.93992614746094 93.76362609863281C-69.93992614746094 117.89201354980469 -75.18211364746094 145.69100952148438 -85.53091430664062 176.13601684570312C-89.66241455078125 188.27500915527344 -91.60850524902344 194.46401977539062 -93.57051086425781 201.6260223388672C-103.06201171875 236.22601318359375 -107.19300842285156 267.0600128173828 -107.20901489257812 302.99900817871094C-107.20901489257812 315.3930206298828 -107.16102600097656 317.02101135253906 -106.55500793457031 327.5650177001953C-102.63101196289062 396.09300231933594 -79.42141723632812 470.57102966308594 -37.13371276855469 550.3289947509766C-24.962615966796875 573.3150177001953 -24.196914672851562 574.3679962158203 -19.555007934570312 574.9580230712891Z" fill="black" /></g></svg>