<?xml version="1.0" encoding="utf-8" ?>
<svg baseProfile="tiny" height="100%" version="1.2" width="100%" xmlns="http://www.w3.org/2000/svg" xmlns:ev="http://www.w3.org/2001/xml-events" xmlns:xlink="http://www.w3.org/1999/xlink"><defs /><g transform="translate(0, 1000) scale(1, -1)"><path d="M-13.471893310546875 9683.2197265625C-11.819305419921875 9684.0703125 -10.158004760742188 9684.48046875 -8.592330932617188 9684.48046875C-5.197662353515625 9684.48046875 -2.2523040771484375 9682.5498046875 -0.8190765380859375 9679.0302734375C-0.3637542724609375 9677.9296875 -0.0115203857421875 9677.099609375 -0.0115203857421875 9675.9697265625C-0.0115203857421875 9672.33984375 -3.6550750732421875 9665.6904296875 -19.231201171875 9637.669921875C-339.8280029296875 9058.599609375 -570.7210083007812 8436.7802734375 -712.52001953125 7770.6298828125C-820.77001953125 7262.25 -874.5369873046875 6735.64990234375 -874.5369873046875 6200.22998046875C-874.5369873046875 5258.68017578125 -708.2680053710938 4289.83984375 -379.6189880371094 3344.840087890625L-358.15301513671875 3282.010009765625C-261.12799072265625 2988.469970703125 -212.79200744628906 2684.360107421875 -212.79200744628906 2380.669921875C-212.79200744628906 2016.550048828125 -282.2749938964844 1653.030029296875 -420.6319885253906 1309.0400390625C-627.1790161132812 795.5040283203125 -981.1099853515625 339.4779968261719 -1431.72998046875 6.22760009765625C-1444.030029296875 -2.847564697265625 -1454.1500244140625 -10.526504516601562 -1454.1500244140625 -10.788299560546875C-1454.1500244140625 -11.050094604492188 -1444.030029296875 -18.641799926757812 -1431.72998046875 -27.80419921875C-822.3820190429688 -478.4200134277344 -399.5150146484375 -1144.4799499511719 -262.7770080566406 -1869.0099792480469C-229.0919952392578 -2047.5299987792969 -212.23599243164062 -2225.249969482422 -212.23599243164062 -2402.479949951172C-212.23599243164062 -2724.769989013672 -267.97601318359375 -3045.439910888672 -379.6189880371094 -3366.409881591797C-706.3579711914062 -4305.870086669922 -872.4530029296875 -5272.169891357422 -872.4530029296875 -6211.249969482422C-872.4530029296875 -6601.140106201172 -843.8209838867188 -6986.330047607422 -786.1690063476562 -7362.970184326172C-661.0360107421875 -8180.689910888672 -403.4419860839844 -8944.320281982422 -18.969390869140625 -9637.870086669922C-5.591827392578125 -9661.980438232422 1.52587890625e-05 -9672.570281982422 1.52587890625e-05 -9677.870086669922C1.52587890625e-05 -9681.320281982422 -2.3647918701171875 -9682.530242919922 -6.49102783203125 -9683.769500732422C-7.8811187744140625 -9684.179656982422 -9.032699584960938 -9684.480438232422 -10.109390258789062 -9684.480438232422C-14.710281372070312 -9684.480438232422 -17.944686889648438 -9678.940399169922 -32.58207702636719 -9652.700164794922C-582.0649871826172 -8666.910125732422 -924.5649871826172 -7583.740203857422 -1030.939926147461 -6495.600067138672C-1032.8599700927734 -6475.870086669922 -1034.8599700927734 -6456.680145263672 -1035.3899993896484 -6452.839813232422C-1037.8299407958984 -6434.339813232422 -1047.249984741211 -6316.879852294922 -1051.439926147461 -6253.009735107422C-1063.3799896240234 -6073.069793701172 -1068.4000091552734 -5925.430145263672 -1068.4000091552734 -5750.379852294922C-1068.4000091552734 -5734.759735107422 -1068.3599700927734 -5718.919891357422 -1068.280014038086 -5702.830047607422C-1067.759994506836 -5604.399871826172 -1067.4100189208984 -5578.919891357422 -1065.060043334961 -5504.749969482422C-1041.060043334961 -4737.279754638672 -903.4479827880859 -3995.649871826172 -648.9940032958984 -3262.570037841797C-596.9869842529297 -3112.749969482422 -560.9479827880859 -2984.649871826172 -530.1450042724609 -2840.229949951172C-481.06898498535156 -2610.120086669922 -457.1859893798828 -2381.429901123047 -457.1859893798828 -2158.100067138672C-457.1859893798828 -1289.3999938964844 -818.5209808349609 -501.7690124511719 -1464.009994506836 -27.4552001953125C-1475.009994506836 -19.383499145507812 -1480.509994506836 -15.085906982421875 -1480.509994506836 -10.788299560546875C-1480.509994506836 -6.4907073974609375 -1475.009994506836 -2.1930999755859375 -1464.009994506836 5.8785552978515625C-814.8809661865234 482.87501525878906 -457.15599060058594 1273.1100006103516 -457.15599060058594 2137.379898071289C-457.15599060058594 2453.860122680664 -505.1239776611328 2780.280044555664 -604.3170013427734 3104.870132446289C-619.0640106201172 3153.040054321289 -631.6290130615234 3191.169937133789 -656.4990081787109 3262.810073852539C-931.1259613037109 4055.260025024414 -1070.8299407958984 4889.129898071289 -1070.8299407958984 5731.689956665039C-1070.8299407958984 5841.140151977539 -1068.469955444336 5950.729995727539 -1063.749984741211 6060.399917602539C-1058.4200286865234 6183.609878540039 -1045.249984741211 6377.509780883789 -1037.999984741211 6439.549819946289L-1032.3299407958984 6495.399917602539C-927.9680023193359 7539.649917602539 -615.0499725341797 8562.089859008789 -108.41197204589844 9513.759780883789C-55.880767822265625 9612.540054321289 -17.311370849609375 9681.299819946289 -13.47186279296875 9683.219741821289Z" fill="black" /></g></svg>