<?xml version="1.0" encoding="utf-8" ?>
<svg baseProfile="tiny" height="100%" version="1.2" width="100%" xmlns="http://www.w3.org/2000/svg" xmlns:ev="http://www.w3.org/2001/xml-events" xmlns:xlink="http://www.w3.org/1999/xlink"><defs /><g transform="translate(0, 1000) scale(1, -1)"><path d="M-12.06610107421875 2382.8701171875C-10.989593505859375 2383.199951171875 -9.930892944335938 2383.35009765625 -8.914993286132812 2383.35009765625C-3.9458465576171875 2383.35009765625 0.0 2379.639892578125 0.0 2374.300048828125V2371.169921875L-4.57110595703125 2362.93994140625C-118.55999755859375 2158.10009765625 -182.10299682617188 1921.6800537109375 -192.52200317382812 1663.6800537109375C-193.2949981689453 1644.3199462890625 -193.70799255371094 1611.760009765625 -193.70799255371094 1581.760009765625C-193.70799255371094 1559.050048828125 -193.4709930419922 1537.8199462890625 -192.97500610351562 1524.9000244140625C-190.5449981689453 1462.260009765625 -186.83900451660156 1412.1500244140625 -180.33200073242188 1355.8499755859375C-160.1529998779297 1180.219970703125 -122.14300537109375 1016.969970703125 -57.447601318359375 828.322998046875C-32.7445068359375 756.2340087890625 -20.419403076171875 682.06298828125 -20.419403076171875 607.8480224609375C-20.419403076171875 521.7219848632812 -37.0177001953125 435.5369873046875 -70.13140869140625 352.47601318359375C-78.69699096679688 331.06201171875 -91.875 302.2760009765625 -99.78170776367188 287.739013671875L-107.89401245117188 272.7909851074219C-162.41802978515625 172.35000610351562 -246.51002502441406 76.31570434570312 -343.4500427246094 3.7958526611328125C-348.0620422363281 0.336639404296875 -351.8510437011719 -2.58721923828125 -351.8510437011719 -2.71075439453125C-351.8510437011719 -2.8343048095703125 -348.0620422363281 -5.7581634521484375 -343.4500427246094 -9.217376708984375C-246.51002502441406 -81.73719787597656 -162.41802978515625 -177.77200317382812 -107.89402770996094 -278.2120056152344L-99.78172302246094 -293.1610107421875C-91.87501525878906 -307.697998046875 -78.69700622558594 -336.4830017089844 -70.13142395019531 -357.89801025390625C-37.01771545410156 -440.9580078125 -20.419418334960938 -527.1199951171875 -20.419418334960938 -613.2360229492188C-20.419418334960938 -687.4439697265625 -32.74452209472656 -761.6179809570312 -57.44761657714844 -833.7449951171875C-94.96360778808594 -943.2449951171875 -118.51901245117188 -1025.6099853515625 -139.97401428222656 -1122.6300048828125C-175.6640167236328 -1283.8699951171875 -193.39601135253906 -1440.780029296875 -193.39601135253906 -1591.2900390625C-193.39601135253906 -1876.010009765625 -129.947021484375 -2137.8701171875 -4.5711212158203125 -2363.0L-1.52587890625e-05 -2371.239990234375V-2374.3701171875C-1.52587890625e-05 -2379.389892578125 -2.9238739013671875 -2382.77001953125 -7.659698486328125 -2383.27001953125C-8.2294921875 -2383.320068359375 -8.761947631835938 -2383.35009765625 -9.265045166015625 -2383.35009765625C-13.63421630859375 -2383.35009765625 -15.786911010742188 -2381.0 -20.920013427734375 -2371.72998046875C-207.09701538085938 -2035.780029296875 -301.79100036621094 -1690.97998046875 -301.79100036621094 -1355.5400390625C-301.79100036621094 -1233.3299560546875 -289.2220001220703 -1112.3699951171875 -263.9300079345703 -993.5269775390625C-248.98101806640625 -923.2730102539062 -230.90200805664062 -859.1539916992188 -204.093017578125 -781.073974609375C-169.69100952148438 -680.9439697265625 -152.96701049804688 -581.926025390625 -152.96701049804688 -488.5119934082031C-152.96701049804688 -291.97900390625 -226.9920196533203 -120.2550048828125 -366.14100646972656 -15.1885986328125C-375.90101623535156 -7.8172149658203125 -376.39500427246094 -7.2406768798828125 -376.39500427246094 -2.71075439453125C-376.39500427246094 1.81915283203125 -375.90101623535156 2.39569091796875 -366.14100646972656 9.767105102539062C-226.98001098632812 114.82901000976562 -152.98802185058594 286.4230041503906 -152.98802185058594 482.9490051269531C-152.98802185058594 576.218994140625 -169.65402221679688 675.10400390625 -203.92901611328125 775.1589965820312C-226.37200927734375 840.718994140625 -237.90301513671875 879.4290161132812 -252.2340087890625 937.2470092773438C-285.74302673339844 1072.6199951171875 -302.37001037597656 1211.43994140625 -302.37001037597656 1352.1500244140625C-302.37001037597656 1688.52001953125 -207.33901977539062 2035.6300048828125 -20.75531005859375 2371.949951171875C-16.678314208984375 2379.2900390625 -14.413421630859375 2382.169921875 -12.066116333007812 2382.8701171875Z" fill="black" /></g></svg>