<?xml version="1.0" encoding="utf-8" ?>
<svg baseProfile="tiny" height="100%" version="1.2" width="100%" xmlns="http://www.w3.org/2000/svg" xmlns:ev="http://www.w3.org/2001/xml-events" xmlns:xlink="http://www.w3.org/1999/xlink"><defs /><g transform="translate(0, 1000) scale(1, -1)"><path d="M-15.428298950195312 1117.1700439453125C-14.562179565429688 1117.4100341796875 -13.7039794921875 1117.52001953125 -12.869384765625 1117.52001953125C-7.89794921875 1117.52001953125 -3.763092041015625 1113.5400390625 -3.763092041015625 1108.5799560546875C-3.763092041015625 1107.969970703125 -3.8265228271484375 1107.3399658203125 -3.95965576171875 1106.699951171875C-4.2095794677734375 1105.449951171875 -5.0981903076171875 1103.56005859375 -7.1530914306640625 1099.8399658203125C-60.1685791015625 1004.1199951171875 -86.79899597167969 893.2990112304688 -86.79899597167969 769.7169799804688C-86.79899597167969 703.5070190429688 -79.15518188476562 633.6339721679688 -63.829681396484375 560.4550170898438C-52.13899230957031 504.6400146484375 -39.22637939453125 458.5429992675781 -16.844482421875 392.67498779296875C-5.5693206787109375 359.5150146484375 1.52587890625e-05 325.6619873046875 1.52587890625e-05 291.9429931640625C1.52587890625e-05 224.42799377441406 -22.326690673828125 157.44700622558594 -65.88468933105469 97.62860107421875C-90.68238830566406 63.58369445800781 -126.89299011230469 27.261795043945312 -162.88198852539062 0.2980499267578125C-164.00698852539062 -0.5350189208984375 -164.56898498535156 -0.8821258544921875 -164.56898498535156 -1.2292327880859375C-164.56898498535156 -1.57635498046875 -164.00698852539062 -1.9234771728515625 -162.88198852539062 -2.7565460205078125C-126.89299011230469 -29.6925048828125 -90.68238830566406 -66.04220581054688 -65.88468933105469 -100.08700561523438C-22.326690673828125 -159.90499877929688 1.52587890625e-05 -226.88699340820312 1.52587890625e-05 -294.4010009765625C1.52587890625e-05 -328.1210021972656 -5.5693206787109375 -361.9739990234375 -16.844482421875 -395.13299560546875C-39.22637939453125 -461.0010070800781 -52.08338928222656 -506.90399169921875 -63.80198669433594 -562.8579711914062C-79.00239562988281 -635.4860229492188 -86.58328247070312 -704.8709716796875 -86.58328247070312 -770.6519775390625C-86.58328247070312 -893.7839965820312 -60.02198791503906 -1004.2899780273438 -7.1530914306640625 -1099.800048828125C-4.6010589599609375 -1104.3900146484375 -3.7429046630859375 -1106.3299560546875 -3.7429046630859375 -1108.260009765625C-3.7429046630859375 -1108.8499755859375 -3.8231201171875 -1109.43994140625 -3.95965576171875 -1110.0999755859375C-4.9002227783203125 -1114.75 -8.880279541015625 -1117.52001953125 -12.964385986328125 -1117.52001953125C-15.270889282226562 -1117.52001953125 -17.610687255859375 -1116.6400146484375 -19.454788208007812 -1114.7099609375C-21.62078857421875 -1112.4599609375 -40.61479187011719 -1077.030029296875 -52.97198486328125 -1052.1500244140625C-128.21298217773438 -900.7860107421875 -165.92098999023438 -753.7940063476562 -165.92098999023438 -612.7620239257812C-165.92098999023438 -527.010986328125 -151.97998046875 -443.4630126953125 -124.06098937988281 -362.47698974609375C-104.96498107910156 -307.0539855957031 -95.56059265136719 -254.77999877929688 -95.56059265136719 -207.38400268554688C-95.56059265136719 -123.41000366210938 -125.083984375 -54.75120544433594 -182.5419921875 -11.031707763671875C-188.3739776611328 -6.5608978271484375 -189.31797790527344 -5.200225830078125 -189.31797790527344 -1.2292327880859375C-189.31797790527344 2.741729736328125 -188.3739776611328 4.1024169921875 -182.5419921875 8.573226928710938C-125.083984375 52.29280090332031 -95.56059265136719 120.95199584960938 -95.56059265136719 204.92599487304688C-95.56059265136719 252.32200622558594 -104.96498107910156 304.59600830078125 -124.06098937988281 360.01800537109375C-152.1069793701172 441.4100036621094 -166.09799194335938 525.4710083007812 -166.09799194335938 611.697998046875C-166.09799194335938 768.5289916992188 -119.81599426269531 932.5239868164062 -27.646682739257812 1100.6500244140625C-19.232589721679688 1116.0 -19.12158203125 1116.1700439453125 -15.42828369140625 1117.1700439453125Z" fill="black" /></g></svg>