<?xml version="1.0" encoding="utf-8" ?>
<svg baseProfile="tiny" height="100%" version="1.2" width="100%" xmlns="http://www.w3.org/2000/svg" xmlns:ev="http://www.w3.org/2001/xml-events" xmlns:xlink="http://www.w3.org/1999/xlink"><defs /><g transform="translate(0, 1000) scale(1, -1)"><path d="M-11.036895751953125 2580.929931640625C-10.3428955078125 2581.090087890625 -9.656875610351562 2581.169921875 -8.9869384765625 2581.169921875C-4.078582763671875 2581.169921875 -0.033599853515625 2577.090087890625 -0.033599853515625 2572.199951171875C-0.033599853515625 2571.4599609375 -0.1285858154296875 2570.68994140625 -0.3300018310546875 2569.909912109375C-0.5976715087890625 2568.800048828125 -3.095947265625 2563.85009765625 -5.817291259765625 2558.93994140625C-143.0 2312.0 -211.947998046875 2023.6500244140625 -211.947998046875 1713.469970703125C-211.947998046875 1453.93994140625 -163.6750030517578 1179.1199951171875 -66.71270751953125 900.4879760742188C-38.76789855957031 820.1909790039062 -25.189804077148438 738.2490234375 -25.189804077148438 656.9719848632812C-25.189804077148438 412.3080139160156 -148.22900390625 173.66799926757812 -372.7959899902344 4.053253173828125C-377.614013671875 0.3950653076171875 -381.5849914550781 -2.727783203125 -381.5849914550781 -2.9062347412109375C-381.5849914550781 -3.084686279296875 -377.614013671875 -6.2075347900390625 -372.7959899902344 -9.86572265625C-295.61700439453125 -68.17361450195312 -225.93299865722656 -139.46401977539062 -172.3090057373047 -215.0360107421875C-74.94560241699219 -352.17701721191406 -25.056900024414062 -506.57301330566406 -25.056900024414062 -662.2370147705078C-25.056900024414062 -744.0150299072266 -38.82550048828125 -826.1420440673828 -66.71270751953125 -906.3000030517578C-162.39300537109375 -1181.209976196289 -211.41099548339844 -1456.969985961914 -211.41099548339844 -1718.9000396728516C-211.41099548339844 -1746.040054321289 -210.88400268554688 -1773.040054321289 -209.8280029296875 -1799.8800201416016C-198.8979949951172 -2077.860122680664 -129.61599731445312 -2335.669937133789 -5.817291259765625 -2558.949966430664C-1.3849029541015625 -2566.949966430664 0.0 -2569.879898071289 0.0 -2572.310073852539C0.0 -2572.860122680664 -0.0719451904296875 -2573.389907836914 -0.1961669921875 -2573.939956665039C-1.23065185546875 -2578.560073852539 -5.27740478515625 -2581.169937133789 -9.317031860351562 -2581.169937133789C-12.07159423828125 -2581.169937133789 -14.822799682617188 -2579.959976196289 -16.6134033203125 -2577.330093383789C-17.99639892578125 -2575.240005493164 -29.238601684570312 -2555.030044555664 -37.93800354003906 -2538.879898071289C-227.2830047607422 -2188.469985961914 -323.25 -1824.8900299072266 -323.25 -1472.010025024414C-323.25 -1263.250015258789 -289.6659851074219 -1058.240005493164 -221.96299743652344 -861.9110260009766C-200.3699951171875 -799.2760162353516 -188.8159942626953 -756.7610015869141 -178.60000610351562 -702.6020050048828C-167.66700744628906 -644.5940093994141 -162.31900024414062 -587.7130279541016 -162.31900024414062 -532.6989898681641C-162.31900024414062 -315.4080047607422 -245.7530059814453 -127.26402282714844 -398.0459899902344 -14.059219360351562C-405.5409851074219 -8.482742309570312 -406.656005859375 -7.0105438232421875 -406.656005859375 -2.90625C-406.656005859375 1.19805908203125 -405.5409851074219 2.670257568359375 -398.0459899902344 8.24676513671875C-245.7530059814453 121.45198059082031 -162.31900024414062 309.59498596191406 -162.31900024414062 526.8870086669922C-162.31900024414062 581.9000091552734 -167.66700744628906 638.7819671630859 -178.60000610351562 696.7889862060547C-188.8159942626953 750.9479827880859 -200.3699951171875 793.4629974365234 -221.96299743652344 856.0989837646484C-290.02899169921875 1053.489974975586 -323.7690124511719 1259.5999603271484 -323.7690124511719 1469.3699798583984C-323.7690124511719 1831.540023803711 -223.19000244140625 2204.610092163086 -25.04510498046875 2562.509994506836C-15.408905029296875 2579.860092163086 -15.3197021484375 2579.999984741211 -11.036895751953125 2580.929916381836Z" fill="black" /></g></svg>