<?xml version="1.0" encoding="utf-8" ?>
<svg baseProfile="tiny" height="100%" version="1.2" width="100%" xmlns="http://www.w3.org/2000/svg" xmlns:ev="http://www.w3.org/2001/xml-events" xmlns:xlink="http://www.w3.org/1999/xlink"><defs /><g transform="translate(0, 1000) scale(1, -1)"><path d="M-12.185302734375 5653.330078125C-11.23699951171875 5653.6201171875 -10.288604736328125 5653.759765625 -9.363571166992188 5653.759765625C-4.3919677734375 5653.759765625 -0.094512939453125 5649.830078125 -0.094512939453125 5644.68017578125C-0.094512939453125 5641.93994140625 -1.1126861572265625 5639.77978515625 -10.021697998046875 5623.7998046875C-332.75 5042.85986328125 -495.43701171875 4372.5498046875 -495.43701171875 3663.8798828125C-495.43701171875 3113.530029296875 -397.32000732421875 2540.0400390625 -199.8470001220703 1967.2900390625C-158.48399353027344 1847.4000244140625 -136.84800720214844 1761.6800537109375 -120.36599731445312 1652.6099853515625C-107.97698974609375 1570.719970703125 -101.89399719238281 1488.77001953125 -101.89399719238281 1407.280029296875C-101.89399719238281 870.5780029296875 -365.73500061035156 353.822998046875 -829.2060089111328 6.0960693359375C-837.9240264892578 -0.4584197998046875 -845.1150054931641 -6.058380126953125 -845.1150054931641 -6.376556396484375C-845.1150054931641 -6.6947479248046875 -837.9240264892578 -12.294723510742188 -829.2060089111328 -18.849227905273438C-465.9090118408203 -291.4010467529297 -218.17501831054688 -675.1890716552734 -133.9840087890625 -1095.8199920654297C-112.59202575683594 -1202.7500457763672 -101.92301940917969 -1311.6500701904297 -101.92301940917969 -1420.2900848388672C-101.92301940917969 -1553.0601043701172 -117.86001586914062 -1685.4300994873047 -149.63902282714844 -1813.3199920654297C-164.9110107421875 -1874.6600799560547 -174.64801025390625 -1906.9200897216797 -199.84701538085938 -1980.0400848388672C-263.3560028076172 -2164.460006713867 -314.90101623535156 -2341.560104370117 -356.32801818847656 -2518.080123901367C-448.38401794433594 -2910.320114135742 -494.04701232910156 -3297.129928588867 -494.04701232910156 -3671.960006713867C-494.04701232910156 -4379.960006713867 -331.1330108642578 -5045.210006713867 -10.212600708007812 -5623.509811401367C-2.0761566162109375 -5638.169967651367 0.0 -5642.149948120117 0.0 -5644.919967651367C0.0 -5645.640182495117 -0.1394805908203125 -5646.270065307617 -0.34906005859375 -5646.990280151367C-1.580963134765625 -5651.220260620117 -5.7010955810546875 -5653.759811401367 -9.68304443359375 -5653.759811401367C-11.871902465820312 -5653.759811401367 -14.018997192382812 -5652.990280151367 -15.6217041015625 -5651.319869995117C-17.848907470703125 -5648.970260620117 -46.803192138671875 -5596.720260620117 -72.44850158691406 -5548.740280151367C-396.35499572753906 -4941.910202026367 -591.2079925537109 -4279.839889526367 -637.9799652099609 -3627.260055541992C-645.6129608154297 -3520.540084838867 -649.4269866943359 -3414.290084838867 -649.4269866943359 -3308.560104370117C-649.4269866943359 -2826.370162963867 -570.1099700927734 -2354.960006713867 -412.07298278808594 -1899.2200164794922C-333.58998107910156 -1672.8900604248047 -294.22499084472656 -1449.2400360107422 -294.22499084472656 -1231.3800506591797C-294.22499084472656 -1099.3101043701172 -308.69297790527344 -969.3600311279297 -337.68299865722656 -842.2330169677734C-415.4459991455078 -501.08204650878906 -602.6619720458984 -206.38404846191406 -860.5779876708984 -19.103744506835938C-867.9680023193359 -13.720748901367188 -871.6589813232422 -10.12335205078125 -871.6589813232422 -6.5080718994140625C-871.6589813232422 -2.9005889892578125 -867.9839935302734 0.7246856689453125 -860.6420135498047 6.15966796875C-798.9789886474609 51.97746276855469 -751.3790130615234 93.59535217285156 -699.7709808349609 146.66795349121094C-436.49497985839844 417.39695739746094 -294.53199768066406 800.8269805908203 -294.53199768066406 1218.6299591064453C-294.53199768066406 1332.3199005126953 -305.0439910888672 1448.5500030517578 -326.4829864501953 1565.7499542236328C-346.6549835205078 1676.1499786376953 -371.9189910888672 1770.7199249267578 -412.07298278808594 1886.4699249267578C-570.8619842529297 2344.409866333008 -650.6959686279297 2818.580032348633 -650.6959686279297 3302.449905395508C-650.6959686279297 3408.459915161133 -646.8629608154297 3514.939895629883 -639.1890106201172 3621.820022583008C-590.8899993896484 4295.529739379883 -388.0189971923828 4971.470169067383 -46.73957824707031 5596.120071411133C-17.021591186523438 5650.589797973633 -16.00347900390625 5652.189895629883 -12.185287475585938 5653.330032348633Z" fill="black" /></g></svg>