<?xml version="1.0" encoding="utf-8" ?>
<svg baseProfile="tiny" height="100%" version="1.2" width="100%" xmlns="http://www.w3.org/2000/svg" xmlns:ev="http://www.w3.org/2001/xml-events" xmlns:xlink="http://www.w3.org/1999/xlink"><defs /><g transform="translate(0, 1000) scale(1, -1)"><path d="M-13.295806884765625 4027.72998046875C-12.128997802734375 4028.330078125 -10.826705932617188 4028.610107421875 -9.507614135742188 4028.610107421875C-6.0047760009765625 4028.610107421875 -2.384246826171875 4026.639892578125 -0.8738250732421875 4023.4599609375C-0.3270416259765625 4022.31005859375 0.0 4021.31005859375 0.0 4020.1298828125C0.0 4017.2900390625 -1.9036712646484375 4013.419921875 -7.2180633544921875 4003.85009765625C-114.75 3810.590087890625 -195.46600341796875 3606.179931640625 -254.32400512695312 3378.159912109375C-314.43701171875 3145.159912109375 -344.2749938964844 2897.010009765625 -344.2749938964844 2640.47998046875C-344.2749938964844 2239.72998046875 -271.4580078125 1818.52001953125 -127.49200439453125 1402.6500244140625C-82.06159973144531 1271.510009765625 -59.599090576171875 1143.68994140625 -59.599090576171875 1013.6300048828125C-59.599090576171875 948.6320190429688 -65.20880126953125 883.072998046875 -76.36509704589844 816.260009765625C-128.5590057373047 503.6860046386719 -316.3269958496094 206.73199462890625 -590.676025390625 2.916656494140625C-595.9539794921875 -1.02850341796875 -600.3250122070312 -4.3872222900390625 -600.3250122070312 -4.5471649169921875C-600.3250122070312 -4.7071075439453125 -595.9539794921875 -8.065841674804688 -590.676025390625 -12.011016845703125C-316.3269958496094 -215.82701110839844 -128.5590057373047 -512.7800445556641 -76.36509704589844 -825.3540191650391C-65.21469116210938 -892.1150054931641 -59.61090087890625 -957.6800079345703 -59.61090087890625 -1022.6900177001953C-59.61090087890625 -1152.8900299072266 -82.08509826660156 -1280.8600006103516 -127.49200439453125 -1411.740005493164C-271.7659912109375 -1827.8299713134766 -343.5039978027344 -2242.540054321289 -343.5039978027344 -2638.459976196289C-343.5039978027344 -3134.399917602539 -230.93899536132812 -3600.840103149414 -7.3780059814453125 -4003.560073852539C-1.9368438720703125 -4013.379898071289 -0.0039825439453125 -4017.290054321289 -0.0039825439453125 -4020.149917602539C-0.0039825439453125 -4021.330093383789 -0.3303680419921875 -4022.330093383789 -0.8738250732421875 -4023.500015258789C-2.453765869140625 -4026.830093383789 -5.867279052734375 -4028.610122680664 -9.259567260742188 -4028.610122680664C-11.934097290039062 -4028.610122680664 -14.59539794921875 -4027.510025024414 -16.3345947265625 -4025.199966430664C-18.627105712890625 -4022.159927368164 -46.2965087890625 -3971.889907836914 -63.09010314941406 -3940.110122680664C-338.1740264892578 -3420.560073852539 -477.8980255126953 -2870.669937133789 -477.8980255126953 -2333.199966430664C-477.8980255126953 -2007.6600494384766 -426.63902282714844 -1686.6800689697266 -323.15101623535156 -1379.760025024414L-304.65101623535156 -1324.8399810791016C-251.6420135498047 -1167.709976196289 -225.95901489257812 -1010.5100250244141 -225.95901489257812 -860.2260284423828C-225.95901489257812 -515.8230133056641 -360.8450164794922 -207.7730255126953 -610.8280181884766 -20.221237182617188C-624.9560089111328 -9.558609008789062 -625.1690216064453 -9.345367431640625 -625.1690216064453 -4.5471954345703125C-625.1690216064453 0.2509765625 -624.9560089111328 0.4642333984375 -610.8280181884766 11.126861572265625C-362.7000274658203 197.2859649658203 -226.093017578125 503.3999786376953 -226.093017578125 850.6009979248047C-226.093017578125 941.5999603271484 -235.47702026367188 1035.4200286865234 -254.697021484375 1130.6500091552734C-269.62501525878906 1204.810043334961 -285.2990264892578 1260.459945678711 -316.7000274658203 1351.469955444336C-406.7990264892578 1612.3299407958984 -461.12501525878906 1895.209945678711 -475.09300231933594 2176.489974975586C-478.1850128173828 2238.860092163086 -478.5590057373047 2256.189926147461 -478.5590057373047 2330.560043334961C-478.5590057373047 2406.159896850586 -477.9720001220703 2431.159896850586 -474.5600128173828 2496.100082397461C-448.2770233154297 2996.979965209961 -298.73402404785156 3509.149887084961 -40.75202941894531 3981.610092163086C-17.667434692382812 4023.840072631836 -16.281326293945312 4026.179916381836 -13.29583740234375 4027.729965209961Z" fill="black" /></g></svg>