<?xml version="1.0" encoding="utf-8" ?>
<svg baseProfile="tiny" height="100%" version="1.2" width="100%" xmlns="http://www.w3.org/2000/svg" xmlns:ev="http://www.w3.org/2001/xml-events" xmlns:xlink="http://www.w3.org/1999/xlink"><defs /><g transform="translate(0, 1000) scale(1, -1)"><path d="M-14.523406982421875 5804.72998046875C-13.037506103515625 5805.740234375 -11.25360107421875 5806.22021484375 -9.460556030273438 5806.22021484375C-6.2855072021484375 5806.22021484375 -3.0818023681640625 5804.72021484375 -1.4529266357421875 5802.0498046875C-0.5890655517578125 5800.66015625 -0.0260162353515625 5799.580078125 -0.0260162353515625 5798.10009765625C-0.0260162353515625 5794.64013671875 -3.079315185546875 5788.97998046875 -12.49749755859375 5771.919921875C-341.5610046386719 5176.990234375 -509.4200134277344 4494.490234375 -509.4200134277344 3763.31005859375C-509.4200134277344 3549.2900390625 -495.03900146484375 3331.110107421875 -466.1099853515625 3109.719970703125C-419.97100830078125 2756.75 -333.31298828125 2388.949951171875 -215.41700744628906 2045.780029296875C-193.3280029296875 1981.4100341796875 -188.1649932861328 1965.97998046875 -182.80599975585938 1948.72998046875C-131.2969970703125 1782.3699951171875 -105.92500305175781 1612.5 -105.92500305175781 1443.5899658203125C-105.92500305175781 1081.8800048828125 -222.26800537109375 724.5369873046875 -447.41900634765625 415.2340087890625C-559.302001953125 261.4590148925781 -700.8560180664062 118.59799194335938 -853.4539794921875 5.2771453857421875C-861.8189697265625 -0.865997314453125 -868.6160278320312 -6.094207763671875 -868.6160278320312 -6.290252685546875C-868.6160278320312 -6.4863128662109375 -861.8189697265625 -11.714508056640625 -853.4539794921875 -17.857696533203125C-751.3740234375 -93.66659545898438 -651.3189697265625 -185.3560028076172 -565.1190185546875 -282.0780029296875C-264.3479919433594 -619.60498046875 -105.95999145507812 -1034.5 -105.95999145507812 -1456.510009765625C-105.95999145507812 -1625.030029296875 -131.21400451660156 -1794.6700439453125 -182.74099731445312 -1960.989990234375C-188.1649932861328 -1978.5 -192.80499267578125 -1992.3499755859375 -215.74400329589844 -2059.280029296875C-344.22698974609375 -2433.75 -433.95599365234375 -2830.9599609375 -476.8269958496094 -3215.75C-497.70001220703125 -3402.85009765625 -508.0840148925781 -3587.47998046875 -508.0840148925781 -3769.050048828125C-508.0840148925781 -4498.25 -340.6189880371094 -5178.240234375 -12.49749755859375 -5771.43017578125C-3.7569732666015625 -5787.22998046875 0.0 -5794.66015625 0.0 -5798.89990234375C0.0 -5801.740234375 -1.673248291015625 -5803.14990234375 -4.6551971435546875 -5804.7001953125C-6.516571044921875 -5805.64990234375 -8.079010009765625 -5806.22021484375 -9.55181884765625 -5806.22021484375C-13.922195434570312 -5806.22021484375 -17.5032958984375 -5801.2099609375 -25.76409912109375 -5786.39990234375C-228.29200744628906 -5423.9501953125 -388.01300048828125 -5034.64990234375 -496.1719970703125 -4639.7900390625C-608.8909912109375 -4228.2998046875 -665.1119995117188 -3810.75 -665.1119995117188 -3398.320068359375C-665.1119995117188 -2910.949951171875 -586.6010131835938 -2430.72998046875 -430.0350036621094 -1976.1500244140625C-382.9159851074219 -1839.3599853515625 -361.93798828125 -1764.9300537109375 -340.697998046875 -1658.72998046875C-313.9440002441406 -1525.3499755859375 -300.89300537109375 -1393.4599609375 -300.89300537109375 -1265.030029296875C-300.89300537109375 -755.6710205078125 -506.177001953125 -300.8580017089844 -876.0659790039062 -24.654296875C-893.1890258789062 -11.845199584960938 -894.1690063476562 -10.864898681640625 -894.1690063476562 -6.290252685546875C-894.1690063476562 -1.715576171875 -893.2540283203125 -0.8006439208984375 -873.6480102539062 13.903701782226562C-505.4280090332031 289.7689971923828 -300.9289855957031 744.2269744873047 -300.9289855957031 1252.6800384521484C-300.9289855957031 1381.060043334961 -313.9670104980469 1512.8899993896484 -340.697998046875 1646.1500091552734C-360.43499755859375 1744.699935913086 -384.0270080566406 1830.1800384521484 -420.4939880371094 1935.6600189208984C-573.8109741210938 2378.949935913086 -651.4500122070312 2806.939926147461 -665.5659790039062 3286.830062866211C-666.1209716796875 3305.219955444336 -666.3989868164062 3350.040023803711 -666.3989868164062 3394.889877319336C-666.3989868164062 3439.729965209961 -666.1209716796875 3484.620101928711 -665.5659790039062 3503.139877319336C-660.9910278320312 3660.840072631836 -651.7760009765625 3790.300033569336 -635.0460205078125 3932.249984741211C-631.9739990234375 3957.800033569336 -631.7780151367188 3959.830062866211 -626.5499877929688 3998.840072631836C-547.0809936523438 4598.580062866211 -350.8280029296875 5191.790023803711 -48.83349609375 5745.060043334961C-22.888595581054688 5792.569808959961 -16.810806274414062 5803.100082397461 -14.523406982421875 5804.729965209961Z" fill="black" /></g></svg>