<?xml version="1.0" encoding="utf-8" ?>
<svg baseProfile="tiny" height="100%" version="1.2" width="100%" xmlns="http://www.w3.org/2000/svg" xmlns:ev="http://www.w3.org/2001/xml-events" xmlns:xlink="http://www.w3.org/1999/xlink"><defs /><g transform="translate(0, 1000) scale(1, -1)"><path d="M-13.298492431640625 2966.580078125C-11.780593872070312 2967.35009765625 -10.289794921875 2967.699951171875 -8.889434814453125 2967.699951171875C-4.0065155029296875 2967.699951171875 -0.22320556640625 2963.469970703125 -0.22320556640625 2958.330078125C-0.22320556640625 2956.429931640625 -0.7403106689453125 2954.39990234375 -1.9101409912109375 2952.429931640625C-32.35859680175781 2900.77001953125 -77.38809204101562 2805.81005859375 -107.50299072265625 2729.81005859375C-200.5449981689453 2494.889892578125 -246.97799682617188 2234.97998046875 -246.97799682617188 1961.3399658203125C-246.97799682617188 1662.7900390625 -191.7050018310547 1347.8900146484375 -81.39070129394531 1031.27001953125C-49.5635986328125 939.9650268554688 -33.9241943359375 845.9920043945312 -33.9241943359375 752.3070068359375C-33.9241943359375 555.510009765625 -102.93399047851562 359.9809875488281 -235.8730010986328 193.14700317382812C-292.14801025390625 122.48100280761719 -362.81298828125 54.10319519042969 -433.04901123046875 2.164520263671875C-437.0039978027344 -0.789794921875 -440.2439880371094 -3.267608642578125 -440.2439880371094 -3.410552978515625C-440.2439880371094 -3.5535125732421875 -437.0039978027344 -6.0313262939453125 -433.04901123046875 -8.985626220703125C-362.81298828125 -60.924407958984375 -292.14801025390625 -129.302001953125 -235.8730010986328 -199.96800231933594C-102.93399047851562 -366.802001953125 -33.9241943359375 -562.3309936523438 -33.9241943359375 -759.1279907226562C-33.9241943359375 -852.81298828125 -49.5635986328125 -946.7860107421875 -81.39070129394531 -1038.0899658203125C-191.50900268554688 -1354.1199951171875 -246.29800415039062 -1667.280029296875 -246.29800415039062 -1963.9300537109375C-246.29800415039062 -2323.610107421875 -165.7530059814453 -2659.010009765625 -5.626861572265625 -2945.81005859375C-1.57861328125 -2953.10009765625 0.0 -2956.409912109375 0.0 -2959.030029296875C0.0 -2960.300048828125 -0.368408203125 -2961.409912109375 -1.004791259765625 -2962.72998046875C-2.5829925537109375 -2966.010009765625 -5.8338165283203125 -2967.699951171875 -9.115478515625 -2967.699951171875C-11.976898193359375 -2967.699951171875 -14.8616943359375 -2966.419921875 -16.68170166015625 -2963.77001953125C-23.87689208984375 -2953.14990234375 -69.23989868164062 -2867.570068359375 -90.01541137695312 -2825.260009765625C-272.9289855957031 -2452.97998046875 -365.10101318359375 -2072.989990234375 -365.10101318359375 -1702.219970703125C-365.10101318359375 -1459.3599853515625 -325.5580139160156 -1220.449951171875 -246.07000732421875 -990.2459716796875C-224.5800018310547 -928.0150146484375 -212.61900329589844 -884.9390258789062 -201.37399291992188 -829.5700073242188C-186.82000732421875 -757.8629760742188 -179.70899963378906 -687.4760131835938 -179.70899963378906 -619.4660034179688C-179.70899963378906 -367.0539855957031 -277.6629943847656 -147.3820037841797 -456.635986328125 -14.46539306640625C-462.5679931640625 -10.033905029296875 -465.5350036621094 -6.7222442626953125 -465.5350036621094 -3.410552978515625C-465.5350036621094 -0.0988616943359375 -462.5679931640625 3.2128143310546875 -456.635986328125 7.644287109375C-305.4419860839844 119.90798950195312 -209.23599243164062 297.0719909667969 -185.69700622558594 506.4469909667969C-181.64100646972656 542.4920043945312 -179.6020050048828 578.5549926757812 -179.6020050048828 614.8099975585938C-179.6020050048828 733.5999755859375 -201.49400329589844 854.4429931640625 -246.07000732421875 983.4249877929688C-326.0329895019531 1214.800048828125 -365.4289855957031 1451.0400390625 -365.4289855957031 1699.27001953125C-365.4289855957031 1703.97998046875 -365.41400146484375 1708.699951171875 -365.385986328125 1713.4300537109375C-365.1000061035156 1756.6400146484375 -364.90899658203125 1765.93994140625 -363.385009765625 1799.6700439453125C-345.94500732421875 2186.070068359375 -230.10699462890625 2579.610107421875 -25.163406372070312 2948.760009765625C-16.538803100585938 2964.340087890625 -15.871597290039062 2965.2900390625 -13.298492431640625 2966.580078125Z" fill="black" /></g></svg>