<?xml version="1.0" encoding="utf-8" ?>
<svg baseProfile="tiny" height="100%" version="1.2" width="100%" xmlns="http://www.w3.org/2000/svg" xmlns:ev="http://www.w3.org/2001/xml-events" xmlns:xlink="http://www.w3.org/1999/xlink"><defs /><g transform="translate(0, 1000) scale(1, -1)"><path d="M-18.613494873046875 839.5089721679688C-17.850006103515625 839.697998046875 -17.09429931640625 839.7869873046875 -16.357406616210938 839.7869873046875C-11.417694091796875 839.7869873046875 -7.3190155029296875 835.77197265625 -7.3190155029296875 830.7750244140625C-7.3190155029296875 830.2319946289062 -7.3675537109375 829.676025390625 -7.4688262939453125 829.1129760742188C-7.7029571533203125 827.802001953125 -8.17120361328125 826.7490234375 -9.739898681640625 823.8920288085938C-48.043304443359375 754.6640014648438 -67.197998046875 674.875 -67.197998046875 585.4140014648438C-67.197998046875 499.7239990234375 -49.62370300292969 405.1600036621094 -14.469406127929688 302.50299072265625C-3.9334259033203125 271.7149963378906 0.0 249.70599365234375 0.0 221.42300415039062C0.0 138.98500061035156 -42.869598388671875 62.892303466796875 -124.25399780273438 0.8238067626953125C-125.55300903320312 -0.1595458984375 -126.2030029296875 -0.545867919921875 -126.2030029296875 -0.93218994140625C-126.2030029296875 -1.318511962890625 -125.55300903320312 -1.704833984375 -124.25399780273438 -2.6881866455078125C-42.869598388671875 -64.756591796875 0.0 -140.85000610351562 0.0 -223.28799438476562C0.0 -251.45399475097656 -3.9568328857421875 -273.64898681640625 -14.352294921875 -304.0159912109375C-49.682891845703125 -407.08099365234375 -66.84480285644531 -499.6099853515625 -66.84480285644531 -586.8480224609375C-66.84480285644531 -607.802978515625 -66.77450561523438 -610.448974609375 -65.7677001953125 -626.1820068359375C-61.27239990234375 -697.6389770507812 -42.0032958984375 -765.5850219726562 -9.739898681640625 -823.8839721679688C-7.9558258056640625 -827.1129760742188 -7.2864990234375 -828.7650146484375 -7.2864990234375 -830.5289916992188C-7.2864990234375 -831.0800170898438 -7.351806640625 -831.6409912109375 -7.4688262939453125 -832.2650146484375C-8.334136962890625 -836.9559936523438 -12.339508056640625 -839.7869873046875 -16.459701538085938 -839.7869873046875C-18.693893432617188 -839.7869873046875 -20.9617919921875 -838.9550170898438 -22.781097412109375 -837.135009765625C-23.881500244140625 -836.0579833984375 -27.2998046875 -830.0650024414062 -34.838897705078125 -816.0640258789062C-100.04499816894531 -694.9240112304688 -135.1179962158203 -575.4929809570312 -137.08399963378906 -467.86199951171875C-137.15499877929688 -464.1629943847656 -137.2480010986328 -459.59698486328125 -137.31900024414062 -457.7239990234375C-137.35000610351562 -456.7659912109375 -137.36399841308594 -455.52801513671875 -137.36399841308594 -454.072998046875C-137.36399841308594 -444.5429992675781 -136.73899841308594 -425.6839904785156 -136.0070037841797 -414.87799072265625C-132.72999572753906 -365.33599853515625 -122.87300109863281 -316.5190124511719 -106.67098999023438 -269.552001953125C-94.893798828125 -235.39199829101562 -88.33810424804688 -207.1320037841797 -85.34120178222656 -177.3509979248047C-84.38099670410156 -167.81300354003906 -83.9053955078125 -158.5070037841797 -83.9053955078125 -149.45799255371094C-83.9053955078125 -89.00149536132812 -105.135009765625 -40.02020263671875 -144.92799377441406 -10.06329345703125C-149.31100463867188 -6.7712554931640625 -151.0030059814453 -4.467803955078125 -151.0030059814453 -1.3730316162109375C-151.0030059814453 -0.748138427734375 -150.9340057373047 -0.0909881591796875 -150.80499267578125 0.6130828857421875C-150.2429962158203 3.7036285400390625 -149.30599975585938 4.897705078125 -144.92799377441406 8.198974609375C-123.87899780273438 24.049697875976562 -107.35000610351562 46.29229736328125 -96.76690673828125 73.0535888671875C-88.1510009765625 94.83889770507812 -83.85958862304688 119.78199768066406 -83.85958862304688 147.12899780273438C-83.85958862304688 182.35499572753906 -90.97970581054688 221.5709991455078 -105.14900207519531 263.16900634765625C-113.62399291992188 288.03399658203125 -118.44699096679688 304.6340026855469 -123.38800048828125 326.1510009765625C-132.67100524902344 366.47601318359375 -137.2740020751953 409.25299072265625 -137.2740020751953 452.7409973144531C-137.2740020751953 515.0969848632812 -127.80999755859375 578.9149780273438 -109.10600280761719 639.0679931640625L-105.47700500488281 650.7750244140625C-87.65911865234375 708.0900268554688 -61.62361145019531 767.7940063476562 -27.69781494140625 829.1129760742188C-22.9918212890625 837.635986328125 -22.125518798828125 838.6430053710938 -18.613510131835938 839.5089721679688Z" fill="black" /></g></svg>