<?xml version="1.0" encoding="utf-8" ?>
<svg baseProfile="tiny" height="100%" version="1.2" width="100%" xmlns="http://www.w3.org/2000/svg" xmlns:ev="http://www.w3.org/2001/xml-events" xmlns:xlink="http://www.w3.org/1999/xlink"><defs /><g transform="translate(0, 1000) scale(1, -1)"><path d="M-11.561996459960938 267.7550048828125C-11.200881958007812 267.7950134277344 -10.844390869140625 267.81500244140625 -10.493377685546875 267.81500244140625C-5.3773345947265625 267.81500244140625 -1.42620849609375 263.6499938964844 -1.42620849609375 258.8080139160156C-1.42620849609375 257.7950134277344 -1.599151611328125 256.75299072265625 -1.970550537109375 255.71299743652344C-2.189361572265625 255.11500549316406 -2.378997802734375 254.7209930419922 -3.4293212890625 252.80999755859375C-14.689178466796875 232.19000244140625 -20.341888427734375 208.31500244140625 -20.341888427734375 181.53500366210938C-20.341888427734375 168.83299255371094 -19.0701904296875 155.4770050048828 -16.52178955078125 141.50599670410156C-14.355484008789062 129.64599609375 -11.10968017578125 116.53199768066406 -7.5868072509765625 105.4739990234375L-4.3993988037109375 95.77349853515625C-2.0799713134765625 89.01210021972656 -1.1317596435546875 85.05889892578125 -0.168975830078125 78.12240600585938C-0.001220703125 76.92620849609375 -0.001220703125 76.87519836425781 -0.001220703125 68.71340942382812C-0.001220703125 67.36599731445312 1.52587890625e-05 66.23870849609375 1.52587890625e-05 65.2825927734375C1.52587890625e-05 59.665191650390625 -0.0426025390625 59.95579528808594 -0.6284942626953125 56.24090576171875C-3.859649658203125 35.796295166015625 -15.347488403320312 16.5625 -33.85917663574219 0.64007568359375C-34.42808532714844 0.151397705078125 -34.89488220214844 -0.2643585205078125 -34.89488220214844 -0.2862396240234375C-34.89488220214844 -0.3081207275390625 -34.42808532714844 -0.7238616943359375 -33.85917663574219 -1.212554931640625C-15.347488403320312 -17.134994506835938 -3.859649658203125 -36.368804931640625 -0.6284942626953125 -56.81340026855469C-0.0426025390625 -60.5281982421875 1.52587890625e-05 -60.237701416015625 1.52587890625e-05 -65.85501098632812C1.52587890625e-05 -66.81120300292969 -0.001220703125 -67.93850708007812 -0.001220703125 -69.285888671875C-0.001220703125 -77.44769287109375 -0.001220703125 -77.49870300292969 -0.168975830078125 -78.69490051269531C-1.1317596435546875 -85.63130187988281 -2.0799713134765625 -89.5845947265625 -4.3993988037109375 -96.34600830078125C-14.994277954101562 -127.26499938964844 -20.290786743164062 -155.8459930419922 -20.290786743164062 -181.73599243164062C-20.290786743164062 -208.4080047607422 -14.669677734375 -232.2239990234375 -3.4293212890625 -252.7989959716797C-1.86114501953125 -255.6649932861328 -1.664215087890625 -256.19000244140625 -1.489166259765625 -257.9259948730469C-1.4575042724609375 -258.239013671875 -1.44207763671875 -258.5480041503906 -1.44207763671875 -258.8529968261719C-1.44207763671875 -263.8940124511719 -5.6523590087890625 -267.81500244140625 -10.477279663085938 -267.81500244140625C-11.484283447265625 -267.81500244140625 -12.517990112304688 -267.6440124511719 -13.545883178710938 -267.2770080566406C-15.806991577148438 -266.4670104980469 -17.331390380859375 -265.05999755859375 -18.819290161132812 -262.3900146484375C-33.72789001464844 -235.70899963378906 -44.13618469238281 -208.9040069580078 -49.51898193359375 -183.3249969482422C-52.4390869140625 -169.4409942626953 -53.89378356933594 -155.55999755859375 -53.89378356933594 -141.89500427246094C-53.89378356933594 -121.32499694824219 -50.59757995605469 -101.2449951171875 -44.0413818359375 -82.3782958984375C-39.56907653808594 -69.49749755859375 -37.33638000488281 -57.8125 -37.33638000488281 -47.27729797363281C-37.33638000488281 -42.331695556640625 -37.82838439941406 -37.639495849609375 -38.81169128417969 -33.19599914550781C-41.19679260253906 -22.444900512695312 -46.75468444824219 -13.575592041015625 -54.85078430175781 -7.6238250732421875C-57.34169006347656 -5.7894287109375 -58.58708190917969 -3.0378265380859375 -58.58708190917969 -0.2862396240234375C-58.58708190917969 2.465362548828125 -57.34169006347656 5.2169647216796875 -54.85078430175781 7.051361083984375C-43.2598876953125 15.580596923828125 -37.35829162597656 29.188095092773438 -37.35829162597656 46.41839599609375C-37.35829162597656 56.977508544921875 -39.5745849609375 68.89700317382812 -44.05598449707031 81.84230041503906C-50.66938781738281 100.94000244140625 -53.96498107910156 120.78900146484375 -53.96498107910156 141.2310028076172C-53.96498107910156 179.63299560546875 -42.33488464355469 220.1320037841797 -19.220489501953125 261.6860046386719C-16.944778442382812 265.77099609375 -14.917083740234375 267.375 -11.561981201171875 267.7550048828125Z" fill="black" /></g></svg>