<?xml version="1.0" encoding="utf-8" ?>
<svg baseProfile="tiny" height="100%" version="1.2" width="100%" xmlns="http://www.w3.org/2000/svg" xmlns:ev="http://www.w3.org/2001/xml-events" xmlns:xlink="http://www.w3.org/1999/xlink"><defs /><g transform="translate(0, 1000) scale(1, -1)"><path d="M-11.326507568359375 2072.639892578125C-10.12579345703125 2072.97998046875 -9.56451416015625 2073.139892578125 -8.98846435546875 2073.139892578125C-8.429611206054688 2073.139892578125 -7.8568572998046875 2072.989990234375 -6.6728973388671875 2072.679931640625C-2.2269134521484375 2071.5 -0.00762939453125 2069.02001953125 -0.00762939453125 2065.18994140625C-0.00762939453125 2062.3798828125 -1.209136962890625 2058.85009765625 -3.609222412109375 2054.570068359375C-96.60488891601562 1889.2099609375 -152.5260009765625 1688.449951171875 -163.85000610351562 1479.1099853515625C-165.4810028076172 1448.9100341796875 -166.29800415039062 1418.5999755859375 -166.29800415039062 1388.1500244140625C-166.29800415039062 1175.969970703125 -126.61300659179688 956.9130249023438 -45.763702392578125 721.7249755859375C-24.369094848632812 659.4550170898438 -13.822402954101562 595.3839721679688 -13.822402954101562 531.4329833984375C-13.822402954101562 407.4779968261719 -53.445709228515625 283.97601318359375 -130.49899291992188 174.91900634765625C-174.97999572753906 112.01699829101562 -233.80999755859375 51.59700012207031 -297.2550048828125 3.66424560546875C-301.4049987792969 0.5230255126953125 -304.8179931640625 -2.15283203125 -304.8179931640625 -2.307952880859375C-304.8179931640625 -2.46307373046875 -301.4049987792969 -5.1389312744140625 -297.2550048828125 -8.2801513671875C-239.31700134277344 -52.06340026855469 -184.4429931640625 -106.97698974609375 -141.97799682617188 -163.82899475097656C-57.396392822265625 -276.92498779296875 -13.791793823242188 -406.0849914550781 -13.791793823242188 -535.9630126953125C-13.791793823242188 -599.8569946289062 -24.344802856445312 -663.9249877929688 -45.763702392578125 -726.3410034179688C-71.74659729003906 -802.0009765625 -90.322509765625 -863.89501953125 -105.87300109863281 -926.6420288085938C-145.93099975585938 -1088.2900390625 -165.88099670410156 -1243.989990234375 -165.88099670410156 -1392.030029296875C-165.88099670410156 -1636.4100341796875 -111.51800537109375 -1859.9000244140625 -3.4928741455078125 -2054.77001953125C-1.16619873046875 -2058.969970703125 0.0 -2062.419921875 0.0 -2065.169921875C0.0 -2068.969970703125 -2.232177734375 -2071.429931640625 -6.711669921875 -2072.64990234375C-7.880096435546875 -2072.9599609375 -8.896636962890625 -2073.139892578125 -9.8291015625 -2073.139892578125C-13.631805419921875 -2073.139892578125 -16.036300659179688 -2070.06005859375 -21.642196655273438 -2060.0C-183.00100708007812 -1770.2900390625 -268.218994140625 -1462.989990234375 -268.218994140625 -1173.18994140625C-268.218994140625 -1151.72998046875 -267.7510070800781 -1130.3599853515625 -266.81298828125 -1109.0999755859375C-260.06500244140625 -956.697021484375 -234.93499755859375 -825.656982421875 -184.01600646972656 -677.2830200195312C-153.5070037841797 -588.3759765625 -138.65199279785156 -500.9530029296875 -138.65199279785156 -418.88299560546875C-138.65199279785156 -249.54299926757812 -201.8990020751953 -102.99600219726562 -321.37701416015625 -13.244094848632812C-327.8529968261719 -8.35772705078125 -328.822998046875 -7.2718658447265625 -329.5979919433594 -4.130645751953125C-329.79901123046875 -3.2923431396484375 -329.9110107421875 -2.5294952392578125 -329.9110107421875 -1.8056640625C-329.9110107421875 1.3882598876953125 -327.73199462890625 3.8225860595703125 -321.37701416015625 8.628158569335938C-202.73399353027344 97.76190185546875 -138.7429962158203 243.1580047607422 -138.7429962158203 413.8609924316406C-138.7429962158203 461.6600036621094 -143.76100158691406 511.4429931640625 -154.0 562.531005859375C-162.2989959716797 603.8319702148438 -171.218994140625 635.6710205078125 -189.2519989013672 687.9860229492188C-242.1490020751953 841.6589965820312 -268.3609924316406 1002.989990234375 -268.3609924316406 1167.9000244140625C-268.3609924316406 1455.27001953125 -188.76300048828125 1753.510009765625 -32.0740966796875 2041.0400390625C-15.282196044921875 2071.8701171875 -15.553604125976562 2071.47998046875 -11.326507568359375 2072.639892578125Z" fill="black" /></g></svg>