<?xml version="1.0" encoding="utf-8" ?>
<svg baseProfile="tiny" height="100%" version="1.2" width="100%" xmlns="http://www.w3.org/2000/svg" xmlns:ev="http://www.w3.org/2001/xml-events" xmlns:xlink="http://www.w3.org/1999/xlink"><defs /><g transform="translate(0, 1000) scale(1, -1)"><path d="M-19.14849853515625 548.8569946289062C-18.890106201171875 548.8779907226562 -18.633895874023438 548.8880004882812 -18.380203247070312 548.8880004882812C-13.344894409179688 548.8880004882812 -9.30426025390625 544.9340209960938 -9.30426025390625 539.8350219726562C-9.30426025390625 537.75 -9.638992309570312 536.822021484375 -11.7843017578125 532.9119873046875C-34.58099365234375 491.3710021972656 -45.97930908203125 443.4570007324219 -45.97930908203125 389.0039978027344C-45.97930908203125 333.0459899902344 -33.94189453125 270.1820068359375 -9.867218017578125 200.23199462890625C-6.2003631591796875 189.5970001220703 -4.4810638427734375 183.6179962158203 -3.035614013671875 176.48199462890625C-1.0343017578125 166.57000732421875 0.0 155.5189971923828 0.0 145.06199645996094C0.0 138.82400512695312 -0.368072509765625 132.79800415039062 -1.1185150146484375 127.35198974609375C-2.2444305419921875 119.30300903320312 -3.1573333740234375 114.4949951171875 -4.7853546142578125 108.18099975585938C-14.93389892578125 68.91049194335938 -39.262908935546875 35.163299560546875 -81.33279418945312 1.9942474365234375C-83.08248901367188 0.6248931884765625 -84.49749755859375 -0.5466766357421875 -84.49749755859375 -0.6075439453125C-84.49749755859375 -0.66839599609375 -83.08248901367188 -1.8399658203125 -81.33279418945312 -3.2093353271484375C-34.135406494140625 -40.42559814453125 -8.528289794921875 -79.3916015625 -1.7423248291015625 -124.38299560546875C-0.8294219970703125 -130.42300415039062 -0.6164093017578125 -132.4010009765625 -0.2664642333984375 -138.30499267578125C-0.0908660888671875 -141.2530059814453 -0.003692626953125 -144.21499633789062 -0.003692626953125 -147.18299865722656C-0.003692626953125 -163.75900268554688 -2.723663330078125 -180.5 -7.950103759765625 -195.8179931640625C-22.997894287109375 -239.927001953125 -31.685699462890625 -272.2279968261719 -38.152191162109375 -308.1059875488281C-43.334503173828125 -336.7950134277344 -45.927001953125 -364.0169982910156 -45.927001953125 -389.7919921875C-45.927001953125 -443.77801513671875 -34.55389404296875 -491.4179992675781 -11.7843017578125 -532.9099731445312C-9.638992309570312 -536.8200073242188 -9.30426025390625 -537.7479858398438 -9.30426025390625 -539.8330078125C-9.30426025390625 -545.2750244140625 -13.752304077148438 -548.8880004882812 -18.386199951171875 -548.8880004882812C-20.592498779296875 -548.8880004882812 -22.84100341796875 -548.0689697265625 -24.671600341796875 -546.2379760742188C-25.782302856445312 -545.1270141601562 -26.999496459960938 -543.0430297851562 -33.19200134277344 -531.6160278320312C-80.66349792480469 -443.92401123046875 -104.0050048828125 -364.68701171875 -104.0050048828125 -289.28399658203125C-104.0050048828125 -256.77801513671875 -99.66720581054688 -224.98599243164062 -91.0552978515625 -193.53599548339844C-88.97079467773438 -185.9429931640625 -87.60140991210938 -181.5919952392578 -83.08248901367188 -168.20199584960938C-73.25860595703125 -139.17599487304688 -68.27799987792969 -112.67800903320312 -68.27799987792969 -89.85870361328125C-68.27799987792969 -81.50630187988281 -68.94529724121094 -73.64689636230469 -70.28659057617188 -66.33700561523438C-74.71420288085938 -42.17529296875 -86.58200073242188 -21.86309814453125 -103.7449951171875 -9.051956176757812C-107.6090087890625 -6.1762847900390625 -108.87200927734375 -4.0918121337890625 -108.87200927734375 -0.6075439453125C-108.87200927734375 2.8767242431640625 -107.6090087890625 4.961212158203125 -103.7449951171875 7.8368682861328125C-98.96719360351562 11.397201538085938 -92.68328857421875 17.559402465820312 -88.97079467773438 22.306503295898438C-75.16140747070312 39.96800231933594 -68.26570129394531 61.97589111328125 -68.26570129394531 88.71910095214844C-68.26570129394531 112.36199951171875 -73.65519714355469 139.70599365234375 -84.4215087890625 171.0189971923828C-97.52560424804688 209.10000610351562 -104.07699584960938 248.2740020751953 -104.07699584960938 288.5369873046875C-104.07699584960938 329.8030090332031 -97.1947021484375 372.2120056152344 -83.4324951171875 415.7550048828125C-70.9407958984375 455.2690124511719 -52.697906494140625 496.5320129394531 -28.231903076171875 540.656005859375C-24.701995849609375 547.031005859375 -23.013092041015625 548.552978515625 -19.14849853515625 548.8569946289062Z" fill="black" /></g></svg>