<?xml version="1.0" encoding="utf-8" ?>
<svg baseProfile="tiny" height="100%" version="1.2" width="100%" xmlns="http://www.w3.org/2000/svg" xmlns:ev="http://www.w3.org/2001/xml-events" xmlns:xlink="http://www.w3.org/1999/xlink"><defs /><g transform="translate(0, 1000) scale(1, -1)"><path d="M-17.577606201171875 417.906005859375C-17.178802490234375 417.95098876953125 -16.772903442382812 417.98199462890625 -16.555999755859375 417.98199462890625C-16.497100830078125 417.98199462890625 -16.452102661132812 417.9800109863281 -16.425003051757812 417.9750061035156C-16.298202514648438 417.9519958496094 -15.860198974609375 417.906005859375 -15.445205688476562 417.8710021972656C-11.422607421875 417.4909973144531 -8.068405151367188 414.0559997558594 -7.6304168701171875 409.8949890136719C-7.59454345703125 409.531005859375 -7.5753631591796875 409.18499755859375 -7.5753631591796875 408.8500061035156C-7.5753631591796875 407.135986328125 -8.0753173828125 405.6809997558594 -9.40545654296875 403.2909851074219C-26.211502075195312 373.0060119628906 -34.723602294921875 337.3810119628906 -34.723602294921875 297.60198974609375C-34.723602294921875 289.010009765625 -34.32640075683594 280.2239990234375 -33.529998779296875 271.2569885253906C-30.464004516601562 236.57400512695312 -21.346694946289062 196.26699829101562 -7.296142578125 155.2790069580078C-3.7460479736328125 144.88299560546875 -3.8382568359375 145.1820068359375 -2.4781494140625 139.85699462890625C-1.4984130859375 135.99600219726562 -0.9682159423828125 133.4250030517578 -0.4034271240234375 129.7480010986328L0.0 127.14399719238281V111.32899475097656V95.51539611816406L-0.4034271240234375 92.91038513183594C-5.2329559326171875 61.72029113769531 -23.283111572265625 32.68548583984375 -53.49351501464844 7.477508544921875L-61.29692077636719 1.0919342041015625C-62.32270812988281 0.2735748291015625 -63.16410827636719 -0.4295196533203125 -63.16410827636719 -0.4756317138671875C-63.16410827636719 -0.521728515625 -62.32270812988281 -1.2248382568359375 -61.29692077636719 -2.0431976318359375L-53.49351501464844 -8.42877197265625C-23.283111572265625 -33.63679504394531 -5.2329559326171875 -62.6715087890625 -0.4034423828125 -93.8616943359375L-1.52587890625e-05 -96.46658325195312V-112.28097534179688V-128.094970703125L-0.4034423828125 -130.69996643066406C-0.9682464599609375 -134.376953125 -1.498443603515625 -136.94696044921875 -2.478179931640625 -140.80795288085938C-3.8037109375 -146.0299530029297 -4.0457611083984375 -146.78994750976562 -6.7890167236328125 -154.7549591064453C-22.948928833007812 -201.59796142578125 -32.573333740234375 -246.97695922851562 -34.34843444824219 -284.72596740722656C-34.5626220703125 -289.2499542236328 -34.66963195800781 -293.72496032714844 -34.66963195800781 -298.14796447753906C-34.66963195800781 -337.51795959472656 -26.196624755859375 -372.8439483642578 -9.451583862304688 -403.20396423339844C-8.086944580078125 -405.6929473876953 -7.571624755859375 -407.14894104003906 -7.571624755859375 -408.8529510498047C-7.571624755859375 -409.1929473876953 -7.5921173095703125 -409.54295349121094 -7.6304473876953125 -409.91294860839844C-8.139968872070312 -414.8329620361328 -12.251327514648438 -417.98194885253906 -16.610733032226562 -417.98194885253906C-18.562728881835938 -417.98194885253906 -20.564529418945312 -417.35096740722656 -22.314926147460938 -415.9639434814453C-23.421432495117188 -415.09996032714844 -24.043930053710938 -414.20094299316406 -25.957229614257812 -410.7539520263672C-66.28742980957031 -338.16395568847656 -85.0615234375 -277.0509490966797 -85.0615234375 -217.2259521484375C-85.0615234375 -210.3179473876953 -84.81123352050781 -203.4269561767578 -84.31494140625 -196.53794860839844C-82.68972778320312 -174.0039520263672 -78.28662109375 -152.7259521484375 -70.40263366699219 -129.28195190429688C-62.66853332519531 -106.29896545410156 -59.372039794921875 -91.80995178222656 -57.90812683105469 -74.24385070800781C-57.66783142089844 -71.36065673828125 -57.54913330078125 -68.51826477050781 -57.54913330078125 -65.72415161132812C-57.54913330078125 -41.575958251953125 -66.42083740234375 -21.026962280273438 -82.41302490234375 -8.774505615234375C-84.71832275390625 -7.010986328125 -84.77593994140625 -6.953338623046875 -85.37533569335938 -6.2041473388671875C-86.72393798828125 -4.5040130615234375 -87.39822387695312 -2.4897918701171875 -87.39822387695312 -0.4755706787109375C-87.39822387695312 1.5386505126953125 -86.72393798828125 3.5528717041015625 -85.37533569335938 5.25299072265625C-84.77593994140625 6.0022125244140625 -84.71832275390625 6.059844970703125 -82.41302490234375 7.8233642578125C-66.42083740234375 20.075851440429688 -57.54913330078125 40.624847412109375 -57.54913330078125 64.77294921875C-57.54913330078125 67.56715393066406 -57.66783142089844 70.40943908691406 -57.90812683105469 73.29273986816406C-59.36042785644531 90.67434692382812 -62.53022766113281 104.748046875 -70.07992553710938 127.35104370117188C-79.58914184570312 155.821044921875 -83.49652099609375 176.4180450439453 -84.94882202148438 205.78704833984375C-85.08982849121094 208.65704345703125 -85.15913391113281 212.13905334472656 -85.15913391113281 215.85304260253906C-85.15913391113281 220.9410400390625 -85.02912902832031 226.46304321289062 -84.77593994140625 231.43304443359375C-81.90592956542969 286.7140350341797 -63.24482727050781 343.60704040527344 -25.957229614257812 410.7250518798828C-22.995025634765625 416.0620574951172 -21.32373046875 417.4910430908203 -17.57763671875 417.9060516357422Z" fill="black" /></g></svg>