<?xml version="1.0" encoding="utf-8" ?>
<svg baseProfile="tiny" height="100%" version="1.2" width="100%" xmlns="http://www.w3.org/2000/svg" xmlns:ev="http://www.w3.org/2001/xml-events" xmlns:xlink="http://www.w3.org/1999/xlink"><defs /><g transform="translate(0, 1000) scale(1, -1)"><path d="M-11.584793090820312 1293.22998046875C-11.062591552734375 1293.31005859375 -10.546981811523438 1293.3499755859375 -10.041290283203125 1293.3499755859375C-5.0499267578125 1293.3499755859375 -1.01507568359375 1289.4599609375 -1.01507568359375 1284.280029296875C-1.0150909423828125 1281.8800048828125 -1.275726318359375 1281.2099609375 -5.4167022705078125 1273.739990234375C-67.43910217285156 1161.1600341796875 -99.06500244140625 1029.4300537109375 -99.06500244140625 884.7210083007812C-99.06500244140625 860.114990234375 -98.15060424804688 835.1339721679688 -96.3157958984375 809.8079833984375C-88.29440307617188 698.7540283203125 -63.12989807128906 579.823974609375 -23.16790771484375 464.04998779296875C-18.245101928710938 449.802001953125 -16.912994384765625 445.74798583984375 -14.972793579101562 439.2909851074219C-4.93731689453125 405.5249938964844 0.0 371.10400390625 0.0 336.7829895019531C0.0 251.86399841308594 -30.224502563476562 167.55299377441406 -88.23651123046875 95.2698974609375C-100.8330078125 79.54570007324219 -120.55400085449219 57.53770446777344 -128.97999572753906 49.805908203125L-134.71400451660156 44.30390930175781C-148.4110107421875 31.099014282226562 -166.65501403808594 15.40380859375 -183.65301513671875 2.3148345947265625C-186.20101928710938 0.3746490478515625 -188.2860107421875 -1.3338623046875 -188.2860107421875 -1.4496917724609375C-188.2860107421875 -1.5655364990234375 -186.20101928710938 -3.2740478515625 -183.65301513671875 -5.2142333984375C-166.65501403808594 -18.303176879882812 -148.4110107421875 -33.99848937988281 -134.71401977539062 -47.20329284667969L-128.98001098632812 -52.705291748046875C-125.41903686523438 -55.97760009765625 -110.07102966308594 -72.30990600585938 -103.4100341796875 -79.92579650878906C-35.196533203125 -157.86399841308594 -0.09661865234375 -246.25799560546875 -0.09661865234375 -338.74700927734375C-0.09661865234375 -358.6289978027344 -1.7186279296875 -378.70001220703125 -4.98236083984375 -398.89801025390625C-8.486282348632812 -420.5870056152344 -13.032623291015625 -437.6440124511719 -23.167938232421875 -466.9490051269531C-62.92723083496094 -582.114990234375 -88.03382873535156 -700.7559814453125 -96.05513000488281 -811.114013671875C-97.88742065429688 -836.39599609375 -98.80072021484375 -861.3309936523438 -98.80072021484375 -885.8889770507812C-98.80072021484375 -1030.1600341796875 -67.28121948242188 -1161.449951171875 -5.4167327880859375 -1273.75C-1.2757568359375 -1281.219970703125 -1.0151214599609375 -1281.8800048828125 -1.0151214599609375 -1284.2900390625C-1.01513671875 -1289.550048828125 -5.1492767333984375 -1293.3499755859375 -10.082443237304688 -1293.3499755859375C-11.118148803710938 -1293.3499755859375 -12.189041137695312 -1293.18994140625 -13.26434326171875 -1292.8299560546875C-16.5655517578125 -1291.72998046875 -17.49224853515625 -1290.280029296875 -31.247238159179688 -1264.739990234375C-120.00303649902344 -1100.0899658203125 -171.2010498046875 -932.7960205078125 -181.0470428466797 -775.4959716796875C-182.2670440673828 -755.7080078125 -182.93504333496094 -731.0380249023438 -182.93504333496094 -709.6729736328125C-182.93504333496094 -698.5850219726562 -182.7550506591797 -688.3870239257812 -182.37904357910156 -680.2239990234375C-179.13604736328125 -611.2750244140625 -171.34603881835938 -556.573974609375 -156.2880401611328 -496.7760009765625C-148.64305114746094 -466.4570007324219 -144.47305297851562 -452.614990234375 -131.38404846191406 -413.95599365234375C-114.70405578613281 -364.66900634765625 -105.87205505371094 -320.8559875488281 -102.3680419921875 -269.8900146484375C-102.12205505371094 -266.2120056152344 -101.99903869628906 -256.27301025390625 -101.99903869628906 -246.37600708007812C-101.99903869628906 -236.47999572753906 -102.12205505371094 -226.6269989013672 -102.3680419921875 -223.1230010986328C-109.08604431152344 -129.58900451660156 -144.09603881835938 -57.917694091796875 -205.60304260253906 -11.758697509765625C-212.0030517578125 -6.9517364501953125 -213.10304260253906 -5.4459075927734375 -213.10304260253906 -1.44970703125C-213.10304260253906 2.546478271484375 -212.0030517578125 4.05230712890625 -205.60304260253906 8.85931396484375C-144.09603881835938 55.01829528808594 -109.08604431152344 126.74700927734375 -102.3680419921875 220.2239990234375C-102.12205505371094 223.71299743652344 -101.99903869628906 233.47900390625 -101.99903869628906 243.31700134277344C-101.99903869628906 253.156005859375 -102.12205505371094 263.0669860839844 -102.3680419921875 266.84600830078125C-105.72703552246094 317.17498779296875 -114.70405578613281 361.7699890136719 -131.38404846191406 411.0559997558594C-144.6470489501953 450.2080078125 -149.10604858398438 465.0920104980469 -156.83804321289062 496.0480041503906C-171.78004455566406 555.7880249023438 -179.48304748535156 610.5479736328125 -182.63905334472656 679.2069702148438C-183.0310516357422 687.5869750976562 -183.21804809570312 697.864013671875 -183.21804809570312 708.9869995117188C-183.21804809570312 731.6129760742188 -182.44505310058594 757.7410278320312 -181.0470428466797 778.5330200195312C-170.47705078125 935.9199829101562 -119.19303894042969 1101.9100341796875 -30.233749389648438 1266.6199951171875C-16.739349365234375 1291.6400146484375 -16.131240844726562 1292.510009765625 -11.5848388671875 1293.22998046875Z" fill="black" /></g></svg>