<?xml version="1.0" encoding="utf-8" ?>
<svg baseProfile="tiny" height="100%" version="1.2" width="100%" xmlns="http://www.w3.org/2000/svg" xmlns:ev="http://www.w3.org/2001/xml-events" xmlns:xlink="http://www.w3.org/1999/xlink"><defs /><g transform="translate(0, 1000) scale(1, -1)"><path d="M-18.479202270507812 432.0150146484375C-18.0482177734375 432.0710144042969 -17.622314453125 432.0979919433594 -17.203323364257812 432.0979919433594C-12.208023071289062 432.0979919433594 -8.1885986328125 428.2090148925781 -8.1885986328125 423.0719909667969C-8.200515747070312 420.9129943847656 -8.427078247070312 420.197998046875 -10.191909790039062 416.989990234375C-27.552413940429688 385.2799987792969 -36.23670959472656 349.12200927734375 -36.23670959472656 307.7279968261719C-36.23670959472656 264.02398681640625 -26.556716918945312 214.48399353027344 -7.18695068359375 158.1750030517578C-4.5994110107421875 150.6510009765625 -4.3728485107421875 149.8990020751953 -3.1088714599609375 144.9980010986328C-1.8925933837890625 140.2530059814453 -1.46331787109375 138.1179962158203 -0.5093841552734375 131.9409942626953L-0.0681915283203125 129.0800018310547L-0.0204925537109375 115.78399658203125C-0.0099639892578125 112.56399536132812 -1.52587890625e-05 110.10699462890625 -1.52587890625e-05 108.17300415039062C-1.52587890625e-05 101.34799194335938 -0.1239471435546875 101.04000854492188 -0.7836456298828125 96.72920227050781C-6.2091827392578125 61.2069091796875 -26.349212646484375 30.704696655273438 -63.87481689453125 1.1922149658203125C-64.99562072753906 0.309814453125 -65.92570495605469 -0.44140625 -65.92570495605469 -0.4771881103515625C-65.92570495605469 -0.5129547119140625 -64.99562072753906 -1.2641754150390625 -63.87481689453125 -2.146575927734375C-26.349212646484375 -31.659103393554688 -6.2091827392578125 -62.16119384765625 -0.7836456298828125 -97.68350219726562C-0.1239471435546875 -101.9949951171875 -1.52587890625e-05 -102.302001953125 -1.52587890625e-05 -109.12799072265625C-1.52587890625e-05 -111.06199645996094 -0.0099639892578125 -113.51899719238281 -0.0204925537109375 -116.73800659179688L-0.0681915283203125 -130.03399658203125L-0.5093841552734375 -132.89599609375C-1.46331787109375 -139.072998046875 -1.8925933837890625 -141.20700073242188 -3.1088714599609375 -145.9530029296875C-4.3728485107421875 -150.86599731445312 -4.5397796630859375 -151.41400146484375 -7.07965087890625 -158.7830047607422C-26.474212646484375 -215.19000244140625 -36.166717529296875 -264.6409912109375 -36.166717529296875 -308.22198486328125C-36.166717529296875 -349.41900634765625 -27.505722045898438 -385.3699951171875 -10.191909790039062 -416.9909973144531C-8.427078247070312 -420.197998046875 -8.200515747070312 -420.91400146484375 -8.1885986328125 -423.0719909667969C-8.1885986328125 -428.6050109863281 -12.698410034179688 -432.0979919433594 -17.309219360351562 -432.0979919433594C-19.932510375976562 -432.0979919433594 -22.588516235351562 -430.9679870605469 -24.4652099609375 -428.43798828125C-25.013717651367188 -427.6990051269531 -30.188812255859375 -418.2900085449219 -34.06422424316406 -410.968994140625C-70.09451293945312 -343.0329895019531 -87.61912536621094 -282.5140075683594 -87.61912536621094 -224.99000549316406C-87.61912536621094 -211.00900268554688 -86.58390808105469 -197.2050018310547 -84.52751159667969 -183.51400756835938C-81.74922180175781 -165.00799560546875 -78.30311584472656 -151.17599487304688 -71.44660949707031 -131.04800415039062C-63.32160949707031 -107.21701049804688 -59.238311767578125 -86.13200378417969 -59.238311767578125 -68.19349670410156C-59.238311767578125 -59.04209899902344 -60.30101013183594 -50.7095947265625 -62.431915283203125 -43.24940490722656C-66.53392028808594 -28.880706787109375 -74.46351623535156 -16.837203979492188 -85.15951538085938 -8.752593994140625C-88.89181518554688 -5.9384765625 -90.06040954589844 -3.970977783203125 -90.06040954589844 -0.4771881103515625C-90.06040954589844 3.0166168212890625 -88.89181518554688 4.9841156005859375 -85.15951538085938 7.7982330322265625C-74.46351623535156 15.882904052734375 -66.53392028808594 27.926300048828125 -62.431915283203125 42.29499816894531C-60.30500793457031 49.74940490722656 -59.24481201171875 58.0819091796875 -59.24481201171875 67.23139953613281C-59.24481201171875 85.01170349121094 -63.24861145019531 105.87699890136719 -71.20820617675781 129.3780059814453C-74.55891418457031 139.28700256347656 -75.79902648925781 143.197998046875 -77.26571655273438 148.45599365234375C-84.20121765136719 173.4010009765625 -87.68022155761719 198.65199279785156 -87.68022155761719 224.447998046875C-87.68022155761719 268.1499938964844 -77.69491577148438 313.41900634765625 -57.61451721191406 361.4230041503906C-48.95751953125 382.1239929199219 -36.66361999511719 407.08099365234375 -25.168716430664062 427.2929992675781C-23.690109252929688 429.8919982910156 -21.197921752929688 431.6570129394531 -18.479217529296875 432.0150146484375Z" fill="black" /></g></svg>