<?xml version="1.0" encoding="utf-8" ?>
<svg baseProfile="tiny" height="100%" version="1.2" width="100%" xmlns="http://www.w3.org/2000/svg" xmlns:ev="http://www.w3.org/2001/xml-events" xmlns:xlink="http://www.w3.org/1999/xlink"><defs /><g transform="translate(0, 1000) scale(1, -1)"><path d="M-11.558700561523438 3646.169921875C-10.715316772460938 3646.31005859375 -9.902145385742188 3646.3798828125 -9.125015258789062 3646.3798828125C-3.7328338623046875 3646.3798828125 -0.0749664306640625 3642.949951171875 -0.0749664306640625 3637.550048828125C-0.0749664306640625 3637.47998046875 -0.07550048828125 3637.419921875 -0.0765838623046875 3637.35009765625C-0.0765838623046875 3634.02001953125 -0.1790924072265625 3633.81005859375 -5.8176422119140625 3623.7099609375C-182.86801147460938 3308.110107421875 -286.77101135253906 2931.14990234375 -305.4810028076172 2536.760009765625C-307.71800231933594 2489.419921875 -308.8360137939453 2441.919921875 -308.8360137939453 2394.27001953125C-308.8360137939453 2027.010009765625 -242.4140167236328 1650.5799560546875 -109.92601013183594 1267.31005859375C-69.94821166992188 1151.6500244140625 -49.950714111328125 1034.969970703125 -49.950714111328125 918.0479736328125C-49.950714111328125 824.333984375 -62.797210693359375 730.4600219726562 -88.49931335449219 636.8189697265625C-155.54701232910156 392.4649963378906 -316.7580108642578 163.18099975585938 -535.2270050048828 1.4569854736328125C-539.2249908447266 -1.5160675048828125 -542.5050201416016 -4.0277862548828125 -542.5050201416016 -4.1815643310546875C-542.5050201416016 -4.3353424072265625 -539.2249908447266 -6.8470611572265625 -535.2270050048828 -9.820114135742188C-316.8090057373047 -171.54400634765625 -155.54701232910156 -400.8280029296875 -88.49931335449219 -645.1829833984375C-62.797210693359375 -738.822998046875 -49.950714111328125 -832.7379760742188 -49.950714111328125 -926.47900390625C-49.950714111328125 -1043.43994140625 -69.94821166992188 -1160.1199951171875 -109.92601013183594 -1275.6800537109375C-242.30601501464844 -1658.280029296875 -308.19102478027344 -2037.3599853515625 -308.19102478027344 -2397.860107421875C-308.19102478027344 -2837.219970703125 -210.32901000976562 -3248.989990234375 -15.710708618164062 -3605.93994140625L-3.1521453857421875 -3628.75C-1.0269012451171875 -3632.4599609375 -1.52587890625e-05 -3635.800048828125 -1.52587890625e-05 -3638.550048828125C-1.52587890625e-05 -3643.3701171875 -3.143341064453125 -3646.3798828125 -9.047012329101562 -3646.3798828125H-10.096420288085938C-15.115219116210938 -3646.3798828125 -15.593109130859375 -3645.1201171875 -38.11122131347656 -3603.889892578125C-275.44300842285156 -3169.360107421875 -411.58802795410156 -2701.610107421875 -433.88600158691406 -2244.739990234375C-436.17002868652344 -2197.800048828125 -437.3140106201172 -2151.169921875 -437.3140106201172 -2104.800048828125C-437.3140106201172 -1798.3900146484375 -387.3360137939453 -1503.760009765625 -286.0020294189453 -1211.5999755859375C-234.4130096435547 -1062.9000244140625 -209.40402221679688 -914.405029296875 -209.40402221679688 -773.0540161132812C-209.40402221679688 -461.7460021972656 -330.7050018310547 -185.07901000976562 -556.4990386962891 -17.099014282226562C-566.9050445556641 -9.358795166015625 -567.3660430908203 -8.794952392578125 -567.3660430908203 -4.18157958984375C-567.3660430908203 0.4317779541015625 -566.9050445556641 0.995635986328125 -556.4990386962891 8.73583984375C-330.7060089111328 176.7139892578125 -209.38201904296875 453.5009765625 -209.38201904296875 764.7979431152344C-209.38201904296875 906.1479797363281 -234.39601135253906 1054.6099548339844 -286.0020294189453 1203.2399597167969C-387.66700744628906 1496.0999450683594 -438.1320037841797 1793.7699890136719 -438.1320037841797 2101.389862060547C-438.1320037841797 2164.149871826172 -436.03102111816406 2227.330047607422 -431.8360137939453 2290.969940185547C-401.90000915527344 2743.899871826172 -258.98902893066406 3210.719940185547 -19.65771484375 3637.249969482422C-16.4796142578125 3642.939910888672 -13.86541748046875 3645.810028076172 -11.5587158203125 3646.169891357422Z" fill="black" /></g></svg>