<?xml version="1.0" encoding="utf-8" ?>
<svg baseProfile="tiny" height="100%" version="1.2" width="100%" xmlns="http://www.w3.org/2000/svg" xmlns:ev="http://www.w3.org/2001/xml-events" xmlns:xlink="http://www.w3.org/1999/xlink"><defs /><g transform="translate(0, 1000) scale(1, -1)"><path d="M-19.4873046875 467.8699951171875C-19.014999389648438 467.9410095214844 -18.548095703125 467.9750061035156 -18.088897705078125 467.9750061035156C-13.178497314453125 467.9750061035156 -9.165176391601562 464.0539855957031 -9.165176391601562 458.9320068359375C-9.165176391601562 456.7720031738281 -9.39801025390625 456.0350036621094 -11.118392944335938 452.9169921875C-27.46820068359375 423.23199462890625 -36.80729675292969 389.8330078125 -39.277801513671875 352.2179870605469C-39.673492431640625 346.1839904785156 -39.87060546875 339.9800109863281 -39.87060546875 333.6180114746094C-39.87060546875 286.1130065917969 -28.887405395507812 229.74899291992188 -7.61297607421875 168.6060028076172C-2.5150146484375 153.95799255371094 0.0 139.13600158691406 0.0 124.46701049804688C0.0 92.39010620117188 -12.027297973632812 61.045806884765625 -35.371490478515625 33.84950256347656C-44.4906005859375 23.216903686523438 -54.87739562988281 13.399200439453125 -68.76959228515625 2.2880859375C-70.61929321289062 0.8005523681640625 -72.1326904296875 -0.454132080078125 -72.1326904296875 -0.5188140869140625C-72.1326904296875 -0.5834808349609375 -70.61929321289062 -1.8381805419921875 -68.76959228515625 -3.325714111328125C-45.9263916015625 -21.615798950195312 -30.7666015625 -38.069091796875 -19.526092529296875 -56.78599548339844C-6.5742340087890625 -78.34310913085938 -0.00787353515625 -101.84201049804688 -0.00787353515625 -125.59700012207031C-0.00787353515625 -140.2270050048828 -2.4986419677734375 -154.9550018310547 -7.5224456787109375 -169.38499450683594C-28.962295532226562 -230.9810028076172 -39.67779541015625 -285.41400146484375 -39.67779541015625 -333.4549865722656C-39.67779541015625 -378.74200439453125 -30.155502319335938 -418.3479919433594 -11.118392944335938 -452.9200134277344C-9.39801025390625 -456.0379943847656 -9.165176391601562 -456.7749938964844 -9.165176391601562 -458.93499755859375C-9.165176391601562 -464.34698486328125 -13.427993774414062 -467.9750061035156 -18.087295532226562 -467.9750061035156C-20.031600952148438 -467.9750061035156 -22.044998168945312 -467.3429870605469 -23.846405029296875 -465.9460144042969C-25.23040771484375 -464.87200927734375 -26.16180419921875 -463.3330078125 -32.51280212402344 -451.56201171875C-73.55490112304688 -375.52801513671875 -93.360107421875 -308.8240051269531 -93.360107421875 -244.77699279785156C-93.360107421875 -226.38699340820312 -91.727294921875 -208.2169952392578 -88.49549865722656 -190.10699462890625C-85.85679626464844 -175.3090057373047 -82.53250122070312 -162.6199951171875 -76.72470092773438 -145.26100158691406C-75.09480285644531 -140.38499450683594 -73.50379943847656 -135.55999755859375 -73.18049621582031 -134.52499389648438C-66.20709228515625 -112.05999755859375 -62.718505859375 -92.23739624023438 -62.718505859375 -74.89678955078125C-62.718505859375 -55.21490478515625 -67.21279907226562 -38.73089599609375 -76.20730590820312 -25.211700439453125C-80.1654052734375 -19.248703002929688 -85.80499267578125 -13.11749267578125 -90.7720947265625 -9.3792724609375C-93.94110107421875 -6.999237060546875 -94.54910278320312 -6.39129638671875 -95.44158935546875 -4.787353515625C-96.12710571289062 -3.54559326171875 -96.46990966796875 -2.0322113037109375 -96.46990966796875 -0.5188140869140625C-96.46990966796875 0.9945831298828125 -96.12710571289062 2.5079803466796875 -95.44158935546875 3.7497406005859375C-94.54910278320312 5.3536834716796875 -93.94110107421875 5.9616241455078125 -90.7720947265625 8.341659545898438C-87.08560180664062 11.122695922851562 -81.83399963378906 16.451904296875 -78.76840209960938 20.539398193359375C-68.029296875 34.852294921875 -62.70599365234375 52.35060119628906 -62.70599365234375 73.66889953613281C-62.70599365234375 83.83120727539062 -63.91560363769531 94.86160278320312 -66.32489013671875 106.82901000976562C-68.83428955078125 119.28500366210938 -71.05909729003906 127.30499267578125 -76.72470092773438 144.2239990234375C-83.41200256347656 164.20799255371094 -86.9949951171875 178.6439971923828 -89.78900146484375 196.74000549316406C-92.21620178222656 212.52200317382812 -93.44239807128906 228.35499572753906 -93.44239807128906 244.3459930419922C-93.44239807128906 311.02099609375 -72.12649536132812 380.4530029296875 -27.662200927734375 460.4200134277344C-24.57080078125 465.98199462890625 -23.096206665039062 467.3269958496094 -19.4873046875 467.8699951171875Z" fill="black" /></g></svg>