<?xml version="1.0" encoding="utf-8" ?>
<svg baseProfile="tiny" height="100%" version="1.2" width="100%" xmlns="http://www.w3.org/2000/svg" xmlns:ev="http://www.w3.org/2001/xml-events" xmlns:xlink="http://www.w3.org/1999/xlink"><defs /><g transform="translate(0, 1000) scale(1, -1)"><path d="M-15.694198608398438 365.87200927734375C-15.149383544921875 365.9339904785156 -14.835678100585938 365.9639892578125 -14.523590087890625 365.9639892578125C-14.224884033203125 365.9639892578125 -13.927581787109375 365.9360046386719 -13.430587768554688 365.8819885253906C-8.856002807617188 365.36700439453125 -5.478057861328125 361.47100830078125 -5.478057861328125 356.93701171875C-5.478057861328125 356.6050109863281 -5.49615478515625 356.2699890136719 -5.533203125 355.9320068359375C-5.6941680908203125 354.4840087890625 -6.0664215087890625 353.51800537109375 -7.3843231201171875 351.1130065917969C-21.846084594726562 324.7250061035156 -29.090789794921875 295.114013671875 -29.090789794921875 260.87200927734375C-29.090789794921875 223.50999450683594 -20.465484619140625 180.63400268554688 -3.1790771484375 130.41799926757812C-2.2434539794921875 127.6820068359375 -1.730377197265625 125.93099975585938 -0.7545166015625 122.08799743652344L1.52587890625e-05 119.08999633789062V97.27940368652344V75.46839904785156L-0.7444610595703125 72.51069641113281C-7.162994384765625 47.11820983886719 -21.680191040039062 25.890716552734375 -47.20338439941406 4.5526275634765625C-49.04447937011719 3.0133819580078125 -52.23358154296875 0.4379119873046875 -53.06858825683594 -0.195892333984375L-53.3704833984375 -0.4172210693359375L-53.06858825683594 -0.6385498046875C-52.23358154296875 -1.272369384765625 -49.04447937011719 -3.8478240966796875 -47.20338439941406 -5.3870849609375C-21.680191040039062 -26.725204467773438 -7.162994384765625 -47.95269775390625 -0.7444610595703125 -73.3450927734375L1.52587890625e-05 -76.30288696289062V-98.11378479003906V-119.92498779296875L-0.7645721435546875 -122.9229736328125C-1.9818878173828125 -127.761962890625 -2.1830902099609375 -128.40597534179688 -4.6076507568359375 -135.44796752929688C-20.83038330078125 -182.55096435546875 -28.935592651367188 -224.01397705078125 -28.935592651367188 -260.5339660644531C-28.935592651367188 -294.9239807128906 -21.748382568359375 -324.9329833984375 -7.3843231201171875 -351.1429748535156C-5.9742431640625 -353.7079772949219 -5.463104248046875 -355.115966796875 -5.463104248046875 -356.79296875C-5.463104248046875 -357.1619567871094 -5.48785400390625 -357.5439758300781 -5.533203125 -357.9539794921875C-6.0809783935546875 -362.9349670410156 -10.306381225585938 -365.9639587402344 -14.604583740234375 -365.9639587402344C-17.095382690429688 -365.9639587402344 -19.610580444335938 -364.94696044921875 -21.448776245117188 -362.7029724121094C-22.313980102539062 -361.6559753417969 -27.062484741210938 -353.0339660644531 -32.34419250488281 -342.9239807128906C-61.10418701171875 -287.9059753417969 -75.65048217773438 -236.6279754638672 -75.65048217773438 -190.3779754638672C-75.65048217773438 -187.3479766845703 -75.58808898925781 -184.3399658203125 -75.46308898925781 -181.35397338867188C-74.3765869140625 -155.5689697265625 -70.86549377441406 -136.6959686279297 -62.47508239746094 -111.5849609375C-60.13108825683594 -104.57296752929688 -59.18537902832031 -101.594970703125 -57.95799255371094 -97.29898071289062C-53.74497985839844 -82.54586791992188 -51.595184326171875 -68.8466796875 -51.595184326171875 -56.96726989746094C-51.595184326171875 -52.847564697265625 -51.853790283203125 -48.94677734375 -52.374481201171875 -45.296661376953125C-54.5474853515625 -30.075271606445312 -61.83128356933594 -16.765365600585938 -72.39468383789062 -8.747222900390625C-74.29608154296875 -7.3085784912109375 -74.78907775878906 -6.8759918212890625 -75.36248779296875 -6.1717529296875C-76.73579406738281 -4.491668701171875 -77.42237854003906 -2.454437255859375 -77.42237854003906 -0.417205810546875C-77.42237854003906 1.620025634765625 -76.73579406738281 3.657257080078125 -75.36248779296875 5.3373565673828125C-74.78907775878906 6.0415802001953125 -74.29608154296875 6.4741668701171875 -72.39468383789062 7.912811279296875C-61.83128356933594 15.930923461914062 -54.5474853515625 29.240829467773438 -52.374481201171875 44.46223449707031C-51.81907653808594 48.34562683105469 -51.53718566894531 52.363037109375 -51.53718566894531 56.570037841796875C-51.53718566894531 71.33833312988281 -55.01109313964844 88.4443359375 -62.324188232421875 110.29803466796875C-65.83528137207031 120.81103515625 -66.6702880859375 123.61802673339844 -68.80308532714844 132.14903259277344C-72.16328430175781 145.5590362548828 -74.41679382324219 160.4080352783203 -75.20149230957031 174.1810302734375C-75.58378601074219 181.0420379638672 -75.60398864746094 181.7570343017578 -75.60398864746094 189.17103576660156C-75.59388732910156 197.9240264892578 -75.37257385253906 203.23602294921875 -74.68849182128906 211.0530242919922C-70.73469543457031 256.4250183105469 -53.99418640136719 304.7950439453125 -23.209381103515625 359.8460388183594C-20.96588134765625 363.8600158691406 -18.923583984375 365.5000305175781 -15.694183349609375 365.8720397949219Z" fill="black" /></g></svg>