<?xml version="1.0" encoding="utf-8" ?>
<svg baseProfile="tiny" height="100%" version="1.2" width="100%" xmlns="http://www.w3.org/2000/svg" xmlns:ev="http://www.w3.org/2001/xml-events" xmlns:xlink="http://www.w3.org/1999/xlink"><defs /><g transform="translate(0, 1000) scale(1, -1)"><path d="M-11.37060546875 6123.10009765625C-10.7445068359375 6123.18994140625 -10.1343994140625 6123.22998046875 -9.54327392578125 6123.22998046875C-4.061187744140625 6123.22998046875 -0.2038421630859375 6119.60009765625 -0.2038421630859375 6114.1298828125C-0.2038421630859375 6114.08984375 -0.2040863037109375 6114.0498046875 -0.2045745849609375 6114.0C-0.204559326171875 6111.25 -1.376312255859375 6108.7001953125 -9.992050170898438 6093.259765625C-361.6699981689453 5462.68994140625 -539.0850067138672 4731.419921875 -539.0850067138672 3959.77001953125C-539.0850067138672 3361.3701171875 -432.3889923095703 2738.68994140625 -217.52798461914062 2119.8798828125C-156.87298583984375 1945.0799560546875 -125.37397766113281 1785.0400390625 -116.48298645019531 1606.52001953125C-115.03498840332031 1577.4000244140625 -114.31599426269531 1548.31005859375 -114.31599426269531 1519.280029296875C-114.31599426269531 938.8300170898438 -401.6969757080078 380.5360107421875 -896.3799896240234 8.538543701171875C-907.2020111083984 0.4052734375 -916.0239715576172 -6.41839599609375 -916.0239715576172 -6.6941070556640625C-916.0239715576172 -6.969818115234375 -907.2020111083984 -13.79351806640625 -896.3799896240234 -21.926712036132812C-461.18199157714844 -349.18702697753906 -182.37599182128906 -824.2940216064453 -125.44297790527344 -1335.6600494384766C-118.05497741699219 -1402.0999908447266 -114.37199401855469 -1468.520034790039 -114.37199401855469 -1534.760025024414C-114.37199401855469 -1734.240005493164 -147.7799835205078 -1931.990005493164 -214.0129852294922 -2123.139907836914C-313.19798278808594 -2409.110122680664 -384.25999450683594 -2671.370132446289 -438.0229949951172 -2949.490005493164C-504.60597229003906 -3294.149917602539 -537.5980072021484 -3634.860122680664 -537.5980072021484 -3967.159927368164C-537.5980072021484 -4738.720230102539 -359.7319793701172 -5464.959976196289 -11.508377075195312 -6090.100112915039C-3.4498748779296875 -6104.609878540039 1.52587890625e-05 -6111.379898071289 1.52587890625e-05 -6115.450210571289C1.52587890625e-05 -6118.160171508789 -1.538787841796875 -6119.669937133789 -4.2711944580078125 -6121.459976196289C-6.00946044921875 -6122.620132446289 -7.5975189208984375 -6123.229995727539 -9.1461181640625 -6123.229995727539C-13.24688720703125 -6123.229995727539 -17.070877075195312 -6118.930191040039 -22.674484252929688 -6108.919937133789C-468.6709747314453 -5313.259780883789 -698.2059783935547 -4444.919937133789 -698.2059783935547 -3589.350112915039C-698.2059783935547 -3225.550064086914 -656.7069549560547 -2864.070083618164 -572.7039642333984 -2511.459976196289C-533.3469696044922 -2346.250015258789 -502.3989715576172 -2241.340103149414 -429.61399841308594 -2026.229995727539C-352.1069793701172 -1797.1500396728516 -313.9819793701172 -1564.189956665039 -313.9819793701172 -1338.709976196289C-313.9819793701172 -968.8650054931641 -416.5649871826172 -619.1859893798828 -616.1959686279297 -339.9510040283203C-704.1459808349609 -217.05601501464844 -812.0149993896484 -106.91201782226562 -927.6729583740234 -22.271408081054688C-937.6669769287109 -14.930816650390625 -942.6639862060547 -10.812408447265625 -942.6639862060547 -6.694122314453125C-942.6639862060547 -2.5757904052734375 -937.6669769287109 1.54254150390625 -927.6729583740234 8.883163452148438C-812.0149993896484 93.52427673339844 -704.1459808349609 203.66798400878906 -616.1959686279297 326.56297302246094C-416.5649871826172 605.7979583740234 -313.9819793701172 955.5040130615234 -313.9819793701172 1325.3599700927734C-313.9819793701172 1550.8299407958984 -352.1069793701172 1783.790023803711 -429.61399841308594 2012.8399505615234C-485.5809783935547 2178.259994506836 -505.2939910888672 2241.120101928711 -533.7609710693359 2345.409896850586C-645.5590057373047 2755.310043334961 -699.5969696044922 3159.280014038086 -699.5969696044922 3585.729965209961C-699.5969696044922 3679.610092163086 -698.8379974365234 3715.169906616211 -695.4609832763672 3793.199935913086C-690.2919769287109 3909.679916381836 -677.0579681396484 4075.169906616211 -667.2009735107422 4146.100082397461C-666.6500091552734 4150.089828491211 -665.0649871826172 4162.640121459961 -663.7549896240234 4174.009750366211C-587.0410003662109 4816.890121459961 -370.6129913330078 5478.229965209961 -41.35337829589844 6075.680160522461C-15.023681640625 6123.450180053711 -15.64398193359375 6122.479965209961 -11.370590209960938 6123.100082397461Z" fill="black" /></g></svg>