<?xml version="1.0" encoding="utf-8" ?>
<svg baseProfile="tiny" height="100%" version="1.2" width="100%" xmlns="http://www.w3.org/2000/svg" xmlns:ev="http://www.w3.org/2001/xml-events" xmlns:xlink="http://www.w3.org/1999/xlink"><defs /><g transform="translate(0, 1000) scale(1, -1)"><path d="M-14.306198120117188 7038.35986328125C-12.752883911132812 7039.39990234375 -10.994781494140625 7039.89013671875 -9.252761840820312 7039.89013671875C-6.146240234375 7039.89013671875 -3.09039306640625 7038.31005859375 -1.3360443115234375 7035.41015625C-0.545379638671875 7034.10986328125 1.52587890625e-05 7033.1201171875 1.52587890625e-05 7031.7001953125C1.52587890625e-05 7028.06005859375 -3.5580902099609375 7021.5498046875 -15.675277709960938 6999.58984375C-392.1699981689453 6318.7998046875 -596.8109588623047 5546.93994140625 -622.4629974365234 4711.080078125C-623.8159637451172 4666.22021484375 -624.5389862060547 4591.33984375 -624.5389862060547 4522.509765625C-624.5389862060547 4470.39990234375 -624.1249847412109 4421.759765625 -623.2559661865234 4392.22998046875C-603.0800018310547 3715.840087890625 -486.8529815673828 3095.929931640625 -253.17298889160156 2419.320068359375C-189.61997985839844 2235.43994140625 -152.43898010253906 2045.6400146484375 -142.2059783935547 1854.0400390625C-139.8289794921875 1809.1500244140625 -139.39598083496094 1791.280029296875 -139.39598083496094 1742.7099609375C-139.39598083496094 1694.2900390625 -139.8289794921875 1676.780029296875 -142.2059783935547 1631.3900146484375C-175.2799835205078 1001.4000244140625 -502.2729949951172 406.136962890625 -1033.9100189208984 7.953033447265625C-1045.219955444336 -0.4775848388671875 -1054.439926147461 -7.611175537109375 -1054.439926147461 -7.8993988037109375C-1054.439926147461 -8.1876220703125 -1045.219955444336 -15.321212768554688 -1033.9100189208984 -23.751815795898438C-502.2729949951172 -421.93601989746094 -175.2799835205078 -1017.1900482177734 -142.2059783935547 -1647.1800994873047C-139.8289794921875 -1692.5800018310547 -139.39598083496094 -1710.0900115966797 -139.39598083496094 -1758.5100555419922C-139.39598083496094 -1807.0800018310547 -139.8289794921875 -1824.9499969482422 -142.2059783935547 -1869.8400115966797C-152.36598205566406 -2061.000045776367 -189.69198608398438 -2251.449996948242 -252.81298828125 -2434.040084838867C-328.6169891357422 -2653.600143432617 -383.23497009277344 -2835.320114135742 -431.80198669433594 -3029.590133666992C-559.8199920654297 -3542.010055541992 -623.4889984130859 -4051.320114135742 -623.4889984130859 -4546.180221557617C-623.4889984130859 -5269.080123901367 -487.62098693847656 -5961.129928588867 -218.0099639892578 -6587.020065307617C-154.16796875 -6735.169967651367 -87.51556396484375 -6870.490280151367 -6.091766357421875 -7016.830123901367C-2.2707977294921875 -7023.680221557617 -0.363433837890625 -7028.980026245117 -0.363433837890625 -7032.759811401367C-0.363433837890625 -7037.540084838867 -3.4059295654296875 -7039.890182495117 -9.478424072265625 -7039.890182495117H-9.717529296875C-15.456771850585938 -7039.890182495117 -15.642166137695312 -7039.399948120117 -55.306365966796875 -6966.750045776367C-539.5219421386719 -6080.009811401367 -794.3689880371094 -5104.379928588867 -794.3689880371094 -4144.109909057617C-794.3689880371094 -4077.800094604492 -793.1539611816406 -4011.560104370117 -790.7149963378906 -3945.429977416992C-770.6109924316406 -3400.679977416992 -673.5509948730469 -2884.970016479492 -492.90496826171875 -2363.070114135742C-398.4439697265625 -2090.120162963867 -351.2839660644531 -1820.1000213623047 -351.2839660644531 -1552.0601043701172C-351.2839660644531 -1455.7500457763672 -357.3729553222656 -1359.6899871826172 -369.54498291015625 -1263.8400115966797C-434.7559814453125 -751.0900726318359 -686.0889587402344 -302.7550506591797 -1063.7399597167969 -25.265060424804688C-1075.2699890136719 -16.798355102539062 -1081.0299987792969 -12.348968505859375 -1081.0299987792969 -7.8994293212890625C-1081.0299987792969 -3.4499359130859375 -1075.2699890136719 0.999542236328125 -1063.7399597167969 9.4661865234375C-686.0169982910156 287.0279541015625 -434.7559814453125 735.2189331054688 -369.54498291015625 1248.0499877929688C-357.37896728515625 1343.8298950195312 -351.29498291015625 1439.8699340820312 -351.29498291015625 1536.1799926757812C-351.29498291015625 1804.3899536132812 -398.47998046875 2074.6998901367188 -492.90496826171875 2347.2699584960938C-611.2939758300781 2688.8898315429688 -690.6999816894531 3014.7299194335938 -741.2839660644531 3366.5099487304688C-777.7949523925781 3620.4098510742188 -795.8779602050781 3877.0199584960938 -795.8779602050781 4134.519958496094C-795.8779602050781 5102.809997558594 -540.1849670410156 6083.809997558594 -47.091888427734375 6981.939880371094C-20.503082275390625 7030.289978027344 -16.900283813476562 7036.559997558594 -14.306182861328125 7038.359802246094Z" fill="black" /></g></svg>