<?xml version="1.0" encoding="utf-8" ?>
<svg baseProfile="tiny" height="100%" version="1.2" width="100%" xmlns="http://www.w3.org/2000/svg" xmlns:ev="http://www.w3.org/2001/xml-events" xmlns:xlink="http://www.w3.org/1999/xlink"><defs /><g transform="translate(0, 1000) scale(1, -1)"><path d="M-16.249298095703125 383.28399658203125C-15.816604614257812 383.33599853515625 -15.415695190429688 383.3789978027344 -15.373504638671875 383.3890075683594C-15.21380615234375 383.4150085449219 -15.042800903320312 383.4280090332031 -14.862701416015625 383.4280090332031C-12.841201782226562 383.4280090332031 -9.662261962890625 381.8559875488281 -8.20904541015625 380.04400634765625C-6.845703125 378.34600830078125 -6.1647491455078125 376.6050109863281 -6.1647491455078125 374.6910095214844C-6.1647491455078125 372.87200927734375 -6.779754638671875 370.89599609375 -8.008560180664062 368.64898681640625C-23.2720947265625 340.7409973144531 -30.913299560546875 309.22900390625 -30.913299560546875 273.0060119628906C-30.913299560546875 234.08299255371094 -22.09039306640625 189.72000122070312 -4.4210662841796875 138.54200744628906C-2.5956573486328125 133.25599670410156 -1.4244537353515625 129.13099670410156 -0.3693084716796875 124.28700256347656L0.0 122.5780029296875V101.98199462890625V81.37469482421875L-0.474822998046875 79.26438903808594C-6.9956207275390625 50.0684814453125 -23.994003295898438 25.451889038085938 -54.04460144042969 1.6477813720703125C-55.47959899902344 0.518768310546875 -56.65080261230469 -0.4308624267578125 -56.65080261230469 -0.4625244140625C-56.65080261230469 -0.494171142578125 -55.47959899902344 -1.4438018798828125 -54.04460144042969 -2.57281494140625C-23.994003295898438 -26.376907348632812 -6.9956207275390625 -50.99351501464844 -0.474822998046875 -80.18940734863281L0.0 -82.29969787597656V-102.90699768066406V-123.50300598144531L-0.3693084716796875 -125.21200561523438C-1.3506011962890625 -129.67599487304688 -2.6273193359375 -134.2550048828125 -4.030670166015625 -138.3070068359375C-21.912017822265625 -189.8280029296875 -30.840118408203125 -234.3979949951172 -30.840118408203125 -273.4580078125C-30.840118408203125 -309.5369873046875 -23.222915649414062 -340.9150085449219 -8.008575439453125 -368.7300109863281C-6.6766815185546875 -371.1669921875 -6.1707000732421875 -372.6059875488281 -6.1707000732421875 -374.27398681640625C-6.1707000732421875 -374.62701416015625 -6.1934661865234375 -374.9909973144531 -6.235931396484375 -375.37701416015625C-6.788818359375 -380.2879943847656 -10.8878173828125 -383.4280090332031 -15.220016479492188 -383.4280090332031C-17.171310424804688 -383.4280090332031 -19.169815063476562 -382.7909851074219 -20.913009643554688 -381.3909912109375C-22.295211791992188 -380.28399658203125 -22.97052001953125 -379.1860046386719 -28.29901123046875 -369.3420104980469C-50.24610900878906 -328.7919921875 -64.58552551269531 -292.3789978027344 -72.21421813964844 -257.81298828125C-76.61460876464844 -237.86199951171875 -78.81242370605469 -218.10499572753906 -78.81242370605469 -198.68899536132812C-78.81242370605469 -174.24899291992188 -75.3297119140625 -150.3489990234375 -68.37351989746094 -127.281005859375C-67.5294189453125 -124.50599670410156 -66.61140441894531 -121.6669921875 -64.89152526855469 -116.63400268554688C-57.30500793457031 -94.36000061035156 -53.68580627441406 -76.16929626464844 -53.66471862792969 -60.13099670410156C-53.66471862792969 -54.897491455078125 -53.8336181640625 -52.238494873046875 -54.45611572265625 -47.6802978515625C-56.61921691894531 -31.832000732421875 -64.40611267089844 -17.460906982421875 -75.39021301269531 -9.06195068359375C-77.60601806640625 -7.3631591796875 -78.19691467285156 -6.856689453125 -78.73501586914062 -6.19195556640625C-80.08561706542969 -4.5037078857421875 -80.76091003417969 -2.4831085205078125 -80.76091003417969 -0.4625091552734375C-80.76091003417969 1.55810546875 -80.08561706542969 3.578704833984375 -78.73501586914062 5.266937255859375C-78.19691467285156 5.9316864013671875 -77.60601806640625 6.4381561279296875 -75.39021301269531 8.136932373046875C-61.52030944824219 18.7489013671875 -53.576019287109375 37.53120422363281 -53.576019287109375 59.071807861328125C-53.576019287109375 61.390594482421875 -53.66801452636719 63.741302490234375 -53.85472106933594 66.11720275878906C-55.07861328125 81.76510620117188 -58.381317138671875 96.56880187988281 -64.94432067871094 115.86700439453125C-69.73460388183594 129.95399475097656 -72.64680480957031 140.927001953125 -74.90481567382812 153.43099975585938C-77.59881591796875 168.343994140625 -78.96281433105469 183.2989959716797 -78.96281433105469 198.4459991455078C-78.96281433105469 252.947998046875 -61.30271911621094 309.9330139160156 -24.39501953125 376.38299560546875C-21.620010375976562 381.3739929199219 -19.85791015625 382.87200927734375 -16.249313354492188 383.28399658203125Z" fill="black" /></g></svg>