<?xml version="1.0" encoding="utf-8" ?>
<svg baseProfile="tiny" height="100%" version="1.2" width="100%" xmlns="http://www.w3.org/2000/svg" xmlns:ev="http://www.w3.org/2001/xml-events" xmlns:xlink="http://www.w3.org/1999/xlink"><defs /><g transform="translate(0, 1000) scale(1, -1)"><path d="M-11.533096313476562 3480.550048828125C-10.695587158203125 3480.760009765625 -9.869110107421875 3480.860107421875 -9.066604614257812 3480.860107421875C-4.068267822265625 3480.860107421875 1.52587890625e-05 3477.0 1.52587890625e-05 3471.7900390625C1.52587890625e-05 3468.969970703125 -0.2609100341796875 3468.239990234375 -4.9576416015625 3459.93994140625C-138.70999145507812 3221.239990234375 -228.73098754882812 2947.2099609375 -269.2269744873047 2655.22998046875C-285.60997009277344 2537.090087890625 -293.7319793701172 2415.25 -293.7319793701172 2290.989990234375C-293.7319793701172 1947.02001953125 -231.49697875976562 1584.52001953125 -110.00798034667969 1230.56005859375C-96.96128845214844 1192.4599609375 -93.56918334960938 1182.3399658203125 -89.65528869628906 1169.56005859375C-60.30488586425781 1073.3699951171875 -46.040283203125 975.6010131835938 -46.040283203125 878.5339965820312C-46.040283203125 549.47998046875 -209.96697998046875 228.52200317382812 -505.83697509765625 5.027984619140625C-511.9949645996094 0.3834381103515625 -517.0569763183594 -3.6348724365234375 -517.0569763183594 -3.8957977294921875C-517.0569763183594 -4.1567230224609375 -511.9949645996094 -8.175033569335938 -505.83697509765625 -12.819595336914062C-232.06997680664062 -219.6320037841797 -65.85845947265625 -515.1079559326172 -47.90657043457031 -826.8669891357422C-46.7586669921875 -846.8489837646484 -46.18336486816406 -866.7069549560547 -46.18336486816406 -886.4579925537109C-46.18336486816406 -998.7009735107422 -64.76467895507812 -1107.489974975586 -102.44097900390625 -1216.1700286865234C-229.77796936035156 -1583.8399505615234 -293.1479797363281 -1947.310043334961 -293.1479797363281 -2292.479965209961C-293.1479797363281 -2717.129867553711 -197.2359619140625 -3114.070053100586 -6.523193359375 -3457.030014038086C-0.313079833984375 -3468.199935913086 3.0517578125e-05 -3468.929916381836 3.0517578125e-05 -3471.749984741211C3.0517578125e-05 -3477.290023803711 -4.3639678955078125 -3480.860092163086 -8.996902465820312 -3480.860092163086C-11.38397216796875 -3480.860092163086 -13.842575073242188 -3479.909896850586 -15.812271118164062 -3477.800033569336C-17.690963745117188 -3475.770004272461 -40.4439697265625 -3434.540023803711 -58.187164306640625 -3400.929916381836C-262.1819763183594 -3015.229965209961 -383.56597900390625 -2604.840072631836 -412.68597412109375 -2202.489974975586C-417.3619689941406 -2137.530014038086 -419.74896240234375 -2070.219955444336 -419.74896240234375 -2004.810043334961C-419.74896240234375 -1969.469955444336 -419.052978515625 -1934.6800384521484 -417.6429748535156 -1901.1099700927734C-406.6319580078125 -1639.3499603271484 -361.6999816894531 -1404.6700286865234 -273.6099548339844 -1149.3799896240234C-225.47897338867188 -1009.8099822998047 -202.16897583007812 -870.0609588623047 -202.16897583007812 -736.7859954833984C-202.16897583007812 -440.88597106933594 -317.0749816894531 -176.90098571777344 -530.3649597167969 -17.724990844726562C-541.6369934082031 -9.3231201171875 -542.5239562988281 -8.279388427734375 -542.5239562988281 -3.895782470703125C-542.5239562988281 0.4878387451171875 -541.6369934082031 1.53155517578125 -530.3649597167969 9.933486938476562C-354.28997802734375 141.3370361328125 -240.73297119140625 348.1500244140625 -210.51797485351562 592.5880432128906C-205.02696228027344 636.9340515136719 -202.30096435546875 682.1450500488281 -202.30096435546875 727.8950500488281C-202.30096435546875 863.9050598144531 -226.39796447753906 1004.6700134277344 -273.6099548339844 1141.5799865722656C-336.18096923828125 1322.9300842285156 -374.2249755859375 1481.5699768066406 -398.0209655761719 1660.5699768066406C-413.0749816894531 1773.6500549316406 -420.55096435546875 1887.9900207519531 -420.55096435546875 2003.0300598144531C-420.55096435546875 2446.730010986328 -309.3359680175781 2900.929962158203 -92.68206787109375 3333.909942626953C-68.1546630859375 3383.020050048828 -20.613372802734375 3472.149932861328 -16.177566528320312 3477.419952392578C-14.820770263671875 3479.090118408203 -13.202972412109375 3480.189971923828 -11.533065795898438 3480.550079345703Z" fill="black" /></g></svg>