<?xml version="1.0" encoding="utf-8" ?>
<svg baseProfile="tiny" height="100%" version="1.2" width="100%" xmlns="http://www.w3.org/2000/svg" xmlns:ev="http://www.w3.org/2001/xml-events" xmlns:xlink="http://www.w3.org/1999/xlink"><defs /><g transform="translate(0, 1000) scale(1, -1)"><path d="M-14.470993041992188 5503.91015625C-12.964385986328125 5504.919921875 -11.177383422851562 5505.39990234375 -9.389129638671875 5505.39990234375C-6.2224578857421875 5505.39990234375 -3.0516204833984375 5503.89990234375 -1.4259185791015625 5501.22998046875C-0.5588836669921875 5499.81982421875 -0.0097503662109375 5498.7001953125 -0.0097503662109375 5497.2099609375C-0.0097503662109375 5493.8701171875 -2.7523193359375 5488.64990234375 -10.818389892578125 5474.10009765625C-322.9849548339844 4910.93994140625 -481.4059753417969 4262.8798828125 -481.4059753417969 3572.659912109375C-481.4059753417969 3201.0 -435.4739685058594 2817.1201171875 -342.8809814453125 2427.679931640625C-300.94097900390625 2251.25 -257.95697021484375 2105.659912109375 -183.73097229003906 1888.27001953125C-126.06297302246094 1719.3699951171875 -97.78446960449219 1545.3399658203125 -97.78446960449219 1372.010009765625C-97.78446960449219 997.3770141601562 -229.87896728515625 625.9810180664062 -482.85498046875 316.59600830078125C-578.9319763183594 199.125 -698.6199645996094 85.04550170898438 -814.2649841308594 0.6438140869140625C-819.2219543457031 -2.943572998046875 -823.2659606933594 -6.009185791015625 -823.2659606933594 -6.2048492431640625C-823.2659606933594 -6.4005279541015625 -819.2219543457031 -9.46612548828125 -814.2649841308594 -13.053497314453125C-688.5099792480469 -104.82598876953125 -561.1249694824219 -228.75399780273438 -459.5689697265625 -358.1610107421875C-221.67596435546875 -661.2429809570312 -97.86866760253906 -1021.5800170898438 -97.86866760253906 -1384.5400390625C-97.86866760253906 -1557.969970703125 -126.13597106933594 -1732.0 -183.73097229003906 -1900.6800537109375C-256.06597900390625 -2112.4599609375 -298.1359558105469 -2254.52001953125 -339.6199645996094 -2426.97998046875C-433.5779724121094 -2817.909912109375 -480.16595458984375 -3203.8701171875 -480.16595458984375 -3577.639892578125C-480.16595458984375 -4266.39013671875 -321.9739685058594 -4913.7900390625 -10.492279052734375 -5474.77001953125C-2.682769775390625 -5488.77001953125 1.52587890625e-05 -5493.8798828125 1.52587890625e-05 -5497.18994140625C1.52587890625e-05 -5498.68994140625 -0.5511627197265625 -5499.81982421875 -1.4259185791015625 -5501.25C-3.04248046875 -5503.89990234375 -6.186798095703125 -5505.39990234375 -9.33563232421875 -5505.39990234375C-11.14178466796875 -5505.39990234375 -12.949386596679688 -5504.89990234375 -14.470977783203125 -5503.85986328125C-17.34088134765625 -5501.89990234375 -48.51869201660156 -5445.81005859375 -82.43588256835938 -5381.43017578125C-349.2729797363281 -4875.35009765625 -527.0769958496094 -4323.669921875 -596.2819519042969 -3787.320068359375L-600.8469543457031 -3752.10009765625C-613.2399597167969 -3657.4599609375 -623.8069763183594 -3533.590087890625 -629.2199401855469 -3420.10009765625C-632.3679504394531 -3353.429931640625 -633.9379577636719 -3286.800048828125 -633.9379577636719 -3220.27001953125C-633.9379577636719 -2751.89990234375 -556.1459655761719 -2288.409912109375 -403.54095458984375 -1850.1300048828125C-375.5589599609375 -1769.77001953125 -355.8609619140625 -1702.5899658203125 -339.032958984375 -1629.989990234375C-305.0229797363281 -1483.199951171875 -288.4739685058594 -1337.8199462890625 -288.4739685058594 -1196.8199462890625C-288.4739685058594 -716.1240234375 -480.8229675292969 -286.3689880371094 -829.4619445800781 -25.381103515625C-847.7909851074219 -11.748992919921875 -848.7039489746094 -10.770599365234375 -848.7039489746094 -6.2048492431640625C-848.7039489746094 -1.639068603515625 -847.7909851074219 -0.660675048828125 -829.4619445800781 12.971420288085938C-479.3409729003906 275.0810089111328 -288.3929748535156 706.5089874267578 -288.3929748535156 1184.8800201416016C-288.3929748535156 1370.8800201416016 -317.2599792480469 1563.969985961914 -376.86297607421875 1756.969985961914C-384.0379638671875 1780.3800201416016 -394.2129821777344 1810.8399810791016 -411.2369689941406 1860.219985961914C-558.3279724121094 2287.229995727539 -635.2119445800781 2753.709976196289 -635.2119445800781 3215.219985961914C-635.2119445800781 3262.270034790039 -634.4129943847656 3309.270034790039 -632.8079528808594 3356.159927368164C-628.2419738769531 3488.699966430664 -616.8279724121094 3634.479995727539 -602.1519470214844 3746.860122680664L-596.9339904785156 3786.979995727539C-526.8819885253906 4325.020034790039 -349.3379821777344 4875.200210571289 -82.43588256835938 5381.410171508789C-48.51869201660156 5445.790054321289 -17.34088134765625 5501.879898071289 -14.470977783203125 5503.910171508789Z" fill="black" /></g></svg>