<?xml version="1.0" encoding="utf-8" ?>
<svg baseProfile="tiny" height="100%" version="1.2" width="100%" xmlns="http://www.w3.org/2000/svg" xmlns:ev="http://www.w3.org/2001/xml-events" xmlns:xlink="http://www.w3.org/1999/xlink"><defs /><g transform="translate(0, 1000) scale(1, -1)"><path d="M-14.180801391601562 1162.6400146484375C-13.313613891601562 1162.8399658203125 -12.50421142578125 1163.010009765625 -12.417510986328125 1163.010009765625C-12.248214721679688 1163.0400390625 -12.071014404296875 1163.050048828125 -11.887313842773438 1163.050048828125C-9.2794189453125 1163.050048828125 -5.35943603515625 1160.6400146484375 -4.06317138671875 1158.1300048828125C-3.3711395263671875 1156.780029296875 -2.994781494140625 1155.6199951171875 -2.994781494140625 1154.3199462890625C-2.994781494140625 1152.0400390625 -4.156585693359375 1149.3499755859375 -6.8094024658203125 1144.5400390625C-62.16990661621094 1044.1700439453125 -89.96290588378906 928.3800048828125 -89.96290588378906 799.4530029296875C-89.96290588378906 728.635009765625 -81.5775146484375 653.85498046875 -64.76931762695312 575.4910278320312C-52.772613525390625 519.583984375 -39.90870666503906 474.05499267578125 -17.447418212890625 408.1159973144531C-5.764739990234375 373.8340148925781 -1.52587890625e-05 338.6610107421875 -1.52587890625e-05 303.5719909667969C-1.52587890625e-05 235.42799377441406 -21.7423095703125 167.6020050048828 -64.10441589355469 107.2449951171875C-90.58381652832031 69.49179077148438 -126.48701477050781 32.692291259765625 -167.39102172851562 1.414215087890625C-169.2130126953125 -0.0022735595703125 -170.7160186767578 -1.24530029296875 -170.7160186767578 -1.360931396484375C-170.7160186767578 -1.4765625 -169.2130126953125 -2.7195892333984375 -167.39102172851562 -4.1360626220703125C-126.60301208496094 -35.327392578125 -90.52601623535156 -72.30029296875 -64.10441589355469 -109.96701049804688C-21.7423095703125 -170.322998046875 -1.52587890625e-05 -238.1750030517578 -1.52587890625e-05 -306.32000732421875C-1.52587890625e-05 -341.40899658203125 -5.764739990234375 -376.57598876953125 -17.447418212890625 -410.8380126953125C-61.994110107421875 -541.5579833984375 -83.76161193847656 -648.7479858398438 -89.08061218261719 -763.656005859375C-89.43852233886719 -771.552978515625 -89.60931396484375 -783.2550048828125 -89.60931396484375 -795.7969970703125C-89.60931396484375 -813.6480102539062 -89.26332092285156 -833.197998046875 -88.61811828613281 -845.8980102539062C-82.98112487792969 -955.4869995117188 -55.05632019042969 -1057.3599853515625 -6.7226715087890625 -1144.800048828125C-3.9195709228515625 -1149.8699951171875 -3.0433197021484375 -1151.8199462890625 -3.0433197021484375 -1153.81005859375C-3.0433197021484375 -1154.3699951171875 -3.111419677734375 -1154.9300537109375 -3.224853515625 -1155.56005859375C-4.0875701904296875 -1160.22998046875 -8.126007080078125 -1163.050048828125 -12.261520385742188 -1163.050048828125C-14.500320434570312 -1163.050048828125 -16.767608642578125 -1162.219970703125 -18.574813842773438 -1160.4100341796875C-21.523422241210938 -1157.43994140625 -47.94502258300781 -1107.3699951171875 -61.444915771484375 -1079.1800537109375C-134.135009765625 -927.1859741210938 -170.4180145263672 -781.4019775390625 -170.4180145263672 -640.4509887695312C-170.4180145263672 -550.4619750976562 -155.62901306152344 -462.4419860839844 -126.08201599121094 -376.0329895019531C-110.18301391601562 -329.5790100097656 -101.59800720214844 -289.83099365234375 -98.30210876464844 -247.50999450683594C-97.52000427246094 -237.43299865722656 -97.13212585449219 -227.5260009765625 -97.13212585449219 -217.80499267578125C-97.13212585449219 -128.7209930419922 -129.70401000976562 -55.2705078125 -189.9110107421875 -10.206695556640625C-194.00901794433594 -7.1328125 -195.61302185058594 -4.9035491943359375 -195.61302185058594 -1.8188629150390625C-195.61302185058594 -1.161346435546875 -195.54000854492188 -0.464935302734375 -195.40301513671875 0.28680419921875C-194.82501220703125 3.3799285888671875 -194.07301330566406 4.36279296875 -189.9110107421875 7.48480224609375C-128.77601623535156 53.242401123046875 -97.24052429199219 125.98500061035156 -97.24052429199219 214.66099548339844C-97.24052429199219 263.35101318359375 -106.74801635742188 316.843994140625 -126.08201599121094 373.3110046386719C-153.02401733398438 451.968994140625 -165.91702270507812 520.3359985351562 -170.0220184326172 606.1339721679688C-170.3880157470703 613.969970703125 -170.5640106201172 623.4409790039062 -170.5640106201172 633.6619873046875C-170.5640106201172 653.3419799804688 -169.91001892089844 675.8049926757812 -168.6920166015625 694.7360229492188C-159.2680206298828 840.3150024414062 -110.12501525878906 995.5780029296875 -24.529815673828125 1150.3499755859375C-18.661514282226562 1160.989990234375 -17.96771240234375 1161.800048828125 -14.180816650390625 1162.6400146484375Z" fill="black" /></g></svg>