<?xml version="1.0" encoding="utf-8" ?>
<svg baseProfile="tiny" height="100%" version="1.2" width="100%" xmlns="http://www.w3.org/2000/svg" xmlns:ev="http://www.w3.org/2001/xml-events" xmlns:xlink="http://www.w3.org/1999/xlink"><defs /><g transform="translate(0, 1000) scale(1, -1)"><path d="M-11.407806396484375 2414.9599609375C-10.643402099609375 2415.14990234375 -9.88519287109375 2415.239990234375 -9.144546508789062 2415.239990234375C-4.18115234375 2415.239990234375 -0.0042877197265625 2411.110107421875 -0.0042877197265625 2406.1298828125C-0.0042877197265625 2405.47998046875 -0.0747222900390625 2404.820068359375 -0.2230224609375 2404.14990234375C-0.4734344482421875 2403.18994140625 -2.894012451171875 2398.35009765625 -5.6484527587890625 2393.340087890625L-26.431991577148438 2354.320068359375C-86.32038879394531 2237.8798828125 -130.80899047851562 2112.010009765625 -159.27198791503906 1978.5899658203125C-184.37998962402344 1860.8800048828125 -196.82998657226562 1736.72998046875 -196.82998657226562 1608.6199951171875C-196.82998657226562 1368.3599853515625 -153.03797912597656 1114.199951171875 -66.83058166503906 862.573974609375C-52.14018249511719 819.7550048828125 -49.46919250488281 811.1580200195312 -43.70988464355469 789.1640014648438C-28.704086303710938 731.593994140625 -21.374984741210938 673.5449829101562 -21.374984741210938 615.9149780273438C-21.374984741210938 386.3219909667969 -137.69898986816406 163.36599731445312 -348.3689727783203 3.770355224609375C-352.83399963378906 0.3481597900390625 -356.50697326660156 -2.5732269287109375 -356.50697326660156 -2.74017333984375C-356.50697326660156 -2.9071044921875 -352.83399963378906 -5.8284912109375 -348.3689727783203 -9.250686645507812C-198.12599182128906 -123.05999755859375 -91.87107849121094 -273.510986328125 -46.67308044433594 -436.35699462890625C-29.819076538085938 -497.14599609375 -21.4119873046875 -559.5770263671875 -21.4119873046875 -621.7349853515625C-21.4119873046875 -695.7930297851562 -33.34638977050781 -769.4639892578125 -57.148284912109375 -839.5079956054688C-96.086181640625 -954.2349853515625 -116.28498840332031 -1023.5599975585938 -137.15298461914062 -1113.9100341796875C-172.12599182128906 -1265.5699462890625 -190.44699096679688 -1402.8800048828125 -195.70498657226562 -1553.1600341796875C-196.0599822998047 -1563.1099853515625 -196.2379913330078 -1587.530029296875 -196.2379913330078 -1611.8800048828125C-196.2379913330078 -1636.22998046875 -196.0599822998047 -1660.52001953125 -195.70498657226562 -1670.22998046875C-185.85598754882812 -1943.7099609375 -124.1309814453125 -2178.5 -5.6484375 -2393.389892578125C-1.2025604248046875 -2401.429931640625 1.52587890625e-05 -2404.070068359375 1.52587890625e-05 -2406.43994140625C1.52587890625e-05 -2406.85009765625 -0.0361328125 -2407.25 -0.097808837890625 -2407.669921875C-0.8802642822265625 -2412.510009765625 -4.9721221923828125 -2415.239990234375 -9.124969482421875 -2415.239990234375C-12.060089111328125 -2415.239990234375 -15.025680541992188 -2413.8798828125 -16.874893188476562 -2410.919921875C-18.544281005859375 -2408.25 -22.46728515625 -2401.239990234375 -31.273178100585938 -2385.1298828125C-192.9089813232422 -2089.570068359375 -286.5609893798828 -1775.43994140625 -302.6279754638672 -1474.9100341796875C-304.58998107910156 -1438.6800537109375 -305.00697326660156 -1424.9100341796875 -305.25697326660156 -1386.6400146484375C-305.30897521972656 -1379.1700439453125 -305.33799743652344 -1372.3399658203125 -305.33799743652344 -1365.9300537109375C-305.33799743652344 -1336.2900390625 -304.73399353027344 -1315.6600341796875 -303.0869903564453 -1282.31005859375C-295.03297424316406 -1120.3800048828125 -263.6069793701172 -957.8660278320312 -210.52098083496094 -804.0339965820312C-190.78099060058594 -746.7750244140625 -179.55398559570312 -705.5 -170.1639862060547 -655.5449829101562C-159.8289794921875 -600.7260131835938 -154.76998901367188 -547.072021484375 -154.76998901367188 -495.2650146484375C-154.76998901367188 -293.30499267578125 -231.65599060058594 -119.4219970703125 -372.61598205566406 -14.13360595703125C-380.71299743652344 -8.082122802734375 -381.50599670410156 -7.08050537109375 -381.50599670410156 -2.74017333984375C-381.50599670410156 1.6001739501953125 -380.71299743652344 2.601806640625 -372.61598205566406 8.653244018554688C-231.65599060058594 113.94200134277344 -154.76998901367188 287.82501220703125 -154.76998901367188 489.7850036621094C-154.76998901367188 541.5919799804688 -159.8289794921875 595.2459716796875 -170.1639862060547 650.0640258789062C-179.59597778320312 700.31201171875 -190.57199096679688 740.5440063476562 -210.77098083496094 799.1799926757812C-274.10597229003906 983.2369995117188 -305.9759979248047 1175.18994140625 -305.9759979248047 1371.719970703125C-305.9759979248047 1433.1600341796875 -302.86097717285156 1495.050048828125 -296.6179962158203 1557.280029296875C-268.94898986816406 1833.06005859375 -177.96798706054688 2116.929931640625 -31.273178100585938 2385.080078125C-15.163787841796875 2414.5400390625 -15.581192016601562 2413.909912109375 -11.407791137695312 2414.9599609375Z" fill="black" /></g></svg>