<?xml version="1.0" encoding="utf-8" ?>
<svg baseProfile="tiny" height="100%" version="1.2" width="100%" xmlns="http://www.w3.org/2000/svg" xmlns:ev="http://www.w3.org/2001/xml-events" xmlns:xlink="http://www.w3.org/1999/xlink"><defs /><g transform="translate(0, 1000) scale(1, -1)"><path d="M-10.807098388671875 1631.8800048828125C-10.243194580078125 1631.969970703125 -9.68658447265625 1632.010009765625 -9.1412353515625 1632.010009765625C-4.603271484375 1632.010009765625 -0.84490966796875 1629.010009765625 -0.161865234375 1624.56005859375C-0.0602264404296875 1623.949951171875 0.0 1623.4000244140625 0.0 1622.8599853515625C0.0 1620.739990234375 -0.9207305908203125 1618.7099609375 -3.8876953125 1613.3800048828125C-86.04769897460938 1465.5999755859375 -127.43399047851562 1294.02001953125 -127.43399047851562 1105.0899658203125C-127.43399047851562 994.9240112304688 -113.36000061035156 878.8560180664062 -85.09089660644531 758.1710205078125C-70.48699951171875 695.8629760742188 -55.41729736328125 644.4660034179688 -29.2698974609375 567.8870239257812C-13.154205322265625 520.64501953125 -5.1806640625 471.4519958496094 -5.1806640625 422.12298583984375C-5.1806640625 343.7650146484375 -25.3009033203125 265.0660095214844 -64.864990234375 193.30799865722656C-103.91999816894531 122.4169921875 -164.06500244140625 54.287506103515625 -233.72500610351562 2.0260162353515625C-236.4199981689453 0.030029296875 -238.61500549316406 -1.6998138427734375 -238.61500549316406 -1.79962158203125C-238.61500549316406 -1.8994140625 -236.4199981689453 -3.59600830078125 -233.72500610351562 -5.625244140625C-227.43800354003906 -10.349105834960938 -216.95899963378906 -18.732208251953125 -208.54200744628906 -25.75140380859375C-76.27169799804688 -136.18099975585938 -5.19354248046875 -277.406005859375 -5.19354248046875 -424.7699890136719C-5.19354248046875 -453.37799072265625 -7.872283935546875 -482.2170104980469 -13.302093505859375 -511.1080017089844C-17.693206787109375 -534.4940185546875 -23.182205200195312 -554.1209716796875 -34.35969543457031 -586.4559936523438C-89.74819946289062 -746.7000122070312 -121.75 -913.364990234375 -126.54100036621094 -1066.8199462890625C-126.95999145507812 -1080.22998046875 -127.16900634765625 -1093.5699462890625 -127.16900634765625 -1106.8299560546875C-127.16900634765625 -1294.6300048828125 -85.23489379882812 -1467.25 -3.8876953125 -1613.3199462890625C-0.9207305908203125 -1618.6500244140625 0.0 -1620.6600341796875 0.0 -1622.7900390625C0.0 -1623.3299560546875 -0.0602264404296875 -1623.8800048828125 -0.161865234375 -1624.5C-0.8807373046875 -1629.1400146484375 -5.0517730712890625 -1632.010009765625 -9.274703979492188 -1632.010009765625C-11.500595092773438 -1632.010009765625 -13.74090576171875 -1631.2099609375 -15.497695922851562 -1629.4599609375C-19.156997680664062 -1625.760009765625 -54.618896484375 -1558.300048828125 -71.65130615234375 -1522.5699462890625C-170.3730010986328 -1315.4200439453125 -219.75900268554688 -1111.9300537109375 -219.75900268554688 -912.27197265625C-219.75900268554688 -891.7269897460938 -219.23599243164062 -871.2219848632812 -218.19000244140625 -850.7579956054688C-212.7010040283203 -744.072021484375 -193.80499267578125 -645.969970703125 -158.24400329589844 -540.0499877929688C-147.83099365234375 -509.0450134277344 -145.5030059814453 -501.55999755859375 -140.71200561523438 -484.22900390625C-125.60000610351562 -429.57000732421875 -117.9169921875 -373.9119873046875 -117.9169921875 -320.6610107421875C-117.9169921875 -298.0740051269531 -119.29901123046875 -275.91900634765625 -122.0830078125 -254.45799255371094C-135.19000244140625 -153.56100463867188 -183.02699279785156 -66.60250854492188 -255.11500549316406 -12.677703857421875C-262.5010070800781 -7.1887664794921875 -263.3320007324219 -6.0577239990234375 -263.3320007324219 -1.79962158203125C-263.3320007324219 2.458465576171875 -262.5010070800781 3.5895233154296875 -255.11500549316406 9.078475952148438C-193.70599365234375 54.98609924316406 -149.46099853515625 125.27799987792969 -130.06700134277344 207.61199951171875C-121.88999938964844 242.34100341796875 -117.80599975585938 278.9620056152344 -117.80599975585938 317.0719909667969C-117.80599975585938 364.8590087890625 -124.22799682617188 414.9859924316406 -137.05299377441406 466.6570129394531C-142.14300537109375 487.1830139160156 -146.16799926757812 500.489013671875 -158.24400329589844 536.4500122070312C-171.01800537109375 574.5399780273438 -176.83999633789062 594.2340087890625 -185.58900451660156 628.7650146484375C-208.68899536132812 720.2579956054688 -220.16200256347656 814.3350219726562 -220.16200256347656 910.0650024414062C-220.16200256347656 1140.9300537109375 -153.43699645996094 1381.3900146484375 -22.150894165039062 1618.4100341796875C-15.630706787109375 1630.1800537109375 -14.699295043945312 1631.280029296875 -10.807098388671875 1631.8800048828125Z" fill="black" /></g></svg>