<?xml version="1.0" encoding="utf-8" ?>
<svg baseProfile="tiny" height="100%" version="1.2" width="100%" xmlns="http://www.w3.org/2000/svg" xmlns:ev="http://www.w3.org/2001/xml-events" xmlns:xlink="http://www.w3.org/1999/xlink"><defs /><g transform="translate(0, 1000) scale(1, -1)"><path d="M-13.8594970703125 6854.22021484375C-12.4490966796875 6854.93994140625 -10.9779052734375 6855.27001953125 -9.543365478515625 6855.27001953125C-4.549896240234375 6855.27001953125 0.0 6851.31005859375 0.0 6846.16015625C0.0 6845.7001953125 -0.0369873046875 6845.22021484375 -0.1139678955078125 6844.740234375C-0.3344879150390625 6843.490234375 -3.495208740234375 6837.169921875 -7.0969696044921875 6830.77978515625L-74.64839172363281 6705.14990234375C-429.47398376464844 6020.35009765625 -608.0219573974609 5240.830078125 -608.0219573974609 4422.240234375C-608.0219573974609 3756.52001953125 -489.9309844970703 3064.969970703125 -252.53099060058594 2377.530029296875C-177.26197814941406 2159.659912109375 -142.34698486328125 1974.7900390625 -135.1429901123047 1756.780029296875C-134.44598388671875 1735.6099853515625 -134.09898376464844 1714.449951171875 -134.09898376464844 1693.31005859375C-134.09898376464844 1043.9000244140625 -461.5249786376953 411.56103515625 -1013.0199737548828 3.01361083984375C-1020.5899810791016 -2.5727996826171875 -1026.7599639892578 -7.4241485595703125 -1026.7599639892578 -7.718170166015625C-1026.7599639892578 -8.01220703125 -1020.5899810791016 -12.863571166992188 -1012.9399566650391 -18.449966430664062C-952.5959625244141 -63.21466064453125 -884.6029815673828 -119.51995849609375 -829.4009552001953 -170.45896911621094C-379.90394592285156 -585.4160003662109 -134.30294799804688 -1140.8199310302734 -134.30294799804688 -1713.489974975586C-134.30294799804688 -1845.239974975586 -147.3009490966797 -1977.9000091552734 -173.8069610595703 -2109.969955444336C-192.6239471435547 -2203.759994506836 -215.2639617919922 -2284.989974975586 -252.5309600830078 -2392.969955444336C-488.8389434814453 -3076.850082397461 -606.1219635009766 -3766.489974975586 -606.1219635009766 -4430.060043334961C-606.1219635009766 -5297.439926147461 -405.7379608154297 -6120.279769897461 -8.861068725585938 -6827.540023803711C-4.0097198486328125 -6836.209945678711 -0.3344573974609375 -6843.640121459961 -0.1139373779296875 -6845.180160522461C-0.073883056640625 -6845.529769897461 -0.054443359375 -6845.870101928711 -0.054443359375 -6846.200180053711C-0.054443359375 -6851.390121459961 -4.7494964599609375 -6855.270004272461 -9.720947265625 -6855.270004272461C-11.473663330078125 -6855.270004272461 -13.260772705078125 -6854.790023803711 -14.888473510742188 -6853.709945678711C-17.093673706054688 -6852.310043334961 -48.77447509765625 -6795.419906616211 -81.63137817382812 -6733.819808959961C-399.9089660644531 -6138.209945678711 -616.3089904785156 -5491.729965209961 -713.6299743652344 -4845.990219116211C-725.3169860839844 -4768.220199584961 -734.9469909667969 -4692.950180053711 -745.6049499511719 -4596.290023803711C-764.7629699707031 -4423.040023803711 -775.2359924316406 -4215.990219116211 -775.2359924316406 -4023.999984741211C-775.2359924316406 -3975.110092163086 -774.5569763183594 -3927.209945678711 -773.1689758300781 -3881.080062866211C-756.5569763183594 -3332.800033569336 -662.6909484863281 -2822.899887084961 -482.60296630859375 -2301.749984741211C-436.36798095703125 -2168.110092163086 -406.23095703125 -2054.469955444336 -382.4889831542969 -1925.0999603271484C-356.7459716796875 -1784.560043334961 -344.1089782714844 -1644.719955444336 -344.1089782714844 -1507.5699310302734C-344.1089782714844 -1039.6800384521484 -491.19598388671875 -603.2399749755859 -766.7739562988281 -277.9239959716797C-850.6439514160156 -178.9119873046875 -946.2739562988281 -89.82359313964844 -1046.3899841308594 -17.494384765625C-1051.0600280761719 -14.113189697265625 -1053.3899841308594 -10.915679931640625 -1053.3899841308594 -7.71820068359375C-1053.3899841308594 -4.520721435546875 -1051.0600280761719 -1.3232421875 -1046.3899841308594 2.058013916015625C-988.4659729003906 43.88252258300781 -937.5269470214844 86.66261291503906 -879.6789855957031 142.0120086669922C-536.0839538574219 471.04002380371094 -344.0469665527344 959.2199859619141 -344.0469665527344 1491.469985961914C-344.0469665527344 1544.709976196289 -345.9689636230469 1598.3900299072266 -349.8519592285156 1652.4000396728516C-365.2879638671875 1867.550064086914 -407.553955078125 2069.320083618164 -482.60296630859375 2286.310073852539C-680.5529479980469 2858.919937133789 -776.4039611816406 3426.080093383789 -776.4039611816406 4025.149917602539C-776.4039611816406 4131.879898071289 -775.2279968261719 4183.040054321289 -770.5969543457031 4282.419937133789C-765.4509582519531 4389.660171508789 -752.8079528808594 4551.600112915039 -744.8699645996094 4610.990249633789C-744.2819519042969 4615.470230102539 -742.4439392089844 4630.979995727539 -740.8269958496094 4645.540054321289C-659.0159606933594 5374.339859008789 -419.6819763183594 6118.209976196289 -50.24456787109375 6791.890151977539C-19.44586181640625 6848.049819946289 -16.652664184570312 6852.750015258789 -13.859466552734375 6854.220230102539Z" fill="black" /></g></svg>