<?xml version="1.0" encoding="utf-8" ?>
<svg baseProfile="tiny" height="100%" version="1.2" width="100%" xmlns="http://www.w3.org/2000/svg" xmlns:ev="http://www.w3.org/2001/xml-events" xmlns:xlink="http://www.w3.org/1999/xlink"><defs /><g transform="translate(0, 1000) scale(1, -1)"><path d="M-19.762496948242188 545.1749877929688C-19.323684692382812 545.2310180664062 -18.89068603515625 545.2579956054688 -18.465484619140625 545.2579956054688C-13.40228271484375 545.2579956054688 -9.425277709960938 541.3930053710938 -9.425277709960938 536.177001953125C-9.425277709960938 536.1589965820312 -9.425338745117188 536.1409912109375 -9.425430297851562 536.1220092773438C-9.4405517578125 533.8400268554688 -9.5916748046875 533.4169921875 -11.888778686523438 529.2459716796875C-34.538482666015625 488.0220031738281 -45.86778259277344 441.0270080566406 -45.86778259277344 387.2799987792969C-45.86778259277344 331.0010070800781 -33.446685791015625 267.3190002441406 -8.59423828125 195.10400390625C-2.89794921875 178.5659942626953 -0.0816192626953125 161.69000244140625 -0.0816192626953125 144.9239959716797C-0.0816192626953125 113.82699584960938 -9.769638061523438 83.106201171875 -28.739486694335938 55.61370849609375C-41.40388488769531 37.251800537109375 -58.49638366699219 19.675704956054688 -80.86317443847656 2.039154052734375C-82.66157531738281 0.6336822509765625 -84.12757873535156 -0.5602264404296875 -84.12757873535156 -0.605560302734375C-84.12757873535156 -0.650909423828125 -82.66157531738281 -1.8296966552734375 -80.86317443847656 -3.2502899169921875C-33.107086181640625 -40.89610290527344 -8.140853881835938 -79.46369934082031 -1.4912567138671875 -125.81399536132812C-0.500274658203125 -132.69900512695312 1.52587890625e-05 -139.5030059814453 1.52587890625e-05 -146.31700134277344C1.52587890625e-05 -163.2989959716797 -3.1074676513671875 -180.3489990234375 -9.470779418945312 -198.8990020751953C-33.64299011230469 -269.3869934082031 -45.72508239746094 -332.0140075683594 -45.72508239746094 -387.5329895019531C-45.72508239746094 -441.1809997558594 -34.44398498535156 -488.1929931640625 -11.888778686523438 -529.2479858398438C-9.5916748046875 -533.4190063476562 -9.4405517578125 -533.8419799804688 -9.425430297851562 -536.1240234375L-9.425323486328125 -536.1690063476562C-9.425323486328125 -541.5020141601562 -13.58197021484375 -545.2579956054688 -18.323577880859375 -545.2579956054688C-19.7398681640625 -545.2579956054688 -21.2083740234375 -544.9229736328125 -22.63397216796875 -544.1950073242188C-25.1275634765625 -542.9249877929688 -25.29376220703125 -542.6530151367188 -32.35136413574219 -529.7020263671875C-80.28836059570312 -441.4989929199219 -103.59197998046875 -362.83599853515625 -103.59197998046875 -287.4010009765625C-103.59197998046875 -265.35400390625 -101.60096740722656 -243.58399963378906 -97.65336608886719 -221.93099975585938C-94.84246826171875 -206.50100708007812 -90.2481689453125 -188.8040008544922 -85.24588012695312 -174.1750030517578C-74.6065673828125 -142.9669952392578 -70.2691650390625 -123.69900512695312 -68.39517211914062 -99.29159545898438C-68.26596069335938 -97.54280090332031 -68.20407104492188 -93.95278930664062 -68.20407104492188 -90.19610595703125C-68.20407104492188 -85.60919189453125 -68.2962646484375 -80.7738037109375 -68.47076416015625 -78.73829650878906C-71.17596435546875 -47.96879577636719 -82.84297180175781 -24.589401245117188 -103.22998046875 -9.08380126953125C-105.677978515625 -7.2249298095703125 -105.87496948242188 -7.0435791015625 -106.53997802734375 -6.197265625C-107.80197143554688 -4.5953216552734375 -108.43296813964844 -2.600433349609375 -108.43296813964844 -0.605560302734375C-108.43296813964844 1.389312744140625 -107.80197143554688 3.384185791015625 -106.53997802734375 4.98614501953125C-105.87496948242188 5.8324432373046875 -105.677978515625 6.0137939453125 -103.22998046875 7.8726654052734375C-85.82015991210938 21.111404418945312 -74.515869140625 40.636993408203125 -70.02737426757812 65.21029663085938C-68.83106994628906 71.78439331054688 -68.12277221679688 81.49330139160156 -68.12277221679688 89.89459228515625C-68.12277221679688 92.84939575195312 -68.21037292480469 95.64239501953125 -68.39517211914062 98.08039855957031C-69.48336791992188 112.16500854492188 -71.28176879882812 123.47000122070312 -74.802978515625 138.26499938964844C-77.13037109375 148.05799865722656 -79.72976684570312 156.68800354003906 -85.47256469726562 173.6439971923828C-94.32867431640625 199.75900268554688 -100.38897705078125 229.63699340820312 -102.56497192382812 257.7460021972656C-103.31196594238281 267.3800048828125 -103.68696594238281 277.0320129394531 -103.68696594238281 286.7200012207031C-103.68696594238281 364.7049865722656 -79.34007263183594 445.0450134277344 -28.0291748046875 537.5579833984375C-24.931076049804688 543.1649780273438 -23.223373413085938 544.7210083007812 -19.762466430664062 545.1749877929688Z" fill="black" /></g></svg>