<?xml version="1.0" encoding="utf-8" ?>
<svg baseProfile="tiny" height="100%" version="1.2" width="100%" xmlns="http://www.w3.org/2000/svg" xmlns:ev="http://www.w3.org/2001/xml-events" xmlns:xlink="http://www.w3.org/1999/xlink"><defs /><g transform="translate(0, 1000) scale(1, -1)"><path d="M-15.372299194335938 10486.2001953125C-14.013076782226562 10487.400390625 -11.944290161132812 10488.0 -9.792327880859375 10488.0C-7.1965179443359375 10488.0 -4.4796295166015625 10487.2001953125 -2.7406463623046875 10485.5C-1.0380096435546875 10483.7998046875 -0.02813720703125 10482.5 -0.02813720703125 10480.2998046875C-0.02813720703125 10476.400390625 -3.4057464599609375 10469.7998046875 -12.100784301757812 10454.2001953125C-632.9489288330078 9342.4501953125 -950.9439239501953 8058.47021484375 -950.9439239501953 6705.14990234375C-950.9439239501953 6173.83984375 -901.9309844970703 5631.85009765625 -802.9899444580078 5085.39013671875C-715.0219268798828 4599.2998046875 -585.3429718017578 4106.02978515625 -422.3129425048828 3636.3798828125C-366.5149688720703 3475.719970703125 -333.98194885253906 3361.93994140625 -304.17396545410156 3222.89990234375C-257.98594665527344 3007.43994140625 -235.4759521484375 2790.60009765625 -235.4759521484375 2575.409912109375C-235.4759521484375 1590.760009765625 -706.7869262695312 640.8369750976562 -1537.3499145507812 16.99798583984375C-1557.7999877929688 1.6400146484375 -1574.6998901367188 -11.264312744140625 -1574.8899536132812 -11.718719482421875V-11.724014282226562C-1574.8899536132812 -12.153518676757812 -1564.9199829101562 -20.029708862304688 -1552.6199340820312 -29.166717529296875C-931.4879150390625 -490.7229919433594 -494.73992919921875 -1145.9300231933594 -320.1689453125 -1877.9399108886719C-263.7949523925781 -2114.350067138672 -235.62994384765625 -2355.860076904297 -235.62994384765625 -2597.290008544922C-235.62994384765625 -2850.139862060547 -266.5219421386719 -3102.909881591797 -328.2559509277344 -3349.659881591797C-355.4279479980469 -3458.259979248047 -377.4199523925781 -3530.779998779297 -422.31292724609375 -3659.999969482422C-735.2869262695312 -4560.759735107422 -914.4029541015625 -5512.589813232422 -943.9369506835938 -6431.700164794922C-946.9249267578125 -6525.279754638672 -948.5489501953125 -6641.680145263672 -948.5489501953125 -6742.439910888672C-948.5489501953125 -6804.129852294922 -947.93994140625 -6859.939910888672 -946.6639404296875 -6901.080047607422C-946.3909301757812 -6909.799774169922 -945.7549438476562 -6932.879852294922 -945.3009643554688 -6952.419891357422C-912.9489135742188 -8210.589813232422 -591.52294921875 -9416.599578857422 -12.1007080078125 -10454.200164794922C-3.37506103515625 -10469.799774169922 9.1552734375e-05 -10476.400360107422 9.1552734375e-05 -10480.400360107422C9.1552734375e-05 -10482.499969482422 -0.951446533203125 -10483.900360107422 -2.5588226318359375 -10485.599578857422C-4.2381134033203125 -10487.200164794922 -6.99114990234375 -10487.999969482422 -9.636184692382812 -10487.999969482422C-11.857803344726562 -10487.999969482422 -14.003311157226562 -10487.400360107422 -15.372207641601562 -10486.200164794922C-17.280609130859375 -10484.499969482422 -51.358917236328125 -10423.400360107422 -82.25660705566406 -10366.599578857422C-654.6809234619141 -9312.820281982422 -1010.6399078369141 -8151.160125732422 -1116.149917602539 -6992.410125732422C-1116.6898345947266 -6986.410125732422 -1117.6898345947266 -6976.140106201172 -1118.419937133789 -6969.689910888672C-1125.7799224853516 -6902.439910888672 -1138.139907836914 -6718.600067138672 -1143.859878540039 -6590.279754638672C-1149.2198638916016 -6470.259735107422 -1151.879898071289 -6350.040008544922 -1151.879898071289 -6229.769989013672C-1151.879898071289 -5319.279754638672 -999.0799102783203 -4406.060028076172 -703.1178741455078 -3556.860076904297C-583.7978668212891 -3214.439910888672 -519.8219146728516 -2910.459930419922 -496.92088317871094 -2576.310028076172C-491.5579071044922 -2498.209930419922 -488.90589904785156 -2420.560028076172 -488.90589904785156 -2343.499969482422C-488.90589904785156 -1398.2299499511719 -887.9718780517578 -542.4699401855469 -1575.9798736572266 -35.70977783203125C-1600.3099517822266 -17.727569580078125 -1601.429946899414 -17.115875244140625 -1601.429946899414 -13.146469116210938L-1601.419937133789 -11.809463500976562L-1601.429946899414 -10.472457885742188C-1601.429946899414 -6.5030670166015625 -1600.3099517822266 -5.891387939453125 -1575.9798736572266 12.090744018554688C-887.9718780517578 518.8510589599609 -488.90589904785156 1374.6100311279297 -488.90589904785156 2319.879928588867C-488.90589904785156 2396.939987182617 -491.5579071044922 2474.590133666992 -496.92088317871094 2552.699996948242C-519.8219146728516 2886.840133666992 -583.6159210205078 3190.189987182617 -703.1178741455078 3533.240036010742C-1001.4798736572266 4389.770065307617 -1154.0399322509766 5301.730026245117 -1154.0399322509766 6219.549850463867C-1154.0399322509766 6381.359909057617 -1149.2899322509766 6543.350143432617 -1139.7699127197266 6705.250045776367C-1135.0499420166016 6785.129928588867 -1123.2298736572266 6945.339889526367 -1121.139907836914 6956.879928588867C-1120.869888305664 6958.339889526367 -1119.6898345947266 6970.600143432617 -1118.419937133789 6984.140182495117C-1006.0998687744141 8188.430221557617 -641.4129180908203 9358.719772338867 -41.36262512207031 10441.000045776367C-28.094818115234375 10464.900436401367 -16.371917724609375 10485.200241088867 -15.372222900390625 10486.200241088867Z" fill="black" /></g></svg>