<?xml version="1.0" encoding="utf-8" ?>
<svg baseProfile="tiny" height="100%" version="1.2" width="100%" xmlns="http://www.w3.org/2000/svg" xmlns:ev="http://www.w3.org/2001/xml-events" xmlns:xlink="http://www.w3.org/1999/xlink"><defs /><g transform="translate(0, 1000) scale(1, -1)"><path d="M-20.2633056640625 678.6160278320312C-19.465499877929688 678.8099975585938 -18.680496215820312 678.9019775390625 -17.918792724609375 678.9019775390625C-12.89019775390625 678.9019775390625 -8.8765869140625 674.9000244140625 -8.8765869140625 669.8699951171875C-8.8765869140625 669.135009765625 -8.962265014648438 668.3779907226562 -9.1429443359375 667.6090087890625C-9.331756591796875 666.8350219726562 -9.954788208007812 665.4569702148438 -10.917694091796875 663.7379760742188C-40.79779052734375 610.041015625 -55.7366943359375 548.0560302734375 -55.7366943359375 477.8819885253906C-55.7366943359375 407.9859924316406 -40.915802001953125 329.9670104980469 -11.276397705078125 243.9219970703125C-3.74365234375 222.04800415039062 0.0 200.8509979248047 0.0 179.802001953125C0.0 172.30999755859375 -0.4743499755859375 164.83599853515625 -1.4210052490234375 157.35699462890625C-8.708694458007812 99.52719116210938 -39.860809326171875 50.061492919921875 -98.16229248046875 3.7110137939453125C-100.50299072265625 1.8607635498046875 -102.71200561523438 0.0860443115234375 -103.07099914550781 -0.2160491943359375L-103.73200988769531 -0.7635650634765625L-103.07099914550781 -1.31109619140625C-102.71202087402344 -1.6131744384765625 -100.50300598144531 -3.3878936767578125 -98.16230773925781 -5.2381439208984375C-39.86082458496094 -51.588592529296875 -8.708709716796875 -101.05400085449219 -1.4210205078125 -158.88400268554688C-0.474365234375 -166.36300659179688 -1.52587890625e-05 -173.83799743652344 -1.52587890625e-05 -181.33200073242188C-1.52587890625e-05 -202.38600158691406 -3.7436676025390625 -223.58900451660156 -11.276412963867188 -245.44900512695312C-40.82151794433594 -331.156005859375 -55.59051513671875 -408.9419860839844 -55.59051513671875 -478.614990234375C-55.59051513671875 -548.655029296875 -40.66571044921875 -610.4959716796875 -10.823318481445312 -663.9439697265625C-9.44635009765625 -666.3900146484375 -8.855056762695312 -668.0700073242188 -8.855056762695312 -669.833984375C-8.855056762695312 -670.56201171875 -8.95556640625 -671.302978515625 -9.142959594726562 -672.1190185546875C-10.156219482421875 -676.3980102539062 -14.006820678710938 -678.9019775390625 -17.953018188476562 -678.9019775390625C-20.256912231445312 -678.9019775390625 -22.593521118164062 -678.0479736328125 -24.416915893554688 -676.197021484375C-25.606307983398438 -674.969970703125 -31.59130859375 -664.2650146484375 -39.89851379394531 -648.4429931640625C-93.17071533203125 -547.14599609375 -119.61302185058594 -452.87200927734375 -119.61302185058594 -362.6610107421875C-119.61302185058594 -312.0060119628906 -111.27601623535156 -262.6310119628906 -94.66950988769531 -214.01400756835938C-84.07780456542969 -182.97500610351562 -78.56492614746094 -157.60000610351562 -76.41252136230469 -129.8090057373047C-76.23222351074219 -127.46499633789062 -76.14561462402344 -122.30599975585938 -76.14561462402344 -116.93699645996094C-76.14561462402344 -110.49899291992188 -76.27021789550781 -103.75799560546875 -76.50691223144531 -101.20500183105469C-80.226318359375 -60.57550048828125 -95.50032043457031 -30.235305786132812 -122.70600891113281 -9.448379516601562C-124.31101989746094 -8.221176147460938 -125.85902404785156 -6.91845703125 -126.12400817871094 -6.57861328125C-127.49201965332031 -4.813323974609375 -128.17701721191406 -2.7884521484375 -128.17701721191406 -0.7635650634765625C-128.17701721191406 1.261322021484375 -127.49201965332031 3.28619384765625 -126.12400817871094 5.051483154296875C-125.85902404785156 5.391326904296875 -124.31101989746094 6.6940460205078125 -122.70600891113281 7.9212493896484375C-95.50032043457031 28.708206176757812 -80.226318359375 59.04840087890625 -76.50691223144531 99.67829895019531C-76.27021789550781 102.23100280761719 -76.14561462402344 108.97200012207031 -76.14561462402344 115.41000366210938C-76.14561462402344 120.77899169921875 -76.23222351074219 125.93800354003906 -76.41252136230469 128.28199768066406C-78.56492614746094 156.1300048828125 -84.05900573730469 181.41000366210938 -94.72621154785156 212.6750030517578C-103.67501831054688 238.86199951171875 -109.37701416015625 261.0270080566406 -113.43601989746094 285.3630065917969C-117.65101623535156 310.59100341796875 -119.77101135253906 335.98699951171875 -119.77101135253906 361.6669921875C-119.77101135253906 458.0450134277344 -89.90811157226562 558.4310302734375 -28.81591796875 668.9869995117188C-24.549118041992188 676.6900024414062 -23.548416137695312 677.822998046875 -20.263320922851562 678.6160278320312Z" fill="black" /></g></svg>