<?xml version="1.0" encoding="utf-8" ?>
<svg baseProfile="tiny" height="100%" version="1.2" width="100%" xmlns="http://www.w3.org/2000/svg" xmlns:ev="http://www.w3.org/2001/xml-events" xmlns:xlink="http://www.w3.org/1999/xlink"><defs /><g transform="translate(0, 1000) scale(1, -1)"><path d="M-12.15130615234375 8422.7998046875C-11.324996948242188 8422.9697265625 -10.490692138671875 8423.0498046875 -9.668426513671875 8423.0498046875C-6.0070037841796875 8423.0498046875 -2.5838165283203125 8421.400390625 -1.1636962890625 8418.6796875C-0.49127197265625 8417.4296875 -0.0807342529296875 8416.3095703125 -0.0807342529296875 8414.919921875C-0.0807342529296875 8411.25 -2.951141357421875 8405.66015625 -11.439895629882812 8390.4599609375C-450.1549835205078 7606.7900390625 -703.6609954833984 6690.4599609375 -747.9279632568359 5728.60986328125C-752.8539886474609 5621.52978515625 -755.3149871826172 5514.259765625 -755.3149871826172 5406.81982421875C-755.3149871826172 4578.08984375 -608.8639984130859 3739.110107421875 -317.27598571777344 2898.699951171875C-254.2749786376953 2717.2099609375 -213.48597717285156 2538.090087890625 -192.6169891357422 2351.85009765625C-185.97698974609375 2292.56005859375 -183.44798278808594 2259.2099609375 -179.09999084472656 2174.22998046875C-178.0139923095703 2152.6298828125 -177.49598693847656 2124.669921875 -177.49598693847656 2093.919921875C-177.49598693847656 2032.9599609375 -179.531982421875 1961.0699462890625 -183.2109832763672 1906.260009765625C-232.77398681640625 1164.7900390625 -625.0869750976562 463.1629638671875 -1247.510009765625 2.868255615234375C-1256.199951171875 -3.6136627197265625 -1263.3199462890625 -9.147003173828125 -1263.3199462890625 -9.46319580078125C-1263.3199462890625 -9.858428955078125 -1255.6500244140625 -15.787033081054688 -1246.3199462890625 -22.66412353515625C-625.6409912109375 -481.22003173828125 -232.69400024414062 -1184.3500366210938 -183.21099853515625 -1925.1801147460938C-179.53199768066406 -1979.9900512695312 -177.49600219726562 -2051.8799438476562 -177.49600219726562 -2112.8501586914062C-177.49600219726562 -2143.5901489257812 -178.01400756835938 -2171.5601196289062 -179.10000610351562 -2193.1599731445312C-183.447998046875 -2278.1299438476562 -185.9770050048828 -2311.4900512695312 -192.61700439453125 -2370.7800903320312C-213.9600067138672 -2561.3601684570312 -253.7209930419922 -2734.0000610351562 -320.8330078125 -2927.9099731445312C-426.2820129394531 -3232.3999633789062 -508.8869934082031 -3522.8201293945312 -574.81298828125 -3820.6699829101562C-694.302001953125 -4360.690002441406 -753.4929809570312 -4896.180236816406 -753.4929809570312 -5418.160217285156C-753.4929809570312 -6489.129943847656 -504.32501220703125 -7503.250061035156 -15.5504150390625 -8383.070373535156C-2.5167388916015625 -8406.540100097656 -1.52587890625e-05 -8411.110412597656 -1.52587890625e-05 -8414.320373535156C-1.52587890625e-05 -8414.919982910156 -0.0896453857421875 -8415.480529785156 -0.21514892578125 -8416.110412597656C-1.091339111328125 -8420.389709472656 -5.3952789306640625 -8423.049865722656 -9.57733154296875 -8423.049865722656C-11.809310913085938 -8423.049865722656 -14.006515502929688 -8422.290100097656 -15.629409790039062 -8420.620178222656C-18.4752197265625 -8417.610412597656 -65.35050964355469 -8332.639709472656 -99.18290710449219 -8269.160217285156C-524.6970367431641 -7469.990295410156 -795.6720123291016 -6606.080139160156 -894.9560089111328 -5732.120178222656C-896.9329986572266 -5714.730041503906 -898.6720123291016 -5699.629943847656 -898.9090118408203 -5698.529846191406C-900.3319854736328 -5691.180236816406 -910.0540313720703 -5590.629943847656 -914.7180328369141 -5534.899963378906C-930.4520416259766 -5346.850158691406 -938.3250274658203 -5159.980041503906 -938.3250274658203 -4974.180236816406C-938.3250274658203 -4247.980041503906 -818.0520172119141 -3538.2200317382812 -576.7890167236328 -2838.9800415039062C-531.2580108642578 -2706.8899536132812 -502.80101013183594 -2607.7600708007812 -476.3990020751953 -2489.1900024414062C-429.7680206298828 -2279.4400024414062 -407.08702087402344 -2070.9299926757812 -407.08702087402344 -1867.6300659179688C-407.08702087402344 -1121.1300659179688 -712.8990020751953 -444.85406494140625 -1261.740005493164 -34.99566650390625C-1285.689956665039 -17.141159057617188 -1289.790054321289 -14.236663818359375 -1289.790054321289 -10.45526123046875C-1289.790054321289 -9.482131958007812 -1289.520034790039 -8.450897216796875 -1289.250015258789 -7.091796875C-1288.689956665039 -3.9298858642578125 -1289.250015258789 -4.48321533203125 -1261.740005493164 16.069244384765625C-719.9340362548828 420.6629333496094 -407.39002990722656 1090.9499206542969 -407.39002990722656 1848.6600036621094V1848.9499206542969C-407.39002990722656 2177.080047607422 -461.06300354003906 2484.810028076172 -576.7890167236328 2820.050018310547C-819.3870391845703 3522.689910888672 -940.0100250244141 4234.740203857422 -940.0100250244141 4966.009735107422C-940.0100250244141 5126.370086669922 -934.2100372314453 5287.660125732422 -922.6230010986328 5449.970184326172C-916.9320220947266 5529.810028076172 -905.9439849853516 5650.040008544922 -900.4900054931641 5693.439910888672C-899.7780303955078 5698.649871826172 -897.4860382080078 5718.569793701172 -895.2730255126953 5737.700164794922C-791.9569854736328 6647.700164794922 -492.60301208496094 7567.890106201172 -30.648513793945312 8394.889617919922C-16.894210815429688 8419.629852294922 -15.155120849609375 8422.160125732422 -12.151321411132812 8422.799774169922Z" fill="black" /></g></svg>