<?xml version="1.0" encoding="utf-8" ?>
<svg baseProfile="tiny" height="100%" version="1.2" width="100%" xmlns="http://www.w3.org/2000/svg" xmlns:ev="http://www.w3.org/2001/xml-events" xmlns:xlink="http://www.w3.org/1999/xlink"><defs /><g transform="translate(0, 1000) scale(1, -1)"><path d="M-11.430801391601562 4192.35009765625C-10.759918212890625 4192.4599609375 -10.104110717773438 4192.509765625 -9.467514038085938 4192.509765625C-4.0305023193359375 4192.509765625 -0.0001983642578125 4188.830078125 -0.0001983642578125 4183.4599609375C-0.0001983642578125 4183.43017578125 -0.0003509521484375 4183.39990234375 -0.000640869140625 4183.3701171875C-0.0561370849609375 4180.419921875 -0.4445343017578125 4179.5400390625 -7.9351806640625 4166.10986328125C-93.05111694335938 4013.469970703125 -166.2370147705078 3843.010009765625 -221.22401428222656 3669.22998046875C-313.38002014160156 3377.889892578125 -359.26402282714844 3065.110107421875 -359.26402282714844 2740.81005859375C-359.26402282714844 2324.679931640625 -283.71900939941406 1889.5799560546875 -133.4450225830078 1456.43994140625C-86.63810729980469 1321.489990234375 -63.865814208984375 1190.18994140625 -63.865814208984375 1053.22998046875C-63.865814208984375 1029.1400146484375 -64.57081604003906 1004.8599853515625 -65.97381591796875 980.3660278320312C-87.39152526855469 604.3909912109375 -288.19602966308594 247.114990234375 -615.6760406494141 2.30950927734375C-620.6140289306641 -1.4080657958984375 -624.6649932861328 -4.5707855224609375 -624.6649932861328 -4.792724609375C-624.6649932861328 -5.0146636962890625 -620.6140289306641 -8.1773681640625 -615.6760406494141 -11.895004272460938C-288.19602966308594 -256.70001220703125 -87.39152526855469 -613.9760131835938 -65.97381591796875 -989.9509887695312C-64.57081604003906 -1014.4500122070312 -63.865814208984375 -1038.719970703125 -63.865814208984375 -1062.81005859375C-63.865814208984375 -1199.739990234375 -86.63810729980469 -1330.9300537109375 -133.4450225830078 -1466.02001953125C-283.38600158691406 -1898.43994140625 -357.93101501464844 -2323.85009765625 -357.93101501464844 -2746.969970703125C-357.93101501464844 -2752.8798828125 -357.91600036621094 -2758.780029296875 -357.8870086669922 -2764.679931640625C-357.61000061035156 -2822.830078125 -357.3880157470703 -2835.31005859375 -355.8340301513672 -2875.64990234375C-337.91200256347656 -3346.2900390625 -219.1710205078125 -3786.679931640625 -8.046157836914062 -4165.97998046875C-0.4445343017578125 -4179.68994140625 -0.0561370849609375 -4180.580078125 -0.000640869140625 -4183.52001953125C-0.0002288818359375 -4183.56005859375 -1.52587890625e-05 -4183.60009765625 -1.52587890625e-05 -4183.64013671875C-1.52587890625e-05 -4189.009765625 -3.5938720703125 -4192.509765625 -9.100387573242188 -4192.509765625H-9.817581176757812C-15.135711669921875 -4192.509765625 -15.531723022460938 -4191.5400390625 -41.171417236328125 -4144.6201171875C-303.4549865722656 -3664.830078125 -458.20599365234375 -3142.2099609375 -489.27801513671875 -2631.7900390625C-493.260009765625 -2566.2900390625 -495.510986328125 -2485.93994140625 -495.510986328125 -2419.840087890625C-495.510986328125 -2391.97998046875 -495.1109924316406 -2366.64990234375 -494.2720031738281 -2346.0400390625C-494.1059875488281 -2342.0400390625 -493.7170104980469 -2331.219970703125 -493.44000244140625 -2321.89990234375C-483.17498779296875 -2015.3900146484375 -425.74700927734375 -1702.72998046875 -327.14801025390625 -1417.199951171875C-303.5660095214844 -1348.949951171875 -290.9150085449219 -1307.6700439453125 -279.0409851074219 -1260.1700439453125C-253.6840057373047 -1158.800048828125 -239.58999633789062 -1064.25 -234.20799255371094 -959.156005859375C-233.73599243164062 -949.8619995117188 -233.50100708007812 -923.6309814453125 -233.50100708007812 -897.4760131835938C-233.50100708007812 -871.322021484375 -233.73599243164062 -845.2429809570312 -234.20799255371094 -836.2540283203125C-252.6300048828125 -487.8009948730469 -393.1759948730469 -202.26800537109375 -635.8179931640625 -20.162399291992188C-649.4669799804688 -9.897445678710938 -650.0780029296875 -9.231613159179688 -650.0780029296875 -4.7927093505859375C-650.0780029296875 -0.3538055419921875 -649.4669799804688 0.3120269775390625 -635.8179931640625 10.576995849609375C-393.1759948730469 192.68299865722656 -252.6300048828125 478.27101135253906 -234.20799255371094 826.6690216064453C-233.73599243164062 835.6580352783203 -233.50100708007812 861.7360382080078 -233.50100708007812 887.8910064697266C-233.50100708007812 914.0460357666016 -233.73599243164062 940.2769927978516 -234.20799255371094 949.5709991455078C-241.75399780273438 1096.6100006103516 -267.3890075683594 1231.000015258789 -314.6629943847656 1370.709976196289C-337.635009765625 1438.740005493164 -344.6260070800781 1459.709976196289 -350.5069885253906 1478.3499908447266C-431.739013671875 1736.0899810791016 -479.01300048828125 1999.979995727539 -492.3299865722656 2269.590103149414C-495.43701171875 2332.679946899414 -495.93701171875 2354.760025024414 -495.93701171875 2428.280044555664C-495.93701171875 2501.300064086914 -495.2149963378906 2531.820083618164 -492.0530090332031 2594.179946899414C-465.9739990234375 3104.659927368164 -319.3800048828125 3620.510025024414 -62.755615234375 4104.520034790039C-27.077911376953125 4171.819839477539 -15.425811767578125 4191.740249633789 -11.430816650390625 4192.350112915039Z" fill="black" /></g></svg>