<?xml version="1.0" encoding="utf-8" ?>
<svg baseProfile="tiny" height="100%" version="1.2" width="100%" xmlns="http://www.w3.org/2000/svg" xmlns:ev="http://www.w3.org/2001/xml-events" xmlns:xlink="http://www.w3.org/1999/xlink"><defs /><g transform="translate(0, 1000) scale(1, -1)"><path d="M-18.2958984375 958.4719848632812C-17.210205078125 958.9290161132812 -16.095306396484375 959.1409912109375 -15.000595092773438 959.1409912109375C-10.452606201171875 959.1409912109375 -6.2539520263671875 955.47802734375 -5.9517974853515625 950.4920043945312C-5.9320526123046875 950.198974609375 -5.91998291015625 949.927978515625 -5.91998291015625 949.6669921875C-5.91998291015625 947.8049926757812 -6.5341644287109375 946.4550170898438 -9.352462768554688 941.3350219726562C-53.54930114746094 860.77001953125 -75.65689086914062 767.7830200195312 -75.65689086914062 664.260986328125C-75.65689086914062 566.3280029296875 -55.87229919433594 458.968994140625 -16.287704467773438 343.7820129394531C-7.18353271484375 317.29901123046875 -2.52435302734375 296.0920104980469 -0.810638427734375 273.49200439453125C-0.26983642578125 266.32501220703125 0.0 259.2030029296875 0.0 252.1280059814453C0.0 167.7740020751953 -38.35809326171875 90.15910339355469 -113.13999938964844 23.530105590820312C-120.50299072265625 16.969802856445312 -135.36399841308594 4.732757568359375 -141.73699951171875 -0.033538818359375C-142.50100708007812 -0.6092376708984375 -142.8820037841797 -0.85693359375 -142.8820037841797 -1.1046142578125C-142.8820037841797 -1.352294921875 -142.50100708007812 -1.5999908447265625 -141.73699951171875 -2.175689697265625C-135.36399841308594 -6.9419708251953125 -120.50299072265625 -19.179000854492188 -113.13999938964844 -25.739303588867188C-38.35809326171875 -92.36830139160156 0.0 -169.98399353027344 0.0 -254.33700561523438C0.0 -261.4119873046875 -0.26983642578125 -268.53399658203125 -0.810638427734375 -275.7019958496094C-2.52435302734375 -298.4079895019531 -7.1567535400390625 -319.4010009765625 -16.421600341796875 -346.39300537109375C-38.4053955078125 -410.4700012207031 -53.88240051269531 -470.77099609375 -63.977294921875 -531.6890258789062C-71.67169189453125 -578.14599609375 -75.51170349121094 -622.8779907226562 -75.51170349121094 -665.7750244140625C-75.51170349121094 -768.72802734375 -53.3927001953125 -861.1090087890625 -9.352462768554688 -941.4019775390625C-6.5341644287109375 -946.52197265625 -5.91998291015625 -947.8720092773438 -5.91998291015625 -949.7340087890625C-5.91998291015625 -949.9949951171875 -5.9320526123046875 -950.2670288085938 -5.9517974853515625 -950.5590209960938C-6.2408447265625 -955.6380004882812 -10.366302490234375 -959.1409912109375 -14.952804565429688 -959.1409912109375C-16.314804077148438 -959.1409912109375 -17.717498779296875 -958.8319702148438 -19.072494506835938 -958.1640014648438C-21.509201049804688 -956.9860229492188 -22.071502685546875 -956.208984375 -26.034500122070312 -949.0869750976562C-108.56500244140625 -800.125 -149.8249969482422 -657.6599731445312 -149.8249969482422 -521.656005859375C-149.8249969482422 -478.2879943847656 -145.62899780273438 -435.57598876953125 -137.23899841308594 -393.5199890136719C-131.21400451660156 -363.3420104980469 -124.68099975585938 -339.59100341796875 -112.63099670410156 -304.0849914550781C-99.45669555664062 -265.2049865722656 -92.6553955078125 -232.59100341796875 -89.65631103515625 -193.6300048828125C-89.4287109375 -190.6179962158203 -89.31491088867188 -182.52499389648438 -89.31491088867188 -174.46200561523438C-89.31491088867188 -166.3979949951172 -89.4287109375 -158.36500549316406 -89.65631103515625 -155.47300720214844C-94.82431030273438 -91.02139282226562 -118.84300231933594 -42.47489929199219 -161.39199829101562 -10.396194458007812C-166.3719940185547 -6.647430419921875 -167.63099670410156 -4.7998199462890625 -167.63099670410156 -1.1046142578125C-167.63099670410156 2.590606689453125 -166.3719940185547 4.438201904296875 -161.39199829101562 8.186965942382812C-118.84300231933594 40.26570129394531 -94.82431030273438 88.81219482421875 -89.65631103515625 153.26400756835938C-89.4287109375 156.156005859375 -89.31491088867188 164.18899536132812 -89.31491088867188 172.2519989013672C-89.31491088867188 180.31500244140625 -89.4287109375 188.40899658203125 -89.65631103515625 191.42100524902344C-91.20939636230469 211.4770050048828 -93.08380126953125 225.37399291992188 -96.69869995117188 243.23399353027344C-101.33099365234375 266.3160095214844 -105.239990234375 280.18701171875 -116.62100219726562 313.7919921875C-138.93699645996094 379.7650146484375 -150.05499267578125 448.4360046386719 -150.05499267578125 519.2139892578125C-150.05499267578125 652.3389892578125 -110.72299194335938 792.9180297851562 -32.59480285644531 937.0239868164062C-21.589508056640625 957.3469848632812 -21.803695678710938 956.9990234375 -18.2958984375 958.4719848632812Z" fill="black" /></g></svg>