<?xml version="1.0" encoding="utf-8" ?>
<svg baseProfile="tiny" height="100%" version="1.2" width="100%" xmlns="http://www.w3.org/2000/svg" xmlns:ev="http://www.w3.org/2001/xml-events" xmlns:xlink="http://www.w3.org/1999/xlink"><defs /><g transform="translate(0, 1000) scale(1, -1)"><path d="M-12.4822998046875 280.44000244140625C-11.969894409179688 280.5260009765625 -11.462799072265625 280.5679931640625 -10.964401245117188 280.5679931640625C-6.031494140625 280.5679931640625 -1.9477691650390625 276.4939880371094 -1.9477691650390625 271.55999755859375C-1.9477691650390625 271.0799865722656 -1.9863128662109375 270.5929870605469 -2.0663604736328125 270.1000061035156C-2.2959442138671875 268.6839904785156 -2.5102386474609375 268.1719970703125 -4.2475128173828125 264.9880065917969C-15.251495361328125 244.7689971923828 -20.937698364257812 220.41099548339844 -20.937698364257812 193.85299682617188C-20.937698364257812 189.6199951171875 -20.793197631835938 185.33099365234375 -20.5028076171875 180.99400329589844C-18.811492919921875 155.71600341796875 -13.2781982421875 130.40699768066406 -2.6479949951171875 99.33509826660156C-1.8137969970703125 96.87850952148438 -1.5306243896484375 95.92179870605469 -0.66583251953125 92.60040283203125L0.0 90.0364990234375V73.00820922851562V55.97990417480469L-0.58929443359375 53.68400573730469C-5.7628326416015625 33.472015380859375 -16.936492919921875 16.803421020507812 -36.2760009765625 0.4638671875C-36.735198974609375 0.07354736328125 -37.11790466308594 -0.270843505859375 -37.11790466308594 -0.309112548828125C-37.11790466308594 -0.3473663330078125 -36.735198974609375 -0.6917572021484375 -36.2760009765625 -1.0820770263671875C-16.936492919921875 -17.421585083007812 -5.7628326416015625 -34.090179443359375 -0.58929443359375 -54.30218505859375L0.0 -56.59819030761719V-73.62649536132812V-90.65478515625L-0.66583251953125 -93.21858215332031C-1.5306243896484375 -96.54768371582031 -1.8137969970703125 -97.50437927246094 -2.6479949951171875 -99.95338439941406C-12.451705932617188 -128.56898498535156 -17.8778076171875 -152.239990234375 -20.005401611328125 -175.6809844970703C-20.574600219726562 -181.94398498535156 -20.85809326171875 -188.08297729492188 -20.85809326171875 -194.0859832763672C-20.85809326171875 -220.76998901367188 -15.255996704101562 -244.7639923095703 -4.2475128173828125 -264.9939727783203C-2.250030517578125 -268.66697692871094 -1.9515533447265625 -269.5089874267578 -1.9515533447265625 -271.53697204589844C-1.9515533447265625 -276.86497497558594 -6.3275604248046875 -280.56797790527344 -11.02789306640625 -280.56797790527344C-12.796401977539062 -280.56797790527344 -14.610794067382812 -280.0439910888672 -16.255294799804688 -278.8839874267578C-17.9237060546875 -277.7059783935547 -18.505401611328125 -276.8099822998047 -22.638092041015625 -269.1269989013672C-46.1763916015625 -225.29298400878906 -57.66560363769531 -185.19598388671875 -57.66560363769531 -146.5249786376953C-57.66560363769531 -141.02598571777344 -57.43330383300781 -135.5549774169922 -56.97019958496094 -130.1069793701172C-55.7073974609375 -115.19798278808594 -52.760894775390625 -101.29298400878906 -47.602691650390625 -85.90977478027344C-42.91130065917969 -71.90449523925781 -41.04389953613281 -63.50898742675781 -40.12559509277344 -52.23588562011719C-40.025604248046875 -51.02137756347656 -39.9783935546875 -49.49537658691406 -39.9783935546875 -47.84889221191406C-39.9783935546875 -44.32818603515625 -40.194000244140625 -40.25679016113281 -40.56939697265625 -37.50349426269531C-42.26080322265625 -24.97528076171875 -47.96240234375 -14.689376831054688 -56.993194580078125 -7.8780975341796875C-59.72529602050781 -5.8155670166015625 -61.091400146484375 -3.0623321533203125 -61.091400146484375 -0.309112548828125C-61.091400146484375 2.444122314453125 -59.72529602050781 5.1973419189453125 -56.993194580078125 7.2598724365234375C-47.96240234375 14.071212768554688 -42.26080322265625 24.357009887695312 -40.56939697265625 36.88531494140625C-40.194000244140625 39.63861083984375 -39.9783935546875 43.71000671386719 -39.9783935546875 47.230712890625C-39.9783935546875 48.87721252441406 -40.025604248046875 50.40321350097656 -40.12559509277344 51.61761474609375C-41.03630065917969 62.73771667480469 -43.049102783203125 71.86790466308594 -47.48789978027344 84.94721984863281C-54.39849853515625 105.32501220703125 -57.73359680175781 125.13201904296875 -57.73359680175781 145.916015625C-57.73359680175781 146.67601013183594 -57.729095458984375 147.43801879882812 -57.72019958496094 148.20101928710938C-57.67430114746094 152.07301330566406 -57.643707275390625 152.99900817871094 -57.3988037109375 157.614013671875C-55.49310302734375 193.71401977539062 -42.651092529296875 233.4420166015625 -19.492599487304688 274.8610076904297C-17.533401489257812 278.3660125732422 -15.581893920898438 279.9190216064453 -12.4822998046875 280.4400177001953Z" fill="black" /></g></svg>