<?xml version="1.0" encoding="utf-8" ?>
<svg baseProfile="tiny" height="100%" version="1.2" width="100%" xmlns="http://www.w3.org/2000/svg" xmlns:ev="http://www.w3.org/2001/xml-events" xmlns:xlink="http://www.w3.org/1999/xlink"><defs /><g transform="translate(0, 1000) scale(1, -1)"><path d="M-13.96820068359375 1267.239990234375C-12.879592895507812 1267.6600341796875 -11.77099609375 1267.8599853515625 -10.686004638671875 1267.8599853515625C-5.830596923828125 1267.8599853515625 -1.4483489990234375 1263.949951171875 -1.4483489990234375 1258.7900390625C-1.448333740234375 1256.6199951171875 -1.9213714599609375 1255.449951171875 -5.6426239013671875 1248.760009765625C-46.0087890625 1175.8199462890625 -73.88658142089844 1092.18994140625 -87.51017761230469 1003.0C-94.10807800292969 959.8330078125 -97.38958740234375 914.8699951171875 -97.38958740234375 868.4149780273438C-97.38958740234375 739.0120239257812 -71.92758178710938 598.0280151367188 -21.757583618164062 451.9739990234375C-7.0841217041015625 409.24798583984375 1.52587890625e-05 370.71600341796875 1.52587890625e-05 331.0830078125C1.52587890625e-05 312.79400634765625 -1.5084686279296875 294.27099609375 -4.475799560546875 274.9930114746094C-20.086181640625 173.35299682617188 -83.97819519042969 74.73941040039062 -181.89797973632812 1.13427734375C-183.76197814941406 -0.2720794677734375 -184.69198608398438 -0.8470611572265625 -184.69198608398438 -1.423828125C-184.69198608398438 -1.998138427734375 -183.76998901367188 -2.5742034912109375 -181.92898559570312 -3.9745635986328125C-143.42398071289062 -32.893096923828125 -105.39097595214844 -70.89410400390625 -77.63938903808594 -108.13800048828125C-26.416885375976562 -176.82200622558594 -0.107421875 -254.3780059814453 -0.107421875 -332.6440124511719C-0.107421875 -371.13299560546875 -6.4698638916015625 -409.7929992675781 -19.36077880859375 -447.6549987792969C-43.548980712890625 -518.6740112304688 -57.55097961425781 -568.5960083007812 -70.66998291015625 -630.406005859375C-88.29188537597656 -713.4119873046875 -97.06599426269531 -793.1719970703125 -97.06599426269531 -869.0139770507812C-97.06599426269531 -1010.5999755859375 -66.48448181152344 -1138.5400390625 -5.8003082275390625 -1248.449951171875C-1.9213714599609375 -1255.47998046875 -1.448333740234375 -1256.6199951171875 -1.448333740234375 -1258.7900390625C-1.4483184814453125 -1264.1800537109375 -6.0827484130859375 -1267.8599853515625 -10.791763305664062 -1267.8599853515625C-12.922073364257812 -1267.8599853515625 -15.067672729492188 -1267.1099853515625 -16.806365966796875 -1265.4200439453125C-20.685272216796875 -1261.68994140625 -51.55906677246094 -1202.56005859375 -68.0208740234375 -1167.4000244140625C-143.07496643066406 -1007.1199951171875 -180.70297241210938 -850.4940185546875 -180.70297241210938 -699.72900390625C-180.70297241210938 -601.343994140625 -164.67897033691406 -505.45599365234375 -132.57496643066406 -412.6820068359375C-111.55996704101562 -351.8699951171875 -101.05197143554688 -294.7770080566406 -101.05197143554688 -241.13900756835938C-101.05197143554688 -226.6840057373047 -101.81497192382812 -212.47900390625 -103.34097290039062 -198.52000427246094C-111.98196411132812 -119.42800903320312 -147.2079620361328 -53.170806884765625 -202.80596923828125 -11.35400390625C-207.72596740722656 -7.6598052978515625 -210.16897583007812 -4.3500823974609375 -210.16897583007812 -1.1534576416015625C-210.16897583007812 1.6533966064453125 -208.28497314453125 4.3730316162109375 -204.5399627685547 7.1891937255859375C-136.29397583007812 58.404693603515625 -101.06597900390625 139.2010040283203 -101.06597900390625 237.13600158691406C-101.06597900390625 290.4429931640625 -111.50296020507812 348.8269958496094 -132.73297119140625 410.2829895019531C-164.86297607421875 503.2760009765625 -180.86996459960938 599.718994140625 -180.86996459960938 698.5809936523438C-180.86996459960938 868.5980224609375 -133.52996826171875 1045.77001953125 -39.44926452636719 1224.8599853515625C-21.09527587890625 1259.800048828125 -17.405563354492188 1265.9200439453125 -13.968170166015625 1267.239990234375Z" fill="black" /></g></svg>