<?xml version="1.0" encoding="utf-8" ?>
<svg baseProfile="tiny" height="100%" version="1.2" width="100%" xmlns="http://www.w3.org/2000/svg" xmlns:ev="http://www.w3.org/2001/xml-events" xmlns:xlink="http://www.w3.org/1999/xlink"><defs /><g transform="translate(0, 1000) scale(1, -1)"><path d="M-16.069503784179688 373.239013671875C-15.642822265625 373.2959899902344 -15.220916748046875 373.322998046875 -14.805709838867188 373.322998046875C-9.834381103515625 373.322998046875 -5.8218536376953125 369.41900634765625 -5.8218536376953125 364.29901123046875C-5.8218536376953125 364.281005859375 -5.8218994140625 364.26300048828125 -5.8220062255859375 364.2449951171875C-5.832275390625 362.1600036621094 -6.0581817626953125 361.4209899902344 -7.4854278564453125 358.843994140625C-10.442611694335938 353.4939880371094 -14.026214599609375 345.906005859375 -16.449417114257812 339.8580017089844C-25.375106811523438 317.5679931640625 -29.856613159179688 293.0989990234375 -29.856613159179688 265.822998046875C-29.856613159179688 228.177001953125 -21.319808959960938 185.18499755859375 -4.1483154296875 135.19500732421875C-2.351409912109375 129.95799255371094 -1.2219085693359375 126.04598999023438 -0.2669830322265625 121.74400329589844L-1.52587890625e-05 120.55299377441406L-0.0205535888671875 98.99998474121094L-0.051361083984375 77.45759582519531L-0.9446868896484375 73.96638488769531C-7.9474945068359375 46.71498107910156 -24.242919921875 23.745285034179688 -52.36711120605469 1.4738616943359375C-53.640411376953125 0.46759033203125 -54.677520751953125 -0.3846588134765625 -54.677520751953125 -0.4257354736328125C-54.677520751953125 -0.466796875 -53.640411376953125 -1.3190460205078125 -52.36711120605469 -2.3253326416015625C-24.242919921875 -24.596710205078125 -7.9474945068359375 -47.56642150878906 -0.944671630859375 -74.81791687011719L-0.0513458251953125 -78.30900573730469L-0.020538330078125 -99.85140991210938L0.0 -121.40400695800781L-0.2669677734375 -122.59501647949219C-1.221893310546875 -126.89701843261719 -2.3513946533203125 -130.8100128173828 -4.1483001708984375 -136.0460205078125C-21.229598999023438 -185.75502014160156 -29.761001586914062 -228.7880096435547 -29.761001586914062 -266.44300842285156C-29.761001586914062 -301.5850067138672 -22.330795288085938 -332.0430145263672 -7.48541259765625 -358.87400817871094C-6.297027587890625 -361.02000427246094 -5.736846923828125 -362.73802185058594 -5.736846923828125 -364.41600036621094C-5.736846923828125 -365.20301818847656 -5.8599853515625 -365.9810028076172 -6.0992279052734375 -366.79002380371094C-7.3373870849609375 -370.9980010986328 -11.0946044921875 -373.32301330566406 -14.883193969726562 -373.32301330566406C-17.566802978515625 -373.32301330566406 -20.266098022460938 -372.15602111816406 -22.096893310546875 -369.66502380371094C-23.103103637695312 -368.3000030517578 -31.379196166992188 -352.8670196533203 -35.94850158691406 -343.8410186767578C-63.480194091796875 -289.41600036621094 -77.01249694824219 -240.2720184326172 -77.01249694824219 -193.33401489257812C-77.01249694824219 -171.510009765625 -74.08689880371094 -150.16201782226562 -68.2825927734375 -128.9820098876953C-66.9169921875 -123.98101806640625 -66.03390502929688 -121.17802429199219 -63.1177978515625 -112.55302429199219C-56.003997802734375 -91.46000671386719 -52.44160461425781 -73.53932189941406 -52.44160461425781 -58.2982177734375C-52.44160461425781 -41.42082214355469 -56.80999755859375 -27.829208374023438 -65.56159973144531 -16.8546142578125C-67.62550354003906 -14.277313232421875 -70.91130065917969 -11.012115478515625 -73.31399536132812 -9.153579711914062C-75.67559814453125 -7.3361358642578125 -76.10690307617188 -6.9562225341796875 -76.69219970703125 -6.2785186767578125C-78.11430358886719 -4.6253662109375 -78.82540893554688 -2.525543212890625 -78.82540893554688 -0.4257354736328125C-78.82540893554688 1.6740875244140625 -78.11430358886719 3.7739105224609375 -76.69219970703125 5.42706298828125C-76.10690307617188 6.104766845703125 -75.67559814453125 6.48468017578125 -73.31399536132812 8.3021240234375C-62.70709228515625 16.48577880859375 -55.231903076171875 30.45037841796875 -53.1885986328125 45.89347839355469C-52.69110107421875 49.663482666015625 -52.43910217285156 53.560882568359375 -52.43910217285156 57.62648010253906C-52.43910217285156 73.44868469238281 -56.256195068359375 91.81889343261719 -64.27810668945312 115.14097595214844C-66.80400085449219 122.50398254394531 -69.21701049804688 131.0159912109375 -71.14739990234375 139.47698974609375C-75.03619384765625 156.47299194335938 -77.01190185546875 174.7839813232422 -77.01190185546875 193.19898986816406C-77.01190185546875 202.59698486328125 -76.49740600585938 212.02198791503906 -75.45999145507812 221.31298828125C-70.68539428710938 264.09999084472656 -55.2626953125 308.71498107910156 -27.672393798828125 359.6339874267578C-25.023300170898438 364.51197814941406 -22.394699096679688 369.23497009277344 -22.096893310546875 369.63499450683594C-20.741500854492188 371.48399353027344 -18.297698974609375 372.9419708251953 -16.069503784179688 373.23899841308594Z" fill="black" /></g></svg>