<?xml version="1.0" encoding="utf-8" ?>
<svg baseProfile="tiny" height="100%" version="1.2" width="100%" xmlns="http://www.w3.org/2000/svg" xmlns:ev="http://www.w3.org/2001/xml-events" xmlns:xlink="http://www.w3.org/1999/xlink"><defs /><g transform="translate(0, 1000) scale(1, -1)"><path d="M-13.864105224609375 4883.56982421875C-12.401397705078125 4884.47021484375 -10.825592041015625 4884.8798828125 -9.279327392578125 4884.8798828125C-4.4984130859375 4884.8798828125 0.0 4880.990234375 0.0 4875.64013671875C0.0 4873.31005859375 -1.2825775146484375 4870.6298828125 -10.321701049804688 4854.259765625C-261.64599609375 4399.97998046875 -400.8370056152344 3881.27001953125 -420.8080139160156 3324.93994140625C-422.4570007324219 3279.5 -422.7019958496094 3263.739990234375 -423.0679931640625 3202.780029296875C-423.1090087890625 3195.300048828125 -423.1289978027344 3187.800048828125 -423.1289978027344 3180.31005859375C-423.1289978027344 2689.949951171875 -336.5060119628906 2194.610107421875 -163.37600708007812 1694.8399658203125C-108.29100036621094 1535.8399658203125 -81.6217041015625 1382.0799560546875 -81.6217041015625 1221.969970703125C-81.6217041015625 1194.4300537109375 -82.41030883789062 1166.7099609375 -83.9783935546875 1138.75C-108.59201049804688 702.4869995117188 -337.4410095214844 290.5350036621094 -712.4420166015625 7.451202392578125C-721.4819946289062 0.6107635498046875 -728.9329833984375 -5.2524566650390625 -728.9329833984375 -5.4967498779296875C-728.9329833984375 -5.741058349609375 -721.4819946289062 -11.604278564453125 -712.4420166015625 -18.444686889648438C-337.4410095214844 -301.5279998779297 -108.59201049804688 -713.4810028076172 -83.9783935546875 -1149.739974975586C-82.408203125 -1177.739974975586 -81.618408203125 -1205.489974975586 -81.618408203125 -1233.050033569336C-81.618408203125 -1393.050033569336 -108.25199890136719 -1546.550033569336 -163.37600708007812 -1705.8299407958984C-336.5769958496094 -2206.520004272461 -422.70001220703125 -2705.570053100586 -422.70001220703125 -3183.189926147461C-422.70001220703125 -3787.999984741211 -284.593994140625 -4358.439926147461 -10.32171630859375 -4854.259750366211C-1.2825927734375 -4870.629867553711 -1.52587890625e-05 -4873.310043334961 -1.52587890625e-05 -4875.640121459961C-1.52587890625e-05 -4880.990219116211 -4.4984283447265625 -4884.879867553711 -9.279342651367188 -4884.879867553711C-10.825607299804688 -4884.879867553711 -12.401412963867188 -4884.470199584961 -13.864120483398438 -4883.569808959961C-20.39910888671875 -4879.609848022461 -100.77401733398438 -4727.709945678711 -145.9700164794922 -4634.080062866211C-425.32801818847656 -4054.659896850586 -568.3050079345703 -3449.830062866211 -568.3050079345703 -2847.330062866211C-568.2440338134766 -2770.009994506836 -567.5720367431641 -2738.610092163086 -564.3350372314453 -2669.899887084961C-548.1500396728516 -2329.590072631836 -484.9980010986328 -1992.699935913086 -377.8720245361328 -1675.5999603271484C-349.71702575683594 -1592.290023803711 -344.95301818847656 -1577.939926147461 -340.0060272216797 -1561.689926147461C-295.42100524902344 -1415.239974975586 -271.29600524902344 -1277.020004272461 -263.72300720214844 -1123.780014038086C-263.2040252685547 -1113.219955444336 -262.9440155029297 -1084.280014038086 -262.9440155029297 -1055.3599700927734C-262.9440155029297 -1026.4300384521484 -263.2040252685547 -997.5109710693359 -263.72300720214844 -986.9759979248047C-284.06101989746094 -578.5049896240234 -451.71202087402344 -237.27696228027344 -736.8120269775391 -23.81927490234375C-749.1179962158203 -14.596969604492188 -755.2710113525391 -10.046875 -755.2710113525391 -5.496734619140625C-755.2710113525391 -0.9466400146484375 -749.1179962158203 3.6034698486328125 -736.8120269775391 12.825836181640625C-451.71202087402344 226.28402709960938 -284.06101989746094 567.5110168457031 -263.72300720214844 975.9820251464844C-263.2040252685547 986.5180358886719 -262.9440155029297 1015.4400329589844 -262.9440155029297 1044.3600158691406C-262.9440155029297 1073.2900695800781 -263.2040252685547 1102.2200012207031 -263.72300720214844 1112.7900695800781C-271.29600524902344 1266.0300598144531 -295.42100524902344 1404.2400207519531 -340.0060272216797 1550.6999816894531C-344.95301818847656 1566.9499816894531 -349.22801208496094 1579.7700500488281 -377.99501037597656 1664.9100646972656C-453.23902893066406 1887.7700500488281 -507.47401428222656 2122.970001220703 -538.6220245361328 2361.530059814453C-559.3860015869141 2520.389923095703 -569.6850128173828 2680.720001220703 -569.6850128173828 2841.709991455078C-569.6850128173828 3523.610137939453 -384.91102600097656 4217.370147705078 -27.972518920898438 4861.279815673828C-16.917816162109375 4881.189971923828 -16.368209838867188 4882.109893798828 -13.864120483398438 4883.569854736328Z" fill="black" /></g></svg>