<?xml version="1.0" encoding="utf-8" ?>
<svg baseProfile="tiny" height="100%" version="1.2" width="100%" xmlns="http://www.w3.org/2000/svg" xmlns:ev="http://www.w3.org/2001/xml-events" xmlns:xlink="http://www.w3.org/1999/xlink"><defs /><g transform="translate(0, 1000) scale(1, -1)"><path d="M-12.843093872070312 1641.97998046875C-11.54888916015625 1642.5799560546875 -10.227691650390625 1642.8599853515625 -8.948898315429688 1642.8599853515625C-4.1799468994140625 1642.8599853515625 1.52587890625e-05 1638.97998046875 1.52587890625e-05 1633.719970703125C1.52587890625e-05 1633.52001953125 -0.0054931640625 1633.3299560546875 -0.01666259765625 1633.1400146484375C-0.1171417236328125 1631.030029296875 -0.3180694580078125 1630.489990234375 -2.5953521728515625 1626.3399658203125C-60.766387939453125 1520.7099609375 -97.23637390136719 1411.469970703125 -115.78898620605469 1287.2900390625C-124.15199279785156 1231.3399658203125 -128.3059844970703 1173.010009765625 -128.3059844970703 1112.8800048828125C-128.3059844970703 968.3060302734375 -104.29498291015625 813.322021484375 -57.01557922363281 656.0170288085938C-49.748382568359375 631.9039916992188 -43.28498840332031 611.9450073242188 -30.023178100585938 572.7949829101562C-13.42138671875 523.81298828125 -5.225128173828125 473.70001220703125 -5.225128173828125 423.7669982910156C-5.225128173828125 325.3330078125 -37.07759094238281 227.6009979248047 -99.17869567871094 140.61500549316406C-134.77798461914062 90.74929809570312 -181.4619903564453 43.060394287109375 -233.906982421875 2.973602294921875C-237.18798828125 0.4284210205078125 -239.90098571777344 -1.748382568359375 -239.90098571777344 -1.882354736328125C-239.90098571777344 -2.0163116455078125 -237.18798828125 -4.193115234375 -233.906982421875 -6.738311767578125C-85.45777893066406 -120.24600219726562 -5.130889892578125 -271.8580017089844 -5.130889892578125 -427.52801513671875C-5.130889892578125 -477.1610107421875 -13.296478271484375 -527.2059936523438 -30.023178100585938 -576.5599975585938C-72.88958740234375 -703.0499877929688 -97.33677673339844 -801.5079956054688 -112.80897521972656 -909.7789916992188C-122.94198608398438 -980.7540283203125 -128.01498413085938 -1049.22998046875 -128.01498413085938 -1115.300048828125C-128.01498413085938 -1304.719970703125 -86.31779479980469 -1474.3699951171875 -2.5953521728515625 -1626.4200439453125C-0.9458160400390625 -1629.43994140625 -0.1605377197265625 -1632.27001953125 -0.1605377197265625 -1634.699951171875C-0.1605377197265625 -1639.5799560546875 -3.3164825439453125 -1642.8599853515625 -8.9918212890625 -1642.8599853515625H-9.353424072265625C-14.7481689453125 -1642.8599853515625 -14.803375244140625 -1642.6099853515625 -27.879776000976562 -1618.6199951171875C-156.18597412109375 -1383.4100341796875 -220.8169708251953 -1147.97998046875 -220.8169708251953 -920.3159790039062C-220.8169708251953 -790.073974609375 -199.6649627685547 -662.3759765625 -157.18197631835938 -538.7169799804688C-136.9209747314453 -479.74200439453125 -125.76896667480469 -429.80999755859375 -120.67897033691406 -375.28900146484375C-119.02996826171875 -357.58099365234375 -118.2149658203125 -340.1780090332031 -118.2149658203125 -323.12701416015625C-118.2149658203125 -190.58099365234375 -167.48696899414062 -79.33399963378906 -257.48297119140625 -12.096603393554688C-262.907958984375 -8.044403076171875 -262.907958984375 -8.077880859375 -264.0129699707031 -5.7336273193359375C-264.5829772949219 -4.5782470703125 -264.8669738769531 -3.2303009033203125 -264.8669738769531 -1.882354736328125C-264.8669738769531 -0.5344085693359375 -264.5829772949219 0.8135528564453125 -264.0129699707031 1.96893310546875C-262.907958984375 4.3131866455078125 -262.907958984375 4.279693603515625 -257.48297119140625 8.3319091796875C-166.0999755859375 76.60440063476562 -118.344970703125 187.12100219726562 -118.344970703125 318.2040100097656C-118.344970703125 385.8070068359375 -131.0459747314453 458.8800048828125 -157.0149688720703 534.4500122070312C-200.2129669189453 660.1749877929688 -221.25497436523438 784.77001953125 -221.25497436523438 916.322998046875C-221.25497436523438 938.4639892578125 -220.65896606445312 960.802001953125 -219.4729766845703 983.375C-208.55496215820312 1190.27001953125 -143.11697387695312 1407.3199462890625 -27.879776000976562 1618.530029296875C-15.723175048828125 1640.8699951171875 -15.924072265625 1640.5400390625 -12.843063354492188 1641.97998046875Z" fill="black" /></g></svg>