<?xml version="1.0" encoding="utf-8" ?>
<svg baseProfile="tiny" height="100%" version="1.2" width="100%" xmlns="http://www.w3.org/2000/svg" xmlns:ev="http://www.w3.org/2001/xml-events" xmlns:xlink="http://www.w3.org/1999/xlink"><defs /><g transform="translate(0, 1000) scale(1, -1)"><path d="M-11.398895263671875 1888.449951171875C-10.43359375 1888.7099609375 -9.507186889648438 1888.8399658203125 -8.629776000976562 1888.8399658203125C-3.6686859130859375 1888.8399658203125 -0.2745819091796875 1884.8699951171875 -0.2745819091796875 1879.8499755859375C-0.2745819091796875 1877.8499755859375 -0.8105621337890625 1875.68994140625 -1.9972076416015625 1873.5400390625C-34.74909973144531 1813.969970703125 -58.44610595703125 1761.449951171875 -79.86979675292969 1700.9100341796875C-126.60501098632812 1568.9000244140625 -150.01699829101562 1424.5699462890625 -150.01699829101562 1271.1099853515625C-150.01699829101562 1145.969970703125 -134.44700622558594 1014.760009765625 -103.25799560546875 879.2269897460938C-86.381591796875 805.9390258789062 -69.73590087890625 748.489013671875 -38.83349609375 657.2839965820312C-19.57989501953125 600.447021484375 -10.202499389648438 542.6500244140625 -10.202499389648438 485.29901123046875C-10.202499389648438 305.8710021972656 -101.99099731445312 130.81700134277344 -270.2929992675781 3.24725341796875C-273.99200439453125 0.4344482421875 -277.0360107421875 -2.031585693359375 -277.0360107421875 -2.1857147216796875C-277.0360107421875 -2.3398590087890625 -273.99200439453125 -4.8058929443359375 -270.2929992675781 -7.6186981201171875C-215.38600158691406 -49.23291015625 -164.6009979248047 -100.28701782226562 -125.22200012207031 -153.4230194091797C-49.3717041015625 -255.791015625 -10.151199340820312 -371.99302673339844 -10.151199340820312 -489.5390167236328C-10.151199340820312 -534.5919952392578 -15.91290283203125 -579.8430328369141 -27.582305908203125 -624.5880279541016C-32.013397216796875 -641.5030059814453 -33.94000244140625 -647.5910186767578 -45.653594970703125 -681.8850250244141C-85.99630737304688 -799.9459991455078 -116.12799072265625 -924.3260040283203 -132.69700622558594 -1041.3900299072266C-143.98300170898438 -1121.060073852539 -149.61500549316406 -1198.500015258789 -149.61500549316406 -1273.560073852539C-149.61500549316406 -1494.189956665039 -100.95098876953125 -1694.209976196289 -4.2320556640625 -1869.6200103759766C-1.0659942626953125 -1875.3199615478516 0.0 -1877.719985961914 0.0 -1879.9100494384766C0.0 -1880.520034790039 -0.0823211669921875 -1881.1200103759766 -0.224761962890625 -1881.760025024414C-1.1821746826171875 -1886.209976196289 -5.2323150634765625 -1888.8399810791016 -9.271713256835938 -1888.8399810791016C-11.734893798828125 -1888.8399810791016 -14.194198608398438 -1887.8600006103516 -15.945693969726562 -1885.729995727539C-19.297897338867188 -1881.6500396728516 -45.923309326171875 -1831.8600006103516 -62.99290466308594 -1797.760025024414C-172.96200561523438 -1577.8199615478516 -235.11399841308594 -1353.4100494384766 -246.21099853515625 -1135.979995727539C-247.63699340820312 -1107.6200103759766 -247.7519989013672 -1102.4200592041016 -247.7519989013672 -1063.729995727539C-247.7519989013672 -1024.010025024414 -247.63699340820312 -1019.5000152587891 -246.01800537109375 -988.4040069580078C-240.62399291992188 -887.1820220947266 -223.78599548339844 -787.5000152587891 -195.3489990234375 -688.8200225830078C-188.75999450683594 -665.9329986572266 -183.75100708007812 -650.2890167236328 -170.9969940185547 -612.7199859619141C-143.5189971923828 -531.8570098876953 -130.1320037841797 -452.49000549316406 -130.1320037841797 -378.11802673339844C-130.1320037841797 -226.3900146484375 -185.84800720214844 -95.44581604003906 -291.2929992675781 -14.97821044921875L-298.8450012207031 -9.121429443359375C-300.94500732421875 -7.426025390625 -301.9949951171875 -4.805877685546875 -301.9949951171875 -2.1857147216796875C-301.9949951171875 0.4344482421875 -300.94500732421875 3.054595947265625 -298.8450012207031 4.7499847412109375L-291.2929992675781 10.606796264648438C-185.84800720214844 91.07438659667969 -130.1320037841797 222.0699920654297 -130.1320037841797 373.79698181152344C-130.1320037841797 448.1699981689453 -143.5189971923828 527.5239715576172 -170.9969940185547 608.3489837646484C-205.44500732421875 709.6489715576172 -223.4770050048828 784.4000091552734 -236.38499450683594 879.0339813232422C-244.5070037841797 938.6829681396484 -248.5399932861328 999.2020111083984 -248.5399932861328 1060.3299407958984C-248.5399932861328 1326.3599700927734 -172.16099548339844 1603.949935913086 -23.960296630859375 1871.800033569336C-15.598907470703125 1886.979965209961 -15.290603637695312 1887.3699798583984 -11.398895263671875 1888.449935913086Z" fill="black" /></g></svg>