<?xml version="1.0" encoding="utf-8" ?>
<svg baseProfile="tiny" height="100%" version="1.2" width="100%" xmlns="http://www.w3.org/2000/svg" xmlns:ev="http://www.w3.org/2001/xml-events" xmlns:xlink="http://www.w3.org/1999/xlink"><defs /><g transform="translate(0, 1000) scale(1, -1)"><path d="M-17.896697998046875 867.8670043945312C-17.194503784179688 867.9879760742188 -16.56500244140625 868.0850219726562 -16.492294311523438 868.1090087890625C-16.219894409179688 868.1680297851562 -15.937698364257812 868.1959838867188 -15.648605346679688 868.1959838867188C-12.264297485351562 868.1959838867188 -7.9403076171875 864.31298828125 -7.315704345703125 860.4089965820312C-7.2158966064453125 859.7839965820312 -7.155975341796875 859.2349853515625 -7.155975341796875 858.7009887695312C-7.155975341796875 856.7730102539062 -7.9364776611328125 855.0339965820312 -10.439102172851562 850.5789794921875C-12.279296875 847.2860107421875 -17.993499755859375 836.3660278320312 -19.1072998046875 833.9929809570312C-19.494705200195312 833.1209716796875 -20.802200317382812 830.4099731445312 -22.012802124023438 827.9400024414062C-53.558502197265625 762.7670288085938 -69.32319641113281 687.8270263671875 -69.32319641113281 604.801025390625C-69.32319641113281 515.8930053710938 -51.24620056152344 417.7149963378906 -15.112197875976562 312.3299865722656C-9.640121459960938 296.3500061035156 -6.8556671142578125 286.4469909667969 -4.6522979736328125 275.0429992675781C-1.6179351806640625 259.3819885253906 -0.117950439453125 243.78900146484375 -0.117950439453125 228.33999633789062C-0.117950439453125 143.56399536132812 -45.28340148925781 63.10679626464844 -129.9290008544922 -0.546295166015625L-130.65499877929688 -1.103179931640625L-129.9290008544922 -1.6358642578125C-58.98558044433594 -55.000701904296875 -14.458389282226562 -121.8280029296875 -3.320587158203125 -191.70599365234375C-1.1214599609375 -205.45799255371094 1.52587890625e-05 -218.57899475097656 1.52587890625e-05 -231.52099609375C1.52587890625e-05 -258.4779968261719 -4.8650970458984375 -284.6629943847656 -14.9910888671875 -314.17401123046875C-51.09037780761719 -419.48699951171875 -69.13847351074219 -517.2369995117188 -69.13847351074219 -605.8109741210938C-69.13847351074219 -696.8900146484375 -50.05528259277344 -778.2659912109375 -11.891891479492188 -848.1849975585938L-8.598968505859375 -854.2379760742188C-7.571533203125 -856.14501953125 -7.123992919921875 -857.9550170898438 -7.123992919921875 -859.6010131835938C-7.123992919921875 -864.677978515625 -11.380096435546875 -868.1959838867188 -16.011993408203125 -868.1959838867188C-19.222991943359375 -868.1959838867188 -22.614593505859375 -866.5050048828125 -24.89410400390625 -862.469970703125C-76.37030029296875 -770.9949951171875 -112.302001953125 -676.9530029296875 -128.81500244140625 -590.56201171875C-136.5970001220703 -549.802978515625 -140.48399353027344 -509.5220031738281 -140.48399353027344 -469.8559875488281C-140.48399353027344 -411.781005859375 -132.1529998779297 -355.02301025390625 -115.52200317382812 -300.0090026855469C-113.41600036621094 -293.1080017089844 -111.13999938964844 -286.1109924316406 -107.1929931640625 -274.58599853515625C-92.5841064453125 -231.74400329589844 -85.38229370117188 -191.58399963378906 -85.38229370117188 -155.4149932861328C-85.38229370117188 -92.97309875488281 -106.84700012207031 -42.42750549316406 -148.71800231933594 -10.521896362304688C-153.4709930419922 -6.9066162109375 -155.13999938964844 -4.739501953125 -155.13999938964844 -1.5766448974609375C-155.13999938964844 -0.9690399169921875 -155.0780029296875 -0.3246612548828125 -154.96499633789062 0.373779296875C-154.4810028076172 3.4488067626953125 -153.51199340820312 4.659423828125 -148.71800231933594 8.3155517578125C-106.81199645996094 40.240997314453125 -85.40570068359375 90.43060302734375 -85.40570068359375 152.80499267578125C-85.40570068359375 190.14999389648438 -93.07949829101562 231.86399841308594 -108.62200927734375 276.6409912109375C-127.48300170898438 330.9010009765625 -137.26499938964844 383.27398681640625 -140.26800537109375 445.74200439453125C-140.46099853515625 449.84600830078125 -140.55799865722656 459.2650146484375 -140.55799865722656 468.6990051269531C-140.55799865722656 478.13299560546875 -140.46099853515625 487.5820007324219 -140.26800537109375 491.7460021972656C-134.4810028076172 613.6820068359375 -98.86399841308594 728.4010009765625 -25.668899536132812 860.844970703125C-23.054000854492188 865.5659790039062 -21.092697143554688 867.333984375 -17.896697998046875 867.8670043945312Z" fill="black" /></g></svg>