<?xml version="1.0" encoding="utf-8" ?>
<svg baseProfile="tiny" height="100%" version="1.2" width="100%" xmlns="http://www.w3.org/2000/svg" xmlns:ev="http://www.w3.org/2001/xml-events" xmlns:xlink="http://www.w3.org/1999/xlink"><defs /><g transform="translate(0, 1000) scale(1, -1)"><path d="M-19.466201782226562 833.718017578125C-18.497116088867188 834.0330200195312 -17.516921997070312 834.1829833984375 -16.5565185546875 834.1829833984375C-12.7003173828125 834.1829833984375 -9.164535522460938 831.7680053710938 -7.9542694091796875 827.9509887695312C-7.6419525146484375 826.9530029296875 -7.474334716796875 826.0570068359375 -7.474334716796875 825.1530151367188C-7.474334716796875 823.2979736328125 -8.180740356445312 821.4089965820312 -9.791534423828125 818.531982421875C-41.90870666503906 761.1110229492188 -61.141815185546875 692.85400390625 -65.72340393066406 620.2470092773438C-66.53532409667969 607.4039916992188 -66.94351196289062 594.4400024414062 -66.94351196289062 581.3280029296875C-66.94351196289062 494.9049987792969 -49.207611083984375 402.010009765625 -12.396209716796875 294.4230041503906C-6.74493408203125 277.88800048828125 -2.74481201171875 259.468994140625 -1.1168670654296875 242.32899475097656C-0.3716888427734375 234.593994140625 -1.52587890625e-05 226.9149932861328 -1.52587890625e-05 219.2949981689453C-1.52587890625e-05 139.1580047607422 -41.10321044921875 65.53839111328125 -121.16700744628906 2.7405242919921875C-123.60902404785156 0.81024169921875 -125.63201904296875 -0.840972900390625 -125.63201904296875 -0.9340057373046875C-125.63201904296875 -1.0270233154296875 -123.60902404785156 -2.6782379150390625 -121.16700744628906 -4.6085357666015625C-60.44410705566406 -52.23779296875 -23.071014404296875 -104.35600280761719 -7.721710205078125 -162.7530059814453C-2.6121978759765625 -182.25900268554688 -0.06341552734375 -202.15699768066406 -0.06341552734375 -221.98300170898438C-0.06341552734375 -247.18800354003906 -4.1825103759765625 -272.2749938964844 -12.396209716796875 -296.2909851074219C-34.39691162109375 -360.54901123046875 -47.467010498046875 -410.89898681640625 -56.79292297363281 -466.9939880371094C-63.42890930175781 -506.9809875488281 -66.73521423339844 -545.5369873046875 -66.73521423339844 -582.4840087890625C-66.73521423339844 -671.2659912109375 -47.64482116699219 -750.7650146484375 -9.791534423828125 -818.5390014648438C-8.180740356445312 -821.4169921875 -7.474334716796875 -823.3060302734375 -7.474334716796875 -825.1610107421875C-7.474334716796875 -826.0640258789062 -7.6419525146484375 -826.9600219726562 -7.9542694091796875 -827.9580078125C-9.21868896484375 -831.968994140625 -12.98681640625 -834.1829833984375 -16.730819702148438 -834.1829833984375C-19.391220092773438 -834.1829833984375 -22.039413452148438 -833.0650024414062 -23.768722534179688 -830.6790161132812C-25.047821044921875 -828.9349975585938 -35.28062438964844 -810.1669921875 -41.839019775390625 -797.5850219726562C-104.26402282714844 -677.9169921875 -136.9840087890625 -558.8660278320312 -136.9840087890625 -452.2340087890625C-136.9840087890625 -443.5419921875 -136.7670135498047 -434.9320068359375 -136.33001708984375 -426.4110107421875C-133.30702209472656 -367.2239990234375 -124.70201110839844 -321.68701171875 -106.12001037597656 -266.8489990234375C-92.81721496582031 -227.52200317382812 -87.02632141113281 -200.63699340820312 -84.18901062011719 -164.7760009765625C-83.97021484375 -162.07699584960938 -83.86811828613281 -156.01499938964844 -83.86811828613281 -149.60899353027344C-83.86811828613281 -141.718994140625 -84.02291870117188 -133.30599975585938 -84.30531311035156 -130.00799560546875C-88.95661926269531 -76.51760864257812 -109.02702331542969 -36.70249938964844 -145.00502014160156 -9.492385864257812C-148.64401245117188 -6.7364959716796875 -150.46401977539062 -3.8352508544921875 -150.46401977539062 -0.9340057373046875C-150.46401977539062 1.967254638671875 -148.64401245117188 4.8684844970703125 -145.00502014160156 7.6243896484375C-114.30601501464844 30.834396362304688 -94.72421264648438 64.25390625 -87.04960632324219 106.51100158691406C-84.95231628417969 118.08000183105469 -83.70640563964844 134.75799560546875 -83.70640563964844 149.02999877929688C-83.70640563964844 154.0659942626953 -83.86152648925781 158.802001953125 -84.18901062011719 162.9080047607422C-87.02632141113281 198.7689971923828 -92.88691711425781 225.95599365234375 -106.166015625 265.14300537109375C-126.68601989746094 325.6189880371094 -136.97601318359375 387.1319885253906 -136.97601318359375 450.13800048828125C-136.97601318359375 568.5159912109375 -100.65000915527344 692.1619873046875 -27.582717895507812 824.0900268554688C-23.280319213867188 831.8579711914062 -22.559310913085938 832.718017578125 -19.466217041015625 833.718017578125Z" fill="black" /></g></svg>