<?xml version="1.0" encoding="utf-8" ?>
<svg baseProfile="tiny" height="100%" version="1.2" width="100%" xmlns="http://www.w3.org/2000/svg" xmlns:ev="http://www.w3.org/2001/xml-events" xmlns:xlink="http://www.w3.org/1999/xlink"><defs /><g transform="translate(0, 1000) scale(1, -1)"><path d="M-11.28729248046875 4220.41015625C-10.531997680664062 4220.580078125 -9.7900390625 4220.66015625 -9.070175170898438 4220.66015625C-4.0937957763671875 4220.66015625 -0.171722412109375 4216.77978515625 -0.171722412109375 4211.419921875C-0.171722412109375 4209.009765625 -0.9537200927734375 4207.22998046875 -7.99169921875 4194.60009765625C-242.55799865722656 3771.2900390625 -361.9750061035156 3285.219970703125 -361.9750061035156 2760.330078125C-361.9750061035156 2623.639892578125 -353.8760070800781 2484.31005859375 -337.60400390625 2342.780029296875C-305.1510009765625 2060.419921875 -238.73699951171875 1769.239990234375 -143.44500732421875 1491.52001953125C-118.69999694824219 1419.3499755859375 -113.16999816894531 1401.47998046875 -101.72000122070312 1356.6199951171875C-76.68319702148438 1258.1800537109375 -64.49400329589844 1158.5999755859375 -64.49400329589844 1059.6400146484375C-64.49400329589844 661.3619995117188 -261.8949890136719 272.89300537109375 -613.8159790039062 7.22955322265625C-622.1389770507812 0.97357177734375 -628.9539794921875 -4.3886871337890625 -628.9539794921875 -4.61212158203125C-628.9539794921875 -4.8355560302734375 -622.1389770507812 -10.197799682617188 -613.8159790039062 -16.45379638671875C-294.3699951171875 -257.6440124511719 -94.90509033203125 -608.2579956054688 -68.14968872070312 -975.6849975585938C-65.82870483398438 -1007.5900268554688 -64.6575927734375 -1039.010009765625 -64.6575927734375 -1070.0999755859375C-64.6575927734375 -1208.1099853515625 -87.73320007324219 -1339.5799560546875 -135.73699951171875 -1478.1199951171875C-232.31300354003906 -1757.010009765625 -297.6099853515625 -2033.6700439453125 -332.2969970703125 -2311.22998046875C-351.52899169921875 -2464.9599609375 -361.09698486328125 -2616.179931640625 -361.09698486328125 -2764.340087890625C-361.09698486328125 -3287.070068359375 -242.00399780273438 -3771.739990234375 -7.99169921875 -4194.330078125C-2.4820556640625 -4204.25 0.0 -4209.39013671875 0.0 -4212.7900390625C0.0 -4215.25 -1.299102783203125 -4216.7900390625 -3.6907196044921875 -4218.56982421875C-5.5425872802734375 -4219.9599609375 -7.3192138671875 -4220.66015625 -9.057876586914062 -4220.66015625C-12.720794677734375 -4220.66015625 -16.215103149414062 -4217.5498046875 -19.889205932617188 -4211.14013671875C-48.934906005859375 -4160.58984375 -101.66400146484375 -4059.3798828125 -133.22300720214844 -3993.639892578125C-375.2510070800781 -3489.030029296875 -498.1919860839844 -2968.830078125 -498.24798583984375 -2449.469970703125C-498.24798583984375 -2381.77001953125 -497.6340026855469 -2354.9599609375 -494.8970031738281 -2296.97998046875C-480.9330139160156 -2004.9599609375 -426.8070068359375 -1715.72998046875 -335.25799560546875 -1444.8800048828125L-316.489990234375 -1389.31005859375C-291.8009948730469 -1316.25 -274.3739929199219 -1250.050048828125 -260.52099609375 -1177.050048828125C-242.92999267578125 -1084.199951171875 -234.33599853515625 -992.6270141601562 -234.33599853515625 -903.573974609375C-234.33599853515625 -538.5029907226562 -378.7550048828125 -215.739013671875 -639.7340087890625 -20.363815307617188C-653.5859985351562 -9.974411010742188 -654.47998046875 -9.02484130859375 -654.47998046875 -4.612152099609375C-654.47998046875 -0.199462890625 -653.5859985351562 0.7501068115234375 -639.7340087890625 11.13946533203125C-378.7550048828125 206.5149688720703 -234.33599853515625 529.2789459228516 -234.33599853515625 894.3489532470703C-234.33599853515625 983.4019317626953 -242.92999267578125 1074.9699249267578 -260.52099609375 1167.8299102783203C-276.3290100097656 1251.2799835205078 -294.48199462890625 1317.2399444580078 -328.9460144042969 1416.9499053955078C-426.91900634765625 1700.0299835205078 -483.89300537109375 2005.1800079345703 -496.85198974609375 2315.969924926758C-498.6579895019531 2359.340042114258 -499.5570068359375 2402.850051879883 -499.5570068359375 2446.469924926758C-499.5570068359375 3033.019973754883 -337.00201416015625 3639.519973754883 -29.999298095703125 4193.319778442383C-14.862106323242188 4220.580032348633 -15.699996948242188 4219.399856567383 -11.28729248046875 4220.410110473633Z" fill="black" /></g></svg>