<?xml version="1.0" encoding="utf-8" ?>
<svg baseProfile="tiny" height="100%" version="1.2" width="100%" xmlns="http://www.w3.org/2000/svg" xmlns:ev="http://www.w3.org/2001/xml-events" xmlns:xlink="http://www.w3.org/1999/xlink"><defs /><g transform="translate(0, 1000) scale(1, -1)"><path d="M-12.102493286132812 1363.489990234375C-11.130889892578125 1363.8399658203125 -10.142578125 1364.0 -9.170730590820312 1364.0C-4.7339935302734375 1364.0 -0.6422271728515625 1360.6199951171875 -0.0658416748046875 1355.8599853515625C-0.028778076171875 1355.52001953125 -0.00726318359375 1355.2099609375 -0.00726318359375 1354.8900146484375C-0.00726318359375 1352.8599853515625 -0.8942108154296875 1350.8499755859375 -4.251190185546875 1344.800048828125C-70.89608764648438 1223.7099609375 -104.26698303222656 1084.0699462890625 -104.26698303222656 930.3170166015625C-104.26698303222656 791.8590087890625 -77.20509338378906 641.9530029296875 -23.008880615234375 483.8370056152344C-7.5272064208984375 438.6340026855469 -0.25 398.1239929199219 -0.25 355.3070068359375C-0.25 344.38800048828125 -0.7232818603515625 333.3190002441406 -1.6544342041015625 321.9830017089844C-11.522079467773438 202.5330047607422 -80.10678100585938 88.24539184570312 -193.56898498535156 2.1249847412109375C-196.135986328125 0.2003326416015625 -198.21298217773438 -1.4493560791015625 -198.21298217773438 -1.541015625C-198.21298217773438 -1.632659912109375 -196.135986328125 -3.2823638916015625 -193.56898498535156 -5.2070159912109375C-80.10678100585938 -91.327392578125 -11.522079467773438 -205.61500549316406 -1.6544342041015625 -325.06500244140625C-0.7147064208984375 -336.4670104980469 -0.2364349365234375 -347.5799865722656 -0.2364349365234375 -358.53399658203125C-0.2364349365234375 -401.35198974609375 -7.5439605712890625 -441.7349853515625 -23.161590576171875 -487.34698486328125C-77.38789367675781 -645.7789916992188 -103.66099548339844 -790.9219970703125 -103.69099426269531 -932.093994140625C-103.69099426269531 -961.5440063476562 -103.50798034667969 -968.5700073242188 -102.28599548339844 -990.4439697265625C-94.98469543457031 -1120.7099609375 -61.92958068847656 -1240.0699462890625 -4.0373382568359375 -1345.18994140625C-0.9794769287109375 -1350.739990234375 1.52587890625e-05 -1352.8599853515625 1.52587890625e-05 -1354.8599853515625C1.52587890625e-05 -1355.43994140625 -0.0816802978515625 -1356.010009765625 -0.2185821533203125 -1356.6500244140625C-1.1570587158203125 -1361.1600341796875 -4.9252471923828125 -1364.0 -9.081771850585938 -1364.0C-10.472885131835938 -1364.0 -11.907379150390625 -1363.6800537109375 -13.293991088867188 -1363.0C-16.073989868164062 -1361.6600341796875 -17.204391479492188 -1359.760009765625 -31.685089111328125 -1332.9100341796875C-135.0129852294922 -1141.0799560546875 -190.25698852539062 -940.4979858398438 -190.25698852539062 -758.9910278320312C-190.25698852539062 -746.072021484375 -189.97698974609375 -733.25 -189.41497802734375 -720.5349731445312C-184.9539794921875 -620.177978515625 -169.19097900390625 -535.7689819335938 -137.906982421875 -444.85198974609375C-135.49398803710938 -437.8559875488281 -132.28598022460938 -428.1409912109375 -130.7589874267578 -423.28399658203125C-113.11097717285156 -366.822998046875 -104.46998596191406 -312.4700012207031 -104.46998596191406 -261.99798583984375C-104.46998596191406 -155.98500061035156 -142.59197998046875 -67.09700012207031 -215.44297790527344 -11.775299072265625C-221.0699920654297 -7.498992919921875 -223.01197814941406 -5.208343505859375 -223.01197814941406 -2.0547332763671875C-223.01197814941406 -1.35577392578125 -222.9169921875 -0.6144256591796875 -222.74497985839844 0.2003326416015625C-222.1029815673828 3.255340576171875 -221.18698120117188 4.3245849609375 -215.44297790527344 8.6932373046875C-142.37098693847656 64.19200134277344 -104.57197570800781 151.79600524902344 -104.57197570800781 257.4339904785156C-104.57197570800781 314.4989929199219 -115.60197448730469 376.82598876953125 -138.0599822998047 442.197998046875C-167.6329803466797 528.2869873046875 -184.1599884033203 613.125 -188.9259796142578 702.9420166015625C-189.99497985839844 723.4710083007812 -190.14797973632812 729.3369750976562 -190.14797973632812 754.5709838867188C-190.14797973632812 779.8060302734375 -189.99497985839844 785.9459838867188 -188.89498901367188 806.9639892578125C-179.79098510742188 983.8790283203125 -122.35697937011719 1170.300048828125 -20.656478881835938 1353.050048828125C-15.737991333007812 1361.9100341796875 -15.401885986328125 1362.300048828125 -12.10247802734375 1363.489990234375Z" fill="black" /></g></svg>