<?xml version="1.0" encoding="utf-8" ?>
<svg baseProfile="tiny" height="100%" version="1.2" width="100%" xmlns="http://www.w3.org/2000/svg" xmlns:ev="http://www.w3.org/2001/xml-events" xmlns:xlink="http://www.w3.org/1999/xlink"><defs /><g transform="translate(0, 1000) scale(1, -1)"><path d="M-11.745697021484375 2813.64990234375C-10.735794067382812 2814.0 -9.725845336914062 2814.169921875 -8.745758056640625 2814.169921875C-4.0266571044921875 2814.169921875 0.0 2810.2900390625 0.0 2804.969970703125L-0.0451812744140625 2801.590087890625L-5.7373504638671875 2791.419921875C-155.55702209472656 2523.419921875 -232.76602172851562 2205.030029296875 -232.76602172851562 1862.8199462890625C-232.76602172851562 1770.7099609375 -227.17201232910156 1676.8800048828125 -215.89601135253906 1581.8399658203125C-191.68101501464844 1377.4599609375 -147.364013671875 1188.43994140625 -73.63682556152344 974.6710205078125C-44.40740966796875 889.8740234375 -30.054611206054688 802.4210205078125 -30.054611206054688 715.1110229492188C-30.054611206054688 528.2169799804688 -95.82160949707031 341.9800109863281 -222.2200164794922 183.86599731445312C-277.1540069580078 115.1090087890625 -347.9450225830078 46.93800354003906 -413.9020233154297 -0.9032745361328125C-415.5960235595703 -2.123016357421875 -416.44300842285156 -2.642547607421875 -416.44300842285156 -3.1620635986328125C-416.44300842285156 -3.6815948486328125 -415.5960235595703 -4.20111083984375 -413.9020233154297 -5.4208526611328125C-331.1850128173828 -65.41448974609375 -247.42901611328125 -151.0679931640625 -186.0340118408203 -238.5290069580078C-83.19801330566406 -385.114990234375 -30.145919799804688 -553.2109985351562 -30.145919799804688 -721.447998046875C-30.145919799804688 -808.927001953125 -44.48982238769531 -896.4439697265625 -73.63682556152344 -980.9949951171875C-171.89401245117188 -1265.9599609375 -220.95501708984375 -1519.6300048828125 -231.12001037597656 -1795.0699462890625C-231.66500854492188 -1809.9599609375 -231.92501831054688 -1833.8599853515625 -231.92501831054688 -1859.3599853515625C-231.92501831054688 -1893.0400390625 -231.47201538085938 -1929.489990234375 -230.62301635742188 -1951.5999755859375C-218.56101989746094 -2262.139892578125 -140.90402221679688 -2551.219970703125 -4.3368988037109375 -2793.909912109375L-0.0451812744140625 -2801.590087890625L0.0 -2804.969970703125C0.0 -2810.64990234375 -4.4845428466796875 -2814.169921875 -9.060684204101562 -2814.169921875C-11.80450439453125 -2814.169921875 -14.581298828125 -2812.909912109375 -16.444000244140625 -2810.080078125C-22.452392578125 -2800.860107421875 -55.52119445800781 -2739.02001953125 -75.03720092773438 -2700.389892578125C-256.0830078125 -2342.159912109375 -348.1679992675781 -1970.8299560546875 -348.1679992675781 -1609.6600341796875C-348.1679992675781 -1442.1700439453125 -328.3659973144531 -1276.8699951171875 -288.447998046875 -1116.0699462890625C-271.64300537109375 -1048.4000244140625 -258.3609924316406 -1003.8099975585938 -231.30099487304688 -924.5250244140625C-191.82400512695312 -808.7169799804688 -172.66400146484375 -693.7219848632812 -172.66400146484375 -584.8060302734375C-172.66400146484375 -348.4700012207031 -262.8760070800781 -140.7550048828125 -431.4750061035156 -15.449905395507812C-440.7820129394531 -8.537994384765625 -441.3689880371094 -7.815185546875 -441.3689880371094 -3.1620635986328125C-441.3689880371094 1.491058349609375 -440.7820129394531 2.2138671875 -431.4750061035156 9.12579345703125C-262.8760070800781 134.46200561523438 -172.66400146484375 342.10198974609375 -172.66400146484375 578.4310302734375C-172.66400146484375 687.343994140625 -191.82400512695312 802.3499755859375 -231.30099487304688 918.2009887695312C-279.322998046875 1059.06005859375 -305.97698974609375 1166.31005859375 -325.89898681640625 1298.5799560546875C-341.15899658203125 1399.949951171875 -348.72601318359375 1502.800048828125 -348.72601318359375 1606.47998046875C-348.72601318359375 1996.06005859375 -241.89100646972656 2397.469970703125 -34.87579345703125 2776.9599609375C-15.585693359375 2812.2900390625 -15.630905151367188 2812.2900390625 -11.745697021484375 2813.64990234375Z" fill="black" /></g></svg>