<?xml version="1.0" encoding="utf-8" ?>
<svg baseProfile="tiny" height="100%" version="1.2" width="100%" xmlns="http://www.w3.org/2000/svg" xmlns:ev="http://www.w3.org/2001/xml-events" xmlns:xlink="http://www.w3.org/1999/xlink"><defs /><g transform="translate(0, 1000) scale(1, -1)"><path d="M-11.850296020507812 2832.489990234375C-10.93878173828125 2832.64990234375 -10.06549072265625 2832.72998046875 -9.236190795898438 2832.72998046875C-3.7650909423828125 2832.72998046875 -0.2075958251953125 2829.330078125 -0.2075958251953125 2823.85009765625C-0.2075958251953125 2823.820068359375 -0.20770263671875 2823.7900390625 -0.207916259765625 2823.760009765625L-0.253387451171875 2820.300048828125L-4.1190185546875 2813.47998046875C-65.60537719726562 2704.830078125 -121.2249755859375 2570.5400390625 -158.198974609375 2441.239990234375C-209.8159637451172 2260.919921875 -234.37496948242188 2078.919921875 -234.37496948242188 1876.6300048828125C-234.37496948242188 1827.1099853515625 -234.14697265625 1813.9200439453125 -232.55496215820312 1775.9000244140625C-222.18597412109375 1528.5 -171.0239715576172 1263.719970703125 -84.75167846679688 1010.72998046875L-72.9727783203125 976.166015625C-44.94166564941406 893.60400390625 -30.917068481445312 806.4719848632812 -30.917068481445312 719.041015625C-30.917068481445312 635.1179809570312 -43.8388671875 550.9190063476562 -69.6983642578125 470.2229919433594C-127.09197998046875 291.2659912109375 -246.2899627685547 128.09100341796875 -409.91998291015625 4.390655517578125C-415.14996337890625 0.388580322265625 -419.469970703125 -3.0222625732421875 -419.469970703125 -3.204193115234375C-419.469970703125 -3.3860931396484375 -415.14996337890625 -6.7969512939453125 -409.91998291015625 -10.798995971679688C-215.3189697265625 -157.8300018310547 -84.478759765625 -360.3890075683594 -44.549072265625 -576.5009765625C-35.42066955566406 -625.843017578125 -30.884368896484375 -675.739013671875 -30.884368896484375 -725.4349975585938C-30.884368896484375 -813.1510009765625 -45.01637268066406 -900.2440185546875 -72.9727783203125 -982.573974609375L-84.75167846679688 -1017.1400146484375C-183.0969696044922 -1305.4599609375 -234.08897399902344 -1601.6800537109375 -234.08897399902344 -1880.949951171875C-234.08897399902344 -1924.9300537109375 -232.823974609375 -1968.47998046875 -230.28097534179688 -2011.52001953125C-212.99996948242188 -2303.6201171875 -136.5969696044922 -2575.260009765625 -5.346923828125 -2811.3798828125C-2.663726806640625 -2816.199951171875 -0.3443450927734375 -2820.929931640625 -0.1624298095703125 -2821.929931640625C-0.052947998046875 -2822.590087890625 3.0517578125e-05 -2823.22998046875 3.0517578125e-05 -2823.85009765625C3.0517578125e-05 -2829.0400390625 -3.746368408203125 -2832.72998046875 -9.13812255859375 -2832.72998046875C-9.763427734375 -2832.72998046875 -10.410873413085938 -2832.679931640625 -11.077163696289062 -2832.580078125C-14.48797607421875 -2832.080078125 -16.125274658203125 -2830.1201171875 -21.809967041015625 -2819.889892578125C-239.75497436523438 -2427.510009765625 -350.4479675292969 -2018.1400146484375 -350.4479675292969 -1620.719970703125C-350.4479675292969 -1395.4300537109375 -314.8769836425781 -1173.989990234375 -243.10597229003906 -961.655029296875L-230.7359619140625 -924.9539794921875C-192.17897033691406 -810.9710083007812 -173.46896362304688 -697.614013671875 -173.46896362304688 -589.9660034179688C-173.46896362304688 -352.635986328125 -264.4129638671875 -143.06300354003906 -434.1139831542969 -15.756103515625C-444.11895751953125 -8.2977294921875 -444.48297119140625 -7.84295654296875 -444.48297119140625 -3.204193115234375C-444.48297119140625 1.4345855712890625 -444.11895751953125 1.8893585205078125 -434.1139831542969 9.347763061523438C-264.43597412109375 136.66099548339844 -173.4579620361328 346.37701416015625 -173.4579620361328 583.7139892578125C-173.4579620361328 691.3469848632812 -192.16897583007812 804.6610107421875 -230.7359619140625 918.5449829101562L-243.7879638671875 957.2930297851562C-301.7729797363281 1129.199951171875 -337.47296142578125 1315.0699462890625 -347.6149597167969 1497.5699462890625C-350.2529602050781 1545.4599609375 -350.7979736328125 1565.52001953125 -350.7979736328125 1618.5400390625C-350.7979736328125 1672.1199951171875 -350.2529602050781 1692.1700439453125 -347.6149597167969 1740.8800048828125C-327.9229736328125 2100.340087890625 -214.5919647216797 2475.030029296875 -20.582061767578125 2822.1201171875C-16.625473022460938 2829.169921875 -14.169662475585938 2832.1298828125 -11.850265502929688 2832.489990234375Z" fill="black" /></g></svg>