<?xml version="1.0" encoding="utf-8" ?>
<svg baseProfile="tiny" height="100%" version="1.2" width="100%" xmlns="http://www.w3.org/2000/svg" xmlns:ev="http://www.w3.org/2001/xml-events" xmlns:xlink="http://www.w3.org/1999/xlink"><defs /><g transform="translate(0, 1000) scale(1, -1)"><path d="M-13.217697143554688 8201.669921875C-12.098388671875 8202.169921875 -10.93157958984375 8202.400390625 -9.774810791015625 8202.400390625C-4.79351806640625 8202.400390625 1.52587890625e-05 8198.2001953125 1.52587890625e-05 8193.3603515625C1.52587890625e-05 8192.7900390625 -0.0661773681640625 8192.2099609375 -0.206024169921875 8191.6298828125C-0.446990966796875 8190.509765625 -7.515045166015625 8177.25 -15.868179321289062 8162.22998046875C-491.1429901123047 7303.91015625 -734.5909881591797 6322.68994140625 -734.5909881591797 5270.18017578125C-734.5909881591797 5182.3701171875 -732.8969573974609 5094.06982421875 -729.5009613037109 5005.2998046875C-702.2729949951172 4294.9599609375 -561.7150115966797 3558.679931640625 -319.7949981689453 2859.179931640625C-280.1169891357422 2744.330078125 -266.30198669433594 2699.110107421875 -244.37498474121094 2612.280029296875C-195.7109832763672 2419.3701171875 -171.44198608398438 2221.5400390625 -171.44198608398438 2023.719970703125C-171.44198608398438 1785.010009765625 -206.77798461914062 1546.31005859375 -277.2259979248047 1316.260009765625C-434.65098571777344 802.135009765625 -760.8259735107422 342.6310119628906 -1203.459945678711 11.476593017578125L-1228.3599700927734 -7.1573486328125L-1230.689926147461 -9.004684448242188L-1228.3599700927734 -10.771697998046875C-1227.0799407958984 -11.8157958984375 -1216.469955444336 -19.76739501953125 -1204.8299407958984 -28.522201538085938C-685.5670013427734 -416.6229705810547 -329.27198791503906 -978.6939544677734 -213.45298767089844 -1592.489974975586C-185.36398315429688 -1741.300033569336 -171.3839874267578 -1891.550033569336 -171.3839874267578 -2041.509994506836C-171.3839874267578 -2310.489974975586 -216.36398315429688 -2578.540023803711 -305.57798767089844 -2835.669906616211C-441.3169708251953 -3227.219955444336 -538.1009979248047 -3588.409896850586 -608.9429779052734 -3967.919906616211C-691.8679656982422 -4412.270004272461 -733.0019989013672 -4851.319808959961 -733.0019989013672 -5280.430160522461C-733.0019989013672 -6321.770004272461 -490.7489776611328 -7304.529769897461 -15.627273559570312 -8162.169906616211C-4.8518829345703125 -8181.620101928711 -0.2729339599609375 -8190.410140991211 -0.2729339599609375 -8195.160140991211C-0.2729339599609375 -8198.370101928711 -2.3724517822265625 -8199.730453491211 -6.0692901611328125 -8201.290023803711C-7.4781494140625 -8201.879867553711 -8.637954711914062 -8202.400375366211 -9.831588745117188 -8202.400375366211C-15.7149658203125 -8202.400375366211 -22.419876098632812 -8189.970199584961 -63.818572998046875 -8113.979965209961C-505.8129577636719 -7302.759750366211 -787.3309631347656 -6410.259750366211 -878.4929504394531 -5531.330062866211C-880.2599792480469 -5514.060043334961 -882.2679748535156 -5495.830062866211 -882.9099426269531 -5490.770004272461C-893.1109924316406 -5410.850082397461 -907.4879455566406 -5193.830062866211 -912.2269592285156 -5047.009750366211C-914.4169616699219 -4979.649887084961 -915.5089416503906 -4912.200180053711 -915.5089416503906 -4844.700180053711C-915.5089416503906 -4152.430160522461 -800.7059631347656 -3455.219955444336 -579.5459899902344 -2809.080062866211C-535.3709411621094 -2680.090072631836 -525.9729919433594 -2650.850082397461 -507.178955078125 -2584.830062866211C-433.9749755859375 -2327.689926147461 -398.5779724121094 -2069.600082397461 -398.5779724121094 -1818.949935913086C-398.5779724121094 -1088.3599700927734 -699.3049621582031 -421.03794860839844 -1241.0500183105469 -25.148757934570312C-1251.5699157714844 -17.478256225585938 -1256.8299255371094 -13.241455078125 -1256.8299255371094 -9.004638671875C-1256.8299255371094 -4.7678070068359375 -1251.5699157714844 -0.5309906005859375 -1241.0500183105469 7.1394500732421875C-1133.9899597167969 85.37004089355469 -1026.1199645996094 184.48304748535156 -935.0369567871094 288.17503356933594C-584.6119689941406 687.3960418701172 -398.42095947265625 1223.4900360107422 -398.42095947265625 1798.3600311279297C-398.42095947265625 1994.6999969482422 -420.13897705078125 2195.560104370117 -464.448974609375 2397.030075073242C-491.1949768066406 2518.629928588867 -518.2629699707031 2613.169967651367 -566.6149597167969 2753.159957885742C-784.9209899902344 3385.750045776367 -895.9219665527344 4000.750045776367 -915.5999450683594 4686.439987182617C-916.2829895019531 4710.210006713867 -916.6239929199219 4773.319869995117 -916.6239929199219 4836.529830932617C-916.6239929199219 4899.740280151367 -916.2829895019531 4963.049850463867 -915.5999450683594 4987.230026245117C-912.5479431152344 5094.540084838867 -908.5319519042969 5182.080123901367 -902.5879821777344 5271.960006713867C-897.3679504394531 5349.790084838867 -889.4959411621094 5441.509811401367 -883.3919982910156 5496.450241088867L-878.8939514160156 5537.819869995117C-787.4109802246094 6400.600143432617 -513.2829895019531 7278.000045776367 -87.5125732421875 8070.669967651367C-36.59046936035156 8165.450241088867 -17.072967529296875 8199.900436401367 -13.217666625976562 8201.669967651367Z" fill="black" /></g></svg>