<?xml version="1.0" encoding="utf-8" ?>
<svg baseProfile="tiny" height="100%" version="1.2" width="100%" xmlns="http://www.w3.org/2000/svg" xmlns:ev="http://www.w3.org/2001/xml-events" xmlns:xlink="http://www.w3.org/1999/xlink"><defs /><g transform="translate(0, 1000) scale(1, -1)"><path d="M-13.180801391601562 309.9179992675781C-12.858917236328125 309.95001220703125 -12.541213989257812 309.9649963378906 -12.228317260742188 309.9649963378906C-7.05242919921875 309.9649963378906 -3.1756744384765625 305.74700927734375 -3.1756744384765625 300.95001220703125C-3.1756744384765625 299.6629943847656 -3.4547882080078125 298.3340148925781 -4.0628204345703125 297.03399658203125C-4.1985321044921875 296.72900390625 -4.758331298828125 295.6860046386719 -5.3011627197265625 294.7019958496094C-17.292617797851562 272.9519958496094 -23.41571044921875 246.86199951171875 -23.41571044921875 217.9250030517578C-23.41571044921875 211.2480010986328 -23.089614868164062 204.41900634765625 -22.43450927734375 197.45700073242188C-19.915420532226562 170.74000549316406 -13.655807495117188 143.92799377441406 -2.04412841796875 110.06900024414062C-1.3656005859375 108.10099792480469 -1.0263214111328125 106.96499633789062 -0.458038330078125 104.81900024414062L-1.52587890625e-05 103.07099914550781V81.71420288085938V60.356903076171875L-0.415618896484375 58.74530029296875C-1.5945892333984375 54.1990966796875 -3.54541015625 48.779205322265625 -5.5895233154296875 44.38560485839844C-13.104400634765625 28.193801879882812 -24.241104125976562 14.75 -42.366790771484375 -0.0592498779296875L-42.706085205078125 -0.3391571044921875L-42.366790771484375 -0.6105804443359375C-24.241104125976562 -15.428314208984375 -13.104400634765625 -28.872116088867188 -5.5895233154296875 -45.06391906738281C-3.54541015625 -49.45751953125 -1.5945892333984375 -54.877410888671875 -0.4156036376953125 -59.423614501953125L0.0 -61.03521728515625V-82.39251708984375V-103.75001525878906L-0.4580230712890625 -105.49702453613281C-1.0263214111328125 -107.66001892089844 -1.3740692138671875 -108.78800964355469 -2.04412841796875 -110.74702453613281C-16.384918212890625 -152.40602111816406 -23.375106811523438 -187.4490203857422 -23.375106811523438 -218.3610076904297C-23.375106811523438 -227.43301391601562 -22.772918701171875 -236.15000915527344 -21.57781982421875 -244.5740203857422C-19.033218383789062 -262.5640106201172 -13.316513061523438 -280.1630096435547 -5.3011627197265625 -294.7010040283203C-3.486053466796875 -297.98402404785156 -3.2061614990234375 -298.8240203857422 -3.2061614990234375 -300.93601989746094C-3.2061614990234375 -306.47401428222656 -7.7138671875 -309.9650115966797 -12.3253173828125 -309.9650115966797C-14.95941162109375 -309.9650115966797 -17.6273193359375 -308.8260040283203 -19.508209228515625 -306.2790069580078C-20.220718383789062 -305.31202697753906 -24.15631103515625 -298.1280059814453 -27.862808227539062 -291.0540008544922C-52.3673095703125 -244.17800903320312 -64.52970886230469 -201.02001953125 -64.52970886230469 -160.16500854492188C-64.52970886230469 -137.66702270507812 -60.84141540527344 -115.86801147460938 -53.49501037597656 -94.53001403808594C-47.45372009277344 -76.96891784667969 -44.44142150878906 -62.0106201171875 -44.44142150878906 -49.27232360839844C-44.44142150878906 -39.35090637207031 -46.26881408691406 -30.776214599609375 -49.915618896484375 -23.3673095703125C-52.952117919921875 -17.192611694335938 -57.09971618652344 -12.137420654296875 -62.51121520996094 -8.023712158203125C-65.46281433105469 -5.7845001220703125 -66.68421936035156 -3.5283355712890625 -66.68421936035156 -0.3391571044921875C-66.68421936035156 2.850006103515625 -65.46281433105469 5.106170654296875 -62.51121520996094 7.3453826904296875C-50.56401062011719 16.432876586914062 -44.44831848144531 30.57537841796875 -44.44831848144531 48.75968933105469C-44.44831848144531 53.92938232421875 -44.94252014160156 59.425689697265625 -45.93760681152344 65.22547912597656C-47.608612060546875 75.00498962402344 -49.57630920410156 82.34178161621094 -54.088714599609375 95.63288879394531C-56.03102111816406 101.35798645019531 -57.888519287109375 107.89799499511719 -59.37290954589844 114.24998474121094C-62.818817138671875 128.96697998046875 -64.54240417480469 144.34999084472656 -64.54240417480469 160.0349884033203C-64.54240417480469 174.7329864501953 -63.028717041015625 189.69699096679688 -60.000518798828125 204.6239776611328C-53.749420166015625 235.4139862060547 -40.755218505859375 268.38197326660156 -20.721115112304688 304.28599548339844C-18.685516357421875 307.93299865722656 -16.454818725585938 309.5959930419922 -13.180816650390625 309.91798400878906Z" fill="black" /></g></svg>