<?xml version="1.0" encoding="utf-8" ?>
<svg baseProfile="tiny" height="100%" version="1.2" width="100%" xmlns="http://www.w3.org/2000/svg" xmlns:ev="http://www.w3.org/2001/xml-events" xmlns:xlink="http://www.w3.org/1999/xlink"><defs /><g transform="translate(0, 1000) scale(1, -1)"><path d="M-12.558197021484375 1939.1700439453125C-11.391006469726562 1939.5899658203125 -10.233901977539062 1939.7900390625 -9.122528076171875 1939.7900390625C-4.184722900390625 1939.7900390625 -0.150665283203125 1935.9100341796875 -0.150665283203125 1930.56005859375C-0.150665283203125 1930.27001953125 -0.1628875732421875 1929.969970703125 -0.187835693359375 1929.6700439453125C-0.3329315185546875 1927.739990234375 -0.695709228515625 1926.8399658203125 -3.0899658203125 1922.5899658203125C-89.39199829101562 1768.8900146484375 -141.15899658203125 1584.780029296875 -152.04200744628906 1392.6600341796875C-154.03700256347656 1357.72998046875 -154.39999389648438 1343.550048828125 -154.39999389648438 1303.969970703125L-154.40199279785156 1299.9100341796875C-154.40200805664062 1262.8800048828125 -153.89801025390625 1245.1099853515625 -152.04202270507812 1213.280029296875C-144.2060089111328 1076.97998046875 -119.50201416015625 935.39697265625 -78.90811157226562 794.6439819335938C-68.35160827636719 757.968017578125 -58.95591735839844 728.4030151367188 -40.38230895996094 673.6610107421875C-24.964813232421875 628.1699829101562 -15.532821655273438 581.3729858398438 -12.630722045898438 535.8099975585938C-11.8419189453125 523.5269775390625 -11.448715209960938 511.2749938964844 -11.448715209960938 499.0660095214844C-11.448715209960938 405.1629943847656 -34.707611083984375 313.8070068359375 -80.06892395019531 230.17999267578125C-126.53901672363281 144.45799255371094 -194.4130096435547 66.78970336914062 -278.93702697753906 2.543792724609375C-282.20201110839844 0.0769805908203125 -284.8500213623047 -2.0270538330078125 -284.8500213623047 -2.1721649169921875C-284.8500213623047 -2.3172760009765625 -282.20201110839844 -4.42132568359375 -278.97401428222656 -6.88812255859375C-194.4130096435547 -71.13400268554688 -126.53901672363281 -148.83900451660156 -80.06892395019531 -234.5240020751953C-60.58842468261719 -270.4739990234375 -43.06681823730469 -313.5710144042969 -32.14750671386719 -352.60400390625C-18.254013061523438 -402.1719970703125 -11.293807983398438 -452.45001220703125 -11.293807983398438 -502.59600830078125C-11.293807983398438 -547.2459716796875 -16.811813354492188 -591.7899780273438 -27.866912841796875 -635.6339721679688C-32.98191833496094 -655.9860229492188 -34.54182434082031 -661.0280151367188 -48.50831604003906 -702.1290283203125C-119.01600646972656 -909.8590087890625 -154.12301635742188 -1113.1400146484375 -154.12301635742188 -1303.9200439453125C-154.12301635742188 -1532.77001953125 -103.61001586914062 -1743.6199951171875 -3.0899810791015625 -1922.5799560546875C-1.025115966796875 -1926.25 -1.52587890625e-05 -1928.969970703125 -1.52587890625e-05 -1931.25C-1.52587890625e-05 -1933.4200439453125 -0.9253692626953125 -1935.199951171875 -2.76348876953125 -1937.02001953125C-4.5838775634765625 -1938.8599853515625 -6.919708251953125 -1939.7900390625 -9.242477416992188 -1939.7900390625C-11.363311767578125 -1939.7900390625 -13.473312377929688 -1939.02001953125 -15.170120239257812 -1937.4599609375C-18.398712158203125 -1934.47998046875 -45.06201171875 -1884.8900146484375 -65.52201843261719 -1843.75C-190.60601806640625 -1592.530029296875 -253.73301696777344 -1337.8499755859375 -253.73301696777344 -1092.050048828125C-253.73301696777344 -939.926025390625 -229.55401611328125 -791.2020263671875 -180.9180145263672 -648.802978515625C-161.69100952148438 -592.5380249023438 -153.3480224609375 -562.1740112304688 -145.1850128173828 -518.823974609375C-136.79000854492188 -474.2850036621094 -132.67501831054688 -430.8399963378906 -132.67501831054688 -389.0299987792969C-132.67501831054688 -230.5 -191.82501220703125 -95.48199462890625 -300.99400329589844 -13.526702880859375C-308.93800354003906 -7.5773773193359375 -309.8810272216797 -6.3802642822265625 -309.8810272216797 -2.1721649169921875C-309.8810272216797 2.035919189453125 -308.93800354003906 3.2330474853515625 -300.99400329589844 9.182403564453125C-191.82501220703125 91.1376953125 -132.67501831054688 226.15499877929688 -132.67501831054688 384.6860046386719C-132.67501831054688 426.4949951171875 -136.79000854492188 469.9410095214844 -145.1850128173828 514.47900390625C-153.239013671875 557.39501953125 -161.9450225830078 589.0640258789062 -180.37400817871094 642.8259887695312C-229.6470184326172 786.6190185546875 -254.093017578125 936.77001953125 -254.093017578125 1090.18994140625C-254.093017578125 1363.969970703125 -176.24801635742188 1648.1500244140625 -22.715621948242188 1925.199951171875C-16.512313842773438 1936.4100341796875 -15.170120239257812 1938.22998046875 -12.558212280273438 1939.1700439453125Z" fill="black" /></g></svg>