<?xml version="1.0" encoding="utf-8" ?>
<svg baseProfile="tiny" height="100%" version="1.2" width="100%" xmlns="http://www.w3.org/2000/svg" xmlns:ev="http://www.w3.org/2001/xml-events" xmlns:xlink="http://www.w3.org/1999/xlink"><defs /><g transform="translate(0, 1000) scale(1, -1)"><path d="M-19.50079345703125 474.1520080566406C-19.063796997070312 474.21099853515625 -18.631805419921875 474.239990234375 -18.206802368164062 474.239990234375C-13.23809814453125 474.239990234375 -9.221466064453125 470.33099365234375 -9.221466064453125 465.1969909667969C-9.221466064453125 463.00799560546875 -9.457473754882812 462.2869873046875 -11.135696411132812 459.25799560546875C-16.891693115234375 448.8739929199219 -22.542694091796875 436.1159973144531 -26.633392333984375 424.2900085449219C-27.052993774414062 423.09698486328125 -27.459503173828125 421.9169921875 -27.56439208984375 421.6669921875C-27.944595336914062 420.6319885253906 -29.636001586914062 415.0989990234375 -30.501296997070312 412.09600830078125C-37.07240295410156 388.92401123046875 -40.379302978515625 364.22100830078125 -40.379302978515625 337.5350036621094C-40.379302978515625 289.24798583984375 -29.552993774414062 234.46800231933594 -7.6480865478515625 170.51800537109375C-2.5462493896484375 155.63999938964844 0.0 140.9459991455078 0.0 126.3389892578125C0.0 120.33700561523438 -0.429901123046875 114.35000610351562 -1.2890472412109375 108.3699951171875C-7.058074951171875 68.18328857421875 -28.547698974609375 34.95899963378906 -70.07159423828125 2.062408447265625C-71.81539916992188 0.6725921630859375 -73.24459838867188 -0.481201171875 -73.24459838867188 -0.520538330078125C-73.24459838867188 -0.55987548828125 -71.81539916992188 -1.71368408203125 -70.07159423828125 -3.103485107421875C-37.84370422363281 -28.631393432617188 -18.41259765625 -53.490692138671875 -7.857879638671875 -82.66360473632812C-2.6636199951171875 -97.00799560546875 -0.0551605224609375 -112.22299194335938 -0.0551605224609375 -127.45401000976562C-0.0551605224609375 -140.44200134277344 -1.9521026611328125 -153.4409942626953 -5.7600555419921875 -165.92100524902344C-5.982940673828125 -166.64199829101562 -7.24163818359375 -170.39199829101562 -8.552780151367188 -174.2469940185547C-29.669708251953125 -236.052001953125 -40.22200012207031 -290.40399169921875 -40.22200012207031 -338.3169860839844C-40.22200012207031 -384.260986328125 -30.518600463867188 -424.28399658203125 -11.122604370117188 -459.2760009765625C-9.457473754882812 -462.2659912109375 -9.221466064453125 -463.01300048828125 -9.221466064453125 -465.19000244140625C-9.221466064453125 -470.64898681640625 -13.599197387695312 -474.239990234375 -18.207000732421875 -474.239990234375C-20.4263916015625 -474.239990234375 -22.699203491210938 -473.4070129394531 -24.561798095703125 -471.54901123046875C-25.82049560546875 -470.2900085449219 -28.84930419921875 -464.94000244140625 -36.519500732421875 -450.4389953613281C-75.14678955078125 -377.3609924316406 -94.2930908203125 -310.52301025390625 -94.2930908203125 -247.38499450683594C-94.2930908203125 -213.01100158691406 -88.61819458007812 -179.73500061035156 -77.32220458984375 -147.14599609375C-69.24560546875 -123.84700012207031 -64.93190002441406 -104.32400512695312 -63.39790344238281 -84.1715087890625C-63.253692626953125 -82.2593994140625 -63.18499755859375 -79.93609619140625 -63.18499755859375 -77.44229125976562C-63.18499755859375 -72.2235107421875 -63.48609924316406 -66.25779724121094 -64.02719116210938 -61.75090026855469C-66.67568969726562 -39.51390075683594 -76.81089782714844 -20.7384033203125 -92.623291015625 -8.741409301757812C-96.32070922851562 -5.9355621337890625 -97.43521118164062 -4.034393310546875 -97.43521118164062 -0.520538330078125C-97.43521118164062 2.993316650390625 -96.32070922851562 4.8944854736328125 -92.623291015625 7.7003173828125C-76.81089782714844 19.697296142578125 -66.67568969726562 38.472808837890625 -64.02719116210938 60.709808349609375C-63.48609924316406 65.21670532226562 -63.18499755859375 71.18240356445312 -63.18499755859375 76.40119934082031C-63.18499755859375 78.89498901367188 -63.253692626953125 81.21829223632812 -63.39790344238281 83.13040161132812C-64.94500732421875 103.46600341796875 -69.14070129394531 122.41200256347656 -77.45330810546875 146.5240020751953C-88.564208984375 178.74099731445312 -94.37699890136719 213.44900512695312 -94.37699890136719 247.07699584960938C-94.37699890136719 252.17999267578125 -94.24319458007812 257.25799560546875 -93.97369384765625 262.2980041503906C-93.67221069335938 267.9100036621094 -93.55419921875 269.8370056152344 -93.30509948730469 273.04901123046875C-88.80780029296875 332.010986328125 -67.69839477539062 394.4739990234375 -28.115005493164062 465.9840087890625C-24.653594970703125 472.2510070800781 -23.145797729492188 473.67999267578125 -19.50079345703125 474.1520080566406Z" fill="black" /></g></svg>