<?xml version="1.0" encoding="utf-8" ?>
<svg baseProfile="tiny" height="100%" version="1.2" width="100%" xmlns="http://www.w3.org/2000/svg" xmlns:ev="http://www.w3.org/2001/xml-events" xmlns:xlink="http://www.w3.org/1999/xlink"><defs /><g transform="translate(0, 1000) scale(1, -1)"><path d="M-11.550704956054688 5691.06982421875C-10.720413208007812 5691.259765625 -9.90618896484375 5691.35009765625 -9.118484497070312 5691.35009765625C-4.0108795166015625 5691.35009765625 -0.0197906494140625 5687.56005859375 -0.0197906494140625 5682.2900390625C-0.0197906494140625 5679.41015625 -0.9806976318359375 5677.419921875 -11.230422973632812 5659.0400390625C-334.3760223388672 5077.6298828125 -498.5290069580078 4404.27001953125 -498.5290069580078 3689.030029296875C-498.5290069580078 3287.110107421875 -446.69300842285156 2871.9599609375 -342.10401916503906 2452.47998046875C-305.97401428222656 2307.31005859375 -260.04200744628906 2151.89990234375 -211.35601806640625 2009.5L-191.88201904296875 1952.47998046875C-141.78599548339844 1805.6600341796875 -112.76699829101562 1654.72998046875 -104.88699340820312 1500.2099609375C-103.4580078125 1472.050048828125 -102.74700927734375 1443.9300537109375 -102.74700927734375 1415.8699951171875C-102.74700927734375 1021.2000122070312 -243.3939971923828 637.68701171875 -506.54798889160156 318.6130065917969C-602.3829803466797 202.4709930419922 -718.6529998779297 92.02999877929688 -840.1760101318359 1.896514892578125C-846.0699920654297 -2.523681640625 -850.8749847412109 -6.23919677734375 -850.8749847412109 -6.495452880859375C-850.8749847412109 -6.7516937255859375 -846.0699920654297 -10.467193603515625 -840.1760101318359 -14.887405395507812C-563.5619964599609 -220.13800048828125 -347.29298400878906 -497.4570007324219 -223.84799194335938 -805.3330078125C-143.18798828125 -1006.52001953125 -102.71298217773438 -1217.969970703125 -102.71298217773438 -1429.3299560546875C-102.71298217773438 -1610.27001953125 -132.37498474121094 -1791.1500244140625 -191.88198852539062 -1965.469970703125L-211.1639862060547 -2021.8499755859375C-362.66798400878906 -2464.830078125 -456.51698303222656 -2926.830078125 -486.68898010253906 -3378.330078125C-493.7989959716797 -3484.75 -497.3369903564453 -3590.3701171875 -497.3369903564453 -3695.0400390625C-497.3369903564453 -4410.93994140625 -331.8269805908203 -5082.2900390625 -11.358474731445312 -5658.9599609375C-1.5325469970703125 -5676.6298828125 3.0517578125e-05 -5679.740234375 3.0517578125e-05 -5683.580078125C3.0517578125e-05 -5683.83984375 -0.0073089599609375 -5684.10986328125 -0.019744873046875 -5684.39013671875C-0.2802276611328125 -5688.52001953125 -5.012664794921875 -5691.35009765625 -9.511642456054688 -5691.35009765625C-11.6513671875 -5691.35009765625 -13.738265991210938 -5690.7099609375 -15.26617431640625 -5689.259765625C-16.867767333984375 -5687.7900390625 -27.629974365234375 -5668.830078125 -47.36067199707031 -5632.6298828125C-427.8169708251953 -4936.60986328125 -636.7199554443359 -4174.419921875 -652.2219696044922 -3425.419921875C-652.8579559326172 -3394.909912109375 -653.1749725341797 -3364.409912109375 -653.1749725341797 -3333.919921875C-653.1749725341797 -2854.10009765625 -574.6320037841797 -2378.02001953125 -422.1799774169922 -1935.3599853515625C-381.88597106933594 -1818.3299560546875 -363.88499450683594 -1757.02001953125 -344.4099884033203 -1669.9599609375C-311.8259735107422 -1524.219970703125 -295.9619903564453 -1379.8599853515625 -295.9619903564453 -1239.6300048828125C-295.9619903564453 -741.93798828125 -495.80299377441406 -296.3429870605469 -857.1529998779297 -25.905914306640625C-876.2429656982422 -11.620315551757812 -876.6269989013672 -11.171920776367188 -876.6269989013672 -6.4954681396484375C-876.6269989013672 -1.81903076171875 -876.2429656982422 -1.37060546875 -857.1529998779297 12.91497802734375C-495.80299377441406 283.35296630859375 -295.9619903564453 728.9469909667969 -295.9619903564453 1226.6399841308594C-295.9619903564453 1366.8699645996094 -311.8259735107422 1511.2299499511719 -344.4099884033203 1656.9699401855469C-363.88499450683594 1744.0299987792969 -381.88597106933594 1805.3299255371094 -422.1799774169922 1922.3699645996094C-532.4929656982422 2242.679901123047 -606.2910003662109 2590.399871826172 -637.1680145263672 2935.489959716797C-648.7230072021484 3064.519989013672 -654.4629974365234 3194.229949951172 -654.4629974365234 3324.279998779297C-654.4629974365234 4105.540008544922 -447.3259735107422 4898.910125732422 -49.60276794433594 5628.290008544922C-17.700469970703125 5686.899871826172 -15.714675903320312 5690.109832763672 -11.550674438476562 5691.069793701172Z" fill="black" /></g></svg>