<?xml version="1.0" encoding="utf-8" ?>
<svg baseProfile="tiny" height="100%" version="1.2" width="100%" xmlns="http://www.w3.org/2000/svg" xmlns:ev="http://www.w3.org/2001/xml-events" xmlns:xlink="http://www.w3.org/1999/xlink"><defs /><g transform="translate(0, 1000) scale(1, -1)"><path d="M-19.479293823242188 556.1719970703125C-19.123092651367188 556.2100219726562 -18.770889282226562 556.22802734375 -18.423583984375 556.22802734375C-13.356582641601562 556.22802734375 -9.331527709960938 552.3189697265625 -9.331527709960938 547.1810302734375C-9.331527709960938 544.9910278320312 -9.578277587890625 544.2969970703125 -11.937881469726562 539.9940185546875C-35.03688049316406 497.73199462890625 -46.58818054199219 449.37799072265625 -46.58818054199219 394.3370056152344C-46.58818054199219 337.22198486328125 -34.15008544921875 272.906005859375 -9.26983642578125 200.7239990234375C-2.94854736328125 182.37600708007812 1.52587890625e-05 165.94700622558594 1.52587890625e-05 148.60899353027344C1.52587890625e-05 145.98199462890625 -0.0677032470703125 143.33399963378906 -0.2016448974609375 140.65499877929688C-2.8234100341796875 88.20429992675781 -29.904586791992188 42.87879943847656 -83.52717590332031 1.1620635986328125C-84.71467590332031 0.236724853515625 -85.70167541503906 -0.565216064453125 -85.70167541503906 -0.611480712890625C-85.70167541503906 -0.657745361328125 -84.71467590332031 -1.44427490234375 -83.52717590332031 -2.3850250244140625C-29.904586791992188 -44.101806640625 -2.8234100341796875 -89.42730712890625 -0.2016448974609375 -141.8780059814453C-0.0677032470703125 -144.5570068359375 1.52587890625e-05 -147.2050018310547 1.52587890625e-05 -149.83299255371094C1.52587890625e-05 -167.1739959716797 -2.94854736328125 -183.61199951171875 -9.26983642578125 -201.94700622558594C-28.269882202148438 -257.0190124511719 -40.067779541015625 -308.1130065917969 -44.524688720703125 -354.5480041503906C-45.84797668457031 -368.3320007324219 -46.50947570800781 -381.760986328125 -46.50947570800781 -394.83599853515625C-46.50947570800781 -449.41900634765625 -34.98017883300781 -497.8179931640625 -11.937881469726562 -539.9840087890625C-9.578277587890625 -544.2860107421875 -9.331527709960938 -544.97998046875 -9.331527709960938 -547.1699829101562C-9.331527709960938 -552.6329956054688 -13.758087158203125 -556.22802734375 -18.3826904296875 -556.22802734375C-20.625686645507812 -556.22802734375 -22.915390014648438 -555.3820190429688 -24.769088745117188 -553.4929809570312C-25.863983154296875 -552.3679809570312 -26.804779052734375 -550.7639770507812 -33.09698486328125 -539.1510009765625C-64.40379333496094 -481.3489990234375 -85.31617736816406 -427.156005859375 -96.12709045410156 -375.83099365234375C-101.95698547363281 -348.1440124511719 -104.87098693847656 -320.41900634765625 -104.87098693847656 -293.1889953613281C-104.87098693847656 -263.2959899902344 -101.35899353027344 -233.99899291992188 -94.33808898925781 -206.0030059814453C-91.17658996582031 -193.3719940185547 -89.12538146972656 -186.447998046875 -84.49879455566406 -172.92300415039062C-74.00608825683594 -142.21299743652344 -68.76158142089844 -115.08499145507812 -68.76158142089844 -91.50259399414062C-68.76158142089844 -67.28759765625 -74.2913818359375 -46.81170654296875 -85.34698486328125 -30.03680419921875C-90.68309020996094 -21.940200805664062 -97.54588317871094 -14.5531005859375 -104.65498352050781 -9.217010498046875C-108.80398559570312 -6.1171722412109375 -109.97598266601562 -4.204833984375 -109.97598266601562 -0.611480712890625C-109.97598266601562 2.9818572998046875 -108.80398559570312 4.894195556640625 -104.65498352050781 7.9940338134765625C-97.53048706054688 13.330093383789062 -90.68309020996094 20.717300415039062 -85.34698486328125 28.81390380859375C-74.2913818359375 45.58869934082031 -68.76158142089844 66.06460571289062 -68.76158142089844 90.27960205078125C-68.76158142089844 113.86199951171875 -74.00608825683594 140.99000549316406 -84.49879455566406 171.6999969482422C-96.46638488769531 206.72300720214844 -102.61997985839844 237.86000061035156 -104.45498657226562 272.59100341796875C-104.81098937988281 279.3580017089844 -104.98997497558594 286.1300048828125 -104.98997497558594 292.9150085449219C-104.98997497558594 372.3039855957031 -80.49427795410156 453.4230041503906 -28.223587036132812 548.0759887695312C-24.84619140625 554.1829833984375 -23.103485107421875 555.802001953125 -19.479278564453125 556.1719970703125Z" fill="black" /></g></svg>