<?xml version="1.0" encoding="utf-8" ?>
<svg baseProfile="tiny" height="100%" version="1.2" width="100%" xmlns="http://www.w3.org/2000/svg" xmlns:ev="http://www.w3.org/2001/xml-events" xmlns:xlink="http://www.w3.org/1999/xlink"><defs /><g transform="translate(0, 1000) scale(1, -1)"><path d="M-14.4757080078125 5082.1298828125C-13.044296264648438 5083.0400390625 -11.340606689453125 5083.47021484375 -9.616683959960938 5083.47021484375C-6.40911865234375 5083.47021484375 -3.131683349609375 5081.990234375 -1.408294677734375 5079.35986328125C-0.5396575927734375 5078.02978515625 0.0 5076.93994140625 0.0 5075.47021484375C0.0 5072.14013671875 -2.75201416015625 5066.85986328125 -10.681900024414062 5052.509765625C-296.45899963378906 4537.52978515625 -442.07398986816406 3941.85009765625 -442.07398986816406 3305.610107421875C-442.07398986816406 3035.14990234375 -415.76197814941406 2757.3701171875 -362.71897888183594 2475.340087890625C-320.08399963378906 2248.6201171875 -258.6009979248047 2015.81005859375 -183.5089874267578 1796.3199462890625L-166.34698486328125 1746.3299560546875C-120.39999389648438 1612.1099853515625 -95.830810546875 1481.6700439453125 -88.18310546875 1330.22998046875C-87.21440124511719 1311.3199462890625 -86.73880004882812 1291.5999755859375 -86.73880004882812 1271.3299560546875C-86.73880004882812 1186.989990234375 -94.96749877929688 1092.97998046875 -110.16299438476562 1007.3900146484375C-179.41400146484375 617.5999755859375 -410.77301025390625 253.58001708984375 -748.5989990234375 2.7098388671875C-754.6199951171875 -1.746307373046875 -759.5579833984375 -5.5400848388671875 -759.5579833984375 -5.720733642578125C-759.5579833984375 -5.9013824462890625 -754.6199951171875 -9.695144653320312 -748.5989990234375 -14.151275634765625C-410.77301025390625 -265.0209655761719 -179.41400146484375 -629.0419616699219 -110.16299438476562 -1018.8399963378906C-94.96749877929688 -1104.4200134277344 -86.73880004882812 -1198.4300231933594 -86.73880004882812 -1282.7699890136719C-86.73880004882812 -1303.0400085449219 -87.21440124511719 -1322.7599792480469 -88.18310546875 -1341.6700134277344C-95.830810546875 -1493.1199645996094 -120.39999389648438 -1623.6099548339844 -166.3470001220703 -1757.7799987792969L-200.9720001220703 -1859.8499450683594C-361.41502380371094 -2351.209930419922 -441.1060028076172 -2840.529998779297 -441.1060028076172 -3309.870086669922C-441.1060028076172 -3941.499969482422 -296.77101135253906 -4536.950164794922 -10.681900024414062 -5052.509735107422C-2.75201416015625 -5066.859832763672 0.0 -5072.140106201172 0.0 -5075.470184326172C0.0 -5076.939910888672 -0.5396575927734375 -5078.029754638672 -1.408294677734375 -5079.359832763672C-3.131683349609375 -5081.990203857422 -6.3581695556640625 -5083.470184326172 -9.546676635742188 -5083.470184326172C-11.260299682617188 -5083.470184326172 -12.962997436523438 -5083.040008544922 -14.415496826171875 -5082.129852294922C-21.039505004882812 -5078.040008544922 -111.00599670410156 -4906.899871826172 -156.9530029296875 -4810.850067138672C-443.8840026855469 -4211.540008544922 -589.6160278320312 -3583.459930419922 -589.6160278320312 -2965.810028076172C-589.6160278320312 -2650.919891357422 -551.739990234375 -2338.749969482422 -475.38800048828125 -2034.4799499511719C-444.7359924316406 -1912.4200134277344 -417.2170104980469 -1820.4599304199219 -373.3169860839844 -1693.6399841308594C-304.3059997558594 -1494.1700134277344 -270.9159851074219 -1293.4499206542969 -270.9159851074219 -1100.9799499511719C-270.9159851074219 -661.7919616699219 -444.76300048828125 -265.5159606933594 -765.9420166015625 -24.809967041015625C-784.5490112304688 -10.839263916015625 -784.9099731445312 -10.538177490234375 -784.9099731445312 -5.7207183837890625C-784.9099731445312 -0.903228759765625 -784.5490112304688 -0.602142333984375 -765.9420166015625 13.368545532226562C-490.92401123046875 219.4960479736328 -316.8320007324219 546.4820404052734 -278.8349914550781 928.5680389404297C-273.4309997558594 982.7880706787109 -270.7250061035156 1037.1100311279297 -270.7250061035156 1091.6200408935547C-270.7250061035156 1287.9700164794922 -305.84100341796875 1486.6700897216797 -376.4490051269531 1691.2300262451172C-500.5589904785156 2050.800094604492 -568.7260131835938 2403.860153198242 -586.4910278320312 2779.379928588867C-589.35302734375 2840.020065307617 -590.7780151367188 2900.810104370117 -590.7780151367188 2961.710006713867C-590.7780151367188 3663.199996948242 -401.65899658203125 4378.890182495117 -40.73089599609375 5036.970260620117C-20.01580810546875 5074.730026245117 -16.462905883789062 5080.870162963867 -14.4757080078125 5082.129928588867Z" fill="black" /></g></svg>