<?xml version="1.0" encoding="utf-8" ?>
<svg baseProfile="tiny" height="100%" version="1.2" width="100%" xmlns="http://www.w3.org/2000/svg" xmlns:ev="http://www.w3.org/2001/xml-events" xmlns:xlink="http://www.w3.org/1999/xlink"><defs /><g transform="translate(0, 1000) scale(1, -1)"><path d="M-13.809295654296875 9555.8095703125C-12.417495727539062 9556.5498046875 -10.953598022460938 9556.8798828125 -9.520355224609375 9556.8798828125C-4.5779266357421875 9556.8798828125 0.0 9552.900390625 0.0 9547.830078125C0.0 9547.3701171875 -0.038299560546875 9546.900390625 -0.11810302734375 9546.419921875C-0.376434326171875 9544.9599609375 -5.8873443603515625 9534.2802734375 -12.345504760742188 9522.650390625C-516.5079803466797 8620.0703125 -804.0229949951172 7580.75 -854.4819793701172 6478.2998046875C-859.8449554443359 6361.06982421875 -862.5149993896484 6243.18017578125 -862.5149993896484 6124.77978515625C-862.5149993896484 5195.77978515625 -698.1469573974609 4235.77978515625 -380.8879852294922 3321.580078125C-305.54298400878906 3104.330078125 -266.88099670410156 2950.199951171875 -238.0349884033203 2751.550048828125C-218.5819854736328 2617.6201171875 -209.0349884033203 2483.550048828125 -209.0349884033203 2350.18994140625C-209.0349884033203 1467.5999755859375 -627.2199554443359 616.4030151367188 -1359.939926147461 46.4622802734375C-1377.1600189208984 33.11549377441406 -1431.4100189208984 -7.7858428955078125 -1434.3299407958984 -9.50799560546875C-1434.979965209961 -9.895492553710938 -1435.300033569336 -10.132308959960938 -1435.300033569336 -10.369110107421875C-1435.300033569336 -10.605911254882812 -1434.979965209961 -10.84271240234375 -1434.3299407958984 -11.230117797851562C-1431.4100189208984 -12.952316284179688 -1377.1600189208984 -53.85362243652344 -1359.939926147461 -67.20042419433594C-627.2199554443359 -637.1409759521484 -209.0349884033203 -1488.3399505615234 -209.0349884033203 -2370.929916381836C-209.0349884033203 -2504.280014038086 -218.5819854736328 -2638.360092163086 -238.0349884033203 -2772.290023803711C-266.88099670410156 -2970.939926147461 -305.37098693847656 -3124.639877319336 -380.8879852294922 -3342.320053100586C-667.2830047607422 -4168.009750366211 -830.6299896240234 -5040.540023803711 -856.6349945068359 -5883.799789428711C-858.9600067138672 -5960.089828491211 -859.3899993896484 -5984.459945678711 -859.8209686279297 -6093.899887084961C-859.8679656982422 -6105.419906616211 -859.8909759521484 -6116.919906616211 -859.8909759521484 -6128.410140991211C-859.8909759521484 -6732.919906616211 -795.3419647216797 -7290.569808959961 -660.2219696044922 -7853.950180053711C-519.2639617919922 -8441.809555053711 -294.86598205566406 -9018.910140991211 -10.020492553710938 -9526.169906616211C-3.2432098388671875 -9538.190414428711 -0.13214111328125 -9544.639633178711 -0.13214111328125 -9548.690414428711C-0.13214111328125 -9551.690414428711 -1.83868408203125 -9553.370101928711 -5.0262603759765625 -9555.019515991211C-7.039520263671875 -9556.059555053711 -8.557754516601562 -9556.879867553711 -10.055679321289062 -9556.879867553711C-14.83648681640625 -9556.879867553711 -19.410690307617188 -9548.559555053711 -39.211181640625 -9512.820297241211C-707.6489868164062 -8307.910140991211 -1055.5799560546875 -6980.160140991211 -1055.5799560546875 -5661.089828491211C-1055.5799560546875 -5386.970199584961 -1040.550048828125 -5113.220199584961 -1010.25 -4841.029769897461C-949.8900146484375 -4298.029769897461 -827.7030029296875 -3755.979965209961 -650.6640014648438 -3245.020004272461C-546.64599609375 -2944.850082397461 -491.7950134277344 -2699.949935913086 -465.7040100097656 -2418.379867553711C-456.7149963378906 -2321.310043334961 -452.2860107421875 -2224.949935913086 -452.2860107421875 -2129.600082397461C-452.2860107421875 -1266.8499603271484 -814.916015625 -487.45494079589844 -1443.2900390625 -28.193344116210938C-1455.219970703125 -19.496444702148438 -1461.1800537109375 -14.9327392578125 -1461.1800537109375 -10.369033813476562C-1461.1800537109375 -5.8052825927734375 -1455.219970703125 -1.241546630859375 -1443.2900390625 7.4553680419921875C-1243.0899658203125 153.75306701660156 -1059.8499755859375 343.5350646972656 -912.864013671875 556.653076171875C-608.958984375 997.5320434570312 -452.31500244140625 1539.0100708007812 -452.31500244140625 2107.7200317382812C-452.31500244140625 2418.5000610351562 -499.0920104980469 2737.4199829101562 -594.177978515625 3052.4900512695312C-609.2470092773438 3102.5200805664062 -623.4539794921875 3145.5801391601562 -654.969970703125 3236.7700805664062C-871.3590087890625 3863.4600219726562 -1004.47998046875 4536.569885253906 -1044.3499755859375 5205.629943847656C-1053.0899658203125 5352.640197753906 -1057.4100341796875 5504.839904785156 -1057.4100341796875 5656.759826660156C-1057.4100341796875 5900.009826660156 -1046.3299560546875 6142.569885253906 -1024.550048828125 6362.060119628906C-1018.5999755859375 6421.819885253906 -1011.3699951171875 6489.580139160156 -1005.9500122070312 6536.430236816406C-887.3759765625 7561.279846191406 -556.7210083007812 8580.719787597656 -41.3638916015625 9509.740295410156C-17.6842041015625 9552.530334472656 -16.650894165039062 9554.259826660156 -13.809295654296875 9555.809631347656Z" fill="black" /></g></svg>