<?xml version="1.0" encoding="utf-8" ?>
<svg baseProfile="tiny" height="100%" version="1.2" width="100%" xmlns="http://www.w3.org/2000/svg" xmlns:ev="http://www.w3.org/2001/xml-events" xmlns:xlink="http://www.w3.org/1999/xlink"><defs /><g transform="translate(0, 1000) scale(1, -1)"><path d="M-17.987503051757812 420.6940002441406C-17.559616088867188 420.75 -17.13641357421875 420.77801513671875 -16.71990966796875 420.77801513671875C-11.760116577148438 420.77801513671875 -7.7404327392578125 416.875 -7.7404327392578125 411.7460021972656C-7.7404327392578125 409.6340026855469 -7.9957427978515625 408.8219909667969 -9.481170654296875 406.1409912109375C-16.664520263671875 393.2720031738281 -23.035614013671875 377.4540100097656 -27.085708618164062 362.4840087890625C-32.38221740722656 342.89898681640625 -35.05122375488281 322.1050109863281 -35.05122375488281 299.697998046875C-35.05122375488281 256.95599365234375 -25.3397216796875 208.34300231933594 -5.62835693359375 151.04400634765625C-3.1333160400390625 143.79100036621094 -1.5666656494140625 137.53599548339844 -0.4758148193359375 130.49200439453125L-1.52587890625e-05 127.46299743652344V112.11000061035156V96.75660705566406L-0.4758148193359375 93.72770690917969C-5.8140411376953125 59.50511169433594 -24.74151611328125 30.771514892578125 -61.15751647949219 1.643402099609375C-62.52680969238281 0.54095458984375 -63.65251159667969 -0.3990478515625 -63.65251159667969 -0.457061767578125C-63.65251159667969 -0.5150909423828125 -62.52680969238281 -1.455078125 -61.15751647949219 -2.5575408935546875C-24.74151611328125 -31.685684204101562 -5.8140411376953125 -60.419189453125 -0.4758148193359375 -94.64189147949219L-1.52587890625e-05 -97.67070007324219V-113.02400207519531V-128.3769989013672L-0.4758148193359375 -131.406005859375C-1.6595001220703125 -139.07699584960938 -3.0753021240234375 -144.50799560546875 -6.359466552734375 -154.10499572753906C-25.41162109375 -209.69900512695312 -34.92741394042969 -258.072998046875 -34.92741394042969 -300.5350036621094C-34.92741394042969 -340.37200927734375 -26.55181884765625 -375.0039978027344 -9.817703247070312 -405.5119934082031C-7.9493255615234375 -408.92401123046875 -7.7404327392578125 -409.5509948730469 -7.7404327392578125 -411.73199462890625C-7.7404327392578125 -417.1180114746094 -12.088912963867188 -420.77801513671875 -16.740814208984375 -420.77801513671875C-18.67462158203125 -420.77801513671875 -20.660812377929688 -420.14599609375 -22.408920288085938 -418.74200439453125C-23.847915649414062 -417.5929870605469 -24.230911254882812 -416.9779968261719 -29.511123657226562 -407.2640075683594C-67.68742370605469 -337.0220031738281 -85.55302429199219 -277.30999755859375 -85.55302429199219 -218.8520050048828C-85.55302429199219 -211.4720001220703 -85.26821899414062 -204.11199951171875 -84.70372009277344 -196.7530059814453C-83.07902526855469 -175.5279998779297 -78.44871520996094 -152.78199768066406 -71.70622253417969 -132.8679962158203C-65.77621459960938 -115.3909912109375 -63.3856201171875 -106.87300109863281 -60.99501037597656 -94.74630737304688C-58.99571228027344 -84.60140991210938 -57.99951171875 -75.13790893554688 -57.99951171875 -66.38279724121094C-57.99951171875 -40.93659973144531 -66.41511535644531 -21.47479248046875 -83.07902526855469 -8.661697387695312C-86.81571960449219 -5.7953033447265625 -87.88340759277344 -3.95013427734375 -87.88340759277344 -0.4570770263671875C-87.88340759277344 3.0359649658203125 -86.81571960449219 4.881134033203125 -83.07902526855469 7.747528076171875C-66.41511535644531 20.56060791015625 -57.99951171875 40.02239990234375 -57.99951171875 65.46868896484375C-57.99951171875 74.22380065917969 -58.99571228027344 83.68730163574219 -60.99501037597656 93.83219909667969C-63.3856201171875 105.947998046875 -65.76461791992188 114.45401000976562 -71.70622253417969 131.95399475097656C-74.46821594238281 140.12399291992188 -77.29981994628906 150.31300354003906 -79.31901550292969 159.3990020751953C-83.51931762695312 178.29800415039062 -85.62101745605469 198.11399841308594 -85.62101745605469 218.25999450683594C-85.62101745605469 237.46499633789062 -83.7108154296875 256.968994140625 -79.88771057128906 276.260009765625C-71.41612243652344 318.96600341796875 -54.14811706542969 362.97100830078125 -25.844009399414062 413.95098876953125C-23.2213134765625 418.6860046386719 -21.410919189453125 420.2409973144531 -17.987518310546875 420.6940002441406Z" fill="black" /></g></svg>