<?xml version="1.0" encoding="utf-8" ?>
<svg baseProfile="tiny" height="100%" version="1.2" width="100%" xmlns="http://www.w3.org/2000/svg" xmlns:ev="http://www.w3.org/2001/xml-events" xmlns:xlink="http://www.w3.org/1999/xlink"><defs /><g transform="translate(0, 1000) scale(1, -1)"><path d="M-17.274703979492188 406.91400146484375C-16.8148193359375 406.97100830078125 -16.3773193359375 407.0150146484375 -16.321212768554688 407.0270080566406C-16.147018432617188 407.0480041503906 -15.967819213867188 407.0580139160156 -15.784713745117188 407.0580139160156C-13.067718505859375 407.0580139160156 -9.478439331054688 404.7829895019531 -8.143798828125 402.1130065917969C-7.4453277587890625 400.71600341796875 -7.08441162109375 399.4779968261719 -7.08441162109375 398.17498779296875C-7.08441162109375 396.3810119628906 -7.7686614990234375 394.4639892578125 -9.198226928710938 391.8380126953125C-25.393218994140625 362.1839904785156 -33.49900817871094 328.68701171875 -33.49900817871094 290.1700134277344C-33.49900817871094 248.91799926757812 -24.201416015625 201.90899658203125 -5.58624267578125 147.6929931640625C-2.9165191650390625 139.91900634765625 -1.3685302734375 134.1540069580078 -0.38140869140625 128.29800415039062L-1.52587890625e-05 125.99899291992188V108.35398864746094V90.70909118652344L-0.38140869140625 88.43190002441406C-2.6697540283203125 74.99360656738281 -7.9867706298828125 60.92701721191406 -15.569732666015625 48.30751037597656C-25.530624389648438 31.694717407226562 -38.85682678222656 17.291610717773438 -59.3397216796875 0.9704132080078125C-60.29322814941406 0.2076416015625 -61.07843017578125 -0.442962646484375 -61.07843017578125 -0.4878387451171875C-61.07843017578125 -0.53271484375 -60.29322814941406 -1.183319091796875 -59.3397216796875 -1.9460906982421875C-38.85682678222656 -18.267288208007812 -25.530624389648438 -32.670379638671875 -15.569732666015625 -49.28318786621094C-7.9867706298828125 -61.902679443359375 -2.6697540283203125 -75.96928405761719 -0.3814239501953125 -89.40757751464844L-3.0517578125e-05 -91.68476867675781V-109.32997131347656V-126.97396850585938L-0.3814239501953125 -129.2739715576172C-1.368560791015625 -135.1409912109375 -2.9165496826171875 -140.90599060058594 -5.586273193359375 -148.6689910888672C-24.215042114257812 -202.85897827148438 -33.44233703613281 -249.7849884033203 -33.44233703613281 -290.6439971923828C-33.44233703613281 -304.35499572753906 -32.40324401855469 -317.3829803466797 -30.331741333007812 -329.7729949951172C-28.907150268554688 -338.29798889160156 -27.2469482421875 -345.51097106933594 -24.521148681640625 -355.1239776611328C-21.312942504882812 -366.39698791503906 -15.143447875976562 -381.1479949951172 -8.872955322265625 -392.5339813232422C-7.61920166015625 -394.8109893798828 -7.123077392578125 -396.2539825439453 -7.123077392578125 -397.9039764404297C-7.123077392578125 -398.26197814941406 -7.146392822265625 -398.62998962402344 -7.1903533935546875 -399.01698303222656C-7.7337799072265625 -403.90797424316406 -11.87164306640625 -407.05799865722656 -16.208938598632812 -407.05799865722656C-18.138748168945312 -407.05799865722656 -20.108047485351562 -406.4349822998047 -21.8177490234375 -405.06297302246094C-23.029251098632812 -404.0869903564453 -23.612548828125 -403.23497009277344 -25.8896484375 -399.1289825439453C-64.96403503417969 -328.55799865722656 -83.10554504394531 -269.44798278808594 -83.10554504394531 -211.4329833984375C-83.10554504394531 -204.260986328125 -82.82835388183594 -197.10598754882812 -82.27914428710938 -189.94898986816406C-80.70875549316406 -169.57798767089844 -76.15455627441406 -147.27798461914062 -69.63725280761719 -128.1409912109375C-63.80424499511719 -110.98997497558594 -61.28034973144531 -101.85899353027344 -58.958343505859375 -89.47488403320312C-57.24104309082031 -80.33299255371094 -56.37944030761719 -71.84147644042969 -56.37944030761719 -63.96528625488281C-56.37944030761719 -46.066986083984375 -60.82853698730469 -31.345993041992188 -69.79423522949219 -19.389083862304688C-72.55375671386719 -15.720977783203125 -76.73783874511719 -11.492080688476562 -80.26005554199219 -8.822311401367188C-82.18943786621094 -7.3752899169921875 -82.7054443359375 -6.915374755859375 -83.3448486328125 -6.10772705078125C-84.64045715332031 -4.481201171875 -85.28825378417969 -2.484527587890625 -85.28825378417969 -0.4878387451171875C-85.28825378417969 1.50885009765625 -84.64045715332031 3.5055389404296875 -83.3448486328125 5.132049560546875C-82.7054443359375 5.939697265625 -82.18943786621094 6.3996124267578125 -80.26005554199219 7.8466339111328125C-76.73783874511719 10.516311645507812 -72.55375671386719 14.745315551757812 -69.79423522949219 18.413314819335938C-60.84895324707031 30.34442138671875 -56.381744384765625 45.05351257324219 -56.381744384765625 63.0421142578125C-56.381744384765625 79.72421264648438 -60.223541259765625 99.22660827636719 -67.89854431152344 121.94902038574219C-74.31483459472656 140.9400177001953 -77.48934936523438 153.4140167236328 -79.96844482421875 169.45501708984375C-82.12454223632812 183.38201904296875 -83.21694946289062 197.30601501464844 -83.21694946289062 211.3500213623047C-83.21694946289062 269.05702209472656 -64.77314758300781 328.79002380371094 -25.8896484375 399.05101013183594C-22.569351196289062 405.04100036621094 -20.99884033203125 406.4770050048828 -17.274749755859375 406.9140167236328Z" fill="black" /></g></svg>