<?xml version="1.0" encoding="utf-8" ?>
<svg baseProfile="tiny" height="100%" version="1.2" width="100%" xmlns="http://www.w3.org/2000/svg" xmlns:ev="http://www.w3.org/2001/xml-events" xmlns:xlink="http://www.w3.org/1999/xlink"><defs /><g transform="translate(0, 1000) scale(1, -1)"><path d="M-11.162994384765625 2908.929931640625C-10.42919921875 2909.110107421875 -9.700790405273438 2909.18994140625 -8.988327026367188 2909.18994140625C-4.122406005859375 2909.18994140625 0.0 2905.2099609375 0.0 2899.9599609375C0.0 2897.530029296875 -0.280242919921875 2896.780029296875 -3.1760711669921875 2891.550048828125C-111.25599670410156 2696.360107421875 -180.3350067138672 2492.35009765625 -216.3459930419922 2261.989990234375C-233.20599365234375 2154.169921875 -241.5500030517578 2041.949951171875 -241.5500030517578 1926.93994140625C-241.5500030517578 1637.3199462890625 -188.63600158691406 1329.97998046875 -85.56700134277344 1030.469970703125C-74.31069946289062 997.8200073242188 -72.25559997558594 991.5609741210938 -68.33219909667969 978.6699829101562C-44.208404541015625 899.0809936523438 -32.429901123046875 818.2020263671875 -32.429901123046875 737.8319702148438C-32.429901123046875 486.9129943847656 -147.23500061035156 240.94500732421875 -359.59600830078125 54.62089538574219C-380.2879943847656 36.49859619140625 -415.6449890136719 7.960662841796875 -430.3110046386719 -2.4549713134765625L-431.4779968261719 -3.2957000732421875L-430.3110046386719 -4.0897064208984375C-402.0530090332031 -24.173690795898438 -354.364990234375 -64.57518005371094 -321.0169982910156 -96.80288696289062C-132.8520050048828 -278.44798278808594 -32.35400390625 -510.64598083496094 -32.35400390625 -745.1519622802734C-32.35400390625 -834.8749847412109 -47.0653076171875 -924.9359588623047 -77.20649719238281 -1012.6299896240234C-147.45399475097656 -1216.8799896240234 -191.031005859375 -1395.1600189208984 -216.86000061035156 -1583.9000091552734C-232.98599243164062 -1701.790023803711 -241.02200317382812 -1817.020004272461 -241.02200317382812 -1929.280014038086C-241.02200317382812 -2281.300033569336 -161.9929962158203 -2603.979965209961 -5.604827880859375 -2887.120101928711C-0.280242919921875 -2896.840072631836 0.0 -2897.489974975586 0.0 -2900.009994506836C0.0 -2905.719955444336 -4.492584228515625 -2909.189926147461 -9.11712646484375 -2909.189926147461C-12.02239990234375 -2909.189926147461 -14.979705810546875 -2907.820053100586 -16.90789794921875 -2904.780014038086C-17.655197143554688 -2903.560043334961 -20.878005981445312 -2897.909896850586 -24.054107666015625 -2892.120101928711C-244.75799560546875 -2493.669906616211 -358.69000244140625 -2074.239974975586 -358.69000244140625 -1666.530014038086C-358.69000244140625 -1583.1199798583984 -353.9219970703125 -1500.199935913086 -344.322998046875 -1418.050033569336C-329.19000244140625 -1288.3899993896484 -302.7539978027344 -1162.699935913086 -264.17401123046875 -1037.3899993896484C-258.8500061035156 -1020.0599822998047 -251.65699768066406 -998.1989593505859 -235.91700744628906 -951.4459686279297C-201.86700439453125 -850.5120086669922 -183.97799682617188 -758.3129730224609 -178.0 -652.7549896240234C-177.60299682617188 -645.6790008544922 -177.4040069580078 -626.0040130615234 -177.4040069580078 -606.3749847412109C-177.4040069580078 -586.7469940185547 -177.60299682617188 -567.1649627685547 -178.0 -560.2759857177734C-191.7790069580078 -325.75999450683594 -284.49200439453125 -136.59698486328125 -444.4630126953125 -16.793991088867188C-455.2049865722656 -8.71368408203125 -456.1400146484375 -7.6394195556640625 -456.1400146484375 -3.295684814453125C-456.1400146484375 1.048065185546875 -455.2049865722656 2.122314453125 -444.4630126953125 10.202621459960938C-273.1839904785156 138.4750213623047 -177.39300537109375 349.9390106201172 -177.39300537109375 599.7410430908203V599.9240264892578C-177.39300537109375 635.4680328369141 -177.62600708007812 642.8939971923828 -179.26100158691406 666.4810333251953C-185.0989990234375 748.2650299072266 -199.57899475097656 826.7329864501953 -223.6790008544922 907.0219879150391C-228.07000732421875 921.5479888916016 -231.89999389648438 933.1779937744141 -248.71400451660156 983.1540069580078C-322.2309875488281 1201.280044555664 -359.0360107421875 1428.500015258789 -359.0360107421875 1664.1400299072266C-359.0360107421875 1713.979995727539 -358.5690002441406 1733.3600006103516 -356.2799987792969 1779.040054321289C-337.4110107421875 2150.550064086914 -223.11900329589844 2533.500015258789 -24.100799560546875 2892.070083618164C-15.460006713867188 2907.570083618164 -15.22650146484375 2907.899917602539 -11.162994384765625 2908.929946899414Z" fill="black" /></g></svg>