<?xml version="1.0" encoding="utf-8" ?>
<svg baseProfile="tiny" height="100%" version="1.2" width="100%" xmlns="http://www.w3.org/2000/svg" xmlns:ev="http://www.w3.org/2001/xml-events" xmlns:xlink="http://www.w3.org/1999/xlink"><defs /><g transform="translate(0, 1000) scale(1, -1)"><path d="M-19.667999267578125 586.5009765625C-19.215301513671875 586.5670166015625 -18.767196655273438 586.5989990234375 -18.325897216796875 586.5989990234375C-13.419906616210938 586.5989990234375 -9.364105224609375 582.656005859375 -9.364105224609375 577.5490112304688C-9.364105224609375 575.4979858398438 -9.673385620117188 574.52099609375 -11.122100830078125 571.9329833984375C-33.73210144042969 531.27001953125 -45.875396728515625 486.3110046386719 -48.675201416015625 432.91900634765625C-48.8135986328125 430.25 -48.88279724121094 422.8110046386719 -48.88279724121094 415.3030090332031C-48.88279724121094 407.79400634765625 -48.8135986328125 400.2170104980469 -48.675201416015625 397.27099609375C-45.98939514160156 340.59100341796875 -33.618194580078125 281.0790100097656 -10.438400268554688 213.1840057373047C-2.8692169189453125 190.9969940185547 -0.134521484375 175.80999755859375 -0.134521484375 155.8699951171875C-0.134521484375 97.67599487304688 -30.899795532226562 44.17059326171875 -89.90719604492188 -0.2681121826171875L-90.39549255371094 -0.6425018310546875L-89.90719604492188 -1.0006103515625C-42.08270263671875 -37.03990173339844 -12.180206298828125 -79.93218994140625 -3.2436065673828125 -125.33099365234375C-1.092193603515625 -136.27099609375 0.0 -146.74899291992188 0.0 -157.1840057373047C0.0 -175.6439971923828 -3.41864013671875 -193.96499633789062 -10.438400268554688 -214.4530029296875C-36.037994384765625 -289.1669921875 -48.8367919921875 -356.1310119628906 -48.8367919921875 -415.7659912109375C-48.8367919921875 -474.8590087890625 -36.27000427246094 -526.7559814453125 -11.138397216796875 -571.8670043945312C-9.673385620117188 -574.5040283203125 -9.364105224609375 -575.47998046875 -9.364105224609375 -577.531005859375C-9.364105224609375 -582.823974609375 -13.672698974609375 -586.5989990234375 -18.3778076171875 -586.5989990234375C-19.895599365234375 -586.5989990234375 -21.454605102539062 -586.2059936523438 -22.923599243164062 -585.344970703125C-25.039703369140625 -584.0910034179688 -25.430404663085938 -583.5869750976562 -28.995193481445312 -577.1240234375C-64.74150085449219 -512.3870239257812 -87.88870239257812 -453.2659912109375 -99.69020080566406 -396.5369873046875C-105.70899963378906 -367.62701416015625 -108.71499633789062 -338.70599365234375 -108.71499633789062 -310.2699890136719C-108.71499633789062 -278.4880065917969 -104.95999145507812 -247.31100463867188 -97.46009826660156 -217.4320068359375C-94.05799865722656 -203.8719940185547 -92.21859741210938 -197.718994140625 -86.44000244140625 -180.67599487304688C-76.01840209960938 -149.9530029296875 -70.8468017578125 -122.06100463867188 -70.8468017578125 -97.57279968261719C-70.8468017578125 -58.835205078125 -83.78790283203125 -28.616302490234375 -109.3590087890625 -9.18841552734375C-113.510009765625 -6.0467681884765625 -114.61700439453125 -4.23992919921875 -114.61700439453125 -0.64251708984375C-114.61700439453125 2.9549102783203125 -113.510009765625 4.761749267578125 -109.3590087890625 7.9033966064453125C-88.84909057617188 23.481292724609375 -75.53379821777344 47.97959899902344 -71.92010498046875 76.7589111328125C-71.12939453125 83.08050537109375 -70.731201171875 89.58760070800781 -70.731201171875 96.31939697265625C-70.731201171875 121.74299621582031 -76.410888671875 150.3719940185547 -88.08399963378906 184.322998046875C-99.3157958984375 216.91200256347656 -106.2340087890625 252.0070037841797 -108.13800048828125 285.8489990234375C-108.64300537109375 294.9150085449219 -108.7239990234375 297.2590026855469 -108.82199096679688 305.8699951171875C-108.83700561523438 307.2829895019531 -108.84500122070312 308.6969909667969 -108.84500122070312 310.11199951171875C-108.84500122070312 392.9840087890625 -83.04269409179688 479.2090148925781 -28.97900390625 577.1420288085938C-24.73040771484375 584.8410034179688 -23.656097412109375 585.9149780273438 -19.667999267578125 586.5009765625Z" fill="black" /></g></svg>