<?xml version="1.0" encoding="utf-8" ?>
<svg baseProfile="tiny" height="100%" version="1.2" width="100%" xmlns="http://www.w3.org/2000/svg" xmlns:ev="http://www.w3.org/2001/xml-events" xmlns:xlink="http://www.w3.org/1999/xlink"><defs /><g transform="translate(0, 1000) scale(1, -1)"><path d="M-19.28729248046875 470.989013671875C-18.779403686523438 471.0409851074219 -18.375701904296875 471.1059875488281 -18.375701904296875 471.1189880371094C-18.37310791015625 471.12799072265625 -18.34759521484375 471.13299560546875 -18.3031005859375 471.13299560546875C-17.897903442382812 471.13299560546875 -15.918899536132812 470.7860107421875 -15.367401123046875 470.5989990234375C-11.568801879882812 469.3529968261719 -9.149154663085938 465.8039855957031 -9.149154663085938 462.0050048828125C-9.149154663085938 461.07598876953125 -9.293777465820312 460.1319885253906 -9.598236083984375 459.2030029296875C-9.741485595703125 458.760986328125 -10.587997436523438 457.05499267578125 -11.486602783203125 455.427001953125C-30.56610107421875 420.51800537109375 -40.11329650878906 380.9700012207031 -40.11329650878906 335.60101318359375C-40.11329650878906 287.5429992675781 -29.400604248046875 232.95399475097656 -7.95733642578125 170.43299865722656C-2.6455841064453125 154.9530029296875 0.0 139.99099731445312 0.0 125.156005859375C0.0 114.53199768066406 -1.357025146484375 103.97299194335938 -4.0634918212890625 93.33760070800781C-12.69769287109375 59.425994873046875 -33.06549072265625 31.062103271484375 -69.7510986328125 1.8777008056640625C-71.36590576171875 0.5884246826171875 -72.68119812011719 -0.5054931640625 -72.68119812011719 -0.557586669921875C-72.68119812011719 -0.60968017578125 -71.36590576171875 -1.7035980224609375 -69.7510986328125 -2.9928741455078125C-33.06549072265625 -32.17720031738281 -12.69769287109375 -60.541107177734375 -4.0634918212890625 -94.45278930664062C-1.3586273193359375 -105.07099914550781 -0.0047607421875 -115.64999389648438 -0.0047607421875 -126.28900146484375C-0.0047607421875 -141.10699462890625 -2.63134765625 -156.0399932861328 -7.8922271728515625 -171.35299682617188C-29.301895141601562 -233.6649932861328 -39.99879455566406 -288.17999267578125 -39.99879455566406 -336.1600036621094C-39.99879455566406 -381.39599609375 -30.490203857421875 -420.822998046875 -11.486602783203125 -455.5C-9.705657958984375 -458.74200439453125 -9.129837036132812 -460.2030029296875 -9.129837036132812 -461.9049987792969C-9.129837036132812 -462.2820129394531 -9.158004760742188 -462.6700134277344 -9.207534790039062 -463.0929870605469C-9.807403564453125 -468.0539855957031 -13.948593139648438 -471.13299560546875 -18.23590087890625 -471.13299560546875C-20.463897705078125 -471.13299560546875 -22.731201171875 -470.3009948730469 -24.561599731445312 -468.47100830078125C-25.49920654296875 -467.5329895019531 -25.707595825195312 -467.22100830078125 -27.973602294921875 -463.1189880371094C-65.83120727539062 -394.8389892578125 -86.56369018554688 -335.1940002441406 -92.20260620117188 -278.33599853515625C-93.26260375976562 -267.6889953613281 -93.78939819335938 -257.0459899902344 -93.78939819335938 -246.46299743652344C-93.78939819335938 -213.0989990234375 -88.55349731445312 -180.33200073242188 -78.28109741210938 -149.92999267578125C-71.62640380859375 -130.2530059814453 -69.29530334472656 -121.98300170898438 -66.61260986328125 -108.67401123046875C-64.19369506835938 -96.63809204101562 -62.97990417480469 -85.53079223632812 -62.97990417480469 -75.29460144042969C-62.97990417480469 -53.7322998046875 -68.36579895019531 -36.035308837890625 -79.21868896484375 -21.667694091796875C-82.63079833984375 -17.16180419921875 -87.5404052734375 -12.239105224609375 -91.83799743652344 -9.022476196289062C-95.38020324707031 -6.365814208984375 -96.57830810546875 -4.6207427978515625 -96.95599365234375 -1.5603485107421875C-97.00689697265625 -1.1314544677734375 -97.03309631347656 -0.716888427734375 -97.03309631347656 -0.314300537109375C-97.03309631347656 2.7790985107421875 -95.49079895019531 5.164764404296875 -91.83799743652344 7.9073028564453125C-82.51348876953125 14.887603759765625 -74.60859680175781 25.371002197265625 -69.68600463867188 37.27400207519531C-65.20449829101562 48.1011962890625 -62.95680236816406 60.3446044921875 -62.95680236816406 74.22109985351562C-62.95680236816406 94.660400390625 -67.83319091796875 118.64300537109375 -77.6300048828125 146.86199951171875C-85.80828857421875 170.4199981689453 -91.4342041015625 198.28900146484375 -93.127197265625 223.6320037841797C-93.61410522460938 230.96099853515625 -93.85958862304688 238.28399658203125 -93.85958862304688 245.6179962158203C-93.85958862304688 313.22100830078125 -72.99969482421875 381.697998046875 -28.0386962890625 462.9150085449219C-24.561599731445312 469.2049865722656 -23.168106079101562 470.4939880371094 -19.28729248046875 470.989013671875Z" fill="black" /></g></svg>