<?xml version="1.0" encoding="utf-8" ?>
<svg baseProfile="tiny" height="100%" version="1.2" width="100%" xmlns="http://www.w3.org/2000/svg" xmlns:ev="http://www.w3.org/2001/xml-events" xmlns:xlink="http://www.w3.org/1999/xlink"><defs /><g transform="translate(0, 1000) scale(1, -1)"><path d="M-15.475204467773438 358.6570129394531C-15.039321899414062 358.7170104980469 -14.608108520507812 358.74700927734375 -14.183517456054688 358.74700927734375C-9.229690551757812 358.74700927734375 -5.1823272705078125 354.739013671875 -5.1823272705078125 349.81500244140625C-5.1823272705078125 349.4159851074219 -5.2088623046875 349.0119934082031 -5.263580322265625 348.6029968261719C-5.4705657958984375 347.0950012207031 -5.7366943359375 346.3949890136719 -6.998382568359375 344.0979919433594C-19.625015258789062 321.0530090332031 -26.436111450195312 295.8389892578125 -28.101913452148438 265.9530029296875C-28.20721435546875 264.06201171875 -28.26971435546875 258.7250061035156 -28.26971435546875 254.0290069580078C-28.26971435546875 251.25799560546875 -28.248016357421875 248.7100067138672 -28.200408935546875 247.22500610351562C-27.106307983398438 213.04100036621094 -18.728012084960938 173.3090057373047 -3.1640625 128.4499969482422C-2.198089599609375 125.66999816894531 -1.50811767578125 123.35400390625 -0.65057373046875 119.93399047851562L-1.52587890625e-05 117.3809814453125V95.311279296875V73.25167846679688L-0.65057373046875 70.70858764648438C-7.156097412109375 45.21876525878906 -22.1976318359375 23.770263671875 -48.643524169921875 2.27252197265625C-49.66862487792969 1.4346923828125 -50.83183288574219 0.508148193359375 -51.22602844238281 0.2124481201171875C-51.63133239746094 -0.099700927734375 -51.85173034667969 -0.22906494140625 -51.85173034667969 -0.3713531494140625C-51.85173034667969 -0.53009033203125 -51.577423095703125 -0.70489501953125 -50.97962951660156 -1.167510986328125C-24.021133422851562 -22.044326782226562 -7.294097900390625 -45.405029296875 -0.6505889892578125 -71.46652221679688L-3.0517578125e-05 -74.00961303710938V-96.0692138671875V-118.13900756835938L-0.6505889892578125 -120.6920166015625C-1.59686279296875 -124.43699645996094 -2.148834228515625 -126.27999877929688 -3.5485076904296875 -130.34100341796875C-20.007949829101562 -178.08399963378906 -28.2259521484375 -219.36700439453125 -28.2259521484375 -255.5279998779297C-28.2259521484375 -289.09698486328125 -21.143951416015625 -318.25299072265625 -6.9984130859375 -344.0669860839844C-5.754852294921875 -346.3330078125 -5.14349365234375 -348.20001220703125 -5.14349365234375 -349.9530029296875C-5.14349365234375 -351.32598876953125 -5.5187225341796875 -352.6310119628906 -6.2591400146484375 -354.00299072265625C-7.9777679443359375 -357.1759948730469 -10.95904541015625 -358.74700927734375 -13.999343872070312 -358.74700927734375C-17.18414306640625 -358.74700927734375 -20.433853149414062 -357.02301025390625 -22.365249633789062 -353.6090087890625L-30.753448486328125 -338.1730041503906C-56.578369140625 -289.6969909667969 -71.44245910644531 -242.00999450683594 -73.778564453125 -200.1280059814453C-74.09396362304688 -194.33200073242188 -74.13336181640625 -193.1300048828125 -74.19256591796875 -187.70799255371094C-74.20086669921875 -186.85899353027344 -74.20506286621094 -186.01300048828125 -74.20506286621094 -185.16799926757812C-74.20506286621094 -159.11000061035156 -70.2138671875 -135.4409942626953 -61.49696350097656 -109.6719970703125C-54.15765380859375 -87.94610595703125 -50.68086242675781 -70.9569091796875 -50.68086242675781 -56.207000732421875C-50.68086242675781 -52.55389404296875 -50.8941650390625 -49.0382080078125 -51.31475830078125 -45.62190246582031C-53.207366943359375 -30.205795288085938 -60.511260986328125 -16.623001098632812 -71.26506042480469 -8.510833740234375C-72.88156127929688 -7.2984466552734375 -73.41386413574219 -6.8253173828125 -73.995361328125 -6.1254730224609375C-75.35446166992188 -4.461181640625 -76.03456115722656 -2.4205322265625 -76.03456115722656 -0.3807830810546875C-76.03456115722656 1.6626739501953125 -75.35195922851562 3.7052154541015625 -73.98556518554688 5.3675994873046875C-73.41386413574219 6.06744384765625 -72.88156127929688 6.5405731201171875 -71.26506042480469 7.752960205078125C-60.511260986328125 15.865097045898438 -53.207366943359375 29.447906494140625 -51.31475830078125 44.86399841308594C-50.88746643066406 48.33050537109375 -50.669769287109375 51.87809753417969 -50.669769287109375 55.55760192871094C-50.669769287109375 70.12480163574219 -54.082061767578125 86.7615966796875 -61.40815734863281 108.63800048828125C-67.13507080078125 125.74899291992188 -69.79635620117188 136.85800170898438 -72.19155883789062 153.73300170898438C-73.5390625 163.17999267578125 -74.30905151367188 175.17799377441406 -74.30905151367188 185.81199645996094C-74.30905151367188 188.79200744628906 -74.2486572265625 191.66400146484375 -74.12356567382812 194.34300231933594C-72.71395874023438 224.91900634765625 -67.04635620117188 251.8679962158203 -55.365966796875 283.5469970703125C-49.432159423828125 299.6340026855469 -40.01885986328125 320.6679992675781 -31.847564697265625 336.1239929199219L-23.47906494140625 351.6289978027344C-20.6402587890625 356.7539978027344 -19.053359985351562 358.15399169921875 -15.475265502929688 358.6570129394531Z" fill="black" /></g></svg>