<?xml version="1.0" encoding="utf-8" ?>
<svg baseProfile="tiny" height="100%" version="1.2" width="100%" xmlns="http://www.w3.org/2000/svg" xmlns:ev="http://www.w3.org/2001/xml-events" xmlns:xlink="http://www.w3.org/1999/xlink"><defs /><g transform="translate(0, 1000) scale(1, -1)"><path d="M-13.30560302734375 5324.5C-11.847396850585938 5325.22021484375 -10.360794067382812 5325.56982421875 -8.931106567382812 5325.56982421875C-5.5977020263671875 5325.56982421875 -2.57354736328125 5323.7001953125 -0.9398956298828125 5320.33984375C-0.3729248046875 5319.1298828125 0.0 5318.169921875 0.0 5316.97021484375C0.0 5313.89990234375 -2.445556640625 5309.27001953125 -10.34039306640625 5294.97998046875C-310.90899658203125 4752.66015625 -464.5190124511719 4128.56005859375 -464.5190124511719 3459.10009765625C-464.5190124511719 3298.5 -455.6789855957031 3135.2900390625 -437.9049987792969 2969.9599609375C-398.34698486328125 2602.14990234375 -313.9320068359375 2227.199951171875 -189.51800537109375 1866.510009765625C-162.51499938964844 1788.219970703125 -154.94400024414062 1763.739990234375 -140.74899291992188 1708.0899658203125C-108.66500854492188 1582.1300048828125 -93.05549621582031 1454.780029296875 -93.05549621582031 1328.3299560546875C-93.05549621582031 823.68701171875 -341.6679992675781 333.37298583984375 -783.9569702148438 3.1317138671875C-790.3920288085938 -1.663177490234375 -795.6279907226562 -5.7640533447265625 -795.6279907226562 -6.01641845703125C-795.6279907226562 -6.2687835693359375 -790.3920288085938 -10.369705200195312 -783.9569702148438 -15.164505004882812C-381.62799072265625 -315.6020050048828 -130.5279998779297 -758.4970245361328 -97.27909851074219 -1226.500015258789C-94.50930786132812 -1265.3499908447266 -93.11590576171875 -1303.750015258789 -93.11590576171875 -1341.8399810791016C-93.11590576171875 -1517.1700592041016 -122.6409912109375 -1685.8399810791016 -183.3350067138672 -1860.560073852539C-370.5350036621094 -2399.510025024414 -463.5419921875 -2940.389907836914 -463.5419921875 -3459.620132446289C-463.5419921875 -4123.169937133789 -311.6510009765625 -4751.370132446289 -10.34039306640625 -5295.020034790039C-2.445556640625 -5309.319839477539 0.0 -5313.950210571289 0.0 -5317.020034790039C0.0 -5318.220230102539 -0.3729248046875 -5319.180191040039 -0.9398956298828125 -5320.390151977539C-2.6127166748046875 -5323.770034790039 -6.1914215087890625 -5325.569839477539 -9.644866943359375 -5325.569839477539C-12.443206787109375 -5325.569839477539 -15.1593017578125 -5324.379898071289 -16.712493896484375 -5321.899917602539C-20.308700561523438 -5316.220230102539 -43.96760559082031 -5273.259780883789 -62.011505126953125 -5239.689956665039C-228.5709991455078 -4930.169937133789 -361.31298828125 -4601.410171508789 -453.86700439453125 -4269.040054321289C-561.1829833984375 -3883.790054321289 -614.9940185546875 -3496.110122680664 -614.9940185546875 -3112.159927368164C-614.9940185546875 -2860.929946899414 -591.9550170898438 -2611.290054321289 -545.7899780273438 -2364.969985961914C-511.27899169921875 -2181.129898071289 -461.12200927734375 -1989.520034790039 -402.1960144042969 -1817.280044555664C-370.90301513671875 -1725.740005493164 -365.47698974609375 -1708.8900299072266 -352.1650085449219 -1661.8299713134766C-312.2919921875 -1520.760025024414 -289.7049865722656 -1381.449966430664 -282.3240051269531 -1230.9200592041016C-281.3380126953125 -1210.8299713134766 -280.8609924316406 -1188.719985961914 -280.8609924316406 -1165.550064086914C-280.8609924316406 -1101.219985961914 -284.5400085449219 -1028.719985961914 -291.218994140625 -968.4630279541016C-334.81500244140625 -575.4720001220703 -519.4810180664062 -235.03501892089844 -803.198974609375 -24.565017700195312C-815.7540283203125 -15.227615356445312 -822.031982421875 -10.62200927734375 -822.031982421875 -6.0164337158203125C-822.031982421875 -1.41082763671875 -815.7540283203125 3.1947784423828125 -803.198974609375 12.532180786132812C-510.71099853515625 229.50099182128906 -324.84698486328125 582.3660125732422 -287.7489929199219 990.8140106201172C-283.17999267578125 1041.209945678711 -280.90899658203125 1092.209945678711 -280.90899658203125 1143.5899505615234C-280.90899658203125 1332.699935913086 -311.6830139160156 1526.979965209961 -371.9119873046875 1715.4100189208984C-376.6440124511719 1730.300033569336 -382.63800048828125 1748.030014038086 -402.2590026855469 1805.310043334961C-544.5980224609375 2221.550033569336 -615.8699951171875 2660.259994506836 -615.8699951171875 3105.179916381836C-615.8699951171875 3514.560043334961 -555.5289916992188 3929.199935913086 -434.68701171875 4336.439926147461C-334.4360046386719 4674.169906616211 -187.8769989013672 5020.790023803711 -21.192001342773438 5314.089828491211C-16.08160400390625 5323.180160522461 -16.08160400390625 5323.120101928711 -13.30560302734375 5324.499984741211Z" fill="black" /></g></svg>