<?xml version="1.0" encoding="utf-8" ?>
<svg baseProfile="tiny" height="100%" version="1.2" width="100%" xmlns="http://www.w3.org/2000/svg" xmlns:ev="http://www.w3.org/2001/xml-events" xmlns:xlink="http://www.w3.org/1999/xlink"><defs /><g transform="translate(0, 1000) scale(1, -1)"><path d="M-19.357803344726562 500.052001953125C-18.936309814453125 500.0950012207031 -18.50640869140625 500.1300048828125 -18.265716552734375 500.1300048828125C-18.198211669921875 500.1300048828125 -18.145523071289062 500.12701416015625 -18.11212158203125 500.1210021972656C-17.959915161132812 500.10699462890625 -17.48931884765625 500.052001953125 -17.074020385742188 500.010009765625C-12.696212768554688 499.5570068359375 -9.287933349609375 495.5159912109375 -9.287933349609375 491.0400085449219C-9.287933349609375 490.7330017089844 -9.303985595703125 490.42401123046875 -9.336868286132812 490.114013671875C-9.502960205078125 488.5639953613281 -9.8489990234375 487.7200012207031 -11.6483154296875 484.42498779296875C-32.1400146484375 446.9020080566406 -42.391510009765625 404.3760070800781 -42.391510009765625 355.72601318359375C-42.391510009765625 304.74200439453125 -31.13311767578125 247.03199768066406 -8.603302001953125 181.30499267578125C-2.801910400390625 164.38600158691406 -1.52587890625e-05 149.13999938964844 -1.52587890625e-05 133.56399536132812C-1.52587890625e-05 126.47200012207031 -0.58099365234375 119.31100463867188 -1.724273681640625 111.89199829101562C-8.021957397460938 71.00588989257812 -31.275009155273438 35.752593994140625 -74.27922058105469 1.85577392578125C-75.92631530761719 0.5685577392578125 -77.26890563964844 -0.5248870849609375 -77.26890563964844 -0.56640625C-77.26890563964844 -0.6079254150390625 -75.92631530761719 -1.6875457763671875 -74.27922058105469 -2.9886016845703125C-31.275009155273438 -36.885406494140625 -8.021957397460938 -72.13870239257812 -1.724273681640625 -113.02499389648438C-0.58099365234375 -120.44400024414062 -1.52587890625e-05 -127.60501098632812 -1.52587890625e-05 -134.69700622558594C-1.52587890625e-05 -150.2729949951172 -2.801910400390625 -165.5189971923828 -8.603302001953125 -182.43800354003906C-29.503311157226562 -243.4219970703125 -40.56242370605469 -296.98699951171875 -42.14021301269531 -344.8630065917969C-42.20521545410156 -346.84100341796875 -42.23402404785156 -350.3210144042969 -42.23402404785156 -354.1570129394531C-42.23402404785156 -360.9519958496094 -42.14341735839844 -368.86199951171875 -42.00181579589844 -371.50799560546875C-39.538116455078125 -415.3840026855469 -29.738616943359375 -451.6059875488281 -11.233108520507812 -485.2120056152344C-9.7978515625 -487.8340148925781 -9.276107788085938 -489.2380065917969 -9.276107788085938 -490.9150085449219C-9.276107788085938 -491.2929992675781 -9.302459716796875 -491.6830139160156 -9.350723266601562 -492.1050109863281C-9.8980712890625 -497.04901123046875 -14.065017700195312 -500.1300048828125 -18.372207641601562 -500.1300048828125C-20.600021362304688 -500.1300048828125 -22.865310668945312 -499.3059997558594 -24.686614990234375 -497.489013671875C-25.807815551757812 -496.35400390625 -26.956619262695312 -494.375 -32.811309814453125 -483.5509948730469C-76.64970397949219 -402.5150146484375 -97.73420715332031 -331.04901123046875 -97.73420715332031 -262.27301025390625C-97.73420715332031 -250.05299377441406 -97.06861877441406 -237.91900634765625 -95.74681091308594 -225.8300018310547C-93.33842468261719 -203.781005859375 -88.07881164550781 -179.91900634765625 -81.06141662597656 -159.25399780273438C-73.42111206054688 -136.7209930419922 -70.12690734863281 -124.32000732421875 -67.40022277832031 -107.83499145507812C-65.85670471191406 -98.52389526367188 -65.09251403808594 -89.63059997558594 -65.09251403808594 -81.20610046386719C-65.09251403808594 -49.66850280761719 -75.80201721191406 -24.700302124023438 -96.42501831054688 -8.981796264648438C-100.0880126953125 -6.1856842041015625 -101.55401611328125 -3.949676513671875 -101.55401611328125 -0.848480224609375C-101.55401611328125 -0.434234619140625 -101.52801513671875 -0.0045318603515625 -101.47700500488281 0.4439849853515625C-101.14500427246094 3.4613494873046875 -100.02401733398438 5.1084442138671875 -96.42501831054688 7.848968505859375C-75.80201721191406 23.5675048828125 -65.09251403808594 48.53570556640625 -65.09251403808594 80.07330322265625C-65.09251403808594 88.497802734375 -65.85670471191406 97.39109802246094 -67.40022277832031 106.70199584960938C-70.12690734863281 123.20098876953125 -73.39341735839844 135.49099731445312 -81.06141662597656 158.1219940185547C-92.22950744628906 191.0570068359375 -97.81440734863281 225.5570068359375 -97.81440734863281 261.135009765625C-97.81440734863281 296.5480041503906 -92.28141784667969 333.02801513671875 -81.21360778808594 370.0979919433594C-71.26191711425781 403.3999938964844 -56.119720458984375 439.510986328125 -36.63151550292969 476.39801025390625C-24.894210815429688 498.5989990234375 -24.257614135742188 499.4570007324219 -19.357818603515625 500.052001953125Z" fill="black" /></g></svg>