<?xml version="1.0" encoding="utf-8" ?>
<svg baseProfile="tiny" height="100%" version="1.2" width="100%" xmlns="http://www.w3.org/2000/svg" xmlns:ev="http://www.w3.org/2001/xml-events" xmlns:xlink="http://www.w3.org/1999/xlink"><defs /><g transform="translate(0, 1000) scale(1, -1)"><path d="M-11.195205688476562 4788.18994140625C-10.437118530273438 4788.3701171875 -9.6898193359375 4788.4501953125 -8.962890625 4788.4501953125C-4.006805419921875 4788.4501953125 -1.52587890625e-05 4784.5498046875 -1.52587890625e-05 4779.27001953125C-1.52587890625e-05 4776.64013671875 -0.8980255126953125 4774.72021484375 -9.219619750976562 4759.7001953125C-278.77000427246094 4274.39013671875 -414.58802795410156 3712.2900390625 -414.58802795410156 3116.39990234375C-414.58802795410156 2645.300048828125 -329.69801330566406 2153.080078125 -158.88902282714844 1661.010009765625C-105.4630126953125 1507.0999755859375 -79.01420593261719 1350.1300048828125 -79.01420593261719 1194.3199462890625C-79.01420593261719 923.5780029296875 -158.8670196533203 656.31298828125 -315.80201721191406 414.56500244140625C-416.2000274658203 259.927001953125 -561.8570098876953 105.88800048828125 -708.1740264892578 -0.1975250244140625C-711.8860015869141 -2.891571044921875 -714.8790435791016 -5.226409912109375 -714.8790435791016 -5.406005859375C-714.8790435791016 -5.5856170654296875 -711.8860015869141 -7.9204559326171875 -708.1740264892578 -10.614501953125C-561.8570098876953 -116.69999694824219 -416.2000274658203 -270.739013671875 -315.80201721191406 -425.37701416015625C-158.8930206298828 -667.1060180664062 -79.0294189453125 -934.5250244140625 -79.0294189453125 -1205.31005859375C-79.0294189453125 -1361.1199951171875 -105.47001647949219 -1518.0400390625 -158.88902282714844 -1671.8199462890625C-246.89401245117188 -1925.06005859375 -311.1320037841797 -2174.590087890625 -354.2370147705078 -2430.340087890625C-393.48301696777344 -2663.239990234375 -413.3620147705078 -2897.1298828125 -413.3620147705078 -3125.050048828125C-413.3620147705078 -3172.139892578125 -412.5130157470703 -3218.97998046875 -410.81101989746094 -3265.5C-390.81602478027344 -3811.909912109375 -254.37701416015625 -4318.6298828125 -7.782806396484375 -4762.43017578125C-0.838165283203125 -4774.8798828125 -1.52587890625e-05 -4776.72998046875 -1.52587890625e-05 -4779.25C-1.52587890625e-05 -4785.1298828125 -4.0994415283203125 -4788.4501953125 -8.623046875 -4788.4501953125C-11.926513671875 -4788.4501953125 -15.45611572265625 -4786.68017578125 -17.780715942382812 -4782.83984375C-39.69221496582031 -4746.43994140625 -109.13902282714844 -4613.58984375 -144.1610107421875 -4540.85986328125C-418.92999267578125 -3970.659912109375 -558.3519897460938 -3375.110107421875 -558.3519897460938 -2789.5C-558.3519897460938 -2492.530029296875 -522.5 -2198.1201171875 -450.2640075683594 -1910.8699951171875C-421.8269958496094 -1797.6600341796875 -397.8800048828125 -1718.0400390625 -353.39801025390625 -1588.31005859375C-289.28399658203125 -1401.469970703125 -258.2569885253906 -1213.6800537109375 -258.2569885253906 -1033.6600341796875C-258.2569885253906 -620.6530151367188 -421.5769958496094 -248.58001708984375 -723.3200073242188 -22.887313842773438C-734.9349975585938 -14.176620483398438 -740.7420043945312 -9.79132080078125 -740.7420043945312 -5.4060211181640625C-740.7420043945312 -1.020721435546875 -734.9349975585938 3.3645782470703125 -723.3200073242188 12.075286865234375C-421.5220031738281 237.8199920654297 -258.30499267578125 609.3179779052734 -258.30499267578125 1022.3899993896484C-258.30499267578125 1202.4000091552734 -289.3030090332031 1390.310043334961 -353.3389892578125 1577.489974975586L-368.0060119628906 1620.3599700927734C-495.8800048828125 1994.3499603271484 -559.1309814453125 2385.929916381836 -559.1309814453125 2782.340072631836C-559.1309814453125 3448.249984741211 -380.6440124511719 4127.819808959961 -30.173309326171875 4760.649887084961C-15.08660888671875 4787.950180053711 -15.56561279296875 4787.240219116211 -11.195220947265625 4788.189926147461Z" fill="black" /></g></svg>