<?xml version="1.0" encoding="utf-8" ?>
<svg baseProfile="tiny" height="100%" version="1.2" width="100%" xmlns="http://www.w3.org/2000/svg" xmlns:ev="http://www.w3.org/2001/xml-events" xmlns:xlink="http://www.w3.org/1999/xlink"><defs /><g transform="translate(0, 1000) scale(1, -1)"><path d="M-12.075592041015625 1319.0400390625C-11.268402099609375 1319.31005859375 -10.444107055664062 1319.4300537109375 -9.625778198242188 1319.4300537109375C-5.1721343994140625 1319.4300537109375 -0.8932342529296875 1315.72998046875 -0.4938812255859375 1310.8900146484375C-0.4696044921875 1310.5999755859375 -0.4550933837890625 1310.3399658203125 -0.4550933837890625 1310.0799560546875C-0.4550933837890625 1308.0999755859375 -1.27496337890625 1306.31005859375 -4.9256439208984375 1299.68994140625C-68.84078979492188 1183.3800048828125 -100.84100341796875 1049.0799560546875 -100.84100341796875 901.0900268554688C-100.84100341796875 767.2369995117188 -74.6614990234375 622.1900024414062 -22.239105224609375 469.14599609375C-10.1846923828125 434.0169982910156 -4.1574859619140625 407.0419921875 -1.4688720703125 376.3450012207031C-0.48779296875 365.19000244140625 0.0 354.0870056152344 0.0 343.0469970703125C0.0 215.43800354003906 -65.16070556640625 96.14480590820312 -186.98199462890625 2.30401611328125C-189.58200073242188 0.324493408203125 -191.7100067138672 -1.4186553955078125 -191.7100067138672 -1.536834716796875C-191.7100067138672 -1.655029296875 -189.58200073242188 -3.3981781005859375 -186.98199462890625 -5.377716064453125C-65.14309692382812 -99.25250244140625 -0.00262451171875 -218.41200256347656 -0.00262451171875 -346.3689880371094C-0.00262451171875 -354.0069885253906 -0.2347259521484375 -361.6759948730469 -0.7006988525390625 -369.37298583984375C-2.6802215576171875 -402.0790100097656 -9.121047973632812 -433.9590148925781 -20.407302856445312 -466.87200927734375C-44.36830139160156 -536.7750244140625 -59.968109130859375 -592.4979858398438 -73.20429992675781 -655.2219848632812C-91.42160034179688 -741.6920166015625 -100.50799560546875 -824.4949951171875 -100.50799560546875 -903.1950073242188C-100.50799560546875 -1051.1800537109375 -68.381103515625 -1184.6600341796875 -4.4233856201171875 -1300.75C-1.573211669921875 -1305.9300537109375 -0.415313720703125 -1308.4599609375 -0.415313720703125 -1310.6600341796875C-0.415313720703125 -1311.81005859375 -0.7330169677734375 -1312.8699951171875 -1.291595458984375 -1314.1700439453125C-2.7411041259765625 -1317.56005859375 -6.1683807373046875 -1319.4300537109375 -9.61810302734375 -1319.4300537109375C-11.9342041015625 -1319.4300537109375 -14.260406494140625 -1318.5899658203125 -16.005096435546875 -1316.800048828125C-18.5458984375 -1314.1700439453125 -37.75019836425781 -1278.449951171875 -52.6409912109375 -1248.6300048828125C-141.02099609375 -1071.8399658203125 -185.42599487304688 -897.5369873046875 -185.42599487304688 -729.9349975585938C-185.42599487304688 -627.1439819335938 -168.7239990234375 -526.8720092773438 -135.218994140625 -430.0880126953125C-113.43499755859375 -367.11700439453125 -102.75100708007812 -306.8059997558594 -102.75100708007812 -251.52000427246094C-102.75100708007812 -149.718994140625 -138.97900390625 -64.95610046386719 -208.8459930419922 -11.995803833007812C-215.72999572753906 -6.766326904296875 -216.5279998779297 -5.70269775390625 -216.5279998779297 -1.536834716796875C-216.5279998779297 2.6290130615234375 -215.72999572753906 3.692626953125 -208.8459930419922 8.922103881835938C-138.9600067138672 61.90049743652344 -102.76300048828125 146.38800048828125 -102.76300048828125 248.1439971923828C-102.76300048828125 303.5780029296875 -113.50599670410156 364.135986328125 -135.39700317382812 427.5169982910156C-163.46499633789062 508.7950134277344 -179.86199951171875 592.6740112304688 -184.322998046875 677.8519897460938C-185.2689971923828 696.22900390625 -185.38699340820312 700.4249877929688 -185.56399536132812 721.4310302734375C-185.58200073242188 723.8280029296875 -185.59100341796875 726.2260131835938 -185.59100341796875 728.625C-185.59100341796875 910.7739868164062 -133.57400512695312 1099.8699951171875 -31.072998046875 1290.1700439453125C-16.56640625 1317.0899658203125 -16.182296752929688 1317.6800537109375 -12.075592041015625 1319.0400390625Z" fill="black" /></g></svg>