<?xml version="1.0" encoding="utf-8" ?>
<svg baseProfile="tiny" height="100%" version="1.2" width="100%" xmlns="http://www.w3.org/2000/svg" xmlns:ev="http://www.w3.org/2001/xml-events" xmlns:xlink="http://www.w3.org/1999/xlink"><defs /><g transform="translate(0, 1000) scale(1, -1)"><path d="M-13.110794067382812 6329.4599609375C-11.977279663085938 6329.990234375 -10.78778076171875 6330.22998046875 -9.607269287109375 6330.22998046875C-4.7381134033203125 6330.22998046875 -0.0214385986328125 6326.1201171875 -0.0214385986328125 6321.1298828125C-0.0214385986328125 6320.81005859375 -0.0408172607421875 6320.490234375 -0.0807647705078125 6320.16015625C-0.28436279296875 6318.669921875 -5.713531494140625 6308.14990234375 -14.264480590820312 6292.68017578125C-374.9099884033203 5641.56982421875 -558.5729827880859 4890.5498046875 -558.5729827880859 4092.77001953125C-558.5729827880859 3714.93994140625 -517.3779754638672 3326.610107421875 -434.2779998779297 2933.449951171875C-381.68299865722656 2684.449951171875 -314.3619842529297 2443.669921875 -226.3409881591797 2189.64990234375C-155.26498413085938 1984.4599609375 -119.75498962402344 1778.9100341796875 -119.75498962402344 1571.8900146484375C-119.75498962402344 1460.469970703125 -130.04098510742188 1348.6099853515625 -150.60398864746094 1236.1600341796875C-237.94598388671875 758.2550048828125 -519.9910278320312 312.385009765625 -926.7039794921875 9.301544189453125C-938.3079833984375 0.6827392578125 -947.8090209960938 -6.578765869140625 -947.8090209960938 -6.7823638916015625C-947.8090209960938 -6.9859466552734375 -938.3079833984375 -14.247482299804688 -926.7039794921875 -22.866287231445312C-511.9830017089844 -331.98899841308594 -227.56301879882812 -788.6500091552734 -145.85401916503906 -1276.8699798583984C-128.45701599121094 -1380.729965209961 -119.74000549316406 -1483.6399993896484 -119.74000549316406 -1586.060043334961C-119.74000549316406 -1792.8799896240234 -155.28501892089844 -1997.6800384521484 -226.68101501464844 -2204.239974975586C-311.51100158691406 -2449.570053100586 -375.7790069580078 -2677.320053100586 -427.0850067138672 -2914.439926147461C-514.0200347900391 -3316.199935913086 -557.1190338134766 -3712.989974975586 -557.1190338134766 -4098.810043334961C-557.1190338134766 -4895.129867553711 -373.5130157470703 -5644.700180053711 -12.771499633789062 -6294.770004272461C-3.5926055908203125 -6311.339828491211 0.0 -6318.069808959961 0.0 -6321.959945678711C0.0 -6324.249984741211 -1.2489776611328125 -6325.540023803711 -3.338287353515625 -6327.279769897461C-5.5844573974609375 -6329.169906616211 -7.4864501953125 -6330.229965209961 -9.354843139648438 -6330.229965209961C-13.583099365234375 -6330.229965209961 -17.639205932617188 -6324.810043334961 -25.122802734375 -6311.399887084961C-367.0920104980469 -5699.600082397461 -591.3170166015625 -5030.390121459961 -677.7760009765625 -4363.689926147461L-681.8480224609375 -4332.810043334961C-687.4130249023438 -4293.720199584961 -699.2890014648438 -4177.870101928711 -704.6510009765625 -4109.870101928711C-715.1719970703125 -3976.199935913086 -720.4439697265625 -3843.629867553711 -720.4439697265625 -3711.999984741211C-720.4439697265625 -3169.520004272461 -630.9010009765625 -2643.030014038086 -450.29400634765625 -2120.759994506836C-365.0880126953125 -1874.3799896240234 -322.4169921875 -1629.790023803711 -322.4169921875 -1388.1299896240234C-322.4169921875 -1303.1600189208984 -327.6919860839844 -1218.550033569336 -338.25 -1134.3499603271484C-395.5950012207031 -676.6060028076172 -615.6799926757812 -278.6479949951172 -949.1669921875 -29.788482666015625C-959.1430053710938 -22.323379516601562 -968.4400024414062 -15.333282470703125 -969.7979736328125 -14.179580688476562C-972.3090209960938 -12.177581787109375 -973.5640258789062 -9.479965209960938 -973.5640258789062 -6.7823486328125C-973.5640258789062 -4.0847320556640625 -972.3090209960938 -1.387115478515625 -969.7979736328125 0.6148834228515625C-968.4400024414062 1.768585205078125 -959.1430053710938 8.758636474609375 -949.1669921875 16.223709106445312C-553.1909790039062 311.72901916503906 -322.5570068359375 811.2509918212891 -322.5570068359375 1369.6700592041016C-322.5570068359375 1382.3199615478516 -322.67498779296875 1395.010025024414 -322.9129943847656 1407.719985961914C-327.3919982910156 1648.4300689697266 -367.9750061035156 1868.719985961914 -453.2130126953125 2115.679946899414C-610.9979858398438 2572.820083618164 -697.5250244140625 3028.459976196289 -717.5449829101562 3507.240005493164C-720.35498046875 3574.600112915039 -721.7540283203125 3642.090103149414 -721.7540283203125 3709.669937133789C-721.7540283203125 4582.270034790039 -488.3949890136719 5469.399917602539 -44.464202880859375 6277.140151977539C-16.979095458984375 6327.149917602539 -16.503997802734375 6327.899917602539 -13.110794067382812 6329.459976196289Z" fill="black" /></g></svg>