<?xml version="1.0" encoding="utf-8" ?>
<svg baseProfile="tiny" height="100%" version="1.2" width="100%" xmlns="http://www.w3.org/2000/svg" xmlns:ev="http://www.w3.org/2001/xml-events" xmlns:xlink="http://www.w3.org/1999/xlink"><defs /><g transform="translate(0, 1000) scale(1, -1)"><path d="M-18.484298706054688 879.4119873046875C-17.665084838867188 879.6799926757812 -16.8289794921875 879.8049926757812 -15.9998779296875 879.8049926757812C-11.514190673828125 879.8049926757812 -7.2289886474609375 876.1220092773438 -6.87689208984375 871.3380126953125C-6.8557891845703125 871.0339965820312 -6.8428497314453125 870.7509765625 -6.8428497314453125 870.47802734375C-6.8428497314453125 868.5260009765625 -7.504058837890625 867.0449829101562 -10.582382202148438 861.447998046875C-50.208587646484375 788.9290161132812 -70.02488708496094 705.68798828125 -70.02488708496094 612.447021484375C-70.02488708496094 522.5269775390625 -51.59507751464844 423.3059997558594 -14.729690551757812 315.4330139160156C-4.3492584228515625 285.052001953125 -0.4719390869140625 263.89898681640625 -0.0302276611328125 235.30999755859375C-0.0100555419921875 234.00900268554688 1.52587890625e-05 232.71099853515625 1.52587890625e-05 231.41299438476562C1.52587890625e-05 145.87899780273438 -43.80458068847656 67.2587890625 -127.61398315429688 2.47412109375C-129.99398803710938 0.6336212158203125 -131.9569854736328 -0.9369354248046875 -131.9569854736328 -1.01055908203125C-131.9569854736328 -1.0841827392578125 -129.99398803710938 -2.6547393798828125 -127.61398315429688 -4.4952392578125C-43.80458068847656 -69.27999877929688 1.52587890625e-05 -147.89999389648438 1.52587890625e-05 -233.43499755859375C1.52587890625e-05 -234.73199462890625 -0.0100555419921875 -236.031005859375 -0.0302276611328125 -237.33099365234375C-0.4719390869140625 -265.7969970703125 -4.3492584228515625 -287.02398681640625 -14.606979370117188 -317.0610046386719C-51.47789001464844 -425.15301513671875 -69.91618347167969 -523.833984375 -69.91618347167969 -613.2579956054688C-69.91618347167969 -706.6110229492188 -49.82148742675781 -789.8759765625 -9.6253662109375 -863.2239990234375C-7.423858642578125 -867.2639770507812 -6.841949462890625 -868.6409912109375 -6.841949462890625 -870.5180053710938C-6.841949462890625 -870.7960205078125 -6.8547210693359375 -871.0859985351562 -6.87689208984375 -871.39599609375C-7.223541259765625 -876.3259887695312 -11.439483642578125 -879.8049926757812 -15.989883422851562 -879.8049926757812C-17.237686157226562 -879.8049926757812 -18.510589599609375 -879.5440063476562 -19.735885620117188 -878.97900390625C-22.53338623046875 -877.677978515625 -22.803390502929688 -877.2849731445312 -31.294189453125 -861.7520141601562C-104.65199279785156 -727.7230224609375 -141.4619903564453 -598.343994140625 -141.4619903564453 -475.5559997558594C-141.4619903564453 -409.5190124511719 -130.81398010253906 -345.38800048828125 -109.47898864746094 -283.46600341796875C-93.47038269042969 -237.01300048828125 -85.59489440917969 -195.77200317382812 -85.59489440917969 -157.92999267578125C-85.59489440917969 -147.33399963378906 -86.21238708496094 -137.00399780273438 -87.44178771972656 -126.9010009765625C-93.45408630371094 -77.64900207519531 -115.63798522949219 -36.495391845703125 -150.2639923095703 -10.335800170898438C-155.53997802734375 -6.3357391357421875 -156.39898681640625 -5.059661865234375 -156.39898681640625 -1.01055908203125C-156.39898681640625 3.038543701171875 -155.53997802734375 4.3146209716796875 -150.2639923095703 8.314651489257812C-115.63798522949219 34.47430419921875 -93.45408630371094 75.62789916992188 -87.44178771972656 124.8800048828125C-86.21238708496094 134.98300170898438 -85.59489440917969 145.31300354003906 -85.59489440917969 155.90899658203125C-85.59489440917969 193.75100708007812 -93.47038269042969 234.99200439453125 -109.47898864746094 281.44500732421875C-130.99398803710938 343.8869934082031 -141.74697875976562 408.2879943847656 -141.74697875976562 474.5790100097656C-141.74697875976562 595.4249877929688 -106.01399230957031 722.5549926757812 -34.607086181640625 855.5590209960938C-22.827880859375 877.52197265625 -22.435287475585938 878.0859985351562 -18.484283447265625 879.4119873046875Z" fill="black" /></g></svg>