<?xml version="1.0" encoding="utf-8" ?>
<svg baseProfile="tiny" height="100%" version="1.2" width="100%" xmlns="http://www.w3.org/2000/svg" xmlns:ev="http://www.w3.org/2001/xml-events" xmlns:xlink="http://www.w3.org/1999/xlink"><defs /><g transform="translate(0, 1000) scale(1, -1)"><path d="M-12.236297607421875 1345.3499755859375C-11.173492431640625 1345.75 -10.106796264648438 1345.9300537109375 -9.071624755859375 1345.9300537109375C-4.3231964111328125 1345.9300537109375 -0.2389984130859375 1342.050048828125 -0.2389984130859375 1336.72998046875V1333.8699951171875L-3.7357025146484375 1327.5400390625C-69.53248596191406 1208.6700439453125 -102.61497497558594 1071.31005859375 -102.61497497558594 919.072021484375C-102.61497497558594 832.5709838867188 -91.93379211425781 741.27001953125 -70.50468444824219 645.8330078125C-57.48248291015625 587.8060302734375 -43.85737609863281 540.448974609375 -20.01348876953125 470.3949890136719C-6.64990234375 431.1109924316406 1.52587890625e-05 390.4339904785156 1.52587890625e-05 349.697998046875C1.52587890625e-05 297.62799072265625 -10.865386962890625 245.46400451660156 -32.462982177734375 195.99400329589844C-63.7222900390625 124.40200805664062 -117.52897644042969 58.446502685546875 -190.44798278808594 2.258087158203125C-193.09999084472656 0.2384490966796875 -195.27098083496094 -1.5400543212890625 -195.27098083496094 -1.6606292724609375C-195.27098083496094 -1.7812042236328125 -193.09999084472656 -3.5596923828125 -190.44798278808594 -5.579345703125C-117.58998107910156 -61.70750427246094 -63.7222900390625 -127.78298950195312 -32.462982177734375 -199.31500244140625C-10.865386962890625 -248.78500366210938 1.52587890625e-05 -300.968994140625 1.52587890625e-05 -353.04400634765625C1.52587890625e-05 -393.7850036621094 -6.64990234375 -434.4590148925781 -20.01348876953125 -473.71600341796875C-43.97798156738281 -544.1019897460938 -57.8140869140625 -592.302001953125 -70.89659118652344 -650.9630126953125C-91.87498474121094 -745.1160278320312 -102.33198547363281 -835.2249755859375 -102.33198547363281 -920.64697265625C-102.33198547363281 -1072.3599853515625 -69.34538269042969 -1209.300048828125 -3.735687255859375 -1327.8499755859375L-0.238983154296875 -1334.1800537109375V-1337.0400390625C-0.2389678955078125 -1342.739990234375 -3.434234619140625 -1345.9300537109375 -9.131454467773438 -1345.9300537109375C-14.406661987304688 -1345.9300537109375 -15.069854736328125 -1345.239990234375 -21.580947875976562 -1333.510009765625C-121.41795349121094 -1153.0999755859375 -177.45594787597656 -971.4539794921875 -186.52896118164062 -798.8189697265625C-187.52395629882812 -779.7979736328125 -187.64395141601562 -775.6680297851562 -187.79495239257812 -752.8189697265625C-187.81295776367188 -750.2880249023438 -187.82196044921875 -747.7630004882812 -187.82196044921875 -745.2429809570312C-187.82196044921875 -637.2630004882812 -171.37596130371094 -539.9849853515625 -135.61595153808594 -435.885009765625C-114.11695861816406 -373.3160095214844 -103.58494567871094 -313.1860046386719 -103.58494567871094 -257.84698486328125C-103.58494567871094 -153.11399841308594 -141.30795288085938 -65.53990173339844 -213.8089599609375 -11.065597534179688C-219.11495971679688 -7.0865478515625 -220.10894775390625 -5.579345703125 -220.10894775390625 -1.6606292724609375C-220.1089324951172 2.2581024169921875 -219.1149444580078 3.7653045654296875 -213.80894470214844 7.7443084716796875C-141.3079376220703 62.21861267089844 -103.58493041992188 149.8310089111328 -103.58493041992188 254.56600952148438C-103.58493041992188 309.90602111816406 -114.116943359375 370.02601623535156 -135.61593627929688 432.5640106201172C-165.69894409179688 520.1020050048828 -182.1879425048828 603.5410308837891 -186.82994079589844 691.6519927978516C-187.94593811035156 713.3250274658203 -188.0359344482422 716.3400421142578 -188.0359344482422 743.9520416259766C-188.03591918945312 771.6540069580078 -187.9459228515625 775.7230377197266 -186.7999267578125 797.3060455322266C-177.7269287109375 970.2429962158203 -121.23692321777344 1153.4300689697266 -21.55072021484375 1333.270034790039C-15.672622680664062 1343.8800201416016 -15.461624145507812 1344.1500396728516 -12.236221313476562 1345.3499908447266Z" fill="black" /></g></svg>