<?xml version="1.0" encoding="utf-8" ?>
<svg baseProfile="tiny" height="100%" version="1.2" width="100%" xmlns="http://www.w3.org/2000/svg" xmlns:ev="http://www.w3.org/2001/xml-events" xmlns:xlink="http://www.w3.org/1999/xlink"><defs /><g transform="translate(0, 1000) scale(1, -1)"><path d="M-20.540191650390625 602.1060180664062C-19.736495971679688 602.3289794921875 -18.935104370117188 602.4349975585938 -18.15130615234375 602.4349975585938C-13.374099731445312 602.4349975585938 -9.25201416015625 598.4979858398438 -9.25201416015625 593.3259887695312C-9.25201416015625 590.8679809570312 -9.35235595703125 590.5999755859375 -11.777206420898438 586.2020263671875C-37.23750305175781 539.9970092773438 -50.03350830078125 486.0880126953125 -50.03350830078125 425.5299987792969C-50.03350830078125 399.53399658203125 -47.675506591796875 372.31298828125 -42.94920349121094 343.95001220703125C-35.891998291015625 301.7070007324219 -25.925003051757812 263.5950012207031 -8.850662231445312 213.7100067138672C-2.936309814453125 196.4290008544922 0.0 178.3090057373047 0.0 160.16700744628906C0.0 136.2949981689453 -5.083465576171875 112.38400268554688 -15.155303955078125 90.29290771484375C-29.704498291015625 58.36830139160156 -53.33430480957031 30.173095703125 -89.13861083984375 2.027984619140625C-90.96139526367188 0.58978271484375 -92.44979858398438 -0.614288330078125 -92.44979858398438 -0.681182861328125C-92.44979858398438 -0.7480621337890625 -90.96139526367188 -1.9521331787109375 -89.15530395507812 -3.3903350830078125C-53.33430480957031 -31.535400390625 -29.704498291015625 -59.73069763183594 -15.155303955078125 -91.65519714355469C-5.083465576171875 -113.74700927734375 0.0 -137.69000244140625 0.0 -161.5709991455078C0.0 -179.7209930419922 -2.936309814453125 -197.8350067138672 -8.850662231445312 -215.07200622558594C-36.273101806640625 -294.9729919433594 -49.977691650390625 -365.24700927734375 -49.977691650390625 -427.4440002441406C-49.977691650390625 -487.41900634765625 -37.23469543457031 -539.8829956054688 -11.760498046875 -586.2260131835938C-9.35235595703125 -590.6409912109375 -9.25201416015625 -590.9089965820312 -9.25201416015625 -593.3499755859375C-9.25201416015625 -598.7739868164062 -13.558197021484375 -602.4349975585938 -18.208297729492188 -602.4349975585938C-20.153701782226562 -602.4349975585938 -22.1593017578125 -601.7949829101562 -23.93499755859375 -600.3740234375C-25.473495483398438 -599.1530151367188 -29.002105712890625 -593.0159912109375 -38.21659851074219 -575.5399780273438C-86.62190246582031 -483.8190002441406 -110.56700134277344 -399.781005859375 -110.56700134277344 -319.4939880371094C-110.56700134277344 -275.2669982910156 -103.30099487304688 -232.17799377441406 -88.85430908203125 -189.56900024414062C-79.53948974609375 -162.0760040283203 -74.739990234375 -141.49000549316406 -72.56590270996094 -119.5830078125C-71.92910766601562 -113.19000244140625 -71.6134033203125 -106.96499633789062 -71.6134033203125 -100.92098999023438C-71.6134033203125 -61.0968017578125 -85.32029724121094 -29.175003051757812 -111.17999267578125 -9.544464111328125C-115.84600830078125 -6.015869140625 -116.78199768066406 -4.5275115966796875 -116.78199768066406 -0.681182861328125C-116.78199768066406 3.1651458740234375 -115.84600830078125 4.6535186767578125 -111.17999267578125 8.182098388671875C-93.001708984375 21.97869873046875 -80.07460021972656 43.21710205078125 -74.72320556640625 68.05110168457031C-72.62490844726562 77.8284912109375 -71.57279968261719 88.2052001953125 -71.57279968261719 99.25479125976562C-71.57279968261719 113.03900146484375 -73.20999145507812 127.8699951171875 -76.49591064453125 143.89100646972656C-79.572998046875 158.85800170898438 -82.23190307617188 168.38999938964844 -88.93789672851562 188.45799255371094C-102.4169921875 228.79400634765625 -108.30300903320312 260.0669860839844 -110.343994140625 302.17498779296875C-110.44400024414062 304.14898681640625 -110.56100463867188 309.7179870605469 -110.62799072265625 314.5509948730469C-110.64498901367188 316.0780029296875 -110.65399169921875 317.6080017089844 -110.65399169921875 319.13800048828125C-110.65399169921875 404.20599365234375 -83.7095947265625 494.0469970703125 -28.283004760742188 593.8610229492188C-24.821304321289062 600.1320190429688 -23.817901611328125 601.1859741210938 -20.540191650390625 602.1060180664062Z" fill="black" /></g></svg>