<?xml version="1.0" encoding="utf-8" ?>
<svg baseProfile="tiny" height="100%" version="1.2" width="100%" xmlns="http://www.w3.org/2000/svg" xmlns:ev="http://www.w3.org/2001/xml-events" xmlns:xlink="http://www.w3.org/1999/xlink"><defs /><g transform="translate(0, 1000) scale(1, -1)"><path d="M-18.316696166992188 921.260986328125C-17.42718505859375 921.531005859375 -16.532577514648438 921.6580200195312 -15.655380249023438 921.6580200195312C-11.003280639648438 921.6580200195312 -6.8437652587890625 918.0880126953125 -6.56243896484375 913.2620239257812C-6.5421295166015625 912.8900146484375 -6.5289306640625 912.5540161132812 -6.5289306640625 912.2369995117188C-6.5289306640625 910.1510009765625 -7.1022491455078125 908.9169921875 -9.983261108398438 903.6690063476562C-51.68098449707031 828.219970703125 -73.08808898925781 738.35498046875 -73.08808898925781 639.844970703125C-73.08808898925781 622.2960205078125 -72.40867614746094 604.4719848632812 -71.04359436035156 586.406982421875C-64.79359436035156 503.4330139160156 -47.04638671875 422.36199951171875 -13.918487548828125 325.343994140625C-8.98016357421875 310.8890075683594 -5.5593414306640625 297.25799560546875 -3.3216705322265625 283.1629943847656C-1.1378021240234375 269.3919982910156 -0.055206298828125 255.6790008544922 -0.055206298828125 242.07400512695312C-0.055206298828125 166.58999633789062 -33.38108825683594 94.42179870605469 -96.8411865234375 34.034393310546875C-109.64997863769531 21.8428955078125 -129.22299194335938 5.1246337890625 -137.47998046875 -0.636749267578125L-138.04498291015625 -1.04827880859375L-137.47998046875 -1.459808349609375C-136.16799926757812 -2.3600311279296875 -129.04299926757812 -7.9927978515625 -124.69599914550781 -11.542205810546875C-53.42509460449219 -69.67041015625 -12.992599487304688 -135.12899780273438 -2.4214630126953125 -209.51300048828125C-0.80328369140625 -220.8699951171875 0.0 -232.41400146484375 0.0 -244.0189971923828C0.0 -272.0719909667969 -4.694122314453125 -300.47698974609375 -13.918502807617188 -327.4410095214844C-34.31480407714844 -387.16400146484375 -46.42919921875 -431.531005859375 -56.79449462890625 -484.3609924316406C-67.50421142578125 -538.968994140625 -72.84249877929688 -591.2449951171875 -72.84249877929688 -640.9130249023438C-72.84249877929688 -739.5130004882812 -51.80369567871094 -827.8319702148438 -9.9832763671875 -903.7080078125C-7.102264404296875 -908.9559936523438 -6.5289459228515625 -910.1900024414062 -6.5289459228515625 -912.2760009765625C-6.5289459228515625 -912.593017578125 -6.542144775390625 -912.9290161132812 -6.5624542236328125 -913.301025390625C-6.85345458984375 -918.4019775390625 -11.154205322265625 -921.6580200195312 -15.606002807617188 -921.6580200195312C-17.843597412109375 -921.6580200195312 -20.119400024414062 -920.8350219726562 -21.94329833984375 -919.010986328125C-24.103805541992188 -916.8510131835938 -39.741790771484375 -887.7869873046875 -51.7532958984375 -863.583984375C-114.63699340820312 -737.0250244140625 -146.00999450683594 -616.260009765625 -146.00999450683594 -500.3219909667969C-146.00999450683594 -442.6549987792969 -138.24899291992188 -386.1820068359375 -122.74200439453125 -330.78399658203125C-119.50100708007812 -319.2359924316406 -116.98001098632812 -311.26300048828125 -111.57901000976562 -295.41900634765625C-95.50509643554688 -248.26199340820312 -87.53298950195312 -205.71800231933594 -87.53298950195312 -166.6840057373047C-87.53298950195312 -156.68800354003906 -88.05580139160156 -146.92100524902344 -89.09939575195312 -137.36700439453125C-94.96369934082031 -83.40519714355469 -118.65200805664062 -38.67730712890625 -156.43600463867188 -10.204803466796875C-161.32200622558594 -6.5010223388671875 -162.3769989013672 -4.9063568115234375 -162.3769989013672 -1.04827880859375C-162.3769989013672 2.809783935546875 -161.32200622558594 4.404449462890625 -156.43600463867188 8.108200073242188C-111.42500305175781 42.030303955078125 -87.5784912109375 97.16519165039062 -87.5784912109375 164.7570037841797C-87.5784912109375 181.8300018310547 -89.09989929199219 199.697998046875 -92.185791015625 218.218994140625C-96.50689697265625 244.2989959716797 -101.26499938964844 262.5090026855469 -112.60800170898438 296.40899658203125C-126.03399658203125 336.6099853515625 -133.54400634765625 367.4230041503906 -139.33099365234375 406.1059875488281C-143.9029998779297 436.65899658203125 -146.18699645996094 467.6159973144531 -146.18699645996094 498.96099853515625C-146.18699645996094 629.8720092773438 -106.35000610351562 767.5540161132812 -26.93310546875 910.844970703125C-22.2261962890625 919.3319702148438 -21.4031982421875 920.3350219726562 -18.316696166992188 921.260986328125Z" fill="black" /></g></svg>