<?xml version="1.0" encoding="utf-8" ?>
<svg baseProfile="tiny" height="100%" version="1.2" width="100%" xmlns="http://www.w3.org/2000/svg" xmlns:ev="http://www.w3.org/2001/xml-events" xmlns:xlink="http://www.w3.org/1999/xlink"><defs /><g transform="translate(0, 1000) scale(1, -1)"><path d="M-13.58929443359375 10556.900390625C-11.966995239257812 10557.7001953125 -10.319000244140625 10558.099609375 -8.755020141601562 10558.099609375C-5.3083648681640625 10558.099609375 -2.2700653076171875 10556.2001953125 -0.8157501220703125 10552.599609375C-0.352508544921875 10551.5 0.0 10550.7001953125 0.0 10549.5C0.0 10546.0 -3.57318115234375 10539.5 -18.522598266601562 10512.599609375C-638.5430450439453 9397.0595703125 -956.9669952392578 8118.77001953125 -956.9669952392578 6745.259765625C-956.9669952392578 6733.39013671875 -956.9430084228516 6721.52001953125 -956.8950347900391 6709.64013671875C-956.4550323486328 6595.02978515625 -956.0139923095703 6568.68994140625 -953.6360015869141 6486.77001953125C-926.0630035400391 5548.1298828125 -745.1179962158203 4580.509765625 -424.63401794433594 3657.639892578125C-380.8510284423828 3531.580078125 -360.06101989746094 3463.39990234375 -333.45701599121094 3358.2099609375C-268.9490203857422 3103.7099609375 -237.54701232910156 2846.389892578125 -237.54701232910156 2591.25C-237.54701232910156 1642.22998046875 -671.9920196533203 723.2550048828125 -1453.1300201416016 90.5576171875C-1487.750015258789 62.54380798339844 -1560.1600494384766 6.8687286376953125 -1584.3900299072266 -10.309478759765625L-1586.5899810791016 -11.895172119140625L-1584.3900299072266 -13.392776489257812L-1552.6700592041016 -37.08998107910156C-1004.8200225830078 -446.63697814941406 -596.5040435791016 -1012.9900054931641 -390.2770233154297 -1649.550064086914C-288.67002868652344 -1963.0899810791016 -237.6590118408203 -2288.659927368164 -237.6590118408203 -2614.530044555664C-237.6590118408203 -2872.090103149414 -269.5240020751953 -3129.850112915039 -333.45701599121094 -3382.000015258789C-360.1490020751953 -3487.270034790039 -380.9390106201172 -3555.550064086914 -424.63401794433594 -3681.429946899414C-637.2039947509766 -4293.419937133789 -790.5750274658203 -4935.529800415039 -874.7039947509766 -5565.750015258789C-928.5059967041016 -5968.600112915039 -955.2020416259766 -6367.660171508789 -955.2020416259766 -6760.589859008789C-955.2020416259766 -8116.350112915039 -637.3790435791016 -9399.169937133789 -18.522598266601562 -10512.599624633789C-3.57318115234375 -10539.500015258789 0.0 -10546.000015258789 0.0 -10549.500015258789C0.0 -10550.700210571289 -0.352508544921875 -10551.500015258789 -0.8157501220703125 -10552.599624633789C-2.3301849365234375 -10556.299819946289 -5.661590576171875 -10558.099624633789 -9.103683471679688 -10558.099624633789C-12.268997192382812 -10558.099624633789 -15.52789306640625 -10556.599624633789 -17.553497314453125 -10553.299819946289C-20.37249755859375 -10548.799819946289 -56.931304931640625 -10483.000015258789 -76.04769897460938 -10447.900405883789C-637.2039489746094 -9418.610366821289 -992.4849548339844 -8288.549819946289 -1111.7599792480469 -7154.080093383789C-1113.9699401855469 -7133.200210571289 -1116.0799255371094 -7113.379898071289 -1116.6099548339844 -7110.029800415039C-1118.0199890136719 -7099.819839477539 -1125.4200134277344 -7020.089859008789 -1129.7299499511719 -6968.200210571289C-1144.0899353027344 -6797.129898071289 -1152.2900085449219 -6641.910171508789 -1157.3100280761719 -6447.129898071289C-1158.0600280761719 -6418.410171508789 -1158.4300231933594 -6343.549819946289 -1158.4300231933594 -6268.819839477539C-1158.4300231933594 -6194.080093383789 -1158.0600280761719 -6119.470230102539 -1157.3100280761719 -6091.229995727539C-1146.3799743652344 -5677.810073852539 -1114.6700134277344 -5332.129898071289 -1052.3000183105469 -4946.459976196289C-978.7419738769531 -4492.419937133789 -861.1379699707031 -4025.530044555664 -711.2019958496094 -3592.459976196289C-593.0689392089844 -3251.540054321289 -532.5489807128906 -2978.090103149414 -504.7989807128906 -2660.870132446289C-496.011962890625 -2560.159927368164 -491.6799621582031 -2460.139907836914 -491.6799621582031 -2361.100112915039C-491.6799621582031 -1401.699966430664 -898.2929992675781 -534.5330352783203 -1601.3000183105469 -24.845016479492188C-1608.8799743652344 -19.339111328125 -1612.6600036621094 -15.617218017578125 -1612.6600036621094 -11.895217895507812C-1612.6600036621094 -8.17327880859375 -1608.8799743652344 -4.451324462890625 -1601.3000183105469 1.0545196533203125C-898.2929992675781 510.7419891357422 -491.6799621582031 1377.9100189208984 -491.6799621582031 2337.310043334961C-491.6799621582031 2436.350082397461 -496.011962890625 2536.370101928711 -504.7989807128906 2637.080062866211C-532.5489807128906 2954.300033569336 -593.1569519042969 3227.830062866211 -711.2019958496094 3568.669906616211C-1009.3199768066406 4429.450180053711 -1161.2699890136719 5341.919906616211 -1161.2699890136719 6261.520004272461C-1161.2699890136719 6475.879867553711 -1153.0199890136719 6690.640121459961 -1136.4300231933594 6905.209945678711C-1131.1399841308594 6972.600082397461 -1120.0400085449219 7097.430160522461 -1118.8100280761719 7101.660140991211C-1118.6399841308594 7102.370101928711 -1116.4300231933594 7122.189926147461 -1113.9699401855469 7145.709945678711C-994.0709533691406 8291.719711303711 -631.3899841308594 9438.249984741211 -60.278900146484375 10476.499984741211C-21.429595947265625 10547.299789428711 -16.760696411132812 10555.299789428711 -13.58929443359375 10556.900375366211Z" fill="black" /></g></svg>