<?xml version="1.0" encoding="utf-8" ?>
<svg baseProfile="tiny" height="100%" version="1.2" width="100%" xmlns="http://www.w3.org/2000/svg" xmlns:ev="http://www.w3.org/2001/xml-events" xmlns:xlink="http://www.w3.org/1999/xlink"><defs /><g transform="translate(0, 1000) scale(1, -1)"><path d="M-15.017105102539062 351.55999755859375C-14.566207885742188 351.6180114746094 -14.073410034179688 351.6610107421875 -13.822616577148438 351.6610107421875L-13.713409423828125 351.6570129394531C-13.5299072265625 351.62799072265625 -13.095306396484375 351.5889892578125 -12.747604370117188 351.55999755859375C-8.363845825195312 351.14300537109375 -4.9012908935546875 347.1000061035156 -4.9012908935546875 342.62298583984375C-4.9012908935546875 342.33599853515625 -4.9154815673828125 342.0480041503906 -4.9445343017578125 341.75799560546875C-5.0894012451171875 340.25201416015625 -5.466033935546875 339.24700927734375 -6.663543701171875 337.0740051269531C-20.554794311523438 311.9440002441406 -27.504196166992188 283.0140075683594 -27.504196166992188 249.79200744628906C-27.504196166992188 213.93299865722656 -19.408004760742188 173.072998046875 -3.2062225341796875 126.59300231933594C-2.0666656494140625 123.30999755859375 -1.5741424560546875 121.70700073242188 -0.6760101318359375 118.239990234375L0.0 115.63198852539062V93.38198852539062V71.12188720703125L-0.666351318359375 68.51437377929688C-3.55389404296875 57.263671875 -8.421173095703125 46.49577331542969 -15.268203735351562 36.230072021484375C-23.264404296875 24.235671997070312 -34.52490234375 12.453765869140625 -49.078399658203125 0.81671142578125C-49.87030029296875 0.188995361328125 -50.50770568847656 -0.361480712890625 -50.50770568847656 -0.4001007080078125C-50.50770568847656 -0.4387359619140625 -49.87030029296875 -0.98919677734375 -49.078399658203125 -1.6169281005859375C-22.501495361328125 -22.85333251953125 -7.0401763916015625 -44.47602844238281 -0.666351318359375 -69.31463623046875L0.0 -71.92213439941406V-94.18214416503906V-116.43304443359375L-0.6760101318359375 -119.0400390625C-1.50653076171875 -122.24603271484375 -2.066650390625 -124.10003662109375 -2.8682098388671875 -126.42803955078125C-19.2703857421875 -173.5230255126953 -27.46337890625 -214.49502563476562 -27.46337890625 -250.3510284423828C-27.46337890625 -283.5280456542969 -20.448593139648438 -312.3250427246094 -6.4317474365234375 -337.5360412597656C-5.3835601806640625 -339.41302490234375 -4.8820037841796875 -341.03302001953125 -4.8820037841796875 -342.666015625C-4.8820037841796875 -343.5460205078125 -5.0275115966796875 -344.42901611328125 -5.3115081787109375 -345.3590393066406C-6.535858154296875 -349.33502197265625 -10.189483642578125 -351.6610412597656 -13.951690673828125 -351.6610412597656C-15.946380615234375 -351.6610412597656 -17.9716796875 -351.00701904296875 -19.68157958984375 -349.5980224609375C-21.023880004882812 -348.47802734375 -21.641983032226562 -347.4930419921875 -26.2581787109375 -338.9370422363281C-27.175582885742188 -337.2370300292969 -28.09307861328125 -335.5660400390625 -28.295883178710938 -335.2190246582031C-30.304580688476562 -331.7520446777344 -37.34478759765625 -317.6710205078125 -41.12078857421875 -309.57904052734375C-62.47528076171875 -263.8020324707031 -72.88058471679688 -222.32302856445312 -72.88058471679688 -182.12803649902344C-72.88058471679688 -170.31602478027344 -71.98208618164062 -158.61602783203125 -70.19888305664062 -146.9500274658203C-68.06468200683594 -132.9850311279297 -65.03228759765625 -120.91403198242188 -59.97178649902344 -106.19602966308594C-53.246185302734375 -86.65213012695312 -49.84867858886719 -69.30413818359375 -49.84867858886719 -54.75323486328125C-49.84867858886719 -47.553924560546875 -50.680389404296875 -41.039337158203125 -52.35218811035156 -35.2822265625C-55.54878234863281 -24.263336181640625 -61.62318420410156 -14.886032104492188 -69.47459411621094 -8.86956787109375C-71.48329162597656 -7.33404541015625 -72.13038635253906 -6.77392578125 -72.68089294433594 -6.0785980224609375C-74.00868225097656 -4.432037353515625 -74.67268371582031 -2.41607666015625 -74.67268371582031 -0.4001007080078125C-74.67268371582031 1.6158599853515625 -74.00868225097656 3.6318206787109375 -72.68089294433594 5.2783966064453125C-72.13038635253906 5.9737091064453125 -71.48329162597656 6.533843994140625 -69.47459411621094 8.069351196289062C-59.53727722167969 15.68896484375 -52.545379638671875 28.6104736328125 -50.55598449707031 43.00946044921875C-50.10087585449219 46.321075439453125 -49.87678527832031 49.88847351074219 -49.87678527832031 53.6646728515625C-49.87678527832031 68.08078002929688 -53.14299011230469 85.53916931152344 -59.29579162597656 103.41596984863281C-61.797088623046875 110.68797302246094 -62.85939025878906 113.96197509765625 -64.00859069824219 117.99797058105469C-69.97178649902344 138.865966796875 -72.96658325195312 159.94296264648438 -72.96658325195312 181.48797607421875C-72.96658325195312 218.84097290039062 -63.96498107910156 257.6019592285156 -45.823883056640625 299.1209716796875C-40.87937927246094 310.43896484375 -31.753189086914062 329.2129821777344 -28.295883178710938 335.19097900390625C-28.09307861328125 335.5389709472656 -27.175582885742188 337.2099609375 -26.2581787109375 338.9089660644531C-23.10028076171875 344.761962890625 -21.439178466796875 347.677978515625 -20.87908935546875 348.3539733886719C-19.43048095703125 350.1309814453125 -17.35418701171875 351.2609558105469 -15.01708984375 351.5599670410156Z" fill="black" /></g></svg>