<?xml version="1.0" encoding="utf-8" ?>
<svg baseProfile="tiny" height="100%" version="1.2" width="100%" xmlns="http://www.w3.org/2000/svg" xmlns:ev="http://www.w3.org/2001/xml-events" xmlns:xlink="http://www.w3.org/1999/xlink"><defs /><g transform="translate(0, 1000) scale(1, -1)"><path d="M-20.346206665039062 582.4630126953125C-19.646514892578125 582.614990234375 -18.9547119140625 582.68701171875 -18.27880859375 582.68701171875C-13.325515747070312 582.68701171875 -9.231903076171875 578.802978515625 -9.231903076171875 573.7559814453125C-9.231903076171875 573.5399780273438 -9.239410400390625 573.322021484375 -9.254669189453125 573.1019897460938C-9.384017944335938 571.2100219726562 -9.675048828125 570.4019775390625 -11.405120849609375 567.3140258789062C-19.537811279296875 552.7459716796875 -27.864517211914062 533.343994140625 -33.36181640625 516.1890258789062C-43.490814208984375 484.56298828125 -48.55952453613281 450.0870056152344 -48.55952453613281 412.6600036621094C-48.55952453613281 352.885986328125 -35.63081359863281 285.5849914550781 -9.739730834960938 210.3470001220703C-5.6329498291015625 198.36599731445312 -3.547210693359375 190.29800415039062 -1.99505615234375 180.2899932861328C-0.662109375 171.6790008544922 -1.52587890625e-05 163.12600708007812 -1.52587890625e-05 154.65499877929688C-1.52587890625e-05 107.33200073242188 -20.663116455078125 62.564208984375 -60.46000671386719 24.426605224609375C-69.40121459960938 15.8572998046875 -75.28651428222656 10.796600341796875 -89.06201171875 -0.181732177734375L-89.62791442871094 -0.6344451904296875L-89.06201171875 -1.0709991455078125C-75.2864990234375 -12.065521240234375 -69.40119934082031 -17.126220703125 -60.459991455078125 -25.695510864257812C-20.663101196289062 -63.83311462402344 0.0 -108.60101318359375 0.0 -155.92401123046875C0.0 -164.39501953125 -0.6620941162109375 -172.94801330566406 -1.9950408935546875 -181.55902099609375C-3.5795440673828125 -191.74501037597656 -5.5844268798828125 -199.47401428222656 -9.98223876953125 -212.29501342773438C-30.936492919921875 -273.39601135253906 -43.256805419921875 -328.87001037597656 -47.185791015625 -379.86500549316406C-48.0419921875 -390.98802185058594 -48.46879577636719 -401.9280242919922 -48.46879577636719 -412.6690216064453C-48.46879577636719 -470.4800262451172 -36.10459899902344 -522.5360260009766 -11.793106079101562 -566.5780181884766C-9.65887451171875 -570.4420318603516 -9.384002685546875 -571.1530303955078 -9.254653930664062 -573.0770416259766C-9.238433837890625 -573.3079986572266 -9.230499267578125 -573.5360260009766 -9.230499267578125 -573.7600250244141C-9.230499267578125 -579.0700225830078 -13.669097900390625 -582.6870269775391 -18.306594848632812 -582.6870269775391C-20.517196655273438 -582.6870269775391 -22.772903442382812 -581.8660430908203 -24.614700317382812 -580.0139923095703C-25.843505859375 -578.7849884033203 -27.379501342773438 -576.1330108642578 -34.590606689453125 -562.7299957275391C-83.85420227050781 -471.11900329589844 -108.18399047851562 -387.8040008544922 -108.18399047851562 -308.3760223388672C-108.18399047851562 -265.07301330566406 -100.95199584960938 -222.92601013183594 -86.58819580078125 -181.2200164794922C-75.81939697265625 -149.95401000976562 -70.47259521484375 -121.62701416015625 -70.47259521484375 -96.8275146484375C-70.47259521484375 -58.44061279296875 -83.28340148925781 -28.505218505859375 -108.62600708007812 -9.203720092773438C-112.69999694824219 -6.0993804931640625 -113.96099853515625 -4.0783233642578125 -113.96099853515625 -0.63446044921875C-113.96099853515625 2.809417724609375 -112.69999694824219 4.830474853515625 -108.62600708007812 7.9347991943359375C-89.25599670410156 22.696578979492188 -76.72549438476562 44.68559265136719 -72.18209838867188 71.89707946777344C-70.97860717773438 79.12628173828125 -70.38130187988281 86.87019348144531 -70.38130187988281 95.06108093261719C-70.38130187988281 119.8809814453125 -75.8660888671875 148.8049774169922 -86.58819580078125 179.95098876953125C-101.04299926757812 221.93698120117188 -108.32199096679688 264.2989959716797 -108.32199096679688 307.80299377441406C-108.32199096679688 387.41798400878906 -83.9429931640625 470.85997009277344 -34.54209899902344 562.8350067138672C-24.76019287109375 581.0569915771484 -24.356002807617188 581.6069793701172 -20.346206665039062 582.4629974365234Z" fill="black" /></g></svg>