<?xml version="1.0" encoding="utf-8" ?>
<svg baseProfile="tiny" height="100%" version="1.2" width="100%" xmlns="http://www.w3.org/2000/svg" xmlns:ev="http://www.w3.org/2001/xml-events" xmlns:xlink="http://www.w3.org/1999/xlink"><defs /><g transform="translate(0, 1000) scale(1, -1)"><path d="M-20.135299682617188 706.197998046875C-19.310379028320312 706.4240112304688 -18.487884521484375 706.531005859375 -17.683685302734375 706.531005859375C-12.814682006835938 706.531005859375 -8.615570068359375 702.6160278320312 -8.615570068359375 697.469970703125C-8.615570068359375 695.426025390625 -9.067718505859375 694.2659912109375 -11.662582397460938 689.5089721679688C-42.33488464355469 633.552001953125 -57.6685791015625 569.083984375 -57.6685791015625 496.364013671875C-57.6685791015625 424.2279968261719 -42.5806884765625 343.97198486328125 -12.409591674804688 255.8470001220703C-5.1164093017578125 234.5570068359375 -1.754852294921875 219.2239990234375 -0.5556793212890625 201.88499450683594C-0.2272186279296875 197.07200622558594 -0.0632171630859375 192.2899932861328 -0.0632171630859375 187.5399932861328C-0.0632171630859375 117.802001953125 -35.40818786621094 54.89070129394531 -104.64598083496094 1.6463165283203125C-106.31698608398438 0.3488616943359375 -107.67399597167969 -0.7323455810546875 -107.67399597167969 -0.79132080078125C-107.67399597167969 -0.8502960205078125 -106.31698608398438 -1.9315032958984375 -104.64598083496094 -3.22894287109375C-83.35627746582031 -19.5845947265625 -63.42277526855469 -38.849700927734375 -48.30558776855469 -57.62339782714844C-16.501678466796875 -97.16419982910156 1.52587890625e-05 -142.17300415039062 1.52587890625e-05 -188.44000244140625C1.52587890625e-05 -198.48300170898438 -0.777435302734375 -208.5850067138672 -2.3445892333984375 -218.7030029296875C-4.3694000244140625 -231.79600524902344 -6.7087249755859375 -240.7989959716797 -12.409591674804688 -257.42999267578125C-42.61598205566406 -345.64898681640625 -57.44468688964844 -424.22198486328125 -57.44468688964844 -497.02099609375C-57.44468688964844 -515.4710083007812 -56.4921875 -533.5499877929688 -54.596282958984375 -551.3209838867188C-49.563690185546875 -598.6190185546875 -33.994384765625 -648.72802734375 -11.662582397460938 -689.5180053710938C-9.067718505859375 -694.2760009765625 -8.615570068359375 -695.4359741210938 -8.615570068359375 -697.47998046875C-8.615570068359375 -702.93798828125 -13.058380126953125 -706.531005859375 -17.702484130859375 -706.531005859375C-19.966079711914062 -706.531005859375 -22.277481079101562 -705.677001953125 -24.145584106445312 -703.77099609375C-25.443084716796875 -702.4539794921875 -30.298690795898438 -693.7839965820312 -39.08589172363281 -677.1339721679688C-94.8953857421875 -571.364990234375 -122.7559814453125 -471.5769958496094 -122.7559814453125 -377.010986328125C-122.7559814453125 -324.781005859375 -114.25698852539062 -274.1449890136719 -97.27427673339844 -224.9739990234375C-83.97328186035156 -186.44900512695312 -77.38038635253906 -152.30299377441406 -77.38038635253906 -121.69900512695312C-77.38038635253906 -113.44900512695312 -77.85939025878906 -105.45700073242188 -78.815185546875 -97.70649719238281C-83.35627746582031 -60.748992919921875 -100.10499572753906 -29.688995361328125 -126.19198608398438 -9.814453125C-130.86997985839844 -6.256317138671875 -132.06898498535156 -4.4281005859375 -132.06898498535156 -0.79132080078125C-132.06898498535156 2.845458984375 -130.86997985839844 4.673675537109375 -126.19198608398438 8.231826782226562C-93.92207336425781 32.81990051269531 -77.48748779296875 71.51750183105469 -77.48748779296875 120.19000244140625C-77.48748779296875 149.61700439453125 -83.49508666992188 182.6909942626953 -95.64268493652344 218.4969940185547C-100.87199401855469 233.947998046875 -102.93598937988281 240.43499755859375 -105.62898254394531 250.1269989013672C-117.13499450683594 291.47698974609375 -122.90498352050781 333.60400390625 -122.90498352050781 376.71600341796875C-122.90498352050781 473.9159851074219 -93.57377624511719 576.1170043945312 -34.52519226074219 685.6749877929688C-24.263580322265625 704.7039794921875 -23.948989868164062 705.176025390625 -20.135284423828125 706.197998046875Z" fill="black" /></g></svg>