<?xml version="1.0" encoding="utf-8" ?>
<svg baseProfile="tiny" height="100%" version="1.2" width="100%" xmlns="http://www.w3.org/2000/svg" xmlns:ev="http://www.w3.org/2001/xml-events" xmlns:xlink="http://www.w3.org/1999/xlink"><defs /><g transform="translate(0, 1000) scale(1, -1)"><path d="M-10.864105224609375 1336.9300537109375C-10.336593627929688 1337.010009765625 -9.81634521484375 1337.050048828125 -9.30633544921875 1337.050048828125C-4.286224365234375 1337.050048828125 -0.26422119140625 1333.1700439453125 -0.26422119140625 1328.010009765625C-0.26422119140625 1325.550048828125 -0.5337066650390625 1324.8599853515625 -4.066986083984375 1318.5400390625C-69.1260986328125 1201.6500244140625 -101.97000122070312 1064.7099609375 -101.97000122070312 913.2059936523438C-101.97000122070312 837.2550048828125 -93.71549987792969 757.64599609375 -77.12799072265625 675.0679931640625C-63.11470031738281 605.301025390625 -47.9635009765625 550.14599609375 -20.326095581054688 468.6109924316406C-6.712493896484375 428.4440002441406 0.0 387.552001953125 0.0 346.9119873046875C0.0 259.2820129394531 -31.210205078125 172.8209991455078 -91.74020385742188 97.31710815429688C-119.97698974609375 62.104095458984375 -155.33900451660156 27.84930419921875 -191.12100219726562 1.050262451171875C-192.88800048828125 -0.2672271728515625 -194.3249969482422 -1.405059814453125 -194.3249969482422 -1.4948883056640625C-194.3249969482422 -1.584716796875 -192.88800048828125 -2.7225494384765625 -191.12100219726562 -4.0400543212890625C-155.33900451660156 -30.839096069335938 -119.97698974609375 -65.09390258789062 -91.74020385742188 -100.3070068359375C-31.210205078125 -175.81100463867188 0.0 -262.27099609375 0.0 -349.9020080566406C0.0 -390.5419921875 -6.712493896484375 -431.4339904785156 -20.326095581054688 -471.60101318359375C-48.262908935546875 -554.0339965820312 -63.7135009765625 -610.5059814453125 -77.6968994140625 -681.052001953125C-93.72149658203125 -761.906982421875 -101.69400024414062 -839.9149780273438 -101.69400024414062 -914.4099731445312C-101.69400024414062 -1065.4200439453125 -68.93310546875 -1201.97998046875 -4.066986083984375 -1318.5400390625C-1.2799835205078125 -1323.52001953125 -0.1268157958984375 -1326.0799560546875 -0.1268157958984375 -1328.239990234375C-0.1268157958984375 -1329.3800048828125 -0.445404052734375 -1330.4100341796875 -1.0128021240234375 -1331.6199951171875C-2.610565185546875 -1335.1400146484375 -6.1541900634765625 -1337.050048828125 -9.621261596679688 -1337.050048828125C-12.06689453125 -1337.050048828125 -14.474395751953125 -1336.0999755859375 -16.134002685546875 -1334.0799560546875C-18.739105224609375 -1330.9100341796875 -39.30999755859375 -1292.4300537109375 -52.66450500488281 -1265.68994140625C-142.10499572753906 -1086.77001953125 -187.17300415039062 -909.916015625 -187.17300415039062 -739.9910278320312C-187.17300415039062 -663.0819702148438 -177.94000244140625 -587.5910034179688 -159.41099548339844 -513.969970703125C-151.71600341796875 -483.3680114746094 -146.656005859375 -466.510009765625 -133.75 -428.6319885253906C-113.26100158691406 -368.39898681640625 -103.2340087890625 -310.2539978027344 -103.2340087890625 -256.5159912109375C-103.2340087890625 -152.63900756835938 -140.697998046875 -65.22610473632812 -212.4709930419922 -11.016799926757812C-217.9499969482422 -6.8846435546875 -218.96800231933594 -5.387481689453125 -218.96800231933594 -1.4948883056640625C-218.96798706054688 2.5175018310546875 -218.03997802734375 3.834991455078125 -211.72198486328125 8.625869750976562C-140.44598388671875 62.64921569824219 -103.26597595214844 149.74501037597656 -103.26597595214844 253.33201599121094C-103.26597595214844 307.2320098876953 -113.33198547363281 365.5970001220703 -133.8999786376953 426.09202575683594C-144.79898071289062 458.1010284423828 -149.6499786376953 473.79100036621094 -155.36898803710938 495.26002502441406C-174.3829803466797 566.6140289306641 -183.57598876953125 627.9380035400391 -186.89898681640625 705.4600372314453C-187.36798095703125 716.5139923095703 -187.59999084472656 727.8000030517578 -187.59999084472656 739.2710113525391C-187.59999084472656 828.1389923095703 -173.68898010253906 928.2140045166016 -148.3629913330078 1018.9600372314453C-118.62898254394531 1125.3800201416016 -76.40937805175781 1226.770034790039 -19.038482666015625 1329.4100494384766C-15.954391479492188 1334.8900299072266 -14.337478637695312 1336.3900299072266 -10.864089965820312 1336.9300689697266Z" fill="black" /></g></svg>