<?xml version="1.0" encoding="utf-8" ?>
<svg baseProfile="tiny" height="100%" version="1.2" width="100%" xmlns="http://www.w3.org/2000/svg" xmlns:ev="http://www.w3.org/2001/xml-events" xmlns:xlink="http://www.w3.org/1999/xlink"><defs /><g transform="translate(0, 1000) scale(1, -1)"><path d="M-12.123397827148438 1851.1500244140625C-11.029983520507812 1851.489990234375 -9.955459594726562 1851.6500244140625 -8.925384521484375 1851.6500244140625C-3.94232177734375 1851.6500244140625 1.52587890625e-05 1847.9300537109375 1.52587890625e-05 1842.5400390625L-0.037750244140625 1839.260009765625L-3.62567138671875 1832.8399658203125C-97.509765625 1666.3199462890625 -146.55796813964844 1463.489990234375 -146.55796813964844 1245.489990234375C-146.55796813964844 1209.68994140625 -145.2359619140625 1173.489990234375 -142.57296752929688 1136.969970703125C-130.67596435546875 974.1920166015625 -99.06436157226562 826.4829711914062 -36.861175537109375 643.3480224609375C-18.31317138671875 588.7260131835938 -9.196792602539062 532.5709838867188 -9.196792602539062 476.5249938964844C-9.196792602539062 354.4289855957031 -52.46307373046875 232.85000610351562 -135.73696899414062 128.76400756835938C-173.57997131347656 81.44158935546875 -226.49197387695312 30.304306030273438 -269.5469665527344 -0.551788330078125C-270.6609802246094 -1.34490966796875 -271.21795654296875 -1.72259521484375 -271.21795654296875 -2.1002655029296875C-271.21795654296875 -2.477935791015625 -270.6609802246094 -2.8556060791015625 -269.5469665527344 -3.6487274169921875C-268.5649719238281 -4.32855224609375 -264.2969665527344 -7.6143341064453125 -260.02996826171875 -10.937896728515625C-132.4129638671875 -110.22900390625 -49.0977783203125 -235.9949951171875 -20.39447021484375 -372.78900146484375C-12.970474243164062 -408.1820068359375 -9.263885498046875 -444.24700927734375 -9.263885498046875 -480.24200439453125C-9.263885498046875 -522.9869995117188 -14.490768432617188 -565.635986328125 -24.92657470703125 -606.947998046875C-30.214065551757812 -627.9089965820312 -30.818267822265625 -629.8729858398438 -45.321075439453125 -672.6640014648438C-79.80287170410156 -774.5230102539062 -103.93597412109375 -869.3189697265625 -122.3289794921875 -975.3709716796875C-138.06796264648438 -1066.02001953125 -146.03897094726562 -1159.4300537109375 -146.03897094726562 -1249.4300537109375C-146.03897094726562 -1307.800048828125 -142.68597412109375 -1364.739990234375 -135.92596435546875 -1418.5699462890625C-117.0789794921875 -1569.0400390625 -70.70086669921875 -1714.219970703125 -3.6256561279296875 -1832.8800048828125L3.0517578125e-05 -1839.300048828125V-1842.5899658203125C3.0517578125e-05 -1848.010009765625 -3.7533721923828125 -1851.6500244140625 -8.757125854492188 -1851.6500244140625C-9.713470458984375 -1851.6500244140625 -10.715469360351562 -1851.52001953125 -11.74566650390625 -1851.239990234375C-15.22027587890625 -1850.2900390625 -15.371368408203125 -1850.030029296875 -27.45697021484375 -1827.969970703125C-170.19497680664062 -1567.18994140625 -243.71896362304688 -1299.8399658203125 -243.71896362304688 -1042.030029296875C-243.71896362304688 -1038.43994140625 -243.70497131347656 -1034.8499755859375 -243.67596435546875 -1031.27001953125C-243.44996643066406 -1004.489990234375 -243.26097106933594 -997.5780029296875 -242.0899658203125 -973.6710205078125C-236.1229705810547 -853.4190063476562 -213.4249725341797 -733.2429809570312 -175.69497680664062 -622.0549926757812C-158.3589630126953 -570.9180297851562 -152.7699737548828 -551.9580078125 -145.63197326660156 -519.968994140625C-136.49197387695312 -479.1050109863281 -131.58197021484375 -444.2829895019531 -128.97596740722656 -402.0589904785156C-128.46197509765625 -393.7590026855469 -128.2149658203125 -383.89801025390625 -128.2149658203125 -373.4419860839844C-128.2149658203125 -353.1629943847656 -129.1449737548828 -330.6449890136719 -130.86497497558594 -312.927001953125C-143.25196838378906 -186.2169952392578 -198.27996826171875 -80.80789184570312 -287.14697265625 -13.694900512695312C-295.64495849609375 -7.2744140625 -296.09796142578125 -6.670135498046875 -296.09796142578125 -2.1002655029296875C-296.09796142578125 2.4696197509765625 -295.64495849609375 3.0738983154296875 -287.14697265625 9.494384765625C-214.78396606445312 64.14410400390625 -164.40196228027344 144.6269989013672 -141.8169708251953 241.68899536132812C-132.73696899414062 280.760009765625 -128.19996643066406 321.739013671875 -128.19996643066406 364.6390075683594C-128.19996643066406 395.4289855957031 -130.53697204589844 427.2099914550781 -135.2079620361328 459.9859924316406C-142.08197021484375 507.9129943847656 -153.14796447753906 551.9119873046875 -172.5979766845703 608.6010131835938C-215.42596435546875 733.3480224609375 -237.44497680664062 852.5040283203125 -243.44996643066406 991.9420166015625C-243.85397338867188 1001.4400024414062 -244.0929718017578 1024.1600341796875 -244.0929718017578 1044.1300048828125C-244.0929718017578 1055.9200439453125 -244.0099639892578 1066.739990234375 -243.82696533203125 1073.3299560546875C-236.8399658203125 1324.7099609375 -164.2129669189453 1578.02001953125 -27.45697021484375 1827.9300537109375C-15.59796142578125 1849.5699462890625 -15.22027587890625 1850.2099609375 -12.123367309570312 1851.1500244140625Z" fill="black" /></g></svg>