<?xml version="1.0" encoding="utf-8" ?>
<svg baseProfile="tiny" height="100%" version="1.2" width="100%" xmlns="http://www.w3.org/2000/svg" xmlns:ev="http://www.w3.org/2001/xml-events" xmlns:xlink="http://www.w3.org/1999/xlink"><defs /><g transform="translate(0, 1000) scale(1, -1)"><path d="M-12.472793579101562 4756.2001953125C-11.377685546875 4756.58984375 -10.2786865234375 4756.77978515625 -9.2122802734375 4756.77978515625C-4.3141021728515625 4756.77978515625 -0.10296630859375 4752.89013671875 -0.10296630859375 4747.52001953125C-0.10296630859375 4745.14013671875 -1.173431396484375 4742.81982421875 -9.677688598632812 4727.58984375C-277.2019805908203 4244.77978515625 -411.9359893798828 3687.68994140625 -411.9359893798828 3096.7900390625C-411.9359893798828 2628.820068359375 -327.43299865722656 2139.659912109375 -157.4619903564453 1649.4100341796875C-111.78797912597656 1517.739990234375 -87.58387756347656 1395.77001953125 -80.32847595214844 1261.3599853515625C-79.01219177246094 1236.9300537109375 -78.35868835449219 1212.530029296875 -78.35868835449219 1188.18994140625C-78.35868835449219 734.0419921875 -305.70997619628906 297.4960021972656 -699.2960052490234 2.96954345703125C-705.0649871826172 -1.371795654296875 -709.8229827880859 -5.1184234619140625 -709.8229827880859 -5.3563079833984375C-709.8229827880859 -5.5941925048828125 -704.5300140380859 -9.757125854492188 -698.0469818115234 -14.574203491210938C-336.8839874267578 -285.1639862060547 -112.62098693847656 -679.6909637451172 -82.11259460449219 -1098.4200286865234C-79.590087890625 -1133.0899505615234 -78.32298278808594 -1167.459945678711 -78.32298278808594 -1201.5999603271484C-78.32298278808594 -1356.6299896240234 -104.44198608398438 -1507.0999603271484 -157.7589874267578 -1661.009994506836C-326.7909698486328 -2148.959945678711 -410.8249969482422 -2635.999984741211 -410.8249969482422 -3101.949935913086C-410.8249969482422 -3690.909896850586 -276.5599822998047 -4246.169906616211 -9.975051879882812 -4726.950180053711C-1.9529571533203125 -4741.439926147461 1.52587890625e-05 -4745.129867553711 1.52587890625e-05 -4747.830062866211C1.52587890625e-05 -4748.549789428711 -0.139923095703125 -4749.200180053711 -0.3408355712890625 -4749.959945678711C-1.504730224609375 -4754.229965209961 -5.4526214599609375 -4756.779769897461 -9.443740844726562 -4756.779769897461C-11.570587158203125 -4756.779769897461 -13.709686279296875 -4756.049789428711 -15.4462890625 -4754.479965209961C-16.933090209960938 -4753.169906616211 -30.908584594726562 -4728.379867553711 -49.8201904296875 -4693.410140991211C-349.1939697265625 -4140.930160522461 -520.8849792480469 -3545.389877319336 -550.4419860839844 -2957.169906616211C-553.9509582519531 -2886.399887084961 -554.9019470214844 -2848.159896850586 -554.9019470214844 -2770.429916381836C-554.8429870605469 -2693.060043334961 -553.9509582519531 -2654.459945678711 -550.4419860839844 -2585.479965209961C-533.5519714355469 -2255.120101928711 -470.5729675292969 -1925.1199798583984 -365.9649658203125 -1619.739974975586L-348.3019714355469 -1567.6399993896484C-286.8179626464844 -1384.969955444336 -257.053955078125 -1201.729965209961 -257.053955078125 -1026.050033569336C-257.053955078125 -615.3140106201172 -419.74395751953125 -245.9099884033203 -720.1109924316406 -21.77008056640625C-734.7999572753906 -10.768081665039062 -735.6919860839844 -9.87603759765625 -735.6919860839844 -5.356292724609375C-735.6919860839844 -0.7770538330078125 -734.9189758300781 -0.06341552734375 -717.9099426269531 12.722732543945312C-606.0469665527344 96.575927734375 -512.1429748535156 201.363037109375 -437.68597412109375 325.5960388183594C-317.9249572753906 525.2440490722656 -257.0999755859375 763.7380065917969 -257.0999755859375 1015.2100524902344C-257.0999755859375 1192.0699768066406 -287.1829833984375 1375.3399963378906 -348.0049743652344 1556.0400695800781L-366.32196044921875 1610.1600646972656C-493.2029724121094 1981.5200500488281 -555.9899597167969 2370.169952392578 -555.9899597167969 2763.649932861328C-555.9899597167969 3416.970001220703 -382.8929748535156 4083.590118408203 -42.68377685546875 4706.480010986328C-16.27886962890625 4754.770050048828 -16.338363647460938 4754.770050048828 -12.472763061523438 4756.200225830078Z" fill="black" /></g></svg>