<?xml version="1.0" encoding="utf-8" ?>
<svg baseProfile="tiny" height="100%" version="1.2" width="100%" xmlns="http://www.w3.org/2000/svg" xmlns:ev="http://www.w3.org/2001/xml-events" xmlns:xlink="http://www.w3.org/1999/xlink"><defs /><g transform="translate(0, 1000) scale(1, -1)"><path d="M-11.901199340820312 4450.68017578125C-11.031280517578125 4450.85986328125 -10.181182861328125 4450.9501953125 -9.36114501953125 4450.9501953125C-4.04998779296875 4450.9501953125 -0.000244140625 4447.18017578125 -0.000244140625 4441.759765625C-0.000244140625 4441.72998046875 -0.0004119873046875 4441.7001953125 -0.0007171630859375 4441.66015625C-0.05963134765625 4438.60009765625 -0.5898590087890625 4437.47998046875 -9.898101806640625 4420.81005859375C-257.9499969482422 3976.3798828125 -382.97999572753906 3456.68994140625 -382.97999572753906 2904.35009765625C-382.97999572753906 2465.47998046875 -304.04298400878906 2005.989990234375 -145.1619873046875 1547.27001953125C-95.12498474121094 1402.77001953125 -70.10118103027344 1258.31005859375 -70.10118103027344 1113.75C-70.10118103027344 998.927978515625 -85.89018249511719 884.0419921875 -117.47297668457031 769.0289916992188C-198.94998168945312 472.28399658203125 -395.95497131347656 191.56399536132812 -657.2339935302734 -0.0212554931640625C-660.7689666748047 -2.5545196533203125 -663.5959930419922 -4.8521270751953125 -663.5959930419922 -5.0877838134765625C-663.5959930419922 -5.3234405517578125 -660.7689666748047 -7.6210479736328125 -657.2930145263672 -10.154312133789062C-627.5419769287109 -31.952117919921875 -583.0619964599609 -68.18360900878906 -551.6619720458984 -96.04942321777344C-238.7119903564453 -374.4180145263672 -70.39048767089844 -745.2670440673828 -70.39048767089844 -1124.479995727539C-70.39048767089844 -1266.6100006103516 -94.03459167480469 -1409.9100494384766 -142.5699920654297 -1549.959976196289C-302.2789764404297 -2010.699966430664 -382.1119842529297 -2463.679946899414 -382.1119842529297 -2908.919937133789C-382.1119842529297 -2961.649917602539 -380.9919891357422 -3014.280044555664 -378.7519989013672 -3066.790054321289C-357.7789764404297 -3557.479995727539 -229.99697875976562 -4026.719985961914 -9.898101806640625 -4420.910171508789C-0.5898590087890625 -4437.640151977539 -0.05963134765625 -4438.759780883789 -0.0007171630859375 -4441.819839477539C-0.0002288818359375 -4441.870132446289 1.52587890625e-05 -4441.919937133789 1.52587890625e-05 -4441.959976196289C1.52587890625e-05 -4447.540054321289 -3.465362548828125 -4450.950210571289 -9.132232666015625 -4450.950210571289C-14.670074462890625 -4450.950210571289 -15.023468017578125 -4450.540054321289 -28.04327392578125 -4426.979995727539C-223.3989715576172 -4074.500015258789 -362.7869567871094 -3705.709976196289 -443.8509826660156 -3326.659927368164C-468.0049743652344 -3213.780044555664 -488.094970703125 -3090.010025024414 -500.9379577636719 -2975.179946899414C-515.4469909667969 -2845.699966430664 -522.6799621582031 -2716.449966430664 -522.6799621582031 -2587.919937133789C-522.6799621582031 -2259.810073852539 -475.5439758300781 -1936.3700103759766 -381.9919738769531 -1625.490005493164C-367.9709777832031 -1578.8299713134766 -363.552978515625 -1565.219985961914 -329.9129638671875 -1465.8299713134766C-272.52996826171875 -1296.010025024414 -244.05096435546875 -1123.260025024414 -244.05096435546875 -956.5130157470703C-244.05096435546875 -743.5550079345703 -290.5019836425781 -540.3910064697266 -382.5229797363281 -365.63502502441406C-454.9269714355469 -228.25001525878906 -557.0819396972656 -107.47901916503906 -673.4349670410156 -21.760116577148438C-684.3139953613281 -13.738021850585938 -689.8639831542969 -9.518051147460938 -689.8639831542969 -5.2024383544921875C-689.8639831542969 -0.7073974609375 -683.8429870605469 3.89141845703125 -671.5499572753906 12.998489379882812C-555.4909973144531 99.12928771972656 -454.51397705078125 218.78099060058594 -382.5229797363281 355.45997619628906C-290.4969787597656 530.1929779052734 -244.02597045898438 733.5059661865234 -244.02597045898438 946.5300140380859C-244.02597045898438 1113.310043334961 -272.50897216796875 1286.030014038086 -329.9129638671875 1455.6600189208984C-378.81097412109375 1600.1099700927734 -396.24896240234375 1658.030014038086 -423.1729736328125 1765.009994506836C-490.4059753417969 2032.5799407958984 -523.7049865722656 2306.649887084961 -523.7049865722656 2582.909896850586C-523.7049865722656 3202.540023803711 -356.1849670410156 3833.199935913086 -28.337860107421875 4426.350082397461C-17.321060180664062 4446.259750366211 -14.728958129882812 4450.089828491211 -11.901153564453125 4450.680160522461Z" fill="black" /></g></svg>