<?xml version="1.0" encoding="utf-8" ?>
<svg baseProfile="tiny" height="100%" version="1.2" width="100%" xmlns="http://www.w3.org/2000/svg" xmlns:ev="http://www.w3.org/2001/xml-events" xmlns:xlink="http://www.w3.org/1999/xlink"><defs /><g transform="translate(0, 1000) scale(1, -1)"><path d="M-19.255996704101562 523.8790283203125C-18.931182861328125 523.9119873046875 -18.609390258789062 523.927978515625 -18.2913818359375 523.927978515625C-13.337081909179688 523.927978515625 -9.300643920898438 519.9819946289062 -9.300643920898438 514.89599609375C-9.300643920898438 512.97998046875 -9.6634521484375 511.7900085449219 -10.969589233398438 509.4679870605469C-32.92408752441406 470.17999267578125 -44.19989013671875 423.4200134277344 -44.19989013671875 372.0C-44.19989013671875 368.18701171875 -44.13789367675781 364.3489990234375 -44.01368713378906 360.48699951171875C-42.38838195800781 310.2460021972656 -30.851181030273438 253.90899658203125 -9.257110595703125 190.73800659179688C-7.7768707275390625 186.41299438476562 -6.3111419677734375 181.97300720214844 -5.9918670654296875 180.8699951171875C-1.9820404052734375 166.9499969482422 1.52587890625e-05 152.99899291992188 1.52587890625e-05 139.2030029296875C1.52587890625e-05 102.572998046875 -13.974777221679688 67.04669189453125 -41.067779541015625 36.16920471191406C-51.55998229980469 24.211196899414062 -67.23307800292969 9.713577270507812 -80.17799377441406 0.0049591064453125C-80.58427429199219 -0.3070526123046875 -80.78749084472656 -0.4412841796875 -80.78749084472656 -0.575531005859375C-80.78749084472656 -0.7097625732421875 -80.58427429199219 -0.8440093994140625 -80.17799377441406 -1.156005859375C-67.23307800292969 -10.864593505859375 -51.55998229980469 -25.3623046875 -41.067779541015625 -37.32029724121094C-14.01568603515625 -68.1343994140625 -0.0248870849609375 -103.44100952148438 -0.0248870849609375 -140.61599731445312C-0.0248870849609375 -143.30599975585938 -0.0981597900390625 -146.0070037841797 -0.2450714111328125 -148.71600341796875C-1.0577392578125 -163.5030059814453 -3.37969970703125 -174.69200134277344 -9.155532836914062 -191.61300659179688C-32.415679931640625 -259.6210021972656 -44.04188537597656 -319.7349853515625 -44.04188537597656 -372.9150085449219C-44.04188537597656 -424.64801025390625 -33.03968811035156 -469.8190002441406 -11.042083740234375 -509.31298828125C-9.6634521484375 -511.7950134277344 -9.300643920898438 -512.9409790039062 -9.300643920898438 -514.885986328125C-9.300643920898438 -520.343017578125 -13.733184814453125 -523.927978515625 -18.362091064453125 -523.927978515625C-20.614486694335938 -523.927978515625 -22.913284301757812 -523.0800170898438 -24.770584106445312 -521.1840209960938C-25.858978271484375 -520.0809936523438 -26.657180786132812 -518.68798828125 -32.505584716796875 -507.9200134277344C-74.70689392089844 -430.0039978027344 -96.70729064941406 -360.8399963378906 -100.23399353027344 -295.0270080566406C-100.58497619628906 -288.4460144042969 -100.760986328125 -281.9070129394531 -100.760986328125 -275.4110107421875C-100.760986328125 -236.79400634765625 -94.55519104003906 -199.6479949951172 -82.10807800292969 -163.73599243164062C-71.81468200683594 -134.03399658203125 -66.66337585449219 -107.81900024414062 -66.66337585449219 -85.22630310058594C-66.66337585449219 -69.97850036621094 -69.0098876953125 -56.380706787109375 -73.70558166503906 -44.47479248046875C-79.49589538574219 -29.788497924804688 -88.31929016113281 -17.902999877929688 -100.03099060058594 -8.978057861328125C-103.93397521972656 -6.0030670166015625 -105.1099853515625 -4.0729522705078125 -105.1099853515625 -0.575531005859375C-105.1099853515625 2.921905517578125 -103.93397521972656 4.852020263671875 -100.03099060058594 7.8270111083984375C-93.18089294433594 13.051406860351562 -87.11479187011719 19.5238037109375 -82.26768493652344 26.80889892578125C-71.85888671875 42.43670654296875 -66.65617370605469 61.49420166015625 -66.65617370605469 84.14349365234375C-66.65617370605469 106.7139892578125 -71.82258605957031 132.8509979248047 -82.15159606933594 162.71499633789062C-94.6392822265625 198.8070068359375 -100.88899230957031 236.3249969482422 -100.88899230957031 274.80499267578125C-100.88899230957031 305.5480041503906 -96.89979553222656 336.9070129394531 -88.91429138183594 368.6419982910156C-77.17399597167969 415.37200927734375 -57.94538879394531 461.927001953125 -28.06488037109375 516.0419921875C-24.741592407226562 522.0499877929688 -23.130691528320312 523.4869995117188 -19.2559814453125 523.8790283203125Z" fill="black" /></g></svg>