<?xml version="1.0" encoding="utf-8" ?>
<svg baseProfile="tiny" height="100%" version="1.2" width="100%" xmlns="http://www.w3.org/2000/svg" xmlns:ev="http://www.w3.org/2001/xml-events" xmlns:xlink="http://www.w3.org/1999/xlink"><defs /><g transform="translate(0, 1000) scale(1, -1)"><path d="M-11.301605224609375 2431.10009765625C-10.545501708984375 2431.300048828125 -9.791656494140625 2431.389892578125 -9.052642822265625 2431.389892578125C-4.206817626953125 2431.389892578125 0.0 2427.419921875 0.0 2422.280029296875V2419.510009765625L-6.1339569091796875 2408.3701171875C-92.72352600097656 2250.949951171875 -149.10501098632812 2082.52001953125 -178.05300903320312 1894.760009765625C-191.67001342773438 1806.52001953125 -198.4180145263672 1714.8199462890625 -198.4180145263672 1620.739990234375C-198.4180145263672 1375.77001953125 -152.66702270507812 1114.6300048828125 -63.27210998535156 856.1900024414062C-34.790313720703125 773.843017578125 -21.649520874023438 701.083984375 -21.649520874023438 622.2639770507812C-21.649520874023438 607.0239868164062 -22.140716552734375 591.5570068359375 -23.107315063476562 575.7509765625C-36.21551513671875 359.5090026855469 -155.95401000976562 150.49200439453125 -350.81101989746094 3.697662353515625C-355.26502990722656 0.294586181640625 -358.96202087402344 -2.604339599609375 -358.96202087402344 -2.7723846435546875C-358.96202087402344 -2.9404296875 -355.26502990722656 -5.8393402099609375 -350.81101989746094 -9.242431640625C-271.19602966308594 -69.19548034667969 -199.9840087890625 -144.10498046875 -146.75302124023438 -223.7629852294922C-63.97972106933594 -347.6919708251953 -21.622207641601562 -486.3519744873047 -21.622207641601562 -625.5289764404297C-21.622207641601562 -702.0239715576172 -34.41770935058594 -778.6749725341797 -60.33122253417969 -853.1219940185547C-151.60601806640625 -1115.209945678711 -197.8930206298828 -1376.479965209961 -197.8930206298828 -1622.469955444336C-197.8930206298828 -1746.290023803711 -186.16702270507812 -1866.229965209961 -162.55001831054688 -1980.469955444336C-130.3670196533203 -2136.249984741211 -78.943115234375 -2276.489974975586 -4.873565673828125 -2410.770004272461C-0.042022705078125 -2419.509994506836 -1.52587890625e-05 -2419.629867553711 -1.52587890625e-05 -2422.360092163086C-1.52587890625e-05 -2428.060043334961 -4.2144317626953125 -2431.389877319336 -8.727340698242188 -2431.389877319336C-11.767715454101562 -2431.389877319336 -14.943511962890625 -2429.879867553711 -17.057418823242188 -2426.560043334961C-26.090316772460938 -2412.409896850586 -64.74261474609375 -2338.879867553711 -84.19471740722656 -2298.800033569336C-232.5550079345703 -1993.6800384521484 -307.12501525878906 -1686.1099700927734 -307.12501525878906 -1385.790023803711C-307.12501525878906 -1185.8599700927734 -274.0790252685547 -989.1459808349609 -207.75601196289062 -798.5049896240234C-172.42601013183594 -696.9910125732422 -155.291015625 -596.0040130615234 -155.291015625 -500.4669952392578C-155.291015625 -298.23097229003906 -232.0740203857422 -120.4119873046875 -375.59901428222656 -13.695877075195312C-382.86802673339844 -8.318130493164062 -383.9180145263672 -6.93170166015625 -383.9180145263672 -2.772369384765625C-383.9180145263672 1.386962890625 -382.86802673339844 2.773406982421875 -375.59901428222656 8.151107788085938C-231.76602172851562 115.07601928710938 -155.5740203857422 289.8330383300781 -155.5740203857422 491.87103271484375C-155.5740203857422 589.0390319824219 -173.197021484375 692.5160217285156 -209.39501953125 797.7920227050781C-215.86502075195312 816.5300598144531 -223.17501831054688 838.6290588378906 -226.99801635742188 850.7290344238281C-280.69102478027344 1021.8500061035156 -307.4540252685547 1198.1000061035156 -307.4540252685547 1381.1500549316406C-307.4540252685547 1424.5899963378906 -306.86500549316406 1446.4800109863281 -304.5550079345703 1487.8600158691406C-287.24501037597656 1795.1000061035156 -190.06800842285156 2115.459991455078 -22.729217529296875 2416.570098876953C-15.923110961914062 2428.830108642578 -14.872711181640625 2430.179962158203 -11.301620483398438 2431.100128173828Z" fill="black" /></g></svg>