<?xml version="1.0" encoding="utf-8" ?>
<svg baseProfile="tiny" height="100%" version="1.2" width="100%" xmlns="http://www.w3.org/2000/svg" xmlns:ev="http://www.w3.org/2001/xml-events" xmlns:xlink="http://www.w3.org/1999/xlink"><defs /><g transform="translate(0, 1000) scale(1, -1)"><path d="M-19.072494506835938 683.3880004882812C-18.667083740234375 683.4580078125 -18.257278442382812 683.4920043945312 -17.846481323242188 683.4920043945312C-14.154083251953125 683.4920043945312 -10.38958740234375 680.7429809570312 -9.22650146484375 676.9630126953125C-8.978851318359375 676.1530151367188 -8.847869873046875 675.3820190429688 -8.847869873046875 674.5880126953125C-8.847869873046875 672.7000122070312 -9.58795166015625 670.6790161132812 -11.260284423828125 667.6680297851562C-32.87199401855469 628.5889892578125 -48.42018127441406 579.1309814453125 -53.09608459472656 534.6719970703125C-53.19108581542969 533.6840209960938 -53.49519348144531 530.8519897460938 -53.742279052734375 528.4000244140625C-55.34999084472656 513.155029296875 -56.15208435058594 497.4100036621094 -56.15208435058594 481.18499755859375C-56.15208435058594 411.47198486328125 -41.34397888183594 332.91400146484375 -12.0015869140625 247.27699279785156C-3.8993377685546875 223.63800048828125 -0.0064849853515625 202.79299926757812 -0.0064849853515625 181.5330047607422C-0.0064849853515625 171.92100524902344 -0.802337646484375 162.22300720214844 -2.3647613525390625 152.1439971923828C-10.994186401367188 96.35699462890625 -42.6038818359375 48.115692138671875 -100.51997375488281 2.3644256591796875C-102.61097717285156 0.71075439453125 -104.32197570800781 -0.69580078125 -104.32197570800781 -0.7718353271484375C-104.32197570800781 -0.847869873046875 -102.61097717285156 -2.254425048828125 -100.51997375488281 -3.9080963134765625C-42.6038818359375 -49.659393310546875 -10.994186401367188 -97.90069580078125 -2.3647613525390625 -153.68800354003906C-0.799835205078125 -163.80999755859375 1.52587890625e-05 -173.5019989013672 1.52587890625e-05 -183.10499572753906C1.52587890625e-05 -204.40899658203125 -3.9373016357421875 -225.27000427246094 -12.191680908203125 -249.39100646972656C-38.27008056640625 -325.61199951171875 -52.29768371582031 -393.6780090332031 -55.60508728027344 -459.9949951171875C-55.77607727050781 -463.2929992675781 -55.86167907714844 -472.50201416015625 -55.86167907714844 -481.66400146484375C-55.86167907714844 -490.82598876953125 -55.77607727050781 -499.94000244140625 -55.60508728027344 -503.0480041503906C-52.2786865234375 -566.2100219726562 -37.90898132324219 -619.4879760742188 -11.260284423828125 -667.6920166015625C-9.245513916015625 -671.302978515625 -8.941390991210938 -672.2150268554688 -8.941390991210938 -674.4010009765625C-8.941390991210938 -679.8699951171875 -13.375579833984375 -683.4920043945312 -17.9976806640625 -683.4920043945312C-20.202880859375 -683.4920043945312 -22.45098876953125 -682.6680297851562 -24.280487060546875 -680.8259887695312C-25.287887573242188 -679.7990112304688 -25.915176391601562 -678.8109741210938 -28.614288330078125 -673.926025390625C-50.28288269042969 -634.7509765625 -68.24508666992188 -596.3939819335938 -81.89259338378906 -560.166015625C-107.52098083496094 -492.1340026855469 -120.20597839355469 -427.8370056152344 -120.20597839355469 -365.0329895019531C-120.20597839355469 -339.24200439453125 -118.06698608398438 -313.7040100097656 -113.80598449707031 -288.2619934082031C-109.66297912597656 -263.41900634765625 -103.97898864746094 -241.63600158691406 -94.19047546386719 -212.89700317382812C-84.36358642578125 -184.10000610351562 -78.94639587402344 -158.70599365234375 -76.72248840332031 -131.16400146484375C-76.48487854003906 -128.24600219726562 -76.36607360839844 -122.49700927734375 -76.36607360839844 -116.81100463867188C-76.36607360839844 -111.125 -76.48487854003906 -105.50399780273438 -76.72248840332031 -102.84300231933594C-80.42898559570312 -60.85490417480469 -96.14828491210938 -29.796401977539062 -124.41297912597656 -8.679000854492188C-127.44398498535156 -6.417083740234375 -128.95999145507812 -3.5944671630859375 -128.95999145507812 -0.7718353271484375C-128.95999145507812 2.0507965087890625 -127.44398498535156 4.8734130859375 -124.41297912597656 7.1353302001953125C-99.85478210449219 25.477691650390625 -84.24948120117188 52.411407470703125 -78.5662841796875 86.18789672851562C-77.04048156738281 95.264404296875 -76.28248596191406 104.91900634765625 -76.28248596191406 115.07598876953125C-76.28248596191406 144.65199279785156 -82.71028137207031 178.49200439453125 -95.33097839355469 214.7550048828125C-111.98597717285156 262.66900634765625 -120.33299255371094 312.63800048828125 -120.33299255371094 363.9289855957031C-120.33299255371094 400.0299987792969 -116.19798278808594 436.7869873046875 -107.91398620605469 473.9429931640625C-103.02897644042969 495.7829895019531 -95.38798522949219 522.5830078125 -88.52618408203125 541.7999877929688L-81.15127563476562 562.0430297851562C-67.44677734375 598.0819702148438 -49.940765380859375 635.3369750976562 -28.614273071289062 673.9030151367188C-24.3565673828125 681.6010131835938 -23.311172485351562 682.64599609375 -19.072463989257812 683.3880004882812Z" fill="black" /></g></svg>