<?xml version="1.0" encoding="utf-8" ?>
<svg baseProfile="tiny" height="100%" version="1.2" width="100%" xmlns="http://www.w3.org/2000/svg" xmlns:ev="http://www.w3.org/2001/xml-events" xmlns:xlink="http://www.w3.org/1999/xlink"><defs /><g transform="translate(0, 1000) scale(1, -1)"><path d="M-13.364593505859375 4539.6201171875C-12.416107177734375 4540.0400390625 -11.021804809570312 4540.240234375 -9.554824829101562 4540.240234375C-7.246978759765625 4540.240234375 -4.7593231201171875 4539.75 -3.544708251953125 4538.8798828125C-1.2003936767578125 4537.14990234375 0.0 4535.27978515625 0.0 4532.66015625C0.0 4529.4501953125 -1.8089752197265625 4525.10986328125 -5.5313873291015625 4518.509765625C-179.906005859375 4209.60009765625 -301.093994140625 3845.18994140625 -356.15399169921875 3464.429931640625C-379.6990051269531 3301.610107421875 -391.36700439453125 3133.860107421875 -391.36700439453125 2963.1298828125C-391.36700439453125 2516.070068359375 -311.3680114746094 2048.580078125 -155.15699768066406 1595.800048828125C-141.19400024414062 1555.3299560546875 -134.83599853515625 1536.260009765625 -129.72799682617188 1519.4599609375C-91.3302001953125 1392.5699462890625 -72.6597900390625 1263.8199462890625 -72.6597900390625 1136.22998046875C-72.6597900390625 710.8070068359375 -280.23199462890625 298.3179931640625 -656.2000122070312 10.99310302734375C-665.1119995117188 4.23834228515625 -673.4559936523438 -2.1190643310546875 -674.7620239257812 -3.0272674560546875C-676.2730102539062 -4.0538482666015625 -677.0250244140625 -4.62200927734375 -677.0250244140625 -5.192352294921875C-677.0250244140625 -5.7572784423828125 -676.2869873046875 -6.3243560791015625 -674.8179931640625 -7.341217041015625C-673.4559936523438 -8.249404907226562 -665.1119995117188 -14.606796264648438 -656.2000122070312 -21.361602783203125C-280.23199462890625 -308.68701171875 -72.6597900390625 -721.176025390625 -72.6597900390625 -1146.5999755859375C-72.6597900390625 -1274.18994140625 -91.3302001953125 -1402.93994140625 -129.72799682617188 -1529.8299560546875C-134.83599853515625 -1546.6300048828125 -141.19400024414062 -1565.760009765625 -155.15699768066406 -1606.1700439453125C-310.6619873046875 -2057.0 -390.375 -2523.090087890625 -390.375 -2968.419921875C-390.375 -3137.050048828125 -378.9440002441406 -3302.7099609375 -355.8699951171875 -3463.43994140625C-301.1510009765625 -3844.830078125 -180.0760040283203 -4209.47021484375 -5.5313873291015625 -4518.66015625C-1.9292755126953125 -4525.0400390625 -0.121063232421875 -4529.97021484375 -0.121063232421875 -4533.490234375C-0.121063232421875 -4538.02001953125 -3.1064300537109375 -4540.22998046875 -9.107437133789062 -4540.22998046875L-10.371414184570312 -4540.240234375C-15.4857177734375 -4540.240234375 -16.229019165039062 -4538.52001953125 -42.540618896484375 -4490.27978515625C-313.3550109863281 -3994.39990234375 -477.2279968261719 -3458.840087890625 -520.5380249023438 -2928.449951171875C-528.2830200195312 -2833.39990234375 -532.135986328125 -2738.280029296875 -532.135986328125 -2643.409912109375C-532.135986328125 -2264.1201171875 -470.5419921875 -1888.9300537109375 -349.8529968261719 -1538.6199951171875C-306.7699890136719 -1413.5799560546875 -286.4490051269531 -1336.27001953125 -268.7959899902344 -1229.8399658203125C-255.02699279785156 -1146.969970703125 -247.89199829101562 -1058.27001953125 -247.89199829101562 -973.6859741210938C-247.89199829101562 -943.5479736328125 -248.79800415039062 -913.9320068359375 -250.6320037841797 -885.2869873046875C-274.2449951171875 -518.0900268554688 -435.6780090332031 -203.00201416015625 -696.9559936523438 -14.37982177734375C-701.0139770507812 -11.456512451171875 -703.0430297851562 -8.320388793945312 -703.0430297851562 -5.1842498779296875C-703.0430297851562 -2.048126220703125 -701.0139770507812 1.0879974365234375 -696.9559936523438 4.0112762451171875C-435.6780090332031 192.6329803466797 -274.2449951171875 507.7219696044922 -250.6320037841797 874.9189910888672C-248.8159942626953 902.9589691162109 -248.53199768066406 912.2679901123047 -248.2480010986328 953.3079681396484C-248.2169952392578 957.4680023193359 -248.2010040283203 961.6229705810547 -248.2010040283203 965.7739715576172C-248.2010040283203 1142.3599700927734 -276.5400085449219 1310.989974975586 -335.54901123046875 1485.969955444336L-356.0400085449219 1546.699935913086C-473.58599853515625 1894.8199310302734 -532.9010009765625 2260.689926147461 -532.9010009765625 2637.449935913086C-532.9010009765625 2643.489974975586 -532.885986328125 2649.520004272461 -532.85498046875 2655.560043334961C-532.5709838867188 2713.739974975586 -532.343994140625 2726.570053100586 -530.7550048828125 2767.669906616211C-508.04998779296875 3363.840072631836 -336.3429870605469 3960.639877319336 -27.1011962890625 4518.220199584961C-16.032501220703125 4538.200180053711 -15.862197875976562 4538.430160522461 -13.364593505859375 4539.620101928711Z" fill="black" /></g></svg>