<?xml version="1.0" encoding="utf-8" ?>
<svg baseProfile="tiny" height="100%" version="1.2" width="100%" xmlns="http://www.w3.org/2000/svg" xmlns:ev="http://www.w3.org/2001/xml-events" xmlns:xlink="http://www.w3.org/1999/xlink"><defs /><g transform="translate(0, 1000) scale(1, -1)"><path d="M-13.083892822265625 2004.4300537109375C-11.934494018554688 2004.9599609375 -10.686004638671875 2005.2099609375 -9.43328857421875 2005.2099609375C-5.5760345458984375 2005.2099609375 -1.6795806884765625 2002.8699951171875 -0.51873779296875 1999.3299560546875C-0.195404052734375 1998.3399658203125 0.0 1997.47998046875 0.0 1996.550048828125C0.0 1994.0400390625 -1.43719482421875 1991.010009765625 -5.6573028564453125 1983.3900146484375C-95.56350708007812 1820.6400146484375 -147.69900512695312 1631.6800537109375 -158.23899841308594 1430.3399658203125C-159.58200073242188 1404.3199462890625 -160.32699584960938 1368.8699951171875 -160.32699584960938 1337.469970703125C-160.32699584960938 1319.760009765625 -160.08999633789062 1303.3399658203125 -159.58900451660156 1290.6199951171875C-151.8249969482422 1093.52001953125 -113.52999877929688 898.2130126953125 -43.35260009765625 698.1840209960938C-22.979293823242188 640.0549926757812 -12.794906616210938 577.5009765625 -12.794906616210938 514.718994140625C-12.794906616210938 450.7049865722656 -23.38250732421875 386.4530029296875 -44.55290222167969 326.4070129394531C-55.9927978515625 293.9630126953125 -73.43389892578125 254.61700439453125 -85.54888916015625 234.0260009765625L-90.53738403320312 225.21099853515625C-123.88197326660156 165.01100158691406 -174.92996215820312 101.73599243164062 -232.12896728515625 49.674896240234375C-250.43296813964844 32.9840087890625 -280.51397705078125 8.116302490234375 -293.37896728515625 -0.9605712890625C-294.3359680175781 -1.6544647216796875 -294.81396484375 -1.9639129638671875 -294.81396484375 -2.273345947265625C-294.81396484375 -2.5827789306640625 -294.3359680175781 -2.8922271728515625 -293.37896728515625 -3.58612060546875C-280.51397705078125 -12.662994384765625 -250.43296813964844 -37.53070068359375 -232.12896728515625 -54.22160339355469C-174.92996215820312 -106.28199768066406 -123.88197326660156 -169.55799865722656 -90.53736877441406 -229.75799560546875L-85.54887390136719 -238.57200622558594C-67.88267517089844 -268.6539764404297 -45.11549377441406 -324.3149871826172 -33.93818664550781 -364.78599548339844C-19.613189697265625 -416.63499450683594 -12.437591552734375 -467.5129852294922 -12.437591552734375 -518.3569793701172C-12.437591552734375 -582.2700042724609 -23.775588989257812 -646.1320037841797 -46.50328063964844 -711.8079681396484C-121.66899108886719 -928.9029998779297 -159.73898315429688 -1142.8799896240234 -159.73898315429688 -1348.239974975586C-159.73898315429688 -1385.6399993896484 -159.55198669433594 -1395.719955444336 -158.4259796142578 -1419.8799896240234C-148.63697814941406 -1628.199935913086 -97.28878784179688 -1817.6099700927734 -5.65728759765625 -1983.4300384521484C-1.4371795654296875 -1991.050033569336 1.52587890625e-05 -1994.0899505615234 1.52587890625e-05 -1996.5999603271484C1.52587890625e-05 -1997.530014038086 -0.1953887939453125 -1998.3799896240234 -0.5187225341796875 -1999.3799896240234C-1.7352752685546875 -2003.0899505615234 -5.522430419921875 -2005.209945678711 -9.2840576171875 -2005.209945678711C-11.669189453125 -2005.209945678711 -14.044082641601562 -2004.3599700927734 -15.74688720703125 -2002.530014038086C-19.160079956054688 -1998.8499603271484 -52.091888427734375 -1936.959945678711 -70.13319396972656 -1900.3499603271484C-196.87098693847656 -1642.989974975586 -260.7439727783203 -1385.449935913086 -260.7439727783203 -1131.8299407958984C-260.7439727783203 -1128.449935913086 -260.7329864501953 -1125.0699310302734 -260.70997619628906 -1121.689926147461C-260.48497009277344 -1090.709945678711 -260.33497619628906 -1084.749984741211 -259.13499450683594 -1059.989974975586C-252.42098999023438 -923.7639617919922 -227.36598205566406 -793.3499603271484 -183.3319854736328 -665.2230072021484C-166.302978515625 -615.6379852294922 -156.70098876953125 -580.3430023193359 -148.67398071289062 -537.7719573974609C-140.0139923095703 -491.7639923095703 -135.76998901367188 -446.8769989013672 -135.76998901367188 -403.66697692871094C-135.76998901367188 -239.14398193359375 -197.29998779296875 -98.92369079589844 -310.89598083496094 -13.63818359375C-319.10997009277344 -7.44940185546875 -319.70997619628906 -6.6617431640625 -319.70997619628906 -2.2733306884765625C-319.70997619628906 2.115081787109375 -319.10997009277344 2.902740478515625 -310.89598083496094 9.091522216796875C-196.3289794921875 95.11721801757812 -135.77297973632812 235.89401245117188 -135.77297973632812 399.0850067138672C-135.77297973632812 479.73301696777344 -150.56298828125 565.8560333251953 -180.9309844970703 653.5500030517578C-232.80398559570312 803.3939971923828 -258.5719757080078 949.5620269775391 -261.19798278808594 1108.780044555664C-261.3249969482422 1116.560073852539 -261.3879852294922 1124.3499908447266 -261.3879852294922 1132.1500396728516C-261.3879852294922 1412.770034790039 -179.42698669433594 1707.8800201416016 -22.760879516601562 1990.699966430664C-16.647079467773438 2001.729995727539 -15.521881103515625 2003.310073852539 -13.083877563476562 2004.4300689697266Z" fill="black" /></g></svg>