<?xml version="1.0" encoding="utf-8" ?>
<svg baseProfile="tiny" height="100%" version="1.2" width="100%" xmlns="http://www.w3.org/2000/svg" xmlns:ev="http://www.w3.org/2001/xml-events" xmlns:xlink="http://www.w3.org/1999/xlink"><defs /><g transform="translate(0, 1000) scale(1, -1)"><path d="M-18.594894409179688 801.4329833984375C-17.857681274414062 801.5560302734375 -17.461181640625 801.6179809570312 -17.070281982421875 801.6179809570312C-16.67938232421875 801.6179809570312 -16.294082641601562 801.5560302734375 -15.57928466796875 801.4329833984375C-11.095077514648438 800.708984375 -7.932342529296875 796.9080200195312 -7.932342529296875 792.572021484375C-7.932342529296875 792.0910034179688 -7.971221923828125 791.60400390625 -8.051467895507812 791.1129760742188C-8.274856567382812 789.572021484375 -8.810958862304688 788.47802734375 -12.161590576171875 782.3350219726562C-26.278976440429688 756.5789794921875 -39.21247863769531 724.3460083007812 -47.3433837890625 694.7260131835938C-54.91587829589844 667.1170043945312 -61.03639221191406 632.6500244140625 -62.7786865234375 607.7659912109375L-63.337188720703125 600.0599975585938C-64.27359008789062 587.198974609375 -64.739990234375 574.030029296875 -64.739990234375 560.5750122070312C-64.739990234375 479.031005859375 -47.60820007324219 386.97698974609375 -14.149703979492188 289.3429870605469C-4.6338958740234375 261.6059875488281 0.0 236.7050018310547 0.0 211.58099365234375C0.0 197.25 -1.5078277587890625 182.8470001220703 -4.4774627685546875 167.8040008544922C-16.606796264648438 106.46499633789062 -57.52940368652344 47.00189208984375 -119.78399658203125 0.293853759765625C-120.68899536132812 -0.37628173828125 -121.1409912109375 -0.6555023193359375 -121.1409912109375 -0.934722900390625C-121.1409912109375 -1.2139434814453125 -120.68899536132812 -1.4931640625 -119.78399658203125 -2.1632843017578125C-112.12300109863281 -7.9264068603515625 -98.60830688476562 -19.296295166015625 -89.80729675292969 -27.38250732421875C-30.7333984375 -81.81280517578125 -0.17694091796875 -145.4250030517578 -0.17694091796875 -212.9550018310547C-0.17694091796875 -225.98899841308594 -1.315185546875 -239.16900634765625 -3.606292724609375 -252.45700073242188C-5.6613616943359375 -264.4070129394531 -8.386566162109375 -274.43701171875 -14.149703979492188 -291.2120056152344C-47.673309326171875 -388.91900634765625 -64.43380737304688 -479.385009765625 -64.43380737304688 -561.1309814453125C-64.43380737304688 -644.4819946289062 -47.008697509765625 -718.7680053710938 -12.161605834960938 -782.4169921875C-8.77972412109375 -788.5759887695312 -7.8798980712890625 -790.43701171875 -7.8798980712890625 -792.3629760742188C-7.8798980712890625 -792.85400390625 -7.938385009765625 -793.3489990234375 -8.029144287109375 -793.9210205078125C-8.781723022460938 -798.6069946289062 -12.598907470703125 -801.6179809570312 -16.93359375 -801.6179809570312C-18.259994506835938 -801.6179809570312 -19.63470458984375 -801.3359985351562 -20.985000610351562 -800.7340087890625C-23.241104125976562 -799.7059936523438 -24.134597778320312 -798.5449829101562 -27.976699829101562 -791.5759887695312C-98.58169555664062 -663.8049926757812 -133.38600158691406 -545.43701171875 -133.38600158691406 -431.9280090332031C-133.38600158691406 -398.84698486328125 -130.42999267578125 -366.1780090332031 -124.5419921875 -333.80999755859375C-119.62799072265625 -306.82598876953125 -113.37300109863281 -283.4389953613281 -102.69599914550781 -252.12100219726562C-91.14749145507812 -218.3249969482422 -84.87060546875 -188.1020050048828 -82.63690185546875 -155.51100158691406C-82.444091796875 -152.86900329589844 -82.34919738769531 -146.8260040283203 -82.34919738769531 -140.89300537109375C-82.34919738769531 -135.13800048828125 -82.43850708007812 -129.48500061035156 -82.614501953125 -127.14199829101562C-86.54598999023438 -75.00630187988281 -105.6669921875 -35.82609558105469 -139.73199462890625 -10.093093872070312C-144.1580047607422 -6.7495269775390625 -145.82200622558594 -4.456146240234375 -145.82200622558594 -1.3166351318359375C-145.82200622558594 -0.76470947265625 -145.77099609375 -0.1866455078125 -145.6739959716797 0.427886962890625C-145.16000366210938 3.555145263671875 -144.177001953125 4.873077392578125 -139.73199462890625 8.223724365234375C-102.42599487304688 36.398193359375 -82.34649658203125 82.26669311523438 -82.34649658203125 139.25100708007812V139.3459930419922C-82.34649658203125 145.0859832763672 -82.48049926757812 151.47499084472656 -82.63690185546875 153.64198303222656C-84.9822998046875 187.6619873046875 -91.32620239257812 217.3929901123047 -104.23699951171875 254.8309783935547C-123.73800659179688 311.41197204589844 -133.48899841308594 370.8249969482422 -133.48899841308594 431.53599548339844C-133.48899841308594 490.92897033691406 -124.156005859375 551.5649871826172 -105.48800659179688 612.0099945068359C-86.54598999023438 673.3270111083984 -62.443603515625 729.1489715576172 -27.976699829101562 791.4929656982422C-23.576202392578125 799.4899749755859 -22.3251953125 800.7859954833984 -18.594894409179688 801.4329681396484Z" fill="black" /></g></svg>