<?xml version="1.0" encoding="utf-8" ?>
<svg baseProfile="tiny" height="100%" version="1.2" width="100%" xmlns="http://www.w3.org/2000/svg" xmlns:ev="http://www.w3.org/2001/xml-events" xmlns:xlink="http://www.w3.org/1999/xlink"><defs /><g transform="translate(0, 1000) scale(1, -1)"><path d="M-11.650299072265625 2496.300048828125C-10.714096069335938 2496.6298828125 -9.768447875976562 2496.7900390625 -8.8421630859375 2496.7900390625C-4.175567626953125 2496.7900390625 0.0 2492.800048828125 0.0 2487.580078125V2484.35009765625L-5.9977264404296875 2473.60009765625C-50.1392822265625 2394.3798828125 -88.97358703613281 2305.14990234375 -119.43698120117188 2212.93994140625C-175.99098205566406 2041.8299560546875 -204.14598083496094 1855.9100341796875 -204.14598083496094 1660.97998046875C-204.14598083496094 1408.3900146484375 -156.87498474121094 1140.6600341796875 -62.8682861328125 870.35302734375C-43.019683837890625 813.3090209960938 -30.376983642578125 754.4110107421875 -25.501190185546875 696.2459716796875C-23.808090209960938 676.1630249023438 -22.96759033203125 656.1170043945312 -22.96759033203125 636.1389770507812C-22.96759033203125 438.6990051269531 -105.05598449707031 247.86199951171875 -257.59999084472656 93.71080017089844C-291.68797302246094 59.23460388183594 -327.8469696044922 27.692596435546875 -363.8769989013672 0.94012451171875C-366.5089874267578 -1.04473876953125 -368.70997619628906 -2.8138427734375 -368.70997619628906 -2.9864501953125C-368.70997619628906 -3.1590576171875 -366.5089874267578 -4.92816162109375 -363.8769989013672 -6.91302490234375C-209.44598388671875 -121.64700317382812 -96.09318542480469 -281.2550048828125 -49.40577697753906 -449.5799865722656C-31.766586303710938 -513.135009765625 -22.970291137695312 -577.6270141601562 -22.970291137695312 -641.9199829101562C-22.970291137695312 -721.0609741210938 -36.29869079589844 -799.9019775390625 -62.8682861328125 -876.3250122070312C-145.02398681640625 -1112.52001953125 -192.4879913330078 -1351.7900390625 -201.72198486328125 -1576.199951171875C-202.88697814941406 -1604.9000244140625 -203.0599822998047 -1613.1800537109375 -203.31898498535156 -1650.6400146484375C-203.34498596191406 -1654.8699951171875 -203.3579864501953 -1659.0999755859375 -203.3579864501953 -1663.3299560546875C-203.3579864501953 -1965.0799560546875 -136.5089874267578 -2239.7099609375 -5.997711181640625 -2473.969970703125L1.52587890625e-05 -2484.7099609375V-2487.949951171875C1.52587890625e-05 -2493.60009765625 -3.193023681640625 -2496.7900390625 -8.845565795898438 -2496.7900390625H-9.17510986328125C-14.668594360351562 -2496.7900390625 -14.731292724609375 -2496.580078125 -26.623001098632812 -2475.0C-195.37899780273438 -2169.1201171875 -293.3280029296875 -1843.949951171875 -310.8900146484375 -1531.760009765625C-312.885986328125 -1496.030029296875 -313.97698974609375 -1451.1199951171875 -313.97698974609375 -1412.4100341796875C-313.97698974609375 -1392.550048828125 -313.69000244140625 -1374.3299560546875 -313.0899963378906 -1359.81005859375C-304.93499755859375 -1165.300048828125 -274.3420104980469 -1001.2000122070312 -213.2429962158203 -824.7620239257812C-176.61900329589844 -718.9119873046875 -158.18800354003906 -614.197998046875 -158.18800354003906 -514.10400390625C-158.18800354003906 -450.9859924316406 -165.51600646972656 -389.70599365234375 -180.23399353027344 -331.135986328125C-213.11399841308594 -200.26400756835938 -285.1730041503906 -88.42179870605469 -383.9410095214844 -15.025100708007812C-392.6570129394531 -8.552688598632812 -393.5199890136719 -7.430816650390625 -393.5199890136719 -2.9864501953125C-393.5199890136719 1.457916259765625 -392.6570129394531 2.5797882080078125 -383.9410095214844 9.052154541015625C-263.77099609375 98.37091064453125 -185.0240020751953 242.18699645996094 -164.18299865722656 410.3819885253906C-160.1490020751953 443.0369873046875 -158.1230010986328 475.8599853515625 -158.1230010986328 508.9849853515625C-158.1230010986328 609.7979736328125 -176.88400268554688 713.4030151367188 -214.88299560546875 823.5360107421875C-280.68499755859375 1014.219970703125 -314.57501220703125 1210.6600341796875 -314.57501220703125 1412.969970703125C-314.57501220703125 1453.4300537109375 -313.5360107421875 1494.1300048828125 -311.06201171875 1535.0699462890625C-292.1199951171875 1849.18994140625 -193.91200256347656 2172.3798828125 -24.249801635742188 2478.949951171875C-15.835693359375 2494.139892578125 -15.188507080078125 2495.050048828125 -11.650299072265625 2496.300048828125Z" fill="black" /></g></svg>