<?xml version="1.0" encoding="utf-8" ?>
<svg baseProfile="tiny" height="100%" version="1.2" width="100%" xmlns="http://www.w3.org/2000/svg" xmlns:ev="http://www.w3.org/2001/xml-events" xmlns:xlink="http://www.w3.org/1999/xlink"><defs /><g transform="translate(0, 1000) scale(1, -1)"><path d="M-11.184906005859375 2157.030029296875C-10.439605712890625 2157.199951171875 -9.707794189453125 2157.2900390625 -8.9903564453125 2157.2900390625C-7.220977783203125 2157.2900390625 -5.539215087890625 2156.760009765625 -3.959625244140625 2155.699951171875C-1.3583526611328125 2153.919921875 -0.012451171875 2152.219970703125 -0.012451171875 2149.6298828125C-0.012451171875 2146.510009765625 -1.961761474609375 2142.110107421875 -6.018218994140625 2134.75C-105.63800048828125 1953.949951171875 -162.0279998779297 1746.0799560546875 -172.15899658203125 1522.1300048828125C-173.24899291992188 1497.8699951171875 -173.41099548339844 1490.1199951171875 -173.6529998779297 1455.9300537109375C-173.67799377441406 1452.02001953125 -173.69000244140625 1448.1099853515625 -173.69000244140625 1444.199951171875C-173.69000244140625 1219.449951171875 -132.63800048828125 991.3759765625 -48.88560485839844 750.156005859375C-26.622406005859375 686.0919799804688 -15.682693481445312 619.760986328125 -15.682693481445312 553.364013671875C-15.682693481445312 417.1570129394531 -61.7200927734375 280.6759948730469 -150.48399353027344 162.93099975585938C-195.81300354003906 102.74700927734375 -261.97100830078125 37.39630126953125 -317.0690002441406 -1.7171173095703125L-318.0780029296875 -2.4436798095703125L-317.0690002441406 -3.1298828125C-306.2909851074219 -10.839599609375 -279.6910095214844 -32.3135986328125 -263.7869873046875 -46.23939514160156C-101.97599792480469 -187.98699951171875 -15.749603271484375 -369.8489990234375 -15.749603271484375 -556.2459716796875C-15.749603271484375 -624.0969848632812 -27.175506591796875 -692.5499877929688 -50.540496826171875 -759.8880004882812C-132.61099243164062 -996.385009765625 -173.50999450683594 -1227.2099609375 -173.50999450683594 -1444.0899658203125C-173.50999450683594 -1698.5799560546875 -117.19699096679688 -1933.8699951171875 -5.00909423828125 -2136.610107421875C-1.2027587890625 -2143.47998046875 0.0 -2146.10009765625 0.0 -2148.3701171875C0.0 -2148.949951171875 -0.07598876953125 -2149.5 -0.2057037353515625 -2150.090087890625C-1.203155517578125 -2154.530029296875 -5.0377044677734375 -2157.2900390625 -9.109603881835938 -2157.2900390625C-10.80499267578125 -2157.2900390625 -12.54150390625 -2156.81005859375 -14.131500244140625 -2155.780029296875C-18.813796997070312 -2152.7900390625 -62.77099609375 -2069.39990234375 -88.92739868164062 -2014.02001953125C-214.4550018310547 -1747.97998046875 -277.5060119628906 -1481.719970703125 -277.5060119628906 -1222.5799560546875C-277.5060119628906 -1049.5 -249.3769989013672 -879.60302734375 -192.94700622558594 -715.0830078125C-164.2480010986328 -631.3660278320312 -150.0399932861328 -564.56298828125 -144.50999450683594 -487.2239990234375C-143.3040008544922 -470.2929992675781 -142.70700073242188 -453.5350036621094 -142.70700073242188 -436.98199462890625C-142.70700073242188 -258.4649963378906 -212.07899475097656 -103.7760009765625 -334.8290100097656 -12.978897094726562C-340.27801513671875 -8.942413330078125 -343.00299072265625 -5.69305419921875 -343.00299072265625 -2.443695068359375C-343.00299072265625 0.8056640625 -340.27801513671875 4.055023193359375 -334.8290100097656 8.091506958007812C-212.07899475097656 98.88870239257812 -142.70700073242188 253.57699584960938 -142.70700073242188 432.093994140625C-142.70700073242188 448.6470031738281 -143.3040008544922 465.406005859375 -144.50999450683594 482.3370056152344C-150.0399932861328 559.4739990234375 -164.32899475097656 626.9229736328125 -192.78599548339844 709.6300048828125C-241.26400756835938 850.7050170898438 -268.4700012207031 991.4569702148438 -275.8559875488281 1139.469970703125C-277.510986328125 1172.1300048828125 -277.7130126953125 1180.77001953125 -277.7130126953125 1219.5999755859375C-277.7130126953125 1261.4200439453125 -277.14801025390625 1280.75 -274.88800048828125 1318.9000244140625C-258.8219909667969 1588.1700439453125 -173.24899291992188 1869.5899658203125 -26.160202026367188 2136.43994140625C-15.705795288085938 2155.409912109375 -15.221405029296875 2156.10009765625 -11.184906005859375 2157.030029296875Z" fill="black" /></g></svg>