<?xml version="1.0" encoding="utf-8" ?>
<svg baseProfile="tiny" height="100%" version="1.2" width="100%" xmlns="http://www.w3.org/2000/svg" xmlns:ev="http://www.w3.org/2001/xml-events" xmlns:xlink="http://www.w3.org/1999/xlink"><defs /><g transform="translate(0, 1000) scale(1, -1)"><path d="M-13.305496215820312 7086.259765625C-12.0701904296875 7086.81005859375 -10.796890258789062 7087.06982421875 -9.550125122070312 7087.06982421875C-4.56268310546875 7087.06982421875 1.52587890625e-05 7083.0 1.52587890625e-05 7077.93994140625C1.52587890625e-05 7077.5 -0.033660888671875 7077.06005859375 -0.1036224365234375 7076.60986328125C-0.3212432861328125 7075.2998046875 -6.34185791015625 7063.7001953125 -13.523086547851562 7050.7900390625C-420.79798889160156 6316.759765625 -629.4319915771484 5471.4599609375 -629.4319915771484 4570.43994140625C-629.4319915771484 4338.33984375 -615.5879974365234 4102.5400390625 -587.7299652099609 3864.0C-532.7459564208984 3392.93994140625 -425.1009979248047 2926.889892578125 -262.97898864746094 2457.860107421875C-213.21897888183594 2313.800048828125 -185.43698120117188 2204.27001953125 -164.98098754882812 2071.60009765625C-152.3599853515625 1989.47998046875 -146.84698486328125 1933.199951171875 -141.9869842529297 1835.489990234375C-141.04498291015625 1816.4000244140625 -140.59498596191406 1792.1099853515625 -140.59498596191406 1765.719970703125C-140.59498596191406 1716.9300537109375 -142.135986328125 1660.969970703125 -144.9609832763672 1617.510009765625C-185.5089874267578 993.1820068359375 -511.92799377441406 405.70098876953125 -1037.9000396728516 10.5172119140625C-1050.8800201416016 0.797149658203125 -1061.469985961914 -7.3995819091796875 -1061.469985961914 -7.689727783203125C-1061.469985961914 -7.9798736572265625 -1050.8800201416016 -16.17657470703125 -1037.9000396728516 -25.89666748046875C-511.92799377441406 -421.0809631347656 -185.5089874267578 -1008.5599670410156 -144.9609832763672 -1632.8899841308594C-142.135986328125 -1676.3499450683594 -140.59498596191406 -1732.3100280761719 -140.59498596191406 -1781.0999450683594C-140.59498596191406 -1807.4899597167969 -141.04498291015625 -1831.7799987792969 -141.9869842529297 -1850.8699645996094C-146.84698486328125 -1948.5799255371094 -152.3599853515625 -2004.8599548339844 -164.98098754882812 -2086.979949951172C-185.43698120117188 -2219.580047607422 -213.14598083496094 -2329.029998779297 -262.97898864746094 -2473.239959716797C-416.0339813232422 -2916.080047607422 -520.0519866943359 -3354.929901123047 -577.2119598388672 -3798.860076904297C-611.0789642333984 -4061.679901123047 -627.9000091552734 -4321.379852294922 -627.9000091552734 -4576.669891357422C-627.9000091552734 -5474.560028076172 -419.8319854736328 -6317.899871826172 -13.523086547851562 -7050.209930419922C-4.041412353515625 -7067.350067138672 -0.10528564453125 -7074.979949951172 -0.10528564453125 -7079.319793701172C-0.10528564453125 -7082.060028076172 -1.665130615234375 -7083.490203857422 -4.3833465576171875 -7085.169891357422C-6.352935791015625 -7086.359832763672 -7.9898223876953125 -7087.069793701172 -9.558456420898438 -7087.069793701172C-13.940185546875 -7087.069793701172 -17.789382934570312 -7081.519989013672 -26.869979858398438 -7065.220184326172C-409.8679962158203 -6379.959930419922 -661.5729827880859 -5622.089813232422 -754.6379852294922 -4874.229949951172L-760.0789642333984 -4830.339813232422C-785.2579803466797 -4630.629852294922 -799.2109832763672 -4387.029754638672 -799.2109832763672 -4162.140106201172C-799.2109832763672 -4111.680145263672 -798.5089569091797 -4062.159881591797 -797.0729827880859 -4014.300018310547C-779.9539642333984 -3447.779998779297 -682.1739959716797 -2917.019989013672 -495.8249969482422 -2378.939910888672C-459.33799743652344 -2273.620086669922 -433.9499969482422 -2184.679901123047 -411.9709930419922 -2085.529998779297C-372.5129852294922 -1907.4200134277344 -353.30397033691406 -1730.7799987792969 -353.30397033691406 -1558.8999938964844C-353.30397033691406 -933.2519836425781 -607.8040008544922 -370.4960021972656 -1066.6199798583984 -28.2178955078125C-1081.020004272461 -17.518600463867188 -1088.219955444336 -12.604202270507812 -1088.219955444336 -7.6897430419921875C-1088.219955444336 -2.77532958984375 -1081.020004272461 2.1390838623046875 -1066.6199798583984 12.838394165039062C-609.5300140380859 353.8159942626953 -353.35398864746094 915.2859649658203 -353.35398864746094 1543.8699493408203C-353.35398864746094 1664.1199493408203 -362.72999572753906 1786.8299102783203 -381.8679962158203 1910.9300079345703C-405.51597595214844 2064.129837036133 -442.9449920654297 2211.959915161133 -498.5809783935547 2371.539993286133C-678.4739837646484 2887.719924926758 -779.3740081787109 3430.800003051758 -797.7979583740234 3981.870071411133C-799.6840057373047 4039.029983520508 -800.0469818115234 4060.499954223633 -800.4819793701172 4135.649856567383C-800.5389862060547 4146.859817504883 -800.5670013427734 4157.979934692383 -800.5670013427734 4169.009719848633C-800.5670013427734 4313.769973754883 -795.6609954833984 4444.029739379883 -784.7419891357422 4589.009719848633C-779.2289886474609 4661.479934692383 -768.1299896240234 4776.370071411133 -762.6179656982422 4817.140090942383L-757.1769866943359 4860.660110473633C-664.7649993896484 5613.529739379883 -412.1169891357422 6376.549758911133 -27.450302124023438 7064.789993286133C-15.84429931640625 7085.529739379883 -16.279495239257812 7084.879837036133 -13.305496215820312 7086.259719848633Z" fill="black" /></g></svg>