<?xml version="1.0" encoding="utf-8" ?>
<svg baseProfile="tiny" height="100%" version="1.2" width="100%" xmlns="http://www.w3.org/2000/svg" xmlns:ev="http://www.w3.org/2001/xml-events" xmlns:xlink="http://www.w3.org/1999/xlink"><defs /><g transform="translate(0, 1000) scale(1, -1)"><path d="M-15.351104736328125 7421.47998046875C-13.550399780273438 7423.31005859375 -11.301300048828125 7424.1298828125 -9.0845947265625 7424.1298828125C-4.47210693359375 7424.1298828125 0.0 7420.58984375 0.0 7415.25C0.0 7412.2900390625 -1.8998870849609375 7408.56005859375 -15.12310791015625 7384.7001953125C-307.5530090332031 6857.2900390625 -503.0140075683594 6274.259765625 -597.323974609375 5648.1298828125C-639.885009765625 5365.43994140625 -661.0139770507812 5075.75 -661.0139770507812 4782.02001953125C-661.0139770507812 4056.169921875 -531.9910278320312 3305.639892578125 -278.52301025390625 2575.10009765625C-189.79100036621094 2319.35009765625 -149.85800170898438 2091.25 -149.85800170898438 1837.6700439453125C-149.85800170898438 1831.0699462890625 -149.88499450683594 1824.449951171875 -149.93899536132812 1817.81005859375C-150.31900024414062 1766.739990234375 -150.6230010986328 1756.7900390625 -153.13099670410156 1711.0400390625C-189.38099670410156 1050.56005859375 -536.8319854736328 420.178955078125 -1092.3600006103516 7.067535400390625C-1103.300064086914 -1.06396484375 -1112.270034790039 -7.97955322265625 -1112.4200592041016 -8.283523559570312V-8.28900146484375C-1112.4200592041016 -8.646957397460938 -1105.6100006103516 -14.017532348632812 -1097.219985961914 -20.214828491210938C-541.5430450439453 -428.99400329589844 -189.45701599121094 -1065.8399505615234 -153.13101196289062 -1727.759994506836C-150.62301635742188 -1773.499984741211 -150.3190155029297 -1783.459945678711 -149.9390106201172 -1834.530014038086C-149.88902282714844 -1840.770004272461 -149.864013671875 -1846.999984741211 -149.864013671875 -1853.219955444336C-149.864013671875 -2101.179916381836 -189.78701782226562 -2335.639877319336 -272.5960235595703 -2574.719955444336C-347.9070281982422 -2792.070053100586 -407.1830291748047 -2989.580062866211 -457.79600524902344 -3192.570053100586C-592.5680084228516 -3732.360092163086 -659.3339996337891 -4268.339828491211 -659.3339996337891 -4788.819808959961C-659.3339996337891 -5729.020004272461 -441.4560089111328 -6618.600082397461 -12.995193481445312 -7388.499984741211C-1.671905517578125 -7408.939926147461 0.0 -7412.290023803711 0.0 -7415.249984741211C0.0 -7420.589828491211 -4.47210693359375 -7424.129867553711 -9.0845947265625 -7424.129867553711C-11.301300048828125 -7424.129867553711 -13.550399780273438 -7423.310043334961 -15.351104736328125 -7421.479965209961C-17.630905151367188 -7419.200180053711 -29.866195678710938 -7397.700180053711 -53.0447998046875 -7355.220199584961C-567.4650268554688 -6414.890121459961 -834.2550048828125 -5387.660140991211 -834.2550048828125 -4373.609848022461C-834.2550048828125 -4105.169906616211 -815.5590209960938 -3837.659896850586 -777.81298828125 -3572.919906616211C-724.9199829101562 -3201.610092163086 -642.31298828125 -2860.540023803711 -518.2890014648438 -2501.389877319336C-416.78399658203125 -2207.399887084961 -366.4809875488281 -1923.540023803711 -366.4809875488281 -1641.290023803711C-366.4809875488281 -1534.509994506836 -373.6809997558594 -1427.959945678711 -388.0329895019531 -1321.1800384521484C-460.1520080566406 -784.4249725341797 -727.8839721679688 -312.56898498535156 -1123.969970703125 -24.014480590820312C-1133.969970703125 -16.718978881835938 -1138.9599609375 -12.5391845703125 -1138.9599609375 -8.359481811523438C-1138.9599609375 -4.1797332763671875 -1133.969970703125 1.52587890625e-05 -1123.969970703125 7.2955780029296875C-1024.8699951171875 79.49122619628906 -921.9000244140625 175.0170135498047 -837.7730102539062 272.8240203857422C-529.802001953125 631.0760040283203 -366.864990234375 1107.969985961914 -366.864990234375 1620.3900299072266C-366.864990234375 1801.9000396728516 -387.30999755859375 1987.8700103759766 -428.9939880371094 2174.610122680664C-452.2489929199219 2278.800064086914 -477.6310119628906 2367.030044555664 -518.2890014648438 2484.669937133789C-640.9450073242188 2839.870132446289 -722.4119873046875 3173.800064086914 -776.6729736328125 3543.669937133789C-815.9099731445312 3811.080093383789 -835.718994140625 4090.129898071289 -835.718994140625 4369.450210571289C-835.718994140625 4509.410171508789 -830.7449951171875 4649.430191040039 -820.75 4788.089859008789C-815.8109741210938 4856.490249633789 -806.9949951171875 4955.359878540039 -802.8920288085938 4987.580093383789C-802.2839965820312 4992.370132446289 -800.0800170898438 5011.819839477539 -797.9520263671875 5030.740249633789C-713.8250122070312 5784.310073852539 -478.0870056152344 6545.640151977539 -112.625 7243.879898071289C-72.49960327148438 7320.640151977539 -19.606796264648438 7417.080093383789 -15.351104736328125 7421.479995727539Z" fill="black" /></g></svg>