<?xml version="1.0" encoding="utf-8" ?>
<svg baseProfile="tiny" height="100%" version="1.2" width="100%" xmlns="http://www.w3.org/2000/svg" xmlns:ev="http://www.w3.org/2001/xml-events" xmlns:xlink="http://www.w3.org/1999/xlink"><defs /><g transform="translate(0, 1000) scale(1, -1)"><path d="M-11.472305297851562 2045.280029296875C-10.631011962890625 2045.47998046875 -9.80389404296875 2045.5699462890625 -9.002944946289062 2045.5699462890625C-4.70330810546875 2045.5699462890625 -1.157440185546875 2042.8199462890625 -0.2219696044921875 2038.469970703125C-0.0829315185546875 2037.81005859375 -0.003326416015625 2037.2099609375 -0.003326416015625 2036.5899658203125C-0.003326416015625 2034.3299560546875 -1.080718994140625 2031.9200439453125 -4.23992919921875 2026.300048828125C-36.99591064453125 1967.7099609375 -66.76710510253906 1900.5899658203125 -90.76011657714844 1831.3699951171875C-139.60101318359375 1690.3499755859375 -163.9140167236328 1535.510009765625 -163.9140167236328 1371.989990234375C-163.9140167236328 1162.7099609375 -124.08401489257812 939.2219848632812 -44.878814697265625 712.3460083007812C-23.97161865234375 652.47802734375 -13.513015747070312 588.77001953125 -13.513015747070312 524.7979736328125C-13.513015747070312 462.6659851074219 -23.378509521484375 400.2850036621094 -43.11851501464844 340.9330139160156C-54.10101318359375 307.947998046875 -71.97142028808594 266.3900146484375 -85.32630920410156 242.89500427246094L-91.14280700683594 232.447998046875C-137.13902282714844 148.87399291992188 -211.4140167236328 64.91790771484375 -294.03102111816406 3.0795135498046875C-297.85801696777344 0.2095489501953125 -300.99501037597656 -2.20123291015625 -300.99501037597656 -2.3160247802734375C-300.99501037597656 -2.430816650390625 -297.85801696777344 -4.8415985107421875 -294.03102111816406 -7.711578369140625C-211.4140167236328 -69.54998779296875 -137.13902282714844 -153.5059814453125 -91.14280700683594 -237.07998657226562L-85.32630920410156 -247.5269775390625C-71.97142028808594 -271.0220031738281 -54.10101318359375 -312.5799865722656 -43.11851501464844 -345.56500244140625C-23.378509521484375 -404.9169921875 -13.513015747070312 -467.3070068359375 -13.513015747070312 -529.4439697265625C-13.513015747070312 -593.4210205078125 -23.97161865234375 -657.1300048828125 -44.878814697265625 -716.97802734375C-123.78401184082031 -942.89697265625 -163.4860076904297 -1165.0400390625 -163.4860076904297 -1373.43994140625C-163.4860076904297 -1524.739990234375 -142.5600128173828 -1668.7900390625 -100.51802062988281 -1801.7900390625C-75.75971984863281 -1879.969970703125 -40.36341857910156 -1962.4000244140625 -3.2832794189453125 -2028.02001953125C-1.0636444091796875 -2031.949951171875 -1.52587890625e-05 -2034.739990234375 -1.52587890625e-05 -2037.1099853515625C-1.52587890625e-05 -2038.7900390625 -0.53131103515625 -2040.25 -1.5612945556640625 -2041.760009765625C-3.2738494873046875 -2044.300048828125 -6.186248779296875 -2045.5699462890625 -9.086929321289062 -2045.5699462890625C-11.9547119140625 -2045.5699462890625 -14.811019897460938 -2044.3299560546875 -16.485214233398438 -2041.8399658203125C-22.8756103515625 -2032.4599609375 -59.07560729980469 -1963.6199951171875 -75.68321228027344 -1929.4100341796875C-201.85501098632812 -1669.2099609375 -265.3100128173828 -1408.9100341796875 -265.3100128173828 -1156.1300048828125C-265.3100128173828 -1002.4299926757812 -241.85101318359375 -851.5059814453125 -194.7680206298828 -705.0780029296875C-192.3570098876953 -697.5009765625 -190.1380157470703 -690.6890258789062 -189.83201599121094 -689.9619750976562C-188.6070098876953 -686.7479858398438 -179.7680206298828 -660.6890258789062 -177.166015625 -652.6530151367188C-154.93301391601562 -583.7730102539062 -142.80201721191406 -519.8300170898438 -138.36302185058594 -447.7359924316406C-137.95401000976562 -441.0459899902344 -137.71202087402344 -424.2149963378906 -137.71202087402344 -409.46600341796875C-137.71202087402344 -400.7619934082031 -137.7960205078125 -392.78399658203125 -137.98101806640625 -388.0409851074219C-144.1420135498047 -228.5469970703125 -207.20501708984375 -96.41299438476562 -316.5320281982422 -13.87249755859375C-323.68101501464844 -8.495147705078125 -325.8810272216797 -6.223297119140625 -325.8810272216797 -2.893768310546875C-325.8810272216797 -2.1242828369140625 -325.76402282714844 -1.298309326171875 -325.56202697753906 -0.3644561767578125C-324.91200256347656 2.620330810546875 -323.91700744628906 3.6917724609375 -316.5320281982422 9.240402221679688C-207.20501708984375 91.78089904785156 -144.1420135498047 223.9149932861328 -137.98101806640625 383.40899658203125C-137.7960205078125 388.1520080566406 -137.71202087402344 396.1300048828125 -137.71202087402344 404.8340148925781C-137.71202087402344 419.5830078125 -137.95401000976562 436.41400146484375 -138.36302185058594 443.10400390625C-143.3380126953125 524.1519775390625 -156.88401794433594 589.8939819335938 -185.92901611328125 674.0419921875C-238.84600830078125 827.3330078125 -265.7090301513672 989.14501953125 -265.7090301513672 1153.6500244140625C-265.7090301513672 1178.1700439453125 -265.1120147705078 1202.75 -263.91502380371094 1227.3699951171875C-250.94300842285156 1493.6700439453125 -168.74700927734375 1767.81005859375 -23.105209350585938 2030.199951171875C-15.490219116210938 2043.97998046875 -15.107620239257812 2044.43994140625 -11.472320556640625 2045.280029296875Z" fill="black" /></g></svg>