<?xml version="1.0" encoding="utf-8" ?>
<svg baseProfile="tiny" height="100%" version="1.2" width="100%" xmlns="http://www.w3.org/2000/svg" xmlns:ev="http://www.w3.org/2001/xml-events" xmlns:xlink="http://www.w3.org/1999/xlink"><defs /><g transform="translate(0, 1000) scale(1, -1)"><path d="M-11.44549560546875 2546.89990234375C-10.6304931640625 2547.10009765625 -9.823822021484375 2547.199951171875 -9.0384521484375 2547.199951171875C-4.0969085693359375 2547.199951171875 0.0 2543.330078125 0.0 2538.090087890625C0.0 2535.18994140625 -0.0440216064453125 2535.10009765625 -4.666229248046875 2526.820068359375C-120.13299560546875 2319.75 -188.6739959716797 2078.159912109375 -204.87399291992188 1820.93994140625C-207.49600219726562 1779.239990234375 -208.80299377441406 1737.0899658203125 -208.80299377441406 1694.5400390625C-208.80299377441406 1472.050048828125 -173.06199645996094 1238.8699951171875 -102.70098876953125 1004.1300048828125C-91.51980590820312 966.8480224609375 -85.09269714355469 947.0380249023438 -62.289794921875 879.7739868164062C-43.8009033203125 825.2319946289062 -31.563095092773438 766.72802734375 -26.852798461914062 710.5130004882812C-25.139495849609375 690.155029296875 -24.291000366210938 669.8309936523438 -24.291000366210938 649.573974609375C-24.291000366210938 404.9150085449219 -148.0659942626953 170.1009979248047 -366.8710021972656 4.6356353759765625C-372.0660095214844 0.7177581787109375 -376.33599853515625 -2.6718597412109375 -376.33599853515625 -2.8479461669921875C-376.33599853515625 -3.0240325927734375 -372.0660095214844 -6.4136505126953125 -366.8710021972656 -10.375503540039062C-193.60499572753906 -141.47000122070312 -76.464599609375 -320.239990234375 -38.298309326171875 -511.7749938964844C-28.99920654296875 -558.4580078125 -24.358901977539062 -606.5590209960938 -24.358901977539062 -654.4970092773438C-24.358901977539062 -708.2249755859375 -30.187896728515625 -761.7470092773438 -41.82000732421875 -812.8350219726562C-49.08349609375 -844.6179809570312 -55.11439514160156 -865.0440063476562 -70.74179077148438 -910.4299926757812C-112.51800537109375 -1031.6600341796875 -144.43299865722656 -1152.9000244140625 -169.17300415039062 -1284.0799560546875C-195.3990020751953 -1423.1199951171875 -208.38900756835938 -1560.0899658203125 -208.38900756835938 -1693.1300048828125C-208.38900756835938 -1999.5400390625 -139.4770050048828 -2285.080078125 -4.666229248046875 -2526.7900390625C-0.0440216064453125 -2535.070068359375 0.0 -2535.159912109375 0.0 -2538.06005859375C0.0 -2543.64990234375 -4.52655029296875 -2547.199951171875 -9.143829345703125 -2547.199951171875C-11.726104736328125 -2547.199951171875 -14.336700439453125 -2546.090087890625 -16.19970703125 -2543.610107421875C-19.7655029296875 -2538.860107421875 -50.13999938964844 -2482.419921875 -66.95599365234375 -2449.27001953125C-234.8489990234375 -2118.330078125 -319.7099914550781 -1778.97998046875 -319.7099914550781 -1450.219970703125C-319.7099914550781 -1247.0400390625 -287.2980041503906 -1047.9000244140625 -222.04200744628906 -857.2969970703125C-200.91200256347656 -795.6229858398438 -192.63600158691406 -767.2730102539062 -183.08399963378906 -723.6929931640625C-168.07899475097656 -655.3619995117188 -160.74400329589844 -588.551025390625 -160.74400329589844 -524.4019775390625C-160.74400329589844 -311.70098876953125 -241.38400268554688 -128.26800537109375 -390.4670104980469 -15.74609375C-400.7239990234375 -8.042434692382812 -401.3840026855469 -7.206024169921875 -401.3840026855469 -2.8479461669921875C-401.3840026855469 1.510162353515625 -400.7239990234375 2.3465576171875 -390.4670104980469 10.050216674804688C-241.38400268554688 122.57200622558594 -160.74400329589844 306.00502014160156 -160.74400329589844 518.7060089111328C-160.74400329589844 582.8549957275391 -168.07899475097656 649.6660308837891 -183.08399963378906 717.9970245361328C-192.63600158691406 761.5780181884766 -200.91200256347656 789.9270172119141 -222.04200744628906 851.6010284423828C-275.44000244140625 1007.6100006103516 -308.5880126953125 1179.3800201416016 -317.3479919433594 1345.959976196289C-319.5929870605469 1388.750015258789 -319.94500732421875 1403.8900299072266 -319.94500732421875 1449.6300201416016C-319.94500732421875 1497.5699615478516 -319.2850036621094 1521.1600494384766 -316.64300537109375 1565.8399810791016C-297.802001953125 1886.8900299072266 -196.0260009765625 2221.360122680664 -22.494796752929688 2532.760025024414C-15.58349609375 2545.219985961914 -14.967193603515625 2546.010025024414 -11.44549560546875 2546.899917602539Z" fill="black" /></g></svg>