<?xml version="1.0" encoding="utf-8" ?>
<svg baseProfile="tiny" height="100%" version="1.2" width="100%" xmlns="http://www.w3.org/2000/svg" xmlns:ev="http://www.w3.org/2001/xml-events" xmlns:xlink="http://www.w3.org/1999/xlink"><defs /><g transform="translate(0, 1000) scale(1, -1)"><path d="M-11.16619873046875 2171.3798828125C-10.31689453125 2171.56005859375 -9.375228881835938 2171.669921875 -8.931442260742188 2171.669921875L-8.768753051757812 2171.659912109375C-8.443679809570312 2171.580078125 -7.5090789794921875 2171.3798828125 -6.7370147705078125 2171.219970703125C-2.8258209228515625 2170.419921875 -1.52587890625e-05 2165.800048828125 -1.52587890625e-05 2161.72998046875C-1.52587890625e-05 2160.179931640625 -0.4119110107421875 2158.7099609375 -1.3325653076171875 2157.56005859375C-1.901458740234375 2156.830078125 -12.588409423828125 2137.2900390625 -17.871017456054688 2127.25C-122.72901916503906 1928.31005859375 -175.3150177001953 1698.81005859375 -175.3150177001953 1451.3499755859375C-175.3150177001953 1232.0799560546875 -134.02700805664062 998.7119750976562 -51.23231506347656 760.0070190429688C-27.654617309570312 692.0430297851562 -16.159210205078125 623.072021484375 -16.159210205078125 554.791015625C-16.159210205078125 349.58599853515625 -119.98301696777344 150.6179962158203 -311.70201110839844 3.9935760498046875C-316.17201232910156 0.580230712890625 -319.8290252685547 -2.3454742431640625 -319.8290252685547 -2.508026123046875C-319.8290252685547 -2.670562744140625 -316.17201232910156 -5.596282958984375 -311.70201110839844 -9.009613037109375C-138.55702209472656 -141.43899536132812 -34.246917724609375 -319.0950012207031 -18.318008422851562 -508.8190002441406C-16.863616943359375 -526.198974609375 -16.135421752929688 -543.4959716796875 -16.135421752929688 -560.7230224609375C-16.135421752929688 -629.6519775390625 -27.792709350585938 -697.4669799804688 -51.23231506347656 -765.0230102539062C-133.72702026367188 -1002.9099731445312 -174.90701293945312 -1235.239990234375 -174.90701293945312 -1453.5999755859375C-174.90701293945312 -1690.2099609375 -126.55500793457031 -1910.4100341796875 -30.02081298828125 -2103.5C-20.105911254882812 -2123.3701171875 -3.079864501953125 -2155.550048828125 -1.3325653076171875 -2157.699951171875C-0.57781982421875 -2158.64990234375 -0.208587646484375 -2160.340087890625 -0.208587646484375 -2162.139892578125C-0.208587646484375 -2164.219970703125 -0.6999359130859375 -2166.449951171875 -1.6576385498046875 -2167.860107421875C-3.3846282958984375 -2170.39990234375 -6.2798614501953125 -2171.669921875 -9.17510986328125 -2171.669921875C-12.0703125 -2171.669921875 -14.965621948242188 -2170.39990234375 -16.692611694335938 -2167.860107421875C-21.812606811523438 -2160.300048828125 -60.4564208984375 -2087.530029296875 -71.71232604980469 -2064.199951171875L-79.87992858886719 -2047.4599609375C-164.92904663085938 -1874.030029296875 -227.99404907226562 -1679.550048828125 -256.6420440673828 -1502.1400146484375C-268.9540557861328 -1426.030029296875 -274.9280548095703 -1366.0899658203125 -278.2600555419922 -1285.1500244140625C-278.6250457763672 -1276.5799560546875 -278.8080596923828 -1253.4100341796875 -278.8080596923828 -1230.2900390625C-278.8080596923828 -1207.1600341796875 -278.6250457763672 -1184.0699462890625 -278.2600555419922 -1175.6400146484375C-273.62705993652344 -1065.56005859375 -262.0060577392578 -976.6090087890625 -239.53504943847656 -878.5969848632812C-226.5310516357422 -821.9119873046875 -213.9750518798828 -778.8389892578125 -189.2290496826172 -705.8989868164062C-163.30303955078125 -629.3829956054688 -149.4060516357422 -558.5969848632812 -144.40805053710938 -477.531005859375C-144.06304931640625 -471.8420104980469 -143.89004516601562 -456.24798583984375 -143.89004516601562 -440.7049865722656C-143.89004516601562 -425.1619873046875 -144.06304931640625 -409.6700134277344 -144.40805053710938 -404.1839904785156C-147.3750457763672 -358.0639953613281 -152.4950408935547 -323.36199951171875 -162.16604614257812 -284.55499267578125C-190.12203979492188 -172.0780029296875 -251.80604553222656 -76.30110168457031 -336.8550567626953 -13.154403686523438C-342.50404357910156 -8.968978881835938 -345.3280487060547 -5.738494873046875 -345.3280487060547 -2.508026123046875C-345.3280487060547 0.7224578857421875 -342.50404357910156 3.9529266357421875 -336.8550567626953 8.138336181640625C-221.77703857421875 93.55300903320312 -155.33905029296875 228.54200744628906 -144.40805053710938 399.1679992675781C-144.06304931640625 404.65399169921875 -143.89004516601562 420.14599609375 -143.89004516601562 435.6889953613281C-143.89004516601562 451.23199462890625 -144.06304931640625 466.82598876953125 -144.40805053710938 472.5140075683594C-149.4060516357422 553.5809936523438 -163.30303955078125 624.2860107421875 -189.2290496826172 700.8829956054688C-211.7810516357422 767.4019775390625 -220.1110382080078 795.0750122070312 -233.0740509033203 846.7620239257812C-264.10105895996094 970.4149780273438 -279.4810333251953 1097.6800537109375 -279.4810333251953 1226.8499755859375C-279.4810333251953 1533.1300048828125 -193.0220489501953 1850.1700439453125 -23.681838989257812 2155.409912109375C-15.473541259765625 2170.199951171875 -15.270339965820312 2170.489990234375 -11.166244506835938 2171.3798828125Z" fill="black" /></g></svg>