<?xml version="1.0" encoding="utf-8" ?>
<svg baseProfile="tiny" height="100%" version="1.2" width="100%" xmlns="http://www.w3.org/2000/svg" xmlns:ev="http://www.w3.org/2001/xml-events" xmlns:xlink="http://www.w3.org/1999/xlink"><defs /><g transform="translate(0, 1000) scale(1, -1)"><path d="M-17.6708984375 1010.780029296875C-16.52020263671875 1011.27001953125 -15.353302001953125 1011.489990234375 -14.220001220703125 1011.489990234375C-9.516387939453125 1011.489990234375 -5.3904571533203125 1007.6300048828125 -5.3904571533203125 1002.3499755859375V1002.260009765625C-5.390472412109375 999.5590209960938 -5.4150543212890625 999.5189819335938 -10.162017822265625 990.9199829101562C-55.3701171875 908.9400024414062 -79.40760803222656 807.7689819335938 -79.40760803222656 700.2969970703125C-79.40760803222656 693.5599975585938 -79.31312561035156 686.7990112304688 -79.12351989746094 680.0150146484375C-76.28572082519531 577.6530151367188 -56.194915771484375 476.2200012207031 -14.883316040039062 355.29901123046875C-4.9408721923828125 326.2179870605469 -1.52587890625e-05 295.8080139160156 -1.52587890625e-05 265.3299865722656C-1.52587890625e-05 226.05999755859375 -8.202224731445312 186.67599487304688 -24.476715087890625 149.87100219726562C-48.53532409667969 95.45010375976562 -88.46571350097656 46.981201171875 -146.40200805664062 1.8523712158203125C-148.4110107421875 0.2702178955078125 -150.0440216064453 -1.085906982421875 -150.0440216064453 -1.1863555908203125C-150.0440216064453 -1.28680419921875 -148.4110107421875 -2.6429290771484375 -146.40200805664062 -4.2250823974609375C-88.46571350097656 -49.35389709472656 -48.53532409667969 -97.82279968261719 -24.476715087890625 -152.24400329589844C-8.202224731445312 -189.04800415039062 -1.52587890625e-05 -228.43299865722656 -1.52587890625e-05 -267.7019958496094C-1.52587890625e-05 -298.1809997558594 -4.9408721923828125 -328.5899963378906 -14.883316040039062 -357.6709899902344C-49.28871154785156 -458.3760070800781 -68.07362365722656 -541.677978515625 -75.8336181640625 -628.0180053710938C-78.01821899414062 -652.3179931640625 -79.10711669921875 -677.0180053710938 -79.10711669921875 -701.1740112304688C-79.10711669921875 -730.8909912109375 -77.45921325683594 -759.7860107421875 -74.17611694335938 -786.1069946289062C-64.88421630859375 -861.02001953125 -42.68391418457031 -932.041015625 -10.162017822265625 -991.031982421875C-6.5825653076171875 -997.531005859375 -5.1699981689453125 -1000.47998046875 -5.1699981689453125 -1002.8499755859375C-5.1699981689453125 -1004.0900268554688 -5.55560302734375 -1005.1699829101562 -6.219207763671875 -1006.530029296875C-7.7962493896484375 -1009.739990234375 -11.198410034179688 -1011.489990234375 -14.547409057617188 -1011.489990234375C-16.904815673828125 -1011.489990234375 -19.235916137695312 -1010.6199951171875 -20.885421752929688 -1008.7899780273438C-23.271209716796875 -1006.1500244140625 -43.788909912109375 -967.677001953125 -54.43701171875 -945.9539794921875C-84.42240905761719 -884.6519775390625 -103.98600769042969 -834.7009887695312 -122.92100524902344 -771.0390014648438C-143.5340118408203 -701.72998046875 -155.28701782226562 -621.2000122070312 -155.28701782226562 -551.7780151367188C-155.28701782226562 -542.7930297851562 -155.0900115966797 -533.9940185546875 -154.6900177001953 -525.4290161132812C-151.27401733398438 -452.02301025390625 -141.00302124023438 -396.89898681640625 -117.89901733398438 -327.7860107421875C-107.37602233886719 -296.29400634765625 -103.53401184082031 -282.3559875488281 -98.81242370605469 -258.4729919433594C-93.78330993652344 -233.04600524902344 -91.30430603027344 -208.68099975585938 -91.30430603027344 -185.63400268554688C-91.30430603027344 -110.281005859375 -117.80500793457031 -49.00750732421875 -168.32601928710938 -10.67919921875C-173.62501525878906 -6.6610870361328125 -174.78102111816406 -4.953369140625 -174.78102111816406 -1.1863555908203125C-174.78102111816406 2.5806427001953125 -173.62501525878906 4.288360595703125 -168.32601928710938 8.306503295898438C-117.93801879882812 46.5181884765625 -91.23501586914062 108.23898315429688 -91.23501586914062 183.49598693847656C-91.23501586914062 202.6099853515625 -92.95741271972656 222.59597778320312 -96.45170593261719 243.29298400878906C-101.09800720214844 270.76698303222656 -106.37202453613281 291.05897521972656 -117.32101440429688 323.65599060058594C-124.07701110839844 343.7469940185547 -126.78901672363281 352.4359893798828 -130.7060089111328 366.6749725341797C-147.1710205078125 426.73899841308594 -155.40101623535156 488.09397888183594 -155.40101623535156 550.7039642333984C-155.40101623535156 693.2239837646484 -112.75801086425781 842.2429656982422 -27.540512084960938 997.3239593505859C-21.036117553710938 1009.1799774169922 -20.835220336914062 1009.4499969482422 -17.670913696289062 1010.7800140380859Z" fill="black" /></g></svg>