<?xml version="1.0" encoding="utf-8" ?>
<svg baseProfile="tiny" height="100%" version="1.2" width="100%" xmlns="http://www.w3.org/2000/svg" xmlns:ev="http://www.w3.org/2001/xml-events" xmlns:xlink="http://www.w3.org/1999/xlink"><defs /><g transform="translate(0, 1000) scale(1, -1)"><path d="M-11.949295043945312 1409.6400146484375C-11.047088623046875 1409.9300537109375 -10.135177612304688 1410.06005859375 -9.23876953125 1410.06005859375C-4.76812744140625 1410.06005859375 -0.6823883056640625 1406.6600341796875 -0.103515625 1401.9000244140625C-0.06524658203125 1401.5699462890625 -0.0435791015625 1401.25 -0.0435791015625 1400.9300537109375C-0.0435791015625 1398.8800048828125 -0.9398345947265625 1396.81005859375 -4.083709716796875 1391.1300048828125C-73.45039367675781 1265.8499755859375 -108.20399475097656 1120.18994140625 -108.20399475097656 960.0900268554688C-108.20399475097656 817.2589721679688 -80.54278564453125 662.9329833984375 -25.12188720703125 501.3320007324219C-15.992691040039062 474.6709899902344 -11.475479125976562 458.1809997558594 -7.77960205078125 437.8699951171875C-3.3386688232421875 413.6050109863281 -1.1463623046875 389.4159851074219 -1.1463623046875 365.4320068359375C-1.1463623046875 231.26499938964844 -69.74647521972656 103.49700927734375 -197.09197998046875 4.6920166015625L-204.07298278808594 -0.74127197265625L-205.177978515625 -1.625762939453125L-204.07298278808594 -2.478668212890625C-203.47299194335938 -2.9840850830078125 -200.34498596191406 -5.416412353515625 -197.09197998046875 -7.9435272216796875C-70.09687805175781 -106.49600219726562 -1.2090301513671875 -233.53399658203125 -1.2090301513671875 -369.197998046875C-1.2090301513671875 -369.2909851074219 -1.2090606689453125 -369.385009765625 -1.2091217041015625 -369.4779968261719C-1.2407073974609375 -413.6709899902344 -7.9691314697265625 -453.82000732421875 -22.531585693359375 -496.781005859375C-47.86589050292969 -571.489013671875 -61.73338317871094 -620.041015625 -75.53767395019531 -682.302001953125C-97.12437438964844 -779.7130126953125 -107.87698364257812 -873.2750244140625 -107.87698364257812 -962.1500244140625C-107.87698364257812 -1121.93994140625 -73.11967468261719 -1266.5799560546875 -4.083709716796875 -1391.219970703125C-1.192962646484375 -1396.4599609375 1.52587890625e-05 -1399.0999755859375 1.52587890625e-05 -1401.3599853515625C1.52587890625e-05 -1402.5400390625 -0.3212432861328125 -1403.6099853515625 -0.8932342529296875 -1404.9000244140625C-2.376495361328125 -1408.219970703125 -5.8287506103515625 -1410.06005859375 -9.279067993164062 -1410.06005859375C-11.560287475585938 -1410.06005859375 -13.840591430664062 -1409.260009765625 -15.550491333007812 -1407.550048828125C-16.18218994140625 -1406.9200439453125 -18.835678100585938 -1402.56005859375 -21.710281372070312 -1397.3199462890625C-136.90599060058594 -1189.449951171875 -195.18399047851562 -980.656982421875 -195.18399047851562 -781.4169921875C-195.18399047851562 -673.333984375 -178.0339813232422 -568.06298828125 -143.51698303222656 -467.2770080566406C-129.87098693847656 -427.4119873046875 -123.55299377441406 -404.85699462890625 -117.36097717285156 -373.8999938964844C-110.32398986816406 -338.6839904785156 -106.86898803710938 -304.6059875488281 -106.86898803710938 -272.1029968261719C-106.86898803710938 -161.1929931640625 -147.09898376464844 -68.63510131835938 -222.48898315429688 -11.860504150390625C-228.6169891357422 -7.2169952392578125 -229.97598266601562 -5.38482666015625 -229.97598266601562 -1.625762939453125C-229.97596740722656 2.1333160400390625 -228.61697387695312 3.9654541015625 -222.4889678955078 8.609024047851562C-148.04397583007812 64.67849731445312 -106.83297729492188 157.2830047607422 -106.83297729492188 267.72100830078125C-106.83297729492188 272.1400146484375 -106.89897155761719 276.5880126953125 -107.03196716308594 281.06298828125C-108.76896667480469 339.2179870605469 -119.41497802734375 393.92999267578125 -141.52696228027344 458.1499938964844C-177.50596618652344 562.6190185546875 -195.4149627685547 670.823974609375 -195.4149627685547 781.52197265625C-195.4149627685547 981.447021484375 -136.99896240234375 1189.510009765625 -21.110076904296875 1398.3900146484375C-15.80316162109375 1407.9300537109375 -15.297775268554688 1408.530029296875 -11.949264526367188 1409.6400146484375Z" fill="black" /></g></svg>