<?xml version="1.0" encoding="utf-8" ?>
<svg baseProfile="tiny" height="100%" version="1.2" width="100%" xmlns="http://www.w3.org/2000/svg" xmlns:ev="http://www.w3.org/2001/xml-events" xmlns:xlink="http://www.w3.org/1999/xlink"><defs /><g transform="translate(0, 1000) scale(1, -1)"><path d="M-19.567794799804688 452.51800537109375C-19.054977416992188 452.5979919433594 -18.548980712890625 452.635986328125 -18.052780151367188 452.635986328125C-13.066986083984375 452.635986328125 -9.064376831054688 448.7650146484375 -9.064376831054688 443.5899963378906C-9.064376831054688 441.25201416015625 -9.189407348632812 440.9020080566406 -11.190078735351562 437.2130126953125C-29.419586181640625 403.73699951171875 -38.53868103027344 365.56201171875 -38.53868103027344 321.9859924316406C-38.53868103027344 275.5039978027344 -28.162979125976562 222.87600708007812 -7.401336669921875 163.25C-2.443878173828125 149.00999450683594 1.52587890625e-05 134.5970001220703 1.52587890625e-05 120.34100341796875C1.52587890625e-05 88.60848999023438 -12.109481811523438 57.652008056640625 -35.56037902832031 31.095001220703125C-44.525787353515625 20.92919921875 -54.1038818359375 11.988800048828125 -67.18309020996094 1.5854949951171875C-68.60858154296875 0.4601287841796875 -69.77137756347656 -0.5151824951171875 -69.77137756347656 -0.552703857421875C-69.77137756347656 -0.5902099609375 -68.60858154296875 -1.5655364990234375 -67.18309020996094 -2.690887451171875C-54.1038818359375 -13.094207763671875 -44.525787353515625 -22.03460693359375 -35.56037902832031 -32.200408935546875C-12.109481811523438 -58.75740051269531 1.52587890625e-05 -89.7080078125 1.52587890625e-05 -121.44100952148438C1.52587890625e-05 -135.69700622558594 -2.443878173828125 -150.11099243164062 -7.401336669921875 -164.35499572753906C-28.100479125976562 -223.81300354003906 -38.44499206542969 -276.26800537109375 -38.44499206542969 -322.5790100097656C-38.44499206542969 -365.98699951171875 -29.357192993164062 -403.99700927734375 -11.190078735351562 -437.3179931640625C-9.189407348632812 -441.0069885253906 -9.064376831054688 -441.35699462890625 -9.064376831054688 -443.69500732421875C-9.064376831054688 -448.93499755859375 -12.765579223632812 -452.635986328125 -18.004791259765625 -452.635986328125C-22.356185913085938 -452.635986328125 -24.194290161132812 -451.2349853515625 -27.370285034179688 -445.4960021972656C-71.28437805175781 -366.1700134277344 -91.05328369140625 -301.29998779296875 -91.09077453613281 -236.4409942626953C-91.09077453613281 -226.55099487304688 -91.06578063964844 -225.6750030517578 -90.57807922363281 -217.3730010986328C-89.07768249511719 -191.552001953125 -84.28858947753906 -167.6320037841797 -75.14817810058594 -140.34800720214844C-67.04557800292969 -116.177001953125 -63.44438171386719 -100.43499755859375 -61.956390380859375 -82.82919311523438C-61.65678405761719 -79.26280212402344 -61.50837707519531 -75.76730346679688 -61.50837707519531 -72.35009765625C-61.50837707519531 -44.67689514160156 -71.24067687988281 -22.14300537109375 -89.21519470214844 -8.742843627929688C-92.82888793945312 -6.054473876953125 -93.96669006347656 -4.091339111328125 -93.96669006347656 -0.552703857421875C-93.96669006347656 2.9859466552734375 -92.82888793945312 4.949066162109375 -89.21519470214844 7.6374359130859375C-71.24067687988281 21.03759765625 -61.50837707519531 43.571502685546875 -61.50837707519531 71.24468994140625C-61.50837707519531 74.66189575195312 -61.65678405761719 78.15740966796875 -61.956390380859375 81.72380065917969C-63.44438171386719 99.2919921875 -67.07058715820312 115.135009765625 -75.08567810058594 139.05499267578125C-83.96348571777344 165.53799438476562 -88.70248413085938 188.42100524902344 -90.45307922363281 213.32899475097656C-90.98219299316406 220.80099487304688 -91.24928283691406 228.26400756835938 -91.24928283691406 235.73899841308594C-91.24928283691406 300.6860046386719 -71.08058166503906 366.43701171875 -27.370285034179688 445.3909912109375C-24.594390869140625 450.4179992675781 -22.856277465820312 452.0060119628906 -19.567779541015625 452.51800537109375Z" fill="black" /></g></svg>