<?xml version="1.0" encoding="utf-8" ?>
<svg baseProfile="tiny" height="100%" version="1.2" width="100%" xmlns="http://www.w3.org/2000/svg" xmlns:ev="http://www.w3.org/2001/xml-events" xmlns:xlink="http://www.w3.org/1999/xlink"><defs /><g transform="translate(0, 1000) scale(1, -1)"><path d="M-12.542495727539062 1457.0899658203125C-11.450881958007812 1457.52001953125 -10.337188720703125 1457.7099609375 -9.24639892578125 1457.7099609375C-4.3971710205078125 1457.7099609375 1.52587890625e-05 1453.800048828125 1.52587890625e-05 1448.6300048828125C1.52587890625e-05 1446.3800048828125 -0.2939453125 1445.6600341796875 -5.062713623046875 1437.0C-76.42048645019531 1307.25 -112.29098510742188 1157.3499755859375 -112.29098510742188 991.8909912109375C-112.29098510742188 887.1270141601562 -97.90908813476562 776.125 -69.04917907714844 660.052001953125C-56.86589050292969 610.9600219726562 -45.17259216308594 572.0260009765625 -23.386581420898438 508.0719909667969C-9.060089111328125 465.95098876953125 -1.967559814453125 422.1960144042969 -1.967559814453125 378.33599853515625C-1.967559814453125 308.6990051269531 -19.84588623046875 238.79800415039062 -55.03678894042969 174.74899291992188C-89.88798522949219 111.31700134277344 -143.3569793701172 50.85859680175781 -207.9639892578125 1.799072265625C-210.34799194335938 0.0026092529296875 -212.27598571777344 -1.5325469970703125 -212.27598571777344 -1.630523681640625C-212.27598571777344 -1.728515625 -210.34799194335938 -3.2636566162109375 -207.9639892578125 -5.06011962890625C-153.9399871826172 -46.0845947265625 -106.05598449707031 -96.80990600585938 -72.83798217773438 -148.28599548339844C-25.899383544921875 -220.96099853515625 -1.9336395263671875 -300.6090087890625 -1.9336395263671875 -380.9100036621094C-1.9336395263671875 -419.239013671875 -7.393707275390625 -457.7170104980469 -18.421783447265625 -495.6549987792969C-20.544891357421875 -502.97198486328125 -22.275985717773438 -508.2300109863281 -28.089981079101562 -525.2150268554688C-83.57818603515625 -686.8709716796875 -111.99098205566406 -846.8289794921875 -111.99098205566406 -994.0869750976562C-111.99098205566406 -1043.8599853515625 -108.74497985839844 -1092.1800537109375 -102.20198059082031 -1138.6199951171875C-86.88298034667969 -1247.449951171875 -54.35087585449219 -1347.3699951171875 -5.062713623046875 -1437.0C-0.2939453125 -1445.6500244140625 1.52587890625e-05 -1446.3699951171875 1.52587890625e-05 -1448.6300048828125C1.52587890625e-05 -1454.06005859375 -4.6360015869140625 -1457.7099609375 -9.330368041992188 -1457.7099609375C-11.551284790039062 -1457.7099609375 -13.785186767578125 -1456.9000244140625 -15.5474853515625 -1455.06005859375C-19.368988037109375 -1451.0699462890625 -51.83589172363281 -1389.239990234375 -68.06929016113281 -1355.010009765625C-156.4869842529297 -1168.8699951171875 -200.35398864746094 -988.3740234375 -200.35398864746094 -810.8510131835938C-200.35398864746094 -785.7990112304688 -200.1899871826172 -777.89501953125 -199.07998657226562 -756.3040161132812C-194.114990234375 -660.3410034179688 -177.16297912597656 -572.968017578125 -145.0549774169922 -477.91900634765625C-124.24897766113281 -416.3169860839844 -114.74398803710938 -372.45098876953125 -110.56398010253906 -318.62298583984375C-109.60899353027344 -306.28399658203125 -109.13697814941406 -294.10198974609375 -109.13697814941406 -282.10400390625C-109.13697814941406 -167.63800048828125 -152.09999084472656 -69.94090270996094 -228.9659881591797 -12.409194946289062C-235.82498168945312 -7.28118896484375 -237.13198852539062 -5.5500640869140625 -237.13198852539062 -1.630523681640625C-237.13198852539062 2.2890167236328125 -235.82498168945312 4.0201416015625 -228.9659881591797 9.148193359375C-152.09999084472656 66.6798095703125 -109.13697814941406 164.3769989013672 -109.13697814941406 278.8429870605469C-109.13697814941406 290.84100341796875 -109.60899353027344 303.02301025390625 -110.56398010253906 315.36199951171875C-114.74398803710938 369.2560119628906 -124.31498718261719 413.38299560546875 -145.1859893798828 475.0830078125C-148.5179901123047 484.9800109863281 -152.43698120117188 496.8039855957031 -153.8739776611328 501.37701416015625C-185.19798278808594 600.802001953125 -200.6799774169922 702.7429809570312 -200.6799774169922 809.3870239257812C-200.6799774169922 833.8510131835938 -200.48397827148438 842.4089965820312 -199.40599060058594 863.9340209960938C-189.8359832763672 1052.949951171875 -129.67098999023438 1249.8399658203125 -22.014678955078125 1444.3499755859375C-16.298690795898438 1454.6700439453125 -15.318878173828125 1456.010009765625 -12.54248046875 1457.0899658203125Z" fill="black" /></g></svg>