<?xml version="1.0" encoding="utf-8" ?>
<svg baseProfile="tiny" height="100%" version="1.2" width="100%" xmlns="http://www.w3.org/2000/svg" xmlns:ev="http://www.w3.org/2001/xml-events" xmlns:xlink="http://www.w3.org/1999/xlink"><defs /><g transform="translate(0, 1000) scale(1, -1)"><path d="M-15.00439453125 5431.009765625C-13.53729248046875 5432.25 -11.5946044921875 5432.85009765625 -9.60711669921875 5432.85009765625C-7.1476287841796875 5432.85009765625 -4.61962890625 5431.919921875 -2.8397674560546875 5430.10986328125C-1.0436553955078125 5428.31005859375 0.0 5426.93994140625 0.0 5424.83984375C0.0 5421.4501953125 -2.7252960205078125 5416.18017578125 -9.40478515625 5404.169921875C-66.2373046875 5302.08984375 -119.85198974609375 5192.8701171875 -166.83700561523438 5083.580078125C-371.5570068359375 4606.97998046875 -474.6919860839844 4079.840087890625 -474.6919860839844 3526.330078125C-474.6919860839844 3158.39990234375 -429.12200927734375 2778.820068359375 -337.5270080566406 2394.68994140625C-296.2699890136719 2221.739990234375 -252.43899536132812 2073.260009765625 -180.9320068359375 1864.010009765625C-124.45199584960938 1698.9000244140625 -96.15049743652344 1526.4300537109375 -96.15049743652344 1353.5799560546875C-96.15049743652344 1200.0400390625 -118.48199462890625 1046.199951171875 -163.23199462890625 896.9609985351562C-267.8219909667969 548.3070068359375 -491.5480041503906 233.958984375 -798.5590209960938 4.376251220703125C-805.9600219726562 -1.0946044921875 -811.9459838867188 -5.7930908203125 -811.9459838867188 -6.0505523681640625C-811.9459838867188 -6.3079986572265625 -805.89599609375 -11.006515502929688 -798.5590209960938 -16.541717529296875C-545.6119995117188 -205.447021484375 -346.7309875488281 -454.9820098876953 -226.88699340820312 -733.9950103759766C-139.8699951171875 -936.5110015869141 -96.13250732421875 -1151.050064086914 -96.13250732421875 -1365.6400299072266C-96.13250732421875 -1538.500015258789 -124.51199340820312 -1711.3800201416016 -181.51100158691406 -1878.050064086914C-293.30999755859375 -2204.820083618164 -359.34600830078125 -2461.300064086914 -409.2919921875 -2763.040054321289C-451.9309997558594 -3020.510025024414 -473.32598876953125 -3279.169937133789 -473.32598876953125 -3532.389907836914C-473.32598876953125 -3716.810073852539 -461.97698974609375 -3898.350112915039 -439.2200012207031 -4074.429946899414C-377.239013671875 -4554.000015258789 -232.55099487304688 -5002.419937133789 -11.142593383789062 -5400.819839477539C-0.7801513671875 -5419.490249633789 -0.3296051025390625 -5420.520034790039 -0.3296051025390625 -5423.930191040039C-0.3296051025390625 -5429.189956665039 -4.9073028564453125 -5432.850112915039 -9.566375732421875 -5432.850112915039C-11.467300415039062 -5432.850112915039 -13.381698608398438 -5432.240249633789 -15.00439453125 -5430.879898071289C-18.479995727539062 -5427.919937133789 -64.43508911132812 -5343.930191040039 -99.38420104980469 -5276.410171508789C-352.8450012207031 -4787.509780883789 -523.406982421875 -4250.209976196289 -589.8939819335938 -3731.060073852539C-591.3740234375 -3719.729995727539 -592.6619873046875 -3709.879898071289 -592.85498046875 -3709.169937133789C-593.8200073242188 -3704.729995727539 -601.9940185546875 -3632.320083618164 -605.5989990234375 -3595.570083618164C-619.4080200195312 -3456.620132446289 -626.2739868164062 -3317.379898071289 -626.2739868164062 -3178.530044555664C-626.2739868164062 -2721.389907836914 -551.8489990234375 -2268.560073852539 -405.8160095214844 -1844.5799713134766L-391.8489990234375 -1804.030044555664C-320.0400085449219 -1595.1600494384766 -285.322998046875 -1384.520034790039 -285.322998046875 -1181.979995727539C-285.322998046875 -711.2249908447266 -472.8890075683594 -284.3140106201172 -818.1890258789062 -25.552536010742188C-837.447021484375 -11.125030517578125 -837.6920166015625 -11.003128051757812 -837.6920166015625 -6.41839599609375L-837.6909790039062 -6.0505523681640625L-837.6920166015625 -5.682708740234375C-837.6920166015625 -1.0979766845703125 -837.447021484375 -0.976104736328125 -818.1890258789062 13.451370239257812C-473.0610046386719 272.0919952392578 -285.4859924316406 697.1089935302734 -285.4859924316406 1168.300033569336C-285.4859924316406 1360.9000091552734 -316.82501220703125 1561.209945678711 -381.5509948730469 1761.030014038086L-406.0740051269531 1833.3799896240234C-551.7860107421875 2256.199935913086 -627.6510009765625 2715.780014038086 -627.6510009765625 3171.229965209961C-627.6510009765625 3217.520004272461 -626.8670043945312 3263.770004272461 -625.2940063476562 3309.929916381836C-620.7239990234375 3443.739974975586 -608.4310302734375 3598.149887084961 -593.7559814453125 3706.399887084961L-589.572021484375 3738.259994506836C-517.614990234375 4287.470199584961 -333.0220031738281 4847.560043334961 -54.71630859375 5360.850082397461C-31.996200561523438 5402.749984741211 -16.935195922851562 5429.399887084961 -15.00439453125 5431.009750366211Z" fill="black" /></g></svg>