<?xml version="1.0" encoding="utf-8" ?>
<svg baseProfile="tiny" height="100%" version="1.2" width="100%" xmlns="http://www.w3.org/2000/svg" xmlns:ev="http://www.w3.org/2001/xml-events" xmlns:xlink="http://www.w3.org/1999/xlink"><defs /><g transform="translate(0, 1000) scale(1, -1)"><path d="M-11.495101928710938 3067.530029296875C-10.610321044921875 3067.760009765625 -9.740997314453125 3067.8701171875 -8.901092529296875 3067.8701171875C-3.9356842041015625 3067.8701171875 -1.52587890625e-05 3064.10009765625 -1.52587890625e-05 3058.75C-1.52587890625e-05 3055.760009765625 -0.045989990234375 3055.719970703125 -6.0234527587890625 3044.9599609375C-155.78201293945312 2774.9599609375 -239.88002014160156 2464.449951171875 -253.76602172851562 2130.639892578125C-255.14501953125 2096.469970703125 -255.4210205078125 2084.2900390625 -255.697021484375 2042.1199951171875C-255.72901916503906 2036.9200439453125 -255.74501037597656 2031.7099609375 -255.74501037597656 2026.5C-255.74501037597656 1713.510009765625 -198.68301391601562 1391.7900390625 -85.47761535644531 1066.4200439453125C-52.34761047363281 971.1890258789062 -36.27430725097656 873.7730102539062 -36.27430725097656 777.0859985351562C-36.27430725097656 486.90399169921875 -181.0550079345703 203.28399658203125 -444.0330047607422 5.0068206787109375C-450.01100158691406 0.500732421875 -454.9300079345703 -3.3616180419921875 -454.9300079345703 -3.5455474853515625C-454.9300079345703 -3.729461669921875 -450.01100158691406 -7.5918121337890625 -444.0330047607422 -12.097885131835938C-181.0550079345703 -210.37498474121094 -36.27430725097656 -493.99497985839844 -36.27430725097656 -784.1769866943359C-36.27430725097656 -880.8639984130859 -52.34761047363281 -978.2800140380859 -85.47761535644531 -1073.509994506836C-198.93601989746094 -1399.6099700927734 -255.40602111816406 -1721.8899993896484 -255.40602111816406 -2027.520004272461C-255.40602111816406 -2399.030014038086 -171.96701049804688 -2745.929916381836 -6.0234527587890625 -3045.149887084961C-0.045989990234375 -3055.909896850586 -1.52587890625e-05 -3055.959945678711 -1.52587890625e-05 -3058.949935913086C-1.52587890625e-05 -3064.509994506836 -3.31060791015625 -3067.870101928711 -8.874252319335938 -3067.870101928711H-9.797164916992188C-14.696609497070312 -3067.870101928711 -14.883819580078125 -3067.290023803711 -26.300811767578125 -3046.759994506836C-229.07501220703125 -2681.310043334961 -348.30201721191406 -2286.149887084961 -371.2000274658203 -1903.9200286865234C-374.0790252685547 -1855.9300384521484 -375.51902770996094 -1808.239974975586 -375.51902770996094 -1760.8299407958984C-375.51902770996094 -1507.5899505615234 -334.4280242919922 -1262.3599700927734 -251.9730224609375 -1023.2100067138672C-230.31600952148438 -960.5359954833984 -217.6710205078125 -915.1079559326172 -206.45201110839844 -859.8849945068359C-191.3450164794922 -785.6389617919922 -183.96401977539062 -712.7209930419922 -183.96401977539062 -642.2399749755859C-183.96401977539062 -381.5139923095703 -284.9610137939453 -154.13198852539062 -469.4140167236328 -16.190185546875C-479.3460235595703 -8.741317749023438 -479.9440155029297 -8.005630493164062 -479.9440155029297 -3.5455322265625C-479.9440155029297 0.9145660400390625 -479.3460235595703 1.6502532958984375 -469.4140167236328 9.099090576171875C-283.6210174560547 148.0390167236328 -183.87802124023438 377.05601501464844 -183.87802124023438 635.7880401611328C-183.87802124023438 752.0880279541016 -204.03102111816406 874.3930206298828 -245.58201599121094 997.2190093994141C-263.6060028076172 1050.560073852539 -267.5600128173828 1062.459976196289 -272.06602478027344 1076.760025024414C-326.69102478027344 1250.979995727539 -359.9810028076172 1429.530044555664 -371.4760284423828 1609.6800689697266C-374.5760040283203 1658.469985961914 -376.11900329589844 1707.449966430664 -376.11900329589844 1756.560073852539C-376.11900329589844 2188.189956665039 -256.8760223388672 2629.929946899414 -27.174423217773438 3044.959976196289C-15.173507690429688 3066.709976196289 -15.219512939453125 3066.570083618164 -11.4951171875 3067.530044555664Z" fill="black" /></g></svg>