<?xml version="1.0" encoding="utf-8" ?>
<svg baseProfile="tiny" height="100%" version="1.2" width="100%" xmlns="http://www.w3.org/2000/svg" xmlns:ev="http://www.w3.org/2001/xml-events" xmlns:xlink="http://www.w3.org/1999/xlink"><defs /><g transform="translate(0, 1000) scale(1, -1)"><path d="M-12.1549072265625 3622.02001953125C-11.215301513671875 3622.219970703125 -10.305694580078125 3622.320068359375 -9.435836791992188 3622.320068359375C-4.0830078125 3622.320068359375 -0.23974609375 3618.68994140625 -0.23974609375 3613.2099609375C-0.2906646728515625 3609.949951171875 -0.341583251953125 3609.75 -6.4009857177734375 3598.9599609375C-65.21270751953125 3494.06005859375 -119.49299621582031 3373.68994140625 -162.41799926757812 3252.9599609375C-258.78900146484375 2981.949951171875 -306.9200134277344 2687.169921875 -306.9200134277344 2379.030029296875C-306.9200134277344 2049.2900390625 -251.8000030517578 1704.260009765625 -141.6929931640625 1356.72998046875L-104.52200317382812 1245.2099609375C-85.02029418945312 1187.6199951171875 -71.322998046875 1131.6600341796875 -62.10670471191406 1071.989990234375C-53.895904541015625 1018.8400268554688 -49.86070251464844 965.6710205078125 -49.86070251464844 912.802978515625C-49.86070251464844 567.64501953125 -221.85499572753906 235.27899169921875 -526.7960357666016 5.22711181640625C-533.3640289306641 0.287933349609375 -538.7110137939453 -3.887451171875 -538.7110137939453 -4.0911102294921875C-538.7110137939453 -4.2947998046875 -533.3640289306641 -8.470169067382812 -526.7960357666016 -13.409317016601562C-286.1010284423828 -194.9870147705078 -123.05702209472656 -446.3760223388672 -69.54090881347656 -718.2849884033203C-56.347412109375 -785.3960113525391 -49.778717041015625 -853.1640167236328 -49.778717041015625 -920.7150421142578C-49.778717041015625 -1033.5699615478516 -68.11381530761719 -1145.8299713134766 -104.52201843261719 -1253.4000396728516C-124.53401184082031 -1312.6100006103516 -135.78701782226562 -1346.270034790039 -141.69300842285156 -1364.9100494384766C-251.5700225830078 -1711.740005493164 -306.1640167236328 -2054.530044555664 -306.1640167236328 -2381.770034790039C-306.1640167236328 -2824.449966430664 -206.25201416015625 -3238.689956665039 -8.132247924804688 -3595.990005493164C-4.007781982421875 -3603.419937133789 -0.4434356689453125 -3610.300064086914 -0.2397613525390625 -3611.159927368164C-0.077423095703125 -3611.889907836914 -1.52587890625e-05 -3612.610122680664 -1.52587890625e-05 -3613.310073852539C-1.52587890625e-05 -3618.379898071289 -4.0877685546875 -3622.320083618164 -9.381912231445312 -3622.320083618164C-9.986419677734375 -3622.320083618164 -10.606613159179688 -3622.270034790039 -11.238311767578125 -3622.159927368164C-15.770111083984375 -3621.399917602539 -20.963912963867188 -3612.639907836914 -54.57061767578125 -3549.600112915039C-306.3080291748047 -3077.229995727539 -434.86802673339844 -2578.219985961914 -434.86802673339844 -2090.909927368164C-434.86802673339844 -1867.540054321289 -407.8570098876953 -1646.6300201416016 -353.3140106201172 -1431.8700103759766C-332.1320037841797 -1348.560073852539 -316.44801330566406 -1296.520034790039 -281.82301330566406 -1194.8399810791016C-239.4580078125 -1070.3900299072266 -216.8500213623047 -954.3460235595703 -209.72201538085938 -824.6550445556641C-209.20101928710938 -814.6950225830078 -208.8670196533203 -784.9090118408203 -208.8670196533203 -759.8579864501953C-208.8670196533203 -745.7180328369141 -208.97401428222656 -733.0869903564453 -209.21202087402344 -726.3809967041016C-219.9560089111328 -428.6050262451172 -342.3150177001953 -175.1800079345703 -550.7280426025391 -18.806808471679688C-563.4069976806641 -9.284881591796875 -563.9160308837891 -8.724777221679688 -563.9160308837891 -4.0911102294921875C-563.9160308837891 0.54254150390625 -563.4069976806641 1.1026458740234375 -550.7280426025391 10.624588012695312C-342.3150177001953 166.99798583984375 -219.9560089111328 420.42298889160156 -209.21202087402344 718.1989593505859C-208.97401428222656 724.9039764404297 -208.8670196533203 737.5359954833984 -208.8670196533203 751.6760101318359C-208.8670196533203 776.7269744873047 -209.20101928710938 806.5129852294922 -209.72201538085938 816.4730072021484C-216.8500213623047 946.1639862060547 -239.4580078125 1062.209945678711 -281.82301330566406 1186.6600189208984C-317.9760284423828 1292.8699798583984 -333.5060272216797 1344.560043334961 -355.6050262451172 1432.8499603271484C-409.24000549316406 1646.689926147461 -435.8080291748047 1866.050033569336 -435.8080291748047 2087.659896850586C-435.8080291748047 2592.320053100586 -298.0290069580078 3108.620101928711 -28.347213745117188 3597.889877319336C-17.450515747070312 3617.639877319336 -14.904510498046875 3621.459945678711 -12.154922485351562 3622.020004272461Z" fill="black" /></g></svg>