<?xml version="1.0" encoding="utf-8" ?>
<svg baseProfile="tiny" height="100%" version="1.2" width="100%" xmlns="http://www.w3.org/2000/svg" xmlns:ev="http://www.w3.org/2001/xml-events" xmlns:xlink="http://www.w3.org/1999/xlink"><defs /><g transform="translate(0, 1000) scale(1, -1)"><path d="M-19.593704223632812 669.8270263671875C-19.054214477539062 669.9149780273438 -18.521713256835938 669.9580078125 -17.99951171875 669.9580078125C-12.945709228515625 669.9580078125 -8.8616943359375 665.9769897460938 -8.8616943359375 661.010009765625C-8.8616943359375 660.5360107421875 -8.898910522460938 660.052978515625 -8.976028442382812 659.56298828125C-9.218185424804688 657.9609985351562 -9.44171142578125 657.4210205078125 -11.360321044921875 653.9749755859375C-40.45881652832031 601.4320068359375 -55.01161193847656 540.6599731445312 -55.01161193847656 471.8609924316406C-55.01161193847656 403.29400634765625 -40.556610107421875 326.75299072265625 -11.63970947265625 242.43899536132812C-3.583099365234375 218.9199981689453 -1.52587890625e-05 199.6719970703125 -1.52587890625e-05 178.6230010986328C-1.52587890625e-05 174.9980010986328 -0.1062774658203125 171.31900024414062 -0.31427001953125 167.55599975585938C-3.72308349609375 105.45199584960938 -36.26521301269531 50.96710205078125 -99.46821594238281 1.6043243408203125C-101.01402282714844 0.3935394287109375 -102.30001831054688 -0.6682281494140625 -102.30001831054688 -0.74273681640625C-102.30001831054688 -0.8172454833984375 -101.01402282714844 -1.8790130615234375 -99.46821594238281 -3.08978271484375C-36.26521301269531 -52.452606201171875 -3.72308349609375 -106.93800354003906 -0.31427001953125 -169.04200744628906C-0.1106109619140625 -172.76199340820312 -0.0066986083984375 -176.4040069580078 -0.0066986083984375 -179.9969940185547C-0.0066986083984375 -201.05099487304688 -3.574676513671875 -220.39700317382812 -11.546615600585938 -243.64500427246094C-40.43321228027344 -327.77398681640625 -54.874114990234375 -404.125 -54.874114990234375 -472.5150146484375C-54.874114990234375 -541.0590209960938 -40.368011474609375 -601.6060180664062 -11.360321044921875 -653.969970703125C-9.47637939453125 -657.3610229492188 -8.8326416015625 -658.8920288085938 -8.8326416015625 -660.6500244140625C-8.8326416015625 -661.1519775390625 -8.885055541992188 -661.6719970703125 -8.976028442382812 -662.260009765625C-9.695297241210938 -667.0260009765625 -13.81341552734375 -669.9580078125 -18.025115966796875 -669.9580078125C-20.24871826171875 -669.9580078125 -22.4984130859375 -669.1409912109375 -24.287811279296875 -667.344970703125C-26.783920288085938 -664.8300170898438 -44.051513671875 -632.176025390625 -55.079010009765625 -609.114990234375C-97.44981384277344 -520.4130249023438 -118.59101867675781 -436.4580078125 -118.59101867675781 -356.4259948730469C-118.59101867675781 -306.9800109863281 -110.52101135253906 -259.0320129394531 -94.40150451660156 -212.38800048828125C-81.76821899414062 -175.83900451660156 -75.44261169433594 -143.0070037841797 -75.44261169433594 -114.07099914550781C-75.44261169433594 -100.72500610351562 -76.78822326660156 -88.20849609375 -79.48091125488281 -76.53790283203125C-85.88880920410156 -48.78289794921875 -100.67901611328125 -24.995697021484375 -121.09501647949219 -9.628036499023438C-125.13700866699219 -6.591766357421875 -126.25401306152344 -5.0829315185546875 -126.70201110839844 -2.0839080810546875C-126.79600524902344 -1.4777984619140625 -126.84602355957031 -0.9061431884765625 -126.84602355957031 -0.3600006103515625C-126.84602355957031 2.75286865234375 -125.23101806640625 5.0365142822265625 -121.09501647949219 8.142562866210938C-91.23060607910156 30.624404907226562 -75.48002624511719 67.54969787597656 -75.48002624511719 113.29598999023438C-75.48002624511719 126.07199096679688 -76.7086181640625 139.53700256347656 -79.20152282714844 153.56700134277344C-82.83390808105469 173.96400451660156 -86.70841979980469 188.36300659179688 -95.55641174316406 214.4040069580078C-110.82301330566406 259.2130126953125 -118.66001892089844 307.39599609375 -118.66001892089844 356.02301025390625C-118.66001892089844 357.5889892578125 -118.65202331542969 359.156005859375 -118.63601684570312 360.7229919433594C-118.52401733398438 370.7449951171875 -118.41201782226562 373.7439880371094 -117.85301208496094 384.0069885253906C-113.06602478027344 469.656005859375 -83.33680725097656 561.6389770507812 -28.404510498046875 660.7550048828125C-24.455413818359375 667.8900146484375 -23.151519775390625 669.2310180664062 -19.593719482421875 669.8270263671875Z" fill="black" /></g></svg>