<?xml version="1.0" encoding="utf-8" ?>
<svg baseProfile="tiny" height="100%" version="1.2" width="100%" xmlns="http://www.w3.org/2000/svg" xmlns:ev="http://www.w3.org/2001/xml-events" xmlns:xlink="http://www.w3.org/1999/xlink"><defs /><g transform="translate(0, 1000) scale(1, -1)"><path d="M-12.185195922851562 8592.3701171875C-11.125991821289062 8592.66015625 -10.09228515625 8592.7900390625 -9.103622436523438 8592.7900390625C-3.99505615234375 8592.7900390625 -0.089019775390625 8589.1298828125 -0.089019775390625 8583.66015625C-0.0890350341796875 8581.080078125 -2.9114532470703125 8575.509765625 -15.08819580078125 8553.66015625C-464.58099365234375 7744.27001953125 -719.6480102539062 6818.509765625 -763.9199829101562 5836.14013671875C-768.7349853515625 5729.39013671875 -771.1389770507812 5622.3701171875 -771.1389770507812 5515.14013671875C-771.1389770507812 4672.259765625 -622.6300048828125 3815.909912109375 -329.10400390625 2968.949951171875C-269.59100341796875 2797.110107421875 -234.99600219726562 2658.39990234375 -209.593994140625 2489.5400390625C-190.95399475097656 2365.56005859375 -181.81500244140625 2241.39990234375 -181.81500244140625 2117.909912109375C-181.81500244140625 1304.8299560546875 -578.0040283203125 520.6690063476562 -1267.43994140625 7.09136962890625C-1279.300048828125 -1.7791290283203125 -1288.969970703125 -9.198104858398438 -1288.969970703125 -9.520660400390625C-1288.969970703125 -9.843231201171875 -1279.300048828125 -17.26220703125 -1267.43994140625 -26.132705688476562C-643.60400390625 -490.86598205566406 -249.510986328125 -1188.1700592041016 -190.32098388671875 -1932.000015258789C-184.6599884033203 -2003.1100006103516 -181.80198669433594 -2073.139907836914 -181.80198669433594 -2142.500015258789C-181.80198669433594 -2429.810073852539 -230.8579864501953 -2705.600112915039 -332.97499084472656 -2999.280044555664C-515.7069549560547 -3525.060073852539 -644.2490081787109 -4073.179946899414 -711.9069671630859 -4614.520034790039C-750.3029632568359 -4921.729995727539 -769.3679656982422 -5225.790054321289 -769.3679656982422 -5525.189956665039C-769.3679656982422 -6620.490249633789 -514.2249603271484 -7653.410171508789 -17.023605346679688 -8549.719741821289C-5.0703582763671875 -8571.299819946289 0.0 -8580.980484008789 0.0 -8585.980484008789C0.0 -8589.320327758789 -2.2513427734375 -8590.570327758789 -6.217742919921875 -8591.900405883789C-7.8195037841796875 -8592.419937133789 -9.110076904296875 -8592.790054321289 -10.293197631835938 -8592.790054321289C-14.530502319335938 -8592.790054321289 -17.389999389648438 -8588.040054321289 -28.232696533203125 -8568.750015258789C-505.7080078125 -7715.729995727539 -814.8049926757812 -6757.879898071289 -914.7990112304688 -5821.310073852539C-916.0900268554688 -5808.649917602539 -917.7830200195312 -5794.140151977539 -918.427978515625 -5789.060073852539C-920.8469848632812 -5769.950210571289 -926.89501953125 -5707.209976196289 -931.7340087890625 -5649.549819946289C-947.7000122070312 -5459.410171508789 -955.6669921875 -5269.640151977539 -955.6669921875 -5080.549819946289C-955.6669921875 -4422.520034790039 -859.1900024414062 -3772.699966430664 -667.635009765625 -3144.030044555664C-641.427001953125 -3057.990005493164 -619.4119873046875 -2991.060073852539 -579.4940185546875 -2875.500015258789C-467.572998046875 -2551.500015258789 -413.489013671875 -2223.709976196289 -413.489013671875 -1907.1200103759766C-413.489013671875 -1149.3199615478516 -723.3610229492188 -455.69300842285156 -1291.6300048828125 -31.777603149414062C-1307.43994140625 -20.003997802734375 -1315.3399658203125 -14.762298583984375 -1315.3399658203125 -9.520660400390625C-1315.3399658203125 -4.2790069580078125 -1307.43994140625 0.9626617431640625 -1291.6300048828125 12.7362060546875C-966.5709838867188 255.2239990234375 -721.260986328125 587.4639892578125 -571.4299926757812 988.0079956054688C-467.0509948730469 1267.18994140625 -413.8599853515625 1573.0899658203125 -413.8599853515625 1888.010009765625C-413.8599853515625 1997.9000244140625 -420.33599853515625 2108.8798828125 -433.37298583984375 2220.199951171875C-458.5329895019531 2434.4599609375 -507.885009765625 2649.610107421875 -579.4140014648438 2856.219970703125C-617.2340087890625 2965.320068359375 -641.0230102539062 3037.739990234375 -666.4249877929688 3120.9599609375C-860.1669921875 3755.429931640625 -957.5230102539062 4408.81005859375 -957.5230102539062 5071.60009765625C-957.5230102539062 5297.1201171875 -946.2509765625 5523.740234375 -923.6699829101562 5751.06982421875C-922.2990112304688 5764.3701171875 -920.6859741210938 5779.60986328125 -920.041015625 5784.93017578125C-919.3150024414062 5790.259765625 -916.9769897460938 5811.14013671875 -914.718994140625 5831.2998046875C-815.2880249023438 6740.1298828125 -523.0460205078125 7660.47998046875 -69.0369873046875 8494.8701171875C-22.184585571289062 8581.0 -16.297882080078125 8591.16015625 -12.1851806640625 8592.3701171875Z" fill="black" /></g></svg>