<?xml version="1.0" encoding="utf-8" ?>
<svg baseProfile="tiny" height="100%" version="1.2" width="100%" xmlns="http://www.w3.org/2000/svg" xmlns:ev="http://www.w3.org/2001/xml-events" xmlns:xlink="http://www.w3.org/1999/xlink"><defs /><g transform="translate(0, 1000) scale(1, -1)"><path d="M-12.992904663085938 6001.39013671875C-11.853012084960938 6001.919921875 -10.662017822265625 6002.16015625 -9.48358154296875 6002.16015625C-4.6446990966796875 6002.16015625 -0.018829345703125 5998.10986328125 -0.018829345703125 5993.1298828125C-0.018829345703125 5992.77978515625 -0.0414581298828125 5992.43017578125 -0.0882415771484375 5992.06982421875C-0.223358154296875 5990.4501953125 -3.669097900390625 5983.6298828125 -9.141769409179688 5973.830078125C-306.42201232910156 5441.43017578125 -481.0060272216797 4824.77001953125 -519.3820343017578 4171.7001953125C-524.9170074462891 4077.360107421875 -527.6750030517578 3982.340087890625 -527.6750030517578 3886.7900390625C-527.6750030517578 3336.199951171875 -436.1110076904297 2768.1298828125 -256.8300018310547 2211.340087890625L-205.75201416015625 2059.659912109375C-142.64599609375 1876.739990234375 -111.281005859375 1685.2099609375 -111.281005859375 1493.3399658203125C-111.281005859375 1247.0400390625 -162.96600341796875 1000.1699829101562 -265.5459899902344 770.2109985351562C-398.5790100097656 471.9849853515625 -617.0800170898438 201.25799560546875 -883.6859741210938 4.3773956298828125C-891.7260131835938 -1.568206787109375 -898.3469848632812 -6.5679168701171875 -898.3469848632812 -6.7706146240234375C-898.3469848632812 -6.973297119140625 -891.7260131835938 -11.972991943359375 -883.6859741210938 -17.918594360351562C-617.0800170898438 -214.7989959716797 -398.5790100097656 -485.5270233154297 -265.5459899902344 -783.7530059814453C-162.96600341796875 -1013.7100372314453 -111.281005859375 -1260.5799713134766 -111.281005859375 -1506.8800201416016C-111.281005859375 -1698.750015258789 -142.64599609375 -1890.280044555664 -205.7519989013672 -2073.199966430664C-247.77699279785156 -2194.820083618164 -269.93701171875 -2263.530044555664 -298.7200012207031 -2360.689956665039C-394.92999267578125 -2685.939956665039 -462.4939880371094 -3022.540054321289 -497.08599853515625 -3348.469985961914C-516.5989990234375 -3532.600112915039 -526.35498046875 -3714.120132446289 -526.35498046875 -3892.969985961914C-526.35498046875 -3949.449966430664 -525.3820190429688 -4005.659927368164 -523.4359741210938 -4061.600112915039C-499.24798583984375 -4757.370132446289 -324.0559997558594 -5408.959976196289 -9.209320068359375 -5973.720230102539C-2.067962646484375 -5986.500015258789 -1.52587890625e-05 -5990.490249633789 -1.52587890625e-05 -5993.350112915039C-1.52587890625e-05 -5994.229995727539 -0.193145751953125 -5995.000015258789 -0.493621826171875 -5995.879898071289C-1.7943115234375 -5999.870132446289 -5.674530029296875 -6002.160171508789 -9.512969970703125 -6002.160171508789C-11.855514526367188 -6002.160171508789 -14.182510375976562 -6001.310073852539 -15.898117065429688 -5999.459976196289C-17.384521484375 -5997.839859008789 -38.86981201171875 -5959.399917602539 -57.72001647949219 -5924.669937133789C-472.8100128173828 -5158.339859008789 -685.8189849853516 -4331.560073852539 -685.8189849853516 -3517.030044555664C-685.8189849853516 -3176.659927368164 -648.6230010986328 -2838.419937133789 -573.4329986572266 -2507.639907836914C-533.5709991455078 -2332.240005493164 -492.2890167236328 -2189.280044555664 -425.80702209472656 -1996.1800689697266C-347.90602111816406 -1769.709976196289 -309.5970001220703 -1543.979995727539 -309.5970001220703 -1310.750015258789C-309.5970001220703 -1247.5799713134766 -309.9350128173828 -1234.740005493164 -312.7050018310547 -1191.1600494384766C-343.31202697753906 -705.7169952392578 -556.0020294189453 -286.0790252685547 -902.4010162353516 -27.580215454101562C-920.2150421142578 -14.29901123046875 -924.2150421142578 -11.295608520507812 -924.2150421142578 -7.6024627685546875C-924.2150421142578 -6.5611419677734375 -923.8969879150391 -5.4649505615234375 -923.4810333251953 -4.068084716796875C-922.5349884033203 -0.9601593017578125 -922.7370147705078 -1.09527587890625 -902.4010162353516 14.038986206054688C-545.8000030517578 280.10499572753906 -334.6630096435547 709.2009735107422 -310.4760284423828 1217.1399993896484C-309.86802673339844 1229.5799407958984 -309.5640106201172 1263.3199310302734 -309.5640106201172 1297.229965209961C-309.5640106201172 1331.1399993896484 -309.86802673339844 1365.209945678711 -310.4760284423828 1378.280014038086C-319.8670196533203 1585.4300384521484 -358.31101989746094 1786.979965209961 -425.87400817871094 1982.6399993896484C-532.4900054931641 2291.739974975586 -597.9589996337891 2558.759994506836 -641.2670440673828 2861.310043334961C-672.0269927978516 3076.060043334961 -687.2700347900391 3293.100082397461 -687.2700347900391 3511.009994506836C-687.2700347900391 4328.830062866211 -472.56300354003906 5158.709945678711 -57.72001647949219 5924.640121459961C-24.343612670898438 5986.259750366211 -16.438613891601562 5999.839828491211 -12.992919921875 6001.390121459961Z" fill="black" /></g></svg>