<?xml version="1.0" encoding="utf-8" ?>
<svg baseProfile="tiny" height="100%" version="1.2" width="100%" xmlns="http://www.w3.org/2000/svg" xmlns:ev="http://www.w3.org/2001/xml-events" xmlns:xlink="http://www.w3.org/1999/xlink"><defs /><g transform="translate(0, 1000) scale(1, -1)"><path d="M-17.147598266601562 1065.8699951171875C-15.916885375976562 1066.3800048828125 -14.678787231445312 1066.6199951171875 -13.48577880859375 1066.6199951171875C-8.745849609375 1066.6199951171875 -4.7206268310546875 1062.8299560546875 -4.7206268310546875 1057.489990234375C-4.7206268310546875 1057.4000244140625 -4.720550537109375 1057.31005859375 -4.720550537109375 1057.219970703125C-4.720550537109375 1054.56005859375 -4.795074462890625 1054.47998046875 -9.49005126953125 1045.969970703125C-58.16899108886719 957.8809814453125 -83.26707458496094 851.4569702148438 -83.26707458496094 735.0609741210938C-83.26707458496094 711.7570190429688 -82.26087951660156 688.052001953125 -80.23649597167969 664.0150146484375C-72.39347839355469 571.2760009765625 -52.91828918457031 483.5190124511719 -16.061279296875 375.0679931640625C-5.3135986328125 343.4330139160156 -0.01312255859375 311.1199951171875 -0.01312255859375 278.9490051269531C-0.01312255859375 211.58200073242188 -23.255279541015625 144.83999633789062 -68.39237976074219 86.25270080566406C-91.92158508300781 55.701904296875 -123.90298461914062 24.250198364257812 -155.69898986816406 0.4295501708984375C-156.94097900390625 -0.5085906982421875 -157.56398010253906 -0.9130096435546875 -157.56398010253906 -1.3160247802734375C-157.56398010253906 -1.7211761474609375 -156.9349822998047 -2.1248931884765625 -155.67298889160156 -3.068023681640625C-123.92997741699219 -26.862106323242188 -91.89509582519531 -58.366790771484375 -68.39237976074219 -88.89109802246094C-23.276077270507812 -147.4600067138672 1.52587890625e-05 -214.41600036621094 1.52587890625e-05 -281.7980041503906C1.52587890625e-05 -313.8240051269531 -5.2581939697265625 -345.9460144042969 -15.928787231445312 -377.3089904785156C-35.827880859375 -435.760986328125 -47.27449035644531 -475.7439880371094 -58.08518981933594 -524.3660278320312C-74.74537658691406 -599.4450073242188 -83.05949401855469 -670.4010009765625 -83.05949401855469 -737.7689819335938C-83.05949401855469 -761.5809936523438 -82.02088928222656 -784.9429931640625 -79.94499206542969 -807.8820190429688C-72.23448181152344 -893.1480102539062 -47.19499206542969 -977.8590087890625 -9.49005126953125 -1046.219970703125C-4.817779541015625 -1054.6800537109375 -4.7204437255859375 -1054.81005859375 -4.7204437255859375 -1057.3900146484375C-4.7204437255859375 -1057.510009765625 -4.7206268310546875 -1057.6199951171875 -4.7206268310546875 -1057.75C-4.7206268310546875 -1063.31005859375 -8.032730102539062 -1066.6199951171875 -13.597091674804688 -1066.6199951171875C-18.15447998046875 -1066.6199951171875 -19.797286987304688 -1065.3800048828125 -23.109390258789062 -1059.5C-68.20698547363281 -979.0770263671875 -103.31498718261719 -896.3809814453125 -126.81797790527344 -815.0360107421875C-141.89498901367188 -762.8900146484375 -151.8569793701172 -711.9099731445312 -156.91798400878906 -661.0889892578125C-159.55198669433594 -634.697021484375 -160.87599182128906 -608.7260131835938 -160.87599182128906 -583.052978515625C-160.87599182128906 -501.0159912109375 -147.35598754882812 -422.0260009765625 -119.84898376464844 -342.0679931640625C-102.09599304199219 -290.4519958496094 -93.77638244628906 -244.2949981689453 -93.74989318847656 -197.5279998779297C-93.74989318847656 -180.49098205566406 -93.82939147949219 -178.7679901123047 -94.96867370605469 -166.92398071289062C-101.45997619628906 -99.43687438964844 -130.2889862060547 -44.58848571777344 -177.77098083496094 -9.427230834960938C-180.97698974609375 -7.0557708740234375 -182.57998657226562 -4.1875 -182.57998657226562 -1.3192138671875C-182.57998657226562 1.549072265625 -180.97698974609375 4.417327880859375 -177.77098083496094 6.7888031005859375C-127.79798889160156 43.7783203125 -100.135986328125 99.07711791992188 -94.09428405761719 173.95701599121094C-93.84498596191406 177.00901794433594 -93.72868347167969 184.54000854492188 -93.72868347167969 192.6370086669922C-93.72868347167969 202.60801696777344 -93.90507507324219 213.43701171875 -94.22679138183594 217.80902099609375C-97.3798828125 259.83302307128906 -105.38198852539062 297.37901306152344 -120.56498718261719 341.4960174560547C-147.59197998046875 420.08201599121094 -161.11798095703125 500.3260040283203 -161.11798095703125 582.5960235595703C-161.11798095703125 697.6070098876953 -134.68399047851562 816.5770416259766 -81.74678039550781 940.5089874267578C-65.84867858886719 977.7370147705078 -42.95549011230469 1024.0799713134766 -23.109390258789062 1059.209976196289C-20.353790283203125 1064.0899810791016 -19.717788696289062 1064.780044555664 -17.1475830078125 1065.8700103759766Z" fill="black" /></g></svg>