<?xml version="1.0" encoding="utf-8" ?>
<svg baseProfile="tiny" height="100%" version="1.2" width="100%" xmlns="http://www.w3.org/2000/svg" xmlns:ev="http://www.w3.org/2001/xml-events" xmlns:xlink="http://www.w3.org/1999/xlink"><defs /><g transform="translate(0, 1000) scale(1, -1)"><path d="M-14.216903686523438 11357.400390625C-12.649810791015625 11358.2001953125 -11.017410278320312 11358.599609375 -9.44097900390625 11358.599609375C-4.438690185546875 11358.599609375 -1.52587890625e-05 11354.7001953125 -1.52587890625e-05 11349.0C-1.52587890625e-05 11347.7998046875 -6.8241119384765625 11334.5 -15.259414672851562 11319.5C-493.42002868652344 10459.0 -803.8220367431641 9521.8896484375 -947.2230377197266 8506.4296875C-1005.0100250244141 8097.10986328125 -1033.6700592041016 7678.2900390625 -1033.6700592041016 7254.5498046875C-1033.6700592041016 6152.830078125 -839.9780426025391 5017.77978515625 -461.1010284423828 3929.5400390625C-325.62400817871094 3540.489990234375 -260.5280303955078 3173.14990234375 -260.5280303955078 2789.6298828125C-260.5280303955078 2708.7099609375 -263.42601013183594 2627.06005859375 -269.1730194091797 2544.340087890625C-338.8360137939453 1543.280029296875 -870.6410064697266 595.208984375 -1700.530044555664 -7.5867919921875C-1704.4100494384766 -10.382781982421875 -1706.3600006103516 -11.5911865234375 -1706.3600006103516 -12.7996826171875C-1706.3600006103516 -14.008087158203125 -1704.4100494384766 -15.21649169921875 -1700.530044555664 -18.012481689453125C-1512.6800689697266 -154.49497985839844 -1323.209976196289 -325.0019989013672 -1162.8499908447266 -501.85997009277344C-575.7280426025391 -1149.770004272461 -260.7460174560547 -1967.999984741211 -260.7460174560547 -2808.270004272461C-260.7460174560547 -3014.780014038086 -279.7720184326172 -3222.620101928711 -318.45802307128906 -3429.590072631836C-352.1990203857422 -3610.050033569336 -392.9540252685547 -3759.330062866211 -465.3660125732422 -3967.459945678711C-785.5300445556641 -4888.709945678711 -978.1209869384766 -5878.299789428711 -1021.2500152587891 -6824.580062866211C-1027.9300689697266 -6971.220199584961 -1031.270034790039 -7117.009750366211 -1031.270034790039 -7261.879867553711C-1031.270034790039 -8733.509750366211 -687.1620025634766 -10110.200180053711 -15.259414672851562 -11319.499984741211C-6.8241119384765625 -11334.599594116211 -1.52587890625e-05 -11347.799789428711 -1.52587890625e-05 -11349.099594116211C-1.52587890625e-05 -11354.700180053711 -4.4176177978515625 -11358.599594116211 -9.430099487304688 -11358.599594116211C-10.943313598632812 -11358.599594116211 -12.510818481445312 -11358.299789428711 -14.027313232421875 -11357.499984741211C-16.775909423828125 -11356.099594116211 -21.3253173828125 -11348.299789428711 -57.15180969238281 -11283.499984741211C-695.5839996337891 -10126.999984741211 -1084.3700103759766 -8868.299789428711 -1204.6400299072266 -7568.120101928711L-1209.8600006103516 -7511.729965209961C-1223.030044555664 -7370.129867553711 -1234.4000396728516 -7157.629867553711 -1239.9000396728516 -6949.209945678711C-1240.709976196289 -6918.790023803711 -1241.1100006103516 -6836.729965209961 -1241.1100006103516 -6754.560043334961C-1241.1100006103516 -6672.390121459961 -1240.709976196289 -6590.089828491211 -1239.9000396728516 -6559.200180053711C-1214.780044555664 -5604.009750366211 -1055.3700103759766 -4719.629867553711 -750.6510162353516 -3843.770004272461C-624.5000152587891 -3481.149887084961 -555.1220245361328 -3147.340072631836 -531.3319854736328 -2787.929916381836C-525.9140167236328 -2706.219955444336 -523.2340240478516 -2624.969955444336 -523.2340240478516 -2544.330062866211C-523.2340240478516 -1517.5899505615234 -957.7470245361328 -589.1269989013672 -1708.3900299072266 -36.11528015136719C-1725.030044555664 -23.841384887695312 -1733.3499908447266 -18.320480346679688 -1733.3499908447266 -12.7996826171875C-1733.3499908447266 -7.27874755859375 -1725.030044555664 -1.7578582763671875 -1708.3900299072266 10.516021728515625C-957.7470245361328 563.5280456542969 -523.2340240478516 1491.9900207519531 -523.2340240478516 2518.730010986328C-523.2340240478516 2599.370147705078 -525.9140167236328 2680.620147705078 -531.3319854736328 2762.330108642578C-555.1220245361328 3121.740020751953 -624.5000152587891 3455.550079345703 -750.6510162353516 3818.169952392578C-1078.050064086914 4759.240264892578 -1244.3499908447266 5745.589874267578 -1244.3499908447266 6742.879913330078C-1244.3499908447266 6852.770050048828 -1242.3299713134766 6962.790069580078 -1238.290054321289 7072.890167236328C-1187.010025024414 8466.330108642578 -812.0680084228516 9854.089874267578 -144.25404357910156 11121.900421142578C-87.10214233398438 11230.500030517578 -18.197647094726562 11355.299835205078 -14.216949462890625 11357.400421142578Z" fill="black" /></g></svg>