<?xml version="1.0" encoding="utf-8" ?>
<svg baseProfile="tiny" height="100%" version="1.2" width="100%" xmlns="http://www.w3.org/2000/svg" xmlns:ev="http://www.w3.org/2001/xml-events" xmlns:xlink="http://www.w3.org/1999/xlink"><defs /><g transform="translate(0, 1000) scale(1, -1)"><path d="M-15.429000854492188 8939.4404296875C-13.519317626953125 8941.349609375 -11.404220581054688 8942.3095703125 -9.266632080078125 8942.3095703125C-7.08306884765625 8942.3095703125 -4.8760223388671875 8941.3095703125 -2.8404083251953125 8939.26953125C-1.1146087646484375 8937.5498046875 -1.52587890625e-05 8936.349609375 -1.52587890625e-05 8934.23046875C-1.52587890625e-05 8930.169921875 -4.099334716796875 8922.6904296875 -15.848617553710938 8901.509765625C-501.1830291748047 8025.419921875 -766.5510406494141 7034.02001953125 -800.6240386962891 5969.10986328125C-803.2260284423828 5886.60986328125 -803.5620269775391 5861.009765625 -803.5620269775391 5734.9599609375C-803.5620269775391 5609.240234375 -803.2260284423828 5583.64013671875 -800.6240386962891 5499.97021484375C-775.6989898681641 4706.47021484375 -621.9500274658203 3887.449951171875 -351.46202087402344 3107.2900390625C-276.6010284423828 2891.43994140625 -236.989013671875 2726.780029296875 -211.89601135253906 2526.530029296875C-198.3100128173828 2418.179931640625 -191.63002014160156 2309.840087890625 -191.63002014160156 2202.010009765625C-191.63002014160156 1356.030029296875 -602.8590240478516 542.2150268554688 -1316.3399810791016 9.3941650390625C-1330.189956665039 -0.92852783203125 -1341.520034790039 -9.740570068359375 -1341.520034790039 -10.076278686523438C-1341.520034790039 -10.4119873046875 -1330.189956665039 -19.223983764648438 -1316.3399810791016 -29.546676635742188C-803.1420440673828 -412.82899475097656 -435.13401794433594 -952.5460357666016 -278.28001403808594 -1552.1800689697266C-220.6070098876953 -1772.6700592041016 -191.78501892089844 -1997.189956665039 -191.78501892089844 -2221.719985961914C-191.78501892089844 -2466.050064086914 -225.916015625 -2710.379898071289 -294.1420135498047 -2949.520034790039C-308.74400329589844 -3000.719985961914 -325.19300842285156 -3051.909927368164 -351.2100067138672 -3126.600112915039C-617.6699981689453 -3892.919937133789 -771.7550201416016 -4708.660171508789 -798.1070098876953 -5492.850112915039C-800.9340362548828 -5577.029800415039 -802.3449859619141 -5660.830093383789 -802.3449859619141 -5744.250015258789C-802.3449859619141 -6891.410171508789 -535.4879913330078 -7964.259780883789 -15.848587036132812 -8901.519546508789C-4.09930419921875 -8922.700210571289 1.52587890625e-05 -8930.179702758789 1.52587890625e-05 -8934.240249633789C1.52587890625e-05 -8936.360366821289 -1.1145782470703125 -8937.559585571289 -2.8403778076171875 -8939.280288696289C-4.8651580810546875 -8941.309585571289 -7.0595550537109375 -8942.309585571289 -9.23175048828125 -8942.309585571289C-11.381179809570312 -8942.309585571289 -13.508880615234375 -8941.330093383789 -15.428985595703125 -8939.370132446289C-18.5341796875 -8936.349624633789 -55.71269226074219 -8869.629898071289 -89.95378112792969 -8805.759780883789C-680.5089569091797 -7705.410171508789 -991.7729949951172 -6493.729995727539 -991.7729949951172 -5296.740249633789C-991.7729949951172 -5282.240249633789 -991.7280120849609 -5267.740249633789 -991.6359710693359 -5253.240249633789C-986.8519744873047 -4483.580093383789 -860.5460052490234 -3747.389907836914 -608.1859588623047 -3017.919937133789C-590.4780120849609 -2966.560073852539 -578.1409759521484 -2929.379898071289 -567.9019622802734 -2896.229995727539C-473.46299743652344 -2590.810073852539 -427.76097106933594 -2283.939956665039 -427.76097106933594 -1986.8600006103516C-427.76097106933594 -1196.760025024414 -751.0089569091797 -475.87501525878906 -1340.4300384521484 -35.33750915527344C-1358.749984741211 -21.676315307617188 -1367.9000091552734 -15.868011474609375 -1367.9000091552734 -10.06732177734375C-1367.9000091552734 -4.28656005859375 -1358.8199310302734 1.4866790771484375 -1340.6800384521484 15.01708984375C-827.2280120849609 398.802978515625 -504.70799255371094 1003.97998046875 -439.83399963378906 1705.3399658203125C-431.6129913330078 1794.1800537109375 -427.48997497558594 1882.9000244140625 -427.48997497558594 1971.6600341796875C-427.48997497558594 2309.699951171875 -487.2779998779297 2648.469970703125 -608.1859588623047 2997.77001953125C-844.1810150146484 3679.64990234375 -969.6479949951172 4363.39013671875 -991.1329803466797 5084.1298828125C-992.7089691162109 5137.0498046875 -993.5510101318359 5222.509765625 -993.5510101318359 5301.1298828125C-993.5510101318359 5360.66015625 -993.0679779052734 5416.27001953125 -992.0560150146484 5450.8798828125C-987.9429779052734 5591.27978515625 -982.7399749755859 5695.77001953125 -973.9279632568359 5814.27001953125C-969.8159637451172 5868.47998046875 -962.5139617919922 5952.990234375 -960.9199676513672 5964.06982421875C-960.4160003662109 5967.35009765625 -958.9059906005859 5981.4501953125 -957.5629730224609 5995.5400390625C-864.9099578857422 6938.52001953125 -572.6019744873047 7895.0 -110.51499938964844 8767.1396484375C-70.23159790039062 8843.259765625 -19.289505004882812 8935.5 -15.429000854492188 8939.4404296875Z" fill="black" /></g></svg>