<?xml version="1.0" encoding="utf-8" ?>
<svg baseProfile="tiny" height="100%" version="1.2" width="100%" xmlns="http://www.w3.org/2000/svg" xmlns:ev="http://www.w3.org/2001/xml-events" xmlns:xlink="http://www.w3.org/1999/xlink"><defs /><g transform="translate(0, 1000) scale(1, -1)"><path d="M-14.645401000976562 1225.719970703125C-13.475021362304688 1226.199951171875 -12.284011840820312 1226.4300537109375 -11.12451171875 1226.4300537109375C-6.3057403564453125 1226.4300537109375 -2.030548095703125 1222.5799560546875 -2.030548095703125 1217.469970703125C-2.030548095703125 1217.27001953125 -2.0368499755859375 1217.0799560546875 -2.0496826171875 1216.8800048828125C-2.171661376953125 1214.77001953125 -2.751129150390625 1213.489990234375 -6.8683929443359375 1206.050048828125C-64.78651428222656 1101.800048828125 -94.30331420898438 976.8369750976562 -94.30331420898438 839.656005859375C-94.30331420898438 781.8720092773438 -89.06620788574219 721.9210205078125 -78.50862121582031 660.43701171875C-65.02841186523438 581.7520141601562 -48.4984130859375 518.5599975585938 -17.664718627929688 427.8890075683594C-6.1183319091796875 393.9230041503906 -1.52587890625e-05 355.93499755859375 -1.52587890625e-05 319.14898681640625C-1.52587890625e-05 312.5989990234375 -0.1939697265625 306.0880126953125 -0.58575439453125 299.6440124511719C-7.1123809814453125 192.68699645996094 -61.734619140625 94.90969848632812 -160.3050079345703 13.815093994140625C-165.947021484375 9.209854125976562 -176.86502075195312 0.548370361328125 -178.87802124023438 -0.8545379638671875L-179.61001586914062 -1.373016357421875L-178.87802124023438 -1.8914794921875C-176.8650360107422 -3.2943878173828125 -165.94703674316406 -11.955902099609375 -160.30502319335938 -16.56109619140625C-61.73463439941406 -97.65570068359375 -7.112396240234375 -195.43299865722656 -0.5857696533203125 -302.3900146484375C-0.1939849853515625 -308.8340148925781 -3.0517578125e-05 -315.34600830078125 -3.0517578125e-05 -321.8970031738281C-3.0517578125e-05 -358.6889953613281 -6.11834716796875 -396.69500732421875 -17.66473388671875 -430.635009765625C-59.84373474121094 -554.7319946289062 -81.680419921875 -652.9359741210938 -90.5859375 -758.947998046875C-92.95323181152344 -787.1229858398438 -94.13333129882812 -814.822998046875 -94.13333129882812 -842.010986328125C-94.13333129882812 -978.7470092773438 -64.28244018554688 -1102.530029296875 -5.465484619140625 -1208.6400146484375C-2.9561767578125 -1213.18994140625 -1.947998046875 -1215.4100341796875 -1.947998046875 -1217.449951171875C-1.947998046875 -1218.449951171875 -2.194976806640625 -1219.4200439453125 -2.629150390625 -1220.5999755859375C-4.007904052734375 -1224.3199462890625 -7.5972442626953125 -1226.4300537109375 -11.224227905273438 -1226.4300537109375C-13.453933715820312 -1226.4300537109375 -15.69793701171875 -1225.6300048828125 -17.45123291015625 -1223.9200439453125C-19.952133178710938 -1221.47998046875 -38.830535888671875 -1186.3499755859375 -53.683135986328125 -1156.489990234375C-135.46603393554688 -991.93798828125 -176.5560302734375 -830.322021484375 -176.5560302734375 -675.3690185546875C-176.5560302734375 -581.7319946289062 -161.551025390625 -490.5270080566406 -131.45303344726562 -402.57598876953125C-112.48403930664062 -347.1310119628906 -104.18803405761719 -308.885986328125 -100.28402709960938 -258.625C-99.91403198242188 -253.74400329589844 -99.7109375 -241.04100036621094 -99.7109375 -229.33999633789062C-99.7109375 -219.83900451660156 -99.84483337402344 -210.9980010986328 -100.13203430175781 -207.54100036621094C-103.67002868652344 -164.38600158691406 -111.05003356933594 -133.73500061035156 -125.65902709960938 -101.55999755859375C-141.76202392578125 -66.12060546875 -166.7090301513672 -34.28050231933594 -195.28602600097656 -12.718292236328125C-202.85003662109375 -7.0456695556640625 -204.19203186035156 -5.3072662353515625 -204.19203186035156 -1.373016357421875C-204.19203186035156 2.5612640380859375 -202.85003662109375 4.299652099609375 -195.28602600097656 9.972305297851562C-166.7090301513672 31.534500122070312 -141.76202392578125 63.374603271484375 -125.65902709960938 98.81350708007812C-111.05003356933594 130.98899841308594 -103.67002868652344 161.63999938964844 -100.13203430175781 204.7949981689453C-99.84483337402344 208.2519989013672 -99.7109375 217.09300231933594 -99.7109375 226.593994140625C-99.7109375 238.2949981689453 -99.91403198242188 250.9980010986328 -100.28402709960938 255.87899780273438C-103.91403198242188 302.5719909667969 -112.45303344726562 343.8970031738281 -127.82403564453125 389.0950012207031C-138.95602416992188 421.82000732421875 -143.50003051757812 436.7330017089844 -150.0270233154297 462.0469970703125C-167.88702392578125 531.2109985351562 -176.7850341796875 602.1279907226562 -176.7850341796875 674.4140014648438C-176.7850341796875 848.2650146484375 -125.31802368164062 1030.0400390625 -23.27642822265625 1214.43994140625C-18.30523681640625 1223.4300537109375 -17.390228271484375 1224.5899658203125 -14.645431518554688 1225.719970703125Z" fill="black" /></g></svg>