<?xml version="1.0" encoding="utf-8" ?>
<svg baseProfile="tiny" height="100%" version="1.2" width="100%" xmlns="http://www.w3.org/2000/svg" xmlns:ev="http://www.w3.org/2001/xml-events" xmlns:xlink="http://www.w3.org/1999/xlink"><defs /><g transform="translate(0, 1000) scale(1, -1)"><path d="M-13.190505981445312 5728.259765625C-11.811813354492188 5728.8701171875 -10.427108764648438 5729.16015625 -9.1038818359375 5729.16015625C-4.3299102783203125 5729.16015625 -0.35687255859375 5725.4501953125 -0.35687255859375 5720.0400390625C-0.35687255859375 5720.009765625 -0.357025146484375 5719.97021484375 -0.3573455810546875 5719.93994140625V5715.6201171875L-10.675521850585938 5697.240234375C-306.48402404785156 5170.56005859375 -476.3470001220703 4537.16015625 -499.1110076904297 3875.43994140625C-500.85301208496094 3824.6201171875 -501.1750030517578 3808.239990234375 -501.4970245361328 3737.760009765625C-501.5340118408203 3730.1298828125 -501.55201721191406 3722.5 -501.55201721191406 3714.860107421875C-501.55201721191406 3154.52001953125 -403.5230255126953 2579.43994140625 -212.97601318359375 2022.489990234375C-188.3410186767578 1950.4599609375 -184.21401977539062 1938.0799560546875 -178.8610076904297 1920.8599853515625C-128.35301208496094 1757.7099609375 -103.59901428222656 1591.0400390625 -103.59901428222656 1425.3499755859375C-103.59901428222656 1014.3400268554688 -255.90301513671875 609.322021484375 -545.2210083007812 278.9159851074219C-634.5369873046875 176.89500427246094 -741.8460083007812 78.03410339355469 -847.801025390625 0.0674896240234375C-852.5079956054688 -3.414886474609375 -856.3779907226562 -6.4458465576171875 -856.3779907226562 -6.7682952880859375C-856.3779907226562 -7.090728759765625 -852.5079956054688 -10.1217041015625 -847.801025390625 -13.604095458984375C-741.8460083007812 -91.57070922851562 -634.5369873046875 -190.4320068359375 -545.2210083007812 -292.4519958496094C-255.90301513671875 -622.8579711914062 -103.59901428222656 -1027.8800048828125 -103.59901428222656 -1438.8900146484375C-103.59901428222656 -1604.5799560546875 -128.35301208496094 -1771.25 -178.8610076904297 -1934.3900146484375C-184.21401977539062 -1951.6099853515625 -188.59901428222656 -1964.8299560546875 -212.718017578125 -2035.25C-381.5490264892578 -2528.590087890625 -479.76502990722656 -3049.590087890625 -497.49900817871094 -3545.89990234375C-499.56300354003906 -3603.550048828125 -499.88502502441406 -3620.699951171875 -500.20802307128906 -3695.18994140625C-500.2420196533203 -3702.699951171875 -500.26002502441406 -3710.199951171875 -500.26002502441406 -3717.699951171875C-500.26002502441406 -4338.97998046875 -381.44801330566406 -4910.60986328125 -143.26402282714844 -5435.08984375C-103.0880126953125 -5523.68994140625 -41.50102233886719 -5645.18994140625 -4.2911529541015625 -5709.490234375C-1.4131622314453125 -5714.39990234375 -1.52587890625e-05 -5718.56982421875 -1.52587890625e-05 -5721.77978515625C-1.52587890625e-05 -5726.490234375 -3.032257080078125 -5729.16015625 -8.934310913085938 -5729.16015625H-9.630477905273438C-15.114822387695312 -5729.16015625 -15.293212890625 -5728.6201171875 -30.537918090820312 -5701.169921875C-442.6590118408203 -4958.33984375 -657.1670074462891 -4148.9501953125 -657.1670074462891 -3353.070068359375C-657.1670074462891 -3188.1298828125 -647.9539947509766 -3023.77001953125 -629.3780059814453 -2860.7099609375C-593.8449859619141 -2549.2900390625 -523.0370025634766 -2234.4599609375 -423.9180145263672 -1947.22998046875C-381.2260284423828 -1823.5400390625 -361.2990264892578 -1753.760009765625 -340.79200744628906 -1656.77001953125C-311.6280059814453 -1518.5899658203125 -297.4190216064453 -1381.77001953125 -297.4190216064453 -1248.6600341796875C-297.4190216064453 -747.7360229492188 -498.6230010986328 -299.2049865722656 -861.2790069580078 -27.340118408203125C-880.7190093994141 -12.788314819335938 -881.8709869384766 -12.165420532226562 -881.8709869384766 -8.46832275390625C-881.8709869384766 -7.9710540771484375 -881.8510284423828 -7.418182373046875 -881.8510284423828 -6.768310546875C-881.8510284423828 -6.1184539794921875 -881.8709869384766 -5.5655670166015625 -881.8709869384766 -5.06829833984375C-881.8709869384766 -1.3712158203125 -880.7190093994141 -0.748291015625 -861.2790069580078 13.803466796875C-498.6230010986328 285.66796875 -297.4190216064453 734.1999816894531 -297.4190216064453 1235.1199645996094C-297.4190216064453 1368.2399597167969 -311.6280059814453 1505.0500183105469 -340.79200744628906 1643.2299499511719C-361.2990264892578 1740.4799499511719 -381.0330047607422 1809.3599548339844 -424.24000549316406 1934.6600036621094C-473.5740203857422 2077.629852294922 -519.5540313720703 2241.110076904297 -554.2490386962891 2396.719940185547C-623.8590240478516 2708.879852294922 -658.3050079345703 3027.360076904297 -658.3050079345703 3347.639862060547C-658.3050079345703 4145.069793701172 -444.76902770996094 4953.640106201172 -28.796798706054688 5703.689910888672C-17.124298095703125 5724.779754638672 -15.57659912109375 5727.229949951172 -13.190505981445312 5728.259735107422Z" fill="black" /></g></svg>