<?xml version="1.0" encoding="utf-8" ?>
<svg baseProfile="tiny" height="100%" version="1.2" width="100%" xmlns="http://www.w3.org/2000/svg" xmlns:ev="http://www.w3.org/2001/xml-events" xmlns:xlink="http://www.w3.org/1999/xlink"><defs /><g transform="translate(0, 1000) scale(1, -1)"><path d="M-15.022796630859375 7372.72021484375C-13.305892944335938 7374.2900390625 -11.22540283203125 7375.0 -9.166885375976562 7375.0C-4.5274658203125 7375.0 0.0 7371.41015625 0.0 7366.06982421875C0.0 7362.89990234375 -1.50982666015625 7359.81005859375 -15.324798583984375 7334.89013671875C-399.3500061035156 6642.7900390625 -616.4639892578125 5845.60009765625 -651.114013671875 5000.5498046875C-654.510986328125 4917.43017578125 -655.3419799804688 4878.6298828125 -655.7949829101562 4780.8701171875C-655.843017578125 4770.72021484375 -655.8670043945312 4760.56982421875 -655.8670043945312 4750.419921875C-655.8670043945312 4013.06005859375 -528.6290283203125 3286.35009765625 -267.9949951171875 2534.239990234375C-196.65499877929688 2328.60009765625 -159.6649932861328 2130.280029296875 -149.32200622558594 1898.97998046875C-148.71800231933594 1885.5 -148.41600036621094 1854.5899658203125 -148.41600036621094 1823.5799560546875C-148.41600036621094 1792.5699462890625 -148.71800231933594 1761.469970703125 -149.32200622558594 1747.6199951171875C-157.09800720214844 1569.6800537109375 -179.4429931640625 1421.5699462890625 -223.07699584960938 1258.81005859375C-354.5840148925781 768.1890258789062 -664.552001953125 318.7130126953125 -1087.6099853515625 5.04547119140625C-1097.27001953125 -2.126220703125 -1105.1199951171875 -8.090057373046875 -1105.1199951171875 -8.3165283203125C-1105.1199951171875 -8.542999267578125 -1097.27001953125 -14.506881713867188 -1087.6099853515625 -21.678482055664062C-863.7739868164062 -187.60897827148438 -663.1179809570312 -400.4189910888672 -512.8140258789062 -631.1970062255859C-272.9750061035156 -999.4089813232422 -148.41600036621094 -1412.5899505615234 -148.41600036621094 -1840.1099700927734V-1840.499984741211C-148.41598510742188 -1893.189926147461 -148.86898803710938 -1909.3399505615234 -151.3599853515625 -1957.509994506836C-161.92898559570312 -2157.479965209961 -201.6379852294922 -2359.499984741211 -267.99497985839844 -2550.870101928711C-363.4159698486328 -2826.259994506836 -432.79298400878906 -3067.310043334961 -491.3739776611328 -3326.919906616211C-600.6030120849609 -3811.070053100586 -654.7209930419922 -4290.810043334961 -654.7209930419922 -4757.749984741211C-654.7209930419922 -5690.100082397461 -438.95399475097656 -6571.410140991211 -15.324783325195312 -7334.919906616211C-1.5098114013671875 -7359.830062866211 1.52587890625e-05 -7362.930160522461 1.52587890625e-05 -7366.100082397461C1.52587890625e-05 -7371.410140991211 -4.4961090087890625 -7374.999984741211 -9.118606567382812 -7374.999984741211C-11.192779541015625 -7374.999984741211 -13.29248046875 -7374.279769897461 -15.022781372070312 -7372.669906616211C-16.306182861328125 -7371.529769897461 -21.967987060546875 -7362.100082397461 -27.7808837890625 -7351.749984741211C-439.9649658203125 -6611.330062866211 -698.4479675292969 -5816.939926147461 -791.2269592285156 -5005.479965209961C-797.6429748535156 -4948.930160522461 -798.5489807128906 -4940.779769897461 -801.6439514160156 -4908.470199584961C-819.7879943847656 -4722.009750366211 -829.0019836425781 -4529.410140991211 -829.0019836425781 -4341.979965209961C-829.0019836425781 -4279.080062866211 -827.9639587402344 -4216.759750366211 -825.8769836425781 -4155.439926147461C-806.2489929199219 -3579.669906616211 -704.8639831542969 -3034.169906616211 -515.6069641113281 -2485.570053100586C-438.52996826171875 -2262.189926147461 -395.9529724121094 -2070.739974975586 -375.5699768066406 -1855.5899505615234C-368.27197265625 -1778.550033569336 -364.6769714355469 -1702.1099700927734 -364.6769714355469 -1626.550033569336C-364.6769714355469 -972.0540008544922 -634.4179992675781 -383.0399627685547 -1104.4399108886719 -33.07774353027344C-1130.7900085449219 -13.486038208007812 -1130.8599548339844 -13.44964599609375 -1130.8599548339844 -8.403244018554688V-8.316497802734375V-8.229736328125C-1130.8599548339844 -3.1832733154296875 -1130.7900085449219 -3.14691162109375 -1104.4399108886719 16.44476318359375C-634.4179992675781 366.4070739746094 -364.6769714355469 955.4211120605469 -364.6769714355469 1609.9201354980469C-364.6769714355469 1685.4800720214844 -368.27197265625 1761.9201354980469 -375.5699768066406 1838.9600524902344C-395.9529724121094 2054.0401306152344 -438.52996826171875 2245.4100036621094 -515.6069641113281 2468.9400329589844C-704.4869689941406 3016.5501403808594 -806.6269836425781 3562.9600524902344 -827.0099792480469 4133.899993896484C-829.4249572753906 4201.690032958984 -829.8029479980469 4221.549896240234 -830.1799621582031 4309.799896240234C-830.2189636230469 4318.529876708984 -830.2379455566406 4327.279876708984 -830.2379455566406 4336.040130615234C-830.2379455566406 4548.790130615234 -818.8419494628906 4769.589935302734 -798.3229675292969 4950.339935302734C-788.2069396972656 5039.879974365234 -784.2809753417969 5072.490325927734 -777.5629577636719 5122.620208740234C-682.3679504394531 5832.240325927734 -453.4019775390625 6544.879974365234 -110.36895751953125 7198.859954833984C-69.22566223144531 7277.370208740234 -18.872848510742188 7369.089935302734 -15.022750854492188 7372.720306396484Z" fill="black" /></g></svg>