<?xml version="1.0" encoding="utf-8" ?>
<svg baseProfile="tiny" height="100%" version="1.2" width="100%" xmlns="http://www.w3.org/2000/svg" xmlns:ev="http://www.w3.org/2001/xml-events" xmlns:xlink="http://www.w3.org/1999/xlink"><defs /><g transform="translate(0, 1000) scale(1, -1)"><path d="M-13.623199462890625 8366.2900390625C-12.23199462890625 8366.9697265625 -10.790802001953125 8367.2802734375 -9.38958740234375 8367.2802734375C-4.446197509765625 8367.2802734375 0.0 8363.4296875 0.0 8358.3798828125C0.0 8357.91015625 -0.03802490234375 8357.4296875 -0.1171722412109375 8356.9501953125C-0.352752685546875 8355.5302734375 -5.61383056640625 8345.25 -11.895706176757812 8334.01953125C-500.7270050048828 7455.8798828125 -750.2119903564453 6445.10986328125 -750.2119903564453 5375.259765625C-750.2119903564453 4914.72998046875 -703.9840240478516 4443.25 -610.7169952392578 3966.68994140625C-540.1240386962891 3605.949951171875 -444.71800231933594 3254.6298828125 -318.0600128173828 2888.8701171875C-223.4390106201172 2615.68994140625 -178.916015625 2363.159912109375 -176.010009765625 2084.39990234375C-175.92800903320312 2076.25 -175.8870086669922 2068.10009765625 -175.8870086669922 2059.9599609375C-175.8870086669922 1312.6099853515625 -521.1439971923828 594.3109741210938 -1121.3600006103516 95.23471069335938C-1160.229995727539 62.961395263671875 -1237.6500396728516 2.733795166015625 -1253.3600006103516 -7.4742889404296875C-1254.260025024414 -8.061294555664062 -1254.959976196289 -8.389266967773438 -1254.959976196289 -8.95654296875C-1254.959976196289 -10.210494995117188 -1251.540054321289 -12.633697509765625 -1239.3800201416016 -21.608596801757812C-695.1300201416016 -422.94300842285156 -321.8290252685547 -1019.4900054931641 -211.5810089111328 -1663.9300689697266C-187.50001525878906 -1804.6300201416016 -175.4420166015625 -1944.300064086914 -175.4420166015625 -2083.399917602539C-175.4420166015625 -2359.310073852539 -222.88902282714844 -2632.939956665039 -318.0600128173828 -2907.750015258789C-527.4040069580078 -3512.219985961914 -659.3230133056641 -4110.810073852539 -716.4099884033203 -4715.750015258789C-737.6540069580078 -4940.839859008789 -748.2190093994141 -5163.759780883789 -748.2190093994141 -5383.919937133789C-748.2190093994141 -6451.209976196289 -499.93800354003906 -7453.930191040039 -16.214523315429688 -8326.269546508789C-7.5769500732421875 -8341.820327758789 -0.3527679443359375 -8355.639663696289 -0.1171875 -8356.980484008789C-0.0398406982421875 -8357.450210571289 -0.0027923583984375 -8357.919937133789 -0.0027923583984375 -8358.370132446289C-0.0027923583984375 -8363.660171508789 -5.0410003662109375 -8367.280288696289 -9.907577514648438 -8367.280288696289C-12.671218872070312 -8367.280288696289 -15.379409790039062 -8366.110366821289 -17.078323364257812 -8363.410171508789C-22.732009887695312 -8354.309585571289 -72.51600646972656 -8263.610366821289 -96.62281799316406 -8218.299819946289C-519.0800323486328 -7425.759780883789 -788.4160308837891 -6570.479995727539 -888.3770294189453 -5703.970230102539L-893.4810333251953 -5660.080093383789C-917.0990142822266 -5462.879898071289 -932.4480133056641 -5174.459976196289 -932.4480133056641 -4938.209976196289C-932.4480133056641 -4916.040054321289 -932.3120269775391 -4894.330093383789 -932.0360260009766 -4873.189956665039C-922.4560089111328 -4151.169937133789 -806.6339874267578 -3493.530044555664 -566.9010162353516 -2800.560073852539C-458.1010284423828 -2486.090103149414 -404.91102600097656 -2165.780044555664 -404.91102600097656 -1855.3299713134766C-404.91102600097656 -1272.6700592041016 -592.2620391845703 -724.7249908447266 -950.9600372314453 -315.2090301513672C-1045.1100006103516 -207.63101196289062 -1159.280044555664 -102.72401428222656 -1267.020034790039 -24.74951171875C-1276.760025024414 -17.72161865234375 -1281.6200103759766 -13.579513549804688 -1281.6200103759766 -9.437393188476562C-1281.6200103759766 -5.2952728271484375 -1276.760025024414 -1.1531524658203125 -1267.020034790039 5.874725341796875C-1095.760025024414 129.7849884033203 -933.4500274658203 297.8259735107422 -804.9850006103516 484.08399963378906C-540.6049957275391 867.5959930419922 -404.9500274658203 1340.719955444336 -404.9500274658203 1836.9000091552734C-404.9500274658203 2147.870101928711 -458.23402404785156 2467.889877319336 -566.5080108642578 2780.590072631836C-604.2000274658203 2889.340072631836 -629.1699981689453 2965.669906616211 -655.0050201416016 3051.020004272461C-840.7310333251953 3663.259994506836 -934.2360382080078 4295.259750366211 -934.2360382080078 4935.740219116211C-934.2360382080078 5070.799789428711 -930.0780181884766 5206.240219116211 -921.7500152587891 5341.950180053711C-914.9970245361328 5451.180160522461 -903.6110382080078 5583.959945678711 -893.8740386962891 5665.080062866211L-888.3770294189453 5712.189926147461C-784.3330230712891 6611.680160522461 -487.1210174560547 7522.319808959961 -31.134017944335938 8338.410140991211C-15.272216796875 8366.759750366211 -16.528610229492188 8364.879867553711 -13.623214721679688 8366.290023803711Z" fill="black" /></g></svg>