<?xml version="1.0" encoding="utf-8" ?>
<svg baseProfile="tiny" height="100%" version="1.2" width="100%" xmlns="http://www.w3.org/2000/svg" xmlns:ev="http://www.w3.org/2001/xml-events" xmlns:xlink="http://www.w3.org/1999/xlink"><defs /><g transform="translate(0, 1000) scale(1, -1)"><path d="M-15.020706176757812 10985.7001953125C-13.403121948242188 10987.099609375 -11.37042236328125 10987.7998046875 -9.308120727539062 10987.7998046875C-6.9288787841796875 10987.7998046875 -4.5102081298828125 10986.900390625 -2.644012451171875 10985.0C-1.0727386474609375 10983.5 -1.52587890625e-05 10982.400390625 -1.52587890625e-05 10980.2001953125C-1.52587890625e-05 10975.599609375 -5.2353057861328125 10966.0 -21.896713256835938 10936.0C-667.3250579833984 9770.66015625 -998.2630462646484 8435.099609375 -998.2630462646484 7021.10986328125C-998.2630462646484 6640.10986328125 -974.2350311279297 6253.41015625 -925.8580169677734 5862.81005859375C-839.3120574951172 5163.47998046875 -676.8560638427734 4473.5 -435.0050506591797 3778.02001953125C-311.31703186035156 3422.25 -249.8020477294922 3063.159912109375 -249.8020477294922 2695.7099609375C-249.8020477294922 2627.110107421875 -251.946044921875 2558.219970703125 -256.2300567626953 2489.0C-316.1880340576172 1521.050048828125 -814.6500701904297 613.7869873046875 -1615.8400115966797 14.3858642578125C-1633.9000701904297 0.8172607421875 -1649.3900604248047 -10.734329223632812 -1650.2200164794922 -11.192733764648438C-1650.8101043701172 -11.559524536132812 -1651.1100311279297 -11.788726806640625 -1651.1100311279297 -12.017837524414062C-1651.1100311279297 -12.247024536132812 -1650.8101043701172 -12.476226806640625 -1650.2200164794922 -12.843032836914062C-1646.7300262451172 -14.951629638671875 -1580.7300262451172 -64.73362731933594 -1561.2900848388672 -79.86083984375C-915.3150482177734 -583.8240051269531 -472.50205993652344 -1291.6800842285156 -314.3550567626953 -2072.980010986328C-271.27806091308594 -2285.899932861328 -249.8240509033203 -2501.780059814453 -249.8240509033203 -2717.570098876953C-249.8240509033203 -3050.149932861328 -300.78504943847656 -3382.510040283203 -402.09205627441406 -3703.500030517578C-411.4430389404297 -3733.110137939453 -425.83705139160156 -3775.740020751953 -447.8400421142578 -3839.179962158203C-810.3620452880859 -4885.720245361328 -995.6890716552734 -5974.120147705078 -995.6890716552734 -7031.680206298828C-995.6890716552734 -7399.089874267578 -973.3200531005859 -7762.779815673828 -928.2410736083984 -8119.709991455078C-800.0730438232422 -9134.509796142578 -495.78904724121094 -10079.599639892578 -21.896743774414062 -10935.299835205078C-5.2353363037109375 -10965.299835205078 -4.57763671875e-05 -10974.900421142578 -4.57763671875e-05 -10979.500030517578C-4.57763671875e-05 -10981.599639892578 -1.0727691650390625 -10982.799835205078 -2.64404296875 -10984.299835205078C-4.864288330078125 -10986.500030517578 -6.8156890869140625 -10987.799835205078 -8.816162109375 -10987.799835205078C-13.424041748046875 -10987.799835205078 -18.292251586914062 -10981.200225830078 -27.30584716796875 -10965.000030517578C-653.2940673828125 -9843.650421142578 -1033.9500122070312 -8642.280303955078 -1160.1900024414062 -7389.480010986328C-1168.8101196289062 -7304.669952392578 -1168.4400024414062 -7308.069854736328 -1173.0300903320312 -7253.419952392578C-1193.1200561523438 -7012.299835205078 -1203.1300659179688 -6771.209991455078 -1203.1300659179688 -6530.750030517578C-1203.1300659179688 -5575.240264892578 -1045.1100463867188 -4629.700225830078 -733.8810424804688 -3731.919952392578C-619.0980834960938 -3400.860137939453 -557.5810546875 -3129.580108642578 -526.22607421875 -2816.040069580078C-514.259033203125 -2696.189971923828 -508.3670654296875 -2577.179962158203 -508.3670654296875 -2459.470001220703C-508.3670654296875 -1474.3800354003906 -921.0380859375 -580.4040222167969 -1638.7600708007812 -45.389251708984375C-1676.0501098632812 -17.598358154296875 -1676.8101196289062 -17.141464233398438 -1676.8101196289062 -12.618362426757812V-12.017868041992188V-11.934768676757812C-1676.8101196289062 -6.975799560546875 -1676.7100219726562 -6.9319915771484375 -1643.8900756835938 17.411224365234375C-1129.9400024414062 398.3399353027344 -758.5420532226562 978.3969421386719 -599.570068359375 1648.4799499511719C-538.6690673828125 1905.1800231933594 -508.35406494140625 2169.290008544922 -508.35406494140625 2436.459930419922C-508.35406494140625 2846.580047607422 -579.7910766601562 3263.879852294922 -721.6870727539062 3672.590057373047C-1026.1600952148438 4549.319793701172 -1179.4400024414062 5394.879852294922 -1203.8300170898438 6330.839813232422C-1205.1701049804688 6382.609832763672 -1205.8200073242188 6438.910125732422 -1205.8200073242188 6497.859832763672C-1205.8200073242188 6684.240203857422 -1199.3300170898438 6897.259735107422 -1187.6900024414062 7078.479949951172C-1182.3800659179688 7159.709930419922 -1172.2000122070312 7290.259735107422 -1168.9000854492188 7318.870086669922C-1168.3500366210938 7323.269989013672 -1165.5100708007812 7351.600067138672 -1162.4800415039062 7381.759735107422C-1038.5300903320312 8626.040008544922 -655.9530639648438 9836.940399169922 -33.99847412109375 10953.799774169922C-24.830581665039062 10970.200164794922 -16.304275512695312 10984.499969482422 -15.020782470703125 10985.700164794922Z" fill="black" /></g></svg>