<?xml version="1.0" encoding="utf-8" ?>
<svg baseProfile="tiny" height="100%" version="1.2" width="100%" xmlns="http://www.w3.org/2000/svg" xmlns:ev="http://www.w3.org/2001/xml-events" xmlns:xlink="http://www.w3.org/1999/xlink"><defs /><g transform="translate(0, 1000) scale(1, -1)"><path d="M-17.505401611328125 409.6780090332031C-17.139892578125 409.7149963378906 -16.779403686523438 409.73199462890625 -16.424697875976562 409.73199462890625C-11.241104125976562 409.73199462890625 -7.30706787109375 405.9549865722656 -7.30706787109375 400.7430114746094L-7.3070831298828125 400.72198486328125C-7.30706787109375 398.5429992675781 -7.5103607177734375 397.88800048828125 -9.159271240234375 394.8949890136719C-25.549789428710938 365.135986328125 -33.75138854980469 331.0769958496094 -33.75138854980469 291.9849853515625C-33.75138854980469 249.99899291992188 -24.29058837890625 202.20899963378906 -5.353240966796875 147.70700073242188C-3.0267181396484375 141.00999450683594 -1.3778228759765625 134.72000122070312 -0.395263671875 128.7449951171875L1.52587890625e-05 126.36199951171875V109.18399047851562V92.00628662109375L-0.2823333740234375 90.19927978515625C-2.4394378662109375 76.466064453125 -7.9282379150390625 61.75016784667969 -15.720977783203125 48.751068115234375C-25.73858642578125 32.070068359375 -39.46058654785156 17.1961669921875 -59.42799377441406 1.3848114013671875C-60.64768981933594 0.413543701171875 -61.65287780761719 -0.3996124267578125 -61.65287780761719 -0.4334869384765625C-61.65287780761719 -0.467376708984375 -60.64768981933594 -1.2805328369140625 -59.42799377441406 -2.2517852783203125C-39.46058654785156 -18.063125610351562 -25.73858642578125 -32.93702697753906 -15.720977783203125 -49.61802673339844C-7.9282379150390625 -62.61723327636719 -2.4394378662109375 -77.33303833007812 -0.2823333740234375 -91.06622314453125L1.52587890625e-05 -92.87332153320312V-110.051025390625V-127.22901916503906L-0.395263671875 -129.6120147705078C-1.3778076171875 -135.5860137939453 -3.026702880859375 -141.8660125732422 -5.3532257080078125 -148.5740203857422C-24.239776611328125 -202.9700164794922 -33.6751708984375 -250.57801818847656 -33.6751708984375 -292.38502502441406C-33.6751708984375 -331.3030242919922 -25.49896240234375 -365.1950225830078 -9.159255981445312 -394.85801696777344C-7.510345458984375 -397.8510284423828 -7.3070526123046875 -398.5060272216797 -7.3070526123046875 -400.68601989746094L-7.307037353515625 -400.70201110839844C-7.3070526123046875 -405.9870147705078 -11.514862060546875 -409.7320098876953 -16.2332763671875 -409.7320098876953C-17.657363891601562 -409.7320098876953 -19.127975463867188 -409.39100646972656 -20.543365478515625 -408.6480255126953C-22.53106689453125 -407.59800720214844 -23.299072265625 -406.6490020751953 -25.727264404296875 -402.2780303955078C-59.07786560058594 -342.16102600097656 -77.1253662109375 -290.65000915527344 -82.15106201171875 -241.27401733398438C-83.06005859375 -232.34901428222656 -83.59417724609375 -220.5170135498047 -83.59417724609375 -210.8100128173828C-83.59417724609375 -207.2510223388672 -83.52236938476562 -203.97702026367188 -83.37088012695312 -201.2370147705078C-82.9190673828125 -192.95901489257812 -82.73837280273438 -190.4400177001953 -82.26406860351562 -185.7650146484375C-80.197265625 -165.25502014160156 -76.32347106933594 -147.7840118408203 -69.00506591796875 -125.90800476074219C-61.47216796875 -103.37602233886719 -58.287261962890625 -89.20280456542969 -56.9207763671875 -72.03620910644531C-56.76316833496094 -70.08610534667969 -56.68756103515625 -67.81951904296875 -56.68756103515625 -65.43492126464844C-56.68756103515625 -60.47261047363281 -57.014678955078125 -54.99931335449219 -57.60966491699219 -50.80381774902344C-60.01527404785156 -33.659820556640625 -68.30487060546875 -18.413223266601562 -80.20857238769531 -9.220062255859375L-82.25276184082031 -7.6389312744140625C-84.63575744628906 -5.781097412109375 -85.82725524902344 -3.1072845458984375 -85.82725524902344 -0.4334716796875C-85.82725524902344 2.2403411865234375 -84.63575744628906 4.9141387939453125 -82.25276184082031 6.77197265625L-80.20857238769531 8.353103637695312C-65.19285583496094 19.958480834960938 -56.60975646972656 40.26289367675781 -56.60975646972656 63.45988464355469C-56.60975646972656 65.99757385253906 -56.71244812011719 68.56988525390625 -56.92076110839844 71.16928100585938C-58.27595520019531 88.23417663574219 -61.4947509765625 102.58897399902344 -68.89215087890625 124.70198059082031C-72.14476013183594 134.4259796142578 -72.98054504394531 137.11398315429688 -74.46005249023438 142.7159881591797C-80.608154296875 165.87098693847656 -83.71415710449219 189.07298278808594 -83.71415710449219 212.7159881591797C-83.71415710449219 265.81398010253906 -68.0478515625 321.1379852294922 -35.99336242675781 383.16099548339844C-30.730361938476562 393.35899353027344 -24.191253662109375 405.31898498535156 -23.253860473632812 406.45997619628906C-21.864761352539062 408.1429901123047 -19.470458984375 409.48597717285156 -17.505355834960938 409.67799377441406Z" fill="black" /></g></svg>