<?xml version="1.0" encoding="utf-8" ?>
<svg baseProfile="tiny" height="100%" version="1.2" width="100%" xmlns="http://www.w3.org/2000/svg" xmlns:ev="http://www.w3.org/2001/xml-events" xmlns:xlink="http://www.w3.org/1999/xlink"><defs /><g transform="translate(0, 1000) scale(1, -1)"><path d="M-19.8695068359375 769.8800048828125C-18.958892822265625 770.1690063476562 -18.04620361328125 770.3049926757812 -17.154403686523438 770.3049926757812C-12.351898193359375 770.3049926757812 -8.155242919921875 766.3660278320312 -8.155242919921875 761.1909790039062C-8.155242919921875 759.0239868164062 -8.498504638671875 758.0159912109375 -10.472305297851562 754.4539794921875C-45.00849914550781 692.43798828125 -62.27789306640625 620.3980102539062 -62.27789306640625 539.27099609375C-62.27789306640625 460.5360107421875 -46.011505126953125 373.24200439453125 -13.475997924804688 278.2460021972656C-4.0927734375 250.8520050048828 0.0 228.90699768066406 0.0 204.73500061035156C0.0 200.77499389648438 -0.1098480224609375 196.7550048828125 -0.3242645263671875 192.64199829101562C-4.0788421630859375 121.32598876953125 -41.10969543457031 58.57110595703125 -112.51100158691406 2.488555908203125C-114.76400756835938 0.7292633056640625 -116.6090087890625 -0.7940216064453125 -116.6090087890625 -0.8798370361328125C-116.6090087890625 -0.9656524658203125 -114.76400756835938 -2.4889373779296875 -112.51100158691406 -4.24822998046875C-41.10969543457031 -60.33079528808594 -4.0788421630859375 -123.08599853515625 -0.3242645263671875 -194.4010009765625C-0.1102142333984375 -198.49000549316406 -0.00079345703125 -202.49099731445312 -0.00079345703125 -206.43600463867188C-0.00079345703125 -230.56300354003906 -4.093536376953125 -252.5959930419922 -13.368698120117188 -279.6839904785156C-45.85310363769531 -374.510009765625 -62.16630554199219 -461.6709899902344 -62.16630554199219 -540.405029296875C-62.16630554199219 -554.9089965820312 -61.612701416015625 -569.1259765625 -60.50469970703125 -583.052978515625C-60.268707275390625 -585.9929809570312 -60.03269958496094 -589.14599609375 -59.9468994140625 -590.0260009765625C-58.831298828125 -604.593994140625 -54.64759826660156 -630.5969848632812 -50.52830505371094 -648.7050170898438C-42.01080322265625 -686.1649780273438 -28.279800415039062 -722.4439697265625 -10.601104736328125 -754.2830200195312C-8.498504638671875 -758.0380249023438 -8.155242919921875 -759.0460205078125 -8.155242919921875 -761.2349853515625C-8.155242919921875 -766.5859985351562 -12.325698852539062 -770.3049926757812 -17.129501342773438 -770.3049926757812C-18.60369873046875 -770.3049926757812 -20.137496948242188 -769.9550170898438 -21.628799438476562 -769.1939697265625C-23.838592529296875 -768.0570068359375 -24.9971923828125 -766.2340087890625 -34.11540222167969 -749.3270263671875C-98.03559875488281 -630.9769897460938 -129.86000061035156 -519.6279907226562 -129.86000061035156 -413.635009765625C-129.86000061035156 -366.50799560546875 -123.56900024414062 -320.4389953613281 -111.00900268554688 -275.2860107421875C-108.09100341796875 -264.8590087890625 -105.62399291992188 -257.02801513671875 -100.53900146484375 -242.13800048828125C-89.61880493164062 -210.0850067138672 -83.654296875 -182.1510009765625 -81.16560363769531 -151.27699279785156C-80.85140991210938 -147.3179931640625 -80.70111083984375 -142.29400634765625 -80.70111083984375 -136.95599365234375C-80.70111083984375 -127.71600341796875 -81.15139770507812 -117.53298950195312 -81.98089599609375 -110.29901123046875C-86.87249755859375 -67.60400390625 -105.62399291992188 -32.35389709472656 -135.4669952392578 -9.80499267578125C-140.18699645996094 -6.2220611572265625 -141.1739959716797 -4.6773223876953125 -141.1739959716797 -0.8798370361328125C-141.1739959716797 2.917633056640625 -140.18699645996094 4.4623870849609375 -135.4669952392578 8.045318603515625C-109.31399536132812 27.82659912109375 -91.50680541992188 57.54130554199219 -84.34089660644531 93.41360473632812C-81.88200378417969 105.72698974609375 -80.66030883789062 118.89199829101562 -80.66030883789062 132.7740020751953C-80.66030883789062 165.2830047607422 -87.36019897460938 201.7239990234375 -100.56100463867188 240.3780059814453C-113.64801025390625 278.739013671875 -120.85699462890625 308.9259948730469 -125.70599365234375 345.72100830078125C-128.4929962158203 366.8219909667969 -130.0399932861328 392.1839904785156 -130.0399932861328 414.75799560546875C-130.0399932861328 421.7229919433594 -129.89199829101562 428.4230041503906 -129.58900451660156 434.6510009765625C-124.41799926757812 540.97998046875 -92.27909851074219 644.177001953125 -28.25830078125 759.989990234375C-23.838592529296875 767.9920043945312 -23.08770751953125 768.8720092773438 -19.8695068359375 769.8800048828125Z" fill="black" /></g></svg>