<?xml version="1.0" encoding="utf-8" ?>
<svg baseProfile="tiny" height="100%" version="1.2" width="100%" xmlns="http://www.w3.org/2000/svg" xmlns:ev="http://www.w3.org/2001/xml-events" xmlns:xlink="http://www.w3.org/1999/xlink"><defs /><g transform="translate(0, 1000) scale(1, -1)"><path d="M-12.379104614257812 301.82598876953125C-12.194320678710938 301.8370056152344 -12.0106201171875 301.8429870605469 -11.828323364257812 301.8429870605469C-6.8458099365234375 301.8429870605469 -2.84906005859375 297.68499755859375 -2.84906005859375 292.8089904785156C-2.84906005859375 292.2619934082031 -2.8993072509765625 291.7070007324219 -3.003997802734375 291.1470031738281C-3.2598419189453125 289.7850036621094 -3.3918914794921875 289.4960021972656 -5.1992340087890625 286.1619873046875C-16.78131103515625 264.8489990234375 -22.670120239257812 239.64700317382812 -22.670120239257812 211.6020050048828C-22.670120239257812 206.2550048828125 -22.456008911132812 200.80499267578125 -22.026519775390625 195.25900268554688C-20.012908935546875 169.18800354003906 -13.262115478515625 139.15699768066406 -2.4675750732421875 108.27499389648438C-1.6092987060546875 105.81600952148438 -0.9160614013671875 103.55400085449219 -0.379638671875 101.4580078125L-1.52587890625e-05 99.95620727539062V79.34091186523438V58.725616455078125L-0.379638671875 57.28141784667969C-5.6943817138671875 36.76512145996094 -19.237106323242188 17.42071533203125 -40.050506591796875 0.618194580078125C-40.66119384765625 0.1230316162109375 -41.17279052734375 -0.3061065673828125 -41.17279052734375 -0.33087158203125C-41.17279052734375 -0.3556365966796875 -40.66119384765625 -0.776519775390625 -40.050506591796875 -1.279937744140625C-19.237106323242188 -18.082489013671875 -5.6943817138671875 -37.4268798828125 -0.3796234130859375 -57.943084716796875L0.0 -59.38739013671875V-80.002685546875V-100.61798095703125L-0.3796234130859375 -102.1199951171875C-0.9160308837890625 -104.2239990234375 -1.6092681884765625 -106.48599243164062 -2.475799560546875 -108.97799682617188C-14.7393798828125 -144.03599548339844 -21.696380615234375 -177.72300720214844 -22.538192749023438 -206.11300659179688C-22.596389770507812 -208.072998046875 -22.625381469726562 -210.0229949951172 -22.625381469726562 -211.9600067138672C-22.625381469726562 -239.7010040283203 -16.677383422851562 -265.0669860839844 -5.1992034912109375 -286.16400146484375C-3.3918609619140625 -289.48199462890625 -3.2598114013671875 -289.7869873046875 -3.00396728515625 -291.14898681640625C-2.892181396484375 -291.7460021972656 -2.83905029296875 -292.3299865722656 -2.83905029296875 -292.89599609375C-2.83905029296875 -298.1029968261719 -7.3383331298828125 -301.8429870605469 -12.038787841796875 -301.8429870605469C-14.218780517578125 -301.8429870605469 -16.441986083984375 -301.03900146484375 -18.27978515625 -299.2030029296875C-19.27838134765625 -298.2049865722656 -19.657989501953125 -297.5769958496094 -23.206680297851562 -291.0329895019531C-46.99098205566406 -247.22799682617188 -59.86528015136719 -207.51600646972656 -62.25848388671875 -170.54299926757812C-62.57557678222656 -165.65699768066406 -62.73579406738281 -160.86399841308594 -62.73579406738281 -156.13800048828125C-62.73579406738281 -134.0489959716797 -59.23658752441406 -113.4320068359375 -51.90138244628906 -91.74630737304688C-46.83418273925781 -76.77590942382812 -44.58119201660156 -66.7406005859375 -43.51658630371094 -54.46879577636719C-43.39068603515625 -52.99409484863281 -43.33018493652344 -51.15910339355469 -43.33018493652344 -49.21440124511719C-43.33018493652344 -45.80470275878906 -43.516387939453125 -42.05780029296875 -43.863189697265625 -39.32499694824219C-45.546783447265625 -26.0299072265625 -51.50518798828125 -15.144500732421875 -61.0535888671875 -7.9316558837890625C-63.88429260253906 -5.8024444580078125 -65.13047790527344 -3.4751739501953125 -65.13047790527344 -0.3308868408203125C-65.13047790527344 2.8134002685546875 -63.88429260253906 5.1406707763671875 -61.0535888671875 7.269866943359375C-52.8173828125 13.492401123046875 -47.23028564453125 22.45489501953125 -44.812286376953125 33.31549072265625C-43.814483642578125 37.80250549316406 -43.31358337402344 42.5758056640625 -43.31358337402344 47.71040344238281C-43.31358337402344 55.82530212402344 -44.56459045410156 64.84249877929688 -47.081787109375 75.05770874023438C-48.26188659667969 79.86080932617188 -49.54109191894531 84.10269165039062 -52.09938049316406 91.68699645996094C-57.6287841796875 108.11799621582031 -60.880279541015625 123.66600036621094 -62.13478088378906 139.677001953125C-62.56878662109375 145.1999969482422 -62.787384033203125 150.72000122070312 -62.787384033203125 156.2519989013672C-62.787384033203125 194.47799682617188 -52.34748840332031 233.2449951171875 -30.394790649414062 277.2080078125C-26.037277221679688 285.947998046875 -20.169692993164062 296.8659973144531 -19.080276489257812 298.2860107421875C-17.462783813476562 300.3900146484375 -15.052978515625 301.6610107421875 -12.37908935546875 301.82598876953125Z" fill="black" /></g></svg>