<?xml version="1.0" encoding="utf-8" ?>
<svg baseProfile="tiny" height="100%" version="1.2" width="100%" xmlns="http://www.w3.org/2000/svg" xmlns:ev="http://www.w3.org/2001/xml-events" xmlns:xlink="http://www.w3.org/1999/xlink"><defs /><g transform="translate(0, 1000) scale(1, -1)"><path d="M-13.08349609375 1766.449951171875C-11.619903564453125 1767.18994140625 -10.130996704101562 1767.530029296875 -8.707366943359375 1767.530029296875C-3.996124267578125 1767.530029296875 0.0 1763.800048828125 0.0 1758.3800048828125V1755.280029296875L-4.397216796875 1747.3499755859375C-69.20210266113281 1630.2099609375 -110.94000244140625 1499.22998046875 -129.21299743652344 1355.5999755859375C-135.79800415039062 1303.81005859375 -139.05299377441406 1249.93994140625 -139.05299377441406 1194.5899658203125C-139.05299377441406 1015.4199829101562 -104.94999694824219 820.666015625 -39.25059509277344 630.5609741210938C-27.320404052734375 596.031982421875 -21.91400146484375 576.9290161132812 -16.976104736328125 551.8079833984375C-10.596206665039062 519.31298828125 -7.4542999267578125 486.8609924316406 -7.4542999267578125 454.6759948730469C-7.4542999267578125 285.9410095214844 -93.80780029296875 124.52899169921875 -252.66000366210938 2.6958160400390625C-255.83200073242188 0.28094482421875 -258.427001953125 -1.8455810546875 -258.427001953125 -1.98974609375C-258.427001953125 -2.1339263916015625 -255.83200073242188 -4.26043701171875 -252.66000366210938 -6.6753082275390625C-118.2919921875 -109.72200012207031 -35.06959533691406 -240.98899841308594 -13.191696166992188 -384.40399169921875C-9.407257080078125 -409.1390075683594 -7.529876708984375 -434.1659851074219 -7.529876708984375 -459.16900634765625C-7.529876708984375 -513.2239990234375 -16.30499267578125 -567.1619873046875 -33.55580139160156 -617.781005859375C-62.57029724121094 -702.8419799804688 -78.57330322265625 -757.77099609375 -94.54019165039062 -827.0089721679688C-124.0159912109375 -954.6329956054688 -138.68800354003906 -1077.5799560546875 -138.68800354003906 -1194.550048828125C-138.68800354003906 -1399.4200439453125 -93.68910217285156 -1585.97998046875 -4.397216796875 -1747.3599853515625L0.0 -1755.2900390625V-1758.3900146484375C0.0 -1763.8199462890625 -3.917938232421875 -1767.530029296875 -8.611495971679688 -1767.530029296875C-10.024398803710938 -1767.530029296875 -11.507598876953125 -1767.18994140625 -12.97540283203125 -1766.4599609375C-15.57049560546875 -1765.199951171875 -15.678604125976562 -1765.0899658203125 -22.959304809570312 -1751.8699951171875C-105.31700134277344 -1602.969970703125 -165.1840057373047 -1448.9300537109375 -199.5330047607422 -1297.550048828125C-219.42799377441406 -1209.8199462890625 -229.7729949951172 -1131.3199462890625 -233.80999755859375 -1037.1400146484375C-234.11599731445312 -1029.9100341796875 -234.2689971923828 -1011.030029296875 -234.2689971923828 -992.2069702148438C-234.2689971923828 -973.3790283203125 -234.11599731445312 -954.5999755859375 -233.80999755859375 -947.572021484375C-231.53900146484375 -895.7429809570312 -228.47500610351562 -860.1320190429688 -222.88900756835938 -820.1610107421875C-210.9219970703125 -734.5230102539062 -194.3070068359375 -665.2130126953125 -165.0760040283203 -579.2150268554688C-146.33399963378906 -523.9970092773438 -135.84500122070312 -480.4219970703125 -129.42999267578125 -430.89898681640625C-125.88200378417969 -403.57000732421875 -124.13400268554688 -376.83599853515625 -124.13400268554688 -350.843994140625C-124.13400268554688 -206.2530059814453 -178.21800231933594 -84.610595703125 -277.385009765625 -11.288803100585938C-282.4309997558594 -7.54034423828125 -283.47601318359375 -5.9544525146484375 -283.47601318359375 -1.98974609375C-283.47601318359375 1.9749603271484375 -282.4309997558594 3.5608367919921875 -277.385009765625 7.309295654296875C-196.2169952392578 67.32049560546875 -143.16200256347656 162.8699951171875 -128.70899963378906 275.1789855957031C-125.59600830078125 299.3110046386719 -124.02999877929688 323.5459899902344 -124.02999877929688 348.0530090332031C-124.02999877929688 420.0350036621094 -137.54200744628906 494.3550109863281 -165.0760040283203 575.2349853515625C-176.35699462890625 608.39501953125 -183.16900634765625 630.2730102539062 -190.08999633789062 655.6110229492188C-220.37899780273438 766.8599853515625 -234.7480010986328 874.197021484375 -234.7480010986328 989.8179931640625C-234.7480010986328 993.2039794921875 -234.73500061035156 996.5980224609375 -234.71099853515625 1000.0C-234.49400329589844 1027.5 -234.35000610351562 1033.3800048828125 -233.19700622558594 1056.77001953125C-221.9149932861328 1284.4100341796875 -150.00999450683594 1522.18994140625 -22.959304809570312 1751.8499755859375C-15.714706420898438 1765.010009765625 -15.60650634765625 1765.1500244140625 -13.08349609375 1766.449951171875Z" fill="black" /></g></svg>