<?xml version="1.0" encoding="utf-8" ?>
<svg baseProfile="tiny" height="100%" version="1.2" width="100%" xmlns="http://www.w3.org/2000/svg" xmlns:ev="http://www.w3.org/2001/xml-events" xmlns:xlink="http://www.w3.org/1999/xlink"><defs /><g transform="translate(0, 1000) scale(1, -1)"><path d="M-13.314804077148438 5219.89013671875C-12.165908813476562 5220.41015625 -10.9210205078125 5220.66015625 -9.670608520507812 5220.66015625C-6.209625244140625 5220.66015625 -2.705322265625 5218.77001953125 -1.0698699951171875 5215.68017578125C-0.4510650634765625 5214.509765625 -0.052032470703125 5213.5400390625 -0.052032470703125 5212.27978515625C-0.052032470703125 5209.009765625 -2.7450408935546875 5203.85009765625 -11.274017333984375 5188.52978515625C-306.2430114746094 4657.7998046875 -454.8810119628906 4043.409912109375 -454.8810119628906 3392.169921875C-454.8810119628906 2879.409912109375 -362.73699951171875 2343.800048828125 -177.322998046875 1808.1800537109375C-118.98800659179688 1639.5899658203125 -90.4580078125 1474.800048828125 -90.4580078125 1303.9599609375C-90.4580078125 1269.06005859375 -91.64910888671875 1233.9000244140625 -94.02029418945312 1198.4100341796875C-124.63299560546875 738.9719848632812 -369.2229919433594 303.53399658203125 -762.85498046875 7.55194091796875C-772.1929931640625 0.5018157958984375 -779.8619995117188 -5.4351348876953125 -779.8619995117188 -5.6825103759765625C-779.8619995117188 -5.9298858642578125 -772.1929931640625 -11.8668212890625 -762.85498046875 -18.917007446289062C-376.6440124511719 -309.33302307128906 -133.29100036621094 -734.7530059814453 -95.93740844726562 -1185.030044555664C-92.2919921875 -1228.9300689697266 -90.46109008789062 -1272.3700103759766 -90.46109008789062 -1315.490005493164C-90.46109008789062 -1485.969985961914 -119.08000183105469 -1651.3800201416016 -177.322998046875 -1819.550064086914C-341.5169982910156 -2293.330093383789 -433.16900634765625 -2767.360122680664 -450.5469970703125 -3232.659927368164C-452.77301025390625 -3293.149917602539 -453.0199890136719 -3308.669937133789 -453.0199890136719 -3396.860122680664C-453.0199890136719 -3491.659927368164 -452.5260009765625 -3517.949966430664 -449.30999755859375 -3589.189956665039C-423.0880126953125 -4169.529800415039 -272.0669860839844 -4720.799819946289 -11.21209716796875 -5188.149917602539C-3.4640960693359375 -5202.089859008789 0.0 -5208.959976196289 0.0 -5213.080093383789C0.0 -5216.020034790039 -1.7762908935546875 -5217.549819946289 -5.0278167724609375 -5219.259780883789C-6.7186279296875 -5220.149917602539 -8.175613403320312 -5220.660171508789 -9.559280395507812 -5220.660171508789C-13.641403198242188 -5220.660171508789 -17.085601806640625 -5216.200210571289 -24.013702392578125 -5203.919937133789C-109.91400146484375 -5051.290054321289 -198.35000610351562 -4868.479995727539 -267.4909973144531 -4700.819839477539C-491.4280090332031 -4157.470230102539 -603.9710083007812 -3599.250015258789 -603.9710083007812 -3049.100112915039C-603.9710083007812 -2634.949966430664 -540.1920166015625 -2225.379898071289 -412.1419982910156 -1830.1800689697266L-378.8080139160156 -1731.4200592041016C-309.864990234375 -1529.8199615478516 -276.5069885253906 -1327.000015258789 -276.5069885253906 -1132.270034790039C-276.5069885253906 -680.5430450439453 -456.02301025390625 -272.41200256347656 -787.2210083007812 -24.359207153320312C-799.8989868164062 -14.835311889648438 -806.2379760742188 -10.2589111328125 -806.2379760742188 -5.6825103759765625C-806.2379760742188 -1.106109619140625 -799.8989868164062 3.4702911376953125 -787.2210083007812 12.994186401367188C-456.0830078125 260.99098205566406 -276.4309997558594 669.7139739990234 -276.4309997558594 1121.3699798583984C-276.4309997558594 1316.0999603271484 -309.82501220703125 1518.810043334961 -378.8699951171875 1720.050033569336C-429.8290100097656 1868.5999603271484 -457.2879943847656 1960.6199798583984 -489.8789978027344 2091.669906616211C-566.9719848632812 2401.939926147461 -605.0919799804688 2720.550033569336 -605.0919799804688 3041.729965209961C-605.0919799804688 3769.419906616211 -409.4070129394531 4510.310043334961 -27.971710205078125 5197.189926147461C-16.345108032226562 5218.220199584961 -16.097808837890625 5218.589828491211 -13.3148193359375 5219.890121459961Z" fill="black" /></g></svg>