<?xml version="1.0" encoding="utf-8" ?>
<svg baseProfile="tiny" height="100%" version="1.2" width="100%" xmlns="http://www.w3.org/2000/svg" xmlns:ev="http://www.w3.org/2001/xml-events" xmlns:xlink="http://www.w3.org/1999/xlink"><defs /><g transform="translate(0, 1000) scale(1, -1)"><path d="M-12.144500732421875 4055.139892578125C-11.110305786132812 4055.3701171875 -10.117904663085938 4055.47998046875 -9.178176879882812 4055.47998046875C-3.8608245849609375 4055.47998046875 -0.2295379638671875 4052.010009765625 -0.2295379638671875 4046.5C-0.2295379638671875 4046.469970703125 -0.2296905517578125 4046.429931640625 -0.2299652099609375 4046.39990234375C-0.229949951171875 4042.9599609375 -0.2836151123046875 4042.800048828125 -6.5092620849609375 4031.75C-164.18898010253906 3751.320068359375 -272.38697814941406 3420.02001953125 -318.91798400878906 3074.97998046875C-337.3529815673828 2938.449951171875 -346.49497985839844 2798.159912109375 -346.49497985839844 2655.47998046875C-346.49497985839844 2259.830078125 -276.20298767089844 1845.760009765625 -138.8579864501953 1442.3699951171875C-120.44898986816406 1388.1600341796875 -113.20399475097656 1366.530029296875 -109.76898193359375 1354.719970703125C-76.72608947753906 1243.280029296875 -60.65998840332031 1130.3199462890625 -60.65998840332031 1018.3800048828125C-60.65998840332031 633.8040161132812 -250.31298828125 261.3680114746094 -592.6849975585938 4.298248291015625C-598.9099731445312 -0.3709716796875 -603.9550170898438 -4.342498779296875 -603.9550170898438 -4.5571746826171875C-603.9550170898438 -4.7718505859375 -598.9099731445312 -8.743362426757812 -592.6849975585938 -13.412582397460938C-398.83099365234375 -158.9639892578125 -247.322998046875 -348.95298767089844 -157.10499572753906 -559.6039886474609C-92.75531005859375 -709.8740081787109 -60.38970947265625 -868.7809906005859 -60.38970947265625 -1027.540023803711C-60.38970947265625 -1153.5999603271484 -80.79319763183594 -1279.560043334961 -121.79100036621094 -1401.030014038086L-139.17999267578125 -1452.280014038086C-260.2040100097656 -1807.999984741211 -330.4570007324219 -2180.040023803711 -343.3909912109375 -2533.989974975586C-344.7860107421875 -2572.520004272461 -345.05499267578125 -2587.169906616211 -345.37701416015625 -2638.909896850586C-345.4119873046875 -2645.169906616211 -345.4289855957031 -2651.419906616211 -345.4289855957031 -2657.659896850586C-345.4289855957031 -3163.370101928711 -231.63099670410156 -3626.239974975586 -8.173019409179688 -4028.780014038086C-1.5128936767578125 -4040.780014038086 0.0 -4043.719955444336 0.0 -4046.499984741211C0.0 -4047.100082397461 -0.07110595703125 -4047.689926147461 -0.176300048828125 -4048.370101928711C-0.8350982666015625 -4052.780014038086 -4.92120361328125 -4055.479965209961 -9.077117919921875 -4055.479965209961C-11.35400390625 -4055.479965209961 -13.651702880859375 -4054.669906616211 -15.41839599609375 -4052.879867553711C-17.404098510742188 -4050.840072631836 -30.499404907226562 -4027.499984741211 -50.51800537109375 -3990.300033569336C-307.0570068359375 -3514.040023803711 -453.197998046875 -3003.489974975586 -477.2959899902344 -2499.639877319336C-479.6570129394531 -2449.999984741211 -480.24798583984375 -2425.469955444336 -480.62298583984375 -2369.489974975586C-480.6619873046875 -2363.189926147461 -480.6809997558594 -2356.889877319336 -480.6809997558594 -2350.590072631836C-480.6809997558594 -2014.310043334961 -425.8659973144531 -1682.300033569336 -319.0790100097656 -1372.050033569336C-284.0870056152344 -1270.3499603271484 -267.6099853515625 -1210.290023803711 -252.20700073242188 -1128.770004272461C-235.33700561523438 -1039.530014038086 -227.09500122070312 -951.5739593505859 -227.09500122070312 -866.0679779052734C-227.09500122070312 -515.5239715576172 -365.6159973144531 -206.1999969482422 -616.031005859375 -19.208892822265625C-628.5360107421875 -9.924102783203125 -629.1799926757812 -9.1727294921875 -629.1799926757812 -4.5571746826171875C-629.1799926757812 0.058380126953125 -628.5360107421875 0.80975341796875 -616.031005859375 10.094497680664062C-363.31298828125 198.822998046875 -227.1230010986328 509.1199951171875 -227.1230010986328 856.7069702148438C-227.1230010986328 1009.9600219726562 -253.60000610351562 1170.469970703125 -308.2380065917969 1331.0L-336.6289978027344 1415.530029296875C-433.5870056152344 1716.9300537109375 -481.59698486328125 2029.8299560546875 -481.59698486328125 2346.3701171875C-481.59698486328125 2914.1298828125 -327.1369934082031 3493.60009765625 -23.629791259765625 4039.419921875C-17.243087768554688 4050.9599609375 -14.5059814453125 4054.659912109375 -12.144485473632812 4055.139892578125Z" fill="black" /></g></svg>