<?xml version="1.0" encoding="utf-8" ?>
<svg baseProfile="tiny" height="100%" version="1.2" width="100%" xmlns="http://www.w3.org/2000/svg" xmlns:ev="http://www.w3.org/2001/xml-events" xmlns:xlink="http://www.w3.org/1999/xlink"><defs /><g transform="translate(0, 1000) scale(1, -1)"><path d="M-13.600906372070312 4000.85009765625C-12.152816772460938 4001.570068359375 -10.597412109375 4001.909912109375 -9.079238891601562 4001.909912109375C-5.7111968994140625 4001.909912109375 -2.5261993408203125 4000.22998046875 -1.1025390625 3997.35009765625C-0.43035888671875 3995.93994140625 -1.52587890625e-05 3994.840087890625 -1.52587890625e-05 3993.5C-1.52587890625e-05 3990.409912109375 -2.2946624755859375 3986.030029296875 -9.205291748046875 3973.570068359375C-229.46401977539062 3575.18994140625 -341.7210235595703 3116.3701171875 -341.7210235595703 2621.260009765625C-341.7210235595703 2494.719970703125 -334.3880157470703 2365.800048828125 -319.6520233154297 2234.919921875C-288.03501892089844 1954.2900390625 -223.58401489257812 1673.97998046875 -125.71501159667969 1391.81005859375C-121.05500793457031 1378.4100341796875 -115.44102478027344 1361.72998046875 -113.27000427246094 1354.739990234375C-76.80621337890625 1239.239990234375 -59.03871154785156 1121.72998046875 -59.03871154785156 1005.1599731445312C-59.03871154785156 652.5960083007812 -221.57301330566406 308.64898681640625 -520.9500274658203 55.122802734375C-540.5449981689453 38.546600341796875 -579.7870025634766 7.565460205078125 -593.3980255126953 -2.0731048583984375C-595.2249908447266 -3.37060546875 -596.1380157470703 -3.9134368896484375 -596.1380157470703 -4.456268310546875C-596.1380157470703 -4.9990997314453125 -595.2249908447266 -5.54193115234375 -593.3980255126953 -6.8394317626953125C-517.6660308837891 -60.43409729003906 -420.96302795410156 -151.10000610351562 -353.1220245361328 -232.18099975585938C-159.25001525878906 -463.88299560546875 -59.086212158203125 -734.6790161132812 -59.086212158203125 -1011.3599853515625C-59.086212158203125 -1141.0 -81.07461547851562 -1271.9200439453125 -125.71501159667969 -1400.719970703125C-253.34701538085938 -1768.949951171875 -325.16001892089844 -2139.929931640625 -338.50502014160156 -2499.889892578125C-339.9350128173828 -2539.080078125 -340.2000274658203 -2551.159912109375 -340.4650115966797 -2606.080078125C-340.49302673339844 -2611.699951171875 -340.5070037841797 -2617.31005859375 -340.5070037841797 -2622.919921875C-340.5070037841797 -3123.1298828125 -228.468017578125 -3578.889892578125 -7.61651611328125 -3976.340087890625C-1.4732513427734375 -3987.409912109375 -0.4140625 -3989.739990234375 -0.2022247314453125 -3992.070068359375C-0.17529296875 -3992.389892578125 -0.1621551513671875 -3992.699951171875 -0.1621551513671875 -3993.0C-0.1621551513671875 -3998.550048828125 -4.49688720703125 -4001.909912109375 -9.07183837890625 -4001.909912109375C-12.164321899414062 -4001.909912109375 -15.36651611328125 -4000.3701171875 -17.413909912109375 -3996.93994140625C-37.53840637207031 -3963.14990234375 -92.35121154785156 -3858.510009765625 -122.85601806640625 -3795.5400390625C-336.91700744628906 -3353.5400390625 -455.4390106201172 -2893.330078125 -473.0220184326172 -2435.550048828125C-474.45201110839844 -2399.0 -474.6630096435547 -2386.030029296875 -474.9810028076172 -2336.780029296875C-475.01502990722656 -2330.830078125 -475.0330047607422 -2324.8798828125 -475.0330047607422 -2318.93994140625C-475.0330047607422 -1985.4100341796875 -421.03001403808594 -1659.0799560546875 -314.83302307128906 -1350.93994140625C-291.9540252685547 -1284.530029296875 -280.56800842285156 -1247.300048828125 -268.6520233154297 -1199.739990234375C-239.2150115966797 -1082.3399658203125 -224.8610076904297 -966.1430053710938 -224.8610076904297 -853.9990234375C-224.8610076904297 -532.5789794921875 -342.78001403808594 -244.44400024414062 -561.4630279541016 -56.46220397949219C-578.1989898681641 -42.110198974609375 -613.4160308837891 -14.253692626953125 -618.4480133056641 -11.4468994140625C-620.2220001220703 -10.46710205078125 -621.1090240478516 -7.461700439453125 -621.1090240478516 -4.456268310546875C-621.1090240478516 -1.450836181640625 -620.2220001220703 1.554595947265625 -618.4480133056641 2.534332275390625C-618.0240020751953 2.79913330078125 -612.6750030517578 6.7181243896484375 -606.6380157470703 11.2196044921875C-359.84901428222656 196.41099548339844 -224.85202026367188 501.3979949951172 -224.85202026367188 845.1799774169922C-224.85202026367188 957.4650115966797 -239.25302124023438 1073.8899993896484 -268.86402893066406 1191.6299896240234C-281.09800720214844 1240.3499603271484 -291.47801208496094 1274.189926147461 -317.00401306152344 1348.3899993896484C-408.67601013183594 1614.8799896240234 -462.16502380371094 1904.030014038086 -473.81602478027344 2196.259994506836C-475.39100646972656 2235.780014038086 -476.17601013183594 2275.409896850586 -476.17601013183594 2315.139877319336C-476.17601013183594 2872.479965209961 -321.7620086669922 3448.280014038086 -29.647506713867188 3975.159896850586C-15.613311767578125 4000.370101928711 -16.142913818359375 3999.629867553711 -13.600921630859375 4000.850082397461Z" fill="black" /></g></svg>