<?xml version="1.0" encoding="utf-8" ?>
<svg baseProfile="tiny" height="100%" version="1.2" width="100%" xmlns="http://www.w3.org/2000/svg" xmlns:ev="http://www.w3.org/2001/xml-events" xmlns:xlink="http://www.w3.org/1999/xlink"><defs /><g transform="translate(0, 1000) scale(1, -1)"><path d="M-12.187301635742188 286.14300537109375C-11.820114135742188 286.1820068359375 -11.468521118164062 286.2139892578125 -11.406021118164062 286.22100830078125C-11.237213134765625 286.2359924316406 -11.066619873046875 286.2439880371094 -10.894821166992188 286.2439880371094C-7.695892333984375 286.2439880371094 -4.0580291748046875 283.6730041503906 -2.812469482421875 280.44000244140625C-2.393310546875 279.34698486328125 -2.1764984130859375 278.3380126953125 -2.1764984130859375 277.3080139160156C-2.1764984130859375 275.5920104980469 -2.7777099609375 273.8160095214844 -4.04681396484375 271.48699951171875C-15.613311767578125 250.24600219726562 -21.371109008789062 226.22000122070312 -21.371109008789062 198.90199279785156C-21.371109008789062 183.46800231933594 -19.533309936523438 166.98399353027344 -15.866912841796875 149.35699462890625C-12.523208618164062 133.2790069580078 -8.999862670898438 120.73199462890625 -2.289031982421875 101.03700256347656C-1.5937347412109375 98.974609375 -1.1796875 97.56838989257812 -0.5078125 94.8966064453125L-1.52587890625e-05 92.88880920410156V74.70161437988281V56.51451110839844L-0.5546875 54.36610412597656C-5.6327056884765625 34.483612060546875 -17.421600341796875 17.155807495117188 -37.05400085449219 0.6951446533203125C-37.686798095703125 0.1638946533203125 -38.20249938964844 -0.297027587890625 -38.20249938964844 -0.328277587890625C-38.20249938964844 -0.359527587890625 -37.686798095703125 -0.8204498291015625 -37.05400085449219 -1.3516998291015625C-17.421600341796875 -17.812393188476562 -5.6327056884765625 -35.14018249511719 -0.5546722412109375 -55.0225830078125L0.0 -57.170989990234375V-75.35818481445312V-93.54537963867188L-0.5077972412109375 -95.55317687988281C-1.374969482421875 -99.00617980957031 -1.5624542236328125 -99.59999084472656 -3.6483612060546875 -105.67799377441406C-11.640380859375 -128.927978515625 -17.30438232421875 -152.90399169921875 -19.765289306640625 -173.8409881591797C-20.796188354492188 -182.62799072265625 -21.313079833984375 -191.09898376464844 -21.313079833984375 -199.26998901367188C-21.313079833984375 -226.4559783935547 -15.59197998046875 -250.3269805908203 -4.046783447265625 -271.5189971923828C-2.687286376953125 -274.00498962402344 -2.20758056640625 -275.3429718017578 -2.20758056640625 -276.9729766845703C-2.20758056640625 -277.3099822998047 -2.22808837890625 -277.6599884033203 -2.2655792236328125 -278.0339813232422C-2.7765045166015625 -283.0869903564453 -6.949188232421875 -286.2439727783203 -11.285690307617188 -286.2439727783203C-13.513580322265625 -286.2439727783203 -15.784591674804688 -285.41099548339844 -17.624679565429688 -283.57298278808594C-18.562179565429688 -282.6279754638672 -18.765289306640625 -282.3309783935547 -20.327789306640625 -279.5029754638672C-37.78059387207031 -248.0269775390625 -49.36628723144531 -218.15298461914062 -54.96778869628906 -190.20797729492188C-57.742889404296875 -176.34197998046875 -59.12928771972656 -162.62698364257812 -59.12928771972656 -149.12799072265625C-59.12928771972656 -130.2119903564453 -56.40678405761719 -111.72297668457031 -50.96788024902344 -93.84228515625C-50.38188171386719 -91.92817687988281 -49.84288024902344 -90.29548645019531 -48.2100830078125 -85.46739196777344C-43.37138366699219 -71.15379333496094 -40.965087890625 -58.30128479003906 -40.965087890625 -47.111480712890625C-40.965087890625 -29.792083740234375 -46.72978210449219 -16.456192016601562 -58.16297912597656 -7.8515777587890625C-60.85829162597656 -5.82427978515625 -62.20588684082031 -3.0762786865234375 -62.20588684082031 -0.328277587890625C-62.20588684082031 2.4197235107421875 -60.85829162597656 5.1677093505859375 -58.16297912597656 7.1950225830078125C-46.86708068847656 15.694717407226562 -40.92637634277344 29.272216796875 -40.92637634277344 46.36772155761719C-40.92637634277344 48.52081298828125 -41.02058410644531 50.7296142578125 -41.21018981933594 52.991119384765625C-42.10858154296875 63.71751403808594 -44.36637878417969 73.60011291503906 -48.97569274902344 87.09202575683594C-54.59278869628906 103.49801635742188 -57.967681884765625 120.74801635742188 -58.866180419921875 137.6380157470703C-59.13179016113281 142.72401428222656 -59.17079162597656 143.99700927734375 -59.17079162597656 148.8100128173828C-59.17079162597656 153.6380157470703 -59.13179016113281 155.05201721191406 -58.866180419921875 160.0600128173828C-56.87397766113281 197.02801513671875 -44.14768981933594 236.46401977539062 -20.327789306640625 279.4710235595703C-18.765289306640625 282.29200744628906 -18.562179565429688 282.5960235595703 -17.624679565429688 283.54200744628906C-16.062179565429688 285.0960235595703 -14.30438232421875 285.9400177001953 -12.187286376953125 286.1430206298828Z" fill="black" /></g></svg>