<?xml version="1.0" encoding="utf-8" ?>
<svg baseProfile="tiny" height="100%" version="1.2" width="100%" xmlns="http://www.w3.org/2000/svg" xmlns:ev="http://www.w3.org/2001/xml-events" xmlns:xlink="http://www.w3.org/1999/xlink"><defs /><g transform="translate(0, 1000) scale(1, -1)"><path d="M-13.415603637695312 3573.39990234375C-11.921707153320312 3574.1298828125 -10.399810791015625 3574.469970703125 -8.943954467773438 3574.469970703125C-4.151519775390625 3574.469970703125 -0.0756988525390625 3570.81005859375 -0.0756988525390625 3565.610107421875C-0.0756988525390625 3565.3798828125 -0.0839080810546875 3565.14990234375 -0.100616455078125 3564.909912109375C-0.301605224609375 3562.43994140625 -1.10552978515625 3560.68994140625 -7.386199951171875 3549.330078125C-202.9920196533203 3195.68994140625 -302.38600158691406 2789.68994140625 -302.38600158691406 2349.919921875C-302.38600158691406 2223.860107421875 -294.21800231933594 2095.010009765625 -277.80702209472656 1963.8399658203125C-248.916015625 1732.8599853515625 -193.1940155029297 1493.93994140625 -115.16300964355469 1266.4300537109375C-92.85362243652344 1201.3599853515625 -88.73350524902344 1187.8499755859375 -78.68441772460938 1147.5999755859375C-58.284820556640625 1065.969970703125 -48.343719482421875 983.4819946289062 -48.343719482421875 901.4719848632812C-48.343719482421875 563.5349731445312 -217.14401245117188 233.75399780273438 -518.5330505371094 6.074676513671875C-525.5670471191406 0.7486572265625 -531.3450012207031 -3.82366943359375 -531.3450012207031 -4.0246429443359375C-531.3450012207031 -4.2256317138671875 -525.5670471191406 -8.797958374023438 -518.5330505371094 -14.123992919921875C-246.05203247070312 -219.97900390625 -75.97122192382812 -515.875 -51.803131103515625 -826.291015625C-49.58763122558594 -854.6539916992188 -48.47343444824219 -882.6690063476562 -48.47343444824219 -910.4349975585938C-48.47343444824219 -1026.239990234375 -67.85772705078125 -1137.72998046875 -107.57601928710938 -1252.219970703125C-222.48703002929688 -1583.3900146484375 -287.5040283203125 -1918.1700439453125 -299.4630432128906 -2240.199951171875C-300.76904296875 -2275.570068359375 -301.02001953125 -2288.97998046875 -301.322021484375 -2334.14990234375C-301.3580322265625 -2340.139892578125 -301.37603759765625 -2346.110107421875 -301.37603759765625 -2352.080078125C-301.37603759765625 -2791.56005859375 -202.84202575683594 -3195.3701171875 -10.5516357421875 -3543.610107421875C-0.1426239013671875 -3562.3798828125 -3.0517578125e-05 -3562.64990234375 -3.0517578125e-05 -3565.14990234375C-3.0517578125e-05 -3565.219970703125 -0.0001373291015625 -3565.2900390625 -0.0001373291015625 -3565.3701171875C-0.0001373291015625 -3571.030029296875 -4.50762939453125 -3574.469970703125 -9.143386840820312 -3574.469970703125C-12.074234008789062 -3574.469970703125 -15.05633544921875 -3573.10009765625 -16.983123779296875 -3570.0400390625C-20.349533081054688 -3564.719970703125 -43.91462707519531 -3521.699951171875 -57.88282775878906 -3495.330078125C-278.3600158691406 -3079.5 -404.5760192871094 -2635.97998046875 -426.33203125 -2200.5C-428.9450378417969 -2147.590087890625 -429.3470153808594 -2129.909912109375 -429.3470153808594 -2063.580078125C-429.3470153808594 -1995.550048828125 -428.84503173828125 -1973.8499755859375 -425.83001708984375 -1917.6199951171875C-412.5650329589844 -1669.1099853515625 -365.2840270996094 -1429.0799560546875 -282.48004150390625 -1189.77001953125C-237.66102600097656 -1060.3299560546875 -214.44703674316406 -943.2620239257812 -207.46302795410156 -811.718994140625C-206.926025390625 -801.5759887695312 -206.6080322265625 -774.6799926757812 -206.6080322265625 -751.364990234375C-206.6080322265625 -737.6079711914062 -206.71902465820312 -725.0969848632812 -206.96102905273438 -718.0120239257812C-217.1100311279297 -423.3219909667969 -338.85504150390625 -170.83900451660156 -544.4090270996094 -17.942596435546875C-555.5130310058594 -9.702377319335938 -556.7190246582031 -8.345748901367188 -556.7190246582031 -4.0246429443359375C-556.7190246582031 0.2964630126953125 -555.5130310058594 1.653076171875 -544.4090270996094 9.893325805664062C-363.97802734375 144.0989990234375 -246.7050323486328 356.93798828125 -215.05003356933594 607.8140258789062C-209.23902893066406 653.9000244140625 -206.35203552246094 700.9310302734375 -206.35203552246094 748.5570068359375C-206.35203552246094 888.2730102539062 -231.19102478027344 1033.1099853515625 -279.8670349121094 1174.22998046875C-298.8600158691406 1229.300048828125 -308.45703125 1258.7900390625 -321.0680236816406 1301.300048828125C-394.2010192871094 1547.5699462890625 -430.42303466796875 1802.0799560546875 -430.42303466796875 2059.56005859375C-430.42303466796875 2559.3798828125 -293.9270324707031 3070.39990234375 -25.977020263671875 3554.10009765625C-16.229415893554688 3571.739990234375 -15.978118896484375 3572.139892578125 -13.415618896484375 3573.39990234375Z" fill="black" /></g></svg>