<?xml version="1.0" encoding="utf-8" ?>
<svg baseProfile="tiny" height="100%" version="1.2" width="100%" xmlns="http://www.w3.org/2000/svg" xmlns:ev="http://www.w3.org/2001/xml-events" xmlns:xlink="http://www.w3.org/1999/xlink"><defs /><g transform="translate(0, 1000) scale(1, -1)"><path d="M-11.52960205078125 2948.10009765625C-10.814804077148438 2948.25 -10.10980224609375 2948.320068359375 -9.422256469726562 2948.320068359375C-4.2363739013671875 2948.320068359375 -0.0387115478515625 2944.2900390625 -0.0387115478515625 2939.35009765625C-0.0387115478515625 2938.68994140625 -0.1114349365234375 2938.030029296875 -0.26422119140625 2937.35009765625C-0.500885009765625 2936.31005859375 -2.67822265625 2931.909912109375 -5.092254638671875 2927.510009765625C-103.97200012207031 2749.580078125 -172.17999267578125 2556.4599609375 -210.61500549316406 2345.919921875C-233.83099365234375 2218.580078125 -245.36099243164062 2086.179931640625 -245.36099243164062 1950.3599853515625C-245.36099243164062 1655.030029296875 -190.8459930419922 1343.5400390625 -83.42950439453125 1032.8299560546875C-49.546295166015625 934.7479858398438 -33.670501708984375 845.2670288085938 -33.670501708984375 749.2789916992188C-33.670501708984375 730.4840087890625 -34.27909851074219 711.4400024414062 -35.480499267578125 692.031982421875C-51.7633056640625 430.7030029296875 -196.13099670410156 177.9409942626953 -428.72900390625 3.611419677734375C-433.32000732421875 0.108734130859375 -437.10699462890625 -2.873291015625 -437.10699462890625 -3.0626220703125C-437.10699462890625 -3.251953125 -433.32000732421875 -6.233978271484375 -428.6809997558594 -9.736663818359375C-196.13099670410156 -184.06700134277344 -51.7633056640625 -436.8280029296875 -35.480499267578125 -698.1580200195312C-34.277191162109375 -717.5960083007812 -33.66729736328125 -736.6680297851562 -33.66729736328125 -755.489990234375C-33.66729736328125 -851.4349975585938 -49.51719665527344 -940.864013671875 -83.42950439453125 -1038.9599609375C-191.10299682617188 -1350.489990234375 -244.6750030517578 -1658.68994140625 -244.6750030517578 -1950.780029296875C-244.6750030517578 -2307.1298828125 -164.93600463867188 -2639.489990234375 -6.4176025390625 -2924.639892578125C-1.984100341796875 -2932.64990234375 0.0 -2936.780029296875 0.0 -2939.7099609375C0.0 -2941.7900390625 -0.99517822265625 -2943.260009765625 -2.8202362060546875 -2945.090087890625C-4.9496917724609375 -2947.219970703125 -6.9491729736328125 -2948.320068359375 -8.9560546875 -2948.320068359375C-12.8822021484375 -2948.320068359375 -16.836700439453125 -2944.110107421875 -21.848403930664062 -2935.14990234375C-218.8509979248047 -2581.89990234375 -334.5820007324219 -2203.840087890625 -358.2959899902344 -1835.8199462890625C-361.44500732421875 -1786.9000244140625 -363.0190124511719 -1738.219970703125 -363.0190124511719 -1689.7900390625C-363.0190124511719 -1447.02001953125 -323.468994140625 -1210.6199951171875 -244.50599670410156 -982.0180053710938C-221.73800659179688 -916.0819702148438 -208.29600524902344 -866.1920166015625 -196.93600463867188 -805.60498046875C-185.10299682617188 -742.3820190429688 -178.9669952392578 -675.5330200195312 -178.9669952392578 -612.5859985351562C-178.9669952392578 -590.4219970703125 -179.7270050048828 -568.7420043945312 -181.26800537109375 -547.8729858398438C-198.07200622558594 -321.47601318359375 -292.02899169921875 -136.40199279785156 -451.4960021972656 -15.74810791015625C-461.3420104980469 -8.316665649414062 -462.2879943847656 -7.227996826171875 -462.2879943847656 -3.0626220703125C-462.2879943847656 1.0554046630859375 -461.3420104980469 2.19140625 -451.6860046386719 9.52813720703125C-292.1709899902344 129.99200439453125 -198.07200622558594 315.3039855957031 -181.26800537109375 541.7479858398438C-179.80099487304688 562.0540161132812 -179.56399536132812 568.8699951171875 -179.27999877929688 598.8319702148438C-179.2519989013672 602.1209716796875 -179.23800659179688 605.4010009765625 -179.23800659179688 608.6729736328125C-179.23800659179688 732.1729736328125 -199.3159942626953 844.9810180664062 -244.50599670410156 975.8920288085938C-276.64599609375 1069.0 -301.968994140625 1161.9599609375 -320.95001220703125 1256.25C-349.4729919433594 1398.0400390625 -363.6319885253906 1542.2099609375 -363.6319885253906 1687.5899658203125C-363.6319885253906 2100.239990234375 -249.56100463867188 2522.6298828125 -26.1083984375 2928.030029296875C-16.688995361328125 2945.070068359375 -15.079696655273438 2947.340087890625 -11.52960205078125 2948.10009765625Z" fill="black" /></g></svg>