<?xml version="1.0" encoding="utf-8" ?>
<svg baseProfile="tiny" height="100%" version="1.2" width="100%" xmlns="http://www.w3.org/2000/svg" xmlns:ev="http://www.w3.org/2001/xml-events" xmlns:xlink="http://www.w3.org/1999/xlink"><defs /><g transform="translate(0, 1000) scale(1, -1)"><path d="M-12.41729736328125 3171.239990234375C-11.38690185546875 3171.469970703125 -10.396896362304688 3171.580078125 -9.458404541015625 3171.580078125C-4.1473846435546875 3171.580078125 -0.4848480224609375 3168.070068359375 -0.4848480224609375 3162.580078125C-0.4848480224609375 3162.550048828125 -0.4849700927734375 3162.52001953125 -0.4851837158203125 3162.489990234375V3158.929931640625L-5.9996185302734375 3149.179931640625C-66.04048156738281 3042.510009765625 -120.89997863769531 2915.340087890625 -161.4019775390625 2788.93994140625C-231.04898071289062 2571.489990234375 -265.7259979248047 2336.929931640625 -265.7259979248047 2092.39990234375C-265.7259979248047 1775.1199951171875 -207.34898376464844 1441.0400390625 -91.23568725585938 1105.75C-56.04847717285156 1004.1699829101562 -38.89128112792969 905.405029296875 -38.89128112792969 803.1530151367188C-38.89128112792969 779.8330078125 -39.78367614746094 756.3309936523438 -41.55818176269531 732.573974609375C-62.37998962402344 454.57000732421875 -214.739990234375 189.87701416015625 -460.70298767089844 4.3825531005859375C-466.26499938964844 0.1991729736328125 -470.82899475097656 -3.3661956787109375 -470.82899475097656 -3.5563507080078125C-470.82899475097656 -3.7465057373046875 -466.26499938964844 -7.3118743896484375 -460.70298767089844 -11.495285034179688C-291.0869903564453 -139.42098999023438 -163.8269805908203 -306.8979949951172 -95.75187683105469 -492.01197814941406C-57.933380126953125 -594.8129730224609 -38.99488830566406 -702.5099945068359 -38.99488830566406 -809.8369598388672C-38.99488830566406 -910.8129730224609 -55.75837707519531 -1011.4600067138672 -89.33418273925781 -1107.3899993896484C-205.5609893798828 -1439.449935913086 -265.0459747314453 -1777.560043334961 -265.0459747314453 -2097.209945678711C-265.0459747314453 -2217.110092163086 -256.6759796142578 -2334.419906616211 -239.79298400878906 -2447.830062866211C-203.4259796142578 -2692.040023803711 -131.40599060058594 -2914.179916381836 -21.78228759765625 -3120.209945678711C-16.26788330078125 -3130.620101928711 -1.6736297607421875 -3157.290023803711 -1.1031646728515625 -3157.959945678711C-0.339752197265625 -3158.929916381836 1.52587890625e-05 -3160.189926147461 1.52587890625e-05 -3161.550033569336C1.52587890625e-05 -3165.679916381836 -3.15570068359375 -3170.709945678711 -7.092987060546875 -3171.320053100586C-8.157058715820312 -3171.469955444336 -9.0821533203125 -3171.580062866211 -9.92236328125 -3171.580062866211C-14.48748779296875 -3171.580062866211 -16.546676635742188 -3168.489974975586 -24.777191162109375 -3153.629867553711C-240.45797729492188 -2764.959945678711 -363.62998962402344 -2350.659896850586 -383.83399963378906 -1945.729965209961C-385.88999938964844 -1904.4200286865234 -386.9189910888672 -1863.3499603271484 -386.9189910888672 -1822.489974975586C-386.9189910888672 -1558.1700286865234 -343.8619842529297 -1302.969955444336 -257.1919708251953 -1053.300033569336C-211.1899871826172 -920.7459564208984 -188.833984375 -789.2280120849609 -188.833984375 -664.6389617919922C-188.833984375 -397.31297302246094 -291.75599670410156 -161.88198852539062 -484.8529815673828 -16.581787109375C-495.6909942626953 -8.405258178710938 -495.78599548339844 -8.3101806640625 -495.78599548339844 -3.5563507080078125C-495.78599548339844 1.197479248046875 -495.6909942626953 1.2925567626953125 -484.8529815673828 9.469131469726562C-291.75599670410156 154.77001953125 -188.833984375 390.2000274658203 -188.833984375 657.5260162353516C-188.833984375 782.1160430908203 -211.1899871826172 913.6330108642578 -257.1919708251953 1046.1800689697266C-344.21897888183594 1296.969985961914 -387.62599182128906 1553.8800201416016 -387.62599182128906 1819.040054321289C-387.62599182128906 1875.8600006103516 -385.63197326660156 1933.0699615478516 -381.64698791503906 1990.6700592041016C-354.78797912597656 2379.629898071289 -232.281982421875 2779.429946899414 -25.965682983398438 3151.510025024414C-17.17108154296875 3167.340103149414 -14.8892822265625 3170.669937133789 -12.417282104492188 3171.240005493164Z" fill="black" /></g></svg>