<?xml version="1.0" encoding="utf-8" ?>
<svg baseProfile="tiny" height="100%" version="1.2" width="100%" xmlns="http://www.w3.org/2000/svg" xmlns:ev="http://www.w3.org/2001/xml-events" xmlns:xlink="http://www.w3.org/1999/xlink"><defs /><g transform="translate(0, 1000) scale(1, -1)"><path d="M-12.108993530273438 3896.610107421875C-11.0391845703125 3896.949951171875 -9.984939575195312 3897.10009765625 -8.9715576171875 3897.10009765625C-3.9925079345703125 3897.10009765625 1.52587890625e-05 3893.320068359375 1.52587890625e-05 3887.989990234375C1.52587890625e-05 3887.9599609375 -0.0001068115234375 3887.929931640625 -0.0003662109375 3887.89990234375C-0.0003662109375 3885.050048828125 -0.438690185546875 3884.070068359375 -8.821548461914062 3869.0C-223.04998779296875 3482.1298828125 -331.4249725341797 3040.300048828125 -331.4249725341797 2553.489990234375C-331.4249725341797 2508.35009765625 -331.15098571777344 2475.969970703125 -330.71299743652344 2462.5400390625C-318.11097717285156 2082.570068359375 -249.89698791503906 1725.949951171875 -116.70298767089844 1342.6300048828125C-77.03419494628906 1228.550048828125 -56.440887451171875 1102.9599609375 -56.440887451171875 978.1840209960938C-56.440887451171875 946.1320190429688 -57.79978942871094 914.1339721679688 -60.54328918457031 882.3989868164062C-86.29458618164062 583.3560180664062 -232.96697998046875 299.54400634765625 -473.8789825439453 82.52069091796875C-504.06797790527344 55.34489440917969 -545.4340057373047 21.375091552734375 -572.8839569091797 1.3768157958984375C-576.9929656982422 -1.6366424560546875 -580.3899993896484 -4.2117767333984375 -580.3899993896484 -4.3761444091796875C-580.3899993896484 -4.5405120849609375 -576.9929656982422 -7.1156463623046875 -572.8839569091797 -10.129104614257812C-391.7489776611328 -142.33700561523438 -237.84397888183594 -334.0469970703125 -150.61798095703125 -536.1129760742188C-87.97169494628906 -681.260009765625 -56.41227722167969 -836.458984375 -56.41227722167969 -990.6229858398438C-56.41227722167969 -1113.4000244140625 -76.42958068847656 -1235.52001953125 -116.70298767089844 -1351.3900146484375C-181.6289825439453 -1538.43994140625 -227.1599884033203 -1704.22998046875 -262.8829803466797 -1883.949951171875C-308.4979705810547 -2113.60009765625 -331.13697814941406 -2339.090087890625 -331.13697814941406 -2557.760009765625C-331.13697814941406 -3038.02001953125 -221.94097900390625 -3485.429931640625 -7.1230621337890625 -3872.0C-0.438690185546875 -3884.110107421875 -0.0003662109375 -3885.0400390625 -0.0003662109375 -3887.889892578125C-0.000244140625 -3887.909912109375 -0.00018310546875 -3887.929931640625 -0.00018310546875 -3887.9599609375C-0.00018310546875 -3893.780029296875 -4.148468017578125 -3897.10009765625 -8.6568603515625 -3897.10009765625C-11.872283935546875 -3897.10009765625 -15.270889282226562 -3895.409912109375 -17.478378295898438 -3891.719970703125C-35.23028564453125 -3862.080078125 -89.69148254394531 -3758.360107421875 -117.52497863769531 -3701.050048828125C-347.95399475097656 -3226.43994140625 -464.05198669433594 -2738.010009765625 -464.05198669433594 -2258.25C-464.05198669433594 -1933.56005859375 -410.87498474121094 -1612.8399658203125 -303.97499084472656 -1303.06005859375C-268.5809783935547 -1200.43994140625 -246.22598266601562 -1109.5999755859375 -233.40599060058594 -1016.3499755859375C-224.69798278808594 -953.0880126953125 -220.3369903564453 -890.52001953125 -220.3369903564453 -829.3359985351562C-220.3369903564453 -790.0449829101562 -222.13497924804688 -751.3250122070312 -225.7349853515625 -713.3579711914062C-253.2939910888672 -421.8210144042969 -383.7489776611328 -174.5540008544922 -591.9509735107422 -19.169403076171875C-604.4429779052734 -9.855133056640625 -605.3749847412109 -8.868927001953125 -605.3749847412109 -4.3761444091796875C-605.3749847412109 0.11663818359375 -604.4429779052734 1.1028594970703125 -591.9509735107422 10.417098999023438C-376.29798889160156 171.38999938964844 -244.80198669433594 429.67002868652344 -223.21498107910156 734.7400054931641C-221.2419891357422 763.0670318603516 -220.96798706054688 771.3400421142578 -220.63998413085938 809.2550201416016C-220.6079864501953 813.2620391845703 -220.59197998046875 817.2610015869141 -220.59197998046875 821.2500152587891C-220.59197998046875 981.3220367431641 -246.40798950195312 1127.219985961914 -304.2489776611328 1295.1300201416016C-371.6949920654297 1490.790054321289 -416.0749969482422 1680.5799713134766 -441.8269805908203 1883.4100494384766C-457.2529754638672 2004.9200592041016 -464.90599060058594 2127.649917602539 -464.90599060058594 2251.020034790039C-464.90599060058594 2800.260025024414 -313.24497985839844 3362.310073852539 -20.601364135742188 3886.260025024414C-16.382568359375 3893.820083618164 -14.738876342773438 3895.850112915039 -12.108963012695312 3896.610122680664Z" fill="black" /></g></svg>