<?xml version="1.0" encoding="utf-8" ?>
<svg baseProfile="tiny" height="100%" version="1.2" width="100%" xmlns="http://www.w3.org/2000/svg" xmlns:ev="http://www.w3.org/2001/xml-events" xmlns:xlink="http://www.w3.org/1999/xlink"><defs /><g transform="translate(0, 1000) scale(1, -1)"><path d="M-12.203994750976562 1978.4000244140625C-11.213180541992188 1978.7099609375 -10.213790893554688 1978.8599853515625 -9.236846923828125 1978.8599853515625C-5.250701904296875 1978.8599853515625 -1.6382293701171875 1976.43994140625 -0.5086669921875 1972.6300048828125C-0.1862640380859375 1971.530029296875 1.52587890625e-05 1970.6199951171875 1.52587890625e-05 1969.7099609375C1.52587890625e-05 1967.68994140625 -0.9133148193359375 1965.6500244140625 -3.2844390869140625 1961.4200439453125C-70.93948364257812 1841.2099609375 -118.49798583984375 1700.4200439453125 -141.48098754882812 1552.27001953125C-152.6169891357422 1480.530029296875 -158.1429901123047 1405.97998046875 -158.1429901123047 1329.4000244140625C-158.1429901123047 1133.1300048828125 -121.84599304199219 923.4530029296875 -50.65779113769531 713.2410278320312C-38.999481201171875 678.89599609375 -36.74188232421875 672.0120239257812 -34.26219177246094 663.2769775390625C-19.366790771484375 611.364013671875 -12.0789794921875 559.0869750976562 -12.0789794921875 507.2900085449219C-12.0789794921875 319.5769958496094 -107.79399108886719 138.1719970703125 -284.0079803466797 3.233642578125C-287.67198181152344 0.4208526611328125 -290.6699981689453 -2.0218353271484375 -290.6699981689453 -2.1698760986328125C-290.6699981689453 -2.3179168701171875 -287.67198181152344 -4.7606048583984375 -284.0079803466797 -7.573394775390625C-109.13398742675781 -141.4770050048828 -12.2039794921875 -321.4590148925781 -12.166976928710938 -512.3579711914062C-12.166976928710938 -573.4990234375 -21.974685668945312 -632.6790161132812 -41.812286376953125 -691.3040161132812C-88.33438110351562 -828.6489868164062 -113.72297668457031 -926.9119873046875 -133.5609893798828 -1046.1600341796875C-146.3669891357422 -1123.3299560546875 -153.7319793701172 -1196.199951171875 -156.91497802734375 -1277.1800537109375C-157.4119873046875 -1289.949951171875 -157.6499786376953 -1305.969970703125 -157.6499786376953 -1323.18994140625C-157.6499786376953 -1354.6300048828125 -156.85598754882812 -1390.02001953125 -155.39698791503906 -1416.7099609375C-144.552978515625 -1615.1199951171875 -91.73928833007812 -1804.1300048828125 -3.2844390869140625 -1961.3199462890625C-1.9150543212890625 -1963.760009765625 -0.5826873779296875 -1966.4200439453125 -0.360626220703125 -1967.239990234375C-0.129180908203125 -1968.0799560546875 -0.0214080810546875 -1968.9100341796875 -0.0214080810546875 -1969.699951171875C-0.0214080810546875 -1974.9000244140625 -4.6347198486328125 -1978.8599853515625 -9.41290283203125 -1978.8599853515625C-11.495681762695312 -1978.8599853515625 -13.609786987304688 -1978.0999755859375 -15.386886596679688 -1976.3800048828125C-16.349090576171875 -1975.449951171875 -18.86578369140625 -1971.27001953125 -22.973983764648438 -1963.8699951171875C-178.958984375 -1682.1400146484375 -258.03297424316406 -1393.6300048828125 -258.03297424316406 -1115.530029296875C-258.03297424316406 -961.697998046875 -233.8369903564453 -811.052978515625 -185.07998657226562 -666.5070190429688C-173.82798767089844 -633.0859985351562 -171.31198120117188 -625.4990234375 -167.7589874267578 -613.6929931640625C-145.3809814453125 -539.4550170898438 -134.47998046875 -466.76300048828125 -134.47998046875 -398.10101318359375C-134.47998046875 -237.14300537109375 -194.3829803466797 -98.33329772949219 -306.7699737548828 -13.680099487304688C-313.79197692871094 -8.398468017578125 -316.02098083496094 -6.0367431640625 -316.02098083496094 -2.7081756591796875C-316.02098083496094 -1.9316253662109375 -315.8989715576172 -1.1024627685546875 -315.68898010253906 -0.1713104248046875C-315.0229949951172 2.75250244140625 -313.91297912597656 3.973846435546875 -306.7699737548828 9.340362548828125C-194.85598754882812 93.62420654296875 -134.54698181152344 231.59500122070312 -134.54698181152344 393.3039855957031C-134.54698181152344 441.71099853515625 -139.95098876953125 492.2460021972656 -150.99298095703125 544.10400390625C-158.76498413085938 580.5590209960938 -166.86997985839844 608.9089965820312 -182.74798583984375 655.135009765625C-233.3319854736328 802.2329711914062 -258.4349822998047 955.9739990234375 -258.4349822998047 1113.0999755859375C-258.4349822998047 1384.6600341796875 -183.44398498535156 1666.3299560546875 -35.40948486328125 1941.25C-17.422378540039062 1974.5899658203125 -15.719985961914062 1977.3299560546875 -12.2039794921875 1978.4000244140625Z" fill="black" /></g></svg>