<?xml version="1.0" encoding="utf-8" ?>
<svg baseProfile="tiny" height="100%" version="1.2" width="100%" xmlns="http://www.w3.org/2000/svg" xmlns:ev="http://www.w3.org/2001/xml-events" xmlns:xlink="http://www.w3.org/1999/xlink"><defs /><g transform="translate(0, 1000) scale(1, -1)"><path d="M-13.6875 11898.2998046875C-12.1697998046875 11899.0 -10.658905029296875 11899.2998046875 -9.22491455078125 11899.2998046875C-4.1259765625 11899.2998046875 0.0 11895.5 0.0 11890.5C0.0 11889.5 -0.1803741455078125 11888.400390625 -0.5699310302734375 11887.2998046875C-1.1444244384765625 11885.7998046875 -9.091583251953125 11871.0 -18.28350830078125 11854.5C-213.13299560546875 11504.900390625 -384.8110046386719 11133.2001953125 -528.14697265625 10751.2001953125C-579.0850219726562 10615.400390625 -612.885009765625 10517.7001953125 -668.1320190429688 10347.099609375C-721.5599975585938 10182.2998046875 -785.6160278320312 9952.240234375 -833.2990112304688 9754.51953125C-1001.489990234375 9056.3203125 -1085.219970703125 8329.0595703125 -1085.219970703125 7588.60009765625C-1085.219970703125 6551.83984375 -921.0599975585938 5489.2001953125 -594.6920166015625 4444.18017578125C-574.7760009765625 4380.22021484375 -526.7100219726562 4231.91015625 -520.5830078125 4215.33984375C-519.625 4212.759765625 -514.2630004882812 4196.9599609375 -508.614013671875 4180.39990234375L-478.54901123046875 4092.7900390625C-341.26800537109375 3696.510009765625 -276.7200012207031 3319.06005859375 -276.7200012207031 2912.590087890625C-276.7200012207031 2904.010009765625 -276.74798583984375 2895.429931640625 -276.8059997558594 2886.830078125C-277.28399658203125 2810.320068359375 -277.6669921875 2795.9599609375 -280.8269958496094 2733.6298828125C-334.63800048828125 1668.7099609375 -874.375 669.8560180664062 -1749.22998046875 16.36956787109375L-1786.0999755859375 -11.206130981445312L-1788.8699951171875 -13.4083251953125L-1786.0999755859375 -15.51483154296875C-1784.56005859375 -16.759536743164062 -1768.0 -29.206924438476562 -1749.22998046875 -43.18623352050781C-874.375 -696.6729888916016 -334.63800048828125 -1695.530044555664 -280.8269958496094 -2760.449966430664C-277.6669921875 -2822.780044555664 -277.28399658203125 -2837.139907836914 -276.8059997558594 -2913.639907836914C-276.7489929199219 -2922.080093383789 -276.7200012207031 -2930.500015258789 -276.7200012207031 -2938.909927368164C-276.7200012207031 -3340.959976196289 -341.7239990234375 -3724.990005493164 -474.4320068359375 -4107.629898071289C-717.8250122070312 -4809.189956665039 -882.9920043945312 -5483.740249633789 -980.656005859375 -6175.330093383789C-1048.81005859375 -6657.709976196289 -1082.6400146484375 -7135.149917602539 -1082.6400146484375 -7604.799819946289C-1082.6400146484375 -9135.780288696289 -723.1079711914062 -10583.900405883789 -20.86871337890625 -11849.900405883789C-9.857589721679688 -11869.599624633789 -0.6656951904296875 -11887.000015258789 -0.2826995849609375 -11888.299819946289C-0.0983123779296875 -11889.000015258789 -0.01129150390625 -11889.700210571289 -0.01129150390625 -11890.400405883789C-0.01129150390625 -11895.400405883789 -4.3996429443359375 -11899.299819946289 -9.462631225585938 -11899.299819946289C-10.720611572265625 -11899.299819946289 -12.020217895507812 -11899.099624633789 -13.304519653320312 -11898.500015258789C-16.272811889648438 -11897.200210571289 -18.858016967773438 -11893.000015258789 -44.90171813964844 -11846.000015258789C-693.2180023193359 -10678.000015258789 -1102.8299407958984 -9396.040054321289 -1242.1500091552734 -8099.410171508789C-1247.4100189208984 -8050.000015258789 -1257.3699798583984 -7949.080093383789 -1262.249984741211 -7895.459976196289C-1285.939926147461 -7636.069839477539 -1297.6700286865234 -7369.040054321289 -1297.6700286865234 -7099.029800415039C-1297.6700286865234 -6502.490249633789 -1240.439926147461 -5891.379898071289 -1128.5899505615234 -5315.890151977539L-1120.449935913086 -5273.379898071289C-1100.530014038086 -5168.439956665039 -1057.729965209961 -4977.419937133789 -1022.3099822998047 -4835.799819946289C-950.0170135498047 -4546.640151977539 -877.3430023193359 -4303.149917602539 -776.9979705810547 -4013.800064086914C-708.5380096435547 -3816.459976196289 -660.5679779052734 -3641.429946899414 -622.0759735107422 -3448.689956665039C-569.8189544677734 -3186.929946899414 -544.3019866943359 -2926.330093383789 -544.3019866943359 -2670.919937133789C-544.3019866943359 -1685.260025024414 -924.3350067138672 -776.9019927978516 -1614.1299896240234 -177.52198791503906C-1672.249984741211 -127.06198120117188 -1761.1099700927734 -56.49528503417969 -1807.259994506836 -24.036392211914062C-1812.479965209961 -20.397979736328125 -1815.0799407958984 -16.903091430664062 -1815.0799407958984 -13.408279418945312C-1815.0799407958984 -9.913467407226562 -1812.479965209961 -6.4186248779296875 -1807.259994506836 -2.7801666259765625C-1761.6800384521484 29.20001220703125 -1675.509994506836 97.66050720214844 -1617.479965209961 147.8330078125C-925.5699920654297 747.094970703125 -544.2789764404297 1656.6800537109375 -544.2789764404297 2643.9599609375C-544.2789764404297 2899.409912109375 -569.8029632568359 3160.050048828125 -622.0759735107422 3421.8701171875C-661.8119964599609 3620.840087890625 -711.1229705810547 3798.64990234375 -785.4239959716797 4011.39990234375C-956.4319915771484 4501.25 -1093.739974975586 5043.56982421875 -1177.989974975586 5562.52978515625C-1250.0899505615234 6006.81005859375 -1286.959945678711 6410.580078125 -1298.3499603271484 6879.56005859375C-1299.1700286865234 6912.16015625 -1299.5699310302734 6991.2998046875 -1299.5699310302734 7070.2900390625C-1299.5699310302734 7149.27978515625 -1299.1700286865234 7228.1298828125 -1298.3499603271484 7260.16015625C-1294.040023803711 7433.18017578125 -1288.1099700927734 7566.75 -1278.050033569336 7714.97021484375C-1273.550033569336 7780.75 -1264.550033569336 7895.4599609375 -1263.209945678711 7903.58984375C-1262.9200286865234 7905.22021484375 -1261.199935913086 7922.83984375 -1259.3799896240234 7942.85009765625C-1133.5699310302734 9301.5302734375 -719.0699920654297 10632.2998046875 -42.60368347167969 11850.2998046875C-20.389984130859375 11890.099609375 -16.176986694335938 11897.2998046875 -13.687484741210938 11898.2998046875Z" fill="black" /></g></svg>