<?xml version="1.0" encoding="utf-8" ?>
<svg baseProfile="tiny" height="100%" version="1.2" width="100%" xmlns="http://www.w3.org/2000/svg" xmlns:ev="http://www.w3.org/2001/xml-events" xmlns:xlink="http://www.w3.org/1999/xlink"><defs /><g transform="translate(0, 1000) scale(1, -1)"><path d="M-15.119400024414062 11432.2001953125C-13.496109008789062 11433.599609375 -11.456222534179688 11434.2998046875 -9.386581420898438 11434.2998046875C-6.9989013671875 11434.2998046875 -4.571685791015625 11433.400390625 -2.6988677978515625 11431.599609375C-1.05078125 11429.900390625 -1.52587890625e-05 11428.7001953125 -1.52587890625e-05 11426.599609375C-1.52587890625e-05 11422.2998046875 -4.2642364501953125 11414.400390625 -16.49951171875 11392.5C-623.5419921875 10301.7001953125 -968.6489868164062 9057.8798828125 -1030.47998046875 7738.91015625C-1037.3499755859375 7592.22998046875 -1040.77001953125 7445.14013671875 -1040.77001953125 7297.72998046875C-1040.77001953125 6185.740234375 -845.6939697265625 5055.72021484375 -461.614990234375 3947.429931640625C-372.18701171875 3689.179931640625 -320.2049865722656 3471.219970703125 -289.0150146484375 3222.43994140625C-271.35699462890625 3081.77001953125 -262.6619873046875 2941.159912109375 -262.6619873046875 2801.280029296875C-262.6619873046875 1801.989990234375 -706.3839721679688 840.0189819335938 -1496.02001953125 163.21502685546875C-1560.3299560546875 108.10504150390625 -1679.2900390625 13.984634399414062 -1715.260009765625 -10.120376586914062C-1717.3299560546875 -11.546463012695312 -1718.3699951171875 -12.213470458984375 -1718.3699951171875 -12.880569458007812C-1718.3699951171875 -13.547576904296875 -1717.3299560546875 -14.214569091796875 -1715.260009765625 -15.640670776367188C-1707.81005859375 -20.608871459960938 -1640.550048828125 -71.487060546875 -1618.3800048828125 -88.78376770019531C-811.5980224609375 -720.8509674072266 -317.90399169921875 -1656.8999786376953 -267.302001953125 -2650.629837036133C-264.1759948730469 -2712.060012817383 -262.60101318359375 -2772.850051879883 -262.60101318359375 -2833.159866333008C-262.60101318359375 -3218.379837036133 -326.8580017089844 -3584.189895629883 -461.614990234375 -3973.189895629883C-811.781982421875 -4984.039993286133 -1004.3499755859375 -6011.999954223633 -1034.1600341796875 -7030.479934692383C-1036.72998046875 -7117.149856567383 -1037.0999755859375 -7144.289993286133 -1037.56005859375 -7268.870071411133C-1037.6300048828125 -7287.669876098633 -1037.6700439453125 -7306.019973754883 -1037.6700439453125 -7323.990188598633C-1037.6700439453125 -7509.879837036133 -1033.6800537109375 -7654.289993286133 -1024.030029296875 -7826.779739379883C-951.9959716796875 -9114.650344848633 -612.041015625 -10319.299758911133 -19.25958251953125 -11387.400344848633C-4.8084869384765625 -11413.499954223633 -0.055908203125 -11422.200149536133 -0.055908203125 -11426.700149536133C-0.055908203125 -11428.799758911133 -1.108795166015625 -11429.999954223633 -2.6988372802734375 -11431.599563598633C-4.5716552734375 -11433.400344848633 -6.998870849609375 -11434.299758911133 -9.386550903320312 -11434.299758911133C-11.456192016601562 -11434.299758911133 -13.496078491210938 -11433.599563598633 -15.119384765625 -11432.200149536133C-19.351577758789062 -11428.499954223633 -88.44657897949219 -11302.700149536133 -142.45298767089844 -11200.599563598633C-603.7609710693359 -10326.999954223633 -931.3870086669922 -9380.269485473633 -1103.6199798583984 -8422.499954223633C-1200.8799896240234 -7881.640090942383 -1249.3399505615234 -7339.240188598633 -1249.3399505615234 -6799.930130004883C-1249.3399505615234 -5801.669876098633 -1083.3299407958984 -4813.970169067383 -753.5430145263672 -3866.009963989258C-682.6079559326172 -3662.219924926758 -634.2139739990234 -3484.469924926758 -596.7689666748047 -3290.979934692383C-549.4000091552734 -3046.039993286133 -526.1290130615234 -2802.029983520508 -526.1290130615234 -2562.550003051758C-526.1290130615234 -1781.9499053955078 -773.3669891357422 -1049.4899444580078 -1239.229965209961 -489.9209747314453C-1381.009994506836 -319.6219940185547 -1551.310043334961 -158.8909912109375 -1721.4300384521484 -34.96148681640625C-1737.020004272461 -23.552978515625 -1744.8199310302734 -18.216781616210938 -1744.8199310302734 -12.880584716796875C-1744.8199310302734 -7.5443115234375 -1737.020004272461 -2.2080841064453125 -1721.4300384521484 9.200408935546875C-1647.0899505615234 63.390716552734375 -1560.689926147461 134.6940155029297 -1488.6600189208984 201.3970184326172C-865.9099578857422 778.1179656982422 -526.0939788818359 1621.749984741211 -526.0939788818359 2536.649887084961C-526.0939788818359 2775.800033569336 -549.3129730224609 3019.820053100586 -596.7689666748047 3265.219955444336C-634.2139739990234 3458.709945678711 -682.4239959716797 3635.810043334961 -753.5430145263672 3840.249984741211C-1084.9000091552734 4793.560043334961 -1251.8499603271484 5782.490219116211 -1251.8499603271484 6787.459945678711C-1251.8499603271484 7007.459945678711 -1243.8499603271484 7228.229965209961 -1227.8199310302734 7449.560043334961C-1222.6700286865234 7520.040023803711 -1212.280014038086 7642.589828491211 -1209.8799896240234 7661.169906616211C-1209.3299407958984 7664.939926147461 -1207.1199798583984 7686.470199584961 -1204.8199310302734 7709.009750366211C-1074.8199310302734 8993.299789428711 -675.9839935302734 10248.799789428711 -29.747970581054688 11407.999984741211C-23.03167724609375 11420.200180053711 -16.407363891601562 11430.999984741211 -15.119369506835938 11432.200180053711Z" fill="black" /></g></svg>