<?xml version="1.0" encoding="utf-8" ?>
<svg baseProfile="tiny" height="100%" version="1.2" width="100%" xmlns="http://www.w3.org/2000/svg" xmlns:ev="http://www.w3.org/2001/xml-events" xmlns:xlink="http://www.w3.org/1999/xlink"><defs /><g transform="translate(0, 1000) scale(1, -1)"><path d="M-15.179306030273438 11508.5C-13.545120239257812 11509.900390625 -11.491622924804688 11510.599609375 -9.408248901367188 11510.599609375C-7.004638671875 11510.599609375 -4.5612335205078125 11509.7001953125 -2.6759185791015625 11507.900390625C-1.06365966796875 11506.2001953125 -1.52587890625e-05 11505.0 -1.52587890625e-05 11502.900390625C-1.52587890625e-05 11498.400390625 -4.7000274658203125 11489.7998046875 -18.884017944335938 11464.2998046875C-657.7620697021484 10315.900390625 -1006.7500457763672 9000.7802734375 -1044.7200164794922 7598.830078125C-1046.9800262451172 7515.08984375 -1048.1100311279297 7431.08984375 -1048.1100311279297 7346.89013671875C-1048.1100311279297 6232.83984375 -850.4250335693359 5082.009765625 -469.5620574951172 3986.27001953125C-340.17503356933594 3614.1298828125 -282.1040496826172 3311.830078125 -266.54405212402344 2929.9599609375C-265.7570343017578 2910.929931640625 -265.36305236816406 2865.179931640625 -265.36305236816406 2819.389892578125C-265.36305236816406 2773.60009765625 -265.7570343017578 2727.780029296875 -266.54405212402344 2708.610107421875C-281.5480499267578 2336.3798828125 -342.1200408935547 2016.75 -462.15306091308594 1676.3800048828125C-693.8830413818359 1019.3499755859375 -1139.6500701904297 420.5780029296875 -1707.0300750732422 4.35302734375C-1719.6300506591797 -4.90875244140625 -1730.0000457763672 -12.688613891601562 -1730.0000457763672 -12.966522216796875C-1730.0000457763672 -13.244308471679688 -1719.6300506591797 -21.024215698242188 -1707.0300750732422 -30.2860107421875C-1139.6500701904297 -446.510986328125 -693.8830413818359 -1045.280029296875 -462.15306091308594 -1702.3199462890625C-342.1200408935547 -2042.68994140625 -281.5480499267578 -2362.31005859375 -266.54405212402344 -2734.5400390625C-265.7570343017578 -2753.7099609375 -265.36305236816406 -2799.5400390625 -265.36305236816406 -2845.320068359375C-265.36305236816406 -2891.110107421875 -265.7570343017578 -2936.860107421875 -266.54405212402344 -2955.89990234375C-282.1040496826172 -3337.2099609375 -340.26805114746094 -3640.159912109375 -469.0990447998047 -4010.81005859375C-726.8550262451172 -4752.58984375 -902.8280487060547 -5529.009765625 -986.7400360107422 -6294.77001953125C-1026.0200653076172 -6653.1201171875 -1045.5300750732422 -7008.3798828125 -1045.5300750732422 -7359.169921875C-1045.5300750732422 -8842.1796875 -696.8140716552734 -10245.2001953125 -18.884017944335938 -11464.2998046875C-4.7000274658203125 -11489.7998046875 -1.52587890625e-05 -11498.400390625 -1.52587890625e-05 -11502.900390625C-1.52587890625e-05 -11505.0 -1.06365966796875 -11506.2001953125 -2.6759185791015625 -11507.900390625C-4.5612335205078125 -11509.7001953125 -7.004638671875 -11510.599609375 -9.408248901367188 -11510.599609375C-11.491622924804688 -11510.599609375 -13.545120239257812 -11509.900390625 -15.1793212890625 -11508.5C-17.402114868164062 -11506.5 -38.2412109375 -11469.599609375 -73.34330749511719 -11405.400390625C-658.1320037841797 -10336.7998046875 -1038.8799896240234 -9166.01953125 -1185.8699798583984 -7984.1201171875C-1196.520004272461 -7899.0 -1207.259994506836 -7801.10986328125 -1217.9100189208984 -7692.3701171875C-1223.0999603271484 -7639.490234375 -1231.530014038086 -7535.39013671875 -1236.439926147461 -7462.22021484375C-1250.300033569336 -7255.85009765625 -1257.219955444336 -7050.10009765625 -1257.219955444336 -6845.08984375C-1257.219955444336 -5837.64990234375 -1090.060043334961 -4848.14990234375 -757.6039886474609 -3890.8701171875C-638.2189788818359 -3547.080078125 -570.1450042724609 -3231.340087890625 -541.8040008544922 -2890.139892578125C-533.1649627685547 -2786.0400390625 -528.9009857177734 -2682.6298828125 -528.9009857177734 -2580.179931640625C-528.9009857177734 -1536.0400390625 -971.7800140380859 -591.447998046875 -1738.699935913086 -30.656494140625C-1755.009994506836 -18.70880126953125 -1756.020004272461 -17.597396850585938 -1756.020004272461 -12.966506958007812C-1756.020004272461 -8.335617065429688 -1755.009994506836 -7.224212646484375 -1738.699935913086 4.7234954833984375C-971.7800140380859 565.5149993896484 -528.9009857177734 1510.1099700927734 -528.9009857177734 2554.249984741211C-528.9009857177734 2656.699935913086 -533.1649627685547 2760.110092163086 -541.8040008544922 2864.209945678711C-570.1450042724609 3205.320053100586 -638.2189788818359 3521.050033569336 -757.6039886474609 3864.939926147461C-1070.739974975586 4766.669906616211 -1232.0799407958984 5660.339828491211 -1257.8299407958984 6635.600082397461C-1259.3399505615234 6692.520004272461 -1260.0699310302734 6753.180160522461 -1260.0699310302734 6816.249984741211C-1260.0699310302734 7055.950180053711 -1249.479965209961 7330.620101928711 -1230.4200286865234 7568.270004272461C-1226.530014038086 7615.870101928711 -1219.1199798583984 7700.149887084961 -1218.3799896240234 7703.950180053711C-1218.0999603271484 7705.249984741211 -1215.780014038086 7727.100082397461 -1213.280014038086 7752.569808959961C-1090.290023803711 8976.330062866211 -723.7979583740234 10179.599594116211 -136.04600524902344 11288.999984741211C-84.4573974609375 11386.299789428711 -19.161895751953125 11504.900375366211 -15.179306030273438 11508.499984741211Z" fill="black" /></g></svg>