<?xml version="1.0" encoding="utf-8" ?>
<svg baseProfile="tiny" height="100%" version="1.2" width="100%" xmlns="http://www.w3.org/2000/svg" xmlns:ev="http://www.w3.org/2001/xml-events" xmlns:xlink="http://www.w3.org/1999/xlink"><defs /><g transform="translate(0, 1000) scale(1, -1)"><path d="M-11.039993286132812 2563.8701171875C-10.375381469726562 2564.030029296875 -9.710037231445312 2564.110107421875 -9.053955078125 2564.110107421875C-4.2858734130859375 2564.110107421875 -0.00543212890625 2560.070068359375 -0.00543212890625 2554.9599609375C-0.0054168701171875 2554.64990234375 3.0517578125e-05 2554.389892578125 3.0517578125e-05 2554.14990234375C3.0517578125e-05 2552.090087890625 -0.3897705078125 2551.56005859375 -7.760650634765625 2538.1201171875C-127.54595947265625 2320.800048828125 -196.1019744873047 2068.02001953125 -208.19996643066406 1798.93994140625C-209.6179656982422 1767.56005859375 -209.8399658203125 1758.0400390625 -210.06097412109375 1718.06005859375C-210.08697509765625 1713.77001953125 -210.09896850585938 1709.47998046875 -210.09896850585938 1705.18994140625C-210.09896850585938 1440.4100341796875 -161.69296264648438 1169.27001953125 -64.83908081054688 891.3569946289062C-38.07147216796875 814.5670166015625 -24.684768676757812 733.8300170898438 -24.684768676757812 652.8839721679688C-24.684768676757812 574.489990234375 -37.240570068359375 495.89898681640625 -62.35746765136719 420.5050048828125C-116.73297119140625 257.3789978027344 -223.75497436523438 114.10699462890625 -377.928955078125 -1.911376953125L-379.2579650878906 -2.930633544921875L-377.928955078125 -3.90557861328125C-223.75497436523438 -119.96800231933594 -116.73297119140625 -263.239990234375 -62.35746765136719 -426.3659973144531C-37.240570068359375 -501.760009765625 -24.684768676757812 -580.3510131835938 -24.684768676757812 -658.7449951171875C-24.684768676757812 -739.6909790039062 -38.07147216796875 -820.427978515625 -64.83908081054688 -897.218994140625C-160.90696716308594 -1172.81005859375 -209.8219757080078 -1446.8299560546875 -209.8219757080078 -1707.5C-209.8219757080078 -1750.81005859375 -208.47096252441406 -1793.75 -205.76296997070312 -1836.27001953125C-189.49896240234375 -2091.610107421875 -121.96197509765625 -2331.0 -7.760650634765625 -2538.219970703125C-0.3897705078125 -2551.659912109375 3.0517578125e-05 -2552.18994140625 3.0517578125e-05 -2554.25C3.0517578125e-05 -2554.489990234375 -0.0054168701171875 -2554.75 -0.0054168701171875 -2555.06005859375C-0.0054168701171875 -2560.64990234375 -4.5544586181640625 -2564.110107421875 -9.1719970703125 -2564.110107421875C-11.959564208984375 -2564.110107421875 -14.772064208984375 -2562.85009765625 -16.623764038085938 -2560.030029296875C-18.174774169921875 -2557.719970703125 -29.43096923828125 -2537.469970703125 -38.33837890625 -2520.93994140625C-188.83396911621094 -2242.419921875 -282.428955078125 -1947.5400390625 -311.4109802246094 -1660.3299560546875C-315.93096923828125 -1615.7099609375 -318.5899658203125 -1576.0400390625 -320.62896728515625 -1522.72998046875C-321.0049743652344 -1512.8699951171875 -321.1939697265625 -1487.6400146484375 -321.1939697265625 -1462.43994140625C-321.1939697265625 -1437.25 -321.0049743652344 -1412.0999755859375 -320.62896728515625 -1402.4200439453125C-312.69598388671875 -1199.1400146484375 -282.3399658203125 -1036.1500244140625 -216.39796447753906 -843.1539916992188C-201.02096557617188 -798.1290283203125 -191.00596618652344 -762.2340087890625 -182.27496337890625 -720.9760131835938C-168.3379669189453 -654.969970703125 -161.52096557617188 -590.43701171875 -161.52096557617188 -528.385009765625C-161.52096557617188 -313.4339904785156 -243.3259735107422 -128.26499938964844 -394.3249816894531 -14.85150146484375C-402.96697998046875 -8.381454467773438 -403.9859619140625 -7.0962982177734375 -403.9859619140625 -2.930633544921875C-403.9859619140625 1.235015869140625 -402.96697998046875 2.520172119140625 -394.3249816894531 8.990249633789062C-264.43597412109375 106.572998046875 -183.78196716308594 259.10699462890625 -165.47996520996094 441.7760009765625C-162.7669677734375 468.7550048828125 -161.4129638671875 496.02301025390625 -161.4129638671875 523.5499877929688C-161.4129638671875 625.0700073242188 -179.82797241210938 730.125 -216.39796447753906 837.2919921875C-260.7579650878906 967.1810302734375 -286.2399597167969 1072.25 -304.0989685058594 1198.9100341796875C-316.1209716796875 1284.18994140625 -322.08197021484375 1370.75 -322.08197021484375 1458.0999755859375C-322.08197021484375 1815.1300048828125 -222.50796508789062 2185.4599609375 -30.139968872070312 2535.909912109375C-15.33856201171875 2562.89990234375 -15.427276611328125 2562.81005859375 -11.039962768554688 2563.8701171875Z" fill="black" /></g></svg>