<?xml version="1.0" encoding="utf-8" ?>
<svg baseProfile="tiny" height="100%" version="1.2" width="100%" xmlns="http://www.w3.org/2000/svg" xmlns:ev="http://www.w3.org/2001/xml-events" xmlns:xlink="http://www.w3.org/1999/xlink"><defs /><g transform="translate(0, 1000) scale(1, -1)"><path d="M-15.972503662109375 375.7229919433594C-15.501495361328125 375.7919921875 -15.037506103515625 375.8320007324219 -14.827606201171875 375.8320007324219L-14.732009887695312 375.8269958496094C-14.618209838867188 375.8059997558594 -14.194412231445312 375.7650146484375 -13.801513671875 375.7340087890625C-9.334701538085938 375.33099365234375 -5.889923095703125 371.32000732421875 -5.889923095703125 366.8070068359375C-5.889923095703125 366.4530029296875 -5.911163330078125 366.09600830078125 -5.9548187255859375 365.73699951171875C-6.1409149169921875 364.1860046386719 -6.409698486328125 363.4729919433594 -7.5882720947265625 361.3219909667969C-22.598312377929688 334.0849914550781 -30.112518310546875 303.2860107421875 -30.112518310546875 267.7770080566406C-30.112518310546875 229.42599487304688 -21.347518920898438 185.58299255371094 -3.79412841796875 134.802001953125C-2.4088134765625 130.7899932861328 -1.0855255126953125 126.09700012207031 -0.2584686279296875 122.27200317382812L-1.52587890625e-05 121.052001953125V99.94119262695312V78.8201904296875L-0.361846923828125 77.21778869628906C-6.8128814697265625 48.73597717285156 -24.036300659179688 24.006988525390625 -53.47959899902344 0.97344970703125C-54.42030334472656 0.23944091796875 -55.195709228515625 -0.3911895751953125 -55.195709228515625 -0.422210693359375C-55.195709228515625 -0.453216552734375 -54.42030334472656 -1.073516845703125 -53.47959899902344 -1.81787109375C-24.036300659179688 -24.851409912109375 -6.8128814697265625 -49.580413818359375 -0.3618316650390625 -78.06221008300781L0.0 -79.66459655761719V-100.78599548339844V-121.89599609375L-0.258453369140625 -123.11599731445312C-1.1578826904296875 -127.29299926757812 -2.398468017578125 -131.60400390625 -4.186981201171875 -136.7830047607422C-21.422897338867188 -186.75799560546875 -30.030792236328125 -230.06399536132812 -30.030792236328125 -268.02301025390625C-30.030792236328125 -303.4219970703125 -22.544601440429688 -334.1709899902344 -7.5882568359375 -361.3389892578125C-6.35919189453125 -363.5820007324219 -5.8705902099609375 -364.9830017089844 -5.8705902099609375 -366.6109924316406C-5.8705902099609375 -367.0090026855469 -5.89990234375 -367.4219970703125 -5.954803466796875 -367.8630065917969C-6.5604248046875 -372.8380126953125 -10.722305297851562 -375.8320007324219 -14.978195190429688 -375.8320007324219C-17.47900390625 -375.8320007324219 -20.01220703125 -374.7980041503906 -21.875701904296875 -372.5249938964844C-22.527008056640625 -371.72900390625 -25.45269775390625 -366.5090026855469 -29.846405029296875 -358.27899169921875C-62.046600341796875 -298.0260009765625 -77.4324951171875 -245.35000610351562 -77.4324951171875 -194.89599609375C-77.4324951171875 -190.75999450683594 -77.3291015625 -186.63900756835938 -77.12310791015625 -182.52999877929688C-75.9342041015625 -158.86599731445312 -71.8402099609375 -137.7449951171875 -64.01419067382812 -114.91799926757812C-56.48640441894531 -92.97109985351562 -52.73930358886719 -74.43539428710938 -52.73930358886719 -58.73699951171875C-52.73930358886719 -46.6455078125 -54.96229553222656 -36.23719787597656 -59.39300537109375 -27.249908447265625C-63.073394775390625 -19.78570556640625 -68.40789794921875 -13.189895629882812 -74.43508911132812 -8.641067504882812C-76.74050903320312 -6.9042510986328125 -77.41250610351562 -6.2115936279296875 -78.20860290527344 -4.7642364501953125C-78.93740844726562 -3.4512939453125 -79.30180358886719 -1.936737060546875 -79.30180358886719 -0.4221954345703125C-79.30180358886719 1.0923614501953125 -78.93740844726562 2.606903076171875 -78.20860290527344 3.91986083984375C-77.41250610351562 5.3672027587890625 -76.74050903320312 6.05987548828125 -74.43508911132812 7.79669189453125C-70.27920532226562 10.939498901367188 -66.19560241699219 15.333206176757812 -63.021697998046875 20.099197387695312C-56.17449951171875 30.359893798828125 -52.75090026855469 42.8544921875 -52.75090026855469 57.91680908203125C-52.75090026855469 73.64649963378906 -56.48460388183594 92.17660522460938 -63.95220947265625 113.88699340820312C-73.05780029296875 140.3470001220703 -77.50750732421875 166.5070037841797 -77.50750732421875 193.85000610351562C-77.50750732421875 198.1719970703125 -77.39630126953125 202.5240020751953 -77.17469787597656 206.91099548339844C-74.65219116210938 256.81298828125 -58.11109924316406 307.36700439453125 -24.387802124023438 368.29998779296875C-21.265701293945312 373.94500732421875 -19.797698974609375 375.23699951171875 -15.972503662109375 375.7229919433594Z" fill="black" /></g></svg>