<?xml version="1.0" encoding="utf-8" ?>
<svg baseProfile="tiny" height="100%" version="1.2" width="100%" xmlns="http://www.w3.org/2000/svg" xmlns:ev="http://www.w3.org/2001/xml-events" xmlns:xlink="http://www.w3.org/1999/xlink"><defs /><g transform="translate(0, 1000) scale(1, -1)"><path d="M-19.85400390625 516.833984375C-19.296798706054688 516.9450073242188 -18.742599487304688 516.9979858398438 -18.19659423828125 516.9979858398438C-13.452896118164062 516.9979858398438 -9.330856323242188 512.9840087890625 -9.330856323242188 507.8999938964844C-9.330856323242188 505.5379943847656 -9.502655029296875 505.0369873046875 -11.693206787109375 501.0989990234375C-22.502700805664062 481.52801513671875 -30.964202880859375 458.95001220703125 -36.3760986328125 435.239990234375C-41.204498291015625 414.0350036621094 -43.62229919433594 391.5010070800781 -43.62229919433594 367.48699951171875C-43.62229919433594 336.60101318359375 -39.622802734375 303.2650146484375 -31.6083984375 267.156005859375C-25.566604614257812 239.9530029296875 -18.966293334960938 217.0030059814453 -7.627105712890625 183.8300018310547C-2.530517578125 168.91000366210938 0.0 153.2969970703125 0.0 137.6790008544922C0.0 117.05799865722656 -4.411773681640625 96.42910766601562 -13.15350341796875 77.38130187988281C-25.623794555664062 50.22149658203125 -44.722991943359375 27.414199829101562 -75.83428955078125 2.516571044921875C-77.92459106445312 0.8414459228515625 -79.62840270996094 -0.575958251953125 -79.62840270996094 -0.6475372314453125C-79.62840270996094 -0.7191314697265625 -77.92459106445312 -2.13653564453125 -75.83428955078125 -3.8116455078125C-44.722991943359375 -28.709304809570312 -25.623794555664062 -51.5166015625 -13.15350341796875 -78.6763916015625C-4.411773681640625 -97.72419738769531 0.0 -118.35299682617188 0.0 -138.9739990234375C0.0 -154.5919952392578 -2.530517578125 -170.2050018310547 -7.627105712890625 -185.125C-18.135894775390625 -215.86399841308594 -24.6072998046875 -237.97000122070312 -30.205398559570312 -262.2950134277344C-37.69329833984375 -294.7380065917969 -41.65910339355469 -321.99798583984375 -43.20539855957031 -351.4909973144531C-43.35850524902344 -354.39898681640625 -43.44920349121094 -362.68701171875 -43.44920349121094 -369.77301025390625C-43.44920349121094 -373.9549865722656 -43.4176025390625 -377.7179870605469 -43.348602294921875 -379.7099914550781C-41.7449951171875 -424.9670104980469 -30.949798583984375 -466.4010009765625 -11.693206787109375 -501.2489929199219C-9.502655029296875 -505.1860046386719 -9.330856323242188 -505.68701171875 -9.330856323242188 -508.04998779296875C-9.330856323242188 -513.3040161132812 -13.024703979492188 -516.9979858398438 -18.279098510742188 -516.9979858398438C-22.373794555664062 -516.9979858398438 -24.478500366210938 -515.5230102539062 -27.11279296875 -510.8269958496094C-41.07209777832031 -485.9010009765625 -53.08430480957031 -461.4330139160156 -63.6361083984375 -436.4490051269531C-84.46759033203125 -387.12701416015625 -96.76609802246094 -337.3890075683594 -99.24299621582031 -292.3609924316406C-99.67250061035156 -284.4289855957031 -99.75839233398438 -282.2239990234375 -99.84429931640625 -274.9649963378906C-99.86029052734375 -273.5669860839844 -99.86830139160156 -272.17401123046875 -99.86830139160156 -270.7850036621094C-99.86830139160156 -233.58799743652344 -94.12078857421875 -199.39999389648438 -81.56120300292969 -161.85899353027344C-72.82769775390625 -135.7449951171875 -68.90480041503906 -119.08000183105469 -66.95770263671875 -99.72270202636719C-66.42510986328125 -94.4176025390625 -66.16070556640625 -89.25711059570312 -66.16070556640625 -84.25189208984375C-66.16070556640625 -51.44819641113281 -77.51629638671875 -25.315994262695312 -99.14279174804688 -8.894256591796875C-102.92300415039062 -6.0164947509765625 -103.96800231933594 -4.2554779052734375 -103.96800231933594 -0.6475372314453125C-103.96800231933594 2.9604034423828125 -102.92300415039062 4.7214202880859375 -99.14279174804688 7.59918212890625C-77.51629638671875 24.020904541015625 -66.16070556640625 50.153106689453125 -66.16070556640625 82.95680236816406C-66.16070556640625 87.96200561523438 -66.42510986328125 93.12258911132812 -66.95770263671875 98.42759704589844C-68.87619018554688 117.51199340820312 -73.11410522460938 135.60899353027344 -81.34649658203125 159.9199981689453C-93.9027099609375 196.98699951171875 -99.64389038085938 230.50399780273438 -99.94450378417969 268.5159912109375C-99.95199584960938 269.4389953613281 -99.95570373535156 270.36199951171875 -99.95570373535156 271.2860107421875C-99.95570373535156 345.01800537109375 -76.2493896484375 422.9530029296875 -27.11279296875 510.6780090332031C-24.8507080078125 514.7150268554688 -23.132598876953125 516.1749877929688 -19.85400390625 516.833984375Z" fill="black" /></g></svg>