<?xml version="1.0" encoding="utf-8" ?>
<svg baseProfile="tiny" height="100%" version="1.2" width="100%" xmlns="http://www.w3.org/2000/svg" xmlns:ev="http://www.w3.org/2001/xml-events" xmlns:xlink="http://www.w3.org/1999/xlink"><defs /><g transform="translate(0, 1000) scale(1, -1)"><path d="M-17.18719482421875 1038.1700439453125C-16.108200073242188 1038.5999755859375 -15.016204833984375 1038.800048828125 -13.952499389648438 1038.800048828125C-9.242996215820312 1038.800048828125 -5.0888671875 1034.8900146484375 -5.0888671875 1029.6300048828125C-5.0888671875 1029.510009765625 -5.08868408203125 1029.4000244140625 -5.08868408203125 1029.2900390625C-5.08868408203125 1026.77001953125 -5.1834564208984375 1026.6400146484375 -9.732131958007812 1018.4099731445312C-56.94390869140625 932.7379760742188 -81.352294921875 829.4760131835938 -81.352294921875 716.9959716796875C-81.352294921875 696.8499755859375 -80.56939697265625 676.4089965820312 -78.99420166015625 655.719970703125C-71.87449645996094 562.5189819335938 -52.34700012207031 473.135986328125 -15.484603881835938 365.1289978027344C-5.11566162109375 334.760009765625 0.0 303.52301025390625 0.0 272.32501220703125C0.0 211.93699645996094 -19.166107177734375 151.6929931640625 -56.500091552734375 98.16680908203125C-80.56770324707031 63.6260986328125 -115.67599487304688 27.718093872070312 -151.7899932861328 0.632415771484375C-153.14500427246094 -0.373626708984375 -153.82200622558594 -0.7734527587890625 -153.82200622558594 -1.1732940673828125C-153.82200622558594 -1.5731353759765625 -153.14500427246094 -1.9729766845703125 -151.7899932861328 -2.97900390625C-119.41600036621094 -27.253005981445312 -87.48100280761719 -58.981903076171875 -63.9552001953125 -90.24659729003906C-21.776901245117188 -146.27699279785156 -0.0527801513671875 -209.66900634765625 -0.0527801513671875 -274.135009765625C-0.0527801513671875 -300.78399658203125 -3.7652435302734375 -327.6180114746094 -11.2799072265625 -354.19000244140625C-12.801803588867188 -359.6080017089844 -13.756301879882812 -362.49700927734375 -20.050506591796875 -381.01800537109375C-40.01649475097656 -439.781005859375 -54.90080261230469 -496.6099853515625 -65.42550659179688 -554.2379760742188C-75.82540893554688 -611.1510009765625 -81.00019836425781 -666.02001953125 -81.00019836425781 -718.43701171875C-81.00019836425781 -831.1370239257812 -57.077392578125 -932.4959716796875 -9.732131958007812 -1018.4400024414062C-5.1834564208984375 -1026.6700439453125 -5.08868408203125 -1026.800048828125 -5.08868408203125 -1029.31005859375C-5.08868408203125 -1029.4200439453125 -5.0888671875 -1029.5400390625 -5.0888671875 -1029.6600341796875C-5.0888671875 -1035.1600341796875 -9.520889282226562 -1038.800048828125 -14.133193969726562 -1038.800048828125C-16.371307373046875 -1038.800048828125 -18.65179443359375 -1037.93994140625 -20.488998413085938 -1036.030029296875C-23.378204345703125 -1033.010009765625 -47.57470703125 -987.1190185546875 -60.317901611328125 -960.4719848632812C-125.52499389648438 -824.1160278320312 -158.0449981689453 -694.0380249023438 -158.0449981689453 -568.4869995117188C-158.0449981689453 -489.65399169921875 -145.2239990234375 -412.6050109863281 -119.62300109863281 -336.9070129394531C-104.45500183105469 -292.0740051269531 -97.33509826660156 -260.447998046875 -93.82679748535156 -222.5019989013672C-92.85299682617188 -211.91000366210938 -92.37109375 -201.52000427246094 -92.37109375 -191.35899353027344C-92.37109375 -113.76800537109375 -120.47000122070312 -49.5205078125 -172.24600219726562 -10.563003540039062C-177.406005859375 -6.6936187744140625 -178.5659942626953 -4.9652862548828125 -178.5659942626953 -1.1732940673828125C-178.5659942626953 2.61871337890625 -177.406005859375 4.3470306396484375 -172.24600219726562 8.216415405273438C-120.47000122070312 47.17390441894531 -92.37109375 111.4219970703125 -92.37109375 189.01199340820312C-92.37109375 199.17300415039062 -92.85299682617188 209.56399536132812 -93.82679748535156 220.156005859375C-97.23190307617188 257.04400634765625 -104.73899841308594 290.7330017089844 -118.59100341796875 331.4649963378906C-134.5330047607422 378.36199951171875 -143.69000244140625 415.48199462890625 -150.42300415039062 460.7030029296875C-155.60400390625 495.4410095214844 -158.1909942626953 530.6309814453125 -158.1909942626953 566.2369995117188C-158.1909942626953 711.4580078125 -115.16400146484375 863.5989990234375 -29.6466064453125 1020.219970703125C-20.488998413085938 1037.010009765625 -20.643798828125 1036.780029296875 -17.18719482421875 1038.1700439453125Z" fill="black" /></g></svg>