<?xml version="1.0" encoding="utf-8" ?>
<svg baseProfile="tiny" height="100%" version="1.2" width="100%" xmlns="http://www.w3.org/2000/svg" xmlns:ev="http://www.w3.org/2001/xml-events" xmlns:xlink="http://www.w3.org/1999/xlink"><defs /><g transform="translate(0, 1000) scale(1, -1)"><path d="M-17.4241943359375 984.572021484375C-16.5321044921875 984.844970703125 -15.637496948242188 984.9730224609375 -14.761795043945312 984.9730224609375C-9.886398315429688 984.9730224609375 -5.59710693359375 981.0020141601562 -5.59710693359375 975.8259887695312C-5.59710693359375 973.6530151367188 -6.009674072265625 972.635009765625 -8.95269775390625 967.2990112304688C-49.93510437011719 892.9530029296875 -71.96649169921875 810.7689819335938 -76.889892578125 713.8690185546875C-77.13749694824219 709.1649780273438 -77.26119995117188 695.72900390625 -77.26119995117188 682.2109985351562C-77.26119995117188 668.6920166015625 -77.13749694824219 655.0910034179688 -76.889892578125 650.0570068359375C-72.35159301757812 554.7249755859375 -52.63059997558594 457.3299865722656 -16.819091796875 353.1409912109375C-7.632476806640625 326.4070129394531 -3.066650390625 306.1080017089844 -1.0862884521484375 283.27899169921875C-0.3612518310546875 274.9410095214844 0.0 266.65399169921875 0.0 258.42401123046875C0.0 162.99200439453125 -48.567108154296875 75.11709594726562 -141.7740020751953 2.6734466552734375C-144.33200073242188 0.693084716796875 -146.4219970703125 -1.012237548828125 -146.4219970703125 -1.12225341796875C-146.4219970703125 -1.232269287109375 -144.33200073242188 -2.9375762939453125 -141.7740020751953 -4.9179229736328125C-48.567108154296875 -77.36160278320312 0.0 -165.23699951171875 0.0 -260.6679992675781C0.0 -268.89898681640625 -0.3612518310546875 -277.18499755859375 -1.0862884521484375 -285.52301025390625C-3.0391387939453125 -308.1319885253906 -7.6874847412109375 -328.8160095214844 -16.599105834960938 -354.697998046875C-57.041107177734375 -472.1549987792969 -77.24960327148438 -582.0910034179688 -77.24960327148438 -682.4639892578125C-77.24960327148438 -789.0009765625 -54.48309326171875 -884.7650146484375 -8.980209350585938 -967.3159790039062C-6.009674072265625 -972.6790161132812 -5.59710693359375 -973.697021484375 -5.59710693359375 -975.8699951171875L-5.5970306396484375 -975.9080200195312C-5.5970458984375 -981.2750244140625 -9.890869140625 -984.9730224609375 -14.638809204101562 -984.9730224609375C-16.366409301757812 -984.9730224609375 -18.154220581054688 -984.4829711914062 -19.817214965820312 -983.406005859375C-21.5775146484375 -982.2509765625 -22.127609252929688 -981.426025390625 -26.830917358398438 -972.8720092773438C-110.63502502441406 -820.9010009765625 -152.52601623535156 -675.5419921875 -152.52601623535156 -536.7349853515625C-152.52601623535156 -461.4230041503906 -140.1940155029297 -388.0400085449219 -115.53401184082031 -316.57598876953125C-101.50701904296875 -275.9519958496094 -94.27302551269531 -242.34100341796875 -90.94491577148438 -202.3209991455078C-90.58741760253906 -198.0709991455078 -90.40861511230469 -188.98800659179688 -90.40861511230469 -179.95599365234375C-90.40861511230469 -170.9239959716797 -90.58741760253906 -161.94400024414062 -90.94491577148438 -157.89999389648438C-96.63850402832031 -92.90618896484375 -121.47502136230469 -43.259796142578125 -164.63101196289062 -10.66650390625C-169.9940185546875 -6.62322998046875 -171.17701721191406 -4.9179229736328125 -171.17701721191406 -1.12225341796875C-171.17701721191406 2.6734466552734375 -169.9940185546875 4.3787384033203125 -164.63101196289062 8.421966552734375C-121.47502136230469 41.01530456542969 -96.63850402832031 90.66169738769531 -90.94491577148438 155.656005859375C-90.58741760253906 159.69900512695312 -90.40861511230469 168.67999267578125 -90.40861511230469 177.71099853515625C-90.40861511230469 186.7429962158203 -90.58741760253906 195.82699584960938 -90.94491577148438 200.0760040283203C-94.27302551269531 240.0959930419922 -101.53401184082031 273.7900085449219 -115.53401184082031 314.3320007324219C-140.3670196533203 386.22198486328125 -152.79000854492188 459.9330139160156 -152.79000854492188 535.573974609375C-152.79000854492188 674.5800170898438 -110.83401489257812 820.10498046875 -26.830917358398438 972.8280029296875C-21.495010375976562 982.5369873046875 -20.642318725585938 983.5819702148438 -17.424209594726562 984.572021484375Z" fill="black" /></g></svg>