<?xml version="1.0" encoding="utf-8" ?>
<svg baseProfile="tiny" height="100%" version="1.2" width="100%" xmlns="http://www.w3.org/2000/svg" xmlns:ev="http://www.w3.org/2001/xml-events" xmlns:xlink="http://www.w3.org/1999/xlink"><defs /><g transform="translate(0, 1000) scale(1, -1)"><path d="M-12.816497802734375 1447.280029296875C-11.64849853515625 1447.8299560546875 -10.610305786132812 1448.06005859375 -9.085357666015625 1448.06005859375C-3.92657470703125 1448.06005859375 -0.0007171630859375 1444.1300048828125 -0.0007171630859375 1438.9100341796875C-0.000732421875 1438.77001953125 -1.52587890625e-05 1438.6400146484375 -1.52587890625e-05 1438.510009765625C-1.52587890625e-05 1436.4200439453125 -0.2024078369140625 1436.1099853515625 -7.4306640625 1422.9100341796875C-56.06591796875 1334.0799560546875 -89.16001892089844 1228.8599853515625 -103.30601501464844 1118.0899658203125C-108.71702575683594 1075.7900390625 -111.40000915527344 1031.8699951171875 -111.40000915527344 986.7100219726562C-111.40000915527344 841.4990234375 -83.66361999511719 683.3909912109375 -29.688018798828125 524.5079956054688C-21.57672119140625 500.6929931640625 -19.694915771484375 494.9179992675781 -17.84552001953125 488.4939880371094C-6.957672119140625 450.64300537109375 -1.6188507080078125 412.6099853515625 -1.6188507080078125 374.93499755859375C-1.6188507080078125 236.57400512695312 -73.62631225585938 103.05300903320312 -207.22801208496094 1.2003936767578125C-209.2440185546875 -0.3276214599609375 -210.24900817871094 -0.9597625732421875 -210.24900817871094 -1.5937347412109375C-210.24900817871094 -2.2251434326171875 -209.25201416015625 -2.85833740234375 -207.260009765625 -4.3801727294921875C-73.62321472167969 -106.26699829101562 -1.4561004638671875 -240.73699951171875 -1.4561004638671875 -378.45001220703125C-1.4561004638671875 -421.8529968261719 -8.624542236328125 -465.5780029296875 -23.296310424804688 -508.7070007324219C-55.8712158203125 -604.4860229492188 -74.30012512207031 -673.593994140625 -89.51692199707031 -757.2369995117188C-103.85902404785156 -835.9990234375 -110.98200988769531 -912.5880126953125 -110.98200988769531 -986.2150268554688C-110.98200988769531 -1149.0999755859375 -76.11891174316406 -1297.489990234375 -7.4306640625 -1422.8499755859375C-0.2024078369140625 -1436.02001953125 -1.52587890625e-05 -1436.3499755859375 -1.52587890625e-05 -1438.449951171875C-1.52587890625e-05 -1438.5699462890625 -0.000732421875 -1438.699951171875 -0.000732421875 -1438.8399658203125C-0.000732421875 -1444.1500244140625 -4.3072509765625 -1448.06005859375 -9.067550659179688 -1448.06005859375C-10.309112548828125 -1448.06005859375 -11.581619262695312 -1447.7900390625 -12.816513061523438 -1447.219970703125C-15.931320190429688 -1445.7900390625 -15.931320190429688 -1445.7900390625 -26.670608520507812 -1426.0899658203125C-107.10200500488281 -1278.8299560546875 -160.9940185546875 -1127.6300048828125 -184.5810089111328 -983.0549926757812C-194.468017578125 -922.4970092773438 -199.416015625 -863.0120239257812 -199.416015625 -804.416015625C-199.416015625 -691.2890014648438 -180.9700164794922 -581.47802734375 -143.9920196533203 -473.6669921875C-126.50401306152344 -422.760009765625 -116.83601379394531 -381.1659851074219 -111.80702209472656 -335.2879943847656C-109.75701904296875 -316.6440124511719 -108.74601745605469 -298.37799072265625 -108.74601745605469 -280.56500244140625C-108.74601745605469 -164.98500061035156 -151.322021484375 -68.43240356445312 -229.19300842285156 -10.998992919921875C-234.35202026367188 -7.2028961181640625 -235.55201721191406 -5.45086669921875 -235.55201721191406 -1.5898895263671875C-235.55201721191406 2.271087646484375 -234.35202026367188 4.0231170654296875 -229.19300842285156 7.8191986083984375C-151.5650177001953 65.08509826660156 -108.718017578125 161.82699584960938 -108.718017578125 277.1969909667969C-108.718017578125 290.1390075683594 -109.25701904296875 303.3160095214844 -110.34701538085938 316.6969909667969C-114.46702575683594 367.5379943847656 -124.68701171875 414.2919921875 -143.9920196533203 470.48699951171875C-181.3100128173828 579.281005859375 -199.6610107421875 688.5700073242188 -199.6610107421875 803.0670166015625C-199.6610107421875 826.1430053710938 -198.91500854492188 849.4310302734375 -197.42901611328125 872.968994140625C-186.10601806640625 1051.93994140625 -127.70501708984375 1241.18994140625 -26.670608520507812 1426.1600341796875C-15.931320190429688 1445.8499755859375 -15.931320190429688 1445.8499755859375 -12.816513061523438 1447.280029296875Z" fill="black" /></g></svg>