<?xml version="1.0" encoding="utf-8" ?>
<svg baseProfile="tiny" height="100%" version="1.2" width="100%" xmlns="http://www.w3.org/2000/svg" xmlns:ev="http://www.w3.org/2001/xml-events" xmlns:xlink="http://www.w3.org/1999/xlink"><defs /><g transform="translate(0, 1000) scale(1, -1)"><path d="M-13.779800415039062 320.3970031738281C-13.6522216796875 320.4200134277344 -13.43341064453125 320.4309997558594 -13.165313720703125 320.4309997558594C-12.327011108398438 320.4309997558594 -11.007110595703125 320.3280029296875 -10.488418579101562 320.19500732421875C-6.2853240966796875 319.1510009765625 -3.609100341796875 315.4159851074219 -3.609100341796875 311.40301513671875C-3.609100341796875 310.1199951171875 -3.8827056884765625 308.8089904785156 -4.46746826171875 307.5480041503906C-4.60791015625 307.23199462890625 -5.09063720703125 306.3280029296875 -5.5382537841796875 305.52899169921875C-16.9044189453125 285.1310119628906 -23.408111572265625 260.0639953613281 -24.320907592773438 233.11900329589844C-24.393814086914062 230.9669952392578 -24.43011474609375 228.78199768066406 -24.43011474609375 226.5659942626953C-24.43011474609375 195.41799926757812 -17.257720947265625 158.05099487304688 -3.5985565185546875 118.22900390625L-2.17669677734375 114.10400390625C-1.500885009765625 112.12899780273438 -0.9918212890625 110.4530029296875 -0.4739837646484375 108.45999145507812L-3.0517578125e-05 106.64398193359375V84.69247436523438V62.75018310546875L-0.2721099853515625 61.67938232421875C-5.836669921875 39.53517150878906 -21.187515258789062 18.057968139648438 -44.4464111328125 -0.145355224609375L-44.70091247558594 -0.34722900390625L-44.4464111328125 -0.5403289794921875C-21.1875 -18.75244140625 -5.8366546630859375 -40.229644775390625 -0.2720794677734375 -62.37384033203125L0.0 -63.444549560546875V-85.38694763183594V-107.33804321289062L-0.4739532470703125 -109.15504455566406C-1.00054931640625 -111.14704895019531 -1.5008392333984375 -112.82405090332031 -2.176666259765625 -114.79804992675781L-5.704986572265625 -125.24305725097656C-18.118896484375 -163.48007202148438 -24.326400756835938 -197.20407104492188 -24.326400756835938 -227.00308227539062C-24.326400756835938 -256.8490753173828 -18.099105834960938 -282.75807189941406 -5.6435699462890625 -305.31907653808594C-4.0352630615234375 -308.2440643310547 -3.609588623046875 -309.37709045410156 -3.609588623046875 -311.1620635986328C-3.609588623046875 -311.3640899658203 -3.61505126953125 -311.57408142089844 -3.6248626708984375 -311.7970733642578C-3.8784637451171875 -317.1390838623047 -8.311874389648438 -320.4310760498047 -12.7987060546875 -320.4310760498047C-15.455001831054688 -320.4310760498047 -18.1300048828125 -319.27708435058594 -19.967498779296875 -316.7120819091797C-21.977401733398438 -313.90309143066406 -31.8778076171875 -294.86607360839844 -37.187896728515625 -283.57908630371094C-56.950103759765625 -241.6240692138672 -66.71009826660156 -203.03907775878906 -66.71009826660156 -165.89508056640625C-66.71009826660156 -146.96807861328125 -64.17568969726562 -128.41407775878906 -59.139007568359375 -109.98008728027344C-57.98919677734375 -105.74107360839844 -57.05000305175781 -102.78306579589844 -54.60130310058594 -95.57698059082031C-48.85130310058594 -78.63917541503906 -45.8612060546875 -63.23887634277344 -45.8612060546875 -50.49847412109375C-45.8612060546875 -49.62577819824219 -45.87519836425781 -48.76557922363281 -45.90330505371094 -47.91827392578125C-46.47380065917969 -30.478469848632812 -52.90730285644531 -16.760177612304688 -64.64208984375 -7.9393157958984375C-67.45950317382812 -5.824066162109375 -68.67070007324219 -3.5420684814453125 -68.67070007324219 -0.347259521484375C-68.67070007324219 2.8475341796875 -67.45950317382812 5.1295318603515625 -64.64208984375 7.2447662353515625C-56.64630126953125 13.25701904296875 -51.09930419921875 21.559921264648438 -48.15020751953125 31.916717529296875C-46.62159729003906 37.29731750488281 -45.85600280761719 43.24452209472656 -45.85600280761719 49.78163146972656C-45.85600280761719 63.02522277832031 -48.99810791015625 78.69012451171875 -55.30340576171875 96.97132873535156C-62.94270324707031 119.11392211914062 -66.76280212402344 141.87692260742188 -66.76280212402344 165.28192138671875C-66.76280212402344 190.6299285888672 -62.282196044921875 216.72991943359375 -53.31990051269531 243.60792541503906C-45.88580322265625 265.91893005371094 -34.78300476074219 290.4589385986328 -21.1260986328125 314.7879180908203C-19.107406616210938 318.3869171142578 -17.325698852539062 319.74693298339844 -13.779800415039062 320.3969268798828Z" fill="black" /></g></svg>