<?xml version="1.0" encoding="utf-8" ?>
<svg baseProfile="tiny" height="100%" version="1.2" width="100%" xmlns="http://www.w3.org/2000/svg" xmlns:ev="http://www.w3.org/2001/xml-events" xmlns:xlink="http://www.w3.org/1999/xlink"><defs /><g transform="translate(0, 1000) scale(1, -1)"><path d="M-13.246994018554688 4949.56005859375C-12.097091674804688 4950.08984375 -10.851287841796875 4950.330078125 -9.599777221679688 4950.330078125C-6.135986328125 4950.330078125 -2.628814697265625 4948.43994140625 -0.9920196533203125 4945.35009765625C-0.359466552734375 4944.16015625 1.52587890625e-05 4943.080078125 1.52587890625e-05 4941.81005859375C1.52587890625e-05 4938.9599609375 -1.785980224609375 4935.14990234375 -6.31488037109375 4927.02978515625C-261.68898010253906 4470.56005859375 -405.4679718017578 3939.27001953125 -426.6969757080078 3373.929931640625C-428.80198669433594 3316.929931640625 -429.17298889160156 3296.010009765625 -429.17298889160156 3220.739990234375C-429.17298889160156 3148.510009765625 -428.80198669433594 3125.669921875 -427.00697326660156 3074.669921875C-413.38999938964844 2694.27001953125 -347.41197204589844 2303.719970703125 -232.16497802734375 1920.6600341796875C-211.1829833984375 1851.030029296875 -195.70999145507812 1803.3800048828125 -161.17298889160156 1702.489990234375C-109.37298583984375 1550.969970703125 -83.35499572753906 1393.8599853515625 -83.35499572753906 1236.280029296875C-83.35499572753906 1125.1700439453125 -96.28958129882812 1013.8300170898438 -122.24198913574219 904.0590209960938C-205.1799774169922 553.4310302734375 -419.57997131347656 234.2440185546875 -726.7589569091797 4.12322998046875C-733.4429779052734 -0.890167236328125 -738.9520111083984 -5.2227325439453125 -738.9520111083984 -5.4703216552734375C-738.9520111083984 -5.7178802490234375 -733.4429779052734 -10.050491333007812 -726.7589569091797 -15.063888549804688C-312.68397521972656 -325.25999450683594 -83.36387634277344 -780.9449920654297 -83.36387634277344 -1248.0799407958984C-83.36387634277344 -1403.5799407958984 -108.77299499511719 -1560.3399505615234 -161.2349853515625 -1713.4300384521484C-198.8049774169922 -1823.1700286865234 -221.6429901123047 -1894.530014038086 -246.2769775390625 -1979.5699310302734C-351.4349822998047 -2342.270004272461 -412.5859832763672 -2715.679916381836 -425.7689971923828 -3075.399887084961C-427.68797302246094 -3128.070053100586 -427.9349822998047 -3145.840072631836 -427.9349822998047 -3225.800033569336C-427.9349822998047 -3308.679916381836 -427.68797302246094 -3323.969955444336 -425.45997619628906 -3382.399887084961C-403.85899353027344 -3943.399887084961 -261.6269989013672 -4468.319808959961 -7.8003387451171875 -4924.169906616211C-2.7294158935546875 -4933.299789428711 -0.2064208984375 -4939.359848022461 -0.2064208984375 -4943.339828491211C-0.2064208984375 -4947.129867553711 -2.4973297119140625 -4949.040023803711 -7.0576171875 -4949.919906616211C-8.2030029296875 -4950.129867553711 -9.161483764648438 -4950.330062866211 -10.07208251953125 -4950.330062866211C-15.36138916015625 -4950.330062866211 -19.034881591796875 -4943.370101928711 -48.340789794921875 -4889.509750366211C-302.04298400878906 -4423.390121459961 -471.5699920654297 -3914.560043334961 -538.7249603271484 -3417.979965209961L-543.3669891357422 -3383.939926147461C-554.2609710693359 -3306.949935913086 -565.5250091552734 -3181.300033569336 -570.6009979248047 -3080.350082397461C-574.2519989013672 -3007.379867553711 -575.2429656982422 -2967.149887084961 -575.2429656982422 -2886.629867553711C-575.2429656982422 -2805.919906616211 -574.2519989013672 -2766.370101928711 -570.6009979248047 -2693.830062866211C-555.9319915771484 -2405.840072631836 -509.13999938964844 -2126.139877319336 -429.11097717285156 -1848.3599700927734C-410.60499572753906 -1784.1700286865234 -396.24598693847656 -1739.239974975586 -362.9469757080078 -1641.6299896240234C-305.81898498535156 -1473.959945678711 -275.3049774169922 -1315.699935913086 -266.63999938964844 -1142.1500091552734C-265.9779815673828 -1128.9200286865234 -265.5859832763672 -1093.060043334961 -265.5859832763672 -1062.1800384521484C-265.5859832763672 -1043.949935913086 -265.7229766845703 -1027.459945678711 -266.02098083496094 -1018.3599700927734C-279.88499450683594 -601.8170013427734 -453.55897521972656 -242.89500427246094 -747.5549774169922 -23.233795166015625C-759.4689788818359 -14.32110595703125 -765.4269866943359 -9.895736694335938 -765.4269866943359 -5.4703369140625C-765.4269866943359 -1.044921875 -759.4689788818359 3.3804931640625 -747.5549774169922 12.293197631835938C-494.53297424316406 201.31700134277344 -328.4719696044922 496.42601013183594 -280.0709991455078 842.7840118408203C-270.1969757080078 913.4730377197266 -265.29298400878906 985.6909942626953 -265.29298400878906 1058.729995727539C-265.29298400878906 1232.9300689697266 -293.18898010253906 1411.8199615478516 -348.0919952392578 1585.8199615478516C-353.5389862060547 1603.030044555664 -363.31797790527344 1632.1200103759766 -376.12998962402344 1669.3800201416016C-454.73497009277344 1897.760025024414 -512.5439910888672 2145.280044555664 -544.8530120849609 2391.679946899414C-566.0770111083984 2553.469985961914 -576.6030120849609 2716.770034790039 -576.6030120849609 2880.729995727539C-576.6030120849609 3573.110122680664 -388.8939971923828 4277.270034790039 -26.430374145507812 4929.629898071289C-16.3416748046875 4947.770034790039 -15.97027587890625 4948.259780883789 -13.246963500976562 4949.560073852539Z" fill="black" /></g></svg>