<?xml version="1.0" encoding="utf-8" ?>
<svg baseProfile="tiny" height="100%" version="1.2" width="100%" xmlns="http://www.w3.org/2000/svg" xmlns:ev="http://www.w3.org/2001/xml-events" xmlns:xlink="http://www.w3.org/1999/xlink"><defs /><g transform="translate(0, 1000) scale(1, -1)"><path d="M-13.718399047851562 5882.60986328125C-12.289077758789062 5883.31982421875 -10.765380859375 5883.66015625 -9.273422241210938 5883.66015625C-5.9260406494140625 5883.66015625 -2.73834228515625 5881.9599609375 -1.1349945068359375 5879.02978515625C-0.439422607421875 5877.7900390625 1.52587890625e-05 5876.740234375 1.52587890625e-05 5875.39013671875C1.52587890625e-05 5871.97021484375 -2.7969512939453125 5866.60009765625 -11.334182739257812 5851.27978515625C-252.27198791503906 5419.33984375 -411.5509796142578 4925.93994140625 -479.3689727783203 4401.5498046875C-504.1959991455078 4209.6298828125 -516.4999847412109 4012.889892578125 -516.4999847412109 3813.260009765625C-516.4999847412109 3240.719970703125 -415.29197692871094 2644.429931640625 -218.031982421875 2069.97998046875C-195.18399047851562 2003.3599853515625 -192.46798706054688 1995.4100341796875 -187.30198669433594 1978.989990234375C-133.82199096679688 1808.97998046875 -107.82298278808594 1635.6099853515625 -107.82298278808594 1463.6199951171875C-107.82298278808594 942.3209838867188 -346.66099548339844 433.6510009765625 -783.0909881591797 69.62750244140625C-809.0529632568359 47.97090148925781 -855.4789886474609 11.545394897460938 -874.6849822998047 -2.230072021484375C-877.9629974365234 -4.614288330078125 -879.6019744873047 -5.6077117919921875 -879.6019744873047 -6.60113525390625C-879.6019744873047 -7.5945587158203125 -877.9629974365234 -8.587982177734375 -874.6849822998047 -10.972198486328125C-855.4789886474609 -24.747695922851562 -809.0529632568359 -61.17320251464844 -783.0909881591797 -82.82980346679688C-346.66099548339844 -446.8529968261719 -107.82298278808594 -955.5230102539062 -107.82298278808594 -1476.8199462890625C-107.82298278808594 -1648.8199462890625 -133.82199096679688 -1822.18994140625 -187.30198669433594 -1992.18994140625C-192.46798706054688 -2008.6099853515625 -195.18399047851562 -2016.56005859375 -218.031982421875 -2083.18994140625C-275.38597106933594 -2250.2099609375 -327.30897521972656 -2429.10009765625 -368.43699645996094 -2601.489990234375C-466.5859832763672 -3012.659912109375 -515.1909637451172 -3420.18994140625 -515.1909637451172 -3815.60009765625C-515.1909637451172 -4554.919921875 -345.2589874267578 -5251.85009765625 -11.532791137695312 -5850.91015625C-2.8569183349609375 -5866.41015625 -0.3402557373046875 -5871.43994140625 -0.141571044921875 -5873.759765625C-0.1078948974609375 -5874.08984375 -0.09149169921875 -5874.43017578125 -0.09149169921875 -5874.75C-0.09149169921875 -5879.93994140625 -4.2585906982421875 -5883.66015625 -9.152969360351562 -5883.66015625C-10.596786499023438 -5883.66015625 -12.103790283203125 -5883.33984375 -13.585891723632812 -5882.6298828125C-16.168777465820312 -5881.43994140625 -16.367477416992188 -5881.0400390625 -29.083282470703125 -5858.18994140625C-378.1719665527344 -5231.2099609375 -593.5459899902344 -4543.89013671875 -654.8739929199219 -3861.080078125C-667.3079528808594 -3722.840087890625 -673.5099792480469 -3584.919921875 -673.5099792480469 -3447.60009765625C-673.5099792480469 -2972.02001953125 -599.1359558105469 -2503.580078125 -451.7519836425781 -2053.7099609375L-418.8359680175781 -1956.68994140625C-341.4109802246094 -1731.4599609375 -303.9959716796875 -1504.0400390625 -303.9959716796875 -1285.1800537109375C-303.9959716796875 -773.166015625 -508.7649841308594 -307.9530029296875 -885.0829772949219 -26.933197021484375C-899.1229553222656 -16.469100952148438 -906.1429748535156 -11.53509521484375 -906.1429748535156 -6.60113525390625C-906.1429748535156 -1.6671295166015625 -899.1229553222656 3.266876220703125 -885.0829772949219 13.73089599609375C-512.5219421386719 291.9649963378906 -303.9969787597656 754.8309936523438 -303.9969787597656 1271.0400390625C-303.9969787597656 1388.739990234375 -314.83697509765625 1509.2099609375 -337.0439758300781 1630.8900146484375C-357.8399658203125 1744.8699951171875 -383.4039611816406 1840.8299560546875 -425.458984375 1962.68994140625C-573.8099670410156 2392.7099609375 -654.0789489746094 2818.300048828125 -671.4969787597656 3267.719970703125C-673.7359924316406 3325.5 -674.8509826660156 3383.389892578125 -674.8509826660156 3441.3701171875C-674.8509826660156 4261.60009765625 -451.68096923828125 5099.14013671875 -29.083251953125 5858.240234375C-16.499954223632812 5880.81982421875 -16.102554321289062 5881.419921875 -13.718353271484375 5882.60986328125Z" fill="black" /></g></svg>