<?xml version="1.0" encoding="utf-8" ?>
<svg baseProfile="tiny" height="100%" version="1.2" width="100%" xmlns="http://www.w3.org/2000/svg" xmlns:ev="http://www.w3.org/2001/xml-events" xmlns:xlink="http://www.w3.org/1999/xlink"><defs /><g transform="translate(0, 1000) scale(1, -1)"><path d="M-11.461898803710938 1876.1600341796875C-10.620391845703125 1876.3599853515625 -9.793121337890625 1876.4599609375 -8.991989135742188 1876.4599609375C-4.69134521484375 1876.4599609375 -1.1446380615234375 1873.7099609375 -0.208953857421875 1869.3499755859375C-0.073638916015625 1868.7099609375 1.52587890625e-05 1868.0999755859375 1.52587890625e-05 1867.47998046875C1.52587890625e-05 1865.31005859375 -0.9153900146484375 1863.0400390625 -3.2709808349609375 1858.8599853515625C-10.237091064453125 1846.4599609375 -22.7913818359375 1822.5 -28.456085205078125 1810.75L-40.13008117675781 1786.260009765625C-112.53999328613281 1629.5400390625 -148.9309844970703 1453.5999755859375 -148.9309844970703 1263.219970703125C-148.9309844970703 1148.6800537109375 -135.7579803466797 1028.9200439453125 -109.33198547363281 904.9669799804688C-92.45237731933594 825.7760009765625 -70.02308654785156 745.3209838867188 -43.26869201660156 667.8519897460938C-30.025390625 629.5 -23.212387084960938 604.4299926757812 -18.083480834960938 575.2260131835938C-12.609588623046875 544.0859985351562 -9.908477783203125 512.9970092773438 -9.908477783203125 482.1390075683594C-9.908477783203125 314.05999755859375 -90.04348754882812 152.81399536132812 -238.7019805908203 27.276596069335938C-247.61997985839844 19.774703979492188 -261.5139923095703 8.636550903320312 -268.9399871826172 3.0483551025390625C-272.42298889160156 0.4456329345703125 -275.25498962402344 -1.8126068115234375 -275.25498962402344 -1.9657135009765625C-275.25498962402344 -2.118804931640625 -272.42298889160156 -4.377044677734375 -268.9399871826172 -6.979766845703125C-261.5139923095703 -12.5679931640625 -247.61997985839844 -23.706100463867188 -238.7019805908203 -31.2080078125C-90.04348754882812 -156.7449951171875 -9.908477783203125 -317.99200439453125 -9.908477783203125 -486.0710144042969C-9.908477783203125 -516.9290161132812 -12.609588623046875 -548.0170288085938 -18.083480834960938 -579.156982421875C-23.174087524414062 -608.093017578125 -30.178482055664062 -633.8909912109375 -42.88587951660156 -670.635009765625C-102.70997619628906 -843.3330078125 -138.9569854736328 -1025.2900390625 -146.84197998046875 -1192.52001953125C-148.02798461914062 -1217.8599853515625 -148.1809844970703 -1226.199951171875 -148.1809844970703 -1264.47998046875C-148.1809844970703 -1302.9000244140625 -147.989990234375 -1312.3199462890625 -146.802978515625 -1336.050048828125C-137.84698486328125 -1516.3699951171875 -95.0933837890625 -1681.6400146484375 -19.461380004882812 -1828.27001953125C-13.796676635742188 -1839.2900390625 -5.1847381591796875 -1855.3299560546875 -2.1227264404296875 -1860.68994140625C-0.8708953857421875 -1862.8499755859375 -0.321685791015625 -1865.030029296875 -0.321685791015625 -1867.0400390625C-0.321685791015625 -1872.2900390625 -4.03863525390625 -1876.4599609375 -8.771331787109375 -1876.4599609375C-10.507278442382812 -1876.4599609375 -12.379989624023438 -1875.9000244140625 -14.2559814453125 -1874.6199951171875C-18.466278076171875 -1871.7900390625 -56.97117614746094 -1798.949951171875 -80.05119323730469 -1750.18994140625C-190.94198608398438 -1516.0999755859375 -246.7279815673828 -1282.5799560546875 -246.7279815673828 -1056.02001953125C-246.7279815673828 -930.281982421875 -229.54698181152344 -806.6890258789062 -195.06797790527344 -686.3280029296875C-188.52297973632812 -663.5540161132812 -182.85897827148438 -645.7559814453125 -170.07498168945312 -608.0549926757812C-142.80899047851562 -527.7349853515625 -129.52899169921875 -448.9599914550781 -129.52899169921875 -375.1600036621094C-129.52899169921875 -223.11000061035156 -185.90098571777344 -92.180908203125 -292.47898864746094 -12.376602172851562C-297.87599182128906 -8.319412231445312 -300.57398986816406 -5.1425628662109375 -300.57398986816406 -1.9657135009765625C-300.57398986816406 1.2111358642578125 -297.87599182128906 4.3879852294921875 -292.47898864746094 8.445175170898438C-185.9189910888672 88.24209594726562 -129.5789794921875 218.68299865722656 -129.5789794921875 370.81201171875C-129.5789794921875 442.77398681640625 -142.1849822998047 519.5880126953125 -168.04598999023438 598.1909790039062C-169.15599060058594 601.6740112304688 -172.56298828125 611.6640014648438 -175.54798889160156 620.3909912109375C-223.21798706054688 760.0170288085938 -247.1079864501953 904.989990234375 -247.1079864501953 1054.2900390625C-247.1079864501953 1084.0899658203125 -246.15599060058594 1114.050048828125 -244.25198364257812 1144.18994140625C-229.32498168945312 1380.0 -153.11898803710938 1627.030029296875 -23.097579956054688 1861.0799560546875C-15.442489624023438 1874.9000244140625 -15.09808349609375 1875.3199462890625 -11.461883544921875 1876.1600341796875Z" fill="black" /></g></svg>