<?xml version="1.0" encoding="utf-8" ?>
<svg baseProfile="tiny" height="100%" version="1.2" width="100%" xmlns="http://www.w3.org/2000/svg" xmlns:ev="http://www.w3.org/2001/xml-events" xmlns:xlink="http://www.w3.org/1999/xlink"><defs /><g transform="translate(0, 1000) scale(1, -1)"><path d="M-10.92919921875 2463.7900390625C-10.28759765625 2463.929931640625 -9.650405883789062 2464.0 -9.025009155273438 2464.0C-4.1558074951171875 2464.0 0.0 2459.85009765625 0.0 2454.949951171875C0.0 2454.35009765625 -0.0643463134765625 2453.719970703125 -0.1996612548828125 2453.10009765625C-0.41253662109375 2451.989990234375 -2.2008056640625 2448.2900390625 -4.1167755126953125 2444.840087890625C-115.49899291992188 2245.919921875 -182.26100158691406 2010.4200439453125 -197.63099670410156 1762.18994140625C-200.08399963378906 1722.7099609375 -201.302001953125 1682.7099609375 -201.302001953125 1642.31005859375C-201.302001953125 1395.0699462890625 -155.66900634765625 1132.4300537109375 -67.72750854492188 876.5819702148438C-57.59410095214844 847.1190185546875 -56.44450378417969 843.7550048828125 -53.123504638671875 832.8980102539062C-32.505096435546875 765.6729736328125 -22.485198974609375 697.2420043945312 -22.485198974609375 629.1890258789062C-22.485198974609375 394.5369873046875 -141.61300659179688 164.36599731445312 -356.1470031738281 3.5312652587890625C-360.5329895019531 0.2527923583984375 -364.1090087890625 -2.5147552490234375 -364.1090087890625 -2.642486572265625C-364.1090087890625 -2.77020263671875 -360.5329895019531 -5.537750244140625 -356.1470031738281 -8.816207885742188C-289.00299072265625 -59.142791748046875 -226.58399963378906 -121.3909912109375 -176.25799560546875 -188.19500732421875C-74.91519165039062 -322.6969909667969 -22.380905151367188 -477.7909851074219 -22.380905151367188 -633.7589721679688C-22.380905151367188 -702.2890014648438 -32.52299499511719 -770.9879760742188 -53.123504638671875 -838.1829833984375C-56.44450378417969 -848.9979858398438 -57.466400146484375 -852.02099609375 -67.77011108398438 -882.0800170898438C-144.75 -1106.1700439453125 -190.30799865722656 -1341.1099853515625 -199.16400146484375 -1559.699951171875C-200.11399841308594 -1583.260009765625 -200.62399291992188 -1619.550048828125 -200.62399291992188 -1651.9100341796875C-200.62399291992188 -1674.6400146484375 -200.3730010986328 -1695.43994140625 -199.84500122070312 -1708.510009765625C-198.99400329589844 -1729.7099609375 -198.48300170898438 -1740.0999755859375 -197.88699340820312 -1751.510009765625C-183.83599853515625 -2004.0799560546875 -117.03199768066406 -2243.110107421875 -4.1167755126953125 -2444.590087890625C-1.4426727294921875 -2449.3701171875 -0.0987396240234375 -2453.030029296875 -0.0987396240234375 -2455.8798828125C-0.0987396240234375 -2459.030029296875 -1.7299957275390625 -2461.179931640625 -5.0109100341796875 -2462.77001953125C-6.6624755859375 -2463.570068359375 -8.115966796875 -2464.0 -9.474136352539062 -2464.0C-13.192901611328125 -2464.0 -16.196807861328125 -2460.760009765625 -20.59429931640625 -2452.929931640625C-208.72799682617188 -2118.2900390625 -310.74700927734375 -1749.56005859375 -310.74700927734375 -1405.800048828125C-310.74700927734375 -1396.1199951171875 -310.6659851074219 -1386.469970703125 -310.5039978027344 -1376.8299560546875C-307.1409912109375 -1176.800048828125 -276.35699462890625 -1003.3400268554688 -209.5959930419922 -808.2080078125C-174.12100219726562 -704.489013671875 -156.86000061035156 -602.1859741210938 -156.86000061035156 -505.73699951171875C-156.86000061035156 -301.5589904785156 -234.218994140625 -123.62200927734375 -379.906005859375 -14.053192138671875C-387.7820129394531 -8.134963989257812 -388.9320068359375 -6.6447601318359375 -388.9320068359375 -2.642486572265625C-388.9320068359375 1.3598175048828125 -387.7820129394531 2.8500213623046875 -379.906005859375 8.768295288085938C-234.19900512695312 118.33000183105469 -156.8509979248047 296.1929931640625 -156.8509979248047 500.3580017089844C-156.8509979248047 596.8179931640625 -174.11599731445312 699.1500244140625 -209.5959930419922 802.9229736328125C-255.57899475097656 937.426025390625 -281.6369934082031 1048.6400146484375 -297.9440002441406 1180.1600341796875C-306.885986328125 1252.27001953125 -311.3219909667969 1325.3299560546875 -311.3219909667969 1399.030029296875C-311.3219909667969 1736.969970703125 -218.04600524902344 2088.2099609375 -38.136199951171875 2421.25C-16.293899536132812 2461.739990234375 -15.612701416015625 2462.760009765625 -10.92919921875 2463.7900390625Z" fill="black" /></g></svg>