<?xml version="1.0" encoding="utf-8" ?>
<svg baseProfile="tiny" height="100%" version="1.2" width="100%" xmlns="http://www.w3.org/2000/svg" xmlns:ev="http://www.w3.org/2001/xml-events" xmlns:xlink="http://www.w3.org/1999/xlink"><defs /><g transform="translate(0, 1000) scale(1, -1)"><path d="M-19.528106689453125 598.3380126953125C-19.1156005859375 598.3870239257812 -18.708602905273438 598.4119873046875 -18.308303833007812 598.4119873046875C-13.252899169921875 598.4119873046875 -9.279190063476562 594.5349731445312 -9.279190063476562 589.3319702148438L-9.27923583984375 589.301025390625C-9.27923583984375 587.125 -9.528396606445312 586.4609985351562 -11.953598022460938 582.0590209960938C-29.909805297851562 549.3359985351562 -41.8695068359375 511.6130065917969 -46.83610534667969 472.01300048828125C-48.83729553222656 456.1109924316406 -49.843505859375 439.7590026855469 -49.843505859375 422.8760070800781C-49.843505859375 361.5639953613281 -36.572906494140625 293.260986328125 -9.49517822265625 214.16400146484375C-3.1739959716796875 195.6790008544922 0.0 177.21299743652344 0.0 158.8979949951172C0.0 152.427001953125 -0.396209716796875 145.9759979248047 -1.1898040771484375 139.5489959716797C-7.551727294921875 87.83969116210938 -35.74009704589844 43.53880310058594 -88.57890319824219 2.12823486328125C-90.47250366210938 0.649871826171875 -92.01730346679688 -0.5959320068359375 -92.01730346679688 -0.6457672119140625C-92.01730346679688 -0.6956024169921875 -90.47250366210938 -1.94140625 -88.57890319824219 -3.4197540283203125C-30.0093994140625 -49.31520080566406 -1.4721832275390625 -99.08099365234375 -0.0768890380859375 -157.7830047607422C-0.0450439453125 -159.0970001220703 -0.0289459228515625 -160.40199279785156 -0.0289459228515625 -161.70199584960938C-0.0289459228515625 -180.06100463867188 -3.239654541015625 -197.24400329589844 -10.60809326171875 -218.7449951171875C-36.645294189453125 -294.7040100097656 -49.660797119140625 -362.9339904785156 -49.660797119140625 -423.7699890136719C-49.660797119140625 -483.5580139160156 -37.089691162109375 -536.2039794921875 -11.953598022460938 -582.02197265625C-9.528396606445312 -586.4240112304688 -9.27923583984375 -587.0880126953125 -9.27923583984375 -589.2639770507812L-9.279144287109375 -589.3060302734375C-9.279144287109375 -594.781005859375 -13.72509765625 -598.4119873046875 -18.366302490234375 -598.4119873046875C-20.572494506835938 -598.4119873046875 -22.822906494140625 -597.5910034179688 -24.660797119140625 -595.7589721679688C-26.222198486328125 -594.197021484375 -35.88960266113281 -576.5570068359375 -43.89599609375 -560.677001953125C-86.22019958496094 -476.7099914550781 -106.18600463867188 -407.84100341796875 -109.8070068359375 -333.1929931640625C-110.08200073242188 -327.5669860839844 -110.21800231933594 -321.885986328125 -110.21800231933594 -316.16400146484375C-110.21800231933594 -273.78399658203125 -102.74700927734375 -229.1790008544922 -88.7117919921875 -188.5959930419922C-77.17080688476562 -155.1929931640625 -71.40029907226562 -125.56300354003906 -71.40029907226562 -99.73100280761719C-71.40029907226562 -69.6083984375 -79.24710083007812 -44.6510009765625 -94.9407958984375 -24.89739990234375C-99.32611083984375 -19.382705688476562 -105.10699462890625 -13.751602172851562 -110.95401000976562 -9.283355712890625C-115.22299194335938 -6.0442657470703125 -116.31900024414062 -4.26690673828125 -116.31900024414062 -0.6457672119140625C-116.31900024414062 2.975372314453125 -115.22299194335938 4.7527313232421875 -110.95401000976562 7.9918212890625C-88.52909851074219 25.084304809570312 -74.99130249023438 51.528594970703125 -72.03460693359375 84.06900024414062C-71.60610961914062 88.74259948730469 -71.39179992675781 93.55789184570312 -71.39179992675781 98.51570129394531C-71.39179992675781 124.30599975585938 -77.19180297851562 153.95399475097656 -88.81149291992188 187.58700561523438C-103.09300231933594 228.93800354003906 -110.24400329589844 272.00799560546875 -110.24400329589844 316.21600341796875C-110.24400329589844 349.239990234375 -106.25299072265625 382.89801025390625 -98.26300048828125 416.947998046875C-85.47270202636719 471.4649963378906 -62.632904052734375 528.0079956054688 -28.447998046875 589.7659912109375C-24.710601806640625 596.5269775390625 -23.3153076171875 597.8720092773438 -19.528106689453125 598.3380126953125Z" fill="black" /></g></svg>