<?xml version="1.0" encoding="utf-8" ?>
<svg baseProfile="tiny" height="100%" version="1.2" width="100%" xmlns="http://www.w3.org/2000/svg" xmlns:ev="http://www.w3.org/2001/xml-events" xmlns:xlink="http://www.w3.org/1999/xlink"><defs /><g transform="translate(0, 1000) scale(1, -1)"><path d="M-19.481002807617188 530.8709716796875C-19.085922241210938 530.9180297851562 -18.695419311523438 530.9409790039062 -18.310821533203125 530.9409790039062C-13.311813354492188 530.9409790039062 -9.316680908203125 527.0479736328125 -9.316680908203125 521.9130249023438C-9.316680908203125 519.8679809570312 -9.625579833984375 518.89697265625 -11.170120239257812 516.1019897460938C-33.466217041015625 475.8380126953125 -44.61601257324219 429.5090026855469 -44.61601257324219 376.71600341796875C-44.61601257324219 322.02398681640625 -32.649810791015625 260.39599609375 -8.713577270507812 191.38600158691406C-3.57989501953125 176.572998046875 -0.917449951171875 163.3939971923828 -0.2260894775390625 149.16900634765625C-0.0763397216796875 146.16600036621094 -1.52587890625e-05 143.31399536132812 -1.52587890625e-05 140.552001953125C-1.52587890625e-05 133.82000732421875 -0.453643798828125 127.62399291992188 -1.402862548828125 121.07400512695312C-7.94866943359375 75.91510009765625 -32.543212890625 38.18479919433594 -79.37892150878906 1.4399871826171875C-80.74691772460938 0.380889892578125 -81.85011291503906 -0.5311126708984375 -81.85011291503906 -0.5752410888671875C-81.85011291503906 -0.6193695068359375 -80.74691772460938 -1.5313720703125 -79.37892150878906 -2.5904693603515625C-32.543212890625 -39.335205078125 -7.94866943359375 -77.06559753417969 -1.402862548828125 -122.2239990234375C-0.453643798828125 -128.77499389648438 -1.52587890625e-05 -134.9709930419922 -1.52587890625e-05 -141.7030029296875C-1.52587890625e-05 -144.46400451660156 -0.0763397216796875 -147.3159942626953 -0.2260894775390625 -150.32000732421875C-0.917449951171875 -164.54400634765625 -3.57989501953125 -177.73899841308594 -8.713577270507812 -192.53700256347656C-32.5836181640625 -261.3169860839844 -44.51670837402344 -322.7170104980469 -44.51670837402344 -377.2030029296875C-44.51670837402344 -429.7929992675781 -33.40000915527344 -475.9440002441406 -11.170120239257812 -516.0759887695312C-9.625579833984375 -518.8709716796875 -9.316680908203125 -519.8419799804688 -9.316680908203125 -521.885986328125C-9.316680908203125 -527.3489990234375 -13.740615844726562 -530.9409790039062 -18.368011474609375 -530.9409790039062C-20.60601806640625 -530.9409790039062 -22.891510009765625 -530.1010131835938 -24.747116088867188 -528.2260131835938C-27.380111694335938 -525.5490112304688 -45.75251770019531 -490.3340148925781 -54.71070861816406 -470.7699890136719C-86.65171813964844 -401.0559997558594 -101.64601135253906 -340.42401123046875 -101.64601135253906 -279.5740051269531C-101.64601135253906 -270.89898681640625 -101.34101867675781 -262.218994140625 -100.73701477050781 -253.50799560546875C-98.72212219238281 -224.3090057373047 -92.926513671875 -196.12600708007812 -82.80621337890625 -166.27999877929688C-72.18922424316406 -134.9510040283203 -67.07701110839844 -109.36399841308594 -67.07701110839844 -86.85890197753906C-67.07701110839844 -80.21029663085938 -67.52320861816406 -73.83059692382812 -68.40541076660156 -67.65139770507812C-71.89161682128906 -43.30690002441406 -83.49760437011719 -22.31610107421875 -100.75201416015625 -9.239242553710938C-105.00300598144531 -6.017822265625 -106.13601684570312 -4.179107666015625 -106.13601684570312 -0.5752410888671875C-106.13601684570312 3.02862548828125 -105.00300598144531 4.867340087890625 -100.75201416015625 8.088760375976562C-83.49760437011719 21.165695190429688 -71.89161682128906 42.156402587890625 -68.40541076660156 66.50090026855469C-67.5233154296875 72.66580200195312 -67.07792663574219 79.03939819335938 -67.07792663574219 85.6842041015625C-67.07792663574219 108.17999267578125 -72.18342590332031 133.7830047607422 -82.73271179199219 164.90899658203125C-95.41311645507812 202.3070068359375 -101.79301452636719 240.1269989013672 -101.79301452636719 278.9679870605469C-101.79301452636719 349.52398681640625 -80.74052429199219 423.4469909667969 -38.16230773925781 504.3349914550781C-25.04132080078125 529.2670288085938 -24.320510864257812 530.2969970703125 -19.48101806640625 530.8709716796875Z" fill="black" /></g></svg>