<?xml version="1.0" encoding="utf-8" ?>
<svg baseProfile="tiny" height="100%" version="1.2" width="100%" xmlns="http://www.w3.org/2000/svg" xmlns:ev="http://www.w3.org/2001/xml-events" xmlns:xlink="http://www.w3.org/1999/xlink"><defs /><g transform="translate(0, 1000) scale(1, -1)"><path d="M-16.41839599609375 388.4519958496094C-16.065399169921875 388.5 -15.664306640625 388.52398681640625 -15.400100708007812 388.52398681640625C-15.311996459960938 388.52398681640625 -15.239105224609375 388.52099609375 -15.18829345703125 388.5159912109375C-13.819198608398438 388.38800048828125 -13.4342041015625 388.322998046875 -12.6748046875 388.0880126953125C-8.96356201171875 386.9700012207031 -6.3878173828125 383.3699951171875 -6.3878173828125 379.5C-6.3878173828125 379.18701171875 -6.4046173095703125 378.87298583984375 -6.438995361328125 378.5580139160156C-6.5994415283203125 377.04998779296875 -6.9524078369140625 376.0979919433594 -8.182449340820312 373.87298583984375C-15.134902954101562 361.3269958496094 -21.028396606445312 346.406005859375 -24.857498168945312 331.677001953125C-29.269500732421875 314.697998046875 -31.484695434570312 296.48199462890625 -31.484695434570312 276.8559875488281C-31.484695434570312 237.14999389648438 -22.41729736328125 191.67100524902344 -4.128662109375 138.98899841308594C-2.770263671875 135.0850067138672 -1.1337738037109375 129.09500122070312 -0.3208770751953125 125.08399963378906L0.0 123.47898864746094V103.40299987792969V83.31581115722656L-0.3850555419921875 81.47610473632812C-6.51385498046875 51.923004150390625 -23.6060791015625 26.873001098632812 -54.624481201171875 1.9833526611328125C-56.2288818359375 0.6998291015625 -57.54447937011719 -0.3911590576171875 -57.54447937011719 -0.4339447021484375C-57.54447937011719 -0.4767303466796875 -56.2288818359375 -1.567718505859375 -54.63517761230469 -2.8512420654296875C-23.6060791015625 -27.74090576171875 -6.51385498046875 -52.7908935546875 -0.385040283203125 -82.343994140625L1.52587890625e-05 -84.18368530273438V-104.27099609375V-124.34698486328125L-0.32086181640625 -125.95199584960938C-1.230010986328125 -130.4550018310547 -2.727447509765625 -135.80299377441406 -4.5457763671875 -141.08700561523438C-22.4345703125 -192.86300659179688 -31.37066650390625 -237.97500610351562 -31.37066650390625 -277.4630126953125C-31.37066650390625 -314.19000244140625 -23.640472412109375 -346.052001953125 -8.193115234375 -373.885009765625C-6.881011962890625 -376.25201416015625 -6.377227783203125 -377.6940002441406 -6.377227783203125 -379.3659973144531C-6.377227783203125 -379.71099853515625 -6.3986968994140625 -380.0669860839844 -6.43896484375 -380.4419860839844C-6.9747467041015625 -385.3800048828125 -11.156967163085938 -388.52398681640625 -15.492172241210938 -388.52398681640625C-17.561172485351562 -388.52398681640625 -19.6651611328125 -387.8080139160156 -21.424072265625 -386.2279968261719C-22.643463134765625 -385.1369934082031 -23.092666625976562 -384.3890075683594 -27.649169921875 -376.02398681640625C-62.78556823730469 -311.4530029296875 -79.06488037109375 -257.6940002441406 -79.74946594238281 -203.92599487304688C-79.76437377929688 -202.77200317382812 -79.77186584472656 -201.6219940185547 -79.77186584472656 -200.47500610351562C-79.77186584472656 -172.875 -75.4256591796875 -147.43699645996094 -65.83396911621094 -118.78500366210938C-60.6463623046875 -103.28700256347656 -58.19696044921875 -93.99200439453125 -56.11126708984375 -81.83059692382812C-54.859771728515625 -74.56829833984375 -54.239166259765625 -67.66470336914062 -54.239166259765625 -61.15570068359375C-54.239166259765625 -38.013702392578125 -62.08396911621094 -19.859893798828125 -77.31076049804688 -8.30621337890625C-80.34967041015625 -6.0008544921875 -81.75946044921875 -3.59368896484375 -81.75946044921875 -0.6162109375C-81.75946044921875 -0.2505950927734375 -81.73826599121094 0.123626708984375 -81.69607543945312 0.5073089599609375C-81.38597106933594 3.3631439208984375 -80.19866943359375 5.245635986328125 -77.31076049804688 7.438323974609375C-62.08396911621094 18.99200439453125 -54.239166259765625 37.14579772949219 -54.239166259765625 60.28779602050781C-54.239166259765625 66.79679870605469 -54.859771728515625 73.70040893554688 -56.11126708984375 80.96270751953125C-58.19696044921875 93.12409973144531 -60.6463623046875 102.40798950195312 -65.83396911621094 117.9169921875C-71.57766723632812 135.09500122070312 -74.50836181640625 146.8070068359375 -76.84017944335938 161.98500061035156C-78.83956909179688 174.98599243164062 -79.84848022460938 188.0330047607422 -79.84848022460938 201.21200561523438C-79.84848022460938 252.468994140625 -64.58676147460938 305.72100830078125 -32.98646545410156 366.010986328125C-28.633163452148438 374.3219909667969 -23.27447509765625 384.0880126953125 -22.547164916992188 385.02899169921875C-21.103164672851562 386.8900146484375 -18.803573608398438 388.17401123046875 -16.418365478515625 388.4519958496094Z" fill="black" /></g></svg>