<?xml version="1.0" encoding="utf-8" ?>
<svg baseProfile="tiny" height="100%" version="1.2" width="100%" xmlns="http://www.w3.org/2000/svg" xmlns:ev="http://www.w3.org/2001/xml-events" xmlns:xlink="http://www.w3.org/1999/xlink"><defs /><g transform="translate(0, 1000) scale(1, -1)"><path d="M-19.87469482421875 493.3380126953125C-19.311599731445312 493.44500732421875 -18.753005981445312 493.49700927734375 -18.20379638671875 493.49700927734375C-13.385406494140625 493.49700927734375 -9.29205322265625 489.5190124511719 -9.29205322265625 484.4070129394531C-9.29205322265625 482.0450134277344 -9.401290893554688 481.7040100097656 -11.558807373046875 477.7850036621094C-31.740203857421875 440.92498779296875 -41.81219482421875 398.74700927734375 -41.81219482421875 350.87200927734375C-41.81219482421875 327.6449890136719 -39.44140625 303.0769958496094 -34.70399475097656 277.1239929199219C-28.682205200195312 244.18800354003906 -21.008102416992188 215.75799560546875 -7.1072540283203125 174.9980010986328C-2.3766326904296875 161.10299682617188 -0.0143890380859375 146.36199951171875 -0.0143890380859375 131.5709991455078C-0.0143890380859375 115.7080078125 -2.7316741943359375 99.78810119628906 -8.15869140625 84.7930908203125C-19.246597290039062 54.15130615234375 -39.7427978515625 28.124801635742188 -73.97589111328125 1.1697998046875C-75.16390991210938 0.2412567138671875 -76.13339233398438 -0.56439208984375 -76.13339233398438 -0.6190032958984375C-76.13339233398438 -0.6736297607421875 -75.16390991210938 -1.4792633056640625 -73.989501953125 -2.4078216552734375C-39.7427978515625 -29.36279296875 -19.246597290039062 -55.38929748535156 -8.15869140625 -86.03118896484375C-2.7380828857421875 -101.02400207519531 0.0 -116.89599609375 0.0 -132.73199462890625C0.0 -143.822998046875 -1.3431549072265625 -154.89700317382812 -4.04852294921875 -165.63999938964844C-5.5505828857421875 -171.6479949951172 -6.0421600341796875 -173.21800231933594 -9.073577880859375 -182.0260009765625C-26.756805419921875 -233.23199462890625 -37.735504150390625 -283.1409912109375 -40.821502685546875 -326.2909851074219C-41.43499755859375 -334.84600830078125 -41.74139404296875 -343.2510070800781 -41.74139404296875 -351.50299072265625C-41.74139404296875 -398.9070129394531 -31.632705688476562 -441.2720031738281 -11.558807373046875 -477.92999267578125C-9.401290893554688 -481.8489990234375 -9.29205322265625 -482.1910095214844 -9.29205322265625 -484.5530090332031C-9.29205322265625 -489.80999755859375 -12.978897094726562 -493.49700927734375 -18.236099243164062 -493.49700927734375C-22.728607177734375 -493.49700927734375 -24.380905151367188 -492.1719970703125 -27.95849609375 -485.7139892578125C-70.87619018554688 -408.2900085449219 -92.86080932617188 -341.14801025390625 -96.27450561523438 -277.06500244140625C-96.60420227050781 -270.85101318359375 -96.76930236816406 -264.6860046386719 -96.76930236816406 -258.5690002441406C-96.76930236816406 -231.4969940185547 -93.53729248046875 -205.3489990234375 -87.043701171875 -179.90899658203125C-84.32640075683594 -169.2449951171875 -82.7969970703125 -164.1790008544922 -78.20889282226562 -150.68800354003906C-70.48019409179688 -127.96600341796875 -66.3291015625 -108.65798950195312 -64.77239990234375 -88.28421020507812C-64.62159729003906 -86.268310546875 -64.54969787597656 -83.80410766601562 -64.54969787597656 -81.15798950195312C-64.54969787597656 -75.41571044921875 -64.88848876953125 -68.81739807128906 -65.49609375 -64.08749389648438C-68.4320068359375 -40.9696044921875 -79.05560302734375 -21.360992431640625 -95.30499267578125 -9.057815551757812C-99.37420654296875 -5.9717864990234375 -100.37100219726562 -4.31951904296875 -100.37100219726562 -0.6190032958984375C-100.37100219726562 3.0814971923828125 -99.37420654296875 4.7337646484375 -95.30499267578125 7.819793701171875C-79.05560302734375 20.123001098632812 -68.4320068359375 39.731597900390625 -65.49609375 62.84950256347656C-64.88848876953125 67.57940673828125 -64.54969787597656 74.17770385742188 -64.54969787597656 79.91989135742188C-64.54969787597656 82.56600952148438 -64.62159729003906 85.03030395507812 -64.77239990234375 87.04620361328125C-66.3291015625 107.41999816894531 -70.48019409179688 126.69999694824219 -78.20889282226562 149.4499969482422C-83.8074951171875 165.93099975585938 -86.7843017578125 176.39100646972656 -89.70649719238281 189.84100341796875C-94.435302734375 211.6230010986328 -96.864990234375 234.61000061035156 -96.864990234375 257.6759948730469C-96.864990234375 258.7869873046875 -96.85940551757812 259.89898681640625 -96.84809875488281 261.010986328125C-96.76609802246094 268.4670104980469 -96.71150207519531 270.20098876953125 -96.27450561523438 278.14801025390625C-92.75149536132812 341.28900146484375 -70.52120971679688 408.79901123046875 -27.95849609375 485.5679931640625C-24.790496826171875 491.28900146484375 -23.370391845703125 492.6549987792969 -19.87469482421875 493.3380126953125Z" fill="black" /></g></svg>