<?xml version="1.0" encoding="utf-8" ?>
<svg baseProfile="tiny" height="100%" version="1.2" width="100%" xmlns="http://www.w3.org/2000/svg" xmlns:ev="http://www.w3.org/2001/xml-events" xmlns:xlink="http://www.w3.org/1999/xlink"><defs /><g transform="translate(0, 1000) scale(1, -1)"><path d="M-14.271194458007812 1155.030029296875C-13.5767822265625 1155.199951171875 -12.882781982421875 1155.2900390625 -12.19989013671875 1155.2900390625C-7.40496826171875 1155.2900390625 -3.158599853515625 1151.260009765625 -3.158599853515625 1146.1300048828125C-3.1573638916015625 1146.02001953125 -3.15655517578125 1145.9200439453125 -3.15655517578125 1145.8199462890625C-3.15655517578125 1143.550048828125 -3.5570831298828125 1142.760009765625 -8.585678100585938 1133.6400146484375C-32.18919372558594 1090.8299560546875 -52.66278076171875 1038.5400390625 -66.12998962402344 986.4769897460938C-81.63438415527344 926.5479736328125 -89.35638427734375 862.27197265625 -89.35638427734375 794.4459838867188C-89.35638427734375 676.7369995117188 -66.09889221191406 548.3359985351562 -19.899276733398438 413.4169921875C-5.3983612060546875 371.06298828125 1.52587890625e-05 340.65399169921875 1.52587890625e-05 301.6310119628906C1.52587890625e-05 189.78700256347656 -56.883880615234375 86.29888916015625 -163.989990234375 3.198516845703125C-167.0339813232422 0.843902587890625 -169.531982421875 -1.194854736328125 -169.531982421875 -1.3097076416015625C-169.531982421875 -1.424560546875 -167.0339813232422 -3.4633026123046875 -164.01898193359375 -5.8179168701171875C-56.883880615234375 -88.91830444335938 1.52587890625e-05 -192.406005859375 1.52587890625e-05 -304.25C1.52587890625e-05 -340.8900146484375 -5.42706298828125 -373.2229919433594 -17.573379516601562 -409.0589904785156C-46.54658508300781 -494.4849853515625 -63.28727722167969 -559.4949951171875 -75.46229553222656 -633.89501953125C-84.50608825683594 -689.0880126953125 -88.99598693847656 -742.8040161132812 -88.99598693847656 -794.5640258789062C-88.99598693847656 -921.7750244140625 -61.87638854980469 -1037.1800537109375 -8.585678100585938 -1133.6800537109375C-3.5570831298828125 -1142.77001953125 -3.15655517578125 -1143.5799560546875 -3.15655517578125 -1145.8499755859375C-3.15655517578125 -1145.949951171875 -3.1573638916015625 -1146.06005859375 -3.158599853515625 -1146.1700439453125C-3.1585845947265625 -1151.6500244140625 -7.6651458740234375 -1155.2900390625 -12.325973510742188 -1155.2900390625C-14.5755615234375 -1155.2900390625 -16.861175537109375 -1154.43994140625 -18.693267822265625 -1152.5400390625C-20.81817626953125 -1150.3299560546875 -37.58757019042969 -1119.2900390625 -50.48046875 -1093.6199951171875C-129.68797302246094 -936.1090087890625 -169.52496337890625 -781.3729858398438 -169.52496337890625 -633.6290283203125C-169.52496337890625 -547.0430297851562 -155.8429718017578 -462.8580017089844 -128.38397216796875 -381.9230041503906C-115.5479736328125 -344.1059875488281 -110.89596557617188 -327.4800109863281 -105.49797058105469 -300.2300109863281C-99.72515869140625 -271.12799072265625 -96.88555908203125 -243.1280059814453 -96.88555908203125 -216.5590057373047C-96.88555908203125 -128.1479949951172 -128.32797241210938 -55.58039855957031 -187.76597595214844 -10.957901000976562C-193.30796813964844 -6.794219970703125 -194.34097290039062 -5.243621826171875 -194.34097290039062 -1.3097076416015625C-194.34097290039062 2.62420654296875 -193.30796813964844 4.1748046875 -187.76597595214844 8.33843994140625C-128.9649658203125 52.470703125 -96.75466918945312 125.82099914550781 -96.75466918945312 213.572998046875C-96.75466918945312 223.74000549316406 -97.18716430664062 234.1009979248047 -98.06076049804688 244.6320037841797C-101.70797729492188 288.67999267578125 -110.00596618652344 325.8370056152344 -127.6939697265625 377.1789855957031C-155.43496704101562 457.6889953613281 -169.6869659423828 545.2919921875 -169.6869659423828 634.3330078125C-169.6869659423828 648.9810180664062 -169.30197143554688 663.6680297851562 -168.52696228027344 678.3679809570312C-160.62997436523438 827.9140014648438 -111.98696899414062 984.6110229492188 -24.120361328125 1143.52001953125C-18.9229736328125 1152.9100341796875 -17.889266967773438 1154.1099853515625 -14.271163940429688 1155.030029296875Z" fill="black" /></g></svg>