<?xml version="1.0" encoding="utf-8" ?>
<svg baseProfile="tiny" height="100%" version="1.2" width="100%" xmlns="http://www.w3.org/2000/svg" xmlns:ev="http://www.w3.org/2001/xml-events" xmlns:xlink="http://www.w3.org/1999/xlink"><defs /><g transform="translate(0, 1000) scale(1, -1)"><path d="M-14.512893676757812 6499.1298828125C-13.04998779296875 6500.0400390625 -11.273391723632812 6500.4599609375 -9.487091064453125 6500.4599609375C-6.0823516845703125 6500.4599609375 -2.6422119140625 6498.919921875 -1.2708282470703125 6496.27001953125C-0.5694122314453125 6494.89990234375 -0.102203369140625 6493.81982421875 -0.102203369140625 6492.419921875C-0.102203369140625 6488.7900390625 -3.2049407958984375 6483.0 -13.397781372070312 6464.6298828125C-384.73899841308594 5794.52978515625 -574.3899993896484 5023.3798828125 -574.3899993896484 4200.830078125C-574.3899993896484 3926.360107421875 -553.2719573974609 3646.159912109375 -510.7419891357422 3362.080078125C-457.49497985839844 3006.7099609375 -366.4729766845703 2634.949951171875 -247.92198181152344 2289.330078125L-226.59498596191406 2227.10009765625C-157.80699157714844 2025.3499755859375 -124.51498413085938 1818.6400146484375 -124.51498413085938 1613.72998046875C-124.51498413085938 1004.3800048828125 -418.9239807128906 410.91900634765625 -949.8209533691406 10.93328857421875C-962.4359436035156 1.385040283203125 -972.8199768066406 -6.6996002197265625 -972.8199768066406 -6.9783782958984375C-972.8199768066406 -7.2571563720703125 -962.4359436035156 -15.341812133789062 -949.8209533691406 -24.8900146484375C-554.5099792480469 -322.697021484375 -278.656982421875 -739.8220520019531 -173.13897705078125 -1199.1100158691406C-140.69796752929688 -1340.4100646972656 -124.53598022460938 -1483.7600402832031 -124.53598022460938 -1626.7800598144531C-124.53598022460938 -1834.6500549316406 -158.67697143554688 -2041.8399963378906 -226.594970703125 -2241.050079345703L-248.2699737548828 -2304.340118408203C-376.1609649658203 -2677.409942626953 -469.96995544433594 -3073.070098876953 -521.8929595947266 -3458.280059814453C-556.0029449462891 -3711.300079345703 -572.9419708251953 -3961.159942626953 -572.9419708251953 -4206.480010986328C-572.9419708251953 -5026.830108642578 -383.53395080566406 -5796.480010986328 -13.397750854492188 -6463.950225830078C-3.97052001953125 -6480.930206298828 4.57763671875e-05 -6488.740264892578 4.57763671875e-05 -6493.109893798828C4.57763671875e-05 -6495.879913330078 -1.5951385498046875 -6497.270050048828 -4.4070892333984375 -6498.730010986328C-6.4347076416015625 -6499.770050048828 -8.0640869140625 -6500.459991455078 -9.613815307617188 -6500.459991455078C-14.349746704101562 -6500.459991455078 -18.34185791015625 -6494.040069580078 -30.682159423828125 -6471.819854736328C-497.7759704589844 -5629.480010986328 -737.9919738769531 -4718.000030517578 -737.9919738769531 -3817.300079345703C-737.9919738769531 -3485.750030517578 -705.4419860839844 -3155.659942626953 -639.6779479980469 -2831.020050048828C-597.6519470214844 -2623.679962158203 -539.2469787597656 -2407.899932861328 -472.96697998046875 -2215.270050048828C-415.60797119140625 -2048.629913330078 -390.4479675292969 -1956.1400451660156 -365.7759704589844 -1821.4900207519531C-341.2979736328125 -1687.8199768066406 -329.3599548339844 -1555.3000793457031 -329.3599548339844 -1425.6899719238281C-329.3599548339844 -847.5140075683594 -566.9279479980469 -327.1560363769531 -988.5709533691406 -19.662933349609375C-997.7009582519531 -12.972137451171875 -998.9559631347656 -11.508529663085938 -998.9559631347656 -6.9783935546875C-998.9559631347656 -2.448211669921875 -997.7009582519531 -0.984619140625 -988.5709533691406 5.70611572265625C-947.7299499511719 35.53556823730469 -901.5219421386719 73.31036376953125 -864.0959777832031 107.5999755859375C-517.2649841308594 425.4709777832031 -329.41796875 895.3619689941406 -329.41796875 1410.5199890136719C-329.41796875 1567.3199157714844 -346.8179626464844 1728.3000183105469 -382.4329833984375 1890.4699401855469C-402.99298095703125 1984.1399841308594 -426.6899719238281 2067.219940185547 -461.7459716796875 2168.550018310547C-579.3909606933594 2508.320037841797 -656.8919982910156 2839.300018310547 -700.9399719238281 3190.279998779297C-726.7309875488281 3395.729949951172 -739.5289611816406 3602.949920654297 -739.5289611816406 3810.879852294922C-739.5289611816406 4633.999969482422 -538.9649963378906 5468.109832763672 -149.92996215820312 6246.060028076172C-96.89247131347656 6352.140106201172 -20.088470458984375 6495.709930419922 -14.512863159179688 6499.129852294922Z" fill="black" /></g></svg>