<?xml version="1.0" encoding="utf-8" ?>
<svg baseProfile="tiny" height="100%" version="1.2" width="100%" xmlns="http://www.w3.org/2000/svg" xmlns:ev="http://www.w3.org/2001/xml-events" xmlns:xlink="http://www.w3.org/1999/xlink"><defs /><g transform="translate(0, 1000) scale(1, -1)"><path d="M-13.4241943359375 1708.68994140625C-12.021697998046875 1709.4200439453125 -10.57269287109375 1709.760009765625 -9.17138671875 1709.760009765625C-4.4291534423828125 1709.760009765625 -0.2329559326171875 1705.9300537109375 -0.2329559326171875 1700.6300048828125C-0.2329559326171875 1700.449951171875 -0.237762451171875 1700.27001953125 -0.247528076171875 1700.0799560546875C-0.3869781494140625 1697.6400146484375 -0.4218292236328125 1697.5 -5.4415130615234375 1688.3699951171875C-91.31629943847656 1532.3800048828125 -134.41400146484375 1350.469970703125 -134.41400146484375 1152.6800537109375C-134.41400146484375 982.989013671875 -102.69200134277344 801.6110229492188 -39.04559326171875 614.8889770507812C-30.609695434570312 590.1389770507812 -27.85589599609375 581.8079833984375 -25.624908447265625 573.9290161132812C-12.966400146484375 529.4959716796875 -6.754180908203125 484.74200439453125 -6.754180908203125 440.364013671875C-6.754180908203125 291.89801025390625 -76.28359985351562 147.64300537109375 -206.5780029296875 33.71980285644531C-219.5449981689453 22.355697631835938 -242.48300170898438 3.7410430908203125 -249.83799743652344 -1.3832244873046875L-250.60499572753906 -1.94097900390625L-249.83799743652344 -2.49871826171875C-234.15098571777344 -13.479293823242188 -201.20999145507812 -41.610504150390625 -179.87599182128906 -62.17730712890625C-66.67329406738281 -171.50399780273438 -6.7214508056640625 -307.1159973144531 -6.7214508056640625 -444.66900634765625C-6.7214508056640625 -496.4110107421875 -15.204391479492188 -548.427978515625 -32.52699279785156 -599.4240112304688C-62.88908386230469 -688.8720092773438 -79.83058166503906 -748.3419799804688 -96.03999328613281 -822.52099609375C-121.42198181152344 -938.6380004882812 -134.06597900390625 -1050.489990234375 -134.06597900390625 -1157.1300048828125C-134.06597900390625 -1353.949951171875 -90.994384765625 -1533.030029296875 -5.441497802734375 -1688.4200439453125C-1.458953857421875 -1695.6600341796875 1.52587890625e-05 -1698.7099609375 1.52587890625e-05 -1701.0799560546875C1.52587890625e-05 -1702.1300048828125 -0.28790283203125 -1703.050048828125 -0.7704010009765625 -1704.1400146484375C-2.3890380859375 -1707.780029296875 -5.94537353515625 -1709.760009765625 -9.45587158203125 -1709.760009765625C-11.99359130859375 -1709.760009765625 -14.507278442382812 -1708.719970703125 -16.247787475585938 -1706.550048828125C-20.500579833984375 -1701.1800537109375 -55.32469177246094 -1634.8399658203125 -71.29008483886719 -1601.6199951171875C-175.92498779296875 -1384.1600341796875 -228.56597900390625 -1167.47998046875 -228.56597900390625 -957.9459838867188C-228.56597900390625 -833.739013671875 -210.06898498535156 -712.0449829101562 -172.93898010253906 -594.1950073242188C-169.208984375 -582.3079833984375 -166.489990234375 -574.1859741210938 -160.1809844970703 -555.8499755859375C-134.42198181152344 -480.9840087890625 -121.91297912597656 -409.4880065917969 -121.91297912597656 -337.2449951171875C-121.91297912597656 -335.2829895019531 -121.92198181152344 -333.3210144042969 -121.93998718261719 -331.3580017089844C-122.14898681640625 -311.9070129394531 -122.25398254394531 -308.6650085449219 -123.40397644042969 -294.5820007324219C-133.2349853515625 -174.28399658203125 -183.74497985839844 -75.319091796875 -267.4419708251953 -12.468399047851562C-274.44798278808594 -7.2046661376953125 -275.0409698486328 -6.402923583984375 -275.0409698486328 -1.9409637451171875C-275.0409698486328 2.5209808349609375 -274.44798278808594 3.3227386474609375 -267.4419708251953 8.586456298828125C-183.74497985839844 71.43719482421875 -133.2349853515625 170.40199279785156 -123.40397644042969 290.70001220703125C-122.25398254394531 304.7829895019531 -122.14898681640625 308.0249938964844 -121.93998718261719 327.47601318359375C-121.92198181152344 329.4339904785156 -121.91297912597656 331.3909912109375 -121.91297912597656 333.3479919433594C-121.91297912597656 405.6090087890625 -134.45498657226562 477.3340148925781 -160.21498107910156 551.968017578125C-199.7799835205078 666.7940063476562 -221.0089874267578 773.8809814453125 -227.07498168945312 889.5780029296875C-228.5389862060547 917.3250122070312 -228.677978515625 922.5889892578125 -228.677978515625 956.5070190429688C-228.67799377441406 989.4140014648438 -228.53900146484375 995.7930297851562 -227.28399658203125 1020.6500244140625C-216.02499389648438 1242.6600341796875 -146.6199951171875 1471.3399658203125 -22.41790771484375 1695.8699951171875C-16.457000732421875 1706.5999755859375 -15.934097290039062 1707.3699951171875 -13.4241943359375 1708.68994140625Z" fill="black" /></g></svg>