<?xml version="1.0" encoding="utf-8" ?>
<svg baseProfile="tiny" height="100%" version="1.2" width="100%" xmlns="http://www.w3.org/2000/svg" xmlns:ev="http://www.w3.org/2001/xml-events" xmlns:xlink="http://www.w3.org/1999/xlink"><defs /><g transform="translate(0, 1000) scale(1, -1)"><path d="M-14.280792236328125 322.4530029296875C-13.761703491210938 322.5450134277344 -13.245101928710938 322.5899963378906 -12.735198974609375 322.5899963378906C-8.045822143554688 322.5899963378906 -3.9293975830078125 318.81500244140625 -3.7381134033203125 313.968994140625C-3.728973388671875 313.7380065917969 -3.7238922119140625 313.5190124511719 -3.7238922119140625 313.3110046386719C-3.7238922119140625 311.5039978027344 -4.1050262451171875 310.4259948730469 -5.5232086181640625 307.8269958496094C-18.246597290039062 284.52899169921875 -24.614303588867188 258.1789855957031 -24.614303588867188 227.92999267578125C-24.614303588867188 195.59100341796875 -17.336395263671875 158.79400634765625 -2.766021728515625 116.50299072265625C-1.5730133056640625 113.04800415039062 -0.9013824462890625 110.84700012207031 -0.3181304931640625 108.52301025390625L0.0 107.27700805664062V85.2550048828125V63.2239990234375L-0.433013916015625 61.54499816894531C-6.0622711181640625 39.83210754394531 -20.334197998046875 19.683517456054688 -43.187103271484375 1.187347412109375C-44.21220397949219 0.356658935546875 -45.06050109863281 -0.3414764404296875 -45.06050109863281 -0.3679962158203125C-45.06050109863281 -0.394500732421875 -44.21220397949219 -1.0926361083984375 -43.187103271484375 -1.9233245849609375C-20.334197998046875 -20.419479370117188 -6.0622711181640625 -40.568084716796875 -0.433013916015625 -62.28099060058594L0.0 -63.959991455078125V-85.99099731445312V-108.01300048828125L-0.3181304931640625 -109.25900268554688C-0.9013671875 -111.59201049804688 -1.572998046875 -113.78399658203125 -2.7660064697265625 -117.23899841308594C-10.728286743164062 -140.32200622558594 -16.313385009765625 -161.13299560546875 -20.060287475585938 -181.66200256347656C-23.057083129882812 -198.08799743652344 -24.558792114257812 -213.58999633789062 -24.558792114257812 -228.22500610351562C-24.558792114257812 -258.2560119628906 -18.23529052734375 -284.635986328125 -5.5320281982421875 -307.8559875488281C-4.1057586669921875 -310.4549865722656 -3.7238922119140625 -311.53399658203125 -3.7238922119140625 -313.34100341796875C-3.7238922119140625 -313.54901123046875 -3.7289581298828125 -313.7669982910156 -3.73809814453125 -313.99798583984375C-3.86181640625 -317.3030090332031 -5.7441253662109375 -320.1929931640625 -8.704559326171875 -321.6510009765625C-10.002090454101562 -322.2860107421875 -11.371185302734375 -322.5899963378906 -12.718582153320312 -322.5899963378906C-15.886581420898438 -322.5899963378906 -18.934982299804688 -320.9129943847656 -20.652389526367188 -317.92999267578125C-22.896987915039062 -314.0329895019531 -27.174179077148438 -306.0799865722656 -30.426284790039062 -299.72601318359375C-55.13768005371094 -251.48300170898438 -67.13609313964844 -208.44400024414062 -67.13609313964844 -166.97900390625C-67.13609313964844 -154.40899658203125 -66.03349304199219 -141.98399353027344 -63.84828186035156 -129.6020050048828C-61.99247741699219 -119.12100219726562 -59.42088317871094 -109.34799194335938 -55.37348937988281 -97.47039794921875C-50.63677978515625 -83.560791015625 -47.88838195800781 -71.96649169921875 -46.71308898925781 -60.90240478515625C-46.34309387207031 -57.438507080078125 -46.15867614746094 -54.09710693359375 -46.15867614746094 -50.88189697265625C-46.15867614746094 -31.982696533203125 -52.528289794921875 -17.442398071289062 -64.99708557128906 -7.99444580078125C-67.93989562988281 -5.767486572265625 -69.05339050292969 -3.6819305419921875 -69.05339050292969 -0.368011474609375C-69.05339050292969 2.9459228515625 -67.93989562988281 5.0314788818359375 -64.99708557128906 7.2584381103515625C-60.118988037109375 10.952392578125 -56.212982177734375 15.379806518554688 -53.20838928222656 20.637893676757812C-48.50048828125 28.857101440429688 -46.14288330078125 38.596405029296875 -46.14288330078125 50.0968017578125C-46.14288330078125 63.227294921875 -49.2161865234375 78.65359497070312 -55.37348937988281 96.73440551757812C-60.154388427734375 110.78500366210938 -62.77018737792969 121.29299926757812 -64.81147766113281 134.7519989013672C-66.41058349609375 145.26199340820312 -67.21559143066406 155.84800720214844 -67.21559143066406 166.56300354003906C-67.21559143066406 208.0760040283203 -55.133087158203125 251.51300048828125 -30.337890625 299.8739929199219C-27.112289428710938 306.1570129394531 -22.852783203125 314.0929870605469 -20.652389526367188 317.9010009765625C-19.256088256835938 320.322998046875 -16.9495849609375 321.9750061035156 -14.280776977539062 322.4530029296875Z" fill="black" /></g></svg>