<?xml version="1.0" encoding="utf-8" ?>
<svg baseProfile="tiny" height="100%" version="1.2" width="100%" xmlns="http://www.w3.org/2000/svg" xmlns:ev="http://www.w3.org/2001/xml-events" xmlns:xlink="http://www.w3.org/1999/xlink"><defs /><g transform="translate(0, 1000) scale(1, -1)"><path d="M-19.027999877929688 715.8930053710938C-18.540176391601562 715.9630126953125 -18.059280395507812 715.9970092773438 -17.587692260742188 715.9970092773438C-12.497589111328125 715.9970092773438 -8.492889404296875 712.031005859375 -8.492889404296875 706.968017578125C-8.492889404296875 706.5239868164062 -8.523773193359375 706.0709838867188 -8.587509155273438 705.6119995117188C-8.786758422851562 704.0969848632812 -9.145401000976562 703.3200073242188 -12.353286743164062 697.4819946289062C-42.96498107910156 641.5449829101562 -58.27207946777344 576.5650024414062 -58.27207946777344 503.21600341796875C-58.27207946777344 429.760009765625 -42.92018127441406 347.9100036621094 -12.213790893554688 258.3429870605469C-3.387176513671875 232.56100463867188 1.52587890625e-05 213.55299377441406 1.52587890625e-05 189.60299682617188C1.52587890625e-05 119.38900756835938 -36.06358337402344 55.371002197265625 -105.89898681640625 1.6940460205078125C-107.59298706054688 0.3790130615234375 -108.96798706054688 -0.7168426513671875 -108.96798706054688 -0.776611328125C-108.96798706054688 -0.836395263671875 -107.59298706054688 -1.9322509765625 -105.89898681640625 -3.2472686767578125C-36.06358337402344 -56.9241943359375 1.52587890625e-05 -120.94200134277344 1.52587890625e-05 -191.15699768066406C1.52587890625e-05 -215.22500610351562 -3.36724853515625 -234.07400512695312 -12.353286743164062 -260.2749938964844C-37.039886474609375 -332.3429870605469 -51.784088134765625 -399.4490051269531 -56.58598327636719 -461.7330017089844C-57.64408874511719 -475.51800537109375 -58.173187255859375 -489.75799560546875 -58.173187255859375 -503.7070007324219C-58.173187255859375 -518.9119873046875 -57.54447937011719 -533.7689819335938 -56.28709411621094 -547.3090209960938C-56.00819396972656 -550.218017578125 -55.68937683105469 -553.6060180664062 -55.58967590332031 -554.8610229492188C-54.553680419921875 -566.4970092773438 -50.94728088378906 -588.155029296875 -47.52027893066406 -603.197998046875C-39.76957702636719 -637.3090209960938 -26.838485717773438 -671.5590209960938 -10.998382568359375 -699.9119873046875C-9.238998413085938 -703.0889892578125 -8.423629760742188 -705.1939697265625 -8.423629760742188 -707.1380004882812C-8.423629760742188 -708.364013671875 -8.748031616210938 -709.5250244140625 -9.36456298828125 -710.8510131835938C-10.97808837890625 -714.2919921875 -13.9998779296875 -715.9970092773438 -17.150787353515625 -715.9970092773438C-20.458786010742188 -715.9970092773438 -23.9091796875 -714.1170043945312 -26.021591186523438 -710.3930053710938C-55.2310791015625 -658.8280029296875 -80.61508178710938 -601.3250122070312 -96.59458923339844 -550.5969848632812C-114.69598388671875 -493.1730041503906 -123.74198913574219 -437.22900390625 -123.74198913574219 -382.8269958496094C-123.74198913574219 -329.55999755859375 -115.06898498535156 -277.77099609375 -97.73028564453125 -227.5189971923828C-86.63227844238281 -195.34100341796875 -80.85418701171875 -169.16000366210938 -78.38348388671875 -139.75100708007812C-78.06608581542969 -135.9770050048828 -77.91249084472656 -130.51300048828125 -77.91249084472656 -124.8330078125C-77.91249084472656 -117.67800903320312 -78.15608215332031 -110.17900085449219 -78.62257385253906 -105.281005859375C-82.52787780761719 -64.07720947265625 -99.54348754882812 -30.922607421875 -127.71699523925781 -9.643081665039062C-131.83297729492188 -6.53448486328125 -133.4019775390625 -4.289764404296875 -133.4019775390625 -1.1014862060546875C-133.4019775390625 -0.570526123046875 -133.3579864501953 -0.013397216796875 -133.27598571777344 0.5782623291015625C-132.8569793701172 3.547027587890625 -131.7419891357422 5.0612945556640625 -127.71699523925781 8.08984375C-101.11798095703125 28.173904418945312 -84.00227355957031 59.75439453125 -79.31999206542969 97.35220336914062C-78.33479309082031 105.24700927734375 -77.84248352050781 113.42401123046875 -77.84248352050781 121.87899780273438C-77.84248352050781 152.92300415039062 -84.47808837890625 187.7050018310547 -97.71038818359375 225.9459991455078C-115.15898132324219 276.34698486328125 -123.88798522949219 328.2489929199219 -123.88798522949219 381.7409973144531C-123.88798522949219 476.802001953125 -96.31948852539062 576.8829956054688 -41.124481201171875 682.47900390625L-26.838485717773438 708.9990234375C-24.2880859375 713.6409912109375 -22.275680541992188 715.4340209960938 -19.027984619140625 715.8930053710938Z" fill="black" /></g></svg>