<?xml version="1.0" encoding="utf-8" ?>
<svg baseProfile="tiny" height="100%" version="1.2" width="100%" xmlns="http://www.w3.org/2000/svg" xmlns:ev="http://www.w3.org/2001/xml-events" xmlns:xlink="http://www.w3.org/1999/xlink"><defs /><g transform="translate(0, 1000) scale(1, -1)"><path d="M-20.574203491210938 614.1829833984375C-19.764114379882812 614.4030151367188 -18.956710815429688 614.5070190429688 -18.1671142578125 614.5070190429688C-13.318008422851562 614.5070190429688 -9.140701293945312 610.5819702148438 -9.140701293945312 605.4459838867188C-9.140701293945312 603.5 -9.601455688476562 602.27099609375 -11.90521240234375 598.0390014648438C-30.267120361328125 564.3189697265625 -42.19551086425781 527.27099609375 -47.51982116699219 487.4580078125C-49.832916259765625 470.177001953125 -50.99601745605469 452.4339904785156 -50.99601745605469 434.0740051269531C-50.99601745605469 390.9389953613281 -44.57560729980469 344.3970031738281 -31.564117431640625 292.4230041503906C-25.915618896484375 269.8630065917969 -19.260208129882812 247.83200073242188 -9.089523315429688 218.0019989013672C-3.01873779296875 200.22300720214844 -0.0032958984375 181.7760009765625 -0.0032958984375 163.3179931640625C-0.0032958984375 138.08900451660156 -5.6371307373046875 112.83999633789062 -16.80291748046875 89.24710083007812C-31.615310668945312 57.9840087890625 -55.19911193847656 30.21929931640625 -90.84782409667969 2.0962371826171875C-92.69081115722656 0.645721435546875 -94.20960998535156 -0.617095947265625 -94.20960998535156 -0.6853485107421875C-94.20960998535156 -0.7536163330078125 -92.69081115722656 -2.01641845703125 -90.84782409667969 -3.4669342041015625C-55.19911193847656 -31.589996337890625 -31.615310668945312 -59.354705810546875 -16.80291748046875 -90.6177978515625C-5.6338653564453125 -114.21800231933594 -1.52587890625e-05 -139.468994140625 -1.52587890625e-05 -164.70399475097656C-1.52587890625e-05 -183.1529998779297 -3.0113067626953125 -201.59300231933594 -9.07244873046875 -219.3730010986328C-22.536712646484375 -258.80999755859375 -30.250106811523438 -285.8580017089844 -37.29791259765625 -318.3500061035156C-46.33601379394531 -359.98199462890625 -50.866912841796875 -398.79998779296875 -50.866912841796875 -435.04901123046875C-50.866912841796875 -496.3290100097656 -37.917816162109375 -550.2659912109375 -11.90521240234375 -598.0449829101562C-9.877883911132812 -601.7659912109375 -9.104232788085938 -603.614990234375 -9.104232788085938 -605.4609985351562C-9.104232788085938 -606.1630249023438 -9.216217041015625 -606.864990234375 -9.413742065429688 -607.6690063476562C-10.475814819335938 -611.9829711914062 -14.311614990234375 -614.5070190429688 -18.237411499023438 -614.5070190429688C-20.493118286132812 -614.5070190429688 -22.778610229492188 -613.6729736328125 -24.584518432617188 -611.8670043945312C-25.847320556640625 -610.60498046875 -31.291015625 -600.8779907226562 -39.66990661621094 -584.905029296875C-88.03822326660156 -492.7149963378906 -112.03001403808594 -407.197998046875 -112.03001403808594 -325.7460021972656C-112.03001403808594 -286.12701416015625 -106.35401916503906 -247.4709930419922 -95.04582214355469 -209.47500610351562C-94.34611511230469 -207.1199951171875 -92.04231262207031 -200.05499267578125 -89.94340515136719 -193.7760009765625C-79.60200500488281 -162.90499877929688 -75.01152038574219 -142.56399536132812 -72.96371459960938 -118.60400390625C-72.51101684570312 -113.28799438476562 -72.28642272949219 -108.0830078125 -72.28642272949219 -103.0C-72.28642272949219 -62.285003662109375 -86.69541931152344 -29.3572998046875 -113.71501159667969 -9.0130615234375C-117.40101623535156 -6.21441650390625 -118.69801330566406 -4.0642242431640625 -118.69801330566406 -0.6853485107421875C-118.69801330566406 2.693511962890625 -117.40101623535156 4.8437042236328125 -113.71501159667969 7.642364501953125C-86.69541931152344 27.986602783203125 -72.28642272949219 60.914306640625 -72.28642272949219 101.62899780273438C-72.28642272949219 106.71299743652344 -72.51101684570312 111.9169921875 -72.96371459960938 117.2340087890625C-75.01152038574219 141.1929931640625 -79.60200500488281 161.53399658203125 -89.94340515136719 192.40499877929688C-97.31541442871094 214.43600463867188 -101.75201416015625 231.15899658203125 -105.28501892089844 250.2550048828125C-109.86201477050781 274.9840087890625 -112.16401672363281 299.9389953613281 -112.16401672363281 325.2460021972656C-112.16401672363281 409.6669921875 -86.55131530761719 498.00201416015625 -34.36271667480469 594.8820190429688C-24.721023559570312 612.7659912109375 -24.465011596679688 613.1420288085938 -20.57421875 614.1829833984375Z" fill="black" /></g></svg>