<?xml version="1.0" encoding="utf-8" ?>
<svg baseProfile="tiny" height="100%" version="1.2" width="100%" xmlns="http://www.w3.org/2000/svg" xmlns:ev="http://www.w3.org/2001/xml-events" xmlns:xlink="http://www.w3.org/1999/xlink"><defs /><g transform="translate(0, 1000) scale(1, -1)"><path d="M-18.535400390625 701.822021484375C-18.276199340820312 701.8419799804688 -18.01910400390625 701.85302734375 -17.764495849609375 701.85302734375C-12.764205932617188 701.85302734375 -8.733184814453125 697.9089965820312 -8.733184814453125 692.781005859375C-8.733184814453125 690.593994140625 -9.065139770507812 689.7540283203125 -11.87689208984375 684.6190185546875C-31.61810302734375 648.4359741210938 -45.11090087890625 608.1929931640625 -52.003692626953125 564.9810180664062C-55.63629150390625 542.1849975585938 -57.451690673828125 518.3619995117188 -57.451690673828125 493.5260009765625C-57.451690673828125 420.9049987792969 -41.93150329589844 339.6090087890625 -10.939697265625 249.9219970703125C-3.614410400390625 228.74000549316406 0.0 207.18699645996094 0.0 185.76499938964844C0.0 140.2030029296875 -16.348602294921875 95.226806640625 -48.11790466308594 55.63470458984375C-51.47650146484375 51.45599365234375 -52.43330383300781 50.32350158691406 -57.60780334472656 44.485107421875C-70.12420654296875 30.30889892578125 -89.14289855957031 12.852294921875 -105.97500610351562 0.082061767578125C-106.58999633789062 -0.386566162109375 -106.89700317382812 -0.5915985107421875 -106.89700317382812 -0.796630859375C-106.89700317382812 -1.00164794921875 -106.58999633789062 -1.2066802978515625 -105.97500610351562 -1.6753082275390625C-89.14289855957031 -14.445602416992188 -70.12420654296875 -31.902206420898438 -57.60780334472656 -46.07830810546875C-52.43330383300781 -51.91670227050781 -51.47650146484375 -53.04930114746094 -48.11790466308594 -57.2279052734375C-16.41259765625 -96.7471923828125 -0.05853271484375 -141.2100067138672 -0.05853271484375 -187.40499877929688C-0.05853271484375 -193.38800048828125 -0.33282470703125 -199.39999389648438 -0.883575439453125 -205.43299865722656C-2.367584228515625 -221.6009979248047 -5.6089630126953125 -236.10899353027344 -11.759796142578125 -253.9759979248047C-41.91270446777344 -341.5270080566406 -57.303192138671875 -422.62298583984375 -57.303192138671875 -493.79901123046875C-57.303192138671875 -497.20001220703125 -57.26800537109375 -500.5780029296875 -57.19769287109375 -503.9330139160156C-57.10009765625 -509.2829895019531 -56.963409423828125 -514.3599853515625 -56.90480041503906 -515.218994140625C-56.84619140625 -516.0789794921875 -56.709503173828125 -518.5390014648438 -56.611907958984375 -520.68701171875C-53.5072021484375 -580.3989868164062 -38.08140563964844 -636.8099975585938 -11.68170166015625 -685.0009765625C-9.084671020507812 -689.7269897460938 -8.752716064453125 -690.5859985351562 -8.752716064453125 -692.7340087890625C-8.752578735351562 -692.7559814453125 -8.75250244140625 -692.7780151367188 -8.75250244140625 -692.7999877929688C-8.75250244140625 -698.4669799804688 -13.247802734375 -701.85302734375 -17.835296630859375 -701.85302734375C-20.888092041015625 -701.85302734375 -23.981796264648438 -700.35302734375 -25.818801879882812 -697.030029296875C-39.35060119628906 -672.6409912109375 -48.50849914550781 -654.9110107421875 -58.017791748046875 -634.6430053710938C-100.95500183105469 -543.2269897460938 -122.30999755859375 -457.5530090332031 -122.30999755859375 -375.2969970703125C-122.30999755859375 -323.6719970703125 -113.89700317382812 -273.3919982910156 -97.12921142578125 -223.88600158691406C-83.60150146484375 -183.93099975585938 -77.15359497070312 -151.15199279785156 -77.15359497070312 -121.23899841308594C-77.15359497070312 -113.0260009765625 -77.63960266113281 -105.02899169921875 -78.59860229492188 -97.15939331054688C-83.08969116210938 -60.25450134277344 -100.17500305175781 -28.699798583984375 -126.08700561523438 -9.427291870117188C-130.24600219726562 -6.3421173095703125 -131.43699645996094 -4.4285430908203125 -131.43699645996094 -0.796630859375C-131.43699645996094 2.8352813720703125 -130.24600219726562 4.748870849609375 -126.08700561523438 7.83404541015625C-120.56100463867188 11.934600830078125 -112.18399047851562 19.881805419921875 -107.8489990234375 25.0758056640625C-87.408203125 49.66819763183594 -77.17579650878906 81.05828857421875 -77.17579650878906 118.80499267578125C-77.17579650878906 148.7030029296875 -83.59519958496094 182.58799743652344 -96.44580078125 220.24200439453125C-113.74299621582031 270.9110107421875 -122.44000244140625 322.22900390625 -122.44000244140625 374.8680114746094C-122.44000244140625 474.47100830078125 -91.29969787597656 578.802001953125 -28.357208251953125 692.4099731445312C-24.100494384765625 700.1229858398438 -22.694595336914062 701.469970703125 -18.535400390625 701.822021484375Z" fill="black" /></g></svg>