<?xml version="1.0" encoding="utf-8" ?>
<svg baseProfile="tiny" height="100%" version="1.2" width="100%" xmlns="http://www.w3.org/2000/svg" xmlns:ev="http://www.w3.org/2001/xml-events" xmlns:xlink="http://www.w3.org/1999/xlink"><defs /><g transform="translate(0, 1000) scale(1, -1)"><path d="M-14.998199462890625 7323.8798828125C-13.26959228515625 7325.4501953125 -11.186904907226562 7326.14990234375 -9.131011962890625 7326.14990234375C-4.4974517822265625 7326.14990234375 0.0 7322.580078125 0.0 7317.27978515625C0.0 7314.06005859375 -1.49981689453125 7310.97998046875 -16.048095703125 7284.740234375C-436.32501220703125 6525.3701171875 -651.6119995117188 5651.56005859375 -651.6119995117188 4720.72021484375C-651.6119995117188 4479.6201171875 -637.1680297851562 4234.68994140625 -608.1019897460938 3986.929931640625C-551.2589721679688 3502.419921875 -440.2720031738281 3022.39990234375 -273.3420104980469 2539.610107421875C-185.74400329589844 2286.25 -147.13699340820312 2064.469970703125 -147.13699340820312 1813.3299560546875C-147.13699340820312 1807.1199951171875 -147.16000366210938 1800.8900146484375 -147.20700073242188 1794.6500244140625C-147.58200073242188 1741.47998046875 -147.8820037841797 1732.1800537109375 -150.35699462890625 1687.7099609375C-186.8769989013672 1036.93994140625 -528.4609832763672 416.614990234375 -1074.4000091552734 9.56402587890625C-1087.219955444336 0.0401763916015625 -1097.790023803711 -7.9838714599609375 -1097.790023803711 -8.208831787109375C-1097.790023803711 -8.433807373046875 -1087.219955444336 -16.457809448242188 -1074.4000091552734 -25.981719970703125C-528.3859710693359 -433.0329895019531 -186.8769989013672 -1053.2800598144531 -150.35699462890625 -1704.1300354003906C-147.8820037841797 -1748.6000061035156 -147.58200073242188 -1757.9000549316406 -147.20700073242188 -1811.0699768066406C-147.16099548339844 -1817.1500549316406 -147.13699340820312 -1823.2200012207031 -147.13699340820312 -1829.2700500488281C-147.13699340820312 -2076.629913330078 -186.072998046875 -2303.820098876953 -269.5929870605469 -2545.149932861328C-378.5539855957031 -2859.820098876953 -458.94500732421875 -3152.730010986328 -520.81201171875 -3460.040069580078C-607.2680053710938 -3889.580108642578 -650.135009765625 -4314.089874267578 -650.135009765625 -4728.089874267578C-650.135009765625 -5653.169952392578 -436.093994140625 -6525.750030517578 -16.048095703125 -7284.660186767578C-1.72479248046875 -7310.450225830078 0.0 -7314.049835205078 0.0 -7317.049835205078C0.0 -7322.500030517578 -4.5498046875 -7326.149932861328 -9.21710205078125 -7326.149932861328C-11.486099243164062 -7326.149932861328 -13.782806396484375 -7325.290069580078 -15.598098754882812 -7323.350128173828C-17.547897338867188 -7321.330108642578 -30.296295166015625 -7298.459991455078 -57.36810302734375 -7248.959991455078C-447.02099609375 -6534.450225830078 -693.4409790039062 -5767.290069580078 -784.85498046875 -4984.230010986328C-792.8790283203125 -4915.240264892578 -796.1790161132812 -4883.299835205078 -801.2780151367188 -4826.379913330078C-816.4869995117188 -4654.290069580078 -824.0960083007812 -4483.279815673828 -824.0960083007812 -4313.279815673828C-824.0960083007812 -3679.419952392578 -718.3109741210938 -3059.590118408203 -506.2640075683594 -2450.290069580078C-437.2720031738281 -2252.090118408203 -392.0530090332031 -2044.4399719238281 -373.0799865722656 -1838.7400207519531C-366.1310119628906 -1763.2900695800781 -362.7030029296875 -1688.5200500488281 -362.7030029296875 -1614.6600646972656C-362.7030029296875 -963.9420471191406 -628.7830200195312 -383.8460388183594 -1097.719970703125 -32.430938720703125C-1123.3599853515625 -13.158233642578125 -1123.3599853515625 -13.158233642578125 -1123.3599853515625 -8.208847045898438C-1123.3599853515625 -3.2594451904296875 -1123.3599853515625 -3.2594451904296875 -1097.719970703125 16.013275146484375C-827.8250122070312 218.26397705078125 -622.2750244140625 497.7549743652344 -496.8900146484375 832.7399597167969C-407.45599365234375 1071.5999450683594 -362.78399658203125 1331.6399841308594 -362.78399658203125 1598.5899353027344C-362.78399658203125 1874.8999938964844 -410.64300537109375 2158.610076904297 -506.2640075683594 2433.870086669922C-577.2050170898438 2638.219940185547 -629.7739868164062 2818.199920654297 -676.4190063476562 3016.550018310547C-775.5540161132812 3437.929901123047 -825.3909912109375 3871.159881591797 -825.3909912109375 4308.680145263672C-825.3909912109375 4476.160125732422 -818.0889892578125 4644.269989013672 -803.4530029296875 4812.589813232422C-799.3289794921875 4860.129852294922 -793.0289916992188 4924.019989013672 -790.780029296875 4940.819793701172C-790.1799926757812 4945.390106201172 -788.4550170898438 4959.720184326172 -787.030029296875 4972.689910888672C-704.7650146484375 5704.749969482422 -471.6929931640625 6457.660125732422 -116.98599243164062 7137.310028076172C-74.31600952148438 7219.200164794922 -19.122695922851562 7320.060028076172 -14.998199462890625 7323.879852294922Z" fill="black" /></g></svg>