<?xml version="1.0" encoding="utf-8" ?>
<svg baseProfile="tiny" height="100%" version="1.2" width="100%" xmlns="http://www.w3.org/2000/svg" xmlns:ev="http://www.w3.org/2001/xml-events" xmlns:xlink="http://www.w3.org/1999/xlink"><defs /><g transform="translate(0, 1000) scale(1, -1)"><path d="M-18.174606323242188 426.32000732421875C-17.726211547851562 426.3840026855469 -17.282516479492188 426.4150085449219 -16.845809936523438 426.4150085449219C-11.94342041015625 426.4150085449219 -7.916839599609375 422.47698974609375 -7.916839599609375 417.3680114746094C-7.916839599609375 415.2149963378906 -8.140335083007812 414.49700927734375 -9.763702392578125 411.5559997558594C-26.9564208984375 380.47900390625 -35.55680847167969 344.989013671875 -35.55680847167969 304.1579895019531C-35.55680847167969 260.9259948730469 -25.915313720703125 211.70599365234375 -6.6228485107421875 155.39500427246094C-3.199676513671875 145.4080047607422 -1.835113525390625 140.14999389648438 -0.5058441162109375 131.8090057373047L-1.52587890625e-05 128.63299560546875V113.57598876953125V98.51869201660156L-0.5058441162109375 95.40138244628906C-5.51708984375 64.45167541503906 -20.891921997070312 38.195587158203125 -48.81842041015625 12.892379760742188C-50.24180603027344 11.598388671875 -51.75932312011719 10.245590209960938 -52.18281555175781 9.8927001953125L-61.93470764160156 1.811187744140625C-63.45222473144531 0.5995635986328125 -64.69911193847656 -0.4356231689453125 -64.69911193847656 -0.470916748046875C-64.69911193847656 -0.506195068359375 -63.45222473144531 -1.5413970947265625 -61.93470764160156 -2.753021240234375L-52.18281555175781 -10.834503173828125C-51.75932312011719 -11.187393188476562 -50.24180603027344 -12.540206909179688 -48.81842041015625 -13.834197998046875C-20.891921997070312 -39.13740539550781 -5.51708984375 -65.39349365234375 -0.5058441162109375 -96.34320068359375L-1.52587890625e-05 -99.46051025390625V-114.51800537109375V-129.57501220703125L-0.5058441162109375 -132.7510223388672C-1.7410125732421875 -140.4560089111328 -3.2584991455078125 -146.4910125732422 -5.8817596435546875 -154.1610107421875C-25.642410278320312 -211.73802185058594 -35.51042175292969 -261.4290008544922 -35.51042175292969 -304.8830108642578C-35.51042175292969 -345.4230194091797 -26.921615600585938 -380.5340118408203 -9.763702392578125 -411.55702209472656C-8.140335083007812 -414.4980010986328 -7.916839599609375 -415.2160186767578 -7.916839599609375 -417.36802673339844C-7.916839599609375 -422.76600646972656 -12.2567138671875 -426.41502380371094 -16.906814575195312 -426.41502380371094C-18.864715576171875 -426.41502380371094 -20.877609252929688 -425.7680206298828 -22.64471435546875 -424.33201599121094C-23.762222290039062 -423.42701721191406 -24.326919555664062 -422.60301208496094 -26.397216796875 -418.8620147705078C-63.62861633300781 -351.8340301513672 -82.9442138671875 -293.5580291748047 -85.99101257324219 -239.093017578125C-86.35560607910156 -232.5170135498047 -86.41450500488281 -230.6940155029297 -86.48501586914062 -224.38902282714844C-86.49522399902344 -223.41201782226562 -86.50032043457031 -222.4350128173828 -86.50032043457031 -221.46002197265625C-86.50032043457031 -198.75901794433594 -83.74720764160156 -176.3690185546875 -78.34471130371094 -154.9840087890625C-75.82731628417969 -145.0670166015625 -74.75691223144531 -141.4910125732422 -70.42791748046875 -128.69300842285156C-64.34620666503906 -110.74201965332031 -60.640716552734375 -94.63751220703125 -59.18202209472656 -79.87431335449219C-58.64091491699219 -74.35731506347656 -58.58210754394531 -73.31031799316406 -58.58210754394531 -67.34620666503906C-58.58210754394531 -61.358612060546875 -58.629119873046875 -60.53521728515625 -59.170318603515625 -55.571014404296875C-61.35832214355469 -35.92601013183594 -70.16911315917969 -19.316009521484375 -84.05001831054688 -8.705352783203125C-86.21452331542969 -7.0467071533203125 -86.30860900878906 -6.9761199951171875 -86.90852355957031 -6.2232666015625C-88.2672119140625 -4.546966552734375 -88.94651794433594 -2.508941650390625 -88.94651794433594 -0.4709320068359375C-88.94651794433594 1.5670928955078125 -88.2672119140625 3.6051177978515625 -86.90852355957031 5.2814178466796875C-86.30860900878906 6.034271240234375 -86.21452331542969 6.1048583984375 -84.05001831054688 7.7635040283203125C-69.0869140625 19.209381103515625 -60.78190612792969 36.00758361816406 -58.735015869140625 58.93458557128906C-58.635009765625 60.07568359375 -58.58500671386719 63.21357727050781 -58.58500671386719 66.38679504394531C-58.58500671386719 69.55998229980469 -58.635009765625 72.76847839355469 -58.735015869140625 74.05067443847656C-60.181915283203125 92.28408813476562 -63.89921569824219 108.87098693847656 -71.53370666503906 131.0559844970703C-81.61500549316406 160.40599060058594 -86.60270690917969 190.26197814941406 -86.60270690917969 221.3289794921875C-86.60270690917969 282.22898864746094 -67.47532653808594 344.9519805908203 -26.338409423828125 418.97898864746094C-23.327011108398438 424.38999938964844 -21.762420654296875 425.80198669433594 -18.17462158203125 426.3199920654297Z" fill="black" /></g></svg>