<?xml version="1.0" encoding="utf-8" ?>
<svg baseProfile="tiny" height="100%" version="1.2" width="100%" xmlns="http://www.w3.org/2000/svg" xmlns:ev="http://www.w3.org/2001/xml-events" xmlns:xlink="http://www.w3.org/1999/xlink"><defs /><g transform="translate(0, 1000) scale(1, -1)"><path d="M-11.580703735351562 1965.31005859375C-10.700714111328125 1965.5999755859375 -9.815322875976562 1965.739990234375 -8.947402954101562 1965.739990234375C-4.2316131591796875 1965.739990234375 -0.03106689453125 1961.699951171875 -1.52587890625e-05 1956.449951171875V1953.68994140625L-5.367584228515625 1943.949951171875C-105.62600708007812 1762.52001953125 -156.8350067138672 1551.22998046875 -156.8350067138672 1320.47998046875C-156.8350067138672 1291.300048828125 -156.01600646972656 1261.800048828125 -154.3730010986328 1232.010009765625C-144.8509979248047 1058.699951171875 -107.64599609375 875.0670166015625 -46.02880859375 696.9080200195312C-39.66850280761719 678.416015625 -36.4700927734375 668.56298828125 -33.41859436035156 657.93798828125C-18.796005249023438 606.9910278320312 -11.65570068359375 555.531982421875 -11.65570068359375 504.4580078125C-11.65570068359375 316.8169860839844 -108.031005859375 134.36700439453125 -283.8190002441406 1.5505218505859375C-286.42999267578125 -0.43475341796875 -288.5989990234375 -2.199432373046875 -288.5989990234375 -2.34649658203125C-288.5989990234375 -2.4935455322265625 -286.42999267578125 -4.2582244873046875 -283.8190002441406 -6.2434844970703125C-108.031005859375 -139.05999755859375 -11.65570068359375 -321.510009765625 -11.65570068359375 -509.1510009765625C-11.65570068359375 -560.2249755859375 -18.796005249023438 -611.6840209960938 -33.41859436035156 -662.6309814453125C-36.4700927734375 -673.2930297851562 -39.631805419921875 -683.072021484375 -46.249298095703125 -702.1530151367188C-107.53500366210938 -879.5029907226562 -144.593994140625 -1062.8499755859375 -154.0050048828125 -1235.4200439453125C-155.61399841308594 -1264.8299560546875 -156.41700744628906 -1293.949951171875 -156.41700744628906 -1322.77001953125C-156.41700744628906 -1552.7099609375 -105.33599853515625 -1763.31005859375 -5.3675689697265625 -1944.22998046875L0.0 -1953.969970703125V-1956.72998046875C-0.0367584228515625 -1962.3199462890625 -3.4190673828125 -1965.739990234375 -9.007217407226562 -1965.739990234375C-14.44830322265625 -1965.739990234375 -14.852706909179688 -1965.300048828125 -23.235000610351562 -1950.1099853515625C-176.96800231933594 -1672.1800537109375 -256.36199951171875 -1385.72998046875 -256.36199951171875 -1109.0899658203125C-256.36199951171875 -1105.4300537109375 -256.3479919433594 -1101.760009765625 -256.32000732421875 -1098.0999755859375C-256.0989990234375 -1070.1300048828125 -255.87899780273438 -1062.6600341796875 -254.5919952392578 -1036.3399658203125C-248.1580047607422 -907.5170288085938 -224.55599975585938 -782.6290283203125 -183.71099853515625 -661.5280151367188C-162.38699340820312 -598.2940063476562 -155.1820068359375 -572.22802734375 -146.68899536132812 -528.0009765625C-138.00599670410156 -482.6050109863281 -133.75799560546875 -438.22100830078125 -133.75799560546875 -395.46099853515625C-133.75799560546875 -234.17999267578125 -194.1840057373047 -95.9801025390625 -304.9590148925781 -13.596298217773438C-313.1570129394531 -7.49346923828125 -313.5979919433594 -6.9420166015625 -313.5979919433594 -2.34649658203125C-313.5979919433594 2.2490386962890625 -313.1570129394531 2.800506591796875 -304.9590148925781 8.903350830078125C-195.0240020751953 90.66799926757812 -133.71800231933594 228.875 -133.71800231933594 390.18798828125C-133.71800231933594 410.3500061035156 -134.67599487304688 430.87298583984375 -136.61599731445312 451.6910095214844C-142.90199279785156 519.0800170898438 -154.96099853515625 572.2410278320312 -181.98300170898438 651.5040283203125C-226.72500610351562 782.9000244140625 -249.9600067138672 909.7360229492188 -256.06298828125 1056.6500244140625C-256.57501220703125 1068.6500244140625 -256.82000732421875 1083.56005859375 -256.82000732421875 1099.6800537109375C-256.82000732421875 1129.81005859375 -255.96499633789062 1164.18994140625 -254.4080047607422 1191.75C-240.29100036621094 1441.050048828125 -161.2480010986328 1700.280029296875 -23.235000610351562 1949.8299560546875C-15.6614990234375 1963.5799560546875 -15.22039794921875 1964.1300048828125 -11.580703735351562 1965.31005859375Z" fill="black" /></g></svg>