<?xml version="1.0" encoding="utf-8" ?>
<svg baseProfile="tiny" height="100%" version="1.2" width="100%" xmlns="http://www.w3.org/2000/svg" xmlns:ev="http://www.w3.org/2001/xml-events" xmlns:xlink="http://www.w3.org/1999/xlink"><defs /><g transform="translate(0, 1000) scale(1, -1)"><path d="M-14.434295654296875 4819.16015625C-13.0343017578125 4820.06005859375 -11.359100341796875 4820.47998046875 -9.6572265625 4820.47998046875C-6.450347900390625 4820.47998046875 -3.1489105224609375 4818.990234375 -1.4165191650390625 4816.39013671875C-0.5411376953125 4815.06005859375 -0.0142822265625 4813.93017578125 -0.0142822265625 4812.43994140625C-0.0142822265625 4809.2099609375 -2.4883270263671875 4804.330078125 -9.251296997070312 4792.16015625C-255.14300537109375 4350.10009765625 -393.6969909667969 3837.590087890625 -414.6099853515625 3292.590087890625C-416.53900146484375 3241.9599609375 -416.8399963378906 3227.43994140625 -417.1419982910156 3160.0C-417.1730041503906 3153.43994140625 -417.18798828125 3146.8701171875 -417.18798828125 3140.31005859375C-417.18798828125 2653.719970703125 -331.2359924316406 2163.14990234375 -159.6790008544922 1669.8900146484375C-106.3800048828125 1516.5799560546875 -79.99139404296875 1359.5899658203125 -79.99139404296875 1203.4200439453125C-79.99139404296875 940.0260009765625 -155.06100463867188 678.9749755859375 -302.6940002441406 441.93701171875C-406.4739990234375 275.3580017089844 -550.7550048828125 119.92800903320312 -712.4520263671875 0.4776458740234375C-716.489990234375 -2.4754486083984375 -719.8049926757812 -5.06695556640625 -719.8049926757812 -5.2477569580078125C-719.8049926757812 -5.428558349609375 -716.489990234375 -7.9597930908203125 -712.4520263671875 -10.97320556640625C-550.7550048828125 -130.42300415039062 -406.41400146484375 -285.8529968261719 -302.6940002441406 -452.4320068359375C-155.07200622558594 -689.4509887695312 -79.97979736328125 -950.573974609375 -79.97979736328125 -1213.9599609375C-79.97979736328125 -1370.1600341796875 -106.38800048828125 -1527.1500244140625 -159.73899841308594 -1680.3800048828125C-331.36700439453125 -2173.530029296875 -416.6610107421875 -2667.590087890625 -416.6610107421875 -3140.72998046875C-416.6610107421875 -3738.219970703125 -280.6419982910156 -4302.35009765625 -10.69769287109375 -4789.16015625C-3.2311553955078125 -4802.58984375 0.0 -4808.990234375 0.0 -4812.89990234375C0.0 -4815.580078125 -1.5248870849609375 -4817.080078125 -4.24908447265625 -4818.8701171875C-5.8836669921875 -4819.93994140625 -7.4772186279296875 -4820.47998046875 -9.041748046875 -4820.47998046875C-12.841903686523438 -4820.47998046875 -16.470703125 -4817.2998046875 -20.099395751953125 -4810.85986328125C-229.9510040283203 -4439.31005859375 -388.8160095214844 -4021.110107421875 -476.6260070800781 -3609.239990234375C-533.43798828125 -3342.7099609375 -561.7230224609375 -3074.4599609375 -561.7230224609375 -2808.840087890625C-561.7230224609375 -2406.10009765625 -496.6940002441406 -2009.4100341796875 -367.4809875488281 -1633.97998046875C-338.4320068359375 -1549.5999755859375 -325.41400146484375 -1506.81005859375 -310.95001220703125 -1448.469970703125C-276.5780029296875 -1310.030029296875 -259.8689880371094 -1172.8699951171875 -259.8689880371094 -1040.25C-259.8689880371094 -621.510986328125 -426.4429931640625 -247.96002197265625 -729.6279907226562 -21.761016845703125C-744.635009765625 -10.551315307617188 -745.177001953125 -10.0089111328125 -745.177001953125 -5.247772216796875C-745.177001953125 -0.4866485595703125 -744.635009765625 0.0557708740234375 -729.6279907226562 11.265487670898438C-424.8800048828125 238.62799072265625 -259.7550048828125 613.9869995117188 -259.7550048828125 1030.47998046875C-259.7550048828125 1210.47998046875 -290.5979919433594 1398.1700439453125 -354.3429870605469 1584.9100341796875C-378.510009765625 1655.5999755859375 -389.7799987792969 1689.8399658203125 -401.2909851074219 1727.1400146484375C-508.8900146484375 2076.280029296875 -563.0440063476562 2438.139892578125 -563.0440063476562 2804.590087890625C-563.0440063476562 2960.510009765625 -553.239990234375 3117.25 -533.5780029296875 3274.2099609375C-524.0560302734375 3350.199951171875 -510.19500732421875 3439.280029296875 -496.5740051269531 3511.659912109375C-414.0679931640625 3950.2900390625 -257.1310119628906 4382.47021484375 -33.298004150390625 4787.52001953125C-17.568206787109375 4816.02978515625 -16.423095703125 4817.89990234375 -14.434295654296875 4819.16015625Z" fill="black" /></g></svg>