<?xml version="1.0" encoding="utf-8" ?>
<svg baseProfile="tiny" height="100%" version="1.2" width="100%" xmlns="http://www.w3.org/2000/svg" xmlns:ev="http://www.w3.org/2001/xml-events" xmlns:xlink="http://www.w3.org/1999/xlink"><defs /><g transform="translate(0, 1000) scale(1, -1)"><path d="M-14.546905517578125 335.6319885253906C-14.423797607421875 335.65399169921875 -14.1885986328125 335.66400146484375 -13.895294189453125 335.66400146484375C-12.982101440429688 335.66400146484375 -11.5054931640625 335.5679931640625 -11.09429931640625 335.4570007324219C-6.877532958984375 334.31500244140625 -4.2812042236328125 330.9729919433594 -4.2812042236328125 326.66400146484375C-4.2812042236328125 324.427001953125 -4.4469146728515625 323.9209899902344 -6.26068115234375 320.5780029296875C-19.399200439453125 296.4570007324219 -25.939102172851562 269.02801513671875 -25.939102172851562 237.94900512695312C-25.939102172851562 229.60800170898438 -25.468002319335938 221.00399780273438 -24.527099609375 212.13099670410156C-21.69140625 185.29299926757812 -14.4364013671875 154.45899963378906 -3.58148193359375 123.05400085449219C-1.9242401123046875 118.24800109863281 -1.224517822265625 116.02899169921875 -0.543212890625 113.38699340820312L0.0 111.26898193359375V88.96098327636719V66.65269470214844L-0.3682708740234375 65.17039489746094C-6.24224853515625 41.81248474121094 -21.083786010742188 20.94049072265625 -46.20008850097656 0.7406005859375C-46.91828918457031 0.1605682373046875 -47.50749206542969 -0.33660888671875 -47.50749206542969 -0.364227294921875C-47.50749206542969 -0.391845703125 -46.91828918457031 -0.8890228271484375 -46.20008850097656 -1.46905517578125C-21.083786010742188 -21.668914794921875 -6.24224853515625 -42.54090881347656 -0.368255615234375 -65.89881896972656L1.52587890625e-05 -67.38111877441406V-89.68940734863281V-111.99800109863281L-0.5431976318359375 -114.11500549316406C-1.2245025634765625 -116.75801086425781 -1.924224853515625 -118.97601318359375 -3.5722503662109375 -123.75502014160156C-16.415878295898438 -160.94100952148438 -24.057586669921875 -196.6090087890625 -25.595077514648438 -226.62301635742188C-25.79168701171875 -230.46900939941406 -25.889785766601562 -234.27401733398438 -25.889785766601562 -238.0360107421875C-25.889785766601562 -268.97401428222656 -19.255386352539062 -296.9540252685547 -6.2606658935546875 -320.5800018310547C-4.474517822265625 -323.81101989746094 -4.28118896484375 -324.4190216064453 -4.28118896484375 -326.65602111816406C-4.28118896484375 -328.59901428222656 -4.603424072265625 -329.8140106201172 -5.5056915283203125 -331.33302307128906C-7.2336578369140625 -334.21302795410156 -10.257278442382812 -335.6640167236328 -13.277984619140625 -335.6640167236328C-16.1962890625 -335.6640167236328 -19.111785888671875 -334.3100128173828 -20.853591918945312 -331.58201599121094C-21.498092651367188 -330.57801818847656 -25.21759033203125 -323.80201721191406 -27.777191162109375 -318.96800231933594C-45.45439147949219 -285.6490020751953 -57.34968566894531 -255.0170135498047 -63.79447937011719 -226.20901489257812C-67.77229309082031 -208.42800903320312 -69.76008605957031 -190.7860107421875 -69.76008605957031 -173.47901916503906C-69.76008605957031 -155.25502014160156 -67.55589294433594 -137.40101623535156 -63.14997863769531 -120.14601135253906C-61.28099060058594 -112.82600402832031 -60.31428527832031 -109.64100646972656 -57.14707946777344 -100.30500793457031C-50.958984375 -82.10171508789062 -47.85148620605469 -66.06411743164062 -47.85148620605469 -52.494720458984375C-47.85148620605469 -46.33930969238281 -48.49098205566406 -40.69181823730469 -49.77238464355469 -35.58052062988281C-52.69099426269531 -23.943008422851562 -58.85038757324219 -14.404708862304688 -67.62448120117188 -7.9138641357421875C-70.39578247070312 -5.8607330322265625 -71.58348083496094 -3.5958404541015625 -71.58348083496094 -0.364227294921875C-71.58348083496094 2.867401123046875 -70.39578247070312 5.1322784423828125 -67.62448120117188 7.1854095458984375C-58.85038757324219 13.676284790039062 -52.69099426269531 23.214584350585938 -49.77238464355469 34.852081298828125C-48.49098205566406 39.96339416503906 -47.85148620605469 45.6099853515625 -47.85148620605469 51.76448059082031C-47.85148620605469 65.33168029785156 -50.958984375 81.36698913574219 -57.14707946777344 99.57649230957031C-58.95167541503906 104.906982421875 -59.93678283691406 107.89997863769531 -60.627288818359375 110.22898864746094C-66.76548767089844 130.73098754882812 -69.83457946777344 151.6859893798828 -69.83457946777344 173.13198852539062C-69.83457946777344 198.87498474121094 -65.41209411621094 225.32598876953125 -56.56709289550781 252.54898071289062C-49.873687744140625 273.1449737548828 -40.261688232421875 295.36997985839844 -28.191482543945312 318.19398498535156C-25.55828857421875 323.18397521972656 -21.534881591796875 330.52198791503906 -20.853591918945312 331.58998107910156C-19.490982055664062 333.73497009277344 -17.318084716796875 335.12498474121094 -14.546890258789062 335.63197326660156Z" fill="black" /></g></svg>