<?xml version="1.0" encoding="utf-8" ?>
<svg baseProfile="tiny" height="100%" version="1.2" width="100%" xmlns="http://www.w3.org/2000/svg" xmlns:ev="http://www.w3.org/2001/xml-events" xmlns:xlink="http://www.w3.org/1999/xlink"><defs /><g transform="translate(0, 1000) scale(1, -1)"><path d="M-11.101898193359375 1486.760009765625C-10.27630615234375 1486.949951171875 -9.405364990234375 1487.0799560546875 -8.976791381835938 1487.0799560546875L-8.769149780273438 1487.06005859375C-8.502532958984375 1487.0 -7.6694183349609375 1486.8599853515625 -6.936279296875 1486.72998046875C-3.90374755859375 1486.22998046875 -0.7379302978515625 1482.9599609375 -0.1714019775390625 1479.6600341796875C-0.0652008056640625 1479.050048828125 1.52587890625e-05 1478.5 1.52587890625e-05 1477.949951171875C1.52587890625e-05 1475.739990234375 -1.054107666015625 1473.530029296875 -4.7368621826171875 1466.800048828125C-69.21978759765625 1349.800048828125 -106.24298095703125 1213.969970703125 -113.40797424316406 1068.3399658203125C-114.27497863769531 1050.6400146484375 -114.44099426269531 1043.97998046875 -114.64097595214844 1020.52001953125C-114.66697692871094 1017.219970703125 -114.67898559570312 1013.9199829101562 -114.67898559570312 1010.6199951171875C-114.67898559570312 854.6090087890625 -86.08229064941406 698.6380004882812 -24.631576538085938 518.9849853515625C-9.882049560546875 475.86199951171875 -2.4979400634765625 430.5979919433594 -2.4979400634765625 385.1889953613281C-2.4979400634765625 343.1860046386719 -8.815628051757812 301.0589904785156 -21.465789794921875 260.3869934082031C-48.49198913574219 173.61000061035156 -103.510986328125 93.59759521484375 -183.22299194335938 25.282394409179688C-192.32098388671875 17.517791748046875 -211.64898681640625 1.955230712890625 -216.2139892578125 -1.243927001953125C-216.53099060058594 -1.477203369140625 -216.68898010253906 -1.5938262939453125 -216.68898010253906 -1.7104644775390625C-216.68898010253906 -1.8271026611328125 -216.53099060058594 -1.9437408447265625 -216.2139892578125 -2.1770172119140625C-205.98397827148438 -9.341781616210938 -179.1239776611328 -31.802505493164062 -163.39498901367188 -46.36529541015625C-58.25077819824219 -143.65699768066406 -2.2773895263671875 -265.677001953125 -2.2773895263671875 -388.9989929199219C-2.2773895263671875 -433.6679992675781 -9.62103271484375 -478.50799560546875 -24.631576538085938 -522.406005859375C-48.89178466796875 -593.35400390625 -63.62129211425781 -644.0399780273438 -77.55088806152344 -704.5910034179688C-102.19697570800781 -811.677001953125 -114.46897888183594 -914.5689697265625 -114.46897888183594 -1012.22998046875C-114.46897888183594 -1181.3199462890625 -77.68269348144531 -1334.72998046875 -4.63690185546875 -1467.0899658203125C-1.8043212890625 -1472.219970703125 -0.3713531494140625 -1475.18994140625 -0.1714019775390625 -1476.3199462890625C-0.0618743896484375 -1476.9200439453125 -0.009765625 -1477.510009765625 -0.009765625 -1478.0799560546875C-0.009765625 -1483.3699951171875 -4.51165771484375 -1487.0799560546875 -9.233352661132812 -1487.0799560546875C-11.57598876953125 -1487.0799560546875 -13.972686767578125 -1486.1700439453125 -15.900588989257812 -1484.0799560546875C-19.366287231445312 -1480.3499755859375 -52.62419128417969 -1416.8699951171875 -68.05339050292969 -1384.510009765625C-158.364990234375 -1195.1400146484375 -203.73898315429688 -1008.530029296875 -203.73898315429688 -828.052001953125C-203.73898315429688 -738.3499755859375 -192.5299835205078 -650.1599731445312 -170.0599822998047 -563.89501953125C-163.427978515625 -538.4349975585938 -158.56298828125 -522.239013671875 -147.56597900390625 -489.4150085449219C-133.76898193359375 -448.15899658203125 -129.17098999023438 -431.8630065917969 -122.90599060058594 -402.10400390625C-114.68598937988281 -362.99700927734375 -110.65397644042969 -325.1180114746094 -110.65397644042969 -289.02398681640625C-110.65397644042969 -171.61000061035156 -153.31797790527344 -73.07710266113281 -233.27598571777344 -12.5408935546875C-239.5699920654297 -7.771942138671875 -241.5269775390625 -5.540557861328125 -241.5269775390625 -2.1615142822265625C-241.5269775390625 -1.4793243408203125 -241.44699096679688 -0.7503509521484375 -241.3079833984375 0.05572509765625C-240.8079833984375 2.9549560546875 -239.54098510742188 4.354583740234375 -233.27598571777344 9.1199951171875C-153.31797790527344 69.65609741210938 -110.65397644042969 168.18899536132812 -110.65397644042969 285.6029968261719C-110.65397644042969 321.6969909667969 -114.68598937988281 359.57598876953125 -122.90599060058594 398.6830139160156C-129.17098999023438 428.47601318359375 -134.4359893798828 447.1369934082031 -147.56597900390625 485.9939880371094C-159.22898864746094 520.551025390625 -165.09397888183594 540.3460083007812 -173.19198608398438 572.8040161132812C-193.79298400878906 655.18701171875 -204.03797912597656 739.7139892578125 -204.03797912597656 825.72998046875C-204.03797912597656 1035.1199951171875 -143.32798767089844 1253.3299560546875 -23.498580932617188 1470.9000244140625C-15.467391967773438 1485.5 -15.134078979492188 1485.9000244140625 -11.101882934570312 1486.760009765625Z" fill="black" /></g></svg>