<?xml version="1.0" encoding="utf-8" ?>
<svg baseProfile="tiny" height="100%" version="1.2" width="100%" xmlns="http://www.w3.org/2000/svg" xmlns:ev="http://www.w3.org/2001/xml-events" xmlns:xlink="http://www.w3.org/1999/xlink"><defs /><g transform="translate(0, 1000) scale(1, -1)"><path d="M-19.631698608398438 725.3790283203125C-18.976791381835938 725.5079956054688 -18.330490112304688 725.5689697265625 -17.698989868164062 725.5689697265625C-12.659988403320312 725.5689697265625 -8.564712524414062 721.6530151367188 -8.564712524414062 716.5679931640625C-8.564712524414062 716.2780151367188 -8.578079223632812 715.9840087890625 -8.605392456054688 715.6859741210938C-8.766952514648438 713.8079833984375 -8.968902587890625 713.3839721679688 -11.957687377929688 707.9310302734375C-43.38578796386719 650.656005859375 -59.102386474609375 584.083984375 -59.102386474609375 509.1340026855469C-59.102386474609375 434.64300537109375 -43.57768249511719 351.8760070800781 -12.523178100585938 261.73199462890625C-4.1758270263671875 237.4969940185547 1.52587890625e-05 214.08900451660156 1.52587890625e-05 191.02099609375C1.52587890625e-05 165.5919952392578 -5.0744476318359375 140.5760040283203 -15.22918701171875 115.32099914550781C-31.627182006835938 74.56869506835938 -65.75608825683594 32.765899658203125 -109.13398742675781 0.313201904296875C-109.95198059082031 -0.292633056640625 -110.36097717285156 -0.5450592041015625 -110.36097717285156 -0.7975006103515625C-110.36097717285156 -1.0499267578125 -109.95198059082031 -1.3023529052734375 -109.13398742675781 -1.908203125C-71.02688598632812 -30.422897338867188 -38.91748046875 -67.41940307617188 -21.610687255859375 -102.77999877929688C-7.2177581787109375 -132.197998046875 -0.0250091552734375 -162.0070037841797 -0.0250091552734375 -192.4770050048828C-0.0250091552734375 -215.5749969482422 -4.158477783203125 -239.052001953125 -12.42218017578125 -263.02398681640625C-43.44187927246094 -353.0400085449219 -58.95167541503906 -435.625 -58.95167541503906 -509.9169921875C-58.95167541503906 -584.97998046875 -43.11878967285156 -651.5770263671875 -11.452789306640625 -708.8189697265625C-8.989089965820312 -713.281982421875 -8.766952514648438 -713.8070068359375 -8.605392456054688 -715.6649780273438C-8.578933715820312 -715.9559936523438 -8.566009521484375 -716.2420043945312 -8.566009521484375 -716.5250244140625C-8.566009521484375 -721.68798828125 -12.864288330078125 -725.5689697265625 -17.647781372070312 -725.5689697265625C-19.005889892578125 -725.5689697265625 -20.403091430664062 -725.2559814453125 -21.752090454101562 -724.5709838867188C-23.912887573242188 -723.4810180664062 -24.761093139648438 -722.4099731445312 -27.93157958984375 -716.6950073242188C-92.74838256835938 -600.0969848632812 -124.98898315429688 -491.3970031738281 -124.98898315429688 -388.281005859375C-124.98898315429688 -334.1990051269531 -116.11997985839844 -281.65301513671875 -98.43089294433594 -230.3090057373047C-85.15338134765625 -191.7519989013672 -78.53898620605469 -156.38900756835938 -78.53898620605469 -125.10501098632812C-78.53898620605469 -85.58689880371094 -89.09318542480469 -52.576690673828125 -110.10298156738281 -27.858200073242188C-115.81797790527344 -21.133392333984375 -122.84599304199219 -14.449005126953125 -129.3889923095703 -9.541748046875C-133.2059783935547 -6.6741180419921875 -134.3369903564453 -5.1393280029296875 -134.8009796142578 -2.2313079833984375C-134.89498901367188 -1.6190338134765625 -134.94398498535156 -1.040985107421875 -134.94398498535156 -0.4888916015625C-134.94398498535156 2.6554718017578125 -133.3569793701172 4.95770263671875 -129.3889923095703 7.9467620849609375C-120.98799133300781 14.24749755859375 -112.76898193359375 22.507003784179688 -106.36698913574219 31.009002685546875C-87.77949523925781 55.756195068359375 -78.46458435058594 87.03439331054688 -78.46458435058594 123.89801025390625C-78.46458435058594 154.95899963378906 -85.07798767089844 189.98500061035156 -98.32987976074219 228.41099548339844C-116.18698120117188 280.1709899902344 -125.13998413085938 333.0989990234375 -125.13998413085938 387.54998779296875C-125.13998413085938 490.989013671875 -92.8306884765625 599.9290161132812 -27.870986938476562 716.8170166015625C-24.296585083007812 723.2589721679688 -22.84259033203125 724.7529907226562 -19.631683349609375 725.3790283203125Z" fill="black" /></g></svg>