<?xml version="1.0" encoding="utf-8" ?>
<svg baseProfile="tiny" height="100%" version="1.2" width="100%" xmlns="http://www.w3.org/2000/svg" xmlns:ev="http://www.w3.org/2001/xml-events" xmlns:xlink="http://www.w3.org/1999/xlink"><defs /><g transform="translate(0, 1000) scale(1, -1)"><path d="M-15.281906127929688 1059.510009765625C-14.722518920898438 1059.5999755859375 -14.170913696289062 1059.6400146484375 -13.631011962890625 1059.6400146484375C-8.657989501953125 1059.6400146484375 -4.66986083984375 1055.8399658203125 -4.6223602294921875 1050.68994140625C-4.621337890625 1050.5899658203125 -4.620758056640625 1050.5 -4.620758056640625 1050.4100341796875C-4.620758056640625 1048.1800537109375 -4.9754486083984375 1047.3199462890625 -7.8333892822265625 1042.1300048828125C-57.63092041015625 952.2329711914062 -82.68121337890625 847.7509765625 -82.68121337890625 731.3330078125C-82.68121337890625 672.9400024414062 -76.37910461425781 611.5449829101562 -63.73670959472656 547.47998046875C-52.12962341308594 488.6029968261719 -38.022216796875 437.25299072265625 -15.518814086914062 371.7690124511719C-5.1547393798828125 341.6210021972656 -1.52587890625e-05 309.8429870605469 -1.52587890625e-05 277.9079895019531C-1.52587890625e-05 238.63800048828125 -7.7949066162109375 199.1320037841797 -23.283111572265625 162.1320037841797C-47.78691101074219 103.57000732421875 -92.24110412597656 48.53520202636719 -152.14501953125 2.501800537109375C-154.69801330566406 0.55413818359375 -156.77700805664062 -1.10400390625 -156.77700805664062 -1.1829681396484375C-156.77700805664062 -1.261932373046875 -154.69801330566406 -2.920074462890625 -152.14501953125 -4.8677520751953125C-92.24110412597656 -50.901092529296875 -47.78691101074219 -105.93600463867188 -23.283111572265625 -164.4969940185547C-7.7949066162109375 -201.4980010986328 -1.52587890625e-05 -241.02000427246094 -1.52587890625e-05 -280.2959899902344C-1.52587890625e-05 -312.2349853515625 -5.1547393798828125 -344.010986328125 -15.518814086914062 -374.135009765625C-59.709716796875 -502.57598876953125 -80.92350769042969 -613.4349975585938 -82.47642517089844 -724.3200073242188C-82.52540588378906 -727.7919921875 -82.54991149902344 -731.2589721679688 -82.54991149902344 -734.719970703125C-82.54991149902344 -846.4910278320312 -57.046112060546875 -952.7520141601562 -9.280975341796875 -1039.5C-4.938201904296875 -1047.4000244140625 -4.9645233154296875 -1047.3399658203125 -4.6750030517578125 -1049.050048828125C-4.5912628173828125 -1049.5699462890625 -4.5510711669921875 -1050.0799560546875 -4.5510711669921875 -1050.5799560546875C-4.5510711669921875 -1055.719970703125 -8.812118530273438 -1059.6400146484375 -13.65692138671875 -1059.6400146484375C-14.995819091796875 -1059.6400146484375 -16.37921142578125 -1059.3399658203125 -17.7296142578125 -1058.68994140625C-20.28271484375 -1057.47998046875 -20.5985107421875 -1056.97998046875 -28.231216430664062 -1043.050048828125C-115.97201538085938 -883.0770263671875 -159.90602111816406 -728.3560180664062 -159.90602111816406 -579.572998046875C-159.90602111816406 -577.593994140625 -159.89901733398438 -575.6160278320312 -159.8830108642578 -573.6389770507812C-159.7510223388672 -556.031005859375 -159.64601135253906 -552.5040283203125 -158.77801513671875 -536.9229736328125C-155.17201232910156 -472.22900390625 -142.5380096435547 -407.37701416015625 -121.614013671875 -346.28900146484375C-110.56001281738281 -313.9410095214844 -105.24301147460938 -294.43798828125 -100.19001770019531 -267.6709899902344C-95.49641418457031 -242.8090057373047 -93.18571472167969 -218.86900329589844 -93.18571472167969 -196.09800720214844C-93.18571472167969 -116.7080078125 -121.27401733398438 -51.53590393066406 -174.41201782226562 -11.079193115234375C-180.36001586914062 -6.5258941650390625 -181.36001586914062 -5.1309356689453125 -181.36001586914062 -1.1829681396484375C-181.3600311279297 2.7650146484375 -180.3600311279297 4.1599578857421875 -174.4120330810547 8.713302612304688C-121.27403259277344 49.170013427734375 -93.18572998046875 114.34202575683594 -93.18572998046875 193.7320098876953C-93.18572998046875 216.50302124023438 -95.49642944335938 240.44300842285156 -100.19003295898438 265.3050079345703C-105.24302673339844 292.07301330566406 -110.56002807617188 311.5760040283203 -121.61402893066406 343.9230194091797C-144.2750244140625 410.0910186767578 -156.09303283691406 473.89002990722656 -159.72503662109375 549.5590362548828C-160.05703735351562 556.6530303955078 -160.21803283691406 565.2920074462891 -160.21803283691406 574.6179962158203C-160.21803283691406 592.6630401611328 -159.61602783203125 613.2769927978516 -158.488037109375 630.2299957275391C-149.64503479003906 764.6980133056641 -103.26902770996094 909.1670074462891 -22.888336181640625 1052.770034790039C-20.36163330078125 1057.300064086914 -18.466629028320312 1058.949966430664 -15.281936645507812 1059.510025024414Z" fill="black" /></g></svg>