<?xml version="1.0" encoding="utf-8" ?>
<svg baseProfile="tiny" height="100%" version="1.2" width="100%" xmlns="http://www.w3.org/2000/svg" xmlns:ev="http://www.w3.org/2001/xml-events" xmlns:xlink="http://www.w3.org/1999/xlink"><defs /><g transform="translate(0, 1000) scale(1, -1)"><path d="M-12.346206665039062 3213.679931640625C-11.239608764648438 3214.02001953125 -10.153121948242188 3214.179931640625 -9.112747192382812 3214.179931640625C-4.1295318603515625 3214.179931640625 -0.2058563232421875 3210.47998046875 -0.2058563232421875 3205.06005859375C-0.2058563232421875 3201.969970703125 -0.3022003173828125 3201.780029296875 -5.3125 3192.77001953125C-161.16201782226562 2913.449951171875 -250.62501525878906 2587.780029296875 -266.61900329589844 2241.530029296875C-268.34400939941406 2203.77001953125 -269.30101013183594 2152.56005859375 -269.30101013183594 2107.31005859375C-269.30101013183594 2081.7900390625 -268.9970245361328 2058.159912109375 -268.35401916503906 2039.9200439453125C-257.2730255126953 1726.199951171875 -201.05201721191406 1433.2900390625 -90.34321594238281 1113.010009765625C-76.70941162109375 1073.5999755859375 -65.86981201171875 1033.7099609375 -57.776214599609375 993.2940063476562C-45.73371887207031 933.1119995117188 -39.79560852050781 872.6209716796875 -39.79560852050781 812.4210205078125C-39.79560852050781 585.0689697265625 -124.49000549316406 361.8559875488281 -284.92601013183594 175.0240020751953C-339.70201110839844 111.23899841308594 -411.48500061035156 44.514892578125 -474.35401916503906 -1.0596160888671875C-476.16102600097656 -2.3603668212890625 -477.0640106201172 -2.914398193359375 -477.0640106201172 -3.468414306640625C-477.0640106201172 -4.0224456787109375 -476.16102600097656 -4.57647705078125 -474.35401916503906 -5.877227783203125C-409.6540069580078 -52.75250244140625 -336.1850128173828 -121.45199584960938 -281.0240020751953 -186.53700256347656C-122.81001281738281 -373.2550048828125 -40.19190979003906 -590.5289916992188 -40.19190979003906 -819.8920288085938V-820.2930297851562C-40.2401123046875 -925.3170166015625 -56.28271484375 -1021.1400146484375 -90.29501342773438 -1119.949951171875L-113.66001892089844 -1189.1800537109375C-217.28302001953125 -1507.489990234375 -268.7880096435547 -1821.9200439453125 -268.7880096435547 -2121.1201171875C-268.7880096435547 -2512.840087890625 -180.50302124023438 -2878.449951171875 -5.3125 -3192.47998046875C-1.7490692138671875 -3198.860107421875 -1.52587890625e-05 -3203.1201171875 -1.52587890625e-05 -3206.22998046875C-1.52587890625e-05 -3208.969970703125 -1.3520660400390625 -3210.830078125 -4.011749267578125 -3212.469970703125C-5.83892822265625 -3213.60009765625 -7.5184783935546875 -3214.179931640625 -9.125778198242188 -3214.179931640625C-13.0277099609375 -3214.179931640625 -16.503814697265625 -3210.739990234375 -20.632522583007812 -3203.27001953125C-53.103118896484375 -3144.300048828125 -64.61721801757812 -3122.530029296875 -88.99430847167969 -3073.72998046875C-289.6750030517578 -2672.219970703125 -391.2740020751953 -2255.080078125 -391.2740020751953 -1847.9000244140625C-391.2740020751953 -1602.6099853515625 -354.4020233154297 -1360.93994140625 -280.10902404785156 -1128.47998046875L-256.5020294189453 -1057.800048828125C-226.53701782226562 -969.68701171875 -207.36302185058594 -885.3309936523438 -197.72801208496094 -798.7100219726562C-193.07801818847656 -756.9290161132812 -190.78701782226562 -715.7689819335938 -190.78701782226562 -675.4099731445312C-190.78701782226562 -397.135009765625 -299.69700622558594 -156.91900634765625 -495.2150115966797 -13.488998413085938C-501.33302307128906 -9.0086669921875 -502.2000274658203 -7.7560882568359375 -502.2000274658203 -3.468414306640625C-502.2000274658203 0.819244384765625 -501.33302307128906 2.0718231201171875 -495.2150115966797 6.55218505859375C-325.7790069580078 130.8459930419922 -219.21401977539062 330.3429870605469 -195.5600128173828 567.4180297851562C-192.24900817871094 600.6489868164062 -190.60101318359375 634.3300170898438 -190.60101318359375 668.343994140625C-190.60101318359375 793.2100219726562 -212.8100128173828 922.5880126953125 -256.5020294189453 1050.8599853515625C-273.4600067138672 1100.5799560546875 -282.22801208496094 1127.4599609375 -290.9960174560547 1156.56005859375C-358.6050262451172 1380.449951171875 -392.1320037841797 1611.469970703125 -392.1320037841797 1845.4100341796875C-392.1320037841797 2295.75 -267.88002014160156 2756.889892578125 -23.330307006835938 3198.739990234375C-16.874710083007812 3210.39990234375 -15.044113159179688 3212.860107421875 -12.346221923828125 3213.679931640625Z" fill="black" /></g></svg>