<?xml version="1.0" encoding="utf-8" ?>
<svg baseProfile="tiny" height="100%" version="1.2" width="100%" xmlns="http://www.w3.org/2000/svg" xmlns:ev="http://www.w3.org/2001/xml-events" xmlns:xlink="http://www.w3.org/1999/xlink"><defs /><g transform="translate(0, 1000) scale(1, -1)"><path d="M-11.573699951171875 1526.75C-10.712493896484375 1526.97998046875 -9.856826782226562 1527.0899658203125 -9.0233154296875 1527.0899658203125C-4.7884521484375 1527.0899658203125 -1.1253204345703125 1524.239990234375 -0.2101593017578125 1519.8399658203125C-0.0785064697265625 1519.199951171875 0.0 1518.6300048828125 0.0 1518.0400390625C0.0 1515.8900146484375 -1.0632171630859375 1513.5799560546875 -4.454376220703125 1507.4100341796875C-80.22380065917969 1369.989990234375 -118.29901123046875 1211.8800048828125 -118.29901123046875 1037.260009765625C-118.29901123046875 933.7429809570312 -104.91799926757812 824.427978515625 -78.07778930664062 710.1859741210938C-64.55789184570312 652.6840209960938 -50.3876953125 604.4229736328125 -25.572799682617188 531.552978515625C-10.510604858398438 487.2770080566406 -3.1132659912109375 441.6159973144531 -3.1132659912109375 395.9519958496094C-3.1132659912109375 295.72100830078125 -38.75410461425781 195.4759979248047 -107.20500183105469 109.83499145507812C-139.34500122070312 69.6177978515625 -182.02699279785156 28.270904541015625 -220.39599609375 0.2042999267578125C-221.78199768066406 -0.8225250244140625 -222.47500610351562 -1.267486572265625 -222.47500610351562 -1.712432861328125C-222.47500610351562 -2.1573944091796875 -221.78199768066406 -2.60235595703125 -220.39599609375 -3.629180908203125C-177.61199951171875 -34.94740295410156 -130.75399780273438 -81.53109741210938 -97.51910400390625 -125.78700256347656C-35.32879638671875 -208.61500549316406 -3.1342315673828125 -303.9859924316406 -3.1342315673828125 -399.3080139160156C-3.1342315673828125 -445.0050048828125 -10.533004760742188 -490.69000244140625 -25.572799682617188 -534.97802734375C-53.46820068359375 -617.0549926757812 -68.08340454101562 -668.02001953125 -82.83551025390625 -734.7639770507812C-106.28298950195312 -840.7050170898438 -117.97000122070312 -942.2930297851562 -117.97000122070312 -1038.8199462890625C-117.97000122070312 -1212.8399658203125 -79.9888916015625 -1370.4200439453125 -4.454376220703125 -1507.4200439453125C-1.0632171630859375 -1513.5799560546875 0.0 -1515.8900146484375 0.0 -1518.050048828125C0.0 -1518.6300048828125 -0.0785064697265625 -1519.199951171875 -0.2101593017578125 -1519.8399658203125C-1.1587371826171875 -1524.4200439453125 -5.274871826171875 -1527.0899658203125 -9.3765869140625 -1527.0899658203125C-11.93499755859375 -1527.0899658203125 -14.487899780273438 -1526.050048828125 -16.262893676757812 -1523.780029296875C-18.932601928710938 -1520.3900146484375 -41.45440673828125 -1478.1199951171875 -54.94000244140625 -1451.25C-156.76199340820312 -1248.4300537109375 -208.2169952392578 -1045.6600341796875 -208.2169952392578 -850.635986328125C-208.2169952392578 -762.7780151367188 -197.7740020751953 -676.4920043945312 -176.7899932861328 -592.47998046875C-168.3699951171875 -558.697021484375 -163.3040008544922 -541.5490112304688 -150.63999938964844 -503.65899658203125C-134.82699584960938 -456.42498779296875 -128.80299377441406 -434.14300537109375 -122.2659912109375 -398.75201416015625C-115.80599975585938 -363.84600830078125 -112.63200378417969 -329.9880065917969 -112.63200378417969 -297.54400634765625C-112.63200378417969 -176.29800415039062 -156.96099853515625 -74.80400085449219 -239.80299377441406 -12.18609619140625C-245.21099853515625 -8.09588623046875 -247.9149932861328 -4.9041595458984375 -247.9149932861328 -1.712432861328125C-247.9149932861328 1.479278564453125 -245.21099853515625 4.6710052490234375 -239.80299377441406 8.761184692382812C-156.96099853515625 71.37908935546875 -112.63200378417969 172.8730010986328 -112.63200378417969 294.1189880371094C-112.63200378417969 326.56298828125 -115.80599975585938 360.4209899902344 -122.2659912109375 395.3269958496094C-128.83700561523438 430.8210144042969 -134.79299926757812 452.864013671875 -150.81100463867188 500.74798583984375C-162.14100646972656 534.5989990234375 -167.34300231933594 552.02099609375 -174.56500244140625 579.9849853515625C-197.25900268554688 668.0360107421875 -208.56100463867188 758.1380004882812 -208.56100463867188 849.72900390625C-208.56100463867188 1064.260009765625 -146.55999755859375 1286.9599609375 -23.724502563476562 1510.6300048828125C-15.646804809570312 1525.3499755859375 -15.373001098632812 1525.72998046875 -11.573699951171875 1526.75Z" fill="black" /></g></svg>