<?xml version="1.0" encoding="utf-8" ?>
<svg baseProfile="tiny" height="100%" version="1.2" width="100%" xmlns="http://www.w3.org/2000/svg" xmlns:ev="http://www.w3.org/2001/xml-events" xmlns:xlink="http://www.w3.org/1999/xlink"><defs /><g transform="translate(0, 1000) scale(1, -1)"><path d="M-11.360702514648438 2721.800048828125C-10.55181884765625 2722.0 -9.751068115234375 2722.10009765625 -8.971527099609375 2722.10009765625C-4.06658935546875 2722.10009765625 -1.52587890625e-05 2718.260009765625 -1.52587890625e-05 2713.06005859375V2710.1298828125L-6.379486083984375 2698.550048828125C-151.2310333251953 2435.9599609375 -224.58302307128906 2134.8701171875 -224.58302307128906 1806.47998046875C-224.58302307128906 1705.1500244140625 -217.59803771972656 1601.219970703125 -203.5750274658203 1495.02001953125C-180.59103393554688 1321.1099853515625 -137.4640350341797 1139.2099609375 -78.51992797851562 967.6209716796875C-68.29533386230469 937.864013671875 -65.10552978515625 928.2949829101562 -62.00323486328125 918.2449951171875C-39.299224853515625 844.031005859375 -28.115234375 768.0189819335938 -28.115234375 692.1530151367188C-28.115234375 526.81298828125 -81.23542785644531 362.1669921875 -184.00003051757812 218.33900451660156C-241.02203369140625 138.552001953125 -314.29803466796875 63.65879821777344 -393.2110290527344 4.4958038330078125C-398.5860290527344 0.4321746826171875 -402.9990234375 -2.9323272705078125 -402.9990234375 -3.06341552734375C-402.9990234375 -3.1945037841796875 -398.5860290527344 -6.55902099609375 -393.2110290527344 -10.622604370117188C-314.2540283203125 -69.78570556640625 -241.02203369140625 -144.6790008544922 -184.00003051757812 -224.46600341796875C-81.23542785644531 -368.29400634765625 -28.115234375 -532.9199829101562 -28.115234375 -698.260986328125C-28.115234375 -774.1270141601562 -39.299224853515625 -850.14501953125 -62.00323486328125 -924.3720092773438C-65.06182861328125 -934.3779907226562 -67.68353271484375 -942.2429809570312 -78.30142211914062 -973.0919799804688C-174.2560272216797 -1252.8299560546875 -223.6310272216797 -1536.5400390625 -223.67503356933594 -1808.3199462890625C-223.675048828125 -1853.760009765625 -223.45603942871094 -1866.739990234375 -222.14505004882812 -1898.3299560546875C-209.91104125976562 -2192.22998046875 -137.42105102539062 -2460.949951171875 -6.3795166015625 -2698.56005859375L-4.57763671875e-05 -2710.139892578125V-2713.070068359375C-4.57763671875e-05 -2718.719970703125 -4.292572021484375 -2722.10009765625 -8.824569702148438 -2722.10009765625C-11.693740844726562 -2722.10009765625 -14.658843994140625 -2720.739990234375 -16.691543579101562 -2717.75C-23.639053344726562 -2707.429931640625 -65.58624267578125 -2628.169921875 -85.51115417480469 -2587.6201171875C-253.53504943847656 -2245.75 -338.43003845214844 -1896.3800048828125 -338.43003845214844 -1555.8699951171875C-338.43003845214844 -1364.550048828125 -311.62904357910156 -1176.02001953125 -257.7130584716797 -993.1920166015625C-249.19204711914062 -964.39697265625 -239.75404357910156 -935.208984375 -225.64105224609375 -894.0040283203125C-187.13604736328125 -781.5789794921875 -168.43405151367188 -670.0469970703125 -168.43405151367188 -564.4559936523438C-168.43405151367188 -337.1809997558594 -255.07704162597656 -137.43299865722656 -417.37403869628906 -15.560195922851562C-426.8560333251953 -8.437896728515625 -427.6870574951172 -7.43292236328125 -427.6870574951172 -3.06341552734375C-427.6870574951172 1.26239013671875 -426.8130340576172 2.311065673828125 -417.76805114746094 9.127471923828125C-255.1770477294922 131.13800048828125 -168.4270477294922 330.802001953125 -168.4270477294922 558.1810302734375C-168.4270477294922 663.77001953125 -187.13404846191406 775.3359985351562 -225.64105224609375 887.8770141601562C-259.15504455566406 985.8410034179688 -279.0360565185547 1057.1500244140625 -297.51905822753906 1145.719970703125C-325.2150421142578 1278.52001953125 -338.9330596923828 1414.3399658203125 -338.9330596923828 1551.6800537109375C-338.9330596923828 1933.93994140625 -232.67803955078125 2328.0 -25.823745727539062 2701.659912109375C-15.599151611328125 2720.139892578125 -15.074844360351562 2720.8798828125 -11.360748291015625 2721.800048828125Z" fill="black" /></g></svg>