<?xml version="1.0" encoding="utf-8" ?>
<svg baseProfile="tiny" height="100%" version="1.2" width="100%" xmlns="http://www.w3.org/2000/svg" xmlns:ev="http://www.w3.org/2001/xml-events" xmlns:xlink="http://www.w3.org/1999/xlink"><defs /><g transform="translate(0, 1000) scale(1, -1)"><path d="M-18.079299926757812 845.2249755859375C-17.524215698242188 845.3170166015625 -16.979110717773438 845.3610229492188 -16.446823120117188 845.3610229492188C-11.30511474609375 845.3610229492188 -7.365478515625 841.2420043945312 -7.365478515625 836.2329711914062C-7.365478515625 835.2420043945312 -7.5197296142578125 834.2160034179688 -7.849456787109375 833.1799926757812C-7.9201812744140625 832.9450073242188 -9.240142822265625 830.4219970703125 -10.795822143554688 827.6170043945312C-48.66632080078125 758.8189697265625 -67.61271667480469 678.4829711914062 -67.61271667480469 588.739013671875C-67.61271667480469 503.5929870605469 -50.55790710449219 409.9779968261719 -16.4293212890625 309.7149963378906C-9.900131225585938 290.52899169921875 -9.4287109375 288.9960021972656 -6.7887725830078125 278.4840087890625C-5.0445098876953125 271.5069885253906 -3.9838104248046875 266.2030029296875 -2.8995513916015625 259.156005859375C-0.9946746826171875 246.68099975585938 -0.047088623046875 234.322998046875 -0.047088623046875 222.1009979248047C-0.047088623046875 140.86000061035156 -41.91590881347656 65.65550231933594 -122.80500793457031 2.63238525390625C-125.23301696777344 0.7467041015625 -127.2130126953125 -0.87969970703125 -127.2130126953125 -0.950408935546875C-127.2130126953125 -1.0211334228515625 -125.23301696777344 -2.6475372314453125 -122.80500793457031 -4.533203125C-71.114013671875 -44.81610107421875 -34.79112243652344 -90.56739807128906 -16.311416625976562 -138.72300720214844C-5.4415435791015625 -167.05499267578125 -1.52587890625e-05 -195.68600463867188 -1.52587890625e-05 -224.48500061035156C-1.52587890625e-05 -246.14500427246094 -3.0782012939453125 -267.9010009765625 -9.240142822265625 -289.69500732421875C-10.418716430664062 -293.8909912109375 -11.220108032226562 -296.3190002441406 -16.311416625976562 -311.26300048828125C-50.40081787109375 -411.4530029296875 -67.43731689453125 -504.8299865722656 -67.43731689453125 -589.7150268554688C-67.43731689453125 -679.0910034179688 -48.55052185058594 -759.0499877929688 -10.795822143554688 -827.6329956054688C-9.240142822265625 -830.43798828125 -7.9201812744140625 -832.9600219726562 -7.849456787109375 -833.1950073242188C-7.5226593017578125 -834.2219848632812 -7.3698577880859375 -835.2410278320312 -7.3698577880859375 -836.2269897460938C-7.3698577880859375 -841.2230224609375 -11.297515869140625 -845.3610229492188 -16.3939208984375 -845.3610229492188C-16.890518188476562 -845.3610229492188 -17.398117065429688 -845.322021484375 -17.914321899414062 -845.239990234375C-21.756317138671875 -844.6270141601562 -22.958511352539062 -843.3779907226562 -27.34271240234375 -835.4819946289062C-101.17001342773438 -702.2230224609375 -138.0390167236328 -576.0800170898438 -138.0390167236328 -456.50299072265625C-138.0390167236328 -429.4410095214844 -136.15101623535156 -402.7149963378906 -132.37501525878906 -376.3190002441406C-127.04801940917969 -339.02899169921875 -120.14201354980469 -310.27301025390625 -107.17802429199219 -271.5459899902344C-93.81291198730469 -231.54600524902344 -87.82591247558594 -204.83999633789062 -85.16230773925781 -172.9010009765625C-84.52371215820312 -165.30099487304688 -84.20750427246094 -157.83900451660156 -84.20750427246094 -150.531005859375C-84.20750427246094 -90.13569641113281 -105.80302429199219 -40.27369689941406 -145.48101806640625 -10.331695556640625C-150.19100952148438 -6.7935638427734375 -151.86801147460938 -4.5964202880859375 -151.86801147460938 -1.379669189453125C-151.86801147460938 -0.7818603515625 -151.8100128173828 -0.148834228515625 -151.70301818847656 0.5345611572265625C-151.2080078125 3.6223602294921875 -150.218017578125 4.871612548828125 -145.48101806640625 8.43084716796875C-105.80302429199219 38.372894287109375 -84.20750427246094 88.23489379882812 -84.20750427246094 148.6300048828125C-84.20750427246094 155.93800354003906 -84.52371215820312 163.39999389648438 -85.16230773925781 171.0C-87.82591247558594 202.7270050048828 -93.86001586914062 229.85699462890625 -106.9420166015625 268.93798828125C-127.49601745605469 330.2929992675781 -136.50001525878906 381.1830139160156 -138.05601501464844 444.42401123046875C-138.15101623535156 448.2349853515625 -138.19801330566406 452.10699462890625 -138.19801330566406 456.031005859375C-138.19801330566406 515.3510131835938 -127.46601867675781 586.6489868164062 -109.91201782226562 642.56201171875L-106.25802612304688 654.322998046875C-88.06163024902344 713.0390014648438 -61.80352783203125 773.2630004882812 -27.342727661132812 835.4669799804688C-23.005630493164062 843.2689819335938 -21.732833862304688 844.6119995117188 -18.079330444335938 845.2249755859375Z" fill="black" /></g></svg>