<?xml version="1.0" encoding="utf-8" ?>
<svg baseProfile="tiny" height="100%" version="1.2" width="100%" xmlns="http://www.w3.org/2000/svg" xmlns:ev="http://www.w3.org/2001/xml-events" xmlns:xlink="http://www.w3.org/1999/xlink"><defs /><g transform="translate(0, 1000) scale(1, -1)"><path d="M-19.48370361328125 513.4910278320312C-19.017791748046875 513.552001953125 -18.56280517578125 513.5809936523438 -18.119705200195312 513.5809936523438C-12.91900634765625 513.5809936523438 -9.36474609375 509.5679931640625 -9.36474609375 504.7040100097656C-9.36474609375 502.9360046386719 -9.834564208984375 501.05499267578125 -10.86590576171875 499.2139892578125C-32.47050476074219 460.5979919433594 -43.272796630859375 415.8840026855469 -43.272796630859375 364.8179931640625C-43.272796630859375 312.489990234375 -31.930099487304688 253.4929962158203 -9.244766235351562 187.552001953125C-6.1446533203125 178.56500244140625 -5.7891387939453125 177.38499450683594 -4.21063232421875 171.156005859375C-1.3990631103515625 160.0540008544922 0.0 148.48699951171875 0.0 136.875C0.0 122.17401123046875 -2.2421875 107.40200805664062 -6.6992645263671875 93.41119384765625C-17.393203735351562 59.87879943847656 -40.06109619140625 30.100601196289062 -76.67939758300781 1.5027008056640625C-78.10150146484375 0.3934783935546875 -79.26760864257812 -0.5450897216796875 -79.26760864257812 -0.5877532958984375C-79.26760864257812 -0.6304168701171875 -78.10150146484375 -1.5689849853515625 -76.67939758300781 -2.6782073974609375C-40.06109619140625 -31.276092529296875 -17.393203735351562 -61.054290771484375 -6.6992645263671875 -94.58670043945312C-2.2401123046875 -108.58099365234375 -0.013031005859375 -123.33399963378906 -0.013031005859375 -138.0330047607422C-0.013031005859375 -153.4770050048828 -2.471221923828125 -168.86300659179688 -7.381866455078125 -183.2530059814453C-22.811294555664062 -228.5030059814453 -31.44329833984375 -261.39599609375 -37.45869445800781 -297.9570007324219C-41.30839538574219 -321.32501220703125 -43.22900390625 -343.7309875488281 -43.22900390625 -365.11199951171875C-43.22900390625 -415.8420104980469 -32.4176025390625 -460.8089904785156 -10.908599853515625 -499.19500732421875C-9.7886962890625 -501.1910095214844 -9.232009887695312 -503.02398681640625 -9.232009887695312 -504.7720031738281C-9.232009887695312 -506.2869873046875 -9.65008544921875 -507.7380065917969 -10.48199462890625 -509.1780090332031C-12.174606323242188 -512.0800170898438 -15.265701293945312 -513.5809936523438 -18.34649658203125 -513.5809936523438C-20.985992431640625 -513.5809936523438 -23.617996215820312 -512.47998046875 -25.356903076171875 -510.21600341796875C-26.2528076171875 -509.04998779296875 -32.82269287109375 -497.07598876953125 -38.255096435546875 -486.7229919433594C-79.18730163574219 -408.68499755859375 -99.48719787597656 -337.02899169921875 -99.48719787597656 -269.1990051269531C-99.48719787597656 -231.9029998779297 -93.34989929199219 -195.76400756835938 -81.1304931640625 -160.35800170898438C-70.98870849609375 -130.9600067138672 -65.92179870605469 -105.26800537109375 -65.92179870605469 -83.23570251464844C-65.92179870605469 -71.7489013671875 -67.29910278320312 -61.25709533691406 -70.05259704589844 -51.75390625C-75.2716064453125 -33.736297607421875 -84.87060546875 -19.31640625 -98.60780334472656 -8.849990844726562C-102.36199951171875 -5.9774169921875 -103.5 -4.0860443115234375 -103.5 -0.5877532958984375C-103.5 2.910552978515625 -102.36199951171875 4.8018951416015625 -98.60780334472656 7.6744842529296875C-84.87060546875 18.140899658203125 -75.2716064453125 32.560791015625 -70.05259704589844 50.578399658203125C-67.29910278320312 60.08160400390625 -65.92179870605469 70.57339477539062 -65.92179870605469 82.06021118164062C-65.92179870605469 104.09201049804688 -70.98870849609375 129.78500366210938 -81.1304931640625 159.1820068359375C-93.45278930664062 194.88600158691406 -99.4945068359375 230.80799865722656 -99.4945068359375 268.7969970703125C-99.4945068359375 275.3070068359375 -99.31700134277344 281.87799072265625 -98.96330261230469 288.5199890136719C-95.57879638671875 352.4419860839844 -74.16239929199219 420.17498779296875 -33.37730407714844 495.8580017089844C-29.28179931640625 503.46600341796875 -25.968292236328125 509.39599609375 -25.356903076171875 510.1780090332031C-24.005905151367188 511.95599365234375 -21.80169677734375 513.1929931640625 -19.48370361328125 513.4910278320312Z" fill="black" /></g></svg>