<?xml version="1.0" encoding="utf-8" ?>
<svg baseProfile="tiny" height="100%" version="1.2" width="100%" xmlns="http://www.w3.org/2000/svg" xmlns:ev="http://www.w3.org/2001/xml-events" xmlns:xlink="http://www.w3.org/1999/xlink"><defs /><g transform="translate(0, 1000) scale(1, -1)"><path d="M-14.712905883789062 344.6260070800781C-14.2711181640625 344.6820068359375 -13.788421630859375 344.7250061035156 -13.542709350585938 344.7250061035156L-13.43560791015625 344.72100830078125C-13.25579833984375 344.6919860839844 -12.830093383789062 344.65399169921875 -12.489395141601562 344.6260070800781C-9.215682983398438 344.3139953613281 -6.102783203125 341.7590026855469 -5.06201171875 338.5140075683594C-4.74932861328125 337.552001953125 -4.58868408203125 336.6499938964844 -4.58868408203125 335.7439880371094C-4.58868408203125 334.0719909667969 -5.13525390625 332.3900146484375 -6.282562255859375 330.30999755859375C-19.979202270507812 305.43701171875 -26.835494995117188 277.2619934082031 -26.835494995117188 244.81300354003906C-26.835494995117188 210.01400756835938 -18.950302124023438 170.2989959716797 -3.16021728515625 124.47100830078125C-1.86395263671875 120.69599914550781 -1.182708740234375 118.45401000976562 -0.42578125 115.44500732421875L0.0 113.72300720214844V91.412109375V69.10140991210938L-0.5771636962890625 66.87789916992188C-0.8894195556640625 65.65740966796875 -1.3341217041015625 64.0205078125 -1.580108642578125 63.235198974609375C-1.8166656494140625 62.45930480957031 -2.0532073974609375 61.66450500488281 -2.1005096435546875 61.48480224609375C-2.2897491455078125 60.8319091796875 -4.1631622314453125 55.73210144042969 -4.759246826171875 54.24659729003906C-12.413711547851562 35.34210205078125 -26.549514770507812 17.781204223632812 -47.81001281738281 0.797454833984375C-48.57630920410156 0.18243408203125 -49.20082092285156 -0.35687255859375 -49.20082092285156 -0.3947296142578125C-49.20082092285156 -0.4325714111328125 -48.57630920410156 -0.971893310546875 -47.80052185058594 -1.5868988037109375C-27.609207153320312 -17.719100952148438 -14.3629150390625 -33.70939636230469 -6.1027984619140625 -51.923095703125C-4.93902587890625 -54.468292236328125 -2.5735931396484375 -60.618408203125 -2.1005096435546875 -62.274200439453125C-2.0532073974609375 -62.45399475097656 -1.8166656494140625 -63.23930358886719 -1.580108642578125 -64.02459716796875C-1.3341217041015625 -64.80050659179688 -0.8894195556640625 -66.44680786132812 -0.577178955078125 -67.66738891601562L-1.52587890625e-05 -69.89089965820312V-92.20159912109375V-114.51199340820312L-0.4257965087890625 -116.23399353027344C-1.1259613037109375 -118.99699401855469 -1.8355865478515625 -121.39997863769531 -2.7060699462890625 -123.92698669433594C-18.760818481445312 -170.29998779296875 -26.776214599609375 -210.2639923095703 -26.776214599609375 -245.21498107910156C-26.776214599609375 -277.49598693847656 -19.938720703125 -305.5019989013672 -6.2825775146484375 -330.33399963378906C-5.185028076171875 -332.32997131347656 -4.8538665771484375 -333.21897888183594 -4.6835479736328125 -334.6759796142578C-4.638641357421875 -335.0499725341797 -4.616851806640625 -335.4199981689453 -4.616851806640625 -335.7839813232422C-4.616851806640625 -340.7939910888672 -8.752182006835938 -344.72499084472656 -13.605117797851562 -344.72499084472656C-14.487319946289062 -344.72499084472656 -15.393310546875 -344.59498596191406 -16.302520751953125 -344.31797790527344C-18.866622924804688 -343.53297424316406 -20.35211181640625 -342.18898010253906 -22.121414184570312 -339.03797912597656L-26.085906982421875 -331.88499450683594C-56.906005859375 -275.00099182128906 -71.52330017089844 -225.84197998046875 -71.52330017089844 -178.28797912597656C-71.52330017089844 -172.0159912109375 -71.26899719238281 -165.77098083496094 -70.76400756835938 -159.53997802734375C-69.27850341796875 -141.09999084472656 -65.82499694824219 -124.74998474121094 -59.324798583984375 -105.32498168945312C-54.972503662109375 -92.3245849609375 -53.080108642578125 -85.4080810546875 -51.2445068359375 -75.80438232421875C-49.73289489746094 -67.89668273925781 -48.97540283203125 -60.60337829589844 -48.97540283203125 -53.87568664550781C-48.97540283203125 -42.57978820800781 -51.11090087890625 -32.878387451171875 -55.398193359375 -24.540985107421875C-58.94639587402344 -17.662277221679688 -62.948699951171875 -12.931488037109375 -69.72320556640625 -7.632904052734375C-72.1549072265625 -5.731109619140625 -73.37069702148438 -3.0629119873046875 -73.37069702148438 -0.39471435546875C-73.37069702148438 2.27349853515625 -72.1549072265625 4.941680908203125 -69.72320556640625 6.8434906005859375C-62.021392822265625 12.870620727539062 -57.30950927734375 18.878814697265625 -53.80870056152344 27.138809204101562C-50.567901611328125 34.79461669921875 -48.933990478515625 43.30511474609375 -48.933990478515625 53.060516357421875C-48.933990478515625 67.20100402832031 -52.36700439453125 83.95701599121094 -59.315399169921875 104.51701354980469C-67.55160522460938 128.8690185546875 -71.66049194335938 153.02301025390625 -71.66049194335938 177.83001708984375C-71.66049194335938 199.8450164794922 -68.42430114746094 222.37501525878906 -61.964599609375 246.01602172851562C-54.6033935546875 272.9440155029297 -40.486602783203125 306.2680206298828 -23.957000732421875 335.7320098876953L-22.12139892578125 339.0060272216797C-20.06829833984375 342.66700744628906 -18.043502807617188 344.2000274658203 -14.712905883789062 344.6260223388672Z" fill="black" /></g></svg>