<?xml version="1.0" encoding="utf-8" ?>
<svg baseProfile="tiny" height="100%" version="1.2" width="100%" xmlns="http://www.w3.org/2000/svg" xmlns:ev="http://www.w3.org/2001/xml-events" xmlns:xlink="http://www.w3.org/1999/xlink"><defs /><g transform="translate(0, 1000) scale(1, -1)"><path d="M-13.193405151367188 6946.06982421875C-12.300018310546875 6946.47998046875 -11.20941162109375 6946.66015625 -10.056716918945312 6946.66015625C-7.356048583984375 6946.66015625 -4.3145294189453125 6945.6298828125 -2.6700439453125 6943.93994140625C-0.9976806640625 6942.2900390625 -1.52587890625e-05 6940.919921875 -1.52587890625e-05 6938.7900390625C-1.52587890625e-05 6934.85986328125 -3.4095458984375 6928.31982421875 -12.269119262695312 6912.580078125C-352.21702575683594 6306.27978515625 -558.4900054931641 5584.0 -605.1350250244141 4836.7001953125C-612.5640411376953 4717.509765625 -616.2769927978516 4598.0 -616.2769927978516 4478.169921875C-616.2769927978516 3791.85009765625 -494.46202087402344 3095.510009765625 -251.5340118408203 2394.6298828125C-231.12701416015625 2335.610107421875 -217.40402221679688 2290.610107421875 -202.68601989746094 2234.14990234375C-158.36001586914062 2063.8798828125 -136.61801147460938 1891.3499755859375 -136.61801147460938 1719.9200439453125C-136.61801147460938 1214.010009765625 -325.95201110839844 717.6129760742188 -682.9929962158203 316.9700012207031C-785.2410430908203 202.2790069580078 -906.6160430908203 91.35710144042969 -1026.9200592041016 2.690399169921875C-1034.5999908447266 -2.9979248046875 -1040.9300689697266 -7.76190185546875 -1040.9300689697266 -7.9752044677734375C-1040.9300689697266 -8.188507080078125 -1034.5999908447266 -12.952484130859375 -1026.9200592041016 -18.640792846679688C-569.9380035400391 -355.31797790527344 -255.16001892089844 -858.7349700927734 -165.072021484375 -1396.989974975586C-145.92501831054688 -1511.259994506836 -136.3330078125 -1624.540023803711 -136.3330078125 -1737.290023803711C-136.3330078125 -1965.3699798583984 -175.58201599121094 -2191.270004272461 -254.37802124023438 -2418.759994506836C-493.7210235595703 -3109.649887084961 -614.7210235595703 -3805.399887084961 -614.7210235595703 -4486.930160522461C-614.7210235595703 -4624.999984741211 -609.7550201416016 -4762.479965209961 -599.8020172119141 -4899.220199584961C-547.0430450439453 -5622.919906616211 -342.54701232910156 -6323.790023803711 -12.269119262695312 -6912.890121459961C-0.8924407958984375 -6933.080062866211 -0.4658203125 -6934.009750366211 -0.4658203125 -6937.919906616211C-0.464935302734375 -6937.990219116211 -0.4644927978515625 -6938.069808959961 -0.4644927978515625 -6938.140121459961C-0.4644927978515625 -6943.959945678711 -3.2432403564453125 -6946.660140991211 -9.21160888671875 -6946.660140991211C-15.0421142578125 -6946.660140991211 -15.46881103515625 -6946.169906616211 -26.632110595703125 -6926.109848022461C-525.9240417480469 -6029.649887084961 -784.6930236816406 -5052.379867553711 -784.6930236816406 -4086.719955444336C-784.6930236816406 -3836.709945678711 -767.3470153808594 -3587.469955444336 -732.3400573730469 -3340.620101928711C-683.4200134277344 -2995.620101928711 -605.5610046386719 -2673.810043334961 -489.946044921875 -2339.120101928711C-445.4350280761719 -2210.139877319336 -417.9890441894531 -2110.590072631836 -394.38201904296875 -1992.489974975586C-362.98004150390625 -1835.3199310302734 -347.6710205078125 -1679.5899505615234 -347.6710205078125 -1527.6399993896484C-347.6710205078125 -915.4559783935547 -596.2000427246094 -364.9020233154297 -1042.0699768066406 -31.084030151367188C-1065.1500549316406 -13.787826538085938 -1066.2600402832031 -13.178924560546875 -1066.2600402832031 -9.329986572265625C-1066.2600402832031 -8.922576904296875 -1066.2400207519531 -8.4788818359375 -1066.2400207519531 -7.9752349853515625C-1066.2400207519531 -7.471588134765625 -1066.2600402832031 -7.0278778076171875 -1066.2600402832031 -6.6204681396484375C-1066.2600402832031 -2.771575927734375 -1065.1500549316406 -2.1626129150390625 -1042.0699768066406 15.133590698242188C-596.2000427246094 348.9509735107422 -347.6710205078125 899.5059661865234 -347.6710205078125 1511.689926147461C-347.6710205078125 1663.6399993896484 -362.98004150390625 1819.3699798583984 -394.38201904296875 1976.540023803711C-417.91802978515625 2094.639877319336 -445.3640441894531 2193.969955444336 -489.946044921875 2323.169906616211C-664.8620300292969 2829.929916381836 -760.2120056152344 3333.060043334961 -781.8280334472656 3863.639877319336C-784.7740173339844 3935.949935913086 -786.2420349121094 4008.389877319336 -786.2420349121094 4080.929916381836C-786.2420349121094 5021.870101928711 -539.2220153808594 5977.609848022461 -68.79684448242188 6848.939926147461C-28.125350952148438 6924.310043334961 -16.53533935546875 6944.580062866211 -13.193450927734375 6946.069808959961Z" fill="black" /></g></svg>