<?xml version="1.0" encoding="utf-8" ?>
<svg baseProfile="tiny" height="100%" version="1.2" width="100%" xmlns="http://www.w3.org/2000/svg" xmlns:ev="http://www.w3.org/2001/xml-events" xmlns:xlink="http://www.w3.org/1999/xlink"><defs /><g transform="translate(0, 1000) scale(1, -1)"><path d="M-14.190994262695312 5184.4501953125C-12.654083251953125 5185.47998046875 -10.96588134765625 5185.9501953125 -9.306732177734375 5185.9501953125C-4.533172607421875 5185.9501953125 1.52587890625e-05 5182.08984375 1.52587890625e-05 5176.7099609375C1.52587890625e-05 5174.31982421875 -1.4743804931640625 5171.3701171875 -11.61077880859375 5153.06005859375C-302.68096923828125 4627.35986328125 -451.52996826171875 4020.72998046875 -451.52996826171875 3370.6201171875C-451.52996826171875 3201.300048828125 -441.4329833984375 3029.0400390625 -421.1229553222656 2854.47998046875C-380.02496337890625 2501.550048828125 -298.5029602050781 2149.5400390625 -176.43597412109375 1798.1400146484375C-118.32196044921875 1630.8399658203125 -89.36627197265625 1463.6800537109375 -89.36627197265625 1294.6400146484375C-89.36627197265625 1211.5400390625 -96.36346435546875 1127.989990234375 -110.33396911621094 1043.75C-177.35696411132812 639.4559936523438 -415.7789611816406 260.2300109863281 -765.6389465332031 1.290069580078125C-770.6159973144531 -2.395904541015625 -774.6699523925781 -5.5904083251953125 -774.6699523925781 -5.836151123046875C-774.6699523925781 -6.081878662109375 -770.6159973144531 -9.276397705078125 -765.6389465332031 -12.962417602539062C-632.5759582519531 -111.43901062011719 -508.8499755859375 -234.3050079345703 -409.38897705078125 -366.75502014160156C-198.50396728515625 -647.5819854736328 -89.50576782226562 -974.8930206298828 -89.50576782226562 -1305.1700592041016C-89.50576782226562 -1472.1300201416016 -117.35696411132812 -1639.8399810791016 -173.97796630859375 -1802.689956665039C-358.7659606933594 -2334.139907836914 -450.6209716796875 -2865.300064086914 -450.6209716796875 -3374.070083618164C-450.6209716796875 -4017.830093383789 -303.55596923828125 -4625.759780883789 -11.61077880859375 -5153.060073852539C-1.4743804931640625 -5171.370132446289 1.52587890625e-05 -5174.319839477539 1.52587890625e-05 -5176.709976196289C1.52587890625e-05 -5182.089859008789 -4.533172607421875 -5185.950210571289 -9.306732177734375 -5185.950210571289C-10.96588134765625 -5185.950210571289 -12.654083251953125 -5185.479995727539 -14.19097900390625 -5184.450210571289C-16.525482177734375 -5182.859878540039 -17.385482788085938 -5181.500015258789 -33.480987548828125 -5152.390151977539C-380.0859680175781 -4524.970230102539 -573.5379943847656 -3845.709976196289 -597.7429504394531 -3171.479995727539C-599.3399963378906 -3126.260025024414 -599.6469421386719 -3110.169937133789 -600.0159606933594 -3051.070083618164C-600.0599670410156 -3043.290054321289 -600.0819396972656 -3035.520034790039 -600.0819396972656 -3027.750015258789C-600.0819396972656 -2622.870132446289 -540.3729553222656 -2233.540054321289 -419.156982421875 -1847.290054321289C-413.1979675292969 -1828.250015258789 -403.1229553222656 -1798.209976196289 -373.69696044921875 -1710.9100494384766C-367.9839782714844 -1694.010025024414 -360.79595947265625 -1671.9000396728516 -357.6629638671875 -1661.760025024414C-302.0029602050781 -1479.959976196289 -275.0309753417969 -1298.469985961914 -275.0309753417969 -1123.8700103759766C-275.0309753417969 -672.3410186767578 -455.39996337890625 -266.83900451660156 -786.4649963378906 -21.010116577148438C-796.0979919433594 -13.861114501953125 -800.9659729003906 -9.908615112304688 -800.9659729003906 -5.9045257568359375C-800.9659729003906 -1.788330078125 -795.8219909667969 2.3824310302734375 -785.4209899902344 10.136383056640625C-660.9579772949219 102.65498352050781 -556.1529846191406 219.0699920654297 -473.5259704589844 356.6799774169922C-341.9449768066406 575.6790008544922 -275.07696533203125 837.3499603271484 -275.07696533203125 1112.5699310302734C-275.07696533203125 1304.8199310302734 -307.7049560546875 1503.689926147461 -373.69696044921875 1699.239974975586L-398.63897705078125 1773.259994506836C-534.1589660644531 2176.350082397461 -601.2149963378906 2596.909896850586 -601.2149963378906 3021.949935913086C-601.2149963378906 3740.239974975586 -409.7059631347656 4471.299789428711 -33.480987548828125 5152.390121459961C-17.385482788085938 5181.499984741211 -16.525482177734375 5182.859848022461 -14.19097900390625 5184.450180053711Z" fill="black" /></g></svg>