<?xml version="1.0" encoding="utf-8" ?>
<svg baseProfile="tiny" height="100%" version="1.2" width="100%" xmlns="http://www.w3.org/2000/svg" xmlns:ev="http://www.w3.org/2001/xml-events" xmlns:xlink="http://www.w3.org/1999/xlink"><defs /><g transform="translate(0, 1000) scale(1, -1)"><path d="M-13.537994384765625 1234.25C-12.67449951171875 1234.489990234375 -11.817001342773438 1234.6099853515625 -10.982101440429688 1234.6099853515625C-6.116943359375 1234.6099853515625 -2.0198822021484375 1230.699951171875 -1.9936676025390625 1225.4100341796875C-1.9896697998046875 1225.06005859375 -1.9804229736328125 1224.77001953125 -1.9804229736328125 1224.5C-1.9804229736328125 1222.739990234375 -2.3904571533203125 1222.1099853515625 -7.4895172119140625 1212.8499755859375C-43.22779846191406 1147.8199462890625 -69.018310546875 1072.5400390625 -82.83470153808594 992.8629760742188C-90.92279052734375 946.2490234375 -94.960693359375 897.4240112304688 -94.960693359375 846.6749877929688C-94.960693359375 766.426025390625 -84.8638916015625 681.3699951171875 -64.71990966796875 592.6500244140625C-52.807098388671875 540.177978515625 -40.341705322265625 496.9490051269531 -18.7882080078125 433.4549865722656C-6.227447509765625 396.43701171875 0.0 358.7049865722656 0.0 321.1449890136719C0.0 256.2460021972656 -18.593002319335938 191.86199951171875 -55.232696533203125 132.56500244140625C-84.43119812011719 85.31350708007812 -126.58599853515625 39.8424072265625 -176.81700134277344 1.494354248046875C-178.75100708007812 -0.0100860595703125 -180.3470001220703 -1.3303070068359375 -180.3470001220703 -1.453125C-180.3470001220703 -1.5759429931640625 -178.75100708007812 -2.8961639404296875 -176.81700134277344 -4.400604248046875C-126.58599853515625 -42.74870300292969 -84.43119812011719 -88.21980285644531 -55.232696533203125 -135.4720001220703C-18.593002319335938 -194.76800537109375 0.0 -259.1520080566406 0.0 -324.0509948730469C0.0 -361.6109924316406 -6.227447509765625 -399.3429870605469 -18.7882080078125 -436.3609924316406C-44.271697998046875 -511.39898681640625 -58.88629150390625 -564.5150146484375 -71.81230163574219 -628.9609985351562C-87.03269958496094 -704.906982421875 -94.60980224609375 -777.9730224609375 -94.60980224609375 -847.572021484375C-94.60980224609375 -984.2169799804688 -65.40299987792969 -1107.5 -7.4895172119140625 -1212.989990234375C-2.3904571533203125 -1222.260009765625 -1.9804229736328125 -1222.8900146484375 -1.9804229736328125 -1224.6500244140625C-1.9804229736328125 -1224.9100341796875 -1.9896697998046875 -1225.199951171875 -1.9936676025390625 -1225.550048828125C-1.9936676025390625 -1230.9200439453125 -5.6780242919921875 -1234.6099853515625 -11.020401000976562 -1234.6099853515625C-15.93280029296875 -1234.6099853515625 -17.222396850585938 -1233.3800048828125 -22.7489013671875 -1223.4000244140625C-80.59329223632812 -1118.949951171875 -122.3489990234375 -1015.2999877929688 -148.07899475097656 -912.2269897460938C-167.57699584960938 -834.1519775390625 -177.31300354003906 -756.7780151367188 -177.31300354003906 -680.8909912109375C-177.31300354003906 -585.06298828125 -161.78799438476562 -491.6050109863281 -130.79299926757812 -402.09698486328125C-112.70899963378906 -349.8089904785156 -103.71299743652344 -306.79400634765625 -100.30499267578125 -255.9810028076172C-100.05899047851562 -252.2050018310547 -99.93620300292969 -242.86300659179688 -99.93620300292969 -233.57200622558594C-99.93620300292969 -224.27999877929688 -100.05899047851562 -215.03900146484375 -100.30499267578125 -211.46200561523438C-106.5989990234375 -122.85299682617188 -139.69700622558594 -55.42900085449219 -198.64599609375 -11.032501220703125C-203.2830047607422 -7.54766845703125 -205.6009979248047 -4.500396728515625 -205.6009979248047 -1.453125C-205.6009979248047 1.594146728515625 -203.2830047607422 4.64141845703125 -198.64599609375 8.126205444335938C-134.4770050048828 56.45269775390625 -99.93620300292969 134.28500366210938 -99.93620300292969 230.66200256347656C-99.93620300292969 247.54800415039062 -100.08999633789062 251.6929931640625 -101.3179931640625 265.9700012207031C-103.22100830078125 288.4750061035156 -106.44500732421875 309.2919921875 -111.72599792480469 333.0559997558594C-116.91500854492188 356.3290100097656 -121.15200805664062 370.7900085449219 -133.18800354003906 406.2829895019531C-162.64199829101562 493.1409912109375 -177.5850067138672 585.6409912109375 -177.5850067138672 680.0449829101562C-177.5850067138672 707.0750122070312 -176.36000061035156 734.2620239257812 -173.89999389648438 761.5159912109375C-160.38999938964844 910.8560180664062 -109.30099487304688 1066.97998046875 -22.90240478515625 1222.97998046875C-17.652206420898438 1232.43994140625 -16.976699829101562 1233.27001953125 -13.537994384765625 1234.25Z" fill="black" /></g></svg>