<?xml version="1.0" encoding="utf-8" ?>
<svg baseProfile="tiny" height="100%" version="1.2" width="100%" xmlns="http://www.w3.org/2000/svg" xmlns:ev="http://www.w3.org/2001/xml-events" xmlns:xlink="http://www.w3.org/1999/xlink"><defs /><g transform="translate(0, 1000) scale(1, -1)"><path d="M-11.4197998046875 3300.43994140625C-10.610107421875 3300.610107421875 -9.817138671875 3300.68994140625 -9.05029296875 3300.68994140625C-4.7094268798828125 3300.68994140625 -1.2050323486328125 3298.0400390625 -0.2378997802734375 3293.7099609375C-0.0907440185546875 3293.050048828125 0.0 3292.449951171875 0.0 3291.81005859375C0.0 3289.239990234375 -1.4834442138671875 3286.1298828125 -6.7194366455078125 3276.68994140625C-186.05599975585938 2952.97998046875 -277.3030090332031 2579.85009765625 -277.3030090332031 2175.330078125C-277.3030090332031 2065.81005859375 -270.614013671875 1953.97998046875 -257.1730041503906 1840.2099609375C-230.9010009765625 1618.1600341796875 -178.6529998779297 1390.6099853515625 -103.39801025390625 1171.030029296875C-90.08859252929688 1132.1400146484375 -86.77369689941406 1122.25 -83.01339721679688 1109.8800048828125C-55.3634033203125 1019.3800048828125 -41.758209228515625 926.7869873046875 -41.758209228515625 834.4450073242188C-41.758209228515625 625.3930053710938 -111.48699951171875 417.6319885253906 -245.84300231933594 238.38699340820312C-312.5880126953125 149.3280029296875 -397.6889953613281 64.7716064453125 -485.3630065917969 0.4016265869140625C-488.13299560546875 -1.626953125 -490.40899658203125 -3.4081268310546875 -490.40899658203125 -3.5565643310546875C-490.40899658203125 -3.704986572265625 -485.0159912109375 -7.861083984375 -478.4360046386719 -12.808807373046875C-391.5539855957031 -77.87139892578125 -311.2030029296875 -158.3209991455078 -245.84300231933594 -245.5C-111.48699951171875 -424.7449951171875 -41.758209228515625 -632.5059814453125 -41.758209228515625 -841.5579833984375C-41.758209228515625 -933.9000244140625 -55.3634033203125 -1026.489990234375 -83.01339721679688 -1116.989990234375C-86.72419738769531 -1129.2099609375 -90.58340454101562 -1140.7900390625 -102.06199645996094 -1174.18994140625C-217.01199340820312 -1508.5799560546875 -276.59698486328125 -1853.3699951171875 -276.59698486328125 -2179.52001953125C-276.59698486328125 -2234.3701171875 -274.9119873046875 -2288.68994140625 -271.5220031738281 -2342.35009765625C-249.8509979248047 -2685.080078125 -158.81300354003906 -3004.75 -4.0476531982421875 -3281.280029296875C-1.476806640625 -3285.8798828125 -0.1953887939453125 -3289.719970703125 -0.1953887939453125 -3292.72998046875C-0.1953887939453125 -3296.659912109375 -2.3925628662109375 -3299.169921875 -6.7689056396484375 -3300.1298828125C-8.164886474609375 -3300.419921875 -9.279876708984375 -3300.68994140625 -10.304702758789062 -3300.68994140625C-14.837203979492188 -3300.68994140625 -17.606094360351562 -3295.409912109375 -35.11940002441406 -3263.3701171875C-275.8070068359375 -2823.760009765625 -400.5880126953125 -2354.030029296875 -400.5880126953125 -1898.25C-400.5880126953125 -1785.030029296875 -392.8890075683594 -1672.6700439453125 -377.35400390625 -1561.8399658203125C-354.24798583984375 -1397.0799560546875 -320.1080017089844 -1256.4200439453125 -262.6159973144531 -1089.3399658203125C-216.58599853515625 -955.52197265625 -194.26400756835938 -822.0800170898438 -194.26400756835938 -695.1380004882812C-194.26400756835938 -415.1860046386719 -302.8299865722656 -166.85000610351562 -505.10400390625 -15.87640380859375C-514.3560180664062 -8.999053955078125 -515.2960205078125 -7.811614990234375 -515.2960205078125 -3.5565643310546875C-515.2960205078125 0.698486328125 -514.3560180664062 1.8859405517578125 -505.10400390625 8.763275146484375C-303.74798583984375 159.02999877929688 -194.3780059814453 405.7560119628906 -194.3780059814453 687.3189697265625C-194.3780059814453 781.5029907226562 -206.61599731445312 879.5859985351562 -231.74200439453125 979.260009765625C-241.19200134277344 1016.7100219726562 -251.28599548339844 1049.52001953125 -270.2349853515625 1104.43994140625C-357.8840026855469 1358.6199951171875 -401.29901123046875 1624.5 -401.29901123046875 1894.75C-401.29901123046875 2354.949951171875 -275.4169921875 2827.830078125 -27.697799682617188 3277.22998046875C-16.46649169921875 3297.6201171875 -15.031600952148438 3299.64990234375 -11.4197998046875 3300.43994140625Z" fill="black" /></g></svg>