<?xml version="1.0" encoding="utf-8" ?>
<svg baseProfile="tiny" height="100%" version="1.2" width="100%" xmlns="http://www.w3.org/2000/svg" xmlns:ev="http://www.w3.org/2001/xml-events" xmlns:xlink="http://www.w3.org/1999/xlink"><defs /><g transform="translate(0, 1000) scale(1, -1)"><path d="M-14.371795654296875 316.0159912109375C-13.726806640625 316.15301513671875 -13.086593627929688 316.2179870605469 -12.458694458007812 316.2179870605469C-7.599609375 316.2179870605469 -3.4707489013671875 312.302001953125 -3.4630889892578125 307.21099853515625C-3.4630889892578125 305.2799987792969 -3.792083740234375 304.14599609375 -5.0128173828125 301.9469909667969C-17.656707763671875 279.0780029296875 -23.98260498046875 252.9770050048828 -23.98260498046875 223.0229949951172C-23.98260498046875 191.2209930419922 -16.851593017578125 155.07699584960938 -2.5800018310546875 113.85000610351562C-1.54107666015625 110.83700561523438 -0.9783172607421875 109.02700805664062 -0.3896026611328125 106.75L0.0 105.23500061035156V83.46958923339844V61.70408630371094L-0.3549652099609375 60.353485107421875C-5.991119384765625 38.7437744140625 -19.479888916015625 19.6275634765625 -42.23228454589844 1.0048370361328125C-43.09808349609375 0.294891357421875 -43.8079833984375 -0.3111419677734375 -43.8079833984375 -0.3457794189453125C-43.8079833984375 -0.380401611328125 -43.09808349609375 -0.9864501953125 -42.23228454589844 -1.696380615234375C-19.479888916015625 -20.319122314453125 -5.991119384765625 -39.435333251953125 -0.354949951171875 -61.04502868652344L1.52587890625e-05 -62.3956298828125V-84.1611328125V-105.92703247070312L-0.38958740234375 -107.44203186035156C-0.9783172607421875 -109.71900939941406 -1.54107666015625 -111.52801513671875 -2.5800018310546875 -114.541015625C-16.811599731445312 -155.64901733398438 -23.9208984375 -191.6590118408203 -23.9208984375 -223.3360137939453C-23.9208984375 -253.1710205078125 -17.614593505859375 -279.16102600097656 -5.0128173828125 -301.94602966308594C-3.792083740234375 -304.14500427246094 -3.4630889892578125 -305.2790069580078 -3.4630889892578125 -307.2100067138672C-3.4690093994140625 -312.60801696777344 -7.9228057861328125 -316.21800231933594 -12.557601928710938 -316.21800231933594C-14.70159912109375 -316.21800231933594 -16.884307861328125 -315.44602966308594 -18.683395385742188 -313.7200164794922C-19.80889892578125 -312.6380157470703 -20.068603515625 -312.22300720214844 -23.349899291992188 -306.22300720214844C-52.07159423828125 -253.6730194091797 -65.82611083984375 -207.70401000976562 -65.82611083984375 -163.63101196289062C-65.82611083984375 -157.10101318359375 -65.52420043945312 -150.6120147705078 -64.9241943359375 -144.15000915527344C-63.40910339355469 -127.83100891113281 -60.31829833984375 -113.55401611328125 -54.54359436035156 -96.27320861816406C-50.301300048828125 -83.57241821289062 -48.49189758300781 -76.70681762695312 -46.80360412597656 -66.92361450195312C-45.79290771484375 -61.06150817871094 -45.29170227050781 -55.49382019042969 -45.29170227050781 -50.249420166015625C-45.29170227050781 -31.684616088867188 -51.572296142578125 -17.1715087890625 -63.76409912109375 -7.9905242919921875C-66.62109375 -5.843414306640625 -67.87649536132812 -3.505828857421875 -67.87649536132812 -0.34576416015625C-67.87649536132812 2.814300537109375 -66.62109375 5.151885986328125 -63.76409912109375 7.29901123046875C-51.671905517578125 16.402679443359375 -45.272003173828125 31.028091430664062 -45.272003173828125 49.30018615722656C-45.272003173828125 51.619781494140625 -45.375091552734375 53.99818420410156 -45.58290100097656 56.43157958984375C-46.61309814453125 68.50907897949219 -49.03729248046875 79.10609436035156 -54.457000732421875 95.32197570800781C-59.539093017578125 110.52497863769531 -61.997894287109375 120.85398864746094 -64.06710815429688 135.6669921875C-65.27850341796875 144.3839874267578 -65.87969970703125 153.47698974609375 -65.87969970703125 162.76898193359375C-65.87969970703125 179.57498168945312 -63.912994384765625 197.0349884033203 -60.0325927734375 214.10598754882812C-53.262298583984375 243.8879852294922 -40.067901611328125 276.4759979248047 -21.098907470703125 310.29298400878906C-19.064300537109375 313.9209747314453 -17.35009765625 315.37498474121094 -14.371795654296875 316.01597595214844Z" fill="black" /></g></svg>