<?xml version="1.0" encoding="utf-8" ?>
<svg baseProfile="tiny" height="100%" version="1.2" width="100%" xmlns="http://www.w3.org/2000/svg" xmlns:ev="http://www.w3.org/2001/xml-events" xmlns:xlink="http://www.w3.org/1999/xlink"><defs /><g transform="translate(0, 1000) scale(1, -1)"><path d="M-16.697402954101562 393.6050109863281C-16.191207885742188 393.6730041503906 -15.702407836914062 393.7149963378906 -15.545120239257812 393.7149963378906L-15.50482177734375 393.7130126953125C-15.41802978515625 393.6910095214844 -14.995223999023438 393.64801025390625 -14.583236694335938 393.6050109863281C-10.063034057617188 393.1940002441406 -6.6083221435546875 389.2250061035156 -6.6083221435546875 384.72198486328125C-6.6083221435546875 384.35400390625 -6.6314544677734375 383.98199462890625 -6.67901611328125 383.6080017089844C-6.874176025390625 382.0360107421875 -7.1669158935546875 381.2770080566406 -8.424652099609375 378.9779968261719C-24.1605224609375 350.5299987792969 -32.04722595214844 317.49700927734375 -32.04722595214844 280.1789855957031C-32.04722595214844 264.37298583984375 -30.632537841796875 247.7989959716797 -27.80023193359375 230.47900390625C-23.137924194335938 201.9530029296875 -16.177032470703125 175.42100524902344 -4.033447265625 139.94400024414062C-2.84075927734375 136.46400451660156 -1.4095458984375 131.19500732421875 -0.4662628173828125 126.81399536132812L-0.0542449951171875 124.92799377441406L-0.032562255859375 105.13999938964844L-3.0517578125e-05 85.35249328613281L-0.3903656005859375 83.34660339355469C-5.9200439453125 54.76579284667969 -23.8426513671875 27.58367919921875 -52.20664978027344 4.716827392578125C-57.44354248046875 0.4990997314453125 -58.49534606933594 -0.3791351318359375 -58.49534606933594 -0.46588134765625C-58.49534606933594 -0.5526123046875 -57.44354248046875 -1.4308624267578125 -52.20664978027344 -5.648590087890625C-23.8426513671875 -28.515411376953125 -5.9200439453125 -55.697509765625 -0.390380859375 -84.27841186523438L-4.57763671875e-05 -86.28421020507812L-0.0325775146484375 -106.07200622558594L-0.05426025390625 -125.8590087890625L-0.466278076171875 -127.74600219726562C-1.409576416015625 -132.12600708007812 -2.840789794921875 -137.40699768066406 -4.033477783203125 -140.87600708007812C-15.1253662109375 -173.26300048828125 -21.609161376953125 -197.19200134277344 -26.390655517578125 -223.33299255371094C-30.107269287109375 -243.64300537109375 -31.968963623046875 -262.8089904785156 -31.968963623046875 -280.8940124511719C-31.968963623046875 -317.99700927734375 -24.133453369140625 -350.5480041503906 -8.402984619140625 -379.08599853515625C-7.1545867919921875 -381.3489990234375 -6.57440185546875 -383.072998046875 -6.57440185546875 -384.7869873046875C-6.57440185546875 -385.6940002441406 -6.7364959716796875 -386.59698486328125 -7.0476837158203125 -387.57501220703125C-8.2962646484375 -391.5260009765625 -11.942153930664062 -393.7149963378906 -15.642959594726562 -393.7149963378906C-18.208953857421875 -393.7149963378906 -20.80126953125 -392.6629943847656 -22.63916015625 -390.4159851074219C-23.615066528320312 -389.2239990234375 -30.814453125 -375.9849853515625 -36.062164306640625 -365.7170104980469C-66.04635620117188 -307.125 -80.77116394042969 -254.4499969482422 -80.77116394042969 -204.20899963378906C-80.77116394042969 -180.85299682617188 -77.58905029296875 -158.0229949951172 -71.27865600585938 -135.3679962158203C-69.91246032714844 -130.45700073242188 -68.849853515625 -127.10600280761719 -65.98745727539062 -118.7030029296875C-58.596160888671875 -96.94140625 -54.854766845703125 -77.70790100097656 -54.854766845703125 -61.53559875488281C-54.854766845703125 -57.28199768066406 -55.113555908203125 -53.24009704589844 -55.63285827636719 -49.419708251953125C-57.96406555175781 -32.21270751953125 -65.86825561523438 -17.802993774414062 -78.07685852050781 -8.510986328125C-81.3526611328125 -6.0281524658203125 -82.75445556640625 -3.759033203125 -82.75445556640625 -0.7803802490234375C-82.75445556640625 -0.3380126953125 -82.72357177734375 0.1200103759765625 -82.66326904296875 0.5966949462890625C-82.28375244140625 3.62176513671875 -81.29705810546875 5.13970947265625 -78.07685852050781 7.5792694091796875C-65.86825561523438 16.871307373046875 -57.96406555175781 31.281005859375 -55.63285827636719 48.488006591796875C-55.113555908203125 52.30839538574219 -54.854766845703125 56.3511962890625 -54.854766845703125 60.60609436035156C-54.854766845703125 76.78329467773438 -58.596160888671875 96.02679443359375 -65.98745727539062 117.77200317382812C-70.34616088867188 130.57699584960938 -72.59056091308594 138.41600036621094 -74.91085815429688 148.88999938964844C-78.81686401367188 166.5679931640625 -80.76925659179688 184.9459991455078 -80.76925659179688 203.63900756835938C-80.76925659179688 223.0330047607422 -78.66775512695312 242.76699829101562 -74.46636962890625 262.4100036621094C-66.23686218261719 300.9339904785156 -50.61285400390625 340.0639953613281 -24.905258178710938 386.5570068359375C-22.032058715820312 391.760986328125 -20.470657348632812 393.1059875488281 -16.697463989257812 393.6050109863281Z" fill="black" /></g></svg>