<?xml version="1.0" encoding="utf-8" ?>
<svg baseProfile="tiny" height="100%" version="1.2" width="100%" xmlns="http://www.w3.org/2000/svg" xmlns:ev="http://www.w3.org/2001/xml-events" xmlns:xlink="http://www.w3.org/1999/xlink"><defs /><g transform="translate(0, 1000) scale(1, -1)"><path d="M-10.581497192382812 264.2439880371094C-10.333480834960938 264.26300048828125 -10.08758544921875 264.27301025390625 -9.844100952148438 264.27301025390625C-4.79486083984375 264.27301025390625 -0.785064697265625 260.27899169921875 -0.785064697265625 255.2689971923828C-0.785064697265625 255.00399780273438 -0.7962188720703125 254.73699951171875 -0.8189697265625 254.46800231933594C-0.955657958984375 252.86300659179688 -1.243438720703125 252.07899475097656 -2.5887451171875 249.61900329589844C-11.408782958984375 233.47500610351562 -16.897979736328125 215.48899841308594 -18.977081298828125 195.89199829101562C-19.630691528320312 189.73199462890625 -19.957290649414062 183.42599487304688 -19.957290649414062 176.9770050048828C-19.957290649414062 151.33999633789062 -14.794784545898438 123.44200134277344 -4.4880218505859375 93.38949584960938C-1.4778900146484375 84.61900329589844 1.52587890625e-05 75.7764892578125 1.52587890625e-05 67.03750610351562C1.52587890625e-05 42.630401611328125 -11.528289794921875 19.031295776367188 -33.4014892578125 0.066436767578125L-33.79718017578125 -0.2788848876953125L-33.4014892578125 -0.6170196533203125L-30.200088500976562 -3.5090789794921875C-10.390792846679688 -21.923614501953125 -0.0040435791015625 -44.41590881347656 -0.0040435791015625 -67.60090637207031C-0.0040435791015625 -76.34501647949219 -1.4814605712890625 -85.18771362304688 -4.4880218505859375 -93.94731140136719C-14.774978637695312 -123.92501831054688 -19.916488647460938 -151.77902221679688 -19.916488647460938 -177.2130126953125C-19.916488647460938 -204.1800079345703 -14.136581420898438 -228.42701721191406 -2.5815582275390625 -249.60101318359375C-1.2290496826171875 -252.0830078125 -0.9484710693359375 -252.86001586914062 -0.8189697265625 -254.49301147460938C-0.797882080078125 -254.75601196289062 -0.787567138671875 -255.0150146484375 -0.787567138671875 -255.27101135253906C-0.787567138671875 -260.5280303955078 -5.13690185546875 -264.2730255126953 -9.843215942382812 -264.2730255126953C-11.631088256835938 -264.2730255126953 -13.4705810546875 -263.7320098876953 -15.142578125 -262.5290069580078C-16.68218994140625 -261.42100524902344 -17.17138671875 -260.7160186767578 -20.005889892578125 -255.47901916503906C-41.211883544921875 -216.39601135253906 -51.90338134765625 -177.93101501464844 -51.90338134765625 -141.1430206298828C-51.90338134765625 -125.55101013183594 -49.9827880859375 -110.25901794433594 -46.12797546386719 -95.35020446777344C-44.68919372558594 -89.77470397949219 -43.797088623046875 -86.83941650390625 -41.43019104003906 -79.87541198730469C-37.58677673339844 -68.53941345214844 -35.69648742675781 -57.819610595703125 -35.69648742675781 -48.1002197265625C-35.69648742675781 -30.839523315429688 -41.657989501953125 -16.7335205078125 -53.22868347167969 -7.9335174560546875C-56.14228820800781 -5.71771240234375 -57.365386962890625 -3.4515380859375 -57.365386962890625 -0.278900146484375C-57.365386962890625 2.89373779296875 -56.14228820800781 5.159912109375 -53.22868347167969 7.3757171630859375C-41.657989501953125 16.17578125 -35.69648742675781 30.278778076171875 -35.69648742675781 47.5391845703125C-35.69648742675781 57.25859069824219 -37.58677673339844 67.97908020019531 -41.43019104003906 79.31768798828125C-42.710784912109375 83.08738708496094 -43.300689697265625 84.87158203125 -43.782684326171875 86.44708251953125C-49.23558044433594 104.09599304199219 -51.95237731933594 122.28498840332031 -51.95237731933594 140.8879852294922C-51.95237731933594 178.7329864501953 -40.70738220214844 218.28598022460938 -18.379989624023438 258.45997619628906C-16.2432861328125 262.3159942626953 -13.991592407226562 263.98497009277344 -10.58148193359375 264.2439727783203Z" fill="black" /></g></svg>