<?xml version="1.0" encoding="utf-8" ?>
<svg baseProfile="tiny" height="100%" version="1.2" width="100%" xmlns="http://www.w3.org/2000/svg" xmlns:ev="http://www.w3.org/2001/xml-events" xmlns:xlink="http://www.w3.org/1999/xlink"><defs /><g transform="translate(0, 1000) scale(1, -1)"><path d="M-11.70770263671875 3922.919921875C-11.03509521484375 3923.02001953125 -10.378005981445312 3923.070068359375 -9.7406005859375 3923.070068359375C-4.2965240478515625 3923.070068359375 -0.28997802734375 3919.419921875 -0.28997802734375 3914.080078125C-0.28997802734375 3914.050048828125 -0.290130615234375 3914.02001953125 -0.2904205322265625 3913.989990234375C-0.2904205322265625 3911.06005859375 -0.676513671875 3910.179931640625 -8.5638427734375 3896.010009765625C-225.4499969482422 3505.7099609375 -334.6600036621094 3051.919921875 -334.6600036621094 2568.610107421875C-334.6600036621094 2180.72998046875 -264.32000732421875 1773.8299560546875 -122.84700012207031 1365.5C-78.9285888671875 1238.800048828125 -57.102691650390625 1113.75 -57.102691650390625 987.1090087890625C-57.102691650390625 917.489990234375 -63.69889831542969 847.3889770507812 -76.84700012207031 776.2680053710938C-131.7270050048828 479.63800048828125 -313.68701171875 197.01800537109375 -574.4650268554688 3.3655242919921875C-579.9810180664062 -0.7160186767578125 -584.5029907226562 -4.19085693359375 -584.5029907226562 -4.3563232421875C-584.5029907226562 -4.5217742919921875 -579.9810180664062 -7.996612548828125 -574.4650268554688 -12.078201293945312C-483.34698486328125 -79.75469970703125 -396.5870056152344 -163.70199584960938 -324.4429931640625 -253.93800354003906C-148.53900146484375 -474.0039978027344 -57.26069641113281 -733.0159912109375 -57.26069641113281 -994.6060180664062C-57.26069641113281 -1119.8399658203125 -78.180908203125 -1245.6600341796875 -120.75100708007812 -1368.0899658203125C-263.03900146484375 -1777.4000244140625 -333.79998779296875 -2184.820068359375 -333.79998779296875 -2573.02001953125C-333.79998779296875 -3054.590087890625 -224.9010009765625 -3506.580078125 -8.5638427734375 -3895.889892578125C-2.342742919921875 -3907.110107421875 0.0 -3911.739990234375 0.0 -3914.780029296875C0.0 -3916.260009765625 -0.561309814453125 -3917.3701171875 -1.5038604736328125 -3918.669921875C-3.5911407470703125 -3921.6298828125 -6.2717132568359375 -3923.070068359375 -9.005996704101562 -3923.070068359375C-12.34100341796875 -3923.070068359375 -15.75579833984375 -3920.919921875 -18.27130126953125 -3916.739990234375C-21.360000610351562 -3911.56005859375 -39.285797119140625 -3879.070068359375 -49.65510559082031 -3859.77001953125C-326.27601623535156 -3345.820068359375 -466.87400817871094 -2800.7099609375 -466.87400817871094 -2268.909912109375C-466.87400817871094 -1945.4200439453125 -414.8500213623047 -1626.8599853515625 -309.77101135253906 -1323.25C-277.4500274658203 -1229.760009765625 -260.46202087402344 -1167.5400390625 -245.40402221679688 -1087.3499755859375C-229.4110107421875 -1002.0599975585938 -221.59901428222656 -917.9550170898438 -221.59901428222656 -836.155029296875C-221.59901428222656 -497.3320007324219 -355.62400817871094 -198.052001953125 -597.4099884033203 -18.20050048828125C-608.6620025634766 -9.8167724609375 -609.5440216064453 -8.823959350585938 -609.5440216064453 -4.3563232421875C-609.5440216064453 0.111328125 -608.6620025634766 1.1041259765625 -597.4099884033203 9.48785400390625C-353.4130096435547 191.0279998779297 -221.65200805664062 491.5540008544922 -221.65200805664062 827.7480010986328C-221.65200805664062 974.8980255126953 -246.89401245117188 1128.8800201416016 -299.01600646972656 1282.709976196289L-316.1690216064453 1333.449966430664C-417.6750030517578 1634.3399810791016 -467.9540252685547 1948.060073852539 -467.9540252685547 2266.110122680664C-467.9540252685547 2811.300064086914 -320.21702575683594 3369.169937133789 -29.523117065429688 3896.780044555664C-17.444015502929688 3918.729995727539 -14.906814575195312 3922.419937133789 -11.707717895507812 3922.919937133789Z" fill="black" /></g></svg>