<?xml version="1.0" encoding="utf-8" ?>
<svg baseProfile="tiny" height="100%" version="1.2" width="100%" xmlns="http://www.w3.org/2000/svg" xmlns:ev="http://www.w3.org/2001/xml-events" xmlns:xlink="http://www.w3.org/1999/xlink"><defs /><g transform="translate(0, 1000) scale(1, -1)"><path d="M-16.960403442382812 991.3060302734375C-16.176315307617188 991.5029907226562 -15.399810791015625 991.5969848632812 -14.642822265625 991.5969848632812C-9.758941650390625 991.5969848632812 -5.690582275390625 987.6959838867188 -5.690582275390625 982.4450073242188C-5.6886138916015625 982.25 -5.686920166015625 982.0689697265625 -5.686920166015625 981.89697265625C-5.686920166015625 979.6640014648438 -5.97454833984375 979.1640014648438 -9.677947998046875 972.4769897460938C-46.67181396484375 905.9660034179688 -70.26371765136719 822.9509887695312 -76.27241516113281 738.3579711914062C-77.48701477050781 721.1710205078125 -78.09661865234375 703.7869873046875 -78.09661865234375 686.177978515625C-78.09661865234375 583.35400390625 -57.311614990234375 472.84600830078125 -14.828323364257812 349.0369873046875C-4.8971405029296875 320.0580139160156 -1.52587890625e-05 290.22698974609375 -1.52587890625e-05 260.4230041503906C-1.52587890625e-05 202.05799865722656 -18.779708862304688 143.79200744628906 -55.31111145019531 92.21189880371094C-78.04450988769531 60.11920166015625 -111.43901062011719 26.17120361328125 -145.1370086669922 0.83489990234375C-146.5910186767578 -0.2450103759765625 -147.31800842285156 -0.6742095947265625 -147.31800842285156 -1.1033935546875C-147.31800842285156 -1.5325927734375 -146.5910186767578 -1.9617919921875 -145.1370086669922 -3.0417022705078125C-114.23501586914062 -26.245895385742188 -83.19491577148438 -57.09260559082031 -60.87672424316406 -86.80400085449219C-20.7296142578125 -140.2100067138672 -0.05169677734375 -200.74200439453125 -0.05169677734375 -262.15399169921875C-0.05169677734375 -287.9549865722656 -3.7013092041015625 -313.9100036621094 -11.090118408203125 -339.5580139160156C-12.391616821289062 -344.0719909667969 -13.499221801757812 -347.4779968261719 -18.954116821289062 -363.427001953125C-57.88621520996094 -477.7309875488281 -77.62922668457031 -586.718994140625 -77.65690612792969 -687.4000244140625C-77.65690612792969 -709.4409790039062 -77.49070739746094 -715.5330200195312 -76.54931640625 -731.7039794921875C-71.34361267089844 -819.0380249023438 -47.75172424316406 -903.9910278320312 -9.677947998046875 -972.468994140625C-5.97454833984375 -979.155029296875 -5.686920166015625 -979.655029296875 -5.686920166015625 -981.8889770507812C-5.686920166015625 -982.0599975585938 -5.6886138916015625 -982.2420043945312 -5.690582275390625 -982.43701171875C-5.690582275390625 -987.9500122070312 -10.156112670898438 -991.5969848632812 -14.779022216796875 -991.5969848632812C-17.00531005859375 -991.5969848632812 -19.268112182617188 -990.7509765625 -21.086212158203125 -988.8610229492188C-24.353622436523438 -985.4550170898438 -49.27461242675781 -937.9949951171875 -62.42741394042969 -910.0280151367188C-123.09901428222656 -781.322998046875 -153.30702209472656 -659.4140014648438 -153.30702209472656 -541.5430297851562C-153.30702209472656 -466.989013671875 -141.22201538085938 -394.04998779296875 -117.11500549316406 -322.0299987792969C-105.23600769042969 -286.5039978027344 -100.50102233886719 -268.4779968261719 -95.68312072753906 -240.34500122070312C-92.23780822753906 -220.2449951171875 -90.54582214355469 -200.74099731445312 -90.54582214355469 -182.03599548339844C-90.54582214355469 -109.34100341796875 -116.10200500488281 -48.73320007324219 -163.6070098876953 -12.262496948242188C-171.41500854492188 -6.2537384033203125 -172.08001708984375 -5.395355224609375 -172.08001708984375 -1.1033935546875C-172.08001708984375 3.1885528564453125 -171.41500854492188 4.04693603515625 -163.6070098876953 10.055694580078125C-116.45802307128906 46.24620056152344 -90.52381896972656 106.85600280761719 -90.52381896972656 179.11300659179688C-90.52381896972656 187.73800659179688 -90.89332580566406 196.5290069580078 -91.64030456542969 205.46400451660156C-94.82472229003906 243.343994140625 -101.38700866699219 272.8890075683594 -116.97700500488281 319.4079895019531C-131.4860076904297 362.6600036621094 -139.76602172851562 396.635986328125 -146.02301025390625 438.614013671875C-150.989013671875 471.80499267578125 -153.47201538085938 505.385986328125 -153.47201538085938 539.3579711914062C-153.47201538085938 679.85302734375 -111.00502014160156 827.0150146484375 -26.070419311523438 980.7839965820312C-21.501617431640625 989.0910034179688 -20.3109130859375 990.447998046875 -16.960418701171875 991.3060302734375Z" fill="black" /></g></svg>