<?xml version="1.0" encoding="utf-8" ?>
<svg baseProfile="tiny" height="100%" version="1.2" width="100%" xmlns="http://www.w3.org/2000/svg" xmlns:ev="http://www.w3.org/2001/xml-events" xmlns:xlink="http://www.w3.org/1999/xlink"><defs /><g transform="translate(0, 1000) scale(1, -1)"><path d="M-17.340606689453125 939.9619750976562C-16.599594116210938 940.1279907226562 -15.87030029296875 940.2069702148438 -15.161300659179688 940.2069702148438C-10.1575927734375 940.2069702148438 -6.1610107421875 936.2760009765625 -6.1610107421875 931.2570190429688C-6.1610107421875 930.6890258789062 -6.2120208740234375 930.1079711914062 -6.318359375 929.5180053710938C-6.5545501708984375 928.2839965820312 -7.1581573486328125 926.8930053710938 -8.811492919921875 923.927978515625C-52.45469665527344 845.10498046875 -74.29409790039062 753.7080078125 -74.29409790039062 651.8170166015625C-74.29409790039062 555.6259765625 -54.82969665527344 450.0840148925781 -15.871002197265625 336.9419860839844C-9.467575073242188 318.2820129394531 -6.0034332275390625 305.18701171875 -3.56280517578125 290.1499938964844C-1.181396484375 275.5199890136719 0.0 260.9960021972656 0.0 246.6179962158203C0.0 155.947998046875 -46.9833984375 71.10099792480469 -136.2760009765625 2.2856292724609375C-138.5330047607422 0.527313232421875 -140.39599609375 -0.9423065185546875 -140.39599609375 -1.0210418701171875C-140.39599609375 -1.0997772216796875 -138.5330047607422 -2.56939697265625 -136.2760009765625 -4.3277130126953125C-46.9833984375 -73.14300537109375 0.0 -157.99000549316406 0.0 -248.66000366210938C0.0 -263.0379943847656 -1.181396484375 -277.56201171875 -3.56280517578125 -292.1919860839844C-6.0296783447265625 -307.3340148925781 -9.362594604492188 -320.010009765625 -16.002197265625 -339.35101318359375C-54.759002685546875 -452.2969970703125 -74.12539672851562 -557.31298828125 -74.12539672851562 -652.9530029296875C-74.12539672851562 -754.3790283203125 -52.3446044921875 -845.260009765625 -8.811492919921875 -923.8699951171875C-6.8477783203125 -927.3930053710938 -6.149017333984375 -929.1199951171875 -6.149017333984375 -930.97802734375C-6.149017333984375 -931.5280151367188 -6.2103729248046875 -932.0910034179688 -6.318359375 -932.7139892578125C-7.168975830078125 -937.3930053710938 -11.1846923828125 -940.2069702148438 -15.312896728515625 -940.2069702148438C-17.552902221679688 -940.2069702148438 -19.826004028320312 -939.3790283203125 -21.644500732421875 -937.5689697265625C-24.452606201171875 -934.7349853515625 -46.969390869140625 -892.06298828125 -59.4613037109375 -865.8720092773438C-118.49200439453125 -742.1010131835938 -147.93800354003906 -624.323974609375 -147.93800354003906 -511.09600830078125C-147.93800354003906 -439.5830078125 -136.19200134277344 -369.885986328125 -112.73500061035156 -301.6390075683594C-96.43939208984375 -254.2270050048828 -88.402099609375 -209.85800170898438 -88.402099609375 -169.92999267578125C-88.402099609375 -101.19000244140625 -112.22500610351562 -45.61419677734375 -158.74000549316406 -10.337493896484375C-163.91000366210938 -6.42718505859375 -164.90699768066406 -4.9050750732421875 -164.90699768066406 -1.0210418701171875C-164.90699768066406 2.86297607421875 -163.91000366210938 4.385101318359375 -158.74000549316406 8.295364379882812C-112.23001098632812 43.56370544433594 -88.41380310058594 99.11929321289062 -88.41380310058594 167.85000610351562C-88.41380310058594 207.74600219726562 -96.43899536132812 252.08200073242188 -112.70899963378906 299.46600341796875C-136.2830047607422 368.1650085449219 -148.08399963378906 438.4049987792969 -148.08399963378906 510.39898681640625C-148.08399963378906 643.8189697265625 -107.55499267578125 783.2650146484375 -26.3157958984375 930.094970703125C-21.880706787109375 938.0989990234375 -20.883499145507812 939.1749877929688 -17.340606689453125 939.9619750976562Z" fill="black" /></g></svg>