<?xml version="1.0" encoding="utf-8" ?>
<svg baseProfile="tiny" height="100%" version="1.2" width="100%" xmlns="http://www.w3.org/2000/svg" xmlns:ev="http://www.w3.org/2001/xml-events" xmlns:xlink="http://www.w3.org/1999/xlink"><defs /><g transform="translate(0, 1000) scale(1, -1)"><path d="M-11.544906616210938 3457.550048828125C-10.736618041992188 3457.75 -9.939743041992188 3457.85009765625 -9.166061401367188 3457.85009765625C-4.2336273193359375 3457.85009765625 -0.2439422607421875 3454.030029296875 -0.2439422607421875 3448.739990234375C-0.2439422607421875 3445.93994140625 -0.5549774169921875 3445.219970703125 -7.24224853515625 3433.139892578125C-196.6590118408203 3090.9599609375 -291.96900939941406 2694.5400390625 -291.96900939941406 2271.6201171875C-291.96900939941406 1928.43994140625 -229.2080078125 1567.81005859375 -103.041015625 1204.56005859375C-64.71621704101562 1094.18994140625 -45.70802307128906 984.6060180664062 -45.70802307128906 873.0499877929688C-45.70802307128906 839.9000244140625 -47.38652038574219 806.5750122070312 -50.73551940917969 773.0020141601562C-80.02470397949219 478.39898681640625 -243.2150115966797 200.95501708984375 -501.9450225830078 5.6242523193359375C-508.4770050048828 0.6476593017578125 -513.8679962158203 -3.6031646728515625 -513.8679962158203 -3.810516357421875C-513.8679962158203 -4.0178680419921875 -508.4770050048828 -8.268707275390625 -501.9450225830078 -13.245285034179688C-207.9710235595703 -235.20298767089844 -45.66973876953125 -554.8019866943359 -45.66973876953125 -880.9910125732422C-45.66973876953125 -989.8829803466797 -63.75712585449219 -1099.509994506836 -101.07102966308594 -1206.479965209961C-228.051025390625 -1570.4300384521484 -291.2260437011719 -1931.6199798583984 -291.2260437011719 -2275.239974975586C-291.2260437011719 -2696.719955444336 -196.1780242919922 -3091.749984741211 -7.2422637939453125 -3432.979965209961C-2.0091552734375 -3442.449935913086 -3.0517578125e-05 -3446.479965209961 -3.0517578125e-05 -3449.340072631836C-3.0517578125e-05 -3450.790023803711 -0.5138702392578125 -3451.949935913086 -1.3844146728515625 -3453.360092163086C-3.243194580078125 -3456.379867553711 -5.798553466796875 -3457.850082397461 -8.507156372070312 -3457.850082397461C-12.068328857421875 -3457.850082397461 -15.89453125 -3455.310043334961 -18.750625610351562 -3450.449935913086C-85.20863342285156 -3336.820053100586 -172.86903381347656 -3148.800033569336 -228.2850341796875 -3000.949935913086C-354.4940185546875 -2664.310043334961 -417.67803955078125 -2326.989974975586 -417.67803955078125 -1995.3199310302734C-417.67803955078125 -1707.8299407958984 -370.2030334472656 -1424.5799407958984 -275.1480407714844 -1149.719955444336C-225.67503356933594 -1006.6299896240234 -201.67303466796875 -864.2319793701172 -201.67303466796875 -729.0879974365234C-201.67303466796875 -434.0279998779297 -316.0870361328125 -173.5249786376953 -529.6270446777344 -15.73358154296875C-538.1810607910156 -9.409164428710938 -539.1660461425781 -8.113189697265625 -539.1660461425781 -3.810516357421875C-539.1660461425781 0.49212646484375 -538.1810607910156 1.788116455078125 -529.6270446777344 8.112518310546875C-316.1020202636719 165.89199829101562 -201.68902587890625 426.39300537109375 -201.68902587890625 721.4249877929688C-201.68902587890625 856.5880126953125 -225.70303344726562 998.9979858398438 -275.2000427246094 1142.0999755859375C-355.551025390625 1374.489990234375 -401.1690368652344 1605.5400390625 -414.3370361328125 1846.8499755859375C-417.291015625 1900.969970703125 -417.96502685546875 1927.719970703125 -417.96502685546875 1990.449951171875C-417.96502685546875 2054.52001953125 -417.2400207519531 2081.219970703125 -414.0770263671875 2139.22998046875C-390.0240173339844 2576.22998046875 -255.6050262451172 3025.159912109375 -24.349227905273438 3440.659912109375C-15.847625732421875 3456.0 -15.381027221679688 3456.6201171875 -11.544937133789062 3457.550048828125Z" fill="black" /></g></svg>