<?xml version="1.0" encoding="utf-8" ?>
<svg baseProfile="tiny" height="100%" version="1.2" width="100%" xmlns="http://www.w3.org/2000/svg" xmlns:ev="http://www.w3.org/2001/xml-events" xmlns:xlink="http://www.w3.org/1999/xlink"><defs /><g transform="translate(0, 1000) scale(1, -1)"><path d="M-13.814300537109375 5961.60986328125C-12.472900390625 5962.43994140625 -10.985000610351562 5962.830078125 -9.492202758789062 5962.830078125C-6.3544921875 5962.830078125 -3.19549560546875 5961.10009765625 -1.3308563232421875 5958.06005859375C-0.48406982421875 5956.669921875 0.0 5955.509765625 0.0 5954.10986328125C0.0 5951.509765625 -1.6626739501953125 5948.06982421875 -5.7604827880859375 5940.740234375C-348.79698181152344 5326.22998046875 -524.1160125732422 4619.0400390625 -524.1160125732422 3861.929931640625C-524.1160125732422 3654.7099609375 -510.9829864501953 3443.760009765625 -484.56297302246094 3229.93994140625C-436.4409942626953 2840.610107421875 -345.29798889160156 2453.14990234375 -210.5299835205078 2064.820068359375C-143.44198608398438 1871.510009765625 -109.87397766113281 1676.7099609375 -109.87397766113281 1481.6400146484375C-109.87397766113281 1327.780029296875 -130.7559814453125 1173.760009765625 -172.54298400878906 1020.1699829101562C-280.46397399902344 623.7139892578125 -536.4429779052734 256.1889953613281 -882.2889862060547 1.284637451171875C-887.5919647216797 -2.6751861572265625 -891.9539642333984 -6.0980682373046875 -891.9539642333984 -6.366546630859375C-891.9539642333984 -6.6349945068359375 -887.5919647216797 -10.057907104492188 -882.2889862060547 -14.0177001953125C-536.4429779052734 -268.9230041503906 -280.46397399902344 -636.447021484375 -172.54298400878906 -1032.9000244140625C-130.72698974609375 -1186.5899658203125 -109.82498168945312 -1340.3499755859375 -109.82498168945312 -1494.030029296875C-109.82498168945312 -1689.1300048828125 -143.5129852294922 -1884.0899658203125 -210.86598205566406 -2078.56005859375C-419.48597717285156 -2680.949951171875 -523.1339569091797 -3284.449951171875 -523.1339569091797 -3864.1298828125C-523.1339569091797 -4613.93994140625 -349.7209930419922 -5323.89990234375 -5.7604827880859375 -5940.0498046875C-1.9858856201171875 -5946.830078125 -0.122283935546875 -5951.1201171875 -0.122283935546875 -5954.22998046875C-0.122283935546875 -5957.08984375 -1.7007904052734375 -5958.9599609375 -4.82086181640625 -5960.85986328125C-6.767333984375 -5962.0498046875 -8.331573486328125 -5962.830078125 -9.852798461914062 -5962.830078125C-14.311203002929688 -5962.830078125 -18.400299072265625 -5956.18017578125 -30.660293579101562 -5934.009765625C-353.08302307128906 -5351.85009765625 -561.4770050048828 -4727.8798828125 -641.9489898681641 -4103.43017578125L-647.3180084228516 -4061.820068359375C-653.0900421142578 -4017.800048828125 -661.9489898681641 -3930.610107421875 -666.7810211181641 -3870.2099609375C-676.8440093994141 -3744.06005859375 -681.8740386962891 -3618.5400390625 -681.8740386962891 -3493.7099609375C-681.8740386962891 -3069.030029296875 -623.6569976806641 -2652.22998046875 -507.3150177001953 -2245.010009765625C-483.0860137939453 -2160.239990234375 -462.95201110839844 -2097.080078125 -422.81602478027344 -1980.22998046875C-344.9090118408203 -1753.06005859375 -307.2510223388672 -1523.739990234375 -307.2510223388672 -1302.949951171875C-307.2510223388672 -784.2160034179688 -515.1079864501953 -312.5840148925781 -897.1890411376953 -26.635406494140625C-911.1829986572266 -16.1654052734375 -918.1790313720703 -11.266006469726562 -918.1790313720703 -6.366546630859375C-918.1790313720703 -1.46710205078125 -911.1829986572266 3.4323272705078125 -897.1890411376953 13.90240478515625C-514.5440216064453 300.27899169921875 -307.6780242919922 768.1300048828125 -307.6780242919922 1286.7900390625C-307.6780242919922 1513.010009765625 -347.0320281982422 1748.9000244140625 -428.3200225830078 1983.6099853515625C-477.04600524902344 2124.280029296875 -512.2140045166016 2241.8701171875 -547.3159942626953 2381.60009765625C-637.7180328369141 2741.659912109375 -683.2020416259766 3114.090087890625 -683.2020416259766 3489.739990234375C-683.2020416259766 3667.409912109375 -673.0280303955078 3845.7900390625 -652.6200103759766 4023.919921875C-650.0030059814453 4047.080078125 -649.7340240478516 4048.9599609375 -644.6330108642578 4088.68994140625C-562.4840240478516 4726.490234375 -355.56700134277344 5348.580078125 -30.660324096679688 5934.7001953125C-17.035934448242188 5959.330078125 -16.700332641601562 5959.8701171875 -13.8143310546875 5961.60986328125Z" fill="black" /></g></svg>