<?xml version="1.0" encoding="utf-8" ?>
<svg baseProfile="tiny" height="100%" version="1.2" width="100%" xmlns="http://www.w3.org/2000/svg" xmlns:ev="http://www.w3.org/2001/xml-events" xmlns:xlink="http://www.w3.org/1999/xlink"><defs /><g transform="translate(0, 1000) scale(1, -1)"><path d="M-13.195602416992188 297.7340087890625C-12.685821533203125 297.8210144042969 -12.18121337890625 297.86199951171875 -11.685317993164062 297.86199951171875C-6.7617645263671875 297.86199951171875 -2.6900177001953125 293.77398681640625 -2.6900177001953125 288.8280029296875C-2.6900177001953125 288.34698486328125 -2.728515625 287.8580017089844 -2.8084716796875 287.364013671875C-3.0363922119140625 285.9630126953125 -3.2968902587890625 285.3529968261719 -4.835418701171875 282.5530090332031C-5.3157196044921875 281.6820068359375 -6.34954833984375 279.68701171875 -7.122894287109375 278.1159973144531C-17.243209838867188 257.70001220703125 -22.309112548828125 234.64500427246094 -22.309112548828125 208.55499267578125C-22.309112548828125 178.88600158691406 -15.757720947265625 145.29100036621094 -2.63751220703125 107.19100952148438C-1.4734344482421875 103.81300354003906 -1.0582733154296875 102.47000122070312 -0.4151763916015625 99.95458984375L-1.52587890625e-05 98.3671875V78.20338439941406V58.03138732910156L-0.374481201171875 56.59059143066406C-5.6169281005859375 36.32087707519531 -18.006622314453125 18.371292114257812 -38.56123352050781 1.2356414794921875C-39.562530517578125 0.4053192138671875 -40.37652587890625 -0.3029022216796875 -40.37652587890625 -0.32733154296875C-40.37652587890625 -0.35174560546875 -39.562530517578125 -1.059967041015625 -38.56123352050781 -1.890289306640625C-18.006622314453125 -19.025909423828125 -5.6169281005859375 -36.97550964355469 -0.3744964599609375 -57.24522399902344L-3.0517578125e-05 -58.68601989746094V-78.85801696777344V-99.02191162109375L-0.415191650390625 -100.6090087890625C-1.066436767578125 -103.13299560546875 -1.4897308349609375 -104.50900268554688 -2.6456756591796875 -107.86199951171875C-15.704437255859375 -145.72000122070312 -22.231033325195312 -179.3159942626953 -22.231033325195312 -208.96400451660156C-22.231033325195312 -236.77499389648438 -16.487930297851562 -261.1109924316406 -5.0063934326171875 -282.2300109863281C-3.2480621337890625 -285.4620056152344 -3.0445556640625 -285.9419860839844 -2.8084869384765625 -287.36700439453125C-2.724365234375 -287.885986328125 -2.6840667724609375 -288.3949890136719 -2.6840667724609375 -288.8909912109375C-2.6840667724609375 -294.0360107421875 -7.01092529296875 -297.86199951171875 -11.761032104492188 -297.86199951171875C-13.429229736328125 -297.86199951171875 -15.1495361328125 -297.3900146484375 -16.753036499023438 -296.3380126953125C-18.307830810546875 -295.31201171875 -18.96722412109375 -294.4490051269531 -20.977935791015625 -290.8190002441406C-48.60783386230469 -240.8769989013672 -61.86003112792969 -196.88400268554688 -61.86003112792969 -154.5590057373047C-61.86003112792969 -149.33599853515625 -61.658233642578125 -144.13900756835938 -61.25672912597656 -138.95899963378906C-60.035736083984375 -123.20700073242188 -56.70623779296875 -106.91799926757812 -51.71612548828125 -92.27349853515625C-46.23762512207031 -76.19610595703125 -43.98272705078125 -66.36250305175781 -42.93263244628906 -53.97270202636719C-42.756622314453125 -51.8861083984375 -42.669525146484375 -49.833099365234375 -42.669525146484375 -47.818695068359375C-42.669525146484375 -30.736099243164062 -48.93193054199219 -16.426605224609375 -60.32063293457031 -7.9141845703125C-63.068023681640625 -5.858734130859375 -64.44174194335938 -3.093017578125 -64.44174194335938 -0.3273162841796875C-64.44174194335938 2.4384002685546875 -63.068023681640625 5.2041168212890625 -60.32063293457031 7.2595672607421875C-48.7479248046875 15.912704467773438 -42.73823547363281 29.715499877929688 -42.73823547363281 47.41740417480469C-42.73823547363281 50.198699951171875 -42.88653564453125 53.076202392578125 -43.185028076171875 56.045196533203125C-44.27583312988281 66.8555908203125 -46.67723083496094 76.88470458984375 -51.71612548828125 91.61880493164062C-58.46592712402344 111.34300231933594 -61.9072265625 132.75 -61.9072265625 154.46299743652344C-61.9072265625 162.73300170898438 -61.407928466796875 171.0489959716797 -60.40203857421875 179.33200073242188C-56.1771240234375 214.11599731445312 -43.40483093261719 250.23500061035156 -20.977935791015625 290.81500244140625C-18.250823974609375 295.74798583984375 -16.679733276367188 297.14801025390625 -13.195632934570312 297.7340087890625Z" fill="black" /></g></svg>