<?xml version="1.0" encoding="utf-8" ?>
<svg baseProfile="tiny" height="100%" version="1.2" width="100%" xmlns="http://www.w3.org/2000/svg" xmlns:ev="http://www.w3.org/2001/xml-events" xmlns:xlink="http://www.w3.org/1999/xlink"><defs /><g transform="translate(0, 1000) scale(1, -1)"><path d="M-16.00579833984375 1139.25C-14.815902709960938 1139.739990234375 -13.611495971679688 1139.969970703125 -12.443893432617188 1139.969970703125C-7.6464385986328125 1139.969970703125 -3.470184326171875 1136.1300048828125 -3.470184326171875 1130.9599609375C-3.470184326171875 1130.800048828125 -3.474334716796875 1130.6300048828125 -3.4827423095703125 1130.469970703125C-3.5960693359375 1128.1500244140625 -3.8510589599609375 1127.5799560546875 -8.667617797851562 1118.8499755859375C-60.620391845703125 1024.68994140625 -88.51699829101562 907.4340209960938 -88.51699829101562 784.8900146484375C-88.51699829101562 774.5089721679688 -88.31680297851562 764.0900268554688 -87.91409301757812 753.6439819335938C-83.49420166015625 639.8319702148438 -61.70640563964844 531.1190185546875 -17.110794067382812 400.33599853515625C-5.6572418212890625 366.7669982910156 -0.0106353759765625 332.2699890136719 -0.0106353759765625 297.8479919433594C-0.0106353759765625 230.09100341796875 -21.890106201171875 162.6280059814453 -64.42630004882812 103.12600708007812C-90.26580810546875 67.0299072265625 -125.00199890136719 31.557403564453125 -163.2790069580078 2.2613677978515625C-165.7259979248047 0.4048004150390625 -167.67100524902344 -1.200408935546875 -167.67100524902344 -1.306488037109375V-1.3085479736328125C-167.64198303222656 -1.4218597412109375 -165.57398986816406 -3.0651702880859375 -163.0809783935547 -4.991790771484375C-113.07398986816406 -43.410888671875 -71.93449401855469 -89.08317565917969 -44.73509216308594 -136.42698669433594C-15.060089111328125 -188.0859832763672 1.52587890625e-05 -244.1639862060547 1.52587890625e-05 -300.34999084472656C1.52587890625e-05 -334.82298278808594 -5.6693115234375 -369.3369903564453 -17.11077880859375 -402.89598083496094C-40.74018859863281 -472.19798278808594 -54.53819274902344 -522.1769866943359 -66.60798645019531 -581.9589691162109C-80.93568420410156 -652.9589691162109 -88.07818603515625 -720.9659881591797 -88.07818603515625 -785.5839691162109C-88.07818603515625 -910.4650115966797 -61.40138244628906 -1022.6899871826172 -8.355941772460938 -1119.4300384521484C-3.8227081298828125 -1127.6700286865234 -3.426055908203125 -1128.6099700927734 -3.426055908203125 -1130.9000091552734C-3.426055908203125 -1136.1199798583984 -7.6574859619140625 -1139.969955444336 -12.502182006835938 -1139.969955444336C-13.577484130859375 -1139.969955444336 -14.6829833984375 -1139.780014038086 -15.779083251953125 -1139.3799896240234C-19.065689086914062 -1138.1299896240234 -19.348983764648438 -1137.699935913086 -30.002090454101562 -1118.1299896240234C-121.58299255371094 -949.7339935302734 -167.98397827148438 -784.3129730224609 -167.98397827148438 -626.2029876708984C-167.98397827148438 -623.8719940185547 -167.97398376464844 -621.5430145263672 -167.9539794921875 -619.2159881591797C-167.7839813232422 -601.2809906005859 -167.67098999023438 -597.6550140380859 -166.7639923095703 -580.5419769287109C-163.02398681640625 -511.7219696044922 -149.3389892578125 -440.66297912597656 -127.46699523925781 -376.4049835205078C-113.32899475097656 -334.81297302246094 -107.208984375 -311.7209930419922 -101.90998840332031 -279.50697326660156C-98.14207458496094 -256.71897888183594 -96.28709411621094 -234.64198303222656 -96.28709411621094 -213.4609832763672C-96.28709411621094 -126.51197814941406 -127.54698181152344 -54.66288757324219 -186.0299835205078 -10.714981079101562C-191.15798950195312 -6.8617401123046875 -192.4049835205078 -5.020111083984375 -192.4049835205078 -1.2801971435546875C-192.4049835205078 2.459716796875 -191.15798950195312 4.30133056640625 -186.0299835205078 8.154586791992188C-136.87298583984375 45.072113037109375 -106.10398864746094 102.84202575683594 -98.36888122558594 172.68202209472656C-96.986083984375 185.12802124023438 -96.29557800292969 197.8500213623047 -96.29557800292969 210.83401489257812C-96.29557800292969 257.9710235595703 -105.39598083496094 308.5650177001953 -123.49998474121094 361.9450225830078C-133.302978515625 390.90101623535156 -137.6099853515625 405.06700134277344 -143.50299072265625 427.81800842285156C-160.04698181152344 491.8240203857422 -168.2919921875 557.4510040283203 -168.2919921875 624.3830108642578C-168.2919921875 783.0370025634766 -121.96199035644531 949.0210113525391 -30.002090454101562 1118.1200103759766C-19.462387084960938 1137.500015258789 -19.150680541992188 1137.949966430664 -16.005783081054688 1139.250015258789Z" fill="black" /></g></svg>