<?xml version="1.0" encoding="utf-8" ?>
<svg baseProfile="tiny" height="100%" version="1.2" width="100%" xmlns="http://www.w3.org/2000/svg" xmlns:ev="http://www.w3.org/2001/xml-events" xmlns:xlink="http://www.w3.org/1999/xlink"><defs /><g transform="translate(0, 1000) scale(1, -1)"><path d="M-13.253494262695312 303.760009765625C-12.820388793945312 303.8190002441406 -12.391983032226562 303.8479919433594 -11.970382690429688 303.8479919433594C-6.98577880859375 303.8479919433594 -2.93939208984375 299.8389892578125 -2.93939208984375 294.87799072265625C-2.93939208984375 294.48699951171875 -2.9645233154296875 294.0899963378906 -3.0163116455078125 293.6889953613281C-3.2240447998046875 292.0769958496094 -3.448394775390625 291.5119934082031 -5.1019744873046875 288.5039978027344C-15.920883178710938 268.802001953125 -21.978378295898438 245.10299682617188 -22.77618408203125 219.36900329589844C-22.835586547851562 217.4499969482422 -22.865280151367188 215.5070037841797 -22.865280151367188 213.5399932861328C-22.865280151367188 183.33599853515625 -15.875778198242188 147.49899291992188 -2.42633056640625 108.93699645996094C-1.512298583984375 106.30300903320312 -1.038665771484375 104.77400207519531 -0.4154510498046875 102.38099670410156L1.52587890625e-05 100.76899719238281V79.96170043945312V59.1549072265625L-0.2991180419921875 57.975006103515625C-5.4509735107421875 37.43409729003906 -18.920578002929688 18.156204223632812 -40.300689697265625 0.7063751220703125C-40.965484619140625 0.1662750244140625 -41.505584716796875 -0.2990570068359375 -41.505584716796875 -0.3322906494140625C-41.505584716796875 -0.36553955078125 -40.965484619140625 -0.8308563232421875 -40.300689697265625 -1.3709869384765625C-18.920578002929688 -18.82080078125 -5.4509735107421875 -38.09869384765625 -0.2991180419921875 -58.63960266113281L1.52587890625e-05 -59.81950378417969V-80.62629699707031V-101.43299865722656L-0.4154510498046875 -103.04499816894531C-1.038665771484375 -105.44700622558594 -1.503997802734375 -106.95901489257812 -2.4678802490234375 -109.72601318359375C-14.450088500976562 -144.17701721191406 -21.089279174804688 -175.31201171875 -22.6099853515625 -204.1210174560547C-22.698776245117188 -205.80401611328125 -22.751480102539062 -210.60501098632812 -22.751480102539062 -214.72702026367188C-22.751480102539062 -217.1590118408203 -22.733078002929688 -219.35401916503906 -22.693084716796875 -220.53201293945312C-21.812286376953125 -245.69300842285156 -15.771286010742188 -269.0180206298828 -5.1019744873046875 -288.5030059814453C-3.444976806640625 -291.5220184326172 -2.9200897216796875 -292.8620147705078 -2.9200897216796875 -294.5480194091797C-2.9200897216796875 -294.8990020751953 -2.94293212890625 -295.26600646972656 -2.9830780029296875 -295.66600036621094C-3.5107269287109375 -300.82200622558594 -7.7461090087890625 -303.84800720214844 -12.050079345703125 -303.84800720214844C-14.862777709960938 -303.84800720214844 -17.704879760742188 -302.5550079345703 -19.560379028320312 -299.7210235595703C-20.31658935546875 -298.56602478027344 -24.496185302734375 -290.8970184326172 -27.22998046875 -285.6370086669922C-51.33558654785156 -239.36001586914062 -63.221282958984375 -197.5220184326172 -63.221282958984375 -157.58702087402344C-63.221282958984375 -135.58901977539062 -59.61468505859375 -114.16801452636719 -52.45738220214844 -92.8994140625C-47.17259216308594 -77.21951293945312 -44.97898864746094 -67.60551452636719 -43.85719299316406 -55.34071350097656C-43.72657775878906 -53.89501953125 -43.65238952636719 -50.6627197265625 -43.65238952636719 -47.800018310546875C-43.65238952636719 -45.743011474609375 -43.69068908691406 -43.87681579589844 -43.77409362792969 -43.001220703125C-45.25318908691406 -27.23822021484375 -50.88697814941406 -15.987319946289062 -61.28208923339844 -8.060089111328125C-62.49519348144531 -7.1377410888671875 -62.86918640136719 -6.80535888671875 -63.34278869628906 -6.248626708984375C-64.80528259277344 -4.5244293212890625 -65.53648376464844 -2.4283599853515625 -65.53648376464844 -0.332305908203125C-65.53648376464844 1.7637481689453125 -64.80528259277344 3.85980224609375 -63.34278869628906 5.5839996337890625C-62.86918640136719 6.1407318115234375 -62.49519348144531 6.473114013671875 -61.28208923339844 7.3954620361328125C-50.88697814941406 15.322677612304688 -45.25318908691406 26.573593139648438 -43.77409362792969 42.33659362792969C-43.69068908691406 43.212188720703125 -43.65238952636719 45.07838439941406 -43.65238952636719 47.13539123535156C-43.65238952636719 49.99809265136719 -43.72657775878906 53.23039245605469 -43.85719299316406 54.67608642578125C-44.9539794921875 66.70817565917969 -47.24739074707031 76.83738708496094 -52.18318176269531 91.40379333496094C-57.15228271484375 106.07798767089844 -59.919281005859375 117.95198059082031 -61.73078918457031 132.37799072265625C-62.69908142089844 140.0549774169922 -63.25349426269531 149.78797912597656 -63.25349426269531 158.1379852294922C-63.25349426269531 160.82298278808594 -63.19618225097656 163.36398315429688 -63.07688903808594 165.64898681640625L-62.86088562011719 169.63697814941406C-60.71697998046875 208.5339813232422 -46.58268737792969 251.49298095703125 -20.68218994140625 297.7849884033203C-18.446884155273438 301.78199768066406 -16.552383422851562 303.30299377441406 -13.25347900390625 303.75999450683594Z" fill="black" /></g></svg>