<?xml version="1.0" encoding="utf-8" ?>
<svg baseProfile="tiny" height="100%" version="1.2" width="100%" xmlns="http://www.w3.org/2000/svg" xmlns:ev="http://www.w3.org/2001/xml-events" xmlns:xlink="http://www.w3.org/1999/xlink"><defs /><g transform="translate(0, 1000) scale(1, -1)"><path d="M-13.80560302734375 4600.06982421875C-12.363906860351562 4600.91015625 -10.824005126953125 4601.2900390625 -9.314727783203125 4601.2900390625C-4.500946044921875 4601.2900390625 0.0 4597.41015625 0.0 4592.02001953125C0.0 4589.830078125 -1.0929412841796875 4587.47021484375 -7.82318115234375 4575.39013671875C-246.5449981689453 4145.64013671875 -377.9859924316406 3653.010009765625 -395.1860046386719 3123.219970703125C-396.5050048828125 3082.639892578125 -397.16400146484375 3041.89990234375 -397.16400146484375 3001.0400390625C-397.16400146484375 2553.820068359375 -318.3169860839844 2090.699951171875 -164.51699829101562 1636.52001953125L-144.1540069580078 1576.4100341796875C-97.22212219238281 1437.68994140625 -74.24540710449219 1294.8299560546875 -74.24540710449219 1152.4599609375C-74.24540710449219 824.031982421875 -196.52301025390625 498.21600341796875 -429.06700134277344 231.80401611328125C-503.04200744628906 147.072021484375 -597.0930328369141 60.15382385253906 -680.0420074462891 -0.0156097412109375C-683.7230377197266 -2.719207763671875 -686.7719879150391 -5.0201416015625 -686.7719879150391 -5.192718505859375C-686.7719879150391 -5.3652801513671875 -683.7230377197266 -7.666229248046875 -680.0420074462891 -10.369781494140625C-597.0930328369141 -70.53929138183594 -503.04200744628906 -157.4569854736328 -429.06700134277344 -242.18898010253906C-196.53501892089844 -508.5819854736328 -74.24812316894531 -834.4629974365234 -74.24812316894531 -1162.8899993896484C-74.24812316894531 -1305.3599700927734 -97.26060485839844 -1448.310043334961 -144.26901245117188 -1587.0899505615234C-213.58401489257812 -1791.699935913086 -247.98301696777344 -1909.219955444336 -284.39601135253906 -2065.389877319336C-359.16600036621094 -2386.270004272461 -396.2780303955078 -2701.429916381836 -396.2780303955078 -3005.959945678711C-396.2780303955078 -3577.419906616211 -265.5900115966797 -4111.419906616211 -7.8231964111328125 -4575.430160522461C-1.09295654296875 -4587.509750366211 -1.52587890625e-05 -4589.859848022461 -1.52587890625e-05 -4592.049789428711C-1.52587890625e-05 -4597.410140991211 -4.427093505859375 -4601.290023803711 -9.260635375976562 -4601.290023803711C-10.757308959960938 -4601.290023803711 -12.292922973632812 -4600.919906616211 -13.748123168945312 -4600.100082397461C-16.22161865234375 -4598.720199584961 -16.73931884765625 -4597.979965209961 -25.828018188476562 -4581.580062866211C-365.7320098876953 -3970.060043334961 -538.4510040283203 -3318.199935913086 -538.4510040283203 -2678.219955444336C-538.4510040283203 -2291.770004272461 -475.4750213623047 -1909.6600189208984 -348.3040008544922 -1543.3699798583984C-296.07301330566406 -1392.999984741211 -267.31101989746094 -1259.719955444336 -255.40402221679688 -1113.0899505615234C-252.0480194091797 -1071.749984741211 -250.39102172851562 -1030.759994506836 -250.39102172851562 -990.2259979248047C-250.39102172851562 -586.7620086669922 -414.51002502441406 -228.3989715576172 -700.7500152587891 -18.423065185546875C-708.6309967041016 -12.6419677734375 -712.5709991455078 -8.917343139648438 -712.5709991455078 -5.1927032470703125C-712.5709991455078 -1.4680633544921875 -708.6309967041016 2.2565765380859375 -700.7500152587891 8.037673950195312C-411.9550018310547 219.8860321044922 -250.56600952148438 578.3920745849609 -250.56600952148438 981.0400238037109C-250.56600952148438 1078.3600311279297 -259.99501037597656 1178.2700653076172 -279.3340301513672 1279.3000946044922C-296.8780059814453 1370.9399871826172 -314.94102478027344 1436.3400115966797 -354.28700256347656 1550.4100799560547C-460.9920196533203 1860.2300262451172 -523.4050445556641 2195.939987182617 -536.9810333251953 2533.310104370117C-539.0520172119141 2585.490036010742 -539.2819976806641 2598.949996948242 -539.2819976806641 2672.520065307617C-539.2819976806641 2756.100143432617 -538.5919952392578 2785.320114135742 -534.9680328369141 2856.600143432617C-504.9980010986328 3442.129928588867 -330.4720001220703 4033.470016479492 -25.828018188476562 4581.549850463867C-16.79681396484375 4597.830123901367 -16.22161865234375 4598.689987182617 -13.805618286132812 4600.069869995117Z" fill="black" /></g></svg>