<?xml version="1.0" encoding="utf-8" ?>
<svg baseProfile="tiny" height="100%" version="1.2" width="100%" xmlns="http://www.w3.org/2000/svg" xmlns:ev="http://www.w3.org/2001/xml-events" xmlns:xlink="http://www.w3.org/1999/xlink"><defs /><g transform="translate(0, 1000) scale(1, -1)"><path d="M-12.426895141601562 1557.4000244140625C-11.451690673828125 1557.760009765625 -10.430679321289062 1557.9300537109375 -9.411651611328125 1557.9300537109375C-5.3952789306640625 1557.9300537109375 -1.409820556640625 1555.300048828125 -0.3792266845703125 1551.4599609375C-0.1398468017578125 1550.5799560546875 1.52587890625e-05 1549.800048828125 1.52587890625e-05 1549.010009765625C1.52587890625e-05 1546.780029296875 -1.0907745361328125 1544.3699951171875 -4.1506805419921875 1538.8199462890625C-81.99798583984375 1398.260009765625 -121.01799011230469 1234.75 -121.01799011230469 1055.81005859375C-121.01799011230469 897.8679809570312 -90.61598205566406 727.9099731445312 -29.677780151367188 551.1199951171875C-12.331878662109375 500.7829895019531 -3.67034912109375 451.364990234375 -3.67034912109375 402.10101318359375C-3.67034912109375 361.3110046386719 -9.608352661132812 320.6260070800781 -21.471389770507812 279.6109924316406C-51.50318908691406 175.9669952392578 -124.24298095703125 75.77899169921875 -223.62799072265625 1.2930145263671875C-225.68798828125 -0.243499755859375 -227.36398315429688 -1.57049560546875 -227.36398315429688 -1.6752471923828125C-227.3639678955078 -1.779998779296875 -225.68797302246094 -3.1069793701171875 -223.6279754638672 -4.6435089111328125C-108.49397277832031 -90.93269348144531 -31.249176025390625 -209.0349884033203 -10.401473999023438 -330.6289825439453C-5.943756103515625 -356.5929718017578 -3.6957550048828125 -381.89598083496094 -3.6957550048828125 -406.9729766845703C-3.6957550048828125 -455.75999450683594 -12.204269409179688 -503.68797302246094 -29.503173828125 -553.9470062255859C-90.54196166992188 -731.2989959716797 -120.4649658203125 -897.4589691162109 -120.4649658203125 -1058.8199310302734C-120.4649658203125 -1061.689926147461 -120.45596313476562 -1064.560043334961 -120.43696594238281 -1067.4200286865234C-120.261962890625 -1095.8799896240234 -120.08796691894531 -1102.199935913086 -118.969970703125 -1123.1600189208984C-110.83396911621094 -1275.239974975586 -71.79217529296875 -1416.5899505615234 -4.150665283203125 -1538.6800384521484C-1.41729736328125 -1543.6099700927734 -0.0464630126953125 -1547.199935913086 -0.0464630126953125 -1549.979965209961C-0.0464630126953125 -1552.8399505615234 -1.5045928955078125 -1554.8399505615234 -4.430023193359375 -1556.560043334961C-6.0094451904296875 -1557.469955444336 -7.5758056640625 -1557.9300384521484 -9.095245361328125 -1557.9300384521484C-12.547775268554688 -1557.9300384521484 -15.758071899414062 -1555.5999603271484 -18.328475952148438 -1551.1099700927734C-89.07797241210938 -1426.5799407958984 -146.66197204589844 -1281.8399505615234 -177.9509735107422 -1149.8699798583984C-200.5399627685547 -1054.520004272461 -211.8499755859375 -961.4569549560547 -211.8499755859375 -869.8920135498047C-211.8499755859375 -746.4319915771484 -191.2879638671875 -625.6970062255859 -150.08497619628906 -505.75599670410156C-129.72596740722656 -446.49598693847656 -118.969970703125 -393.62599182128906 -114.88397216796875 -332.72398376464844C-114.56796264648438 -327.9509735107422 -114.41696166992188 -317.41197204589844 -114.41696166992188 -306.36598205566406C-114.41696166992188 -293.00599670410156 -114.63796997070312 -278.90199279785156 -115.0589599609375 -273.35899353027344C-123.823974609375 -157.94598388671875 -167.61497497558594 -69.80567932128906 -245.10397338867188 -11.662582397460938C-251.35496520996094 -6.9832000732421875 -252.01797485351562 -6.0403289794921875 -252.01797485351562 -1.67523193359375C-252.01797485351562 2.6898651123046875 -251.35496520996094 3.6327362060546875 -245.10397338867188 8.312103271484375C-160.38597106933594 71.90283203125 -114.56997680664062 174.2560272216797 -114.4649658203125 300.21502685546875C-114.46296691894531 302.01904296875 -114.46096801757812 303.7060241699219 -114.46096801757812 305.291015625C-114.46096801757812 323.69903564453125 -114.68597412109375 328.34503173828125 -116.03697204589844 344.3890380859375C-120.4019775390625 397.0150451660156 -131.4369659423828 448.1740417480469 -150.08497619628906 502.4060363769531C-155.6019744873047 518.5740051269531 -159.47796630859375 530.2730407714844 -163.00497436523438 541.6920471191406C-195.7249755859375 647.2130432128906 -211.823974609375 754.6850280761719 -211.823974609375 867.6590270996094V868.0260314941406C-211.823974609375 895.7530212402344 -211.61497497558594 904.3790588378906 -210.2879638671875 929.8360290527344C-199.88197326660156 1126.6100158691406 -137.3379669189453 1333.6200256347656 -27.652374267578125 1534.3100891113281C-15.56976318359375 1556.4200744628906 -15.744369506835938 1556.1400451660156 -12.426864624023438 1557.4000549316406Z" fill="black" /></g></svg>