<?xml version="1.0" encoding="utf-8" ?>
<svg baseProfile="tiny" height="100%" version="1.2" width="100%" xmlns="http://www.w3.org/2000/svg" xmlns:ev="http://www.w3.org/2001/xml-events" xmlns:xlink="http://www.w3.org/1999/xlink"><defs /><g transform="translate(0, 1000) scale(1, -1)"><path d="M-13.986297607421875 331.22900390625C-13.682098388671875 331.2569885253906 -13.380996704101562 331.27099609375 -13.08380126953125 331.27099609375C-8.01763916015625 331.27099609375 -4.04925537109375 327.22900390625 -4.04925537109375 322.2250061035156C-4.04925537109375 321.71099853515625 -4.0910491943359375 321.18798828125 -4.1777191162109375 320.6570129394531C-4.3775177001953125 319.4309997558594 -4.6772308349609375 318.7229919433594 -6.039520263671875 316.25299072265625C-18.961395263671875 292.83099365234375 -25.425506591796875 265.7619934082031 -25.425506591796875 234.6750030517578C-25.425506591796875 201.54800415039062 -18.084991455078125 163.85899353027344 -3.39666748046875 121.16200256347656C-1.7074127197265625 116.239990234375 -1.2533111572265625 114.78700256347656 -0.5358428955078125 112.08000183105469L0.0 110.02799987792969V87.74971008300781V65.46250915527344L-0.49951171875 63.537109375C-6.3755645751953125 40.813995361328125 -21.533401489257812 19.680206298828125 -45.66419982910156 0.5262451171875C-46.218292236328125 0.0812225341796875 -46.681396484375 -0.309295654296875 -46.681396484375 -0.3456268310546875C-46.681396484375 -0.3819580078125 -46.218292236328125 -0.7724761962890625 -45.66419982910156 -1.217498779296875C-21.533401489257812 -20.37139892578125 -6.3755645751953125 -41.50520324707031 -0.49951171875 -64.22830200195312L0.0 -66.15370178222656V-88.44090270996094V-110.71900939941406L-0.5358428955078125 -112.77201843261719C-1.253326416015625 -115.48701477050781 -1.707427978515625 -116.91300964355469 -3.4329986572265625 -121.95301818847656C-18.0565185546875 -164.49301147460938 -25.364517211914062 -202.02801513671875 -25.364517211914062 -235.00201416015625C-25.364517211914062 -265.71702575683594 -19.023712158203125 -292.4750213623047 -6.34832763671875 -315.63600158691406C-4.6136627197265625 -318.8240203857422 -4.3866119384765625 -319.33201599121094 -4.177734375 -320.6220245361328C-4.09161376953125 -321.15101623535156 -4.0503387451171875 -321.67100524902344 -4.0503387451171875 -322.1780242919922C-4.0503387451171875 -327.3340301513672 -8.304885864257812 -331.27101135253906 -13.086212158203125 -331.27101135253906C-14.48931884765625 -331.27101135253906 -15.937911987304688 -330.93202209472656 -17.337509155273438 -330.1850128173828C-19.44451904296875 -329.06800842285156 -20.071212768554688 -328.3050079345703 -22.5869140625 -323.75502014160156C-49.714813232421875 -274.71302795410156 -64.40040588378906 -231.92701721191406 -67.96961975097656 -191.5220184326172C-68.57461547851562 -184.68202209472656 -68.87681579589844 -177.89901733398438 -68.87681579589844 -171.1800079345703C-68.87681579589844 -153.489013671875 -66.78181457519531 -136.239013671875 -62.60221862792969 -119.54701232910156C-60.67681884765625 -111.86302185058594 -59.59602355957031 -108.24900817871094 -56.553619384765625 -99.29391479492188C-50.387420654296875 -81.19010925292969 -47.26611328125 -65.1826171875 -47.26611328125 -51.79490661621094C-47.26611328125 -47.317718505859375 -47.61521911621094 -43.133514404296875 -48.31620788574219 -39.26200866699219C-50.741119384765625 -25.88421630859375 -56.81690979003906 -15.494415283203125 -66.58921813964844 -8.029006958007812C-69.57711791992188 -5.749420166015625 -70.76692199707031 -3.5697479248046875 -70.76692199707031 -0.34564208984375C-70.76692199707031 2.8784637451171875 -69.57711791992188 5.0581512451171875 -66.58921813964844 7.3377227783203125C-53.726409912109375 17.160888671875 -47.3076171875 31.652587890625 -47.3076171875 51.0684814453125C-47.3076171875 64.95167541503906 -50.58952331542969 81.35258483886719 -57.1439208984375 100.36497497558594C-65.12701416015625 123.53297424316406 -68.87782287597656 146.01998901367188 -68.88691711425781 170.80398559570312C-68.88691711425781 177.6799774169922 -68.86871337890625 178.4519805908203 -68.51451110839844 184.6549835205078C-66.14411926269531 226.99497985839844 -50.75921630859375 273.34898376464844 -21.960311889648438 324.90797424316406C-19.471817016601562 329.37599182128906 -17.546417236328125 330.8929901123047 -13.986312866210938 331.22898864746094Z" fill="black" /></g></svg>