<?xml version="1.0" encoding="utf-8" ?>
<svg baseProfile="tiny" height="100%" version="1.2" width="100%" xmlns="http://www.w3.org/2000/svg" xmlns:ev="http://www.w3.org/2001/xml-events" xmlns:xlink="http://www.w3.org/1999/xlink"><defs /><g transform="translate(0, 1000) scale(1, -1)"><path d="M-11.969497680664062 9061.7001953125C-11.1602783203125 9061.919921875 -10.315780639648438 9062.0302734375 -9.46722412109375 9062.0302734375C-6.0346527099609375 9062.0302734375 -2.5345001220703125 9060.26953125 -1.02886962890625 9057.4501953125C-0.4227142333984375 9056.2998046875 -0.030609130859375 9055.2998046875 -0.030609130859375 9054.0C-0.030609130859375 9050.23046875 -3.3424224853515625 9043.9404296875 -14.337188720703125 9024.1396484375C-471.8009948730469 8202.2900390625 -739.35498046875 7265.47998046875 -801.6510009765625 6267.759765625C-811.0419921875 6117.18994140625 -815.7139892578125 5965.4501953125 -815.7139892578125 5812.8798828125C-815.7139892578125 4929.47021484375 -659.0869750976562 4018.179931640625 -355.0469970703125 3142.760009765625C-244.73899841308594 2825.139892578125 -195.58599853515625 2545.580078125 -195.58599853515625 2232.889892578125C-195.58599853515625 2225.260009765625 -195.61500549316406 2217.6201171875 -195.67300415039062 2209.949951171875C-196.08200073242188 2151.080078125 -196.49000549316406 2138.429931640625 -199.10299682617188 2087.889892578125C-240.57899475097656 1297.06005859375 -637.2979888916016 552.2030029296875 -1287.040054321289 45.5072021484375C-1304.270034790039 32.03559875488281 -1356.6800689697266 -7.3995208740234375 -1359.699966430664 -9.277374267578125C-1360.229995727539 -9.603973388671875 -1360.500015258789 -9.808074951171875 -1360.500015258789 -10.01220703125C-1360.500015258789 -10.216293334960938 -1360.229995727539 -10.420394897460938 -1359.699966430664 -10.746994018554688C-1356.6800689697266 -12.624893188476562 -1304.270034790039 -52.05999755859375 -1287.040054321289 -65.53160095214844C-637.2979888916016 -572.2280120849609 -240.57899475097656 -1317.0899505615234 -199.10299682617188 -2107.909896850586C-196.49000549316406 -2158.449935913086 -196.08200073242188 -2171.110092163086 -195.67300415039062 -2229.969955444336C-195.61500549316406 -2237.639877319336 -195.58599853515625 -2245.290023803711 -195.58599853515625 -2252.919906616211C-195.58599853515625 -2565.610092163086 -244.73899841308594 -2845.249984741211 -355.0469970703125 -3162.780014038086C-583.2479858398438 -3819.709945678711 -729.7210083007812 -4504.060043334961 -786.5469970703125 -5179.029769897461C-804.68798828125 -5394.609848022461 -813.7100219726562 -5608.439926147461 -813.7100219726562 -5820.040023803711C-813.7100219726562 -6979.859848022461 -542.6649780273438 -8072.870101928711 -16.37841796875 -9020.080062866211C-4.901641845703125 -9040.700180053711 -1.52587890625e-05 -9050.139633178711 -1.52587890625e-05 -9055.089828491211C-1.52587890625e-05 -9058.450180053711 -2.2593231201171875 -9059.740219116211 -6.2542572021484375 -9061.059555053711C-7.903045654296875 -9061.629867553711 -9.214080810546875 -9062.030258178711 -10.417617797851562 -9062.030258178711C-14.637313842773438 -9062.030258178711 -17.535018920898438 -9057.049789428711 -29.033523559570312 -9036.410140991211C-531.1580352783203 -8136.180160522461 -848.9250030517578 -7155.029769897461 -959.1469879150391 -6164.499984741211C-961.1880035400391 -6146.299789428711 -963.2290191650391 -6128.660140991211 -963.7190093994141 -6125.310043334961C-964.8620147705078 -6116.819808959961 -970.4140167236328 -6060.890121459961 -973.8430328369141 -6023.660140991211C-994.1290435791016 -5803.370101928711 -1004.2400054931641 -5583.430160522461 -1004.2400054931641 -5364.330062866211C-1004.2400054931641 -4578.140121459961 -874.0210113525391 -3802.860092163086 -616.3150177001953 -3061.540023803711C-565.4489898681641 -2915.149887084961 -532.5460357666016 -2799.860092163086 -503.31602478027344 -2665.149887084961C-455.67201232910156 -2445.759994506836 -432.49400329589844 -2227.659896850586 -432.49400329589844 -2014.790023803711C-432.49400329589844 -1205.1399993896484 -767.7800445556641 -471.0179901123047 -1367.459976196289 -28.627487182617188C-1382.0699615478516 -17.768585205078125 -1384.770034790039 -15.5640869140625 -1385.5899810791016 -12.951492309570312C-1386.040054321289 -11.627578735351562 -1386.3499908447266 -10.52508544921875 -1386.3499908447266 -9.468231201171875C-1386.3499908447266 -5.6363677978515625 -1382.3700103759766 -2.404022216796875 -1367.459976196289 8.6031494140625C-767.7800445556641 450.9930419921875 -432.49400329589844 1185.1099853515625 -432.49400329589844 1994.760009765625C-432.49400329589844 2207.639892578125 -455.67201232910156 2425.72998046875 -503.31602478027344 2645.1201171875C-532.5460357666016 2779.840087890625 -565.2860260009766 2894.550048828125 -616.3150177001953 3041.510009765625C-850.8839874267578 3716.969970703125 -980.5380401611328 4418.64013671875 -1002.9099884033203 5133.7001953125C-1005.1100006103516 5203.509765625 -1005.4400177001953 5227.10009765625 -1005.9300079345703 5319.85009765625C-1005.9900054931641 5332.740234375 -1006.0200347900391 5345.56982421875 -1006.0200347900391 5358.35986328125C-1006.0200347900391 5635.41015625 -991.5970001220703 5889.7099609375 -960.5349884033203 6163.259765625C-846.3939971923828 7167.91015625 -521.2780303955078 8166.35986328125 -19.154312133789062 9054.509765625C-16.215118408203125 9059.740234375 -15.235321044921875 9060.7197265625 -11.969512939453125 9061.7001953125Z" fill="black" /></g></svg>