<?xml version="1.0" encoding="utf-8" ?>
<svg baseProfile="tiny" height="100%" version="1.2" width="100%" xmlns="http://www.w3.org/2000/svg" xmlns:ev="http://www.w3.org/2001/xml-events" xmlns:xlink="http://www.w3.org/1999/xlink"><defs /><g transform="translate(0, 1000) scale(1, -1)"><path d="M-13.118301391601562 6041.4501953125C-11.982315063476562 6041.990234375 -10.79022216796875 6042.22998046875 -9.6070556640625 6042.22998046875C-4.7271270751953125 6042.22998046875 -1.52587890625e-05 6038.10986328125 -1.52587890625e-05 6033.10986328125C-1.52587890625e-05 6032.7900390625 -0.0194244384765625 6032.4599609375 -0.0594635009765625 6032.14013671875C-0.2635040283203125 6030.64013671875 -3.8002777099609375 6023.5 -8.833358764648438 6014.4501953125C-356.4590301513672 5390.60009765625 -531.7480010986328 4669.830078125 -531.7480010986328 3908.800048828125C-531.7480010986328 3318.419921875 -426.2570037841797 2703.820068359375 -213.89801025390625 2091.429931640625C-145.98802185058594 1895.5999755859375 -112.07600402832031 1696.5699462890625 -112.07600402832031 1498.4300537109375C-112.07600402832031 1275.0699462890625 -155.1710205078125 1052.8499755859375 -241.24002075195312 837.64599609375C-371.0800018310547 513.1480102539062 -605.9350128173828 212.114013671875 -893.7050323486328 1.3366851806640625C-899.5550079345703 -2.9482421875 -904.3839874267578 -6.6210479736328125 -904.3839874267578 -6.8250885009765625C-904.3839874267578 -7.0291290283203125 -899.5550079345703 -10.701889038085938 -893.7050323486328 -14.986892700195312C-678.1670074462891 -172.84898376464844 -484.18800354003906 -390.22398376464844 -352.7160186767578 -621.3379974365234C-192.90101623535156 -902.1409759521484 -112.13201904296875 -1205.0699310302734 -112.13201904296875 -1511.459945678711C-112.13201904296875 -1709.5699310302734 -145.89901733398438 -1909.1199798583984 -213.89801025390625 -2105.080062866211C-425.3830108642578 -2714.439926147461 -530.4270172119141 -3326.449935913086 -530.4270172119141 -3914.550033569336C-530.4270172119141 -4673.279769897461 -355.5840301513672 -5392.229965209961 -8.901382446289062 -6014.359848022461C-2.0340118408203125 -6026.749984741211 -0.0614471435546875 -6030.609848022461 -0.0614471435546875 -6033.419906616211C-0.0614471435546875 -6034.279769897461 -0.2477569580078125 -6035.049789428711 -0.5355682373046875 -6035.919906616211C-1.8488616943359375 -6039.910140991211 -5.8008880615234375 -6042.229965209961 -9.663299560546875 -6042.229965209961C-12.001907348632812 -6042.229965209961 -14.3076171875 -6041.379867553711 -15.97491455078125 -6039.529769897461C-18.21942138671875 -6037.080062866211 -48.69001770019531 -5981.990219116211 -74.12751770019531 -5934.310043334961C-450.9970245361328 -5228.520004272461 -661.1630401611328 -4464.240219116211 -687.4850006103516 -3704.449935913086C-689.2530059814453 -3653.639877319336 -689.5930328369141 -3633.509994506836 -690.0009918212891 -3569.439926147461C-690.0550079345703 -3560.159896850586 -690.0819854736328 -3550.879867553711 -690.0819854736328 -3541.620101928711C-690.0819854736328 -3106.889877319336 -630.7240142822266 -2684.800033569336 -510.9860076904297 -2268.320053100586C-487.04502868652344 -2184.999984741211 -475.3470001220703 -2148.409896850586 -424.4720001220703 -1997.959945678711C-348.63002014160156 -1773.5699310302734 -310.7270050048828 -1543.6500091552734 -310.7270050048828 -1320.189926147461C-310.7270050048828 -1093.1399993896484 -349.8550262451172 -872.7759857177734 -428.0760040283203 -671.6689910888672C-531.2550201416016 -406.27598571777344 -695.6460113525391 -186.72398376464844 -912.2050323486328 -24.848983764648438C-924.4820098876953 -15.70098876953125 -930.6200103759766 -11.263076782226562 -930.6200103759766 -6.8250885009765625C-930.6200103759766 -2.3871307373046875 -924.4820098876953 2.05084228515625 -912.2050323486328 11.198822021484375C-522.8449859619141 302.1610412597656 -310.60801696777344 777.8280334472656 -310.60801696777344 1305.5699768066406C-310.60801696777344 1507.4000549316406 -341.65000915527344 1716.8500061035156 -405.6990203857422 1926.4900207519531C-412.6370086669922 1949.2099914550781 -417.3300018310547 1963.3600158691406 -450.11302185058594 2060.139923095703C-610.2150421142578 2533.250030517578 -691.5609893798828 3031.830108642578 -691.5609893798828 3537.100128173828C-691.5609893798828 3599.580108642578 -690.3170318603516 3662.159942626953 -687.8250274658203 3724.800079345703C-656.6060333251953 4508.270050048828 -430.66102600097656 5294.240264892578 -28.965713500976562 6017.169952392578C-16.519012451171875 6039.549835205078 -16.178909301757812 6040.089874267578 -13.118316650390625 6041.450225830078Z" fill="black" /></g></svg>