<?xml version="1.0" encoding="utf-8" ?>
<svg baseProfile="tiny" height="100%" version="1.2" width="100%" xmlns="http://www.w3.org/2000/svg" xmlns:ev="http://www.w3.org/2001/xml-events" xmlns:xlink="http://www.w3.org/1999/xlink"><defs /><g transform="translate(0, 1000) scale(1, -1)"><path d="M-11.548995971679688 3256.669921875C-10.695281982421875 3256.89990234375 -9.851638793945312 3257.010009765625 -9.032821655273438 3257.010009765625C-4.1638946533203125 3257.010009765625 -0.173065185546875 3253.139892578125 -0.173065185546875 3247.8701171875C-0.173065185546875 3247.840087890625 -0.1731719970703125 3247.81005859375 -0.1733856201171875 3247.780029296875C-0.1733856201171875 3244.659912109375 -0.319854736328125 3244.419921875 -5.7879486083984375 3234.60009765625C-164.75299072265625 2950.64990234375 -256.1489715576172 2614.02001953125 -271.0399932861328 2258.159912109375C-272.7479705810547 2216.219970703125 -272.9929962158203 2204.31005859375 -272.9929962158203 2147.090087890625C-272.9929962158203 2081.760009765625 -272.2109832763672 2050.81005859375 -269.3309783935547 1998.4200439453125C-255.36798095703125 1747.469970703125 -207.9119873046875 1490.8599853515625 -128.5269775390625 1237.77001953125C-117.98197937011719 1204.1300048828125 -113.83198547363281 1191.6300048828125 -90.05528259277344 1121.5699462890625C-57.326080322265625 1025.3299560546875 -40.91558837890625 924.31298828125 -40.91558837890625 822.9860229492188C-40.91558837890625 736.281982421875 -52.931182861328125 649.35302734375 -77.01968383789062 564.9979858398438C-139.07298278808594 347.83599853515625 -277.8259735107422 151.91200256347656 -474.8729705810547 3.101593017578125C-479.5599822998047 -0.4624481201171875 -483.41697692871094 -3.5382537841796875 -483.41697692871094 -3.7823638916015625C-483.41697692871094 -4.0264892578125 -479.5599822998047 -7.102294921875 -474.8729705810547 -10.66632080078125C-277.8259735107422 -159.47702026367188 -139.07298278808594 -355.40101623535156 -77.01968383789062 -572.5620269775391C-52.93757629394531 -656.8720245361328 -40.93238830566406 -743.9010162353516 -40.93238830566406 -830.6630401611328C-40.93238830566406 -932.1090240478516 -57.344879150390625 -1033.189956665039 -90.05528259277344 -1129.1400299072266C-132.72598266601562 -1254.3199615478516 -156.99098205566406 -1334.969985961914 -181.2069854736328 -1432.3199615478516C-242.32298278808594 -1678.1700592041016 -272.6859893798828 -1918.9300689697266 -272.6859893798828 -2150.149917602539C-272.6859893798828 -2529.760025024414 -190.84397888183594 -2883.639907836914 -28.880889892578125 -3192.120132446289C-20.629989624023438 -3207.850112915039 -5.10443115234375 -3236.500015258789 -1.882171630859375 -3241.919937133789C-0.595947265625 -3244.100112915039 1.52587890625e-05 -3246.290054321289 1.52587890625e-05 -3248.300064086914C1.52587890625e-05 -3253.179946899414 -3.47930908203125 -3257.010025024414 -9.107864379882812 -3257.010025024414H-9.94146728515625C-14.94970703125 -3257.010025024414 -15.093505859375 -3256.479995727539 -26.781600952148438 -3235.330093383789C-240.03799438476562 -2850.370132446289 -365.8039855957031 -2435.330093383789 -390.89801025390625 -2033.5699615478516C-394.25799560546875 -1979.699966430664 -395.9410095214844 -1926.270034790039 -395.9410095214844 -1873.229995727539C-395.9410095214844 -1603.3199615478516 -352.3429870605469 -1343.5699615478516 -264.2049865722656 -1087.3900299072266C-220.802001953125 -961.1389923095703 -200.197998046875 -858.5150299072266 -193.5590057373047 -735.1410064697266C-193.11900329589844 -727.3050079345703 -192.89999389648438 -706.1400299072266 -192.89999389648438 -685.0370025634766C-192.89999389648438 -663.9329986572266 -193.11900329589844 -642.8910064697266 -193.5590057373047 -635.2990264892578C-208.44900512695312 -369.4130096435547 -315.5660095214844 -151.66500854492188 -497.8680114746094 -16.720321655273438C-507.87701416015625 -9.299301147460938 -508.7560119628906 -8.274032592773438 -508.7560119628906 -3.782379150390625C-508.7560119628906 0.709259033203125 -507.87701416015625 1.734527587890625 -497.8680114746094 9.155532836914062C-303.2619934082031 153.22996520996094 -192.9239959716797 395.0959777832031 -192.9239959716797 677.5329895019531C-192.9239959716797 702.3349914550781 -193.16799926757812 720.2039489746094 -193.5590057373047 727.5759582519531C-200.197998046875 850.5599670410156 -220.9969940185547 954.5019836425781 -263.9599914550781 1079.0999450683594C-352.5409851074219 1335.9699401855469 -396.7250061035156 1598.9599304199219 -396.7250061035156 1869.7399597167969C-396.7250061035156 1929.9799499511719 -394.5379943847656 1990.6099548339844 -390.1659851074219 2051.639862060547C-361.65399169921875 2449.149871826172 -236.47300720214844 2856.820037841797 -26.830398559570312 3235.090057373047C-15.259506225585938 3255.939910888672 -15.50360107421875 3255.600067138672 -11.548995971679688 3256.669891357422Z" fill="black" /></g></svg>