<?xml version="1.0" encoding="utf-8" ?>
<svg baseProfile="tiny" height="100%" version="1.2" width="100%" xmlns="http://www.w3.org/2000/svg" xmlns:ev="http://www.w3.org/2001/xml-events" xmlns:xlink="http://www.w3.org/1999/xlink"><defs /><g transform="translate(0, 1000) scale(1, -1)"><path d="M-18.664306640625 902.9710083007812C-17.706100463867188 903.3150024414062 -16.729293823242188 903.4769897460938 -15.767593383789062 903.4769897460938C-11.239105224609375 903.4769897460938 -7.044097900390625 899.905029296875 -6.6906280517578125 895.0809936523438C-6.6675262451171875 894.7579956054688 -6.65435791015625 894.4559936523438 -6.65435791015625 894.1669921875C-6.65435791015625 892.2449951171875 -7.234344482421875 890.8519897460938 -9.337448120117188 887.0399780273438C-37.696197509765625 835.8170166015625 -56.62730407714844 778.3179931640625 -65.727294921875 715.8790283203125C-69.77149963378906 688.0830078125 -71.78298950195312 659.0250244140625 -71.78298950195312 628.8670043945312C-71.78298950195312 536.0869750976562 -52.744903564453125 432.89801025390625 -15.2864990234375 324.02301025390625C-6.4637603759765625 298.33599853515625 -2.102813720703125 278.0190124511719 -0.59033203125 255.33200073242188C-0.1965484619140625 249.41900634765625 0.0 243.53900146484375 0.0 237.69500732421875C0.0 149.63800048828125 -44.621490478515625 69.5548095703125 -131.4949951171875 2.018341064453125C-133.53599548339844 0.4302520751953125 -135.1999969482422 -0.9561767578125 -135.1999969482422 -1.0318145751953125C-135.1999969482422 -1.1074371337890625 -133.53599548339844 -2.493865966796875 -131.4949951171875 -4.0819549560546875C-44.621490478515625 -71.618408203125 0.0 -151.70199584960938 0.0 -239.75900268554688C0.0 -245.60299682617188 -0.1965484619140625 -251.48199462890625 -0.59033203125 -257.3949890136719C-2.102813720703125 -279.8299865722656 -6.4889678955078125 -300.5509948730469 -15.034393310546875 -325.3559875488281C-52.708099365234375 -434.68701171875 -71.53768920898438 -536.239990234375 -71.53768920898438 -628.5670166015625C-71.53768920898438 -725.4609985351562 -50.79859924316406 -812.1929931640625 -9.337448120117188 -887.0869750976562C-7.234344482421875 -890.8989868164062 -6.65435791015625 -892.2919921875 -6.65435791015625 -894.2139892578125C-6.65435791015625 -894.5029907226562 -6.6675262451171875 -894.8049926757812 -6.6906280517578125 -895.1279907226562C-7.061737060546875 -900.2050170898438 -11.41729736328125 -903.4769897460938 -15.875 -903.4769897460938C-18.078994750976562 -903.4769897460938 -20.307891845703125 -902.677001953125 -22.092605590820312 -900.9010009765625C-22.848800659179688 -900.1190185546875 -24.436904907226562 -897.5479736328125 -27.360992431640625 -892.2540283203125C-105.22799682617188 -751.4849853515625 -144.0399932861328 -618.2059936523438 -144.0399932861328 -490.60400390625C-144.0399932861328 -421.947998046875 -132.8040008544922 -354.93499755859375 -110.3699951171875 -289.2829895019531C-97.48919677734375 -251.57200622558594 -90.35540771484375 -219.1300048828125 -87.70860290527344 -185.93099975585938C-87.06640625 -177.97300720214844 -86.74800109863281 -170.16400146484375 -86.74800109863281 -162.5189971923828C-86.74800109863281 -96.92829895019531 -110.18600463867188 -43.32929992675781 -153.80299377441406 -10.232696533203125C-158.69400024414062 -6.5271148681640625 -159.9040069580078 -4.6869354248046875 -159.9040069580078 -1.0318145751953125C-159.9040069580078 2.6233367919921875 -158.74400329589844 4.4130859375 -153.87899780273438 8.093414306640625C-109.47900390625 41.873992919921875 -86.84089660644531 94.36819458007812 -86.84089660644531 159.8350067138672C-86.84089660644531 198.32699584960938 -94.66680908203125 241.3040008544922 -110.49600219726562 287.5979919433594C-132.99600219726562 353.3599853515625 -144.26100158691406 420.54901123046875 -144.26100158691406 489.41400146484375C-144.26100158691406 613.5900268554688 -107.63200378417969 743.2119750976562 -34.19239807128906 879.72900390625C-22.79840087890625 900.9039916992188 -22.26910400390625 901.6849975585938 -18.664306640625 902.9710083007812Z" fill="black" /></g></svg>