<?xml version="1.0" encoding="utf-8" ?>
<svg baseProfile="tiny" height="100%" version="1.2" width="100%" xmlns="http://www.w3.org/2000/svg" xmlns:ev="http://www.w3.org/2001/xml-events" xmlns:xlink="http://www.w3.org/1999/xlink"><defs /><g transform="translate(0, 1000) scale(1, -1)"><path d="M-10.886795043945312 1428.7900390625C-10.252182006835938 1428.9200439453125 -9.625350952148438 1428.97998046875 -9.012252807617188 1428.97998046875C-4.0581817626953125 1428.97998046875 -0.0019989013671875 1425.0 -0.0019989013671875 1419.72998046875C-0.0019989013671875 1419.530029296875 1.52587890625e-05 1419.3499755859375 1.52587890625e-05 1419.1800537109375C1.52587890625e-05 1417.219970703125 -0.271331787109375 1416.8199462890625 -7.1091461181640625 1404.300048828125C-75.22608947753906 1279.510009765625 -109.51399230957031 1134.93994140625 -109.51399230957031 972.3800048828125C-109.51399230957031 969.9130249023438 -109.5059814453125 967.4420166015625 -109.48997497558594 964.9669799804688C-109.32998657226562 939.0999755859375 -109.20198059082031 933.4660034179688 -108.30598449707031 915.281005859375C-102.06298828125 788.281005859375 -73.57048034667969 646.9710083007812 -26.893890380859375 511.5830078125C-15.432785034179688 478.35198974609375 -10.278579711914062 458.5360107421875 -6.212738037109375 432.3479919433594C-2.9967803955078125 411.60400390625 -1.4081878662109375 390.9169921875 -1.4081878662109375 370.3689880371094C-1.4081878662109375 232.80299377441406 -72.61439514160156 101.52700805664062 -203.3879852294922 1.9498138427734375C-205.75698852539062 0.1250152587890625 -207.70999145507812 -1.4756927490234375 -207.70999145507812 -1.6037445068359375C-207.70999145507812 -1.7318115234375 -205.75698852539062 -3.3325042724609375 -203.3879852294922 -5.157318115234375C-157.89598083496094 -39.796600341796875 -116.50198364257812 -81.63909912109375 -85.57579040527344 -124.21800231933594C-30.0286865234375 -200.7239990234375 -1.36175537109375 -286.39898681640625 -1.36175537109375 -373.5429992675781C-1.36175537109375 -399.8059997558594 -3.9655609130859375 -426.2030029296875 -9.222076416015625 -452.52301025390625C-13.191787719726562 -472.4360046386719 -17.449691772460938 -487.35400390625 -27.053985595703125 -515.27099609375C-81.30778503417969 -672.72998046875 -109.42198181152344 -831.4810180664062 -109.42198181152344 -976.1740112304688C-109.42198181152344 -1019.3200073242188 -106.92298889160156 -1061.2099609375 -101.87098693847656 -1101.449951171875C-87.97688293457031 -1212.3499755859375 -55.86668395996094 -1314.8900146484375 -7.1091461181640625 -1404.300048828125C-0.271331787109375 -1416.8299560546875 1.52587890625e-05 -1417.22998046875 1.52587890625e-05 -1419.1800537109375C1.52587890625e-05 -1419.3499755859375 -0.0019989013671875 -1419.530029296875 -0.0019989013671875 -1419.72998046875C-0.0019989013671875 -1425.1199951171875 -4.1905975341796875 -1428.97998046875 -9.019027709960938 -1428.97998046875C-10.249282836914062 -1428.97998046875 -11.521087646484375 -1428.72998046875 -12.775680541992188 -1428.18994140625C-15.848983764648438 -1426.8399658203125 -17.161590576171875 -1424.699951171875 -32.01618957519531 -1397.0999755859375C-141.50299072265625 -1193.3599853515625 -197.2139892578125 -989.0770263671875 -197.2139892578125 -793.468994140625C-197.2139892578125 -745.25 -193.82798767089844 -697.5579833984375 -187.02899169921875 -650.531005859375C-177.80899047851562 -586.7260131835938 -164.87498474121094 -533.198974609375 -142.8809814453125 -468.0820007324219C-120.15098571777344 -400.6600036621094 -110.06698608398438 -349.885986328125 -107.95399475097656 -292.1000061035156C-107.74897766113281 -286.5140075683594 -107.64799499511719 -280.96600341796875 -107.64799499511719 -275.4599914550781C-107.64799499511719 -163.60400390625 -149.57199096679688 -68.72239685058594 -224.3569793701172 -12.488601684570312C-231.7839813232422 -6.9181060791015625 -232.6169891357422 -5.829620361328125 -232.6169891357422 -1.6037445068359375C-232.6169891357422 2.62213134765625 -231.84799194335938 3.6145782470703125 -224.3569793701172 9.281082153320312C-148.9119873046875 66.26240539550781 -107.71598815917969 160.35801696777344 -107.71598815917969 272.9130096435547C-107.71598815917969 287.40101623535156 -108.39799499511719 302.19602966308594 -109.77897644042969 317.2570037841797C-114.260986328125 366.1430206298828 -123.48098754882812 407.3450164794922 -142.75299072265625 464.42601013183594C-154.02198791503906 497.81700134277344 -159.36798095703125 515.7769927978516 -166.8599853515625 545.1980133056641C-187.32998657226562 625.6680450439453 -197.51998901367188 708.1530303955078 -197.51998901367188 792.1010284423828C-197.51998901367188 995.6729888916016 -137.59799194335938 1207.8499908447266 -19.050384521484375 1420.780044555664C-15.784988403320312 1426.6800689697266 -14.344390869140625 1428.0799713134766 -10.88677978515625 1428.790054321289Z" fill="black" /></g></svg>