<?xml version="1.0" encoding="utf-8" ?>
<svg baseProfile="tiny" height="100%" version="1.2" width="100%" xmlns="http://www.w3.org/2000/svg" xmlns:ev="http://www.w3.org/2001/xml-events" xmlns:xlink="http://www.w3.org/1999/xlink"><defs /><g transform="translate(0, 1000) scale(1, -1)"><path d="M-11.444198608398438 1863.6099853515625C-10.619888305664062 1863.8199462890625 -9.803695678710938 1863.9200439453125 -9.009246826171875 1863.9200439453125C-4.087127685546875 1863.9200439453125 1.52587890625e-05 1860.0699462890625 1.52587890625e-05 1854.8299560546875L-0.0380096435546875 1851.97998046875L-5.77911376953125 1841.52001953125C-100.26296997070312 1669.1700439453125 -147.78897094726562 1470.3900146484375 -147.78897094726562 1253.75C-147.78897094726562 1099.199951171875 -123.59896850585938 935.5469970703125 -75.01457214355469 765.9199829101562C-64.33078002929688 728.6220092773438 -56.23246765136719 703.1859741210938 -36.91796875 646.3460083007812C-18.75006103515625 592.8469848632812 -9.80133056640625 536.2680053710938 -9.80133056640625 479.5920104980469C-9.80133056640625 390.49798583984375 -31.914566040039062 301.1629943847656 -75.09066772460938 223.17599487304688L-81.24996948242188 212.07400512695312C-123.2249755859375 136.18499755859375 -190.06497192382812 61.018707275390625 -267.9689636230469 2.124755859375C-270.82098388671875 -0.04241943359375 -273.177978515625 -1.9434356689453125 -273.177978515625 -2.0955352783203125C-273.177978515625 -2.24761962890625 -270.82098388671875 -4.148651123046875 -267.9689636230469 -6.315826416015625C-190.14097595214844 -65.17170715332031 -123.2249755859375 -140.3760223388672 -81.2879638671875 -216.15101623535156L-74.93856811523438 -227.63401794433594C-61.061065673828125 -252.7650146484375 -46.194976806640625 -287.4020233154297 -35.96746826171875 -318.4650115966797C-18.3720703125 -372.04200744628906 -9.578964233398438 -427.9350128173828 -9.578964233398438 -483.63502502441406C-9.578964233398438 -540.3499908447266 -18.695266723632812 -596.8660430908203 -36.91796875 -650.5370025634766L-55.8521728515625 -706.9970245361328C-116.9539794921875 -897.6460113525391 -147.40597534179688 -1081.8700103759766 -147.40597534179688 -1254.969985961914C-147.40597534179688 -1470.8199615478516 -100.05596923828125 -1669.3800201416016 -5.7410736083984375 -1841.530044555664L-0.0379791259765625 -1851.990005493164L4.57763671875e-05 -1854.8399810791016C4.57763671875e-05 -1860.560073852539 -4.2272491455078125 -1863.9200592041016 -8.729141235351562 -1863.9200592041016C-11.707962036132812 -1863.9200592041016 -14.806961059570312 -1862.449966430664 -16.881057739257812 -1859.209976196289C-22.698257446289062 -1850.199966430664 -46.38505554199219 -1805.6800689697266 -62.27764892578125 -1773.8600006103516C-183.50296020507812 -1531.530044555664 -245.23895263671875 -1285.760025024414 -245.23895263671875 -1048.300064086914C-245.23895263671875 -989.3419952392578 -241.4339599609375 -930.8990020751953 -233.78895568847656 -873.1469879150391C-221.84996032714844 -782.8480377197266 -202.7259521484375 -702.3969879150391 -171.282958984375 -610.4250030517578C-142.7809600830078 -526.9690093994141 -128.84695434570312 -446.01600646972656 -128.84695434570312 -370.72300720214844C-128.84695434570312 -219.82801818847656 -184.8089599609375 -91.66311645507812 -291.6179656982422 -11.638717651367188C-297.0929412841797 -7.5324859619140625 -298.08094787597656 -6.08770751953125 -298.08094787597656 -2.095550537109375C-298.08094787597656 1.8966217041015625 -297.0929412841797 3.341400146484375 -291.6179656982422 7.4476318359375C-184.8089599609375 87.47198486328125 -128.84695434570312 215.67098999023438 -128.84695434570312 366.5659942626953C-128.84695434570312 441.85899353027344 -142.7809600830078 522.8040008544922 -171.282958984375 606.2339935302734C-202.00296020507812 696.0389862060547 -220.21495056152344 771.4329681396484 -232.83795166015625 860.9719696044922C-241.4359588623047 921.8959808349609 -245.70794677734375 983.6979827880859 -245.70794677734375 1046.1299896240234C-245.70794677734375 1308.6299896240234 -170.17495727539062 1582.249984741211 -23.078460693359375 1848.3699798583984C-15.85455322265625 1861.449935913086 -14.866058349609375 1862.739974975586 -11.44415283203125 1863.6099700927734Z" fill="black" /></g></svg>