<?xml version="1.0" encoding="utf-8" ?>
<svg baseProfile="tiny" height="100%" version="1.2" width="100%" xmlns="http://www.w3.org/2000/svg" xmlns:ev="http://www.w3.org/2001/xml-events" xmlns:xlink="http://www.w3.org/1999/xlink"><defs /><g transform="translate(0, 1000) scale(1, -1)"><path d="M-12.268905639648438 2851.469970703125C-11.23760986328125 2851.7900390625 -10.21771240234375 2851.93994140625 -9.233657836914062 2851.93994140625C-4.276031494140625 2851.93994140625 -0.2281494140625 2848.1298828125 -0.2281494140625 2842.820068359375C-0.2281494140625 2839.840087890625 -0.2739410400390625 2839.800048828125 -6.7292327880859375 2828.169921875C-159.63101196289062 2552.25 -236.52700805664062 2230.35009765625 -236.52700805664062 1885.5C-236.52700805664062 1599.1500244140625 -183.50701904296875 1296.97998046875 -76.95912170410156 992.1630249023438C-46.5631103515625 905.2000122070312 -31.383407592773438 814.5750122070312 -31.383407592773438 723.7940063476562C-31.383407592773438 627.6589965820312 -48.405914306640625 531.3489990234375 -82.40721130371094 439.0220031738281C-144.16702270507812 271.3680114746094 -259.5390167236328 120.14900207519531 -415.24400329589844 2.7635955810546875C-420.5490264892578 -1.2523040771484375 -422.2830047607422 -2.5020294189453125 -422.2830047607422 -3.271514892578125C-422.2830047607422 -3.677520751953125 -421.8000030517578 -3.9498291015625 -421.10401916503906 -4.4242095947265625C-420.28001403808594 -4.973602294921875 -415.24400329589844 -8.773513793945312 -409.97901916503906 -12.802398681640625C-210.09400939941406 -165.21099853515625 -79.06510925292969 -373.20001220703125 -42.39361572265625 -596.114013671875C-35.055419921875 -640.7440185546875 -31.401718139648438 -685.5079956054688 -31.401718139648438 -730.0759887695312C-31.401718139648438 -821.198974609375 -46.67530822753906 -911.5029907226562 -76.95912170410156 -998.1729736328125C-183.0980224609375 -1301.7900390625 -235.9140167236328 -1602.760009765625 -235.9140167236328 -1888.0C-235.9140167236328 -2231.719970703125 -159.2230224609375 -2552.60009765625 -6.7292327880859375 -2827.77001953125C-2.1625823974609375 -2835.989990234375 -1.52587890625e-05 -2840.7099609375 -1.52587890625e-05 -2843.9599609375C-1.52587890625e-05 -2846.580078125 -1.39990234375 -2848.239990234375 -4.0738525390625 -2850.02001953125C-5.96307373046875 -2851.260009765625 -7.6291961669921875 -2851.93994140625 -9.232452392578125 -2851.93994140625C-13.301620483398438 -2851.93994140625 -16.9658203125 -2847.570068359375 -22.844619750976562 -2836.919921875C-240.59400939941406 -2444.139892578125 -352.43101501464844 -2035.3900146484375 -352.43101501464844 -1632.5999755859375C-352.43101501464844 -1627.8800048828125 -352.41600036621094 -1623.1500244140625 -352.38502502441406 -1618.4300537109375C-352.11000061035156 -1580.2900390625 -351.92701721191406 -1570.3599853515625 -350.69102478027344 -1542.4300537109375C-342.58802795410156 -1356.8800048828125 -312.00502014160156 -1181.989990234375 -257.02101135253906 -1006.1900024414062C-252.6260223388672 -992.0380249023438 -248.7340087890625 -980.3179931640625 -232.3900146484375 -932.155029296875C-193.3170166015625 -816.7449951171875 -174.3330078125 -702.2369995117188 -174.3330078125 -593.5999755859375C-174.3330078125 -355.4939880371094 -265.53102111816406 -145.59100341796875 -436.3040008544922 -16.190200805664062C-446.9250030517578 -8.132568359375 -447.52000427246094 -7.4458465576171875 -447.52000427246094 -3.0049591064453125C-447.52000427246094 1.4359130859375 -446.9250030517578 2.122650146484375 -436.3040008544922 10.1802978515625C-265.3620147705078 139.71600341796875 -174.43801879882812 348.7619934082031 -174.43801879882812 586.77099609375C-174.43801879882812 699.2930297851562 -194.760009765625 818.2880249023438 -236.55601501464844 938.4149780273438C-314.28102111816406 1161.9200439453125 -353.25901794433594 1393.050048828125 -353.25901794433594 1629.969970703125C-353.25901794433594 1691.27001953125 -350.6490020751953 1752.9599609375 -345.42601013183594 1815.010009765625C-317.54502868652344 2145.780029296875 -213.25302124023438 2484.85009765625 -41.523712158203125 2803.219970703125L-20.326507568359375 2841.89990234375C-16.892898559570312 2848.0400390625 -14.649505615234375 2850.739990234375 -12.268905639648438 2851.469970703125Z" fill="black" /></g></svg>