<?xml version="1.0" encoding="utf-8" ?>
<svg baseProfile="tiny" height="100%" version="1.2" width="100%" xmlns="http://www.w3.org/2000/svg" xmlns:ev="http://www.w3.org/2001/xml-events" xmlns:xlink="http://www.w3.org/1999/xlink"><defs /><g transform="translate(0, 1000) scale(1, -1)"><path d="M-13.119796752929688 9878.669921875C-12.234283447265625 9879.0498046875 -11.154388427734375 9879.23046875 -10.010391235351562 9879.23046875C-7.2841033935546875 9879.23046875 -4.194183349609375 9878.2197265625 -2.505889892578125 9876.5302734375C-0.9292755126953125 9874.9599609375 1.52587890625e-05 9873.5703125 1.52587890625e-05 9871.4697265625C1.52587890625e-05 9867.41015625 -3.467559814453125 9860.6796875 -12.434982299804688 9844.7802734375C-83.56507873535156 9718.1796875 -163.33998107910156 9562.1396484375 -231.13198852539062 9416.7998046875C-672.0229797363281 8471.9501953125 -893.3439636230469 7417.85986328125 -893.3439636230469 6322.4599609375C-893.3439636230469 5367.77978515625 -725.2349548339844 4381.72998046875 -387.85797119140625 3409.260009765625C-315.0159606933594 3199.2099609375 -271.2769775390625 3017.570068359375 -243.4579620361328 2809.22998046875C-226.4109649658203 2681.68994140625 -218.03697204589844 2554.110107421875 -218.03697204589844 2427.169921875C-218.03697204589844 1497.3399658203125 -667.3029632568359 602.22802734375 -1447.699935913086 15.9854736328125C-1466.959945678711 1.519744873046875 -1482.800033569336 -10.720428466796875 -1482.800033569336 -11.1484375C-1482.800033569336 -11.576431274414062 -1466.959945678711 -23.816635131835938 -1447.699935913086 -38.28233337402344C-661.3119964599609 -629.0290374755859 -218.26097106933594 -1524.8700408935547 -218.26097106933594 -2451.129928588867C-218.26097106933594 -2690.750045776367 -247.9109649658203 -2932.409957885742 -308.93896484375 -3171.340133666992C-334.27496337890625 -3270.460006713867 -351.6509704589844 -3327.040084838867 -396.41796875 -3456.379928588867C-724.0879821777344 -4403.049850463867 -890.8219909667969 -5384.040084838867 -890.8219909667969 -6335.790084838867C-890.8219909667969 -6785.020065307617 -853.6759948730469 -7227.740280151367 -778.7739562988281 -7657.250045776367C-694.9759826660156 -8137.609909057617 -572.0599670410156 -8580.049850463867 -398.3859558105469 -9026.440475463867C-293.7879638671875 -9295.210006713867 -155.636962890625 -9588.540084838867 -16.885971069335938 -9836.690475463867C-4.3842620849609375 -9859.040084838867 -0.0255889892578125 -9867.160202026367 -0.0255889892578125 -9871.599655151367C-0.0255889892578125 -9873.750045776367 -1.053985595703125 -9875.040084838867 -2.67706298828125 -9876.660202026367C-4.3372650146484375 -9878.360397338867 -6.8671722412109375 -9879.230514526367 -9.356185913085938 -9879.230514526367C-11.743576049804688 -9879.230514526367 -14.093368530273438 -9878.469772338867 -15.602066040039062 -9876.919967651367C-19.7962646484375 -9872.549850463867 -87.16006469726562 -9749.549850463867 -132.35496520996094 -9663.780319213867C-619.9080047607422 -8737.379928588867 -934.8149871826172 -7714.939987182617 -1041.979965209961 -6710.730026245117C-1044.1199798583984 -6690.700241088867 -1046.5999603271484 -6668.020065307617 -1047.540023803711 -6660.230026245117C-1048.489974975586 -6652.439987182617 -1050.3699798583984 -6634.379928588867 -1051.8199310302734 -6620.000045776367C-1076.499984741211 -6366.250045776367 -1088.790023803711 -6112.669967651367 -1088.790023803711 -5860.020065307617C-1088.790023803711 -5003.169967651367 -947.4080047607422 -4157.000045776367 -668.1840057373047 -3351.520065307617C-615.0289764404297 -3198.220016479492 -582.7599945068359 -3088.570114135742 -552.8870086669922 -2959.919967651367C-493.7369842529297 -2704.689987182617 -464.98997497558594 -2450.720016479492 -464.98997497558594 -2203.159957885742C-464.98997497558594 -1315.8101043701172 -834.3300018310547 -510.8480682373047 -1496.749984741211 -25.442977905273438C-1505.540023803711 -19.021469116210938 -1510.239974975586 -15.374176025390625 -1510.239974975586 -11.46337890625C-1510.239974975586 -6.87713623046875 -1503.770004272461 -1.928497314453125 -1489.8199310302734 8.281768798828125C-943.8879852294922 408.3559265136719 -582.3319549560547 1052.1199645996094 -489.5459747314453 1789.3599548339844C-472.99598693847656 1920.7699890136719 -464.7229766845703 2052.560028076172 -464.7229766845703 2184.719940185547C-464.7229766845703 2556.300018310547 -530.1240081787109 2930.759979248047 -660.8229827880859 3307.830047607422C-947.9899749755859 4135.979949951172 -1091.060043334961 4979.379852294922 -1091.060043334961 5844.979949951172C-1091.060043334961 6021.470184326172 -1085.1099700927734 6198.890106201172 -1073.219955444336 6377.290008544922C-1067.5699310302734 6461.089813232422 -1057.050033569336 6586.149871826172 -1051.4000091552734 6636.649871826172C-1050.6299896240234 6642.810028076172 -1048.4000091552734 6663.950164794922 -1046.259994506836 6683.720184326172C-928.1389617919922 7782.259735107422 -585.6699676513672 8853.059539794922 -36.40177917480469 9840.919891357422C-17.142776489257812 9875.679656982422 -16.029983520507812 9877.389617919922 -13.119781494140625 9878.669891357422Z" fill="black" /></g></svg>