<?xml version="1.0" encoding="utf-8" ?>
<svg baseProfile="tiny" height="100%" version="1.2" width="100%" xmlns="http://www.w3.org/2000/svg" xmlns:ev="http://www.w3.org/2001/xml-events" xmlns:xlink="http://www.w3.org/1999/xlink"><defs /><g transform="translate(0, 1000) scale(1, -1)"><path d="M-12.12030029296875 1720.6099853515625C-11.155593872070312 1721.0 -10.1820068359375 1721.1800537109375 -9.228286743164062 1721.1800537109375C-4.3551025390625 1721.1800537109375 0.0 1716.550048828125 0.0 1711.6500244140625C0.0 1710.4000244140625 -0.286956787109375 1709.1300048828125 -0.92578125 1707.9100341796875L-6.75115966796875 1697.2099609375C-92.36669921875 1540.6500244140625 -135.3090057373047 1358.6300048828125 -135.3090057373047 1160.6199951171875C-135.3090057373047 988.4439697265625 -102.843994140625 804.1849975585938 -37.73789978027344 614.072998046875C-30.789596557617188 593.8250122070312 -28.543701171875 586.947021484375 -26.157394409179688 578.6300048828125C-13.203598022460938 533.5750122070312 -6.8641510009765625 488.2099914550781 -6.8641510009765625 443.2510070800781C-6.8641510009765625 279.08599853515625 -91.39041137695312 120.33999633789062 -247.06500244140625 1.882720947265625C-249.66200256347656 -0.08245849609375 -251.80299377441406 -1.83709716796875 -251.80299377441406 -1.9774627685546875C-251.80300903320312 -2.1178436279296875 -249.66201782226562 -3.8724822998046875 -247.0650177001953 -5.8376617431640625C-155.19300842285156 -75.77720642089844 -85.84991455078125 -161.9650115966797 -46.265411376953125 -255.4860076904297C-20.0919189453125 -317.33702087402344 -6.9301300048828125 -382.75401306152344 -6.9301300048828125 -447.91700744628906C-6.9301300048828125 -500.17701721191406 -15.395614624023438 -552.2740020751953 -32.40382385253906 -602.2370147705078C-60.653411865234375 -685.2310333251953 -76.37492370605469 -739.1680450439453 -91.92091369628906 -806.4760284423828C-120.65901184082031 -930.8709869384766 -134.97201538085938 -1050.560073852539 -134.97201538085938 -1164.4000396728516C-134.97201538085938 -1362.780044555664 -91.50730895996094 -1543.4100494384766 -5.1719970703125 -1700.250015258789C-0.82025146484375 -1708.1400299072266 -0.0338897705078125 -1709.6500396728516 -0.0338897705078125 -1711.6600494384766C-0.0338897705078125 -1711.990005493164 -0.0543365478515625 -1712.3299713134766 -0.0835723876953125 -1712.709976196289C-0.4814453125 -1717.8800201416016 -4.8127899169921875 -1721.1800689697266 -9.277908325195312 -1721.1800689697266C-11.5078125 -1721.1800689697266 -13.7711181640625 -1720.3600006103516 -15.594512939453125 -1718.530044555664C-18.893218994140625 -1715.229995727539 -51.77500915527344 -1653.1200103759766 -68.61941528320312 -1618.3399810791016C-175.83702087402344 -1397.219985961914 -229.74501037597656 -1177.8399810791016 -229.74501037597656 -965.1890411376953C-229.74501037597656 -856.4920196533203 -215.6590118408203 -749.5560455322266 -187.40802001953125 -645.0500030517578C-180.0380096435547 -617.7470245361328 -173.82701110839844 -597.8150177001953 -160.14102172851562 -557.3180084228516C-134.6370086669922 -481.9330291748047 -122.19001770019531 -408.5120086669922 -122.19001770019531 -340.1060028076172C-122.19001770019531 -202.0080108642578 -172.9190216064453 -84.353515625 -269.34901428222656 -12.259613037109375C-275.7010040283203 -7.5221099853515625 -276.8240203857422 -5.9429473876953125 -276.8240203857422 -1.97747802734375C-276.8240203857422 1.9879913330078125 -275.7010040283203 3.5671539306640625 -269.34901428222656 8.304656982421875C-173.71002197265625 79.82818603515625 -122.16300964355469 197.5079803466797 -122.16300964355469 336.67698669433594C-122.16300964355469 375.3159942626953 -126.13601684570312 415.60997009277344 -134.24301147460938 457.0339813232422C-141.75201416015625 495.4249725341797 -148.13902282714844 518.1999969482422 -166.84400939941406 573.3660125732422C-209.1120147705078 698.1299896240234 -230.09600830078125 828.2880096435547 -230.09600830078125 961.5109710693359C-230.09600830078125 1204.239974975586 -160.43601989746094 1457.1500091552734 -22.928817749023438 1706.1600189208984C-15.734909057617188 1719.1399993896484 -15.699813842773438 1719.1700286865234 -12.120315551757812 1720.6099700927734Z" fill="black" /></g></svg>