<?xml version="1.0" encoding="utf-8" ?>
<svg baseProfile="tiny" height="100%" version="1.2" width="100%" xmlns="http://www.w3.org/2000/svg" xmlns:ev="http://www.w3.org/2001/xml-events" xmlns:xlink="http://www.w3.org/1999/xlink"><defs /><g transform="translate(0, 1000) scale(1, -1)"><path d="M-19.364395141601562 610.3779907226562C-18.99407958984375 610.4190063476562 -18.628189086914062 610.4390258789062 -18.267578125 610.4390258789062C-13.245880126953125 610.4390258789062 -9.261978149414062 606.5679931640625 -9.261978149414062 601.4290161132812C-9.261978149414062 599.3779907226562 -9.584030151367188 598.3610229492188 -11.228179931640625 595.3939819335938C-37.58168029785156 547.6519775390625 -50.76148986816406 493.4150085449219 -50.76148986816406 431.65899658203125C-50.76148986816406 368.8110046386719 -37.11128234863281 298.17498779296875 -9.80438232421875 218.6739959716797C-3.240325927734375 199.5709991455078 1.52587890625e-05 180.4409942626953 1.52587890625e-05 161.5709991455078C1.52587890625e-05 111.48899841308594 -22.822891235351562 63.23100280761719 -66.90988159179688 22.135696411132812C-74.79179382324219 14.79620361328125 -88.87748718261719 2.8801422119140625 -93.55567932128906 -0.391265869140625L-93.92868041992188 -0.6624755859375L-93.55567932128906 -0.933685302734375C-88.87748718261719 -4.205108642578125 -74.79179382324219 -16.121124267578125 -66.90988159179688 -23.46063232421875C-22.720489501953125 -64.66673278808594 -0.1257781982421875 -112.02603149414062 -0.1257781982421875 -163.47003173828125C-0.1257781982421875 -183.2000274658203 -3.0581817626953125 -200.35403442382812 -9.702682495117188 -219.74502563476562C-37.00138854980469 -299.2970275878906 -50.64747619628906 -369.7430419921875 -50.64747619628906 -432.3690185546875C-50.64747619628906 -493.8270263671875 -37.50569152832031 -547.7530212402344 -11.228179931640625 -595.3630065917969C-9.584030151367188 -598.3290100097656 -9.261978149414062 -599.3460388183594 -9.261978149414062 -601.3970031738281C-9.261978149414062 -606.8730163574219 -13.721588134765625 -610.4390563964844 -18.347183227539062 -610.4390563964844C-20.6951904296875 -610.4390563964844 -23.085983276367188 -609.5200500488281 -24.957992553710938 -607.4660339355469C-25.551193237304688 -606.8220520019531 -26.703781127929688 -604.9230041503906 -28.7039794921875 -601.2790222167969C-77.89369201660156 -512.4250183105469 -104.60697937011719 -432.0980224609375 -110.36997985839844 -355.7710266113281C-110.60798645019531 -352.65203857421875 -110.77699279785156 -350.0420227050781 -111.14997863769531 -342.9730224609375C-111.49798583984375 -336.4970397949219 -111.67097473144531 -329.9520263671875 -111.67097473144531 -323.3600158691406C-111.67097473144531 -280.5250244140625 -104.39097595214844 -235.7640380859375 -90.75898742675781 -195.67503356933594C-82.40248107910156 -171.08102416992188 -78.52078247070312 -156.58802795410156 -75.31718444824219 -137.79002380371094C-73.22297668457031 -125.55502319335938 -72.1890869140625 -113.8370361328125 -72.1890869140625 -102.72702026367188C-72.1890869140625 -61.86212158203125 -86.17768859863281 -29.216629028320312 -112.84498596191406 -9.239334106445312C-116.91297912597656 -6.18829345703125 -118.11698913574219 -4.2220611572265625 -118.11698913574219 -0.6624908447265625C-118.11698913574219 2.897064208984375 -116.91297912597656 4.8632965087890625 -112.84498596191406 7.9143524169921875C-104.74298095703125 13.982574462890625 -96.89497375488281 22.406875610351562 -90.96238708496094 31.373565673828125C-78.41078186035156 50.3648681640625 -72.13278198242188 73.57666015625 -72.13278198242188 100.86297607421875C-72.13278198242188 127.15597534179688 -77.96159362792969 157.23196411132812 -89.62327575683594 190.95997619628906C-104.38998413085938 233.68397521972656 -111.80097961425781 277.3799743652344 -111.80097961425781 322.4449768066406C-111.80097961425781 406.2349548339844 -86.18067932128906 494.7579650878906 -34.58567810058594 590.5629577636719C-24.466384887695312 609.3439636230469 -24.076492309570312 609.8359680175781 -19.3643798828125 610.3779602050781Z" fill="black" /></g></svg>