<?xml version="1.0" encoding="utf-8" ?>
<svg baseProfile="tiny" height="100%" version="1.2" width="100%" xmlns="http://www.w3.org/2000/svg" xmlns:ev="http://www.w3.org/2001/xml-events" xmlns:xlink="http://www.w3.org/1999/xlink"><defs /><g transform="translate(0, 1000) scale(1, -1)"><path d="M-19.376296997070312 446.5719909667969C-18.862884521484375 446.6510009765625 -18.356491088867188 446.6889953613281 -17.859786987304688 446.6889953613281C-12.879287719726562 446.6889953613281 -8.891021728515625 442.822998046875 -8.891021728515625 437.6409912109375C-8.891021728515625 435.3710021972656 -9.08837890625 434.7539978027344 -10.803085327148438 431.6579895019531C-28.890289306640625 399.07598876953125 -37.938079833984375 361.52099609375 -37.938079833984375 318.40301513671875C-37.938079833984375 272.5369873046875 -27.69989013671875 220.37600708007812 -7.21337890625 161.21200561523438C-1.958404541015625 146.03900146484375 -0.0710601806640625 134.9250030517578 -0.0710601806640625 119.04901123046875C-0.0710601806640625 110.30300903320312 -0.219085693359375 107.66299438476562 -1.07025146484375 101.864990234375C-6.6089324951171875 63.78520202636719 -27.19708251953125 32.181304931640625 -66.64637756347656 1.20660400390625C-67.80589294433594 0.2937774658203125 -68.76808166503906 -0.483367919921875 -68.76808166503906 -0.5203704833984375C-68.76808166503906 -0.557373046875 -67.80589294433594 -1.3345184326171875 -66.64637756347656 -2.2473602294921875C-27.19708251953125 -33.22210693359375 -6.6089324951171875 -64.82589721679688 -1.07025146484375 -102.906005859375C-0.369903564453125 -107.68299865722656 1.52587890625e-05 -114.39900207519531 1.52587890625e-05 -120.83000183105469C1.52587890625e-05 -125.1610107421875 -0.1676788330078125 -129.36300659179688 -0.51513671875 -132.75799560546875C-1.4403076171875 -141.91099548339844 -3.7470703125 -152.35899353027344 -6.7322845458984375 -160.88299560546875C-27.459884643554688 -220.0850067138672 -37.82118225097656 -272.53399658203125 -37.82118225097656 -318.68499755859375C-37.82118225097656 -361.7139892578125 -28.81378173828125 -399.2669982910156 -10.803085327148438 -431.7120056152344C-9.442489624023438 -434.1619873046875 -8.781219482421875 -436.0899963378906 -8.781219482421875 -437.9110107421875C-8.781219482421875 -439.2439880371094 -9.135284423828125 -440.5199890136719 -9.828521728515625 -441.9010009765625C-11.367782592773438 -444.97900390625 -14.60198974609375 -446.6889953613281 -17.877578735351562 -446.6889953613281C-19.852188110351562 -446.6889953613281 -21.841690063476562 -446.0679931640625 -23.484085083007812 -444.75C-24.927291870117188 -443.6029968261719 -25.07537841796875 -443.3689880371094 -28.837692260742188 -436.52301025390625C-70.65748596191406 -360.4280090332031 -90.20138549804688 -295.9930114746094 -90.20138549804688 -233.01800537109375C-90.20138549804688 -225.7760009765625 -89.94288635253906 -218.5540008544922 -89.43019104003906 -211.33599853515625C-87.67857360839844 -186.59100341796875 -83.08967590332031 -164.35000610351562 -74.33148193359375 -138.18600463867188C-66.35029602050781 -114.34100341796875 -62.87168884277344 -99.0819091796875 -61.3173828125 -81.13360595703125C-61.02229309082031 -77.71389770507812 -60.87628173828125 -74.35269165039062 -60.87628173828125 -71.05880737304688C-60.87628173828125 -44.33929443359375 -70.48057556152344 -22.045700073242188 -87.97459411621094 -8.834564208984375C-91.00918579101562 -6.552490234375 -91.76168823242188 -5.6273040771484375 -92.60047912597656 -3.1725311279296875C-92.81639099121094 -2.5372467041015625 -92.92428588867188 -1.52880859375 -92.92428588867188 -0.5203704833984375C-92.92428588867188 0.488067626953125 -92.81639099121094 1.4965057373046875 -92.60047912597656 2.1317901611328125C-91.76168823242188 4.5865631103515625 -91.00918579101562 5.5117340087890625 -87.97459411621094 7.7938232421875C-70.48057556152344 21.004898071289062 -60.87628173828125 43.298492431640625 -60.87628173828125 70.01809692382812C-60.87628173828125 73.31199645996094 -61.02229309082031 76.67320251464844 -61.3173828125 80.0928955078125C-62.87168884277344 98.04119873046875 -66.35029602050781 113.30000305175781 -74.33148193359375 137.14500427246094C-85.23088073730469 169.70199584960938 -90.32017517089844 199.36599731445312 -90.32017517089844 231.56700134277344C-90.32017517089844 238.76300048828125 -90.06608581542969 246.08399963378906 -89.56588745117188 253.59300231933594C-85.76658630371094 310.4360046386719 -64.25328063964844 374.0870056152344 -26.074478149414062 441.4649963378906C-24.396881103515625 444.4129943847656 -22.139480590820312 446.1400146484375 -19.37628173828125 446.5719909667969Z" fill="black" /></g></svg>