<?xml version="1.0" encoding="utf-8" ?>
<svg baseProfile="tiny" height="100%" version="1.2" width="100%" xmlns="http://www.w3.org/2000/svg" xmlns:ev="http://www.w3.org/2001/xml-events" xmlns:xlink="http://www.w3.org/1999/xlink"><defs /><g transform="translate(0, 1000) scale(1, -1)"><path d="M-17.038894653320312 965.2780151367188C-16.33837890625 965.426025390625 -15.647491455078125 965.4970092773438 -14.973785400390625 965.4970092773438C-9.995849609375 965.4970092773438 -5.95953369140625 961.6300048828125 -5.95953369140625 956.3820190429688L-5.959503173828125 956.2020263671875C-5.9594879150390625 953.68798828125 -6.0109710693359375 953.6300048828125 -10.515274047851562 945.4650268554688C-53.3443603515625 867.8319702148438 -76.28486633300781 771.22802734375 -76.28486633300781 669.7100219726562C-76.28486633300781 659.72802734375 -76.06307983398438 649.698974609375 -75.61666870117188 639.635986328125C-71.411376953125 544.0999755859375 -52.379669189453125 450.9639892578125 -14.370162963867188 339.8739929199219C-4.7741851806640625 311.84100341796875 3.0517578125e-05 282.72900390625 3.0517578125e-05 253.57000732421875C3.0517578125e-05 216.13400268554688 -7.8697052001953125 178.62100219726562 -23.508575439453125 143.2220001220703C-45.9638671875 92.3804931640625 -84.16207885742188 45.771697998046875 -138.04896545410156 3.5029296875L-143.00897216796875 -0.3788909912109375L-143.95297241210938 -1.133697509765625L-143.00897216796875 -1.861541748046875C-142.49696350097656 -2.2928466796875 -140.2599639892578 -4.0450439453125 -138.04896545410156 -5.7703094482421875C-84.16207885742188 -48.03900146484375 -45.9638671875 -94.64779663085938 -23.508575439453125 -145.48899841308594C-7.8697052001953125 -180.88900756835938 3.0517578125e-05 -218.40899658203125 3.0517578125e-05 -255.8489990234375C3.0517578125e-05 -285.0090026855469 -4.7741851806640625 -314.1199951171875 -14.370162963867188 -342.1409912109375C-52.08306884765625 -452.34100341796875 -70.84527587890625 -543.7260131835938 -75.40097045898438 -639.6119995117188C-75.63336181640625 -644.5889892578125 -75.75486755371094 -657.8079833984375 -75.75486755371094 -670.85400390625C-75.75486755371094 -683.531982421875 -75.64016723632812 -696.0469970703125 -75.40097045898438 -700.6699829101562C-70.76437377929688 -793.780029296875 -48.983062744140625 -875.9719848632812 -10.515274047851562 -945.5750122070312C-6.0109710693359375 -953.7150268554688 -5.9594879150390625 -953.7979736328125 -5.9594879150390625 -956.31201171875L-5.9595184326171875 -956.4929809570312C-5.959503173828125 -961.8040161132812 -9.652618408203125 -965.4970092773438 -14.963150024414062 -965.4970092773438C-19.815460205078125 -965.4970092773438 -21.1363525390625 -964.2839965820312 -26.231246948242188 -955.0640258789062C-100.82194519042969 -820.3599853515625 -142.3889617919922 -688.9439697265625 -149.3439483642578 -565.885009765625C-150.26095581054688 -549.2789916992188 -150.3959503173828 -544.10302734375 -150.42295837402344 -525.583984375C-150.42295837402344 -506.9830017089844 -150.28794860839844 -502.6700134277344 -149.3439483642578 -485.5530090332031C-146.02896118164062 -426.9750061035156 -134.81394958496094 -370.3110046386719 -114.97395324707031 -311.9490051269531C-99.50065612792969 -266.4179992675781 -92.81526184082031 -234.7169952392578 -89.84996032714844 -193.2030029296875C-89.64454650878906 -190.10800170898438 -89.53654479980469 -182.71200561523438 -89.53654479980469 -175.40699768066406C-89.53654479980469 -168.33399963378906 -89.63775634765625 -161.3459930419922 -89.84996032714844 -158.42799377441406C-94.59445190429688 -93.21910095214844 -118.77494812011719 -43.537200927734375 -161.7449493408203 -10.892196655273438C-167.62095642089844 -6.4172821044921875 -168.4569549560547 -5.2042083740234375 -168.4569549560547 -1.133697509765625C-168.4569549560547 2.93682861328125 -167.62095642089844 4.14990234375 -161.7449493408203 8.624786376953125C-123.78895568847656 37.468902587890625 -99.17715454101562 82.29849243164062 -91.92564392089844 135.6739959716797C-90.32154846191406 147.5780029296875 -89.41026306152344 163.07200622558594 -89.41026306152344 176.44200134277344C-89.41026306152344 181.7220001220703 -89.55235290527344 186.6699981689453 -89.84996032714844 190.93600463867188C-92.81526184082031 232.52999877929688 -99.01536560058594 261.9679870605469 -114.83894348144531 309.2770080566406C-118.18196105957031 319.2239990234375 -121.84794616699219 330.5459899902344 -123.03395080566406 334.48199462890625C-141.50296020507812 396.218994140625 -150.73394775390625 459.45599365234375 -150.73394775390625 524.1489868164062C-150.73394775390625 661.343017578125 -109.21595764160156 805.0859985351562 -26.231246948242188 954.9530029296875C-21.6485595703125 963.22900390625 -20.462448120117188 964.5499877929688 -17.038848876953125 965.2780151367188Z" fill="black" /></g></svg>