<?xml version="1.0" encoding="utf-8" ?>
<svg baseProfile="tiny" height="100%" version="1.2" width="100%" xmlns="http://www.w3.org/2000/svg" xmlns:ev="http://www.w3.org/2001/xml-events" xmlns:xlink="http://www.w3.org/1999/xlink"><defs /><g transform="translate(0, 1000) scale(1, -1)"><path d="M-11.24810791015625 3088.22998046875C-10.53619384765625 3088.3798828125 -9.834136962890625 3088.449951171875 -9.149734497070312 3088.449951171875C-4.0937042236328125 3088.449951171875 -0.0001373291015625 3084.56005859375 -0.0001373291015625 3079.300048828125C-0.0464324951171875 3076.330078125 -0.09271240234375 3076.199951171875 -5.6009674072265625 3066.340087890625C-82.99429321289062 2927.840087890625 -144.8350067138672 2772.550048828125 -187.3730010986328 2609.7099609375C-234.4669952392578 2429.449951171875 -257.8689880371094 2237.89990234375 -257.8689880371094 2039.550048828125C-257.8689880371094 1728.8599853515625 -200.4550018310547 1401.4599609375 -86.74359130859375 1074.5699462890625C-53.46589660644531 978.9190063476562 -36.72709655761719 880.7839965820312 -36.72709655761719 781.5869750976562C-36.72709655761719 758.948974609375 -37.598907470703125 736.2550048828125 -39.34480285644531 713.5230102539062C-60.08180236816406 442.6929931640625 -206.1199951171875 188.61900329589844 -446.07598876953125 5.8744049072265625C-452.1400146484375 1.24560546875 -457.4630126953125 -2.7351531982421875 -457.8800048828125 -3.0128631591796875C-458.25 -3.2211761474609375 -458.43499755859375 -3.3484649658203125 -458.43499755859375 -3.4757537841796875C-458.43499755859375 -3.6030426025390625 -458.25 -3.7303314208984375 -457.8800048828125 -3.938629150390625C-457.4630126953125 -4.2163543701171875 -452.1400146484375 -8.197113037109375 -446.07598876953125 -12.825897216796875C-206.1199951171875 -195.57000732421875 -60.08180236816406 -449.6449890136719 -39.34480285644531 -720.4749755859375C-37.550994873046875 -743.8380126953125 -36.64790344238281 -766.947998046875 -36.64790344238281 -789.8980102539062C-36.64790344238281 -889.531005859375 -53.670196533203125 -986.1409912109375 -88.7340087890625 -1087.31005859375C-201.16799926757812 -1411.780029296875 -257.0790100097656 -1734.43994140625 -257.0790100097656 -2040.6199951171875C-257.0790100097656 -2417.139892578125 -172.5330047607422 -2768.75 -4.5826416015625 -3068.199951171875C-0.139007568359375 -3076.110107421875 -0.0001373291015625 -3076.389892578125 -0.0001373291015625 -3079.31005859375C-4.57763671875e-05 -3079.320068359375 0.0 -3079.340087890625 0.0 -3079.360107421875C0.0 -3084.97998046875 -4.445159912109375 -3088.449951171875 -9.028518676757812 -3088.449951171875C-11.81390380859375 -3088.449951171875 -14.650405883789062 -3087.169921875 -16.571197509765625 -3084.300048828125C-23.190399169921875 -3074.5400390625 -64.43289184570312 -2997.10009765625 -85.81790161132812 -2954.330078125C-279.60101318359375 -2566.85009765625 -377.6830139160156 -2163.719970703125 -377.6830139160156 -1771.6600341796875C-377.6830139160156 -1520.449951171875 -337.41400146484375 -1273.7900390625 -256.25 -1038.699951171875C-238.93800354003906 -988.5280151367188 -228.43099975585938 -954.2750244140625 -219.63600158691406 -919.281005859375C-196.28599548339844 -826.2990112304688 -184.91099548339844 -734.8200073242188 -184.91099548339844 -647.0009765625C-184.91099548339844 -385.7829895019531 -285.5539855957031 -156.95700073242188 -471.0260009765625 -17.3157958984375C-482.3659973144531 -8.7525634765625 -483.15301513671875 -7.8730926513671875 -483.15301513671875 -3.4757537841796875C-483.15301513671875 0.921600341796875 -482.3659973144531 1.8010711669921875 -471.0260009765625 10.364303588867188C-285.5539855957031 150.0050048828125 -184.91099548339844 378.83099365234375 -184.91099548339844 640.0499877929688C-184.91099548339844 727.8679809570312 -196.28599548339844 819.3469848632812 -219.63600158691406 912.3300170898438C-228.43099975585938 947.323974609375 -239.031005859375 981.8079833984375 -256.25 1031.75C-337.822998046875 1267.9000244140625 -378.1960144042969 1515.969970703125 -378.1960144042969 1768.4100341796875C-378.1960144042969 2194.52001953125 -263.16400146484375 2633.06005859375 -37.076690673828125 3047.590087890625C-15.738006591796875 3086.699951171875 -15.321395874023438 3087.39990234375 -11.24810791015625 3088.22998046875Z" fill="black" /></g></svg>