<?xml version="1.0" encoding="utf-8" ?>
<svg baseProfile="tiny" height="100%" version="1.2" width="100%" xmlns="http://www.w3.org/2000/svg" xmlns:ev="http://www.w3.org/2001/xml-events" xmlns:xlink="http://www.w3.org/1999/xlink"><defs /><g transform="translate(0, 1000) scale(1, -1)"><path d="M-11.459396362304688 10212.7998046875C-10.860885620117188 10212.900390625 -10.248977661132812 10213.0 -9.6351318359375 10213.0C-6.0746917724609375 10213.0 -2.4517059326171875 10211.099609375 -1.017608642578125 10208.400390625C-0.4172515869140625 10207.2001953125 -0.0195159912109375 10206.2001953125 -0.0195159912109375 10204.900390625C-0.0195159912109375 10200.7998046875 -3.9087982177734375 10193.5 -17.6536865234375 10168.599609375C-617.8489990234375 9088.8095703125 -924.6740112304688 7844.52978515625 -924.6740112304688 6533.06005859375C-924.6740112304688 5977.08984375 -869.5330200195312 5409.0400390625 -758.2260131835938 4836.330078125C-672.3900146484375 4394.68017578125 -554.344970703125 3958.60009765625 -401.70001220703125 3519.510009765625C-295.24700927734375 3213.25 -243.21400451660156 2939.550048828125 -229.23300170898438 2611.25C-228.4810028076172 2593.77001953125 -228.10499572753906 2550.530029296875 -228.10499572753906 2507.280029296875C-228.10499572753906 2464.030029296875 -228.4810028076172 2420.780029296875 -229.23300170898438 2403.300048828125C-239.76300048828125 2156.06005859375 -270.64599609375 1949.7900390625 -330.8190002441406 1724.5799560546875C-512.4010009765625 1045.510009765625 -935.1170043945312 430.5059814453125 -1514.1099853515625 3.365753173828125C-1524.6400146484375 -4.421356201171875 -1533.31005859375 -11.146636962890625 -1533.31005859375 -11.589035034179688C-1533.31005859375 -12.031539916992188 -1524.6400146484375 -18.756744384765625 -1514.1099853515625 -26.543838500976562C-935.2050170898438 -453.68504333496094 -512.31201171875 -1068.7800750732422 -330.8190002441406 -1747.7600555419922C-270.64599609375 -1972.9700164794922 -239.76300048828125 -2179.240036010742 -229.23300170898438 -2426.480026245117C-228.4810028076172 -2443.949996948242 -228.10499572753906 -2487.199996948242 -228.10499572753906 -2530.449996948242C-228.10499572753906 -2573.699996948242 -228.4810028076172 -2616.949996948242 -229.23300170898438 -2634.429977416992C-243.30299377441406 -2963.260055541992 -294.9809875488281 -3235.100143432617 -402.0539855957031 -3544.020065307617C-748.4030151367188 -4542.279830932617 -921.7550048828125 -5542.399948120117 -921.7550048828125 -6542.700241088867V-6543.470260620117C-921.7550048828125 -6677.000045776367 -920.8699951171875 -6736.290084838867 -916.9769897460938 -6843.450241088867C-873.0859985351562 -8050.899948120117 -567.176025390625 -9180.820358276367 -15.530029296875 -10172.799850463867C-3.5838775634765625 -10194.299850463867 -3.0517578125e-05 -10201.099655151367 -3.0517578125e-05 -10205.000045776367C-3.0517578125e-05 -10206.400436401367 -0.3982391357421875 -10207.400436401367 -1.0176544189453125 -10208.500045776367C-2.6025238037109375 -10211.500045776367 -5.8325653076171875 -10213.000045776367 -9.08331298828125 -10213.000045776367C-12.185226440429688 -10213.000045776367 -15.3060302734375 -10211.599655151367 -17.034332275390625 -10208.900436401367C-22.078231811523438 -10200.900436401367 -68.53543090820312 -10116.700241088867 -94.19754028320312 -10068.900436401367C-772.2530212402344 -8808.589889526367 -1123.2500305175781 -7428.950241088867 -1123.2500305175781 -6058.899948120117C-1123.2500305175781 -5684.950241088867 -1097.1000061035156 -5311.710006713867 -1044.3100891113281 -4941.799850463867C-971.0440368652344 -4427.939987182617 -854.6800231933594 -3948.679977416992 -681.7700500488281 -3448.540084838867C-575.4060363769531 -3140.860153198242 -515.8520202636719 -2866.100143432617 -490.0130310058594 -2564.520065307617C-481.86102294921875 -2469.090133666992 -477.8390197753906 -2374.320114135742 -477.8390197753906 -2280.470016479492C-477.8390197753906 -1365.7600555419922 -859.9400329589844 -538.8080291748047 -1524.4599914550781 -42.82594299316406C-1555.2800598144531 -19.797943115234375 -1560.0799865722656 -16.439041137695312 -1560.0799865722656 -12.37994384765625C-1560.0799865722656 -11.463241577148438 -1559.8299865722656 -10.510940551757812 -1559.5899963378906 -9.288330078125C-1559.0600891113281 -6.1911773681640625 -1558.2600402832031 -5.4832611083984375 -1524.4599914550781 19.647857666015625C-965.0270080566406 437.2319641113281 -597.2630310058594 1098.2499694824219 -502.8440246582031 1855.9899597167969C-486.14202880859375 1990.1299743652344 -477.8050231933594 2124.949920654297 -477.8050231933594 2260.189910888672C-477.8050231933594 2643.009979248047 -544.6090393066406 3029.249969482422 -677.6110534667969 3413.409881591797C-977.4100036621094 4279.209930419922 -1125.5300598144531 5147.810028076172 -1125.5300598144531 6044.100067138672C-1125.5300598144531 6214.749969482422 -1120.1600646972656 6386.399871826172 -1109.4399719238281 6559.229949951172C-1104.1300354003906 6644.709930419922 -1092.2700500488281 6793.459930419922 -1088.6500549316406 6820.720184326172C-1088.1200256347656 6824.339813232422 -1086.3500061035156 6841.509735107422 -1084.6600646972656 6858.769989013672C-974.7600402832031 7973.209930419922 -628.2340393066406 9087.919891357422 -77.03054809570312 10100.599578857422C-26.41424560546875 10193.599578857422 -15.618545532226562 10211.999969482422 -11.459442138671875 10212.799774169922Z" fill="black" /></g></svg>