<?xml version="1.0" encoding="utf-8" ?>
<svg baseProfile="tiny" height="100%" version="1.2" width="100%" xmlns="http://www.w3.org/2000/svg" xmlns:ev="http://www.w3.org/2001/xml-events" xmlns:xlink="http://www.w3.org/1999/xlink"><defs /><g transform="translate(0, 1000) scale(1, -1)"><path d="M-12.964508056640625 1951.8299560546875C-11.703704833984375 1952.4300537109375 -10.399200439453125 1952.7099609375 -9.125274658203125 1952.7099609375C-4.347625732421875 1952.7099609375 0.0 1948.8299560546875 0.0 1943.5799560546875C0.0 1941.1700439453125 -0.2556304931640625 1940.5899658203125 -5.1857757568359375 1931.6800537109375C-104.87399291992188 1751.739990234375 -155.77999877929688 1541.4100341796875 -155.77999877929688 1311.969970703125C-155.77999877929688 1265.550048828125 -153.6959991455078 1218.3499755859375 -149.51100158691406 1170.4599609375C-135.96200561523438 1015.030029296875 -100.94000244140625 853.0700073242188 -47.18330383300781 696.9849853515625C-30.311294555664062 647.9030151367188 -23.555099487304688 621.9010009765625 -17.748504638671875 583.4099731445312C-13.598403930664062 555.8560180664062 -11.547698974609375 528.3289794921875 -11.547698974609375 500.9519958496094C-11.547698974609375 335.3609924316406 -86.57431030273438 175.28700256347656 -225.87399291992188 48.39759826660156C-243.07400512695312 32.73069763183594 -264.510986328125 14.872604370117188 -280.90899658203125 2.5654754638671875C-284.26800537109375 0.045623779296875 -287.0069885253906 -2.0725250244140625 -287.0069885253906 -2.18206787109375C-287.0069885253906 -2.2916259765625 -284.26800537109375 -4.4097747802734375 -280.90899658203125 -6.92962646484375C-219.08099365234375 -53.30950927734375 -161.23399353027344 -113.05599975585938 -118.177001953125 -175.0659942626953C-47.76249694824219 -276.4440002441406 -11.519302368164062 -391.37298583984375 -11.519302368164062 -506.29998779296875C-11.519302368164062 -565.4190063476562 -21.110000610351562 -624.5380249023438 -40.57330322265625 -681.81201171875C-68.58380126953125 -764.2000122070312 -83.9219970703125 -815.364013671875 -99.36979675292969 -877.9219970703125C-136.72999572753906 -1029.2099609375 -155.3209991455078 -1175.3199462890625 -155.3209991455078 -1314.18994140625C-155.3209991455078 -1542.6300048828125 -105.00900268554688 -1751.5 -5.1857757568359375 -1931.6600341796875C-0.2556304931640625 -1940.5699462890625 0.0 -1941.1500244140625 0.0 -1943.56005859375C0.0 -1949.050048828125 -4.6544189453125 -1952.7099609375 -9.378494262695312 -1952.7099609375C-11.66900634765625 -1952.7099609375 -13.975799560546875 -1951.8499755859375 -15.776504516601562 -1949.9200439453125C-19.720596313476562 -1945.6800537109375 -59.12519836425781 -1870.6300048828125 -77.89630126953125 -1831.6300048828125C-195.74899291992188 -1586.43994140625 -255.13099670410156 -1339.75 -255.13099670410156 -1100.699951171875C-255.13099670410156 -957.8090209960938 -233.91600036621094 -817.6519775390625 -191.2899932861328 -682.177001953125C-187.7469940185547 -670.8920288085938 -183.29200744628906 -657.4530029296875 -176.38999938964844 -637.2579956054688C-155.35400390625 -575.6129760742188 -142.9010009765625 -519.8469848632812 -136.76600646972656 -459.9549865722656C-134.40699768066406 -436.8970031738281 -133.2429962158203 -414.2090148925781 -133.2429962158203 -391.9739990234375C-133.2429962158203 -231.79299926757812 -193.6510009765625 -95.17120361328125 -302.74700927734375 -13.685699462890625C-310.8550109863281 -7.660003662109375 -311.87701416015625 -6.345306396484375 -311.87701416015625 -2.18206787109375C-311.87701416015625 1.9811553955078125 -310.8550109863281 3.2958526611328125 -302.74700927734375 9.32159423828125C-271.77899169921875 32.475006103515625 -243.6219940185547 61.28900146484375 -220.177001953125 93.9010009765625C-162.6820068359375 173.8090057373047 -133.25900268554688 274.63299560546875 -133.25900268554688 386.89300537109375C-133.25900268554688 440.34698486328125 -139.93099975585938 496.3949890136719 -153.41900634765625 554.010986328125C-160.1750030517578 582.9349975585938 -167.44200134277344 607.14697265625 -181.68499755859375 648.4140014648438C-229.8179931640625 787.9559936523438 -255.63699340820312 945.3920288085938 -255.63699340820312 1099.0699462890625C-255.6009979248047 1374.3900146484375 -175.6230010986328 1662.6400146484375 -22.82470703125 1937.9200439453125C-16.251205444335938 1949.7900390625 -15.703399658203125 1950.56005859375 -12.964508056640625 1951.8299560546875Z" fill="black" /></g></svg>