<?xml version="1.0" encoding="utf-8" ?>
<svg baseProfile="tiny" height="100%" version="1.2" width="100%" xmlns="http://www.w3.org/2000/svg" xmlns:ev="http://www.w3.org/2001/xml-events" xmlns:xlink="http://www.w3.org/1999/xlink"><defs /><g transform="translate(0, 1000) scale(1, -1)"><path d="M-12.90179443359375 8147.2998046875C-11.729995727539062 8147.81982421875 -10.501998901367188 8148.06982421875 -9.288986206054688 8148.06982421875C-5.7113037109375 8148.06982421875 -2.26385498046875 8145.91015625 -0.7742462158203125 8142.27001953125C-0.29962158203125 8141.169921875 0.0 8140.25 0.0 8139.169921875C0.0 8136.240234375 -2.1814117431640625 8132.10009765625 -8.99224853515625 8119.93017578125C-423.1629943847656 7379.830078125 -665.2349853515625 6527.080078125 -718.1329956054688 5622.3798828125C-725.551025390625 5495.41015625 -729.2410278320312 5367.5 -729.2410278320312 5238.89990234375C-729.2410278320312 4442.0498046875 -587.5469970703125 3618.659912109375 -312.8190002441406 2827.860107421875C-296.38299560546875 2780.6298828125 -286.1700134277344 2749.909912109375 -277.3139953613281 2721.35009765625C-205.55299377441406 2489.360107421875 -169.66700744628906 2249.8701171875 -169.66700744628906 2010.4100341796875C-169.66700744628906 1774.1099853515625 -204.61500549316406 1537.8299560546875 -274.52099609375 1308.81005859375C-430.98199462890625 795.9420166015625 -758.2659912109375 336.4519958496094 -1202.280029296875 6.136932373046875C-1212.8900146484375 -1.7619171142578125 -1221.5899658203125 -8.54376220703125 -1221.5899658203125 -8.94268798828125C-1221.5899658203125 -9.34161376953125 -1212.8900146484375 -16.123504638671875 -1202.280029296875 -24.022308349609375C-832.5469970703125 -299.0459899902344 -542.2050170898438 -664.9459838867188 -365.0790100097656 -1078.8800048828125C-235.27499389648438 -1382.25 -169.67100524902344 -1704.9300537109375 -169.67100524902344 -2028.52001953125C-169.67100524902344 -2229.43994140625 -194.96099853515625 -2430.7099609375 -245.8780059814453 -2627.929931640625C-265.9840087890625 -2705.800048828125 -280.1059875488281 -2751.280029296875 -316.8080139160156 -2857.320068359375C-555.1300048828125 -3545.7900390625 -694.8359985351562 -4275.759765625 -722.1229858398438 -4974.0498046875C-726.1119995117188 -5077.2900390625 -726.9099731445312 -5120.06005859375 -726.9099731445312 -5243.72998046875C-726.9099731445312 -5357.18017578125 -726.510986328125 -5383.990234375 -723.718017578125 -5468.72021484375C-691.7239990234375 -6428.06982421875 -444.0669860839844 -7346.259765625 -8.832672119140625 -8119.6298828125C-2.951904296875 -8130.080078125 -0.115386962890625 -8136.2099609375 -0.115386962890625 -8140.18994140625C-0.115386962890625 -8143.490234375 -2.0769500732421875 -8145.31982421875 -5.880584716796875 -8146.91015625C-7.5163726806640625 -8147.58984375 -8.837127685546875 -8148.06982421875 -10.09039306640625 -8148.06982421875C-14.583206176757812 -8148.06982421875 -18.208404541015625 -8141.89013671875 -32.36970520019531 -8116.43017578125C-488.66798400878906 -7296.7099609375 -779.0900115966797 -6391.2900390625 -872.5200042724609 -5497.4501953125C-874.2750091552734 -5480.52978515625 -875.8709564208984 -5466.009765625 -876.1099700927734 -5465.0498046875C-877.0679779052734 -5460.81982421875 -883.8499603271484 -5387.18017578125 -888.0779876708984 -5336.27978515625C-897.8119964599609 -5217.240234375 -903.6370086669922 -5108.009765625 -907.7859954833984 -4968.06005859375C-908.5040130615234 -4944.64990234375 -908.8629608154297 -4878.35986328125 -908.8629608154297 -4812.080078125C-908.8629608154297 -4745.7998046875 -908.5040130615234 -4679.52001953125 -907.7859954833984 -4656.10009765625C-887.7589569091797 -3979.27001953125 -775.9789886474609 -3364.52001953125 -560.1559906005859 -2744.02001953125C-475.90199279785156 -2501.550048828125 -426.59397888183594 -2274.47998046875 -405.7699737548828 -2032.3199462890625C-399.1649932861328 -1955.449951171875 -395.90599060058594 -1879.1500244140625 -395.90599060058594 -1803.6199951171875C-395.90599060058594 -1079.06005859375 -695.8459930419922 -426.5059814453125 -1218.3899993896484 -35.7508544921875L-1242.489974975586 -17.719146728515625C-1246.3599700927734 -14.806442260742188 -1248.3799896240234 -12.264434814453125 -1248.3799896240234 -9.529205322265625C-1248.3799896240234 -5.671173095703125 -1244.3599700927734 -1.4287567138671875 -1235.8699798583984 4.7806243896484375C-763.8509979248047 349.9360809326172 -465.36997985839844 906.9250946044922 -406.56797790527344 1552.080062866211C-399.54197692871094 1629.2601165771484 -396.04698181152344 1707.2601165771484 -396.04698181152344 1785.7400970458984C-396.04698181152344 2054.8602142333984 -437.1499786376953 2329.6500091552734 -517.9489593505859 2596.8799896240234C-531.5930023193359 2641.9600677490234 -542.4439544677734 2674.9100189208984 -563.1879730224609 2734.9100189208984C-794.5879974365234 3402.6399993896484 -911.3690032958984 4097.850204467773 -911.3690032958984 4803.670028686523C-911.3690032958984 4980.790145874023 -904.0149993896484 5158.560165405273 -889.2750091552734 5336.740341186523C-884.7269744873047 5391.319931030273 -880.7379608154297 5433.839950561523 -876.9879608154297 5466.799911499023C-876.2700042724609 5472.700302124023 -874.4349822998047 5489.450302124023 -872.9189910888672 5503.900009155273C-776.5369720458984 6401.170028686523 -487.39097595214844 7299.810165405273 -32.13029479980469 8117.299911499023C-16.572006225585938 8145.299911499023 -16.2528076171875 8145.859970092773 -12.90179443359375 8147.299911499023Z" fill="black" /></g></svg>