<?xml version="1.0" encoding="utf-8" ?>
<svg baseProfile="tiny" height="100%" version="1.2" width="100%" xmlns="http://www.w3.org/2000/svg" xmlns:ev="http://www.w3.org/2001/xml-events" xmlns:xlink="http://www.w3.org/1999/xlink"><defs /><g transform="translate(0, 1000) scale(1, -1)"><path d="M-18.753402709960938 856.3350219726562C-17.966110229492188 856.594970703125 -17.158615112304688 856.7169799804688 -16.354110717773438 856.7169799804688C-11.91021728515625 856.7169799804688 -7.5585784912109375 852.9970092773438 -7.2147216796875 848.2839965820312C-7.1944122314453125 847.9819946289062 -7.1822052001953125 847.7009887695312 -7.1822052001953125 847.4299926757812C-7.1822052001953125 845.4669799804688 -7.8212890625 844.0079956054688 -10.654815673828125 838.823974609375C-49.1533203125 768.2940063476562 -68.40721130371094 686.8569946289062 -68.40721130371094 595.9829711914062C-68.40721130371094 507.9309997558594 -50.32981872558594 411.01800537109375 -14.166610717773438 306.5849914550781C-4.3001708984375 278.1080017089844 -1.52587890625e-05 253.52499389648438 -1.52587890625e-05 225.71800231933594C-1.52587890625e-05 141.62600708007812 -43.62261962890625 64.22329711914062 -126.90202331542969 0.557159423828125C-128.02801513671875 -0.30517578125 -128.58901977539062 -0.651123046875 -128.58901977539062 -0.998443603515625C-128.58901977539062 -1.34393310546875 -128.0340118408203 -1.690765380859375 -126.92601013183594 -2.548492431640625C-43.62261962890625 -66.214599609375 -1.52587890625e-05 -143.61700439453125 -1.52587890625e-05 -227.70899963378906C-1.52587890625e-05 -255.51699829101562 -4.3001708984375 -280.07501220703125 -14.166610717773438 -308.57598876953125C-43.98101806640625 -394.72198486328125 -61.85050964355469 -478.2879943847656 -66.89122009277344 -555.1179809570312C-67.84532165527344 -569.6920166015625 -68.32200622558594 -584.0430297851562 -68.32200622558594 -598.1640014648438C-68.32200622558594 -687.9979858398438 -49.03282165527344 -768.5889892578125 -10.654815673828125 -838.9039916992188C-7.8212890625 -844.0880126953125 -7.1822052001953125 -845.5469970703125 -7.1822052001953125 -847.510009765625C-7.1822052001953125 -847.781982421875 -7.1944122314453125 -848.06298828125 -7.2147216796875 -848.364013671875C-7.56982421875 -853.2420043945312 -11.785308837890625 -856.7169799804688 -16.303207397460938 -856.7169799804688C-17.56011962890625 -856.7169799804688 -18.840316772460938 -856.447998046875 -20.067413330078125 -855.8660278320312C-22.958023071289062 -854.5040283203125 -23.14910888671875 -854.1929931640625 -30.507217407226562 -840.718994140625C-64.43061828613281 -778.5579833984375 -90.08811950683594 -718.8820190429688 -107.74301147460938 -661.0689697265625C-109.20001220703125 -656.2670288085938 -110.75300598144531 -651.2260131835938 -111.20701599121094 -649.8410034179688C-122.14802551269531 -615.27197265625 -132.80300903320312 -560.4450073242188 -136.50601196289062 -519.6420288085938C-138.29501342773438 -500.0010070800781 -139.1990203857422 -480.8210144042969 -139.1990203857422 -461.93798828125C-139.1990203857422 -398.61700439453125 -129.03302001953125 -338.625 -107.98200988769531 -275.72698974609375C-92.42930603027344 -229.21400451660156 -85.95521545410156 -197.01100158691406 -84.78462219238281 -160.26800537109375C-84.69821166992188 -157.55599975585938 -84.65521240234375 -154.86300659179688 -84.65521240234375 -152.18800354003906C-84.65521240234375 -91.26348876953125 -106.97801208496094 -40.42559814453125 -147.25601196289062 -10.21710205078125C-152.24900817871094 -6.4664154052734375 -153.25302124023438 -4.9135894775390625 -153.25302124023438 -0.99566650390625C-153.25302124023438 3.04168701171875 -152.46401977539062 4.1884002685546875 -146.73101806640625 8.608001708984375C-106.03001403808594 39.91630554199219 -84.65000915527344 89.65640258789062 -84.65000915527344 150.9929962158203C-84.65000915527344 166.88099670410156 -86.08451843261719 183.5469970703125 -88.98921203613281 200.8719940185547C-93.28941345214844 226.6020050048828 -97.90011596679688 243.97000122070312 -109.53401184082031 278.2749938964844C-114.02601623535156 291.5580139160156 -117.25102233886719 302.4280090332031 -121.12101745605469 317.4540100097656C-133.2930145263672 364.5929870605469 -139.38601684570312 412.68798828125 -139.38601684570312 461.81298828125C-139.38601684570312 581.6069946289062 -103.15501403808594 707.5250244140625 -30.507217407226562 840.6389770507812C-22.766921997070312 854.85400390625 -22.599716186523438 855.0449829101562 -18.75341796875 856.3350219726562Z" fill="black" /></g></svg>