<?xml version="1.0" encoding="utf-8" ?>
<svg baseProfile="tiny" height="100%" version="1.2" width="100%" xmlns="http://www.w3.org/2000/svg" xmlns:ev="http://www.w3.org/2001/xml-events" xmlns:xlink="http://www.w3.org/1999/xlink"><defs /><g transform="translate(0, 1000) scale(1, -1)"><path d="M-13.027801513671875 4662.1298828125C-11.805404663085938 4662.7001953125 -10.543701171875 4662.97021484375 -9.3104248046875 4662.97021484375C-4.5443115234375 4662.97021484375 -0.2029876708984375 4659.009765625 -0.2029876708984375 4653.72998046875C-0.2029876708984375 4650.580078125 -0.5527496337890625 4649.77001953125 -7.256622314453125 4637.8798828125C-244.69000244140625 4215.77001953125 -381.0989990234375 3709.419921875 -400.3940124511719 3178.469970703125C-401.9679870605469 3135.280029296875 -402.260009765625 3120.1201171875 -402.5509948730469 3060.719970703125C-402.5880126953125 3053.590087890625 -402.60699462890625 3046.4599609375 -402.60699462890625 3039.340087890625C-402.60699462890625 2565.340087890625 -320.40899658203125 2100.1201171875 -149.43699645996094 1605.68994140625C-100.79299926757812 1465.050048828125 -76.01860046386719 1315.81005859375 -76.01860046386719 1165.8699951171875C-76.01860046386719 1121.030029296875 -78.23419189453125 1076.1300048828125 -82.68960571289062 1031.3699951171875C-121.98001098632812 637.2449951171875 -335.39599609375 269.4649963378906 -675.0780029296875 10.579498291015625C-682.7139892578125 4.8083648681640625 -690.5260009765625 -1.079376220703125 -692.448974609375 -2.4201507568359375C-694.5770263671875 -3.9066619873046875 -695.6409912109375 -4.59161376953125 -695.6409912109375 -5.276580810546875C-695.6409912109375 -5.9615478515625 -694.5770263671875 -6.6464996337890625 -692.448974609375 -8.133010864257812C-643.4240112304688 -42.526702880859375 -567.5830078125 -107.93299865722656 -509.92999267578125 -165.5279998779297C-226.58700561523438 -448.7460174560547 -75.5985107421875 -811.3220367431641 -75.5985107421875 -1178.209976196289C-75.5985107421875 -1325.1400299072266 -99.81240844726562 -1472.750015258789 -149.43699645996094 -1616.240005493164C-226.21099853515625 -1838.1700592041016 -277.510009765625 -2024.8299713134766 -319.656005859375 -2235.330093383789C-374.61700439453125 -2509.810073852539 -401.85699462890625 -2780.429946899414 -401.85699462890625 -3043.500015258789C-401.85699462890625 -3625.320083618164 -268.6099853515625 -4170.160171508789 -7.314910888671875 -4637.879898071289C-3.1760101318359375 -4645.279800415039 -0.26129150390625 -4651.229995727539 -0.086395263671875 -4652.509780883789C-0.0280914306640625 -4652.939956665039 0.0 -4653.359878540039 0.0 -4653.770034790039C0.0 -4659.080093383789 -4.6196746826171875 -4662.970230102539 -9.413375854492188 -4662.970230102539C-11.347900390625 -4662.970230102539 -13.310806274414062 -4662.330093383789 -15.009796142578125 -4660.899917602539C-17.341598510742188 -4658.979995727539 -39.84320068359375 -4618.520034790039 -65.31790161132812 -4570.609878540039C-382.822998046875 -3973.540054321289 -545.14501953125 -3337.010025024414 -545.14501953125 -2712.889907836914C-545.14501953125 -2425.110122680664 -510.63299560546875 -2139.959976196289 -440.90899658203125 -1862.540054321289C-412.2860107421875 -1748.6300201416016 -393.10699462890625 -1685.0899810791016 -343.09100341796875 -1537.550064086914C-282.3380126953125 -1358.530044555664 -252.9499969482422 -1178.530044555664 -252.9499969482422 -1005.8000030517578C-252.9499969482422 -603.7470245361328 -412.17401123046875 -241.0690155029297 -705.6820068359375 -21.773910522460938C-720.780029296875 -10.523117065429688 -721.3049926757812 -9.998443603515625 -721.3049926757812 -5.2765960693359375C-721.3049926757812 -0.55474853515625 -720.780029296875 -0.03009033203125 -705.6820068359375 11.220687866210938C-412.14300537109375 230.5089874267578 -252.96499633789062 593.0839691162109 -252.96499633789062 995.1320037841797C-252.96499633789062 1167.8799896240234 -282.35101318359375 1347.9100189208984 -343.09100341796875 1526.989974975586C-379.75799560546875 1635.1299896240234 -391.3590087890625 1671.3899993896484 -409.6050109863281 1735.0999603271484C-483.6969909667969 1993.229965209961 -527.708984375 2256.550033569336 -541.4669799804688 2524.409896850586C-545.1389770507812 2596.229965209961 -545.8389892578125 2625.959945678711 -545.8389892578125 2709.499984741211C-545.8389892578125 2793.090072631836 -545.1389770507812 2823.810043334961 -541.4669799804688 2895.449935913086C-511.2120056152344 3487.259994506836 -335.27899169921875 4085.189926147461 -28.8839111328125 4637.580062866211C-16.758621215820312 4659.439926147461 -15.88421630859375 4660.839828491211 -13.027816772460938 4662.129867553711Z" fill="black" /></g></svg>