<?xml version="1.0" encoding="utf-8" ?>
<svg baseProfile="tiny" height="100%" version="1.2" width="100%" xmlns="http://www.w3.org/2000/svg" xmlns:ev="http://www.w3.org/2001/xml-events" xmlns:xlink="http://www.w3.org/1999/xlink"><defs /><g transform="translate(0, 1000) scale(1, -1)"><path d="M-15.226806640625 353.9339904785156C-14.8406982421875 353.9779968261719 -14.4591064453125 354.0 -14.083206176757812 354.0C-9.0225830078125 354.0 -4.9912261962890625 350.0379943847656 -4.9912261962890625 345.0509948730469C-4.9912261962890625 344.7170104980469 -5.0093231201171875 344.37799072265625 -5.0464324951171875 344.0350036621094C-5.21173095703125 342.52801513671875 -5.5228729248046875 341.6919860839844 -6.85498046875 339.260986328125C-19.40789794921875 316.2550048828125 -26.097503662109375 291.2659912109375 -27.633804321289062 261.6199951171875C-27.71649169921875 260.0060119628906 -27.757797241210938 255.78599548339844 -27.757797241210938 251.5449981689453C-27.757797241210938 247.30499267578125 -27.71649169921875 243.04299926757812 -27.633804321289062 241.3470001220703C-25.961395263671875 207.21800231933594 -18.27020263671875 171.12399291992188 -3.5490264892578125 128.26400756835938C-1.9349517822265625 123.55799865722656 -1.7113037109375 122.83799743652344 -0.729248046875 119.07499694824219L0.0 116.25498962402344V94.04719543457031V71.82929992675781L-0.6417388916015625 69.34980773925781C-7.11749267578125 44.05931091308594 -23.394378662109375 21.287216186523438 -49.66697692871094 0.74169921875C-50.415679931640625 0.158294677734375 -51.03797912597656 -0.347320556640625 -51.03797912597656 -0.3764801025390625C-51.03797912597656 -0.4056549072265625 -50.415679931640625 -0.90155029296875 -49.66697692871094 -1.4946746826171875C-23.394378662109375 -22.040176391601562 -7.11749267578125 -44.812286376953125 -0.6417236328125 -70.102783203125L1.52587890625e-05 -72.582275390625V-94.8001708984375V-117.00796508789062L-0.7292327880859375 -119.82797241210938C-1.7112884521484375 -123.59097290039062 -1.9349365234375 -124.31097412109375 -3.54901123046875 -129.0169677734375C-19.684783935546875 -175.98297119140625 -27.739883422851562 -216.50796508789062 -27.739883422851562 -252.01797485351562C-27.739883422851562 -285.0469665527344 -20.771377563476562 -313.7369689941406 -6.8549652099609375 -339.2359619140625C-5.4754638671875 -341.7559814453125 -4.9787750244140625 -343.1379699707031 -4.9787750244140625 -344.7919616699219C-4.9787750244140625 -345.15496826171875 -5.002685546875 -345.5309753417969 -5.046417236328125 -345.93597412109375C-5.5666046142578125 -350.74896240234375 -9.636581420898438 -353.9999694824219 -14.028289794921875 -353.9999694824219C-15.464981079101562 -353.9999694824219 -16.936080932617188 -353.6519775390625 -18.328582763671875 -352.89697265625C-20.846878051757812 -351.5259704589844 -20.642684936523438 -351.8469543457031 -29.31597900390625 -335.7839660644531C-46.41938781738281 -304.1249694824219 -59.711181640625 -270.09295654296875 -66.64398193359375 -240.25196838378906C-71.07478332519531 -221.18296813964844 -73.27998352050781 -201.95196533203125 -73.27998352050781 -183.06297302246094C-73.27998352050781 -157.5969696044922 -69.27207946777344 -132.7529754638672 -61.30589294433594 -109.76397705078125C-53.79608154296875 -88.07986450195312 -50.09568786621094 -70.31976318359375 -50.09568786621094 -55.3333740234375C-50.09568786621094 -46.8604736328125 -51.27848815917969 -39.274169921875 -53.6243896484375 -32.366363525390625C-56.82337951660156 -22.95416259765625 -62.74488830566406 -14.387863159179688 -69.85267639160156 -8.90386962890625L-71.60287475585938 -7.5426025390625C-73.95596313476562 -5.709747314453125 -75.13247680664062 -3.0431060791015625 -75.13247680664062 -0.37646484375C-75.13247680664062 2.2901611328125 -73.95596313476562 4.9568023681640625 -71.60287475585938 6.7896575927734375L-69.85267639160156 8.150924682617188C-57.25947570800781 17.877716064453125 -50.09819030761719 34.64421081542969 -50.09819030761719 54.26251220703125C-50.09819030761719 54.94190979003906 -50.106689453125 55.62471008300781 -50.12397766113281 56.31080627441406C-50.50318908691406 71.72230529785156 -53.73138427734375 86.7838134765625 -61.58787536621094 109.8380126953125C-69.06507873535156 131.80300903320312 -73.06138610839844 155.7130126953125 -73.37257385253906 180.38101196289062C-73.38398742675781 181.1850128173828 -73.38948059082031 182.02101135253906 -73.38948059082031 182.88101196289062C-73.38948059082031 187.89901733398438 -73.20039367675781 193.71701049804688 -72.87669372558594 198.5150146484375C-69.80409240722656 244.468017578125 -54.198089599609375 291.15000915527344 -23.258285522460938 346.94200134277344C-20.467681884765625 351.97901916503906 -18.688278198242188 353.53501892089844 -15.226791381835938 353.9340057373047Z" fill="black" /></g></svg>