<?xml version="1.0" encoding="utf-8" ?>
<svg baseProfile="tiny" height="100%" version="1.2" width="100%" xmlns="http://www.w3.org/2000/svg" xmlns:ev="http://www.w3.org/2001/xml-events" xmlns:xlink="http://www.w3.org/1999/xlink"><defs /><g transform="translate(0, 1000) scale(1, -1)"><path d="M-19.656005859375 537.9539794921875C-19.1846923828125 538.0239868164062 -18.718704223632812 538.0579833984375 -18.260406494140625 538.0579833984375C-13.36920166015625 538.0579833984375 -9.36566162109375 534.1810302734375 -9.338394165039062 529.0819702148438C-9.337921142578125 529.0120239257812 -9.337661743164062 528.9429931640625 -9.337661743164062 528.875C-9.337661743164062 526.7919921875 -9.587509155273438 526.135009765625 -11.753799438476562 522.1489868164062C-34.106292724609375 481.0570068359375 -45.29290771484375 435.04400634765625 -45.29290771484375 382.34698486328125C-45.29290771484375 326.7460021972656 -32.83900451660156 263.7030029296875 -7.90704345703125 191.14999389648438C-2.6289215087890625 175.80599975585938 -0.0124969482421875 159.65499877929688 -0.0124969482421875 143.45599365234375C-0.0124969482421875 121.72100830078125 -4.7231292724609375 99.90090942382812 -14.035003662109375 79.83340454101562C-26.902206420898438 52.115997314453125 -47.03050231933594 28.126007080078125 -78.43069458007812 3.04766845703125L-82.42648315429688 -0.157958984375L-82.94839477539062 -0.5903472900390625L-82.42648315429688 -1.022735595703125L-78.43069458007812 -4.228363037109375C-47.03050231933594 -29.306732177734375 -26.902206420898438 -53.296722412109375 -14.035003662109375 -81.01412963867188C-4.7355804443359375 -101.04403686523438 0.0 -122.81202697753906 0.0 -144.5280303955078C0.0 -156.759033203125 -1.5022430419921875 -168.97303771972656 -4.53741455078125 -180.85003662109375C-6.1775054931640625 -187.2770233154297 -6.609893798828125 -188.66302490234375 -9.860244750976562 -198.07102966308594C-20.983001708984375 -230.32102966308594 -29.899093627929688 -263.1530456542969 -35.9674072265625 -294.2400207519531C-42.07029724121094 -325.5000305175781 -45.130706787109375 -354.8570251464844 -45.130706787109375 -382.4640197753906C-45.130706787109375 -434.9820251464844 -34.05560302734375 -481.1690368652344 -11.783599853515625 -522.0770568847656C-9.58831787109375 -526.1210021972656 -9.337661743164062 -526.7660217285156 -9.337661743164062 -528.8620300292969C-9.337661743164062 -528.9300231933594 -9.337936401367188 -528.9990539550781 -9.338394165039062 -529.0700378417969C-9.3785400390625 -534.5000305175781 -13.782699584960938 -538.0580139160156 -18.385604858398438 -538.0580139160156C-20.620895385742188 -538.0580139160156 -22.903106689453125 -537.2190246582031 -24.755203247070312 -535.3470153808594C-25.78399658203125 -534.3040466308594 -25.992706298828125 -533.9460144042969 -31.509307861328125 -523.8520202636719C-70.93099975585938 -451.6430358886719 -93.48959350585938 -386.20404052734375 -100.30300903320312 -324.28302001953125C-101.81199645996094 -310.61602783203125 -102.56199645996094 -296.92901611328125 -102.56199645996094 -283.3410339355469C-102.56199645996094 -253.82403564453125 -99.02230834960938 -224.7730255126953 -92.02850341796875 -197.4000244140625C-88.89739990234375 -185.14503479003906 -87.46600341796875 -180.41802978515625 -82.20291137695312 -164.89703369140625C-72.5465087890625 -136.3980255126953 -67.57749938964844 -110.12002563476562 -67.57749938964844 -87.794921875C-67.57749938964844 -83.23252868652344 -67.78509521484375 -78.83523559570312 -68.20249938964844 -74.61782836914062C-70.96080017089844 -46.55743408203125 -82.93341064453125 -23.417327880859375 -102.0780029296875 -9.059173583984375C-106.10299682617188 -6.0473785400390625 -107.20700073242188 -4.228363037109375 -107.20700073242188 -0.590362548828125C-107.20700073242188 3.047637939453125 -106.10299682617188 4.86663818359375 -102.0780029296875 7.8784332275390625C-79.96980285644531 24.4627685546875 -67.48709106445312 53.14317321777344 -67.48709106445312 86.55276489257812C-67.48709106445312 89.93766784667969 -67.61520385742188 93.37117004394531 -67.87449645996094 96.84556579589844C-69.48480224609375 118.40496826171875 -74.01730346679688 139.57696533203125 -82.20291137695312 163.71597290039062C-87.54060363769531 179.4159698486328 -89.0762939453125 184.57496643066406 -92.1925048828125 196.89097595214844C-99.17120361328125 224.5199737548828 -102.67999267578125 253.06497192382812 -102.67999267578125 282.21197509765625C-102.67999267578125 283.5149841308594 -102.67300415039062 284.8199768066406 -102.65899658203125 286.1259765625C-102.57000732421875 294.01397705078125 -102.4949951171875 296.05596923828125 -102.03298950195312 304.53997802734375C-98.15640258789062 374.0789794921875 -73.793701171875 448.0019836425781 -27.09600830078125 531.8999938964844C-24.859603881835938 535.9259948730469 -22.951095581054688 537.4619445800781 -19.656005859375 537.9539489746094Z" fill="black" /></g></svg>