<?xml version="1.0" encoding="utf-8" ?>
<svg baseProfile="tiny" height="100%" version="1.2" width="100%" xmlns="http://www.w3.org/2000/svg" xmlns:ev="http://www.w3.org/2001/xml-events" xmlns:xlink="http://www.w3.org/1999/xlink"><defs /><g transform="translate(0, 1000) scale(1, -1)"><path d="M-19.860305786132812 790.5709838867188C-18.913314819335938 790.9180297851562 -17.949722290039062 791.0789794921875 -17.001419067382812 791.0789794921875C-12.278213500976562 791.0789794921875 -7.9370269775390625 787.0709838867188 -7.9370269775390625 781.9320068359375C-7.9370269775390625 779.6840209960938 -8.201492309570312 779.0009765625 -11.154815673828125 773.64501953125C-46.238616943359375 709.927001953125 -63.784820556640625 636.208984375 -63.784820556640625 553.2940063476562C-63.784820556640625 472.4490051269531 -47.10371398925781 382.8599853515625 -13.733413696289062 285.27398681640625C-4.1912689208984375 257.3479919433594 -1.52587890625e-05 234.82200622558594 -1.52587890625e-05 210.06700134277344C-1.52587890625e-05 206.0050048828125 -0.11285400390625 201.88299560546875 -0.33343505859375 197.66700744628906C-4.1903228759765625 124.42999267578125 -42.737213134765625 59.1492919921875 -115.64401245117188 2.331756591796875C-117.84800720214844 0.6126708984375 -119.65501403808594 -0.8419189453125 -119.65501403808594 -0.908050537109375C-119.65501403808594 -0.9741668701171875 -117.84800720214844 -2.4287567138671875 -115.64401245117188 -4.1478424072265625C-42.737213134765625 -60.96539306640625 -4.1903228759765625 -126.24600219726562 -0.33343505859375 -199.48300170898438C-0.11285400390625 -203.69900512695312 -1.52587890625e-05 -207.8209991455078 -1.52587890625e-05 -211.88299560546875C-1.52587890625e-05 -236.63800048828125 -4.1912689208984375 -259.16400146484375 -13.733413696289062 -287.0899963378906C-43.88331604003906 -375.2690124511719 -60.03822326660156 -454.9419860839844 -63.300018310546875 -531.7269897460938C-63.55351257324219 -537.6389770507812 -63.674713134765625 -544.1909790039062 -63.674713134765625 -551.0479736328125C-63.674713134765625 -571.6209716796875 -62.583709716796875 -594.9530029296875 -60.69941711425781 -612.0609741210938C-54.19770812988281 -670.9719848632812 -37.2274169921875 -726.31298828125 -11.154815673828125 -773.697998046875C-8.201492309570312 -779.052978515625 -7.9370269775390625 -779.7369995117188 -7.9370269775390625 -781.9849853515625C-7.9370269775390625 -787.4819946289062 -12.504913330078125 -791.0789794921875 -17.163818359375 -791.0789794921875C-19.565216064453125 -791.0789794921875 -21.990814208984375 -790.1229858398438 -23.827407836914062 -787.97900390625C-26.494216918945312 -784.8720092773438 -47.16722106933594 -745.4210205078125 -57.59181213378906 -723.5800170898438C-107.36601257324219 -619.2050170898438 -132.1610107421875 -520.3660278320312 -132.1610107421875 -425.56298828125C-132.1610107421875 -377.0570068359375 -125.67001342773438 -329.60699462890625 -112.71202087402344 -283.0119934082031C-109.73701477050781 -272.322998046875 -107.37901306152344 -264.9179992675781 -101.51600646972656 -247.63900756835938C-88.25491333007812 -208.55499267578125 -81.71041870117188 -172.0850067138672 -81.71041870117188 -139.35800170898438C-81.71041870117188 -83.53990173339844 -100.74900817871094 -38.61279296875 -137.9700164794922 -10.186599731445312C-143.14901733398438 -6.21954345703125 -144.14102172851562 -4.7429046630859375 -144.14102172851562 -0.908050537109375C-144.14102172851562 2.9268035888671875 -143.14901733398438 4.4034423828125 -137.9700164794922 8.37054443359375C-100.76802062988281 36.734100341796875 -81.72181701660156 81.71160888671875 -81.72181701660156 137.572998046875C-81.72181701660156 170.3040008544922 -88.26031494140625 206.77200317382812 -101.51600646972656 245.822998046875C-110.53001403808594 272.3590087890625 -115.26901245117188 288.88800048828125 -119.98501586914062 310.2879943847656C-128.12501525878906 347.218994140625 -132.1730194091797 385.6650085449219 -132.1730194091797 424.7650146484375C-132.1730194091797 484.4389953613281 -122.74501037597656 545.6339721679688 -104.05101013183594 605.2860107421875C-84.96470642089844 666.2030029296875 -61.69111633300781 719.9349975585938 -27.904708862304688 781.0280151367188C-23.783309936523438 788.5 -23.012008666992188 789.4030151367188 -19.860321044921875 790.5709838867188Z" fill="black" /></g></svg>