<?xml version="1.0" encoding="utf-8" ?>
<svg baseProfile="tiny" height="100%" version="1.2" width="100%" xmlns="http://www.w3.org/2000/svg" xmlns:ev="http://www.w3.org/2001/xml-events" xmlns:xlink="http://www.w3.org/1999/xlink"><defs /><g transform="translate(0, 1000) scale(1, -1)"><path d="M-15.48779296875 363.44000244140625C-14.995697021484375 363.4989929199219 -14.518096923828125 363.54400634765625 -14.317794799804688 363.54400634765625L-14.238693237304688 363.5400085449219C-14.1287841796875 363.5199890136719 -13.719192504882812 363.4800109863281 -13.339492797851562 363.45001220703125C-8.865432739257812 363.0690002441406 -5.38714599609375 359.0509948730469 -5.38714599609375 354.5069885253906C-5.38714599609375 354.1700134277344 -5.40631103515625 353.8299865722656 -5.4456787109375 353.4880065917969C-5.61553955078125 352.0190124511719 -5.9152984619140625 351.19000244140625 -6.984466552734375 349.260986328125C-21.516082763671875 322.9700012207031 -28.787078857421875 293.1059875488281 -28.787078857421875 258.7120056152344C-28.787078857421875 222.17999267578125 -20.584381103515625 180.53700256347656 -4.1667022705078125 132.63299560546875C-1.9684295654296875 126.22799682617188 -1.7086334228515625 125.35800170898438 -0.4995880126953125 120.50199890136719L1.52587890625e-05 118.46400451660156V96.61100769042969V74.75831604003906L-0.5495452880859375 72.54002380371094C-7.1843109130859375 45.781219482421875 -23.561386108398438 22.6295166015625 -51.189483642578125 0.9366607666015625C-52.098785400390625 0.2272186279296875 -52.84819030761719 -0.382293701171875 -52.84819030761719 -0.4122772216796875C-52.84819030761719 -0.4422454833984375 -52.098785400390625 -1.041778564453125 -51.189483642578125 -1.761199951171875C-23.561386108398438 -23.454086303710938 -7.1843109130859375 -46.60578918457031 -0.5495452880859375 -73.36457824707031L1.52587890625e-05 -75.58287048339844V-97.45556640625V-119.32797241210938L-0.78936767578125 -122.44596862792969C-1.82855224609375 -126.54298400878906 -2.0683746337890625 -127.31198120117188 -3.507232666015625 -131.5089874267578C-20.354598999023438 -180.6379852294922 -28.764297485351562 -222.62799072265625 -28.764297485351562 -259.30299377441406C-28.764297485351562 -293.1689910888672 -21.593597412109375 -322.5019989013672 -7.2742462158203125 -348.7369842529297C-5.872222900390625 -351.3009796142578 -5.3695068359375 -352.6699981689453 -5.3695068359375 -354.3169708251953C-5.3695068359375 -354.72398376464844 -5.4002227783203125 -355.1479949951172 -5.4556884765625 -355.6119842529297C-6.0550689697265625 -360.55799865722656 -10.2239990234375 -363.5439910888672 -14.483596801757812 -363.5439910888672C-16.969894409179688 -363.5439910888672 -19.48699951171875 -362.52699279785156 -21.343093872070312 -360.28797912597656C-22.062591552734375 -359.42897033691406 -25.62969970703125 -353.0139923095703 -30.19610595703125 -344.38999938964844C-57.70440673828125 -292.4309844970703 -72.24288940429688 -246.12799072265625 -74.69100952148438 -202.75198364257812C-75.04071044921875 -196.43698120117188 -75.09060668945312 -194.77899169921875 -75.09060668945312 -188.1639862060547C-75.09060668945312 -181.51898193359375 -75.05068969726562 -180.20999145507812 -74.68099975585938 -173.67498779296875C-73.51190185546875 -152.82199096679688 -69.29519653320312 -131.6289825439453 -62.26080322265625 -111.30497741699219C-54.947998046875 -90.16249084472656 -51.28790283203125 -72.11338806152344 -51.28790283203125 -56.81239318847656C-51.28790283203125 -40.04179382324219 -55.684906005859375 -26.5723876953125 -64.48899841308594 -15.949981689453125C-66.48739624023438 -13.541885375976562 -69.70489501953125 -10.43438720703125 -72.0430908203125 -8.65576171875C-73.92160034179688 -7.23687744140625 -74.3511962890625 -6.857177734375 -74.960693359375 -6.0977783203125C-76.28469848632812 -4.47406005859375 -76.94670104980469 -2.44317626953125 -76.94670104980469 -0.4122772216796875C-76.94670104980469 1.618621826171875 -76.28469848632812 3.6495208740234375 -74.960693359375 5.273223876953125C-74.3511962890625 6.032623291015625 -73.92160034179688 6.412322998046875 -72.0430908203125 7.831207275390625C-69.70489501953125 9.60980224609375 -66.48739624023438 12.717315673828125 -64.48899841308594 15.125411987304688C-55.684906005859375 25.747817993164062 -51.28790283203125 39.21720886230469 -51.28790283203125 55.9879150390625C-51.28790283203125 71.28892517089844 -54.947998046875 89.33790588378906 -62.26080322265625 110.48002624511719C-68.79559326171875 129.35501098632812 -72.88240051269531 148.83001708984375 -74.43119812011719 168.35401916503906C-74.94369506835938 174.8170166015625 -75.20150756835938 181.2890167236328 -75.20150756835938 187.7860107421875C-75.20150756835938 231.1920166015625 -63.691802978515625 275.6790008544922 -39.73860168457031 325.4800262451172C-34.782501220703125 335.79200744628906 -29.886398315429688 345.2050018310547 -23.5513916015625 356.62501525878906C-20.793594360351562 361.6020050048828 -19.1549072265625 362.9800262451172 -15.48779296875 363.4400177001953Z" fill="black" /></g></svg>