<?xml version="1.0" encoding="utf-8" ?>
<svg baseProfile="tiny" height="100%" version="1.2" width="100%" xmlns="http://www.w3.org/2000/svg" xmlns:ev="http://www.w3.org/2001/xml-events" xmlns:xlink="http://www.w3.org/1999/xlink"><defs /><g transform="translate(0, 1000) scale(1, -1)"><path d="M-13.779205322265625 9747.6796875C-12.1614990234375 9748.5302734375 -10.518203735351562 9748.9296875 -8.958663940429688 9748.9296875C-5.52178955078125 9748.9296875 -2.4921417236328125 9746.9697265625 -1.0419464111328125 9743.4599609375C-0.579742431640625 9742.349609375 -0.223052978515625 9741.509765625 -0.223052978515625 9740.3896484375C-0.223052978515625 9736.8095703125 -3.8326568603515625 9730.330078125 -19.1376953125 9702.7900390625C-589.8359985351562 8673.1396484375 -881.1019897460938 7491.60986328125 -881.1019897460938 6243.60009765625C-881.1019897460938 5712.990234375 -828.4500122070312 5170.35986328125 -722.2360229492188 4622.27978515625C-638.697021484375 4191.31982421875 -529.156005859375 3788.56005859375 -372.88299560546875 3338.010009765625C-266.6820068359375 3031.75 -214.64999389648438 2714.77001953125 -214.64999389648438 2399.1298828125C-214.64999389648438 1746.1700439453125 -437.3240051269531 1098.97998046875 -863.7520141601562 564.3590087890625C-1036.010009765625 348.35198974609375 -1252.3699951171875 141.04200744628906 -1462.489990234375 -9.521514892578125L-1464.5999755859375 -11.014892578125L-1462.489990234375 -12.508193969726562C-1298.050048828125 -130.3059844970703 -1115.68994140625 -295.97898864746094 -970.9199829101562 -459.01597595214844C-477.0799865722656 -1014.9999847412109 -214.75100708007812 -1709.5999603271484 -214.75100708007812 -2418.030014038086C-214.75100708007812 -2658.870101928711 -245.0679931640625 -2901.300033569336 -306.9129943847656 -3140.429916381836C-329.1369934082031 -3226.259994506836 -347.5840148925781 -3286.780014038086 -380.78900146484375 -3382.879867553711C-575.801025390625 -3946.310043334961 -710.72802734375 -4495.589828491211 -791.281005859375 -5053.660140991211C-849.7780151367188 -5458.950180053711 -878.8179931640625 -5859.749984741211 -878.8179931640625 -6253.549789428711C-878.8179931640625 -7500.180160522461 -587.8079833984375 -8676.629867553711 -19.0498046875 -9702.860336303711C-9.035690307617188 -9720.959945678711 -0.5148773193359375 -9736.860336303711 -0.2513580322265625 -9738.089828491211C-0.080657958984375 -9738.740219116211 0.0 -9739.389633178711 0.0 -9740.030258178711C0.0 -9744.820297241211 -4.50274658203125 -9748.929672241211 -9.587905883789062 -9748.929672241211C-10.476394653320312 -9748.929672241211 -11.382705688476562 -9748.809555053711 -12.285903930664062 -9748.540023803711C-16.414505004882812 -9747.309555053711 -15.1846923828125 -9749.150375366211 -37.32130432128906 -9709.360336303711C-586.7810211181641 -8721.650375366211 -929.8100128173828 -7635.729965209961 -1037.240005493164 -6544.359848022461C-1039.6100006103516 -6519.680160522461 -1042.250015258789 -6494.209945678711 -1042.949966430664 -6487.709945678711C-1061.8600006103516 -6319.140121459961 -1075.6200103759766 -6007.779769897461 -1075.6200103759766 -5767.390121459961C-1075.6200103759766 -5743.080062866211 -1075.479995727539 -5719.490219116211 -1075.189956665039 -5696.850082397461C-1064.209976196289 -4851.970199584961 -928.3159942626953 -4080.360092163086 -647.3930206298828 -3268.249984741211C-521.2350006103516 -2903.520004272461 -460.3720245361328 -2533.350082397461 -460.3720245361328 -2175.189926147461C-460.3720245361328 -1306.6299896240234 -818.3010406494141 -508.67601013183594 -1470.9200592041016 -30.076919555664062C-1484.010025024414 -20.458023071289062 -1490.560073852539 -15.736419677734375 -1490.560073852539 -11.014907836914062C-1490.560073852539 -6.2932891845703125 -1484.010025024414 -1.5717010498046875 -1470.9200592041016 8.047149658203125C-829.8499908447266 478.1899719238281 -459.9750213623047 1272.2299499511719 -459.9750213623047 2151.149871826172C-459.9750213623047 2242.439910888672 -463.9660186767578 2334.659881591797 -472.0580291748047 2427.519989013672C-497.18101501464844 2715.989959716797 -553.5770416259766 2974.779998779297 -656.0020294189453 3271.249969482422C-903.1930084228516 3986.820037841797 -1038.9100494384766 4698.620086669922 -1071.060073852539 5448.009735107422C-1075.979995727539 5564.229949951172 -1077.209976196289 5626.069793701172 -1077.209976196289 5769.959930419922C-1077.209976196289 5894.689910888672 -1076.770034790039 5925.879852294922 -1074.1400299072266 6009.330047607422C-1068.4300689697266 6185.810028076172 -1057.8900299072266 6350.069793701172 -1041.719985961914 6513.549774169922C-976.9820098876953 7167.109832763672 -847.5880279541016 7754.689910888672 -627.8920440673828 8392.519500732422C-481.8970184326172 8816.280242919922 -279.76902770996094 9269.549774169922 -53.8358154296875 9679.429656982422C-17.205108642578125 9745.839813232422 -17.1173095703125 9746.009735107422 -13.779220581054688 9747.679656982422Z" fill="black" /></g></svg>