<?xml version="1.0" encoding="utf-8" ?>
<svg baseProfile="tiny" height="100%" version="1.2" width="100%" xmlns="http://www.w3.org/2000/svg" xmlns:ev="http://www.w3.org/2001/xml-events" xmlns:xlink="http://www.w3.org/1999/xlink"><defs /><g transform="translate(0, 1000) scale(1, -1)"><path d="M-14.45880126953125 6162.43994140625C-13.002395629882812 6163.33984375 -11.23370361328125 6163.77001953125 -9.455307006835938 6163.77001953125C-6.065643310546875 6163.77001953125 -2.6407470703125 6162.22998046875 -1.2754669189453125 6159.58984375C-0.578094482421875 6158.240234375 -0.1078643798828125 6157.16015625 -0.1078643798828125 6155.75C-0.1078643798828125 6152.10009765625 -3.24249267578125 6146.18017578125 -13.695602416992188 6127.330078125C-363.66600036621094 5494.7998046875 -542.8060455322266 4766.9501953125 -542.8060455322266 3988.760009765625C-542.8060455322266 3806.669921875 -532.9980010986328 3621.820068359375 -513.2760162353516 3434.800048828125C-467.41200256347656 2999.5400390625 -369.6470184326172 2566.840087890625 -219.28701782226562 2133.81005859375C-149.16201782226562 1931.77001953125 -115.52101135253906 1737.2900390625 -115.52101135253906 1533.449951171875C-115.52101135253906 1526.9200439453125 -115.55500793457031 1520.3900146484375 -115.62400817871094 1513.8399658203125C-116.04002380371094 1475.6099853515625 -116.45701599121094 1464.3699951171875 -118.53800964355469 1425.719970703125C-148.86001586914062 878.6090087890625 -436.9510192871094 358.14300537109375 -903.6430358886719 7.604278564453125C-913.7730407714844 -0.0281982421875 -922.0300598144531 -6.481109619140625 -922.0300598144531 -6.7586517333984375C-922.0300598144531 -7.03619384765625 -913.7730407714844 -13.489105224609375 -903.6430358886719 -21.121597290039062C-700.4110412597656 -173.84100341796875 -529.0270080566406 -359.864990234375 -398.3730163574219 -569.4810180664062C-215.54002380371094 -862.844970703125 -119.301025390625 -1189.0999755859375 -115.6240234375 -1527.3599853515625C-115.55502319335938 -1533.9100341796875 -115.52001953125 -1540.4599609375 -115.52001953125 -1547.0C-115.52001953125 -1750.739990234375 -149.09902954101562 -1944.8900146484375 -219.2870330810547 -2147.320068359375C-348.97003173828125 -2521.31005859375 -438.8250427246094 -2891.909912109375 -490.4480285644531 -3265.1298828125C-524.5470275878906 -3511.830078125 -541.4830017089844 -3755.27001953125 -541.4830017089844 -3994.080078125C-541.4830017089844 -4769.419921875 -362.96002197265625 -5495.97021484375 -13.69561767578125 -6126.97021484375C-4.0545806884765625 -6144.41015625 -1.52587890625e-05 -6152.3701171875 -1.52587890625e-05 -6156.77978515625C-1.52587890625e-05 -6159.5400390625 -1.5915374755859375 -6160.91015625 -4.397857666015625 -6162.35009765625C-6.1890106201171875 -6163.27978515625 -7.8008575439453125 -6163.77001953125 -9.322494506835938 -6163.77001953125C-13.400619506835938 -6163.77001953125 -16.830718994140625 -6160.259765625 -21.328109741210938 -6152.22021484375C-368.6060028076172 -5528.43994140625 -587.9359893798828 -4866.009765625 -667.0360260009766 -4201.85009765625C-668.9090118408203 -4185.60986328125 -670.6439971923828 -4171.72998046875 -670.8520050048828 -4170.97021484375C-671.3380279541016 -4168.68017578125 -675.8480377197266 -4127.18994140625 -678.8319854736328 -4097.419921875C-694.8560333251953 -3936.81005859375 -702.8400421142578 -3776.35009765625 -702.8400421142578 -3616.56005859375C-702.8400421142578 -3103.179931640625 -620.4199981689453 -2596.840087890625 -457.49000549316406 -2115.39990234375C-424.04502868652344 -2016.6700439453125 -419.2580108642578 -2002.239990234375 -412.1800079345703 -1979.06005859375C-356.5330047607422 -1796.989990234375 -326.28001403808594 -1622.68994140625 -317.19102478027344 -1432.300048828125C-316.56602478027344 -1419.530029296875 -316.25401306152344 -1383.949951171875 -316.25401306152344 -1348.3699951171875C-316.25401306152344 -1312.780029296875 -316.56602478027344 -1277.1800537109375 -317.19102478027344 -1264.3800048828125C-342.03102111816406 -742.322021484375 -560.7360382080078 -299.42999267578125 -928.6220245361328 -26.256195068359375C-941.8750152587891 -16.438003540039062 -948.5009918212891 -11.598297119140625 -948.5009918212891 -6.7586517333984375C-948.5009918212891 -1.918975830078125 -941.8750152587891 2.92071533203125 -928.6220245361328 12.738906860351562C-560.7360382080078 285.91200256347656 -342.03102111816406 728.8040313720703 -317.19102478027344 1250.8700103759766C-316.56602478027344 1263.6700592041016 -316.25401306152344 1299.260025024414 -316.25401306152344 1334.8499908447266C-316.25401306152344 1370.439956665039 -316.56602478027344 1406.010025024414 -317.19102478027344 1418.780044555664C-326.28001403808594 1609.1800689697266 -356.5330047607422 1783.469985961914 -412.1800079345703 1965.540054321289C-419.2580108642578 1988.719985961914 -425.57200622558594 2007.729995727539 -456.4490203857422 2098.760025024414C-621.1020050048828 2584.679946899414 -704.1530303955078 3092.979995727539 -704.1530303955078 3609.830093383789C-704.1530303955078 3784.290054321289 -694.6909942626953 3959.719985961914 -675.7089996337891 4135.600112915039C-674.3209991455078 4148.020034790039 -672.7949981689453 4161.620132446289 -672.2400054931641 4165.779800415039C-671.6150054931641 4170.009780883789 -669.6030426025391 4186.529800415039 -667.6599884033203 4202.549819946289C-589.4619903564453 4854.299819946289 -371.6590118408203 5518.669937133789 -38.60520935058594 6121.430191040039C-16.471023559570312 6161.459976196289 -16.679214477539062 6161.120132446289 -14.458816528320312 6162.439956665039Z" fill="black" /></g></svg>