<?xml version="1.0" encoding="utf-8" ?>
<svg baseProfile="tiny" height="100%" version="1.2" width="100%" xmlns="http://www.w3.org/2000/svg" xmlns:ev="http://www.w3.org/2001/xml-events" xmlns:xlink="http://www.w3.org/1999/xlink"><defs /><g transform="translate(0, 1000) scale(1, -1)"><path d="M-13.067703247070312 1496.0699462890625C-11.772613525390625 1496.68994140625 -10.447418212890625 1496.969970703125 -9.163406372070312 1496.969970703125C-4.39990234375 1496.969970703125 -0.2021636962890625 1493.0699462890625 -0.2021636962890625 1487.8199462890625C-0.2021636962890625 1487.6300048828125 -0.2076568603515625 1487.43994140625 -0.21881103515625 1487.25C-0.3194427490234375 1485.030029296875 -0.4871826171875 1484.699951171875 -5.6535797119140625 1475.239990234375C-78.94801330566406 1341.4599609375 -115.76802062988281 1187.4300537109375 -115.76802062988281 1017.47998046875C-115.76802062988281 909.7260131835938 -100.96601867675781 795.572021484375 -71.27351379394531 676.125C-60.1356201171875 631.3380126953125 -45.038909912109375 580.5460205078125 -29.606918334960938 535.7260131835938C-18.972122192382812 504.9630126953125 -13.939910888671875 486.81298828125 -9.9141845703125 464.906005859375C-5.10906982421875 438.8160095214844 -2.736480712890625 412.82501220703125 -2.736480712890625 387.07000732421875C-2.736480712890625 243.7989959716797 -76.15620422363281 107.83399963378906 -212.67800903320312 2.64825439453125C-215.63101196289062 0.4005279541015625 -218.0460205078125 -1.57879638671875 -218.0460205078125 -1.7129974365234375C-218.0460205078125 -1.8471832275390625 -215.63101196289062 -3.8265228271484375 -212.67800903320312 -6.0742340087890625C-102.47300720214844 -90.98429870605469 -32.76042175292969 -196.0570068359375 -10.450912475585938 -310.8580017089844C-5.340911865234375 -337.0899963378906 -2.80792236328125 -363.95599365234375 -2.80792236328125 -390.8009948730469C-2.80792236328125 -436.5669860839844 -10.169815063476562 -482.2760009765625 -24.675308227539062 -524.6929931640625C-45.60931396484375 -585.9180297851562 -58.1898193359375 -627.5850219726562 -70.434814453125 -676.364013671875C-100.48402404785156 -796.2069702148438 -115.46202087402344 -910.8070068359375 -115.46202087402344 -1018.97998046875C-115.46202087402344 -1188.3399658203125 -78.75091552734375 -1341.9599609375 -5.6871337890625 -1475.31005859375C-1.446929931640625 -1483.030029296875 -1.52587890625e-05 -1485.93994140625 -1.52587890625e-05 -1488.25C-1.52587890625e-05 -1489.219970703125 -0.2506866455078125 -1490.0799560546875 -0.6549224853515625 -1491.1400146484375C-2.082305908203125 -1494.8800048828125 -5.7282257080078125 -1496.969970703125 -9.370346069335938 -1496.969970703125C-11.720321655273438 -1496.969970703125 -14.068710327148438 -1496.0999755859375 -15.818618774414062 -1494.22998046875C-19.27410888671875 -1490.510009765625 -50.27241516113281 -1431.6600341796875 -66.20771789550781 -1398.47998046875C-158.58702087402344 -1206.3499755859375 -204.9920196533203 -1016.3599853515625 -204.9920196533203 -833.2249755859375C-204.9920196533203 -717.47802734375 -186.4560089111328 -604.4650268554688 -149.27301025390625 -495.37200927734375C-126.52702331542969 -428.6449890136719 -116.42901611328125 -382.01300048828125 -112.37001037597656 -324.7799987792969C-111.55302429199219 -313.26800537109375 -111.14901733398438 -301.885986328125 -111.14901733398438 -290.6570129394531C-111.14901733398438 -172.7310028076172 -155.71401977539062 -71.6278076171875 -234.98802185058594 -12.448394775390625C-241.99900817871094 -7.214874267578125 -243.0390167236328 -5.872955322265625 -243.0390167236328 -1.7129974365234375C-243.0390167236328 2.44696044921875 -241.99900817871094 3.78887939453125 -234.98802185058594 9.022369384765625C-155.71401977539062 68.20179748535156 -111.14901733398438 169.30499267578125 -111.14901733398438 287.2309875488281C-111.14901733398438 298.4599914550781 -111.55302429199219 309.8420104980469 -112.37001037597656 321.35400390625C-116.42901611328125 378.68798828125 -126.4940185546875 425.0509948730469 -149.37301635742188 492.31500244140625C-186.66702270507812 601.8049926757812 -205.21401977539062 715.43798828125 -205.21401977539062 831.7039794921875C-205.21401977539062 1043.4300537109375 -143.7060089111328 1263.8900146484375 -21.890823364257812 1483.9599609375C-16.489608764648438 1493.68994140625 -15.650909423828125 1494.8599853515625 -13.067718505859375 1496.0699462890625Z" fill="black" /></g></svg>