<?xml version="1.0" encoding="utf-8" ?>
<svg baseProfile="tiny" height="100%" version="1.2" width="100%" xmlns="http://www.w3.org/2000/svg" xmlns:ev="http://www.w3.org/2001/xml-events" xmlns:xlink="http://www.w3.org/1999/xlink"><defs /><g transform="translate(0, 1000) scale(1, -1)"><path d="M-11.387100219726562 2058.889892578125C-10.613815307617188 2059.10009765625 -9.842727661132812 2059.199951171875 -9.0872802734375 2059.199951171875C-4.219696044921875 2059.199951171875 -1.52587890625e-05 2055.10009765625 -1.52587890625e-05 2050.2099609375C-1.52587890625e-05 2049.580078125 -0.069366455078125 2048.93994140625 -0.2155914306640625 2048.300048828125C-0.408203125 2047.300048828125 -2.7195587158203125 2042.5999755859375 -5.3390960693359375 2037.8199462890625C-15.740219116210938 2018.8699951171875 -24.677413940429688 2001.760009765625 -31.881118774414062 1986.969970703125C-121.60002136230469 1802.75 -164.8610076904297 1605.5999755859375 -164.8610076904297 1380.8199462890625C-164.8610076904297 1336.550048828125 -164.24501037597656 1314.4000244140625 -162.16500854492188 1279.8900146484375C-151.03201293945312 1098.2099609375 -113.24101257324219 913.7680053710938 -48.83111572265625 727.0880126953125C-31.72711181640625 677.5859985351562 -22.751312255859375 639.6420288085938 -17.512222290039062 594.9550170898438C-14.909912109375 572.6840209960938 -13.625015258789062 550.4199829101562 -13.625015258789062 528.2329711914062C-13.625015258789062 331.0270080566406 -115.13902282714844 139.92100524902344 -295.33702087402344 3.5950775146484375C-299.42100524902344 0.513275146484375 -302.7720184326172 -2.1833038330078125 -302.7720184326172 -2.33740234375C-302.7720184326172 -2.491485595703125 -299.42100524902344 -5.1880645751953125 -295.33702087402344 -8.269882202148438C-166.5950164794922 -105.69400024414062 -73.52412414550781 -236.7469940185547 -35.5023193359375 -374.27301025390625C-20.868911743164062 -427.1419982910156 -13.552322387695312 -479.81201171875 -13.552322387695312 -532.3499755859375C-13.552322387695312 -597.3729858398438 -24.759719848632812 -662.1959838867188 -47.17460632324219 -726.947021484375C-110.31301879882812 -909.2750244140625 -147.95001220703125 -1087.3299560546875 -160.3920135498047 -1262.5999755859375C-163.2880096435547 -1303.25 -164.73101806640625 -1343.4100341796875 -164.73101806640625 -1383.0400390625C-164.73101806640625 -1594.9100341796875 -123.47201538085938 -1791.5400390625 -42.24371337890625 -1965.260009765625C-29.878021240234375 -1991.719970703125 -19.939117431640625 -2011.2900390625 -5.3390960693359375 -2037.8699951171875C-1.23004150390625 -2045.3800048828125 -0.001312255859375 -2048.010009765625 -0.001312255859375 -2050.330078125C-0.001312255859375 -2050.919921875 -0.082000732421875 -2051.5 -0.2155914306640625 -2052.1201171875C-1.169677734375 -2056.580078125 -5.19573974609375 -2059.199951171875 -9.23028564453125 -2059.199951171875C-11.71160888671875 -2059.199951171875 -14.196212768554688 -2058.2099609375 -15.9713134765625 -2056.050048828125C-19.708023071289062 -2051.510009765625 -49.06221008300781 -1996.4200439453125 -67.93830871582031 -1958.510009765625C-199.33201599121094 -1694.81005859375 -266.7050018310547 -1424.9599609375 -266.7050018310547 -1163.9300537109375C-266.7050018310547 -1140.1099853515625 -266.14402770996094 -1116.3699951171875 -265.02000427246094 -1092.719970703125C-258.0860137939453 -947.1420288085938 -232.35301208496094 -814.9329833984375 -183.19801330566406 -672.7069702148438C-152.8570098876953 -584.85302734375 -138.09901428222656 -498.1510009765625 -138.09901428222656 -416.62200927734375C-138.09901428222656 -248.3730010986328 -200.94601440429688 -102.15200805664062 -319.37501525878906 -13.277801513671875C-325.25001525878906 -8.866973876953125 -328.18702697753906 -5.6021881103515625 -328.18702697753906 -2.33740234375C-328.18702697753906 0.927398681640625 -325.25001525878906 4.1921844482421875 -319.37501525878906 8.60302734375C-200.7580108642578 97.63009643554688 -138.27700805664062 241.8780059814453 -138.27700805664062 409.9389953613281C-138.27700805664062 493.0559997558594 -153.55902099609375 581.9970092773438 -184.8930206298828 672.9639892578125C-232.16001892089844 810.219970703125 -258.0860137939453 943.2000122070312 -265.21202087402344 1085.1600341796875C-266.7530059814453 1116.0899658203125 -266.94602966308594 1124.219970703125 -266.94602966308594 1161.6199951171875C-266.94602966308594 1202.4200439453125 -266.4450225830078 1219.6800537109375 -264.24900817871094 1256.5799560546875C-248.80201721191406 1514.6099853515625 -166.20901489257812 1785.1099853515625 -24.715911865234375 2040.9000244140625C-15.509017944335938 2057.5400390625 -15.316421508789062 2057.77001953125 -11.387115478515625 2058.889892578125Z" fill="black" /></g></svg>