<?xml version="1.0" encoding="utf-8" ?>
<svg baseProfile="tiny" height="100%" version="1.2" width="100%" xmlns="http://www.w3.org/2000/svg" xmlns:ev="http://www.w3.org/2001/xml-events" xmlns:xlink="http://www.w3.org/1999/xlink"><defs /><g transform="translate(0, 1000) scale(1, -1)"><path d="M-11.927505493164062 2274.590087890625C-11.030120849609375 2274.830078125 -10.153915405273438 2274.93994140625 -9.310211181640625 2274.93994140625C-4.06170654296875 2274.93994140625 -0.0733795166015625 2270.590087890625 -0.0733795166015625 2265.6298828125C-0.0733795166015625 2263.949951171875 -0.53082275390625 2262.199951171875 -1.55169677734375 2260.52001953125C-6.425201416015625 2252.4599609375 -21.202911376953125 2224.52001953125 -31.578720092773438 2203.77001953125C-125.66902160644531 2015.27001953125 -174.8360137939453 1812.8299560546875 -183.67901611328125 1577.0899658203125C-184.3760223388672 1558.5699462890625 -184.7200164794922 1539.56005859375 -184.7200164794922 1520.1600341796875C-184.7200164794922 1397.31005859375 -170.90701293945312 1258.75 -145.28102111816406 1127.6700439453125C-122.80001831054688 1012.6300048828125 -98.58941650390625 923.7650146484375 -52.68421936035156 788.093017578125C-29.768218994140625 720.3759765625 -18.348220825195312 650.6400146484375 -18.348220825195312 580.8729858398438C-18.348220825195312 493.65301513671875 -36.19682312011719 406.3840026855469 -71.74580383300781 322.9490051269531C-78.230712890625 307.739013671875 -90.72891235351562 281.44500732421875 -96.42781066894531 271.07000732421875L-113.95701599121094 239.86300659179688C-166.1110076904297 151.35400390625 -242.47601318359375 67.28640747070312 -330.7100067138672 1.2582855224609375C-333.4610137939453 -0.785430908203125 -335.7010040283203 -2.554046630859375 -335.7010040283203 -2.6719512939453125C-335.7010040283203 -2.78985595703125 -333.4610137939453 -4.5584716796875 -330.7100067138672 -6.602203369140625C-254.42401123046875 -63.70860290527344 -186.62701416015625 -134.61000061035156 -135.8870086669922 -210.38499450683594C-121.97401428222656 -231.17599487304688 -113.91700744628906 -244.65699768066406 -96.42781066894531 -276.4129943847656C-90.72891235351562 -286.78900146484375 -78.230712890625 -313.0830078125 -71.74580383300781 -328.2929992675781C-36.19682312011719 -411.7279968261719 -18.348220825195312 -498.99700927734375 -18.348220825195312 -586.2169799804688C-18.348220825195312 -655.9840087890625 -29.768218994140625 -725.719970703125 -52.68421936035156 -793.43701171875C-101.45802307128906 -937.6380004882812 -127.43701171875 -1035.1099853515625 -150.0360107421875 -1158.75C-172.75201416015625 -1283.02001953125 -184.05801391601562 -1404.27001953125 -184.05801391601562 -1521.449951171875C-184.05801391601562 -1752.989990234375 -139.92001342773438 -1968.6500244140625 -52.44831848144531 -2160.3798828125C-37.47410583496094 -2193.22998046875 -11.809616088867188 -2243.780029296875 -1.55169677734375 -2260.75C-0.488006591796875 -2262.510009765625 -1.52587890625e-05 -2264.35009765625 -1.52587890625e-05 -2266.090087890625C-1.52587890625e-05 -2270.860107421875 -3.641845703125 -2274.93994140625 -9.137069702148438 -2274.93994140625C-14.6787109375 -2274.93994140625 -15.07171630859375 -2274.550048828125 -22.971511840820312 -2260.199951171875C-200.3610076904297 -1939.81005859375 -290.2840118408203 -1609.7900390625 -290.2840118408203 -1290.6099853515625C-290.2840118408203 -1110.02001953125 -261.50001525878906 -932.9110107421875 -203.48802185058594 -762.97802734375C-186.62701416015625 -713.614013671875 -179.39501953125 -689.52099609375 -171.8880157470703 -657.4509887695312C-156.18601989746094 -590.6740112304688 -148.5130157470703 -525.5819702148438 -148.5130157470703 -463.4419860839844C-148.5130157470703 -274.39300537109375 -219.5360107421875 -112.66900634765625 -351.5790252685547 -13.991104125976562C-359.7150115966797 -7.8991851806640625 -360.3040008544922 -7.152435302734375 -360.3040008544922 -2.6719512939453125C-360.3040008544922 1.808502197265625 -359.7150115966797 2.5552520751953125 -351.5790252685547 8.647140502929688C-218.95501708984375 107.78797912597656 -148.3330078125 271.25999450683594 -148.3330078125 458.95399475097656C-148.3330078125 547.0900115966797 -163.90501403808594 640.5670013427734 -195.9420166015625 735.2310028076172C-222.31301879882812 813.2469940185547 -235.0080108642578 856.8719940185547 -249.0390167236328 917.7910003662109C-276.9030303955078 1038.9100189208984 -290.72801208496094 1162.8399505615234 -290.72801208496094 1288.300033569336C-290.72801208496094 1609.1700286865234 -200.30601501464844 1940.0999603271484 -23.010818481445312 2259.969955444336C-16.093612670898438 2272.429916381836 -15.111007690429688 2273.729965209961 -11.927520751953125 2274.590072631836Z" fill="black" /></g></svg>