<?xml version="1.0" encoding="utf-8" ?>
<svg baseProfile="tiny" height="100%" version="1.2" width="100%" xmlns="http://www.w3.org/2000/svg" xmlns:ev="http://www.w3.org/2001/xml-events" xmlns:xlink="http://www.w3.org/1999/xlink"><defs /><g transform="translate(0, 1000) scale(1, -1)"><path d="M-13.337997436523438 5254.759765625C-12.181381225585938 5255.2900390625 -10.92828369140625 5255.5400390625 -9.66943359375 5255.5400390625C-6.1853485107421875 5255.5400390625 -2.6576385498046875 5253.64013671875 -1.011260986328125 5250.52978515625C-0.3784637451171875 5249.330078125 -0.007171630859375 5248.27978515625 -0.007171630859375 5247.02001953125C-0.007171630859375 5244.0498046875 -2.0489501953125 5239.91015625 -7.5481719970703125 5230.0400390625C-204.96298217773438 4878.47998046875 -342.2379913330078 4474.5 -409.59898376464844 4047.169921875C-441.9499969482422 3842.06005859375 -457.98899841308594 3630.56005859375 -457.98899841308594 3415.300048828125C-457.98899841308594 2898.179931640625 -365.41798400878906 2359.419921875 -184.04498291015625 1835.52001953125C-140.52798461914062 1709.699951171875 -118.17799377441406 1617.31005859375 -103.36097717285156 1501.02001953125C-95.65228271484375 1440.9599609375 -91.32069396972656 1367.5400390625 -91.32069396972656 1303.6500244140625C-91.32069396972656 1283.4300537109375 -91.75448608398438 1264.1600341796875 -92.65248107910156 1246.5799560546875C-101.61698913574219 1072.6300048828125 -131.81198120117188 924.8980102539062 -190.51898193359375 767.9500122070312C-300.8999786376953 473.0419921875 -507.5279998779297 201.35601806640625 -769.7519989013672 6.30712890625C-778.4050140380859 -0.105255126953125 -785.5649871826172 -5.5215606689453125 -785.5649871826172 -5.7083282470703125C-785.5649871826172 -5.8950958251953125 -782.3270111083984 -8.385345458984375 -778.3430023193359 -11.24908447265625C-767.8839569091797 -18.844390869140625 -746.3430023193359 -35.40458679199219 -730.5300140380859 -47.98028564453125C-391.6689910888672 -317.36297607421875 -170.09898376464844 -689.2819519042969 -108.96397399902344 -1091.1499938964844C-100.30998229980469 -1147.9899597167969 -96.13877868652344 -1191.0099792480469 -92.65248107910156 -1257.9899597167969C-91.75448608398438 -1275.5799255371094 -91.32069396972656 -1294.8399353027344 -91.32069396972656 -1315.0600280761719C-91.32069396972656 -1378.9599304199219 -95.65228271484375 -1452.3799743652344 -103.36097717285156 -1512.4300231933594C-118.17799377441406 -1628.7299499511719 -140.52798461914062 -1721.1800231933594 -184.04498291015625 -1846.9399108886719C-364.84898376464844 -2369.019989013672 -456.77098083496094 -2904.279998779297 -456.77098083496094 -3419.070037841797C-456.77098083496094 -3665.779998779297 -435.6589813232422 -3907.790008544922 -393.1009979248047 -4141.390106201172C-322.0669708251953 -4531.180145263672 -189.39898681640625 -4906.149871826172 -9.042312622070312 -5226.830047607422C-2.8733673095703125 -5237.839813232422 1.52587890625e-05 -5243.850067138672 1.52587890625e-05 -5247.700164794922C1.52587890625e-05 -5250.689910888672 -1.73101806640625 -5252.379852294922 -4.99566650390625 -5254.100067138672C-6.723846435546875 -5255.009735107422 -8.202239990234375 -5255.540008544922 -9.601959228515625 -5255.540008544922C-13.748886108398438 -5255.540008544922 -17.205078125 -5250.910125732422 -24.419586181640625 -5237.970184326172C-120.04498291015625 -5067.330047607422 -210.19198608398438 -4878.939910888672 -284.1529998779297 -4695.160125732422C-498.6599884033203 -4162.220184326172 -607.6649627685547 -3612.179901123047 -607.6649627685547 -3069.060028076172C-607.6649627685547 -2920.830047607422 -599.5439910888672 -2773.100067138672 -583.2319793701172 -2626.389862060547C-551.7919769287109 -2343.239959716797 -488.04197692871094 -2056.679901123047 -397.64598083496094 -1792.2099304199219C-346.2219696044922 -1641.6800231933594 -325.55299377441406 -1565.2299499511719 -305.3199920654297 -1450.0500183105469C-286.9819793701172 -1345.6299743652344 -278.03199768066406 -1242.2199401855469 -278.03199768066406 -1141.0999450683594C-278.03199768066406 -681.9619445800781 -462.5509796142578 -270.0999755859375 -790.6069793701172 -25.81707763671875C-809.4089813232422 -11.809463500976562 -810.2800140380859 -11.000076293945312 -810.8409881591797 -8.011795043945312C-811.0800018310547 -6.7780609130859375 -811.2709808349609 -5.7794036865234375 -811.2709808349609 -4.857513427734375C-811.2709808349609 -0.98779296875 -807.9029998779297 1.529205322265625 -790.6069793701172 14.400436401367188C-712.9119720458984 72.23654174804688 -638.7639617919922 144.26702880859375 -575.7609710693359 223.14602661132812C-379.7639923095703 468.2550354003906 -278.03199768066406 786.7630310058594 -278.03199768066406 1128.2600402832031C-278.03199768066406 1305.3700256347656 -305.39598083496094 1488.6600646972656 -361.1639862060547 1671.1000061035156C-366.70497131347656 1689.2800598144531 -378.90699768066406 1725.8299865722656 -398.2679901123047 1782.7300109863281C-537.8649749755859 2191.939971923828 -608.7399749755859 2627.050079345703 -608.7399749755859 3066.709991455078C-608.7399749755859 3236.070098876953 -598.2239837646484 3406.100128173828 -577.0679779052734 3575.580108642578C-563.9319915771484 3680.610137939453 -546.0029754638672 3791.050079345703 -525.6450042724609 3892.159942626953C-432.8209991455078 4352.910186767578 -266.5959930419922 4801.100128173828 -29.96038818359375 5228.490264892578C-16.264083862304688 5253.259796142578 -16.139480590820312 5253.450225830078 -13.337982177734375 5254.759796142578Z" fill="black" /></g></svg>