<?xml version="1.0" encoding="utf-8" ?>
<svg baseProfile="tiny" height="100%" version="1.2" width="100%" xmlns="http://www.w3.org/2000/svg" xmlns:ev="http://www.w3.org/2001/xml-events" xmlns:xlink="http://www.w3.org/1999/xlink"><defs /><g transform="translate(0, 1000) scale(1, -1)"><path d="M-13.358596801757812 4982.68994140625C-12.20098876953125 4983.22021484375 -10.946792602539062 4983.47021484375 -9.686981201171875 4983.47021484375C-6.2000274658203125 4983.47021484375 -2.6694488525390625 4981.56005859375 -1.021728515625 4978.4501953125C-0.397430419921875 4977.2900390625 1.52587890625e-05 4976.31005859375 1.52587890625e-05 4975.0498046875C1.52587890625e-05 4971.77978515625 -2.672210693359375 4966.64990234375 -10.990890502929688 4951.72021484375C-290.2949981689453 4450.02001953125 -432.6169891357422 3863.97998046875 -432.6169891357422 3240.43994140625C-432.6169891357422 2918.3798828125 -394.6499786376953 2586.320068359375 -317.9779815673828 2250.7099609375C-276.2949981689453 2068.330078125 -234.1129913330078 1922.530029296875 -162.02297973632812 1711.75C-109.69398498535156 1558.81005859375 -84.20109558105469 1401.6800537109375 -84.20109558105469 1245.449951171875C-84.20109558105469 838.6119995117188 -257.08299255371094 437.8659973144531 -579.1079559326172 132.947998046875C-628.5789642333984 86.09320068359375 -694.0640106201172 31.138198852539062 -738.6139984130859 -0.8876495361328125C-742.1339569091797 -3.4422454833984375 -743.8939666748047 -4.43914794921875 -743.8939666748047 -5.436065673828125C-743.8939666748047 -6.4329833984375 -742.1339569091797 -7.4298858642578125 -738.6139984130859 -9.9844970703125C-694.0640106201172 -42.010406494140625 -628.5789642333984 -96.96530151367188 -579.1079559326172 -143.82000732421875C-257.0189971923828 -448.7550048828125 -84.22138977050781 -849.2369995117188 -84.22138977050781 -1256.1500244140625C-84.22138977050781 -1412.3699951171875 -109.69099426269531 -1569.550048828125 -161.9609832763672 -1722.6199951171875C-223.58297729492188 -1903.0 -258.59999084472656 -2019.5799560546875 -294.6749725341797 -2164.3798828125C-386.16099548339844 -2531.7900390625 -431.68797302246094 -2895.080078125 -431.68797302246094 -3246.590087890625C-431.68797302246094 -3747.81005859375 -339.1179962158203 -4225.06005859375 -155.2319793701172 -4656.0400390625C-111.36798095703125 -4758.91015625 -58.09507751464844 -4867.759765625 -9.059341430664062 -4954.81005859375C-2.885345458984375 -4965.81982421875 -0.009613037109375 -4971.83984375 -0.009613037109375 -4975.7001953125C-0.009613037109375 -4978.68994140625 -1.7420654296875 -4980.3798828125 -5.0093841552734375 -4982.10009765625C-6.6896820068359375 -4982.97998046875 -8.160369873046875 -4983.47021484375 -9.553390502929688 -4983.47021484375C-13.584091186523438 -4983.47021484375 -16.964584350585938 -4979.3701171875 -22.891586303710938 -4968.759765625C-272.9919891357422 -4523.52001953125 -448.82298278808594 -4025.429931640625 -527.3300018310547 -3539.81005859375C-536.9879608154297 -3480.06005859375 -546.5209808349609 -3411.830078125 -552.8759613037109 -3356.93994140625C-570.2319793701172 -3207.169921875 -578.8589935302734 -3057.159912109375 -578.8589935302734 -2907.860107421875C-578.8589935302734 -2490.070068359375 -511.3059844970703 -2077.840087890625 -378.4159698486328 -1692.030029296875C-331.4989776611328 -1555.8299560546875 -309.37998962402344 -1472.1500244140625 -290.37599182128906 -1359.06005859375C-274.4829864501953 -1264.4100341796875 -266.7219696044922 -1170.68994140625 -266.7219696044922 -1078.989990234375C-266.7219696044922 -644.3460083007812 -441.0749969482422 -254.85299682617188 -750.4520111083984 -24.8135986328125C-768.2100067138672 -11.6044921875 -769.2069549560547 -10.732192993164062 -769.7670135498047 -7.741424560546875C-769.9910125732422 -6.5430145263671875 -770.1649627685547 -5.5617218017578125 -770.1649627685547 -4.65716552734375C-770.1649627685547 -0.7648162841796875 -766.9340057373047 1.7064361572265625 -750.4520111083984 13.941497802734375C-583.7809906005859 137.93299865722656 -450.25599670410156 315.4460144042969 -367.0759735107422 523.614013671875C-300.2799835205078 690.7249755859375 -266.72898864746094 875.22900390625 -266.72898864746094 1066.5C-266.72898864746094 1225.4599609375 -289.90199279785156 1389.0999755859375 -336.4209747314453 1551.31005859375C-346.45298767089844 1586.199951171875 -357.4189910888672 1620.1600341796875 -378.35398864746094 1681.030029296875C-442.5299835205078 1867.27001953125 -494.8059844970703 2074.18994140625 -528.0159759521484 2273.139892578125C-557.4869842529297 2449.64990234375 -572.3159637451172 2601.929931640625 -578.8579559326172 2795.889892578125C-579.7339935302734 2821.909912109375 -580.1539764404297 2852.719970703125 -580.1539764404297 2885.860107421875C-580.1539764404297 2958.800048828125 -578.1190032958984 3043.050048828125 -574.4349822998047 3112.409912109375C-541.6609954833984 3724.52001953125 -360.4719696044922 4348.89990234375 -49.62129211425781 4920.56982421875C-19.963088989257812 4975.14990234375 -16.411590576171875 4981.259765625 -13.35858154296875 4982.68994140625Z" fill="black" /></g></svg>