<?xml version="1.0" encoding="utf-8" ?>
<svg baseProfile="tiny" height="100%" version="1.2" width="100%" xmlns="http://www.w3.org/2000/svg" xmlns:ev="http://www.w3.org/2001/xml-events" xmlns:xlink="http://www.w3.org/1999/xlink"><defs /><g transform="translate(0, 1000) scale(1, -1)"><path d="M-20.764892578125 660.7059936523438C-19.845306396484375 661.0070190429688 -18.919998168945312 661.1489868164062 -18.014297485351562 661.1489868164062C-13.2366943359375 661.1489868164062 -9.002883911132812 657.2100219726562 -9.002883911132812 652.0499877929688C-9.002883911132812 649.8079833984375 -9.241790771484375 649.1640014648438 -11.9617919921875 644.2210083007812C-37.930206298828125 596.7860107421875 -52.11810302734375 542.1300048828125 -54.231597900390625 481.5C-54.32029724121094 478.8810119628906 -54.36090087890625 473.9309997558594 -54.36090087890625 468.42498779296875C-54.36090087890625 459.0950012207031 -54.244293212890625 448.1679992675781 -54.04779052734375 444.28399658203125C-50.794891357421875 380.1260070800781 -37.19500732421875 314.49700927734375 -11.630996704101562 239.55099487304688C-3.582122802734375 215.9810028076172 0.0 196.8470001220703 0.0 176.75100708007812C0.0 174.40899658203125 -0.0486602783203125 172.0540008544922 -0.1445770263671875 169.677001953125C-2.7542877197265625 105.61099243164062 -34.43829345703125 51.32139587402344 -98.28421020507812 1.55322265625C-99.8280029296875 0.358642578125 -101.0780029296875 -0.6705474853515625 -101.0780029296875 -0.744049072265625C-101.0780029296875 -0.81756591796875 -99.8280029296875 -1.8467559814453125 -98.28421020507812 -3.0413360595703125C-48.019805908203125 -42.22369384765625 -17.82440185546875 -84.14430236816406 -5.7866973876953125 -131.5050048828125C-1.9691162109375 -146.47799682617188 -0.0695037841796875 -161.8090057373047 -0.0695037841796875 -177.0659942626953C-0.0695037841796875 -196.77000427246094 -3.2381134033203125 -216.3520050048828 -9.535842895507812 -234.8820037841797C-17.365005493164062 -257.9649963378906 -20.23199462890625 -266.8420104980469 -24.587600708007812 -281.6549987792969C-44.385498046875 -348.9070129394531 -54.28700256347656 -410.5299987792969 -54.28700256347656 -466.6440124511719C-54.28700256347656 -533.6199951171875 -40.18159484863281 -592.7490234375 -11.9617919921875 -644.2379760742188C-9.241790771484375 -649.1820068359375 -9.002883911132812 -649.8250122070312 -9.002883911132812 -652.0679931640625C-9.002883911132812 -657.5440063476562 -13.446395874023438 -661.1489868164062 -18.082199096679688 -661.1489868164062C-20.322906494140625 -661.1489868164062 -22.608505249023438 -660.3070068359375 -24.458892822265625 -658.426025390625C-25.469696044921875 -657.39697265625 -26.8114013671875 -655.0819702148438 -32.83940124511719 -643.9810180664062C-89.560302734375 -539.6129760742188 -117.56900024414062 -443.760009765625 -117.56900024414062 -352.2929992675781C-117.56900024414062 -312.5899963378906 -112.29100036621094 -273.7120056152344 -101.79400634765625 -235.322998046875C-99.36849975585938 -226.44700622558594 -97.53070068359375 -220.62100219726562 -92.27450561523438 -205.072998046875C-80.81671142578125 -171.19900512695312 -75.0076904296875 -139.8520050048828 -75.0076904296875 -112.24700927734375C-75.0076904296875 -102.260009765625 -75.76800537109375 -92.76319885253906 -77.29629516601562 -83.81350708007812C-82.64430236816406 -52.497100830078125 -97.73280334472656 -26.216201782226562 -119.95199584960938 -9.547210693359375C-124.39999389648438 -6.22076416015625 -125.52099609375 -4.4380645751953125 -125.52099609375 -0.744049072265625C-125.52099609375 2.9499664306640625 -124.39999389648438 4.7326507568359375 -119.95199584960938 8.059097290039062C-96.1339111328125 25.922698974609375 -80.43890380859375 55.07049560546875 -76.28549194335938 89.12539672851562C-75.41119384765625 96.29269409179688 -74.97039794921875 103.63600158691406 -74.97039794921875 111.20599365234375C-74.97039794921875 139.75799560546875 -81.24240112304688 171.53399658203125 -94.185791015625 209.2449951171875C-109.84600830078125 254.87399291992188 -117.68899536132812 302.3840026855469 -117.68899536132812 351.2030029296875C-117.68899536132812 385.97198486328125 -113.71099853515625 421.4049987792969 -105.74600219726562 457.2959899902344C-92.01719665527344 519.1389770507812 -65.75479125976562 585.1160278320312 -27.601593017578125 653.5020141601562C-24.771392822265625 658.573974609375 -23.668701171875 659.75 -20.764892578125 660.7059936523438Z" fill="black" /></g></svg>