<?xml version="1.0" encoding="utf-8" ?>
<svg baseProfile="tiny" height="100%" version="1.2" width="100%" xmlns="http://www.w3.org/2000/svg" xmlns:ev="http://www.w3.org/2001/xml-events" xmlns:xlink="http://www.w3.org/1999/xlink"><defs /><g transform="translate(0, 1000) scale(1, -1)"><path d="M-14.804306030273438 7724.419921875C-13.35821533203125 7725.5400390625 -11.498123168945312 7726.08984375 -9.596038818359375 7726.08984375C-7.1198883056640625 7726.08984375 -4.57275390625 7725.16015625 -2.7757568359375 7723.35986328125C-1.0428466796875 7721.6298828125 -1.52587890625e-05 7720.31982421875 -1.52587890625e-05 7718.22998046875C-1.52587890625e-05 7714.56005859375 -3.19476318359375 7708.509765625 -11.475723266601562 7693.6298828125C-117.08500671386719 7503.2900390625 -206.95901489257812 7314.919921875 -288.1330108642578 7113.759765625C-555.0780181884766 6451.97998046875 -689.6040191650391 5726.72998046875 -689.6040191650391 4971.4599609375C-689.6040191650391 4477.58984375 -632.0819854736328 3970.889892578125 -516.4489898681641 3460.7099609375C-455.9280242919922 3193.659912109375 -383.00001525878906 2940.530029296875 -286.01502990722656 2660.320068359375C-227.08201599121094 2490.330078125 -189.7860107421875 2324.8798828125 -170.87301635742188 2150.050048828125C-162.17601013183594 2069.72998046875 -157.8920135498047 1989.4300537109375 -157.8920135498047 1909.4300537109375C-157.8920135498047 1173.9200439453125 -520.0120391845703 464.072998046875 -1143.300064086914 2.836212158203125C-1151.3900299072266 -3.1402435302734375 -1158.050064086914 -8.360198974609375 -1158.050064086914 -8.662811279296875C-1158.050064086914 -8.965408325195312 -1151.3900299072266 -14.185394287109375 -1143.300064086914 -20.16180419921875C-941.5340118408203 -169.4980010986328 -757.1710357666016 -355.14599609375 -610.2559967041016 -557.135009765625C-312.40101623535156 -966.4769897460938 -158.06101989746094 -1442.31005859375 -158.06101989746094 -1924.949951171875C-158.06101989746094 -2136.6298828125 -187.74900817871094 -2349.610107421875 -248.0380096435547 -2558.8701171875C-259.99000549316406 -2600.47998046875 -269.90101623535156 -2631.1201171875 -288.9650115966797 -2686.340087890625C-555.8230133056641 -3457.010009765625 -688.3709869384766 -4231.52978515625 -688.3709869384766 -4978.0498046875C-688.3709869384766 -5953.56982421875 -462.0340118408203 -6881.2998046875 -13.291336059570312 -7690.14990234375C-1.6410064697265625 -7711.10986328125 -0.2036285400390625 -7714.14013671875 -0.2036285400390625 -7717.240234375C-0.2036285400390625 -7722.509765625 -4.7389678955078125 -7726.08984375 -9.365341186523438 -7726.08984375C-11.446029663085938 -7726.08984375 -13.545028686523438 -7725.35986328125 -15.258224487304688 -7723.740234375C-16.4686279296875 -7722.60986328125 -23.12603759765625 -7711.64013671875 -29.93463134765625 -7699.3798828125C-578.2660522460938 -6713.97021484375 -865.5110473632812 -5633.22998046875 -865.5110473632812 -4557.35986328125C-865.5110473632812 -4546.83984375 -865.4840698242188 -4536.31982421875 -865.4290771484375 -4525.81005859375C-864.9750366210938 -4446.60009765625 -864.5960693359375 -4423.91015625 -862.6300659179688 -4363.16015625C-843.0360717773438 -3760.2900390625 -735.9130859375 -3182.68994140625 -536.5720825195312 -2604.639892578125C-470.9820556640625 -2414.60009765625 -430.0550537109375 -2248.85009765625 -405.3920593261719 -2073.570068359375C-387.8890686035156 -1949.300048828125 -379.2960510253906 -1826.510009765625 -379.2960510253906 -1706.06005859375C-379.2960510253906 -1016.47998046875 -660.9410400390625 -403.5579833984375 -1164.6300659179688 -28.029571533203125C-1183.8500366210938 -13.731369018554688 -1184.1500854492188 -13.42877197265625 -1184.1500854492188 -8.66278076171875C-1184.1500854492188 -3.8967437744140625 -1183.8500366210938 -3.5941314697265625 -1164.6300659179688 10.704025268554688C-660.9410400390625 386.23301696777344 -379.2960510253906 999.1569671630859 -379.2960510253906 1688.729965209961C-379.2960510253906 1809.1800384521484 -387.8890686035156 1931.969955444336 -405.3920593261719 2056.239974975586C-430.0550537109375 2231.600082397461 -470.9820556640625 2397.350082397461 -536.5720825195312 2587.310043334961C-733.1140747070312 3157.050033569336 -839.7830810546875 3722.310043334961 -863.008056640625 4317.839828491211C-865.842041015625 4390.430160522461 -867.2290649414062 4465.709945678711 -867.2290649414062 4542.029769897461C-867.2290649414062 4775.359848022461 -854.2700805664062 5018.379867553711 -830.0990600585938 5223.770004272461L-825.56005859375 5262.350082397461C-731.2230834960938 6063.569808959961 -484.2210693359375 6847.089828491211 -94.91915893554688 7579.930160522461C-57.62306213378906 7650.209945678711 -17.7547607421875 7722.080062866211 -14.804367065429688 7724.419906616211Z" fill="black" /></g></svg>