<?xml version="1.0" encoding="utf-8" ?>
<svg baseProfile="tiny" height="100%" version="1.2" width="100%" xmlns="http://www.w3.org/2000/svg" xmlns:ev="http://www.w3.org/2001/xml-events" xmlns:xlink="http://www.w3.org/1999/xlink"><defs /><g transform="translate(0, 1000) scale(1, -1)"><path d="M-13.754302978515625 6245.43994140625C-12.415802001953125 6246.259765625 -10.931106567382812 6246.64990234375 -9.441665649414062 6246.64990234375C-6.310882568359375 6246.64990234375 -3.15887451171875 6244.93017578125 -1.29833984375 6241.89013671875C-0.5081939697265625 6240.60009765625 0.0 6239.58984375 0.0 6238.22021484375C0.0 6235.080078125 -2.7009124755859375 6230.0498046875 -10.87469482421875 6215.240234375C-341.760986328125 5618.68994140625 -523.7109985351562 4939.240234375 -547.7520141601562 4210.56982421875C-549.4929809570312 4157.330078125 -549.8280029296875 4137.64013671875 -550.22998046875 4067.60009765625C-550.2780151367188 4058.320068359375 -550.302001953125 4049.050048828125 -550.302001953125 4039.780029296875C-550.302001953125 3415.330078125 -441.4110107421875 2792.7099609375 -220.61700439453125 2155.340087890625C-151.7310028076172 1956.449951171875 -117.62100219726562 1752.4200439453125 -117.62100219726562 1549.449951171875C-117.62100219726562 1216.9100341796875 -209.1840057373047 887.218017578125 -389.3739929199219 587.635009765625C-459.15399169921875 471.5799865722656 -550.6320190429688 350.57000732421875 -641.7750244140625 253.802001953125C-731.7789916992188 158.24000549316406 -829.4169921875 71.18218994140625 -926.385986328125 -0.004119873046875C-931.0070190429688 -3.4194488525390625 -934.823974609375 -6.4329833984375 -934.823974609375 -6.70086669921875C-934.823974609375 -6.9687347412109375 -931.0070190429688 -9.982254028320312 -926.385986328125 -13.397598266601562C-829.4169921875 -84.58389282226562 -731.7789916992188 -171.64199829101562 -641.7750244140625 -267.2040100097656C-339.2829895019531 -588.447021484375 -152.44400024414062 -1007.72998046875 -122.50900268554688 -1432.43994140625C-119.30400085449219 -1478.050048828125 -117.68899536132812 -1523.050048828125 -117.68899536132812 -1567.6500244140625C-117.68899536132812 -1773.6800537109375 -152.1719970703125 -1970.8399658203125 -223.6300048828125 -2177.449951171875C-441.4289855957031 -2807.030029296875 -549.6610107421875 -3437.679931640625 -549.6610107421875 -4043.81005859375C-549.6610107421875 -4826.68994140625 -369.1059875488281 -5568.66015625 -10.87469482421875 -6214.580078125C-3.3433074951171875 -6228.2001953125 -0.0413665771484375 -6234.64990234375 -0.0413665771484375 -6238.56005859375C-0.0413665771484375 -6241.35009765625 -1.7346649169921875 -6242.83984375 -4.7806396484375 -6244.7099609375C-6.726226806640625 -6245.89013671875 -8.293426513671875 -6246.64990234375 -9.813644409179688 -6246.64990234375C-14.25860595703125 -6246.64990234375 -18.302001953125 -6240.14990234375 -30.228302001953125 -6218.60009765625C-73.75711059570312 -6140.10986328125 -123.17900085449219 -6046.08984375 -154.18499755859375 -5982.8701171875L-189.2760009765625 -5910.5498046875C-534.2680053710938 -5189.0400390625 -711.52197265625 -4420.10009765625 -711.52197265625 -3663.199951171875C-711.52197265625 -3427.919921875 -694.39501953125 -3193.81005859375 -659.8560180664062 -2962.639892578125C-614.4520263671875 -2658.610107421875 -547.2839965820312 -2387.06005859375 -442.947998046875 -2085.699951171875C-359.38299560546875 -1844.3900146484375 -318.9750061035156 -1600.989990234375 -318.9750061035156 -1366.8599853515625C-318.9750061035156 -822.3619995117188 -537.5339965820312 -328.04901123046875 -940.0469970703125 -26.92498779296875C-954.010009765625 -16.47808837890625 -960.9910278320312 -11.589492797851562 -960.9910278320312 -6.7008514404296875C-960.9910278320312 -1.812225341796875 -954.010009765625 3.0764007568359375 -940.0469970703125 13.5233154296875C-807.4520263671875 112.76901245117188 -694.2769775390625 232.64102172851562 -600.18798828125 373.6740264892578C-414.10400390625 652.5980377197266 -319.0639953613281 993.5110015869141 -319.0639953613281 1352.990005493164C-319.0639953613281 1588.8600006103516 -359.9830017089844 1832.719985961914 -442.947998046875 2072.300064086914C-551.1010131835938 2384.639907836914 -620.6129760742188 2669.719985961914 -665.614990234375 2985.340103149414C-697.2570190429688 3207.360122680664 -712.9520263671875 3431.949966430664 -712.9520263671875 3657.550064086914C-712.9520263671875 4416.509780883789 -535.3250122070312 5187.000015258789 -189.61099243164062 5910.540054321289L-154.52000427246094 5982.859878540039C-123.17898559570312 6046.750015258789 -74.56068420410156 6139.370132446289 -32.23728942871094 6215.580093383789C-16.834793090820312 6243.370132446289 -16.633880615234375 6243.700210571289 -13.754287719726562 6245.439956665039Z" fill="black" /></g></svg>