<?xml version="1.0" encoding="utf-8" ?>
<svg baseProfile="tiny" height="100%" version="1.2" width="100%" xmlns="http://www.w3.org/2000/svg" xmlns:ev="http://www.w3.org/2001/xml-events" xmlns:xlink="http://www.w3.org/1999/xlink"><defs /><g transform="translate(0, 1000) scale(1, -1)"><path d="M-17.327102661132812 915.3720092773438C-16.711410522460938 915.4979858398438 -16.100311279296875 915.5590209960938 -15.500411987304688 915.5590209960938C-10.64801025390625 915.5590209960938 -6.5200958251953125 911.593994140625 -6.5200958251953125 906.4550170898438C-6.5456390380859375 904.0789794921875 -6.8266754150390625 903.2620239257812 -9.228225708007812 898.969970703125C-43.309814453125 837.9600219726562 -64.8983154296875 763.5120239257812 -70.69781494140625 687.1220092773438C-71.94891357421875 670.64599609375 -72.57380676269531 653.8670043945312 -72.57380676269531 636.7949829101562C-72.57380676269531 542.6580200195312 -53.57160949707031 439.60101318359375 -15.76861572265625 329.11199951171875C-6.77557373046875 302.8219909667969 -2.58563232421875 284.04400634765625 -0.8483428955078125 262.2510070800781C-0.2823944091796875 255.08700561523438 -3.0517578125e-05 247.9709930419922 -3.0517578125e-05 240.906005859375C-3.0517578125e-05 151.6479949951172 -45.0648193359375 70.4822998046875 -132.75502014160156 2.3472442626953125C-135.02902221679688 0.5843963623046875 -136.89401245117188 -0.9485015869140625 -136.89401245117188 -1.025146484375C-136.89401245117188 -1.101806640625 -135.02902221679688 -2.63470458984375 -132.72901916503906 -4.397552490234375C-45.063018798828125 -72.53250122070312 -1.52587890625e-05 -153.697998046875 -1.52587890625e-05 -242.95599365234375C-1.52587890625e-05 -250.02099609375 -0.282379150390625 -257.1369934082031 -0.8483428955078125 -264.302001953125C-2.58563232421875 -286.0950012207031 -6.750030517578125 -304.84698486328125 -15.743118286132812 -331.1369934082031C-53.494415283203125 -441.59698486328125 -72.40731811523438 -544.2000122070312 -72.40731811523438 -637.302001953125C-72.40731811523438 -708.5230102539062 -61.33961486816406 -774.1829833984375 -39.1710205078125 -833.5469970703125C-31.021011352539062 -855.3389892578125 -20.648422241210938 -878.2559814453125 -11.067718505859375 -895.60400390625C-7.410369873046875 -902.2349853515625 -6.408447265625 -904.2670288085938 -6.408447265625 -906.2369995117188C-6.408447265625 -906.77197265625 -6.4822235107421875 -907.302001953125 -6.59674072265625 -907.9180297851562C-7.466796875 -912.6699829101562 -11.503616333007812 -915.5590209960938 -15.635818481445312 -915.5590209960938C-17.813217163085938 -915.5590209960938 -20.017120361328125 -914.7570190429688 -21.798019409179688 -913.0020141601562C-25.425918579101562 -909.4249877929688 -49.95240783691406 -862.3140258789062 -64.71940612792969 -830.5570068359375C-117.56602478027344 -716.89697265625 -145.49700927734375 -601.9030151367188 -145.49700927734375 -498.8280029296875C-145.49700927734375 -489.5329895019531 -145.27001953125 -480.3349914550781 -144.8140106201172 -471.2439880371094C-143.46002197265625 -444.1629943847656 -142.10601806640625 -429.2430114746094 -139.04000854492188 -408.1400146484375C-132.95901489257812 -366.3169860839844 -124.91201782226562 -333.51300048828125 -109.99101257324219 -289.8500061035156C-97.67692565917969 -253.82699584960938 -90.82991027832031 -221.5850067138672 -87.91740417480469 -185.61300659179688C-87.60722351074219 -181.6649932861328 -87.43711853027344 -172.2310028076172 -87.43711853027344 -163.47300720214844C-87.43711853027344 -156.36300659179688 -87.54920959472656 -149.697998046875 -87.78971862792969 -146.7790069580078C-92.72050476074219 -86.38250732421875 -115.17802429199219 -40.880706787109375 -154.9820098876953 -10.605804443359375C-160.5010223388672 -6.415863037109375 -161.49700927734375 -4.9340667724609375 -161.49700927734375 -1.025146484375C-161.49700927734375 2.883758544921875 -160.5010223388672 4.365570068359375 -154.9820098876953 8.555511474609375C-115.17802429199219 38.83039855957031 -92.72050476074219 84.33219909667969 -87.78971862792969 144.72900390625C-87.54920959472656 147.6479949951172 -87.43711853027344 154.31300354003906 -87.43711853027344 161.42300415039062C-87.43711853027344 170.17999267578125 -87.60722351074219 179.61399841308594 -87.91740417480469 183.56199645996094C-90.5233154296875 215.6510009765625 -96.32281494140625 245.13400268554688 -106.13301086425781 276.072998046875C-106.92501831054688 278.5769958496094 -107.6920166015625 281.0299987792969 -107.82002258300781 281.5150146484375C-107.94700622558594 281.9750061035156 -109.60801696777344 286.8039855957031 -111.47300720214844 292.2449951171875C-134.16500854492188 358.07501220703125 -145.50601196289062 425.84698486328125 -145.50601196289062 495.4909973144531C-145.50601196289062 625.3209838867188 -106.09501647949219 761.655029296875 -27.342117309570312 904.0280151367188C-22.1046142578125 913.4559936523438 -21.10821533203125 914.60498046875 -17.327117919921875 915.3720092773438Z" fill="black" /></g></svg>