<?xml version="1.0" encoding="utf-8" ?>
<svg baseProfile="tiny" height="100%" version="1.2" width="100%" xmlns="http://www.w3.org/2000/svg" xmlns:ev="http://www.w3.org/2001/xml-events" xmlns:xlink="http://www.w3.org/1999/xlink"><defs /><g transform="translate(0, 1000) scale(1, -1)"><path d="M-13.043106079101562 9813.1904296875C-12.16351318359375 9813.5703125 -11.090713500976562 9813.740234375 -9.954391479492188 9813.740234375C-7.2461700439453125 9813.740234375 -4.176727294921875 9812.740234375 -2.4996337890625 9811.0595703125C-0.990020751953125 9809.5302734375 -0.0001220703125 9808.330078125 -0.0001220703125 9806.25C-0.0001220703125 9801.650390625 -4.83721923828125 9792.740234375 -19.590316772460938 9766.33984375C-542.4300384521484 8827.2900390625 -837.9040374755859 7736.3701171875 -881.1830291748047 6585.43017578125C-885.4340667724609 6472.68017578125 -886.2850189208984 6421.240234375 -886.2850189208984 6281.8798828125C-886.2850189208984 6159.43994140625 -885.8600311279297 6125.759765625 -883.3090667724609 6039.97021484375C-856.8650360107422 5151.759765625 -690.2090301513672 4267.72021484375 -381.3860321044922 3376.8798828125C-271.31605529785156 3059.280029296875 -216.23004150390625 2737.659912109375 -216.23004150390625 2413.25C-216.23004150390625 2256.239990234375 -229.13204956054688 2098.590087890625 -254.9490509033203 1940.4100341796875C-379.3450469970703 1179.3199462890625 -814.4360198974609 476.2230224609375 -1453.1700897216797 4.4857177734375C-1464.3101043701172 -3.76202392578125 -1473.4100799560547 -10.734375 -1473.4100799560547 -11.074462890625C-1473.4100799560547 -11.414566040039062 -1464.3101043701172 -18.386871337890625 -1453.1700897216797 -26.634674072265625C-726.6010589599609 -563.3339538574219 -270.6790313720703 -1391.5999450683594 -221.4480438232422 -2264.330047607422C-218.13204956054688 -2322.929901123047 -216.46304321289062 -2380.899871826172 -216.46304321289062 -2438.379852294922C-216.46304321289062 -2767.129852294922 -271.0640411376953 -3080.239959716797 -384.61705017089844 -3408.379852294922C-717.2380218505859 -4369.490203857422 -884.7060394287109 -5335.499969482422 -884.7060394287109 -6290.810028076172C-884.7060394287109 -6402.930145263672 -882.3990325927734 -6514.910125732422 -877.7820281982422 -6626.709930419922C-830.9310760498047 -7759.709930419922 -535.3730316162109 -8840.849578857422 -19.590316772460938 -9766.379852294922C-4.894683837890625 -9792.749969482422 -1.52587890625e-05 -9801.660125732422 -1.52587890625e-05 -9806.259735107422C-1.52587890625e-05 -9808.400360107422 -1.0531158447265625 -9809.599578857422 -2.6696929931640625 -9811.190399169922C-4.318878173828125 -9812.879852294922 -6.8320159912109375 -9813.740203857422 -9.304519653320312 -9813.740203857422C-11.676116943359375 -9813.740203857422 -14.01031494140625 -9812.990203857422 -15.509017944335938 -9811.450164794922C-17.464614868164062 -9809.410125732422 -31.0692138671875 -9785.429656982422 -57.42802429199219 -9737.469696044922C-586.1339569091797 -8775.799774169922 -921.5709686279297 -7721.450164794922 -1035.9300384521484 -6661.569793701172C-1038.060043334961 -6641.930145263672 -1040.189926147461 -6622.970184326172 -1040.6099700927734 -6619.479949951172C-1041.800033569336 -6610.890106201172 -1046.6500091552734 -6561.240203857422 -1050.3899993896484 -6520.419891357422C-1071.499984741211 -6286.990203857422 -1082.009994506836 -6053.540008544922 -1082.009994506836 -5820.790008544922C-1082.009994506836 -4974.279754638672 -942.9669647216797 -4136.910125732422 -668.8669891357422 -3342.489959716797C-628.5640106201172 -3225.830047607422 -615.3839569091797 -3184.669891357422 -592.9369964599609 -3106.529998779297C-504.90699768066406 -2799.610076904297 -462.32997131347656 -2491.050018310547 -462.32997131347656 -2190.979949951172C-462.32997131347656 -1321.2399597167969 -820.0059661865234 -522.7459411621094 -1465.3299407958984 -41.59967041015625C-1497.509994506836 -17.538772583007812 -1499.3699798583984 -16.417068481445312 -1499.3699798583984 -12.716567993164062C-1499.3699798583984 -12.232467651367188 -1499.3399505615234 -11.704071044921875 -1499.3399505615234 -11.074462890625C-1499.3399505615234 -10.444869995117188 -1499.3699798583984 -9.916519165039062 -1499.3699798583984 -9.432342529296875C-1499.3699798583984 -5.731842041015625 -1497.509994506836 -4.6102142333984375 -1465.3299407958984 19.450729370117188C-828.9009857177734 493.9850311279297 -462.2269744873047 1288.0000457763672 -462.2269744873047 2166.040084838867C-462.2269744873047 2252.750045776367 -465.80198669433594 2340.270065307617 -473.04698181152344 2428.389938354492C-497.10997009277344 2721.060104370117 -555.9489593505859 2994.850143432617 -657.3029632568359 3286.750045776367C-915.5339813232422 4030.149948120117 -1056.0899505615234 4787.930221557617 -1080.5699310302734 5569.339889526367C-1082.959945678711 5644.250045776367 -1083.300033569336 5667.629928588867 -1083.719955444336 5773.830123901367C-1083.790023803711 5790.500045776367 -1083.8299407958984 5806.720260620117 -1083.8299407958984 5822.549850463867C-1083.8299407958984 5980.399948120117 -1080.259994506836 6100.379928588867 -1071.219955444336 6259.339889526367C-1064.6700286865234 6373.279830932617 -1050.6399993896484 6546.740280151367 -1042.310043334961 6615.189987182617C-1041.3799896240234 6622.930221557617 -1038.6600189208984 6646.990280151367 -1036.3599700927734 6668.759811401367C-923.5269622802734 7709.160202026367 -590.8109588623047 8758.919967651367 -72.56297302246094 9709.799850463867C-27.242874145507812 9792.950241088867 -16.44427490234375 9811.750045776367 -13.043075561523438 9813.190475463867Z" fill="black" /></g></svg>