<?xml version="1.0" encoding="utf-8" ?>
<svg baseProfile="tiny" height="100%" version="1.2" width="100%" xmlns="http://www.w3.org/2000/svg" xmlns:ev="http://www.w3.org/2001/xml-events" xmlns:xlink="http://www.w3.org/1999/xlink"><defs /><g transform="translate(0, 1000) scale(1, -1)"><path d="M-17.374603271484375 412.4079895019531C-17.0404052734375 412.447998046875 -16.706497192382812 412.4670104980469 -16.374298095703125 412.4670104980469C-12.490692138671875 412.4670104980469 -8.843368530273438 409.8380126953125 -7.7435150146484375 406.1090087890625C-7.47039794921875 405.1809997558594 -7.3277740478515625 404.3269958496094 -7.3277740478515625 403.47601318359375C-7.3277740478515625 401.739990234375 -7.9209442138671875 400.0140075683594 -9.210342407226562 397.69500732421875C-15.066299438476562 387.1990051269531 -21.52490234375 371.8370056152344 -24.765594482421875 360.739990234375C-29.41619873046875 344.82000732421875 -31.951904296875 331.1189880371094 -33.31640625 314.68798828125C-33.86590576171875 308.02801513671875 -34.140594482421875 301.16900634765625 -34.140594482421875 294.11199951171875C-34.140594482421875 252.97900390625 -24.807601928710938 205.1230010986328 -6.1629638671875 150.66400146484375C-3.9797821044921875 144.2969970703125 -3.6272735595703125 143.2050018310547 -2.910919189453125 140.48699951171875C-1.5236968994140625 135.23399353027344 -1.0006256103515625 132.8459930419922 -0.3866119384765625 129.05999755859375L0.0 126.614990234375V109.86599731445312V93.10530090332031L-0.34112548828125 90.99040222167969C-5.6626434326171875 58.00367736816406 -24.697402954101562 29.337982177734375 -59.719390869140625 1.559112548828125C-61.07249450683594 0.4788818359375 -62.175506591796875 -0.419403076171875 -62.175506591796875 -0.453521728515625C-62.175506591796875 -0.4876251220703125 -61.07249450683594 -1.38592529296875 -59.719390869140625 -2.4661407470703125C-24.697402954101562 -30.245010375976562 -5.6626434326171875 -58.91072082519531 -0.34112548828125 -91.89741516113281L0.0 -94.01231384277344V-110.77302551269531V-127.52201843261719L-0.3866119384765625 -129.96701049804688C-1.375885009765625 -136.11802673339844 -2.9109344482421875 -142.06503295898438 -5.3442840576171875 -149.1830291748047C-22.866714477539062 -200.3060302734375 -31.781417846679688 -241.81002807617188 -33.79402160644531 -281.6530456542969C-33.89631652832031 -283.63201904296875 -33.947509765625 -288.9730224609375 -33.947509765625 -294.2760314941406C-33.947509765625 -299.57904052734375 -33.89631652832031 -304.8440246582031 -33.79402160644531 -306.6690368652344C-32.782012939453125 -325.1240234375 -30.269012451171875 -341.1560363769531 -25.982315063476562 -356.416015625L-24.958908081054688 -360.0660400390625C-22.059310913085938 -370.52703857421875 -15.157318115234375 -387.03802490234375 -9.210357666015625 -397.6920166015625C-7.8722991943359375 -400.1120300292969 -7.342071533203125 -401.63702392578125 -7.342071533203125 -403.3380432128906C-7.342071533203125 -403.6750183105469 -7.3628997802734375 -404.01904296875 -7.4023895263671875 -404.3780212402344C-7.9620513916015625 -409.3700256347656 -12.106216430664062 -412.467041015625 -16.406112670898438 -412.467041015625C-18.658416748046875 -412.467041015625 -20.953521728515625 -411.6170349121094 -22.798416137695312 -409.7450256347656C-23.935516357421875 -408.58502197265625 -23.651214599609375 -409.0630187988281 -28.3701171875 -400.4210205078125C-66.07571411132812 -331.3780212402344 -83.60942077636719 -273.3980407714844 -84.07560729980469 -216.1570281982422C-84.08192443847656 -215.40902709960938 -84.08511352539062 -214.66102600097656 -84.08511352539062 -213.9120330810547C-84.08511352539062 -185.09703063964844 -79.39482116699219 -156.31503295898438 -70.35111999511719 -129.6830291748047C-62.77812194824219 -107.36203002929688 -59.33280944824219 -93.2391357421875 -57.71812438964844 -77.77493286132812C-57.26521301269531 -73.4686279296875 -57.04090881347656 -69.28582763671875 -57.04090881347656 -65.23822021484375C-57.04090881347656 -40.32173156738281 -65.54331970214844 -20.527236938476562 -81.58541870117188 -8.583648681640625C-84.70100402832031 -6.264007568359375 -85.95181274414062 -4.3537139892578125 -86.29292297363281 -1.3859405517578125C-86.33541870117188 -1.00439453125 -86.35691833496094 -0.6319427490234375 -86.35691833496094 -0.2676849365234375C-86.35691833496094 2.7768096923828125 -84.85551452636719 5.2493743896484375 -81.58541870117188 7.67657470703125C-65.83970642089844 19.40106201171875 -56.94032287597656 39.934661865234375 -56.94032287597656 63.926361083984375C-56.94032287597656 66.46017456054688 -57.03961181640625 69.03256225585938 -57.24052429199219 71.63726806640625C-58.605010986328125 89.35296630859375 -62.004913330078125 104.157958984375 -70.43070983886719 129.0029754638672C-76.44581604003906 146.7529754638672 -80.70991516113281 166.3329620361328 -82.71110534667969 185.45896911621094C-83.65901184082031 194.44996643066406 -84.13160705566406 204.2009735107422 -84.13160705566406 213.98497009277344C-84.13160705566406 224.50596618652344 -83.58511352539062 235.06497192382812 -82.4951171875 244.75796508789062C-76.85520935058594 294.7999572753906 -59.43511962890625 344.1269836425781 -25.879913330078125 404.9609680175781C-22.798416137695312 410.5549621582031 -21.195114135742188 411.9649658203125 -17.374618530273438 412.407958984375Z" fill="black" /></g></svg>