<?xml version="1.0" encoding="utf-8" ?>
<svg baseProfile="tiny" height="100%" version="1.2" width="100%" xmlns="http://www.w3.org/2000/svg" xmlns:ev="http://www.w3.org/2001/xml-events" xmlns:xlink="http://www.w3.org/1999/xlink"><defs /><g transform="translate(0, 1000) scale(1, -1)"><path d="M-19.3280029296875 483.7099914550781C-18.942398071289062 483.7560119628906 -18.560806274414062 483.77899169921875 -18.184494018554688 483.77899169921875C-13.246002197265625 483.77899169921875 -9.223800659179688 479.885009765625 -9.198928833007812 474.81201171875C-9.198623657226562 474.7640075683594 -9.198471069335938 474.71600341796875 -9.198471069335938 474.66900634765625C-9.198471069335938 472.63299560546875 -9.498306274414062 471.7860107421875 -11.460205078125 468.2019958496094C-31.211898803710938 432.0849914550781 -41.054290771484375 390.9259948730469 -41.054290771484375 344.1700134277344C-41.054290771484375 320.5450134277344 -38.541595458984375 295.49200439453125 -33.52470397949219 268.9389953613281C-27.918304443359375 239.27499389648438 -19.448394775390625 207.81700134277344 -8.743988037109375 176.89500427246094C-6.670013427734375 170.8730010986328 -6.2150726318359375 169.52200317382812 -5.479156494140625 166.9929962158203C-1.8096923828125 154.33099365234375 0.0 141.53399658203125 0.0 128.83599853515625C0.0 96.85209655761719 -11.481704711914062 65.4927978515625 -33.64509582519531 38.473297119140625C-44.403106689453125 25.347000122070312 -56.01739501953125 14.294692993164062 -74.2550048828125 -0.1562652587890625L-74.72329711914062 -0.530914306640625L-74.2550048828125 -0.892181396484375C-47.440399169921875 -22.153793334960938 -31.825393676757812 -38.999908447265625 -19.30120849609375 -60.14109802246094C-6.5408935546875 -81.67889404296875 -0.002044677734375 -106.0469970703125 -0.002044677734375 -130.302001953125C-0.002044677734375 -144.83299255371094 -2.3491363525390625 -159.322998046875 -7.111572265625 -173.13999938964844C-9.091888427734375 -178.90699768066406 -13.012405395507812 -190.64100646972656 -14.243392944335938 -194.54800415039062C-32.03269958496094 -250.6999969482422 -40.9342041015625 -300.5190124511719 -40.9342041015625 -344.95001220703125C-40.9342041015625 -391.9209899902344 -30.985702514648438 -432.8710021972656 -11.07220458984375 -468.9159851074219C-9.525238037109375 -471.72100830078125 -9.198516845703125 -472.71600341796875 -9.198516845703125 -474.67999267578125C-9.198516845703125 -474.72100830078125 -9.198654174804688 -474.7619934082031 -9.198928833007812 -474.8030090332031C-9.224990844726562 -480.2749938964844 -13.721298217773438 -483.77899169921875 -18.326507568359375 -483.77899169921875C-20.816299438476562 -483.77899169921875 -23.337905883789062 -482.7550048828125 -25.201995849609375 -480.4630126953125C-26.312591552734375 -479.0979919433594 -34.381103515625 -464.2330017089844 -40.643096923828125 -452.0559997558594C-77.34548950195312 -380.5610046386719 -95.55470275878906 -314.8059997558594 -95.55470275878906 -252.59500122070312C-95.55470275878906 -217.5749969482422 -89.78489685058594 -183.6790008544922 -78.2958984375 -150.51300048828125C-69.97320556640625 -126.4949951171875 -65.70480346679688 -107.19999694824219 -64.05899047851562 -86.16619873046875C-63.951995849609375 -84.7412109375 -63.89849853515625 -81.26559448242188 -63.89849853515625 -77.80169677734375C-63.89849853515625 -74.33779907226562 -63.951995849609375 -70.88569641113281 -64.05899047851562 -69.50750732421875C-65.99920654296875 -45.302093505859375 -74.0408935546875 -26.9573974609375 -88.70599365234375 -13.269195556640625C-90.65950012207031 -11.436004638671875 -91.75669860839844 -10.526199340820312 -94.94129943847656 -8.06414794921875C-97.65080261230469 -5.9700927734375 -99.00559997558594 -3.2505035400390625 -99.00559997558594 -0.530914306640625C-99.00559997558594 2.1886749267578125 -97.65080261230469 4.90826416015625 -94.94129943847656 7.0023040771484375C-91.75669860839844 9.464324951171875 -90.65950012207031 10.37420654296875 -88.70599365234375 12.207305908203125C-76.43600463867188 23.661102294921875 -68.51480102539062 39.06199645996094 -65.37030029296875 57.55389404296875C-64.39140319824219 63.31019592285156 -63.820709228515625 71.25820922851562 -63.820709228515625 78.13320922851562C-63.820709228515625 80.65499877929688 -63.897491455078125 83.03240966796875 -64.05899047851562 85.10440063476562C-65.71820068359375 106.29901123046875 -69.8662109375 124.97799682617188 -78.42970275878906 149.83900451660156C-87.10031127929688 175.02099609375 -92.62640380859375 201.5279998779297 -94.58000183105469 227.33900451660156C-95.22090148925781 235.7830047607422 -95.54379272460938 244.23199462890625 -95.54379272460938 252.7050018310547C-95.54379272460938 321.8919982910156 -74.0089111328125 392.68499755859375 -28.185897827148438 475.41400146484375C-24.599899291992188 481.8900146484375 -23.128005981445312 483.26800537109375 -19.3280029296875 483.7099914550781Z" fill="black" /></g></svg>