<?xml version="1.0" encoding="utf-8" ?>
<svg baseProfile="tiny" height="100%" version="1.2" width="100%" xmlns="http://www.w3.org/2000/svg" xmlns:ev="http://www.w3.org/2001/xml-events" xmlns:xlink="http://www.w3.org/1999/xlink"><defs /><g transform="translate(0, 1000) scale(1, -1)"><path d="M-17.8583984375 933.6300048828125C-17.130203247070312 933.8699951171875 -16.360794067382812 933.9829711914062 -15.579803466796875 933.9829711914062C-12.194503784179688 933.9829711914062 -8.589630126953125 931.8590087890625 -7.170501708984375 928.7030029296875C-6.5736541748046875 927.3790283203125 -6.237030029296875 926.3079833984375 -6.237030029296875 925.1389770507812C-6.237030029296875 923.0399780273438 -7.321929931640625 920.6229858398438 -9.933700561523438 915.8519897460938C-52.629791259765625 837.625 -73.9866943359375 747.89501953125 -73.9866943359375 647.8189697265625C-73.9866943359375 552.739013671875 -54.70880126953125 448.32000732421875 -16.137893676757812 335.5539855957031C-6.4145355224609375 307.0880126953125 -2.0872650146484375 286.6499938964844 -0.5231781005859375 261.8080139160156C-0.174041748046875 256.2430114746094 0.0 250.6999969482422 0.0 245.18099975585938C0.0 155.51400756835938 -45.94560241699219 72.20320129394531 -133.39100646972656 3.813232421875L-139.04800415039062 -0.618316650390625L-139.5959930419922 -1.0875396728515625L-139.04800415039062 -1.53070068359375C-138.73500061035156 -1.7913665771484375 -136.20700073242188 -3.798583984375 -133.39100646972656 -5.9882965087890625C-45.94560241699219 -74.37820434570312 0.0 -157.68899536132812 0.0 -247.3560028076172C0.0 -252.875 -0.174041748046875 -258.4179992675781 -0.5231781005859375 -263.9830017089844C-2.0872650146484375 -288.82501220703125 -6.4145355224609375 -309.23699951171875 -16.137893676757812 -337.72900390625C-54.56549072265625 -450.0780029296875 -73.77178955078125 -554.1929931640625 -73.77178955078125 -648.968017578125C-73.77178955078125 -748.7410278320312 -52.48649597167969 -838.1619873046875 -9.933700561523438 -915.9409790039062C-7.321929931640625 -920.7130126953125 -6.237030029296875 -923.1300048828125 -6.237030029296875 -925.22900390625C-6.237030029296875 -926.3980102539062 -6.5736541748046875 -927.468994140625 -7.170501708984375 -928.7930297851562C-8.6812744140625 -932.1420288085938 -12.09039306640625 -933.9829711914062 -15.50750732421875 -933.9829711914062C-17.809600830078125 -933.9829711914062 -20.115402221679688 -933.14697265625 -21.846694946289062 -931.3740234375C-22.915496826171875 -930.2529907226562 -26.877899169921875 -923.3189697265625 -34.6199951171875 -908.9030151367188C-101.77099609375 -783.9329833984375 -139.7519989013672 -660.6320190429688 -146.11300659179688 -546.8200073242188C-146.92100524902344 -532.1430053710938 -147.05099487304688 -528.155029296875 -147.20700073242188 -513.4530029296875C-147.22900390625 -511.2669982910156 -147.24000549316406 -509.0820007324219 -147.24000549316406 -506.8999938964844C-147.24000549316406 -435.677001953125 -135.6840057373047 -366.5639953613281 -112.6669921875 -300.34698486328125C-96.29269409179688 -253.21400451660156 -88.22769165039062 -208.8990020751953 -88.22769165039062 -168.9759979248047C-88.22769165039062 -100.66200256347656 -111.84100341796875 -45.203704833984375 -157.84300231933594 -10.472000122070312C-163.18699645996094 -6.45751953125 -164.0989990234375 -5.075927734375 -164.0989990234375 -1.0875244140625C-164.0989990234375 2.9008636474609375 -163.18699645996094 4.2824554443359375 -157.84300231933594 8.296920776367188C-112.5830078125 42.451507568359375 -88.09590148925781 98.58509826660156 -88.09590148925781 166.8179931640625C-88.09590148925781 174.98199462890625 -88.44650268554688 183.3209991455078 -89.15409851074219 191.81500244140625C-92.12590026855469 227.26800537109375 -99.47698974609375 260.0870056152344 -113.60600280761719 300.93499755859375C-128.75100708007812 344.7040100097656 -139.49099731445312 393.8940124511719 -144.28799438476562 441.4159851074219C-146.44200134277344 462.8139953613281 -147.52000427246094 484.3710021972656 -147.52000427246094 506.09100341796875C-147.52000427246094 639.447021484375 -106.89199829101562 778.948974609375 -25.33990478515625 925.7579956054688C-22.18560791015625 931.4400024414062 -21.16900634765625 932.5089721679688 -17.8583984375 933.6300048828125Z" fill="black" /></g></svg>