<?xml version="1.0" encoding="utf-8" ?>
<svg baseProfile="tiny" height="100%" version="1.2" width="100%" xmlns="http://www.w3.org/2000/svg" xmlns:ev="http://www.w3.org/2001/xml-events" xmlns:xlink="http://www.w3.org/1999/xlink"><defs /><g transform="translate(0, 1000) scale(1, -1)"><path d="M-19.244705200195312 477.3219909667969C-18.875411987304688 477.364990234375 -18.509811401367188 477.3869934082031 -18.149017333984375 477.3869934082031C-13.181915283203125 477.3869934082031 -9.139266967773438 473.3609924316406 -9.139266967773438 468.3919982910156C-9.139266967773438 468.0459899902344 -9.158859252929688 467.6960144042969 -9.199081420898438 467.3420104980469C-9.370681762695312 465.7850036621094 -9.727096557617188 464.9259948730469 -11.509109497070312 461.6659851074219C-30.85491943359375 426.3940124511719 -40.54801940917969 385.54901123046875 -40.54801940917969 339.4460144042969C-40.54801940917969 319.51800537109375 -38.73701477050781 298.60699462890625 -35.11170959472656 276.739990234375C-29.51470947265625 242.98599243164062 -21.171920776367188 211.18600463867188 -7.0869903564453125 170.01300048828125C-2.3820648193359375 156.24200439453125 -1.52587890625e-05 141.7779998779297 -1.52587890625e-05 127.26100158691406C-1.52587890625e-05 120.55799865722656 -0.5079193115234375 113.84300231933594 -1.529571533203125 107.17900085449219C-7.6150054931640625 67.577392578125 -30.478317260742188 33.0447998046875 -71.84881591796875 0.9806976318359375C-72.87841796875 0.1754608154296875 -73.72322082519531 -0.4977569580078125 -73.72322082519531 -0.5373687744140625C-73.72322082519531 -0.57696533203125 -72.87841796875 -1.25018310546875 -71.84881591796875 -2.055419921875C-30.478317260742188 -34.1195068359375 -7.6150054931640625 -68.652099609375 -1.529571533203125 -108.25399780273438C-0.5079193115234375 -114.9169921875 -1.52587890625e-05 -121.63099670410156 -1.52587890625e-05 -128.33299255371094C-1.52587890625e-05 -142.8470001220703 -2.3820648193359375 -157.30799865722656 -7.0869903564453125 -171.08799743652344C-20.049911499023438 -209.0399932861328 -27.587417602539062 -236.82699584960938 -33.4088134765625 -268.1780090332031C-38.09980773925781 -293.4469909667969 -40.4453125 -317.40399169921875 -40.4453125 -340.0509948730469C-40.4453125 -385.97601318359375 -30.799911499023438 -426.5159912109375 -11.509109497070312 -461.68499755859375C-9.7039794921875 -464.97100830078125 -9.12030029296875 -466.4159851074219 -9.12030029296875 -468.1510009765625C-9.12030029296875 -468.53399658203125 -9.148849487304688 -468.9320068359375 -9.199081420898438 -469.36700439453125C-9.745880126953125 -474.2699890136719 -13.803619384765625 -477.3869934082031 -18.14471435546875 -477.3869934082031C-20.091506958007812 -477.3869934082031 -22.09521484375 -476.760009765625 -23.864822387695312 -475.3869934082031C-25.000106811523438 -474.5159912109375 -25.607315063476562 -473.6310119628906 -27.759017944335938 -469.75C-72.96070861816406 -388.3810119628906 -94.61781311035156 -317.8009948730469 -94.61781311035156 -250.0540008544922C-94.61781311035156 -233.7570037841797 -93.36442565917969 -217.6230010986328 -90.88392639160156 -201.54200744628906C-88.01942443847656 -182.94200134277344 -84.45530700683594 -168.71200561523438 -77.4326171875 -147.72300720214844C-67.86921691894531 -119.16900634765625 -63.33741760253906 -96.64028930664062 -63.33741760253906 -76.82269287109375C-63.33741760253906 -71.52870178222656 -63.66081237792969 -66.4281005859375 -64.29811096191406 -61.457794189453125C-67.07020568847656 -39.874908447265625 -77.19502258300781 -20.985000610351562 -92.15121459960938 -9.460922241210938L-94.40850830078125 -7.71844482421875C-96.76480102539062 -5.90338134765625 -97.94290161132812 -3.220367431640625 -97.94290161132812 -0.5373687744140625C-97.94290161132812 2.1456451416015625 -96.76480102539062 4.828643798828125 -94.40850830078125 6.64373779296875L-92.15121459960938 8.386199951171875C-73.62823486328125 22.650100708007812 -63.33003234863281 46.931396484375 -63.33003234863281 75.54721069335938C-63.33003234863281 78.94869995117188 -63.47552490234375 82.41159057617188 -63.77003479003906 85.92610168457031C-65.40692138671875 105.41000366210938 -69.07672119140625 121.68600463867188 -77.56463623046875 147.0449981689453C-81.49842834472656 158.79299926757812 -82.58084106445312 162.41000366210938 -84.9437255859375 171.53199768066406C-91.4293212890625 196.70399475097656 -94.70672607421875 222.5399932861328 -94.70672607421875 248.63600158691406C-94.70672607421875 249.84100341796875 -94.69973754882812 251.0469970703125 -94.68572998046875 252.2530059814453C-94.60653686523438 258.91900634765625 -94.52732849121094 261.1369934082031 -94.13133239746094 268.2909851074219C-90.72552490234375 329.7130126953125 -69.15592956542969 395.2139892578125 -27.759033203125 469.7309875488281C-24.564529418945312 475.4739990234375 -22.993637084960938 476.87298583984375 -19.244735717773438 477.3219909667969Z" fill="black" /></g></svg>