<?xml version="1.0" encoding="utf-8" ?>
<svg baseProfile="tiny" height="100%" version="1.2" width="100%" xmlns="http://www.w3.org/2000/svg" xmlns:ev="http://www.w3.org/2001/xml-events" xmlns:xlink="http://www.w3.org/1999/xlink"><defs /><g transform="translate(0, 1000) scale(1, -1)"><path d="M-16.129302978515625 1102.260009765625C-15.104904174804688 1102.6500244140625 -14.067703247070312 1102.8299560546875 -13.054397583007812 1102.8299560546875C-8.348098754882812 1102.8299560546875 -4.1556854248046875 1098.8800048828125 -4.1556854248046875 1093.6199951171875C-4.15570068359375 1093.199951171875 -4.1476898193359375 1092.8599853515625 -4.1476898193359375 1092.56005859375C-4.1476898193359375 1090.68994140625 -4.451995849609375 1090.3399658203125 -8.8135986328125 1082.3900146484375C-54.68031311035156 999.0689697265625 -79.75091552734375 904.239013671875 -85.17601013183594 793.7369995117188C-85.42262268066406 788.8599853515625 -85.54591369628906 774.4959716796875 -85.54591369628906 760.02197265625C-85.54591369628906 745.5479736328125 -85.42262268066406 730.9650268554688 -85.17601013183594 725.6489868164062C-80.24412536621094 615.9149780273438 -59.36570739746094 513.083984375 -16.512908935546875 387.40301513671875C-5.4710845947265625 354.99700927734375 -1.52587890625e-05 321.6390075683594 -1.52587890625e-05 288.322998046875C-1.52587890625e-05 234.09100341796875 -14.49761962890625 179.9720001220703 -43.063018798828125 130.25900268554688C-69.64051818847656 84.00820922851562 -107.72601318359375 41.59379577636719 -157.3190155029297 2.9878997802734375C-160.1680145263672 0.7685394287109375 -162.52500915527344 -1.1494293212890625 -162.52500915527344 -1.259033203125C-162.52500915527344 -1.368621826171875 -160.1680145263672 -3.286590576171875 -157.3190155029297 -5.505950927734375C-107.78102111816406 -44.02960205078125 -69.64051818847656 -86.52619934082031 -43.063018798828125 -132.77699279785156C-14.49761962890625 -182.49000549316406 -1.52587890625e-05 -236.6199951171875 -1.52587890625e-05 -290.8529968261719C-1.52587890625e-05 -324.1700134277344 -5.4710845947265625 -357.5249938964844 -16.512908935546875 -389.9209899902344C-40.84361267089844 -461.18701171875 -55.20091247558594 -514.177978515625 -67.14710998535156 -576.510986328125C-79.38652038574219 -640.4539794921875 -85.48121643066406 -701.9990234375 -85.48121643066406 -760.697998046875C-85.48121643066406 -881.2369995117188 -59.780914306640625 -989.7769775390625 -8.8135986328125 -1082.43994140625C-4.451995849609375 -1090.3900146484375 -4.1476898193359375 -1090.75 -4.1476898193359375 -1092.6099853515625C-4.1476898193359375 -1092.9100341796875 -4.15570068359375 -1093.260009765625 -4.15570068359375 -1093.6800537109375C-4.15570068359375 -1099.18994140625 -8.543670654296875 -1102.8299560546875 -13.156509399414062 -1102.8299560546875C-15.372817993164062 -1102.8299560546875 -17.641021728515625 -1101.989990234375 -19.499420166015625 -1100.1199951171875C-20.622817993164062 -1098.989990234375 -21.335220336914062 -1097.760009765625 -27.993209838867188 -1085.5899658203125C-118.70402526855469 -920.155029296875 -164.4110107421875 -757.68701171875 -164.4110107421875 -603.2830200195312C-164.4110107421875 -521.3250122070312 -151.53302001953125 -441.6390075683594 -125.67201232910156 -364.98699951171875C-115.17802429199219 -333.9159851074219 -111.42501831054688 -321.4490051269531 -107.50701904296875 -304.8450012207031C-101.06800842285156 -277.52801513671875 -97.64271545410156 -255.63600158691406 -95.61521911621094 -228.6750030517578C-95.28251647949219 -224.1840057373047 -95.10011291503906 -213.0500030517578 -95.10011291503906 -202.82200622558594C-95.10011291503906 -194.51699829101562 -95.22032165527344 -186.8090057373047 -95.47822570800781 -183.74000549316406C-97.2318115234375 -162.17599487304688 -99.34150695800781 -148.44900512695312 -103.3690185546875 -132.2010040283203C-115.80900573730469 -81.81350708007812 -142.6330108642578 -39.70050048828125 -180.6630096435547 -10.903594970703125C-186.28001403808594 -6.6567230224609375 -187.32101440429688 -5.149749755859375 -187.32101440429688 -1.259033203125C-187.32102966308594 2.6316986083984375 -186.280029296875 4.138671875 -180.66302490234375 8.385604858398438C-142.63302612304688 37.1824951171875 -115.80902099609375 79.29550170898438 -103.36903381347656 129.68299865722656C-99.34152221679688 145.93099975585938 -97.23182678222656 159.6580047607422 -95.47824096679688 181.2220001220703C-95.2203369140625 184.29100036621094 -95.10012817382812 191.99899291992188 -95.10012817382812 200.3040008544922C-95.10012817382812 210.53199768066406 -95.28253173828125 221.66600036621094 -95.615234375 226.15699768066406C-97.64273071289062 253.1179962158203 -101.06802368164062 275.010009765625 -107.50703430175781 302.3269958496094C-111.37002563476562 318.79400634765625 -115.5350341796875 332.57598876953125 -125.39804077148438 361.6470031738281C-151.58203125 438.8949890136719 -164.61802673339844 519.3300170898438 -164.61802673339844 602.0609741210938C-164.61802673339844 752.3820190429688 -121.58203125 910.281982421875 -36.18572998046875 1070.4200439453125C-20.705032348632812 1099.4100341796875 -19.800827026367188 1100.8900146484375 -16.12933349609375 1102.260009765625Z" fill="black" /></g></svg>