<?xml version="1.0" encoding="utf-8" ?>
<svg baseProfile="tiny" height="100%" version="1.2" width="100%" xmlns="http://www.w3.org/2000/svg" xmlns:ev="http://www.w3.org/2001/xml-events" xmlns:xlink="http://www.w3.org/1999/xlink"><defs /><g transform="translate(0, 1000) scale(1, -1)"><path d="M-13.129302978515625 4724.66015625C-11.772598266601562 4725.27001953125 -10.396392822265625 4725.56005859375 -9.067886352539062 4725.56005859375C-5.7683868408203125 4725.56005859375 -2.7625274658203125 4723.75 -1.0778350830078125 4720.4599609375C-0.43798828125 4719.22021484375 -0.0158233642578125 4718.25 -0.0158233642578125 4717.0C-0.0158233642578125 4713.97021484375 -2.480316162109375 4709.2998046875 -10.293701171875 4695.18017578125C-194.0780029296875 4362.8798828125 -314.8290100097656 3998.14990234375 -371.8970031738281 3602.75C-396.4739990234375 3432.5400390625 -408.67999267578125 3257.60009765625 -408.67999267578125 3079.679931640625C-408.67999267578125 2652.8798828125 -338.44000244140625 2208.949951171875 -200.2220001220703 1771.989990234375C-184.9219970703125 1723.6099853515625 -175.11500549316406 1694.1300048828125 -151.0709991455078 1624.5400390625C-101.76998901367188 1481.56005859375 -77.51361083984375 1332.989990234375 -77.51361083984375 1184.3599853515625C-77.51361083984375 905.2069702148438 -163.0850067138672 625.8740234375 -329.00799560546875 383.1199951171875C-427.7229919433594 238.73899841308594 -565.0150146484375 96.66169738769531 -700.0040283203125 -0.7543182373046875C-703.135009765625 -3.02874755859375 -704.7000122070312 -4.0182647705078125 -704.7000122070312 -5.007781982421875C-704.7000122070312 -5.9972991943359375 -703.135009765625 -6.98681640625 -700.0040283203125 -9.26123046875C-540.0260009765625 -124.75399780273438 -383.00299072265625 -296.7239990234375 -280.802001953125 -468.5159912109375C-145.74899291992188 -695.5230102539062 -77.4468994140625 -940.593017578125 -77.4468994140625 -1188.780029296875C-77.4468994140625 -1343.030029296875 -103.8330078125 -1498.489990234375 -156.97900390625 -1651.5699462890625C-305.4949951171875 -2079.280029296875 -389.5010070800781 -2515.3701171875 -405.0379943847656 -2938.7099609375C-406.8689880371094 -2989.81005859375 -407.1059875488281 -3003.989990234375 -407.1059875488281 -3082.56005859375C-407.1059875488281 -3164.030029296875 -406.8689880371094 -3177.3798828125 -404.7430114746094 -3233.5C-384.0660095214844 -3765.64990234375 -250.73199462890625 -4259.52978515625 -10.293701171875 -4694.5C-3.1384429931640625 -4707.509765625 0.0 -4713.8701171875 0.0 -4717.72998046875C0.0 -4720.330078125 -1.434326171875 -4721.7900390625 -4.0316314697265625 -4723.39013671875C-6.24212646484375 -4724.72998046875 -8.003326416015625 -4725.56005859375 -9.669952392578125 -4725.56005859375C-14.01629638671875 -4725.56005859375 -17.719497680664062 -4719.919921875 -27.071197509765625 -4703.009765625C-374.68499755859375 -4075.469970703125 -551.7479858398438 -3407.419921875 -551.7479858398438 -2751.280029296875C-551.7479858398438 -2400.0400390625 -501.0119934082031 -2052.219970703125 -398.5400085449219 -1715.8399658203125C-385.5429992675781 -1673.1300048828125 -381.2309875488281 -1660.02001953125 -346.02099609375 -1555.75C-321.9779968261719 -1484.56005859375 -304.01800537109375 -1417.75 -289.25 -1345.1400146484375C-266.72900390625 -1234.1800537109375 -255.7429962158203 -1124.6099853515625 -255.7429962158203 -1018.1400146484375C-255.7429962158203 -607.614990234375 -419.06500244140625 -243.07000732421875 -714.3590087890625 -22.080703735351562C-725.7899780273438 -13.544204711914062 -731.5059814453125 -9.2760009765625 -731.5059814453125 -5.007781982421875C-731.5059814453125 -0.7395477294921875 -725.7899780273438 3.5286712646484375 -714.3590087890625 12.065093994140625C-418.2309875488281 233.71299743652344 -255.8040008544922 598.5109710693359 -255.8040008544922 1008.2100067138672C-255.8040008544922 1138.5999603271484 -272.2560119628906 1273.540023803711 -306.08599853515625 1409.8599700927734C-320.3819885253906 1467.4000091552734 -331.07501220703125 1502.249984741211 -364.2170104980469 1599.489974975586C-490.32000732421875 1969.1099700927734 -552.7329711914062 2355.090072631836 -552.7329711914062 2745.679916381836C-552.7329711914062 3403.929916381836 -375.4729919433594 4075.300033569336 -27.071197509765625 4703.629867553711C-16.142196655273438 4723.359848022461 -16.201202392578125 4723.240219116211 -13.129302978515625 4724.660140991211Z" fill="black" /></g></svg>