<?xml version="1.0" encoding="utf-8" ?>
<svg baseProfile="tiny" height="100%" version="1.2" width="100%" xmlns="http://www.w3.org/2000/svg" xmlns:ev="http://www.w3.org/2001/xml-events" xmlns:xlink="http://www.w3.org/1999/xlink"><defs /><g transform="translate(0, 1000) scale(1, -1)"><path d="M-11.389999389648438 3719.6298828125C-10.81878662109375 3719.800048828125 -10.198883056640625 3719.8798828125 -9.555252075195312 3719.8798828125C-6.4868011474609375 3719.8798828125 -2.880615234375 3718.0400390625 -1.4541168212890625 3715.43994140625C-0.53369140625 3713.760009765625 1.52587890625e-05 3712.489990234375 1.52587890625e-05 3711.010009765625C1.52587890625e-05 3708.449951171875 -1.5919647216796875 3705.260009765625 -5.5330657958984375 3698.1298828125C-190.49798583984375 3366.429931640625 -295.1379852294922 2983.530029296875 -313.0229949951172 2572.760009765625C-314.70497131347656 2533.669921875 -315.6389923095703 2477.0 -315.6389923095703 2427.280029296875C-315.6389923095703 2398.199951171875 -315.31898498535156 2371.5 -314.6439971923828 2352.080078125C-312.96998596191406 2304.909912109375 -311.7679901123047 2278.659912109375 -309.88499450683594 2248.5400390625C-289.7519989013672 1930.3800048828125 -224.802978515625 1614.1099853515625 -113.833984375 1294.280029296875C-79.63389587402344 1195.6500244140625 -60.49418640136719 1102.4599609375 -54.42808532714844 1005.25C-52.70237731933594 976.8510131835938 -52.38868713378906 966.3920288085938 -52.38868713378906 936.218017578125C-52.38868713378906 906.0440063476562 -52.70237731933594 895.5859985351562 -54.42808532714844 867.1900024414062C-74.92738342285156 536.5859985351562 -252.25698852539062 223.2919921875 -543.1169738769531 3.8654022216796875C-548.7129821777344 -0.3704376220703125 -553.3139953613281 -4.0310211181640625 -553.3139953613281 -4.2924957275390625C-553.3139953613281 -4.5539703369140625 -548.7129821777344 -8.266860961914062 -543.1169738769531 -12.450408935546875C-408.4599609375 -113.7440185546875 -295.0859680175781 -238.4660186767578 -212.9839630126953 -375.68601989746094C-106.51296997070312 -553.5900421142578 -52.388671875 -745.3530426025391 -52.388671875 -944.8029937744141C-52.388671875 -974.9770050048828 -52.702362060546875 -985.4359893798828 -54.428070068359375 -1013.8300323486328C-60.494171142578125 -1111.0999908447266 -79.63388061523438 -1204.229995727539 -113.886962890625 -1303.020034790039C-248.34097290039062 -1690.459976196289 -315.2189636230469 -2075.530044555664 -315.2189636230469 -2442.469985961914C-315.2189636230469 -2897.280044555664 -212.47096252441406 -3324.250015258789 -8.304641723632812 -3693.330093383789C-2.1722564697265625 -3704.490005493164 -0.0109100341796875 -3708.530044555664 -0.0109100341796875 -3711.399917602539C-0.0109100341796875 -3712.860122680664 -0.5717010498046875 -3714.020034790039 -1.4541015625 -3715.659927368164C-2.9851531982421875 -3718.449966430664 -6.2648162841796875 -3719.879898071289 -9.470855712890625 -3719.879898071289C-12.287567138671875 -3719.879898071289 -15.04736328125 -3718.770034790039 -16.514862060546875 -3716.500015258789C-18.397369384765625 -3713.520034790039 -23.313064575195312 -3704.780044555664 -33.77186584472656 -3685.800064086914C-303.37696838378906 -3195.340103149414 -445.5139617919922 -2664.379898071289 -445.5139617919922 -2151.770034790039C-445.5139617919922 -2118.909927368164 -444.92994689941406 -2086.129898071289 -443.75794982910156 -2053.439956665039C-433.6129608154297 -1770.6300201416016 -384.35194396972656 -1506.969985961914 -291.6339569091797 -1238.750015258789C-239.05294799804688 -1086.6600494384766 -212.6339569091797 -935.8750152587891 -212.6339569091797 -790.2329864501953C-212.6339569091797 -696.0089874267578 -223.69195556640625 -603.9350128173828 -245.876953125 -515.0500030517578C-297.43894958496094 -308.59202575683594 -412.53895568847656 -130.9490203857422 -569.0029449462891 -16.372421264648438C-575.8529815673828 -11.352218627929688 -579.2789459228516 -7.822357177734375 -579.2789459228516 -4.2924957275390625C-579.2789459228516 -0.76263427734375 -575.8529815673828 2.7672119140625 -569.0029449462891 7.7874603271484375C-519.6889801025391 43.87037658691406 -470.48094177246094 90.3599853515625 -428.90696716308594 140.0389862060547C-286.44395446777344 310.35398864746094 -212.80795288085938 536.7709808349609 -212.80795288085938 781.8499603271484C-212.80795288085938 925.1370086669922 -237.9789581298828 1074.800033569336 -289.2809600830078 1223.3699798583984C-309.15296936035156 1280.8899993896484 -319.66395568847656 1313.5699310302734 -333.1559600830078 1359.280014038086C-408.59693908691406 1615.3499603271484 -446.2189483642578 1879.1399993896484 -446.2189483642578 2146.330062866211C-446.2189483642578 2500.909896850586 -379.96595764160156 2861.499984741211 -247.91696166992188 3218.070053100586C-187.30795288085938 3381.810043334961 -111.74295043945312 3545.749984741211 -25.666259765625 3700.280014038086C-15.57354736328125 3718.370101928711 -15.678054809570312 3718.270004272461 -11.38995361328125 3719.629867553711Z" fill="black" /></g></svg>