<?xml version="1.0" encoding="utf-8" ?>
<svg baseProfile="tiny" height="100%" version="1.2" width="100%" xmlns="http://www.w3.org/2000/svg" xmlns:ev="http://www.w3.org/2001/xml-events" xmlns:xlink="http://www.w3.org/1999/xlink"><defs /><g transform="translate(0, 1000) scale(1, -1)"><path d="M-11.301605224609375 2244.830078125C-10.545501708984375 2245.02001953125 -9.791656494140625 2245.110107421875 -9.052642822265625 2245.110107421875C-4.206817626953125 2245.110107421875 0.0 2241.139892578125 0.0 2236.0V2233.22998046875L-6.1339569091796875 2222.10009765625C-122.97300720214844 2009.8900146484375 -181.4140167236328 1769.280029296875 -181.4140167236328 1500.31005859375C-181.4140167236328 1448.5899658203125 -180.447021484375 1419.050048828125 -177.25401306152344 1372.1700439453125C-164.02001953125 1180.5400390625 -122.67901611328125 983.7540283203125 -54.36531066894531 786.9219970703125C-29.7816162109375 716.1699829101562 -17.521408081054688 644.1500244140625 -17.521408081054688 572.4810180664062C-17.521408081054688 486.5159912109375 -35.16072082519531 401.05499267578125 -70.33030700683594 318.89300537109375C-121.50300598144531 199.322998046875 -210.19300842285156 88.78630065917969 -323.5030059814453 3.3311767578125C-327.53602600097656 0.2642059326171875 -330.81300354003906 -2.3406219482421875 -330.81300354003906 -2.5086669921875C-330.81300354003906 -2.676727294921875 -327.53602600097656 -5.28155517578125 -323.5030059814453 -8.348526000976562C-239.72801208496094 -71.49459838867188 -167.00302124023438 -150.98399353027344 -116.25102233886719 -234.88400268554688C-56.88612365722656 -332.9020080566406 -23.947616577148438 -437.8089904785156 -18.485916137695312 -546.1610107421875C-17.867111206054688 -558.3209838867188 -17.551620483398438 -570.2260131835938 -17.551620483398438 -581.9550170898438C-17.551620483398438 -654.6420288085938 -29.664520263671875 -720.6170043945312 -56.760009765625 -799.0809936523438C-138.98802185058594 -1037.0899658203125 -181.1630096435547 -1278.0400390625 -181.1630096435547 -1503.530029296875C-181.1630096435547 -1583.81005859375 -175.8170166015625 -1662.1300048828125 -165.02801513671875 -1737.6600341796875C-139.8200225830078 -1914.1199951171875 -87.09361267089844 -2074.93994140625 -6.13397216796875 -2222.070068359375L-1.52587890625e-05 -2233.2099609375V-2235.97998046875C-1.52587890625e-05 -2241.300048828125 -4.3675079345703125 -2245.110107421875 -9.0322265625 -2245.110107421875C-10.590316772460938 -2245.110107421875 -12.181610107421875 -2244.68994140625 -13.654312133789062 -2243.75C-16.007110595703125 -2242.280029296875 -16.805313110351562 -2241.02001953125 -25.0399169921875 -2226.06005859375C-198.51101684570312 -1911.699951171875 -286.88002014160156 -1587.030029296875 -286.88002014160156 -1272.8599853515625C-286.88002014160156 -1137.3499755859375 -270.43800354003906 -1003.7899780273438 -237.291015625 -873.864990234375C-224.56101989746094 -823.9949951171875 -216.20101928710938 -796.3510131835938 -193.7230224609375 -729.969970703125C-162.0980224609375 -636.6199951171875 -146.7250213623047 -544.47998046875 -146.7250213623047 -457.6099853515625C-146.7250213623047 -271.77801513671875 -217.07501220703125 -110.0570068359375 -349.1730194091797 -12.17169189453125C-353.8150177001953 -8.726638793945312 -356.1370086669922 -5.6176605224609375 -356.1370086669922 -2.5086669921875C-356.1370086669922 0.600311279296875 -353.8150177001953 3.7093048095703125 -349.1730194091797 7.1544036865234375C-217.0740203857422 105.04000854492188 -146.7440185546875 266.7239990234375 -146.7440185546875 452.5589904785156C-146.7440185546875 539.4290161132812 -162.1120147705078 631.5770263671875 -193.7230224609375 724.9520263671875C-217.12501525878906 794.1900024414062 -225.822021484375 823.010986328125 -239.01402282714844 875.5700073242188C-271.3040008544922 1004.260009765625 -287.31800842285156 1136.469970703125 -287.31800842285156 1270.56005859375C-287.31800842285156 1585.8900146484375 -198.75502014160156 1911.5899658203125 -25.0399169921875 2226.090087890625C-15.755020141601562 2242.93994140625 -15.082809448242188 2243.860107421875 -11.301620483398438 2244.830078125Z" fill="black" /></g></svg>