<?xml version="1.0" encoding="utf-8" ?>
<svg baseProfile="tiny" height="100%" version="1.2" width="100%" xmlns="http://www.w3.org/2000/svg" xmlns:ev="http://www.w3.org/2001/xml-events" xmlns:xlink="http://www.w3.org/1999/xlink"><defs /><g transform="translate(0, 1000) scale(1, -1)"><path d="M-11.59320068359375 10699.099609375C-10.989303588867188 10699.2001953125 -10.371994018554688 10699.2998046875 -9.75274658203125 10699.2998046875C-6.1607818603515625 10699.2998046875 -2.5057373046875 10697.400390625 -1.0589599609375 10694.599609375C-0.454193115234375 10693.5 -0.06298828125 10692.5 -0.06298828125 10691.2001953125C-0.06298828125 10687.2001953125 -3.550323486328125 10680.5 -15.253402709960938 10659.599609375C-596.5099945068359 9615.419921875 -920.0359954833984 8420.6796875 -965.2969818115234 7151.56982421875C-969.4039764404297 7036.22998046875 -970.2069549560547 6984.35986328125 -970.2069549560547 6837.330078125C-970.2069549560547 6686.64013671875 -969.3149871826172 6633.52001953125 -964.8509979248047 6509.25C-931.2839813232422 5580.72021484375 -748.3639984130859 4619.43017578125 -431.89097595214844 3708.31005859375C-371.0959930419922 3533.25 -335.5649871826172 3406.389892578125 -304.5869903564453 3253.4599609375C-262.2119903564453 3044.280029296875 -241.53797912597656 2834.1298828125 -241.53797912597656 2625.6201171875C-241.53797912597656 1617.3399658203125 -724.9879608154297 647.4769897460938 -1575.9300384521484 11.51202392578125C-1592.8899993896484 -1.0754547119140625 -1606.719955444336 -11.78826904296875 -1606.719955444336 -12.145263671875C-1606.719955444336 -12.502365112304688 -1592.8899993896484 -23.215164184570312 -1575.9300384521484 -35.80267333984375C-793.3569793701172 -620.7199096679688 -307.0869903564453 -1503.6299438476562 -247.9879913330078 -2447.0700073242188C-243.65298461914062 -2516.4098510742188 -241.47299194335938 -2585.0900268554688 -241.47299194335938 -2653.2799682617188C-241.47299194335938 -3013.4398803710938 -302.29698181152344 -3360.1798706054688 -427.8739776611328 -3720.9999389648438C-668.2559661865234 -4411.700134277344 -908.4600067138672 -5113.100036621094 -908.4600067138672 -5809.049743652344C-908.4600067138672 -7200.950134277344 -907.7459564208984 -8571.049743652344 -426.26698303222656 -9790.219665527344C-306.01597595214844 -10094.700134277344 -159.25099182128906 -10404.299743652344 -8.557891845703125 -10671.599548339844C-2.33978271484375 -10682.700134277344 1.52587890625e-05 -10687.599548339844 1.52587890625e-05 -10690.999938964844C1.52587890625e-05 -10692.400329589844 -0.387542724609375 -10693.599548339844 -1.0589447021484375 -10694.799743652344C-2.6511688232421875 -10697.799743652344 -6.03668212890625 -10699.299743652344 -9.372726440429688 -10699.299743652344C-12.396286010742188 -10699.299743652344 -15.379180908203125 -10697.999938964844 -16.9495849609375 -10695.499938964844C-22.305892944335938 -10686.999938964844 -75.0662841796875 -10591.200134277344 -101.31298828125 -10542.400329589844C-659.447998046875 -9504.370056152344 -1009.489990234375 -8374.980407714844 -1127.77001953125 -7230.769958496094C-1130.1800537109375 -7206.930114746094 -1132.5999755859375 -7184.430114746094 -1133.1300048828125 -7180.769958496094C-1134.2900390625 -7171.930114746094 -1139.469970703125 -7115.339782714844 -1143.4000244140625 -7069.180114746094C-1163.43994140625 -6831.700134277344 -1173.4200439453125 -6594.169860839844 -1173.4200439453125 -6357.229919433594C-1173.4200439453125 -5429.109802246094 -1020.260009765625 -4510.049743652344 -718.7249755859375 -3638.8600463867188C-653.198974609375 -3449.7799682617188 -617.0430297851562 -3324.6200561523438 -582.7620239257812 -3168.3898315429688C-525.3270263671875 -2906.9598999023438 -497.3139953613281 -2646.7098999023438 -497.3139953613281 -2392.4298706054688C-497.3139953613281 -1501.3499145507812 -841.3489990234375 -683.7289428710938 -1468.800048828125 -146.50091552734375C-1514.77001953125 -107.13191223144531 -1587.530029296875 -49.729217529296875 -1626.18994140625 -22.411605834960938C-1631.719970703125 -18.483612060546875 -1633.3299560546875 -16.162506103515625 -1633.3299560546875 -12.14520263671875C-1633.3299560546875 -7.5923309326171875 -1631.6300048828125 -5.8068695068359375 -1616.0999755859375 5.5308074951171875C-1457.9100341796875 120.42509460449219 -1298.3800048828125 270.3150939941406 -1166.52001953125 427.9710998535156C-727.010009765625 953.2950744628906 -497.21600341796875 1640.4001159667969 -497.21600341796875 2368.3702087402344C-497.21600341796875 2724.1101989746094 -552.0889892578125 3089.6101989746094 -664.1790161132812 3450.7601013183594C-675.5170288085938 3487.4500427246094 -692.8359985351562 3539.5801696777344 -710.6010131835938 3590.9200134277344C-1020.4500122070312 4484.529876708984 -1175.9000244140625 5403.980072021484 -1175.9000244140625 6341.750091552734C-1175.9000244140625 6520.140228271484 -1170.280029296875 6699.190032958984 -1159.02001953125 6878.839935302734C-1153.219970703125 6971.060150146484 -1140.719970703125 7127.020111083984 -1135.81005859375 7168.529876708984C-1135.3599853515625 7172.460052490234 -1133.1300048828125 7193.170013427734 -1130.9000244140625 7214.509857177734C-1009.489990234375 8378.179779052734 -661.5009765625 9501.690521240234 -98.81298828125 10546.900482177734C-35.78617858886719 10663.799896240234 -16.056777954101562 10698.200286865234 -11.593185424804688 10699.099700927734Z" fill="black" /></g></svg>