<?xml version="1.0" encoding="utf-8" ?>
<svg baseProfile="tiny" height="100%" version="1.2" width="100%" xmlns="http://www.w3.org/2000/svg" xmlns:ev="http://www.w3.org/2001/xml-events" xmlns:xlink="http://www.w3.org/1999/xlink"><defs /><g transform="translate(0, 1000) scale(1, -1)"><path d="M-11.346893310546875 2351.6201171875C-10.497604370117188 2351.7900390625 -9.555877685546875 2351.909912109375 -9.112075805664062 2351.909912109375L-8.949386596679688 2351.89990234375C-8.624298095703125 2351.820068359375 -7.6896820068359375 2351.6201171875 -6.9176025390625 2351.449951171875C-3.0063629150390625 2350.659912109375 -0.1805419921875 2346.030029296875 -0.1805419921875 2341.969970703125C-0.1805419921875 2340.419921875 -0.592437744140625 2338.949951171875 -1.5131072998046875 2337.800048828125C-2.16326904296875 2336.989990234375 -12.769088745117188 2317.52001953125 -19.270782470703125 2305.25C-133.99098205566406 2087.97998046875 -191.64198303222656 1837.5 -191.64198303222656 1567.550048828125C-191.64198303222656 1350.699951171875 -154.44097900390625 1121.27001953125 -79.73619079589844 886.385986328125C-75.83518981933594 874.072998046875 -68.07388305664062 850.8300170898438 -55.11119079589844 812.6329956054688C-31.817184448242188 743.9130249023438 -20.265792846679688 672.4249877929688 -20.265792846679688 600.7919921875C-20.265792846679688 497.1050109863281 -44.46809387207031 393.11199951171875 -92.29249572753906 296.7659912109375C-149.18199157714844 182.09300231933594 -233.17498779296875 83.43069458007812 -346.4259796142578 -1.7816925048828125L-347.6449737548828 -2.71630859375L-346.4259796142578 -3.61029052734375C-281.5719757080078 -52.45399475097656 -229.76197814941406 -102.23199462890625 -182.3809814453125 -161.2760009765625C-75.86248779296875 -294.0050048828125 -20.258987426757812 -448.80999755859375 -20.258987426757812 -605.47802734375C-20.258987426757812 -661.5789794921875 -27.388885498046875 -717.9190063476562 -41.863983154296875 -773.5689697265625C-47.51239013671875 -795.2689819335938 -50.844482421875 -805.9959716796875 -62.70997619628906 -840.4149780273438C-147.19097900390625 -1085.489990234375 -190.79298400878906 -1334.1300048828125 -190.79298400878906 -1571.239990234375C-190.79298400878906 -1614.8399658203125 -190.62998962402344 -1624.22998046875 -189.36997985839844 -1653.1199951171875C-178.47998046875 -1900.0999755859375 -117.48597717285156 -2126.39990234375 -7.8522186279296875 -2326.64990234375C-4.60137939453125 -2332.590087890625 -1.7569122314453125 -2337.669921875 -1.5131072998046875 -2337.949951171875C-0.46337890625 -2339.27001953125 1.52587890625e-05 -2340.780029296875 1.52587890625e-05 -2342.31005859375C1.52587890625e-05 -2347.02001953125 -4.38458251953125 -2351.909912109375 -9.575775146484375 -2351.909912109375C-10.144485473632812 -2351.909912109375 -10.722885131835938 -2351.85009765625 -11.306182861328125 -2351.72998046875C-15.897979736328125 -2350.75 -16.22308349609375 -2350.219970703125 -36.78459167480469 -2312.22998046875C-210.25299072265625 -1991.530029296875 -298.7729949951172 -1658.1500244140625 -298.7729949951172 -1335.6300048828125C-298.7729949951172 -1195.7099609375 -282.11097717285156 -1057.8299560546875 -248.49497985839844 -923.9199829101562C-234.67898559570312 -869.02197265625 -224.3579864501953 -834.3599853515625 -203.1859893798828 -772.3499755859375C-186.281982421875 -722.7349853515625 -175.79798889160156 -683.4810180664062 -167.06198120117188 -637.0349731445312C-157.01498413085938 -583.6329956054688 -152.09397888183594 -531.4130249023438 -152.09397888183594 -481.0199890136719C-152.09397888183594 -285.1960144042969 -226.41098022460938 -116.9739990234375 -363.0869903564453 -14.297393798828125C-369.5809783935547 -9.421173095703125 -372.7729949951172 -5.89508056640625 -372.7729949951172 -2.4853973388671875C-372.7729949951172 0.61175537109375 -370.13999938964844 3.61285400390625 -364.9559783935547 7.442535400390625C-227.12998962402344 109.41799926757812 -152.12098693847656 279.1669921875 -152.12098693847656 475.9620056152344C-152.12098693847656 533.010986328125 -158.42398071289062 592.3330078125 -171.32798767089844 652.9359741210938C-180.7559814453125 697.0659790039062 -189.1669921875 726.281982421875 -209.4849853515625 785.406982421875C-247.72299194335938 896.7069702148438 -275.59898376464844 1022.469970703125 -289.08998107910156 1144.8299560546875C-295.97898864746094 1207.1700439453125 -299.4039764404297 1270.0999755859375 -299.4039764404297 1333.43994140625C-299.4039764404297 1663.510009765625 -206.41998291015625 2004.739990234375 -26.13818359375 2331.580078125C-15.69488525390625 2350.52001953125 -15.572982788085938 2350.679931640625 -11.346878051757812 2351.6201171875Z" fill="black" /></g></svg>