<?xml version="1.0" encoding="utf-8" ?>
<svg baseProfile="tiny" height="100%" version="1.2" width="100%" xmlns="http://www.w3.org/2000/svg" xmlns:ev="http://www.w3.org/2001/xml-events" xmlns:xlink="http://www.w3.org/1999/xlink"><defs /><g transform="translate(0, 1000) scale(1, -1)"><path d="M-19.413894653320312 461.6990051269531C-18.951889038085938 461.7669982910156 -18.49468994140625 461.8009948730469 -18.044586181640625 461.8009948730469C-13.148681640625 461.8009948730469 -9.10308837890625 457.8599853515625 -9.10308837890625 452.75299072265625C-9.10308837890625 450.59698486328125 -9.320022583007812 449.9079895019531 -11.093780517578125 446.6919860839844C-29.909088134765625 412.55499267578125 -39.32069396972656 373.1499938964844 -39.32069396972656 328.5820007324219C-39.32069396972656 307.3760070800781 -37.18998718261719 285.0010070800781 -32.92768859863281 261.4679870605469C-27.26177978515625 230.1269989013672 -19.783981323242188 202.2949981689453 -6.9209747314453125 164.67599487304688C-2.29766845703125 151.13400268554688 -0.0096282958984375 137.10899353027344 -0.0096282958984375 123.10800170898438C-0.0096282958984375 101.09300231933594 -5.66693115234375 79.13720703125 -16.797882080078125 59.20750427246094C-28.104080200195312 38.96870422363281 -44.323089599609375 20.8992919921875 -68.18598937988281 2.00042724609375C-69.88319396972656 0.6477813720703125 -71.27409362792969 -0.4751739501953125 -71.27409362792969 -0.513458251953125C-71.27409362792969 -0.5517425537109375 -69.88319396972656 -1.6746978759765625 -68.18598937988281 -3.0273590087890625C-36.909088134765625 -27.809005737304688 -18.022979736328125 -51.90159606933594 -7.7631988525390625 -80.07760620117188C-2.5894622802734375 -94.30538940429688 1.52587890625e-05 -109.17800903320312 1.52587890625e-05 -124.06399536132812C1.52587890625e-05 -138.11000061035156 -2.3055267333984375 -152.16700744628906 -6.9209747314453125 -165.7030029296875C-19.783981323242188 -203.3730010986328 -27.223587036132812 -231.01300048828125 -32.81278991699219 -261.9200134277344C-37.087188720703125 -285.5409851074219 -39.22587585449219 -307.9389953613281 -39.22587585449219 -329.1390075683594C-39.22587585449219 -373.5069885253906 -29.8577880859375 -412.6239929199219 -11.093780517578125 -446.697998046875C-9.320022583007812 -449.91400146484375 -9.10308837890625 -450.6029968261719 -9.10308837890625 -452.7590026855469C-9.10308837890625 -458.0639953613281 -13.312179565429688 -461.8009948730469 -18.046890258789062 -461.8009948730469C-19.5308837890625 -461.8009948730469 -21.066482543945312 -461.4339904785156 -22.540283203125 -460.63299560546875C-24.301284790039062 -459.6629943847656 -25.156280517578125 -458.6419982910156 -27.09588623046875 -455.1839904785156C-67.35649108886719 -383.0719909667969 -88.59068298339844 -319.0379943847656 -91.89567565917969 -259.87799072265625C-92.29127502441406 -252.5919952392578 -92.35508728027344 -250.85699462890625 -92.43168640136719 -243.99099731445312C-92.44438171386719 -242.78799438476562 -92.45079040527344 -241.58999633789062 -92.45079040527344 -240.39700317382812C-92.45079040527344 -206.86700439453125 -87.40449523925781 -177.15499877929688 -75.94459533691406 -142.86099243164062C-67.52238464355469 -117.64599609375 -63.974884033203125 -101.656005859375 -62.456390380859375 -82.11929321289062C-62.34147644042969 -80.65179443359375 -62.284088134765625 -77.15850830078125 -62.284088134765625 -73.69720458984375C-62.284088134765625 -70.23580932617188 -62.34147644042969 -66.80630493164062 -62.456390380859375 -65.46640014648438C-64.58738708496094 -40.327392578125 -74.19639587402344 -20.981903076171875 -90.61958312988281 -8.744232177734375C-94.23098754882812 -6.064453125 -95.44328308105469 -3.9844207763671875 -95.44328308105469 -0.513458251953125C-95.44328308105469 2.9575042724609375 -94.23098754882812 5.0375213623046875 -90.61958312988281 7.717315673828125C-74.19639587402344 19.955001831054688 -64.58738708496094 39.300506591796875 -62.456390380859375 64.43949890136719C-62.34147644042969 65.779296875 -62.284088134765625 69.20880126953125 -62.284088134765625 72.67019653320312C-62.284088134765625 76.131591796875 -62.34147644042969 79.62490844726562 -62.456390380859375 81.0924072265625C-63.974884033203125 100.67999267578125 -67.50968933105469 116.58000183105469 -76.00837707519531 142.0260009765625C-82.75889587402344 162.2519989013672 -86.25538635253906 176.28900146484375 -89.01179504394531 194.34500122070312C-91.37208557128906 209.76300048828125 -92.56367492675781 225.2469940185547 -92.56367492675781 240.8939971923828C-92.56367492675781 306.96600341796875 -71.31669616699219 375.95001220703125 -27.09588623046875 455.1780090332031C-24.556488037109375 459.72100830078125 -22.821090698242188 461.18798828125 -19.41387939453125 461.6990051269531Z" fill="black" /></g></svg>