<?xml version="1.0" encoding="utf-8" ?>
<svg baseProfile="tiny" height="100%" version="1.2" width="100%" xmlns="http://www.w3.org/2000/svg" xmlns:ev="http://www.w3.org/2001/xml-events" xmlns:xlink="http://www.w3.org/1999/xlink"><defs /><g transform="translate(0, 1000) scale(1, -1)"><path d="M-14.277603149414062 7880.2001953125C-12.750411987304688 7881.14990234375 -11.007720947265625 7881.58984375 -9.282241821289062 7881.58984375C-5.9503173828125 7881.58984375 -2.6830291748046875 7879.93994140625 -1.15765380859375 7877.0400390625C-0.4982452392578125 7875.740234375 -0.07672119140625 7874.669921875 -0.07672119140625 7873.31982421875C-0.07672119140625 7869.93994140625 -2.734832763671875 7864.81982421875 -10.959014892578125 7850.02978515625C-469.8349914550781 7023.18017578125 -704.1939697265625 6081.830078125 -704.1939697265625 5069.43994140625C-704.1939697265625 4987.669921875 -702.666015625 4905.4501953125 -699.60302734375 4822.77978515625C-673.7490234375 4126.10986328125 -538.6129760742188 3422.72998046875 -296.125 2722.820068359375C-218.56300354003906 2498.85009765625 -177.1199951171875 2291.02001953125 -165.54299926757812 2067.590087890625C-163.07400512695312 2018.6600341796875 -162.5330047607422 1999.06005859375 -162.5330047607422 1946.0400390625C-162.5330047607422 1893.02001953125 -163.07400512695312 1872.489990234375 -165.54299926757812 1824.0999755859375C-201.2760009765625 1137.1500244140625 -544.7880249023438 490.7239990234375 -1110.5699462890625 45.49371337890625C-1126.0 33.37701416015625 -1178.4100341796875 -6.2144622802734375 -1181.4100341796875 -8.066696166992188C-1182.030029296875 -8.413986206054688 -1182.3399658203125 -8.626220703125 -1182.3399658203125 -8.838455200195312C-1182.3399658203125 -9.050689697265625 -1182.030029296875 -9.262924194335938 -1181.4100341796875 -9.610214233398438C-1180.6400146484375 -10.073287963867188 -1168.1400146484375 -19.411590576171875 -1153.6300048828125 -30.293487548828125C-723.1420288085938 -353.3539733886719 -407.2590026855469 -802.1339416503906 -258.8489990234375 -1301.5400085449219C-196.093994140625 -1512.6199645996094 -161.80099487304688 -1747.3599548339844 -161.80099487304688 -1960.9399108886719C-161.80099487304688 -1987.9599304199219 -162.35000610351562 -2014.6399841308594 -163.45899963378906 -2040.8899841308594C-174.0330047607422 -2291.100067138672 -213.62399291992188 -2502.479949951172 -292.65301513671875 -2730.459930419922C-460.5880126953125 -3214.969940185547 -573.4199829101562 -3680.040008544922 -638.5570068359375 -4156.290008544922C-681.2620239257812 -4468.189910888672 -702.4739990234375 -4776.220184326172 -702.4739990234375 -5078.740203857422C-702.4739990234375 -6079.029754638672 -470.56201171875 -7019.049774169922 -16.901611328125 -7839.149871826172C-4.6305999755859375 -7861.370086669922 -1.52587890625e-05 -7870.399871826172 -1.52587890625e-05 -7872.180145263672C-1.52587890625e-05 -7877.580047607422 -4.01318359375 -7881.589813232422 -9.41552734375 -7881.589813232422C-14.432022094726562 -7881.589813232422 -16.052719116210938 -7879.740203857422 -25.699722290039062 -7862.379852294922C-167.70401000976562 -7607.999969482422 -288.17601013183594 -7356.870086669922 -398.0750274658203 -7086.680145263672L-462.0550079345703 -6922.680145263672C-654.1460113525391 -6410.609832763672 -782.0280303955078 -5882.959930419922 -841.2220001220703 -5359.089813232422C-842.9199981689453 -5343.810028076172 -844.8490142822266 -5327.290008544922 -845.4660186767578 -5322.430145263672C-852.0260162353516 -5271.029754638672 -864.7610015869141 -5122.080047607422 -870.1630401611328 -5032.629852294922C-877.9710235595703 -4903.509735107422 -881.8820343017578 -4775.259735107422 -881.8820343017578 -4647.779754638672C-881.8820343017578 -3967.560028076172 -770.5219879150391 -3309.310028076172 -545.6370391845703 -2657.139862060547C-457.4240264892578 -2401.300018310547 -410.26902770996094 -2177.959930419922 -392.05601501464844 -1928.9899597167969C-387.4800262451172 -1866.3199157714844 -385.21900939941406 -1804.0600280761719 -385.21900939941406 -1742.3299255371094C-385.21900939941406 -1034.6800231933594 -682.3310089111328 -396.8609313964844 -1194.770034790039 -23.270355224609375C-1203.760025024414 -16.71044921875 -1208.250015258789 -12.774459838867188 -1208.250015258789 -8.838424682617188C-1208.250015258789 -4.902435302734375 -1203.760025024414 -0.9664459228515625 -1194.770034790039 5.5935516357421875C-996.5780181884766 150.0680389404297 -823.1630401611328 342.23704528808594 -690.9589996337891 563.8100433349609C-488.41001892089844 903.3590545654297 -385.40000915527344 1306.3500213623047 -385.40000915527344 1726.3199920654297C-385.40000915527344 2020.3600311279297 -435.89402770996094 2322.720016479492 -538.0730133056641 2617.470016479492C-564.2360382080078 2692.949996948242 -587.4660186767578 2762.949996948242 -605.8339996337891 2821.600143432617C-790.5319976806641 3411.649948120117 -883.6150054931641 4023.080123901367 -883.6150054931641 4643.390182495117C-883.6150054931641 4783.299850463867 -878.8790435791016 4923.669967651367 -869.3910064697266 5064.350143432617C-863.7570343017578 5147.850143432617 -852.5670318603516 5274.419967651367 -847.0100250244141 5317.870162963867C-846.3930206298828 5322.730026245117 -844.0770416259766 5342.029830932617 -841.9940338134766 5360.700241088867C-745.5230255126953 6205.009811401367 -473.01402282714844 7050.250045776367 -48.92979431152344 7820.470260620117C-19.98870849609375 7873.100143432617 -16.747299194335938 7878.730026245117 -14.277603149414062 7880.200241088867Z" fill="black" /></g></svg>