<?xml version="1.0" encoding="utf-8" ?>
<svg baseProfile="tiny" height="100%" version="1.2" width="100%" xmlns="http://www.w3.org/2000/svg" xmlns:ev="http://www.w3.org/2001/xml-events" xmlns:xlink="http://www.w3.org/1999/xlink"><defs /><g transform="translate(0, 1000) scale(1, -1)"><path d="M-19.372299194335938 795.9869995117188C-18.557785034179688 796.2150268554688 -17.742691040039062 796.322998046875 -16.943588256835938 796.322998046875C-12.36688232421875 796.322998046875 -8.31671142578125 792.781005859375 -7.901123046875 787.8889770507812C-7.87628173828125 787.5960083007812 -7.861724853515625 787.3209838867188 -7.861724853515625 787.052001953125C-7.861724853515625 785.156982421875 -8.581558227539062 783.5570068359375 -11.495590209960938 778.2150268554688C-46.51068115234375 714.260009765625 -64.21788024902344 639.6820068359375 -64.21788024902344 556.572998046875C-64.21788024902344 542.2550048828125 -63.69227600097656 527.6829833984375 -62.63899230957031 512.8679809570312C-57.60227966308594 442.39898681640625 -40.42878723144531 363.5199890136719 -12.893386840820312 284.4419860839844C-4.264678955078125 259.6390075683594 -0.04791259765625 235.53599548339844 -0.04791259765625 210.61399841308594C-0.04791259765625 206.4409942626953 -0.166107177734375 202.24600219726562 -0.4015655517578125 198.02000427246094C-4.484161376953125 124.66600036621094 -43.557281494140625 58.923095703125 -117.06599426269531 1.7889556884765625C-118.86299133300781 0.39111328125 -120.32798767089844 -0.8292388916015625 -120.32798767089844 -0.8957977294921875C-120.32798767089844 -0.9623565673828125 -118.86299133300781 -2.1826934814453125 -117.06599426269531 -3.5805511474609375C-48.394287109375 -56.96490478515625 -10.164291381835938 -117.18299865722656 -1.6440887451171875 -185.38900756835938C-0.5476226806640625 -194.1840057373047 1.52587890625e-05 -203.01199340820312 1.52587890625e-05 -211.85400390625C1.52587890625e-05 -236.65199279785156 -4.3066864013671875 -261.5690002441406 -12.893386840820312 -286.2340087890625C-46.376190185546875 -382.42999267578125 -64.17318725585938 -477.53900146484375 -64.17318725585938 -558.2520141601562C-64.17318725585938 -571.8880004882812 -63.66517639160156 -585.114013671875 -62.63899230957031 -597.864990234375L-62.1951904296875 -603.9660034179688C-58.223602294921875 -662.5650024414062 -38.94219970703125 -728.4860229492188 -10.963104248046875 -779.2080078125C-8.540603637695312 -783.6069946289062 -7.861602783203125 -785.2130126953125 -7.861602783203125 -787.072021484375C-7.861602783203125 -787.3410034179688 -7.8758544921875 -787.6160278320312 -7.9011383056640625 -787.905029296875C-8.340606689453125 -793.0759887695312 -12.610107421875 -796.322998046875 -17.031494140625 -796.322998046875C-19.306900024414062 -796.322998046875 -21.622604370117188 -795.4630126953125 -23.477096557617188 -793.56298828125C-24.697494506835938 -792.2979736328125 -33.26210021972656 -776.8330078125 -41.89320373535156 -760.281005859375C-84.29449462890625 -678.9180297851562 -112.96099853515625 -596.843994140625 -124.96499633789062 -522.3140258789062C-130.18499755859375 -489.9020080566406 -132.81700134277344 -458.6449890136719 -132.81700134277344 -427.9779968261719C-132.81700134277344 -369.6130065917969 -123.28298950195312 -313.385009765625 -103.90899658203125 -255.39199829101562C-90.48500061035156 -215.25399780273438 -85.15989685058594 -190.84800720214844 -82.45291137695312 -157.3209991455078C-82.18569946289062 -153.9929962158203 -82.0447998046875 -146.2239990234375 -82.0447998046875 -138.9669952392578C-82.0447998046875 -132.9669952392578 -82.14109802246094 -127.31600952148438 -82.34201049804688 -124.81600952148438C-86.468994140625 -73.53939819335938 -105.28399658203125 -35.53129577636719 -139.3209991455078 -9.72662353515625C-143.8470001220703 -6.2874908447265625 -144.80099487304688 -4.7343292236328125 -144.80099487304688 -0.8957977294921875C-144.80099487304688 2.9427337646484375 -143.8470001220703 4.4958953857421875 -139.3209991455078 7.9350433349609375C-105.28399658203125 33.73970031738281 -86.468994140625 71.747802734375 -82.34201049804688 123.02400207519531C-82.14109802246094 125.52499389648438 -82.0447998046875 131.1750030517578 -82.0447998046875 137.1750030517578C-82.0447998046875 144.43299865722656 -82.18569946289062 152.20199584960938 -82.45291137695312 155.52999877929688C-85.15989685058594 188.9669952392578 -90.5072021484375 213.5290069580078 -103.79800415039062 253.26800537109375C-123.35699462890625 311.7569885253906 -132.98800659179688 368.47601318359375 -132.98800659179688 427.2229919433594C-132.98800659179688 459.1130065917969 -130.14999389648438 491.6000061035156 -124.52099609375 525.2930297851562C-120.06199645996094 552.0079956054688 -110.16600036621094 593.0999755859375 -103.57598876953125 612.27001953125L-100.66899108886719 621.2570190429688C-84.40548706054688 672.6220092773438 -59.42167663574219 729.2899780273438 -28.180984497070312 785.7589721679688C-23.588088989257812 794.0570068359375 -22.744888305664062 795.0330200195312 -19.372283935546875 795.9869995117188Z" fill="black" /></g></svg>