<?xml version="1.0" encoding="utf-8" ?>
<svg baseProfile="tiny" height="100%" version="1.2" width="100%" xmlns="http://www.w3.org/2000/svg" xmlns:ev="http://www.w3.org/2001/xml-events" xmlns:xlink="http://www.w3.org/1999/xlink"><defs /><g transform="translate(0, 1000) scale(1, -1)"><path d="M-12.774002075195312 295.8190002441406C-12.41162109375 295.8599853515625 -12.0526123046875 295.8800048828125 -11.698318481445312 295.8800048828125C-6.69342041015625 295.8800048828125 -2.61041259765625 291.8609924316406 -2.61041259765625 286.9100036621094C-2.61041259765625 286.5979919433594 -2.62664794921875 286.2820129394531 -2.6599273681640625 285.9630126953125C-2.8297119140625 284.3219909667969 -3.12884521484375 283.5459899902344 -4.60028076171875 280.8699951171875C-13.954421997070312 263.9079895019531 -19.7108154296875 243.9709930419922 -21.546112060546875 222.21400451660156C-21.945114135742188 217.4759979248047 -22.142913818359375 212.5399932861328 -22.142913818359375 207.43800354003906C-22.142913818359375 185.35400390625 -18.438018798828125 160.15699768066406 -11.318817138671875 134.3730010986328C-8.65887451171875 124.73599243164062 -6.2819366455078125 117.05499267578125 -2.942901611328125 107.27200317382812C-1.4148712158203125 102.78500366210938 -1.107635498046875 101.8070068359375 -0.4123382568359375 99.11470031738281L-1.52587890625e-05 97.52999877929688V77.62519836425781V57.72029113769531L-0.493194580078125 55.84458923339844C-5.6917572021484375 35.923583984375 -18.021133422851562 18.072189331054688 -38.225128173828125 1.223419189453125C-39.21153259277344 0.3987579345703125 -40.02003479003906 -0.296539306640625 -40.02003479003906 -0.3207855224609375C-40.02003479003906 -0.3450469970703125 -39.21153259277344 -1.04034423828125 -38.21702575683594 -1.864990234375C-18.021133422851562 -18.713821411132812 -5.6917572021484375 -36.56510925292969 -0.4932098388671875 -56.48622131347656L-3.0517578125e-05 -58.36183166503906V-78.26673889160156V-98.17164611816406L-0.412353515625 -99.75624084472656C-1.1076507568359375 -102.44804382324219 -1.414886474609375 -103.43504333496094 -2.9429168701171875 -107.91404724121094C-15.694931030273438 -145.2360382080078 -22.068832397460938 -178.2930450439453 -22.068832397460938 -207.47305297851562C-22.068832397460938 -235.36705017089844 -16.244735717773438 -259.71705627441406 -4.6002960205078125 -280.8650360107422C-3.1134796142578125 -283.5640411376953 -2.597564697265625 -284.9590606689453 -2.597564697265625 -286.6410369873047C-2.597564697265625 -286.9890594482422 -2.6197052001953125 -287.3500518798828 -2.659942626953125 -287.73704528808594C-3.1810150146484375 -292.6840362548828 -7.3480987548828125 -295.8800506591797 -11.708831787109375 -295.8800506591797C-13.640533447265625 -295.8800506591797 -15.610137939453125 -295.25303649902344 -17.317733764648438 -293.87303161621094C-18.8458251953125 -292.64405822753906 -19.621932983398438 -291.3750457763672 -24.6749267578125 -281.8750457763672C-49.398223876953125 -235.39004516601562 -61.405029296875 -193.85504150390625 -61.405029296875 -153.78504943847656C-61.405029296875 -142.11004638671875 -60.38572692871094 -130.55905151367188 -58.364532470703125 -119.04704284667969C-56.75563049316406 -109.85404968261719 -54.05523681640625 -99.52183532714844 -50.86982727050781 -90.30503845214844C-50.004730224609375 -87.7906494140625 -49.02653503417969 -84.79934692382812 -48.234130859375 -82.22024536132812C-44.43023681640625 -69.82154846191406 -42.464935302734375 -57.9344482421875 -42.464935302734375 -47.61015319824219C-42.464935302734375 -44.571044921875 -42.635223388671875 -41.66734313964844 -42.979034423828125 -38.92594909667969C-44.563629150390625 -26.297439575195312 -50.16642761230469 -15.657745361328125 -58.89002990722656 -8.737136840820312L-60.78993225097656 -7.22528076171875C-62.91221618652344 -5.5274658203125 -63.97331237792969 -2.924163818359375 -63.97331237792969 -0.320831298828125C-63.97331237792969 2.2824859619140625 -62.91221618652344 4.88580322265625 -60.7899169921875 6.5836181640625L-58.8900146484375 8.095474243164062C-50.16639709472656 15.016128540039062 -44.5635986328125 25.655715942382812 -42.97900390625 38.28422546386719C-42.63169860839844 41.06611633300781 -42.45880126953125 44.04081726074219 -42.45880126953125 47.13581848144531C-42.45880126953125 52.25312805175781 -42.931304931640625 57.699127197265625 -43.86830139160156 63.14512634277344C-45.347900390625 71.81211853027344 -47.47419738769531 79.83222961425781 -50.86979675292969 89.66342163085938C-57.92340087890625 110.05693054199219 -61.4569091796875 131.3729248046875 -61.4569091796875 153.25791931152344C-61.4569091796875 169.65292358398438 -59.4739990234375 186.367919921875 -55.50239562988281 203.2549285888672C-49.1719970703125 230.169921875 -37.50559997558594 258.96791076660156 -20.63250732421875 289.3189239501953C-19.330795288085938 291.65492248535156 -19.128692626953125 291.9949188232422 -18.473907470703125 292.7709197998047C-17.164093017578125 294.3389129638672 -14.843795776367188 295.57591247558594 -12.774002075195312 295.8189239501953Z" fill="black" /></g></svg>