<?xml version="1.0" encoding="utf-8" ?>
<svg baseProfile="tiny" height="100%" version="1.2" width="100%" xmlns="http://www.w3.org/2000/svg" xmlns:ev="http://www.w3.org/2001/xml-events" xmlns:xlink="http://www.w3.org/1999/xlink"><defs /><g transform="translate(0, 1000) scale(1, -1)"><path d="M-13.107406616210938 9492.48046875C-12.222518920898438 9492.8603515625 -11.143417358398438 9493.0302734375 -10.000213623046875 9493.0302734375C-7.2757720947265625 9493.0302734375 -4.187957763671875 9492.0302734375 -2.500823974609375 9490.33984375C-0.9281463623046875 9488.76953125 -1.52587890625e-05 9487.3798828125 -1.52587890625e-05 9485.2802734375C-1.52587890625e-05 9481.2099609375 -3.4824981689453125 9474.4501953125 -12.508712768554688 9458.4296875C-409.74400329589844 8751.8095703125 -677.8180084228516 7930.740234375 -792.2660064697266 7069.97998046875C-835.0919952392578 6747.9501953125 -856.3159942626953 6418.4599609375 -856.3159942626953 6084.93994140625C-856.3159942626953 5166.740234375 -695.4560089111328 4217.97021484375 -381.6020050048828 3310.360107421875C-337.20802307128906 3181.8798828125 -320.3570098876953 3127.56005859375 -296.74900817871094 3036.469970703125C-236.56201171875 2804.10009765625 -207.32701110839844 2568.97998046875 -207.32701110839844 2335.85009765625C-207.32701110839844 1445.43994140625 -633.7819976806641 583.97998046875 -1391.1100006103516 15.0328369140625C-1409.4200592041016 1.2613525390625 -1424.469985961914 -10.37176513671875 -1424.469985961914 -10.79937744140625C-1424.469985961914 -11.227066040039062 -1409.4200592041016 -22.86016845703125 -1391.1100006103516 -36.63166809082031C-639.0860137939453 -601.5839385986328 -207.1540069580078 -1462.3199005126953 -207.1540069580078 -2355.919876098633C-207.1540069580078 -2487.459915161133 -216.51400756835938 -2619.709915161133 -235.58999633789062 -2751.840042114258C-263.2179870605469 -2942.929885864258 -302.4800109863281 -3102.969924926758 -369.45599365234375 -3296.370071411133C-648.47802734375 -4102.990188598633 -807.4920043945312 -4909.859817504883 -845.385009765625 -5711.430130004883C-851.3720092773438 -5838.240188598633 -854.3590087890625 -5964.299758911133 -854.3590087890625 -6089.539993286133C-854.3590087890625 -7157.810012817383 -637.0499877929688 -8166.789993286133 -210.5269775390625 -9073.049758911133C-149.70999145507812 -9202.120071411133 -73.06907653808594 -9351.299758911133 -10.455780029296875 -9462.330032348633C-1.6454315185546875 -9477.980422973633 -0.36236572265625 -9480.719680786133 -0.276824951171875 -9484.219680786133C-0.2768096923828125 -9490.039993286133 -3.3561553955078125 -9493.030227661133 -9.258224487304688 -9493.030227661133C-15.07476806640625 -9493.030227661133 -15.502471923828125 -9492.519485473633 -30.04376220703125 -9466.519485473633C-652.3269653320312 -8349.740188598633 -999.6089477539062 -7125.529739379883 -1044.2599487304688 -5891.910110473633C-1047.4398803710938 -5803.779739379883 -1049.0299682617188 -5715.560012817383 -1049.0299682617188 -5627.330032348633C-1049.0299682617188 -4812.240188598633 -913.6609497070312 -3996.199905395508 -651.471923828125 -3237.269973754883C-573.9749145507812 -3013.070022583008 -536.2529296875 -2873.899856567383 -501.43994140625 -2683.409866333008C-466.95294189453125 -2494.729934692383 -449.751953125 -2304.689895629883 -449.751953125 -2116.629837036133C-449.751953125 -1876.0299835205078 -477.9049377441406 -1638.6599884033203 -534.0289306640625 -1411.4699249267578C-673.283935546875 -848.2089385986328 -985.2389526367188 -363.89695739746094 -1416.3499145507812 -41.59284973144531L-1443.7199096679688 -21.14935302734375C-1448.9398803710938 -17.214645385742188 -1451.5399780273438 -14.007034301757812 -1451.5399780273438 -10.799346923828125C-1451.5399780273438 -7.59173583984375 -1448.9398803710938 -4.3840789794921875 -1443.7199096679688 -0.449371337890625L-1416.3499145507812 19.994064331054688C-864.7159423828125 432.3690643310547 -518.2049560546875 1097.5100555419922 -458.7569274902344 1858.1899871826172C-452.7229309082031 1935.5100555419922 -449.721923828125 2013.5300750732422 -449.721923828125 2091.970016479492C-449.721923828125 2401.639938354492 -496.48193359375 2717.850143432617 -588.0029296875 3022.780075073242C-603.9989624023438 3075.980026245117 -619.908935546875 3124.399948120117 -651.471923828125 3215.669967651367C-915.178955078125 3979.310104370117 -1051.1499633789062 4799.160202026367 -1051.1499633789062 5617.480026245117C-1051.1499633789062 5739.060104370117 -1048.1499633789062 5860.609909057617 -1042.1199340820312 5981.939987182617C-1035.9598999023438 6105.890182495117 -1022.7899169921875 6285.430221557617 -1015.5999145507812 6344.189987182617C-1014.919921875 6349.839889526367 -1012.949951171875 6367.970260620117 -1011.3299560546875 6384.390182495117C-905.1759643554688 7436.930221557617 -571.4949340820312 8489.980514526367 -41.16363525390625 9446.200241088867C-17.127639770507812 9489.400436401367 -16.10113525390625 9491.190475463867 -13.107345581054688 9492.480514526367Z" fill="black" /></g></svg>