<?xml version="1.0" encoding="utf-8" ?>
<svg baseProfile="tiny" height="100%" version="1.2" width="100%" xmlns="http://www.w3.org/2000/svg" xmlns:ev="http://www.w3.org/2001/xml-events" xmlns:xlink="http://www.w3.org/1999/xlink"><defs /><g transform="translate(0, 1000) scale(1, -1)"><path d="M-13.078201293945312 4420.77978515625C-11.851119995117188 4421.35986328125 -10.58441162109375 4421.6298828125 -9.346328735351562 4421.6298828125C-4.5615997314453125 4421.6298828125 -0.203338623046875 4417.66015625 -0.203338623046875 4412.35986328125C-0.2618560791015625 4409.14013671875 -0.6129913330078125 4408.31982421875 -10.503219604492188 4390.580078125C-255.3590087890625 3951.64990234375 -380.43101501464844 3435.320068359375 -380.43101501464844 2884.6298828125C-380.43101501464844 2622.97998046875 -352.1940155029297 2353.56005859375 -295.1540069580078 2081.010009765625C-255.2420196533203 1890.2900390625 -208.83401489257812 1724.260009765625 -138.90101623535156 1522.1300048828125C-93.28620910644531 1390.1300048828125 -69.94660949707031 1248.43994140625 -69.94660949707031 1106.6099853515625C-69.94660949707031 1056.6500244140625 -72.84260559082031 1006.6699829101562 -78.68141174316406 957.0980224609375C-121.92901611328125 589.697021484375 -326.0540008544922 246.75799560546875 -644.5310211181641 6.5248565673828125C-652.5479888916016 0.438568115234375 -659.1610260009766 -4.7698974609375 -659.1610260009766 -5.0039825439453125C-659.1610260009766 -5.2380828857421875 -652.5479888916016 -10.446517944335938 -644.5310211181641 -16.532821655273438C-326.0540008544922 -256.76600646972656 -121.87101745605469 -599.7050323486328 -78.68141174316406 -967.1060333251953C-72.84260559082031 -1016.6800079345703 -69.94660949707031 -1066.689956665039 -69.94660949707031 -1116.689956665039C-69.94660949707031 -1258.6300201416016 -93.28620910644531 -1400.490005493164 -138.90101623535156 -1532.1400299072266C-197.54000854492188 -1701.3800201416016 -238.5640106201172 -1842.3600006103516 -274.67201232910156 -1998.6700592041016C-344.8200225830078 -2302.229995727539 -379.6010284423828 -2601.300064086914 -379.6010284423828 -2890.580093383789C-379.6010284423828 -3437.530044555664 -255.2670135498047 -3949.500015258789 -10.561721801757812 -4390.640151977539C-4.533966064453125 -4401.589859008789 -0.2618560791015625 -4409.959976196289 -0.0862884521484375 -4411.189956665039C-0.028076171875 -4411.609878540039 -1.52587890625e-05 -4412.029800415039 -1.52587890625e-05 -4412.439956665039C-1.52587890625e-05 -4417.729995727539 -4.662353515625 -4421.629898071289 -9.469558715820312 -4421.629898071289C-11.41131591796875 -4421.629898071289 -13.376617431640625 -4420.990249633789 -15.067916870117188 -4419.549819946289C-17.759918212890625 -4417.270034790039 -50.70780944824219 -4357.399917602539 -78.27171325683594 -4304.620132446289C-335.3000030517578 -3812.679946899414 -485.70201110839844 -3280.889907836914 -514.3189849853516 -2763.149917602539C-517.9910430908203 -2696.610122680664 -519.8369903564453 -2630.810073852539 -519.8369903564453 -2565.590103149414C-519.8369903564453 -2188.969985961914 -458.2630157470703 -1831.6500396728516 -330.91102600097656 -1463.6700592041016C-296.50001525878906 -1364.240005493164 -270.5750274658203 -1255.209976196289 -256.58802795410156 -1150.5699615478516C-247.45701599121094 -1082.469985961914 -242.97201538085938 -1015.2600250244141 -242.97201538085938 -949.4050445556641C-242.97201538085938 -564.8990020751953 -395.83302307128906 -226.2100372314453 -669.2860260009766 -21.507232666015625C-684.5009918212891 -10.1539306640625 -684.9110260009766 -9.685775756835938 -684.9110260009766 -5.0040130615234375C-684.9110260009766 -0.322265625 -684.5009918212891 0.1459197998046875 -669.2860260009766 11.499160766601562C-395.83302307128906 216.2019500732422 -242.97201538085938 554.8909454345703 -242.97201538085938 939.3969268798828C-242.97201538085938 1005.2599639892578 -247.45701599121094 1072.4599151611328 -256.58802795410156 1140.5600128173828C-270.5750274658203 1245.1999053955078 -296.5590057373047 1354.5799102783203 -330.91102600097656 1453.6599884033203C-449.8870086669922 1796.9499053955078 -507.7060089111328 2109.279983520508 -519.6450347900391 2472.529983520508C-520.4190216064453 2496.370071411133 -520.7930450439453 2523.899856567383 -520.7930450439453 2553.209915161133C-520.7930450439453 2616.909866333008 -519.0290069580078 2689.050003051758 -515.7819976806641 2750.209915161133C-485.93601989746094 3307.519973754883 -319.1480255126953 3871.729934692383 -29.464309692382812 4395.330032348633C-16.823623657226562 4418.149856567383 -15.945709228515625 4419.490188598633 -13.078216552734375 4420.779739379883Z" fill="black" /></g></svg>