<?xml version="1.0" encoding="utf-8" ?>
<svg baseProfile="tiny" height="100%" version="1.2" width="100%" xmlns="http://www.w3.org/2000/svg" xmlns:ev="http://www.w3.org/2001/xml-events" xmlns:xlink="http://www.w3.org/1999/xlink"><defs /><g transform="translate(0, 1000) scale(1, -1)"><path d="M-13.474899291992188 299.6709899902344C-12.867584228515625 299.7850036621094 -12.273391723632812 299.8399963378906 -11.69598388671875 299.8399963378906C-6.6111297607421875 299.8399963378906 -2.82281494140625 295.6130065917969 -2.82281494140625 290.7749938964844C-2.82281494140625 289.2279968261719 -3.209869384765625 287.6189880371094 -4.065399169921875 286.06500244140625C-16.3831787109375 263.739013671875 -22.5059814453125 238.875 -22.5059814453125 210.28399658203125C-22.5059814453125 189.677001953125 -19.32537841796875 167.13400268554688 -12.991287231445312 142.2100067138672C-10.212692260742188 131.25999450683594 -7.065277099609375 120.92401123046875 -2.0244903564453125 106.15399169921875C-1.3605804443359375 104.21200561523438 -0.9671630859375 102.88400268554688 -0.37701416015625 100.61300659179688L1.52587890625e-05 99.16250610351562V78.76171875V58.35272216796875L-0.4098052978515625 56.76261901855469C-5.6882781982421875 36.51751708984375 -18.204177856445312 18.452713012695312 -38.87548828125 1.2566680908203125C-39.89997863769531 0.4042510986328125 -40.736083984375 -0.325225830078125 -40.736083984375 -0.3580169677734375C-40.736083984375 -0.39080810546875 -39.89997863769531 -1.120269775390625 -38.867279052734375 -1.9727020263671875C-18.204177856445312 -19.168685913085938 -5.6882781982421875 -37.23358154296875 -0.4098052978515625 -57.47868347167969L1.52587890625e-05 -59.06878662109375V-79.477783203125V-99.87858581542969L-0.37701416015625 -101.32899475097656C-1.1392669677734375 -104.27198791503906 -1.3687744140625 -105.00099182128906 -3.0162353515625 -109.77998352050781C-15.950775146484375 -147.32398986816406 -22.416961669921875 -180.5819854736328 -22.416961669921875 -210.10098266601562C-22.416961669921875 -238.77598571777344 -16.315475463867188 -263.92298889160156 -4.11456298828125 -286.04298400878906C-3.222381591796875 -287.66099548339844 -2.8115081787109375 -289.33897399902344 -2.8115081787109375 -290.9449920654297C-2.8115081787109375 -295.5919952392578 -6.2555694580078125 -299.6279754638672 -11.433975219726562 -299.82997131347656C-11.606674194335938 -299.8359832763672 -11.776763916015625 -299.83998107910156 -11.944076538085938 -299.83998107910156C-15.658767700195312 -299.83998107910156 -18.06317138671875 -298.16798400878906 -20.392562866210938 -294.0349884033203C-45.678466796875 -249.06898498535156 -59.76806640625 -206.27598571777344 -61.923675537109375 -167.89198303222656C-62.22697448730469 -162.4089813232422 -62.25157165527344 -161.49098205566406 -62.25157165527344 -155.47499084472656C-62.243377685546875 -133.6069793701172 -58.94017028808594 -113.13998413085938 -52.20277404785156 -93.22308349609375C-46.416168212890625 -76.13368225097656 -44.2276611328125 -66.54388427734375 -43.17857360839844 -53.67549133300781C-43.10026550292969 -52.73258972167969 -43.06266784667969 -50.73368835449219 -43.06266784667969 -48.64848327636719C-43.06266784667969 -46.14808654785156 -43.11676025390625 -43.523590087890625 -43.219573974609375 -42.44648742675781C-44.65386962890625 -27.037277221679688 -50.36676025390625 -15.742691040039062 -60.67787170410156 -7.964263916015625C-63.448272705078125 -5.8741912841796875 -64.8333740234375 -3.1161041259765625 -64.8333740234375 -0.3580169677734375C-64.8333740234375 2.4000701904296875 -63.448272705078125 5.1581573486328125 -60.67787170410156 7.24822998046875C-50.36676025390625 15.026611328125 -44.65386962890625 26.321212768554688 -43.219573974609375 41.73042297363281C-43.11676025390625 42.80751037597656 -43.06266784667969 45.43202209472656 -43.06266784667969 47.93241882324219C-43.06266784667969 50.01762390136719 -43.10026550292969 52.016510009765625 -43.17857360839844 52.95951843261719C-44.186676025390625 65.31141662597656 -46.653778076171875 76.36842346191406 -51.6126708984375 90.72840881347656C-58.77757263183594 111.49501037597656 -62.358673095703125 132.99002075195312 -62.358673095703125 155.07801818847656C-62.358673095703125 178.49700927734375 -58.33287048339844 202.58201599121094 -50.28477478027344 227.17401123046875C-43.32606506347656 248.44300842285156 -32.908477783203125 271.71302795410156 -20.392562866210938 293.97401428222656C-18.351669311523438 297.5970001220703 -16.540267944335938 299.08900451660156 -13.474868774414062 299.67100524902344Z" fill="black" /></g></svg>