<?xml version="1.0" encoding="utf-8" ?>
<svg baseProfile="tiny" height="100%" version="1.2" width="100%" xmlns="http://www.w3.org/2000/svg" xmlns:ev="http://www.w3.org/2001/xml-events" xmlns:xlink="http://www.w3.org/1999/xlink"><defs /><g transform="translate(0, 1000) scale(1, -1)"><path d="M-13.574493408203125 5289.72021484375C-12.324600219726562 5290.35009765625 -10.959304809570312 5290.64013671875 -9.591827392578125 5290.64013671875C-6.0223846435546875 5290.64013671875 -2.438018798828125 5288.64013671875 -0.8520965576171875 5285.330078125C-0.336395263671875 5284.240234375 -0.0105743408203125 5283.2900390625 -0.0105743408203125 5282.14013671875C-0.0105743408203125 5278.9501953125 -2.505950927734375 5274.14990234375 -10.378204345703125 5260.009765625C-309.9209899902344 4723.39013671875 -461.114990234375 4095.7099609375 -461.114990234375 3432.56005859375C-461.114990234375 2916.639892578125 -369.6000061035156 2379.25 -185.23300170898438 1846.5799560546875C-167.9980010986328 1796.699951171875 -161.6060028076172 1776.949951171875 -152.3300018310547 1744.4300537109375C-112.09100341796875 1603.8399658203125 -92.31680297851562 1460.9000244140625 -92.31680297851562 1318.7900390625C-92.31680297851562 957.5850219726562 -220.07000732421875 601.7659912109375 -464.2489929199219 303.6600036621094C-556.5020141601562 190.9759979248047 -670.5029907226562 82.61579895019531 -784.3779907226562 -0.67535400390625C-787.8870239257812 -3.244903564453125 -790.77001953125 -5.5010986328125 -790.77001953125 -5.689117431640625C-790.77001953125 -5.87713623046875 -787.8870239257812 -8.133331298828125 -784.3779907226562 -10.702896118164062C-764.510986328125 -25.2427978515625 -728.9130249023438 -53.06919860839844 -706.8519897460938 -71.43209838867188C-310.43701171875 -400.2929992675781 -92.35369873046875 -858.5880126953125 -92.35369873046875 -1330.4100341796875C-92.35369873046875 -1459.1400146484375 -108.58799743652344 -1588.8699951171875 -141.86399841308594 -1717.260009765625C-153.58399963378906 -1762.510009765625 -163.11000061035156 -1793.719970703125 -179.906005859375 -1842.2900390625C-366.8800048828125 -2381.659912109375 -459.7959899902344 -2912.5 -459.7959899902344 -3441.64990234375C-459.7959899902344 -3449.389892578125 -459.7760009765625 -3457.1298828125 -459.73699951171875 -3464.8701171875C-459.3609924316406 -3530.050048828125 -459.0469970703125 -3547.719970703125 -457.4179992675781 -3594.2900390625C-435.8590087890625 -4200.14013671875 -280.8710021972656 -4777.41015625 -10.315582275390625 -5259.47998046875C-3.24530029296875 -5272.1298828125 1.52587890625e-05 -5278.77978515625 1.52587890625e-05 -5282.8798828125C1.52587890625e-05 -5285.97998046875 -1.850433349609375 -5287.60986328125 -5.301788330078125 -5289.25C-7.0620269775390625 -5290.080078125 -8.487960815429688 -5290.64013671875 -9.842178344726562 -5290.64013671875C-14.32208251953125 -5290.64013671875 -18.01708984375 -5284.56005859375 -30.43328857421875 -5262.18017578125C-211.2419891357422 -4936.16015625 -351.9409942626953 -4594.91015625 -450.1479949951172 -4244.2001953125C-557.6459808349609 -3860.1298828125 -611.3769989013672 -3473.330078125 -611.3769989013672 -3090.830078125C-611.3769989013672 -2693.5 -553.4000091552734 -2300.81005859375 -437.4879913330078 -1920.6300048828125C-423.8259735107422 -1875.8800048828125 -419.8149871826172 -1863.5999755859375 -380.2059783935547 -1746.0899658203125C-312.3059844970703 -1544.6600341796875 -279.4469757080078 -1342.1800537109375 -279.4469757080078 -1147.68994140625C-279.4469757080078 -690.3690185546875 -461.13697814941406 -277.2080078125 -796.1599578857422 -25.556106567382812C-815.0239715576172 -11.392303466796875 -816.5279998779297 -9.9508056640625 -816.5279998779297 -5.689117431640625C-816.5279998779297 -1.4274139404296875 -815.0239715576172 0.0140380859375 -796.1599578857422 14.177902221679688C-463.3369903564453 264.18499755859375 -279.5129852294922 675.6539916992188 -279.5129852294922 1136.06005859375C-279.5129852294922 1266.9200439453125 -294.36399841308594 1401.739990234375 -324.86598205566406 1537.9200439453125C-336.4609832763672 1589.68994140625 -347.11497497558594 1629.6700439453125 -364.22398376464844 1685.8299560546875C-368.42298889160156 1699.6800537109375 -372.6849822998047 1712.530029296875 -404.27198791503906 1806.1600341796875C-542.4429779052734 2215.800048828125 -612.4579925537109 2648.469970703125 -612.4579925537109 3086.780029296875C-612.4579925537109 3229.199951171875 -605.0670013427734 3372.2099609375 -590.2199554443359 3515.219970703125C-586.5850067138672 3550.3798828125 -578.0609588623047 3623.02001953125 -576.8079681396484 3629.2900390625C-576.6199798583984 3630.169921875 -575.4919891357422 3638.31005859375 -574.3010101318359 3647.4599609375C-504.60997009277344 4169.02001953125 -330.19398498535156 4702.5498046875 -69.91670227050781 5190.1298828125C-31.937408447265625 5261.330078125 -16.770797729492188 5288.08984375 -13.574493408203125 5289.72021484375Z" fill="black" /></g></svg>