<?xml version="1.0" encoding="utf-8" ?>
<svg baseProfile="tiny" height="100%" version="1.2" width="100%" xmlns="http://www.w3.org/2000/svg" xmlns:ev="http://www.w3.org/2001/xml-events" xmlns:xlink="http://www.w3.org/1999/xlink"><defs /><g transform="translate(0, 1000) scale(1, -1)"><path d="M-13.659393310546875 8039.31005859375C-12.264495849609375 8039.990234375 -10.819503784179688 8040.2998046875 -9.41448974609375 8040.2998046875C-4.457977294921875 8040.2998046875 0.0 8036.43994140625 0.0 8031.3798828125C0.0 8030.91015625 -0.038116455078125 8030.43017578125 -0.11749267578125 8029.93994140625C-0.3536834716796875 8028.52978515625 -5.62872314453125 8018.2099609375 -11.92730712890625 8007.02978515625C-458.10101318359375 7205.93994140625 -698.469970703125 6283.91015625 -717.916015625 5299.43994140625C-718.7860107421875 5255.240234375 -719.219970703125 5211.02978515625 -719.219970703125 5166.7900390625C-719.219970703125 4373.669921875 -579.5250244140625 3573.610107421875 -300.4010009765625 2768.60009765625C-210.93499755859375 2510.550048828125 -166.927001953125 2252.860107421875 -166.927001953125 1986.27001953125C-166.927001953125 1978.8399658203125 -166.96099853515625 1971.4100341796875 -167.0290069580078 1963.9599609375C-167.5019989013672 1914.280029296875 -167.89500427246094 1901.2900390625 -170.33599853515625 1854.9200439453125C-208.44200134277344 1135.3900146484375 -585.0170135498047 450.7359619140625 -1188.4200286865234 4.24755859375C-1197.939926147461 -2.75958251953125 -1205.6600189208984 -8.743209838867188 -1205.6600189208984 -9.058135986328125C-1205.6600189208984 -9.373077392578125 -1197.939926147461 -15.356735229492188 -1188.4200286865234 -22.36383056640625C-727.5219573974609 -363.4310302734375 -390.5489959716797 -853.0640563964844 -247.57199096679688 -1389.2300109863281C-200.8839874267578 -1564.4900207519531 -177.1859893798828 -1721.3199768066406 -168.36798095703125 -1913.5799865722656C-167.1619873046875 -1939.5200500488281 -166.5769805908203 -1967.1300354003906 -166.5769805908203 -1995.7900695800781C-166.5769805908203 -2103.810089111328 -174.89498901367188 -2226.679962158203 -189.7039794921875 -2330.470001220703C-214.11097717285156 -2501.320098876953 -246.94198608398438 -2633.110137939453 -310.8719940185547 -2817.030059814453C-534.7859954833984 -3461.060089111328 -671.4650115966797 -4149.020050048828 -707.6810150146484 -4814.069854736328C-714.2629852294922 -4935.100128173828 -717.5380096435547 -5055.529815673828 -717.5380096435547 -5175.230010986328C-717.5380096435547 -6205.350128173828 -474.9609832763672 -7180.799835205078 -9.565292358398438 -8011.290069580078C-2.5128326416015625 -8023.799835205078 -0.14410400390625 -8028.470245361328 -0.14410400390625 -8031.730010986328C-0.14410400390625 -8032.980010986328 -0.4939422607421875 -8034.020050048828 -1.0622406005859375 -8035.230010986328C-2.629974365234375 -8038.540069580078 -6.29327392578125 -8040.299835205078 -9.827224731445312 -8040.299835205078C-12.682464599609375 -8040.299835205078 -15.453170776367188 -8039.149932861328 -16.966064453125 -8036.720245361328C-21.689971923828125 -8029.089874267578 -67.984375 -7944.919952392578 -88.61216735839844 -7906.259796142578C-504.0019989013672 -7129.730010986328 -765.3129730224609 -6295.569854736328 -859.6339569091797 -5445.500030517578L-864.7509613037109 -5399.830108642578C-878.7659759521484 -5279.919952392578 -891.5200042724609 -5080.419952392578 -896.7949676513672 -4898.700225830078C-897.4739837646484 -4874.990264892578 -897.8289642333984 -4809.049835205078 -897.8289642333984 -4743.890167236328C-897.8289642333984 -4680.569854736328 -897.4940032958984 -4617.980010986328 -896.7949676513672 -4595.589874267578C-888.8430023193359 -4328.370147705078 -870.8929901123047 -4111.390167236328 -837.1169891357422 -3874.800079345703C-778.9340057373047 -3466.330108642578 -687.9979705810547 -3093.850128173828 -547.6979827880859 -2689.490020751953C-443.49098205566406 -2389.250030517578 -391.9559783935547 -2080.679962158203 -391.9559783935547 -1780.4399719238281C-391.9559783935547 -1362.9599914550781 -491.6019744873047 -961.6060485839844 -687.8409881591797 -621.1990051269531C-824.1259613037109 -384.9240417480469 -1006.7100067138672 -178.56802368164062 -1213.300033569336 -27.638931274414062C-1225.8899993896484 -18.427230834960938 -1232.189926147461 -13.74273681640625 -1232.189926147461 -9.058151245117188C-1232.189926147461 -4.37359619140625 -1225.8899993896484 0.310943603515625 -1213.300033569336 9.5225830078125C-816.0159759521484 299.8069763183594 -535.6519622802734 762.5149841308594 -435.2689971923828 1293.5600280761719C-405.9919891357422 1448.4799499511719 -391.35597229003906 1604.8499450683594 -391.35597229003906 1762.6499938964844C-391.35597229003906 2066.560028076172 -445.63697814941406 2375.810028076172 -554.1539764404297 2690.269989013672C-612.1790008544922 2858.279998779297 -653.5139617919922 2993.929901123047 -695.8719940185547 3154.779998779297C-831.9659881591797 3671.870086669922 -900.1909637451172 4201.470184326172 -900.1909637451172 4738.100067138672C-900.1909637451172 4945.919891357422 -889.9589691162109 5154.790008544922 -869.4749603271484 5364.399871826172C-867.9789886474609 5379.749969482422 -866.3259735107422 5395.019989013672 -865.9319915771484 5398.249969482422C-865.4600067138672 5401.479949951172 -863.6489715576172 5417.299774169922 -861.9169769287109 5433.290008544922C-766.1790008544922 6317.839813232422 -481.40599060058594 7202.549774169922 -33.34239196777344 8007.509735107422C-15.076583862304688 8040.259735107422 -16.572479248046875 8037.819793701172 -13.659378051757812 8039.310028076172Z" fill="black" /></g></svg>