<?xml version="1.0" encoding="utf-8" ?>
<svg baseProfile="tiny" height="100%" version="1.2" width="100%" xmlns="http://www.w3.org/2000/svg" xmlns:ev="http://www.w3.org/2001/xml-events" xmlns:xlink="http://www.w3.org/1999/xlink"><defs /><g transform="translate(0, 1000) scale(1, -1)"><path d="M-13.569793701171875 7985.990234375C-12.158599853515625 7986.68994140625 -10.70379638671875 7987.0 -9.294418334960938 7987.0C-4.368896484375 7987.0 0.0 7983.1298828125 0.0 7978.06005859375C0.0 7977.580078125 -0.0381927490234375 7977.10009765625 -0.117706298828125 7976.60009765625C-0.3523406982421875 7975.2001953125 -5.8270263671875 7964.56005859375 -12.240203857421875 7952.97998046875C-476.1369934082031 7119.669921875 -714.1599731445312 6157.68994140625 -714.1599731445312 5135.8701171875C-714.1599731445312 4850.830078125 -695.6389770507812 4561.14013671875 -658.3330078125 4268.27978515625C-594.9819946289062 3770.6298828125 -475.1650085449219 3261.47998046875 -308.0299987792969 2779.550048828125C-283.8630065917969 2709.949951171875 -274.3219909667969 2680.85009765625 -262.2770080566406 2639.949951171875C-197.12600708007812 2419.0400390625 -165.2220001220703 2194.219970703125 -165.2220001220703 1971.0799560546875C-165.2220001220703 1377.489990234375 -390.97698974609375 795.7589721679688 -817.177001953125 331.1910095214844C-925.5759887695312 213.01600646972656 -1053.6800537109375 97.81289672851562 -1181.010009765625 3.8828125C-1190.3199462890625 -2.999664306640625 -1197.97998046875 -8.787200927734375 -1197.97998046875 -9.021835327148438C-1197.97998046875 -9.256454467773438 -1190.3900146484375 -15.04400634765625 -1181.010009765625 -21.926498413085938C-829.9249877929688 -280.72300720214844 -545.7880249023438 -633.3720245361328 -370.0509948730469 -1028.490005493164C-233.88999938964844 -1334.520034790039 -165.31900024414062 -1662.699966430664 -165.31900024414062 -1990.8299713134766C-165.31900024414062 -2250.379898071289 -208.21800231933594 -2509.889907836914 -294.5 -2758.409927368164C-392.96600341796875 -3042.159927368164 -465.8580017089844 -3292.820083618164 -527.4089965820312 -3559.360122680664C-607.260986328125 -3905.280044555664 -660.3660278320312 -4242.060073852539 -688.833984375 -4583.910171508789C-704.5679931640625 -4772.379898071289 -712.3939819335938 -4959.270034790039 -712.3939819335938 -5144.160171508789C-712.3939819335938 -6162.350112915039 -475.0780029296875 -7120.169937133789 -14.19549560546875 -7949.600112915039C-3.331207275390625 -7969.100112915039 -0.183685302734375 -7975.060073852539 -0.183685302734375 -7978.700210571289C-0.183685302734375 -7979.910171508789 -0.5301513671875 -7980.870132446289 -1.05621337890625 -7981.979995727539C-2.624114990234375 -7985.279800415039 -6.143585205078125 -7987.000015258789 -9.5869140625 -7987.000015258789C-12.498703002929688 -7987.000015258789 -15.356094360351562 -7985.770034790039 -16.93280029296875 -7983.229995727539C-21.39080810546875 -7976.189956665039 -61.51249694824219 -7903.299819946289 -81.3778076171875 -7866.379898071289C-499.2539978027344 -7088.740249633789 -758.2849731445312 -6264.169937133789 -854.7960205078125 -5404.879898071289C-860.114013671875 -5357.169937133789 -860.8179931640625 -5350.529800415039 -864.0250244140625 -5316.740249633789C-883.4349975585938 -5114.350112915039 -893.1370239257812 -4912.959976196289 -893.1370239257812 -4712.609878540039C-893.1370239257812 -4025.760025024414 -779.1069946289062 -3351.209976196289 -551.2630004882812 -2691.229995727539C-464.45001220703125 -2439.790054321289 -416.82000732421875 -2216.580093383789 -397.58099365234375 -1971.310073852539C-392.2090148925781 -1902.6800689697266 -389.5559997558594 -1834.530044555664 -389.5559997558594 -1767.030044555664C-389.5559997558594 -1055.1700592041016 -684.56298828125 -414.78102111816406 -1197.0400390625 -33.81440734863281C-1214.800048828125 -20.596908569335938 -1223.6700439453125 -14.809417724609375 -1223.6700439453125 -9.0218505859375C-1223.6700439453125 -3.23431396484375 -1214.800048828125 2.55322265625 -1197.0400390625 15.77069091796875C-684.56298828125 396.73699951171875 -389.5559997558594 1037.1300048828125 -389.5559997558594 1748.97998046875C-389.5559997558594 1816.489990234375 -392.2090148925781 1884.6400146484375 -397.58099365234375 1953.27001953125C-416.82000732421875 2198.530029296875 -464.45001220703125 2421.659912109375 -551.2630004882812 2673.18994140625C-762.5859985351562 3285.570068359375 -873.8790283203125 3892.56005859375 -892.2579956054688 4533.02001953125C-893.927978515625 4591.31005859375 -894.7589721679688 4649.68994140625 -894.7589721679688 4708.1201171875C-894.7589721679688 5816.06982421875 -595.6409912109375 6945.31982421875 -32.731201171875 7955.10009765625C-15.134002685546875 7986.60986328125 -16.463592529296875 7984.5 -13.569793701171875 7985.990234375Z" fill="black" /></g></svg>