<?xml version="1.0" encoding="utf-8" ?>
<svg baseProfile="tiny" height="100%" version="1.2" width="100%" xmlns="http://www.w3.org/2000/svg" xmlns:ev="http://www.w3.org/2001/xml-events" xmlns:xlink="http://www.w3.org/1999/xlink"><defs /><g transform="translate(0, 1000) scale(1, -1)"><path d="M-18.904693603515625 780.4520263671875C-18.305206298828125 780.5579833984375 -17.713897705078125 780.6099853515625 -17.135696411132812 780.6099853515625C-12.155502319335938 780.6099853515625 -8.138595581054688 776.8079833984375 -8.119110107421875 771.64501953125C-8.118011474609375 771.5170288085938 -8.117294311523438 771.39501953125 -8.117294311523438 771.2769775390625C-8.117294311523438 769.073974609375 -8.366714477539062 768.5029907226562 -10.967697143554688 763.8170166015625C-28.407302856445312 732.4390258789062 -42.58509826660156 694.8629760742188 -51.13099670410156 657.375C-55.6322021484375 637.7169799804688 -59.82899475097656 611.166015625 -61.024993896484375 594.9660034179688L-61.56858825683594 587.7899780273438C-62.62019348144531 574.531005859375 -63.14338684082031 560.8779907226562 -63.14338684082031 546.8729858398438C-63.14338684082031 478.6289978027344 -50.72088623046875 402.0050048828125 -26.47198486328125 321.6080017089844C-22.318679809570312 307.79998779296875 -18.621978759765625 296.427001953125 -12.011489868164062 276.9440002441406C-4.0022125244140625 253.33399963378906 1.52587890625e-05 229.62399291992188 1.52587890625e-05 205.96800231933594C1.52587890625e-05 180.427001953125 -4.6654510498046875 154.94900512695312 -13.990280151367188 129.72900390625C-31.081985473632812 83.56460571289062 -64.74339294433594 40.900604248046875 -114.84397888183594 1.846405029296875C-116.62698364257812 0.4547271728515625 -118.10598754882812 -0.76300048828125 -118.10598754882812 -0.8499755859375C-118.10598754882812 -0.9369659423828125 -116.62698364257812 -2.154693603515625 -114.84397888183594 -3.5463714599609375C-38.670989990234375 -62.910491943359375 -0.1603851318359375 -131.4080047607422 -0.09515380859375 -207.64599609375C-0.0950927734375 -207.72500610351562 -0.095062255859375 -207.8040008544922 -0.095062255859375 -207.8820037841797C-0.095062255859375 -234.2740020751953 -3.7345123291015625 -254.57200622558594 -13.685882568359375 -283.6449890136719C-35.21348571777344 -346.57598876953125 -49.56529235839844 -405.5480041503906 -57.089080810546875 -462.21600341796875C-60.95909118652344 -491.2439880371094 -62.88618469238281 -519.4210205078125 -62.88618469238281 -546.64599609375C-62.88618469238281 -628.18701171875 -45.59898376464844 -701.18798828125 -11.446090698242188 -762.9080200195312C-8.162582397460938 -768.822021484375 -8.140838623046875 -768.9089965820312 -8.119094848632812 -771.4970092773438L-8.119064331054688 -771.52197265625C-8.119064331054688 -777.0750122070312 -12.677780151367188 -780.6099853515625 -17.293380737304688 -780.6099853515625C-19.892486572265625 -780.6099853515625 -22.509689331054688 -779.489013671875 -24.340988159179688 -776.9769897460938C-25.188980102539062 -775.823974609375 -31.473388671875 -764.4509887695312 -36.93138122558594 -754.208984375C-99.71229553222656 -636.4669799804688 -131.0559844970703 -525.0380249023438 -131.0559844970703 -419.18798828125C-131.0559844970703 -360.7879943847656 -121.51498413085938 -304.0880126953125 -102.44898986816406 -248.96200561523438C-90.38087463378906 -214.01699829101562 -84.20527648925781 -185.50900268554688 -81.6392822265625 -152.63099670410156C-81.43168640136719 -150.01100158691406 -81.33198547363281 -144.093994140625 -81.33198547363281 -137.91600036621094C-81.33198547363281 -130.50799560546875 -81.47538757324219 -122.7239990234375 -81.74809265136719 -119.79598999023438C-86.14057922363281 -71.08670043945312 -104.42799377441406 -34.554901123046875 -136.71998596191406 -9.961181640625C-141.65599060058594 -6.19927978515625 -142.6339874267578 -4.6988677978515625 -142.6339874267578 -0.8499755859375C-142.6339874267578 2.9989013671875 -141.65599060058594 4.4993133544921875 -136.71998596191406 8.261215209960938C-104.42799377441406 32.85490417480469 -86.14057922363281 69.364990234375 -81.74809265136719 118.09600830078125C-81.47538757324219 121.02400207519531 -81.33198547363281 128.80799865722656 -81.33198547363281 136.21600341796875C-81.33198547363281 142.3939971923828 -81.43168640136719 148.31100463867188 -81.6392822265625 150.93099975585938C-84.1182861328125 182.7010040283203 -90.09819030761719 210.94700622558594 -101.18798828125 243.45599365234375C-111.08198547363281 272.4639892578125 -117.01898193359375 294.3179931640625 -121.78099060058594 319.2380065917969C-128.0609893798828 352.07501220703125 -131.2119903564453 385.27398681640625 -131.2119903564453 418.94500732421875C-131.2119903564453 529.8519897460938 -97.01847839355469 645.89599609375 -27.776687622070312 771.1019897460938C-23.732086181640625 778.4080200195312 -22.383880615234375 779.843017578125 -18.904678344726562 780.4520263671875Z" fill="black" /></g></svg>