<?xml version="1.0" encoding="utf-8" ?>
<svg baseProfile="tiny" height="100%" version="1.2" width="100%" xmlns="http://www.w3.org/2000/svg" xmlns:ev="http://www.w3.org/2001/xml-events" xmlns:xlink="http://www.w3.org/1999/xlink"><defs /><g transform="translate(0, 1000) scale(1, -1)"><path d="M-16.133392333984375 1024.8499755859375C-15.4866943359375 1024.97998046875 -14.845199584960938 1025.050048828125 -14.216094970703125 1025.050048828125C-9.325210571289062 1025.050048828125 -5.18890380859375 1021.0999755859375 -5.18890380859375 1015.9400024414062C-5.18890380859375 1013.3699951171875 -5.23980712890625 1013.2100219726562 -9.999404907226562 1004.6099853515625C-32.90660095214844 963.072998046875 -51.84320068359375 912.7789916992188 -63.551300048828125 862.3319702148438C-74.73291015625 814.1619873046875 -80.29290771484375 762.6939697265625 -80.29290771484375 708.5700073242188C-80.29290771484375 602.2860107421875 -58.852691650390625 485.7590026855469 -16.43890380859375 363.84698486328125C-5.4261932373046875 332.1830139160156 -0.01324462890625 300.114013671875 -0.01324462890625 268.3210144042969C-0.01324462890625 185.9250030517578 -36.368499755859375 105.38699340820312 -105.8280029296875 38.59039306640625C-119.7760009765625 25.176895141601562 -137.51600646972656 9.930953979492188 -150.4459991455078 0.259033203125C-151.46400451660156 -0.5045318603515625 -151.97300720214844 -0.82269287109375 -151.97300720214844 -1.140838623046875C-151.97300720214844 -1.4589996337890625 -151.46400451660156 -1.7771453857421875 -150.4459991455078 -2.5407257080078125C-129.0659942626953 -18.524795532226562 -103.3330078125 -42.09379577636719 -85.46578979492188 -61.97210693359375C-29.00689697265625 -124.8280029296875 0.0 -196.4810028076172 0.0 -270.0589904785156C0.0 -302.1610107421875 -5.52142333984375 -334.6289978027344 -16.693405151367188 -366.8919982910156C-49.476104736328125 -461.52398681640625 -69.96530151367188 -554.1199951171875 -77.16830444335938 -640.2509765625C-79.1875 -664.2440185546875 -80.13400268554688 -688.1240234375 -80.13400268554688 -711.5440063476562C-80.13400268554688 -728.27197265625 -79.548095703125 -744.7650146484375 -78.46640014648438 -760.89501953125C-72.5360107421875 -849.0369873046875 -48.356201171875 -935.1680297851562 -9.999404907226562 -1004.5999755859375C-5.2652587890625 -1013.1799926757812 -5.18890380859375 -1013.3599853515625 -5.18890380859375 -1015.9299926757812C-5.2061767578125 -1021.4000244140625 -9.720443725585938 -1025.050048828125 -14.37860107421875 -1025.050048828125C-16.587600708007812 -1025.050048828125 -18.828994750976562 -1024.22998046875 -20.638504028320312 -1022.3900146484375C-22.802001953125 -1020.2000122070312 -44.28379821777344 -980.1170043945312 -53.777496337890625 -960.5689697265625L-58.613494873046875 -950.6430053710938C-123.24800109863281 -817.9860229492188 -156.6479949951172 -684.5150146484375 -156.6479949951172 -559.6920166015625C-156.6479949951172 -548.5070190429688 -156.3800048828125 -537.3909912109375 -155.8419952392578 -526.3510131835938C-152.5070037841797 -457.8590087890625 -141.46099853515625 -399.9549865722656 -118.80799865722656 -332.2770080566406C-104.09700012207031 -288.32000732421875 -97.73390197753906 -260.9840087890625 -93.86509704589844 -224.9949951171875C-92.5299072265625 -212.5760040283203 -91.87030029296875 -200.42799377441406 -91.87030029296875 -188.5959930419922C-91.87030029296875 -111.3330078125 -119.99400329589844 -47.51959228515625 -171.77499389648438 -9.489227294921875C-175.197998046875 -6.9694366455078125 -176.91000366210938 -4.055145263671875 -176.91000366210938 -1.140838623046875C-176.91000366210938 1.7734527587890625 -175.197998046875 4.6877593994140625 -171.77499389648438 7.207550048828125C-119.99400329589844 45.23789978027344 -91.87030029296875 109.05099487304688 -91.87030029296875 186.31399536132812C-91.87030029296875 198.14599609375 -92.5299072265625 210.29400634765625 -93.86509704589844 222.71299743652344C-97.73390197753906 258.7030029296875 -104.09700012207031 286.0639953613281 -118.80799865722656 329.9949951171875C-127.10600280761719 354.7860107421875 -129.4219970703125 362.47198486328125 -134.6909942626953 382.8089904785156C-149.46600341796875 439.7869873046875 -156.83399963378906 498.2510070800781 -156.83399963378906 557.9619750976562C-156.83399963378906 700.9940185546875 -114.5570068359375 851.1829833984375 -30.539505004882812 1005.25C-20.536697387695312 1023.5999755859375 -20.256698608398438 1023.97998046875 -16.133392333984375 1024.8499755859375Z" fill="black" /></g></svg>