<?xml version="1.0" encoding="utf-8" ?>
<svg baseProfile="tiny" height="100%" version="1.2" width="100%" xmlns="http://www.w3.org/2000/svg" xmlns:ev="http://www.w3.org/2001/xml-events" xmlns:xlink="http://www.w3.org/1999/xlink"><defs /><g transform="translate(0, 1000) scale(1, -1)"><path d="M-13.208099365234375 1310.0799560546875C-12.07879638671875 1310.510009765625 -10.9364013671875 1310.7099609375 -9.824722290039062 1310.7099609375C-4.955780029296875 1310.7099609375 -0.6764373779296875 1306.8599853515625 -0.6764373779296875 1301.6300048828125C-0.67645263671875 1299.31005859375 -1.02862548828125 1298.4599609375 -4.2569122314453125 1292.6500244140625C-40.26701354980469 1228.050048828125 -67.14982604980469 1154.06005859375 -82.85101318359375 1076.3499755859375C-94.46751403808594 1018.9199829101562 -100.26101684570312 959.3150024414062 -100.26101684570312 896.8209838867188C-100.26101684570312 851.6370239257812 -97.23262023925781 804.9409790039062 -91.1859130859375 756.4559936523438C-79.7401123046875 664.5670166015625 -56.26171875 565.2830200195312 -23.47991943359375 470.1659851074219C-17.933120727539062 454.0830078125 -16.78851318359375 450.5610046386719 -14.6168212890625 443.0190124511719C-4.8060302734375 408.94500732421875 -1.52587890625e-05 374.6700134277344 -1.52587890625e-05 340.6960144042969C-1.52587890625e-05 213.78799438476562 -67.06001281738281 91.07029724121094 -190.82301330566406 -1.3697052001953125C-190.83401489257812 -1.3773345947265625 -190.8400115966797 -1.388427734375 -190.8400115966797 -1.4026031494140625C-190.8400115966797 -1.4975433349609375 -190.593017578125 -1.7306671142578125 -190.2360076904297 -1.98602294921875C-188.3870086669922 -3.27734375 -176.8240203857422 -12.40460205078125 -171.218017578125 -16.982894897460938C-92.59461975097656 -81.37258911132812 -39.41590881347656 -157.1490020751953 -15.203720092773438 -239.32400512695312C-5.121917724609375 -273.50799560546875 -0.0946502685546875 -308.8819885253906 -0.0946502685546875 -344.0870056152344C-0.0946502685546875 -383.8970031738281 -6.523529052734375 -423.489990234375 -19.341812133789062 -460.9020080566406C-45.28550720214844 -536.5910034179688 -60.57582092285156 -591.5889892578125 -74.45750427246094 -658.85498046875C-91.44880676269531 -741.343017578125 -99.90220642089844 -820.9240112304688 -99.90220642089844 -896.8170166015625C-99.90220642089844 -1044.68994140625 -67.81150817871094 -1178.550048828125 -4.2569122314453125 -1292.6300048828125C-1.02862548828125 -1298.43994140625 -0.67645263671875 -1299.2900390625 -0.67645263671875 -1301.6099853515625C-0.67645263671875 -1307.030029296875 -5.2629241943359375 -1310.7099609375 -9.951431274414062 -1310.7099609375C-12.086318969726562 -1310.7099609375 -14.2423095703125 -1309.949951171875 -15.996109008789062 -1308.239990234375C-18.901611328125 -1305.4200439453125 -43.700714111328125 -1258.8499755859375 -58.521514892578125 -1228.43994140625C-142.77902221679688 -1055.4100341796875 -184.5130157470703 -888.7960205078125 -184.5130157470703 -725.2329711914062V-724.8880004882812C-184.5130157470703 -702.260009765625 -184.3660125732422 -695.8040161132812 -183.36801147460938 -676.3170166015625C-178.90701293945312 -590.56201171875 -163.822021484375 -512.8189697265625 -135.0910186767578 -427.885009765625C-115.22201538085938 -369.1600036621094 -107.00502014160156 -329.8330078125 -103.04301452636719 -274.8349914550781C-102.77801513671875 -271.1960144042969 -102.64601135253906 -260.6669921875 -102.64601135253906 -250.16799926757812C-102.64601135253906 -239.66900634765625 -102.77801513671875 -229.19900512695312 -103.04301452636719 -225.677001953125C-110.11500549316406 -130.26600646972656 -145.24501037597656 -59.185394287109375 -209.1940155029297 -10.7904052734375C-214.4180145263672 -6.8578033447265625 -215.50401306152344 -5.2143096923828125 -215.50401306152344 -1.457763671875C-215.50401306152344 2.298797607421875 -214.4180145263672 3.942291259765625 -209.1940155029297 7.8749237060546875C-145.24501037597656 56.2698974609375 -110.11500549316406 127.35099792480469 -103.04301452636719 222.76199340820312C-102.77801513671875 226.2830047607422 -102.64601135253906 236.7530059814453 -102.64601135253906 247.2519989013672C-102.64601135253906 257.75201416015625 -102.77801513671875 268.2799987792969 -103.04301452636719 271.9200134277344C-107.00502014160156 326.9179992675781 -115.22201538085938 366.1860046386719 -135.0910186767578 424.9700012207031C-147.00601196289062 460.2170104980469 -154.57801818847656 486.60101318359375 -161.79701232910156 518.0029907226562C-177.2340087890625 585.0960083007812 -184.9230194091797 653.6380004882812 -184.9230194091797 723.302978515625C-184.9230194091797 909.0029907226562 -130.29000854492188 1102.68994140625 -22.129913330078125 1298.219970703125C-16.847213745117188 1307.7900390625 -15.908111572265625 1309.050048828125 -13.208114624023438 1310.0799560546875Z" fill="black" /></g></svg>