<?xml version="1.0" encoding="utf-8" ?>
<svg baseProfile="tiny" height="100%" version="1.2" width="100%" xmlns="http://www.w3.org/2000/svg" xmlns:ev="http://www.w3.org/2001/xml-events" xmlns:xlink="http://www.w3.org/1999/xlink"><defs /><g transform="translate(0, 1000) scale(1, -1)"><path d="M-11.9320068359375 6414.18994140625C-10.977096557617188 6414.39013671875 -10.055892944335938 6414.490234375 -9.178543090820312 6414.490234375C-3.926483154296875 6414.490234375 -0.2404632568359375 6410.919921875 -0.2404632568359375 6405.3798828125C-0.240478515625 6402.5 -1.54718017578125 6399.81005859375 -13.651321411132812 6378.080078125C-329.66700744628906 5809.31982421875 -516.0430450439453 5150.5400390625 -557.1010284423828 4456.89013671875C-563.2220001220703 4353.31982421875 -566.2760162353516 4249.31005859375 -566.2760162353516 4144.93994140625C-566.2760162353516 3512.739990234375 -454.21900939941406 2867.14990234375 -232.62701416015625 2225.8701171875C-183.5220184326172 2083.639892578125 -156.4940185546875 1972.0899658203125 -138.3380126953125 1836.260009765625C-127.41001892089844 1754.5799560546875 -122.04002380371094 1672.8399658203125 -122.04002380371094 1591.4599609375C-122.04002380371094 983.97900390625 -421.28001403808594 396.6729736328125 -941.8899993896484 6.8819580078125C-951.9310150146484 -0.6143646240234375 -960.1160125732422 -6.941558837890625 -960.1160125732422 -7.216644287109375C-960.1160125732422 -7.4917449951171875 -951.9310150146484 -13.818939208984375 -941.8899993896484 -21.31524658203125C-647.6760101318359 -241.59805297851562 -417.2159881591797 -531.6160583496094 -277.0549774169922 -857.8790588378906C-174.12799072265625 -1097.5200500488281 -122.26197814941406 -1351.4800109863281 -122.26197814941406 -1605.9300842285156C-122.26197814941406 -1788.0899963378906 -148.84298706054688 -1970.4900207519531 -202.29798889160156 -2148.070098876953C-210.5509796142578 -2175.520050048828 -216.80899047851562 -2194.570098876953 -232.62698364257812 -2240.300079345703C-454.73399353027344 -2883.330108642578 -565.0349578857422 -3529.730010986328 -565.0349578857422 -4151.189971923828C-565.0349578857422 -4957.169952392578 -379.50498962402344 -5721.209991455078 -11.725692749023438 -6381.509796142578C-2.9784698486328125 -6397.259796142578 1.52587890625e-05 -6403.009796142578 1.52587890625e-05 -6406.560089111328C1.52587890625e-05 -6408.029815673828 -0.513519287109375 -6409.120147705078 -1.3408203125 -6410.399932861328C-3.0591583251953125 -6413.000030517578 -6.4993133544921875 -6414.490264892578 -9.762557983398438 -6414.490264892578C-11.592987060546875 -6414.490264892578 -13.367691040039062 -6414.020050048828 -14.751678466796875 -6413.009796142578C-17.089981079101562 -6411.220245361328 -46.59397888183594 -6358.399932861328 -77.95478820800781 -6299.669952392578C-405.2489776611328 -5686.480010986328 -609.4379730224609 -5044.890167236328 -693.2729949951172 -4366.779815673828C-717.0279998779297 -4174.669952392578 -728.9299774169922 -3972.580108642578 -728.9299774169922 -3770.179962158203C-728.9299774169922 -3584.080108642578 -718.8679656982422 -3397.720001220703 -698.7069549560547 -3218.610137939453C-657.0980072021484 -2848.530059814453 -578.9709930419922 -2506.870147705078 -452.70298767089844 -2142.230010986328C-367.3669891357422 -1895.9200744628906 -326.1529998779297 -1646.7600402832031 -326.1529998779297 -1406.7800598144531C-326.1529998779297 -846.8350524902344 -550.5359954833984 -336.8890380859375 -962.3849945068359 -29.843231201171875C-972.4949798583984 -22.27813720703125 -981.7789764404297 -15.26312255859375 -983.0170135498047 -14.231536865234375C-985.1489715576172 -12.512237548828125 -986.2150115966797 -9.864425659179688 -986.2150115966797 -7.2166290283203125C-986.2150115966797 -4.56884765625 -985.1489715576172 -1.9210662841796875 -983.0170135498047 -0.2017059326171875C-981.7789764404297 0.82989501953125 -972.4949798583984 7.8448028564453125 -962.3849945068359 15.40997314453125C-558.1609954833984 316.7609558105469 -325.8419952392578 824.6029968261719 -325.8419952392578 1390.8599548339844C-325.8419952392578 1446.1999206542969 -328.0609893798828 1502.0999450683594 -332.5549774169922 1558.4200134277344C-348.3729705810547 1755.9999694824219 -387.2989959716797 1938.4599304199219 -456.14198303222656 2137.840057373047C-625.5309906005859 2628.060028076172 -713.4929656982422 3107.269989013672 -728.6920013427734 3622.659881591797C-729.9319915771484 3664.649871826172 -730.5380096435547 3708.070037841797 -730.5380096435547 3752.340057373047C-730.5380096435547 3958.469940185547 -717.4000091552734 4183.040008544922 -693.9609832763672 4367.209930419922L-689.1469573974609 4405.240203857422C-605.0369720458984 5066.979949951172 -388.0559844970703 5730.509735107422 -56.63490295410156 6339.220184326172C-19.909698486328125 6406.549774169922 -15.9208984375 6413.290008544922 -11.9320068359375 6414.189910888672Z" fill="black" /></g></svg>