<?xml version="1.0" encoding="utf-8" ?>
<svg baseProfile="tiny" height="100%" version="1.2" width="100%" xmlns="http://www.w3.org/2000/svg" xmlns:ev="http://www.w3.org/2001/xml-events" xmlns:xlink="http://www.w3.org/1999/xlink"><defs /><g transform="translate(0, 1000) scale(1, -1)"><path d="M-13.393600463867188 6809.35009765625C-12.150192260742188 6809.91015625 -10.868377685546875 6810.169921875 -9.613372802734375 6810.169921875C-4.5929107666015625 6810.169921875 1.52587890625e-05 6806.06982421875 1.52587890625e-05 6800.97021484375C1.52587890625e-05 6800.5400390625 -0.03387451171875 6800.08984375 -0.10430908203125 6799.64013671875C-0.3233642578125 6798.31982421875 -4.4123687744140625 6790.2900390625 -9.231552124023438 6781.68017578125C-357.89198303222656 6158.31982421875 -558.9099578857422 5435.080078125 -596.8060150146484 4668.31982421875C-601.2269744873047 4578.7001953125 -603.4269866943359 4488.4599609375 -603.4269866943359 4397.740234375C-603.4269866943359 3737.699951171875 -486.9929962158203 3052.320068359375 -262.31199645996094 2397.030029296875L-239.96798706054688 2331.75C-167.8609619140625 2120.14990234375 -132.9649658203125 1903.3699951171875 -132.9649658203125 1688.510009765625C-132.9649658203125 1050.489990234375 -440.6769714355469 429.416015625 -995.4839782714844 11.385223388671875C-1008.6999816894531 1.38177490234375 -1019.5799865722656 -7.0883026123046875 -1019.5799865722656 -7.38037109375C-1019.5799865722656 -7.6724395751953125 -1008.6999816894531 -16.142471313476562 -995.4839782714844 -26.145965576171875C-706.4789733886719 -243.8849639892578 -477.4949645996094 -523.1789703369141 -327.3699645996094 -840.8799591064453C-198.18096923828125 -1114.3399200439453 -133.0029754638672 -1408.0299835205078 -133.0029754638672 -1702.2399444580078C-133.0029754638672 -1919.3599395751953 -168.5009765625 -2136.759963989258 -239.9679718017578 -2346.509963989258L-261.94598388671875 -2410.759963989258C-486.6799621582031 -3065.300003051758 -601.7799987792969 -3746.189895629883 -601.7799987792969 -4403.029739379883C-601.7799987792969 -4643.799758911133 -586.3139953613281 -4881.330032348633 -555.1129455566406 -5113.160110473633C-474.281982421875 -5713.950149536133 -286.2609558105469 -6288.379837036133 -9.158538818359375 -6781.249954223633C-3.040985107421875 -6792.089797973633 -0.120086669921875 -6798.370071411133 -0.120086669921875 -6802.370071411133C-0.120086669921875 -6805.680130004883 -2.1138153076171875 -6807.439895629883 -5.94573974609375 -6808.919876098633C-7.634063720703125 -6809.560012817383 -8.922027587890625 -6810.169876098633 -10.205780029296875 -6810.169876098633C-15.362289428710938 -6810.169876098633 -20.450485229492188 -6800.439895629883 -51.14378356933594 -6744.379837036133C-416.3059844970703 -6077.430130004883 -650.8400115966797 -5349.810012817383 -734.0800018310547 -4625.759719848633C-735.9059906005859 -4609.919876098633 -738.0229949951172 -4591.660110473633 -738.8259735107422 -4585.240188598633C-750.9470062255859 -4487.319778442383 -763.6519622802734 -4305.289993286133 -768.0330047607422 -4166.479934692383C-769.4050140380859 -4123.140090942383 -770.1379852294922 -4052.999954223633 -770.1379852294922 -3988.879837036133C-770.1379852294922 -3940.330032348633 -769.7180023193359 -3895.239944458008 -768.8369598388672 -3867.840042114258C-761.9730072021484 -3653.889846801758 -748.1729583740234 -3483.029983520508 -722.7620086669922 -3297.709915161133C-674.7899627685547 -2948.539993286133 -597.6829681396484 -2627.340042114258 -480.1239776611328 -2286.999954223633C-406.01097106933594 -2072.399856567383 -364.75599670410156 -1877.5899200439453 -348.6189727783203 -1665.6199493408203C-344.2479705810547 -1608.3699493408203 -342.08897399902344 -1551.5500030517578 -342.08897399902344 -1495.2899932861328C-342.08897399902344 -886.0229644775391 -595.2589569091797 -341.4009552001953 -1035.499984741211 -20.012466430664062C-1042.9100189208984 -14.572662353515625 -1046.6099700927734 -10.976470947265625 -1046.6099700927734 -7.38037109375C-1046.6099700927734 -3.78424072265625 -1042.9100189208984 -0.1881103515625 -1035.499984741211 5.2517242431640625C-731.8899993896484 226.9340362548828 -510.93699645996094 561.1370391845703 -408.4929962158203 953.9000396728516C-364.18699645996094 1123.6200103759766 -342.1479949951172 1300.939956665039 -342.1479949951172 1481.439956665039C-342.1479949951172 1739.699966430664 -387.2679901123047 2004.449966430664 -476.83799743652344 2262.669937133789C-676.1639862060547 2837.610122680664 -771.5239715576172 3399.139907836914 -771.5239715576172 3999.169937133789C-771.5239715576172 4007.790054321289 -771.5049896240234 4016.399917602539 -771.4650115966797 4025.030044555664C-771.0999603271484 4107.540054321289 -770.8079681396484 4124.990249633789 -768.7639617919922 4183.120132446289C-764.2360076904297 4311.770034790039 -752.1160125732422 4481.609878540039 -740.5789642333984 4577.410171508789L-736.6359710693359 4611.580093383789C-649.9639739990234 5364.330093383789 -409.58897399902344 6102.100112915039 -27.997177124023438 6786.930191040039C-15.803176879882812 6808.770034790039 -16.387283325195312 6807.959976196289 -13.393585205078125 6809.350112915039Z" fill="black" /></g></svg>