<?xml version="1.0" encoding="utf-8" ?>
<svg baseProfile="tiny" height="100%" version="1.2" width="100%" xmlns="http://www.w3.org/2000/svg" xmlns:ev="http://www.w3.org/2001/xml-events" xmlns:xlink="http://www.w3.org/1999/xlink"><defs /><g transform="translate(0, 1000) scale(1, -1)"><path d="M-13.786407470703125 11663.5C-12.384201049804688 11664.2001953125 -10.9132080078125 11664.599609375 -9.475830078125 11664.599609375C-4.5397491455078125 11664.599609375 0.0 11660.5 0.0 11655.400390625C0.0 11654.7998046875 -0.05706787109375 11654.2001953125 -0.17706298828125 11653.599609375C-0.4586334228515625 11652.2001953125 -8.624267578125 11636.900390625 -18.197799682617188 11619.599609375C-709.8560028076172 10377.900390625 -1062.790023803711 8946.0703125 -1062.790023803711 7442.3798828125C-1062.790023803711 6692.33984375 -974.9819793701172 5924.419921875 -797.5930023193359 5153.2998046875C-712.9329681396484 4785.56982421875 -601.9929656982422 4399.72021484375 -478.1009979248047 4042.9599609375C-451.3519744873047 3965.81005859375 -436.99098205566406 3923.010009765625 -424.2269744873047 3881.429931640625C-320.23097229003906 3543.06005859375 -269.3509979248047 3197.909912109375 -269.3509979248047 2855.7099609375C-269.3509979248047 1989.3900146484375 -595.4290008544922 1141.9000244140625 -1211.3199310302734 470.6409912109375C-1368.719955444336 299.0690002441406 -1582.060043334961 108.53700256347656 -1751.280014038086 -11.41290283203125L-1753.6299896240234 -13.102294921875L-1751.280014038086 -14.697891235351562C-1582.060043334961 -134.7419891357422 -1368.719955444336 -325.2729949951172 -1211.3199310302734 -496.84498596191406C-595.4290008544922 -1168.1100006103516 -269.3509979248047 -2015.5999908447266 -269.3509979248047 -2881.909927368164C-269.3509979248047 -3224.120132446289 -320.23097229003906 -3569.260025024414 -424.2269744873047 -3907.639907836914C-436.99098205566406 -3949.030044555664 -451.1639862060547 -3991.639907836914 -478.1009979248047 -4069.169937133789C-862.4349822998047 -5176.819839477539 -1060.209945678711 -6334.410171508789 -1060.209945678711 -7458.549819946289C-1060.209945678711 -7695.509780883789 -1051.4200286865234 -7930.979995727539 -1033.739974975586 -8164.180191040039C-938.8489837646484 -9413.620132446289 -589.7919769287109 -10599.099624633789 -13.598678588867188 -11628.000015258789C-3.0880584716796875 -11646.700210571289 -0.094207763671875 -11652.299819946289 -0.094207763671875 -11655.900405883789C-0.094207763671875 -11657.000015258789 -0.3869171142578125 -11657.900405883789 -0.83404541015625 -11659.000015258789C-2.3899383544921875 -11662.700210571289 -5.2195281982421875 -11664.599624633789 -8.351409912109375 -11664.599624633789C-12.020889282226562 -11664.599624633789 -16.105392456054688 -11662.099624633789 -19.04248046875 -11657.200210571289C-29.742279052734375 -11639.400405883789 -91.21908569335938 -11527.200210571289 -123.5059814453125 -11466.599624633789C-728.6079711914062 -10331.500015258789 -1104.510009765625 -9101.070327758789 -1227.56005859375 -7852.580093383789C-1230.0899658203125 -7826.200210571289 -1232.9100341796875 -7798.979995727539 -1233.6600341796875 -7792.040054321289C-1242.949951171875 -7708.970230102539 -1257.969970703125 -7487.379898071289 -1264.6300048828125 -7335.890151977539C-1270.3599853515625 -7204.279800415039 -1273.219970703125 -7072.580093383789 -1273.219970703125 -6940.910171508789C-1273.219970703125 -5927.700210571289 -1104.0699462890625 -4916.359878540039 -774.2219848632812 -3965.449966430664C-688.343017578125 -3718.050064086914 -639.1610107421875 -3535.020034790039 -598.3330078125 -3311.270034790039C-555.7210083007812 -3077.699966430664 -534.9409790039062 -2845.439956665039 -534.9409790039062 -2617.510025024414C-534.9409790039062 -1572.760025024414 -971.5120239257812 -618.7589874267578 -1743.300048828125 -44.82630920410156C-1778.31005859375 -18.827713012695312 -1778.219970703125 -18.9215087890625 -1778.969970703125 -15.636520385742188C-1779.31005859375 -14.28192138671875 -1779.6400146484375 -13.25531005859375 -1779.6400146484375 -12.24700927734375C-1779.6400146484375 -8.224990844726562 -1774.3699951171875 -4.491790771484375 -1743.300048828125 18.62158203125C-1157.6300048828125 454.12200927734375 -751.3209838867188 1122.3900146484375 -601.1489868164062 1896.9000244140625C-556.9530029296875 2124.93994140625 -534.9500122070312 2357.280029296875 -534.9500122070312 2591.580078125C-534.9500122070312 3027.030029296875 -610.9509887695312 3469.239990234375 -761.739013671875 3903.110107421875C-1075.219970703125 4804.7099609375 -1242.2900390625 5705.3701171875 -1271.6700439453125 6652.2099609375C-1274.5799560546875 6745.97021484375 -1274.949951171875 6779.2001953125 -1274.949951171875 6928.14990234375C-1274.949951171875 7090.06005859375 -1274.1099853515625 7142.14990234375 -1269.7900390625 7259.93994140625C-1263.4100341796875 7431.509765625 -1248.3900146484375 7667.75 -1236.93994140625 7775.22021484375C-1236.469970703125 7779.6298828125 -1234.5899658203125 7798.39990234375 -1232.719970703125 7816.990234375C-1212.1600341796875 8024.31982421875 -1192.72998046875 8179.18017578125 -1164.5799560546875 8361.3603515625C-990.094970703125 9490.0 -603.4949951171875 10609.7001953125 -38.56488037109375 11622.5C-16.132888793945312 11662.7001953125 -16.69598388671875 11661.7998046875 -13.786392211914062 11663.5Z" fill="black" /></g></svg>