<?xml version="1.0" encoding="utf-8" ?>
<svg baseProfile="tiny" height="100%" version="1.2" width="100%" xmlns="http://www.w3.org/2000/svg" xmlns:ev="http://www.w3.org/2001/xml-events" xmlns:xlink="http://www.w3.org/1999/xlink"><defs /><g transform="translate(0, 1000) scale(1, -1)"><path d="M-13.110000610351562 6630.3701171875C-12.216720581054688 6630.77001953125 -11.126113891601562 6630.9599609375 -9.973419189453125 6630.9599609375C-7.27294921875 6630.9599609375 -4.231597900390625 6629.93017578125 -2.587188720703125 6628.240234375C-0.897735595703125 6626.580078125 -1.52587890625e-05 6624.9501953125 -1.52587890625e-05 6622.77001953125C-1.52587890625e-05 6619.43994140625 -2.0879974365234375 6614.81982421875 -6.6399078369140625 6606.83984375C-39.20381164550781 6549.669921875 -91.81800842285156 6448.5 -126.72801208496094 6376.10986328125C-432.0330047607422 5741.6201171875 -586.1070098876953 5039.5400390625 -586.1070098876953 4282.02978515625V4281.5C-586.1070098876953 4193.6201171875 -585.6800079345703 4164.330078125 -583.3339996337891 4093.800048828125C-563.7810211181641 3513.340087890625 -450.44801330566406 2907.6298828125 -254.35301208496094 2335.840087890625C-205.0810089111328 2192.2900390625 -187.2340087890625 2130.080078125 -167.39801025390625 2032.9599609375C-140.9650115966797 1903.449951171875 -127.96101379394531 1773.1500244140625 -127.96101379394531 1643.6099853515625C-127.96101379394531 1165.1099853515625 -305.40000915527344 696.9080200195312 -638.9340362548828 316.5979919433594C-738.5460357666016 202.97999572753906 -853.5860137939453 96.61370849609375 -972.3230133056641 8.236068725585938C-983.7700347900391 -0.29595947265625 -993.0850372314453 -7.405975341796875 -993.0850372314453 -7.6192779541015625C-993.0850372314453 -7.8325653076171875 -983.7700347900391 -14.942581176757812 -972.3230133056641 -23.474578857421875C-853.5860137939453 -111.85197448730469 -738.6170196533203 -218.21798706054688 -638.9340362548828 -331.8359832763672C-305.40000915527344 -712.0349578857422 -127.96101379394531 -1180.3399505615234 -127.96101379394531 -1658.8599700927734C-127.96101379394531 -1788.4100189208984 -140.9650115966797 -1918.699935913086 -167.39801025390625 -2048.199935913086C-187.1630096435547 -2145.110092163086 -205.2940216064453 -2208.239974975586 -253.99801635742188 -2350.020004272461C-473.7320098876953 -2990.199935913086 -584.6760406494141 -3649.550033569336 -584.6760406494141 -4287.009750366211C-584.6760406494141 -4728.930160522461 -531.3560333251953 -5160.319808959961 -423.9980010986328 -5567.520004272461C-327.30201721191406 -5934.249984741211 -177.35202026367188 -6307.879867553711 -6.6399078369140625 -6607.140121459961C-2.3221588134765625 -6614.700180053711 -0.1563568115234375 -6620.339828491211 -0.1563568115234375 -6624.240219116211C-0.1563568115234375 -6628.810043334961 -3.13958740234375 -6630.959945678711 -9.12841796875 -6630.959945678711C-15.100814819335938 -6630.959945678711 -15.100814819335938 -6630.959945678711 -31.880508422851562 -6600.810043334961C-373.44602966308594 -5985.370101928711 -600.1140289306641 -5321.080062866211 -696.7390289306641 -4652.240219116211C-704.4180450439453 -4599.129867553711 -715.6510162353516 -4511.109848022461 -720.9130401611328 -4462.759750366211C-741.5540313720703 -4273.180160522461 -751.8640289306641 -4084.409896850586 -751.8640289306641 -3896.679916381836C-751.8640289306641 -3329.110092163086 -657.6230010986328 -2770.959945678711 -469.7160186767578 -2228.080062866211C-426.41600036621094 -2102.870101928711 -398.11802673339844 -1998.3499603271484 -375.3660125732422 -1879.4000091552734C-347.9660186767578 -1735.9300384521484 -334.5960235595703 -1593.8699798583984 -334.5960235595703 -1455.1700286865234C-334.5960235595703 -871.5430145263672 -571.3460235595703 -347.57798767089844 -995.7150421142578 -29.660385131835938C-1017.4799957275391 -13.320480346679688 -1018.4799957275391 -12.820388793945312 -1018.4799957275391 -8.922531127929688L-1018.4699859619141 -7.6192626953125L-1018.4799957275391 -6.3159942626953125C-1018.4799957275391 -2.4181671142578125 -1017.4799957275391 -1.91802978515625 -995.7150421142578 14.42181396484375C-568.2870025634766 334.65899658203125 -334.68202209472656 860.1309814453125 -334.68202209472656 1440.050048828125C-334.68202209472656 1662.1500244140625 -368.94700622558594 1892.22998046875 -439.7110137939453 2121.830078125C-447.6750030517578 2147.639892578125 -461.3970184326172 2188.8798828125 -480.45201110839844 2244.1298828125C-645.6179962158203 2723.550048828125 -734.9910430908203 3222.320068359375 -751.5570220947266 3757.85009765625C-752.6200103759766 3792.31005859375 -753.1320343017578 3831.169921875 -753.1320343017578 3872.43994140625C-753.1320343017578 3980.25 -749.6339874267578 4104.43994140625 -743.3090362548828 4209.33984375C-737.7639923095703 4300.33984375 -725.3920440673828 4440.47998046875 -718.4240264892578 4490.89013671875C-717.8560333251953 4495.02001953125 -716.0780181884766 4509.3798828125 -714.5139923095703 4522.89013671875C-633.1040191650391 5209.0 -408.42701721191406 5905.5 -61.95591735839844 6545.68994140625C-26.903518676757812 6610.52978515625 -16.238418579101562 6629.02001953125 -13.110015869140625 6630.3701171875Z" fill="black" /></g></svg>