<?xml version="1.0" encoding="utf-8" ?>
<svg baseProfile="tiny" height="100%" version="1.2" width="100%" xmlns="http://www.w3.org/2000/svg" xmlns:ev="http://www.w3.org/2001/xml-events" xmlns:xlink="http://www.w3.org/1999/xlink"><defs /><g transform="translate(0, 1000) scale(1, -1)"><path d="M-19.313995361328125 622.656005859375C-18.931793212890625 622.7009887695312 -18.553802490234375 622.7219848632812 -18.181304931640625 622.7219848632812C-13.209396362304688 622.7219848632812 -9.2103271484375 618.8480224609375 -9.178146362304688 613.7310180664062C-9.17767333984375 613.6719970703125 -9.17742919921875 613.6129760742188 -9.17742919921875 613.5560302734375C-9.17742919921875 611.4910278320312 -9.504913330078125 610.6680297851562 -11.928298950195312 606.2410278320312C-38.376007080078125 557.9340209960938 -51.59989929199219 502.6440124511719 -51.59989929199219 439.8909912109375C-51.59989929199219 376.322998046875 -38.03010559082031 305.09698486328125 -10.8905029296875 225.71499633789062C-3.363067626953125 203.70799255371094 0.0 185.61399841308594 0.0 166.42599487304688C0.0 163.70199584960938 -0.0678253173828125 160.9550018310547 -0.2011871337890625 158.17100524902344C-3.0378265380859375 99.172607421875 -32.424896240234375 49.150604248046875 -91.70050048828125 2.39776611328125C-93.79339599609375 0.75457763671875 -95.50579833984375 -0.646453857421875 -95.50579833984375 -0.698333740234375C-95.50579833984375 -0.7502288818359375 -93.79339599609375 -2.1512603759765625 -91.70050048828125 -3.79443359375C-32.424896240234375 -50.54730224609375 -3.0378265380859375 -100.56900024414062 -0.2011871337890625 -159.5679931640625C-0.0679931640625 -162.35699462890625 -0.0001678466796875 -165.1060028076172 -0.0001678466796875 -167.83099365234375C-0.0001678466796875 -187.0500030517578 -3.37249755859375 -205.08799743652344 -10.977005004882812 -227.37100219726562C-37.980194091796875 -306.4230041503906 -51.48069763183594 -377.28900146484375 -51.48069763183594 -440.53399658203125C-51.48069763183594 -503.0350036621094 -38.2958984375 -558.093017578125 -11.928298950195312 -606.2540283203125C-9.504913330078125 -610.6810302734375 -9.17742919921875 -611.5040283203125 -9.17742919921875 -613.5689697265625C-9.17742919921875 -613.6259765625 -9.17767333984375 -613.6849975585938 -9.178146362304688 -613.7440185546875C-9.217727661132812 -619.0490112304688 -13.384796142578125 -622.7219848632812 -18.146499633789062 -622.7219848632812C-19.626296997070312 -622.7219848632812 -21.163604736328125 -622.3679809570312 -22.652206420898438 -621.5969848632812C-24.83160400390625 -620.4550170898438 -25.281295776367188 -619.7979736328125 -31.629196166992188 -608.156982421875C-81.59930419921875 -516.6229858398438 -108.08000183105469 -433.3399963378906 -112.3699951171875 -354.24200439453125C-112.80400085449219 -346.2279968261719 -113.02099609375 -338.2699890136719 -113.02099609375 -330.3659973144531C-113.02099609375 -284.0880126953125 -105.57598876953125 -239.63699340820312 -90.61080932617188 -196.41000366210938C-81.66850280761719 -170.60299682617188 -76.27189636230469 -147.63299560546875 -73.98870849609375 -125.58000183105469C-73.24639892578125 -118.4530029296875 -72.87770080566406 -111.5360107421875 -72.87770080566406 -104.84201049804688C-72.87770080566406 -63.18800354003906 -87.1549072265625 -30.196807861328125 -114.51499938964844 -9.363967895507812C-118.78700256347656 -6.1121826171875 -119.9110107421875 -4.296051025390625 -119.9110107421875 -0.698333740234375C-119.9110107421875 2.8993682861328125 -118.78700256347656 4.71551513671875 -114.51499938964844 7.96728515625C-95.5404052734375 22.42730712890625 -82.37759399414062 43.56379699707031 -76.49679565429688 69.07640075683594C-74.06600952148438 79.58940124511719 -72.85629272460938 90.99349975585938 -72.85629272460938 103.18499755859375C-72.85629272460938 129.16600036621094 -78.349609375 158.7239990234375 -89.22709655761719 190.86199951171875C-95.55770874023438 209.61199951171875 -97.39109802246094 215.7169952392578 -101.02301025390625 230.177001953125C-107.05999755859375 254.1510009765625 -110.95199584960938 279.50799560546875 -112.3699951171875 303.89599609375C-113.010009765625 315.052001953125 -113.06199645996094 317.0589904785156 -113.06199645996094 329.84100341796875C-113.06199645996094 342.62298583984375 -112.99299621582031 344.906005859375 -112.35299682617188 356.0450134277344C-107.75199890136719 436.0249938964844 -79.17770385742188 523.3560180664062 -27.30499267578125 615.9970092773438C-24.641403198242188 620.7360229492188 -22.85980224609375 622.2239990234375 -19.313995361328125 622.656005859375Z" fill="black" /></g></svg>