<?xml version="1.0" encoding="utf-8" ?>
<svg baseProfile="tiny" height="100%" version="1.2" width="100%" xmlns="http://www.w3.org/2000/svg" xmlns:ev="http://www.w3.org/2001/xml-events" xmlns:xlink="http://www.w3.org/1999/xlink"><defs /><g transform="translate(0, 1000) scale(1, -1)"><path d="M-13.755905151367188 1194.050048828125C-13.131622314453125 1194.199951171875 -12.486419677734375 1194.27001953125 -11.836013793945312 1194.27001953125C-8.310546875 1194.27001953125 -4.6328277587890625 1192.1400146484375 -3.304229736328125 1189.030029296875C-2.7380523681640625 1187.7099609375 -2.42938232421875 1186.5999755859375 -2.42938232421875 1185.4200439453125C-2.42938232421875 1183.3299560546875 -3.40679931640625 1181.0400390625 -5.6499176025390625 1176.97998046875C-63.25311279296875 1073.050048828125 -91.87651062011719 954.5800170898438 -91.90620422363281 820.072998046875C-91.90620422363281 693.7919921875 -68.12260437011719 565.10498046875 -17.70501708984375 418.63299560546875C-5.952728271484375 384.4540100097656 -1.52587890625e-05 347.8999938964844 -1.52587890625e-05 311.2749938964844C-1.52587890625e-05 289.41900634765625 -2.119903564453125 267.5369873046875 -6.392242431640625 246.1199951171875C-24.47491455078125 155.5290069580078 -80.02931213378906 72.53880310058594 -168.7200164794922 3.5931243896484375C-172.135009765625 0.95050048828125 -174.89601135253906 -1.2764129638671875 -174.89601135253906 -1.3654937744140625C-174.89601135253906 -1.454559326171875 -172.135009765625 -3.681488037109375 -168.7200164794922 -6.3241119384765625C-80.02931213378906 -75.26979064941406 -24.47491455078125 -158.25997924804688 -6.392242431640625 -248.85098266601562C-2.119903564453125 -270.2679901123047 -1.52587890625e-05 -292.15797424316406 -1.52587890625e-05 -314.02198791503906C-1.52587890625e-05 -350.6589813232422 -5.952728271484375 -387.2229766845703 -17.70501708984375 -421.36399841308594C-68.00392150878906 -567.3610076904297 -91.60931396484375 -695.2459564208984 -91.60931396484375 -821.4680023193359C-91.60929870605469 -847.0629730224609 -91.49050903320312 -852.5859832763672 -90.54029846191406 -870.0149993896484C-84.57220458984375 -982.0149993896484 -55.53309631347656 -1087.0699310302734 -5.64990234375 -1177.030014038086C-3.4067840576171875 -1181.0799407958984 -2.4293670654296875 -1183.3899993896484 -2.4293670654296875 -1185.479965209961C-2.4293670654296875 -1186.6500091552734 -2.738037109375 -1187.759994506836 -3.3042144775390625 -1189.060043334961C-4.77783203125 -1192.4200286865234 -8.226043701171875 -1194.270004272461 -11.674697875976562 -1194.270004272461C-13.993499755859375 -1194.270004272461 -16.312591552734375 -1193.4300384521484 -18.031600952148438 -1191.6399993896484C-18.833297729492188 -1190.8399505615234 -21.208694458007812 -1186.8599700927734 -24.71240234375 -1180.449935913086C-123.59799194335938 -1000.9199676513672 -173.3520050048828 -825.3610076904297 -173.3520050048828 -657.3530120849609C-173.3520050048828 -588.2059783935547 -164.9239959716797 -520.3369598388672 -148.02499389648438 -453.99598693847656C-142.14599609375 -430.8949737548828 -138.01800537109375 -417.0289764404297 -128.8730010986328 -389.74098205566406C-110.01899719238281 -333.4149932861328 -102.7139892578125 -299.3579864501953 -98.97299194335938 -249.88998413085938C-98.601806640625 -244.94699096679688 -98.41619873046875 -234.89598083496094 -98.41619873046875 -224.90798950195312C-98.41619873046875 -214.91998291015625 -98.601806640625 -204.99598693847656 -98.97299194335938 -200.30398559570312C-105.53500366210938 -117.99699401855469 -137.03900146484375 -53.59428405761719 -190.7519989013672 -12.797088623046875C-198.94700622558594 -6.5616455078125 -199.66000366210938 -5.6411895751953125 -199.66000366210938 -1.365478515625C-199.66000366210938 2.91021728515625 -198.94700622558594 3.8306732177734375 -190.7519989013672 10.066116333007812C-142.91799926757812 46.409515380859375 -110.52301025390625 105.85401916503906 -101.40798950195312 174.02700805664062C-99.339599609375 189.5460205078125 -98.310302734375 205.5670166015625 -98.310302734375 221.99301147460938C-98.310302734375 266.41102600097656 -105.83799743652344 313.79200744628906 -120.7080078125 362.21702575683594C-121.44999694824219 364.68202209472656 -125.13200378417969 375.81602478027344 -128.8730010986328 387.01002502441406C-138.4929962158203 415.7820281982422 -142.4429931640625 429.0550079345703 -148.76699829101562 454.26402282714844C-165.33799743652344 520.0750274658203 -173.60000610351562 587.4099884033203 -173.60000610351562 656.0040435791016C-173.60000610351562 824.5030059814453 -123.74400329589844 1000.5999908447266 -24.71240234375 1180.3900299072266C-18.298904418945312 1192.060073852539 -17.43780517578125 1193.0999908447266 -13.755905151367188 1194.050064086914Z" fill="black" /></g></svg>