<?xml version="1.0" encoding="utf-8" ?>
<svg baseProfile="tiny" height="100%" version="1.2" width="100%" xmlns="http://www.w3.org/2000/svg" xmlns:ev="http://www.w3.org/2001/xml-events" xmlns:xlink="http://www.w3.org/1999/xlink"><defs /><g transform="translate(0, 1000) scale(1, -1)"><path d="M-12.291793823242188 4109.580078125C-11.229888916015625 4109.91015625 -10.18328857421875 4110.06982421875 -9.177108764648438 4110.06982421875C-4.2052459716796875 4110.06982421875 -0.21746826171875 4106.27001953125 -0.21746826171875 4100.93994140625C-0.2718658447265625 4098.10986328125 -0.70697021484375 4097.1298828125 -9.246017456054688 4081.6298828125C-164.19998168945312 3801.31005859375 -266.77699279785156 3494.610107421875 -317.24998474121094 3160.550048828125C-340.30699157714844 3008.0400390625 -351.75599670410156 2850.669921875 -351.75599670410156 2690.199951171875C-351.75599670410156 2321.489990234375 -291.31297302246094 1936.4100341796875 -172.3579864501953 1556.3599853515625C-159.739990234375 1516.0 -155.2799835205078 1502.4599609375 -124.11497497558594 1410.5899658203125C-82.64768981933594 1288.300048828125 -61.94657897949219 1160.4300537109375 -61.94657897949219 1032.260009765625C-61.94657897949219 892.3040161132812 -86.63188171386719 751.9810180664062 -135.91798400878906 618.1489868164062C-223.04798889160156 381.4490051269531 -384.6379852294922 167.5919952392578 -597.2979583740234 7.417266845703125C-605.5649871826172 1.1625518798828125 -612.3639984130859 -4.1131744384765625 -612.3639984130859 -4.330718994140625C-612.3639984130859 -4.54827880859375 -605.5649871826172 -9.823989868164062 -597.2979583740234 -16.078704833984375C-384.6379852294922 -176.25399780273438 -223.04798889160156 -390.1109924316406 -135.91798400878906 -626.8109741210938C-86.65269470214844 -760.6640014648438 -61.96598815917969 -901.1580200195312 -61.96598815917969 -1041.199951171875C-61.96598815917969 -1169.4100341796875 -82.65467834472656 -1297.239990234375 -124.11497497558594 -1419.260009765625C-161.69798278808594 -1529.8800048828125 -179.64598083496094 -1586.1199951171875 -200.53099060058594 -1659.1099853515625C-287.66197204589844 -1963.1400146484375 -337.6999969482422 -2270.110107421875 -348.57798767089844 -2567.679931640625C-350.20899963378906 -2612.3798828125 -350.48097229003906 -2629.89990234375 -350.48097229003906 -2692.5C-350.48097229003906 -2755.2099609375 -350.1549835205078 -2774.52001953125 -348.57798767089844 -2816.5C-330.7379913330078 -3281.0400390625 -216.84799194335938 -3705.489990234375 -9.246017456054688 -4081.0400390625C-2.86212158203125 -4092.6298828125 1.52587890625e-05 -4098.5400390625 1.52587890625e-05 -4102.240234375C1.52587890625e-05 -4104.83984375 -1.4182586669921875 -4106.35009765625 -4.024688720703125 -4107.97021484375C-6.12969970703125 -4109.27001953125 -7.8339691162109375 -4110.06982421875 -9.464828491210938 -4110.06982421875C-13.901779174804688 -4110.06982421875 -17.795578002929688 -4104.1298828125 -27.738189697265625 -4086.159912109375C-328.1879577636719 -3544.659912109375 -486.87896728515625 -2955.25 -486.87896728515625 -2384.699951171875C-486.87896728515625 -2349.800048828125 -486.28497314453125 -2314.969970703125 -485.0939636230469 -2280.22998046875C-474.26995849609375 -1965.0999755859375 -419.71795654296875 -1671.239990234375 -316.48797607421875 -1372.2099609375C-298.8119812011719 -1321.030029296875 -285.75897216796875 -1277.9000244140625 -274.9349670410156 -1234.77001953125C-244.45497131347656 -1113.489990234375 -229.62696838378906 -993.6279907226562 -229.62696838378906 -878.0659790039062C-229.62696838378906 -524.0999755859375 -368.7389831542969 -210.46499633789062 -623.2409973144531 -19.885894775390625C-636.7839660644531 -9.76959228515625 -637.6539611816406 -8.844985961914062 -637.6539611816406 -4.330718994140625C-637.6539611816406 0.1835479736328125 -636.7839660644531 1.108154296875 -623.2409973144531 11.224502563476562C-368.7389831542969 201.8040008544922 -229.62696838378906 515.4390106201172 -229.62696838378906 869.4039764404297C-229.62696838378906 984.9659881591797 -244.45497131347656 1104.8299407958984 -274.9349670410156 1226.1099700927734C-285.8129577636719 1269.290023803711 -298.865966796875 1312.479965209961 -316.48797607421875 1363.550033569336C-431.0619812011719 1695.3299407958984 -487.6119689941406 2029.800033569336 -487.6119689941406 2377.540023803711C-487.6119689941406 2438.689926147461 -485.8639831542969 2500.249984741211 -482.37396240234375 2562.280014038086C-453.656982421875 3071.570053100586 -298.2679748535156 3596.209945678711 -34.48236083984375 4074.560043334961C-15.17437744140625 4109.580062866211 -15.827072143554688 4108.499984741211 -12.291763305664062 4109.580062866211Z" fill="black" /></g></svg>