<?xml version="1.0" encoding="utf-8" ?>
<svg baseProfile="tiny" height="100%" version="1.2" width="100%" xmlns="http://www.w3.org/2000/svg" xmlns:ev="http://www.w3.org/2001/xml-events" xmlns:xlink="http://www.w3.org/1999/xlink"><defs /><g transform="translate(0, 1000) scale(1, -1)"><path d="M-13.8345947265625 11282.7998046875C-12.422393798828125 11283.5 -10.968704223632812 11283.7998046875 -9.55865478515625 11283.7998046875C-4.497955322265625 11283.7998046875 0.0 11279.7998046875 0.0 11274.599609375C0.0 11274.0 -0.0589447021484375 11273.400390625 -0.1827239990234375 11272.7998046875C-0.465179443359375 11271.400390625 -6.4908447265625 11260.0 -13.4580078125 11247.400390625C-685.5800170898438 10046.599609375 -1026.4300537109375 8657.01953125 -1026.4300537109375 7202.7998046875C-1026.4300537109375 6220.669921875 -870.9619750976562 5209.0400390625 -557.0859985351562 4206.1201171875C-524.7919921875 4102.83984375 -489.95599365234375 3997.949951171875 -443.5400085449219 3863.8798828125C-320.0 3507.340087890625 -258.5419921875 3136.360107421875 -258.5419921875 2765.97998046875C-258.5419921875 2301.389892578125 -355.2349853515625 1837.739990234375 -547.3880004882812 1404.6600341796875C-791.9929809570312 853.405029296875 -1181.8699951171875 368.1510009765625 -1670.8900146484375 6.328460693359375C-1684.260009765625 -3.5573883056640625 -1695.0899658203125 -11.936798095703125 -1695.0899658203125 -12.313400268554688C-1695.0899658203125 -12.69000244140625 -1684.260009765625 -21.069503784179688 -1670.8900146484375 -30.955291748046875C-834.5490112304688 -649.7160339355469 -314.83502197265625 -1603.6500549316406 -263.0520324707031 -2614.649932861328C-259.96002197265625 -2675.159942626953 -258.4040222167969 -2735.129913330078 -258.4040222167969 -2794.679962158203C-258.4040222167969 -3173.870147705078 -321.4760437011719 -3536.189971923828 -452.4840393066406 -3914.399932861328C-832.6550598144531 -5012.230010986328 -1023.9300231933594 -6117.330108642578 -1023.9300231933594 -7214.359893798828C-1023.9300231933594 -7315.180206298828 -1022.3200378417969 -7415.939971923828 -1019.0800476074219 -7516.620147705078C-975.6810607910156 -8864.299835205078 -628.3580017089844 -10150.900421142578 -10.727630615234375 -11251.599639892578C-3.37518310546875 -11264.700225830078 -0.0801239013671875 -11271.500030517578 -0.0801239013671875 -11275.599639892578C-0.0801239013671875 -11278.599639892578 -1.709075927734375 -11280.200225830078 -4.701995849609375 -11281.700225830078C-6.879180908203125 -11282.900421142578 -8.481781005859375 -11283.799835205078 -10.0665283203125 -11283.799835205078C-14.992233276367188 -11283.799835205078 -19.745529174804688 -11274.900421142578 -41.04432678222656 -11236.500030517578C-352.4020538330078 -10675.900421142578 -595.3110198974609 -10114.299835205078 -795.0050506591797 -9494.259796142578L-857.8980560302734 -9289.009796142578C-1108.6400604248047 -8438.040069580078 -1233.7800750732422 -7570.140167236328 -1233.7800750732422 -6708.359893798828C-1233.7800750732422 -5726.330108642578 -1071.2800750732422 -4752.259796142578 -746.9880218505859 -3820.250030517578L-721.0970306396484 -3744.459991455078C-586.3480682373047 -3339.909942626953 -520.1450653076172 -2928.129913330078 -520.1450653076172 -2527.300079345703C-520.1450653076172 -1821.0200500488281 -725.6890716552734 -1148.7099914550781 -1123.9700164794922 -609.7010192871094C-1289.1999969482422 -386.093017578125 -1495.6800994873047 -180.56103515625 -1711.6600799560547 -24.741424560546875C-1718.6300506591797 -19.704330444335938 -1722.1100311279297 -16.008926391601562 -1722.1100311279297 -12.313430786132812C-1722.1100311279297 -8.6180419921875 -1718.6300506591797 -4.922607421875 -1711.6600799560547 0.114471435546875C-1066.7300262451172 465.4089660644531 -640.4090423583984 1231.8899841308594 -542.7750701904297 2101.850067138672C-527.5420379638672 2237.379852294922 -519.9070281982422 2372.699920654297 -519.9070281982422 2508.100067138672C-519.9070281982422 2933.419891357422 -595.2310638427734 3359.560028076172 -746.9880218505859 3795.620086669922C-1004.3000335693359 4535.089813232422 -1162.4800262451172 5310.140106201172 -1215.8600311279297 6092.439910888672C-1229.5601043701172 6293.430145263672 -1236.3800506591797 6494.779754638672 -1236.3800506591797 6696.169891357422C-1236.3800506591797 8257.700164794922 -826.6640472412109 9821.290008544922 -41.32676696777344 11236.799774169922C-17.8831787109375 11279.099578857422 -16.470870971679688 11281.499969482422 -13.834671020507812 11282.799774169922Z" fill="black" /></g></svg>