<?xml version="1.0" encoding="utf-8" ?>
<svg baseProfile="tiny" height="100%" version="1.2" width="100%" xmlns="http://www.w3.org/2000/svg" xmlns:ev="http://www.w3.org/2001/xml-events" xmlns:xlink="http://www.w3.org/1999/xlink"><defs /><g transform="translate(0, 1000) scale(1, -1)"><path d="M-16.558303833007812 380.7279968261719C-16.058914184570312 380.8039855957031 -15.56591796875 380.84100341796875 -15.082015991210938 380.84100341796875C-10.1328125 380.84100341796875 -6.1412506103515625 376.9649963378906 -6.1412506103515625 371.82000732421875C-6.1412506103515625 369.6610107421875 -6.371795654296875 368.885009765625 -7.8599395751953125 366.2130126953125C-15.866622924804688 351.8550109863281 -22.248809814453125 334.5740051269531 -26.032119750976562 317.06201171875C-29.116714477539062 302.75201416015625 -30.665115356445312 287.5429992675781 -30.665115356445312 271.3330078125C-30.665115356445312 232.91099548339844 -21.965316772460938 188.86599731445312 -4.401580810546875 137.8560028076172C-2.5047149658203125 132.35400390625 -1.38336181640625 128.4340057373047 -0.3668060302734375 123.7919921875L-1.52587890625e-05 122.093994140625V101.33299255371094V80.57249450683594L-0.3668060302734375 78.87480163574219C-6.6652374267578125 50.04447937011719 -23.915115356445312 25.070877075195312 -53.83531188964844 1.459686279296875C-55.11381530761719 0.45361328125 -56.16181945800781 -0.395263671875 -56.16181945800781 -0.42669677734375C-56.16181945800781 -0.4581451416015625 -55.11381530761719 -1.3070220947265625 -53.83531188964844 -2.313079833984375C-23.904708862304688 -25.934814453125 -6.67572021484375 -50.887420654296875 -0.3668060302734375 -79.72811889648438L-1.52587890625e-05 -81.42591857910156V-102.18701171875V-122.947021484375L-0.3668060302734375 -124.64501953125C-1.278564453125 -128.8270263671875 -2.6095123291015625 -133.5420379638672 -3.9823760986328125 -137.5040283203125C-21.683822631835938 -188.35902404785156 -30.598220825195312 -233.37002563476562 -30.598220825195312 -271.8640441894531C-30.598220825195312 -278.0390319824219 -30.368911743164062 -284.0450439453125 -29.909713745117188 -289.88201904296875C-27.71942138671875 -317.89501953125 -20.100509643554688 -344.26202392578125 -7.8599395751953125 -366.22802734375C-6.6531524658203125 -368.40203857421875 -6.0560760498046875 -370.28204345703125 -6.0560760498046875 -372.05401611328125C-6.0560760498046875 -373.467041015625 -6.4359283447265625 -374.8120422363281 -7.189239501953125 -376.18402099609375C-8.869918823242188 -379.24603271484375 -11.976318359375 -380.8410339355469 -15.107315063476562 -380.8410339355469C-17.677108764648438 -380.8410339355469 -20.263412475585938 -379.7660217285156 -22.09161376953125 -377.5460205078125C-23.181610107421875 -376.2260437011719 -30.91571044921875 -361.9210205078125 -36.37580871582031 -351.13702392578125C-64.65620422363281 -295.2420349121094 -78.3701171875 -245.52102661132812 -78.3701171875 -197.5320281982422C-78.3701171875 -182.87002563476562 -77.09001159667969 -168.37002563476562 -74.55412292480469 -153.905029296875C-72.70960998535156 -143.36203002929688 -69.32461547851562 -129.96902465820312 -66.02342224121094 -120.2120361328125L-64.60862731933594 -116.07203674316406C-57.095947265625 -94.16854858398438 -53.3470458984375 -75.38514709472656 -53.3470458984375 -59.492645263671875C-53.3470458984375 -49.64654541015625 -54.786041259765625 -40.91014099121094 -57.66044616699219 -33.228851318359375C-61.43324279785156 -23.136642456054688 -67.67924499511719 -14.480239868164062 -75.40293884277344 -8.632492065429688C-79.14434814453125 -5.8029327392578125 -80.21324157714844 -3.9794158935546875 -80.21324157714844 -0.426727294921875C-80.21324157714844 3.1259613037109375 -79.14434814453125 4.949462890625 -75.40293884277344 7.7790374755859375C-66.36933898925781 14.622451782226562 -59.64125061035156 24.882247924804688 -56.07804870605469 37.24855041503906C-54.25244140625 43.59324645996094 -53.340545654296875 50.69085693359375 -53.340545654296875 58.52445983886719C-53.340545654296875 74.43424987792969 -57.10185241699219 93.37974548339844 -64.608642578125 115.21894836425781C-67.66883850097656 124.126953125 -69.10453796386719 128.9479522705078 -71.41014099121094 138.16995239257812C-76.01084899902344 156.5729522705078 -78.41075134277344 176.64195251464844 -78.41075134277344 196.80494689941406V196.9569549560547C-78.41075134277344 251.41395568847656 -61.49314880371094 306.7799530029297 -24.44964599609375 373.60096740722656C-21.588638305664062 378.74696350097656 -19.974746704101562 380.2139434814453 -16.558349609375 380.7279510498047Z" fill="black" /></g></svg>