<?xml version="1.0" encoding="utf-8" ?>
<svg baseProfile="tiny" height="100%" version="1.2" width="100%" xmlns="http://www.w3.org/2000/svg" xmlns:ev="http://www.w3.org/2001/xml-events" xmlns:xlink="http://www.w3.org/1999/xlink"><defs /><g transform="translate(0, 1000) scale(1, -1)"><path d="M-13.767593383789062 11977.7001953125C-12.150787353515625 11978.400390625 -10.541778564453125 11978.7001953125 -9.026931762695312 11978.7001953125C-5.213531494140625 11978.7001953125 -1.9969482421875 11976.599609375 -0.7552337646484375 11972.7998046875C-0.3960723876953125 11971.7001953125 -0.1257781982421875 11970.7998046875 -0.1257781982421875 11969.7998046875C-0.1257781982421875 11966.400390625 -3.0582427978515625 11961.099609375 -15.40618896484375 11938.900390625C-729.1619873046875 10660.400390625 -1092.8699951171875 9185.599609375 -1092.8699951171875 7638.81005859375C-1092.8699951171875 6799.52001953125 -985.7869873046875 5939.02978515625 -769.447998046875 5077.16015625C-693.68701171875 4775.27001953125 -597.6849975585938 4453.0498046875 -496.4779968261719 4160.990234375C-398.1619873046875 3877.419921875 -349.87200927734375 3683.679931640625 -313.052001953125 3424.590087890625C-289.73199462890625 3260.639892578125 -278.3009948730469 3096.419921875 -278.3009948730469 2933.0C-278.3009948730469 1799.5400390625 -828.2389831542969 704.7230224609375 -1775.5400085449219 5.427978515625C-1789.1299743652344 -4.5963592529296875 -1800.3199157714844 -13.174819946289062 -1800.3199157714844 -13.560409545898438C-1800.3199157714844 -13.945907592773438 -1790.6800231933594 -21.367813110351562 -1778.8199157714844 -30.042709350585938C-1009.4499816894531 -596.0319671630859 -481.1520080566406 -1447.999984741211 -327.6059875488281 -2370.719955444336C-294.6579895019531 -2568.860092163086 -278.16400146484375 -2765.709945678711 -278.16400146484375 -2961.679916381836C-278.16400146484375 -3360.209945678711 -346.385009765625 -3755.080062866211 -483.1759948730469 -4149.560043334961C-681.5419921875 -4721.620101928711 -826.1240234375 -5272.279769897461 -927.9089965820312 -5843.580062866211C-1036.47998046875 -6452.729965209961 -1090.25 -7057.549789428711 -1090.25 -7651.200180053711C-1090.25 -9192.589828491211 -727.7269897460938 -10658.700180053711 -20.51470947265625 -11929.999984741211C-9.719329833984375 -11949.400375366211 -0.65887451171875 -11966.299789428711 -0.2733306884765625 -11967.700180053711C-0.0876007080078125 -11968.400375366211 -1.52587890625e-05 -11969.099594116211 -1.52587890625e-05 -11969.799789428711C-1.52587890625e-05 -11974.799789428711 -4.3600311279296875 -11978.700180053711 -9.372482299804688 -11978.700180053711C-10.654922485351562 -11978.700180053711 -11.97991943359375 -11978.499984741211 -13.285720825195312 -11977.900375366211C-16.3701171875 -11976.599594116211 -18.972518920898438 -11972.299789428711 -45.67201232910156 -11924.099594116211C-724.4350128173828 -10699.599594116211 -1138.6100006103516 -9368.190414428711 -1264.8800201416016 -8005.549789428711L-1269.699966430664 -7954.950180053711C-1274.520034790039 -7907.430160522461 -1284.540054321289 -7769.399887084961 -1289.939956665039 -7675.419906616211C-1300.4200592041016 -7491.520004272461 -1305.6600494384766 -7308.410140991211 -1305.6600494384766 -7126.060043334961C-1305.6600494384766 -6077.189926147461 -1132.250015258789 -5053.640121459961 -784.5810089111328 -4049.320053100586C-705.8319854736328 -3821.840072631836 -654.8430328369141 -3631.669906616211 -615.3239898681641 -3417.780014038086C-569.8230133056641 -3172.090072631836 -547.5579986572266 -2927.870101928711 -547.5579986572266 -2688.330062866211C-547.5579986572266 -1713.040023803711 -916.6250152587891 -815.1609954833984 -1589.229995727539 -210.1909637451172C-1657.760025024414 -148.5029754638672 -1750.8700103759766 -73.224365234375 -1816.030044555664 -26.572662353515625C-1823.3199615478516 -21.372161865234375 -1827.4000396728516 -18.08526611328125 -1827.4000396728516 -14.3394775390625C-1827.4000396728516 -9.2684326171875 -1819.9100494384766 -3.356414794921875 -1802.719985961914 9.283523559570312C-1055.1400299072266 557.9229888916016 -596.4320220947266 1468.020034790039 -551.1290435791016 2492.040054321289C-548.5620269775391 2550.199966430664 -547.2750396728516 2608.219985961914 -547.2750396728516 2666.139907836914C-547.2750396728516 3116.969985961914 -625.2810211181641 3561.639907836914 -784.5810089111328 4022.199966430664C-1134.1400299072266 5032.569839477539 -1308.3299713134766 6060.370132446289 -1308.3299713134766 7113.649917602539C-1308.3299713134766 7274.080093383789 -1304.280044555664 7435.100112915039 -1296.209976196289 7596.740249633789C-1290.709976196289 7706.520034790039 -1280.689956665039 7853.709976196289 -1273.560073852539 7930.720230102539C-1265.1700592041016 8020.839859008789 -1263.1500396728516 8041.569839477539 -1257.0699615478516 8100.839859008789C-1127.530044555664 9366.219741821289 -740.7240142822266 10624.099624633789 -127.50502014160156 11773.700210571289C-65.14231872558594 11890.599624633789 -17.526718139648438 11976.000015258789 -13.767608642578125 11977.700210571289Z" fill="black" /></g></svg>