<?xml version="1.0" encoding="utf-8" ?>
<svg baseProfile="tiny" height="100%" version="1.2" width="100%" xmlns="http://www.w3.org/2000/svg" xmlns:ev="http://www.w3.org/2001/xml-events" xmlns:xlink="http://www.w3.org/1999/xlink"><defs /><g transform="translate(0, 1000) scale(1, -1)"><path d="M-13.624893188476562 318.23199462890625C-13.130477905273438 318.2850036621094 -12.852386474609375 318.31201171875 -12.575286865234375 318.31201171875C-12.309982299804688 318.31201171875 -12.045684814453125 318.2879943847656 -11.593780517578125 318.2409973144531C-6.955810546875 317.7510070800781 -3.5263519287109375 313.85699462890625 -3.5263519287109375 309.2969970703125C-3.5263519287109375 308.989013671875 -3.5420074462890625 308.6780090332031 -3.574005126953125 308.364013671875C-3.7396392822265625 306.6990051269531 -4.0098724365234375 305.9930114746094 -5.570220947265625 303.1600036621094C-17.907577514648438 280.7250061035156 -24.226181030273438 254.01300048828125 -24.226181030273438 224.43499755859375C-24.226181030273438 221.66200256347656 -24.170578002929688 218.86399841308594 -24.059280395507812 216.04100036621094C-22.99578857421875 189.19200134277344 -16.701980590820312 157.4709930419922 -5.8404541015625 124.24099731445312L-4.91644287109375 121.40798950195312C-4.8031158447265625 121.05099487304688 -4.1144561767578125 119.02799987792969 -3.39093017578125 116.91900634765625C-1.682373046875 111.95899963378906 -1.0896148681640625 110.11099243164062 -0.488128662109375 107.80899047851562L3.0517578125e-05 105.92599487304688L-0.0174102783203125 83.88088989257812L-0.0435638427734375 61.82649230957031L-0.5055694580078125 60.1702880859375C-6.651153564453125 38.15080261230469 -20.30218505859375 18.981903076171875 -42.68778991699219 0.946136474609375C-43.55949401855469 0.2487640380859375 -44.27427673339844 -0.3440093994140625 -44.27427673339844 -0.370147705078125C-44.27427673339844 -0.39630126953125 -43.55949401855469 -0.98907470703125 -42.68778991699219 -1.6864471435546875C-20.30218505859375 -19.722198486328125 -6.651153564453125 -38.89979553222656 -0.505584716796875 -60.91059875488281L-0.0435791015625 -62.566802978515625L-0.017425537109375 -84.62120056152344L1.52587890625e-05 -106.66700744628906L-0.4881439208984375 -108.53199768066406C-1.05474853515625 -110.70301818847656 -1.577789306640625 -112.40301513671875 -2.3797607421875 -114.69502258300781C-16.852783203125 -156.14801025390625 -24.087478637695312 -192.8170166015625 -24.087478637695312 -225.03701782226562C-24.087478637695312 -254.80001831054688 -17.914077758789062 -280.7670135498047 -5.570220947265625 -303.20301818847656C-4.0279541015625 -306.0070037841797 -3.510498046875 -307.37400817871094 -3.510498046875 -309.0740203857422C-3.510498046875 -309.4300079345703 -3.5332183837890625 -309.80101013183594 -3.574005126953125 -310.20301818847656C-4.0992431640625 -315.3520050048828 -8.3143310546875 -318.31202697753906 -12.60198974609375 -318.31202697753906C-15.572677612304688 -318.31202697753906 -18.578079223632812 -316.89100646972656 -20.415481567382812 -313.7940216064453C-23.96337890625 -307.80601501464844 -31.756484985351562 -292.7510223388672 -36.585784912109375 -282.5430145263672C-56.49247741699219 -240.4870147705078 -66.25569152832031 -201.9650115966797 -66.25569152832031 -164.77301025390625C-66.25569152832031 -151.9650115966797 -65.09797668457031 -139.31600952148438 -62.798187255859375 -126.73402404785156C-60.993682861328125 -116.86601257324219 -58.7620849609375 -108.43601989746094 -54.8306884765625 -96.69441223144531C-50.785980224609375 -84.61251831054688 -49.04248046875 -78.10081481933594 -47.333984375 -68.66880798339844C-46.16838073730469 -62.22752380371094 -45.58888244628906 -56.15470886230469 -45.58888244628906 -50.47441101074219C-45.58888244628906 -31.770523071289062 -51.87178039550781 -17.321212768554688 -64.20158386230469 -7.9802093505859375C-66.95259094238281 -5.9013671875 -68.30918884277344 -3.4371490478515625 -68.30918884277344 -0.505889892578125C-68.30918884277344 -0.1676177978515625 -68.29118347167969 0.1768646240234375 -68.25508117675781 0.5276947021484375C-67.97608947753906 3.3084564208984375 -66.77317810058594 5.29595947265625 -64.20158386230469 7.2398834228515625C-54.1768798828125 14.832489013671875 -47.90928649902344 26.251876831054688 -46.15718078613281 40.120880126953125C-45.76728820800781 43.216888427734375 -45.56968688964844 46.40599060058594 -45.56968688964844 49.720489501953125C-45.56968688964844 62.63478088378906 -48.56878662109375 77.45259094238281 -54.87428283691406 96.08479309082031C-60.87168884277344 113.82398986816406 -64.28007507324219 130.02899169921875 -65.63998413085938 147.2109832763672C-66.08758544921875 152.91098022460938 -66.31318664550781 158.6169891357422 -66.31318664550781 164.34397888183594C-66.31318664550781 209.8049774169922 -52.09388732910156 256.52198791503906 -21.853790283203125 311.1799774169922C-20.432876586914062 313.75099182128906 -20.188888549804688 314.16099548339844 -19.735580444335938 314.7539825439453C-18.27978515625 316.67198181152344 -15.961090087890625 317.9879913330078 -13.6248779296875 318.2319793701172Z" fill="black" /></g></svg>