<?xml version="1.0" encoding="utf-8" ?>
<svg baseProfile="tiny" height="100%" version="1.2" width="100%" xmlns="http://www.w3.org/2000/svg" xmlns:ev="http://www.w3.org/2001/xml-events" xmlns:xlink="http://www.w3.org/1999/xlink"><defs /><g transform="translate(0, 1000) scale(1, -1)"><path d="M-15.296295166015625 10416.7001953125C-13.9364013671875 10417.900390625 -11.805099487304688 10418.5 -9.598236083984375 10418.5C-6.970733642578125 10418.5 -4.235931396484375 10417.7001953125 -2.5677642822265625 10416.099609375C-0.9147796630859375 10414.400390625 -0.0106048583984375 10412.7998046875 -0.0106048583984375 10410.7001953125C-0.0106048583984375 10407.099609375 -2.387542724609375 10402.0 -7.8036041259765625 10392.400390625C-437.14198303222656 9628.4404296875 -727.7310028076172 8759.919921875 -860.4329681396484 7843.830078125C-916.4219818115234 7457.3701171875 -944.2119598388672 7062.43994140625 -944.2119598388672 6662.9599609375C-944.2119598388672 5649.2998046875 -765.2830047607422 4606.3798828125 -414.1229705810547 3598.2900390625C-309.76698303222656 3298.760009765625 -253.79798889160156 3019.820068359375 -238.08998107910156 2721.739990234375C-235.1809844970703 2666.429931640625 -233.7329864501953 2611.27001953125 -233.7329864501953 2556.300048828125C-233.7329864501953 1727.8699951171875 -562.5279998779297 942.0380249023438 -1170.6099700927734 326.25201416015625C-1278.219955444336 217.20199584960938 -1426.810043334961 89.46530151367188 -1553.189926147461 -2.6132049560546875C-1559.509994506836 -7.217132568359375 -1564.6500091552734 -11.369705200195312 -1564.6500091552734 -11.730804443359375C-1564.6500091552734 -12.091903686523438 -1559.509994506836 -16.244400024414062 -1553.0999603271484 -20.848403930664062C-1373.729965209961 -151.6540069580078 -1191.280014038086 -317.93701171875 -1039.719955444336 -488.8240051269531C-511.8989715576172 -1084.0400695800781 -233.58396911621094 -1825.0200500488281 -233.58396911621094 -2580.280059814453C-233.58396911621094 -2891.220001220703 -280.7559814453125 -3204.570098876953 -377.1109619140625 -3511.169952392578C-386.9509582519531 -3542.490020751953 -397.9639587402344 -3575.260040283203 -414.1229553222656 -3621.750030517578C-763.7609558105469 -4625.569854736328 -941.9429626464844 -5664.649932861328 -941.9429626464844 -6674.060089111328C-941.9429626464844 -7079.029815673828 -913.2629699707031 -7479.230010986328 -855.4679870605469 -7870.450225830078C-722.0439758300781 -8774.089874267578 -439.3089599609375 -9617.870147705078 -14.4837646484375 -10380.400421142578C-3.8917388916015625 -10399.500030517578 3.0517578125e-05 -10406.799835205078 3.0517578125e-05 -10411.099639892578C3.0517578125e-05 -10413.200225830078 -0.9729156494140625 -10414.500030517578 -2.5677337646484375 -10416.099639892578C-4.2514801025390625 -10417.700225830078 -6.8802642822265625 -10418.500030517578 -9.437179565429688 -10418.500030517578C-11.815475463867188 -10418.500030517578 -14.1314697265625 -10417.799835205078 -15.567062377929688 -10416.299835205078C-18.636367797851562 -10413.099639892578 -74.15426635742188 -10312.700225830078 -111.88796997070312 -10241.900421142578C-655.3319396972656 -9223.740264892578 -993.6759948730469 -8117.980010986328 -1103.8100280761719 -6999.770050048828C-1106.5199890136719 -6972.240264892578 -1109.1399841308594 -6945.970245361328 -1109.6800231933594 -6941.540069580078C-1120.7799987792969 -6839.899932861328 -1135.2199401855469 -6608.259796142578 -1140.3699645996094 -6450.459991455078C-1143.2199401855469 -6362.000030517578 -1144.6499938964844 -6273.640167236328 -1144.6499938964844 -6185.390167236328C-1144.6499938964844 -5318.470245361328 -1007.1699523925781 -4462.779815673828 -735.3139953613281 -3640.260040283203L-683.7679748535156 -3489.050079345703C-550.5089416503906 -3102.449981689453 -486.178955078125 -2710.040069580078 -486.178955078125 -2330.020050048828C-486.178955078125 -1408.1999816894531 -864.7019958496094 -559.2440490722656 -1556.0799255371094 -42.694549560546875C-1588.8100280761719 -18.2447509765625 -1590.8799743652344 -17.016845703125 -1590.8799743652344 -13.484542846679688C-1590.8799743652344 -12.973846435546875 -1590.8299255371094 -12.4150390625 -1590.8299255371094 -11.730850219726562C-1590.8299255371094 -11.046646118164062 -1590.8799743652344 -10.487838745117188 -1590.8799743652344 -9.97711181640625C-1590.8799743652344 -6.4448089599609375 -1588.8100280761719 -5.2169189453125 -1556.0799255371094 19.23284912109375C-870.0599670410156 531.7939453125 -486.3049621582031 1376.6199340820312 -486.3049621582031 2304.9799194335938C-486.3049621582031 2546.8200073242188 -512.3469543457031 2794.3300170898438 -565.8719787597656 3043.1100463867188C-593.7659606933594 3172.9198608398438 -641.3399963378906 3345.3400268554688 -676.4559631347656 3444.3700561523438C-989.0869445800781 4325.419860839844 -1146.8399353027344 5243.129821777344 -1146.8399353027344 6174.759704589844C-1146.8399353027344 6386.689880371094 -1138.6800231933594 6599.350036621094 -1122.3199157714844 6812.459899902344C-1119.0699157714844 6854.620056152344 -1113.4699401855469 6920.789978027344 -1112.8399353027344 6923.950134277344C-1112.5699157714844 6925.209899902344 -1110.9399108886719 6941.459899902344 -1109.2299499511719 6960.059997558594C-998.9119567871094 8123.410095214844 -643.5069885253906 9270.870056152344 -67.29360961914062 10324.499938964844C-40.39219665527344 10373.599548339844 -17.011505126953125 10415.099548339844 -15.296295166015625 10416.700134277344Z" fill="black" /></g></svg>