<?xml version="1.0" encoding="utf-8" ?>
<svg baseProfile="tiny" height="100%" version="1.2" width="100%" xmlns="http://www.w3.org/2000/svg" xmlns:ev="http://www.w3.org/2001/xml-events" xmlns:xlink="http://www.w3.org/1999/xlink"><defs /><g transform="translate(0, 1000) scale(1, -1)"><path d="M-11.349594116210938 265.9880065917969C-11.027084350585938 266.0220031738281 -10.707489013671875 266.0379943847656 -10.391586303710938 266.0379943847656C-5.414947509765625 266.0379943847656 -1.363739013671875 262.010986328125 -1.363739013671875 257.0570068359375C-1.363739013671875 256.7749938964844 -1.37689208984375 256.489990234375 -1.4037933349609375 256.2019958496094C-1.555908203125 254.56500244140625 -1.8311767578125 253.81100463867188 -3.214752197265625 251.2830047607422C-14.642486572265625 230.36099243164062 -20.357192993164062 206.4149932861328 -20.357192993164062 179.52099609375C-20.357192993164062 161.375 -17.755584716796875 141.88800048828125 -12.552078247070312 121.08200073242188C-10.378890991210938 112.38999938964844 -7.9884490966796875 104.48001098632812 -4.0550384521484375 92.9617919921875C-2.7149200439453125 89.03559875488281 -1.613861083984375 84.49369812011719 -0.940185546875 80.10400390625C-0.311279296875 76.02120971679688 1.52587890625e-05 71.95330810546875 1.52587890625e-05 67.91549682617188C1.52587890625e-05 43.11830139160156 -11.74078369140625 19.456802368164062 -33.7620849609375 0.45062255859375C-34.203887939453125 0.0594635009765625 -34.57337951660156 -0.266510009765625 -34.57337951660156 -0.2882537841796875C-34.57337951660156 -0.3099822998046875 -34.203887939453125 -0.635955810546875 -33.7620849609375 -1.0271148681640625C-11.74078369140625 -20.033294677734375 1.52587890625e-05 -43.694793701171875 1.52587890625e-05 -68.49200439453125C1.52587890625e-05 -72.52980041503906 -0.311279296875 -76.59770202636719 -0.940185546875 -80.68049621582031C-1.613861083984375 -85.0701904296875 -2.7149200439453125 -89.60488891601562 -4.0550384521484375 -93.53829956054688C-7.981201171875 -105.03399658203125 -10.429580688476562 -113.16900634765625 -12.595489501953125 -121.83999633789062C-17.737289428710938 -142.4770050048828 -20.308578491210938 -161.7779998779297 -20.308578491210938 -179.7570037841797C-20.308578491210938 -206.53399658203125 -14.604385375976562 -230.375 -3.193023681640625 -251.3159942626953C-1.8287811279296875 -253.8209991455078 -1.352691650390625 -255.15699768066406 -1.352691650390625 -256.80999755859375C-1.352691650390625 -257.1310119628906 -1.3707275390625 -257.4649963378906 -1.4037933349609375 -257.8210144042969C-1.8691558837890625 -262.77301025390625 -5.9767608642578125 -266.0379943847656 -10.394577026367188 -266.0379943847656C-12.097091674804688 -266.0379943847656 -13.845687866210938 -265.5530090332031 -15.4495849609375 -264.4930114746094C-16.847686767578125 -263.5660095214844 -17.658981323242188 -262.5589904785156 -19.129486083984375 -259.9079895019531C-38.91969299316406 -224.2969970703125 -50.45188903808594 -188.38900756835938 -52.72648620605469 -155.3070068359375C-53.05607604980469 -150.51600646972656 -53.22248840332031 -145.81900024414062 -53.22248840332031 -141.18800354003906C-53.22248840332031 -120.88699340820312 -50.02278137207031 -101.875 -43.34568786621094 -81.9263916015625C-39.66578674316406 -70.93020629882812 -38.14457702636719 -64.38900756835938 -37.26078796386719 -55.703704833984375C-36.97198486328125 -52.85929870605469 -36.82847595214844 -50.09660339355469 -36.82847595214844 -47.420501708984375C-36.82847595214844 -30.161300659179688 -42.79798889160156 -16.504898071289062 -54.26219177246094 -7.8001251220703125C-56.97859191894531 -5.735626220703125 -58.20997619628906 -3.38861083984375 -58.20997619628906 -0.2882537841796875C-58.20997619628906 2.8121185302734375 -56.97859191894531 5.15911865234375 -54.26219177246094 7.2236175537109375C-42.69767761230469 16.003402709960938 -36.827880859375 29.518295288085938 -36.827880859375 46.59539794921875C-36.827880859375 56.83819580078125 -38.93959045410156 68.36250305175781 -43.20079040527344 80.91529846191406C-46.90959167480469 91.8389892578125 -49.29289245605469 101.33599853515625 -50.944488525390625 111.77400207519531C-52.18318176269531 119.61199951171875 -52.63227844238281 124.13200378417969 -53.132080078125 133.61399841308594C-53.22367858886719 135.406005859375 -53.26788330078125 137.656005859375 -53.26788330078125 140.11399841308594C-53.26788330078125 144.6529998779297 -53.11708068847656 149.8979949951172 -52.8350830078125 154.25900268554688C-50.669189453125 187.718994140625 -39.12248229980469 223.93099975585938 -19.129486083984375 259.9110107421875C-16.840377807617188 264.0400085449219 -14.790390014648438 265.6409912109375 -11.349578857421875 265.9880065917969Z" fill="black" /></g></svg>