<?xml version="1.0" encoding="utf-8" ?>
<svg baseProfile="tiny" height="100%" version="1.2" width="100%" xmlns="http://www.w3.org/2000/svg" xmlns:ev="http://www.w3.org/2001/xml-events" xmlns:xlink="http://www.w3.org/1999/xlink"><defs /><g transform="translate(0, 1000) scale(1, -1)"><path d="M-15.063995361328125 342.32598876953125C-14.524200439453125 342.42401123046875 -13.989105224609375 342.47100830078125 -13.462905883789062 342.47100830078125C-8.639114379882812 342.47100830078125 -4.5671234130859375 338.50799560546875 -4.5671234130859375 333.39801025390625C-4.5671234130859375 331.02099609375 -4.6610870361328125 330.739013671875 -6.8036956787109375 326.82000732421875C-14.058395385742188 313.5419921875 -19.6029052734375 298.1300048828125 -22.798004150390625 282.4179992675781C-25.3511962890625 269.86199951171875 -26.6217041015625 256.7909851074219 -26.6217041015625 242.99000549316406C-26.6217041015625 235.2030029296875 -26.217193603515625 227.18299865722656 -25.410491943359375 218.89199829101562C-22.647598266601562 190.4739990234375 -15.411697387695312 159.5 -3.2796783447265625 124.14801025390625C-1.776092529296875 119.75900268554688 -1.3250274658203125 118.31199645996094 -0.5262451171875 115.1820068359375L0.0 113.15301513671875V90.79632568359375V68.44003295898438L-0.6484222412109375 65.94973754882812C-6.8037109375 42.390625 -21.717315673828125 21.472137451171875 -46.72370910644531 1.32415771484375C-47.851318359375 0.4126129150390625 -48.77232360839844 -0.35797119140625 -48.77232360839844 -0.39556884765625C-48.77232360839844 -0.4331512451171875 -47.851318359375 -1.2037353515625 -46.72370910644531 -2.1152801513671875C-21.717315673828125 -22.263168334960938 -6.8037109375 -43.1817626953125 -0.6484375 -66.74087524414062L-1.52587890625e-05 -69.23117065429688V-91.58746337890625V-113.9439697265625L-0.5262603759765625 -115.97396850585938C-1.2874603271484375 -118.92398071289062 -1.75732421875 -120.49397277832031 -2.82861328125 -123.594970703125C-18.7119140625 -169.74896240234375 -26.567520141601562 -208.95596313476562 -26.567520141601562 -243.2899627685547C-26.567520141601562 -264.615966796875 -23.536819458007812 -284.0619812011719 -17.516708374023438 -302.1259765625C-14.697509765625 -310.583984375 -10.844512939453125 -319.48297119140625 -6.8037109375 -326.8599548339844C-4.670501708984375 -330.7599792480469 -4.567138671875 -331.0599670410156 -4.567138671875 -333.4379577636719C-4.567138671875 -336.1349792480469 -5.32830810546875 -338.01397705078125 -7.141998291015625 -339.8279724121094C-8.899307250976562 -341.5899658203125 -11.215713500976562 -342.4709777832031 -13.532211303710938 -342.4709777832031C-15.848617553710938 -342.4709777832031 -18.165115356445312 -341.5899658203125 -19.922409057617188 -339.8279724121094C-20.833908081054688 -338.92596435546875 -21.00311279296875 -338.6529846191406 -23.108108520507812 -334.865966796875C-40.94432067871094 -302.7559814453125 -54.091217041015625 -271.8099670410156 -61.68421936035156 -244.0689697265625C-67.94981384277344 -221.14697265625 -71.09121704101562 -198.8949737548828 -71.09121704101562 -177.46896362304688C-71.09121704101562 -176.78497314453125 -71.0880126953125 -176.10296630859375 -71.08161926269531 -175.4209747314453C-70.91241455078125 -157.29397583007812 -68.78861999511719 -140.37896728515625 -64.5880126953125 -123.6419677734375C-62.59580993652344 -115.69197082519531 -61.62791442871094 -112.45896911621094 -58.24481201171875 -102.45095825195312C-53.09510803222656 -87.2177734375 -50.125518798828125 -74.12725830078125 -49.05421447753906 -61.901275634765625C-48.805419921875 -59.05867004394531 -48.68141174316406 -56.293365478515625 -48.68141174316406 -53.60777282714844C-48.68141174316406 -33.57347106933594 -55.57951354980469 -17.978271484375 -68.99540710449219 -7.88525390625C-71.73942565917969 -5.817840576171875 -72.86711120605469 -3.6470489501953125 -72.86711120605469 -0.39556884765625C-72.86711120605469 2.855926513671875 -71.73942565917969 5.026702880859375 -68.99540710449219 7.0941314697265625C-55.48121643066406 17.263229370117188 -48.73101806640625 32.41673278808594 -48.73101806640625 52.692138671875C-48.73101806640625 66.592529296875 -51.90382385253906 82.90032958984375 -58.24481201171875 101.6600341796875C-63.91142272949219 118.42503356933594 -66.54270935058594 128.9970245361328 -68.77931213378906 144.0420379638672C-69.95391845703125 151.93603515625 -70.43321228027344 156.93502807617188 -70.96882629394531 167.25303649902344C-71.07450866699219 169.25802612304688 -71.12391662597656 171.92503356933594 -71.12391662597656 174.87803649902344C-71.12391662597656 181.11602783203125 -70.90351867675781 188.63302612304688 -70.52720642089844 193.89503479003906C-67.52000427246094 235.3650360107422 -53.20780944824219 279.0910339355469 -26.284408569335938 329.0290222167969C-24.292221069335938 332.7220153808594 -21.416610717773438 337.88104248046875 -20.99371337890625 338.5390319824219C-19.762619018554688 340.4090270996094 -17.422714233398438 341.9030456542969 -15.064010620117188 342.3260192871094Z" fill="black" /></g></svg>