<?xml version="1.0" encoding="utf-8" ?>
<svg baseProfile="tiny" height="100%" version="1.2" width="100%" xmlns="http://www.w3.org/2000/svg" xmlns:ev="http://www.w3.org/2001/xml-events" xmlns:xlink="http://www.w3.org/1999/xlink"><defs /><g transform="translate(0, 1000) scale(1, -1)"><path d="M-11.442092895507812 1743.9000244140625C-10.738983154296875 1744.0799560546875 -10.027679443359375 1744.1600341796875 -9.322219848632812 1744.1600341796875C-5.3890380859375 1744.1600341796875 -1.6395721435546875 1741.5899658203125 -0.5238037109375 1737.8199462890625C-0.1983642578125 1736.739990234375 1.52587890625e-05 1735.8699951171875 1.52587890625e-05 1734.969970703125C1.52587890625e-05 1732.8199462890625 -1.1311492919921875 1730.5 -4.3647613525390625 1724.72998046875C-81.75318908691406 1586.3900146484375 -127.16899108886719 1420.3399658203125 -135.8109893798828 1244.219970703125C-136.77198791503906 1224.22998046875 -136.94898986816406 1217.300048828125 -137.12698364257812 1187.030029296875C-137.14398193359375 1184.1800537109375 -137.15298461914062 1181.3199462890625 -137.15298461914062 1178.4599609375C-137.15298461914062 1000.8200073242188 -104.54498291015625 815.1909790039062 -40.14268493652344 626.4650268554688C-31.856185913085938 602.2459716796875 -28.93988037109375 593.2830200195312 -26.628189086914062 585.2100219726562C-13.673385620117188 539.75 -7.3271484375 494.03900146484375 -7.3271484375 448.76300048828125C-7.3271484375 283.11199951171875 -92.27958679199219 123.28500366210938 -249.33297729492188 2.8763580322265625C-252.6409912109375 0.3868408203125 -255.3079833984375 -1.818145751953125 -255.3079833984375 -1.9604034423828125C-255.3079833984375 -2.1026763916015625 -252.6409912109375 -4.3076629638671875 -249.33297729492188 -6.7971954345703125C-110.34698486328125 -113.3489990234375 -26.69927978515625 -250.98300170898438 -10.304092407226562 -400.1050109863281C-8.353546142578125 -417.8370056152344 -7.37994384765625 -435.5710144042969 -7.37994384765625 -453.2760009765625C-7.37994384765625 -506.5899963378906 -16.208984375 -559.6339721679688 -33.77668762207031 -611.5369873046875C-69.37678527832031 -716.6649780273438 -88.54597473144531 -786.7269897460938 -106.29298400878906 -876.6699829101562C-126.74897766113281 -980.364990234375 -136.90399169921875 -1081.3299560546875 -136.90399169921875 -1178.3299560546875C-136.90399169921875 -1381.6800537109375 -92.27568054199219 -1567.6099853515625 -4.3647613525390625 -1724.739990234375C-1.1311492919921875 -1730.530029296875 1.52587890625e-05 -1732.8399658203125 1.52587890625e-05 -1735.010009765625C1.52587890625e-05 -1735.9200439453125 -0.1983642578125 -1736.800048828125 -0.5238037109375 -1737.9000244140625C-1.692138671875 -1741.8399658203125 -5.4871063232421875 -1744.1600341796875 -9.31378173828125 -1744.1600341796875C-11.427886962890625 -1744.1600341796875 -13.551589965820312 -1743.449951171875 -15.247482299804688 -1741.9200439453125C-16.2432861328125 -1741.030029296875 -18.30609130859375 -1737.6500244140625 -22.467086791992188 -1730.1099853515625C-147.58297729492188 -1504.239990234375 -218.67698669433594 -1271.0799560546875 -230.37698364257812 -1048.0899658203125C-231.906982421875 -1019.1099853515625 -232.0129852294922 -1014.8699951171875 -232.0129852294922 -978.385009765625C-232.0129852294922 -941.9310302734375 -231.94198608398438 -938.552978515625 -230.41297912597656 -909.3900146484375C-224.3669891357422 -794.9429931640625 -202.70797729492188 -684.551025390625 -164.44097900390625 -573.1270141601562C-143.10198974609375 -510.9960021972656 -131.5439910888672 -459.3909912109375 -126.03099060058594 -401.52801513671875C-124.22099304199219 -382.489013671875 -123.32698059082031 -363.7590026855469 -123.32698059082031 -345.39599609375C-123.32698059082031 -203.91799926757812 -176.4099884033203 -84.21549987792969 -272.73497009277344 -12.38079833984375C-279.59898376464844 -7.2595367431640625 -280.3099822998047 -6.2637176513671875 -280.3099822998047 -1.9604034423828125C-280.3099822998047 2.3429107666015625 -279.59898376464844 3.338714599609375 -272.73497009277344 8.46002197265625C-176.4099884033203 80.29472351074219 -123.32698059082031 199.99700927734375 -123.32698059082031 341.4760284423828C-123.32698059082031 359.83802795410156 -124.22099304199219 378.56800842285156 -126.03099060058594 397.6070098876953C-131.5439910888672 455.4710235595703 -143.10198974609375 507.0750274658203 -164.44097900390625 569.2060089111328C-177.8839874267578 608.3270416259766 -186.2769775390625 636.6720123291016 -196.09298706054688 675.9000396728516C-220.54298400878906 773.6880035400391 -232.69198608398438 874.0340118408203 -232.69198608398438 976.0170440673828C-232.69198608398438 1222.199966430664 -161.89698791503906 1477.9100494384766 -22.43157958984375 1730.209976196289C-15.92327880859375 1742.020034790039 -15.140792846679688 1742.979995727539 -11.44207763671875 1743.9000396728516Z" fill="black" /></g></svg>