<?xml version="1.0" encoding="utf-8" ?>
<svg baseProfile="tiny" height="100%" version="1.2" width="100%" xmlns="http://www.w3.org/2000/svg" xmlns:ev="http://www.w3.org/2001/xml-events" xmlns:xlink="http://www.w3.org/1999/xlink"><defs /><g transform="translate(0, 1000) scale(1, -1)"><path d="M-19.590606689453125 643.6749877929688C-19.0635986328125 643.7630004882812 -18.542495727539062 643.8049926757812 -18.030899047851562 643.8049926757812C-13.141799926757812 643.8049926757812 -9.1201171875 639.9210205078125 -9.071533203125 634.8189697265625C-9.070968627929688 634.75 -9.070663452148438 634.6820068359375 -9.070663452148438 634.614990234375C-9.070663452148438 632.5499877929688 -9.35455322265625 631.7230224609375 -10.914199829101562 628.916015625C-36.15629577636719 583.6370239257812 -49.75230407714844 533.1170043945312 -52.8114013671875 473.3659973144531C-52.9635009765625 470.3699951171875 -53.03950500488281 462.2969970703125 -53.03950500488281 454.16900634765625C-53.03950500488281 446.0400085449219 -52.9635009765625 437.8559875488281 -52.8114013671875 434.635986328125C-49.75230407714844 370.34100341796875 -36.62139892578125 307.60198974609375 -9.715545654296875 228.7270050048828C-3.214813232421875 209.6739959716797 0.0 190.18299865722656 0.0 170.77000427246094C0.0 135.26400756835938 -10.753997802734375 100.02200317382812 -31.826995849609375 68.20440673828125C-47.0867919921875 45.18060302734375 -67.3555908203125 23.98150634765625 -94.97698974609375 2.1920928955078125C-96.90910339355469 0.671478271484375 -98.4833984375 -0.63446044921875 -98.4833984375 -0.7060089111328125C-98.4833984375 -0.7775726318359375 -96.90910339355469 -2.0835113525390625 -94.97698974609375 -3.6041259765625C-52.07789611816406 -37.45109558105469 -25.368896484375 -71.4591064453125 -11.057296752929688 -110.4580078125C-3.7232666015625 -130.43600463867188 -0.024627685546875 -151.52499389648438 -0.024627685546875 -172.49400329589844C-0.024627685546875 -186.9199981689453 -1.775177001953125 -201.2899932861328 -5.296844482421875 -215.2010040283203C-7.318359375 -223.1439971923828 -7.6224822998046875 -224.14599609375 -12.345306396484375 -237.92100524902344C-33.777008056640625 -300.6059875488281 -47.22990417480469 -362.03900146484375 -51.523406982421875 -416.6369934082031C-52.53230285644531 -429.51800537109375 -53.03599548339844 -442.156005859375 -53.03599548339844 -454.5429992675781C-53.03599548339844 -520.125 -38.91729736328125 -578.6680297851562 -10.914199829101562 -628.89697265625C-9.35455322265625 -631.7039794921875 -9.070663452148438 -632.530029296875 -9.070663452148438 -634.5960083007812C-9.070663452148438 -634.6630249023438 -9.070968627929688 -634.7310180664062 -9.071533203125 -634.7999877929688C-9.124603271484375 -640.094970703125 -13.420700073242188 -643.8049926757812 -18.089202880859375 -643.8049926757812C-19.714004516601562 -643.8049926757812 -21.384002685546875 -643.3560180664062 -22.935897827148438 -642.3670043945312C-24.939498901367188 -641.06201171875 -25.08270263671875 -640.864990234375 -29.55499267578125 -632.7429809570312C-54.95819091796875 -586.5880126953125 -74.04629516601562 -543.8140258789062 -88.28630065917969 -501.1650085449219C-106.04800415039062 -448.0090026855469 -115.62100219726562 -392.3160095214844 -115.62100219726562 -343.0539855957031C-115.62100219726562 -337.4389953613281 -115.49700927734375 -331.9079895019531 -115.24600219726562 -326.4739990234375C-113.11700439453125 -280.40899658203125 -106.46200561523438 -244.98699951171875 -91.91790771484375 -202.41000366210938C-81.72090148925781 -172.53500366210938 -76.44349670410156 -148.22300720214844 -74.38619995117188 -121.72900390625C-74.22518920898438 -119.66200256347656 -74.14469909667969 -114.24200439453125 -74.14469909667969 -108.86199951171875C-74.14469909667969 -103.48100280761719 -74.22518920898438 -98.14129638671875 -74.38619995117188 -96.23609924316406C-77.60629272460938 -57.88090515136719 -91.91790771484375 -29.025100708007812 -117.44599914550781 -9.471878051757812C-120.52301025390625 -7.1104583740234375 -120.63099670410156 -7.021026611328125 -121.57901000976562 -5.57196044921875C-122.52700805664062 -4.131866455078125 -123.00100708007812 -2.4189453125 -123.00100708007812 -0.7060089111328125C-123.00100708007812 1.0069122314453125 -122.52700805664062 2.7198333740234375 -121.57901000976562 4.159942626953125C-120.63099670410156 5.6089935302734375 -120.52301025390625 5.6984405517578125 -117.44599914550781 8.059844970703125C-91.91790771484375 27.61309814453125 -77.60629272460938 56.468902587890625 -74.38619995117188 94.82400512695312C-74.22518920898438 96.72930908203125 -74.14469909667969 102.06900024414062 -74.14469909667969 107.44999694824219C-74.14469909667969 112.83000183105469 -74.22518920898438 118.25 -74.38619995117188 120.31700134277344C-76.44349670410156 146.81100463867188 -81.77459716796875 171.39100646972656 -91.95370483398438 201.07000732421875C-107.73300170898438 247.14500427246094 -115.66200256347656 293.8919982910156 -115.66200256347656 341.90399169921875C-115.66200256347656 429.97900390625 -88.97920227050781 522.31201171875 -35.11869812011719 622.5650024414062C-31.666000366210938 628.9869995117188 -26.102401733398438 639.0590209960938 -25.565704345703125 639.864013671875C-24.188201904296875 641.8679809570312 -21.98779296875 643.281005859375 -19.590606689453125 643.6749877929688Z" fill="black" /></g></svg>