<?xml version="1.0" encoding="utf-8" ?>
<svg baseProfile="tiny" height="100%" version="1.2" width="100%" xmlns="http://www.w3.org/2000/svg" xmlns:ev="http://www.w3.org/2001/xml-events" xmlns:xlink="http://www.w3.org/1999/xlink"><defs /><g transform="translate(0, 1000) scale(1, -1)"><path d="M-16.291305541992188 1080.530029296875C-15.313613891601562 1080.8800048828125 -14.326614379882812 1081.0400390625 -13.361618041992188 1081.0400390625C-8.627899169921875 1081.0400390625 -4.4217376708984375 1077.0999755859375 -4.4217376708984375 1071.8800048828125V1071.7900390625C-4.4217376708984375 1069.18994140625 -4.447998046875 1069.1500244140625 -9.255508422851562 1060.469970703125C-58.979217529296875 970.3909912109375 -84.22251892089844 863.1959838867188 -84.22251892089844 744.7059936523438C-84.22251892089844 693.8070068359375 -79.56440734863281 640.823974609375 -70.18791198730469 586.218994140625C-58.39881896972656 517.4180297851562 -43.27992248535156 459.62799072265625 -16.452407836914062 380.5150146484375C-5.4925537109375 348.20599365234375 -1.52587890625e-05 315.5920104980469 -1.52587890625e-05 282.85198974609375C-1.52587890625e-05 263.2080078125 -1.961212158203125 243.51800537109375 -5.8987274169921875 223.82000732421875C-22.414108276367188 141.2969970703125 -72.57792663574219 66.77630615234375 -154.53701782226562 2.9436492919921875C-157.33001708984375 0.741607666015625 -159.63902282714844 -1.1113433837890625 -159.63902282714844 -1.2187652587890625C-159.63902282714844 -1.326202392578125 -157.65200805664062 -2.9643096923828125 -155.2080078125 -4.8441009521484375C-72.90011596679688 -68.73042297363281 -22.467819213867188 -143.52001953125 -5.8987274169921875 -226.2580108642578C-1.961212158203125 -245.95501708984375 -1.52587890625e-05 -265.6530303955078 -1.52587890625e-05 -285.3040008544922C-1.52587890625e-05 -318.0550079345703 -5.4925537109375 -350.67701721191406 -16.452407836914062 -382.95201110839844C-36.808013916015625 -442.89100646972656 -47.871917724609375 -481.6690216064453 -59.097015380859375 -532.2620391845703C-75.96151733398438 -608.3130035400391 -83.91041564941406 -676.8990020751953 -83.91041564941406 -746.6939849853516C-83.91041564941406 -770.8360137939453 -83.77610778808594 -775.9110260009766 -82.67512512207031 -794.3600006103516C-76.98200988769531 -891.3310089111328 -51.416717529296875 -984.0050201416016 -9.255508422851562 -1060.490005493164C-4.447998046875 -1069.199966430664 -4.4217376708984375 -1069.209976196289 -4.4217376708984375 -1071.810073852539V-1071.9000396728516C-4.4217376708984375 -1077.199966430664 -8.652099609375 -1081.040054321289 -13.392120361328125 -1081.040054321289C-14.65911865234375 -1081.040054321289 -15.962509155273438 -1080.760025024414 -17.231216430664062 -1080.1700592041016C-20.185211181640625 -1078.800064086914 -20.802810668945312 -1077.8299713134766 -32.3502197265625 -1056.459976196289C-118.77101135253906 -896.4870147705078 -162.28302001953125 -739.6439971923828 -162.28302001953125 -590.6200103759766C-162.28302001953125 -510.19102478027344 -149.6090087890625 -432.0390167236328 -124.16502380371094 -356.9040069580078C-112.67100524902344 -322.9870147705078 -108.58900451660156 -308.8350067138672 -103.67501831054688 -285.87400817871094C-97.30351257324219 -256.00401306152344 -94.16542053222656 -227.42501831054688 -94.16542053222656 -200.48802185058594C-94.16542053222656 -118.66401672363281 -123.12101745605469 -52.00151062011719 -178.3570098876953 -10.402908325195312C-182.6000213623047 -7.207275390625 -184.72100830078125 -4.2130279541015625 -184.72100830078125 -1.218780517578125C-184.72100830078125 1.775482177734375 -182.6000213623047 4.7697296142578125 -178.3570098876953 7.9653778076171875C-122.95402526855469 49.67668151855469 -94.13581848144531 116.74699401855469 -94.13581848144531 198.26998901367188C-94.13581848144531 236.833984375 -100.58500671386719 278.63197326660156 -113.71900939941406 322.50999450683594C-116.05500793457031 330.29698181152344 -118.39100646972656 337.4669952392578 -124.16502380371094 354.4659881591797C-149.75302124023438 430.0349884033203 -162.4920196533203 508.6479949951172 -162.4920196533203 589.5129852294922C-162.4920196533203 743.2219696044922 -116.4630126953125 905.0649871826172 -25.153213500976562 1069.5999603271484C-19.970413208007812 1078.9100189208984 -19.648117065429688 1079.3199310302734 -16.29132080078125 1080.530014038086Z" fill="black" /></g></svg>