<?xml version="1.0" encoding="utf-8" ?>
<svg baseProfile="tiny" height="100%" version="1.2" width="100%" xmlns="http://www.w3.org/2000/svg" xmlns:ev="http://www.w3.org/2001/xml-events" xmlns:xlink="http://www.w3.org/1999/xlink"><defs /><g transform="translate(0, 1000) scale(1, -1)"><path d="M-11.13519287109375 1537.0999755859375C-10.480697631835938 1537.22998046875 -9.830642700195312 1537.300048828125 -9.192596435546875 1537.300048828125C-4.8256072998046875 1537.300048828125 -1.0196075439453125 1534.3199462890625 -0.17779541015625 1529.9300537109375C-0.067535400390625 1529.3399658203125 0.0 1528.800048828125 0.0 1528.25C0.0 1526.0699462890625 -1.08056640625 1523.780029296875 -4.829498291015625 1516.93994140625C-71.46949768066406 1396.2099609375 -110.02700805664062 1255.3800048828125 -117.67599487304688 1104.8699951171875C-118.6409912109375 1085.75 -118.77899169921875 1080.1300048828125 -118.95098876953125 1052.4300537109375C-118.97000122070312 1049.52001953125 -118.97900390625 1046.6099853515625 -118.97900390625 1043.7099609375C-118.97900390625 942.447021484375 -107.85299682617188 845.6270141601562 -83.70179748535156 736.6290283203125C-68.78189086914062 669.0590209960938 -53.75860595703125 616.718994140625 -25.848297119140625 534.780029296875C-10.928604125976562 490.9739990234375 -3.5771331787109375 444.7309875488281 -3.5771331787109375 398.3370056152344C-3.5771331787109375 323.97601318359375 -22.46270751953125 249.22500610351562 -59.340606689453125 183.49000549316406C-98.3804931640625 113.92098999023438 -152.16799926757812 53.000701904296875 -219.46299743652344 2.0731353759765625C-222.0469970703125 0.1090850830078125 -224.1490020751953 -1.579315185546875 -224.1490020751953 -1.717132568359375C-224.1490020751953 -1.8549652099609375 -222.0469970703125 -3.543365478515625 -219.46299743652344 -5.507415771484375C-140.38400268554688 -65.35940551757812 -77.3616943359375 -142.26800537109375 -41.87089538574219 -222.24200439453125C-16.300201416015625 -279.8349914550781 -3.4068756103515625 -341.2229919433594 -3.4068756103515625 -402.1109924316406C-3.4068756103515625 -448.2130126953125 -10.7987060546875 -494.0299987792969 -25.675994873046875 -537.697021484375C-50.037200927734375 -609.1610107421875 -63.68220520019531 -655.2990112304688 -76.98260498046875 -710.843994140625C-104.9320068359375 -827.6510009765625 -118.8590087890625 -939.4990234375 -118.8590087890625 -1045.3499755859375C-118.8590087890625 -1220.4599609375 -80.74189758300781 -1379.1700439453125 -4.9328765869140625 -1516.760009765625C-1.0954437255859375 -1523.75 -0.000823974609375 -1526.06005859375 -0.000823974609375 -1528.25C-0.000823974609375 -1528.7900390625 -0.068206787109375 -1529.3299560546875 -0.17779541015625 -1529.9200439453125C-1.0533447265625 -1534.5400390625 -5.1268768310546875 -1537.300048828125 -9.245193481445312 -1537.300048828125C-11.610000610351562 -1537.300048828125 -13.989501953125 -1536.3900146484375 -15.786895751953125 -1534.4000244140625C-16.4071044921875 -1533.7099609375 -19.508193969726562 -1528.47998046875 -22.643798828125 -1522.7900390625C-146.6820068359375 -1298.31005859375 -209.3300018310547 -1072.97998046875 -209.3300018310547 -856.6849975585938C-209.3300018310547 -737.5850219726562 -190.33399963378906 -621.22900390625 -152.13400268554688 -509.2699890136719C-137.4199981689453 -466.2330017089844 -130.80499267578125 -442.2850036621094 -124.08499145507812 -408.13800048828125C-116.79100036621094 -370.9800109863281 -113.21701049804688 -334.8659973144531 -113.21701049804688 -300.2850036621094C-113.21701049804688 -177.06100463867188 -158.6009979248047 -73.29640197753906 -242.7899932861328 -11.089508056640625C-247.9239959716797 -7.2991943359375 -249.06100463867188 -5.6107940673828125 -249.06100463867188 -1.717132568359375C-249.06100463867188 2.176513671875 -247.9239959716797 3.8649139404296875 -242.7899932861328 7.6551971435546875C-157.95199584960938 70.33499145507812 -113.2340087890625 174.53399658203125 -113.2340087890625 297.0299987792969C-113.2340087890625 357.968994140625 -124.30000305175781 423.43499755859375 -146.99899291992188 490.5710144042969C-160.09300231933594 529.2670288085938 -164.39999389648438 543.0150146484375 -171.0500030517578 567.1690063476562C-191.62100219726562 641.9760131835938 -204.197998046875 719.8829956054688 -208.12600708007812 796.9979858398438C-209.19400024414062 818.1199951171875 -209.36700439453125 823.77099609375 -209.57400512695312 846.27197265625C-209.60299682617188 849.5770263671875 -209.6179962158203 852.885009765625 -209.6179962158203 856.1950073242188C-209.6179962158203 1073.1099853515625 -146.25 1299.1400146484375 -22.643798828125 1522.800048828125C-15.752395629882812 1535.280029296875 -14.891006469726562 1536.3800048828125 -11.13519287109375 1537.0999755859375Z" fill="black" /></g></svg>