<?xml version="1.0" encoding="utf-8" ?>
<svg baseProfile="tiny" height="100%" version="1.2" width="100%" xmlns="http://www.w3.org/2000/svg" xmlns:ev="http://www.w3.org/2001/xml-events" xmlns:xlink="http://www.w3.org/1999/xlink"><defs /><g transform="translate(0, 1000) scale(1, -1)"><path d="M-20.46099853515625 534.2449951171875C-19.754196166992188 534.3980102539062 -19.058303833007812 534.4710083007812 -18.38079833984375 534.4710083007812C-13.36920166015625 534.4710083007812 -9.363632202148438 530.4760131835938 -9.363632202148438 525.4619750976562C-9.363632202148438 524.8060302734375 -9.432205200195312 524.1329956054688 -9.576080322265625 523.448974609375C-9.813034057617188 522.2940063476562 -10.10919189453125 521.7009887695312 -12.227005004882812 517.8209838867188C-34.06370544433594 478.12298583984375 -44.983795166015625 432.2900085449219 -44.983795166015625 379.8949890136719C-44.983795166015625 325.1199951171875 -33.04930114746094 263.17401123046875 -9.176223754882812 193.56900024414062C-2.99554443359375 175.53700256347656 -0.007293701171875 159.25399780273438 -0.007293701171875 142.63299560546875C-0.007293701171875 135.15899658203125 -0.611419677734375 127.61700439453125 -1.8011322021484375 119.8179931640625C-8.465362548828125 76.12979125976562 -33.16749572753906 38.469390869140625 -78.83979797363281 2.3787689208984375C-80.85389709472656 0.794158935546875 -82.49771118164062 -0.5386810302734375 -82.49771118164062 -0.5831146240234375C-82.49771118164062 -0.6275482177734375 -80.85389709472656 -1.96038818359375 -78.83979797363281 -3.5449981689453125C-33.16749572753906 -39.63560485839844 -8.465362548828125 -77.29598999023438 -1.8011322021484375 -120.9840087890625C-0.6072845458984375 -128.80299377441406 0.0 -136.3470001220703 0.0 -143.8209991455078C0.0 -160.45199584960938 -3.0072174072265625 -176.73899841308594 -9.250274658203125 -194.95700073242188C-30.664703369140625 -257.3940124511719 -42.0679931640625 -311.6700134277344 -44.6300048828125 -363.41400146484375C-44.76139831542969 -365.94000244140625 -44.82440185546875 -372.7749938964844 -44.82440185546875 -379.625C-44.82440185546875 -386.67401123046875 -44.75770568847656 -393.739990234375 -44.6300048828125 -396.14300537109375C-42.127197265625 -442.6600036621094 -31.405197143554688 -482.9259948730469 -12.227005004882812 -517.802978515625C-9.63531494140625 -522.5269775390625 -9.35394287109375 -523.2670288085938 -9.35394287109375 -525.4299926757812C-9.35394287109375 -530.8629760742188 -13.826202392578125 -534.4710083007812 -18.466201782226562 -534.4710083007812C-20.680496215820312 -534.4710083007812 -22.932998657226562 -533.6500244140625 -24.75579833984375 -531.81201171875C-26.1033935546875 -530.4500122070312 -30.072296142578125 -523.4010009765625 -38.306396484375 -507.73199462890625C-81.02679443359375 -426.5140075683594 -102.27499389648438 -351.30499267578125 -102.27499389648438 -280.3710021972656C-102.27499389648438 -241.58399963378906 -95.92208862304688 -204.0749969482422 -83.25299072265625 -167.5590057373047C-74.13040161132812 -141.2729949951172 -69.55429077148438 -120.55400085449219 -67.67349243164062 -96.99249267578125C-67.54679870605469 -95.3656005859375 -67.4862060546875 -91.88020324707031 -67.4862060546875 -88.2113037109375C-67.4862060546875 -83.73159790039062 -67.57659912109375 -78.97821044921875 -67.74749755859375 -76.99980163574219C-70.4132080078125 -46.67010498046875 -81.84609985351562 -23.922805786132812 -102.10501098632812 -8.6690673828125C-105.32598876953125 -6.2477264404296875 -106.93699645996094 -3.4154205322265625 -106.93699645996094 -0.5831146240234375C-106.93699645996094 2.2491912841796875 -105.32598876953125 5.0814971923828125 -102.10501098632812 7.502838134765625C-84.61550903320312 20.66839599609375 -73.21218872070312 40.4241943359375 -69.11000061035156 64.622802734375C-68.03140258789062 70.9971923828125 -67.40060424804688 80.10519409179688 -67.40060424804688 87.88490295410156C-67.40060424804688 90.78720092773438 -67.4884033203125 93.50460815429688 -67.67349243164062 95.8262939453125C-69.49510192871094 118.52899169921875 -73.74539184570312 138.35899353027344 -82.11270141601562 162.98699951171875C-86.22970581054688 175.13099670410156 -87.62179565429688 179.5590057373047 -89.70989990234375 187.156005859375C-98.1387939453125 217.96099853515625 -102.39199829101562 249.0229949951172 -102.39199829101562 280.77099609375C-102.39199829101562 356.1210021972656 -78.43479919433594 435.33099365234375 -29.494796752929688 524.114990234375L-26.518096923828125 529.52099609375C-25.199996948242188 531.9199829101562 -22.875 533.7260131835938 -20.46099853515625 534.2449951171875Z" fill="black" /></g></svg>