<?xml version="1.0" encoding="utf-8" ?>
<svg baseProfile="tiny" height="100%" version="1.2" width="100%" xmlns="http://www.w3.org/2000/svg" xmlns:ev="http://www.w3.org/2001/xml-events" xmlns:xlink="http://www.w3.org/1999/xlink"><defs /><g transform="translate(0, 1000) scale(1, -1)"><path d="M-17.817901611328125 423.5060119628906C-17.4136962890625 423.552001953125 -17.002197265625 423.5840148925781 -16.782394409179688 423.5840148925781C-16.72259521484375 423.5840148925781 -16.677001953125 423.58099365234375 -16.649505615234375 423.57598876953125C-16.52099609375 423.5530090332031 -16.053695678710938 423.5060119628906 -15.597991943359375 423.4599914550781C-11.695602416992188 423.09698486328125 -8.272186279296875 419.5690002441406 -7.8515625 415.50299072265625C-7.8121795654296875 415.1109924316406 -7.7903900146484375 414.7460021972656 -7.7903900146484375 414.3940124511719C-7.7903900146484375 412.65899658203125 -8.320571899414062 411.2359924316406 -9.884567260742188 408.39898681640625C-26.833892822265625 377.5010070800781 -35.31779479980469 342.4010009765625 -35.31779479980469 302.0530090332031C-35.31779479980469 258.8210144042969 -25.5780029296875 209.56199645996094 -6.07562255859375 152.98899841308594C-3.1546478271484375 144.51800537109375 -1.717529296875 138.78199768066406 -0.4673614501953125 130.70799255371094L0.0 127.70500183105469V112.85499572753906V98.01658630371094L-0.479034423828125 94.88528442382812C-5.17596435546875 63.94627380371094 -20.984298706054688 37.38887023925781 -50.41600036621094 11.018264770507812C-52.320404052734375 9.312454223632812 -58.12730407714844 4.4753265380859375 -61.749298095703125 1.5777130126953125C-63.09300231933594 0.491119384765625 -64.2030029296875 -0.4319000244140625 -64.2030029296875 -0.4786376953125C-64.2030029296875 -0.5253753662109375 -63.09300231933594 -1.448394775390625 -61.749298095703125 -2.535003662109375C-58.12730407714844 -5.4326171875 -52.320404052734375 -10.269729614257812 -50.41600036621094 -11.975631713867188C-20.984298706054688 -38.34613037109375 -5.17596435546875 -64.90362548828125 -0.479034423828125 -95.842529296875L0.0 -98.97383117675781V-113.81202697753906V-128.66302490234375L-0.4673614501953125 -131.66502380371094C-1.6357574462890625 -139.248046875 -3.2364501953125 -145.74404907226562 -5.619964599609375 -152.60304260253906C-25.373214721679688 -209.53904724121094 -35.238311767578125 -259.0220489501953 -35.238311767578125 -302.4230499267578C-35.238311767578125 -342.60704040527344 -26.781021118164062 -377.5780487060547 -9.88458251953125 -408.4220428466797C-8.400726318359375 -411.1210479736328 -8.00347900390625 -412.1370391845703 -7.8515777587890625 -413.58604431152344C-7.8170318603515625 -413.92503356933594 -7.8002471923828125 -414.25904846191406 -7.8002471923828125 -414.58604431152344C-7.8002471923828125 -419.91603088378906 -12.24700927734375 -423.5840606689453 -16.904510498046875 -423.5840606689453C-19.120513916015625 -423.5840606689453 -21.384109497070312 -422.75303649902344 -23.23931884765625 -420.87705993652344C-24.337509155273438 -419.7670440673828 -25.40081787109375 -417.9320526123047 -30.938919067382812 -407.6620330810547C-65.534912109375 -343.44703674316406 -82.99070739746094 -288.31105041503906 -85.70130920410156 -234.6820526123047C-85.96272277832031 -229.49205017089844 -86.09521484375 -224.39505004882812 -86.09521484375 -219.3660430908203C-86.09521484375 -189.0970458984375 -81.29281616210938 -161.2710418701172 -70.86280822753906 -130.1110382080078C-65.44151306152344 -113.94105529785156 -62.96452331542969 -104.65205383300781 -60.63941955566406 -91.78825378417969C-59.0836181640625 -83.17524719238281 -58.314117431640625 -74.98934936523438 -58.314117431640625 -67.29243469238281C-58.314117431640625 -41.57774353027344 -66.90321350097656 -21.32025146484375 -83.45802307128906 -8.820953369140625C-86.85801696777344 -6.2505035400390625 -88.11991882324219 -4.3694000244140625 -88.42372131347656 -1.436737060546875C-88.46281433105469 -1.0466461181640625 -88.48292541503906 -0.669219970703125 -88.48292541503906 -0.302642822265625C-88.48292541503906 2.833221435546875 -87.01481628417969 5.1751556396484375 -83.45802307128906 7.8636322021484375C-66.9337158203125 20.337554931640625 -58.314910888671875 40.536651611328125 -58.314910888671875 66.27964782714844C-58.314910888671875 71.2801513671875 -58.64012145996094 76.48985290527344 -59.29571533203125 81.89274597167969C-61.03660583496094 96.18214416503906 -64.33151245117188 109.66496276855469 -70.92121887207031 129.32894897460938C-79.45042419433594 154.82395935058594 -83.89030456542969 176.39195251464844 -85.46760559082031 200.01695251464844C-85.90620422363281 206.6219482421875 -86.12771606445312 213.21795654296875 -86.12771606445312 219.81996154785156C-86.12771606445312 280.57395935058594 -67.37721252441406 341.8229522705078 -26.592514038085938 415.5729522705078C-23.204208374023438 421.7069549560547 -21.673614501953125 423.08595275878906 -17.817916870117188 423.50596618652344Z" fill="black" /></g></svg>