<?xml version="1.0" encoding="utf-8" ?>
<svg baseProfile="tiny" height="100%" version="1.2" width="100%" xmlns="http://www.w3.org/2000/svg" xmlns:ev="http://www.w3.org/2001/xml-events" xmlns:xlink="http://www.w3.org/1999/xlink"><defs /><g transform="translate(0, 1000) scale(1, -1)"><path d="M-14.115493774414062 7472.509765625C-12.605987548828125 7473.43017578125 -10.899688720703125 7473.85986328125 -9.211227416992188 7473.85986328125C-5.850860595703125 7473.85986328125 -2.5610809326171875 7472.14013671875 -1.033538818359375 7469.14013671875C-0.4434356689453125 7468.02001953125 -0.0664825439453125 7467.02001953125 -0.0664825439453125 7465.72998046875C-0.0664825439453125 7461.83984375 -3.5020599365234375 7455.330078125 -14.880477905273438 7434.8701171875C-403.66697692871094 6737.31982421875 -625.6779632568359 5921.490234375 -660.5629730224609 5062.52001953125C-664.3119964599609 4969.10986328125 -665.1529998779297 4925.66015625 -665.1529998779297 4812.35986328125C-665.1529998779297 4713.27978515625 -664.6939544677734 4684.14013671875 -662.4759979248047 4613.06982421875C-640.6719818115234 3935.25 -512.6829681396484 3262.030029296875 -274.75999450683594 2575.0400390625C-192.0369873046875 2336.0400390625 -150.72898864746094 2091.030029296875 -150.72898864746094 1846.550048828125C-150.72898864746094 1577.3399658203125 -200.81597900390625 1308.77001953125 -300.8469696044922 1049.5699462890625C-458.21299743652344 641.8900146484375 -743.7209930419922 270.239990234375 -1104.050033569336 4.2398681640625C-1112.8499603271484 -2.262847900390625 -1119.959945678711 -7.7710418701171875 -1119.959945678711 -8.077056884765625C-1119.959945678711 -8.383071899414062 -1112.8499603271484 -13.89129638671875 -1104.1299896240234 -20.393997192382812C-612.9019622802734 -383.0929718017578 -275.5249786376953 -925.1909942626953 -180.58499145507812 -1504.469985961914C-160.5909881591797 -1626.469985961914 -150.5579833984375 -1746.8499908447266 -150.5579833984375 -1866.449966430664C-150.5579833984375 -2112.040054321289 -192.85398864746094 -2354.370132446289 -278.0499725341797 -2600.750015258789C-535.4050140380859 -3344.659927368164 -663.5469818115234 -4082.000015258789 -663.5469818115234 -4819.330093383789C-663.5469818115234 -4926.740249633789 -662.7050018310547 -4974.319839477539 -659.0330047607422 -5066.430191040039C-624.6829681396484 -5922.799819946289 -402.5199737548828 -6739.470230102539 -14.650985717773438 -7434.569839477539C-4.3076324462890625 -7453.089859008789 1.52587890625e-05 -7461.540054321289 1.52587890625e-05 -7466.220230102539C1.52587890625e-05 -7469.120132446289 -1.654693603515625 -7470.569839477539 -4.55267333984375 -7472.060073852539C-6.4444580078125 -7473.040054321289 -7.90618896484375 -7473.859878540039 -9.413131713867188 -7473.859878540039C-15.097091674804688 -7473.859878540039 -21.424179077148438 -7462.149917602539 -53.896881103515625 -7402.819839477539C-570.2379455566406 -6460.540054321289 -839.3959655761719 -5422.819839477539 -839.3959655761719 -4401.270034790039C-839.3959655761719 -4152.799819946289 -823.4709777832031 -3905.270034790039 -791.3059997558594 -3660.310073852539C-738.5189514160156 -3258.139907836914 -652.3769836425781 -2896.510025024414 -514.2899475097656 -2497.469985961914C-416.1519775390625 -2213.929946899414 -368.7599792480469 -1926.939956665039 -368.7599792480469 -1650.010025024414C-368.7599792480469 -991.1200103759766 -637.0509948730469 -389.16200256347656 -1128.4499206542969 -25.902236938476562C-1140.3499450683594 -17.066131591796875 -1146.3000183105469 -12.571624755859375 -1146.3000183105469 -8.07708740234375C-1146.3000183105469 -3.582550048828125 -1140.3499450683594 0.9119720458984375 -1128.4499206542969 9.748046875C-637.0629577636719 373.052978515625 -368.6589660644531 975.5379638671875 -368.6589660644531 1634.3298950195312C-368.6589660644531 1911.2399291992188 -416.0779724121094 2198.1000366210938 -514.2899475097656 2481.3200073242188C-719.1639709472656 3072.2299194335938 -820.0709533691406 3621.5900268554688 -839.3499450683594 4251.589782714844C-840.0379943847656 4273.279724121094 -840.3829650878906 4335.499938964844 -840.3829650878906 4397.709899902344C-840.3829650878906 4459.930114746094 -840.0379943847656 4522.140075683594 -839.3499450683594 4543.830017089844C-834.9889831542969 4687.890075683594 -828.7159729003906 4797.509704589844 -818.1579895019531 4917.160095214844C-815.0219421386719 4952.049743652344 -808.7489929199219 5016.459899902344 -808.2129821777344 5018.149841308594C-808.0599670410156 5018.759704589844 -807.1419982910156 5026.180114746094 -806.3009948730469 5034.600036621094C-740.7379455566406 5663.979919433594 -560.3449401855469 6324.660095214844 -288.1479797363281 6931.939880371094C-248.90196228027344 7019.459899902344 -189.07696533203125 7145.299743652344 -161.0009765625 7199.620056152344L-142.10397338867188 7236.729919433594C-95.20826721191406 7329.140075683594 -19.011672973632812 7469.450134277344 -14.115463256835938 7472.509704589844Z" fill="black" /></g></svg>