<?xml version="1.0" encoding="utf-8" ?>
<svg baseProfile="tiny" height="100%" version="1.2" width="100%" xmlns="http://www.w3.org/2000/svg" xmlns:ev="http://www.w3.org/2001/xml-events" xmlns:xlink="http://www.w3.org/1999/xlink"><defs /><g transform="translate(0, 1000) scale(1, -1)"><path d="M-13.676193237304688 5578.02978515625C-12.249679565429688 5578.75 -10.728988647460938 5579.080078125 -9.239913940429688 5579.080078125C-5.8990478515625 5579.080078125 -2.717559814453125 5577.39013671875 -1.1173248291015625 5574.4599609375C-0.3911590576171875 5573.169921875 1.52587890625e-05 5571.919921875 1.52587890625e-05 5570.490234375C1.52587890625e-05 5567.759765625 -1.431182861328125 5564.35009765625 -4.6866912841796875 5558.669921875C-98.28338623046875 5393.6201171875 -189.30198669433594 5192.47998046875 -259.1689910888672 4996.16015625C-411.8579864501953 4567.08984375 -488.03199768066406 4100.68017578125 -488.03199768066406 3617.280029296875C-488.03199768066406 3083.449951171875 -395.1329803466797 2528.89990234375 -209.79298400878906 1981.0400390625L-184.74098205566406 1907.0C-128.10198974609375 1739.2099609375 -99.77888488769531 1564.3800048828125 -99.77888488769531 1389.239990234375C-99.77888488769531 1214.449951171875 -127.98698425292969 1039.3399658203125 -184.41098022460938 870.5659790039062C-297.10997009277344 533.5910034179688 -518.4109954833984 231.25299072265625 -816.2549896240234 7.3740997314453125C-825.9059906005859 0.1692657470703125 -833.7709808349609 -5.9779815673828125 -833.7709808349609 -6.3084716796875C-833.7709808349609 -6.5728607177734375 -828.4169769287109 -10.803207397460938 -821.8740081787109 -15.628509521484375C-557.4759979248047 -212.07601928710938 -348.93199157714844 -476.4729919433594 -226.5819854736328 -770.4840087890625C-142.2109832763672 -973.2230224609375 -99.80967712402344 -1187.7099609375 -99.80967712402344 -1401.9599609375C-99.80967712402344 -1576.7900390625 -128.0419921875 -1751.469970703125 -184.74098205566406 -1919.489990234375L-210.1239776611328 -1994.510009765625C-394.6969757080078 -2540.25 -486.53797912597656 -3092.199951171875 -486.53797912597656 -3622.840087890625C-486.53797912597656 -4252.35009765625 -357.2839813232422 -4851.8798828125 -100.26597595214844 -5375.5L-87.31086730957031 -5401.93994140625C-71.18266296386719 -5435.3798828125 -26.102859497070312 -5520.85009765625 -4.6866607666015625 -5558.58984375C-1.788055419921875 -5563.68017578125 -0.366058349609375 -5568.0400390625 -0.366058349609375 -5571.419921875C-0.366058349609375 -5576.27001953125 -3.314788818359375 -5579.080078125 -9.049209594726562 -5579.080078125H-9.228164672851562C-14.86614990234375 -5579.080078125 -14.945053100585938 -5578.9501953125 -28.812957763671875 -5553.9599609375C-429.8079528808594 -4833.52001953125 -641.6139526367188 -4040.070068359375 -641.6139526367188 -3264.739990234375C-641.6139526367188 -3207.300048828125 -640.4519653320312 -3149.9599609375 -638.116943359375 -3092.75C-621.3279418945312 -2681.6201171875 -545.511962890625 -2274.3798828125 -415.2959289550781 -1896.68994140625C-368.3659362792969 -1760.449951171875 -346.6189270019531 -1681.72998046875 -325.7979431152344 -1572.469970703125C-302.68194580078125 -1451.27001953125 -291.40594482421875 -1331.3299560546875 -291.40594482421875 -1214.3399658203125C-291.40594482421875 -725.7849731445312 -488.0399475097656 -288.55999755859375 -840.3809204101562 -25.54339599609375C-853.5679321289062 -15.72760009765625 -860.1619262695312 -10.985000610351562 -860.1619262695312 -6.2423553466796875C-860.1619262695312 -1.499725341796875 -853.5679321289062 3.2429046630859375 -840.3809204101562 13.058700561523438C-485.2559509277344 278.08799743652344 -291.44293212890625 716.7869720458984 -291.44293212890625 1202.1700286865234C-291.44293212890625 1394.0899505615234 -321.7459411621094 1593.3199310302734 -384.3619384765625 1791.989974975586C-390.376953125 1811.0899505615234 -399.4979248046875 1838.259994506836 -415.89093017578125 1885.8499603271484C-565.5899658203125 2321.110092163086 -642.7389526367188 2789.659896850586 -642.7389526367188 3260.729965209961C-642.7389526367188 3314.030014038086 -641.751953125 3367.360092163086 -639.7699584960938 3420.679916381836C-612.8009643554688 4147.310043334961 -401.8779296875 4883.790023803711 -28.81292724609375 5554.040023803711C-16.518417358398438 5576.180160522461 -16.05572509765625 5576.839828491211 -13.676116943359375 5578.029769897461Z" fill="black" /></g></svg>