<?xml version="1.0" encoding="utf-8" ?>
<svg baseProfile="tiny" height="100%" version="1.2" width="100%" xmlns="http://www.w3.org/2000/svg" xmlns:ev="http://www.w3.org/2001/xml-events" xmlns:xlink="http://www.w3.org/1999/xlink"><defs /><g transform="translate(0, 1000) scale(1, -1)"><path d="M-14.31280517578125 337.8559875488281C-13.975906372070312 337.8909912109375 -13.59320068359375 337.9100036621094 -13.334701538085938 337.9100036621094C-13.244598388671875 337.9100036621094 -13.169692993164062 337.9070129394531 -13.11700439453125 337.90301513671875C-11.809906005859375 337.7909851074219 -11.45770263671875 337.7359924316406 -10.753097534179688 337.5320129394531C-6.886566162109375 336.364013671875 -4.335662841796875 332.8550109863281 -4.335662841796875 328.843994140625C-4.335662841796875 328.5559997558594 -4.3487548828125 328.2659912109375 -4.37542724609375 327.9739990234375C-4.52374267578125 326.2869873046875 -4.7369537353515625 325.76800537109375 -7.045166015625 321.5039978027344C-18.224700927734375 300.85101318359375 -24.518997192382812 276.84100341796875 -25.974395751953125 249.38400268554688C-26.053192138671875 247.8820037841797 -26.092605590820312 243.73399353027344 -26.092605590820312 239.56100463867188C-26.092605590820312 235.38800048828125 -26.053192138671875 231.1909942626953 -25.974395751953125 229.5919952392578C-24.352203369140625 196.78599548339844 -16.834197998046875 161.8939971923828 -2.4287261962890625 120.30000305175781C-1.6871337890625 118.15798950195312 -1.3163299560546875 116.91600036621094 -0.5932769775390625 114.18099975585938L0.0 111.91000366210938V89.55120849609375V67.201416015625L-0.426422119140625 65.5421142578125C-6.4518890380859375 42.042694091796875 -20.857406616210938 21.658096313476562 -45.7471923828125 1.42181396484375C-46.915191650390625 0.4669952392578125 -47.879302978515625 -0.3487548828125 -47.879302978515625 -0.395111083984375C-47.879302978515625 -0.4414520263671875 -46.915191650390625 -1.2572174072265625 -45.7471923828125 -2.212005615234375C-20.857406616210938 -22.44830322265625 -6.4518890380859375 -42.83290100097656 -0.426422119140625 -66.33230590820312L0.0 -67.99160766601562V-90.34140014648438V-112.70098876953125L-0.5932769775390625 -114.97198486328125C-1.31634521484375 -117.69699096679688 -1.6871490478515625 -118.94900512695312 -2.428741455078125 -121.08999633789062C-18.250518798828125 -166.79800415039062 -26.105422973632812 -205.81300354003906 -26.105422973632812 -239.9499969482422C-26.105422973632812 -264.69500732421875 -21.978012084960938 -286.8760070800781 -13.765914916992188 -307.1839904785156C-11.87481689453125 -311.875 -9.260696411132812 -317.4649963378906 -7.0451812744140625 -321.5530090332031C-4.736968994140625 -325.8169860839844 -4.5237579345703125 -326.33599853515625 -4.3754425048828125 -328.0140075683594C-4.34490966796875 -328.3489990234375 -4.3300628662109375 -328.6780090332031 -4.3300628662109375 -328.9989929199219C-4.3300628662109375 -334.52899169921875 -8.732635498046875 -337.9100036621094 -13.306320190429688 -337.9100036621094C-16.372207641601562 -337.9100036621094 -19.514907836914062 -336.3909912109375 -21.459915161132812 -332.98199462890625C-36.10652160644531 -307.322998046875 -49.334716796875 -277.82598876953125 -57.29762268066406 -253.0659942626953C-65.89131164550781 -226.32699584960938 -70.19010925292969 -200.01600646972656 -70.19010925292969 -174.48899841308594C-70.19010925292969 -150.58999633789062 -66.42201232910156 -127.37799072265625 -58.882720947265625 -105.14599609375C-52.20841979980469 -85.47470092773438 -49.520111083984375 -73.79460144042969 -48.324310302734375 -59.39830017089844C-48.21632385253906 -58.031402587890625 -48.15681457519531 -55.10029602050781 -48.15681457519531 -52.40570068359375C-48.15681457519531 -50.23970031738281 -48.1953125 -48.22639465332031 -48.27790832519531 -47.30110168457031C-49.306915283203125 -35.70429992675781 -51.99522399902344 -27.2593994140625 -57.14930725097656 -19.491195678710938C-60.28251647949219 -14.754302978515625 -63.22111511230469 -11.695205688476562 -68.68110656738281 -7.4495391845703125C-70.91981506347656 -5.706787109375 -72.03910827636719 -3.0509490966796875 -72.03910827636719 -0.395111083984375C-72.03910827636719 2.2607421875 -70.91981506347656 4.9165802001953125 -68.68110656738281 6.659332275390625C-63.22111511230469 10.904998779296875 -60.28251647949219 13.964096069335938 -57.14930725097656 18.701004028320312C-51.99522399902344 26.469207763671875 -49.306915283203125 34.914093017578125 -48.27790832519531 46.51080322265625C-48.1953125 47.43620300292969 -48.15681457519531 49.449493408203125 -48.15681457519531 51.615509033203125C-48.15681457519531 54.31010437011719 -48.21632385253906 57.24119567871094 -48.324310302734375 58.60809326171875C-49.46452331542969 72.40179443359375 -52.49571228027344 85.82470703125 -58.18751525878906 102.25100708007812C-64.98240661621094 121.90299987792969 -68.85722351074219 141.71299743652344 -69.94181823730469 162.29299926757812C-70.15000915527344 166.27499389648438 -70.2567138671875 170.97000122070312 -70.2567138671875 175.26499938964844C-70.2567138671875 178.4290008544922 -70.19880676269531 181.375 -70.08082580566406 183.66000366210938C-69.39491271972656 197.04600524902344 -68.38441467285156 206.00999450683594 -66.17820739746094 218.0229949951172C-59.87461853027344 252.51699829101562 -44.20841979980469 292.822998046875 -21.673110961914062 332.5539855957031C-19.800613403320312 335.85400390625 -17.446014404296875 337.54998779296875 -14.312820434570312 337.8559875488281Z" fill="black" /></g></svg>