<?xml version="1.0" encoding="utf-8" ?>
<svg baseProfile="tiny" height="100%" version="1.2" width="100%" xmlns="http://www.w3.org/2000/svg" xmlns:ev="http://www.w3.org/2001/xml-events" xmlns:xlink="http://www.w3.org/1999/xlink"><defs /><g transform="translate(0, 1000) scale(1, -1)"><path d="M-10.8450927734375 1991.93994140625C-10.138092041015625 1992.0799560546875 -9.4515380859375 1992.1500244140625 -8.789794921875 1992.1500244140625C-3.6427459716796875 1992.1500244140625 0.0 1988.0400390625 0.0 1983.0799560546875C0.0 1981.3499755859375 -0.4427032470703125 1979.510009765625 -1.4187164306640625 1977.7099609375L-8.42327880859375 1964.8900146484375C-75.45089721679688 1842.5 -121.1669921875 1703.6400146484375 -143.44700622558594 1554.8599853515625C-153.89599609375 1485.1099853515625 -159.07899475097656 1412.6300048828125 -159.07899475097656 1338.2099609375C-159.07899475097656 1142.199951171875 -123.13400268554688 932.6229858398438 -52.76060485839844 723.2589721679688L-41.62040710449219 690.2860107421875C-22.049819946289062 632.739990234375 -12.269119262695312 572.2050170898438 -12.269119262695312 511.44000244140625C-12.269119262695312 449.9289855957031 -22.292007446289062 388.1820068359375 -42.32832336425781 329.0669860839844C-84.31840515136719 205.25799560546875 -168.07501220703125 93.14739990234375 -285.7370147705078 3.280487060546875C-289.46202087402344 0.411590576171875 -292.5180206298828 -2.01019287109375 -292.5180206298828 -2.1592254638671875C-292.5180206298828 -2.308258056640625 -289.46202087402344 -4.7300567626953125 -285.7370147705078 -7.59893798828125C-216.39901733398438 -60.5802001953125 -157.6800079345703 -122.46600341796875 -113.49201965332031 -189.1959991455078C-46.467010498046875 -290.4200134277344 -12.201019287109375 -402.1400146484375 -12.201019287109375 -515.0289916992188C-12.201019287109375 -567.4329833984375 -19.585113525390625 -620.0889892578125 -34.504119873046875 -672.06298828125C-37.52201843261719 -682.6439819335938 -40.16731262207031 -690.655029296875 -48.438720703125 -714.7239990234375C-120.95901489257812 -925.4920043945312 -158.65802001953125 -1140.800048828125 -158.65802001953125 -1341.1500244140625C-158.65802001953125 -1376.0 -157.5170135498047 -1410.4000244140625 -155.22100830078125 -1444.239990234375C-142.32901000976562 -1633.739990234375 -92.10531616210938 -1811.7900390625 -8.311508178710938 -1964.9200439453125L-1.418731689453125 -1977.56005859375C-0.4518280029296875 -1979.3299560546875 -0.0276031494140625 -1981.0899658203125 -0.0276031494140625 -1982.75C-0.0276031494140625 -1987.989990234375 -4.2734832763671875 -1992.1500244140625 -9.015625 -1992.1500244140625C-11.20770263671875 -1992.1500244140625 -13.50579833984375 -1991.260009765625 -15.539596557617188 -1989.1800537109375C-19.63800048828125 -1985.010009765625 -60.39860534667969 -1907.3199462890625 -79.88459777832031 -1866.530029296875C-199.23199462890625 -1616.97998046875 -259.3269958496094 -1366.81005859375 -259.3269958496094 -1124.010009765625C-259.3269958496094 -984.7919921875 -239.56900024414062 -847.9959716796875 -199.89300537109375 -715.1329956054688C-194.1929931640625 -696.02001953125 -188.86500549316406 -679.6640014648438 -178.8800048828125 -650.4530029296875C-156.7480010986328 -585.5490112304688 -143.85699462890625 -526.718017578125 -137.93299865722656 -463.4169921875C-135.9340057373047 -442.09100341796875 -134.94700622558594 -421.0780029296875 -134.94700622558594 -400.4440002441406C-134.94700622558594 -236.10400390625 -197.5570068359375 -95.76449584960938 -310.1029968261719 -12.47979736328125C-315.47601318359375 -8.497055053710938 -317.9150085449219 -5.4156341552734375 -317.9150085449219 -2.1899261474609375C-317.9150085449219 -0.919342041015625 -317.5360107421875 0.373626708984375 -316.80999755859375 1.7528839111328125C-315.6180114746094 3.988372802734375 -315.5060119628906 4.10015869140625 -308.7250061035156 9.204544067382812C-211.89100646972656 82.11900329589844 -152.0540008544922 195.718994140625 -138.08200073242188 333.1650085449219C-135.9669952392578 354.0069885253906 -134.91200256347656 375.15399169921875 -134.91200256347656 396.5690002441406C-134.91200256347656 476.6440124511719 -149.66000366210938 560.4730224609375 -178.8800048828125 646.135009765625C-193.89500427246094 690.0989990234375 -201.64500427246094 715.0999755859375 -210.58700561523438 748.594970703125C-239.68499755859375 857.4630126953125 -254.36500549316406 955.9000244140625 -258.9849853515625 1074.050048828125C-259.47601318359375 1086.3299560546875 -259.7120056152344 1100.989990234375 -259.7120056152344 1116.6500244140625C-259.7120056152344 1143.780029296875 -259.0039978027344 1173.949951171875 -257.6809997558594 1200.1600341796875C-244.5659942626953 1455.6800537109375 -164.12600708007812 1722.0 -23.214797973632812 1976.3699951171875C-15.614105224609375 1990.0799560546875 -14.7572021484375 1991.1199951171875 -10.8450927734375 1991.93994140625Z" fill="black" /></g></svg>