<?xml version="1.0" encoding="utf-8" ?>
<svg baseProfile="tiny" height="100%" version="1.2" width="100%" xmlns="http://www.w3.org/2000/svg" xmlns:ev="http://www.w3.org/2001/xml-events" xmlns:xlink="http://www.w3.org/1999/xlink"><defs /><g transform="translate(0, 1000) scale(1, -1)"><path d="M-14.074203491210938 4916.27978515625C-12.6151123046875 4917.18017578125 -11.034622192382812 4917.58984375 -9.479415893554688 4917.58984375C-4.677825927734375 4917.58984375 -0.1175079345703125 4913.68994140625 -0.1175079345703125 4908.35009765625C-0.1175079345703125 4906.009765625 -1.408660888671875 4903.31005859375 -9.893325805664062 4888.06005859375C-207.8690185546875 4530.72021484375 -336.06101989746094 4136.669921875 -393.5480194091797 3708.43994140625C-415.67701721191406 3543.679931640625 -426.6490020751953 3374.409912109375 -426.6490020751953 3202.360107421875C-426.6490020751953 2726.669921875 -342.7830047607422 2229.659912109375 -178.97201538085938 1747.43994140625C-142.697021484375 1640.5799560546875 -139.68402099609375 1630.739990234375 -126.15800476074219 1577.43994140625C-96.84431457519531 1461.5999755859375 -82.54931640625 1344.5899658203125 -82.54931640625 1228.4100341796875C-82.54931640625 780.2490234375 -295.2790069580078 344.5830078125 -679.1989898681641 37.222412109375L-726.6020050048828 0.639984130859375C-730.7830352783203 -2.4341583251953125 -734.2260284423828 -5.200897216796875 -734.2260284423828 -5.4468231201171875C-734.2260284423828 -5.6927642822265625 -730.7830352783203 -8.459503173828125 -726.6020050048828 -11.533676147460938C-632.9630279541016 -80.21037292480469 -536.0659942626953 -170.15997314453125 -456.26100158691406 -262.44598388671875C-211.20101928710938 -545.8339538574219 -82.53150939941406 -891.2109680175781 -82.53150939941406 -1239.8999938964844C-82.53150939941406 -1392.3999938964844 -107.14201354980469 -1545.5299987792969 -157.39102172851562 -1694.3899841308594C-209.09901428222656 -1847.5999450683594 -222.072021484375 -1888.3100280761719 -248.8170166015625 -1981.8199157714844C-306.2420196533203 -2182.199920654297 -351.74000549316406 -2393.449920654297 -380.6370086669922 -2593.889862060547C-410.64402770996094 -2801.840057373047 -425.56101989746094 -3006.370086669922 -425.56101989746094 -3206.389862060547C-425.56101989746094 -3819.459930419922 -285.4300079345703 -4390.169891357422 -10.200698852539062 -4887.269989013672C-2.5758056640625 -4901.040008544922 0.0 -4905.930145263672 0.0 -4909.069793701172C0.0 -4910.490203857422 -0.5248870849609375 -4911.549774169922 -1.3471527099609375 -4912.910125732422C-3.2752532958984375 -4916.060028076172 -5.832733154296875 -4917.589813232422 -8.556365966796875 -4917.589813232422C-12.25970458984375 -4917.589813232422 -16.270095825195312 -4914.759735107422 -19.423202514648438 -4909.339813232422C-36.02360534667969 -4880.379852294922 -75.61880493164062 -4806.729949951172 -97.99870300292969 -4763.009735107422C-412.6229705810547 -4149.290008544922 -572.0850067138672 -3500.999969482422 -572.0850067138672 -2865.139862060547C-572.0850067138672 -2463.310028076172 -508.4049835205078 -2066.449920654297 -379.95997619628906 -1686.3999938964844L-357.70298767089844 -1620.3000183105469C-294.4869842529297 -1432.4100036621094 -263.89598083496094 -1243.7699890136719 -263.89598083496094 -1062.7699890136719C-263.89598083496094 -636.6039733886719 -433.4659881591797 -252.75897216796875 -746.0309906005859 -20.633163452148438C-755.5930023193359 -13.54986572265625 -760.5510101318359 -9.682632446289062 -760.5510101318359 -5.6581878662109375C-760.5510101318359 -1.2988433837890625 -754.7339935302734 3.244903564453125 -742.6489715576172 12.260330200195312C-432.20497131347656 244.59803771972656 -263.8889923095703 627.3449859619141 -263.8889923095703 1051.939956665039C-263.8889923095703 1232.959976196289 -294.48399353027344 1421.5899810791016 -357.70298767089844 1609.4100494384766L-380.8829803466797 1678.270034790039C-497.14698791503906 2022.8199615478516 -559.1840057373047 2373.520034790039 -571.9719696044922 2758.219985961914C-572.9910125732422 2789.090103149414 -573.4899749755859 2821.459976196289 -573.4899749755859 2854.879898071289C-573.4899749755859 3000.909927368164 -563.9639739990234 3166.830093383789 -546.7029876708984 3313.780044555664C-543.6279754638672 3339.610122680664 -542.8289642333984 3346.000015258789 -538.1559906005859 3380.740005493164C-468.80397033691406 3896.639907836914 -295.91297912597656 4410.330093383789 -30.367202758789062 4889.839859008789C-16.595001220703125 4914.740249633789 -16.53350830078125 4914.799819946289 -14.074203491210938 4916.279800415039Z" fill="black" /></g></svg>