<?xml version="1.0" encoding="utf-8" ?>
<svg baseProfile="tiny" height="100%" version="1.2" width="100%" xmlns="http://www.w3.org/2000/svg" xmlns:ev="http://www.w3.org/2001/xml-events" xmlns:xlink="http://www.w3.org/1999/xlink"><defs /><g transform="translate(0, 1000) scale(1, -1)"><path d="M-19.7882080078125 520.3619995117188C-19.305999755859375 520.4340209960938 -18.8291015625 520.468994140625 -18.360305786132812 520.468994140625C-13.406295776367188 520.468994140625 -9.352249145507812 516.5599975585938 -9.352249145507812 511.42498779296875C-9.352249145507812 509.2049865722656 -9.568466186523438 508.6000061035156 -11.889205932617188 504.3760070800781C-33.243499755859375 465.4100036621094 -43.92570495605469 420.90301513671875 -43.92570495605469 370.0060119628906C-43.92570495605469 316.2200012207031 -31.9967041015625 255.29800415039062 -8.127029418945312 186.23699951171875C-2.726593017578125 170.62100219726562 -0.0410003662109375 154.55999755859375 -0.0410003662109375 138.54299926757812C-0.0410003662109375 117.0679931640625 -4.8691253662109375 95.67221069335938 -14.45489501953125 75.53460693359375C-26.865692138671875 49.430206298828125 -46.23860168457031 26.655502319335938 -76.65289306640625 2.3961029052734375C-78.62770080566406 0.8249359130859375 -80.25650024414062 -0.515594482421875 -80.25650024414062 -0.5732574462890625C-80.25650024414062 -0.63092041015625 -78.62770080566406 -1.9714508056640625 -76.65289306640625 -3.5426177978515625C-36.335906982421875 -35.70109558105469 -13.993698120117188 -66.90809631347656 -4.4513702392578125 -104.35699462890625C-1.4844970703125 -115.9949951171875 0.0 -127.65699768066406 0.0 -139.38499450683594C0.0 -155.7480010986328 -2.8896942138671875 -172.24099731445312 -8.674774169921875 -188.98300170898438C-32.08940124511719 -256.8219909667969 -43.79280090332031 -317.02099609375 -43.79280090332031 -370.2919921875C-43.79280090332031 -421.0769958496094 -33.156097412109375 -465.5639953613281 -11.889205932617188 -504.3699951171875C-9.5828857421875 -508.5929870605469 -9.352249145507812 -509.197998046875 -9.352249145507812 -511.4179992675781C-9.352249145507812 -516.7360229492188 -13.593505859375 -520.468994140625 -18.310195922851562 -520.468994140625C-19.857894897460938 -520.468994140625 -21.456802368164062 -520.0670166015625 -22.973800659179688 -519.18701171875C-25.121597290039062 -517.947998046875 -25.366607666015625 -517.5869750976562 -30.858505249023438 -507.5260009765625C-78.05859375 -421.1180114746094 -100.34500122070312 -346.4530029296875 -100.34500122070312 -273.42401123046875C-100.34500122070312 -264.135009765625 -99.98471069335938 -254.87399291992188 -99.26899719238281 -245.61700439453125C-97.25100708007812 -219.38299560546875 -91.3988037109375 -190.81399536132812 -82.96640014648438 -165.99200439453125C-72.775390625 -135.9669952392578 -68.73941040039062 -118.35299682617188 -66.82229614257812 -95.56390380859375C-66.59820556640625 -92.8905029296875 -66.49090576171875 -89.5841064453125 -66.49090576171875 -86.08880615234375C-66.49090576171875 -79.91600036621094 -66.82550048828125 -73.15390014648438 -67.44210815429688 -68.24870300292969C-70.57000732421875 -43.297393798828125 -81.85650634765625 -22.425399780273438 -99.42759704589844 -9.063323974609375C-103.49200439453125 -5.9642333984375 -104.60198974609375 -4.1624298095703125 -104.60198974609375 -0.5732574462890625C-104.60198974609375 3.0159149169921875 -103.49200439453125 4.8177032470703125 -99.42759704589844 7.9167938232421875C-81.85650634765625 21.278900146484375 -70.57000732421875 42.150909423828125 -67.44210815429688 67.10220336914062C-66.77560424804688 72.42269897460938 -66.43939208984375 77.91720581054688 -66.43939208984375 83.62409973144531C-66.43939208984375 106.17999267578125 -71.69171142578125 132.05099487304688 -82.56280517578125 163.6060028076172C-91.02400207519531 188.16799926757812 -96.97709655761719 216.5500030517578 -99.21139526367188 242.88499450683594C-100.05499267578125 252.8719940185547 -100.47900390625 262.87799072265625 -100.47900390625 272.92401123046875C-100.47900390625 345.9949951171875 -78.01860046386719 421.25799560546875 -30.815200805664062 507.6050109863281C-26.23150634765625 515.9940185546875 -25.74139404296875 516.8159790039062 -24.790008544921875 517.781982421875C-23.435104370117188 519.135986328125 -21.589996337890625 520.0880126953125 -19.7882080078125 520.3619995117188Z" fill="black" /></g></svg>