<?xml version="1.0" encoding="utf-8" ?>
<svg baseProfile="tiny" height="100%" version="1.2" width="100%" xmlns="http://www.w3.org/2000/svg" xmlns:ev="http://www.w3.org/2001/xml-events" xmlns:xlink="http://www.w3.org/1999/xlink"><defs /><g transform="translate(0, 1000) scale(1, -1)"><path d="M-14.657806396484375 328.8869934082031C-14.078094482421875 328.9989929199219 -13.503204345703125 329.0530090332031 -12.938400268554688 329.0530090332031C-8.10662841796875 329.0530090332031 -4.01397705078125 325.1050109863281 -4.01397705078125 319.9930114746094C-4.01397705078125 317.7829895019531 -4.221435546875 317.14300537109375 -5.908203125 314.0849914550781C-7.784393310546875 310.6659851074219 -9.859039306640625 306.4540100097656 -11.500701904296875 302.718994140625C-20.663604736328125 281.8590087890625 -25.260101318359375 258.7820129394531 -25.260101318359375 232.8679962158203C-25.260101318359375 200.02999877929688 -17.879806518554688 162.63600158691406 -3.0578460693359375 119.42098999023438C-1.5785369873046875 115.10000610351562 -1.1094818115234375 113.58399963378906 -0.4149322509765625 110.89599609375L0.0 109.29998779296875V87.065185546875V64.82148742675781L-0.3698272705078125 63.39628601074219C-6.2690277099609375 40.56617736816406 -20.538909912109375 20.442184448242188 -44.694915771484375 0.91357421875C-45.5338134765625 0.22802734375 -46.22831726074219 -0.3582763671875 -46.22831726074219 -0.40338134765625C-46.22831726074219 -0.4484710693359375 -45.5338134765625 -1.0347900390625 -44.694915771484375 -1.7203216552734375C-20.538909912109375 -21.249008178710938 -6.2690277099609375 -41.373016357421875 -0.369842529296875 -64.20301818847656L-1.52587890625e-05 -65.62821960449219V-87.87193298339844V-110.10704040527344L-0.414947509765625 -111.70304870605469C-1.1095123291015625 -114.38204956054688 -1.5785675048828125 -115.90704345703125 -3.0578765869140625 -120.22703552246094C-17.814529418945312 -163.28004455566406 -25.184722900390625 -200.7500457763672 -25.184722900390625 -233.5760498046875C-25.184722900390625 -264.23704528808594 -18.754837036132812 -290.84605407714844 -5.908233642578125 -314.17005920410156C-4.221466064453125 -317.22804260253906 -4.014007568359375 -317.86805725097656 -4.014007568359375 -320.0780487060547C-4.014007568359375 -325.24705505371094 -7.8205108642578125 -329.0530548095703 -12.989028930664062 -329.0530548095703C-16.759536743164062 -329.0530548095703 -19.231033325195312 -327.46604919433594 -21.359832763671875 -323.6770477294922C-49.683135986328125 -273.29005432128906 -65.25192260742188 -227.08905029296875 -67.912841796875 -185.49703979492188C-68.26351928710938 -180.04405212402344 -68.4398193359375 -174.96304321289062 -68.4398193359375 -169.95004272460938C-68.4398193359375 -164.39004516601562 -68.22293090820312 -158.91604614257812 -67.78652954101562 -153.11505126953125C-66.52372741699219 -136.44505310058594 -62.816436767578125 -118.19804382324219 -57.494537353515625 -102.55705261230469C-53.67002868652344 -91.31764221191406 -51.94712829589844 -85.49064636230469 -50.341522216796875 -78.29255676269531C-48.60972595214844 -70.53514099121094 -47.76182556152344 -65.03285217285156 -47.15742492675781 -57.63633728027344C-47.0499267578125 -56.30104064941406 -46.99873352050781 -54.62434387207031 -46.99873352050781 -52.81803894042969C-46.99873352050781 -49.17024230957031 -47.20733642578125 -44.99354553222656 -47.58143615722656 -42.03144836425781C-49.394439697265625 -27.707443237304688 -55.8619384765625 -15.900039672851562 -66.16293334960938 -8.097610473632812C-69.14862060546875 -5.842559814453125 -70.31222534179688 -3.6867523193359375 -70.31222534179688 -0.403411865234375C-70.31222534179688 2.8799285888671875 -69.14862060546875 5.0357513427734375 -66.16293334960938 7.2907867431640625C-55.8619384765625 15.093246459960938 -49.394439697265625 26.900650024414062 -47.58143615722656 41.22465515136719C-47.20733642578125 44.18675231933594 -46.99873352050781 48.36335754394531 -46.99873352050781 52.01124572753906C-46.99873352050781 53.81755065917969 -47.0499267578125 55.49415588378906 -47.15742492675781 56.829559326171875C-48.239837646484375 70.06214904785156 -50.92793273925781 82.31155395507812 -56.087432861328125 97.55555725097656C-58.47772216796875 104.61795043945312 -59.56922912597656 108.08195495605469 -60.65162658691406 112.01495361328125C-65.87702941894531 131.01695251464844 -68.51432800292969 150.17994689941406 -68.51432800292969 169.77294921875C-68.51432800292969 217.2499542236328 -53.02972412109375 267.2499542236328 -21.359832763671875 323.5919647216797C-19.573822021484375 326.76695251464844 -17.616424560546875 328.30894470214844 -14.6578369140625 328.88694763183594Z" fill="black" /></g></svg>