<?xml version="1.0" encoding="utf-8" ?>
<svg baseProfile="tiny" height="100%" version="1.2" width="100%" xmlns="http://www.w3.org/2000/svg" xmlns:ev="http://www.w3.org/2001/xml-events" xmlns:xlink="http://www.w3.org/1999/xlink"><defs /><g transform="translate(0, 1000) scale(1, -1)"><path d="M-14.952194213867188 340.06298828125C-14.435089111328125 340.14898681640625 -13.923782348632812 340.1910095214844 -13.421478271484375 340.1910095214844C-8.472930908203125 340.1910095214844 -4.4052581787109375 336.1369934082031 -4.4052581787109375 331.18798828125C-4.4052581787109375 330.70001220703125 -4.444732666015625 330.2040100097656 -4.526702880859375 329.7019958496094C-4.7320404052734375 328.42401123046875 -5.04937744140625 327.6300048828125 -6.132049560546875 325.6419982910156C-19.631988525390625 300.9729919433594 -26.389389038085938 273.2569885253906 -26.389389038085938 241.35000610351562C-26.389389038085938 207.3209991455078 -18.703384399414062 168.52499389648438 -3.3133544921875 123.572998046875C-1.6053314208984375 118.5989990234375 -1.3626708984375 117.81500244140625 -0.55999755859375 114.72500610351562L1.52587890625e-05 112.55101013183594V90.18760681152344V67.82470703125L-0.4759979248046875 65.99530029296875C-6.6827239990234375 42.04570007324219 -21.653579711914062 21.045501708984375 -46.96588134765625 0.8012542724609375C-47.73118591308594 0.194580078125 -48.34718322753906 -0.337432861328125 -48.34718322753906 -0.3747711181640625C-48.34718322753906 -0.4120941162109375 -47.73118591308594 -0.9441070556640625 -46.96588134765625 -1.55078125C-21.653579711914062 -21.794998168945312 -6.6827239990234375 -42.79530334472656 -0.4759979248046875 -66.74490356445312L1.52587890625e-05 -68.57420349121094V-90.93721008300781V-113.30000305175781L-0.55999755859375 -115.47499084472656C-1.334686279296875 -118.4329833984375 -1.6240234375 -119.38499450683594 -2.8653717041015625 -123.01597595214844C-14.905502319335938 -158.1289825439453 -21.88690185546875 -187.37998962402344 -24.864303588867188 -215.23098754882812C-25.83990478515625 -224.34298706054688 -26.328994750976562 -233.15798950195312 -26.328994750976562 -241.69198608398438C-26.328994750976562 -273.2439727783203 -19.642196655273438 -300.95399475097656 -6.1320648193359375 -325.6449737548828C-4.8942413330078125 -327.91297912597656 -4.3804473876953125 -329.39698791503906 -4.3804473876953125 -331.02598571777344C-4.3804473876953125 -331.52198791503906 -4.428070068359375 -332.03099060058594 -4.51739501953125 -332.57997131347656C-5.2837371826171875 -337.2729949951172 -9.277618408203125 -340.1909942626953 -13.466094970703125 -340.1909942626953C-15.4501953125 -340.1909942626953 -17.4779052734375 -339.53599548339844 -19.226898193359375 -338.10499572753906C-20.636199951171875 -336.9569854736328 -21.242904663085938 -335.95899963378906 -26.24560546875 -326.67198181152344C-56.40049743652344 -270.6999969482422 -70.64059448242188 -222.62498474121094 -70.64059448242188 -175.92398071289062C-70.64059448242188 -169.3739776611328 -70.36050415039062 -162.85098266601562 -69.8048095703125 -156.3369903564453C-68.3861083984375 -139.6949920654297 -64.68080139160156 -121.87797546386719 -59.39799499511719 -106.26298522949219C-54.9739990234375 -93.22378540039062 -53.41529846191406 -87.81977844238281 -51.483306884765625 -78.96229553222656C-50.07389831542969 -72.48487854003906 -49.252593994140625 -67.09019470214844 -48.65519714355469 -60.34208679199219C-48.5382080078125 -59.04948425292969 -48.476593017578125 -55.82539367675781 -48.476593017578125 -52.81858825683594C-48.476593017578125 -50.31098937988281 -48.5194091796875 -47.95448303222656 -48.60859680175781 -46.99528503417969C-50.20460510253906 -29.77508544921875 -56.738006591796875 -16.745590209960938 -68.04080200195312 -8.261505126953125C-69.32879638671875 -7.3001708984375 -69.91680908203125 -6.777496337890625 -70.42080688476562 -6.1614837646484375C-71.81149291992188 -4.462799072265625 -72.50680541992188 -2.4187774658203125 -72.50680541992188 -0.374755859375C-72.50680541992188 1.669281005859375 -71.81149291992188 3.7133026123046875 -70.42080688476562 5.4119873046875C-69.91680908203125 6.0279998779296875 -69.32879638671875 6.5506591796875 -68.04080200195312 7.5120086669921875C-56.738006591796875 15.996109008789062 -50.20460510253906 29.025619506835938 -48.60859680175781 46.245819091796875C-48.5194091796875 47.20501708984375 -48.476593017578125 49.56150817871094 -48.476593017578125 52.06901550292969C-48.476593017578125 55.07591247558594 -48.5382080078125 58.29991149902344 -48.65519714355469 59.592620849609375C-49.252593994140625 66.34071350097656 -50.07389831542969 71.73541259765625 -51.483306884765625 78.21281433105469C-53.41529846191406 87.0703125 -54.9739990234375 92.47431945800781 -59.39799499511719 105.51301574707031C-64.63409423828125 120.98802185058594 -68.33950805664062 138.6190185546875 -69.8048095703125 155.12001037597656C-70.41070556640625 161.92201232910156 -70.71620178222656 168.7360076904297 -70.71620178222656 175.58001708984375C-70.71620178222656 222.40000915527344 -56.4237060546875 270.67002868652344 -26.24560546875 326.6690216064453C-24.322998046875 330.2530059814453 -21.89630126953125 334.64002990722656 -21.308197021484375 335.62901306152344C-19.852203369140625 338.05601501464844 -17.621505737304688 339.61500549316406 -14.952194213867188 340.06300354003906Z" fill="black" /></g></svg>