<?xml version="1.0" encoding="utf-8" ?>
<svg baseProfile="tiny" height="100%" version="1.2" width="100%" xmlns="http://www.w3.org/2000/svg" xmlns:ev="http://www.w3.org/2001/xml-events" xmlns:xlink="http://www.w3.org/1999/xlink"><defs /><g transform="translate(0, 1000) scale(1, -1)"><path d="M-12.091705322265625 8479.1103515625C-11.224700927734375 8479.2998046875 -10.374893188476562 8479.3896484375 -9.553680419921875 8479.3896484375C-4.3134918212890625 8479.3896484375 -0.234161376953125 8475.650390625 -0.234161376953125 8470.48046875C-0.234161376953125 8470.4404296875 -0.2344512939453125 8470.400390625 -0.235015869140625 8470.349609375C-0.3145904541015625 8466.9296875 -1.8265228271484375 8463.830078125 -14.956405639648438 8440.26953125C-439.8879852294922 7679.2900390625 -691.5850067138672 6793.93994140625 -748.0829925537109 5861.64013671875C-756.3509979248047 5725.18994140625 -760.4600067138672 5587.56005859375 -760.4600067138672 5449.08984375C-760.4600067138672 4621.27001953125 -613.6240081787109 3763.35009765625 -330.7109832763672 2949.580078125C-261.48097229003906 2750.39990234375 -225.0349884033203 2601.43994140625 -200.2869873046875 2416.419921875C-185.739990234375 2307.590087890625 -178.59498596191406 2198.68994140625 -178.59498596191406 2090.320068359375C-178.59498596191406 1288.6700439453125 -569.5439910888672 515.5650024414062 -1247.8199310302734 9.03363037109375C-1260.949935913086 -0.754119873046875 -1271.689926147461 -9.109527587890625 -1271.689926147461 -9.427825927734375C-1271.689926147461 -9.746124267578125 -1260.949935913086 -18.10150146484375 -1247.8199310302734 -27.889297485351562C-569.5439910888672 -534.4210357666016 -178.59498596191406 -1307.530044555664 -178.59498596191406 -2109.169937133789C-178.59498596191406 -2217.550064086914 -185.739990234375 -2326.449966430664 -200.2869873046875 -2435.280044555664C-224.5579833984375 -2616.629898071289 -261.5599822998047 -2769.340103149414 -327.0509796142578 -2958.090103149414C-614.2729949951172 -3785.300064086914 -758.5720062255859 -4631.060073852539 -758.5720062255859 -5450.850112915039C-758.5720062255859 -6126.660171508789 -660.5059661865234 -6784.819839477539 -463.6019744873047 -7400.379898071289C-346.2279815673828 -7767.379898071289 -176.89198303222656 -8157.779800415039 -5.0890960693359375 -8457.860366821289C-1.6371612548828125 -8463.809585571289 1.52587890625e-05 -8467.679702758789 1.52587890625e-05 -8470.669937133789C1.52587890625e-05 -8472.910171508789 -0.9257659912109375 -8474.650405883789 -2.7018280029296875 -8476.400405883789C-4.6826934814453125 -8478.410171508789 -6.7982025146484375 -8479.389663696289 -8.936233520507812 -8479.389663696289C-12.724578857421875 -8479.389663696289 -16.58367919921875 -8476.299819946289 -19.890090942382812 -8470.349624633789L-36.04388427734375 -8441.219741821289C-501.2409973144531 -7605.520034790039 -802.114990234375 -6672.740249633789 -902.06201171875 -5756.750015258789C-903.3350219726562 -5744.500015258789 -904.8469848632812 -5732.160171508789 -905.2449951171875 -5729.299819946289C-906.43798828125 -5721.819839477539 -913.4409790039062 -5651.240249633789 -917.1010131835938 -5609.939956665039C-934.9940185546875 -5410.149917602539 -943.9180297851562 -5210.709976196289 -943.9180297851562 -5012.009780883789C-943.9180297851562 -4318.180191040039 -835.0989990234375 -3633.370132446289 -619.3309936523438 -2974.000015258789L-576.3599853515625 -2847.080093383789C-488.5090026855469 -2592.840103149414 -437.2619934082031 -2349.500015258789 -417.447998046875 -2092.709976196289C-411.9530029296875 -2021.310073852539 -409.239013671875 -1950.3900299072266 -409.239013671875 -1880.1200103759766C-409.239013671875 -1122.060073852539 -725.0579833984375 -438.85902404785156 -1272.4000244140625 -33.30043029785156C-1295.800048828125 -15.953033447265625 -1296.9100341796875 -14.998138427734375 -1297.7099609375 -11.974227905273438C-1298.0400390625 -10.689727783203125 -1298.31005859375 -9.661178588867188 -1298.31005859375 -8.679519653320312C-1298.31005859375 -4.7353973388671875 -1294.0 -1.548187255859375 -1272.4000244140625 14.44476318359375C-720.8839721679688 423.0289611816406 -409.3450012207031 1107.8599548339844 -409.3450012207031 1862.8899841308594C-409.3450012207031 2028.8199157714844 -424.3919982910156 2198.149871826172 -455.2460021972656 2368.679901123047C-484.45098876953125 2530.139862060547 -521.2139892578125 2668.759979248047 -580.3389892578125 2839.759979248047C-809.9130249023438 3504.139862060547 -925.5360107421875 4145.990203857422 -944.39599609375 4859.779754638672C-945.031982421875 4884.450164794922 -945.3510131835938 4943.810028076172 -945.3510131835938 5003.290008544922C-945.3510131835938 5062.759735107422 -945.031982421875 5122.339813232422 -944.39599609375 5147.450164794922C-940.3369750976562 5305.009735107422 -933.4940185546875 5431.450164794922 -921.5579833984375 5573.569793701172C-917.4199829101562 5622.669891357422 -908.427978515625 5715.379852294922 -907.2340087890625 5721.580047607422C-906.9949951171875 5722.700164794922 -905.0059814453125 5739.729949951172 -902.8569946289062 5759.379852294922C-802.114990234375 6661.209930419922 -514.3709716796875 7564.790008544922 -66.28250122070312 8386.559539794922C-23.789306640625 8464.620086669922 -15.672607421875 8478.389617919922 -12.091705322265625 8479.110321044922Z" fill="black" /></g></svg>