<?xml version="1.0" encoding="utf-8" ?>
<svg baseProfile="tiny" height="100%" version="1.2" width="100%" xmlns="http://www.w3.org/2000/svg" xmlns:ev="http://www.w3.org/2001/xml-events" xmlns:xlink="http://www.w3.org/1999/xlink"><defs /><g transform="translate(0, 1000) scale(1, -1)"><path d="M-20.907501220703125 647.5659790039062C-19.927001953125 647.9089965820312 -18.937301635742188 648.0700073242188 -17.969696044921875 648.0700073242188C-13.356094360351562 648.0700073242188 -9.243881225585938 644.4089965820312 -9.020553588867188 639.406982421875C-9.007553100585938 639.1160278320312 -9.000015258789062 638.8480224609375 -9.000015258789062 638.594970703125C-9.000015258789062 636.75 -9.401702880859375 635.7340087890625 -11.001693725585938 632.8510131835938C-39.253509521484375 581.9619750976562 -53.39830017089844 523.2050170898438 -53.39830017089844 456.8590087890625C-53.39830017089844 424.2330017089844 -49.9779052734375 389.7720031738281 -43.13240051269531 353.50799560546875C-35.78410339355469 314.552001953125 -25.644195556640625 276.7659912109375 -11.470001220703125 235.36000061035156C-3.2514801025390625 211.33399963378906 -0.0003204345703125 193.9149932861328 -0.0003204345703125 172.97300720214844C-0.0003204345703125 171.7480010986328 -0.011444091796875 170.51199340820312 -0.0333251953125 169.26100158691406C-1.1319732666015625 106.17098999023438 -32.95649719238281 50.73429870605469 -96.29930114746094 1.5836639404296875C-97.88430786132812 0.3409423828125 -99.19900512695312 -0.7036590576171875 -99.19900512695312 -0.7576904296875C-99.19900512695312 -0.8117218017578125 -97.88430786132812 -1.8563232421875 -96.29930114746094 -3.0990447998046875C-32.95649719238281 -52.24969482421875 -1.1319732666015625 -107.68600463867188 -0.0333251953125 -170.77699279785156C-0.01123046875 -172.03599548339844 0.0 -173.28199768066406 0.0 -174.51400756835938C0.0 -195.38400268554688 -3.2181243896484375 -212.69700622558594 -11.397903442382812 -236.64100646972656L-15.252197265625 -248.04200744628906L-16.999191284179688 -253.44500732421875C-41.142181396484375 -327.8479919433594 -53.21067810058594 -395.8599853515625 -53.21067810058594 -457.27899169921875C-53.21067810058594 -523.6010131835938 -39.13848876953125 -582.2340087890625 -11.001678466796875 -632.926025390625C-9.612991333007812 -635.4229736328125 -8.923629760742188 -637.5260009765625 -8.923629760742188 -639.43701171875C-8.923629760742188 -641.218994140625 -9.522964477539062 -642.8359985351562 -10.713485717773438 -644.4520263671875C-12.475784301757812 -646.8489990234375 -15.289688110351562 -648.0700073242188 -18.082778930664062 -648.0700073242188C-20.599288940429688 -648.0700073242188 -23.099090576171875 -647.0789794921875 -24.797683715820312 -645.0650024414062C-26.202590942382812 -643.3900146484375 -35.45988464355469 -626.3880004882812 -43.65467834472656 -610.4119873046875C-91.93199157714844 -516.427001953125 -115.98698425292969 -428.197998046875 -115.98698425292969 -344.3429870605469C-115.98698425292969 -296.5270080566406 -108.16499328613281 -250.13400268554688 -92.55317687988281 -204.906005859375C-80.30497741699219 -169.41299438476562 -74.18287658691406 -137.697998046875 -74.18287658691406 -109.8070068359375C-74.18287658691406 -91.92770385742188 -76.69859313964844 -75.61968994140625 -81.7288818359375 -60.89469909667969C-88.93309020996094 -39.786407470703125 -101.3599853515625 -22.2261962890625 -118.12797546386719 -9.438735961914062C-122.55897521972656 -6.0707855224609375 -123.44099426269531 -4.62994384765625 -123.44099426269531 -0.7576904296875C-123.44099426269531 3.11456298828125 -122.55897521972656 4.5554046630859375 -118.12797546386719 7.9233551025390625C-101.3599853515625 20.710800170898438 -88.93309020996094 38.27099609375 -81.7288818359375 59.379302978515625C-76.69117736816406 74.11990356445312 -74.16969299316406 90.398193359375 -74.16969299316406 108.25599670410156C-74.16969299316406 136.1739959716797 -80.33268737792969 167.9530029296875 -92.67918395996094 203.75100708007812C-108.31198120117188 249.08700561523438 -116.15098571777344 295.5419921875 -116.15098571777344 343.4419860839844C-116.15098571777344 433.0090026855469 -88.74128723144531 527.6290283203125 -33.62287902832031 629.4290161132812C-24.635589599609375 646.0349731445312 -24.4014892578125 646.3410034179688 -20.907485961914062 647.5659790039062Z" fill="black" /></g></svg>