<?xml version="1.0" encoding="utf-8" ?>
<svg baseProfile="tiny" height="100%" version="1.2" width="100%" xmlns="http://www.w3.org/2000/svg" xmlns:ev="http://www.w3.org/2001/xml-events" xmlns:xlink="http://www.w3.org/1999/xlink"><defs /><g transform="translate(0, 1000) scale(1, -1)"><path d="M-18.267791748046875 823.0599975585938C-17.696197509765625 823.1619873046875 -17.131698608398438 823.2109985351562 -16.57879638671875 823.2109985351562C-11.639892578125 823.2109985351562 -7.620697021484375 819.31201171875 -7.620697021484375 814.1510009765625L-7.6207733154296875 814.1110229492188C-7.620758056640625 811.7249755859375 -7.8502197265625 811.0830078125 -10.03009033203125 807.1589965820312C-38.32267761230469 756.5170288085938 -56.65669250488281 696.4439697265625 -63.2880859375 632.6079711914062C-64.34358215332031 622.4199829101562 -65.30728149414062 608.1929931640625 -65.72038269042969 596.5819702148438C-65.965087890625 589.510009765625 -66.08778381347656 582.39599609375 -66.08778381347656 575.2369995117188C-66.08778381347656 524.0009765625 -59.80638122558594 470.4020080566406 -47.04219055175781 412.44000244140625C-38.09318542480469 371.802001953125 -28.685287475585938 338.9200134277344 -11.934585571289062 289.8609924316406C-5.9227447509765625 272.239013671875 -1.746551513671875 251.4720001220703 -0.5533599853515625 233.34500122070312C-0.20806884765625 228.01699829101562 -0.035614013671875 222.7220001220703 -0.035614013671875 217.46099853515625C-0.035614013671875 136.7169952392578 -40.657684326171875 63.97850036621094 -120.51597595214844 1.97918701171875C-122.41998291015625 0.464752197265625 -124.00398254394531 -0.8431854248046875 -124.00398254394531 -0.934967041015625C-124.00398254394531 -1.0267486572265625 -122.41998291015625 -2.334686279296875 -120.49298095703125 -3.84912109375C-51.56257629394531 -57.38240051269531 -12.141189575195312 -118.39599609375 -2.297271728515625 -186.843994140625C-0.7612762451171875 -197.46400451660156 1.52587890625e-05 -208.22500610351562 1.52587890625e-05 -218.99099731445312C1.52587890625e-05 -243.76800537109375 -4.0326080322265625 -268.5690002441406 -11.934585571289062 -291.7309875488281L-15.605987548828125 -302.56201171875C-49.067901611328125 -401.0679931640625 -65.79080200195312 -492.7950134277344 -65.79080200195312 -575.81298828125C-65.79080200195312 -662.0449829101562 -47.748504638671875 -738.8820190429688 -11.682205200195312 -804.1640014648438C-8.263275146484375 -810.3599853515625 -7.9190826416015625 -811.0709838867188 -7.6437225341796875 -812.7459716796875C-7.5635986328125 -813.2479858398438 -7.525115966796875 -813.7410278320312 -7.525115966796875 -814.2230224609375C-7.525115966796875 -819.3060302734375 -11.793106079101562 -823.2109985351562 -16.670700073242188 -823.2109985351562C-17.963104248046875 -823.2109985351562 -19.298294067382812 -822.93701171875 -20.608306884765625 -822.3369750976562C-22.8800048828125 -821.281982421875 -23.75189208984375 -820.135009765625 -28.0198974609375 -812.4019775390625C-99.843994140625 -682.4229736328125 -135.5959930419922 -560.2869873046875 -135.5959930419922 -443.9309997558594C-135.5959930419922 -389.77398681640625 -127.85099792480469 -336.8689880371094 -112.39300537109375 -285.00799560546875C-111.31399536132812 -281.4049987792969 -108.07901000976562 -271.4010009765625 -105.18800354003906 -262.75C-91.71829223632812 -222.45700073242188 -86.28009033203125 -197.00999450683594 -83.572509765625 -161.78700256347656C-83.37741088867188 -159.18299865722656 -83.2799072265625 -152.46499633789062 -83.2799072265625 -145.77099609375C-83.2799072265625 -139.0760040283203 -83.37741088867188 -132.40499877929688 -83.572509765625 -129.89199829101562C-87.7716064453125 -76.86370849609375 -107.41299438476562 -36.983306884765625 -142.56700134277344 -10.1134033203125C-147.66099548339844 -6.2355194091796875 -148.625 -4.7669677734375 -148.625 -0.934967041015625C-148.625 2.89703369140625 -147.66099548339844 4.3655853271484375 -142.56700134277344 8.243484497070312C-107.41299438476562 35.1134033203125 -87.7716064453125 74.99380493164062 -83.572509765625 128.02200317382812C-83.37741088867188 130.53500366210938 -83.2799072265625 137.20599365234375 -83.2799072265625 143.9010009765625C-83.2799072265625 150.5959930419922 -83.37741088867188 157.31300354003906 -83.572509765625 159.91700744628906C-86.28009033203125 195.11700439453125 -91.71829223632812 220.58700561523438 -105.18800354003906 260.8800048828125C-124.07199096679688 317.3970031738281 -132.1719970703125 360.00799560546875 -135.27000427246094 419.093994140625C-135.54600524902344 424.4989929199219 -135.67999267578125 432.00799560546875 -135.67999267578125 440.1419982910156C-135.67999267578125 451.62200927734375 -135.41299438476562 464.34698486328125 -134.9029998779297 474.1650085449219C-129.281005859375 581.0020141601562 -93.760498046875 693.43798828125 -28.0198974609375 812.3679809570312C-23.132400512695312 821.2020263671875 -22.05389404296875 822.39501953125 -18.267791748046875 823.0599975585938Z" fill="black" /></g></svg>