<?xml version="1.0" encoding="utf-8" ?>
<svg baseProfile="tiny" height="100%" version="1.2" width="100%" xmlns="http://www.w3.org/2000/svg" xmlns:ev="http://www.w3.org/2001/xml-events" xmlns:xlink="http://www.w3.org/1999/xlink"><defs /><g transform="translate(0, 1000) scale(1, -1)"><path d="M-11.598297119140625 2685.8701171875C-10.683700561523438 2686.1298828125 -9.778121948242188 2686.260009765625 -8.900146484375 2686.260009765625C-4.02490234375 2686.260009765625 0.0 2682.409912109375 0.0 2677.1201171875V2673.8798828125L-5.648223876953125 2663.75C-149.04200744628906 2406.320068359375 -221.1479949951172 2104.5 -221.1479949951172 1780.3399658203125C-221.1479949951172 1510.3199462890625 -171.11700439453125 1224.800048828125 -70.581298828125 936.5139770507812C-41.539306640625 853.2130126953125 -27.231094360351562 767.698974609375 -27.231094360351562 682.531005859375C-27.231094360351562 513.2979736328125 -83.72549438476562 345.4309997558594 -193.37600708007812 199.00999450683594C-249.77200317382812 123.73001098632812 -314.87799072265625 59.22760009765625 -396.2380065917969 -1.997467041015625L-397.5320129394531 -2.9891357421875L-396.2380065917969 -3.9376983642578125C-374.2489929199219 -20.537490844726562 -352.7770080566406 -37.78398132324219 -334.927001953125 -53.3057861328125C-134.67799377441406 -227.15599060058594 -27.20159912109375 -455.3679962158203 -27.20159912109375 -688.4940032958984C-27.20159912109375 -773.3029632568359 -41.425506591796875 -858.7629852294922 -70.581298828125 -942.4919891357422C-170.17999267578125 -1228.530014038086 -220.32400512695312 -1510.939926147461 -220.32400512695312 -1785.6299896240234C-220.32400512695312 -1839.270004272461 -219.76400756835938 -1861.4300384521484 -217.30599975585938 -1905.9200286865234C-202.0 -2181.479965209961 -128.31399536132812 -2444.659896850586 -4.613433837890625 -2665.629867553711L0.0 -2673.830062866211V-2677.060043334961C0.0 -2682.419906616211 -4.33294677734375 -2686.259994506836 -8.985382080078125 -2686.259994506836C-10.576705932617188 -2686.259994506836 -12.20550537109375 -2685.810043334961 -13.71099853515625 -2684.820053100586C-19.660995483398438 -2680.899887084961 -77.47988891601562 -2570.219955444336 -109.30000305175781 -2501.790023803711C-259.0060119628906 -2180.090072631836 -334.46099853515625 -1853.449935913086 -334.46099853515625 -1534.759994506836C-334.46099853515625 -1342.479965209961 -306.9949951171875 -1153.0999603271484 -251.7989959716797 -969.4399871826172C-243.82200622558594 -942.8799896240234 -239.7689971923828 -930.4629974365234 -221.87600708007812 -877.8179779052734C-184.81100463867188 -768.6660003662109 -166.8350067138672 -660.0629730224609 -166.8350067138672 -557.0640106201172C-166.8350067138672 -332.13499450683594 -252.55999755859375 -133.9329833984375 -412.4070129394531 -15.104782104492188C-421.2460021972656 -8.508010864257812 -422.1080017089844 -7.4732208251953125 -422.1080017089844 -2.9891204833984375C-422.1080017089844 1.494964599609375 -421.2460021972656 2.529754638671875 -412.4070129394531 9.126541137695312C-256.0790100097656 125.31602478027344 -166.83200073242188 321.99400329589844 -166.83200073242188 548.4780426025391C-166.83200073242188 555.3029937744141 -166.91299438476562 562.1560211181641 -167.0749969482422 569.0340118408203C-169.5760040283203 676.1779937744141 -188.15899658203125 774.4400177001953 -227.3090057373047 887.7920074462891C-299.2040100097656 1095.949966430664 -335.0830078125 1311.990005493164 -335.0830078125 1532.030044555664C-335.0830078125 1800.9000396728516 -281.5119934082031 2075.729995727539 -174.62100219726562 2349.429946899414C-133.91900634765625 2453.649917602539 -85.06838989257812 2557.770034790039 -28.974105834960938 2659.870132446289C-15.909896850585938 2683.669937133789 -15.0906982421875 2684.879898071289 -11.598297119140625 2685.870132446289Z" fill="black" /></g></svg>