<?xml version="1.0" encoding="utf-8" ?>
<svg baseProfile="tiny" height="100%" version="1.2" width="100%" xmlns="http://www.w3.org/2000/svg" xmlns:ev="http://www.w3.org/2001/xml-events" xmlns:xlink="http://www.w3.org/1999/xlink"><defs /><g transform="translate(0, 1000) scale(1, -1)"><path d="M-13.764801025390625 324.65899658203125C-13.364395141601562 324.7030029296875 -12.990692138671875 324.739013671875 -12.946197509765625 324.739013671875L-12.858489990234375 324.7430114746094C-12.401199340820312 324.7430114746094 -10.939300537109375 324.5409851074219 -10.419296264648438 324.4010009765625C-6.4594879150390625 323.31298828125 -3.7931365966796875 319.74700927734375 -3.7931365966796875 315.6830139160156C-3.7931365966796875 315.3909912109375 -3.8069000244140625 315.09698486328125 -3.834930419921875 314.79998779296875C-3.9861907958984375 313.1809997558594 -4.3065032958984375 312.3269958496094 -5.7835235595703125 309.67498779296875C-10.321395874023438 301.5069885253906 -14.672393798828125 291.07000732421875 -17.608596801757812 281.33599853515625C-22.42950439453125 265.3559875488281 -24.856094360351562 248.2239990234375 -24.856094360351562 229.58999633789062C-24.856094360351562 196.8419952392578 -17.3616943359375 159.4530029296875 -2.1977386474609375 115.5260009765625C-1.459228515625 113.39999389648438 -1.1033172607421875 112.19900512695312 -0.4893798828125 109.85000610351562L0.0 107.98101806640625V85.87020874023438V63.75041198730469L-0.4093017578125 62.19331359863281C-6.1928253173828125 39.89561462402344 -20.500396728515625 19.795608520507812 -44.17730712890625 0.7010650634765625C-44.862396240234375 0.1493988037109375 -45.423004150390625 -0.3310699462890625 -45.423004150390625 -0.366668701171875C-45.423004150390625 -0.402252197265625 -44.862396240234375 -0.8827362060546875 -44.17730712890625 -1.43438720703125C-20.509307861328125 -20.528976440429688 -6.1928253173828125 -40.62898254394531 -0.4093017578125 -62.92668151855469L0.0 -64.48377990722656V-86.60357666015625V-108.71397399902344L-0.44488525390625 -110.44097900390625C-1.236785888671875 -113.48397827148438 -1.4503326416015625 -114.1419677734375 -3.36334228515625 -119.68496704101562C-17.5155029296875 -160.74896240234375 -24.782302856445312 -198.37196350097656 -24.782302856445312 -230.29296875C-24.782302856445312 -234.85797119140625 -24.633697509765625 -239.30596923828125 -24.335296630859375 -243.63096618652344C-22.644699096679688 -268.0279846191406 -16.2294921875 -290.8779602050781 -5.7835235595703125 -309.69696044921875C-4.3065032958984375 -312.34796142578125 -3.9861907958984375 -313.20196533203125 -3.834930419921875 -314.82196044921875C-3.8065032958984375 -315.12396240234375 -3.7926177978515625 -315.4229736328125 -3.7926177978515625 -315.71697998046875C-3.7926177978515625 -320.85595703125 -8.016036987304688 -324.74298095703125 -12.820205688476562 -324.74298095703125C-14.031097412109375 -324.74298095703125 -15.278900146484375 -324.4959716796875 -16.505294799804688 -323.9599609375C-18.560699462890625 -323.06097412109375 -19.779693603515625 -321.80596923828125 -21.381301879882812 -318.9499816894531C-41.872802734375 -282.2739562988281 -55.42399597167969 -248.46197509765625 -62.19520568847656 -217.115966796875C-65.76609802246094 -200.57296752929688 -67.5469970703125 -184.10397338867188 -67.5469970703125 -167.91897583007812C-67.5469970703125 -144.8259735107422 -63.92109680175781 -122.31297302246094 -56.69639587402344 -100.99996948242188C-50.58369445800781 -82.96437072753906 -47.941009521484375 -71.81546020507812 -46.811004638671875 -59.314178466796875C-46.557098388671875 -56.511871337890625 -46.43080139160156 -53.78697204589844 -46.43080139160156 -51.14286804199219C-46.43080139160156 -32.19337463378906 -52.91850280761719 -17.390869140625 -65.44290161132812 -7.974212646484375C-68.21009826660156 -5.89215087890625 -69.59368896484375 -3.12939453125 -69.59368896484375 -0.3666534423828125C-69.59368896484375 2.3961029052734375 -68.21009826660156 5.158843994140625 -65.44290161132812 7.2409210205078125C-58.58270263671875 12.401626586914062 -53.644500732421875 19.021530151367188 -50.31669616699219 27.527725219726562C-47.72650146484375 34.14532470703125 -46.42999267578125 41.73472595214844 -46.42999267578125 50.32243347167969C-46.42999267578125 63.800537109375 -49.62339782714844 79.73793029785156 -56.02020263671875 98.23812866210938C-63.7655029296875 120.64804077148438 -67.62130737304688 143.64402770996094 -67.62130737304688 167.49403381347656C-67.62130737304688 171.39903259277344 -67.51789855957031 175.3270263671875 -67.3114013671875 179.27903747558594C-65.21150207519531 219.39002990722656 -52.3009033203125 260.80902099609375 -27.06689453125 308.4740295410156C-24.255203247070312 313.7950439453125 -20.713897705078125 320.1920166015625 -20.153396606445312 320.97503662109375C-18.7030029296875 323.0040283203125 -16.256195068359375 324.4190368652344 -13.764801025390625 324.6590270996094Z" fill="black" /></g></svg>