<?xml version="1.0" encoding="utf-8" ?>
<svg baseProfile="tiny" height="100%" version="1.2" width="100%" xmlns="http://www.w3.org/2000/svg" xmlns:ev="http://www.w3.org/2001/xml-events" xmlns:xlink="http://www.w3.org/1999/xlink"><defs /><g transform="translate(0, 1000) scale(1, -1)"><path d="M-12.34539794921875 3192.159912109375C-11.24609375 3192.5 -10.166793823242188 3192.659912109375 -9.1334228515625 3192.659912109375C-4.18328857421875 3192.659912109375 -0.285675048828125 3188.97998046875 -0.285675048828125 3183.590087890625C-0.285675048828125 3180.530029296875 -0.381378173828125 3180.340087890625 -5.597686767578125 3170.909912109375C-179.552001953125 2857.9599609375 -267.5799865722656 2496.090087890625 -267.5799865722656 2105.889892578125C-267.5799865722656 1888.18994140625 -240.17799377441406 1661.6700439453125 -185.00999450683594 1429.9100341796875C-161.94400024414062 1332.949951171875 -130.9810028076172 1226.3800048828125 -98.29489135742188 1131.2900390625C-82.83740234375 1086.3499755859375 -78.57820129394531 1073.0899658203125 -72.88339233398438 1052.3199462890625C-50.46299743652344 970.6199951171875 -39.429901123046875 888.0989990234375 -39.429901123046875 806.1959838867188C-39.429901123046875 577.0910034179688 -125.76100158691406 352.81298828125 -290.6759948730469 164.73599243164062C-342.64801025390625 105.489990234375 -414.00201416015625 39.92759704589844 -471.2850036621094 -1.2285919189453125C-472.9119873046875 -2.42498779296875 -474.25201416015625 -3.477813720703125 -474.25201416015625 -3.6213836669921875C-474.25201416015625 -3.76495361328125 -469.0840148925781 -7.7370147705078125 -462.718994140625 -12.47479248046875C-378.77899169921875 -75.26199340820312 -299.8169860839844 -154.32000732421875 -236.21600341796875 -239.31300354003906C-106.37600708007812 -412.73199462890625 -39.29339599609375 -613.0360107421875 -39.29339599609375 -814.5800170898438C-39.29339599609375 -914.0360107421875 -55.62890625 -1013.7899780273438 -88.81939697265625 -1110.77001953125C-138.35000610351562 -1255.5400390625 -168.73899841308594 -1361.8699951171875 -196.54299926757812 -1487.8800048828125C-244.0279998779297 -1702.93994140625 -266.49700927734375 -1902.77001953125 -266.49700927734375 -2110.0C-266.49700927734375 -2114.75 -266.4849853515625 -2119.510009765625 -266.46099853515625 -2124.27001953125C-266.22198486328125 -2173.989990234375 -265.9830017089844 -2184.22998046875 -264.45098876953125 -2220.320068359375C-249.52000427246094 -2566.889892578125 -162.37399291992188 -2887.760009765625 -7.03338623046875 -3168.340087890625C-1.9651031494140625 -3177.5 0.0 -3181.5400390625 0.0 -3184.43994140625C0.0 -3185.929931640625 -0.512664794921875 -3187.1201171875 -1.3863525390625 -3188.5400390625C-3.0603790283203125 -3191.22998046875 -6.16650390625 -3192.659912109375 -9.251754760742188 -3192.659912109375C-11.54669189453125 -3192.659912109375 -13.830001831054688 -3191.8701171875 -15.50390625 -3190.2099609375C-17.944595336914062 -3187.72998046875 -47.5675048828125 -3133.699951171875 -65.36990356445312 -3099.18994140625L-71.16049194335938 -3088.139892578125C-73.93620300292969 -3083.06005859375 -102.12300109863281 -3026.5 -107.96200561523438 -3014.25C-140.552001953125 -2946.10009765625 -165.82000732421875 -2888.77001953125 -191.32699584960938 -2824.97998046875C-313.2170104980469 -2520.52001953125 -377.1520080566406 -2222.22998046875 -388.2070007324219 -1906.6199951171875C-389.07000732421875 -1881.8800048828125 -389.4989929199219 -1857.0 -389.4989929199219 -1832.0C-389.4989929199219 -1579.6300048828125 -345.7909851074219 -1315.8499755859375 -263.4939880371094 -1075.3599853515625C-235.4980010986328 -993.6199951171875 -222.5290069580078 -946.530029296875 -210.1820068359375 -881.8280029296875C-196.4250030517578 -809.8690185546875 -189.6999969482422 -739.1160278320312 -189.6999969482422 -670.531005859375C-189.6999969482422 -398.4389953613281 -295.5409851074219 -160.46600341796875 -487.98699951171875 -16.638198852539062C-498.2760009765625 -8.933425903320312 -498.9460144042969 -8.167724609375 -498.9460144042969 -3.6213836669921875C-498.9460144042969 0.9249420166015625 -498.2760009765625 1.6906280517578125 -487.98699951171875 9.395477294921875C-293.9079895019531 154.4499969482422 -189.66900634765625 393.4840087890625 -189.66900634765625 663.4000244140625C-189.66900634765625 783.968017578125 -210.46800231933594 910.697998046875 -253.3489990234375 1037.969970703125L-268.3280029296875 1082.469970703125C-348.906005859375 1321.68994140625 -389.77899169921875 1575.6099853515625 -389.77899169921875 1833.469970703125C-389.77899169921875 1923.699951171875 -384.77301025390625 2014.4200439453125 -374.7120056152344 2105.159912109375C-335.51800537109375 2458.9599609375 -220.1840057373047 2816.43994140625 -36.5126953125 3153.2099609375C-16.700302124023438 3189.580078125 -15.743194580078125 3191.159912109375 -12.34539794921875 3192.159912109375Z" fill="black" /></g></svg>