<?xml version="1.0" encoding="utf-8" ?>
<svg baseProfile="tiny" height="100%" version="1.2" width="100%" xmlns="http://www.w3.org/2000/svg" xmlns:ev="http://www.w3.org/2001/xml-events" xmlns:xlink="http://www.w3.org/1999/xlink"><defs /><g transform="translate(0, 1000) scale(1, -1)"><path d="M-11.417404174804688 2928.27001953125C-10.687820434570312 2928.419921875 -9.969451904296875 2928.5 -9.2701416015625 2928.5C-4.1195831298828125 2928.5 -0.0014801025390625 2924.469970703125 -0.0014801025390625 2919.52001953125C-0.0014801025390625 2918.860107421875 -0.0742034912109375 2918.179931640625 -0.22686767578125 2917.5C-0.4619598388671875 2916.419921875 -3.3771514892578125 2910.679931640625 -6.7155303955078125 2904.7099609375C-163.94300842285156 2620.85009765625 -243.1680145263672 2296.469970703125 -243.1680145263672 1936.550048828125C-243.1680145263672 1931.9100341796875 -243.15501403808594 1927.27001953125 -243.12802124023438 1922.6199951171875C-242.8930206298828 1879.030029296875 -242.65802001953125 1869.02001953125 -241.38902282714844 1836.81005859375C-232.50201416015625 1615.8599853515625 -191.5950164794922 1379.1199951171875 -122.66502380371094 1149.8599853515625C-108.93501281738281 1104.199951171875 -98.96731567382812 1073.5899658203125 -78.32582092285156 1013.4500122070312C-48.21492004394531 925.9140014648438 -33.14280700683594 834.4550170898438 -33.14280700683594 742.676025390625C-33.14280700683594 658.3189697265625 -45.8756103515625 573.6909790039062 -71.36701965332031 491.5870056152344C-129.29501342773438 305.06201171875 -253.37802124023438 133.677001953125 -423.82301330566406 4.703033447265625C-429.3720245361328 0.5183258056640625 -433.93202209472656 -3.1021575927734375 -433.93202209472656 -3.2902374267578125C-433.93202209472656 -3.4783172607421875 -429.3720245361328 -7.098785400390625 -423.82301330566406 -11.283493041992188C-171.93801879882812 -201.82000732421875 -32.864410400390625 -473.6340026855469 -32.864410400390625 -750.1580200195312C-32.864410400390625 -840.281005859375 -47.636810302734375 -930.9039916992188 -78.09071350097656 -1019.3800048828125L-100.56602478027344 -1085.9100341796875C-195.62400817871094 -1377.75 -242.8920135498047 -1665.25 -242.8920135498047 -1938.4000244140625C-242.8920135498047 -2291.75 -163.79000854492188 -2621.080078125 -6.7155303955078125 -2904.7099609375C-3.3771514892578125 -2910.679931640625 -0.4619598388671875 -2916.409912109375 -0.22686767578125 -2917.5C-0.07269287109375 -2918.199951171875 -1.52587890625e-05 -2918.8798828125 -1.52587890625e-05 -2919.5400390625C-1.52587890625e-05 -2924.719970703125 -4.48834228515625 -2928.5 -9.180709838867188 -2928.5C-11.35711669921875 -2928.5 -13.577407836914062 -2927.679931640625 -15.414108276367188 -2925.820068359375C-19.739822387695312 -2921.39990234375 -55.803619384765625 -2854.159912109375 -83.35691833496094 -2799.050048828125C-266.6380157470703 -2432.39990234375 -360.58201599121094 -2052.580078125 -360.58201599121094 -1678.5899658203125C-360.58201599121094 -1625.780029296875 -360.0650177001953 -1607.1199951171875 -357.52601623535156 -1558.9200439453125C-347.27601623535156 -1367.510009765625 -310.6010284423828 -1175.530029296875 -249.94601440429688 -995.8670043945312C-235.135009765625 -951.9039916992188 -228.83401489257812 -932.7670288085938 -225.16702270507812 -920.635986328125C-193.38002014160156 -815.0139770507812 -177.93801879882812 -710.5900268554688 -177.93801879882812 -611.0189819335938C-177.93801879882812 -364.3169860839844 -272.73402404785156 -147.4080047607422 -448.6020050048828 -15.891403198242188C-456.03102111816406 -10.343093872070312 -459.7460174560547 -6.816680908203125 -459.7460174560547 -3.2902374267578125C-459.7460174560547 0.2362060546875 -456.03102111816406 3.762664794921875 -448.6020050048828 9.310928344726562C-272.2990264892578 141.15899658203125 -177.9860076904297 357.64300537109375 -177.9860076904297 603.6849975585938C-177.9860076904297 715.4580078125 -197.45001220703125 833.3319702148438 -237.53302001953125 952.1409912109375L-252.43801879882812 996.573974609375C-310.9770202636719 1172.1400146484375 -347.2760314941406 1362.2900390625 -357.7610168457031 1547.8699951171875C-360.58203125 1598.510009765625 -361.05303955078125 1616.2900390625 -361.05303955078125 1675.77001953125C-361.05303955078125 1729.97998046875 -360.9120178222656 1737.8299560546875 -359.1720275878906 1776.3900146484375C-341.9630432128906 2155.68994140625 -228.8340301513672 2540.550048828125 -27.0748291015625 2906.260009765625C-16.495529174804688 2925.39990234375 -15.037933349609375 2927.469970703125 -11.417434692382812 2928.27001953125Z" fill="black" /></g></svg>