<?xml version="1.0" encoding="utf-8" ?>
<svg baseProfile="tiny" height="100%" version="1.2" width="100%" xmlns="http://www.w3.org/2000/svg" xmlns:ev="http://www.w3.org/2001/xml-events" xmlns:xlink="http://www.w3.org/1999/xlink"><defs /><g transform="translate(0, 1000) scale(1, -1)"><path d="M-11.286102294921875 2229.889892578125C-10.486297607421875 2230.090087890625 -9.694320678710938 2230.18994140625 -8.923019409179688 2230.18994140625C-4.059661865234375 2230.18994140625 -0.01788330078125 2226.300048828125 -0.01788330078125 2221.080078125C-0.01788330078125 2220.75 -0.0121612548828125 2220.4599609375 -0.0121612548828125 2220.199951171875C-0.0121612548828125 2218.1201171875 -0.3744354248046875 2217.60009765625 -6.8622589111328125 2205.85009765625C-121.97500610351562 1996.949951171875 -180.28500366210938 1754.3299560546875 -180.28500366210938 1490.22998046875C-180.28500366210938 1364.719970703125 -167.11700439453125 1234.3699951171875 -140.6199951171875 1100.47998046875C-118.95999145507812 990.9719848632812 -90.99800109863281 889.0999755859375 -51.3507080078125 774.8740234375C-39.7904052734375 741.5700073242188 -30.40020751953125 703.5499877929688 -24.849594116210938 667.7429809570312C-19.801803588867188 635.1160278320312 -17.314605712890625 602.531982421875 -17.314605712890625 570.155029296875C-17.314605712890625 356.5270080566406 -125.59700012207031 151.89599609375 -321.1189880371094 3.379302978515625C-325.1260070800781 0.332733154296875 -328.4230041503906 -2.3382415771484375 -328.4230041503906 -2.5051727294921875C-328.4230041503906 -2.6721038818359375 -325.1260070800781 -5.3430938720703125 -321.1189880371094 -8.389663696289062C-183.56399536132812 -112.85000610351562 -85.53079223632812 -249.57000732421875 -43.00390625 -396.0570068359375C-25.776596069335938 -455.48199462890625 -17.168899536132812 -515.3720092773438 -17.168899536132812 -575.1079711914062C-17.168899536132812 -645.7589721679688 -29.209396362304688 -716.1950073242188 -53.27040100097656 -785.3930053710938C-129.18499755859375 -1003.75 -170.37600708007812 -1215.4200439453125 -178.84800720214844 -1430.8499755859375C-179.40499877929688 -1445.0400390625 -179.66900634765625 -1463.4100341796875 -179.66900634765625 -1483.219970703125C-179.66900634765625 -1518.3399658203125 -178.83999633789062 -1557.989990234375 -177.3459930419922 -1586.93994140625C-165.66000366210938 -1810.6300048828125 -107.60800170898438 -2022.1400146484375 -8.19775390625 -2203.35009765625C-0.5726318359375 -2217.25 0.0 -2218.1298828125 0.0 -2219.949951171875C0.0 -2220.27001953125 -0.01788330078125 -2220.6298828125 -0.01788330078125 -2221.080078125C-0.01788330078125 -2226.75 -4.4853363037109375 -2230.18994140625 -9.064682006835938 -2230.18994140625C-11.944305419921875 -2230.18994140625 -14.86810302734375 -2228.830078125 -16.753204345703125 -2225.800048828125C-24.348800659179688 -2213.699951171875 -53.81300354003906 -2158.18994140625 -71.29949951171875 -2123.010009765625C-212.94500732421875 -1838.510009765625 -285.0190124511719 -1548.9599609375 -285.0190124511719 -1264.5400390625C-285.0190124511719 -1224.97998046875 -284.8110046386719 -1216.0899658203125 -283.3080139160156 -1185.449951171875C-275.7959899902344 -1030.8699951171875 -247.75100708007812 -885.3460083007812 -197.16900634765625 -738.2750244140625C-172.0449981689453 -665.198974609375 -158.2729949951172 -605.72802734375 -150.88600158691406 -538.5780029296875C-147.7050018310547 -509.6780090332031 -146.13299560546875 -481.2879943847656 -146.13299560546875 -453.5190124511719C-146.13299560546875 -277.656005859375 -209.1719970703125 -126.70098876953125 -325.6260070800781 -28.881103515625C-331.385986328125 -23.998199462890625 -344.614990234375 -13.648193359375 -348.5799865722656 -10.852005004882812C-351.94000244140625 -8.514862060546875 -353.6189880371094 -5.5100250244140625 -353.6189880371094 -2.5051727294921875C-353.6189880371094 0.499664306640625 -351.94000244140625 3.5045166015625 -348.5799865722656 5.84161376953125C-347.1189880371094 6.8849639892578125 -342.52899169921875 10.390594482421875 -338.3550109863281 13.645904541015625C-230.47300720214844 97.65640258789062 -163.78199768066406 227.49099731445312 -149.2169952392578 381.864990234375C-147.08200073242188 404.5360107421875 -146.00799560546875 427.2539978027344 -146.00799560546875 450.1090087890625C-146.00799560546875 540.7219848632812 -162.88299560546875 633.4739990234375 -197.3780059814453 733.8909912109375C-256.83099365234375 906.7760009765625 -285.5589904785156 1078.93994140625 -285.5589904785156 1262.3699951171875C-285.5589904785156 1266.2900390625 -285.5459899902344 1270.2099609375 -285.5199890136719 1274.1400146484375C-285.2699890136719 1309.1500244140625 -285.0610046386719 1316.5799560546875 -283.5589904785156 1347.3800048828125C-269.2860107421875 1633.8399658203125 -180.4340057373047 1930.3199462890625 -24.265304565429688 2212.530029296875C-15.417694091796875 2228.550048828125 -15.16729736328125 2228.929931640625 -11.286102294921875 2229.889892578125Z" fill="black" /></g></svg>