<?xml version="1.0" encoding="utf-8" ?>
<svg baseProfile="tiny" height="100%" version="1.2" width="100%" xmlns="http://www.w3.org/2000/svg" xmlns:ev="http://www.w3.org/2001/xml-events" xmlns:xlink="http://www.w3.org/1999/xlink"><defs /><g transform="translate(0, 1000) scale(1, -1)"><path d="M-19.505096435546875 656.6069946289062C-18.998992919921875 656.6849975585938 -18.499801635742188 656.7219848632812 -18.01019287109375 656.7219848632812C-12.951904296875 656.7219848632812 -8.914993286132812 652.7239990234375 -8.914993286132812 647.698974609375C-8.914993286132812 647.2620239257812 -8.945526123046875 646.8170166015625 -9.008544921875 646.3660278320312C-9.245849609375 644.7780151367188 -9.483154296875 644.2490234375 -12.002304077148438 639.6489868164062C-39.99920654296875 588.7570190429688 -53.996490478515625 529.7969970703125 -53.996490478515625 463.02899169921875C-53.996490478515625 395.5350036621094 -39.69340515136719 320.0610046386719 -11.089599609375 236.87399291992188C-4.6821441650390625 218.2729949951172 -1.5058135986328125 203.4499969482422 -0.42877197265625 187.11199951171875C-0.1450347900390625 182.8070068359375 -0.0032806396484375 178.52999877929688 -0.0032806396484375 174.28199768066406C-0.0032806396484375 117.57499694824219 -25.253997802734375 65.88890075683594 -75.18218994140625 20.427093505859375C-82.13729858398438 14.11090087890625 -94.03948974609375 4.143768310546875 -99.58889770507812 -7.62939453125e-05C-100.11799621582031 -0.392547607421875 -100.38299560546875 -0.5614013671875 -100.38299560546875 -0.7302703857421875C-100.38299560546875 -0.8991241455078125 -100.11799621582031 -1.0679779052734375 -99.58889770507812 -1.4604644775390625C-91.41079711914062 -7.55755615234375 -77.86569213867188 -19.185897827148438 -68.39140319824219 -28.258499145507812C-23.404403686523438 -71.29290771484375 0.0 -121.97599792480469 0.0 -175.39700317382812C0.0 -185.90199279785156 -0.9050140380859375 -196.51300048828125 -2.7288818359375 -207.19200134277344C-4.371826171875 -216.83099365234375 -6.799713134765625 -225.9029998779297 -11.071304321289062 -238.3350067138672C-32.97709655761719 -302.04400634765625 -46.430908203125 -360.9339904785156 -51.61529541015625 -415.8450012207031C-53.14289855957031 -431.96099853515625 -53.90399169921875 -447.7409973144531 -53.90399169921875 -463.1570129394531C-53.90399169921875 -529.5330200195312 -39.793701171875 -589.14697265625 -12.002304077148438 -639.6489868164062C-9.483154296875 -644.2490234375 -9.245849609375 -644.7780151367188 -9.008544921875 -646.3660278320312C-8.943679809570312 -646.8250122070312 -8.912399291992188 -647.2760009765625 -8.912399291992188 -647.718017578125C-8.912399291992188 -652.843017578125 -13.120193481445312 -656.7219848632812 -17.934097290039062 -656.7219848632812C-19.246307373046875 -656.7219848632812 -20.603607177734375 -656.4340209960938 -21.932891845703125 -655.8040161132812C-24.050506591796875 -654.7999877929688 -25.01800537109375 -653.68701171875 -27.299896240234375 -649.5980224609375C-84.893798828125 -546.31201171875 -114.54000854492188 -451.0950012207031 -116.78500366210938 -362.0840148925781C-116.94100952148438 -356.1159973144531 -117.01400756835938 -352.6610107421875 -117.01400756835938 -349.4179992675781C-117.01400756835938 -346.9779968261719 -116.97299194335938 -344.6570129394531 -116.89399719238281 -341.4750061035156C-115.88999938964844 -298.35699462890625 -109.30000305175781 -257.4840087890625 -97.27059936523438 -219.87899780273438C-96.5950927734375 -217.76199340820312 -95.99270629882812 -215.88099670410156 -95.93800354003906 -215.68099975585938C-95.88320922851562 -215.47999572753906 -94.71490478515625 -212.02999877929688 -93.32749938964844 -208.01400756835938C-83.06829833984375 -178.16700744628906 -77.5006103515625 -153.41400146484375 -75.38299560546875 -128.24000549316406C-74.89968872070312 -122.5260009765625 -74.6597900390625 -116.92999267578125 -74.6597900390625 -111.46099853515625C-74.6597900390625 -67.36279296875 -90.25340270996094 -31.561798095703125 -119.48699951171875 -9.328277587890625C-123.22900390625 -6.48052978515625 -124.32400512695312 -4.9653778076171875 -124.74400329589844 -2.04461669921875C-124.82499694824219 -1.469085693359375 -124.86799621582031 -0.9254150390625 -124.86799621582031 -0.4062042236328125C-124.86799621582031 2.6976470947265625 -123.3489990234375 4.9276580810546875 -119.48699951171875 7.8677520751953125C-89.8125 30.425994873046875 -74.77059936523438 65.49069213867188 -74.77059936523438 110.07598876953125C-74.77059936523438 138.1199951171875 -80.72140502929688 169.92999267578125 -92.72509765625 204.76400756835938C-108.97299194335938 251.91299438476562 -117.13800048828125 299.8299865722656 -117.13800048828125 349.0790100097656C-117.13800048828125 443.14300537109375 -87.35009765625 542.0650024414062 -27.1903076171875 649.780029296875C-24.561599731445312 654.489990234375 -22.7362060546875 656.114013671875 -19.505096435546875 656.6069946289062Z" fill="black" /></g></svg>