<?xml version="1.0" encoding="utf-8" ?>
<svg baseProfile="tiny" height="100%" version="1.2" width="100%" xmlns="http://www.w3.org/2000/svg" xmlns:ev="http://www.w3.org/2001/xml-events" xmlns:xlink="http://www.w3.org/1999/xlink"><defs /><g transform="translate(0, 1000) scale(1, -1)"><path d="M-11.473800659179688 2114.2900390625C-10.592514038085938 2114.52001953125 -9.724624633789062 2114.6298828125 -8.884933471679688 2114.6298828125C-3.957000732421875 2114.6298828125 -1.52587890625e-05 2110.85009765625 -1.52587890625e-05 2105.5400390625V2102.580078125L-4.62908935546875 2094.27001953125C-95.66754150390625 1930.27001953125 -150.62303161621094 1740.239990234375 -165.53903198242188 1537.989990234375C-168.4600372314453 1498.4200439453125 -169.91302490234375 1458.22998046875 -169.91302490234375 1417.530029296875C-169.91302490234375 1206.2900390625 -130.79502868652344 981.1849975585938 -54.79722595214844 757.968994140625C-40.712127685546875 716.6640014648438 -38.49652099609375 709.5029907226562 -33.11572265625 688.3350219726562C-20.8270263671875 640.1129760742188 -14.727035522460938 590.8720092773438 -14.727035522460938 541.6099853515625C-14.727035522460938 457.0119934082031 -32.717529296875 372.3529968261719 -68.24923706054688 292.68798828125C-72.87823486328125 282.2829895019531 -81.66162109375 264.0830078125 -84.82682800292969 258.2669982910156L-91.59242248535156 245.8040008544922C-136.3400115966797 163.27198791503906 -200.71202087402344 86.87239074707031 -280.51402282714844 21.63018798828125C-287.63600158691406 15.8140869140625 -305.28102111816406 2.0456085205078125 -309.31700134277344 -0.8821868896484375C-310.46400451660156 -1.693267822265625 -311.0380096435547 -2.0790252685546875 -311.0380096435547 -2.46478271484375C-311.0380096435547 -2.8505401611328125 -310.46400451660156 -3.236297607421875 -309.31700134277344 -4.04736328125C-305.28102111816406 -6.97515869140625 -287.63600158691406 -20.74371337890625 -280.51402282714844 -26.559707641601562C-200.71202087402344 -91.80192565917969 -136.3400115966797 -168.20101928710938 -91.59242248535156 -250.73301696777344L-84.82682800292969 -263.19602966308594C-81.66163635253906 -269.0120086669922 -72.87825012207031 -287.21202087402344 -68.24925231933594 -297.61802673339844C-32.71754455566406 -377.2830047607422 -14.72705078125 -461.94102478027344 -14.72705078125 -546.5399932861328C-14.72705078125 -595.8010406494141 -20.827041625976562 -645.0420074462891 -33.11573791503906 -693.2650299072266C-38.49653625488281 -714.3930206298828 -40.71214294433594 -721.5930328369141 -54.75764465332031 -762.7800445556641C-77.78434753417969 -830.4749908447266 -97.60624694824219 -898.8430328369141 -113.51104736328125 -965.4699859619141C-150.90304565429688 -1122.240005493164 -169.50704956054688 -1273.9300689697266 -169.50704956054688 -1418.5999908447266C-169.50704956054688 -1668.8900299072266 -113.83305358886719 -1898.209976196289 -3.442169189453125 -2096.629898071289L-4.57763671875e-05 -2102.760025024414V-2105.729995727539C-4.57763671875e-05 -2111.260025024414 -3.3630523681640625 -2114.629898071289 -8.902099609375 -2114.629898071289H-9.105545043945312C-15.033950805664062 -2114.629898071289 -15.129043579101562 -2114.399917602539 -37.46784973144531 -2072.889907836914C-142.3540496826172 -1878.310073852539 -215.23204040527344 -1670.8299713134766 -249.25804138183594 -1470.1200103759766C-264.8550567626953 -1378.1500396728516 -272.64305114746094 -1286.790054321289 -272.64305114746094 -1196.500015258789C-272.64305114746094 -1054.0799713134766 -253.26805114746094 -914.2990264892578 -214.5990447998047 -778.9229888916016C-206.3700408935547 -750.1590118408203 -200.91004943847656 -733.0280303955078 -185.6770477294922 -688.1220245361328C-155.3920440673828 -598.9080352783203 -140.61505126953125 -510.9980010986328 -140.61505126953125 -428.2890167236328C-140.61505126953125 -263.99501037597656 -198.92105102539062 -120.22201538085938 -309.7920379638672 -27.50921630859375C-315.92405700683594 -22.405410766601562 -324.9850311279297 -15.283721923828125 -329.85105895996094 -11.76251220703125C-334.14405822753906 -8.636871337890625 -336.29005432128906 -5.5508270263671875 -336.29005432128906 -2.46478271484375C-336.29005432128906 0.62127685546875 -334.14405822753906 3.7073211669921875 -329.85105895996094 6.8329315185546875C-324.9850311279297 10.35418701171875 -315.92405700683594 17.47589111328125 -309.7920379638672 22.579681396484375C-198.92105102539062 115.29298400878906 -140.61505126953125 259.0659942626953 -140.61505126953125 423.35899353027344C-140.61505126953125 506.06797790527344 -155.3920440673828 593.9780120849609 -185.6770477294922 683.1920013427734C-208.11004638671875 749.3049774169922 -218.67404174804688 785.0319671630859 -231.45404052734375 838.2859954833984C-259.28404235839844 954.1099700927734 -273.09605407714844 1072.9100189208984 -273.09605407714844 1193.4200286865234C-273.09605407714844 1489.040023803711 -189.97604370117188 1794.9200286865234 -26.78533935546875 2092.290023803711C-15.707244873046875 2112.469955444336 -15.113739013671875 2113.340072631836 -11.473846435546875 2114.290023803711Z" fill="black" /></g></svg>