<?xml version="1.0" encoding="utf-8" ?>
<svg baseProfile="tiny" height="100%" version="1.2" width="100%" xmlns="http://www.w3.org/2000/svg" xmlns:ev="http://www.w3.org/2001/xml-events" xmlns:xlink="http://www.w3.org/1999/xlink"><defs /><g transform="translate(0, 1000) scale(1, -1)"><path d="M-11.117401123046875 3108.68994140625C-10.289199829101562 3108.889892578125 -9.48773193359375 3108.97998046875 -8.720382690429688 3108.97998046875C-3.6620635986328125 3108.97998046875 -0.085418701171875 3104.860107421875 -0.085418701171875 3099.800048828125C-0.085418701171875 3097.989990234375 -0.546295166015625 3096.050048828125 -1.5649871826171875 3094.14990234375L-11.397003173828125 3076.260009765625C-176.36000061035156 2775.2099609375 -259.7770080566406 2427.320068359375 -259.7770080566406 2052.469970703125C-259.7770080566406 1830.449951171875 -230.51400756835938 1598.97998046875 -171.5989990234375 1362.1700439453125C-150.8159942626953 1278.6199951171875 -122.5780029296875 1183.3800048828125 -94.24710083007812 1100.989990234375C-82.92401123046875 1068.18994140625 -79.52239990234375 1057.93994140625 -75.60820007324219 1045.0799560546875C-49.86689758300781 960.0289916992188 -37.157501220703125 873.2020263671875 -37.157501220703125 786.6439819335938C-37.157501220703125 606.2039794921875 -92.38819885253906 426.9320068359375 -199.92999267578125 267.36700439453125C-266.0979919433594 169.13999938964844 -354.63299560546875 76.50460815429688 -451.74200439453125 3.8592529296875C-457.0539855957031 -0.1015167236328125 -461.38800048828125 -3.4565277099609375 -461.38800048828125 -3.5963134765625C-461.38800048828125 -3.736114501953125 -457.0539855957031 -7.09112548828125 -451.74200439453125 -11.051895141601562C-369.0320129394531 -72.93319702148438 -292.75201416015625 -149.02699279785156 -230.4510040283203 -231.78399658203125C-103.07400512695312 -400.9419860839844 -37.153106689453125 -597.1339721679688 -37.153106689453125 -794.2579956054688C-37.153106689453125 -890.8469848632812 -52.980499267578125 -987.6599731445312 -85.16070556640625 -1081.6300048828125C-135.2530059814453 -1227.800048828125 -165.86700439453125 -1336.0 -193.68600463867188 -1464.6600341796875C-237.39999389648438 -1667.06005859375 -259.1090087890625 -1864.97998046875 -259.1090087890625 -2055.820068359375C-259.1090087890625 -2429.5 -175.8769989013672 -2776.030029296875 -11.6300048828125 -3075.989990234375L-1.611572265625 -3094.35009765625C-0.510498046875 -3096.389892578125 0.0 -3098.419921875 0.0 -3100.300048828125C0.0 -3105.169921875 -3.4434661865234375 -3108.97998046875 -8.927352905273438 -3108.97998046875C-14.425796508789062 -3108.97998046875 -14.891799926757812 -3108.469970703125 -23.74530029296875 -3092.5400390625C-225.79200744628906 -2729.590087890625 -346.47900390625 -2338.449951171875 -373.7850036621094 -1958.1199951171875C-377.7650146484375 -1902.699951171875 -380.0119934082031 -1833.8900146484375 -380.0119934082031 -1775.1800537109375C-380.0119934082031 -1752.7900390625 -379.68499755859375 -1731.8699951171875 -379.0039978027344 -1713.719970703125C-372.3399963378906 -1537.300048828125 -351.5580139160156 -1387.77001953125 -311.6239929199219 -1228.8699951171875C-293.0780029296875 -1154.969970703125 -279.7049865722656 -1110.56005859375 -249.8820037841797 -1023.1500244140625C-206.75599670410156 -896.7219848632812 -186.1439971923828 -776.5910034179688 -186.1439971923828 -651.0819702148438C-186.1439971923828 -647.89697265625 -186.15699768066406 -644.7069702148438 -186.1840057373047 -641.5139770507812C-186.46299743652344 -610.8070068359375 -186.6959991455078 -604.0969848632812 -188.14100646972656 -583.0349731445312C-205.1490020751953 -342.73199462890625 -307.6629943847656 -140.91900634765625 -476.4389953613281 -15.664993286132812C-485.1990051269531 -9.188003540039062 -486.27099609375 -7.8366851806640625 -486.27099609375 -3.5963134765625C-486.27099609375 0.64404296875 -485.1990051269531 1.9953765869140625 -476.4389953613281 8.472396850585938C-307.6629943847656 133.7259979248047 -205.1490020751953 335.53900146484375 -188.14100646972656 575.8419799804688C-186.6959991455078 596.9039916992188 -186.46299743652344 603.614013671875 -186.1840057373047 634.322021484375C-186.15699768066406 637.5150146484375 -186.1439971923828 640.7039794921875 -186.1439971923828 643.8900146484375C-186.1439971923828 769.3980102539062 -206.75599670410156 889.5289916992188 -249.8820037841797 1015.9500122070312C-288.37200927734375 1128.77001953125 -310.8320007324219 1208.77001953125 -331.614013671875 1307.4200439453125C-364.36700439453125 1462.8800048828125 -380.5979919433594 1621.5699462890625 -380.5979919433594 1781.7900390625C-380.5979919433594 2212.840087890625 -263.1029968261719 2654.85009765625 -33.7637939453125 3074.159912109375C-15.171401977539062 3108.179931640625 -15.544204711914062 3107.570068359375 -11.117401123046875 3108.68994140625Z" fill="black" /></g></svg>