<?xml version="1.0" encoding="utf-8" ?>
<svg baseProfile="tiny" height="100%" version="1.2" width="100%" xmlns="http://www.w3.org/2000/svg" xmlns:ev="http://www.w3.org/2001/xml-events" xmlns:xlink="http://www.w3.org/1999/xlink"><defs /><g transform="translate(0, 1000) scale(1, -1)"><path d="M-11.96319580078125 1354.4300537109375C-11.08050537109375 1354.7900390625 -10.157394409179688 1354.949951171875 -9.232406616210938 1354.949951171875C-4.782684326171875 1354.949951171875 -0.288330078125 1351.0899658203125 -0.0370941162109375 1346.260009765625C-0.015869140625 1345.8900146484375 0.0 1345.56005859375 0.0 1345.25C0.0 1343.3499755859375 -0.600799560546875 1342.1500244140625 -4.2552337646484375 1335.52001953125C-70.21649169921875 1215.6700439453125 -103.36900329589844 1077.81005859375 -103.36900329589844 925.0009765625C-103.36900329589844 849.1890258789062 -95.20899963378906 769.697021484375 -78.84649658203125 686.8980102539062C-65.19070434570312 617.7999877929688 -45.61729431152344 546.2739868164062 -21.552597045898438 477.35699462890625C-7.203155517578125 436.3110046386719 -0.08538818359375 394.052001953125 -0.08538818359375 351.84100341796875C-0.08538818359375 286.5719909667969 -17.102508544921875 221.41600036621094 -50.71549987792969 161.02699279785156C-83.00399780273438 103.03500366210938 -132.3470001220703 47.5924072265625 -192.88800048828125 1.3749542236328125C-194.95199584960938 -0.172698974609375 -196.62100219726562 -1.5382843017578125 -196.62100219726562 -1.6596832275390625C-196.62100219726562 -1.78106689453125 -194.95199584960938 -3.1466522216796875 -192.91799926757812 -4.694305419921875C-67.74819946289062 -100.24200439453125 -0.11712646484375 -224.24899291992188 -0.11712646484375 -354.77301025390625C-0.11712646484375 -374.2749938964844 -1.62689208984375 -393.9219970703125 -4.680084228515625 -413.6409912109375C-7.7147064208984375 -433.2449951171875 -15.14959716796875 -463.8039855957031 -19.731903076171875 -475.5480041503906C-20.733306884765625 -478.1579895019531 -28.896499633789062 -502.1619873046875 -31.779403686523438 -511.02301025390625C-79.35800170898438 -657.5609741210938 -103.10501098632812 -796.7540283203125 -103.10501098632812 -925.85302734375C-103.10501098632812 -1078.030029296875 -70.10848999023438 -1216.1800537109375 -4.2552337646484375 -1335.81005859375C-0.600799560546875 -1342.43994140625 0.0 -1343.6300048828125 0.0 -1345.5400390625C0.0 -1345.8499755859375 -0.015869140625 -1346.1700439453125 -0.0370941162109375 -1346.550048828125C-0.310211181640625 -1351.56005859375 -3.9517669677734375 -1354.949951171875 -9.080307006835938 -1354.949951171875C-14.087417602539062 -1354.949951171875 -15.179916381835938 -1353.9200439453125 -20.854721069335938 -1343.72998046875C-79.69621276855469 -1237.8800048828125 -123.94102478027344 -1129.9100341796875 -152.43601989746094 -1022.6599731445312C-176.760009765625 -931.0640258789062 -188.9180145263672 -840.1220092773438 -188.9180145263672 -750.9569702148438C-188.9180145263672 -656.2349853515625 -175.197021484375 -563.5189819335938 -147.7630157470703 -474.1520080566406C-145.3660125732422 -466.322998046875 -140.9960174560547 -453.0920104980469 -134.71401977539062 -434.54998779296875C-114.07600402832031 -373.6400146484375 -103.98200988769531 -314.7850036621094 -103.98200988769531 -260.37799072265625C-103.98200988769531 -155.26199340820312 -141.6590118408203 -66.74880981445312 -213.76602172851562 -12.098800659179688C-220.77601623535156 -6.7881927490234375 -221.35301208496094 -5.9688568115234375 -221.35301208496094 -1.6596832275390625C-221.35301208496094 2.6494903564453125 -220.77601623535156 3.468841552734375 -213.76602172851562 8.779449462890625C-173.49700927734375 39.30787658691406 -143.57501220703125 80.60917663574219 -124.63902282714844 131.86398315429688C-110.86100769042969 169.14698791503906 -104.00601196289062 211.24998474121094 -104.00601196289062 256.26597595214844C-104.00601196289062 311.3879852294922 -114.28401184082031 370.8769989013672 -134.71401977539062 431.23097229003906C-148.7340087890625 472.6529998779297 -153.55902099609375 488.76698303222656 -161.6920166015625 521.3589935302734C-180.0900115966797 595.2729949951172 -189.2440185546875 671.1729583740234 -189.2440185546875 748.5070037841797C-189.2440185546875 933.9409637451172 -136.61302185058594 1127.6199798583984 -32.59870910644531 1321.9000091552734C-16.818618774414062 1351.3299407958984 -15.877914428710938 1352.8499603271484 -11.963211059570312 1354.4300384521484Z" fill="black" /></g></svg>