<?xml version="1.0" encoding="utf-8" ?>
<svg baseProfile="tiny" height="100%" version="1.2" width="100%" xmlns="http://www.w3.org/2000/svg" xmlns:ev="http://www.w3.org/2001/xml-events" xmlns:xlink="http://www.w3.org/1999/xlink"><defs /><g transform="translate(0, 1000) scale(1, -1)"><path d="M-18.986495971679688 873.3909912109375C-17.991180419921875 873.7150268554688 -17.001190185546875 873.8670043945312 -16.042190551757812 873.8670043945312C-11.223892211914062 873.8670043945312 -7.188629150390625 870.0189819335938 -7.188629150390625 864.7130126953125C-7.188629150390625 864.3880004882812 -7.18560791015625 864.1069946289062 -7.18560791015625 863.85498046875C-7.18560791015625 861.833984375 -7.378204345703125 861.6370239257812 -10.844985961914062 855.35302734375C-49.79838562011719 784.7680053710938 -69.70579528808594 700.6890258789062 -69.70579528808594 607.9149780273438C-69.70579528808594 587.0170288085938 -68.69569396972656 565.677978515625 -66.66558837890625 543.9520263671875C-59.62098693847656 468.82598876953125 -43.06977844238281 396.0400085449219 -12.9412841796875 307.9939880371094C-4.29541015625 282.7049865722656 1.52587890625e-05 256.4639892578125 1.52587890625e-05 230.18499755859375C1.52587890625e-05 194.22900390625 -8.041519165039062 158.2010040283203 -23.98358154296875 124.44400024414062C-44.92237854003906 80.12899780273438 -79.60917663574219 39.080108642578125 -127.55598449707031 1.8582611083984375C-129.53099060058594 0.3225860595703125 -131.13998413085938 -1.018096923828125 -131.13998413085938 -1.091217041015625C-131.13998413085938 -1.164337158203125 -129.53099060058594 -2.5050048828125 -127.55598449707031 -4.0406951904296875C-79.60917663574219 -41.262603759765625 -44.92237854003906 -82.3114013671875 -23.98358154296875 -126.62699890136719C-8.041519165039062 -160.38400268554688 1.52587890625e-05 -196.41900634765625 1.52587890625e-05 -232.3780059814453C1.52587890625e-05 -258.6579895019531 -4.29541015625 -284.89801025390625 -12.9412841796875 -310.177001953125L-19.010879516601562 -328.2149963378906C-52.60899353027344 -429.0790100097656 -69.39308166503906 -523.5499877929688 -69.39308166503906 -609.5349731445312C-69.39308166503906 -702.0900268554688 -49.94578552246094 -784.8140258789062 -11.088790893554688 -855.0980224609375C-7.3810577392578125 -861.7940063476562 -7.1859130859375 -862.030029296875 -7.1859130859375 -864.135986328125C-7.1859130859375 -864.3839721679688 -7.188629150390625 -864.656982421875 -7.188629150390625 -864.969970703125C-7.188629150390625 -870.5029907226562 -10.552490234375 -873.8670043945312 -16.085784912109375 -873.8670043945312C-21.058486938476562 -873.8670043945312 -22.155380249023438 -872.8920288085938 -27.103683471679688 -863.9710083007812C-96.11158752441406 -739.4099731445312 -133.9189910888672 -619.968994140625 -140.0369873046875 -507.37701416015625C-140.69097900390625 -495.2560119628906 -141.02198791503906 -483.3580017089844 -141.02198791503906 -471.62298583984375C-141.02198791503906 -406.35198974609375 -130.77798461914062 -346.1180114746094 -108.83598327636719 -280.55999755859375C-98.74418640136719 -250.38299560546875 -94.33218383789062 -233.51499938964844 -90.18827819824219 -209.38299560546875C-87.04798889160156 -191.05999755859375 -85.49748229980469 -173.45599365234375 -85.49748229980469 -156.7010040283203C-85.49748229980469 -93.21119689941406 -107.76197814941406 -41.91619873046875 -150.15298461914062 -9.93963623046875C-154.6619873046875 -6.5270233154296875 -155.7589874267578 -4.7963409423828125 -155.7589874267578 -1.091217041015625C-155.7589874267578 2.6139068603515625 -154.6619873046875 4.3445892333984375 -150.15298461914062 7.7572021484375C-107.76197814941406 39.733795166015625 -85.49748229980469 91.02880859375 -85.49748229980469 154.5189971923828C-85.49748229980469 171.2740020751953 -87.04798889160156 188.8780059814453 -90.18827819824219 207.1999969482422C-94.33218383789062 231.42999267578125 -98.71978759765625 248.15199279785156 -108.95799255371094 278.7430114746094C-131.26898193359375 345.4179992675781 -141.0869903564453 404.031005859375 -141.0869903564453 471.1679992675781C-141.0869903564453 473.1990051269531 -141.0789794921875 475.23699951171875 -141.0609893798828 477.28399658203125C-140.93898010253906 492.37298583984375 -140.81698608398438 495.9070129394531 -140.0369873046875 509.4599914550781C-133.552978515625 620.9550170898438 -95.72158813476562 739.6170043945312 -27.2255859375 863.5189819335938C-22.862289428710938 871.3920288085938 -22.009078979492188 872.416015625 -18.986480712890625 873.3909912109375Z" fill="black" /></g></svg>