<?xml version="1.0" encoding="utf-8" ?>
<svg baseProfile="tiny" height="100%" version="1.2" width="100%" xmlns="http://www.w3.org/2000/svg" xmlns:ev="http://www.w3.org/2001/xml-events" xmlns:xlink="http://www.w3.org/1999/xlink"><defs /><g transform="translate(0, 1000) scale(1, -1)"><path d="M-19.627899169921875 563.5830078125C-19.16119384765625 563.656005859375 -18.69879150390625 563.6909790039062 -18.243408203125 563.6909790039062C-13.389694213867188 563.6909790039062 -9.3265380859375 559.7119750976562 -9.3265380859375 554.6110229492188C-9.3265380859375 552.43798828125 -9.576629638671875 551.6409912109375 -11.18670654296875 548.7490234375C-35.17649841308594 505.44500732421875 -47.16130065917969 455.69000244140625 -47.16130065917969 399.33099365234375C-47.16130065917969 380.8840026855469 -45.87730407714844 361.72900390625 -43.31010437011719 341.86199951171875C-37.776397705078125 299.0780029296875 -25.474197387695312 249.10299682617188 -8.888839721679688 201.95700073242188C-2.94970703125 185.0659942626953 -0.0072174072265625 167.5330047607422 -0.0072174072265625 150.02099609375C-0.0072174072265625 123.79299926757812 -6.60809326171875 97.610107421875 -19.627899169921875 73.69830322265625C-33.32130432128906 48.5155029296875 -53.07989501953125 26.271499633789062 -82.70220947265625 2.65179443359375C-84.89059448242188 0.9010467529296875 -86.68829345703125 -0.5683441162109375 -86.68829345703125 -0.6308746337890625C-86.68829345703125 -0.6934051513671875 -84.89059448242188 -2.1627960205078125 -82.70220947265625 -3.913543701171875C-39.55839538574219 -38.319091796875 -15.110305786132812 -72.39649963378906 -4.933990478515625 -112.32000732421875C-1.6414337158203125 -125.23001098632812 0.0 -138.322998046875 0.0 -151.36900329589844C0.0 -168.9199981689453 -2.9708099365234375 -186.38800048828125 -8.888839721679688 -203.218994140625C-23.145004272460938 -243.73699951171875 -34.33740234375 -286.7239990234375 -40.65260314941406 -325.2250061035156C-44.92570495605469 -351.2489929199219 -47.0625 -376.11700439453125 -47.0625 -399.8299865722656C-47.0625 -455.92401123046875 -35.10569763183594 -505.5580139160156 -11.18670654296875 -548.760009765625C-9.576629638671875 -551.6519775390625 -9.3265380859375 -552.448974609375 -9.3265380859375 -554.6220092773438C-9.3265380859375 -560.0900268554688 -13.7366943359375 -563.6909790039062 -18.359100341796875 -563.6909790039062C-20.594497680664062 -563.6909790039062 -22.879608154296875 -562.8489990234375 -24.739501953125 -560.968017578125C-26.865402221679688 -558.8109741210938 -41.668701171875 -530.9869995117188 -51.00090026855469 -511.5559997558594C-87.71200561523438 -435.2569885253906 -105.8699951171875 -365.3320007324219 -105.8699951171875 -298.04400634765625C-105.8699951171875 -256.74200439453125 -99.02909851074219 -216.4340057373047 -85.43769836425781 -176.25399780273438C-77.57499694824219 -153.04100036621094 -73.02609252929688 -134.48599243164062 -70.83760070800781 -116.77499389648438C-69.7659912109375 -108.10800170898438 -69.2239990234375 -100.06700134277344 -69.2239990234375 -92.48829650878906C-69.2239990234375 -77.51499938964844 -71.33990478515625 -64.34660339355469 -75.66790771484375 -51.715606689453125C-81.52980041503906 -34.55189514160156 -92.31570434570312 -19.34210205078125 -105.79000854492188 -9.212738037109375C-109.9639892578125 -6.08636474609375 -111.05799865722656 -4.2887115478515625 -111.05799865722656 -0.6308746337890625C-111.05799865722656 3.0269775390625 -109.9639892578125 4.824615478515625 -105.79000854492188 7.9509735107421875C-87.00090026855469 22.08209228515625 -74.40170288085938 44.77949523925781 -70.60321044921875 71.43170166015625C-69.66571044921875 78.00119018554688 -69.19290161132812 84.805908203125 -69.19290161132812 91.89950561523438C-69.19290161132812 115.677001953125 -74.5054931640625 142.7010040283203 -85.43769836425781 174.99200439453125C-96.0830078125 206.45899963378906 -102.07000732421875 234.5500030517578 -104.57099914550781 264.718994140625C-105.45700073242188 275.40399169921875 -105.90299987792969 286.1099853515625 -105.90299987792969 296.8599853515625C-105.90299987792969 377.3559875488281 -80.90570068359375 460.28900146484375 -28.475494384765625 554.9860229492188C-24.739501953125 561.7230224609375 -23.442001342773438 562.989013671875 -19.627899169921875 563.5830078125Z" fill="black" /></g></svg>