<?xml version="1.0" encoding="utf-8" ?>
<svg baseProfile="tiny" height="100%" version="1.2" width="100%" xmlns="http://www.w3.org/2000/svg" xmlns:ev="http://www.w3.org/2001/xml-events" xmlns:xlink="http://www.w3.org/1999/xlink"><defs /><g transform="translate(0, 1000) scale(1, -1)"><path d="M-15.756500244140625 370.7650146484375C-15.30780029296875 370.8160095214844 -14.899795532226562 370.86700439453125 -14.858993530273438 370.87701416015625L-14.762496948242188 370.8819885253906C-14.2664794921875 370.8819885253906 -12.605682373046875 370.60699462890625 -11.983078002929688 370.4179992675781C-8.137237548828125 369.21600341796875 -5.6723175048828125 365.64300537109375 -5.6723175048828125 361.7850036621094C-5.6723175048828125 360.89599609375 -5.803192138671875 359.9909973144531 -6.0782318115234375 359.0979919433594C-6.24139404296875 358.5880126953125 -6.7921142578125 357.44500732421875 -7.5569915771484375 356.0379943847656C-22.272186279296875 329.1109924316406 -29.596084594726562 298.531005859375 -29.596084594726562 263.8789978027344C-29.596084594726562 254.0540008544922 -29.00738525390625 243.90199279785156 -27.831390380859375 233.41299438476562C-24.496490478515625 203.552001953125 -16.378585815429688 169.76499938964844 -3.9569549560546875 133.97799682617188C-2.5393829345703125 129.88900756835938 -2.0294647216796875 128.20599365234375 -0.938232421875 123.9840087890625L-0.0509796142578125 120.56800842285156L-0.0203857421875 98.86540222167969L1.52587890625e-05 77.16319274902344L-0.305938720703125 75.81709289550781C-4.2527313232421875 58.69398498535156 -11.921905517578125 43.2841796875 -23.711196899414062 28.782089233398438C-31.166305541992188 19.613784790039062 -42.4967041015625 8.711669921875 -52.9805908203125 0.60394287109375C-53.65370178222656 0.083831787109375 -54.20440673828125 -0.3852996826171875 -54.20440673828125 -0.436279296875C-54.20440673828125 -0.487274169921875 -53.65370178222656 -0.9564056396484375 -52.9805908203125 -1.476531982421875C-42.4967041015625 -9.584228515625 -31.166305541992188 -20.486312866210938 -23.711196899414062 -29.654617309570312C-11.921905517578125 -44.15681457519531 -4.2527313232421875 -59.56651306152344 -0.3059539794921875 -76.68962097167969L0.0 -78.03581237792969L-0.0204010009765625 -99.73802185058594L-0.050994873046875 -121.44001770019531L-0.9382476806640625 -124.85700988769531C-2.0294647216796875 -129.0690155029297 -2.5393829345703125 -130.76101684570312 -3.9569549560546875 -134.85101318359375C-20.974288940429688 -183.9190216064453 -29.475082397460938 -226.68601989746094 -29.475082397460938 -264.23500061035156C-29.475082397460938 -299.05702209472656 -22.164886474609375 -329.3920135498047 -7.5569915771484375 -356.1050262451172C-6.1635284423828125 -358.6570281982422 -5.65447998046875 -360.0550079345703 -5.65447998046875 -361.69801330566406C-5.65447998046875 -362.05101013183594 -5.677978515625 -362.41600036621094 -5.7212677001953125 -362.8050079345703C-6.2629241943359375 -367.72901916503906 -10.385284423828125 -370.8820037841797 -14.728286743164062 -370.8820037841797C-16.681884765625 -370.8820037841797 -18.680084228515625 -370.24400329589844 -20.417190551757812 -368.84300231933594C-21.87548828125 -367.67002868652344 -23.588882446289062 -364.7630157470703 -30.258590698242188 -352.1790008544922C-61.50848388671875 -293.26100158691406 -76.50448608398438 -241.9610137939453 -76.50448608398438 -192.33901977539062C-76.50448608398438 -178.25401306152344 -75.29618835449219 -164.30300903320312 -72.90827941894531 -150.35301208496094C-70.86857604980469 -138.43101501464844 -67.79887390136719 -126.63101196289062 -63.270782470703125 -113.343017578125C-55.841888427734375 -91.55772399902344 -52.141082763671875 -73.30711364746094 -52.141082763671875 -57.876220703125C-52.141082763671875 -44.77311706542969 -54.80958557128906 -33.703216552734375 -60.12968444824219 -24.229110717773438C-63.46458435058594 -18.273208618164062 -68.53318786621094 -12.368408203125 -73.42839050292969 -8.696975708007812C-75.04988098144531 -7.483367919921875 -75.77398681640625 -6.84088134765625 -76.32469177246094 -6.1677703857421875C-77.68107604980469 -4.490142822265625 -78.35928344726562 -2.4632110595703125 -78.35928344726562 -0.436279296875C-78.35928344726562 1.59063720703125 -77.68107604980469 3.6175689697265625 -76.32469177246094 5.2952117919921875C-75.77398681640625 5.9683074951171875 -75.04988098144531 6.6107940673828125 -73.42839050292969 7.82440185546875C-68.53318786621094 11.49578857421875 -63.46458435058594 17.400680541992188 -60.12968444824219 23.356582641601562C-54.80958557128906 32.8306884765625 -52.141082763671875 43.90058898925781 -52.141082763671875 57.00367736816406C-52.141082763671875 72.43449401855469 -55.841888427734375 90.68507385253906 -63.270782470703125 112.46998596191406C-66.08549499511719 120.73098754882812 -67.12577819824219 124.19798278808594 -69.08387756347656 131.78598022460938C-74.07939147949219 151.1689910888672 -76.57917785644531 171.1689910888672 -76.57917785644531 191.56398010253906C-76.57917785644531 211.09799194335938 -74.28587341308594 230.99398803710938 -69.69578552246094 251.0559844970703C-61.71038818359375 285.96498107910156 -46.87178039550781 322.50599670410156 -23.904983520507812 363.83998107910156C-21.110687255859375 368.8569793701172 -19.346282958984375 370.3569793701172 -15.756484985351562 370.76499938964844Z" fill="black" /></g></svg>