<?xml version="1.0" encoding="utf-8" ?>
<svg baseProfile="tiny" height="100%" version="1.2" width="100%" xmlns="http://www.w3.org/2000/svg" xmlns:ev="http://www.w3.org/2001/xml-events" xmlns:xlink="http://www.w3.org/1999/xlink"><defs /><g transform="translate(0, 1000) scale(1, -1)"><path d="M-11.589508056640625 3006.929931640625C-10.711593627929688 3007.25 -9.818954467773438 3007.389892578125 -8.9385986328125 3007.389892578125C-4.2985992431640625 3007.389892578125 0.0 3003.300048828125 0.0 2998.139892578125C0.0 2995.050048828125 -0.0965728759765625 2994.860107421875 -4.8772430419921875 2986.31005859375C-119.1300048828125 2782.6298828125 -196.34500122070312 2545.81005859375 -230.29299926757812 2295.050048828125C-243.75599670410156 2195.6298828125 -250.4340057373047 2093.179931640625 -250.4340057373047 1988.6500244140625C-250.4340057373047 1693.1300048828125 -197.0570068359375 1380.969970703125 -92.71600341796875 1073.800048828125C-71.56520080566406 1011.5599975585938 -68.86099243164062 1002.8599853515625 -61.13459777832031 972.3930053710938C-43.357208251953125 902.3499755859375 -34.662109375 831.6649780273438 -34.662109375 761.4359741210938C-34.662109375 494.5790100097656 -160.20399475097656 234.29400634765625 -390.0350036621094 40.742095947265625C-405.4389953613281 27.800506591796875 -433.6889953613281 5.490692138671875 -443.6369934082031 -1.6078643798828125C-445.0610046386719 -2.5977935791015625 -445.77301025390625 -3.068634033203125 -445.77301025390625 -3.5394439697265625C-445.77301025390625 -4.0102691650390625 -445.0610046386719 -4.4810943603515625 -443.6369934082031 -5.4710235595703125C-428.5220031738281 -16.239593505859375 -393.9949951171875 -44.05439758300781 -373.0369873046875 -62.40449523925781C-153.15699768066406 -254.97300720214844 -34.6549072265625 -509.5639953613281 -34.6549072265625 -768.7410278320312C-34.6549072265625 -860.5889892578125 -49.53729248046875 -953.0130004882812 -80.06410217285156 -1043.4599609375L-110.82499694824219 -1135.9300537109375C-203.63998413085938 -1427.3699951171875 -249.75198364257812 -1715.300048828125 -249.75198364257812 -1989.27001953125C-249.75198364257812 -2353.72998046875 -168.14598083496094 -2693.5 -6.325927734375 -2983.969970703125C-0.04827880859375 -2995.27001953125 1.52587890625e-05 -2995.320068359375 1.52587890625e-05 -2998.4599609375C1.52587890625e-05 -3004.010009765625 -3.3802490234375 -3007.389892578125 -8.933563232421875 -3007.389892578125C-14.390289306640625 -3007.389892578125 -15.018081665039062 -3006.669921875 -24.048187255859375 -2990.489990234375C-160.27297973632812 -2745.419921875 -258.92897033691406 -2486.199951171875 -315.08998107910156 -2225.830078125C-351.08399963378906 -2058.860107421875 -369.06297302246094 -1891.4100341796875 -369.06297302246094 -1725.969970703125C-369.06297302246094 -1543.1700439453125 -347.1119842529297 -1362.8199462890625 -303.2589874267578 -1188.3199462890625C-285.58497619628906 -1118.02001953125 -270.3249969482422 -1067.1700439453125 -244.39398193359375 -991.833984375C-207.9349822998047 -886.0800170898438 -188.08798217773438 -784.47900390625 -182.19699096679688 -673.5579833984375C-181.8099822998047 -666.072998046875 -181.6169891357422 -647.5170288085938 -181.6169891357422 -628.9439697265625C-181.6169891357422 -610.3709716796875 -181.8099822998047 -591.7789916992188 -182.19699096679688 -584.2219848632812C-194.9449920654297 -341.22900390625 -292.48997497558594 -141.6959991455078 -459.7169952392578 -16.6741943359375C-469.90599060058594 -9.044464111328125 -470.82398986816406 -7.982086181640625 -470.82398986816406 -3.5394439697265625C-470.82398986816406 0.9031982421875 -469.90599060058594 1.9655609130859375 -459.7169952392578 9.595321655273438C-308.28099060058594 122.83399963378906 -211.55699157714844 301.7959899902344 -187.4119873046875 513.4010009765625C-183.37197875976562 548.8709716796875 -181.364990234375 584.969970703125 -181.364990234375 621.4940185546875C-181.364990234375 740.4119873046875 -202.64797973632812 863.8410034179688 -244.39398193359375 984.7550048828125C-320.4499969482422 1205.0999755859375 -359.37098693847656 1410.47998046875 -368.20799255371094 1638.31005859375C-369.30699157714844 1666.6099853515625 -369.85499572753906 1695.010009765625 -369.85499572753906 1723.5C-369.85499572753906 2135.659912109375 -255.22998046875 2565.219970703125 -37.52098083496094 2965.550048828125C-16.321884155273438 3004.56005859375 -15.742385864257812 3005.47998046875 -11.589492797851562 3006.929931640625Z" fill="black" /></g></svg>