<?xml version="1.0" encoding="utf-8" ?>
<svg baseProfile="tiny" height="100%" version="1.2" width="100%" xmlns="http://www.w3.org/2000/svg" xmlns:ev="http://www.w3.org/2001/xml-events" xmlns:xlink="http://www.w3.org/1999/xlink"><defs /><g transform="translate(0, 1000) scale(1, -1)"><path d="M-13.082595825195312 1697.4200439453125C-11.812484741210938 1698.02001953125 -10.466583251953125 1698.31005859375 -9.140426635742188 1698.31005859375C-5.47705078125 1698.31005859375 -1.964324951171875 1696.1400146484375 -0.61688232421875 1692.5999755859375C-0.21527099609375 1691.550048828125 1.52587890625e-05 1690.5699462890625 1.52587890625e-05 1689.5400390625C1.52587890625e-05 1687.469970703125 -0.8765106201171875 1685.1800537109375 -2.8676300048828125 1681.5899658203125C-90.23219299316406 1523.0799560546875 -133.26998901367188 1347.2099609375 -133.26998901367188 1147.93994140625C-133.26998901367188 1134.9100341796875 -133.0859832763672 1121.780029296875 -132.71897888183594 1108.550048828125C-128.28598022460938 949.3359985351562 -94.83668518066406 774.0540161132812 -36.7327880859375 605.7670288085938C-19.280776977539062 555.2119750976562 -11.039581298828125 517.9879760742188 -7.92315673828125 475.57000732421875C-6.99932861328125 463.0190124511719 -6.5385589599609375 450.5429992675781 -6.5385589599609375 438.14898681640625C-6.5385589599609375 294.4469909667969 -68.47679138183594 161.64599609375 -188.81398010253906 48.06629943847656C-202.66497802734375 34.977294921875 -225.0339813232422 16.140304565429688 -242.7629852294922 2.6011962890625C-245.84498596191406 0.246551513671875 -248.37197875976562 -1.7964324951171875 -248.37197875976562 -1.9349365234375C-248.37197875976562 -2.0734405517578125 -245.84498596191406 -4.116424560546875 -242.7629852294922 -6.4710540771484375C-225.0339813232422 -20.01019287109375 -202.66497802734375 -38.847198486328125 -188.81398010253906 -51.93620300292969C-68.62408447265625 -165.33900451660156 -6.5380859375 -298.1679992675781 -6.5380859375 -441.8699951171875C-6.5380859375 -499.6619873046875 -14.91778564453125 -546.5819702148438 -36.38648986816406 -608.5980224609375C-99.96688842773438 -792.489990234375 -132.89598083496094 -979.35400390625 -132.89598083496094 -1151.3399658203125C-132.89598083496094 -1203.6800537109375 -129.84597778320312 -1254.6500244140625 -123.68098449707031 -1303.72998046875C-106.22898864746094 -1442.5899658203125 -67.13517761230469 -1564.9200439453125 -2.8330078125 -1681.6500244140625C-1.093292236328125 -1684.8299560546875 -0.2633819580078125 -1687.760009765625 -0.2633819580078125 -1690.260009765625C-0.2633819580078125 -1695.1199951171875 -3.40533447265625 -1698.31005859375 -9.100479125976562 -1698.31005859375C-13.809677124023438 -1698.31005859375 -15.36798095703125 -1696.9599609375 -19.765579223632812 -1689.1300048828125C-115.26698303222656 -1518.6300048828125 -181.5079803466797 -1334.969970703125 -209.5559844970703 -1162.97998046875C-221.2889862060547 -1091.0699462890625 -227.15399169921875 -1020.219970703125 -227.15399169921875 -950.4639892578125C-227.15399169921875 -817.43798828125 -205.82598876953125 -688.3800048828125 -163.1899871826172 -563.5830078125C-140.5789794921875 -497.4809875488281 -129.8099822998047 -450.9419860839844 -124.09599304199219 -394.60400390625C-122.06498718261719 -374.6619873046875 -121.06298828125 -355.0509948730469 -121.06298828125 -335.8450012207031C-121.06298828125 -199.2100067138672 -171.7799835205078 -83.07000732421875 -263.4349822998047 -14.12359619140625C-272.64598083496094 -7.1982269287109375 -273.30397033691406 -6.4018096923828125 -273.30397033691406 -1.9349365234375C-273.30397033691406 2.5319366455078125 -272.64598083496094 3.3283538818359375 -263.4349822998047 10.253692626953125C-200.4139862060547 57.692596435546875 -154.2559814453125 131.17100524902344 -134.06898498535156 216.24899291992188C-125.36198425292969 253.04400634765625 -121.0059814453125 291.50201416015625 -121.0059814453125 331.510986328125C-121.0059814453125 375.35198974609375 -126.23597717285156 421.05499267578125 -136.70098876953125 468.47198486328125C-143.24497985839844 498.0429992675781 -149.61598205566406 520.0659790039062 -163.1899871826172 559.7139892578125C-206.1239776611328 685.4099731445312 -227.46697998046875 816.0380249023438 -227.46697998046875 949.5180053710938C-227.46697998046875 1185.1800537109375 -160.93898010253906 1429.739990234375 -29.253280639648438 1671.760009765625C-16.06048583984375 1696.030029296875 -16.06048583984375 1696.0 -13.08258056640625 1697.4200439453125Z" fill="black" /></g></svg>