<?xml version="1.0" encoding="utf-8" ?>
<svg baseProfile="tiny" height="100%" version="1.2" width="100%" xmlns="http://www.w3.org/2000/svg" xmlns:ev="http://www.w3.org/2001/xml-events" xmlns:xlink="http://www.w3.org/1999/xlink"><defs /><g transform="translate(0, 1000) scale(1, -1)"><path d="M-19.426803588867188 496.7349853515625C-19.053619384765625 496.7770080566406 -18.684616088867188 496.7969970703125 -18.321014404296875 496.7969970703125C-13.286911010742188 496.7969970703125 -9.281021118164062 492.89898681640625 -9.281021118164062 487.75799560546875C-9.281021118164062 485.5719909667969 -9.514724731445312 484.89801025390625 -11.590621948242188 481.0899963378906C-31.942214965820312 443.8420104980469 -42.08860778808594 401.3760070800781 -42.08860778808594 353.1910095214844C-42.08860778808594 329.864990234375 -39.7108154296875 305.1990051269531 -34.96180725097656 279.135986328125C-28.967819213867188 246.26499938964844 -20.96661376953125 216.55599975585938 -7.370086669921875 176.78399658203125C-2.4820709228515625 162.5 -0.0413818359375 147.2969970703125 -0.0413818359375 132.15199279785156C-0.0413818359375 116.62600708007812 -2.605804443359375 101.1610107421875 -7.7275238037109375 86.80470275878906C-18.986923217773438 55.18479919433594 -38.79740905761719 29.655303955078125 -73.45552062988281 2.0498046875C-75.18771362304688 0.6750335693359375 -76.61750793457031 -0.5072784423828125 -76.61750793457031 -0.5622711181640625C-76.61750793457031 -0.6172637939453125 -75.18771362304688 -1.799560546875 -73.45552062988281 -3.174346923828125C-49.05320739746094 -22.61370849609375 -32.80342102050781 -40.22450256347656 -20.636611938476562 -60.43370056152344C-6.9756011962890625 -83.11569213867188 -1.52587890625e-05 -108.37699890136719 -1.52587890625e-05 -133.64199829101562C-1.52587890625e-05 -148.57400512695312 -2.436737060546875 -163.50599670410156 -7.370086669921875 -177.9080047607422C-20.760421752929688 -217.03399658203125 -28.967819213867188 -247.45799255371094 -34.87931823730469 -279.9159851074219C-39.6085205078125 -305.8890075683594 -41.97572326660156 -330.4739990234375 -41.97572326660156 -353.7200012207031C-41.97572326660156 -401.7659912109375 -31.862716674804688 -444.09100341796875 -11.590621948242188 -481.114990234375C-9.514724731445312 -484.9230041503906 -9.281021118164062 -485.59600830078125 -9.281021118164062 -487.7820129394531C-9.281021118164062 -493.489990234375 -13.564712524414062 -496.7969970703125 -18.075210571289062 -496.7969970703125C-21.234710693359375 -496.7969970703125 -24.505416870117188 -495.17401123046875 -26.493209838867188 -491.6180114746094C-74.51982116699219 -405.8949890136719 -97.21110534667969 -331.927001953125 -97.21110534667969 -260.4809875488281C-97.21110534667969 -255.00799560546875 -97.07801818847656 -249.55099487304688 -96.81291198730469 -244.10400390625C-95.30061340332031 -212.86900329589844 -90.20021057128906 -186.55599975585938 -79.43571472167969 -154.39999389648438C-70.80221557617188 -128.60899353027344 -66.96650695800781 -111.69900512695312 -65.27561950683594 -91.98480224609375C-64.92872619628906 -87.94450378417969 -64.75660705566406 -83.98789978027344 -64.75660705566406 -80.12229919433594C-64.75660705566406 -49.36749267578125 -75.6494140625 -24.369903564453125 -96.05680847167969 -8.8109130859375C-99.83741760253906 -5.951385498046875 -100.92301940917969 -4.081695556640625 -100.92301940917969 -0.5622711181640625C-100.92301940917969 2.9571533203125 -99.83741760253906 4.82684326171875 -96.05680847167969 7.6863861083984375C-75.6494140625 23.245391845703125 -64.75660705566406 48.24299621582031 -64.75660705566406 78.99771118164062C-64.75660705566406 82.8634033203125 -64.92872619628906 86.82000732421875 -65.27561950683594 90.86019897460938C-66.96650695800781 110.57499694824219 -70.80221557617188 127.4840087890625 -79.43571472167969 153.27499389648438C-85.88340759277344 172.52200317382812 -89.62281799316406 186.875 -92.41361999511719 203.04200744628906C-95.68510437011719 221.94700622558594 -97.3380126953125 240.9149932861328 -97.3380126953125 260.0950012207031C-97.3380126953125 331.6730041503906 -74.31881713867188 406.22100830078125 -26.493209838867188 491.5929870605469C-24.802215576171875 494.6180114746094 -22.327621459960938 496.41900634765625 -19.42681884765625 496.7349853515625Z" fill="black" /></g></svg>