<?xml version="1.0" encoding="utf-8" ?>
<svg baseProfile="tiny" height="100%" version="1.2" width="100%" xmlns="http://www.w3.org/2000/svg" xmlns:ev="http://www.w3.org/2001/xml-events" xmlns:xlink="http://www.w3.org/1999/xlink"><defs /><g transform="translate(0, 1000) scale(1, -1)"><path d="M-12.076995849609375 7623.66015625C-11.160491943359375 7623.91015625 -10.250701904296875 7624.0400390625 -9.3660888671875 7624.0400390625C-4.3425140380859375 7624.0400390625 -0.1327972412109375 7620.1201171875 -0.1327972412109375 7614.85009765625C-0.132781982421875 7612.4599609375 -2.7455902099609375 7607.22998046875 -14.31658935546875 7586.259765625C-427.1400146484375 6841.22998046875 -650.1240234375 6000.43017578125 -677.4459838867188 5086.7001953125C-678.8480224609375 5039.06982421875 -679.5969848632812 4961.39013671875 -679.5969848632812 4889.7998046875C-679.5969848632812 4835.60986328125 -679.1680297851562 4784.89990234375 -678.2670288085938 4753.3798828125C-657.364990234375 4027.840087890625 -530.3829956054688 3344.330078125 -284.55499267578125 2634.39990234375C-197.97999572753906 2384.260009765625 -154.87600708007812 2136.179931640625 -154.87600708007812 1885.550048828125C-154.87600708007812 1757.550048828125 -166.1179962158203 1628.8900146484375 -188.55299377441406 1498.949951171875C-289.3330078125 914.947021484375 -630.7139892578125 370.51300048828125 -1125.5 4.795501708984375C-1135.2099609375 -2.3710479736328125 -1143.199951171875 -8.417816162109375 -1143.199951171875 -8.64178466796875C-1143.199951171875 -8.86572265625 -1135.2099609375 -14.912506103515625 -1125.5 -22.0791015625C-630.7139892578125 -387.7969970703125 -289.3330078125 -932.2310180664062 -188.55299377441406 -1516.22998046875C-166.1179962158203 -1646.1700439453125 -154.87600708007812 -1774.8699951171875 -154.87600708007812 -1902.9000244140625C-154.87600708007812 -2153.590087890625 -197.97999572753906 -2401.739990234375 -284.55499267578125 -2651.679931640625C-547.916015625 -3411.800048828125 -678.7030029296875 -4176.60986328125 -678.7030029296875 -4913.72998046875C-678.7030029296875 -5875.72998046875 -455.9429931640625 -6790.58984375 -14.391204833984375 -7586.3701171875C-7.000732421875 -7599.66015625 -0.655364990234375 -7611.52978515625 -0.35675048828125 -7612.72021484375C-0.1131744384765625 -7613.56005859375 0.0 -7614.3798828125 0.0 -7615.169921875C0.0 -7620.27001953125 -4.7369537353515625 -7624.0400390625 -9.542755126953125 -7624.0400390625C-11.96209716796875 -7624.0400390625 -14.398895263671875 -7623.080078125 -16.25750732421875 -7620.85986328125C-17.302703857421875 -7619.669921875 -25.141098022460938 -7606.0 -33.80059814453125 -7590.47998046875C-572.1539916992188 -6620.919921875 -854.9810180664062 -5554.81005859375 -854.9810180664062 -4496.18994140625C-854.9810180664062 -4485.41015625 -854.9520263671875 -4474.6298828125 -854.8930053710938 -4463.85009765625C-854.4450073242188 -4387.7001953125 -854.072021484375 -4365.60009765625 -852.1309814453125 -4305.2099609375C-833.02001953125 -3710.4599609375 -727.0900268554688 -3139.449951171875 -530.0089721679688 -2568.43994140625C-486.2640075683594 -2441.830078125 -458.7919921875 -2344.93994140625 -434.4549865722656 -2231.760009765625C-412.8810119628906 -2131.280029296875 -398.17498779296875 -2038.6400146484375 -388.1719970703125 -1939.8800048828125C-379.4159851074219 -1853.3599853515625 -375.10101318359375 -1767.6600341796875 -375.10101318359375 -1683.0999755859375C-375.10101318359375 -1003.469970703125 -653.864013671875 -397.66900634765625 -1145.9599609375 -30.58929443359375C-1161.3699951171875 -19.093002319335938 -1169.0799560546875 -13.867401123046875 -1169.0799560546875 -8.64178466796875C-1169.0799560546875 -3.416168212890625 -1161.3699951171875 1.8094329833984375 -1145.9599609375 13.305801391601562C-699.6920166015625 346.17701721191406 -425.04901123046875 877.9199981689453 -381.0799865722656 1494.0899810791016C-377.14300537109375 1549.250015258789 -375.1990051269531 1605.8700103759766 -375.1990051269531 1663.1400299072266C-375.1990051269531 1823.0899810791016 -390.35699462890625 1988.189956665039 -419.6000061035156 2140.949966430664C-447.89300537109375 2288.909927368164 -477.8280029296875 2399.919937133789 -530.3829956054688 2552.280044555664C-718.8779907226562 3098.729995727539 -822.718017578125 3636.149917602539 -850.2650146484375 4207.680191040039C-854.4879760742188 4295.779800415039 -856.5549926757812 4387.819839477539 -856.5549926757812 4481.089859008789C-856.5549926757812 4717.520034790039 -843.27197265625 4961.850112915039 -818.1640014648438 5169.939956665039C-810.1019897460938 5236.600112915039 -807.5640258789062 5257.049819946289 -803.9810180664062 5284.529800415039C-698.9459838867188 6079.490249633789 -436.6199951171875 6864.970230102539 -33.80059814453125 7590.359878540039C-16.929397583007812 7620.669937133789 -15.660293579101562 7622.609878540039 -12.076995849609375 7623.660171508789Z" fill="black" /></g></svg>