<?xml version="1.0" encoding="utf-8" ?>
<svg baseProfile="tiny" height="100%" version="1.2" width="100%" xmlns="http://www.w3.org/2000/svg" xmlns:ev="http://www.w3.org/2001/xml-events" xmlns:xlink="http://www.w3.org/1999/xlink"><defs /><g transform="translate(0, 1000) scale(1, -1)"><path d="M-17.491897583007812 404.2170104980469C-16.994888305664062 404.2929992675781 -16.503982543945312 404.3299865722656 -16.022079467773438 404.3299865722656C-11.08148193359375 404.3299865722656 -7.0858917236328125 400.45098876953125 -7.0858917236328125 395.3039855957031C-7.0858917236328125 393.1319885253906 -7.297576904296875 392.4410095214844 -8.879653930664062 389.5889892578125C-14.550582885742188 379.3269958496094 -21.235382080078125 363.5400085449219 -23.831390380859375 354.24798583984375L-24.93438720703125 350.40399169921875C-30.440994262695312 331.364990234375 -33.2030029296875 310.72900390625 -33.2030029296875 288.32000732421875C-33.2030029296875 247.61500549316406 -24.090194702148438 201.0570068359375 -5.7600860595703125 147.5760040283203C-3.73236083984375 141.6820068359375 -3.3424072265625 140.45700073242188 -2.6850738525390625 137.99400329589844C-1.4929351806640625 133.50399780273438 -0.813323974609375 130.54100036621094 -0.2896728515625 127.39900207519531L0.0 125.70500183105469V107.69000244140625V89.6741943359375L-0.2896728515625 87.98068237304688C-3.019317626953125 71.8145751953125 -10.216598510742188 54.72377014160156 -20.36639404296875 40.29566955566406C-29.892303466796875 26.7254638671875 -41.412506103515625 14.960174560546875 -58.514404296875 1.278594970703125C-59.62860107421875 0.3761444091796875 -60.55329895019531 -0.392608642578125 -60.55329895019531 -0.437164306640625C-60.55329895019531 -0.4817352294921875 -59.62860107421875 -1.25048828125 -58.514404296875 -2.1529388427734375C-41.412506103515625 -15.83453369140625 -29.892303466796875 -27.599822998046875 -20.36639404296875 -41.17002868652344C-10.216598510742188 -55.5980224609375 -3.019317626953125 -72.68893432617188 -0.2896728515625 -88.85504150390625L0.0 -90.54853820800781V-108.57502746582031V-126.61302185058594L-0.3231048583984375 -128.5070343017578C-1.314697265625 -134.17800903320312 -2.7630767822265625 -139.70401000976562 -5.0136260986328125 -146.27801513671875L-9.2362060546875 -158.8670196533203C-25.200424194335938 -207.98001098632812 -33.136627197265625 -250.88902282714844 -33.136627197265625 -288.71702575683594C-33.136627197265625 -310.9750213623047 -30.388931274414062 -331.47401428222656 -24.912124633789062 -350.44300842285156C-23.41912841796875 -355.62400817871094 -23.196334838867188 -356.3150177001953 -22.338424682617188 -358.8550262451172C-18.684127807617188 -369.6060028076172 -14.038131713867188 -380.19102478027344 -8.846267700195312 -389.6270294189453C-7.2976226806640625 -392.4240264892578 -7.0859375 -393.1260223388672 -7.0859375 -395.28700256347656C-7.0859375 -400.79701232910156 -11.539535522460938 -404.3300018310547 -16.142623901367188 -404.3300018310547C-18.613235473632812 -404.3300018310547 -21.126922607421875 -403.31202697753906 -23.01812744140625 -401.03602600097656C-24.031936645507812 -399.81101989746094 -31.307235717773438 -386.45201110839844 -36.76652526855469 -375.79002380371094C-67.8204345703125 -315.09400939941406 -82.62612915039062 -261.7620086669922 -82.62612915039062 -210.0550079345703C-82.62612915039062 -205.47801208496094 -82.51004028320312 -200.9140167236328 -82.27902221679688 -196.35801696777344C-81.02001953125 -171.52401733398438 -76.49662780761719 -148.16001892089844 -68.36343383789062 -124.56301879882812C-60.16642761230469 -100.77401733398438 -56.064727783203125 -80.61262512207031 -56.064727783203125 -63.48872375488281C-56.064727783203125 -45.630615234375 -60.525726318359375 -31.075912475585938 -69.455322265625 -19.154617309570312C-72.14031982421875 -15.556015014648438 -76.29612731933594 -11.378021240234375 -79.76103210449219 -8.759750366210938C-83.63822937011719 -5.8407135009765625 -84.71893310546875 -4.0246734619140625 -84.71893310546875 -0.4371490478515625C-84.71893310546875 3.150360107421875 -83.63822937011719 4.966400146484375 -79.76103210449219 7.8854522705078125C-70.0123291015625 15.238784790039062 -62.42512512207031 26.937179565429688 -58.8375244140625 40.17308044433594C-57.0040283203125 46.94378662109375 -56.087921142578125 54.41407775878906 -56.087921142578125 62.57908630371094C-56.087921142578125 79.12248229980469 -59.84883117675781 98.51788330078125 -67.36073303222656 120.72499084472656C-71.471923828125 132.8579864501953 -72.50802612304688 136.28997802734375 -74.87002563476562 145.5699920654297C-79.46023559570312 163.67498779296875 -82.10073852539062 182.91598510742188 -82.61322021484375 202.05699157714844C-82.70101928710938 205.47499084472656 -82.742919921875 207.56198120117188 -82.742919921875 209.52198791503906C-82.742919921875 211.0439910888672 -82.71762084960938 212.489990234375 -82.66893005371094 214.42398071289062C-81.8890380859375 246.84498596191406 -76.35183715820312 276.78199768066406 -64.876220703125 310.46299743652344C-55.80712890625 337.1129913330078 -42.649139404296875 366.0129852294922 -25.59173583984375 396.7529754638672C-22.5167236328125 402.2899932861328 -21.00152587890625 403.69398498535156 -17.491928100585938 404.2169952392578Z" fill="black" /></g></svg>