<?xml version="1.0" encoding="utf-8" ?>
<svg baseProfile="tiny" height="100%" version="1.2" width="100%" xmlns="http://www.w3.org/2000/svg" xmlns:ev="http://www.w3.org/2001/xml-events" xmlns:xlink="http://www.w3.org/1999/xlink"><defs /><g transform="translate(0, 1000) scale(1, -1)"><path d="M-12.152008056640625 3819.739990234375C-11.11700439453125 3819.9599609375 -10.1239013671875 3820.070068359375 -9.183578491210938 3820.070068359375C-3.8625640869140625 3820.070068359375 -0.2288055419921875 3816.60009765625 -0.2288055419921875 3811.090087890625C-0.2288055419921875 3811.050048828125 -0.22894287109375 3811.02001953125 -0.229217529296875 3810.97998046875C-0.229217529296875 3807.550048828125 -0.336639404296875 3807.330078125 -6.5128326416015625 3796.27001953125C-56.51319885253906 3707.330078125 -106.2449951171875 3601.31005859375 -146.09500122070312 3498.949951171875C-265.1619873046875 3193.02001953125 -324.94000244140625 2857.409912109375 -324.94000244140625 2504.72998046875C-324.94000244140625 2231.590087890625 -289.08599853515625 1948.199951171875 -217.1479949951172 1660.4300537109375C-189.27499389648438 1549.0999755859375 -158.125 1445.3399658203125 -114.57000732421875 1319.2900390625C-80.35870361328125 1220.1500244140625 -61.88380432128906 1124.0699462890625 -55.653900146484375 1012.6300048828125C-55.02949523925781 1001.5999755859375 -54.736907958984375 986.9180297851562 -54.736907958984375 970.7730102539062C-54.736907958984375 938.3189697265625 -55.91900634765625 899.9600219726562 -57.96330261230469 873.5280151367188C-83.68850708007812 541.1409912109375 -264.6780090332031 225.3489990234375 -554.9600219726562 6.2818145751953125C-562.3170166015625 0.696380615234375 -568.385986328125 -4.083465576171875 -568.385986328125 -4.29827880859375C-568.385986328125 -4.5131072998046875 -562.3170166015625 -9.292953491210938 -554.9600219726562 -14.878402709960938C-264.6780090332031 -233.9459991455078 -83.68850708007812 -549.7370147705078 -57.96330261230469 -882.1250152587891C-55.91900634765625 -908.5570220947266 -54.736907958984375 -946.9160308837891 -54.736907958984375 -979.3690338134766C-54.736907958984375 -995.5139923095703 -55.02949523925781 -1010.2000274658203 -55.653900146484375 -1021.2199859619141C-61.88380432128906 -1132.6600494384766 -80.46609497070312 -1229.280044555664 -114.62300109863281 -1327.8900299072266C-168.32899475097656 -1483.1500396728516 -206.6750030517578 -1616.9300689697266 -239.16799926757812 -1762.6400299072266C-295.9049987792969 -2017.010025024414 -324.04901123046875 -2266.959976196289 -324.04901123046875 -2508.530044555664C-324.04901123046875 -2978.100112915039 -217.70899963378906 -3415.990005493164 -8.338836669921875 -3793.100112915039C-1.53240966796875 -3805.350112915039 0.0 -3808.310073852539 0.0 -3811.110122680664C0.0 -3811.709976196289 -0.0709228515625 -3812.300064086914 -0.1755218505859375 -3812.969985961914C-0.8361663818359375 -3817.360122680664 -4.963653564453125 -3820.070083618164 -9.10369873046875 -3820.070083618164C-11.358200073242188 -3820.070083618164 -13.616500854492188 -3819.270034790039 -15.320602416992188 -3817.490005493164C-18.542999267578125 -3814.209976196289 -50.1221923828125 -3756.419937133789 -76.00849914550781 -3706.530044555664C-165.32200622558594 -3534.350112915039 -240.72500610351562 -3354.429946899414 -299.04998779296875 -3174.570083618164C-403.6199951171875 -2851.760025024414 -455.98699951171875 -2528.510025024414 -455.98699951171875 -2210.129898071289C-455.98699951171875 -1944.0999908447266 -419.42498779296875 -1681.479995727539 -346.2040100097656 -1425.3600006103516C-331.3810119628906 -1373.540054321289 -323.16400146484375 -1347.760025024414 -291.531005859375 -1254.310073852539C-241.17100524902344 -1105.449966430664 -216.781005859375 -956.3460235595703 -216.781005859375 -813.7700347900391C-216.781005859375 -487.73402404785156 -344.3169860839844 -195.82899475097656 -580.469970703125 -19.0137939453125C-592.9829711914062 -9.61517333984375 -593.6279907226562 -8.9169921875 -593.6279907226562 -4.29827880859375C-593.6279907226562 0.3204498291015625 -592.9829711914062 1.01861572265625 -580.469970703125 10.417205810546875C-344.3500061035156 187.2270050048828 -216.80799865722656 479.1659698486328 -216.80799865722656 805.1979827880859C-216.80799865722656 947.6890106201172 -241.1699981689453 1096.689926147461 -291.47698974609375 1245.439926147461C-319.35101318359375 1327.939926147461 -325.635009765625 1347.1600189208984 -336.59100341796875 1383.739974975586C-416.64599609375 1651.209945678711 -456.75201416015625 1925.9200286865234 -456.75201416015625 2205.379867553711C-456.75201416015625 2361.249984741211 -444.2770080566406 2518.590072631836 -419.2980041503906 2676.979965209961C-360.7049865722656 3048.679916381836 -230.2519989013672 3426.070053100586 -40.079193115234375 3774.090072631836C-16.716995239257812 3816.840072631836 -15.320602416992188 3819.090072631836 -12.152008056640625 3819.739974975586Z" fill="black" /></g></svg>