<?xml version="1.0" encoding="utf-8" ?>
<svg baseProfile="tiny" height="100%" version="1.2" width="100%" xmlns="http://www.w3.org/2000/svg" xmlns:ev="http://www.w3.org/2001/xml-events" xmlns:xlink="http://www.w3.org/1999/xlink"><defs /><g transform="translate(0, 1000) scale(1, -1)"><path d="M-10.885498046875 8707.58984375C-10.460205078125 8707.73046875 -9.979904174804688 8707.7900390625 -9.465301513671875 8707.7900390625C-6.717193603515625 8707.7900390625 -2.989013671875 8705.900390625 -1.4058837890625 8703.419921875C-0.524444580078125 8702.080078125 0.0 8700.91015625 0.0 8699.3798828125C0.0 8695.9501953125 -2.642974853515625 8690.73046875 -9.823135375976562 8677.83984375C-521.3050079345703 7763.3701171875 -782.1519927978516 6704.22021484375 -782.1519927978516 5587.35009765625C-782.1519927978516 5016.66015625 -714.0470123291016 4430.89990234375 -576.4760284423828 3841.679931640625C-510.7720184326172 3559.989990234375 -432.6470184326172 3291.699951171875 -331.39500427246094 2999.550048828125C-233.55401611328125 2717.280029296875 -185.02301025390625 2428.669921875 -185.02301025390625 2141.969970703125C-185.02301025390625 1696.1600341796875 -302.3730010986328 1254.969970703125 -534.1439971923828 849.469970703125C-720.1410064697266 524.1389770507812 -993.0070343017578 218.9119873046875 -1292.8399810791016 0.79876708984375C-1300.5999908447266 -4.8399810791015625 -1306.9000396728516 -9.579788208007812 -1306.9000396728516 -9.824951171875C-1306.9000396728516 -10.070098876953125 -1300.5999908447266 -14.809906005859375 -1292.8399810791016 -20.4486083984375C-1006.0800323486328 -229.49099731445312 -745.3930206298828 -515.594970703125 -560.4580230712891 -824.1729736328125C-311.6020050048828 -1239.4599609375 -185.21900939941406 -1697.760009765625 -185.21900939941406 -2161.330078125C-185.21900939941406 -2448.260009765625 -233.63601684570312 -2737.199951171875 -331.39500427246094 -3019.199951171875C-631.5510406494141 -3885.10009765625 -779.6980133056641 -4737.2099609375 -779.6980133056641 -5598.77001953125C-779.6980133056641 -5609.10009765625 -779.6760406494141 -5619.43017578125 -779.6339874267578 -5629.77001953125C-779.2249908447266 -5731.43017578125 -778.8980255126953 -5753.580078125 -776.6100006103516 -5824.669921875C-743.8400421142578 -6854.18994140625 -484.70301818847656 -7822.990234375 -16.360794067382812 -8666.1103515625C-3.8374786376953125 -8688.7197265625 -0.0647430419921875 -8695.76953125 -0.0647430419921875 -8699.6904296875C-0.0647430419921875 -8701.169921875 -0.600616455078125 -8702.2001953125 -1.4058837890625 -8703.4599609375C-3.3318023681640625 -8706.3798828125 -5.9270172119140625 -8707.7900390625 -8.64129638671875 -8707.7900390625C-12.146392822265625 -8707.7900390625 -15.850006103515625 -8705.4404296875 -18.567306518554688 -8700.919921875C-25.84039306640625 -8688.91015625 -68.49870300292969 -8611.26953125 -93.58700561523438 -8564.3701171875C-545.5850219726562 -7720.60009765625 -834.1420288085938 -6791.35009765625 -929.02001953125 -5874.52001953125C-930.1640014648438 -5863.25 -931.4710083007812 -5851.89013671875 -931.8800048828125 -5849.18994140625C-933.677978515625 -5837.5 -942.6669921875 -5738.1298828125 -946.9979858398438 -5682.47998046875C-960.72900390625 -5504.7001953125 -967.5809936523438 -5327.27978515625 -967.5809936523438 -5150.47998046875C-967.5809936523438 -4479.14990234375 -868.7880249023438 -3816.739990234375 -672.6610107421875 -3177.330078125C-647.0830078125 -3093.639892578125 -625.0999755859375 -3026.8798828125 -586.5269775390625 -2915.409912109375C-505.6239929199219 -2681.360107421875 -453.5679931640625 -2442.169921875 -431.01300048828125 -2200.760009765625C-422.5899963378906 -2110.8701171875 -418.44000244140625 -2021.6600341796875 -418.44000244140625 -1933.449951171875C-418.44000244140625 -1151.22998046875 -744.833984375 -447.053955078125 -1313.1099853515625 -29.111083984375C-1326.31005859375 -19.386276245117188 -1332.9000244140625 -14.6055908203125 -1332.9000244140625 -9.824920654296875C-1332.9000244140625 -5.04425048828125 -1326.31005859375 -0.263580322265625 -1313.1099853515625 9.461212158203125C-1085.02001953125 177.15200805664062 -888.322998046875 399.18800354003906 -741.1430053710938 654.8109893798828C-527.052001953125 1026.699966430664 -418.4460144042969 1461.510025024414 -418.4460144042969 1913.9100494384766C-418.4460144042969 2237.729995727539 -474.09100341796875 2570.560073852539 -586.5269775390625 2895.760025024414C-689.7410278320312 3194.120132446289 -760.02099609375 3443.939956665039 -820.739013671875 3727.679946899414C-909.1610107421875 4140.859878540039 -955.7420043945312 4539.490249633789 -968.0 4988.220230102539C-968.6950073242188 5013.270034790039 -969.0419921875 5077.200210571289 -969.0419921875 5141.209976196289C-969.0419921875 5205.209976196289 -968.6950073242188 5269.299819946289 -968.0 5294.680191040039C-962.8519897460938 5484.109878540039 -953.5360107421875 5639.209976196289 -937.1099853515625 5809.520034790039C-935.5570068359375 5825.939956665039 -934.0859985351562 5839.919937133789 -933.9229736328125 5840.569839477539C-933.7589721679688 5841.229995727539 -932.7789916992188 5849.149917602539 -931.8800048828125 5858.140151977539C-830.708984375 6830.700210571289 -524.7459716796875 7790.919937133789 -35.23828125 8671.379898071289C-15.38018798828125 8707.099624633789 -16.115585327148438 8705.950210571289 -10.885482788085938 8707.589859008789Z" fill="black" /></g></svg>