<?xml version="1.0" encoding="utf-8" ?>
<svg baseProfile="tiny" height="100%" version="1.2" width="100%" xmlns="http://www.w3.org/2000/svg" xmlns:ev="http://www.w3.org/2001/xml-events" xmlns:xlink="http://www.w3.org/1999/xlink"><defs /><g transform="translate(0, 1000) scale(1, -1)"><path d="M-12.910400390625 4693.31982421875C-11.67999267578125 4693.89990234375 -10.409805297851562 4694.16015625 -9.16827392578125 4694.16015625C-4.3703155517578125 4694.16015625 0.0 4690.18017578125 0.0 4684.8701171875C-0.058685302734375 4681.759765625 -0.4107818603515625 4680.8798828125 -5.3402252197265625 4672.1298828125C-55.92570495605469 4583.10986328125 -111.49899291992188 4468.3798828125 -156.68600463867188 4359.93017578125C-322.7099914550781 3961.419921875 -405.7179870605469 3520.080078125 -405.7179870605469 3058.2900390625C-405.7179870605469 2595.409912109375 -322.3139953613281 2111.97998046875 -155.51199340820312 1630.550048828125C-109.09300231933594 1496.52001953125 -85.3262939453125 1376.8599853515625 -78.3428955078125 1241.47998046875C-77.15740966796875 1218.5 -76.56880187988281 1195.550048828125 -76.56880187988281 1172.6400146484375C-76.56880187988281 727.176025390625 -299.1260070800781 297.75299072265625 -683.9600219726562 7.355865478515625C-692.8209838867188 0.6659088134765625 -700.0980224609375 -5.0264129638671875 -700.0980224609375 -5.2611541748046875C-700.0980224609375 -5.4958953857421875 -692.8209838867188 -11.188201904296875 -683.9600219726562 -17.878204345703125C-299.1260070800781 -308.2749938964844 -76.56880187988281 -737.697998046875 -76.56880187988281 -1183.1600341796875C-76.56880187988281 -1206.0699462890625 -77.15740966796875 -1229.02001953125 -78.3428955078125 -1252.0C-85.3262939453125 -1387.3800048828125 -109.03500366210938 -1506.97998046875 -155.51199340820312 -1641.0699462890625C-321.87799072265625 -2121.340087890625 -404.51800537109375 -2602.60009765625 -404.51800537109375 -3062.830078125C-404.51800537109375 -3648.409912109375 -270.7330017089844 -4199.93994140625 -5.398895263671875 -4672.08984375C-1.866607666015625 -4678.39013671875 -0.0974884033203125 -4683.18994140625 -0.0974884033203125 -4686.68994140625C-0.0974884033203125 -4690.68994140625 -2.4093780517578125 -4692.990234375 -7.0420379638671875 -4693.85986328125C-8.03289794921875 -4694.0498046875 -8.907577514648438 -4694.16015625 -9.714736938476562 -4694.16015625C-14.070388793945312 -4694.16015625 -16.459793090820312 -4690.77978515625 -24.52978515625 -4676.3798828125C-371.50201416015625 -4053.27001953125 -548.1599731445312 -3386.139892578125 -548.1599731445312 -2732.080078125C-548.1599731445312 -2347.39990234375 -487.052001953125 -1967.239990234375 -363.5459899902344 -1603.219970703125C-339.77899169921875 -1533.2099609375 -335.7300109863281 -1521.1199951171875 -329.86199951171875 -1501.989990234375C-278.9630126953125 -1336.4000244140625 -254.30499267578125 -1171.030029296875 -254.30499267578125 -1012.0399780273438C-254.30499267578125 -606.6199951171875 -414.6390075683594 -242.72799682617188 -709.0770263671875 -22.690200805664062C-725.5079956054688 -10.42529296875 -725.9190063476562 -10.014495849609375 -725.9190063476562 -5.2611541748046875C-725.9190063476562 -0.5077667236328125 -725.5079956054688 -0.09698486328125 -709.0770263671875 12.16790771484375C-618.1749877929688 80.12380981445312 -539.3629760742188 162.2220001220703 -472.58099365234375 258.52301025390625C-328.37298583984375 466.53399658203125 -254.29800415039062 725.3820190429688 -254.29800415039062 1001.1300048828125C-254.29800415039062 1161.0999755859375 -279.2300109863281 1326.75 -329.86199951171875 1491.469970703125C-335.7300109863281 1510.5999755859375 -340.3659973144531 1524.449951171875 -363.25299072265625 1591.8199462890625C-486.77398681640625 1955.6099853515625 -549.35400390625 2339.219970703125 -549.35400390625 2728.820068359375C-549.35400390625 2839.159912109375 -544.333984375 2949.97998046875 -534.2570190429688 3060.969970703125C-485.4330139160156 3599.330078125 -316.3059997558594 4143.509765625 -42.0762939453125 4644.5498046875C-17.429107666015625 4689.6201171875 -16.07940673828125 4691.85009765625 -12.910400390625 4693.31982421875Z" fill="black" /></g></svg>