<?xml version="1.0" encoding="utf-8" ?>
<svg baseProfile="tiny" height="100%" version="1.2" width="100%" xmlns="http://www.w3.org/2000/svg" xmlns:ev="http://www.w3.org/2001/xml-events" xmlns:xlink="http://www.w3.org/1999/xlink"><defs /><g transform="translate(0, 1000) scale(1, -1)"><path d="M-12.0679931640625 7277.0400390625C-11.05230712890625 7277.3798828125 -10.036697387695312 7277.5400390625 -9.049774169921875 7277.5400390625C-4.1736297607421875 7277.5400390625 0.0 7273.66015625 0.0 7268.330078125C0.0 7265.93994140625 -2.0113372802734375 7261.85009765625 -10.50360107421875 7246.580078125C-314.1400146484375 6699.8701171875 -509.9100036621094 6101.009765625 -597.291015625 5451.0498046875C-630.6820068359375 5202.7001953125 -647.2639770507812 4948.56005859375 -647.2639770507812 4690.9599609375C-647.2639770507812 4035.949951171875 -540.0490112304688 3358.610107421875 -329.3370056152344 2697.389892578125C-309.8190002441406 2635.93994140625 -297.3789978027344 2598.840087890625 -262.6650085449219 2497.75C-183.9709930419922 2268.510009765625 -145.47999572753906 2033.22998046875 -145.47999572753906 1799.6800537109375C-145.47999572753906 1257.239990234375 -353.135986328125 724.1749877929688 -747.0230102539062 297.95001220703125C-845.0570068359375 191.87100219726562 -962.2349853515625 86.83450317382812 -1076.06005859375 2.9546051025390625C-1084.1099853515625 -3.0048980712890625 -1090.739990234375 -7.9959869384765625 -1090.739990234375 -8.219451904296875C-1090.739990234375 -8.44293212890625 -1084.1099853515625 -13.434005737304688 -1076.06005859375 -19.39349365234375C-889.7529907226562 -156.68499755859375 -715.2890014648438 -331.7460021972656 -576.9539794921875 -520.364013671875C-292.42999267578125 -908.197998046875 -145.531005859375 -1359.5999755859375 -145.531005859375 -1816.010009765625C-145.531005859375 -2050.06005859375 -184.15899658203125 -2285.409912109375 -262.6650085449219 -2514.18994140625L-329.4110107421875 -2713.830078125C-516.7630004882812 -3302.260009765625 -622.8419799804688 -3906.6298828125 -642.3590087890625 -4496.47021484375C-644.6690063476562 -4566.7900390625 -644.9669799804688 -4589.8798828125 -644.9669799804688 -4695.740234375C-644.9669799804688 -4805.47021484375 -644.6690063476562 -4826.919921875 -641.9869995117188 -4904.68994140625C-612.3380126953125 -5758.31982421875 -398.91400146484375 -6547.27978515625 -6.555450439453125 -7253.7001953125C-2.414398193359375 -7261.16015625 -0.333038330078125 -7266.7998046875 -0.333038330078125 -7270.7099609375C-0.333038330078125 -7275.31982421875 -3.21484375 -7277.5400390625 -9.01373291015625 -7277.5400390625H-9.44403076171875C-15.638702392578125 -7277.5400390625 -16.001007080078125 -7276.68994140625 -58.1051025390625 -7199.47021484375C-423.1990051269531 -6530.52001953125 -665.8989868164062 -5799.43994140625 -765.2000122070312 -5069.7001953125C-795.2949829101562 -4848.3701171875 -810.7150268554688 -4658.490234375 -817.4940185546875 -4423.83984375C-818.3660278320312 -4393.0498046875 -818.7899780273438 -4347.64013671875 -818.7899780273438 -4299.490234375C-818.7899780273438 -4236.60009765625 -818.0670166015625 -4169.02978515625 -816.6749877929688 -4123.25C-798.9450073242188 -3541.89990234375 -698.4530029296875 -2997.06005859375 -506.92999267578125 -2443.7900390625C-478.5480041503906 -2361.77001953125 -455.60400390625 -2285.639892578125 -437.50201416015625 -2213.3798828125C-385.9549865722656 -2007.3199462890625 -360.9169921875 -1802.4000244140625 -360.9169921875 -1603.510009765625C-360.9169921875 -960.5029907226562 -622.5999755859375 -380.44195556640625 -1096.25 -28.0347900390625C-1109.8800048828125 -17.903579711914062 -1116.699951171875 -13.06158447265625 -1116.699951171875 -8.219436645507812C-1116.699951171875 -3.377349853515625 -1109.8800048828125 1.4647369384765625 -1096.25 11.595916748046875C-622.5999755859375 364.0030212402344 -360.9169921875 944.0640563964844 -360.9169921875 1587.0699768066406C-360.9169921875 1785.9599914550781 -385.9549865722656 1990.8800354003906 -437.50201416015625 2196.939971923828C-455.60400390625 2269.199981689453 -478.5480041503906 2345.340118408203 -506.92999267578125 2427.350128173828C-702.7739868164062 2993.129913330078 -801.031005859375 3532.689971923828 -819.0590209960938 4141.450225830078C-819.72900390625 4163.169952392578 -820.0640258789062 4221.390167236328 -820.0640258789062 4279.609893798828C-820.0640258789062 4337.839874267578 -819.72900390625 4396.069854736328 -819.0590209960938 4417.830108642578C-815.4829711914062 4538.279815673828 -810.4920043945312 4633.629913330078 -802.4459838867188 4735.169952392578C-797.6790161132812 4795.730010986328 -789.8569946289062 4877.750030517578 -785.3870239257812 4913.950225830078L-779.7999877929688 4961.029815673828C-690.4819946289062 5724.589874267578 -441.52398681640625 6496.870147705078 -58.1051025390625 7199.419952392578C-19.219406127929688 7270.709991455078 -16.314102172851562 7275.549835205078 -12.0679931640625 7277.040069580078Z" fill="black" /></g></svg>