<?xml version="1.0" encoding="utf-8" ?>
<svg baseProfile="tiny" height="100%" version="1.2" width="100%" xmlns="http://www.w3.org/2000/svg" xmlns:ev="http://www.w3.org/2001/xml-events" xmlns:xlink="http://www.w3.org/1999/xlink"><defs /><g transform="translate(0, 1000) scale(1, -1)"><path d="M-15.202804565429688 349.2510070800781C-14.74981689453125 349.31201171875 -14.3026123046875 349.3420104980469 -13.863311767578125 349.3420104980469C-8.850631713867188 349.3420104980469 -4.8533935546875 345.4800109863281 -4.8533935546875 340.3210144042969C-4.8533935546875 338.125 -5.0260467529296875 337.5679931640625 -6.771728515625 334.3840026855469C-20.444808959960938 309.39599609375 -27.288818359375 280.90899658203125 -27.288818359375 248.1719970703125C-27.288818359375 212.86399841308594 -19.327407836914062 172.61199951171875 -3.3858795166015625 126.47500610351562C-1.90875244140625 122.18699645996094 -1.6018218994140625 121.20899963378906 -0.7097930908203125 117.78500366210938L-1.52587890625e-05 115.0419921875V92.76968383789062V70.49789428710938L-0.4412384033203125 68.752197265625C-4.114837646484375 54.048095703125 -10.982513427734375 40.50469970703125 -21.341506958007812 27.488800048828125C-28.209121704101562 18.856292724609375 -37.72401428222656 9.57159423828125 -48.64891052246094 0.833587646484375C-49.43540954589844 0.2101287841796875 -50.068511962890625 -0.3365936279296875 -50.068511962890625 -0.374969482421875C-50.068511962890625 -0.413330078125 -49.43540954589844 -0.960052490234375 -48.64891052246094 -1.583526611328125C-37.72401428222656 -10.321502685546875 -28.209121704101562 -19.606292724609375 -21.341506958007812 -28.238800048828125C-10.982513427734375 -41.254608154296875 -4.114837646484375 -54.798095703125 -0.4412384033203125 -69.50210571289062L-1.52587890625e-05 -71.247802734375V-93.51959228515625V-115.79098510742188L-0.7097930908203125 -118.53498840332031C-1.5634613037109375 -121.79597473144531 -1.9279327392578125 -122.9849853515625 -3.0309906005859375 -126.16998291015625C-19.175613403320312 -172.7749786376953 -27.238510131835938 -213.12599182128906 -27.238510131835938 -248.47898864746094C-27.238510131835938 -281.17698669433594 -20.340911865234375 -309.59999084472656 -6.5607147216796875 -334.73997497558594C-5.0548248291015625 -337.4929962158203 -4.8533935546875 -338.1549835205078 -4.8533935546875 -340.30397033691406C-4.8533935546875 -345.8099822998047 -9.320831298828125 -349.3419952392578 -13.920211791992188 -349.3419952392578C-16.395614624023438 -349.3419952392578 -18.909210205078125 -348.31898498535156 -20.785110473632812 -346.0299835205078C-21.418212890625 -345.2629852294922 -23.749008178710938 -341.1289825439453 -28.132415771484375 -333.0139923095703C-48.66810607910156 -294.96397399902344 -62.79661560058594 -256.69297790527344 -68.61882019042969 -223.33297729492188C-71.16191101074219 -208.760986328125 -72.43701171875 -194.510986328125 -72.43701171875 -180.49697875976562C-72.43701171875 -155.1859893798828 -68.27801513671875 -130.6429901123047 -59.91911315917969 -106.36299133300781C-53.01121520996094 -86.27607727050781 -49.55500793457031 -69.13029479980469 -49.55500793457031 -54.58868408203125C-49.55500793457031 -39.570587158203125 -53.24140930175781 -27.330078125 -60.61930847167969 -17.496078491210938C-63.065216064453125 -14.234878540039062 -66.41270446777344 -10.820281982421875 -69.25181579589844 -8.671737670898438C-73.05970764160156 -5.8038330078125 -74.18191528320312 -3.923858642578125 -74.18191528320312 -0.3749542236328125C-74.18191528320312 3.1739654541015625 -73.05970764160156 5.0539398193359375 -69.25181579589844 7.921844482421875C-66.41270446777344 10.070419311523438 -63.065216064453125 13.485015869140625 -60.61930847167969 16.7462158203125C-53.24140930175781 26.580108642578125 -49.55500793457031 38.81822204589844 -49.55500793457031 53.835113525390625C-49.55500793457031 68.37562561035156 -53.01121520996094 85.52140808105469 -59.91911315917969 105.61302185058594C-68.318115234375 130.02401733398438 -72.51692199707031 154.81800842285156 -72.51692199707031 180.28001403808594C-72.51692199707031 205.47100830078125 -68.40681457519531 231.31600952148438 -60.187713623046875 258.09202575683594C-52.7158203125 282.41600036621094 -40.697418212890625 310.1070098876953 -25.81121826171875 337.3000030517578C-21.1400146484375 345.81700134277344 -20.92901611328125 346.1530303955078 -19.538223266601562 347.2940216064453C-18.320114135742188 348.29200744628906 -16.631912231445312 349.0490264892578 -15.20281982421875 349.2510223388672Z" fill="black" /></g></svg>