<?xml version="1.0" encoding="utf-8" ?>
<svg baseProfile="tiny" height="100%" version="1.2" width="100%" xmlns="http://www.w3.org/2000/svg" xmlns:ev="http://www.w3.org/2001/xml-events" xmlns:xlink="http://www.w3.org/1999/xlink"><defs /><g transform="translate(0, 1000) scale(1, -1)"><path d="M-12.442398071289062 1578.0899658203125C-11.484588623046875 1578.449951171875 -10.472686767578125 1578.6199951171875 -9.457366943359375 1578.6199951171875C-5.4595947265625 1578.6199951171875 -1.410247802734375 1576.030029296875 -0.4096221923828125 1572.3299560546875C-0.154052734375 1571.3900146484375 1.52587890625e-05 1570.5799560546875 1.52587890625e-05 1569.75C1.52587890625e-05 1567.449951171875 -1.1878204345703125 1564.93994140625 -4.68865966796875 1558.5999755859375C-76.85337829589844 1427.6199951171875 -115.04298400878906 1283.1300048828125 -122.12098693847656 1114.280029296875C-122.41099548339844 1107.5899658203125 -122.55598449707031 1089.010009765625 -122.55598449707031 1070.3499755859375C-122.55598449707031 1051.699951171875 -122.41099548339844 1032.9599609375 -122.12098693847656 1025.969970703125C-115.87998962402344 870.4409790039062 -84.80018615722656 713.3389892578125 -28.432586669921875 552.5360107421875C-12.514984130859375 507.0740051269531 -4.167327880859375 455.8550109863281 -4.167327880859375 406.39300537109375C-4.167327880859375 387.072998046875 -5.4409942626953125 368.0199890136719 -8.034683227539062 349.6839904785156C-26.75958251953125 216.8719940185547 -99.95378112792969 99.21450805664062 -222.91998291015625 4.142425537109375C-226.97398376464844 0.98944091796875 -230.3199920654297 -1.680938720703125 -230.3199920654297 -1.8096466064453125C-230.3199920654297 -1.938323974609375 -226.97398376464844 -4.60870361328125 -222.91998291015625 -7.7617034912109375C-97.28349304199219 -104.89300537109375 -21.933578491210938 -228.5989990234375 -6.8764495849609375 -362.47198486328125C-5.0893096923828125 -378.3739929199219 -4.206146240234375 -394.5270080566406 -4.206146240234375 -410.7439880371094C-4.206146240234375 -460.21600341796875 -12.42498779296875 -510.28900146484375 -28.271682739257812 -555.6729736328125C-74.92298889160156 -689.1920166015625 -104.58699035644531 -821.198974609375 -116.55497741699219 -948.5089721679688C-120.47297668457031 -990.0399780273438 -122.46199035644531 -1033.010009765625 -122.46199035644531 -1074.06005859375C-122.46199035644531 -1093.68994140625 -122.00698852539062 -1112.8800048828125 -121.09199523925781 -1131.25C-113.14497375488281 -1289.5799560546875 -74.21519470214844 -1432.6199951171875 -4.68865966796875 -1558.6800537109375C-1.1878204345703125 -1565.02001953125 1.52587890625e-05 -1567.530029296875 1.52587890625e-05 -1569.8299560546875C1.52587890625e-05 -1570.6600341796875 -0.154052734375 -1571.469970703125 -0.4096221923828125 -1572.4100341796875C-1.4743804931640625 -1576.3399658203125 -5.475616455078125 -1578.6199951171875 -9.399093627929688 -1578.6199951171875C-11.877487182617188 -1578.6199951171875 -14.32489013671875 -1577.7099609375 -15.981491088867188 -1575.72998046875C-19.681381225585938 -1571.3499755859375 -52.49818420410156 -1508.8399658203125 -67.87709045410156 -1476.8900146484375C-165.010986328125 -1275.1400146484375 -213.95098876953125 -1074.75 -213.95098876953125 -881.1619873046875C-213.95098876953125 -793.5759887695312 -203.93399047851562 -707.3800048828125 -183.82998657226562 -623.0759887695312C-175.49697875976562 -588.0390014648438 -167.96798706054688 -562.1719970703125 -153.90798950195312 -520.1220092773438C-142.38998413085938 -485.6000061035156 -138.5299835205078 -472.95599365234375 -133.79998779296875 -453.6839904785156C-123.95498657226562 -413.7569885253906 -118.67898559570312 -379.5889892578125 -115.87998962402344 -337.6990051269531C-115.57698059082031 -333.2439880371094 -115.43598937988281 -322.781005859375 -115.43598937988281 -311.7139892578125C-115.43598937988281 -298.0849914550781 -115.64997863769531 -283.5409851074219 -116.03999328613281 -278.1780090332031C-124.66297912597656 -160.87399291992188 -169.35198974609375 -70.91790771484375 -248.49798583984375 -11.590301513671875C-254.54698181152344 -7.0217132568359375 -255.09397888183594 -6.217376708984375 -255.09397888183594 -1.8096466064453125C-255.09397888183594 2.5980987548828125 -254.54698181152344 3.4024200439453125 -248.49798583984375 7.971038818359375C-162.04798889160156 72.80027770996094 -115.52598571777344 176.65599060058594 -115.46098327636719 304.96299743652344C-115.46098327636719 320.43797302246094 -115.58998107910156 329.83299255371094 -115.87998962402344 334.07997131347656C-120.09397888183594 397.20399475097656 -130.16497802734375 446.2679901123047 -152.29998779296875 511.6759796142578C-167.99998474121094 558.0699920654297 -176.9449920654297 589.0850067138672 -186.20999145507812 629.4310150146484C-204.94598388671875 710.8459930419922 -214.25698852539062 794.2319793701172 -214.25698852539062 878.9479827880859C-214.25698852539062 1102.3599700927734 -149.50099182128906 1335.020004272461 -22.062286376953125 1565.189926147461C-15.724090576171875 1576.6800384521484 -15.498886108398438 1576.969955444336 -12.4423828125 1578.0899505615234Z" fill="black" /></g></svg>