<?xml version="1.0" encoding="utf-8" ?>
<svg baseProfile="tiny" height="100%" version="1.2" width="100%" xmlns="http://www.w3.org/2000/svg" xmlns:ev="http://www.w3.org/2001/xml-events" xmlns:xlink="http://www.w3.org/1999/xlink"><defs /><g transform="translate(0, 1000) scale(1, -1)"><path d="M-19.711395263671875 594.3519897460938C-19.228500366210938 594.426025390625 -18.751007080078125 594.4619750976562 -18.281494140625 594.4619750976562C-13.363800048828125 594.4619750976562 -9.333343505859375 590.5059814453125 -9.333343505859375 585.3510131835938C-9.333343505859375 585.3319702148438 -9.333404541015625 585.31298828125 -9.333526611328125 585.2940063476562C-9.36651611328125 583.0330200195312 -9.56451416015625 582.406005859375 -11.445404052734375 579.0399780273438C-33.96659851074219 538.5189819335938 -46.258392333984375 492.9320068359375 -49.19520568847656 439.02899169921875C-49.34370422363281 436.3810119628906 -49.417999267578125 428.4949951171875 -49.417999267578125 420.5530090332031C-49.417999267578125 412.6099853515625 -49.34370422363281 404.61199951171875 -49.19520568847656 401.74200439453125C-46.27490234375 343.4830017089844 -33.554107666015625 282.70098876953125 -9.943984985351562 214.22999572753906C-3.3124542236328125 194.9929962158203 0.0 176.1179962158203 0.0 157.4530029296875C0.0 144.26100158691406 -1.654541015625 131.1750030517578 -4.961273193359375 118.13900756835938C-15.999099731445312 74.647705078125 -42.166595458984375 38.168304443359375 -88.42999267578125 1.7384033203125C-90.01390075683594 0.4844818115234375 -91.31729125976562 -0.604461669921875 -91.31729125976562 -0.6704559326171875C-91.31729125976562 -0.7364501953125 -90.01390075683594 -1.8253936767578125 -88.42999267578125 -3.079315185546875C-37.16740417480469 -43.436004638671875 -9.416015625 -85.55810546875 -1.9914398193359375 -134.31300354003906C-0.677642822265625 -142.93499755859375 -0.0135498046875 -151.33799743652344 -0.0135498046875 -159.66900634765625C-0.0135498046875 -178.1219940185547 -3.27154541015625 -196.2239990234375 -9.943984985351562 -215.5709991455078C-36.2471923828125 -291.84698486328125 -49.400604248046875 -360.49700927734375 -49.400604248046875 -421.4200134277344C-49.400604248046875 -463.56298828125 -43.106903076171875 -502.00799560546875 -30.518295288085938 -536.7249755859375C-25.684097290039062 -550.0399780273438 -19.01849365234375 -565.1690063476562 -13.606796264648438 -575.0850219726562L-11.560897827148438 -578.8140258789062C-9.547988891601562 -582.4769897460938 -9.366500854492188 -583.0380249023438 -9.333511352539062 -585.3150024414062C-9.333328247070312 -585.3389892578125 -9.333236694335938 -585.3629760742188 -9.333236694335938 -585.3870239257812C-9.333236694335938 -590.697998046875 -13.49688720703125 -594.4619750976562 -18.2576904296875 -594.4619750976562C-19.655776977539062 -594.4619750976562 -21.105484008789062 -594.1370239257812 -22.516281127929688 -593.4320068359375C-24.611587524414062 -592.3930053710938 -25.3870849609375 -591.4030151367188 -28.571380615234375 -585.64501953125C-83.32957458496094 -486.74700927734375 -109.65797424316406 -399.0379943847656 -109.65797424316406 -314.84600830078125C-109.65797424316406 -307.9930114746094 -109.48399353027344 -301.16400146484375 -109.135986328125 -294.35400390625C-107.20597839355469 -256.6700134277344 -100.57298278808594 -222.76400756835938 -87.85249328613281 -185.70700073242188C-76.76689147949219 -153.3800048828125 -71.17878723144531 -124.1820068359375 -71.17878723144531 -98.85639953613281C-71.17878723144531 -89.58010864257812 -71.92848205566406 -80.82339477539062 -73.43238830566406 -72.622802734375C-78.34907531738281 -45.828399658203125 -91.23478698730469 -23.802093505859375 -110.48898315429688 -9.216964721679688C-114.28898620605469 -6.3527069091796875 -115.82298278808594 -4.0855712890625 -115.82298278808594 -1.0331268310546875C-115.82298278808594 -0.5337982177734375 -115.781982421875 -0.0134429931640625 -115.70298767089844 0.5339813232421875C-115.24098205566406 3.6522979736328125 -114.28398132324219 5.005218505859375 -110.48898315429688 7.8760528564453125C-91.23478698730469 22.461196899414062 -78.34907531738281 44.48750305175781 -73.43238830566406 71.28189086914062C-71.92848205566406 79.48249816894531 -71.17878723144531 88.23919677734375 -71.17878723144531 97.5155029296875C-71.17878723144531 122.84100341796875 -76.76689147949219 152.03900146484375 -87.85249328613281 184.36599731445312C-91.35029602050781 194.52999877929688 -93.69319152832031 202.03700256347656 -95.77207946777344 209.6929931640625C-105.12599182128906 244.13600158691406 -109.84298706054688 278.8559875488281 -109.84298706054688 314.2950134277344C-109.84298706054688 398.6199951171875 -83.1370849609375 487.0169982910156 -28.653884887695312 585.458984375C-24.7930908203125 592.4539794921875 -23.473190307617188 593.7579956054688 -19.711380004882812 594.3519897460938Z" fill="black" /></g></svg>