<?xml version="1.0" encoding="utf-8" ?>
<svg baseProfile="tiny" height="100%" version="1.2" width="100%" xmlns="http://www.w3.org/2000/svg" xmlns:ev="http://www.w3.org/2001/xml-events" xmlns:xlink="http://www.w3.org/1999/xlink"><defs /><g transform="translate(0, 1000) scale(1, -1)"><path d="M-18.8699951171875 927.1699829101562C-17.715301513671875 927.6519775390625 -16.543899536132812 927.8759765625 -15.405899047851562 927.8759765625C-10.674697875976562 927.8759765625 -6.5187835693359375 924.0040283203125 -6.5187835693359375 918.7020263671875C-6.5187835693359375 918.5189819335938 -6.5181427001953125 918.3489990234375 -6.5181427001953125 918.1890258789062C-6.5181427001953125 915.843017578125 -6.6543121337890625 915.6890258789062 -10.920700073242188 907.9569702148438C-46.75750732421875 843.0670166015625 -68.48220825195312 762.5900268554688 -72.677001953125 679.3159790039062C-73.22988891601562 668.3060302734375 -73.50509643554688 657.1220092773438 -73.50509643554688 645.7789916992188C-73.50509643554688 548.7680053710938 -53.37590026855469 440.1730041503906 -14.753005981445312 329.75201416015625C-4.8950653076171875 301.5780029296875 0.0 272.6549987792969 0.0 243.80799865722656C0.0 201.656005859375 -10.45159912109375 159.6649932861328 -31.143600463867188 120.40200805664062C-53.5675048828125 77.83329772949219 -88.3944091796875 38.11250305175781 -135.08099365234375 1.8614501953125C-136.9969940185547 0.3855133056640625 -138.5760040283203 -0.93505859375 -138.5760040283203 -1.03863525390625C-138.5760040283203 -1.1422119140625 -136.9969940185547 -2.4627838134765625 -135.08099365234375 -3.938720703125C-88.3944091796875 -40.18980407714844 -53.5675048828125 -79.91059875488281 -31.143600463867188 -122.48001098632812C-10.453598022460938 -161.73800659179688 -0.0111236572265625 -203.71600341796875 -0.0111236572265625 -245.86199951171875C-0.0111236572265625 -274.7120056152344 -4.9042205810546875 -303.6409912109375 -14.753005981445312 -331.8299865722656C-53.421905517578125 -442.4469909667969 -73.29530334472656 -549.9929809570312 -73.29530334472656 -646.3280029296875C-73.29530334472656 -677.2670288085938 -71.24539184570312 -707.0499877929688 -67.10980224609375 -735.406982421875C-57.9176025390625 -798.4320068359375 -37.90179443359375 -859.64501953125 -10.299301147460938 -909.1279907226562C-6.567840576171875 -915.8090209960938 -6.5187530517578125 -915.8619995117188 -6.5187530517578125 -918.489013671875L-6.5187835693359375 -918.7080078125C-6.518798828125 -924.219970703125 -10.957611083984375 -927.8759765625 -15.5836181640625 -927.8759765625C-17.781417846679688 -927.8759765625 -20.021408081054688 -927.051025390625 -21.847808837890625 -925.2080078125C-24.514816284179688 -922.5150146484375 -46.369110107421875 -881.239990234375 -58.435516357421875 -856.0460205078125C-117.35301208496094 -733.177978515625 -146.69100952148438 -616.864990234375 -146.69100952148438 -504.6719970703125C-146.69100952148438 -434.4750061035156 -135.20501708984375 -365.8909912109375 -112.29402160644531 -298.322998046875C-102.14401245117188 -268.364013671875 -96.96522521972656 -248.42599487304688 -92.64091491699219 -222.81700134277344C-89.45420837402344 -203.8719940185547 -87.88322448730469 -185.60000610351562 -87.88322448730469 -168.1529998779297C-87.88322448730469 -100.25399780273438 -111.67501831054688 -44.831207275390625 -156.62400817871094 -10.697006225585938C-162.24301147460938 -6.4503936767578125 -163.3050079345703 -4.8967742919921875 -163.3050079345703 -1.03863525390625C-163.3050079345703 2.8195037841796875 -162.24301147460938 4.3731231689453125 -156.62400817871094 8.619674682617188C-120.01002502441406 36.42939758300781 -96.39552307128906 80.11190795898438 -89.89622497558594 132.0030059814453C-88.49760437011719 143.2030029296875 -87.7921142578125 154.5760040283203 -87.7921142578125 166.21200561523438C-87.7921142578125 205.41700744628906 -95.80122375488281 247.60499572753906 -112.29402160644531 296.2460021972656C-135.29501342773438 364.0740051269531 -146.82101440429688 433.1300048828125 -146.82101440429688 503.7860107421875C-146.82101440429688 635.4019775390625 -106.82600402832031 772.5659790039062 -26.508712768554688 917.6669921875C-22.262115478515625 925.3309936523438 -21.770111083984375 925.9530029296875 -18.870010375976562 927.1699829101562Z" fill="black" /></g></svg>