<?xml version="1.0" encoding="utf-8" ?>
<svg baseProfile="tiny" height="100%" version="1.2" width="100%" xmlns="http://www.w3.org/2000/svg" xmlns:ev="http://www.w3.org/2001/xml-events" xmlns:xlink="http://www.w3.org/1999/xlink"><defs /><g transform="translate(0, 1000) scale(1, -1)"><path d="M-15.475204467773438 1147.0999755859375C-14.423416137695312 1147.47998046875 -13.369918823242188 1147.6500244140625 -12.34771728515625 1147.6500244140625C-7.548248291015625 1147.6500244140625 -3.438446044921875 1143.77001953125 -3.438446044921875 1138.4599609375C-3.4384613037109375 1138.1300048828125 -3.4332275390625 1137.8399658203125 -3.4332275390625 1137.5899658203125C-3.4332275390625 1135.7099609375 -3.721221923828125 1135.300048828125 -8.572616577148438 1126.510009765625C-54.15252685546875 1043.6700439453125 -81.87692260742188 942.5889892578125 -87.58152770996094 838.5650024414062C-88.49423217773438 821.593994140625 -88.6368408203125 817.3729858398438 -88.779541015625 796.635986328125C-88.7972412109375 794.1909790039062 -88.80612182617188 791.7490234375 -88.80612182617188 789.3099975585938C-88.80612182617188 717.3159790039062 -81.04364013671875 648.1240234375 -64.02142333984375 568.3380126953125C-52.384033203125 513.802001953125 -39.434539794921875 468.0220031738281 -16.872833251953125 401.87701416015625C-5.570465087890625 368.7149963378906 -3.0517578125e-05 334.4800109863281 -3.0517578125e-05 300.2229919433594C-3.0517578125e-05 233.5050048828125 -21.129730224609375 166.70700073242188 -62.19602966308594 107.60501098632812C-88.49423217773438 69.75439453125 -126.68702697753906 30.506698608398438 -166.04803466796875 0.928253173828125C-167.6740264892578 -0.2839813232421875 -168.48703002929688 -0.7902679443359375 -168.48703002929688 -1.2965545654296875C-168.48703002929688 -1.802825927734375 -167.6740264892578 -2.309112548828125 -166.04803466796875 -3.5213470458984375C-126.68702697753906 -33.09979248046875 -88.49423217773438 -72.34750366210938 -62.19602966308594 -110.197998046875C-21.1572265625 -169.26300048828125 -0.05511474609375 -235.55499267578125 -0.05511474609375 -302.3340148925781C-0.05511474609375 -332.2330017089844 -4.285552978515625 -362.2309875488281 -12.851028442382812 -391.7200012207031C-14.676528930664062 -397.9949951171875 -15.70343017578125 -401.218994140625 -20.495223999023438 -415.1659851074219C-65.96932983398438 -548.10400390625 -88.67843627929688 -673.844970703125 -88.67843627929688 -789.489013671875C-88.67843627929688 -916.1890258789062 -61.41963195800781 -1030.77001953125 -6.9753265380859375 -1129.4100341796875C-4.0830841064453125 -1134.6800537109375 -3.3332366943359375 -1136.3900146484375 -3.3332366943359375 -1138.3800048828125C-3.3332366943359375 -1138.68994140625 -3.3509979248046875 -1139.0 -3.38140869140625 -1139.3399658203125C-3.82275390625 -1144.239990234375 -7.9857635498046875 -1147.6500244140625 -12.47613525390625 -1147.6500244140625C-13.789825439453125 -1147.6500244140625 -15.131637573242188 -1147.3599853515625 -16.416427612304688 -1146.72998046875C-19.21173095703125 -1145.3599853515625 -19.1832275390625 -1145.4100341796875 -27.312225341796875 -1130.52001953125C-121.52304077148438 -958.552001953125 -168.85203552246094 -790.7459716796875 -168.85203552246094 -630.2269897460938C-168.85203552246094 -550.2310180664062 -157.09703063964844 -472.0459899902344 -133.5320281982422 -396.0559997558594C-132.22003173828125 -391.7489929199219 -128.79702758789062 -381.3380126953125 -125.94503784179688 -372.9519958496094C-123.09303283691406 -364.5660095214844 -119.95503234863281 -354.9830017089844 -118.92803955078125 -351.7019958496094C-104.0250244140625 -303.7460021972656 -96.7275390625 -257.7550048828125 -96.7275390625 -215.27200317382812C-96.7275390625 -127.906005859375 -127.59103393554688 -55.37310791015625 -186.64202880859375 -11.080001831054688C-192.2610321044922 -6.8870697021484375 -193.54502868652344 -5.06158447265625 -193.54502868652344 -1.2965545654296875C-193.5450439453125 2.4684906005859375 -192.26104736328125 4.2939605712890625 -186.6420440673828 8.486846923828125C-138.89404296875 44.31178283691406 -107.97505187988281 101.10098266601562 -99.30455017089844 168.98597717285156C-97.45423889160156 183.44198608398438 -96.52033996582031 198.0599822998047 -96.52033996582031 212.97598266601562C-96.52033996582031 260.8359832763672 -106.13505554199219 311.77598571777344 -125.94505310058594 370.35899353027344C-142.68804931640625 419.81797790527344 -152.75704956054688 460.83399963378906 -160.14404296875 509.4089813232422C-166.1260528564453 548.7919769287109 -169.11004638671875 588.6869964599609 -169.11004638671875 629.0410003662109C-169.11004638671875 791.8939666748047 -120.49705505371094 962.2129974365234 -24.032150268554688 1136.489974975586C-19.126144409179688 1145.3599700927734 -18.641250610351562 1145.959945678711 -15.475250244140625 1147.0999603271484Z" fill="black" /></g></svg>