<?xml version="1.0" encoding="utf-8" ?>
<svg baseProfile="tiny" height="100%" version="1.2" width="100%" xmlns="http://www.w3.org/2000/svg" xmlns:ev="http://www.w3.org/2001/xml-events" xmlns:xlink="http://www.w3.org/1999/xlink"><defs /><g transform="translate(0, 1000) scale(1, -1)"><path d="M-12.25439453125 3870.8798828125C-11.191802978515625 3871.2099609375 -10.144500732421875 3871.3701171875 -9.137603759765625 3871.3701171875C-4.1623077392578125 3871.3701171875 -0.171783447265625 3867.570068359375 -0.171783447265625 3862.22998046875C-0.2262115478515625 3859.39990234375 -0.607208251953125 3858.469970703125 -7.573760986328125 3845.89990234375C-221.7270050048828 3459.340087890625 -329.9110107421875 3011.81005859375 -329.9110107421875 2534.719970703125C-329.9110107421875 2201.97998046875 -277.2869873046875 1854.8699951171875 -171.28799438476562 1504.050048828125C-155.17799377441406 1450.6500244140625 -146.68699645996094 1424.6400146484375 -114.35800170898438 1329.5C-75.33450317382812 1214.719970703125 -56.285308837890625 1098.0799560546875 -56.230804443359375 973.8259887695312C-56.230804443359375 936.6530151367188 -56.4486083984375 928.5980224609375 -58.46229553222656 897.9010009765625C-80.39610290527344 557.5189819335938 -265.2820129394531 230.5260009765625 -562.2860107421875 6.72552490234375C-569.9600219726562 0.90191650390625 -576.2739868164062 -3.9964447021484375 -576.2739868164062 -4.2141571044921875C-576.2739868164062 -4.431854248046875 -569.9600219726562 -9.330230712890625 -562.2860107421875 -15.153793334960938C-265.2820129394531 -238.9550018310547 -80.39610290527344 -565.9479827880859 -58.46229553222656 -906.3300018310547C-56.4486083984375 -937.0259857177734 -56.230804443359375 -945.0809783935547 -56.230804443359375 -982.2540130615234C-56.285308837890625 -1106.509994506836 -75.38890075683594 -1223.469955444336 -114.35800170898438 -1337.9300384521484C-138.85000610351562 -1409.8299407958984 -151.69500732421875 -1448.800033569336 -164.10400390625 -1488.959945678711C-259.1860046386719 -1795.979965209961 -314.9729919433594 -2114.649887084961 -326.4570007324219 -2416.389877319336C-327.927001953125 -2455.679916381836 -328.1990051269531 -2467.979965209961 -328.47100830078125 -2523.060043334961C-328.5 -2528.659896850586 -328.5140075683594 -2534.259994506836 -328.5140075683594 -2539.840072631836C-328.5140075683594 -3023.040023803711 -221.5030059814453 -3458.709945678711 -7.9003143310546875 -3845.080062866211C-2.4999542236328125 -3854.850082397461 0.0 -3860.229965209961 0.0 -3863.749984741211C0.0 -3866.370101928711 -1.382080078125 -3867.969955444336 -3.98162841796875 -3869.570053100586C-5.890594482421875 -3870.749984741211 -7.6168365478515625 -3871.370101928711 -9.25897216796875 -3871.370101928711C-13.141403198242188 -3871.370101928711 -16.553802490234375 -3867.909896850586 -20.799301147460938 -3860.259994506836C-293.91001892089844 -3369.009994506836 -441.5690155029297 -2857.620101928711 -459.80201721191406 -2339.919906616211C-460.99900817871094 -2305.919906616211 -461.5960235595703 -2271.959945678711 -461.5960235595703 -2238.040023803711C-461.5960235595703 -1917.219955444336 -408.11402893066406 -1600.050033569336 -302.23802185058594 -1293.300033569336C-275.9500274658203 -1217.1600189208984 -259.94801330566406 -1158.9200286865234 -245.90602111816406 -1088.3899993896484C-228.01602172851562 -998.6009979248047 -219.28501892089844 -910.0679779052734 -219.28501892089844 -824.1240081787109C-219.28501892089844 -491.4619903564453 -350.10401916503906 -197.57997131347656 -586.9959869384766 -19.943374633789062C-600.7110137939453 -9.656753540039062 -601.5819854736328 -8.73150634765625 -601.5819854736328 -4.2141265869140625C-601.5819854736328 0.303253173828125 -600.7110137939453 1.2285003662109375 -586.9959869384766 11.515029907226562C-350.10401916503906 189.15103149414062 -219.28501892089844 483.03302001953125 -219.28501892089844 815.6960144042969C-219.28501892089844 901.6400451660156 -228.01602172851562 990.1720275878906 -245.90602111816406 1079.9599914550781C-259.94801330566406 1150.4900207519531 -275.9500274658203 1208.6800842285156 -302.23802185058594 1284.8700256347656C-401.6740264892578 1573.0000305175781 -453.86900329589844 1861.5699768066406 -461.4340057373047 2164.939971923828C-462.0330047607422 2189.060089111328 -462.3310089111328 2213.199981689453 -462.3310089111328 2237.370147705078C-462.3310089111328 2778.220001220703 -312.8570098876953 3333.220001220703 -28.038009643554688 3847.480010986328C-16.826217651367188 3867.720001220703 -15.302322387695312 3869.959991455078 -12.254409790039062 3870.879913330078Z" fill="black" /></g></svg>