<?xml version="1.0" encoding="utf-8" ?>
<svg baseProfile="tiny" height="100%" version="1.2" width="100%" xmlns="http://www.w3.org/2000/svg" xmlns:ev="http://www.w3.org/2001/xml-events" xmlns:xlink="http://www.w3.org/1999/xlink"><defs /><g transform="translate(0, 1000) scale(1, -1)"><path d="M-19.188095092773438 464.7900085449219C-18.77398681640625 464.8399963378906 -18.343887329101562 464.875 -18.11029052734375 464.875C-18.046783447265625 464.875 -17.997787475585938 464.87200927734375 -17.96759033203125 464.86700439453125C-17.826278686523438 464.85400390625 -17.363784790039062 464.8030090332031 -16.939788818359375 464.7510070800781C-13.021286010742188 464.3789978027344 -9.629470825195312 460.8970031738281 -9.192642211914062 456.8240051269531C-9.150100708007812 456.4169921875 -9.126663208007812 456.0379943847656 -9.126663208007812 455.6730041503906C-9.126663208007812 453.9440002441406 -9.65203857421875 452.52099609375 -11.15838623046875 449.78399658203125C-30.132888793945312 415.2980041503906 -39.62678527832031 376.1510009765625 -39.62678527832031 331.2149963378906C-39.62678527832031 283.9599914550781 -29.127578735351562 230.3040008544922 -8.113449096679688 168.9340057373047C-2.637359619140625 152.93899536132812 1.52587890625e-05 138.6750030517578 1.52587890625e-05 124.156005859375C1.52587890625e-05 117.58999633789062 -0.5394287109375 110.97100830078125 -1.5996856689453125 104.11799621582031C-7.5224609375 65.80609130859375 -28.7852783203125 33.584197998046875 -69.31968688964844 1.4779052734375C-70.65577697753906 0.4372406005859375 -71.7349853515625 -0.474945068359375 -71.7349853515625 -0.526336669921875C-71.7349853515625 -0.577728271484375 -70.65577697753906 -1.4899139404296875 -69.33247375488281 -2.5305633544921875C-28.7852783203125 -34.63679504394531 -7.5224609375 -66.85879516601562 -1.5996856689453125 -105.16999816894531C-0.5394287109375 -112.02400207519531 1.52587890625e-05 -118.6409912109375 1.52587890625e-05 -125.20599365234375C1.52587890625e-05 -139.7220001220703 -2.637359619140625 -153.98300170898438 -8.113449096679688 -169.98699951171875C-29.069778442382812 -231.21600341796875 -39.54017639160156 -284.6730041503906 -39.54017639160156 -331.7349853515625C-39.54017639160156 -376.4809875488281 -30.075088500976562 -415.4440002441406 -11.15838623046875 -449.8089904785156C-9.719406127929688 -452.42999267578125 -9.346817016601562 -453.36700439453125 -9.192642211914062 -454.8450012207031C-9.155364990234375 -455.1990051269531 -9.13726806640625 -455.5469970703125 -9.13726806640625 -455.88800048828125C-9.13726806640625 -461.218994140625 -13.55908203125 -464.875 -18.208480834960938 -464.875C-20.435089111328125 -464.875 -22.713882446289062 -464.0369873046875 -24.584182739257812 -462.1419982910156C-25.766082763671875 -460.93499755859375 -26.498489379882812 -459.6889953613281 -32.52398681640625 -448.52398681640625C-70.06477355957031 -378.9670104980469 -89.42619323730469 -318.0299987792969 -92.48399353027344 -259.8559875488281C-92.78858947753906 -254.04800415039062 -92.94148254394531 -248.2949981689453 -92.94148254394531 -242.58999633789062C-92.94148254394531 -208.5970001220703 -87.51377868652344 -176.31100463867188 -76.42439270019531 -144.17599487304688C-70.80998229980469 -127.87200927734375 -67.22547912597656 -114.24099731445312 -64.81007385253906 -99.9927978515625C-63.2952880859375 -91.0714111328125 -62.54438781738281 -82.58540344238281 -62.54438781738281 -74.57870483398438C-62.54438781738281 -45.7113037109375 -72.30589294433594 -23.072998046875 -91.22488403320312 -8.710296630859375C-94.48817443847656 -6.230682373046875 -95.6829833984375 -4.4320220947265625 -95.99137878417969 -1.515594482421875C-96.03628540039062 -1.0970306396484375 -96.05928039550781 -0.6933135986328125 -96.05928039550781 -0.3022613525390625C-96.05928039550781 2.7756500244140625 -94.63328552246094 5.069976806640625 -91.22488403320312 7.657623291015625C-78.9296875 16.985000610351562 -70.21897888183594 30.333694458007812 -65.773681640625 46.65020751953125C-63.60198974609375 54.61199951171875 -62.5164794921875 63.40550231933594 -62.5164794921875 73.02059936523438C-62.5164794921875 92.86990356445312 -67.14228820800781 116.22000122070312 -76.38587951660156 142.98199462890625C-87.51068115234375 175.20599365234375 -93.06797790527344 208.18699645996094 -93.06797790527344 242.1490020751953C-93.06797790527344 260.8999938964844 -91.37388610839844 279.95098876953125 -87.98728942871094 299.3380126953125C-79.45648193359375 348.18499755859375 -59.24708557128906 400.9110107421875 -26.858184814453125 458.84100341796875C-24.635482788085938 462.79901123046875 -22.554183959960938 464.4169921875 -19.188079833984375 464.7900085449219Z" fill="black" /></g></svg>