<?xml version="1.0" encoding="utf-8" ?>
<svg baseProfile="tiny" height="100%" version="1.2" width="100%" xmlns="http://www.w3.org/2000/svg" xmlns:ev="http://www.w3.org/2001/xml-events" xmlns:xlink="http://www.w3.org/1999/xlink"><defs /><g transform="translate(0, 1000) scale(1, -1)"><path d="M-18.698196411132812 817.5449829101562C-18.051193237304688 817.6729736328125 -17.411483764648438 817.7349853515625 -16.78558349609375 817.7349853515625C-11.753982543945312 817.7349853515625 -7.6091461181640625 813.7659912109375 -7.6091461181640625 808.7490234375C-7.6091461181640625 808.4110107421875 -7.62799072265625 808.0679931640625 -7.6666717529296875 807.7210083007812C-7.89459228515625 805.8519897460938 -8.008560180664062 805.6019897460938 -10.903182983398438 800.3140258789062C-43.67878723144531 740.8480224609375 -61.43418884277344 673.9520263671875 -65.28608703613281 595.5689697265625C-65.47978210449219 591.6599731445312 -65.57667541503906 581.43798828125 -65.57667541503906 571.1640014648438C-65.57667541503906 560.8900146484375 -65.47978210449219 550.5650024414062 -65.28608703613281 546.4509887695312C-63.62217712402344 510.6210021972656 -59.42839050292969 474.3810119628906 -53.04649353027344 440.6940002441406C-43.40528869628906 389.6619873046875 -31.302490234375 344.37298583984375 -13.56988525390625 292.9989929199219C-6.390289306640625 272.1889953613281 -3.062591552734375 257.2139892578125 -0.851715087890625 235.7899932861328C-0.277740478515625 230.24099731445312 1.52587890625e-05 224.1020050048828 1.52587890625e-05 217.67300415039062C1.52587890625e-05 201.1269989013672 -1.84002685546875 182.66200256347656 -5.205078125 167.41200256347656C-6.77777099609375 160.30099487304688 -10.94879150390625 145.21200561523438 -12.133987426757812 142.40899658203125L-13.866195678710938 137.66799926757812C-31.712783813476562 88.04859924316406 -68.63658142089844 41.050506591796875 -121.583984375 0.5710906982421875C-122.65797424316406 -0.2516326904296875 -123.19297790527344 -0.581695556640625 -123.19297790527344 -0.9130706787109375C-123.19297790527344 -1.2426910400390625 -122.66297912597656 -1.5735931396484375 -121.60598754882812 -2.391937255859375C-68.63658142089844 -42.87139892578125 -31.712783813476562 -89.8695068359375 -13.866180419921875 -139.48899841308594L-12.13397216796875 -144.22999572753906C-10.948776245117188 -147.03302001953125 -6.7777557373046875 -162.12200927734375 -5.2050628662109375 -169.23301696777344C-1.8400115966796875 -184.4820098876953 3.0517578125e-05 -202.947021484375 3.0517578125e-05 -219.4940185546875C3.0517578125e-05 -225.9230194091797 -0.2777252197265625 -232.06201171875 -0.8516998291015625 -237.61001586914062C-1.444305419921875 -243.40000915527344 -1.808990478515625 -246.20301818847656 -2.58392333984375 -251.40000915527344C-4.8859710693359375 -266.51100158691406 -7.826202392578125 -278.13502502441406 -13.683868408203125 -295.16102600097656C-42.926666259765625 -380.1320037841797 -59.86146545410156 -459.9510040283203 -64.44277954101562 -534.3690338134766C-65.14926147460938 -546.1519927978516 -65.26327514648438 -550.0730133056641 -65.40007019042969 -566.7340240478516C-65.4229736328125 -570.1049957275391 -65.4356689453125 -573.1649932861328 -65.4356689453125 -576.0000152587891C-65.4356689453125 -590.0330352783203 -65.12496948242188 -598.5520172119141 -64.21476745605469 -611.9770050048828C-59.54237365722656 -680.4910430908203 -41.23997497558594 -745.1530303955078 -10.903167724609375 -800.3109893798828C-8.008544921875 -805.5990142822266 -7.8945770263671875 -805.8499908447266 -7.666656494140625 -807.7190093994141C-7.6288299560546875 -808.0570220947266 -7.61041259765625 -808.3910064697266 -7.61041259765625 -808.7220001220703C-7.61041259765625 -813.6770172119141 -11.743576049804688 -817.7350006103516 -16.677871704101562 -817.7350006103516C-17.169769287109375 -817.7350006103516 -17.669570922851562 -817.6950225830078 -18.173965454101562 -817.6110382080078C-22.07147216796875 -816.9730377197266 -23.302276611328125 -815.6959991455078 -27.769668579101562 -807.5370025634766C-57.3770751953125 -753.7920074462891 -79.5313720703125 -704.7650299072266 -96.80807495117188 -654.8270416259766L-105.58297729492188 -627.9320220947266C-124.31796264648438 -569.1880035400391 -135.09396362304688 -499.79701232910156 -135.09396362304688 -440.32701110839844C-135.09396362304688 -432.5120086669922 -134.90797424316406 -424.86900329589844 -134.52996826171875 -417.44300842285156C-132.43296813964844 -375.98402404785156 -127.8289794921875 -344.0290069580078 -118.802978515625 -308.0390167236328C-114.0849609375 -289.21302795410156 -111.57797241210938 -280.8250274658203 -103.66897583007812 -257.4400177001953C-89.79827880859375 -216.38601684570312 -82.88507080078125 -178.4750213623047 -82.88507080078125 -144.48301696777344C-82.88507080078125 -101.95001220703125 -93.70877075195312 -65.55271911621094 -115.26995849609375 -36.80860900878906C-122.40396118164062 -27.304122924804688 -131.52096557617188 -18.00482177734375 -140.54696655273438 -11.098709106445312C-145.1279754638672 -7.5658416748046875 -145.56097412109375 -7.201171875 -146.42697143554688 -5.9247894287109375C-147.41897583007812 -4.4432830810546875 -147.9149627685547 -2.676849365234375 -147.9149627685547 -0.9104461669921875C-147.9149627685547 0.8559722900390625 -147.41897583007812 2.6223907470703125 -146.42697143554688 4.1038970947265625C-145.56097412109375 5.380279541015625 -145.1279754638672 5.744964599609375 -140.54696655273438 9.277801513671875C-102.8289794921875 38.22898864746094 -82.9976806640625 85.14878845214844 -82.9976806640625 143.1389923095703C-82.9976806640625 159.9309844970703 -84.66036987304688 177.6499786376953 -88.032958984375 196.1309814453125C-92.15837097167969 218.8319854736328 -96.3521728515625 234.19398498535156 -106.83697509765625 265.07798767089844C-125.70596313476562 320.7209930419922 -135.1489715576172 378.9829864501953 -135.1489715576172 439.09898376464844C-135.1489715576172 492.55198669433594 -127.6839599609375 547.4699554443359 -112.73995971679688 603.3179779052734C-109.50396728515625 615.3759613037109 -108.0899658203125 620.1389617919922 -101.89096069335938 639.5579681396484C-85.04718017578125 692.3909759521484 -60.294464111328125 748.5289764404297 -27.769668579101562 807.5389862060547C-23.461868286132812 815.4019622802734 -22.094268798828125 816.8839569091797 -18.698165893554688 817.5449676513672Z" fill="black" /></g></svg>