<?xml version="1.0" encoding="utf-8" ?>
<svg baseProfile="tiny" height="100%" version="1.2" width="100%" xmlns="http://www.w3.org/2000/svg" xmlns:ev="http://www.w3.org/2001/xml-events" xmlns:xlink="http://www.w3.org/1999/xlink"><defs /><g transform="translate(0, 1000) scale(1, -1)"><path d="M-13.393402099609375 7133.5C-12.162506103515625 7134.06005859375 -10.88800048828125 7134.31982421875 -9.636627197265625 7134.31982421875C-4.6332855224609375 7134.31982421875 0.0 7130.22998046875 0.0 7125.169921875C0.0 7124.740234375 -0.0336151123046875 7124.2998046875 -0.1035003662109375 7123.85986328125C-0.3225555419921875 7122.6201171875 -7.040557861328125 7109.77001953125 -15.072906494140625 7095.31005859375C-425.20098876953125 6356.419921875 -633.97900390625 5502.5 -633.97900390625 4598.7099609375C-633.97900390625 4127.6298828125 -577.2589721679688 3643.0 -462.7690124511719 3154.0400390625C-412.7489929199219 2940.590087890625 -348.343994140625 2716.639892578125 -277.22100830078125 2509.260009765625C-232.82400512695312 2379.929931640625 -224.42599487304688 2352.699951171875 -204.7100067138672 2274.199951171875C-162.36099243164062 2105.570068359375 -141.75900268554688 1935.22998046875 -141.75900268554688 1766.260009765625C-141.75900268554688 1094.1199951171875 -467.7770080566406 443.6629638671875 -1047.7500305175781 8.40948486328125C-1059.2099914550781 -0.2070770263671875 -1068.5600891113281 -7.509246826171875 -1068.5600891113281 -7.80133056640625C-1068.5600891113281 -8.16644287109375 -1059.2099914550781 -15.3956298828125 -1047.7500305175781 -24.012130737304688C-921.8560485839844 -118.42903137207031 -805.9710388183594 -224.676025390625 -703.3750305175781 -339.6850280761719C-335.8600158691406 -751.9090270996094 -141.82403564453125 -1261.5500793457031 -141.82403564453125 -1780.9399719238281C-141.82403564453125 -1978.3600158691406 -169.8580322265625 -2177.189971923828 -227.05502319335938 -2372.610137939453C-237.93502807617188 -2409.560089111328 -243.4850311279297 -2426.570098876953 -277.5860290527344 -2525.949981689453C-512.0230407714844 -3209.980010986328 -632.2870178222656 -3922.169952392578 -632.2870178222656 -4608.470245361328C-632.2870178222656 -4842.220245361328 -618.3350524902344 -5072.970245361328 -590.1920471191406 -5298.589874267578C-509.2840270996094 -5947.819854736328 -313.36602783203125 -6559.379913330078 -14.92694091796875 -7094.919952392578C-4.538330078125 -7113.620147705078 -0.0513153076171875 -7122.339874267578 -0.0513153076171875 -7127.080108642578C-0.0513153076171875 -7130.339874267578 -2.1688232421875 -7131.730010986328 -5.945281982421875 -7133.180206298828C-7.524322509765625 -7133.779815673828 -8.771621704101562 -7134.319854736328 -10.020050048828125 -7134.319854736328C-15.526138305664062 -7134.319854736328 -21.053741455078125 -7123.830108642578 -55.16184997558594 -7061.330108642578C-430.49305725097656 -6373.100128173828 -673.2170257568359 -5625.649932861328 -762.2310638427734 -4884.189971923828L-766.9770355224609 -4845.120147705078C-790.7300262451172 -4652.259796142578 -804.2300262451172 -4410.029815673828 -804.2300262451172 -4190.450225830078C-804.2300262451172 -4144.069854736328 -803.6280364990234 -4098.709991455078 -802.3930511474609 -4055.030059814453C-786.0360565185547 -3477.570098876953 -687.8950653076172 -2941.590118408203 -498.40306091308594 -2394.149932861328C-426.98805236816406 -2187.860137939453 -384.2710418701172 -1992.9700012207031 -365.43104553222656 -1788.0699768066406C-358.71205139160156 -1715.0000305175781 -355.40003967285156 -1642.5600891113281 -355.40003967285156 -1570.9800109863281C-355.40003967285156 -930.7240295410156 -620.4250335693359 -359.2130432128906 -1083.5300750732422 -21.164337158203125C-1092.1400604248047 -14.811431884765625 -1093.5300750732422 -13.570037841796875 -1094.4800262451172 -10.86822509765625C-1094.9399871826172 -9.515167236328125 -1095.2200164794922 -8.354904174804688 -1095.2200164794922 -7.263092041015625C-1095.2200164794922 -3.7001495361328125 -1092.3000946044922 -0.8661651611328125 -1083.5300750732422 5.561614990234375C-766.3930511474609 237.0399627685547 -534.5490570068359 586.7410125732422 -426.33103942871094 996.6119842529297C-386.53404235839844 1147.3299407958984 -364.19004821777344 1298.560043334961 -356.8140411376953 1466.8699798583984C-356.1940460205078 1481.3299407958984 -355.88304138183594 1518.1700286865234 -355.88304138183594 1555.1099700927734C-355.88304138183594 1592.050033569336 -356.1940460205078 1629.0899505615234 -356.8140411376953 1643.949935913086C-367.69505310058594 1897.550033569336 -412.45704650878906 2130.050033569336 -498.40306091308594 2378.550033569336C-703.9360198974609 2972.820053100586 -805.9490203857422 3572.639877319336 -805.9490203857422 4189.390121459961C-805.9490203857422 4315.009750366211 -801.7170257568359 4441.339828491211 -793.2650604248047 4568.470199584961C-787.4960174560547 4655.069808959961 -772.5270233154297 4819.370101928711 -768.4380340576172 4840.109848022461C-768.2920379638672 4841.129867553711 -766.9040374755859 4851.939926147461 -765.5170745849609 4864.200180053711C-676.3570404052734 5627.870101928711 -422.02305603027344 6403.359848022461 -29.750350952148438 7107.870101928711C-15.730148315429688 7133.209945678711 -16.387344360351562 7132.109848022461 -13.393447875976562 7133.499984741211Z" fill="black" /></g></svg>