<?xml version="1.0" encoding="utf-8" ?>
<svg baseProfile="tiny" height="100%" version="1.2" width="100%" xmlns="http://www.w3.org/2000/svg" xmlns:ev="http://www.w3.org/2001/xml-events" xmlns:xlink="http://www.w3.org/1999/xlink"><defs /><g transform="translate(0, 1000) scale(1, -1)"><path d="M-12.880706787109375 1275.9599609375C-12.030303955078125 1276.18994140625 -11.179901123046875 1276.300048828125 -10.347702026367188 1276.300048828125C-6.0346527099609375 1276.300048828125 -2.2087249755859375 1273.3499755859375 -1.394378662109375 1268.989990234375C-1.2663726806640625 1268.31005859375 -1.187103271484375 1267.719970703125 -1.187103271484375 1267.1300048828125C-1.187103271484375 1265.0999755859375 -2.13824462890625 1263.0999755859375 -5.3088836669921875 1257.3599853515625C-66.67709350585938 1146.1300048828125 -97.83979797363281 1016.5499877929688 -97.83979797363281 873.5579833984375C-97.83979797363281 846.844970703125 -96.75228881835938 819.666015625 -94.57099914550781 792.0499877929688C-86.11329650878906 684.7020263671875 -61.34049987792969 569.5239868164062 -22.567001342773438 457.3179931640625C-12.652099609375 428.60198974609375 -8.25189208984375 411.8869934082031 -4.6231231689453125 389.1709899902344C-1.5678863525390625 370.09600830078125 -0.0588226318359375 351.07000732421875 -0.0588226318359375 332.17401123046875C-0.0588226318359375 208.8159942626953 -64.376708984375 91.01629638671875 -182.69000244140625 1.321075439453125C-184.5189971923828 -0.0789947509765625 -186.0330047607422 -1.3076324462890625 -186.0330047607422 -1.42193603515625C-186.03298950195312 -1.536224365234375 -184.51898193359375 -2.764862060546875 -182.6899871826172 -4.164947509765625C-144.8879852294922 -32.823699951171875 -109.22898864746094 -68.05419921875 -81.68449401855469 -103.885009765625C-27.833786010742188 -173.99600219726562 1.52587890625e-05 -253.94500732421875 1.52587890625e-05 -334.8900146484375C1.52587890625e-05 -368.447998046875 -4.7837677001953125 -402.1759948730469 -14.480789184570312 -435.4460144042969C-16.423782348632812 -442.2179870605469 -17.566680908203125 -445.6180114746094 -22.96697998046875 -461.3039855957031C-60.11189270019531 -569.2529907226562 -84.37037658691406 -679.8880004882812 -93.42799377441406 -783.0369873046875C-96.14039611816406 -813.8380126953125 -97.52398681640625 -846.0540161132812 -97.52398681640625 -876.8150024414062C-97.52398681640625 -893.3660278320312 -97.12348937988281 -909.4959716796875 -96.31388854980469 -924.7589721679688C-89.74208068847656 -1047.93994140625 -59.25468444824219 -1159.4599609375 -5.3660125732421875 -1257.2099609375C-2.1472930908203125 -1263.0699462890625 -1.1877288818359375 -1265.0799560546875 -1.1877288818359375 -1267.1199951171875C-1.1877288818359375 -1267.7099609375 -1.2668609619140625 -1268.300048828125 -1.3943634033203125 -1268.97998046875C-2.2147979736328125 -1273.4300537109375 -6.2302703857421875 -1276.300048828125 -10.39678955078125 -1276.300048828125C-12.03448486328125 -1276.300048828125 -13.695587158203125 -1275.8599853515625 -15.195083618164062 -1274.8900146484375C-17.195281982421875 -1273.6400146484375 -17.680984497070312 -1272.8900146484375 -22.938385009765625 -1263.3499755859375C-128.32798767089844 -1072.280029296875 -181.31698608398438 -884.9130249023438 -181.31698608398438 -705.1320190429688C-181.31698608398438 -621.364990234375 -169.81298828125 -539.2440185546875 -146.74497985839844 -459.1610107421875C-142.31597900390625 -443.760986328125 -139.14498901367188 -433.84600830078125 -130.6589813232422 -408.87298583984375C-110.87599182128906 -350.6960144042969 -101.18898010253906 -294.6730041503906 -101.18898010253906 -243.04400634765625C-101.18898010253906 -144.86500549316406 -136.21798706054688 -62.57440185546875 -203.46298217773438 -11.5653076171875C-209.14898681640625 -7.2794036865234375 -210.11997985839844 -6.136474609375 -210.66297912597656 -3.164886474609375C-210.8149871826172 -2.3444976806640625 -210.90098571777344 -1.6031036376953125 -210.90098571777344 -0.909820556640625C-210.90098571777344 2.308563232421875 -209.0579833984375 4.4898834228515625 -203.46298217773438 8.72149658203125C-136.21798706054688 59.730804443359375 -101.17597961425781 142.07200622558594 -101.17597961425781 240.2530059814453C-101.17597961425781 291.8819885253906 -110.86598205566406 347.8919982910156 -130.6589813232422 406.02899169921875C-141.8879852294922 439.0880126953125 -146.8879852294922 455.489013671875 -153.57398986816406 481.3190002441406C-172.281982421875 553.6959838867188 -181.60198974609375 627.8619995117188 -181.60198974609375 703.4190063476562C-181.60198974609375 883.93701171875 -128.40399169921875 1072.3900146484375 -22.938385009765625 1263.3599853515625C-16.90948486328125 1274.280029296875 -16.2808837890625 1275.050048828125 -12.880691528320312 1275.9599609375Z" fill="black" /></g></svg>