<?xml version="1.0" encoding="utf-8" ?>
<svg baseProfile="tiny" height="100%" version="1.2" width="100%" xmlns="http://www.w3.org/2000/svg" xmlns:ev="http://www.w3.org/2001/xml-events" xmlns:xlink="http://www.w3.org/1999/xlink"><defs /><g transform="translate(0, 1000) scale(1, -1)"><path d="M-16.745803833007812 391.0320129394531C-16.330215454101562 391.08599853515625 -15.919219970703125 391.11199951171875 -15.514312744140625 391.11199951171875C-10.557418823242188 391.11199951171875 -6.526031494140625 387.20001220703125 -6.526031494140625 382.0830078125C-6.526031494140625 379.9620056152344 -6.7629547119140625 379.239990234375 -8.432159423828125 376.2139892578125C-19.578109741210938 355.92498779296875 -26.901016235351562 332.8039855957031 -29.991714477539062 308.15399169921875C-31.1881103515625 298.60101318359375 -31.790817260742188 288.7380065917969 -31.790817260742188 278.5069885253906C-31.790817260742188 238.822998046875 -22.722213745117188 193.5989990234375 -4.049163818359375 139.4040069580078C-2.724578857421875 135.53700256347656 -1.303070068359375 130.31399536132812 -0.4415435791015625 126.07199096679688L-1.52587890625e-05 123.92799377441406V104.12399291992188V84.31999206542969L-0.3876953125 82.42469787597656C-6.24603271484375 53.509918212890625 -23.96099853515625 26.94281005859375 -52.71429443359375 3.9293975830078125C-56.268096923828125 1.0863800048828125 -58.04499816894531 -0.367431640625 -58.04499816894531 -0.4320526123046875C-58.04499816894531 -0.4966583251953125 -56.268096923828125 -1.9504852294921875 -52.71429443359375 -4.793487548828125C-23.96099853515625 -27.806884765625 -6.24603271484375 -54.37397766113281 -0.3876800537109375 -83.28878784179688L0.0 -85.18417358398438V-104.98797607421875V-124.79296875L-0.4415283203125 -126.93597412109375C-1.3030548095703125 -131.14596557617188 -2.7137908935546875 -136.3689727783203 -4.0491485595703125 -140.26797485351562L-6.041412353515625 -146.0829620361328C-19.201095581054688 -184.5279541015625 -27.687103271484375 -221.907958984375 -30.573196411132812 -254.1499481201172C-31.3291015625 -262.58094787597656 -31.706695556640625 -270.82395935058594 -31.706695556640625 -278.87294006347656C-31.706695556640625 -315.43394470214844 -23.9176025390625 -348.01295471191406 -8.410598754882812 -376.2379608154297C-6.762939453125 -379.2429656982422 -6.5260162353515625 -379.9639434814453 -6.5260162353515625 -382.08595275878906C-6.5260162353515625 -387.58595275878906 -10.97320556640625 -391.11195373535156 -15.582794189453125 -391.11195373535156C-18.048797607421875 -391.11195373535156 -20.561294555664062 -390.1029510498047 -22.464202880859375 -387.84693908691406C-22.981094360351562 -387.2329559326172 -23.745697021484375 -385.9199676513672 -26.351806640625 -381.1699676513672C-42.22529602050781 -352.2659454345703 -53.87739562988281 -326.6039581298828 -62.76179504394531 -300.9409637451172C-74.41339111328125 -267.2869415283203 -80.23930358886719 -234.51795959472656 -80.23930358886719 -202.71595764160156C-80.23930358886719 -174.76194763183594 -75.73800659179688 -147.5559539794922 -66.735595703125 -121.1529541015625C-59.22959899902344 -99.15156555175781 -55.95579528808594 -84.55955505371094 -54.69580078125 -67.57675170898438C-54.61500549316406 -66.46226501464844 -54.57470703125 -63.85874938964844 -54.57470703125 -61.28096008300781C-54.57470703125 -58.703155517578125 -54.61500549316406 -56.15086364746094 -54.69580078125 -55.1385498046875C-56.37579345703125 -34.46205139160156 -64.02178955078125 -18.717758178710938 -77.2677001953125 -8.724151611328125C-79.02301025390625 -7.399566650390625 -79.5830078125 -6.9149627685546875 -80.18609619140625 -6.193450927734375C-81.5537109375 -4.5673065185546875 -82.23750305175781 -2.499664306640625 -82.23750305175781 -0.4320220947265625C-82.23750305175781 1.6356353759765625 -81.5537109375 3.7032928466796875 -80.18609619140625 5.32940673828125C-79.5830078125 6.0509185791015625 -79.02301025390625 6.5355377197265625 -77.2677001953125 7.8601226806640625C-62.60029602050781 18.930648803710938 -54.56660461425781 37.53955078125 -54.56660461425781 60.412841796875C-54.56660461425781 62.93284606933594 -54.631195068359375 65.76504516601562 -54.69580078125 66.71275329589844C-55.95579528808594 83.69544982910156 -59.22959899902344 98.28755187988281 -66.735595703125 120.28904724121094C-74.80149841308594 143.95904541015625 -78.8507080078125 165.72305297851562 -80.12139892578125 192.279052734375C-80.25909423828125 195.13504028320312 -80.32569885253906 198.26904296875 -80.32569885253906 201.56304931640625C-80.32569885253906 211.41004943847656 -79.73019409179688 222.68003845214844 -78.65689086914062 232.17904663085938C-73.34770202636719 279.3040313720703 -56.07420349121094 327.8500518798828 -24.3594970703125 384.77503967285156C-21.99029541015625 389.01805114746094 -20.073394775390625 390.60105895996094 -16.745803833007812 391.0320587158203Z" fill="black" /></g></svg>