<?xml version="1.0" encoding="utf-8" ?>
<svg baseProfile="tiny" height="100%" version="1.2" width="100%" xmlns="http://www.w3.org/2000/svg" xmlns:ev="http://www.w3.org/2001/xml-events" xmlns:xlink="http://www.w3.org/1999/xlink"><defs /><g transform="translate(0, 1000) scale(1, -1)"><path d="M-12.920196533203125 1790.3800048828125C-11.635696411132812 1790.989990234375 -10.31610107421875 1791.27001953125 -9.033843994140625 1791.27001953125C-4.2582244873046875 1791.27001953125 0.0 1787.3699951171875 0.0 1782.1700439453125C0.0 1781.93994140625 -0.0085601806640625 1781.699951171875 -0.0260162353515625 1781.469970703125C-0.1356048583984375 1779.5999755859375 -0.5739288330078125 1778.5799560546875 -2.875152587890625 1774.4200439453125C-60.5885009765625 1669.5799560546875 -98.97879028320312 1561.31005859375 -120.8590087890625 1441.5C-134.677001953125 1365.9000244140625 -141.5749969482422 1287.6700439453125 -141.5749969482422 1207.06005859375C-141.5749969482422 1024.719970703125 -106.28298950195312 830.1290283203125 -35.968994140625 625.8469848632812C-17.454605102539062 572.093017578125 -8.238723754882812 516.593017578125 -8.238723754882812 461.0840148925781C-8.238723754882812 389.6659851074219 -23.494705200195312 318.2340087890625 -53.830902099609375 250.49200439453125C-57.9949951171875 241.177001953125 -69.31849670410156 218.38400268554688 -72.75210571289062 212.35699462890625L-79.58270263671875 200.30299377441406C-119.83599853515625 129.1110076904297 -185.7310028076172 55.76380920410156 -257.9100036621094 1.7763214111328125C-260.4670104980469 -0.12310791015625 -262.54901123046875 -1.7668304443359375 -262.54901123046875 -1.8764190673828125C-262.54901123046875 -1.985992431640625 -260.4670104980469 -3.629730224609375 -257.9100036621094 -5.5291595458984375C-185.7310028076172 -59.51667785644531 -119.83599853515625 -132.86398315429688 -79.58270263671875 -204.0559844970703L-72.75210571289062 -216.1099853515625C-66.43289184570312 -227.14100646972656 -53.97700500488281 -253.2220001220703 -47.54820251464844 -268.8550109863281C-21.35150146484375 -332.4590148925781 -8.208999633789062 -398.70098876953125 -8.208999633789062 -464.89898681640625C-8.208999633789062 -520.3569946289062 -17.432891845703125 -575.7830200195312 -35.9324951171875 -629.5999755859375C-100.73199462890625 -818.0449829101562 -133.24200439453125 -983.551025390625 -140.29100036621094 -1160.8900146484375C-140.6020050048828 -1168.72998046875 -140.7570037841797 -1189.0799560546875 -140.7570037841797 -1209.4000244140625C-140.7570037841797 -1229.719970703125 -140.6020050048828 -1250.0 -140.29100036621094 -1257.68994140625C-132.3280029296875 -1454.280029296875 -88.6781005859375 -1618.3199462890625 -2.875152587890625 -1774.1500244140625C-0.9976806640625 -1777.56005859375 -0.05615234375 -1780.449951171875 -0.05615234375 -1782.8599853515625C-0.05615234375 -1786.1199951171875 -1.7826080322265625 -1788.489990234375 -5.2494354248046875 -1790.1099853515625C-6.8520660400390625 -1790.8599853515625 -8.255294799804688 -1791.27001953125 -9.56390380859375 -1791.27001953125C-13.2958984375 -1791.27001953125 -16.25860595703125 -1787.93994140625 -20.883193969726562 -1779.6700439453125C-147.8520050048828 -1551.9200439453125 -221.7469940185547 -1312.300048828125 -235.0070037841797 -1085.0999755859375C-236.53599548339844 -1058.6700439453125 -237.36199951171875 -1028.010009765625 -237.36199951171875 -1000.75C-237.36199951171875 -986.322998046875 -237.13099670410156 -972.8489990234375 -236.6510009765625 -961.4520263671875C-231.06199645996094 -826.2269897460938 -209.83999633789062 -711.8599853515625 -167.61399841308594 -589.0910034179688C-142.88499450683594 -517.1320190429688 -131.0500030517578 -459.8940124511719 -126.30099487304688 -388.8840026855469C-125.77899169921875 -381.02801513671875 -125.52999877929688 -371.4649963378906 -125.52999877929688 -361.19000244140625C-125.52999877929688 -339.1239929199219 -126.67999267578125 -313.7760009765625 -128.74899291992188 -295.0090026855469C-141.71600341796875 -176.4040069580078 -194.5709991455078 -76.53849792480469 -277.3789978027344 -14.11309814453125C-286.5469970703125 -7.209442138671875 -287.42401123046875 -6.150146484375 -287.42401123046875 -1.876434326171875C-287.42401123046875 2.39727783203125 -286.5469970703125 3.456573486328125 -277.3789978027344 10.360305786132812C-194.5709991455078 72.78559875488281 -141.71600341796875 172.65199279785156 -128.74899291992188 291.2560119628906C-126.67999267578125 310.02301025390625 -125.52999877929688 335.3710021972656 -125.52999877929688 357.43798828125C-125.52999877929688 367.7120056152344 -125.77899169921875 377.2749938964844 -126.30099487304688 385.1319885253906C-131.08599853515625 456.2869873046875 -142.84800720214844 513.197021484375 -167.75999450683594 585.7039794921875C-214.5850067138672 722.0040283203125 -237.76100158691406 860.25 -237.76100158691406 1003.5700073242188C-237.76100158691406 1025.719970703125 -237.20799255371094 1047.989990234375 -236.10299682617188 1070.3900146484375C-224.8520050048828 1297.550048828125 -154.82899475097656 1533.5899658203125 -31.11090087890625 1761.300048828125C-16.426803588867188 1788.300048828125 -16.061599731445312 1788.9200439453125 -12.920196533203125 1790.3800048828125Z" fill="black" /></g></svg>