<?xml version="1.0" encoding="utf-8" ?>
<svg baseProfile="tiny" height="100%" version="1.2" width="100%" xmlns="http://www.w3.org/2000/svg" xmlns:ev="http://www.w3.org/2001/xml-events" xmlns:xlink="http://www.w3.org/1999/xlink"><defs /><g transform="translate(0, 1000) scale(1, -1)"><path d="M-12.972991943359375 284.16400146484375C-12.543792724609375 284.2560119628906 -11.9375 284.3009948730469 -11.302505493164062 284.3009948730469C-10.433807373046875 284.3009948730469 -9.51123046875 284.2170104980469 -8.915023803710938 284.0559997558594C-4.7911834716796875 282.9679870605469 -2.1494598388671875 279.3489990234375 -2.1494598388671875 275.32000732421875C-2.1494598388671875 274.3760070800781 -2.2944183349609375 273.4100036621094 -2.5992431640625 272.447998046875C-2.808746337890625 271.7969970703125 -3.1501312255859375 271.1059875488281 -4.11224365234375 269.3760070800781C-15.328201293945312 249.23599243164062 -21.233993530273438 224.14100646972656 -21.233993530273438 197.05999755859375C-21.233993530273438 193.15499877929688 -21.1112060546875 189.20899963378906 -20.863800048828125 185.22999572753906C-19.249908447265625 159.2220001220703 -13.554901123046875 133.0590057373047 -2.4285430908203125 100.54100036621094C-1.6914520263671875 98.39190673828125 -1.2181549072265625 96.77029418945312 -0.4655303955078125 93.79859924316406L0.0 91.94419860839844V74.18400573730469V56.4237060546875L-0.5819244384765625 54.13490295410156C-5.6097412109375 34.31080627441406 -17.294723510742188 17.039321899414062 -36.71531677246094 0.7300567626953125C-37.35160827636719 0.2024383544921875 -37.86372375488281 -0.2553253173828125 -37.86372375488281 -0.2863616943359375C-37.86372375488281 -0.3173980712890625 -37.35160827636719 -0.775177001953125 -36.723114013671875 -1.30279541015625C-17.294723510742188 -17.612091064453125 -5.6097412109375 -34.88348388671875 -0.581939697265625 -54.70758056640625L-1.52587890625e-05 -56.99647521972656V-74.75666809082031V-92.5169677734375L-0.465545654296875 -94.37136840820312C-1.2181549072265625 -97.35076904296875 -1.6914520263671875 -98.96456909179688 -2.4285430908203125 -101.11396789550781C-14.501495361328125 -136.3469696044922 -20.343994140625 -164.969970703125 -21.112106323242188 -192.5919647216797C-21.15850830078125 -194.26296997070312 -21.181594848632812 -195.92796325683594 -21.181594848632812 -197.5879669189453C-21.181594848632812 -224.2529754638672 -15.22210693359375 -249.37196350097656 -4.11224365234375 -269.3279724121094C-2.5555419921875 -272.1229553222656 -2.186187744140625 -273.1299743652344 -2.186187744140625 -275.00396728515625C-2.186187744140625 -275.1849670410156 -2.18963623046875 -275.37396240234375 -2.1957855224609375 -275.573974609375C-2.3578033447265625 -280.90997314453125 -6.7322998046875 -284.30096435546875 -11.253097534179688 -284.30096435546875C-13.660293579101562 -284.30096435546875 -16.108901977539062 -283.3399658203125 -17.985198974609375 -281.198974609375C-18.753402709960938 -280.32196044921875 -20.545700073242188 -277.1799621582031 -24.068206787109375 -270.52996826171875C-44.24150085449219 -232.44996643066406 -55.55400085449219 -196.89796447753906 -58.07569885253906 -163.65097045898438C-58.184295654296875 -162.16897583007812 -58.30070495605469 -160.2599639892578 -58.51800537109375 -156.12496948242188C-58.58819580078125 -154.78697204589844 -58.62190246582031 -151.94996643066406 -58.62190246582031 -148.94296264648438C-58.62190246582031 -145.30697631835938 -58.572601318359375 -141.4209747314453 -58.47920227050781 -139.636962890625C-57.44720458984375 -120.12297058105469 -54.62300109863281 -105.24896240234375 -48.45460510253906 -86.83737182617188C-43.65179443359375 -72.51437377929688 -41.74310302734375 -63.8941650390625 -40.7965087890625 -52.31007385253906C-40.72239685058594 -51.39976501464844 -40.68690490722656 -49.4273681640625 -40.68690490722656 -47.36686706542969C-40.68690490722656 -44.89607238769531 -40.738006591796875 -42.29856872558594 -40.835296630859375 -41.253570556640625C-42.20869445800781 -26.433975219726562 -47.77180480957031 -15.400772094726562 -57.610198974609375 -7.9521942138671875C-60.59739685058594 -5.6943359375 -61.72239685058594 -3.59942626953125 -61.72239685058594 -0.286346435546875C-61.72239685058594 3.0267181396484375 -60.59739685058594 5.1216278076171875 -57.610198974609375 7.379486083984375C-49.129608154296875 13.796127319335938 -43.729400634765625 23.106826782226562 -41.55690002441406 35.055633544921875C-40.987701416015625 38.18342590332031 -40.64360046386719 43.128631591796875 -40.64360046386719 47.37303161621094C-40.64360046386719 48.97222900390625 -40.6925048828125 50.471832275390625 -40.7965087890625 51.737335205078125C-41.74310302734375 63.3525390625 -43.64410400390625 71.8873291015625 -48.493408203125 86.38102722167969C-55.44219970703125 107.15802001953125 -58.72450256347656 126.52803039550781 -58.72450256347656 147.55703735351562C-58.72450256347656 152.28602600097656 -58.558502197265625 157.09902954101562 -58.23089599609375 162.03103637695312C-55.856597900390625 197.76803588867188 -42.798309326171875 237.3080291748047 -19.80859375 278.4150390625C-17.721405029296875 282.13104248046875 -16.13079833984375 283.4740295410156 -12.972991943359375 284.1640319824219Z" fill="black" /></g></svg>