<?xml version="1.0" encoding="utf-8" ?>
<svg baseProfile="tiny" height="100%" version="1.2" width="100%" xmlns="http://www.w3.org/2000/svg" xmlns:ev="http://www.w3.org/2001/xml-events" xmlns:xlink="http://www.w3.org/1999/xlink"><defs /><g transform="translate(0, 1000) scale(1, -1)"><path d="M-13.273101806640625 4081.469970703125C-11.874496459960938 4082.159912109375 -10.420806884765625 4082.489990234375 -9.008102416992188 4082.489990234375C-5.782135009765625 4082.489990234375 -2.7700958251953125 4080.77001953125 -1.1168670654296875 4077.68994140625C-0.387481689453125 4076.330078125 0.0 4075.070068359375 0.0 4073.679931640625C0.0 4071.360107421875 -1.0763397216796875 4068.679931640625 -3.4400482177734375 4064.56005859375L-16.352691650390625 4041.06005859375C-237.13400268554688 3636.570068359375 -349.22198486328125 3171.179931640625 -349.22198486328125 2672.0400390625C-349.22198486328125 2438.070068359375 -324.5920104980469 2196.669921875 -274.9840087890625 1950.6700439453125C-238.35299682617188 1769.0799560546875 -192.26699829101562 1602.030029296875 -125.0570068359375 1407.4200439453125C-81.79220581054688 1282.1500244140625 -60.82890319824219 1153.739990234375 -60.82890319824219 1026.1700439453125C-60.82890319824219 642.06298828125 -250.89500427246094 265.656005859375 -594.5040130615234 6.04315185546875C-601.9059906005859 0.42425537109375 -608.0109710693359 -4.38421630859375 -608.0109710693359 -4.6003265380859375C-608.0109710693359 -4.816436767578125 -601.9059906005859 -9.624908447265625 -594.5040130615234 -15.243789672851562C-250.86598205566406 -274.8889923095703 -60.821380615234375 -651.1370086669922 -60.821380615234375 -1035.249984741211C-60.821380615234375 -1162.8299407958984 -81.78788757324219 -1291.280014038086 -125.05699157714844 -1416.6199798583984C-194.80699157714844 -1618.790023803711 -242.72898864746094 -1794.540023803711 -279.19798278808594 -1981.749984741211C-325.38197326660156 -2219.060043334961 -348.32997131347656 -2451.509994506836 -348.32997131347656 -2676.879867553711C-348.32997131347656 -3177.610092163086 -235.052978515625 -3643.360092163086 -11.65228271484375 -4049.659896850586C-6.0333709716796875 -4059.929916381836 -1.170867919921875 -4068.570053100586 -0.900726318359375 -4068.949935913086C-0.630584716796875 -4069.280014038086 -0.2523956298828125 -4070.899887084961 -0.0903167724609375 -4072.459945678711C-0.0582275390625 -4072.810043334961 -0.0426177978515625 -4073.149887084961 -0.0426177978515625 -4073.479965209961C-0.0426177978515625 -4079.040023803711 -4.4561767578125 -4082.489974975586 -9.073806762695312 -4082.489974975586C-12.039886474609375 -4082.489974975586 -15.090179443359375 -4081.070053100586 -17.109085083007812 -4077.870101928711C-34.181884765625 -4050.850082397461 -102.04098510742188 -3920.540023803711 -134.67398071289062 -3851.919906616211C-366.6909942626953 -3364.590072631836 -483.8059844970703 -2861.040023803711 -483.8059844970703 -2367.009994506836C-483.8059844970703 -2053.459945678711 -436.6289825439453 -1743.739974975586 -341.70799255371094 -1444.439926147461C-335.65699768066406 -1425.3199310302734 -330.1999969482422 -1408.999984741211 -307.88697814941406 -1343.1399993896484C-254.22299194335938 -1184.8199310302734 -228.2579803466797 -1025.8899993896484 -228.2579803466797 -873.7119598388672C-228.2579803466797 -523.2009735107422 -366.00599670410156 -208.46800231933594 -620.3300018310547 -19.241897583007812C-629.5149993896484 -12.380294799804688 -634.1069793701172 -8.4903564453125 -634.1069793701172 -4.600341796875C-634.1069793701172 -0.7103424072265625 -629.5149993896484 3.179656982421875 -620.3300018310547 10.04119873046875C-366.00599670410156 199.26800537109375 -228.2579803466797 513.9219970703125 -228.2579803466797 864.4400024414062C-228.2579803466797 1016.6199951171875 -254.22299194335938 1175.5699462890625 -307.88697814941406 1333.93994140625L-323.5549774169922 1380.1300048828125C-413.9979705810547 1646.760009765625 -466.78297424316406 1924.3599853515625 -480.77598571777344 2207.030029296875C-483.8009796142578 2268.72998046875 -484.28797912597656 2289.3701171875 -484.28797912597656 2362.6298828125C-484.28797912597656 2437.669921875 -483.6389923095703 2465.389892578125 -480.23597717285156 2530.1201171875C-453.4919891357422 3038.52001953125 -302.4299774169922 3556.050048828125 -40.82728576660156 4035.330078125C-17.973480224609375 4077.260009765625 -16.352676391601562 4079.9599609375 -13.273086547851562 4081.469970703125Z" fill="black" /></g></svg>