<?xml version="1.0" encoding="utf-8" ?>
<svg baseProfile="tiny" height="100%" version="1.2" width="100%" xmlns="http://www.w3.org/2000/svg" xmlns:ev="http://www.w3.org/2001/xml-events" xmlns:xlink="http://www.w3.org/1999/xlink"><defs /><g transform="translate(0, 1000) scale(1, -1)"><path d="M-11.064498901367188 1477.02001953125C-10.39788818359375 1477.1500244140625 -9.739349365234375 1477.2099609375 -9.095779418945312 1477.2099609375C-4.7224884033203125 1477.2099609375 -1.03948974609375 1474.280029296875 -0.1738128662109375 1469.8299560546875C-0.065399169921875 1469.22998046875 1.52587890625e-05 1468.68994140625 1.52587890625e-05 1468.1400146484375C1.52587890625e-05 1466.010009765625 -0.987640380859375 1463.8299560546875 -4.2785186767578125 1457.8800048828125C-77.2913818359375 1325.47998046875 -113.97798156738281 1173.1099853515625 -113.97798156738281 1004.739990234375C-113.97798156738281 907.1630249023438 -101.65498352050781 804.2109985351562 -76.93838500976562 696.6599731445312C-63.333282470703125 637.5390014648438 -49.06617736816406 588.3480224609375 -24.603378295898438 516.4169921875C-9.44818115234375 471.8599853515625 -2.0339813232421875 426.7950134277344 -2.0339813232421875 382.13299560546875C-2.0339813232421875 243.0070037841797 -73.97938537597656 107.79000854492188 -207.99098205566406 4.023712158203125C-211.8309783935547 1.011383056640625 -215.0089874267578 -1.537506103515625 -215.0089874267578 -1.6367950439453125C-215.0089874267578 -1.736114501953125 -211.8309783935547 -4.285003662109375 -207.99098205566406 -7.297332763671875C-150.458984375 -51.820098876953125 -101.06999206542969 -105.41299438476562 -69.02699279785156 -158.04600524902344C-24.56268310546875 -231.08299255371094 -2.102996826171875 -307.9389953613281 -2.102996826171875 -385.60400390625C-2.102996826171875 -424.0979919433594 -7.6205902099609375 -462.7919921875 -18.711181640625 -501.3190002441406C-20.597976684570312 -507.87298583984375 -22.749679565429688 -514.4929809570312 -30.297088623046875 -536.572998046875C-85.82069396972656 -699.573974609375 -113.50398254394531 -857.5490112304688 -113.50398254394531 -1004.47998046875C-113.50398254394531 -1170.97998046875 -77.95738220214844 -1323.300048828125 -7.09222412109375 -1452.6800537109375C-0.37322998046875 -1464.97998046875 -0.071563720703125 -1465.3900146484375 -0.071563720703125 -1467.3699951171875C-0.071563720703125 -1467.56005859375 -0.0745086669921875 -1467.77001953125 -0.0745086669921875 -1468.010009765625C-0.0745086669921875 -1473.4100341796875 -4.2499542236328125 -1477.2099609375 -9.046661376953125 -1477.2099609375C-10.424392700195312 -1477.2099609375 -11.853286743164062 -1476.9000244140625 -13.249282836914062 -1476.219970703125C-16.06298828125 -1474.8299560546875 -15.731979370117188 -1475.3299560546875 -27.483383178710938 -1453.8399658203125C-124.67198181152344 -1275.8199462890625 -183.4619903564453 -1091.469970703125 -198.42398071289062 -917.9130249023438C-201.25099182128906 -885.0919799804688 -202.67298889160156 -852.7990112304688 -202.67298889160156 -820.89501953125C-202.67298889160156 -704.1069946289062 -183.62098693847656 -592.5449829101562 -144.69898986816406 -479.47100830078125C-121.50398254394531 -412.1319885253906 -110.15797424316406 -346.9519958496094 -110.15797424316406 -286.6409912109375C-110.15797424316406 -171.0229949951172 -151.85398864746094 -73.29910278320312 -231.69198608398438 -12.56060791015625C-239.1409912109375 -6.8669891357421875 -239.9349822998047 -5.8408203125 -239.9349822998047 -1.6367950439453125C-239.9349822998047 2.567230224609375 -239.1409912109375 3.5933990478515625 -231.69198608398438 9.287033081054688C-151.88198852539062 70.0211181640625 -110.13499450683594 168.01602172851562 -110.13499450683594 283.6690216064453C-110.13499450683594 343.82200622558594 -121.42799377441406 408.7520294189453 -144.5339813232422 475.7010040283203C-183.85897827148438 589.7440338134766 -202.94198608398438 701.3650054931641 -202.94198608398438 819.3330230712891C-202.94198608398438 843.3650054931641 -202.1499786376953 867.6620025634766 -200.57598876953125 892.2949981689453C-188.7919921875 1077.300064086914 -127.55198669433594 1273.300064086914 -21.955184936523438 1463.969985961914C-15.53338623046875 1475.560073852539 -14.937484741210938 1476.260025024414 -11.064483642578125 1477.020034790039Z" fill="black" /></g></svg>