<?xml version="1.0" encoding="utf-8" ?>
<svg baseProfile="tiny" height="100%" version="1.2" width="100%" xmlns="http://www.w3.org/2000/svg" xmlns:ev="http://www.w3.org/2001/xml-events" xmlns:xlink="http://www.w3.org/1999/xlink"><defs /><g transform="translate(0, 1000) scale(1, -1)"><path d="M-11.333999633789062 2142.72998046875C-10.606521606445312 2142.909912109375 -9.8822021484375 2143.0 -9.171768188476562 2143.0C-4.2550811767578125 2143.0 -0.004486083984375 2138.7900390625 -0.004486083984375 2133.85009765625C-0.004486083984375 2133.2099609375 -0.076141357421875 2132.56005859375 -0.227294921875 2131.89990234375C-0.4277801513671875 2130.97998046875 -2.7533721923828125 2126.330078125 -5.39971923828125 2121.510009765625C-116.46501159667969 1920.760009765625 -172.6370086669922 1688.3499755859375 -172.6370086669922 1434.550048828125C-172.6370086669922 1316.989990234375 -160.58502197265625 1194.8299560546875 -136.35401916503906 1069.1099853515625C-116.82701110839844 967.7039794921875 -88.75991821289062 862.81201171875 -54.67802429199219 763.7739868164062C-40.764617919921875 723.3569946289062 -34.589813232421875 702.1060180664062 -28.77581787109375 674.9609985351562C-19.874114990234375 633.2949829101562 -15.519821166992188 591.3610229492188 -15.519821166992188 549.6229858398438C-15.519821166992188 344.135009765625 -121.05801391601562 143.38600158691406 -309.08900451660156 2.7464141845703125C-312.7780303955078 -0.0202178955078125 -315.78501892089844 -2.3458099365234375 -315.78501892089844 -2.466094970703125C-315.78501892089844 -2.586395263671875 -312.7780303955078 -4.9119720458984375 -309.08900451660156 -7.6786041259765625C-205.88101196289062 -84.86399841308594 -121.75901794433594 -187.30999755859375 -71.95951843261719 -296.3320007324219C-34.5078125 -378.3869934082031 -15.509521484375 -466.0639953613281 -15.509521484375 -553.6409912109375C-15.509521484375 -603.0490112304688 -21.556320190429688 -652.4249877929688 -33.74781799316406 -700.7429809570312C-39.60182189941406 -723.958984375 -42.00761413574219 -731.656982421875 -56.16160583496094 -772.916015625C-100.78901672363281 -903.1489868164062 -134.71002197265625 -1043.8900146484375 -153.39501953125 -1176.489990234375C-165.9580078125 -1265.5699462890625 -172.2160186767578 -1352.52001953125 -172.2160186767578 -1437.030029296875C-172.2160186767578 -1688.8499755859375 -116.65202331542969 -1918.97998046875 -6.8031005859375 -2119.070068359375C-1.3152008056640625 -2129.06005859375 -1.52587890625e-05 -2131.77001953125 -1.52587890625e-05 -2134.159912109375C-1.52587890625e-05 -2134.580078125 -0.0409088134765625 -2134.989990234375 -0.1070098876953125 -2135.429931640625C-0.8350830078125 -2140.27001953125 -4.8785858154296875 -2143.0 -9.030410766601562 -2143.0C-11.966720581054688 -2143.0 -14.957107543945312 -2141.6298828125 -16.867218017578125 -2138.679931640625C-25.207321166992188 -2125.840087890625 -63.37892150878906 -2052.8701171875 -81.86331176757812 -2014.5C-210.78701782226562 -1746.5799560546875 -275.9070281982422 -1475.81005859375 -275.9070281982422 -1212.989990234375C-275.9070281982422 -1082.469970703125 -259.84901428222656 -953.9219970703125 -227.57301330566406 -828.6500244140625C-215.86502075195312 -783.301025390625 -208.28701782226562 -758.3209838867188 -187.6370086669922 -697.1339721679688C-165.62400817871094 -632.0579833984375 -152.4730224609375 -572.5549926757812 -146.05702209472656 -509.0830078125C-143.4560089111328 -483.46600341796875 -142.17001342773438 -458.3080139160156 -142.17001342773438 -433.68701171875C-142.17001342773438 -255.67599487304688 -209.40501403808594 -105.69699096679688 -332.8660125732422 -12.810897827148438C-339.5220184326172 -7.7989044189453125 -340.4440155029297 -6.5559234619140625 -340.4440155029297 -2.466094970703125C-340.4440155029297 1.62371826171875 -339.5220184326172 2.8667144775390625 -332.8660125732422 7.8787384033203125C-281.2620086669922 46.73199462890625 -241.6070098876953 92.56210327148438 -208.3670196533203 151.90499877929688C-165.26602172851562 228.8560028076172 -142.1900177001953 326.91400146484375 -142.1900177001953 430.2959899902344C-142.1900177001953 447.9020080566406 -142.8590087890625 465.6629943847656 -144.2130126953125 483.5010070800781C-149.947021484375 558.7620239257812 -164.42201232910156 625.7219848632812 -192.6090087890625 707.0380249023438C-248.52101135253906 868.427978515625 -276.2420196533203 1037.280029296875 -276.2420196533203 1209.6500244140625C-276.2420196533203 1511.2099609375 -191.3930206298828 1823.5699462890625 -24.204910278320312 2125.639892578125C-15.664413452148438 2141.1201171875 -15.183212280273438 2141.760009765625 -11.334014892578125 2142.72998046875Z" fill="black" /></g></svg>