<?xml version="1.0" encoding="utf-8" ?>
<svg baseProfile="tiny" height="100%" version="1.2" width="100%" xmlns="http://www.w3.org/2000/svg" xmlns:ev="http://www.w3.org/2001/xml-events" xmlns:xlink="http://www.w3.org/1999/xlink"><defs /><g transform="translate(0, 1000) scale(1, -1)"><path d="M-14.432693481445312 4275.740234375C-12.992889404296875 4276.7001953125 -11.256378173828125 4277.14990234375 -9.500259399414062 4277.14990234375C-6.2852020263671875 4277.14990234375 -3.0041351318359375 4275.64013671875 -1.35675048828125 4272.97021484375C-0.5011138916015625 4271.56982421875 1.52587890625e-05 4270.39990234375 1.52587890625e-05 4268.93017578125C1.52587890625e-05 4265.93994140625 -2.092041015625 4261.72998046875 -7.5267791748046875 4251.97021484375C-245.4569854736328 3823.830078125 -367.28797912597656 3328.580078125 -367.28797912597656 2795.340087890625C-367.28797912597656 2696.0400390625 -363.06297302246094 2595.419921875 -354.5769805908203 2493.679931640625C-327.6329803466797 2171.139892578125 -258.51698303222656 1843.1600341796875 -150.22998046875 1523.739990234375C-126.00297546386719 1452.4100341796875 -122.49298095703125 1441.8800048828125 -118.07798767089844 1426.93994140625C-90.0579833984375 1332.4100341796875 -72.84988403320312 1233.969970703125 -68.15159606933594 1141.3599853515625C-67.86857604980469 1134.8499755859375 -67.47227478027344 1127.719970703125 -67.30247497558594 1125.510009765625C-66.57899475097656 1115.18994140625 -66.22929382324219 1098.31005859375 -66.22929382324219 1079.5400390625C-66.22929382324219 1055.7099609375 -66.79219055175781 1028.8199462890625 -67.86857604980469 1008.3400268554688C-88.52967834472656 620.4210205078125 -287.7259979248047 261.2569885253906 -623.7379608154297 6.1915435791015625C-631.2100067138672 0.4743499755859375 -637.3229827880859 -4.3371429443359375 -637.3229827880859 -4.6201629638671875C-637.3229827880859 -4.9031982421875 -631.2100067138672 -9.714691162109375 -623.7379608154297 -15.431900024414062C-287.7259979248047 -270.49798583984375 -88.52967834472656 -629.6610107421875 -67.86857604980469 -1017.5800170898438C-66.79219055175781 -1038.06005859375 -66.22929382324219 -1064.949951171875 -66.22929382324219 -1088.780029296875C-66.22929382324219 -1107.550048828125 -66.57899475097656 -1124.4300537109375 -67.30247497558594 -1134.75C-67.47227478027344 -1136.9100341796875 -67.86857604980469 -1144.0400390625 -68.15159606933594 -1150.5999755859375C-71.88758850097656 -1224.47998046875 -84.05778503417969 -1305.31005859375 -102.68098449707031 -1379.5799560546875C-114.85098266601562 -1427.9200439453125 -118.36097717285156 -1439.2900390625 -148.7579803466797 -1528.72998046875C-255.85598754882812 -1843.2900390625 -324.9159698486328 -2167.580078125 -352.5959930419922 -2485.93994140625C-361.7949981689453 -2591.75 -366.37498474121094 -2696.35009765625 -366.37498474121094 -2799.52001953125C-366.37498474121094 -3329.889892578125 -245.35897827148438 -3822.550048828125 -8.941909790039062 -4249.0400390625C-2.8051300048828125 -4260.10009765625 -0.0189666748046875 -4265.8798828125 -0.0189666748046875 -4269.56005859375C-0.0189666748046875 -4272.259765625 -1.5204925537109375 -4273.830078125 -4.3002471923828125 -4275.52978515625C-6.0500640869140625 -4276.60009765625 -7.6654052734375 -4277.14990234375 -9.217941284179688 -4277.14990234375C-13.089492797851562 -4277.14990234375 -16.570587158203125 -4273.7001953125 -20.772476196289062 -4266.18994140625C-235.5349884033203 -3883.8701171875 -385.5969696044922 -3464.64990234375 -456.1279754638672 -3050.010009765625C-488.35499572753906 -2860.56005859375 -504.4029998779297 -2671.02001953125 -504.4029998779297 -2483.14990234375C-504.4029998779297 -2127.219970703125 -446.7999725341797 -1777.280029296875 -332.50099182128906 -1445.239990234375C-297.8579864501953 -1344.47998046875 -281.4989776611328 -1285.719970703125 -265.1959991455078 -1202.9599609375C-245.94699096679688 -1105.27001953125 -236.5439910888672 -1008.989990234375 -236.5439910888672 -915.4860229492188C-236.5439910888672 -542.0889892578125 -386.48097229003906 -212.8170166015625 -658.0969696044922 -13.224212646484375C-661.5789642333984 -10.648712158203125 -663.3189544677734 -7.6344451904296875 -663.3189544677734 -4.62017822265625C-663.3189544677734 -1.605926513671875 -661.5789642333984 1.4083404541015625 -658.0969696044922 3.9839019775390625C-635.8509979248047 20.342987060546875 -617.6810150146484 34.66429138183594 -599.9629974365234 49.83457946777344C-362.9299774169922 253.12098693847656 -236.79498291015625 563.4260101318359 -236.79498291015625 906.7219696044922C-236.79498291015625 1067.8599700927734 -264.5859832763672 1236.270004272461 -321.74598693847656 1404.300033569336C-349.5959930419922 1486.209945678711 -358.6529998779297 1514.060043334961 -373.1439971923828 1563.0799407958984C-461.36497497558594 1860.560043334961 -505.4659881591797 2167.790023803711 -505.4659881591797 2478.989974975586C-505.4659881591797 2796.360092163086 -459.5959930419922 3117.840072631836 -367.8789825439453 3437.300033569336C-288.3479766845703 3714.209945678711 -176.83499145507812 3983.320053100586 -34.47108459472656 4241.950180053711C-17.8289794921875 4272.120101928711 -16.527084350585938 4274.379867553711 -14.43267822265625 4275.740219116211Z" fill="black" /></g></svg>