<?xml version="1.0" encoding="utf-8" ?>
<svg baseProfile="tiny" height="100%" version="1.2" width="100%" xmlns="http://www.w3.org/2000/svg" xmlns:ev="http://www.w3.org/2001/xml-events" xmlns:xlink="http://www.w3.org/1999/xlink"><defs /><g transform="translate(0, 1000) scale(1, -1)"><path d="M-17.859298706054688 415.1319885253906C-17.3975830078125 415.1969909667969 -16.941482543945312 415.22900390625 -16.493179321289062 415.22900390625C-11.527877807617188 415.22900390625 -7.5214996337890625 411.33599853515625 -7.5214996337890625 406.1910095214844C-7.5214996337890625 404.0039978027344 -7.727569580078125 403.3739929199219 -9.444808959960938 400.2380065917969C-26.082489013671875 369.8559875488281 -34.40898132324219 335.5090026855469 -34.40898132324219 296.02899169921875C-34.40898132324219 253.8209991455078 -24.891891479492188 205.74600219726562 -5.8386077880859375 150.37899780273438C-3.0223388671875 142.21600341796875 -1.4882659912109375 136.3090057373047 -0.4121246337890625 129.48599243164062L1.52587890625e-05 126.89801025390625V110.6190185546875V94.33950805664062L-0.4006805419921875 91.79800415039062C-3.239837646484375 73.81269836425781 -11.01318359375 55.49549865722656 -22.530181884765625 39.662506103515625C-32.15818786621094 26.4053955078125 -43.56068420410156 14.865493774414062 -60.18357849121094 1.574066162109375C-61.52308654785156 0.509368896484375 -62.62208557128906 -0.406494140625 -62.62208557128906 -0.4522857666015625C-62.62208557128906 -0.498077392578125 -61.52308654785156 -1.4139404296875 -60.18357849121094 -2.4786376953125C-43.56068420410156 -15.770095825195312 -32.15818786621094 -27.30999755859375 -22.530181884765625 -40.567108154296875C-11.01318359375 -56.40010070800781 -3.239837646484375 -74.71730041503906 -0.4006805419921875 -92.70260620117188L1.52587890625e-05 -95.24411010742188V-111.52401733398438V-127.80300903320312L-0.4121246337890625 -130.3900146484375C-1.4882659912109375 -137.1790008544922 -3.04522705078125 -143.16700744628906 -5.7813720703125 -151.11199951171875C-24.81158447265625 -206.29100036621094 -34.30699157714844 -254.57899475097656 -34.30699157714844 -296.7850036621094C-34.30699157714844 -329.1499938964844 -28.72308349609375 -357.93701171875 -17.573089599609375 -383.5119934082031C-14.722488403320312 -390.04901123046875 -12.398483276367188 -394.822998046875 -9.444808959960938 -400.22601318359375C-7.727569580078125 -403.3630065917969 -7.5214996337890625 -403.9930114746094 -7.5214996337890625 -406.1789855957031C-7.5214996337890625 -411.6940002441406 -11.974090576171875 -415.22900390625 -16.57928466796875 -415.22900390625C-19.049179077148438 -415.22900390625 -21.563079833984375 -414.2120056152344 -23.457489013671875 -411.93798828125C-24.190185546875 -411.0679931640625 -28.632186889648438 -403.0539855957031 -33.50907897949219 -393.81500244140625C-68.05458068847656 -328.4519958496094 -84.58769226074219 -270.98199462890625 -84.58769226074219 -216.2239990234375C-84.58769226074219 -215.14500427246094 -84.58128356933594 -214.06700134277344 -84.5684814453125 -212.99000549316406C-84.49978637695312 -207.4029998779297 -84.44248962402344 -205.70899963378906 -84.08758544921875 -199.36599731445312C-82.81687927246094 -176.53799438476562 -78.06588745117188 -152.03900146484375 -70.78468322753906 -130.677001953125C-62.86248779296875 -107.41400146484375 -59.290679931640625 -92.43930053710938 -57.81378173828125 -76.18270874023438C-57.48777770996094 -72.59490966796875 -57.32618713378906 -69.09039306640625 -57.32618713378906 -65.67709350585938C-57.32618713378906 -40.92469787597656 -65.82438659667969 -20.970001220703125 -81.74078369140625 -8.866775512695312C-83.83578491210938 -7.2754669189453125 -84.17918395996094 -6.977813720703125 -84.80888366699219 -6.210784912109375C-86.17698669433594 -4.5565032958984375 -86.86097717285156 -2.50439453125 -86.86097717285156 -0.4522857666015625C-86.86097717285156 1.599822998046875 -86.17698669433594 3.65191650390625 -84.80888366699219 5.3061981201171875C-84.17918395996094 6.0732269287109375 -83.83578491210938 6.3708953857421875 -81.74078369140625 7.9622039794921875C-69.01028442382812 17.64739990234375 -60.49269104003906 33.41169738769531 -58.09999084472656 51.69459533691406C-57.57798767089844 55.69920349121094 -57.31678771972656 59.90519714355469 -57.31678771972656 64.31350708007812C-57.31678771972656 81.36749267578125 -61.225982666015625 101.45098876953125 -69.06748962402344 124.6199951171875C-72.10128784179688 133.60699462890625 -73.31477355957031 137.44200134277344 -74.68858337402344 142.38800048828125C-81.37608337402344 166.53399658203125 -84.76258850097656 190.74899291992188 -84.76258850097656 215.49899291992188C-84.76258850097656 274.4289855957031 -65.56378173828125 336.39300537109375 -26.010482788085938 407.6789855957031C-22.965286254882812 413.17401123046875 -21.36248779296875 414.6400146484375 -17.859283447265625 415.1319885253906Z" fill="black" /></g></svg>