<?xml version="1.0" encoding="utf-8" ?>
<svg baseProfile="tiny" height="100%" version="1.2" width="100%" xmlns="http://www.w3.org/2000/svg" xmlns:ev="http://www.w3.org/2001/xml-events" xmlns:xlink="http://www.w3.org/1999/xlink"><defs /><g transform="translate(0, 1000) scale(1, -1)"><path d="M-13.550506591796875 4569.759765625C-12.461502075195312 4570.31005859375 -10.960494995117188 4570.56982421875 -9.409255981445312 4570.56982421875C-7.21630859375 4570.56982421875 -4.9228668212890625 4570.0498046875 -3.5507049560546875 4569.080078125C-1.18585205078125 4567.39013671875 0.0 4565.27978515625 0.0 4562.5400390625C0.0 4559.72021484375 -1.25726318359375 4556.22998046875 -3.7792816162109375 4551.81982421875C-65.20660400390625 4444.56005859375 -134.63400268554688 4295.77001953125 -184.69000244140625 4164.39990234375C-324.5719909667969 3796.840087890625 -393.885986328125 3405.139892578125 -393.885986328125 2981.22998046875V2980.7099609375C-393.885986328125 2916.60009765625 -393.6000061035156 2895.340087890625 -391.9429931640625 2847.280029296875C-379.9429931640625 2501.2900390625 -319.60101318359375 2140.2099609375 -215.08900451660156 1789.300048828125C-194.86099243164062 1721.4200439453125 -183.5469970703125 1686.510009765625 -143.26199340820312 1567.31005859375C-109.72000122070312 1468.1700439453125 -88.006103515625 1365.8299560546875 -78.86349487304688 1263.3199462890625C-75.29530334472656 1223.5 -73.53019714355469 1183.7900390625 -73.53019714355469 1144.239990234375C-73.53019714355469 705.0029907226562 -291.2850036621094 287.0509948730469 -674.9080200195312 0.197906494140625C-678.6229858398438 -2.5449066162109375 -681.6510009765625 -5.0019989013671875 -681.6510009765625 -5.230560302734375C-681.6510009765625 -5.4591217041015625 -677.593994140625 -8.716201782226562 -672.6799926757812 -12.373291015625C-336.572998046875 -264.0819854736328 -124.1199951171875 -622.1890106201172 -81.37770080566406 -1009.2100067138672C-76.09381103515625 -1057.1399993896484 -73.46530151367188 -1105.280014038086 -73.46530151367188 -1153.4000091552734C-73.46530151367188 -1297.300033569336 -96.97140502929688 -1440.949935913086 -143.26199340820312 -1577.770004272461C-166.5760040283203 -1646.6299896240234 -182.5760040283203 -1694.6800384521484 -189.26100158691406 -1715.770004272461C-325.5050048828125 -2146.179916381836 -393.3919982910156 -2574.239974975586 -393.3919982910156 -2984.919906616211C-393.3919982910156 -3472.659896850586 -297.6390075683594 -3935.879867553711 -106.91999816894531 -4349.430160522461C-75.5491943359375 -4417.479965209961 -33.378692626953125 -4500.279769897461 -3.7792816162109375 -4551.999984741211C-1.2895355224609375 -4556.339828491211 -0.0741424560546875 -4560.089828491211 -0.0741424560546875 -4563.060043334961C-0.0741424560546875 -4567.810043334961 -3.1601104736328125 -4570.569808959961 -9.093460083007812 -4570.569808959961H-9.615875244140625C-15.028793334960938 -4570.569808959961 -15.12359619140625 -4570.189926147461 -28.921600341796875 -4545.310043334961C-364.4049987792969 -3939.699935913086 -535.2150268554688 -3291.229965209961 -535.2150268554688 -2656.800033569336C-535.2150268554688 -2278.379867553711 -474.4440002441406 -1904.969955444336 -351.60101318359375 -1548.6299896240234C-316.6300048828125 -1447.1399993896484 -300.6300048828125 -1391.030014038086 -283.71600341796875 -1310.520004272461C-260.4540100097656 -1199.9200286865234 -249.12399291992188 -1090.520004272461 -249.12399291992188 -984.2079925537109C-249.12399291992188 -587.8319549560547 -406.635986328125 -234.47300720214844 -690.4509887695312 -22.658798217773438C-702.1079711914062 -13.973297119140625 -707.9359741210938 -9.601913452148438 -707.9359741210938 -5.2305755615234375C-707.9359741210938 -0.8592376708984375 -702.1079711914062 3.5121002197265625 -690.4509887695312 12.197601318359375C-496.5690002441406 156.8800048828125 -355.6579895019531 374.5899963378906 -291.2019958496094 629.0419921875C-263.0509948730469 740.0859985351562 -249.03700256347656 855.760009765625 -249.03700256347656 973.780029296875C-249.03700256347656 1145.3900146484375 -278.6659851074219 1321.949951171875 -337.54400634765625 1496.449951171875L-358.5150146484375 1558.739990234375C-475.6549987792969 1906.27001953125 -536.4539794921875 2280.489990234375 -536.510986328125 2654.139892578125V2654.4599609375C-536.510986328125 3292.800048828125 -361.6610107421875 3944.43994140625 -29.32159423828125 4544.509765625C-15.893295288085938 4568.7900390625 -16.064697265625 4568.4501953125 -13.550506591796875 4569.759765625Z" fill="black" /></g></svg>