<?xml version="1.0" encoding="utf-8" ?>
<svg baseProfile="tiny" height="100%" version="1.2" width="100%" xmlns="http://www.w3.org/2000/svg" xmlns:ev="http://www.w3.org/2001/xml-events" xmlns:xlink="http://www.w3.org/1999/xlink"><defs /><g transform="translate(0, 1000) scale(1, -1)"><path d="M-14.307693481445312 6455.759765625C-12.848785400390625 6456.6298828125 -11.101882934570312 6457.0400390625 -9.349868774414062 6457.0400390625C-5.947021484375 6457.0400390625 -2.5244598388671875 6455.5 -1.1533966064453125 6452.85009765625C-0.46221923828125 6451.509765625 1.52587890625e-05 6450.43994140625 1.52587890625e-05 6449.0400390625C1.52587890625e-05 6445.41015625 -3.1391143798828125 6439.5400390625 -13.54608154296875 6420.72998046875C-354.448974609375 5804.14013671875 -542.0699768066406 5102.60009765625 -567.1319885253906 4350.93994140625C-569.0009460449219 4294.240234375 -569.3479919433594 4275.89013671875 -569.6939392089844 4199.31982421875C-569.7339782714844 4190.8798828125 -569.7539978027344 4182.43017578125 -569.7539978027344 4173.990234375C-569.7539978027344 3536.43994140625 -456.36798095703125 2879.360107421875 -237.58396911621094 2250.070068359375C-184.2739715576172 2096.7900390625 -155.4729766845703 1977.1500244140625 -137.6109619140625 1834.6700439453125C-127.88897705078125 1757.239990234375 -123.10897827148438 1679.780029296875 -123.10897827148438 1602.6500244140625C-123.10897827148438 988.2269897460938 -426.45697021484375 394.593994140625 -952.0669555664062 3.877044677734375C-959.8899536132812 -1.9385223388671875 -966.2599487304688 -6.9232940673828125 -966.2599487304688 -7.200225830078125C-966.2599487304688 -7.54638671875 -957.39794921875 -14.400405883789062 -946.5279541015625 -22.569900512695312C-423.16796875 -415.6430206298828 -123.0379638671875 -1004.7299957275391 -123.0379638671875 -1616.310073852539C-123.0379638671875 -1693.699966430664 -127.84396362304688 -1771.449966430664 -137.6109619140625 -1849.209976196289C-155.4729766845703 -1991.689956665039 -184.2739715576172 -2111.459976196289 -237.58396911621094 -2264.610122680664C-455.2099609375 -2890.379898071289 -568.3739929199219 -3546.320083618164 -568.3739929199219 -4180.560073852539C-568.3739929199219 -4189.350112915039 -568.3529968261719 -4198.149917602539 -568.3089904785156 -4206.939956665039C-567.8939514160156 -4281.220230102539 -567.5479431152344 -4301.649917602539 -565.7469787597656 -4356.479995727539C-540.6849670410156 -5106.620132446289 -353.6869812011719 -5805.520034790039 -13.546051025390625 -6420.729995727539C-3.1390838623046875 -6439.540054321289 4.57763671875e-05 -6445.410171508789 4.57763671875e-05 -6449.040054321289C4.57763671875e-05 -6450.439956665039 -0.462188720703125 -6451.509780883789 -1.1533660888671875 -6452.850112915039C-2.5244293212890625 -6455.500015258789 -5.946990966796875 -6457.040054321289 -9.349838256835938 -6457.040054321289C-11.101852416992188 -6457.040054321289 -12.8487548828125 -6456.629898071289 -14.307647705078125 -6455.759780883789C-18.046157836914062 -6453.470230102539 -71.70164489746094 -6355.229995727539 -116.0799560546875 -6269.379898071289C-462.24395751953125 -5600.109878540039 -671.4659729003906 -4865.200210571289 -721.1749572753906 -4143.930191040039C-729.3809509277344 -4024.870132446289 -733.4919738769531 -3906.639907836914 -733.4919738769531 -3789.159927368164C-733.4919738769531 -3235.590103149414 -642.2429504394531 -2698.350112915039 -458.2289733886719 -2165.949966430664C-418.9739685058594 -2052.479995727539 -393.0109558105469 -1957.8399810791016 -371.27197265625 -1849.209976196289C-341.8959655761719 -1702.5899810791016 -327.5799560546875 -1557.290054321289 -327.5799560546875 -1415.560073852539C-327.5799560546875 -847.1630401611328 -557.8459777832031 -336.25901794433594 -970.4139709472656 -28.593215942382812C-985.1949768066406 -17.550521850585938 -992.5849914550781 -12.410018920898438 -992.5849914550781 -7.26947021484375C-992.5849914550781 -2.1289215087890625 -985.1949768066406 3.0116119384765625 -970.4139709472656 14.054290771484375C-610.3329772949219 282.5389709472656 -382.69598388671875 712.0599670410156 -336.3099670410156 1210.1899108886719C-330.344970703125 1274.1700134277344 -327.3649597167969 1338.3899841308594 -327.3649597167969 1402.8299255371094C-327.3649597167969 1649.5600280761719 -371.0549621582031 1899.5500183105469 -458.2289733886719 2151.409881591797C-625.0109558105469 2633.269989013672 -713.9749450683594 3108.830047607422 -731.9059753417969 3613.959930419922C-733.9829406738281 3673.360076904297 -734.3299865722656 3696.269989013672 -734.3299865722656 3785.999969482422C-734.3299865722656 3887.629852294922 -733.7059631347656 3917.679901123047 -730.1759948730469 4002.009979248047C-695.6279602050781 4813.620086669922 -464.3909606933594 5631.259735107422 -57.785858154296875 6379.459930419922C-29.469650268554688 6431.529754638672 -16.384552001953125 6454.439910888672 -14.307647705078125 6455.759735107422Z" fill="black" /></g></svg>