<?xml version="1.0" encoding="utf-8" ?>
<svg baseProfile="tiny" height="100%" version="1.2" width="100%" xmlns="http://www.w3.org/2000/svg" xmlns:ev="http://www.w3.org/2001/xml-events" xmlns:xlink="http://www.w3.org/1999/xlink"><defs /><g transform="translate(0, 1000) scale(1, -1)"><path d="M-14.187698364257812 9242.8896484375C-12.692581176757812 9243.6904296875 -10.991989135742188 9244.0595703125 -9.308242797851562 9244.0595703125C-5.73931884765625 9244.0595703125 -2.245941162109375 9242.3896484375 -0.9443206787109375 9239.5595703125C-0.40283203125 9238.3701171875 -0.030364990234375 9237.3798828125 -0.030364990234375 9236.1103515625C-0.030364990234375 9232.080078125 -3.733734130859375 9225.2001953125 -17.519378662109375 9200.41015625C-557.2569885253906 8227.5595703125 -832.9369812011719 7108.06982421875 -832.9369812011719 5925.77978515625C-832.9369812011719 5421.68017578125 -782.8209533691406 4906.169921875 -681.6869812011719 4385.740234375C-605.8079528808594 3995.35009765625 -497.2789611816406 3591.800048828125 -367.5939636230469 3217.989990234375C-316.8699645996094 3071.56005859375 -291.3819580078125 2984.02001953125 -264.7289733886719 2864.409912109375C-221.2509765625 2669.360107421875 -200.0929718017578 2472.6298828125 -200.0929718017578 2277.25C-200.0929718017578 1402.9000244140625 -623.8239288330078 555.4970092773438 -1367.1800079345703 5.0107421875C-1378.1699981689453 -3.15185546875 -1387.1699981689453 -10.065078735351562 -1387.1699981689453 -10.398178100585938C-1387.1699981689453 -10.73138427734375 -1378.1699981689453 -17.644577026367188 -1367.1800079345703 -25.80718994140625C-1292.0500030517578 -81.44598388671875 -1214.9999542236328 -144.6639862060547 -1144.3699493408203 -208.54898071289062C-586.6509552001953 -713.2129821777344 -247.32093811035156 -1407.1199645996094 -205.34193420410156 -2128.919891357422C-201.9109344482422 -2187.699920654297 -200.17393493652344 -2245.469940185547 -200.17393493652344 -2302.540008544922C-200.17393493652344 -2615.399871826172 -252.4119415283203 -2907.139862060547 -364.345947265625 -3229.199920654297C-643.2059326171875 -4032.050018310547 -801.5439453125 -4875.959930419922 -827.0309448242188 -5695.470184326172C-829.2799682617188 -5768.519989013672 -829.6959228515625 -5792.919891357422 -830.1129150390625 -5899.540008544922C-830.1559448242188 -5910.129852294922 -830.1769409179688 -5920.729949951172 -830.1769409179688 -5931.310028076172C-830.1769409179688 -7130.029754638672 -554.3699340820312 -8234.830047607422 -11.2724609375 -9211.629852294922C-2.7321929931640625 -9227.059539794922 4.57763671875e-05 -9232.349578857422 4.57763671875e-05 -9235.910125732422C4.57763671875e-05 -9237.209930419922 -0.36474609375 -9238.280242919922 -0.9442901611328125 -9239.530242919922C-2.2562103271484375 -9242.379852294922 -5.677490234375 -9244.059539794922 -9.228591918945312 -9244.059539794922C-10.862960815429688 -9244.059539794922 -12.524749755859375 -9243.709930419922 -14.02105712890625 -9242.950164794922C-17.51934814453125 -9241.110321044922 -74.49085998535156 -9137.919891357422 -125.96495056152344 -9040.049774169922C-585.7349395751953 -8165.979949951172 -880.9209747314453 -7204.970184326172 -980.7039337158203 -6257.269989013672C-982.2869415283203 -6241.950164794922 -984.0359649658203 -6226.700164794922 -984.4519805908203 -6223.540008544922C-986.3679351806641 -6210.129852294922 -995.2799835205078 -6113.680145263672 -999.8609771728516 -6056.540008544922C-1010.3599395751953 -5925.359832763672 -1016.4399566650391 -5807.749969482422 -1021.1799468994141 -5647.990203857422C-1022.0399322509766 -5618.019989013672 -1022.5799713134766 -5527.100067138672 -1022.5799713134766 -5450.529754638672C-1022.5799713134766 -5407.310028076172 -1022.4099273681641 -5368.669891357422 -1022.0199737548828 -5348.140106201172C-1007.2699737548828 -4578.779754638672 -877.0059356689453 -3845.729949951172 -626.4649810791016 -3122.590057373047C-525.0989532470703 -2829.820037841797 -469.70994567871094 -2569.120086669922 -448.13694763183594 -2283.009979248047C-442.38294982910156 -2206.649871826172 -439.53895568847656 -2130.810028076172 -439.53895568847656 -2055.669891357422C-439.53895568847656 -1223.7499694824219 -788.1149444580078 -476.3349304199219 -1394.6599884033203 -29.138824462890625C-1407.4499053955078 -19.726821899414062 -1413.8399200439453 -15.062530517578125 -1413.8399200439453 -10.398117065429688C-1413.8399200439453 -5.7338409423828125 -1407.4499053955078 -1.069488525390625 -1394.6599884033203 8.342453002929688C-783.1209259033203 459.18507385253906 -439.7379608154297 1207.5000762939453 -439.7379608154297 2035.8300323486328C-439.7379608154297 2225.0100860595703 -457.64796447753906 2418.3601837158203 -494.3639678955078 2613.2901153564453C-525.5149688720703 2778.8701934814453 -564.6619415283203 2923.4700469970703 -626.4649810791016 3101.7901153564453C-891.7989654541016 3866.9700469970703 -1025.0799102783203 4657.500076293945 -1025.0799102783203 5463.850173950195C-1025.0799102783203 5633.540115356445 -1019.1699371337891 5803.940017700195 -1007.3599395751953 5974.940017700195C-1001.7799835205078 6055.569900512695 -991.8649444580078 6169.680252075195 -986.1179351806641 6218.990310668945L-979.0379791259766 6282.700271606445C-873.5909576416016 7240.560134887695 -572.3249664306641 8203.830154418945 -103.39295959472656 9082.549880981445C-58.415557861328125 9166.839920043945 -16.936248779296875 9241.389724731445 -14.187652587890625 9242.889724731445Z" fill="black" /></g></svg>