<?xml version="1.0" encoding="utf-8" ?>
<svg baseProfile="tiny" height="100%" version="1.2" width="100%" xmlns="http://www.w3.org/2000/svg" xmlns:ev="http://www.w3.org/2001/xml-events" xmlns:xlink="http://www.w3.org/1999/xlink"><defs /><g transform="translate(0, 1000) scale(1, -1)"><path d="M-12.12060546875 2018.1300048828125C-11.027496337890625 2018.469970703125 -9.953201293945312 2018.6300048828125 -8.923355102539062 2018.6300048828125C-3.941436767578125 2018.6300048828125 0.0 2014.9000244140625 0.0 2009.52001953125V2006.239990234375L-3.6248626708984375 1999.8199462890625C-22.957412719726562 1965.5699462890625 -44.44230651855469 1921.199951171875 -61.35832214355469 1880.68994140625C-127.97801208496094 1721.1400146484375 -161.38601684570312 1544.0899658203125 -161.38601684570312 1354.47998046875C-161.38601684570312 1208.5699462890625 -141.60401916503906 1055.22998046875 -101.94902038574219 896.6900024414062C-86.27922058105469 834.010009765625 -71.85531616210938 786.0560302734375 -42.96971130371094 700.531982421875C-22.647506713867188 640.4019775390625 -12.648208618164062 578.7940063476562 -12.648208618164062 517.4140014648438C-12.648208618164062 384.68701171875 -59.40220642089844 253.0189971923828 -149.63902282714844 139.6230010986328C-190.38101196289062 88.42190551757812 -244.6400146484375 35.899200439453125 -294.06700134277344 -0.2360992431640625C-295.5960235595703 -1.368865966796875 -296.3610076904297 -1.8597259521484375 -296.3610076904297 -2.3506011962890625C-296.3610076904297 -2.8414764404296875 -295.5960235595703 -3.33233642578125 -294.06700134277344 -4.4651031494140625C-202.65200805664062 -71.29849243164062 -121.28201293945312 -167.13099670410156 -73.78102111816406 -263.83099365234375C-33.14361572265625 -346.6130065917969 -12.618911743164062 -434.10699462890625 -12.618911743164062 -522.02099609375C-12.618911743164062 -575.0980224609375 -20.1002197265625 -628.3280029296875 -35.15361022949219 -680.7659912109375C-37.72120666503906 -689.7520141601562 -40.70420837402344 -698.8150024414062 -51.541015625 -730.7210083007812C-123.99801635742188 -944.1229858398438 -160.89501953125 -1157.31005859375 -160.89501953125 -1357.0400390625C-160.89501953125 -1444.27001953125 -153.8570098876953 -1528.93994140625 -139.67001342773438 -1609.93994140625C-115.01402282714844 -1750.8199462890625 -67.77731323242188 -1886.300048828125 -3.7381591796875 -1999.800048828125L-1.52587890625e-05 -2006.4100341796875V-2009.68994140625C-1.52587890625e-05 -2014.8699951171875 -2.9074554443359375 -2018.18994140625 -7.7783660888671875 -2018.5699462890625C-8.26068115234375 -2018.6099853515625 -8.718292236328125 -2018.6300048828125 -9.154541015625 -2018.6300048828125C-13.260421752929688 -2018.6300048828125 -15.475021362304688 -2016.760009765625 -18.615219116210938 -2011.1300048828125C-126.87001037597656 -1818.030029296875 -202.010009765625 -1613.030029296875 -237.4660186767578 -1414.1600341796875C-253.88902282714844 -1322.0699462890625 -262.0750274658203 -1230.3900146484375 -262.0750274658203 -1139.8699951171875C-262.0750274658203 -981.8889770507812 -237.1420135498047 -827.4329833984375 -187.54901123046875 -680.5020141601562C-176.14601135253906 -646.7069702148438 -173.54000854492188 -638.7020263671875 -169.91500854492188 -626.6950073242188C-151.1110076904297 -564.3170166015625 -140.57701110839844 -504.6579895019531 -136.80101013183594 -439.4110107421875C-136.48001098632812 -433.8789978027344 -136.3190155029297 -420.1159973144531 -136.3190155029297 -406.4280090332031C-136.3190155029297 -392.739990234375 -136.48001098632812 -379.12799072265625 -136.80101013183594 -373.89898681640625C-146.39102172851562 -217.31199645996094 -206.3900146484375 -93.95379638671875 -311.66200256347656 -14.471206665039062C-320.9510040283203 -7.44805908203125 -321.3290252685547 -6.9949493408203125 -321.3290252685547 -2.3506011962890625C-321.3290252685547 2.2937469482421875 -320.9510040283203 2.746856689453125 -311.66200256347656 9.770034790039062C-198.65000915527344 95.0675048828125 -136.3480224609375 234.322998046875 -136.3100128173828 401.6700134277344C-136.3100128173828 426.7799987792969 -136.5360107421875 433.31201171875 -138.04701232910156 452.8340148925781C-141.2940216064453 495.4639892578125 -147.4860076904297 534.35498046875 -158.21002197265625 579.1370239257812C-164.51602172851562 605.4929809570312 -171.4630126953125 628.4509887695312 -186.15200805664062 671.4580078125C-236.90402221679688 820.0869750976562 -262.47801208496094 977.3709716796875 -262.47801208496094 1137.969970703125C-262.47801208496094 1226.3699951171875 -254.72901916503906 1315.780029296875 -239.16500854492188 1405.300048828125C-204.0120086669922 1607.5400390625 -128.4560089111328 1815.06005859375 -18.615219116210938 2010.9599609375C-16.311920166015625 2015.1099853515625 -14.121917724609375 2017.489990234375 -12.120620727539062 2018.1300048828125Z" fill="black" /></g></svg>