<?xml version="1.0" encoding="utf-8" ?>
<svg baseProfile="tiny" height="100%" version="1.2" width="100%" xmlns="http://www.w3.org/2000/svg" xmlns:ev="http://www.w3.org/2001/xml-events" xmlns:xlink="http://www.w3.org/1999/xlink"><defs /><g transform="translate(0, 1000) scale(1, -1)"><path d="M-11.913299560546875 273.12799072265625C-11.784103393554688 273.1520080566406 -11.551895141601562 273.1629943847656 -11.26690673828125 273.1629943847656C-10.41790771484375 273.1629943847656 -9.099761962890625 273.0679931640625 -8.637115478515625 272.95599365234375C-4.43768310546875 271.906005859375 -1.749755859375 268.4809875488281 -1.749755859375 264.1629943847656C-1.749755859375 261.89898681640625 -1.9210052490234375 261.385009765625 -3.7899169921875 257.9830017089844C-14.936294555664062 237.6699981689453 -20.509506225585938 213.94700622558594 -20.509506225585938 187.18299865722656C-20.509506225585938 160.29400634765625 -14.884201049804688 130.33399963378906 -3.633544921875 97.67500305175781C-1.9731292724609375 92.85749816894531 -0.82647705078125 88.56130981445312 -0.1935882568359375 84.82350158691406L0.0 83.69180297851562V70.58718872070312C0.0 57.73570251464844 0.0 57.46769714355469 -0.1489105224609375 56.60400390625C-3.633544921875 36.366302490234375 -15.531906127929688 17.081695556640625 -34.57080078125 0.8424835205078125C-35.28559875488281 0.2319183349609375 -35.88130187988281 -0.289276123046875 -35.88130187988281 -0.311614990234375C-35.88130187988281 -0.333953857421875 -35.28559875488281 -0.84771728515625 -34.57080078125 -1.4657135009765625C-15.531906127929688 -17.705001831054688 -3.633544921875 -36.989593505859375 -0.1489105224609375 -57.227203369140625C0.0 -58.09089660644531 0.0 -58.3590087890625 0.0 -71.21040344238281V-84.31500244140625L-0.1935882568359375 -85.44680786132812C-0.8190155029296875 -89.17709350585938 -1.973114013671875 -93.46589660644531 -3.6335296630859375 -98.29820251464844C-12.821578979492188 -125.02099609375 -18.100692749023438 -149.05599975585938 -19.91748046875 -172.45799255371094C-20.302078247070312 -177.4290008544922 -20.493087768554688 -182.343994140625 -20.493087768554688 -187.18800354003906C-20.493087768554688 -213.6649932861328 -14.785980224609375 -238.03199768066406 -3.7899017333984375 -258.010009765625C-1.9284515380859375 -261.39801025390625 -1.7497406005859375 -261.927001953125 -1.7497406005859375 -264.19000244140625C-1.7497406005859375 -269.3500061035156 -5.561981201171875 -273.1629943847656 -10.721878051757812 -273.1629943847656C-14.645889282226562 -273.1629943847656 -16.96148681640625 -271.59100341796875 -19.344192504882812 -267.3179931640625C-40.23698425292969 -229.81300354003906 -52.23219299316406 -193.6490020751953 -55.024383544921875 -159.76300048828125C-55.45988464355469 -154.46099853515625 -55.67628479003906 -149.156005859375 -55.67628479003906 -143.87100219726562C-55.67628479003906 -123.67999267578125 -52.51689147949219 -103.79499816894531 -46.34999084472656 -85.56590270996094C-42.977081298828125 -75.6033935546875 -41.88258361816406 -71.72419738769531 -40.54228210449219 -64.97830200195312C-39.26368713378906 -58.55690002441406 -38.6265869140625 -52.43780517578125 -38.6265869140625 -46.72880554199219C-38.6265869140625 -38.90699768066406 -39.822479248046875 -31.8551025390625 -42.20268249511719 -25.8507080078125C-45.21827697753906 -18.241104125976562 -49.43998718261719 -12.574798583984375 -55.54557800292969 -7.9286651611328125C-58.45689392089844 -5.717254638671875 -59.603485107421875 -3.5579833984375 -59.603485107421875 -0.311614990234375C-59.603485107421875 2.93475341796875 -58.45689392089844 5.094024658203125 -55.54557800292969 7.305419921875C-52.78318786621094 9.405136108398438 -50.72068786621094 11.400604248046875 -48.643280029296875 13.984298706054688C-41.98448181152344 22.25079345703125 -38.61988830566406 33.12879943847656 -38.61988830566406 46.150299072265625C-38.61988830566406 51.824493408203125 -39.2587890625 57.905609130859375 -40.54228210449219 64.3551025390625C-41.88258361816406 71.10089111328125 -42.96958923339844 74.96530151367188 -46.34999084472656 84.94270324707031C-52.55778503417969 103.30099487304688 -55.72367858886719 123.18299865722656 -55.72367858886719 143.48500061035156C-55.72367858886719 149.43299865722656 -55.45188903808594 155.41799926757812 -54.905181884765625 161.41099548339844C-51.874786376953125 194.7010040283203 -39.87217712402344 230.4409942626953 -19.344192504882812 267.2900085449219C-17.199783325195312 271.125 -15.4871826171875 272.4800109863281 -11.913284301757812 273.12799072265625Z" fill="black" /></g></svg>