<?xml version="1.0" encoding="utf-8" ?>
<svg baseProfile="tiny" height="100%" version="1.2" width="100%" xmlns="http://www.w3.org/2000/svg" xmlns:ev="http://www.w3.org/2001/xml-events" xmlns:xlink="http://www.w3.org/1999/xlink"><defs /><g transform="translate(0, 1000) scale(1, -1)"><path d="M-12.097503662109375 2987.199951171875C-11.088699340820312 2987.530029296875 -10.086593627929688 2987.68994140625 -9.117050170898438 2987.68994140625C-4.277618408203125 2987.68994140625 -0.2492218017578125 2983.840087890625 -0.2492218017578125 2978.52001953125C-0.2492218017578125 2975.39990234375 -0.2971954345703125 2975.35009765625 -7.0608062744140625 2963.169921875C-167.94900512695312 2672.840087890625 -248.8800048828125 2335.080078125 -248.8800048828125 1973.1500244140625C-248.8800048828125 1676.5 -194.51499938964844 1363.6199951171875 -85.25 1047.300048828125C-76.6156005859375 1022.2999877929688 -73.06590270996094 1011.3200073242188 -68.31700134277344 994.7689819335938C-45.75050354003906 916.72802734375 -34.53839111328125 836.822998046875 -34.53839111328125 756.97998046875C-34.53839111328125 633.4990234375 -61.35540771484375 510.1650085449219 -114.46299743652344 394.1029968261719C-182.38699340820312 245.63999938964844 -295.01800537109375 108.01699829101562 -433.5039978027344 4.2607421875C-438.8280029296875 0.2793426513671875 -443.1929931640625 -3.0784759521484375 -443.1929931640625 -3.2223968505859375C-443.1929931640625 -3.366302490234375 -438.8280029296875 -6.7241058349609375 -433.5039978027344 -10.70550537109375C-203.68499755859375 -182.91400146484375 -59.01100158691406 -431.7279968261719 -37.472991943359375 -692.0549926757812C-35.42919921875 -716.7150268554688 -34.39689636230469 -741.010986328125 -34.39689636230469 -765.0960083007812C-34.39689636230469 -861.4130249023438 -50.90589904785156 -954.35302734375 -85.25 -1053.739990234375C-193.11000061035156 -1365.8599853515625 -248.14199829101562 -1678.6800537109375 -248.14199829101562 -1978.5799560546875C-248.14199829101562 -2009.989990234375 -247.53900146484375 -2041.25 -246.32899475097656 -2072.360107421875C-233.66600036621094 -2397.8701171875 -152.26199340820312 -2700.889892578125 -7.0608062744140625 -2962.89990234375C-2.268798828125 -2971.5400390625 0.0 -2976.56005859375 0.0 -2979.9599609375C0.0 -2982.610107421875 -1.38677978515625 -2984.280029296875 -4.03875732421875 -2985.919921875C-5.9009857177734375 -2987.070068359375 -7.5677947998046875 -2987.68994140625 -9.158523559570312 -2987.68994140625C-13.1405029296875 -2987.68994140625 -16.645904541015625 -2983.860107421875 -21.547393798828125 -2975.080078125C-250.6179962158203 -2563.27001953125 -367.0419921875 -2132.89990234375 -367.0419921875 -1713.5799560546875C-367.0419921875 -1487.6800537109375 -333.25299072265625 -1264.989990234375 -265.0849914550781 -1050.1400146484375C-260.8160095214844 -1036.6199951171875 -256.6910095214844 -1024.2900390625 -241.19700622558594 -978.4290161132812C-200.4080047607422 -857.9580078125 -180.6230010986328 -738.0910034179688 -180.6230010986328 -624.239013671875C-180.6230010986328 -372.2959899902344 -277.5069885253906 -149.80799865722656 -458.0639953613281 -15.406494140625C-467.22601318359375 -8.642868041992188 -467.94500732421875 -7.7314605712890625 -467.94500732421875 -3.2223968505859375C-467.94500732421875 1.28668212890625 -467.22601318359375 2.198089599609375 -458.0639953613281 8.961700439453125C-279.1300048828125 142.15899658203125 -180.6300048828125 363.5840148925781 -180.6300048828125 617.6409912109375C-180.6300048828125 679.3319702148438 -186.43800354003906 742.947021484375 -198.31300354003906 807.6909790039062C-210.01699829101562 871.489013671875 -223.11199951171875 919.8900146484375 -249.20700073242188 995.72900390625C-328.364990234375 1225.8699951171875 -367.75299072265625 1465.8900146484375 -367.75299072265625 1710.0999755859375C-367.75299072265625 2057.409912109375 -288.0899963378906 2413.219970703125 -129.86099243164062 2761.219970703125C-112.49600219726562 2799.449951171875 -84.53050231933594 2857.110107421875 -68.12509155273438 2888.580078125L-59.010986328125 2906.090087890625L-31.285079956054688 2957.64990234375C-15.934982299804688 2985.669921875 -15.647186279296875 2986.050048828125 -12.097488403320312 2987.199951171875Z" fill="black" /></g></svg>