<?xml version="1.0" encoding="utf-8" ?>
<svg baseProfile="tiny" height="100%" version="1.2" width="100%" xmlns="http://www.w3.org/2000/svg" xmlns:ev="http://www.w3.org/2001/xml-events" xmlns:xlink="http://www.w3.org/1999/xlink"><defs /><g transform="translate(0, 1000) scale(1, -1)"><path d="M-15.565902709960938 356.24700927734375C-15.07611083984375 356.3210144042969 -14.592315673828125 356.3559875488281 -14.117218017578125 356.3559875488281C-9.160369873046875 356.3559875488281 -5.1494903564453125 352.4739990234375 -5.1494903564453125 347.3280029296875C-5.1494903564453125 345.1260070800781 -5.325714111328125 344.5679931640625 -6.999786376953125 341.50299072265625C-21.031112670898438 315.9169921875 -28.056915283203125 286.9960021972656 -28.056915283203125 253.6300048828125C-28.056915283203125 217.2030029296875 -19.6826171875 175.4770050048828 -2.9076080322265625 127.00700378417969C-2.046112060546875 124.51100158691406 -1.69366455078125 123.33599853515625 -0.7734222412109375 119.81100463867188L-1.52587890625e-05 116.82600402832031V94.66120910644531V72.48710632324219L-0.646148681640625 69.99070739746094C-7.2347564697265625 44.31181335449219 -23.388031005859375 21.667816162109375 -50.045928955078125 0.76641845703125C-50.83892822265625 0.149658203125 -51.48503112792969 -0.378997802734375 -51.48503112792969 -0.408355712890625C-51.48503112792969 -0.4377288818359375 -50.83892822265625 -0.9663848876953125 -50.045928955078125 -1.5831451416015625C-23.388031005859375 -22.484588623046875 -7.2347564697265625 -45.12858581542969 -0.6461639404296875 -70.80747985839844L-3.0517578125e-05 -73.30387878417969V-95.46818542480469V-117.63298034667969L-0.5972137451171875 -119.93296813964844C-1.7622222900390625 -124.46598815917969 -2.02655029296875 -125.31797790527344 -4.1509552001953125 -131.4849853515625C-16.858245849609375 -168.2559814453125 -24.788040161132812 -203.52899169921875 -27.2159423828125 -233.94598388671875C-27.7447509765625 -240.59397888183594 -28.008743286132812 -247.11598205566406 -28.008743286132812 -253.5089874267578C-28.008743286132812 -286.5229949951172 -20.967453002929688 -316.0709991455078 -6.99981689453125 -341.53697204589844C-5.32574462890625 -344.6009979248047 -5.1495208740234375 -345.1589813232422 -5.1495208740234375 -347.3619842529297C-5.1495208740234375 -349.2219696044922 -5.384490966796875 -350.22999572753906 -6.177459716796875 -351.68898010253906C-7.8451690673828125 -354.75498962402344 -10.9886474609375 -356.35597229003906 -14.141448974609375 -356.35597229003906C-16.7076416015625 -356.35597229003906 -19.280044555664062 -355.2949981689453 -21.067840576171875 -353.09898376464844C-21.674850463867188 -352.35499572753906 -23.906951904296875 -348.4099884033203 -27.5096435546875 -341.68397521972656L-30.123550415039062 -336.83799743652344C-37.21144104003906 -324.0129852294922 -47.901947021484375 -300.53697204589844 -54.01084899902344 -284.41297912597656C-67.21025085449219 -249.54898071289062 -73.80143737792969 -216.23098754882812 -73.80143737792969 -184.0909881591797C-73.80143737792969 -158.47097778320312 -69.61334228515625 -133.59999084472656 -61.24554443359375 -109.29197692871094C-55.00944519042969 -91.18019104003906 -51.92564392089844 -77.64079284667969 -50.64314270019531 -62.769989013671875C-50.49554443359375 -61.04399108886719 -50.42485046386719 -58.93058776855469 -50.42485046386719 -56.69618225097656C-50.42485046386719 -52.70768737792969 -50.64994812011719 -48.33348083496094 -51.06414794921875 -45.089385986328125C-52.963348388671875 -30.1597900390625 -60.0218505859375 -16.874984741210938 -70.23274230957031 -8.994094848632812C-73.179443359375 -6.7130584716796875 -73.64933776855469 -6.2529296875 -74.48155212402344 -4.7550811767578125C-75.20594787597656 -3.4432220458984375 -75.56814575195312 -1.9257965087890625 -75.56814575195312 -0.408355712890625C-75.56814575195312 1.10906982421875 -75.20594787597656 2.6265106201171875 -74.48155212402344 3.9383392333984375C-73.64933776855469 5.4362030029296875 -73.179443359375 5.896331787109375 -70.23274230957031 8.1773681640625C-61.73504638671875 14.726821899414062 -55.08775329589844 25.574020385742188 -52.31724548339844 37.36100769042969C-51.046051025390625 42.77632141113281 -50.41444396972656 48.60432434082031 -50.41444396972656 54.874420166015625C-50.41444396972656 58.26191711425781 -50.59873962402344 61.778411865234375 -50.96624755859375 65.42860412597656C-52.287841796875 78.44921875 -55.51853942871094 91.81242370605469 -61.715545654296875 109.87501525878906C-67.71675109863281 127.34001159667969 -71.80885314941406 147.42901611328125 -73.179443359375 166.0690155029297C-73.61503601074219 172.03302001953125 -73.83433532714844 177.9940185546875 -73.83433532714844 183.96701049804688C-73.83433532714844 225.64901733398438 -63.14984130859375 267.8880157470703 -40.706451416015625 315.60902404785156C-37.73023986816406 321.9330291748047 -32.101043701171875 333.2210235595703 -30.152938842773438 336.75502014160156L-27.5096435546875 341.65000915527344C-23.8580322265625 348.4450225830078 -21.674835205078125 352.32102966308594 -21.067825317382812 353.0650177001953C-19.746231079101562 354.6900177001953 -17.582626342773438 355.9440155029297 -15.565933227539062 356.2470245361328Z" fill="black" /></g></svg>