<?xml version="1.0" encoding="utf-8" ?>
<svg baseProfile="tiny" height="100%" version="1.2" width="100%" xmlns="http://www.w3.org/2000/svg" xmlns:ev="http://www.w3.org/2001/xml-events" xmlns:xlink="http://www.w3.org/1999/xlink"><defs /><g transform="translate(0, 1000) scale(1, -1)"><path d="M-11.464096069335938 2703.699951171875C-10.615478515625 2703.8701171875 -9.789947509765625 2703.9599609375 -8.99639892578125 2703.9599609375C-3.84869384765625 2703.9599609375 -0.048370361328125 2700.340087890625 -0.048370361328125 2694.9599609375C-0.048370361328125 2694.93994140625 -0.0484619140625 2694.909912109375 -0.04864501953125 2694.8798828125L-0.0920562744140625 2691.6298828125L-5.3006134033203125 2682.300048828125C-47.53338623046875 2606.77001953125 -86.29368591308594 2520.7900390625 -117.63198852539062 2432.93994140625C-187.86798095703125 2236.090087890625 -222.87098693847656 2020.2900390625 -222.87098693847656 1793.6199951171875C-222.87098693847656 1522.8699951171875 -172.93199157714844 1236.6400146484375 -73.44587707519531 948.7150268554688C-63.02879333496094 918.5059814453125 -58.86198425292969 904.9630126953125 -52.56828308105469 880.7440185546875C-35.84938049316406 816.469970703125 -27.690292358398438 751.6019897460938 -27.690292358398438 687.177978515625C-27.690292358398438 430.3059997558594 -157.4019775390625 180.49600219726562 -391.42799377441406 3.622283935546875C-396.11598205566406 0.0630950927734375 -399.97898864746094 -2.9752197265625 -399.97898864746094 -3.148834228515625C-399.97898864746094 -3.3224639892578125 -396.11598205566406 -6.3607940673828125 -391.42799377441406 -9.919967651367188C-157.4019775390625 -186.79299926757812 -27.690292358398438 -436.60400390625 -27.690292358398438 -693.4760131835938C-27.690292358398438 -757.9000244140625 -35.84938049316406 -822.7680053710938 -52.56828308105469 -887.041015625C-58.86198425292969 -911.260986328125 -63.02879333496094 -924.802978515625 -73.44587707519531 -955.0130004882812C-172.51498413085938 -1241.719970703125 -222.3009796142578 -1526.43994140625 -222.3009796142578 -1796.0699462890625C-222.3009796142578 -2010.0699462890625 -190.93898010253906 -2214.56005859375 -127.96199035644531 -2402.989990234375C-95.23509216308594 -2500.9599609375 -48.70527648925781 -2606.56005859375 -2.913360595703125 -2686.860107421875C-0.9440460205078125 -2690.300048828125 1.52587890625e-05 -2693.4599609375 1.52587890625e-05 -2696.090087890625C1.52587890625e-05 -2700.889892578125 -3.1311798095703125 -2703.9599609375 -8.9031982421875 -2703.9599609375H-9.539382934570312C-14.669189453125 -2703.9599609375 -14.788482666015625 -2703.60009765625 -25.26678466796875 -2684.68994140625C-187.03598022460938 -2392.7099609375 -289.1239776611328 -2082.22998046875 -323.3269805908203 -1778.1800537109375C-332.0609893798828 -1700.550048828125 -336.41099548339844 -1623.06005859375 -336.41099548339844 -1546.0799560546875C-336.41099548339844 -1325.4200439453125 -300.6799774169922 -1108.8399658203125 -230.04998779296875 -904.4459838867188C-215.5089874267578 -862.301025390625 -206.39398193359375 -832.4819946289062 -198.45098876953125 -800.708984375C-177.79098510742188 -718.302001953125 -167.71897888183594 -637.4769897460938 -167.71897888183594 -560.10498046875C-167.71897888183594 -333.1809997558594 -254.3619842529297 -135.96299743652344 -414.6499786376953 -15.649398803710938C-424.32899475097656 -8.357406616210938 -424.8929901123047 -7.662933349609375 -424.8929901123047 -3.148834228515625C-424.8929901123047 1.365234375 -424.32899475097656 2.059722900390625 -414.6499786376953 9.351699829101562C-254.3619842529297 129.6649932861328 -167.71897888183594 326.88299560546875 -167.71897888183594 553.8070068359375C-167.71897888183594 631.1790161132812 -177.79098510742188 712.0040283203125 -198.45098876953125 794.4119873046875C-206.39398193359375 826.1400146484375 -215.4659881591797 855.916015625 -230.04998779296875 898.1489868164062C-289.20997619628906 1069.469970703125 -324.4979705810547 1251.3299560546875 -334.2209930419922 1435.5C-336.0439910888672 1470.6099853515625 -336.6079864501953 1489.800048828125 -336.91197204589844 1528.1700439453125C-336.94798278808594 1533.0999755859375 -336.9659881591797 1538.0400390625 -336.9659881591797 1542.97998046875C-336.9659881591797 1922.9300537109375 -229.94898986816406 2314.949951171875 -25.26678466796875 2684.469970703125C-15.32708740234375 2702.389892578125 -14.936477661132812 2703.0 -11.464080810546875 2703.699951171875Z" fill="black" /></g></svg>