<?xml version="1.0" encoding="utf-8" ?>
<svg baseProfile="tiny" height="100%" version="1.2" width="100%" xmlns="http://www.w3.org/2000/svg" xmlns:ev="http://www.w3.org/2001/xml-events" xmlns:xlink="http://www.w3.org/1999/xlink"><defs /><g transform="translate(0, 1000) scale(1, -1)"><path d="M-15.029998779296875 7672.6298828125C-13.297805786132812 7674.2001953125 -11.210601806640625 7674.91015625 -9.150360107421875 7674.91015625C-4.5069732666015625 7674.91015625 0.0 7671.330078125 0.0 7666.02001953125C0.0 7662.7900390625 -1.3527069091796875 7660.009765625 -13.827606201171875 7637.5400390625C-123.77200317382812 7439.58984375 -224.99899291992188 7224.35986328125 -305.5589904785156 7017.330078125C-557.89501953125 6368.85009765625 -684.5 5674.85986328125 -684.5 4939.830078125C-684.5 4857.47021484375 -682.9099731445312 4774.60009765625 -679.72998046875 4691.2099609375C-654.2540283203125 4024.179931640625 -520.18701171875 3323.639892578125 -293.0840148925781 2670.81005859375C-235.36900329589844 2504.9599609375 -204.63299560546875 2383.889892578125 -181.56199645996094 2231.56005859375C-164.58900451660156 2119.52001953125 -156.2530059814453 2007.3599853515625 -156.2530059814453 1895.8199462890625C-156.2530059814453 1204.8599853515625 -476.2000274658203 537.9600219726562 -1044.959976196289 73.18350219726562C-1072.9100494384766 50.26280212402344 -1111.010025024414 20.728897094726562 -1137.1700592041016 1.490570068359375C-1144.530044555664 -3.845062255859375 -1150.469985961914 -8.42919921875 -1150.469985961914 -8.654647827148438C-1150.469985961914 -8.880096435546875 -1144.530044555664 -13.38909912109375 -1137.1700592041016 -18.799896240234375C-879.1020050048828 -208.2530059814453 -649.9710235595703 -460.2300109863281 -485.31700134277344 -735.72900390625C-267.17100524902344 -1100.7900390625 -156.322021484375 -1503.8599853515625 -156.322021484375 -1910.9300537109375C-156.322021484375 -2162.25 -198.5740203857422 -2415.090087890625 -283.91600036621094 -2661.43994140625C-449.54600524902344 -3139.550048828125 -559.9409942626953 -3597.8798828125 -623.3679962158203 -4070.8798828125C-663.1350250244141 -4367.3798828125 -682.8860015869141 -4660.33984375 -682.8860015869141 -4948.2099609375C-682.8860015869141 -5922.97998046875 -456.43202209472656 -6839.43994140625 -13.827621459960938 -7637.56005859375C-1.35272216796875 -7660.02978515625 -1.52587890625e-05 -7662.81005859375 -1.52587890625e-05 -7666.0400390625C-1.52587890625e-05 -7671.33984375 -4.47576904296875 -7674.91015625 -9.102081298828125 -7674.91015625C-11.178009033203125 -7674.91015625 -13.284210205078125 -7674.18994140625 -15.030014038085938 -7672.580078125C-18.937820434570312 -7669.0498046875 -72.66990661621094 -7570.97998046875 -114.37800598144531 -7491.31982421875C-480.1320037841797 -6793.18017578125 -720.3860015869141 -6031.91015625 -813.1209869384766 -5277.77978515625C-821.3870391845703 -5210.14990234375 -822.8150177001953 -5198.27001953125 -825.4459991455078 -5173.7001953125C-848.7650299072266 -4956.2099609375 -860.4180450439453 -4739.830078125 -860.4180450439453 -4524.68994140625C-860.4180450439453 -3862.81005859375 -750.1240386962891 -3212.6298828125 -529.9560089111328 -2577.64990234375C-427.92701721191406 -2283.35009765625 -376.74501037597656 -1989.0899658203125 -376.74501037597656 -1697.800048828125C-376.74501037597656 -1595.3900146484375 -383.07200622558594 -1493.3399658203125 -395.73902893066406 -1391.7900390625C-466.38002014160156 -824.9320068359375 -742.1800079345703 -332.17498779296875 -1160.540054321289 -25.187591552734375C-1171.3600006103516 -17.259307861328125 -1176.770034790039 -12.957000732421875 -1176.770034790039 -8.654647827148438C-1176.770034790039 -4.352325439453125 -1171.3600006103516 -0.0500030517578125 -1160.540054321289 7.8783111572265625C-662.5720367431641 373.2580108642578 -376.82200622558594 989.6859893798828 -376.82200622558594 1678.240005493164C-376.82200622558594 1748.760025024414 -379.8200225830078 1820.040054321289 -385.89402770996094 1891.8800201416016C-405.35801696777344 2121.840103149414 -450.8240203857422 2331.209976196289 -532.8120269775391 2568.610122680664C-661.3180084228516 2940.669937133789 -748.1909942626953 3298.459976196289 -802.5250396728516 3679.320083618164C-842.0579986572266 3956.139907836914 -861.8319854736328 4236.430191040039 -861.8319854736328 4518.459976196289C-861.8319854736328 4734.479995727539 -850.2310333251953 4951.509780883789 -827.0240020751953 5168.790054321289C-825.5210113525391 5182.470230102539 -823.4920196533203 5200.200210571289 -822.5150299072266 5208.250015258789C-821.4630279541016 5216.290054321289 -818.9069976806641 5237.250015258789 -816.8780059814453 5254.839859008789C-726.6989898681641 6012.500015258789 -483.51402282714844 6786.770034790039 -114.37800598144531 7491.299819946289C-72.59471130371094 7571.029800415039 -18.937820434570312 7669.029800415039 -15.030014038085938 7672.629898071289Z" fill="black" /></g></svg>