<?xml version="1.0" encoding="utf-8" ?>
<svg baseProfile="tiny" height="100%" version="1.2" width="100%" xmlns="http://www.w3.org/2000/svg" xmlns:ev="http://www.w3.org/2001/xml-events" xmlns:xlink="http://www.w3.org/1999/xlink"><defs /><g transform="translate(0, 1000) scale(1, -1)"><path d="M-11.232406616210938 2889.550048828125C-10.519119262695312 2889.72998046875 -9.811477661132812 2889.81005859375 -9.1190185546875 2889.81005859375C-4.2049407958984375 2889.81005859375 -0.0540313720703125 2885.64990234375 -0.0540313720703125 2880.7099609375C-0.0540313720703125 2880.050048828125 -0.1276092529296875 2879.3798828125 -0.2827606201171875 2878.699951171875C-0.5147552490234375 2877.6298828125 -3.1593475341796875 2872.389892578125 -6.1287384033203125 2867.050048828125C-161.22801208496094 2588.39990234375 -239.84600830078125 2263.550048828125 -239.84600830078125 1912.5C-239.84600830078125 1722.0 -216.6940155029297 1523.7900390625 -170.0480194091797 1321.0699462890625C-145.55101013183594 1214.5899658203125 -119.33601379394531 1124.3499755859375 -76.83720397949219 1000.239990234375C-51.31901550292969 925.7230224609375 -37.956817626953125 856.3140258789062 -33.13160705566406 773.125C-32.737213134765625 766.2579956054688 -32.54002380371094 749.3699951171875 -32.54002380371094 732.52197265625C-32.54002380371094 715.6740112304688 -32.737213134765625 698.8670043945312 -33.13160705566406 692.1630249023438C-37.67842102050781 615.8400268554688 -48.860015869140625 553.2979736328125 -70.06330871582031 485.00201416015625C-127.03800964355469 301.50299072265625 -251.7060089111328 129.41799926757812 -418.0840301513672 4.7039031982421875C-423.79100036621094 0.3890228271484375 -428.4770050048828 -3.1835174560546875 -428.4770050048828 -3.3227081298828125C-428.4770050048828 -3.461883544921875 -423.79100036621094 -7.034423828125 -418.0840301513672 -11.349288940429688C-251.7060089111328 -136.06298828125 -127.03800964355469 -308.1489715576172 -70.06330871582031 -491.64698791503906C-48.860015869140625 -559.9429779052734 -37.67842102050781 -622.4860076904297 -33.13160705566406 -698.8079681396484C-32.737213134765625 -705.5120086669922 -32.54002380371094 -722.3199920654297 -32.54002380371094 -739.1669769287109C-32.54002380371094 -756.0149993896484 -32.737213134765625 -772.9039764404297 -33.13160705566406 -779.7700042724609C-37.956817626953125 -862.9589691162109 -51.31901550292969 -932.3690032958984 -76.83720397949219 -1006.8799896240234C-112.84101867675781 -1112.060043334961 -135.0650177001953 -1186.020004272461 -156.8710174560547 -1273.1500091552734C-211.90701293945312 -1493.259994506836 -239.22601318359375 -1708.699935913086 -239.22601318359375 -1915.229965209961C-239.22601318359375 -2264.979965209961 -160.88101196289062 -2589.169906616211 -6.1287384033203125 -2867.199935913086C-1.7401123046875 -2875.050033569336 -1.52587890625e-05 -2878.570053100586 -1.52587890625e-05 -2881.300033569336C-1.52587890625e-05 -2882.780014038086 -0.5140533447265625 -2884.040023803711 -1.3962860107421875 -2885.620101928711C-2.9196929931640625 -2888.409896850586 -5.981842041015625 -2889.810043334961 -9.07275390625 -2889.810043334961C-12.006515502929688 -2889.810043334961 -14.96630859375 -2888.540023803711 -16.660812377929688 -2885.989974975586C-25.847320556640625 -2872.070053100586 -73.96061706542969 -2780.489974975586 -96.32380676269531 -2734.229965209961C-269.40501403808594 -2376.749984741211 -356.69801330566406 -2010.8799896240234 -356.69801330566406 -1654.699935913086C-356.69801330566406 -1422.540023803711 -319.6120147705078 -1194.489974975586 -245.02500915527344 -975.5640106201172C-219.739013671875 -901.3289642333984 -210.04202270507812 -867.5989837646484 -198.90701293945312 -814.5679779052734C-183.64601135253906 -741.9109954833984 -176.1900177001953 -670.6379852294922 -176.1900177001953 -601.8899993896484C-176.1900177001953 -357.5389862060547 -270.38502502441406 -145.07598876953125 -443.13902282714844 -15.6641845703125C-452.2320098876953 -8.843887329101562 -453.2530059814453 -7.5447845458984375 -453.2530059814453 -3.32269287109375C-453.2530059814453 0.8994140625 -452.2320098876953 2.198516845703125 -443.13902282714844 9.018829345703125C-270.38502502441406 138.43002319335938 -176.1900177001953 350.89404296875 -176.1900177001953 595.2450256347656C-176.1900177001953 663.9930114746094 -183.64601135253906 735.2650451660156 -198.90701293945312 807.9220275878906C-210.135009765625 861.3710021972656 -219.36801147460938 893.4780578613281 -245.72100830078125 971.0060119628906C-320.14601135253906 1189.9700012207031 -356.99501037597656 1419.0000305175781 -356.99501037597656 1651.8500061035156C-356.99501037597656 2058.570098876953 -244.56600952148438 2476.949981689453 -23.57391357421875 2873.730010986328C-15.500808715820312 2888.250030517578 -15.2689208984375 2888.530059814453 -11.232421875 2889.550079345703Z" fill="black" /></g></svg>