<?xml version="1.0" encoding="utf-8" ?>
<svg baseProfile="tiny" height="100%" version="1.2" width="100%" xmlns="http://www.w3.org/2000/svg" xmlns:ev="http://www.w3.org/2001/xml-events" xmlns:xlink="http://www.w3.org/1999/xlink"><defs /><g transform="translate(0, 1000) scale(1, -1)"><path d="M-11.5220947265625 2870.330078125C-10.635299682617188 2870.56005859375 -9.76385498046875 2870.669921875 -8.921981811523438 2870.669921875C-3.944915771484375 2870.669921875 0.0 2866.889892578125 0.0 2861.530029296875C0.0 2858.5400390625 -0.04608154296875 2858.489990234375 -6.0375823974609375 2847.699951171875C-160.3419952392578 2569.9599609375 -238.07699584960938 2247.239990234375 -238.07699584960938 1899.8800048828125C-238.07699584960938 1639.780029296875 -194.49099731445312 1365.8599853515625 -106.8330078125 1086.6700439453125C-102.45500183105469 1072.6600341796875 -87.47579956054688 1027.6700439453125 -74.20230102539062 988.4979858398438C-49.959808349609375 917.1530151367188 -36.962890625 847.5599975585938 -32.354095458984375 764.739013671875C-31.850799560546875 755.6810302734375 -31.610198974609375 745.0369873046875 -31.610198974609375 733.5910034179688C-31.610198974609375 705.2000122070312 -33.09080505371094 671.8770141601562 -35.718505859375 645.5999755859375C-60.283599853515625 399.2120056152344 -199.00999450683594 166.32699584960938 -419.72698974609375 1.1002197265625C-422.677001953125 -1.1581268310546875 -425.1189880371094 -3.139923095703125 -425.1189880371094 -3.3242645263671875C-425.1189880371094 -3.50860595703125 -422.677001953125 -5.49041748046875 -419.6809997558594 -7.748748779296875C-199.00999450683594 -172.97598266601562 -60.283599853515625 -405.85997009277344 -35.718505859375 -652.2490081787109C-33.09080505371094 -678.5259857177734 -31.610198974609375 -711.8480072021484 -31.610198974609375 -740.2389984130859C-31.610198974609375 -751.6849822998047 -31.850799560546875 -762.3300018310547 -32.354095458984375 -771.3879852294922C-36.962890625 -854.0699920654297 -49.9136962890625 -923.4789886474609 -74.11019897460938 -994.9160003662109L-86.83059692382812 -1032.479965209961C-187.44000244140625 -1329.4200286865234 -237.49000549316406 -1622.8299407958984 -237.49000549316406 -1901.1700286865234C-237.49000549316406 -2247.479965209961 -160.01199340820312 -2570.459945678711 -6.0375823974609375 -2847.899887084961C-0.04608154296875 -2858.689926147461 0.0 -2858.729965209961 0.0 -2861.729965209961C0.0 -2867.300033569336 -3.3183746337890625 -2870.669906616211 -8.895065307617188 -2870.669906616211H-9.437423706054688C-14.695816040039062 -2870.669906616211 -14.771316528320312 -2870.370101928711 -25.164321899414062 -2851.590072631836C-214.2650146484375 -2510.580062866211 -326.3520050048828 -2144.129867553711 -349.5340118408203 -1791.0899505615234C-352.8350067138672 -1740.699935913086 -354.4960174560547 -1690.969955444336 -354.4960174560547 -1641.749984741211C-354.4960174560547 -1403.6500091552734 -315.6320037841797 -1177.3499603271484 -235.4660186767578 -945.1409759521484C-201.08401489257812 -845.4979705810547 -181.95701599121094 -748.0209808349609 -176.15000915527344 -642.5699920654297C-175.7580108642578 -635.5419769287109 -175.56201171875 -616.6459808349609 -175.56201171875 -597.8069915771484C-175.56201171875 -578.9680023193359 -175.7580108642578 -560.1869964599609 -176.15000915527344 -553.3889617919922C-189.4230194091797 -321.05799865722656 -281.2310028076172 -134.1689910888672 -440.5590057373047 -15.261184692382812C-449.54600524902344 -8.578338623046875 -450.19200134277344 -7.748748779296875 -450.19200134277344 -3.324249267578125C-450.19200134277344 1.1002349853515625 -449.54600524902344 1.9298248291015625 -440.5590057373047 8.612640380859375C-270.39601135253906 135.64801025390625 -175.55101013183594 344.03501892089844 -175.55101013183594 591.0360260009766V591.2160186767578C-175.55101013183594 630.7140045166016 -176.15000915527344 644.8170318603516 -179.2840118408203 679.2450103759766C-187.07301330566406 765.7530059814453 -205.96900939941406 852.9980010986328 -235.4660186767578 938.4920196533203C-285.33302307128906 1082.979995727539 -315.61302185058594 1208.250015258789 -335.43101501464844 1351.6700592041016C-348.5910186767578 1446.9000396728516 -355.1220245361328 1543.300064086914 -355.1220245361328 1640.4100494384766C-355.1220245361328 2043.250015258789 -242.7370147705078 2458.250015258789 -24.933822631835938 2851.850112915039C-15.4857177734375 2868.949966430664 -15.163116455078125 2869.409927368164 -11.522109985351562 2870.330093383789Z" fill="black" /></g></svg>