<?xml version="1.0" encoding="utf-8" ?>
<svg baseProfile="tiny" height="100%" version="1.2" width="100%" xmlns="http://www.w3.org/2000/svg" xmlns:ev="http://www.w3.org/2001/xml-events" xmlns:xlink="http://www.w3.org/1999/xlink"><defs /><g transform="translate(0, 1000) scale(1, -1)"><path d="M-20.583999633789062 674.0460205078125C-19.69061279296875 674.3200073242188 -18.795913696289062 674.448974609375 -17.921310424804688 674.448974609375C-13.105010986328125 674.448974609375 -8.900650024414062 670.5380249023438 -8.900650024414062 665.364013671875C-8.900650024414062 663.1699829101562 -9.18194580078125 662.3820190429688 -11.826217651367188 657.5809936523438C-40.86201477050781 604.4849853515625 -55.3939208984375 543.4660034179688 -55.3939208984375 474.71600341796875C-55.3939208984375 440.5830078125 -51.811920166015625 404.54400634765625 -44.64451599121094 366.62298583984375C-36.636810302734375 324.3160095214844 -26.847610473632812 288.2149963378906 -9.950836181640625 238.81900024414062C-3.2860107421875 219.3260040283203 -1.52587890625e-05 199.21400451660156 -1.52587890625e-05 179.10699462890625C-1.52587890625e-05 140.5449981689453 -12.086807250976562 102.00199890136719 -35.60542297363281 67.88259887695312C-51.67701721191406 44.57220458984375 -76.86271667480469 18.917694091796875 -102.57402038574219 -0.3419952392578125L-103.13603210449219 -0.7545623779296875L-102.57402038574219 -1.167144775390625C-76.86271667480469 -20.426803588867188 -51.67701721191406 -46.08140563964844 -35.60542297363281 -69.39179992675781C-12.086807250976562 -103.49899291992188 -1.52587890625e-05 -142.07000732421875 -1.52587890625e-05 -180.63699340820312C-1.52587890625e-05 -200.74600219726562 -3.2860107421875 -220.85400390625 -9.950836181640625 -240.3280029296875C-37.87451171875 -321.81201171875 -51.602020263671875 -387.2980041503906 -54.883819580078125 -454.5849914550781C-55.04551696777344 -457.97100830078125 -55.13002014160156 -467.06201171875 -55.13002014160156 -476.0090026855469C-55.13002014160156 -484.7040100097656 -55.05021667480469 -493.260986328125 -54.883819580078125 -496.3110046386719C-51.63951110839844 -558.197021484375 -37.76200866699219 -610.1630249023438 -11.826217651367188 -657.5900268554688C-9.18194580078125 -662.3909912109375 -8.900650024414062 -663.177978515625 -8.900650024414062 -665.3729858398438C-8.900650024414062 -670.8610229492188 -13.397216796875 -674.448974609375 -18.031219482421875 -674.448974609375C-20.364212036132812 -674.448974609375 -22.73211669921875 -673.5399780273438 -24.578414916992188 -671.5050048828125C-26.378707885742188 -669.5170288085938 -38.58721923828125 -646.843994140625 -47.96382141113281 -628.052978515625C-95.62501525878906 -532.656982421875 -119.10002136230469 -444.43499755859375 -119.10002136230469 -359.7510070800781C-119.10002136230469 -336.7090148925781 -117.36201477050781 -313.9289855957031 -113.90101623535156 -291.3370056152344C-109.77500915527344 -264.3330078125 -104.44902038574219 -242.86000061035156 -94.60331726074219 -213.41700744628906C-83.53892517089844 -180.35499572753906 -78.66300964355469 -158.6009979248047 -76.41261291503906 -132.21499633789062C-75.91351318359375 -126.36399841308594 -75.66612243652344 -120.62399291992188 -75.66612243652344 -115.00900268554688C-75.66612243652344 -69.56950378417969 -91.86280822753906 -32.26390075683594 -121.88902282714844 -9.5311279296875C-126.35301208496094 -6.155517578125 -127.42201232910156 -4.448974609375 -127.42201232910156 -0.7545623779296875C-127.42201232910156 2.9398345947265625 -126.35301208496094 4.646392822265625 -121.88902282714844 8.021987915039062C-91.86280822753906 30.754806518554688 -75.66612243652344 68.06039428710938 -75.66612243652344 113.5C-75.66612243652344 119.114990234375 -75.91351318359375 124.85501098632812 -76.41261291503906 130.70599365234375C-78.66300964355469 157.0919952392578 -83.53892517089844 178.8459930419922 -94.60331726074219 211.9080047607422C-106.718017578125 248.13999938964844 -113.54402160644531 278.95098876953125 -116.90101623535156 312.614013671875C-118.43501281738281 327.97601318359375 -119.20600891113281 343.39300537109375 -119.20600891113281 358.89801025390625C-119.20600891113281 454.6669921875 -89.78831481933594 553.791015625 -29.00421142578125 664.1259765625C-24.672210693359375 671.9840087890625 -23.734512329101562 673.0900268554688 -20.584014892578125 674.0460205078125Z" fill="black" /></g></svg>