<?xml version="1.0" encoding="utf-8" ?>
<svg baseProfile="tiny" height="100%" version="1.2" width="100%" xmlns="http://www.w3.org/2000/svg" xmlns:ev="http://www.w3.org/2001/xml-events" xmlns:xlink="http://www.w3.org/1999/xlink"><defs /><g transform="translate(0, 1000) scale(1, -1)"><path d="M-11.884307861328125 2100.22998046875C-10.9541015625 2100.47998046875 -10.050796508789062 2100.60009765625 -9.185470581054688 2100.60009765625C-3.9547271728515625 2100.60009765625 -0.1118621826171875 2096.360107421875 -0.1118621826171875 2091.340087890625C-0.1118621826171875 2089.550048828125 -0.6053009033203125 2087.64990234375 -1.70513916015625 2085.81005859375C-28.076507568359375 2041.47998046875 -64.74490356445312 1960.7900390625 -88.2080078125 1895.3900146484375C-141.97999572753906 1745.489990234375 -168.75599670410156 1580.260009765625 -168.75599670410156 1405.9599609375C-168.75599670410156 1191.949951171875 -128.39500427246094 964.2550048828125 -48.08099365234375 734.4240112304688C-25.664093017578125 670.2880249023438 -14.511001586914062 604.2670288085938 -14.511001586914062 538.197998046875C-14.511001586914062 448.3559875488281 -35.1343994140625 358.4259948730469 -76.10310363769531 273.02301025390625C-81.44808959960938 261.86199951171875 -82.03759765625 260.72198486328125 -90.84120178222656 244.52999877929688C-140.32200622558594 153.82200622558594 -212.7550048828125 70.81671142578125 -300.3190002441406 4.514862060546875C-304.52398681640625 1.3314361572265625 -308.33599853515625 -1.5375823974609375 -308.76800537109375 -1.89129638671875C-309.1619873046875 -2.186065673828125 -309.3580017089844 -2.33343505859375 -309.3580017089844 -2.4808197021484375C-309.3580017089844 -2.628204345703125 -309.1619873046875 -2.77557373046875 -308.76800537109375 -3.070343017578125C-308.33599853515625 -3.4240570068359375 -304.52398681640625 -6.2930755615234375 -300.3190002441406 -9.47650146484375C-212.7550048828125 -75.77828979492188 -140.32200622558594 -158.7830047607422 -90.84120178222656 -249.49099731445312C-82.03759765625 -265.6839904785156 -81.44808959960938 -266.822998046875 -76.10310363769531 -277.9849853515625C-35.1343994140625 -363.3869934082031 -14.511001586914062 -453.343994140625 -14.511001586914062 -543.1929931640625C-14.511001586914062 -609.2670288085938 -25.664093017578125 -675.2830200195312 -48.08099365234375 -739.385986328125C-127.56600952148438 -966.6519775390625 -168.3820037841797 -1196.52001953125 -168.3820037841797 -1410.9300537109375C-168.3820037841797 -1484.97998046875 -163.51199340820312 -1557.199951171875 -153.6840057373047 -1626.8199462890625C-130.85000610351562 -1788.739990234375 -82.7843017578125 -1936.93994140625 -9.172454833984375 -2072.5C-5.831817626953125 -2078.669921875 -2.491180419921875 -2084.760009765625 -1.70513916015625 -2086.050048828125C-0.5378265380859375 -2088.0 0.0 -2090.0 0.0 -2091.8701171875C0.0 -2096.669921875 -3.549163818359375 -2100.60009765625 -9.093841552734375 -2100.60009765625H-9.3682861328125C-14.868896484375 -2100.60009765625 -14.884796142578125 -2100.43994140625 -25.325393676757812 -2081.5400390625C-174.16099548339844 -1811.449951171875 -257.00799560546875 -1532.8800048828125 -269.6629943847656 -1259.93994140625C-270.7250061035156 -1237.300048828125 -270.8819885253906 -1229.6700439453125 -271.1180114746094 -1199.800048828125C-271.1440124511719 -1196.010009765625 -271.1579895019531 -1192.219970703125 -271.1579895019531 -1188.4300537109375C-271.1579895019531 -1020.6599731445312 -244.77000427246094 -859.4749755859375 -191.8459930419922 -703.8179931640625C-183.5540008544922 -679.5689697265625 -179.93800354003906 -668.5640258789062 -177.50100708007812 -660.7830200195312C-157.26100158691406 -595.5809936523438 -145.82400512695312 -533.9169921875 -141.26499938964844 -465.4540100097656C-140.75399780273438 -457.8489990234375 -140.49899291992188 -441.3320007324219 -140.49899291992188 -424.90399169921875C-140.49899291992188 -408.47601318359375 -140.75399780273438 -392.135986328125 -141.26499938964844 -384.885009765625C-152.46600341796875 -223.70899963378906 -215.427001953125 -96.56880187988281 -324.8819885253906 -14.074798583984375C-333.3710021972656 -7.6686248779296875 -333.9219970703125 -6.9611968994140625 -333.9219970703125 -2.4808197021484375C-333.9219970703125 1.9209747314453125 -333.2929992675781 2.7855987548828125 -326.0610046386719 8.209228515625C-216.01699829101562 90.42811584472656 -152.5050048828125 218.19801330566406 -141.26499938964844 379.9240264892578C-140.75399780273438 387.1750030517578 -140.49899291992188 403.51402282714844 -140.49899291992188 419.94300842285156C-140.49899291992188 436.3710174560547 -140.75399780273438 452.8870086669922 -141.26499938964844 460.4920196533203C-146.68899536132812 541.8460235595703 -160.40499877929688 607.5590362548828 -189.88099670410156 693.1569976806641C-234.05599975585938 821.4380035400391 -260.781005859375 956.3209991455078 -268.87701416015625 1091.280044555664C-271.03900146484375 1127.560073852539 -271.4320068359375 1142.219985961914 -271.4320068359375 1186.199966430664C-271.4320068359375 1226.990005493164 -271.2749938964844 1233.6700592041016 -269.8599853515625 1263.229995727539C-256.3789978027344 1536.689956665039 -172.23500061035156 1816.479995727539 -21.98480224609375 2087.379898071289C-16.128799438476562 2097.909927368164 -14.949798583984375 2099.409927368164 -11.884307861328125 2100.229995727539Z" fill="black" /></g></svg>