<?xml version="1.0" encoding="utf-8" ?>
<svg baseProfile="tiny" height="100%" version="1.2" width="100%" xmlns="http://www.w3.org/2000/svg" xmlns:ev="http://www.w3.org/2001/xml-events" xmlns:xlink="http://www.w3.org/1999/xlink"><defs /><g transform="translate(0, 1000) scale(1, -1)"><path d="M-19.233901977539062 618.5120239257812C-18.828811645507812 618.5679931640625 -18.42681884765625 618.594970703125 -18.029922485351562 618.594970703125C-13.209014892578125 618.594970703125 -9.131820678710938 614.572998046875 -9.131820678710938 609.5089721679688C-9.131820678710938 607.2760009765625 -9.3895263671875 606.5540161132812 -11.502716064453125 602.7230224609375C-37.94731140136719 555.0050048828125 -51.168609619140625 499.80499267578125 -51.168609619140625 437.1050109863281C-51.168609619140625 373.3630065917969 -37.504913330078125 301.8710021972656 -10.1798095703125 222.6060028076172C-4.6649017333984375 206.61099243164062 -1.589599609375 192.45399475097656 -0.5244293212890625 178.19500732421875C-0.174774169921875 173.5290069580078 -1.52587890625e-05 168.89999389648438 -1.52587890625e-05 164.30799865722656C-1.52587890625e-05 109.1090087890625 -25.252212524414062 59.25239562988281 -75.49981689453125 15.238204956054688C-80.56800842285156 10.80560302734375 -92.40541076660156 1.0643310546875 -94.63880920410156 -0.49908447265625L-94.98240661621094 -0.7396087646484375L-94.63880920410156 -0.980133056640625C-90.82481384277344 -3.6602935791015625 -76.4619140625 -15.720993041992188 -69.48670959472656 -22.112106323242188C-23.488113403320312 -64.24969482421875 -0.005645751953125 -112.91600036621094 -0.005645751953125 -165.93699645996094C-0.005645751953125 -170.48500061035156 -0.178375244140625 -175.06399536132812 -0.5244293212890625 -179.6739959716797C-1.589599609375 -193.9340057373047 -4.6649017333984375 -208.072998046875 -10.1798095703125 -224.0850067138672C-37.434112548828125 -303.1889953613281 -51.05900573730469 -374.343994140625 -51.05900573730469 -437.7820129394531C-51.05900573730469 -500.1910095214844 -37.87220764160156 -555.1329956054688 -11.502716064453125 -602.8280029296875C-9.827301025390625 -605.8679809570312 -9.0306396484375 -607.9879760742188 -9.0306396484375 -609.927001953125C-9.0306396484375 -611.3090209960938 -9.43505859375 -612.5989990234375 -10.214218139648438 -614.0640258789062C-11.811019897460938 -617.0579833984375 -14.99371337890625 -618.594970703125 -18.175811767578125 -618.594970703125C-21.019515991210938 -618.594970703125 -23.862808227539062 -617.3679809570312 -25.573516845703125 -614.85400390625C-27.566421508789062 -611.8989868164062 -39.88481140136719 -588.7059936523438 -46.94590759277344 -574.5659790039062C-91.32301330566406 -485.8290100097656 -112.3170166015625 -406.7300109863281 -112.35200500488281 -328.3699951171875C-112.35200500488281 -315.27899169921875 -112.30001831054688 -313.54400634765625 -111.64701843261719 -302.4280090332031C-109.65501403808594 -268.18701171875 -102.593017578125 -231.8159942626953 -91.73530578613281 -199.68899536132812C-82.56101989746094 -172.59500122070312 -79.03901672363281 -159.43499755859375 -75.68881225585938 -139.72900390625C-73.58610534667969 -127.39900207519531 -72.54780578613281 -115.58499145507812 -72.54780578613281 -104.37699890136719C-72.54780578613281 -63.108306884765625 -86.62260437011719 -30.047805786132812 -113.46900939941406 -9.673446655273438C-118.14201354980469 -6.13427734375 -119.19001770019531 -4.50213623046875 -119.19001770019531 -0.7396087646484375C-119.19001770019531 3.0229034423828125 -118.14201354980469 4.6550445556640625 -113.46900939941406 8.1942138671875C-86.62260437011719 28.568496704101562 -72.54780578613281 61.62910461425781 -72.54780578613281 102.89700317382812C-72.54780578613281 114.10600280761719 -73.58610534667969 125.91999816894531 -75.68881225585938 138.25C-79.02180480957031 157.81900024414062 -82.66410827636719 171.4600067138672 -91.56352233886719 197.69400024414062C-105.50401306152344 238.8350067138672 -112.56602478027344 282.6369934082031 -112.56602478027344 327.6289978027344C-112.56602478027344 340.5820007324219 -111.98101806640625 353.6340026855469 -110.80601501464844 366.75C-104.05401611328125 442.08599853515625 -76.7025146484375 522.7310180664062 -28.373916625976562 609.7670288085938C-24.456817626953125 616.8109741210938 -23.28851318359375 617.9450073242188 -19.233917236328125 618.5120239257812Z" fill="black" /></g></svg>