<?xml version="1.0" encoding="utf-8" ?>
<svg baseProfile="tiny" height="100%" version="1.2" width="100%" xmlns="http://www.w3.org/2000/svg" xmlns:ev="http://www.w3.org/2001/xml-events" xmlns:xlink="http://www.w3.org/1999/xlink"><defs /><g transform="translate(0, 1000) scale(1, -1)"><path d="M-12.1654052734375 9001.599609375C-11.2550048828125 9001.8603515625 -10.315399169921875 9001.98046875 -9.382247924804688 9001.98046875C-5.9093780517578125 9001.98046875 -2.524322509765625 9000.26953125 -1.053985595703125 8997.4599609375C-0.4485321044921875 8996.330078125 -0.0439605712890625 8995.3603515625 -0.0439605712890625 8994.0595703125C-0.0439605712890625 8990.1396484375 -3.73065185546875 8983.2197265625 -16.707199096679688 8959.830078125C-504.7159881591797 8081.14013671875 -773.4979705810547 7073.64990234375 -806.5070037841797 5999.990234375C-808.6160125732422 5930.7998046875 -809.0219573974609 5903.39013671875 -809.5079803466797 5808.97998046875C-809.5619964599609 5797.259765625 -809.5889739990234 5785.5400390625 -809.5889739990234 5773.81982421875C-809.5889739990234 4887.89013671875 -655.3279876708984 3996.669921875 -348.8319854736328 3112.239990234375L-324.0139923095703 3039.25C-236.5299835205078 2768.860107421875 -193.4849853515625 2491.6201171875 -193.4849853515625 2216.030029296875C-193.4849853515625 1652.06005859375 -373.74598693847656 1095.010009765625 -722.3199920654297 617.8610229492188C-890.7750091552734 387.197998046875 -1097.3499603271484 179.16400146484375 -1329.0699310302734 6.8158416748046875C-1340.989974975586 -2.02459716796875 -1350.719955444336 -9.567352294921875 -1350.719955444336 -9.89178466796875C-1350.719955444336 -10.216201782226562 -1340.989974975586 -17.759002685546875 -1329.0699310302734 -26.599395751953125C-612.6949920654297 -559.4409484863281 -193.4659881591797 -1379.0600280761719 -193.4659881591797 -2234.399871826172C-193.4659881591797 -2274.139862060547 -194.37098693847656 -2313.959930419922 -196.19297790527344 -2353.820037841797C-208.84498596191406 -2629.989959716797 -255.72398376464844 -2864.709930419922 -355.56398010253906 -3151.489959716797C-525.3979949951172 -3639.499969482422 -655.8140106201172 -4175.850067138672 -728.6469573974609 -4685.589813232422C-781.6589813232422 -5056.540008544922 -807.9749603271484 -5423.279754638672 -807.9749603271484 -5783.519989013672C-807.9749603271484 -6932.859832763672 -540.1030120849609 -8016.100067138672 -16.707199096679688 -8959.339813232422C-4.9810333251953125 -8980.459930419922 0.0 -8990.009735107422 0.0 -8994.980438232422C0.0 -8998.330047607422 -2.2614593505859375 -8999.599578857422 -6.2447052001953125 -9000.940399169922C-7.926666259765625 -9001.499969482422 -9.215667724609375 -9001.980438232422 -10.431900024414062 -9001.980438232422C-14.904495239257812 -9001.980438232422 -18.393096923828125 -8995.480438232422 -36.82130432128906 -8962.259735107422C-493.03700256347656 -8142.120086669922 -797.6670074462891 -7242.830047607422 -926.0560455322266 -6337.290008544922C-937.4920196533203 -6256.839813232422 -943.4120025634766 -6209.229949951172 -957.7680206298828 -6083.839813232422C-983.1909942626953 -5861.660125732422 -997.7420196533203 -5583.839813232422 -997.7420196533203 -5324.140106201172C-997.7420196533203 -5313.749969482422 -997.7180328369141 -5303.390106201172 -997.6720123291016 -5293.069793701172C-997.1850128173828 -5200.200164794922 -996.8610382080078 -5176.200164794922 -994.6710357666016 -5107.740203857422C-973.6649932861328 -4442.200164794922 -859.7119903564453 -3792.790008544922 -652.6510162353516 -3159.199920654297L-603.7450103759766 -3014.830047607422C-486.66700744628906 -2675.590057373047 -430.12400817871094 -2332.379852294922 -430.12400817871094 -2000.8699645996094C-430.12400817871094 -1199.9899597167969 -760.1519927978516 -467.4479675292969 -1363.939956665039 -24.328460693359375C-1373.060073852539 -17.62835693359375 -1377.540054321289 -13.66156005859375 -1377.540054321289 -9.77642822265625C-1377.540054321289 -6.0897064208984375 -1373.500015258789 -2.4766387939453125 -1365.560073852539 3.328369140625C-761.1710357666016 444.64007568359375 -430.32102966308594 1179.0800170898438 -430.32102966308594 1981.5800170898438C-430.32102966308594 2312.9400024414062 -486.7300262451172 2655.9099731445312 -603.5830230712891 2994.6399536132812L-647.3790435791016 3123.1900024414062C-881.9879913330078 3835.0401000976562 -1000.0399932861328 4570.790100097656 -1000.0399932861328 5318.160217285156C-1000.0399932861328 5522.609924316406 -991.2030181884766 5727.940002441406 -973.5020294189453 5933.879943847656C-969.2039947509766 5984.490295410156 -961.0930328369141 6067.220275878906 -958.5789947509766 6086.770080566406C-957.9300079345703 6091.879943847656 -955.7400054931641 6110.859924316406 -953.7130279541016 6128.940002441406C-844.7080230712891 7100.500061035156 -530.0200347900391 8074.080139160156 -39.09220886230469 8958.690490722656C-15.652908325195312 9000.950256347656 -15.896209716796875 9000.540100097656 -12.165420532226562 9001.599670410156Z" fill="black" /></g></svg>