<?xml version="1.0" encoding="utf-8" ?>
<svg baseProfile="tiny" height="100%" version="1.2" width="100%" xmlns="http://www.w3.org/2000/svg" xmlns:ev="http://www.w3.org/2001/xml-events" xmlns:xlink="http://www.w3.org/1999/xlink"><defs /><g transform="translate(0, 1000) scale(1, -1)"><path d="M-18.297500610351562 765.1010131835938C-17.930816650390625 765.1649780273438 -17.5543212890625 765.1959838867188 -17.172515869140625 765.1959838867188C-14.359420776367188 765.1959838867188 -11.256515502929688 763.5239868164062 -9.624008178710938 761.010009765625C-8.643661499023438 759.5 -8.150360107421875 758.0130004882812 -8.150360107421875 756.4030151367188C-8.150360107421875 754.5130004882812 -8.83001708984375 752.4539794921875 -10.199417114257812 749.9920043945312C-36.30531311035156 703.0440063476562 -52.77861022949219 649.7449951171875 -59.19322204589844 591.3319702148438C-61.01301574707031 574.791015625 -61.958709716796875 554.8410034179688 -61.958709716796875 535.0440063476562C-61.958709716796875 523.7739868164062 -61.65220642089844 512.552978515625 -61.02601623535156 502.03900146484375C-56.78511047363281 431.35101318359375 -40.26911926269531 353.7149963378906 -12.501022338867188 273.79901123046875C-4.1670074462890625 249.79400634765625 -1.52587890625e-05 225.88900756835938 -1.52587890625e-05 202.01300048828125C-1.52587890625e-05 184.55599975585938 -2.2277069091796875 167.11500549316406 -6.6830902099609375 149.66299438476562C-20.620407104492188 95.04269409179688 -55.42121887207031 46.475006103515625 -112.55601501464844 1.892547607421875C-114.38902282714844 0.4434051513671875 -115.90202331542969 -0.8139495849609375 -115.90202331542969 -0.8991851806640625C-115.90202331542969 -1.0057373046875 -114.62301635742188 -2.0712890625 -113.08900451660156 -3.2646942138671875C-52.69342041015625 -50.25529479980469 -16.95501708984375 -101.95599365234375 -4.5733184814453125 -160.30499267578125C-1.5658721923828125 -174.45599365234375 -0.0775299072265625 -189.0760040283203 -0.0775299072265625 -203.71800231933594C-0.0775299072265625 -227.4669952392578 -3.992462158203125 -251.27699279785156 -11.691207885742188 -273.25299072265625C-44.765716552734375 -367.510986328125 -61.665313720703125 -456.6549987792969 -61.665313720703125 -536.7630004882812C-61.665313720703125 -559.2459716796875 -61.324310302734375 -567.1309814453125 -59.42771911621094 -588.3350219726562C-54.41961669921875 -644.0419921875 -36.62501525878906 -702.541015625 -10.199417114257812 -750.0850219726562C-8.800262451171875 -752.6069946289062 -8.158645629882812 -754.47998046875 -8.158645629882812 -756.3060302734375C-8.158645629882812 -757.1489868164062 -8.295730590820312 -757.9829711914062 -8.558456420898438 -758.864990234375C-9.77484130859375 -762.9030151367188 -13.576309204101562 -765.1959838867188 -17.381607055664062 -765.1959838867188C-19.843307495117188 -765.1959838867188 -22.306610107421875 -764.2360229492188 -24.07281494140625 -762.1690063476562C-26.694107055664062 -759.0999755859375 -46.790313720703125 -720.8040161132812 -56.80641174316406 -699.791015625C-104.77702331542969 -599.1610107421875 -128.2410125732422 -507.22601318359375 -129.26402282714844 -416.0360107421875C-129.2860107421875 -413.9909973144531 -129.29701232910156 -411.9519958496094 -129.29701232910156 -409.9209899902344C-129.29701232910156 -353.0889892578125 -120.63101196289062 -301.4939880371094 -101.51701354980469 -244.3769989013672C-88.90071105957031 -206.67799377441406 -83.42381286621094 -181.78599548339844 -81.05830383300781 -151.35400390625C-80.58441162109375 -145.2989959716797 -80.34980773925781 -139.33900451660156 -80.34980773925781 -133.48800659179688C-80.34980773925781 -80.64720153808594 -99.48281860351562 -36.59950256347656 -134.4210205078125 -10.084197998046875C-139.49301147460938 -6.2269134521484375 -140.4730224609375 -4.7351531982421875 -140.4730224609375 -0.8991851806640625C-140.4730224609375 2.9367828369140625 -139.49301147460938 4.4285430908203125 -134.4210205078125 8.28582763671875C-99.48281860351562 34.80110168457031 -80.34980773925781 78.84890747070312 -80.34980773925781 131.68899536132812C-80.34980773925781 137.54100036621094 -80.58441162109375 143.50100708007812 -81.05830383300781 149.55599975585938C-83.42381286621094 179.79600524902344 -88.94331359863281 205.0070037841797 -101.30401611328125 241.93899536132812C-111.76701354980469 273.1809997558594 -117.45701599121094 295.343994140625 -122.08201599121094 322.7070007324219C-126.99601745605469 351.81500244140625 -129.46900939941406 381.0899963378906 -129.46900939941406 410.6679992675781C-129.46900939941406 520.1220092773438 -95.61361694335938 633.7340087890625 -26.374420166015625 758.3880004882812C-23.774520874023438 763.0770263671875 -22.133514404296875 764.4409790039062 -18.297515869140625 765.1010131835938Z" fill="black" /></g></svg>