<?xml version="1.0" encoding="utf-8" ?>
<svg baseProfile="tiny" height="100%" version="1.2" width="100%" xmlns="http://www.w3.org/2000/svg" xmlns:ev="http://www.w3.org/2001/xml-events" xmlns:xlink="http://www.w3.org/1999/xlink"><defs /><g transform="translate(0, 1000) scale(1, -1)"><path d="M-12.436599731445312 4480.06982421875C-11.333908081054688 4480.4599609375 -10.231109619140625 4480.64990234375 -9.16363525390625 4480.64990234375C-4.260406494140625 4480.64990234375 -0.100860595703125 4476.77001953125 -0.100860595703125 4471.41015625C-0.100860595703125 4468.919921875 -1.0497589111328125 4466.89990234375 -8.463088989257812 4453.56005859375C-258.6780242919922 4002.3701171875 -386.0060272216797 3483.719970703125 -386.0060272216797 2924.909912109375C-386.0060272216797 2750.739990234375 -373.6370086669922 2572.669921875 -348.76402282714844 2391.530029296875C-312.1120147705078 2124.949951171875 -245.27401733398438 1845.3199462890625 -155.8400115966797 1584.6700439453125C-131.22801208496094 1512.7900390625 -127.37301635742188 1500.75 -117.82402038574219 1466.050048828125C-86.68641662597656 1352.199951171875 -71.30540466308594 1236.5999755859375 -71.30540466308594 1121.52001953125C-71.30540466308594 863.531982421875 -148.5980224609375 608.1630249023438 -298.94602966308594 381.0400085449219C-392.8880157470703 239.1790008544922 -516.2450103759766 109.1199951171875 -656.3870391845703 4.147491455078125C-662.8510284423828 -0.656341552734375 -668.1290435791016 -4.8077850341796875 -668.1290435791016 -5.045013427734375C-668.1290435791016 -5.282257080078125 -662.8510284423828 -9.433700561523438 -656.3870391845703 -14.237503051757812C-516.2450103759766 -119.20999145507812 -392.8880157470703 -249.2689971923828 -298.94602966308594 -391.1300048828125C-148.5980224609375 -618.2529907226562 -71.30540466308594 -873.6220092773438 -71.30540466308594 -1131.6099853515625C-71.30540466308594 -1246.68994140625 -86.68641662597656 -1362.2900390625 -117.82402038574219 -1476.1400146484375C-127.37301635742188 -1510.9000244140625 -130.99002075195312 -1522.280029296875 -155.9580078125 -1595.050048828125C-194.5670166015625 -1707.6800537109375 -232.6420135498047 -1836.489990234375 -260.99000549316406 -1950.300048828125C-343.94801330566406 -2283.6201171875 -385.1050262451172 -2611.760009765625 -385.1050262451172 -2928.340087890625C-385.1050262451172 -3483.56005859375 -258.5170135498047 -4003.219970703125 -8.818923950195312 -4452.91015625C-1.825592041015625 -4465.5 -1.52587890625e-05 -4469.0 -1.52587890625e-05 -4471.68017578125C-1.52587890625e-05 -4472.41015625 -0.1351470947265625 -4473.080078125 -0.3380889892578125 -4473.85009765625C-1.4987640380859375 -4478.10986328125 -5.435791015625 -4480.64990234375 -9.432373046875 -4480.64990234375C-11.562118530273438 -4480.64990234375 -13.708816528320312 -4479.919921875 -15.461212158203125 -4478.35986328125C-16.232223510742188 -4477.64990234375 -21.925613403320312 -4467.97998046875 -28.093521118164062 -4456.89013671875C-331.32801818847656 -3909.669921875 -500.23301696777344 -3323.840087890625 -523.4220123291016 -2739.080078125C-525.0819854736328 -2697.860107421875 -525.3189849853516 -2685.219970703125 -525.6160430908203 -2624.610107421875C-525.6469879150391 -2618.39990234375 -525.6630401611328 -2612.18994140625 -525.6630401611328 -2605.989990234375C-525.6630401611328 -2285.1298828125 -483.4860076904297 -1982.5400390625 -396.3870086669922 -1677.7900390625C-378.35801696777344 -1614.6800537109375 -370.11402893066406 -1588.7099609375 -331.92100524902344 -1475.8499755859375C-273.58702087402344 -1303.239990234375 -245.3610076904297 -1129.9100341796875 -245.3610076904297 -963.7730102539062C-245.3610076904297 -577.906005859375 -397.6160125732422 -230.77499389648438 -678.5670318603516 -21.294998168945312C-693.0380401611328 -10.501205444335938 -693.9279937744141 -9.55230712890625 -693.9279937744141 -5.045013427734375C-693.9279937744141 -0.5377197265625 -693.0380401611328 0.4111785888671875 -678.5670318603516 11.205001831054688C-399.7160186767578 219.11700439453125 -245.4210205078125 564.4929809570312 -245.4210205078125 953.1019897460938C-245.4210205078125 1058.0 -256.6630096435547 1166.0400390625 -279.7310028076172 1275.3800048828125C-296.51502990722656 1354.9100341796875 -310.51100158691406 1403.5400390625 -348.4080047607422 1514.3900146484375C-456.46400451660156 1829.9000244140625 -514.2290191650391 2153.77001953125 -525.9120025634766 2509.25C-526.4160308837891 2524.43994140625 -526.6690216064453 2562.389892578125 -526.6690216064453 2600.449951171875C-526.6690216064453 2638.5 -526.4160308837891 2676.64990234375 -525.9120025634766 2692.219970703125C-522.1170196533203 2810.35009765625 -515.2370147705078 2905.659912109375 -502.90101623535156 3010.68994140625C-444.9590301513672 3504.06005859375 -282.8150177001953 3997.909912109375 -28.093521118164062 4456.8798828125C-15.995010375976562 4478.64990234375 -15.876419067382812 4478.759765625 -12.436614990234375 4480.06982421875Z" fill="black" /></g></svg>