<?xml version="1.0" encoding="utf-8" ?>
<svg baseProfile="tiny" height="100%" version="1.2" width="100%" xmlns="http://www.w3.org/2000/svg" xmlns:ev="http://www.w3.org/2001/xml-events" xmlns:xlink="http://www.w3.org/1999/xlink"><defs /><g transform="translate(0, 1000) scale(1, -1)"><path d="M-12.113204956054688 3670.6298828125C-11.148117065429688 3670.929931640625 -10.185714721679688 3671.070068359375 -9.249725341796875 3671.070068359375C-4.33026123046875 3671.070068359375 -0.1415557861328125 3667.199951171875 -0.1415557861328125 3661.909912109375C-0.193145751953125 3659.22998046875 -0.5543670654296875 3658.35009765625 -7.46905517578125 3645.909912109375C-148.13601684570312 3391.8798828125 -240.1950225830078 3112.909912109375 -283.6950225830078 2808.97998046875C-302.1790008544922 2679.89990234375 -311.3550262451172 2546.929931640625 -311.3550262451172 2411.3701171875C-311.3550262451172 2069.330078125 -252.9390106201172 1710.77001953125 -138.22901916503906 1356.47998046875L-105.97801208496094 1260.5999755859375C-69.36421203613281 1152.6099853515625 -51.0443115234375 1039.010009765625 -51.0443115234375 925.0360107421875C-51.0443115234375 812.6749877929688 -68.84811401367188 699.9429931640625 -104.48101806640625 591.8400268554688C-179.76901245117188 363.29400634765625 -332.61402893066406 155.64700317382812 -538.6100006103516 2.0276031494140625C-542.7379913330078 -1.01690673828125 -546.0919952392578 -3.700225830078125 -546.0919952392578 -3.9066314697265625C-546.0919952392578 -4.113037109375 -542.7899932861328 -6.7447509765625 -538.7650299072266 -9.737686157226562C-332.09800720214844 -164.0800018310547 -179.8200225830078 -370.9010009765625 -104.48101806640625 -599.6530151367188C-68.86082458496094 -707.7689819335938 -51.056915283203125 -820.5609741210938 -51.056915283203125 -932.9539794921875C-51.056915283203125 -1047.0400390625 -69.40261840820312 -1160.719970703125 -106.08100891113281 -1268.6800537109375C-121.81901550292969 -1314.9599609375 -140.49900817871094 -1371.0 -145.55601501464844 -1387.0999755859375C-255.91500854492188 -1738.3699951171875 -310.7880096435547 -2083.77001953125 -310.7880096435547 -2413.31005859375C-310.7880096435547 -2861.760009765625 -209.1680145263672 -3280.860107421875 -7.46905517578125 -3645.469970703125C-2.3853607177734375 -3654.64990234375 -1.52587890625e-05 -3659.77001953125 -1.52587890625e-05 -3663.18994140625C-1.52587890625e-05 -3665.840087890625 -1.4376678466796875 -3667.4599609375 -4.1665191650390625 -3669.159912109375C-6.1536712646484375 -3670.3701171875 -7.8251800537109375 -3671.070068359375 -9.414459228515625 -3671.070068359375C-13.644317626953125 -3671.070068359375 -17.291519165039062 -3666.110107421875 -24.755813598632812 -3652.639892578125C-300.33302307128906 -3155.739990234375 -439.97401428222656 -2634.7099609375 -439.97401428222656 -2123.530029296875C-439.97401428222656 -1817.8399658203125 -390.03700256347656 -1515.6700439453125 -289.3720245361328 -1224.300048828125C-263.57102966308594 -1149.5799560546875 -246.697021484375 -1087.239990234375 -233.64102172851562 -1018.1500244140625C-218.20001220703125 -936.4210205078125 -210.64801025390625 -856.051025390625 -210.64801025390625 -778.072021484375C-210.64801025390625 -462.5589904785156 -334.2890167236328 -186.20999145507812 -559.2509918212891 -17.68438720703125C-570.3969879150391 -9.324844360351562 -571.3260040283203 -8.292800903320312 -571.3260040283203 -3.9066162109375C-571.3260040283203 0.4795684814453125 -570.3969879150391 1.5116119384765625 -559.2509918212891 9.87115478515625C-334.2890167236328 178.39601135253906 -210.64801025390625 454.7460174560547 -210.64801025390625 770.2589874267578C-210.64801025390625 848.2370147705078 -218.20001220703125 928.6079864501953 -233.64102172851562 1010.3300323486328C-246.697021484375 1079.4300689697266 -263.51902770996094 1141.709976196289 -289.3720245361328 1216.479995727539C-390.46400451660156 1509.1500396728516 -441.11802673339844 1810.520034790039 -441.11802673339844 2117.429946899414C-441.11802673339844 2289.439956665039 -425.20802307128906 2463.189956665039 -393.3500213623047 2638.120132446289C-329.4660186767578 2988.659927368164 -206.55001831054688 3325.409927368164 -19.131118774414062 3663.149917602539C-16.80902099609375 3667.429946899414 -14.435317993164062 3669.959976196289 -12.11322021484375 3670.629898071289Z" fill="black" /></g></svg>