<?xml version="1.0" encoding="utf-8" ?>
<svg baseProfile="tiny" height="100%" version="1.2" width="100%" xmlns="http://www.w3.org/2000/svg" xmlns:ev="http://www.w3.org/2001/xml-events" xmlns:xlink="http://www.w3.org/1999/xlink"><defs /><g transform="translate(0, 1000) scale(1, -1)"><path d="M-13.04449462890625 4391.75C-11.825592041015625 4392.31982421875 -10.567306518554688 4392.58984375 -9.33746337890625 4392.58984375C-4.58447265625 4392.58984375 -0.2551422119140625 4388.64013671875 -0.2551422119140625 4383.3798828125C-0.255157470703125 4380.18017578125 -0.6039581298828125 4379.43017578125 -9.324005126953125 4363.7900390625C-254.12802124023438 3924.429931640625 -377.81700134277344 3411.0400390625 -377.81700134277344 2865.590087890625C-377.81700134277344 2465.10009765625 -311.13401794433594 2047.3299560546875 -176.74900817871094 1628.8900146484375L-135.18301391601562 1504.780029296875C-100.53604125976562 1402.3399658203125 -78.32862854003906 1289.800048828125 -71.759521484375 1183.010009765625C-69.66673278808594 1148.469970703125 -69.43423461914062 1140.510009765625 -69.43423461914062 1100.4599609375C-69.43423461914062 1060.4599609375 -69.66673278808594 1052.3199462890625 -71.759521484375 1018.2000122070312C-95.71063232421875 630.5609741210938 -303.4220275878906 261.0639953613281 -640.3070373535156 6.670654296875C-648.2710266113281 0.624755859375 -654.8400573730469 -4.490997314453125 -654.8400573730469 -4.6654052734375C-654.8400573730469 -4.8397979736328125 -648.2710266113281 -9.95556640625 -640.3070373535156 -16.001495361328125C-303.4220275878906 -270.3940124511719 -95.71063232421875 -639.8920288085938 -71.759521484375 -1027.530029296875C-69.66673278808594 -1061.6500244140625 -69.43423461914062 -1069.7900390625 -69.43423461914062 -1109.7900390625C-69.43423461914062 -1149.8399658203125 -69.66673278808594 -1157.800048828125 -71.759521484375 -1192.3399658203125C-78.32862854003906 -1299.1300048828125 -100.53604125976562 -1411.6700439453125 -135.1830291748047 -1514.1099853515625L-155.1810302734375 -1573.1099853515625C-303.426025390625 -2011.22998046875 -377.071044921875 -2449.090087890625 -377.071044921875 -2868.419921875C-377.071044921875 -3410.889892578125 -253.82003784179688 -3922.340087890625 -9.382156372070312 -4363.18017578125C-2.7891693115234375 -4375.1201171875 -3.0517578125e-05 -4380.64990234375 -3.0517578125e-05 -4384.169921875C-3.0517578125e-05 -4386.43017578125 -1.1426544189453125 -4387.85986328125 -3.1618499755859375 -4389.6298828125C-5.3415069580078125 -4391.52978515625 -7.2230377197265625 -4392.58984375 -9.0950927734375 -4392.58984375C-13.4642333984375 -4392.58984375 -17.781936645507812 -4386.81982421875 -25.717727661132812 -4372.5400390625C-312.2000274658203 -3855.3798828125 -477.9390106201172 -3303.68994140625 -510.3780059814453 -2759.330078125C-514.5430450439453 -2689.419921875 -516.6280059814453 -2620.010009765625 -516.6280059814453 -2551.050048828125C-516.6280059814453 -2240.739990234375 -474.4080047607422 -1939.52001953125 -389.4600067138672 -1642.5799560546875C-371.96202087402344 -1581.47998046875 -363.3000030517578 -1554.3299560546875 -326.5010223388672 -1445.510009765625C-287.14500427246094 -1329.300048828125 -261.33302307128906 -1210.93994140625 -249.416015625 -1092.3499755859375C-244.31301879882812 -1041.6800537109375 -241.7860107421875 -991.5549926757812 -241.7860107421875 -942.1699829101562C-241.7860107421875 -656.8079833984375 -326.1530303955078 -395.9939880371094 -485.3810272216797 -195.63400268554688C-537.1779937744141 -130.4669952392578 -601.1250152587891 -68.32180786132812 -664.1420440673828 -21.814804077148438C-675.4489898681641 -13.443603515625 -681.1020050048828 -9.039962768554688 -681.1020050048828 -4.6436004638671875C-681.1020050048828 -0.2472381591796875 -675.4489898681641 4.141845703125 -664.1420440673828 12.483993530273438C-432.01402282714844 183.5709991455078 -281.04100036621094 467.84498596191406 -248.5440216064453 794.9629974365234C-244.0130157470703 840.5120086669922 -241.7620086669922 886.6909637451172 -241.7620086669922 933.2639617919922C-241.7620086669922 1099.4300384521484 -270.4240264892578 1270.6199798583984 -326.5010223388672 1436.1800384521484C-373.06602478027344 1573.780014038086 -388.7040252685547 1625.3399505615234 -414.3990020751953 1725.0999603271484C-483.4020233154297 1993.540023803711 -517.5500030517578 2269.239974975586 -517.5500030517578 2547.360092163086C-517.5500030517578 3161.509994506836 -351.04600524902344 3787.459945678711 -25.659530639648438 4373.089828491211C-16.823226928710938 4389.020004272461 -15.835037231445312 4390.470199584961 -13.044525146484375 4391.749984741211Z" fill="black" /></g></svg>