<?xml version="1.0" encoding="utf-8" ?>
<svg baseProfile="tiny" height="100%" version="1.2" width="100%" xmlns="http://www.w3.org/2000/svg" xmlns:ev="http://www.w3.org/2001/xml-events" xmlns:xlink="http://www.w3.org/1999/xlink"><defs /><g transform="translate(0, 1000) scale(1, -1)"><path d="M-12.342803955078125 1900.93994140625C-11.281707763671875 1901.31005859375 -10.206207275390625 1901.47998046875 -9.156219482421875 1901.47998046875C-5.2451629638671875 1901.47998046875 -1.687103271484375 1899.06005859375 -0.5378265380859375 1895.25C-0.2120819091796875 1894.1500244140625 0.0 1893.300048828125 0.0 1892.4100341796875C0.0 1890.1700439453125 -1.318267822265625 1887.6199951171875 -5.48028564453125 1880.0999755859375C-102.4110107421875 1704.989990234375 -151.27200317382812 1501.56005859375 -151.27200317382812 1279.0400390625C-151.27200317382812 1140.77001953125 -132.40499877929688 995.1199951171875 -94.48019409179688 844.3200073242188C-79.93730163574219 786.4329833984375 -65.82099914550781 739.5679931640625 -39.36639404296875 661.3779907226562C-19.913299560546875 603.9000244140625 -10.418502807617188 545.6409912109375 -10.418502807617188 487.90301513671875C-10.418502807617188 308.1860046386719 -102.40899658203125 133.5260009765625 -272.40899658203125 3.2475738525390625C-276.10699462890625 0.43853759765625 -279.093994140625 -1.9793548583984375 -279.093994140625 -2.12158203125C-279.093994140625 -2.2638092041015625 -276.10699462890625 -4.6817169189453125 -272.40899658203125 -7.4907379150390625C-221.10000610351562 -46.817108154296875 -178.28900146484375 -88.59700012207031 -140.0290069580078 -136.5989990234375C-54.825592041015625 -243.57400512695312 -10.610107421875 -367.2869873046875 -10.610107421875 -492.614990234375C-10.610107421875 -542.4990234375 -17.615005493164062 -592.6389770507812 -31.82830810546875 -642.0819702148438C-34.17500305175781 -650.3670043945312 -37.01959228515625 -658.9359741210938 -46.691192626953125 -687.4180297851562C-115.61900329589844 -890.1170043945312 -150.9010009765625 -1092.780029296875 -150.9010009765625 -1281.7900390625C-150.9010009765625 -1344.6400146484375 -147.00100708007812 -1405.97998046875 -139.13999938964844 -1465.31005859375C-119.26400756835938 -1615.7099609375 -73.85699462890625 -1756.550048828125 -5.48028564453125 -1880.0799560546875C-1.318267822265625 -1887.5899658203125 0.0 -1890.1400146484375 0.0 -1892.3800048828125C0.0 -1893.280029296875 -0.2120819091796875 -1894.1300048828125 -0.5378265380859375 -1895.22998046875C-1.7059173583984375 -1899.1700439453125 -5.5001220703125 -1901.47998046875 -9.326034545898438 -1901.47998046875C-11.439697265625 -1901.47998046875 -13.563003540039062 -1900.780029296875 -15.258499145507812 -1899.25C-19.489898681640625 -1895.4100341796875 -59.740692138671875 -1818.6700439453125 -80.79071044921875 -1774.260009765625C-185.39999389648438 -1553.6300048828125 -239.94500732421875 -1340.780029296875 -248.906005859375 -1118.0899658203125C-249.28599548339844 -1108.52001953125 -249.51100158691406 -1086.22998046875 -249.51100158691406 -1066.719970703125C-249.51100158691406 -1055.2099609375 -249.43299865722656 -1044.6600341796875 -249.26100158691406 -1038.260009765625C-245.35000610351562 -892.5479736328125 -221.8470001220703 -762.1240234375 -174.73300170898438 -625.0859985351562C-152.08299255371094 -559.1619873046875 -139.4600067138672 -502.27099609375 -133.66400146484375 -440.010009765625C-131.79299926757812 -419.77398681640625 -130.8679962158203 -399.85198974609375 -130.8679962158203 -380.3039855957031C-130.8679962158203 -225.2550048828125 -189.04600524902344 -93.62879943847656 -294.6679992675781 -13.962203979492188C-302.31298828125 -8.166336059570312 -303.02398681640625 -7.4907379150390625 -303.8059997558594 -4.895050048828125C-304.1919860839844 -3.5964508056640625 -304.4209899902344 -2.5011749267578125 -304.4209899902344 -1.4906158447265625C-304.4209899902344 1.7877044677734375 -302.0060119628906 4.1744384765625 -294.6679992675781 9.718994140625C-207.8730010986328 75.17999267578125 -151.26499938964844 178.4029998779297 -135.79800415039062 299.40399169921875C-132.5070037841797 325.14801025390625 -130.8560028076172 351.0920104980469 -130.8560028076172 377.3269958496094C-130.8560028076172 455.12298583984375 -145.3769989013672 535.4869995117188 -174.73300170898438 620.843017578125C-218.22000122070312 747.35498046875 -241.8300018310547 869.1749877929688 -248.33700561523438 1000.4199829101562C-249.61700439453125 1026.68994140625 -249.75900268554688 1033.27001953125 -249.75900268554688 1069.219970703125C-249.75900268554688 1106.199951171875 -249.65199279785156 1111.5699462890625 -248.1230010986328 1141.4000244140625C-235.8209991455078 1386.8900146484375 -158.83900451660156 1641.43994140625 -22.51220703125 1887.3900146484375C-16.254196166992188 1898.699951171875 -15.365203857421875 1899.9100341796875 -12.342803955078125 1900.93994140625Z" fill="black" /></g></svg>