<?xml version="1.0" encoding="utf-8" ?>
<svg baseProfile="tiny" height="100%" version="1.2" width="100%" xmlns="http://www.w3.org/2000/svg" xmlns:ev="http://www.w3.org/2001/xml-events" xmlns:xlink="http://www.w3.org/1999/xlink"><defs /><g transform="translate(0, 1000) scale(1, -1)"><path d="M-15.902801513671875 368.3280029296875C-15.522994995117188 368.3659973144531 -15.148696899414062 368.385009765625 -14.781005859375 368.385009765625C-9.54901123046875 368.385009765625 -5.6318206787109375 364.62701416015625 -5.6318206787109375 359.3840026855469C-5.6318206787109375 357.135986328125 -5.79388427734375 356.6390075683594 -7.5968780517578125 353.3580017089844C-22.078903198242188 326.9410095214844 -29.318405151367188 296.4700012207031 -29.318405151367188 261.9360046386719C-29.318405151367188 245.11900329589844 -27.601593017578125 227.33700561523438 -24.168197631835938 208.5919952392578C-19.610107421875 183.76499938964844 -13.55279541015625 161.32899475097656 -3.352752685546875 131.57899475097656C-2.3094482421875 128.531005859375 -1.8131256103515625 126.8489990234375 -0.7799530029296875 122.8179931640625L-0.0506591796875 119.98199462890625L-0.0202789306640625 98.14309692382812L-1.52587890625e-05 76.314697265625L-0.75970458984375 73.26589965820312C-6.7865753173828125 49.057098388671875 -20.227935791015625 28.5657958984375 -43.454132080078125 8.165695190429688C-46.52333068847656 5.461212158203125 -51.051025390625 1.723541259765625 -53.25923156738281 0.0522308349609375C-53.57823181152344 -0.1908721923828125 -53.737823486328125 -0.2972259521484375 -53.737823486328125 -0.4035797119140625C-53.737823486328125 -0.5099334716796875 -53.57823181152344 -0.6162872314453125 -53.25923156738281 -0.8593902587890625C-51.051025390625 -2.5307159423828125 -46.52333068847656 -6.26837158203125 -43.454132080078125 -8.972854614257812C-20.227935791015625 -29.373001098632812 -6.7865753173828125 -49.86430358886719 -0.7597198486328125 -74.072998046875L-3.0517578125e-05 -77.12190246582031L-0.020294189453125 -98.95021057128906L-0.0506744384765625 -120.78901672363281L-0.77996826171875 -123.62501525878906C-1.8131561279296875 -127.65602111816406 -2.309478759765625 -129.3380126953125 -3.352783203125 -132.3870086669922C-14.231536865234375 -164.15200805664062 -20.5521240234375 -188.02601623535156 -24.968429565429688 -214.07801818847656C-27.82232666015625 -230.8760223388672 -29.2474365234375 -246.92800903320312 -29.2474365234375 -262.2050018310547C-29.2474365234375 -296.81101989746094 -21.9349365234375 -327.44602966308594 -7.3538055419921875 -353.79002380371094C-6.1415252685546875 -355.98802185058594 -5.5406951904296875 -357.8660125732422 -5.5406951904296875 -359.6330108642578C-5.5406951904296875 -361.02601623535156 -5.913818359375 -362.34901428222656 -6.6548919677734375 -363.7060089111328C-8.328231811523438 -366.78001403808594 -11.454437255859375 -368.38502502441406 -14.600830078125 -368.38502502441406C-17.168136596679688 -368.38502502441406 -19.7490234375 -367.31602478027344 -21.565032958984375 -365.10401916503906C-22.263931274414062 -364.2530059814453 -24.927932739257812 -359.5030059814453 -29.39483642578125 -351.1260223388672C-61.064239501953125 -291.82102966308594 -76.038330078125 -240.5440216064453 -76.038330078125 -190.8480224609375C-76.038330078125 -186.62901306152344 -75.93032836914062 -182.4210205078125 -75.71553039550781 -178.22100830078125C-74.55072021484375 -155.44100952148438 -70.6307373046875 -135.34400939941406 -62.95283508300781 -112.68501281738281C-55.47662353515625 -90.63531494140625 -51.83912658691406 -72.85520935058594 -51.83912658691406 -57.69561767578125C-51.83912658691406 -50.939910888671875 -52.5615234375 -44.704620361328125 -53.988525390625 -38.84381103515625C-56.956329345703125 -26.628021240234375 -63.89483642578125 -15.546707153320312 -72.78823852539062 -8.790542602539062C-75.91812133789062 -6.420318603515625 -76.73863220214844 -5.4276580810546875 -77.5084228515625 -3.05743408203125C-77.75152587890625 -2.3230743408203125 -77.87303161621094 -1.36334228515625 -77.87303161621094 -0.403594970703125C-77.87303161621094 0.5561370849609375 -77.75152587890625 1.5158843994140625 -77.5084228515625 2.250244140625C-76.73863220214844 4.6204681396484375 -75.91812133789062 5.613128662109375 -72.78823852539062 7.9833526611328125C-63.89483642578125 14.739486694335938 -56.956329345703125 25.820785522460938 -53.988525390625 38.03657531738281C-52.55583190917969 43.91697692871094 -51.829132080078125 50.14839172363281 -51.829132080078125 56.900787353515625C-51.829132080078125 72.06138610839844 -55.492523193359375 89.84779357910156 -63.05413818359375 112.18199157714844C-70.03312683105469 132.8049774169922 -74.03413391113281 152.14198303222656 -75.46234130859375 172.19699096679688C-75.89183044433594 178.24098205566406 -76.10862731933594 184.281982421875 -76.10862731933594 190.333984375C-76.10862731933594 243.37098693847656 -59.463134765625 297.31297302246094 -23.469329833984375 362.0179901123047C-21.129425048828125 366.2219696044922 -18.971923828125 368.0249786376953 -15.90283203125 368.32798767089844Z" fill="black" /></g></svg>