<?xml version="1.0" encoding="utf-8" ?>
<svg baseProfile="tiny" height="100%" version="1.2" width="100%" xmlns="http://www.w3.org/2000/svg" xmlns:ev="http://www.w3.org/2001/xml-events" xmlns:xlink="http://www.w3.org/1999/xlink"><defs /><g transform="translate(0, 1000) scale(1, -1)"><path d="M-16.395797729492188 997.93701171875C-15.777984619140625 998.0640258789062 -15.162384033203125 998.1259765625 -14.555984497070312 998.1259765625C-10.236480712890625 998.1259765625 -6.3829803466796875 995.0269775390625 -5.5518646240234375 990.5780029296875C-5.4447174072265625 990.0009765625 -5.382080078125 989.4819946289062 -5.382080078125 988.9639892578125C-5.382080078125 987.0549926757812 -6.2322540283203125 985.155029296875 -8.841262817382812 980.375C-55.22099304199219 895.6900024414062 -78.42498779296875 799.18798828125 -78.42498779296875 691.1019897460938C-78.42498779296875 628.2659912109375 -70.58277893066406 561.5150146484375 -54.89288330078125 490.89599609375C-44.55078125 444.3699951171875 -34.09718322753906 407.9360046386719 -14.527984619140625 350.3429870605469C-4.8438568115234375 321.7969970703125 1.52587890625e-05 291.7760009765625 1.52587890625e-05 261.72198486328125C1.52587890625e-05 232.16799926757812 -4.683563232421875 202.58200073242188 -14.054092407226562 174.33200073242188C-35.2122802734375 110.635009765625 -78.03018188476562 53.82330322265625 -143.37197875976562 2.8096771240234375C-146.02098083496094 0.746826171875 -148.1669921875 -1.037261962890625 -148.1669921875 -1.148773193359375C-148.1669921875 -1.2602691650390625 -146.02098083496094 -3.0443572998046875 -143.37197875976562 -5.1071929931640625C-78.03018188476562 -56.12080383300781 -35.2122802734375 -112.93299865722656 -14.054092407226562 -176.6300048828125C-4.683563232421875 -204.8800048828125 1.52587890625e-05 -234.46600341796875 1.52587890625e-05 -264.0190124511719C1.52587890625e-05 -294.0740051269531 -4.8438568115234375 -324.093994140625 -14.527984619140625 -352.6409912109375C-34.20867919921875 -410.5400085449219 -44.690185546875 -447.1419982910156 -55.0601806640625 -493.9739990234375C-70.50529479980469 -563.8489990234375 -78.22718811035156 -629.916015625 -78.22718811035156 -692.135986328125C-78.22718811035156 -799.822998046875 -55.09617614746094 -895.989990234375 -8.841262817382812 -980.4429931640625C-6.4289703369140625 -984.843017578125 -5.3521575927734375 -987.3480224609375 -5.3521575927734375 -989.4920043945312C-5.3521575927734375 -990.8660278320312 -5.7945404052734375 -992.0919799804688 -6.6111602783203125 -993.572998046875C-8.215911865234375 -996.5460205078125 -11.445587158203125 -998.1259765625 -14.646377563476562 -998.1259765625C-17.116989135742188 -998.1259765625 -19.570388793945312 -997.1849975585938 -21.246185302734375 -995.2169799804688C-24.479888916015625 -991.4819946289062 -48.95527648925781 -944.760986328125 -61.22077941894531 -918.9199829101562C-123.010986328125 -788.958984375 -153.8809814453125 -664.2169799804688 -153.8809814453125 -544.219970703125C-153.8809814453125 -477.5570068359375 -144.35398864746094 -412.3590087890625 -125.3079833984375 -348.5429992675781C-123.96998596191406 -344.1390075683594 -120.15098571777344 -332.3190002441406 -116.80598449707031 -322.28399658203125C-100.97198486328125 -274.95001220703125 -94.56088256835938 -245.093994140625 -91.43867492675781 -204.22799682617188C-90.85148620605469 -196.57000732421875 -90.56088256835938 -189.00799560546875 -90.56088256835938 -181.55599975585938C-90.56088256835938 -109.41600036621094 -117.79399108886719 -47.65150451660156 -166.75997924804688 -10.459396362304688C-171.91798400878906 -6.5288848876953125 -172.92098999023438 -4.995697021484375 -172.92098999023438 -1.148773193359375C-172.92098999023438 2.6981658935546875 -171.91798400878906 4.231353759765625 -166.75997924804688 8.16192626953125C-117.79399108886719 45.35400390625 -90.56088256835938 107.11900329589844 -90.56088256835938 179.25799560546875C-90.56088256835938 186.7100067138672 -90.85148620605469 194.27200317382812 -91.43867492675781 201.92999267578125C-94.53297424316406 242.2949981689453 -101.083984375 273.0979919433594 -116.24897766113281 318.3139953613281C-122.21397399902344 336.0710144042969 -124.1099853515625 342.0639953613281 -126.95298767089844 351.8489990234375C-145.0079803466797 413.9989929199219 -154.02398681640625 477.7120056152344 -154.02398681640625 542.8480224609375C-154.02398681640625 685.2860107421875 -110.90998840332031 834.5289916992188 -24.925888061523438 989.1290283203125C-21.19049072265625 995.8189697265625 -19.852386474609375 997.2130126953125 -16.395782470703125 997.93701171875Z" fill="black" /></g></svg>