<?xml version="1.0" encoding="utf-8" ?>
<svg baseProfile="tiny" height="100%" version="1.2" width="100%" xmlns="http://www.w3.org/2000/svg" xmlns:ev="http://www.w3.org/2001/xml-events" xmlns:xlink="http://www.w3.org/1999/xlink"><defs /><g transform="translate(0, 1000) scale(1, -1)"><path d="M-13.611907958984375 8310.7802734375C-12.167205810546875 8311.509765625 -10.680999755859375 8311.830078125 -9.245742797851562 8311.830078125C-4.3235931396484375 8311.830078125 0.0 8307.9697265625 0.0 8302.8896484375C0.0 8302.41015625 -0.0381011962890625 8301.919921875 -0.11737060546875 8301.419921875C-0.35137939453125 8300.01953125 -5.81158447265625 8289.490234375 -12.207794189453125 8277.9404296875C-499.3179931640625 7403.6298828125 -745.114013671875 6397.52978515625 -745.114013671875 5339.990234375C-745.114013671875 4534.7099609375 -602.5889892578125 3699.60009765625 -315.56201171875 2870.14990234375C-220.33399963378906 2594.860107421875 -174.2270050048828 2330.340087890625 -174.2270050048828 2053.9599609375C-174.2270050048828 1996.6500244140625 -176.2100067138672 1938.8199462890625 -180.1490020751953 1880.2900390625C-229.05599975585938 1151.4300537109375 -616.8099975585938 457.1199951171875 -1227.030029296875 5.87213134765625C-1238.030029296875 -2.2401885986328125 -1247.0699462890625 -9.104461669921875 -1247.0699462890625 -9.338470458984375C-1247.0699462890625 -9.572479248046875 -1236.8599853515625 -17.294815063476562 -1224.449951171875 -26.499114990234375C-679.7579956054688 -429.9309997558594 -307.37200927734375 -1034.6099548339844 -205.10899353027344 -1681.3299255371094C-184.33099365234375 -1812.7699890136719 -173.90699768066406 -1942.5699157714844 -173.90699768066406 -2071.519989013672C-173.90699768066406 -2345.310028076172 -220.90499877929688 -2615.249969482422 -315.56201171875 -2888.820037841797C-601.35302734375 -3714.449920654297 -743.2509765625 -4546.029754638672 -743.2509765625 -5348.129852294922C-743.2509765625 -6402.499969482422 -498.05999755859375 -7405.919891357422 -12.207794189453125 -8277.900360107422C-3.0117340087890625 -8294.440399169922 -0.1625518798828125 -8299.919891357422 -0.1625518798828125 -8303.429656982422C-0.1625518798828125 -8304.650360107422 -0.5089263916015625 -8305.629852294922 -1.05340576171875 -8306.759735107422C-2.6550750732421875 -8310.160125732422 -5.6550445556640625 -8311.830047607422 -8.822799682617188 -8311.830047607422C-12.134506225585938 -8311.830047607422 -15.629592895507812 -8309.999969482422 -17.902099609375 -8306.370086669922C-27.964508056640625 -8290.150360107422 -91.6929931640625 -8172.749969482422 -124.06399536132812 -8110.740203857422C-527.1840209960938 -7339.759735107422 -788.4169921875 -6497.560028076172 -882.8779907226562 -5664.950164794922C-884.2039794921875 -5653.330047607422 -885.6079711914062 -5641.629852294922 -885.9979858398438 -5638.819793701172C-886.4660034179688 -5636.009735107422 -888.1829833984375 -5620.410125732422 -889.8989868164062 -5604.109832763672C-909.1649780273438 -5420.569793701172 -919.8519897460938 -5254.810028076172 -925.0780029296875 -5057.700164794922C-926.1589965820312 -5016.729949951172 -926.6829833984375 -4972.529754638672 -926.6829833984375 -4926.459930419922C-926.6829833984375 -4773.129852294922 -920.885986328125 -4599.140106201172 -910.5689697265625 -4455.120086669922C-869.072021484375 -3877.279998779297 -758.3070068359375 -3343.350067138672 -563.6119995117188 -2781.800018310547C-455.0350036621094 -2468.790008544922 -402.6390075683594 -2151.219940185547 -402.6390075683594 -1844.2699890136719C-402.6390075683594 -1109.6899108886719 -702.7030029296875 -435.8539733886719 -1250.969970703125 -30.399261474609375C-1265.5999755859375 -19.556869506835938 -1272.9100341796875 -14.447662353515625 -1272.9100341796875 -9.338424682617188C-1272.9100341796875 -4.229217529296875 -1265.5999755859375 0.8799896240234375 -1250.969970703125 11.722427368164062C-711.6190185546875 410.58705139160156 -402.54998779296875 1079.1100006103516 -402.54998779296875 1823.0899810791016C-402.54998779296875 1905.6700592041016 -406.35699462890625 1989.1700592041016 -414.0799865722656 2073.340103149414C-436.3110046386719 2315.310073852539 -484.6730041503906 2534.810073852539 -570.4760131835938 2783.169937133789C-785.9990234375 3407.120132446289 -901.9110107421875 4028.100112915039 -924.6099853515625 4680.209976196289C-927.4180297851562 4762.339859008789 -927.72998046875 4782.470230102539 -927.72998046875 4902.129898071289C-927.72998046875 5021.859878540039 -927.4180297851562 5043.700210571289 -924.6099853515625 5125.600112915039C-886.8560180664062 6212.660171508789 -579.1339721679688 7300.640151977539 -31.86456298828125 8281.690444946289C-16.887969970703125 8308.599624633789 -16.341964721679688 8309.459976196289 -13.61187744140625 8310.780288696289Z" fill="black" /></g></svg>