<?xml version="1.0" encoding="utf-8" ?>
<svg baseProfile="tiny" height="100%" version="1.2" width="100%" xmlns="http://www.w3.org/2000/svg" xmlns:ev="http://www.w3.org/2001/xml-events" xmlns:xlink="http://www.w3.org/1999/xlink"><defs /><g transform="translate(0, 1000) scale(1, -1)"><path d="M-11.944107055664062 8093.4599609375C-11.153717041015625 8093.72021484375 -10.30181884765625 8093.83984375 -9.431610107421875 8093.83984375C-6.1133270263671875 8093.83984375 -2.5300445556640625 8092.0498046875 -1.085845947265625 8089.419921875C-0.4116363525390625 8088.18017578125 -1.52587890625e-05 8087.06005859375 -1.52587890625e-05 8085.66015625C-1.52587890625e-05 8081.97021484375 -2.878021240234375 8076.27978515625 -11.389312744140625 8061.0400390625C-430.9779968261719 7309.83984375 -672.39599609375 6440.22998046875 -716.5419921875 5520.60009765625C-722.010986328125 5406.39013671875 -723.5960083007812 5333.0 -723.6749877929688 5202.39013671875C-723.6749877929688 5082.5498046875 -722.406982421875 5018.18994140625 -718.1270141601562 4916.66015625C-688.1680297851562 4207.06982421875 -550.8150024414062 3503.18994140625 -302.58099365234375 2786.6201171875C-212.62100219726562 2527.0400390625 -168.14700317382812 2266.4599609375 -168.14700317382812 1998.780029296875C-168.14700317382812 1955.3900146484375 -169.31500244140625 1911.81005859375 -171.6479949951172 1868.030029296875C-210.24600219726562 1145.8299560546875 -581.25 466.51904296875 -1184.56005859375 13.087432861328125C-1200.489990234375 1.119537353515625 -1213.489990234375 -8.946151733398438 -1213.489990234375 -9.183914184570312C-1213.489990234375 -9.500946044921875 -1203.3399658203125 -17.34747314453125 -1190.9000244140625 -26.620574951171875C-583.6279907226562 -480.5279846191406 -210.40499877929688 -1161.5099792480469 -171.6479949951172 -1886.3999938964844C-169.22799682617188 -1931.7399597167969 -168.0070037841797 -1976.5400085449219 -168.0070037841797 -2020.9499206542969C-168.0070037841797 -2292.279998779297 -213.57899475097656 -2549.120086669922 -309.9519958496094 -2826.389862060547C-582.3619995117188 -3610.870086669922 -722.3480224609375 -4424.180145263672 -722.3480224609375 -5212.810028076172C-722.3480224609375 -5366.990203857422 -716.9970092773438 -5520.229949951172 -706.239013671875 -5672.120086669922C-645.1309814453125 -6534.999969482422 -407.2799987792969 -7352.700164794922 -11.547821044921875 -8060.939910888672C-2.953277587890625 -8076.359832763672 -0.033447265625 -8082.080047607422 -0.033447265625 -8085.799774169922C-0.033447265625 -8087.229949951172 -0.462371826171875 -8088.359832763672 -1.16510009765625 -8089.629852294922C-2.5627899169921875 -8092.269989013672 -6.0023193359375 -8093.839813232422 -9.455810546875 -8093.839813232422C-11.094009399414062 -8093.839813232422 -12.735321044921875 -8093.490203857422 -14.163314819335938 -8092.720184326172C-16.382522583007812 -8091.540008544922 -27.399307250976562 -8072.200164794922 -61.876312255859375 -8009.029754638672C-494.8590393066406 -7215.580047607422 -771.9430236816406 -6342.879852294922 -865.1500549316406 -5478.740203857422L-869.1130065917969 -5442.669891357422C-888.9270324707031 -5279.879852294922 -903.9860534667969 -4993.839813232422 -903.9860534667969 -4779.290008544922C-903.9860534667969 -4070.330047607422 -788.6670227050781 -3394.029998779297 -550.5770568847656 -2707.499969482422C-444.87103271484375 -2402.600067138672 -393.85504150390625 -2093.259979248047 -393.85504150390625 -1794.2799987792969C-393.85504150390625 -1081.1099548339844 -684.1140441894531 -426.9109802246094 -1214.7500305175781 -32.644073486328125C-1239.1700744628906 -14.494171142578125 -1238.9300842285156 -14.731964111328125 -1239.4800109863281 -11.561676025390625C-1239.7600402832031 -10.207366943359375 -1240.0100402832031 -9.16131591796875 -1240.0100402832031 -8.18609619140625C-1240.0100402832031 -4.3671875 -1236.1600646972656 -1.6336822509765625 -1214.7500305175781 14.276229858398438C-684.1610412597656 408.54905700683594 -393.8000183105469 1063.1999969482422 -393.8000183105469 1776.3300018310547C-393.8000183105469 2075.280075073242 -444.8280334472656 2384.510055541992 -550.5770568847656 2689.129928588867C-690.0700378417969 3090.730026245117 -781.2160339355469 3461.260055541992 -840.5800476074219 3867.300094604492C-876.8800354003906 4115.689987182617 -896.2190246582031 4347.040084838867 -904.1450500488281 4625.390182495117C-904.8180236816406 4649.129928588867 -905.1550598144531 4709.939987182617 -905.1550598144531 4770.870162963867C-905.1550598144531 4831.799850463867 -904.8180236816406 4892.850143432617 -904.1450500488281 4917.060104370117C-899.8650207519531 5070.259811401367 -892.9690246582031 5194.700241088867 -881.3980407714844 5328.410202026367C-878.1480407714844 5365.660202026367 -872.4420471191406 5425.180221557617 -871.8870544433594 5427.640182495117C-871.6490173339844 5428.509811401367 -870.0640563964844 5442.770065307617 -868.3200378417969 5459.339889526367C-772.4190368652344 6357.640182495117 -479.8000183105469 7265.850143432617 -26.28973388671875 8073.480026245117C-16.620330810546875 8090.600143432617 -15.431427001953125 8092.270065307617 -11.944137573242188 8093.460006713867Z" fill="black" /></g></svg>