<?xml version="1.0" encoding="utf-8" ?>
<svg baseProfile="tiny" height="100%" version="1.2" width="100%" xmlns="http://www.w3.org/2000/svg" xmlns:ev="http://www.w3.org/2001/xml-events" xmlns:xlink="http://www.w3.org/1999/xlink"><defs /><g transform="translate(0, 1000) scale(1, -1)"><path d="M-12.067306518554688 5360.58984375C-11.070907592773438 5360.89990234375 -10.08111572265625 5361.0400390625 -9.121917724609375 5361.0400390625C-4.1504974365234375 5361.0400390625 -1.52587890625e-05 5357.14013671875 -1.52587890625e-05 5351.759765625C-1.52587890625e-05 5349.22021484375 -1.2067413330078125 5346.740234375 -9.907867431640625 5331.1201171875C-314.5490417480469 4782.3798828125 -468.00103759765625 4150.18017578125 -468.00103759765625 3480.419921875C-468.00103759765625 2952.280029296875 -372.58001708984375 2400.780029296875 -180.62803649902344 1848.449951171875C-134.07403564453125 1714.3699951171875 -105.62002563476562 1573.25 -97.109619140625 1433.7099609375C-94.82322692871094 1395.47998046875 -94.56922912597656 1386.27001953125 -94.56922912597656 1335.9100341796875C-94.56922912597656 1285.5400390625 -94.82322692871094 1276.3299560546875 -97.109619140625 1238.0999755859375C-126.13504028320312 762.4580078125 -377.38702392578125 312.60400390625 -785.2610168457031 6.095367431640625C-793.8350524902344 -0.3193359375 -800.8210144042969 -5.8448638916015625 -800.8210144042969 -6.0989227294921875C-800.8210144042969 -6.35296630859375 -793.8350524902344 -11.878494262695312 -785.2610168457031 -18.293197631835938C-377.38702392578125 -324.80101013183594 -126.13504028320312 -774.6560211181641 -97.109619140625 -1250.300064086914C-94.82322692871094 -1288.530044555664 -94.56922912597656 -1297.740005493164 -94.56922912597656 -1348.0999908447266C-94.56922912597656 -1398.469985961914 -94.82322692871094 -1407.6800689697266 -97.109619140625 -1445.9100494384766C-105.62002563476562 -1585.449966430664 -133.88302612304688 -1725.8700103759766 -180.62803649902344 -1860.6500396728516C-241.85302734375 -2037.270034790039 -290.05902099609375 -2200.310073852539 -329.5000305175781 -2364.290054321289C-421.1360168457031 -2745.389907836914 -466.571044921875 -3121.709976196289 -466.571044921875 -3486.060073852539C-466.571044921875 -4155.319839477539 -313.2780456542969 -4784.250015258789 -11.43212890625 -5328.390151977539C-1.3337860107421875 -5346.620132446289 -3.0517578125e-05 -5349.350112915039 -3.0517578125e-05 -5351.890151977539C-3.0517578125e-05 -5357.290054321289 -3.747222900390625 -5361.040054321289 -9.145736694335938 -5361.040054321289H-10.204818725585938C-15.210311889648438 -5361.040054321289 -15.671112060546875 -5359.810073852539 -37.53550720214844 -5320.140151977539C-422.44300842285156 -4620.970230102539 -618.3800201416016 -3868.780044555664 -618.3800201416016 -3130.770034790039C-618.3800201416016 -2683.780044555664 -546.5040435791016 -2241.979995727539 -401.2040252685547 -1820.3199615478516C-355.92002868652344 -1688.9100494384766 -334.64402770996094 -1611.3600006103516 -314.3200225830078 -1503.3900299072266C-292.79600524902344 -1388.959976196289 -282.2990264892578 -1275.6500396728516 -282.2990264892578 -1165.050064086914C-282.2990264892578 -694.7450103759766 -472.0810089111328 -273.3930206298828 -810.7290191650391 -22.929611206054688C-821.7480010986328 -14.800018310546875 -827.2580108642578 -10.449508666992188 -827.2580108642578 -6.09893798828125C-827.2580108642578 -1.748382568359375 -821.7480010986328 2.6021881103515625 -810.7290191650391 10.731689453125C-578.4019927978516 182.53099060058594 -409.1430206298828 442.86598205566406 -331.84901428222656 747.2150115966797C-298.7680206298828 877.5049896240234 -282.28501892089844 1013.4499969482422 -282.28501892089844 1152.1399993896484C-282.28501892089844 1333.770004272461 -310.55601501464844 1520.0999603271484 -366.84400939941406 1704.5899505615234C-372.4970245361328 1723.009994506836 -387.67601013183594 1768.739974975586 -404.4440155029297 1817.6399993896484C-480.4040069580078 2039.1700286865234 -538.8980255126953 2281.090072631836 -575.2899932861328 2524.209945678711C-605.0330352783203 2722.889877319336 -619.7639923095703 2924.009994506836 -619.7639923095703 3126.110092163086C-619.7639923095703 3866.100082397461 -422.26600646972656 4619.220199584961 -41.02870178222656 5313.649887084961C-16.068496704101562 5359.129867553711 -15.878005981445312 5359.509750366211 -12.067306518554688 5360.589828491211Z" fill="black" /></g></svg>