<?xml version="1.0" encoding="utf-8" ?>
<svg baseProfile="tiny" height="100%" version="1.2" width="100%" xmlns="http://www.w3.org/2000/svg" xmlns:ev="http://www.w3.org/2001/xml-events" xmlns:xlink="http://www.w3.org/1999/xlink"><defs /><g transform="translate(0, 1000) scale(1, -1)"><path d="M-12.664901733398438 1506.3199462890625C-11.4923095703125 1506.77001953125 -10.308822631835938 1506.97998046875 -9.160690307617188 1506.97998046875C-4.2573394775390625 1506.97998046875 -1.52587890625e-05 1503.1600341796875 -1.52587890625e-05 1497.9100341796875C-1.52587890625e-05 1495.6099853515625 -0.37152099609375 1494.77001953125 -4.2554168701171875 1487.739990234375C-68.08641052246094 1372.510009765625 -105.541015625 1238.800048828125 -114.49101257324219 1094.2900390625C-115.8900146484375 1071.6600341796875 -116.58500671386719 1048.6300048828125 -116.58500671386719 1025.260009765625C-116.58500671386719 873.7620239257812 -87.38072204589844 707.81201171875 -31.408920288085938 543.7880249023438C-24.113906860351562 522.4769897460938 -21.4796142578125 514.406005859375 -19.757217407226562 508.4949951171875C-8.3797607421875 469.093994140625 -2.81085205078125 429.4119873046875 -2.81085205078125 390.0690002441406C-2.81085205078125 245.8260040283203 -77.66851806640625 106.14599609375 -215.57301330566406 1.5960845947265625C-217.73501586914062 -0.058807373046875 -219.52500915527344 -1.51104736328125 -219.52500915527344 -1.6461334228515625C-219.52500915527344 -1.781219482421875 -217.73501586914062 -3.23345947265625 -215.57301330566406 -4.888336181640625C-162.75201416015625 -44.94319152832031 -115.57101440429688 -94.04908752441406 -81.62940979003906 -144.4049835205078C-29.420211791992188 -221.75997924804688 -2.78076171875 -307.12498474121094 -2.78076171875 -393.10597229003906C-2.78076171875 -438.88697814941406 -10.33331298828125 -484.8429718017578 -25.600021362304688 -529.8560028076172C-52.95611572265625 -610.5399627685547 -68.5255126953125 -665.3539886474609 -83.25051879882812 -733.1699676513672C-105.22300720214844 -834.3049774169922 -116.15301513671875 -931.9109954833984 -116.15301513671875 -1024.9100189208984C-116.15301513671875 -1196.0699310302734 -79.12771606445312 -1351.6099700927734 -5.77520751953125 -1484.790023803711C-0.337738037109375 -1494.719955444336 -0.236419677734375 -1494.9200286865234 -0.06756591796875 -1497.1199798583984C-0.0504913330078125 -1497.3499603271484 -0.0421295166015625 -1497.5799407958984 -0.0421295166015625 -1497.810043334961C-0.0421295166015625 -1503.219955444336 -4.69482421875 -1506.979965209961 -9.403762817382812 -1506.979965209961C-11.60272216796875 -1506.979965209961 -13.813919067382812 -1506.1600189208984 -15.569412231445312 -1504.310043334961C-19.487014770507812 -1500.189926147461 -54.00311279296875 -1434.1600189208984 -70.48431396484375 -1399.3399505615234C-160.73301696777344 -1208.540023803711 -206.00601196289062 -1021.0599822998047 -206.00601196289062 -839.6149749755859C-206.00601196289062 -739.1389617919922 -192.12301635742188 -640.5159759521484 -164.30601501464844 -544.2100067138672C-159.5440216064453 -527.6949920654297 -155.52500915527344 -515.2329559326172 -145.08901977539062 -484.43199157714844C-126.37901306152344 -429.1449737548828 -116.55101013183594 -380.30897521972656 -112.39701843261719 -321.9829864501953C-112.07902526855469 -317.60997009277344 -111.93101501464844 -307.06398010253906 -111.93101501464844 -295.88499450683594C-111.93101501464844 -282.11598205566406 -112.15501403808594 -267.38597106933594 -112.56501770019531 -262.03599548339844C-116.61801147460938 -209.28298950195312 -126.61500549316406 -168.281982421875 -145.46002197265625 -126.94398498535156C-166.197021484375 -81.41798400878906 -198.7200164794922 -40.45127868652344 -236.2420196533203 -12.520980834960938C-243.40200805664062 -7.1848907470703125 -244.5170135498047 -5.7326507568359375 -244.5170135498047 -1.6461181640625C-244.5170135498047 2.4404296875 -243.40200805664062 3.892669677734375 -236.2420196533203 9.228805541992188C-198.7200164794922 37.15913391113281 -166.197021484375 78.125732421875 -145.46002197265625 123.65203857421875C-126.61500549316406 164.9900360107422 -116.61801147460938 205.9900360107422 -112.56501770019531 258.7440185546875C-112.15501403808594 264.093017578125 -111.93101501464844 278.82403564453125 -111.93101501464844 292.593017578125C-111.93101501464844 303.77203369140625 -112.07902526855469 314.3170166015625 -112.39701843261719 318.6910400390625C-116.55101013183594 377.01702880859375 -126.37901306152344 425.81903076171875 -145.08901977539062 481.1390380859375C-152.82301330566406 503.93603515625 -156.63902282714844 515.4860534667969 -159.4090118408203 524.5380554199219C-185.2110137939453 608.4640197753906 -200.4090118408203 694.6520080566406 -204.8330078125 781.8880310058594C-205.9820098876953 804.7860412597656 -206.15101623535156 812.6220397949219 -206.15101623535156 838.1200256347656C-206.15101623535156 867.2320251464844 -205.61001586914062 884.6260070800781 -203.8200225830078 912.2520446777344C-191.93202209472656 1095.4700012207031 -131.74900817871094 1291.8600158691406 -30.159317016601562 1478.7900695800781C-16.24481201171875 1504.3900451660156 -15.772018432617188 1505.1000061035156 -12.6649169921875 1506.3199768066406Z" fill="black" /></g></svg>