<?xml version="1.0" encoding="utf-8" ?>
<svg baseProfile="tiny" height="100%" version="1.2" width="100%" xmlns="http://www.w3.org/2000/svg" xmlns:ev="http://www.w3.org/2001/xml-events" xmlns:xlink="http://www.w3.org/1999/xlink"><defs /><g transform="translate(0, 1000) scale(1, -1)"><path d="M-15.131195068359375 1088C-14.51959228515625 1088.1300048828125 -13.913299560546875 1088.18994140625 -13.318099975585938 1088.18994140625C-8.371124267578125 1088.18994140625 -4.1926116943359375 1084.0899658203125 -4.1926116943359375 1079.1700439453125C-4.1926116943359375 1078.6300048828125 -4.2417144775390625 1078.0899658203125 -4.3442840576171875 1077.5400390625C-4.64166259765625 1075.780029296875 -4.6687164306640625 1075.760009765625 -9.07537841796875 1067.72998046875C-58.92039489746094 977.1710205078125 -84.80020141601562 868.2639770507812 -84.80020141601562 749.8790283203125C-84.80020141601562 738.625 -84.56629943847656 727.2860107421875 -84.09700012207031 715.8690185546875C-79.85250854492188 612.1900024414062 -56.088897705078125 495.2919921875 -16.374801635742188 382.79998779296875C-5.6077117919921875 352.29901123046875 -0.0797576904296875 318.52301025390625 -0.0797576904296875 284.6650085449219C-0.0797576904296875 269.2149963378906 -1.23077392578125 253.74899291992188 -3.5602874755859375 238.56900024414062C-16.888397216796875 151.43600463867188 -67.93020629882812 71.62899780273438 -153.03599548339844 4.8260040283203125L-159.79400634765625 -0.4728240966796875L-160.74099731445312 -1.22979736328125L-159.79400634765625 -1.9597320556640625C-159.281005859375 -2.392303466796875 -156.2530059814453 -4.7713623046875 -153.03599548339844 -7.2855987548828125C-67.93020629882812 -74.08860778808594 -16.888397216796875 -153.89501953125 -3.5602874755859375 -241.02902221679688C-1.186492919921875 -256.5340118408203 0.0 -271.96900939941406 0.0 -287.33201599121094C0.0 -321.31202697753906 -5.8036346435546875 -354.94602966308594 -17.402099609375 -388.23301696777344C-61.709991455078125 -515.2580108642578 -84.55300903320312 -640.1450347900391 -84.55300903320312 -752.5620269775391C-84.55300903320312 -785.4229888916016 -82.60110473632812 -817.2180328369141 -78.66299438476562 -847.6900177001953C-68.30859375 -928.0640411376953 -44.62620544433594 -1002.9199981689453 -9.07537841796875 -1067.750015258789C-4.64166259765625 -1075.810073852539 -4.64166259765625 -1075.810073852539 -4.3442840576171875 -1077.540054321289C-4.2361602783203125 -1078.1200103759766 -4.184722900390625 -1078.689956665039 -4.184722900390625 -1079.250015258789C-4.184722900390625 -1084.4300689697266 -8.681747436523438 -1088.189956665039 -13.3782958984375 -1088.189956665039C-15.4635009765625 -1088.189956665039 -17.587905883789062 -1087.449966430664 -19.375595092773438 -1085.760025024414C-23.376800537109375 -1081.969985961914 -51.952606201171875 -1027.0699615478516 -68.47090148925781 -991.3800201416016C-130.34800720214844 -857.7860260009766 -163.13699340820312 -721.3709869384766 -163.13699340820312 -598.6710357666016C-163.13699340820312 -589.2240142822266 -162.94200134277344 -579.8590240478516 -162.552001953125 -570.5830230712891C-159.17300415039062 -490.34400939941406 -147.8719940185547 -429.08302307128906 -122.48599243164062 -353.22300720214844C-108.86099243164062 -312.53602600097656 -102.18299865722656 -285.5280303955078 -98.04690551757812 -254.27601623535156C-95.28939819335938 -233.72901916503906 -94.53240966796875 -222.53701782226562 -94.53240966796875 -202.3690185546875C-94.53030395507812 -201.06101989746094 -94.52899169921875 -199.8410186767578 -94.52899169921875 -198.69801330566406C-94.52899169921875 -185.49002075195312 -94.70179748535156 -182.43601989746094 -95.72189331054688 -171.4140167236328C-102.156005859375 -103.09701538085938 -131.43499755859375 -46.35090637207031 -178.52999877929688 -11.01641845703125C-184.1529998779297 -6.771942138671875 -185.31500244140625 -5.0957794189453125 -185.31500244140625 -1.2298126220703125C-185.31500244140625 2.63616943359375 -184.1529998779297 4.3123321533203125 -178.52999877929688 8.556793212890625C-128.86700439453125 45.81077575683594 -100.56100463867188 103.583984375 -94.85679626464844 179.2279815673828C-94.61209106445312 182.45797729492188 -94.49479675292969 189.94699096679688 -94.49479675292969 197.89898681640625C-94.49479675292969 207.5179901123047 -94.66639709472656 217.81597900390625 -94.99200439453125 222.07798767089844C-98.39840698242188 267.06398010253906 -105.64399719238281 300.9919891357422 -122.48599243164062 350.7629852294922C-140.27499389648438 403.3729705810547 -150.95399475097656 449.41297912597656 -157.49600219726562 501.9419708251953C-161.2949981689453 532.4310150146484 -163.1909942626953 563.2899627685547 -163.1909942626953 594.4789886474609C-163.1909942626953 745.2880096435547 -118.8800048828125 903.7989959716797 -31.243896484375 1065.4300384521484C-19.673004150390625 1086.790023803711 -19.429702758789062 1087.1099700927734 -15.131195068359375 1087.999984741211Z" fill="black" /></g></svg>