<?xml version="1.0" encoding="utf-8" ?>
<svg baseProfile="tiny" height="100%" version="1.2" width="100%" xmlns="http://www.w3.org/2000/svg" xmlns:ev="http://www.w3.org/2001/xml-events" xmlns:xlink="http://www.w3.org/1999/xlink"><defs /><g transform="translate(0, 1000) scale(1, -1)"><path d="M-20.270599365234375 720.3660278320312C-19.398101806640625 720.6370239257812 -18.52130126953125 720.7650146484375 -17.661895751953125 720.7650146484375C-12.87060546875 720.7650146484375 -8.616226196289062 716.7960205078125 -8.616226196289062 711.6599731445312C-8.616226196289062 709.6339721679688 -8.977294921875 708.510986328125 -10.501800537109375 705.802978515625C-30.841796875 669.375 -45.22419738769531 627.6719970703125 -52.626007080078125 583.5819702148438C-56.75920104980469 558.9639892578125 -58.827606201171875 533.2979736328125 -58.827606201171875 506.43499755859375C-58.827606201171875 485.7130126953125 -57.5968017578125 464.27899169921875 -55.133392333984375 442.06500244140625C-48.81480407714844 384.9159851074219 -33.830596923828125 321.3689880371094 -11.685302734375 257.8210144042969C-4.1631011962890625 236.21800231933594 -0.97369384765625 218.64599609375 -0.0710296630859375 193.93299865722656C-0.02337646484375 192.6060028076172 0.0 191.22799682617188 0.0 189.8070068359375C0.0 175.677001953125 -2.31048583984375 157.2989959716797 -6.028594970703125 142.4810028076172C-19.026901245117188 90.60820007324219 -50.88090515136719 45.71580505371094 -105.10099792480469 2.86944580078125C-107.58799743652344 0.9237060546875 -109.61399841308594 -0.761260986328125 -109.61399841308594 -0.84149169921875C-109.61399841308594 -0.9217376708984375 -107.58799743652344 -2.6067047119140625 -105.10099792480469 -4.5524444580078125C-50.88090515136719 -47.3988037109375 -19.026901245117188 -92.29119873046875 -6.028594970703125 -144.16400146484375C-2.31048583984375 -158.98199462890625 0.0 -177.36000061035156 0.0 -191.49000549316406C0.0 -192.91099548339844 -0.02337646484375 -194.28900146484375 -0.0710296630859375 -195.61599731445312C-0.97369384765625 -220.32899475097656 -4.1631011962890625 -237.92100524902344 -11.685302734375 -259.5039978027344C-37.742095947265625 -334.2850036621094 -53.588897705078125 -407.9020080566406 -57.66090393066406 -473.2349853515625C-58.3656005859375 -484.5360107421875 -58.717193603515625 -495.68499755859375 -58.717193603515625 -506.67401123046875C-58.717193603515625 -581.3790283203125 -42.46820068359375 -648.64599609375 -10.501800537109375 -705.8809814453125C-9.297500610351562 -708.0349731445312 -8.738296508789062 -710.1849975585938 -8.738296508789062 -712.155029296875C-8.738296508789062 -717.0089721679688 -12.134902954101562 -720.7650146484375 -17.642898559570312 -720.7650146484375C-22.436996459960938 -720.7650146484375 -23.781005859375 -719.5009765625 -28.916107177734375 -710.2139892578125C-93.0111083984375 -593.875 -124.42500305175781 -487.80499267578125 -124.42500305175781 -386.0840148925781C-124.42500305175781 -357.1239929199219 -121.87899780273438 -328.5159912109375 -116.81500244140625 -300.1239929199219C-112.60299682617188 -276.5350036621094 -107.36700439453125 -256.5159912109375 -98.28070068359375 -229.31500244140625C-87.1278076171875 -195.93699645996094 -82.05279541015625 -174.03199768066406 -79.42510986328125 -147.97500610351562C-78.62689208984375 -139.98500061035156 -78.23069763183594 -132.20799255371094 -78.23069763183594 -124.65899658203125C-78.23069763183594 -74.72869873046875 -95.56478881835938 -34.811492919921875 -128.5500030517578 -9.667526245117188C-131.61900329589844 -7.340667724609375 -132.2209930419922 -6.7388916015625 -133.1230010986328 -5.1943359375C-133.83599853515625 -3.970733642578125 -134.19200134277344 -2.4061126708984375 -134.19200134277344 -0.84149169921875C-134.19200134277344 0.723114013671875 -133.83599853515625 2.2877349853515625 -133.1230010986328 3.5113372802734375C-132.2209930419922 5.0558929443359375 -131.61900329589844 5.6576690673828125 -128.5500030517578 7.984527587890625C-95.56478881835938 33.128509521484375 -78.23069763183594 73.04570007324219 -78.23069763183594 122.97599792480469C-78.23069763183594 130.52499389648438 -78.62689208984375 138.302001953125 -79.42510986328125 146.29200744628906C-82.03280639648438 172.2689971923828 -87.14779663085938 194.37399291992188 -98.18038940429688 227.33099365234375C-107.18699645996094 254.25100708007812 -112.34201049804688 273.74798583984375 -116.614990234375 297.177001953125C-121.90399169921875 326.11199951171875 -124.55899047851562 355.35101318359375 -124.55899047851562 384.9909973144531C-124.55899047851562 484.1700134277344 -94.83718872070312 587.843017578125 -34.65299987792969 699.6240234375C-24.523101806640625 718.4400024414062 -23.961502075195312 719.2420043945312 -20.270599365234375 720.3660278320312Z" fill="black" /></g></svg>