<?xml version="1.0" encoding="utf-8" ?>
<svg baseProfile="tiny" height="100%" version="1.2" width="100%" xmlns="http://www.w3.org/2000/svg" xmlns:ev="http://www.w3.org/2001/xml-events" xmlns:xlink="http://www.w3.org/1999/xlink"><defs /><g transform="translate(0, 1000) scale(1, -1)"><path d="M-12.421798706054688 293.87701416015625C-12.09698486328125 293.906005859375 -11.875991821289062 293.9219970703125 -11.635589599609375 293.9219970703125C-11.341079711914062 293.9219970703125 -11.017578125 293.89801025390625 -10.438491821289062 293.8450012207031C-6.3594512939453125 293.4679870605469 -2.9388275146484375 289.927001953125 -2.5774993896484375 285.7030029296875C-2.5506591796875 285.375 -2.536407470703125 285.0639953613281 -2.536407470703125 284.7619934082031C-2.536407470703125 283.0799865722656 -2.9800262451171875 281.7170104980469 -4.1512908935546875 279.5929870605469C-16.034881591796875 258.0010070800781 -21.978179931640625 233.39700317382812 -21.978179931640625 205.2949981689453C-21.978179931640625 176.33700561523438 -15.667587280273438 143.66299438476562 -3.0431976318359375 106.73899841308594C-1.42926025390625 102.01800537109375 -1.17230224609375 101.18299865722656 -0.4817657470703125 98.53289794921875L1.52587890625e-05 96.65399169921875V77.04568481445312V57.4373779296875L-0.441619873046875 55.72697448730469C-5.684967041015625 35.50038146972656 -18.692901611328125 16.767288208007812 -38.87939453125 0.370849609375C-39.35420227050781 -0.015380859375 -39.59100341796875 -0.16778564453125 -39.59100341796875 -0.3206634521484375C-39.59100341796875 -0.472900390625 -39.356201171875 -0.625640869140625 -38.88740539550781 -1.0102386474609375C-18.692901611328125 -17.406723022460938 -5.684967041015625 -36.13981628417969 -0.4416351318359375 -56.36640930175781L0.0 -58.07670593261719V-77.68501281738281V-97.29341125488281L-0.481781005859375 -99.17231750488281C-1.1402130126953125 -101.71000671386719 -1.4373016357421875 -102.67301940917969 -2.6176605224609375 -106.12602233886719C-9.113616943359375 -125.06800842285156 -13.393402099609375 -140.58901977539062 -16.773895263671875 -157.4190216064453C-20.20770263671875 -174.5430145263672 -21.928802490234375 -190.593017578125 -21.928802490234375 -205.64801025390625C-21.928802490234375 -233.54202270507812 -16.020599365234375 -258.02101135253906 -4.15130615234375 -279.5900115966797C-3.0271759033203125 -281.6210174560547 -2.7140045166015625 -282.53700256347656 -2.5775146484375 -284.07801818847656C-2.5541534423828125 -284.35801696777344 -2.542755126953125 -284.6330108642578 -2.542755126953125 -284.9040069580078C-2.542755126953125 -290.19102478027344 -6.871826171875 -293.92201232910156 -11.576705932617188 -293.92201232910156C-13.44189453125 -293.92201232910156 -15.366104125976562 -293.3360137939453 -17.103103637695312 -292.0280303955078C-18.564498901367188 -290.9280242919922 -18.957901000976562 -290.33302307128906 -22.418701171875 -283.9660186767578C-40.31669616699219 -251.08502197265625 -51.9114990234375 -220.37901306152344 -57.283294677734375 -191.62501525878906C-59.73100280761719 -178.53001403808594 -60.953094482421875 -165.50701904296875 -60.953094482421875 -152.6850128173828C-60.953094482421875 -136.65301513671875 -59.04229736328125 -120.93601989746094 -55.227691650390625 -105.78901672363281C-53.525390625 -99.01971435546875 -52.6260986328125 -96.03271484375 -49.79969787597656 -87.68191528320312C-44.72090148925781 -72.71830749511719 -42.151092529296875 -59.185516357421875 -42.151092529296875 -47.57171630859375C-42.151092529296875 -43.11921691894531 -42.52880859375 -38.94880676269531 -43.28770446777344 -35.08790588378906C-45.56809997558594 -23.485122680664062 -50.98809814453125 -14.427719116210938 -59.53959655761719 -7.923736572265625C-62.31219482421875 -5.8151092529296875 -63.62620544433594 -3.42138671875 -63.62620544433594 -0.4293060302734375C-63.62620544433594 -0.1285858154296875 -63.61289978027344 0.1781768798828125 -63.58650207519531 0.491302490234375C-63.34559631347656 3.29364013671875 -62.15730285644531 5.292999267578125 -59.53959655761719 7.2843475341796875C-47.979400634765625 16.074188232421875 -42.1658935546875 29.513290405273438 -42.1658935546875 47.054779052734375C-42.1658935546875 58.64549255371094 -44.7041015625 72.02738952636719 -49.79969787597656 87.04258728027344C-52.57789611816406 95.2327880859375 -53.525390625 98.38038635253906 -55.187591552734375 104.94898986816406C-58.12640380859375 116.50297546386719 -60.013397216796875 128.8369903564453 -60.66380310058594 140.63998413085938C-60.92070007324219 145.36997985839844 -60.95280456542969 146.30899047851562 -61.001007080078125 150.55699157714844C-61.008697509765625 151.2659912109375 -61.01249694824219 151.97499084472656 -61.01249694824219 152.6849822998047C-61.01249694824219 194.40798950195312 -47.784698486328125 238.37098693847656 -20.451400756835938 287.54197692871094C-17.986297607421875 291.99098205566406 -15.98699951171875 293.5559844970703 -12.421798706054688 293.8769989013672Z" fill="black" /></g></svg>