<?xml version="1.0" encoding="utf-8" ?>
<svg baseProfile="tiny" height="100%" version="1.2" width="100%" xmlns="http://www.w3.org/2000/svg" xmlns:ev="http://www.w3.org/2001/xml-events" xmlns:xlink="http://www.w3.org/1999/xlink"><defs /><g transform="translate(0, 1000) scale(1, -1)"><path d="M-18.536697387695312 952.1580200195312C-17.400680541992188 952.5960083007812 -16.252578735351562 952.7999877929688 -15.136688232421875 952.7999877929688C-10.295791625976562 952.7999877929688 -6.0622406005859375 948.9569702148438 -6.0622406005859375 943.7260131835938C-6.0622406005859375 941.3060302734375 -6.2484283447265625 940.8800048828125 -10.317886352539062 933.458984375C-53.59169006347656 854.6290283203125 -75.23918151855469 763.47998046875 -75.23918151855469 661.4860229492188C-75.23918151855469 563.81298828125 -55.3870849609375 456.19500732421875 -15.664077758789062 339.9280090332031C-7.4453277587890625 315.93701171875 -3.03009033203125 296.2279968261719 -1.1416473388671875 275.4280090332031C-0.3798675537109375 266.9649963378906 1.52587890625e-05 258.56500244140625 1.52587890625e-05 250.22999572753906C1.52587890625e-05 157.00399780273438 -47.529388427734375 72.0260009765625 -139.76998901367188 0.83148193359375C-141.09999084472656 -0.192535400390625 -141.76498413085938 -0.6247406005859375 -141.76498413085938 -1.0569610595703125C-141.76498413085938 -1.4891815185546875 -141.09999084472656 -1.92138671875 -139.76998901367188 -2.945404052734375C-47.529388427734375 -74.13999938964844 1.52587890625e-05 -159.1179962158203 1.52587890625e-05 -252.343994140625C1.52587890625e-05 -260.6789855957031 -0.3798675537109375 -269.0790100097656 -1.1416473388671875 -277.5419921875C-3.0566864013671875 -298.6340026855469 -7.39215087890625 -317.78399658203125 -15.956680297851562 -342.9729919433594C-56.0662841796875 -460.74798583984375 -74.81779479980469 -562.3790283203125 -74.81779479980469 -661.8809814453125C-74.81779479980469 -685.3410034179688 -74.71138000488281 -689.5960083007812 -73.72727966308594 -705.3690185546875C-68.64707946777344 -788.114990234375 -46.67718505859375 -867.083984375 -10.317886352539062 -933.4459838867188C-6.2484283447265625 -940.8660278320312 -6.0622406005859375 -941.2919921875 -6.0622406005859375 -943.7119750976562C-6.0622406005859375 -949.1530151367188 -10.538284301757812 -952.7999877929688 -15.182388305664062 -952.7999877929688C-17.349578857421875 -952.7999877929688 -19.553390502929688 -952.0059814453125 -21.355987548828125 -950.22900390625C-23.457290649414062 -948.1810302734375 -35.452880859375 -926.2379760742188 -47.98048400878906 -901.5280151367188C-115.42198181152344 -768.6079711914062 -149.208984375 -640.1939697265625 -149.208984375 -517.5650024414062C-149.208984375 -445.72601318359375 -137.6129913330078 -375.87298583984375 -114.39497375488281 -308.2619934082031C-109.2349853515625 -293.260986328125 -105.93698120117188 -282.64898681640625 -102.74598693847656 -270.8919982910156C-93.60818481445312 -237.16299438476562 -88.93247985839844 -203.63099670410156 -88.93247985839844 -172.6490020751953C-88.93247985839844 -160.97300720214844 -89.59658813476562 -149.65899658203125 -90.93608093261719 -138.83399963378906C-97.55897521972656 -84.94670104980469 -121.97598266601562 -39.703704833984375 -160.010986328125 -10.76519775390625C-165.6759796142578 -6.4297332763671875 -166.71298217773438 -4.94024658203125 -166.71298217773438 -1.0569610595703125C-166.71298217773438 2.826324462890625 -165.6759796142578 4.3158111572265625 -160.010986328125 8.651260375976562C-145.9399871826172 19.343597412109375 -133.33297729492188 32.72230529785156 -123.03999328613281 47.88310241699219C-100.37098693847656 81.21800231933594 -88.88548278808594 122.98100280761719 -88.88548278808594 170.88299560546875C-88.88548278808594 194.52999877929688 -91.68467712402344 219.6739959716797 -97.31959533691406 246.03700256347656C-101.22898864746094 264.30999755859375 -105.59199523925781 280.0830078125 -111.78898620605469 298.43499755859375C-119.23597717285156 320.4320068359375 -121.94898986816406 329.02301025390625 -125.59298706054688 342.0559997558594C-141.52297973632812 399.3169860839844 -149.50099182128906 457.63299560546875 -149.50099182128906 517.1630249023438C-149.50099182128906 652.051025390625 -108.54098510742188 793.1710205078125 -26.329788208007812 942.3699951171875C-22.313583374023438 949.6840209960938 -21.116683959960938 951.1740112304688 -18.53668212890625 952.1580200195312Z" fill="black" /></g></svg>