<?xml version="1.0" encoding="utf-8" ?>
<svg baseProfile="tiny" height="100%" version="1.2" width="100%" xmlns="http://www.w3.org/2000/svg" xmlns:ev="http://www.w3.org/2001/xml-events" xmlns:xlink="http://www.w3.org/1999/xlink"><defs /><g transform="translate(0, 1000) scale(1, -1)"><path d="M-12.0791015625 1732.1199951171875C-11.149093627929688 1732.469970703125 -10.191604614257812 1732.6400146484375 -9.241943359375 1732.6400146484375C-4.81634521484375 1732.6400146484375 -0.5620880126953125 1729.0899658203125 -0.0676116943359375 1724.3499755859375C-0.0262298583984375 1723.9599609375 0.0 1723.5999755859375 0.0 1723.25C0.0 1721.18994140625 -0.8916778564453125 1719.3399658203125 -4.8721923828125 1712.199951171875C-91.94461059570312 1554.7099609375 -136.3520050048828 1371.1300048828125 -136.3520050048828 1170.1199951171875C-136.3520050048828 1137.9599609375 -135.21600341796875 1105.3599853515625 -132.93499755859375 1072.3399658203125C-122.76100158691406 924.81201171875 -89.94149780273438 767.6389770507812 -37.90370178222656 617.3189697265625C-24.090499877929688 577.3980102539062 -17.837493896484375 553.1640014648438 -12.714996337890625 519.6380004882812C-8.973922729492188 495.1860046386719 -7.1300048828125 470.739990234375 -7.1300048828125 446.4169921875C-7.1300048828125 280.0989990234375 -93.34739685058594 119.52400207519531 -248.77499389648438 1.9441070556640625C-251.4250030517578 -0.069580078125 -253.61500549316406 -1.835968017578125 -253.61500549316406 -1.9772796630859375C-253.61500549316406 -2.1186065673828125 -251.4250030517578 -3.884979248046875 -248.77499389648438 -5.8986663818359375C-93.34739685058594 -123.47900390625 -7.1300048828125 -284.0539855957031 -7.1300048828125 -450.37200927734375C-7.1300048828125 -474.69500732421875 -8.973922729492188 -499.1400146484375 -12.714996337890625 -523.5919799804688C-17.837493896484375 -557.1179809570312 -24.090499877929688 -581.35302734375 -37.90370178222656 -621.2730102539062C-59.10029602050781 -682.4959716796875 -78.38929748535156 -749.655029296875 -93.01499938964844 -813.10302734375C-121.67999267578125 -937.6110229492188 -135.947998046875 -1057.5999755859375 -135.947998046875 -1171.7900390625C-135.947998046875 -1372.1400146484375 -92.02439880371094 -1554.6099853515625 -4.8721923828125 -1712.27001953125C-0.8916778564453125 -1719.4100341796875 0.0 -1721.260009765625 0.0 -1723.31005859375C0.0 -1723.6700439453125 -0.0262298583984375 -1724.030029296875 -0.0676116943359375 -1724.4200439453125C-0.5785064697265625 -1729.4599609375 -4.905792236328125 -1732.6400146484375 -9.30645751953125 -1732.6400146484375C-11.600296020507812 -1732.6400146484375 -13.914199829101562 -1731.77001953125 -15.717803955078125 -1729.8599853515625C-16.848297119140625 -1728.68994140625 -23.242599487304688 -1717.3199462890625 -33.38169860839844 -1698.52001953125C-139.1529998779297 -1502.3800048828125 -204.5449981689453 -1298.5799560546875 -224.25799560546875 -1103.5C-228.73699951171875 -1059.199951171875 -230.9739990234375 -1015.2100219726562 -230.9739990234375 -971.60302734375C-230.9739990234375 -835.3419799804688 -209.13800048828125 -702.708984375 -165.6490020751953 -575.3469848632812L-158.54800415039062 -554.3270263671875C-134.48899841308594 -481.2460021972656 -122.75900268554688 -409.91900634765625 -122.75900268554688 -343.2349853515625C-122.75900268554688 -203.9029998779297 -173.968994140625 -84.84170532226562 -270.9259948730469 -12.399002075195312C-276.43701171875 -8.30096435546875 -276.5780029296875 -8.159652709960938 -277.6730041503906 -6.0753173828125C-278.4330139160156 -4.6500244140625 -278.8219909667969 -3.2952117919921875 -278.8219909667969 -1.966644287109375C-278.8219909667969 1.2162628173828125 -276.5899963378906 4.2484588623046875 -271.8800048828125 7.73785400390625C-174.39100646972656 79.69140625 -122.78199768066406 199.677001953125 -122.78199768066406 339.6369934082031C-122.78199768066406 408.02899169921875 -135.10499572753906 481.1910095214844 -160.4199981689453 555.8489990234375C-178.08399963378906 607.9569702148438 -184.4429931640625 629.1539916992188 -194.5469970703125 669.427001953125C-219.08900451660156 767.1190185546875 -231.2830047607422 867.4400024414062 -231.2830047607422 969.3939819335938C-231.2830047607422 1207.780029296875 -164.62100219726562 1455.0899658203125 -33.27569580078125 1698.6300048828125C-16.38909912109375 1730.0 -15.929794311523438 1730.6700439453125 -12.0791015625 1732.1199951171875Z" fill="black" /></g></svg>