<?xml version="1.0" encoding="utf-8" ?>
<svg baseProfile="tiny" height="100%" version="1.2" width="100%" xmlns="http://www.w3.org/2000/svg" xmlns:ev="http://www.w3.org/2001/xml-events" xmlns:xlink="http://www.w3.org/1999/xlink"><defs /><g transform="translate(0, 1000) scale(1, -1)"><path d="M-15.581100463867188 361.0150146484375C-15.124679565429688 361.0740051269531 -14.677688598632812 361.1029968261719 -14.241378784179688 361.1029968261719C-9.037002563476562 361.1029968261719 -5.34942626953125 357.0 -5.34942626953125 352.1780090332031C-5.34942626953125 350.5469970703125 -5.771240234375 348.8349914550781 -6.6988525390625 347.1700134277344C-21.2537841796875 321.0769958496094 -28.537490844726562 291.364013671875 -28.537490844726562 257.0690002441406C-28.537490844726562 220.6269989013672 -20.313491821289062 179.01199340820312 -3.8506011962890625 131.07000732421875C-2.2230072021484375 126.32598876953125 -1.6176300048828125 124.34100341796875 -0.6450653076171875 120.47100830078125L1.52587890625e-05 117.89100646972656V95.94801330566406V73.99562072753906L-0.6450653076171875 71.42521667480469C-7.1752166748046875 45.36412048339844 -23.252487182617188 22.677322387695312 -50.44499206542969 1.16156005859375C-51.50688171386719 0.3179931640625 -52.38018798828125 -0.3965606689453125 -52.38018798828125 -0.42633056640625C-52.38018798828125 -0.4561004638671875 -51.50688171386719 -1.1706390380859375 -50.44499206542969 -2.0142059326171875C-23.252487182617188 -23.529983520507812 -7.1752166748046875 -46.21678161621094 -0.6450653076171875 -72.27787780761719L1.52587890625e-05 -74.84828186035156V-96.80067443847656V-118.74296569824219L-0.6450653076171875 -121.32395935058594C-1.6176300048828125 -125.18394470214844 -2.2230072021484375 -127.18894958496094 -3.8009796142578125 -131.77395629882812C-20.317779541015625 -179.7709503173828 -28.490676879882812 -221.18695068359375 -28.490676879882812 -257.3009490966797C-28.490676879882812 -270.55296325683594 -27.390182495117188 -283.09095764160156 -25.197677612304688 -294.9779510498047C-21.743988037109375 -313.72496032714844 -15.402389526367188 -331.6179656982422 -6.6988525390625 -347.2289581298828C-5.758270263671875 -348.9159393310547 -5.32586669921875 -350.65394592285156 -5.32586669921875 -352.3059539794922C-5.32586669921875 -357.0659637451172 -8.919403076171875 -361.1029510498047 -14.290878295898438 -361.1029510498047C-17.962890625 -361.1029510498047 -20.49359130859375 -359.5149688720703 -22.498291015625 -355.97193908691406C-44.88739013671875 -316.4939422607422 -60.68678283691406 -277.5109405517578 -68.41778564453125 -242.71694946289062C-72.58038330078125 -223.9599609375 -74.65419006347656 -205.220947265625 -74.65419006347656 -186.81495666503906C-74.65419006347656 -161.16494750976562 -70.62638854980469 -136.16395568847656 -62.61207580566406 -112.66995239257812C-54.513885498046875 -88.94065856933594 -51.20909118652344 -73.18095397949219 -51.04039001464844 -57.490753173828125C-51.03688049316406 -57.162353515625 -51.035186767578125 -56.835052490234375 -51.035186767578125 -56.508758544921875C-51.035186767578125 -35.52064514160156 -58.25538635253906 -18.727951049804688 -71.66297912597656 -8.603866577148438C-73.34019470214844 -7.3434906005859375 -73.85627746582031 -6.8869781494140625 -74.48149108886719 -6.1228179931640625C-75.8162841796875 -4.4902801513671875 -76.48368835449219 -2.458282470703125 -76.48368835449219 -0.426300048828125C-76.48368835449219 1.6056976318359375 -75.8162841796875 3.6376800537109375 -74.48149108886719 5.270233154296875C-73.85627746582031 6.0343780517578125 -73.34019470214844 6.49090576171875 -71.66297912597656 7.75128173828125C-67.02838134765625 11.254547119140625 -62.60218811035156 16.286148071289062 -59.35688781738281 21.754440307617188C-53.77497863769531 31.13275146484375 -50.99668884277344 42.1927490234375 -50.99668884277344 55.42414855957031C-50.99668884277344 65.50535583496094 -52.60948181152344 76.8470458984375 -55.823883056640625 89.66604614257812C-57.37208557128906 95.84884643554688 -59.07908630371094 101.41604614257812 -62.760986328125 112.26405334472656C-66.86958312988281 124.41105651855469 -70.02548217773438 137.46104431152344 -72.04008483886719 150.7200469970703C-73.82017517089844 162.4230499267578 -74.71519470214844 174.2430419921875 -74.71519470214844 186.22103881835938C-74.71519470214844 238.61705017089844 -57.58778381347656 294.03004455566406 -22.498291015625 355.91404724121094C-20.771484375 358.9600372314453 -18.498779296875 360.63804626464844 -15.581085205078125 361.0150604248047Z" fill="black" /></g></svg>