<?xml version="1.0" encoding="utf-8" ?>
<svg baseProfile="tiny" height="100%" version="1.2" width="100%" xmlns="http://www.w3.org/2000/svg" xmlns:ev="http://www.w3.org/2001/xml-events" xmlns:xlink="http://www.w3.org/1999/xlink"><defs /><g transform="translate(0, 1000) scale(1, -1)"><path d="M-11.544403076171875 10280.900390625C-10.941802978515625 10281.099609375 -10.3258056640625 10281.099609375 -9.707931518554688 10281.099609375C-6.1237030029296875 10281.099609375 -2.4765625 10279.2001953125 -1.0329132080078125 10276.5C-0.4236907958984375 10275.400390625 -0.021728515625 10274.400390625 -0.021728515625 10273.0C-0.021728515625 10268.900390625 -3.870086669921875 10261.599609375 -17.3345947265625 10237.400390625C-580.5009765625 9226.23046875 -891.9249877929688 8056.9599609375 -927.5579833984375 6820.35009765625C-929.927001953125 6738.18994140625 -931.1099853515625 6655.9501953125 -931.1099853515625 6573.6298828125C-931.1099853515625 5569.4501953125 -754.9739990234375 4554.02978515625 -405.7250061035156 3545.219970703125C-327.4230041503906 3319.139892578125 -280.656005859375 3121.56005859375 -252.86300659179688 2899.030029296875C-237.18699645996094 2773.830078125 -229.47900390625 2648.669921875 -229.47900390625 2524.14990234375C-229.47900390625 1552.6600341796875 -698.6669921875 620.4760131835938 -1512.9000244140625 11.85089111328125C-1529.739990234375 -0.70947265625 -1543.550048828125 -11.310012817382812 -1543.550048828125 -11.66632080078125C-1543.550048828125 -12.022735595703125 -1529.739990234375 -22.62322998046875 -1512.9000244140625 -35.183624267578125C-879.364990234375 -508.7350158691406 -442.7820129394531 -1189.9300842285156 -290.0989990234375 -1943.3700256347656C-249.7830047607422 -2142.389923095703 -229.73899841308594 -2344.730010986328 -229.73899841308594 -2546.889923095703C-229.73899841308594 -2884.760040283203 -285.72900390625 -3222.100128173828 -396.6390075683594 -3542.449981689453C-541.1270141601562 -3959.800079345703 -642.6790161132812 -4319.500030517578 -726.14697265625 -4709.759796142578C-862.5679931640625 -5347.819854736328 -928.2550048828125 -5957.759796142578 -928.2550048828125 -6587.180206298828C-928.2550048828125 -6599.330108642578 -928.22998046875 -6611.490264892578 -928.1810302734375 -6623.649932861328C-927.7360229492188 -6738.480010986328 -927.2899780273438 -6764.399932861328 -924.885009765625 -6844.129913330078C-887.114990234375 -8074.600128173828 -576.5809936523438 -9234.509796142578 -15.10760498046875 -10241.599639892578C-3.52374267578125 -10262.400421142578 0.0 -10269.099639892578 0.0 -10273.099639892578C0.0 -10274.500030517578 -0.4027252197265625 -10275.500030517578 -1.0329132080078125 -10276.700225830078C-2.6283416748046875 -10279.599639892578 -5.8799285888671875 -10281.099639892578 -9.152389526367188 -10281.099639892578C-12.274993896484375 -10281.099639892578 -15.416595458984375 -10279.799835205078 -17.156494140625 -10277.000030517578C-23.124801635742188 -10267.500030517578 -82.54139709472656 -10159.200225830078 -108.19699096679688 -10111.200225830078C-645.3510437011719 -9104.990264892578 -976.5520324707031 -8026.580108642578 -1088.7900695800781 -6918.959991455078C-1091.7300109863281 -6890.270050048828 -1094.6700744628906 -6861.049835205078 -1095.4700012207031 -6853.930206298828C-1101.1800842285156 -6800.029815673828 -1111.5100402832031 -6661.509796142578 -1116.8500061035156 -6568.870147705078C-1125.8700256347656 -6411.270050048828 -1130.3700256347656 -6254.350128173828 -1130.3700256347656 -6098.080108642578C-1130.3700256347656 -5202.509796142578 -982.3000183105469 -4328.480010986328 -685.4370422363281 -3470.659942626953C-547.2890319824219 -3071.470001220703 -480.6850280761719 -2691.169952392578 -480.6850280761719 -2299.010040283203C-480.6850280761719 -2265.330108642578 -481.1770324707031 -2231.570098876953 -482.1560363769531 -2197.699981689453C-508.1670227050781 -1302.5300598144531 -903.7730407714844 -501.9649963378906 -1554.5100402832031 -28.146209716796875C-1565.2400207519531 -20.307113647460938 -1570.6100158691406 -15.986709594726562 -1570.6100158691406 -11.66632080078125C-1570.6100158691406 -7.3459625244140625 -1565.2400207519531 -3.0255584716796875 -1554.5100402832031 4.813507080078125C-971.2070007324219 429.5489807128906 -589.0520324707031 1120.7199401855469 -500.9520263671875 1910.2399597167969C-487.2420349121094 2033.0299987792969 -480.3690185546875 2155.590057373047 -480.3690185546875 2278.229949951172C-480.3690185546875 2663.969940185547 -548.3620300292969 3050.489959716797 -685.4370422363281 3447.320037841797C-965.8620300292969 4259.109832763672 -1107.5000305175781 5042.040008544922 -1130.7500305175781 5909.499969482422C-1132.1000061035156 5960.430145263672 -1132.7600402832031 6015.189910888672 -1132.7600402832031 6072.319793701172C-1132.7600402832031 6263.509735107422 -1125.3800354003906 6481.330047607422 -1111.8600158691406 6671.589813232422C-1107.7700500488281 6729.580047607422 -1098.5899963378906 6841.999969482422 -1097.2600402832031 6849.749969482422C-1096.9900207519531 6851.259735107422 -1094.4100646972656 6876.290008544922 -1091.4700012207031 6905.419891357422C-979.1350402832031 8025.249969482422 -641.1640319824219 9120.940399169922 -95.72531127929688 10134.099578857422C-35.32879638671875 10246.499969482422 -15.998397827148438 10280.099578857422 -11.544403076171875 10280.900360107422Z" fill="black" /></g></svg>