<?xml version="1.0" encoding="utf-8" ?>
<svg baseProfile="tiny" height="100%" version="1.2" width="100%" xmlns="http://www.w3.org/2000/svg" xmlns:ev="http://www.w3.org/2001/xml-events" xmlns:xlink="http://www.w3.org/1999/xlink"><defs /><g transform="translate(0, 1000) scale(1, -1)"><path d="M-16.9324951171875 396.2659912109375C-16.5469970703125 396.3110046386719 -16.163604736328125 396.3330078125 -15.784103393554688 396.3330078125C-12.917694091796875 396.3330078125 -10.27099609375 395.0790100097656 -8.603256225585938 392.8710021972656C-7.315032958984375 391.1759948730469 -6.6701812744140625 389.4339904785156 -6.6701812744140625 387.5679931640625C-6.6701812744140625 385.8290100097656 -7.230438232421875 383.9830017089844 -8.3521728515625 381.96600341796875C-22.478103637695312 356.50799560546875 -30.207000732421875 328.0379943847656 -32.09550476074219 294.5249938964844C-32.21220397949219 292.4169921875 -32.281402587890625 286.281005859375 -32.281402587890625 280.9440002441406C-32.281402587890625 277.7959899902344 -32.257293701171875 274.92498779296875 -32.20469665527344 273.32501220703125C-30.91650390625 235.76100158691406 -21.943206787109375 192.79400634765625 -5.2082366943359375 144.0959930419922C-2.92669677734375 137.447998046875 -1.7040557861328125 133.14599609375 -0.51416015625 127.5570068359375L-0.0447540283203125 125.37400817871094L-0.022918701171875 105.89900207519531C-0.0124053955078125 100.6190185546875 0.0 96.74790954589844 0.0 93.855712890625C0.0 84.7296142578125 -0.123504638671875 85.34440612792969 -0.8198089599609375 82.14471435546875C-6.8566131591796875 54.63520812988281 -22.030502319335938 31.17572021484375 -48.72129821777344 8.076492309570312C-50.664398193359375 6.3953399658203125 -51.5050048828125 5.696685791015625 -56.450103759765625 1.7121734619140625C-57.88020324707031 0.565948486328125 -59.048309326171875 -0.405609130859375 -59.048309326171875 -0.4383697509765625C-59.048309326171875 -0.4711151123046875 -57.88020324707031 -1.44268798828125 -56.46110534667969 -2.5889129638671875C-51.5050048828125 -6.57342529296875 -50.664398193359375 -7.2720794677734375 -48.72129821777344 -8.953216552734375C-22.030502319335938 -32.052490234375 -6.8566131591796875 -55.51197814941406 -0.8198089599609375 -83.021484375C-0.123504638671875 -86.22117614746094 0.0 -85.60638427734375 0.0 -94.73237609863281C0.0 -97.62467956542969 -0.0124053955078125 -101.49497985839844 -0.022918701171875 -106.77598571777344L-0.0447540283203125 -126.25099182128906L-0.51416015625 -128.4340057373047C-1.7040557861328125 -134.04498291015625 -2.8939361572265625 -138.21498107910156 -5.219146728515625 -145.0159912109375C-23.235305786132812 -197.5909881591797 -32.235198974609375 -243.177978515625 -32.235198974609375 -283.1189727783203C-32.235198974609375 -320.69398498535156 -24.26959228515625 -353.27198791503906 -8.3521728515625 -381.96897888183594C-7.1600341796875 -384.11097717285156 -6.681793212890625 -385.55397033691406 -6.681793212890625 -387.2109832763672C-6.681793212890625 -387.5719757080078 -6.7044830322265625 -387.94297790527344 -6.747467041015625 -388.33299255371094C-7.2901458740234375 -393.20997619628906 -11.397705078125 -396.33299255371094 -15.73199462890625 -396.33299255371094C-17.675094604492188 -396.33299255371094 -19.663894653320312 -395.70497131347656 -21.39739990234375 -394.3259735107422C-22.80560302734375 -393.21299743652344 -23.1221923828125 -392.6999969482422 -27.903594970703125 -383.93397521972656C-64.15840148925781 -317.45997619628906 -81.17019653320312 -260.82298278808594 -81.17019653320312 -205.6859893798828C-81.17019653320312 -199.29598999023438 -80.94171142578125 -192.92698669433594 -80.48818969726562 -186.56398010253906C-78.9381103515625 -164.708984375 -74.51690673828125 -143.2589874267578 -67.17010498046875 -121.93898010253906C-59.14250183105469 -98.62498474121094 -55.12620544433594 -78.91238403320312 -55.12620544433594 -62.17668151855469C-55.12620544433594 -44.70658874511719 -59.5028076171875 -30.4805908203125 -68.26181030273438 -18.788986206054688C-70.72889709472656 -15.4921875 -74.93170166015625 -11.245681762695312 -78.04290771484375 -8.89862060546875L-79.96420288085938 -7.4139862060546875C-82.08529663085938 -5.692840576171875 -83.22988891601562 -3.1026763916015625 -83.22988891601562 -0.444305419921875C-83.22988891601562 0.960784912109375 -82.91009521484375 2.38494873046875 -82.24578857421875 3.70989990234375C-81.514404296875 5.172698974609375 -80.66290283203125 6.0569305419921875 -78.04290771484375 8.021896362304688C-74.93170166015625 10.368911743164062 -70.72889709472656 14.61541748046875 -68.26181030273438 17.912216186523438C-59.500091552734375 29.605621337890625 -55.12359619140625 43.83161926269531 -55.12359619140625 61.29931640625C-55.12359619140625 78.04402160644531 -59.145294189453125 97.76762390136719 -67.18099975585938 121.09501647949219C-75.01910400390625 143.82301330566406 -79.560302734375 166.84600830078125 -80.82659912109375 190.218017578125C-81.1759033203125 196.7130126953125 -81.24139404296875 199.15802001953125 -81.24139404296875 205.1730194091797C-81.24139404296875 211.21002197265625 -81.16500854492188 213.85202026367188 -80.82659912109375 220.23802185058594C-78.04290771484375 271.9490203857422 -60.45649719238281 325.11302185058594 -24.857894897460938 389.4980010986328C-22.227005004882812 394.2360076904297 -20.327499389648438 395.8620147705078 -16.9324951171875 396.26600646972656Z" fill="black" /></g></svg>