<?xml version="1.0" encoding="utf-8" ?>
<svg baseProfile="tiny" height="100%" version="1.2" width="100%" xmlns="http://www.w3.org/2000/svg" xmlns:ev="http://www.w3.org/2001/xml-events" xmlns:xlink="http://www.w3.org/1999/xlink"><defs /><g transform="translate(0, 1000) scale(1, -1)"><path d="M-12.062896728515625 3434.60009765625C-10.694305419921875 3435.02001953125 -9.425872802734375 3435.2099609375 -8.270034790039062 3435.2099609375C-3.4537506103515625 3435.2099609375 -0.592987060546875 3431.7900390625 -0.592987060546875 3426.75C-0.592987060546875 3423.93994140625 -1.4804229736328125 3420.6298828125 -3.4116973876953125 3417.139892578125C-123.8070068359375 3200.340087890625 -204.08799743652344 2972.93994140625 -249.8159942626953 2719.3798828125C-276.427001953125 2571.8798828125 -289.6210021972656 2418.330078125 -289.6210021972656 2261.010009765625C-289.6210021972656 1914.7900390625 -225.718994140625 1550.300048828125 -100.27400207519531 1191.780029296875C-63.27349853515625 1086.010009765625 -45.11610412597656 976.7570190429688 -45.11610412597656 867.7540283203125C-45.11610412597656 639.06298828125 -125.03900146484375 411.4729919433594 -278.54998779296875 219.49600219726562C-344.72198486328125 136.69200134277344 -427.885986328125 56.56549072265625 -507.4460144042969 -1.1090240478515625C-509.37701416015625 -2.4993896484375 -510.3429870605469 -3.091583251953125 -510.3429870605469 -3.68377685546875C-510.3429870605469 -4.275970458984375 -509.37701416015625 -4.8681640625 -507.4460144042969 -6.2585296630859375L-493.1820068359375 -17.02099609375C-260.42401123046875 -194.93699645996094 -105.78399658203125 -440.1050109863281 -59.90190124511719 -704.0180053710938C-50.079498291015625 -760.4180297851562 -45.1925048828125 -817.2449951171875 -45.1925048828125 -873.9390258789062C-45.1925048828125 -984.2869873046875 -63.70610046386719 -1094.1300048828125 -100.37699890136719 -1199.3499755859375C-226.3719940185547 -1560.7900390625 -289.0559997558594 -1919.3399658203125 -289.0559997558594 -2260.419921875C-289.0559997558594 -2679.639892578125 -194.36300659179688 -3072.469970703125 -6.1409454345703125 -3411.889892578125C-1.9973297119140625 -3419.340087890625 0.0 -3423.889892578125 0.0 -3427.090087890625C0.0 -3429.780029296875 -1.4069061279296875 -3431.52001953125 -4.1326446533203125 -3433.2099609375C-6.1580657958984375 -3434.449951171875 -7.8161773681640625 -3435.2099609375 -9.403671264648438 -3435.2099609375C-13.789596557617188 -3435.2099609375 -17.6365966796875 -3429.429931640625 -27.202499389648438 -3412.14990234375C-281.25201416015625 -2953.699951171875 -415.0740051269531 -2458.669921875 -415.0740051269531 -1980.8299560546875C-415.0740051269531 -1949.6800537109375 -414.5050048828125 -1918.6099853515625 -413.364990234375 -1887.6300048828125C-403.8380126953125 -1629.030029296875 -358.47100830078125 -1387.050048828125 -273.4010009765625 -1141.2099609375C-258.98199462890625 -1099.5 -247.6529998779297 -1061.75 -238.281005859375 -1024.4200439453125C-212.76800537109375 -922.3690185546875 -200.3489990234375 -821.7880249023438 -200.3489990234375 -725.0479736328125C-200.3489990234375 -431.85400390625 -314.4259948730469 -173.93798828125 -523.822021484375 -17.278488159179688C-534.68701171875 -9.142242431640625 -535.614013671875 -8.060836791992188 -535.614013671875 -3.6837615966796875C-535.614013671875 0.693328857421875 -534.68701171875 1.77471923828125 -523.822021484375 9.91094970703125C-314.4259948730469 166.5700225830078 -200.3489990234375 424.4860076904297 -200.3489990234375 717.6800079345703C-200.3489990234375 814.4210357666016 -212.76800537109375 915.0009918212891 -238.281005859375 1017.0500030517578C-248.06500244140625 1056.1400299072266 -258.7760009765625 1091.459976196289 -275.614990234375 1140.280044555664C-369.09698486328125 1411.189956665039 -415.7130126953125 1689.3199615478516 -415.7130126953125 1976.250015258789C-415.7130126953125 2028.6700592041016 -414.1570129394531 2081.379898071289 -411.0469970703125 2134.389907836914C-385.81500244140625 2563.610122680664 -253.67799377441406 3003.629898071289 -27.202499389648438 3412.500015258789C-17.006393432617188 3430.939956665039 -15.101104736328125 3433.669937133789 -12.062896728515625 3434.600112915039Z" fill="black" /></g></svg>