<?xml version="1.0" encoding="utf-8" ?>
<svg baseProfile="tiny" height="100%" version="1.2" width="100%" xmlns="http://www.w3.org/2000/svg" xmlns:ev="http://www.w3.org/2001/xml-events" xmlns:xlink="http://www.w3.org/1999/xlink"><defs /><g transform="translate(0, 1000) scale(1, -1)"><path d="M-13.878402709960938 11741.2998046875C-12.466812133789062 11742.099609375 -10.986007690429688 11742.400390625 -9.5390625 11742.400390625C-4.5700531005859375 11742.400390625 -1.52587890625e-05 11738.2998046875 -1.52587890625e-05 11733.2001953125C-1.52587890625e-05 11732.599609375 -0.057464599609375 11732.0 -0.178253173828125 11731.400390625C-0.4617156982421875 11730.0 -7.359039306640625 11716.900390625 -15.484710693359375 11702.400390625C-615.5530090332031 10628.099609375 -969.6790466308594 9393.759765625 -1051.5000305175781 8091.669921875C-1063.9399719238281 7893.68017578125 -1070.1300354003906 7694.3701171875 -1070.1300354003906 7494.14013671875C-1070.1300354003906 6357.68017578125 -870.7050476074219 5191.81005859375 -482.7080383300781 4072.320068359375L-443.4970397949219 3957.239990234375C-328.6880187988281 3603.659912109375 -272.21502685546875 3246.719970703125 -272.21502685546875 2874.550048828125C-272.21502685546875 2866.6201171875 -272.24102783203125 2858.679931640625 -272.2920227050781 2850.739990234375C-272.7650451660156 2772.699951171875 -273.1430358886719 2760.510009765625 -276.2610168457031 2697.580078125C-329.36102294921875 1642.010009765625 -871.4149780273438 645.7670288085938 -1741.52001953125 4.5045166015625C-1754.0799560546875 -4.754913330078125 -1764.3800048828125 -12.691604614257812 -1764.3800048828125 -13.16400146484375C-1764.3800048828125 -13.636398315429688 -1754.0799560546875 -21.573104858398438 -1741.52001953125 -30.832504272460938C-871.4149780273438 -672.0949554443359 -329.36102294921875 -1668.3299407958984 -276.2610168457031 -2723.909896850586C-273.1430358886719 -2786.840072631836 -272.7650451660156 -2799.030014038086 -272.2920227050781 -2877.070053100586C-272.2430419921875 -2884.770004272461 -272.218017578125 -2892.469955444336 -272.218017578125 -2900.159896850586C-272.218017578125 -3291.929916381836 -335.90203857421875 -3673.850082397461 -462.11102294921875 -4039.129867553711L-520.0290222167969 -4208.729965209961C-884.4980163574219 -5300.560043334961 -1067.6000061035156 -6416.020004272461 -1067.6000061035156 -7502.169906616211C-1067.6000061035156 -8371.809555053711 -950.2190246582031 -9222.650375366211 -714.5720520019531 -10027.499984741211C-587.0180358886719 -10463.099594116211 -418.9310302734375 -10900.999984741211 -230.34103393554688 -11288.799789428711C-224.1050262451172 -11301.499984741211 -219.09803771972656 -11311.999984741211 -219.09803771972656 -11312.200180053711C-219.0980224609375 -11313.400375366211 -146.8170166015625 -11456.900375366211 -129.8100128173828 -11489.700180053711L-8.681808471679688 -11714.499984741211C-3.194366455078125 -11724.299789428711 -0.4593505859375 -11731.200180053711 -0.4593505859375 -11735.700180053711C-0.4593505859375 -11740.299789428711 -3.3951416015625 -11742.400375366211 -9.24871826171875 -11742.400375366211H-10.455108642578125C-15.360198974609375 -11742.400375366211 -16.1083984375 -11740.799789428711 -41.656707763671875 -11694.700180053711C-697.4699401855469 -10514.499984741211 -1104.9799499511719 -9222.139633178711 -1234.8000183105469 -7910.609848022461C-1237.9200134277344 -7878.859848022461 -1241.3199157714844 -7844.850082397461 -1242.3599548339844 -7835.020004272461C-1254.6399841308594 -7718.339828491211 -1269.8499450683594 -7477.120101928711 -1275.8999938964844 -7301.660140991211C-1279.4899597167969 -7196.990219116211 -1281.2900085449219 -7092.290023803711 -1281.2900085449219 -6987.629867553711C-1281.2900085449219 -5966.540023803711 -1110.7399597167969 -4948.410140991211 -777.9709777832031 -3989.520004272461C-628.0239562988281 -3557.540023803711 -557.3499450683594 -3193.399887084961 -540.2489929199219 -2765.959945678711C-539.1089782714844 -2737.540023803711 -538.5649719238281 -2694.209945678711 -538.5649719238281 -2648.060043334961C-538.5649719238281 -2587.100082397461 -539.5139465332031 -2521.219955444336 -541.2879943847656 -2478.249984741211C-583.2389831542969 -1471.4300384521484 -1028.4499206542969 -582.5250091552734 -1762.9699401855469 -38.86357116699219C-1788.9499206542969 -19.5888671875 -1791.2199401855469 -17.60467529296875 -1791.2199401855469 -13.163970947265625C-1791.2199401855469 -8.72320556640625 -1788.9499206542969 -6.739044189453125 -1762.9699401855469 12.535736083984375C-987.0509948730469 586.8570251464844 -538.6479797363281 1538.8900451660156 -538.6479797363281 2609.520050048828C-538.6479797363281 2618.240020751953 -538.6779479980469 2626.959991455078 -538.7369689941406 2635.699981689453C-539.3039855957031 2710.149932861328 -539.7759704589844 2730.939971923828 -542.2329406738281 2786.399932861328C-559.6179504394531 3169.909942626953 -634.0709533691406 3547.280059814453 -769.1839904785156 3937.679962158203C-1112.6299743652344 4929.810089111328 -1283.7299499511719 5936.319854736328 -1283.7299499511719 6966.529815673828C-1283.7299499511719 6985.520050048828 -1283.6700134277344 7004.520050048828 -1283.5500183105469 7023.529815673828C-1282.0400085449219 7286.950225830078 -1266.1700134277344 7620.770050048828 -1246.1399841308594 7812.950225830078L-1240.9399108886719 7865.390167236328C-1111.4999694824219 9187.589874267578 -720.9019470214844 10451.200225830078 -77.08816528320312 11630.599639892578C-31.074462890625 11714.900421142578 -16.996368408203125 11739.500030517578 -13.878372192382812 11741.299835205078Z" fill="black" /></g></svg>