<?xml version="1.0" encoding="utf-8" ?>
<svg baseProfile="tiny" height="100%" version="1.2" width="100%" xmlns="http://www.w3.org/2000/svg" xmlns:ev="http://www.w3.org/2001/xml-events" xmlns:xlink="http://www.w3.org/1999/xlink"><defs /><g transform="translate(0, 1000) scale(1, -1)"><path d="M-18.6387939453125 897.0579833984375C-17.723602294921875 897.35498046875 -16.797607421875 897.4940185546875 -15.887603759765625 897.4940185546875C-11.2705078125 897.4940185546875 -7.0671539306640625 893.906005859375 -6.79522705078125 889.0960083007812C-6.775665283203125 888.72998046875 -6.7628936767578125 888.4000244140625 -6.7628936767578125 888.0880126953125C-6.7628936767578125 886.0050048828125 -7.3323974609375 884.7470092773438 -10.250595092773438 879.4550170898438C-20.64190673828125 860.5759887695312 -30.782806396484375 838.291015625 -38.97059631347656 816.2559814453125C-60.539093017578125 758.27197265625 -71.30729675292969 694.06201171875 -71.30729675292969 624.3889770507812C-71.30729675292969 532.6170043945312 -52.624908447265625 431.3680114746094 -15.333602905273438 322.38299560546875C-6.6700286865234375 297.0690002441406 -2.613677978515625 278.864990234375 -0.8859710693359375 257.5069885253906C-0.2949371337890625 250.27200317382812 0.0 243.08900451660156 0.0 235.95899963378906C0.0 148.8419952392578 -44.028106689453125 69.67770385742188 -129.98800659179688 2.557586669921875C-132.36700439453125 0.6796417236328125 -134.32000732421875 -0.9228668212890625 -134.32000732421875 -1.0230255126953125C-134.32000732421875 -1.1231842041015625 -132.36700439453125 -2.7256927490234375 -129.98800659179688 -4.6036376953125C-44.028106689453125 -71.72369384765625 0.0 -150.88900756835938 0.0 -238.0050048828125C0.0 -245.13499450683594 -0.2949371337890625 -252.3179931640625 -0.8859710693359375 -259.5530090332031C-2.613677978515625 -280.9110107421875 -6.695068359375 -299.1650085449219 -15.333602905273438 -324.4289855957031C-52.71710205078125 -433.54998779296875 -70.970703125 -532.405029296875 -70.970703125 -625.375C-70.970703125 -646.0330200195312 -70.87049865722656 -649.7139892578125 -69.96910095214844 -665.06298828125C-65.38699340820312 -742.5339965820312 -44.62950134277344 -817.0759887695312 -10.250595092773438 -879.4979858398438C-7.360076904296875 -884.739990234375 -6.7553253173828125 -886.0239868164062 -6.7553253173828125 -888.072021484375C-6.7553253173828125 -888.4010009765625 -6.7709503173828125 -888.75 -6.79522705078125 -889.1380004882812C-7.0951080322265625 -894.219970703125 -11.462997436523438 -897.4940185546875 -15.923797607421875 -897.4940185546875C-18.167495727539062 -897.4940185546875 -20.434600830078125 -896.666015625 -22.219406127929688 -894.822021484375C-23.571502685546875 -893.469970703125 -31.9595947265625 -878.2960205078125 -41.39939880371094 -860.2429809570312C-109.33000183105469 -730.3350219726562 -143.43699645996094 -604.5759887695312 -143.43699645996094 -485.2850036621094C-143.43699645996094 -419.4599914550781 -133.052001953125 -355.60400390625 -112.23500061035156 -294.10699462890625C-96.8612060546875 -248.66099548339844 -90.40109252929688 -220.36599731445312 -87.49659729003906 -185.68699645996094C-86.81069946289062 -177.46200561523438 -86.47079467773438 -169.39300537109375 -86.47079467773438 -161.4980010986328C-86.47079467773438 -96.1763916015625 -109.73500061035156 -42.68170166015625 -152.8489990234375 -10.312606811523438C-158.10699462890625 -6.35638427734375 -158.85800170898438 -5.2045745849609375 -158.85800170898438 -1.0230255126953125C-158.85800170898438 3.1585235595703125 -158.10699462890625 4.3103179931640625 -152.8489990234375 8.266525268554688C-117.24299621582031 35.008392333984375 -94.23210144042969 77.80039978027344 -88.27279663085938 128.42999267578125C-87.06269836425781 138.66900634765625 -86.45469665527344 149.10499572753906 -86.45469665527344 159.781005859375C-86.45469665527344 198.36399841308594 -94.39678955078125 240.072998046875 -110.55799865722656 286.9280090332031C-128.46099853515625 338.8590087890625 -139.4530029296875 394.22100830078125 -142.45799255371094 447.5539855957031C-143.10899353027344 459.0719909667969 -143.20899963378906 462.00201416015625 -143.48399353027344 473.4200134277344C-143.5989990234375 478.1319885253906 -143.65699768066406 482.8609924316406 -143.65699768066406 487.6059875488281C-143.65699768066406 608.739013671875 -106.17999267578125 740.5549926757812 -33.411895751953125 875.2239990234375C-22.4447021484375 895.5059814453125 -22.194305419921875 895.8809814453125 -18.6387939453125 897.0579833984375Z" fill="black" /></g></svg>