<?xml version="1.0" encoding="utf-8" ?>
<svg baseProfile="tiny" height="100%" version="1.2" width="100%" xmlns="http://www.w3.org/2000/svg" xmlns:ev="http://www.w3.org/2001/xml-events" xmlns:xlink="http://www.w3.org/1999/xlink"><defs /><g transform="translate(0, 1000) scale(1, -1)"><path d="M-11.043594360351562 2259.780029296875C-10.227691650390625 2259.949951171875 -9.322891235351562 2260.06005859375 -8.896514892578125 2260.06005859375L-8.740188598632812 2260.050048828125C-8.427871704101562 2259.969970703125 -7.5299224853515625 2259.780029296875 -6.78814697265625 2259.6201171875C-2.925079345703125 2258.8701171875 -0.0498809814453125 2254.8798828125 -0.0498809814453125 2250.780029296875C-0.0498809814453125 2250.199951171875 -0.1078643798828125 2249.6201171875 -0.2292327880859375 2249.0400390625C-0.4634857177734375 2248.02001953125 -2.6888275146484375 2243.5 -5.538818359375 2238.419921875C-110.48098754882812 2049.22998046875 -170.4879913330078 1828.6400146484375 -181.30198669433594 1592.25C-182.54598999023438 1564.97998046875 -183.1669921875 1537.52001953125 -183.1669921875 1509.9000244140625C-183.1669921875 1279.1500244140625 -139.84999084472656 1036.5400390625 -54.49638366699219 790.3460083007812C-30.110092163085938 719.9949951171875 -17.9705810546875 648.2210083007812 -17.9705810546875 576.6950073242188C-17.9705810546875 478.17498779296875 -41.00187683105469 380.125 -86.78338623046875 286.9110107421875C-100.05699157714844 259.9330139160156 -117.11798095703125 230.33999633789062 -134.17898559570312 204.72900390625C-183.44898986816406 130.86300659179688 -251.69297790527344 59.066802978515625 -324.66099548339844 4.253021240234375C-329.5409698486328 0.6221923828125 -333.5229949951172 -2.462066650390625 -333.5229949951172 -2.5791778564453125C-333.5229949951172 -2.6963043212890625 -329.5409698486328 -5.74151611328125 -324.66099548339844 -9.411376953125C-251.69297790527344 -64.22509765625 -183.44898986816406 -136.02200317382812 -134.17898559570312 -209.88800048828125C-117.11798095703125 -235.49899291992188 -100.05699157714844 -265.0920104980469 -86.78338623046875 -292.0690002441406C-41.02668762207031 -385.2590026855469 -17.9805908203125 -483.6400146484375 -17.9805908203125 -582.2789916992188C-17.9805908203125 -653.64697265625 -30.045089721679688 -725.1500244140625 -54.30119323730469 -794.9190063476562C-139.864990234375 -1041.030029296875 -182.65599060058594 -1282.9000244140625 -182.65599060058594 -1510.5899658203125C-182.65599060058594 -1734.8199462890625 -141.15298461914062 -1945.280029296875 -58.12718200683594 -2132.469970703125C-41.49568176269531 -2169.989990234375 -11.355987548828125 -2230.18994140625 -1.4004669189453125 -2245.8798828125C-0.43267822265625 -2247.409912109375 1.52587890625e-05 -2249.050048828125 1.52587890625e-05 -2250.64990234375C1.52587890625e-05 -2255.52001953125 -3.99176025390625 -2260.06005859375 -9.105819702148438 -2260.06005859375C-9.711578369140625 -2260.06005859375 -10.333084106445312 -2259.989990234375 -10.965591430664062 -2259.860107421875C-15.142990112304688 -2258.9599609375 -15.767578125 -2258.179931640625 -24.278579711914062 -2242.760009765625C-89.12588500976562 -2125.280029296875 -140.81597900390625 -2009.9200439453125 -182.27798461914062 -1890.219970703125C-253.2139892578125 -1685.3199462890625 -288.70997619628906 -1481.6500244140625 -288.70997619628906 -1282.4100341796875C-288.70997619628906 -1100.0400390625 -258.9729766845703 -921.3740234375 -199.4559783935547 -748.8499755859375C-187.66598510742188 -714.6500244140625 -180.052978515625 -689.4299926757812 -173.29898071289062 -662.1790161132812C-156.0559844970703 -592.5770263671875 -147.62998962402344 -524.7230224609375 -147.62998962402344 -460.0539855957031C-147.62998962402344 -272.8699951171875 -218.22499084472656 -112.36799621582031 -349.95997619628906 -13.393600463867188C-355.75697326660156 -9.020965576171875 -358.65599060058594 -5.8000640869140625 -358.65599060058594 -2.5791778564453125C-358.65599060058594 0.6417083740234375 -355.75697326660156 3.86260986328125 -349.95997619628906 8.235214233398438C-218.22499084472656 107.20999145507812 -147.62998962402344 267.7120056152344 -147.62998962402344 454.89599609375C-147.62998962402344 519.5650024414062 -156.0559844970703 587.4190063476562 -173.29898071289062 657.02099609375C-180.052978515625 684.3099975585938 -187.66598510742188 709.531005859375 -199.49497985839844 743.8090209960938C-250.52198791503906 891.6190185546875 -279.2949981689453 1040.6800537109375 -287.1029815673828 1197.5400390625C-288.70399475097656 1229.7099609375 -288.85997009277344 1237.6400146484375 -288.85997009277344 1280.1199951171875C-288.85997009277344 1325.56005859375 -288.4309844970703 1342.1500244140625 -286.1269989013672 1381.6199951171875C-270.0809783935547 1657.8800048828125 -184.34698486328125 1946.199951171875 -36.966888427734375 2219.3701171875C-16.392288208007812 2257.590087890625 -15.611480712890625 2258.760009765625 -11.0435791015625 2259.780029296875Z" fill="black" /></g></svg>