<?xml version="1.0" encoding="utf-8" ?>
<svg baseProfile="tiny" height="100%" version="1.2" width="100%" xmlns="http://www.w3.org/2000/svg" xmlns:ev="http://www.w3.org/2001/xml-events" xmlns:xlink="http://www.w3.org/1999/xlink"><defs /><g transform="translate(0, 1000) scale(1, -1)"><path d="M-11.334793090820312 2320.590087890625C-10.618179321289062 2320.77001953125 -9.904632568359375 2320.860107421875 -9.204391479492188 2320.860107421875C-4.274169921875 2320.860107421875 -0.0051422119140625 2316.659912109375 -0.0051422119140625 2311.75C-0.0051422119140625 2311.110107421875 -0.0767974853515625 2310.4599609375 -0.2279510498046875 2309.81005859375C-0.428436279296875 2308.8798828125 -3.27532958984375 2303.22998046875 -6.603363037109375 2297.219970703125C-127.84599304199219 2076.7099609375 -188.7139892578125 1821.8399658203125 -188.7139892578125 1546.7900390625C-188.7139892578125 1315.0 -145.48397827148438 1068.8800048828125 -58.72929382324219 816.9190063476562C-44.25428771972656 774.8980102539062 -36.27508544921875 745.3460083007812 -29.979888916015625 710.4619750976562C-22.853179931640625 670.9749755859375 -19.335479736328125 631.4619750976562 -19.335479736328125 592.1959838867188C-19.335479736328125 409.6579895019531 -95.35908508300781 232.46600341796875 -238.24298095703125 87.99819946289062C-269.7989959716797 56.12120056152344 -305.48597717285156 24.965896606445312 -337.7639923095703 1.148345947265625C-340.4499969482422 -0.81640625 -342.6549835205078 -2.5405731201171875 -342.6549835205078 -2.660858154296875C-342.6549835205078 -2.7811431884765625 -340.4499969482422 -4.4652252197265625 -337.7639923095703 -6.470062255859375C-305.48597717285156 -30.28759765625 -269.7989959716797 -61.442901611328125 -238.24298095703125 -93.31990051269531C-94.66078186035156 -238.4720001220703 -19.317977905273438 -415.77301025390625 -19.317977905273438 -596.8380126953125C-19.317977905273438 -670.1119995117188 -31.656585693359375 -744.0020141601562 -56.8046875 -816.6279907226562C-133.70999145507812 -1038.719970703125 -177.53598022460938 -1259.4599609375 -186.31797790527344 -1469.199951171875C-187.3999786376953 -1495.27001953125 -187.60098266601562 -1503.4100341796875 -187.8009796142578 -1538.969970703125C-187.82498168945312 -1542.9300537109375 -187.8369903564453 -1546.8699951171875 -187.8369903564453 -1550.81005859375C-187.8369903564453 -1753.5400390625 -156.44598388671875 -1937.4300537109375 -92.49089050292969 -2109.510009765625C-68.15208435058594 -2175.070068359375 -40.1243896484375 -2236.340087890625 -6.603363037109375 -2297.330078125C-1.2936859130859375 -2306.919921875 1.52587890625e-05 -2309.6201171875 1.52587890625e-05 -2312.0C1.52587890625e-05 -2312.429931640625 -0.0410003662109375 -2312.840087890625 -0.107666015625 -2313.280029296875C-0.8299102783203125 -2318.070068359375 -4.9924163818359375 -2320.860107421875 -9.193038940429688 -2320.860107421875C-11.98858642578125 -2320.860107421875 -14.80108642578125 -2319.6201171875 -16.627578735351562 -2316.929931640625C-18.431991577148438 -2314.330078125 -32.14508056640625 -2289.35009765625 -44.05387878417969 -2267.1298828125C-67.22987365722656 -2223.909912109375 -95.33778381347656 -2166.2900390625 -116.26799011230469 -2119.090087890625C-235.3369903564453 -1850.969970703125 -295.2489776611328 -1581.02001953125 -295.2489776611328 -1318.1199951171875C-295.2489776611328 -1156.77001953125 -272.68299865722656 -998.0830078125 -227.37698364257812 -844.093994140625C-220.0389862060547 -819.2340087890625 -214.10498046875 -800.8690185546875 -198.86798095703125 -755.8809814453125C-166.1949920654297 -659.5170288085938 -150.30699157714844 -564.3510131835938 -150.30699157714844 -474.56298828125C-150.30699157714844 -283.5849914550781 -222.18798828125 -116.93699645996094 -357.3309783935547 -14.850296020507812C-366.6329803466797 -7.8333587646484375 -367.3149871826172 -6.9913177490234375 -367.3149871826172 -2.660858154296875C-367.3149871826172 1.6696014404296875 -366.6329803466797 2.5116424560546875 -357.3309783935547 9.528594970703125C-222.833984375 111.10501098632812 -150.4819793701172 275.8760070800781 -150.4819793701172 468.3059997558594C-150.4819793701172 528.0670166015625 -157.45999145507812 590.4959716796875 -171.72198486328125 654.5269775390625C-180.1029815673828 692.177978515625 -187.60098266601562 717.6400146484375 -207.16798400878906 775.218994140625C-266.23097229003906 948.9580078125 -295.54197692871094 1128.3499755859375 -295.54197692871094 1315.9300537109375C-295.54197692871094 1357.8299560546875 -295.0199737548828 1377.8699951171875 -292.7749786376953 1417.969970703125C-276.33497619628906 1710.5999755859375 -183.1499786376953 2017.3399658203125 -23.00299072265625 2305.719970703125C-15.7454833984375 2318.7900390625 -15.06378173828125 2319.6298828125 -11.33477783203125 2320.590087890625Z" fill="black" /></g></svg>