<?xml version="1.0" encoding="utf-8" ?>
<svg baseProfile="tiny" height="100%" version="1.2" width="100%" xmlns="http://www.w3.org/2000/svg" xmlns:ev="http://www.w3.org/2001/xml-events" xmlns:xlink="http://www.w3.org/1999/xlink"><defs /><g transform="translate(0, 1000) scale(1, -1)"><path d="M-11.101104736328125 2758.2900390625C-10.443405151367188 2758.449951171875 -9.787521362304688 2758.530029296875 -9.142196655273438 2758.530029296875C-4.2717742919921875 2758.530029296875 0.0 2754.25 0.0 2749.35009765625C0.0 2748.739990234375 -0.0669097900390625 2748.110107421875 -0.2079010009765625 2747.489990234375C-0.4293212890625 2746.469970703125 -3.0419158935546875 2741.25 -6.0087738037109375 2735.889892578125C-153.77200317382812 2469.56005859375 -228.04600524902344 2159.97998046875 -228.04600524902344 1827.280029296875C-228.04600524902344 1552.4000244140625 -177.33999633789062 1261.72998046875 -75.48638916015625 966.6209716796875C-67.42720031738281 943.2849731445312 -64.19461059570312 933.2769775390625 -59.76649475097656 917.7789916992188C-39.115692138671875 845.6160278320312 -29.04559326171875 772.6740112304688 -29.04559326171875 700.322998046875C-29.04559326171875 438.80999755859375 -160.61000061035156 185.031005859375 -399.62701416015625 3.765228271484375C-404.364990234375 0.1341552734375 -408.2619934082031 -2.965545654296875 -408.2619934082031 -3.1426849365234375C-408.2619934082031 -3.3198089599609375 -404.364990234375 -6.4195098876953125 -399.62701416015625 -10.05059814453125C-200.71400451660156 -160.8730010986328 -72.56379699707031 -365.18798828125 -38.51139831542969 -585.7540283203125C-31.854400634765625 -628.8690185546875 -29.094207763671875 -671.7440185546875 -29.094207763671875 -714.3800048828125C-29.094207763671875 -799.6530151367188 -44.681304931640625 -883.9749755859375 -73.58230590820312 -967.3720092773438C-176.33200073242188 -1263.81005859375 -227.50100708007812 -1555.219970703125 -227.50100708007812 -1830.6099853515625C-227.50100708007812 -2160.3798828125 -154.1269989013672 -2467.18994140625 -8.090011596679688 -2732.169921875C-0.5146484375 -2745.8701171875 -0.0670166015625 -2746.60009765625 -0.0670166015625 -2748.580078125C-0.0670166015625 -2748.85009765625 -0.0750579833984375 -2749.1298828125 -0.0750579833984375 -2749.47998046875C-0.0750579833984375 -2755.070068359375 -4.634765625 -2758.530029296875 -9.256103515625 -2758.530029296875C-12.034500122070312 -2758.530029296875 -14.835098266601562 -2757.280029296875 -16.68060302734375 -2754.47998046875C-23.322799682617188 -2744.389892578125 -57.28669738769531 -2680.7099609375 -77.92190551757812 -2639.570068359375C-253.6199951171875 -2289.739990234375 -342.322998046875 -1929.760009765625 -342.322998046875 -1578.6199951171875C-342.322998046875 -1353.02001953125 -305.7070007324219 -1131.06005859375 -232.02099609375 -917.7760009765625C-210.67799377441406 -855.958984375 -197.9250030517578 -808.7109985351562 -187.34100341796875 -752.031005859375C-175.87600708007812 -690.7999877929688 -170.26800537109375 -630.7000122070312 -170.26800537109375 -572.5070190429688C-170.26800537109375 -339.6409912109375 -260.06500244140625 -137.2989959716797 -423.6719970703125 -15.14300537109375C-432.3949890136719 -8.633575439453125 -433.4129943847656 -7.34942626953125 -433.4129943847656 -3.1426849365234375C-433.4129943847656 1.0640411376953125 -432.3949890136719 2.34820556640625 -423.6719970703125 8.857589721679688C-260.06500244140625 131.0129852294922 -170.26800537109375 333.35597229003906 -170.26800537109375 566.2219696044922C-170.26800537109375 624.4149627685547 -175.87600708007812 684.5149993896484 -187.34100341796875 745.7449798583984C-198.01300048828125 802.8690032958984 -210.58900451660156 849.3199920654297 -232.46400451660156 912.8189544677734C-306.2669982910156 1126.6299896240234 -343.1159973144531 1348.6199798583984 -343.1159973144531 1574.739974975586C-343.1159973144531 1832.1500091552734 -295.3609924316406 2094.919906616211 -200.00599670410156 2357.060043334961C-153.156005859375 2485.830062866211 -95.41310119628906 2612.340072631836 -26.422500610351562 2737.219955444336C-15.794998168945312 2756.479965209961 -15.21929931640625 2757.280014038086 -11.101104736328125 2758.290023803711Z" fill="black" /></g></svg>