<?xml version="1.0" encoding="utf-8" ?>
<svg baseProfile="tiny" height="100%" version="1.2" width="100%" xmlns="http://www.w3.org/2000/svg" xmlns:ev="http://www.w3.org/2001/xml-events" xmlns:xlink="http://www.w3.org/1999/xlink"><defs /><g transform="translate(0, 1000) scale(1, -1)"><path d="M-19.509796142578125 490.18499755859375C-19.098800659179688 490.2380065917969 -18.692108154296875 490.26300048828125 -18.29150390625 490.26300048828125C-13.336898803710938 490.26300048828125 -9.296920776367188 486.3399963378906 -9.296920776367188 481.2200012207031C-9.296920776367188 479.06298828125 -9.541046142578125 478.3580017089844 -11.589096069335938 474.614990234375C-29.573501586914062 441.7250061035156 -39.13529968261719 405.9320068359375 -41.373199462890625 363.1549987792969C-41.488494873046875 360.9580078125 -41.54609680175781 354.88800048828125 -41.54609680175781 348.7749938964844C-41.54609680175781 342.6610107421875 -41.488494873046875 336.5039978027344 -41.373199462890625 334.1300048828125C-39.0675048828125 286.49700927734375 -28.474899291992188 236.1790008544922 -8.456024169921875 177.8040008544922C-2.77435302734375 161.27099609375 -0.0046539306640625 145.98399353027344 -0.0046539306640625 130.697998046875C-0.0046539306640625 124.52799987792969 -0.455902099609375 118.35699462890625 -1.34906005859375 112.10501098632812C-7.3031768798828125 70.3450927734375 -30.210906982421875 35.1221923828125 -73.31390380859375 1.45904541015625C-74.67019653320312 0.4011383056640625 -75.78230285644531 -0.4940185546875 -75.78230285644531 -0.534698486328125C-75.78230285644531 -0.5753936767578125 -74.67019653320312 -1.470550537109375 -73.31390380859375 -2.5284423828125C-30.210906982421875 -36.19160461425781 -7.3031768798828125 -71.41448974609375 -1.34906005859375 -113.17500305175781C-0.4528961181640625 -119.44000244140625 0.0 -125.61000061035156 0.0 -131.7779998779297C0.0 -147.08200073242188 -2.7876434326171875 -162.3730010986328 -8.510269165039062 -179.07699584960938C-30.522003173828125 -243.26400756835938 -41.520599365234375 -299.5870056152344 -41.520599365234375 -349.3179931640625C-41.520599365234375 -396.6929931640625 -31.539199829101562 -438.0870056152344 -11.589096069335938 -474.5989990234375C-9.541046142578125 -478.3420104980469 -9.296920776367188 -479.0480041503906 -9.296920776367188 -481.2040100097656C-9.296920776367188 -486.6610107421875 -13.712005615234375 -490.26300048828125 -18.332504272460938 -490.26300048828125C-20.545394897460938 -490.26300048828125 -22.805404663085938 -489.43701171875 -24.650100708007812 -487.5920104980469C-25.61309814453125 -486.6289978027344 -25.843704223632812 -486.26300048828125 -27.945892333984375 -482.4930114746094C-36.27360534667969 -467.47900390625 -44.85890197753906 -450.80999755859375 -50.63670349121094 -438.4809875488281C-65.77290344238281 -406.1610107421875 -76.40618896484375 -377.718994140625 -83.71659851074219 -350.02398681640625C-92.19879150390625 -317.8949890136719 -96.44049072265625 -286.7489929199219 -96.44049072265625 -256.385009765625C-96.44049072265625 -220.86399841308594 -90.63569641113281 -186.41299438476562 -79.0238037109375 -152.71099853515625C-72.94769287109375 -135.07899475097656 -69.25849914550781 -120.94599914550781 -66.58670043945312 -105.03700256347656C-65.10389709472656 -96.23129272460938 -64.37359619140625 -87.74880981445312 -64.37359619140625 -79.66600036621094C-64.37359619140625 -49.2294921875 -74.72879028320312 -24.45989990234375 -94.2550048828125 -9.445541381835938C-97.035400390625 -7.3025970458984375 -97.23880004882812 -7.12628173828125 -97.889892578125 -6.36676025390625C-99.30039978027344 -4.72564697265625 -100.00599670410156 -2.6301727294921875 -100.00599670410156 -0.534698486328125C-100.00599670410156 1.560760498046875 -99.30039978027344 3.6562347412109375 -97.889892578125 5.2973480224609375C-97.23880004882812 6.0568695068359375 -97.035400390625 6.233184814453125 -94.2550048828125 8.376129150390625C-89.76570129394531 11.82110595703125 -84.78810119628906 16.893600463867188 -81.24819946289062 21.627105712890625C-69.99400329589844 36.65159606933594 -64.39250183105469 55.287200927734375 -64.39250183105469 77.81329345703125C-64.39250183105469 87.45669555664062 -65.41909790039062 97.8131103515625 -67.46820068359375 108.90399169921875C-70.03160095214844 122.7659912109375 -73.51730346679688 135.67799377441406 -78.95599365234375 151.43800354003906C-90.67169189453125 185.40899658203125 -96.53030395507812 220.31199645996094 -96.53030395507812 256.1730041503906C-96.53030395507812 294.375 -89.881591796875 333.6650085449219 -76.58248901367188 374.072998046875C-65.25750732421875 408.48199462890625 -49.456695556640625 443.7049865722656 -27.945892333984375 482.50799560546875C-24.73150634765625 488.29998779296875 -23.185302734375 489.7099914550781 -19.509796142578125 490.18499755859375Z" fill="black" /></g></svg>