<?xml version="1.0" encoding="utf-8" ?>
<svg baseProfile="tiny" height="100%" version="1.2" width="100%" xmlns="http://www.w3.org/2000/svg" xmlns:ev="http://www.w3.org/2001/xml-events" xmlns:xlink="http://www.w3.org/1999/xlink"><defs /><g transform="translate(0, 1000) scale(1, -1)"><path d="M-11.260406494140625 1372.9100341796875C-10.554595947265625 1373.050048828125 -9.859634399414062 1373.1199951171875 -9.182708740234375 1373.1199951171875C-4.13702392578125 1373.1199951171875 -0.0963134765625 1369.25 -0.0963134765625 1363.9599609375C-0.0963134765625 1363.6199951171875 -0.0900115966796875 1363.3299560546875 -0.0900115966796875 1363.0799560546875C-0.0900115966796875 1361.31005859375 -0.39569091796875 1360.9000244140625 -5.263153076171875 1352.02001953125C-71.62139892578125 1231.030029296875 -104.96499633789062 1091.4300537109375 -104.96499633789062 936.9229736328125C-104.96499633789062 845.6680297851562 -93.33319091796875 749.2139892578125 -70.00241088867188 648.3189697265625C-57.11610412597656 592.6829833984375 -44.414306640625 549.1339721679688 -20.54840087890625 478.8590087890625C-7.231475830078125 439.64599609375 -0.526885986328125 398.6809997558594 -0.526885986328125 356.6080017089844C-0.526885986328125 223.5 -68.4031982421875 99.55740356445312 -194.43699645996094 2.463836669921875C-197.1439971923828 0.4032440185546875 -199.35800170898438 -1.4113006591796875 -199.35800170898438 -1.5343170166015625C-199.35800170898438 -1.6573333740234375 -197.1439971923828 -3.471893310546875 -194.43699645996094 -5.532470703125C-68.4031982421875 -102.62600708007812 -0.526885986328125 -226.56900024414062 -0.526885986328125 -359.6759948730469C-0.526885986328125 -401.7489929199219 -7.231475830078125 -442.7149963378906 -20.54840087890625 -481.9280090332031C-49.85789489746094 -568.2260131835938 -65.41999816894531 -624.7540283203125 -79.843994140625 -697.52001953125C-96.42459106445312 -781.1160278320312 -104.68800354003906 -861.5070190429688 -104.68800354003906 -938.22802734375C-104.68800354003906 -1092.9000244140625 -71.10209655761719 -1232.6500244140625 -4.3712615966796875 -1353.6800537109375C-0.9992523193359375 -1359.8199462890625 0.0 -1361.9000244140625 0.0 -1363.97998046875C0.0 -1364.5400390625 -0.0716552734375 -1365.0999755859375 -0.1885833740234375 -1365.72998046875C-1.0500946044921875 -1370.3199462890625 -5.1354827880859375 -1373.1199951171875 -9.273193359375 -1373.1199951171875C-11.48699951171875 -1373.1199951171875 -13.715805053710938 -1372.3199462890625 -15.473800659179688 -1370.56005859375C-18.057205200195312 -1367.949951171875 -37.802001953125 -1331.22998046875 -53.6715087890625 -1299.4000244140625C-145.05799865722656 -1116.3499755859375 -191.00900268554688 -935.416015625 -191.00900268554688 -761.1749877929688C-191.00900268554688 -664.3300170898438 -176.81399536132812 -569.551025390625 -148.3350067138672 -477.62200927734375C-146.92100524902344 -472.9779968261719 -142.86099243164062 -460.7070007324219 -139.38600158691406 -450.40399169921875C-114.9429931640625 -378.031005859375 -105.1610107421875 -325.02301025390625 -105.1610107421875 -264.0740051269531C-105.1610107421875 -262.2919921875 -105.16999816894531 -260.5039978027344 -105.18600463867188 -258.7080078125C-105.33999633789062 -241.3000030517578 -105.46299743652344 -238.9320068359375 -106.66200256347656 -225.5850067138672C-114.87399291992188 -134.24200439453125 -153.84100341796875 -58.95390319824219 -217.718994140625 -11.099105834960938C-222.31700134277344 -7.654571533203125 -224.61599731445312 -4.5944366455078125 -224.61599731445312 -1.5343170166015625C-224.61599731445312 1.5258026123046875 -222.31700134277344 4.5859375 -217.718994140625 8.030487060546875C-153.84100341796875 55.88529968261719 -114.87399291992188 131.1739959716797 -106.66200256347656 222.51600646972656C-105.46299743652344 235.86399841308594 -105.33999633789062 238.23199462890625 -105.18600463867188 255.63900756835938C-105.16999816894531 257.3550109863281 -105.16200256347656 259.0669860839844 -105.16200256347656 260.7760009765625C-105.16200256347656 320.4599914550781 -115.125 375.77801513671875 -137.84800720214844 442.72198486328125C-157.28500366210938 500.0799865722656 -168.8800048828125 545.073974609375 -177.67599487304688 597.4190063476562C-187.12600708007812 653.6229858398438 -191.14300537109375 701.760986328125 -191.14300537109375 758.9110107421875C-191.14300537109375 761.6489868164062 -191.13400268554688 764.406982421875 -191.11599731445312 767.18701171875C-190.96200561523438 790.9299926757812 -190.83900451660156 795.2969970703125 -189.82400512695312 814.39599609375C-180.44400024414062 991.02197265625 -123.63900756835938 1175.7099609375 -22.116897583007812 1359.530029296875C-15.627593994140625 1371.280029296875 -14.920196533203125 1372.1400146484375 -11.260406494140625 1372.9100341796875Z" fill="black" /></g></svg>