<?xml version="1.0" encoding="utf-8" ?>
<svg baseProfile="tiny" height="100%" version="1.2" width="100%" xmlns="http://www.w3.org/2000/svg" xmlns:ev="http://www.w3.org/2001/xml-events" xmlns:xlink="http://www.w3.org/1999/xlink"><defs /><g transform="translate(0, 1000) scale(1, -1)"><path d="M-13.307601928710938 3793.889892578125C-12.140121459960938 3794.489990234375 -10.836807250976562 3794.760009765625 -9.516860961914062 3794.760009765625C-6.0116119384765625 3794.760009765625 -2.38861083984375 3792.800048828125 -0.87713623046875 3789.6201171875C-0.327728271484375 3788.4599609375 -1.52587890625e-05 3787.449951171875 -1.52587890625e-05 3786.260009765625C-1.52587890625e-05 3783.419921875 -1.885406494140625 3779.580078125 -7.119049072265625 3770.199951171875C-216.43701171875 3393.919921875 -322.68702697753906 2957.580078125 -322.68702697753906 2489.0400390625C-322.68702697753906 2247.0400390625 -294.34300231933594 1996.449951171875 -237.2160186767578 1741.0999755859375C-205.0460205078125 1597.1600341796875 -168.7150115966797 1470.510009765625 -113.71202087402344 1310.780029296875C-83.99580383300781 1224.3599853515625 -64.95001220703125 1134.1400146484375 -57.74781799316406 1045.0999755859375C-55.02702331542969 1011.5999755859375 -54.226715087890625 991.9669799804688 -54.226715087890625 954.6749877929688C-54.226715087890625 921.5449829101562 -54.54681396484375 911.8359985351562 -56.3607177734375 882.6530151367188C-77.647216796875 546.3380126953125 -260.79600524902344 223.25201416015625 -554.4860382080078 3.82562255859375C-560.2480010986328 -0.495697021484375 -564.9959869384766 -4.1234588623046875 -564.9959869384766 -4.28350830078125C-564.9959869384766 -4.4435577392578125 -560.2480010986328 -8.071334838867188 -554.4860382080078 -12.392684936523438C-418.81800842285156 -113.75698852539062 -299.9550018310547 -244.62298583984375 -217.05001831054688 -383.9189910888672C-108.75001525878906 -565.9479827880859 -54.226715087890625 -759.9269866943359 -54.226715087890625 -963.2419891357422C-54.226715087890625 -1000.5300140380859 -55.02702331542969 -1020.1699676513672 -57.74781799316406 -1053.6700286865234C-64.95001220703125 -1142.709945678711 -83.99580383300781 -1232.9200286865234 -113.71202087402344 -1319.3499603271484C-167.5950164794922 -1475.9300384521484 -203.76602172851562 -1601.520004272461 -235.34901428222656 -1741.6099700927734C-293.6060028076172 -2000.249984741211 -321.5080108642578 -2243.310043334961 -321.5080108642578 -2492.780014038086C-321.5080108642578 -2553.969955444336 -321.18800354003906 -2571.149887084961 -319.37400817871094 -2616.810043334961C-302.4090118408203 -3037.739974975586 -195.9230194091797 -3431.030014038086 -7.119049072265625 -3770.229965209961C-1.885406494140625 -3779.610092163086 -1.52587890625e-05 -3783.449935913086 -1.52587890625e-05 -3786.300033569336C-1.52587890625e-05 -3787.479965209961 -0.327728271484375 -3788.489974975586 -0.87713623046875 -3789.649887084961C-2.4581756591796875 -3792.989974975586 -5.8740081787109375 -3794.759994506836 -9.268646240234375 -3794.759994506836C-11.945022583007812 -3794.759994506836 -14.608108520507812 -3793.659896850586 -16.3485107421875 -3791.360092163086C-24.7777099609375 -3780.209945678711 -91.25131225585938 -3653.340072631836 -121.07402038574219 -3591.509994506836C-341.74000549316406 -3133.259994506836 -453.2820281982422 -2659.360092163086 -453.2820281982422 -2194.939926147461C-453.2820281982422 -1918.300033569336 -413.7060089111328 -1645.030014038086 -334.04502868652344 -1380.439926147461C-322.89500427246094 -1343.4100189208984 -317.3470001220703 -1326.3899993896484 -290.9390106201172 -1248.1299896240234C-240.50701904296875 -1098.550033569336 -216.06301879882812 -949.1649627685547 -216.06301879882812 -806.6370086669922C-216.06301879882812 -482.8209991455078 -342.23402404785156 -194.3669891357422 -576.4660186767578 -19.221389770507812C-589.5900421142578 -9.405075073242188 -589.8570098876953 -9.084976196289062 -589.8570098876953 -4.28350830078125C-589.8570098876953 0.5179443359375 -589.5900421142578 0.838043212890625 -576.4660186767578 10.6544189453125C-342.23402404785156 185.80001831054688 -216.06301879882812 474.2539978027344 -216.06301879882812 798.0700073242188C-216.06301879882812 940.5980224609375 -240.50701904296875 1089.97998046875 -290.9390106201172 1239.56005859375C-325.4030303955078 1341.72998046875 -335.43202209472656 1373.6300048828125 -353.19801330566406 1438.2900390625C-420.14500427246094 1682.06005859375 -454.1990203857422 1936.1400146484375 -454.1990203857422 2191.0C-454.1990203857422 2228.800048828125 -453.4500274658203 2266.6201171875 -451.94801330566406 2304.419921875C-432.6890106201172 2788.780029296875 -294.99302673339844 3276.02001953125 -47.66471862792969 3734.989990234375C-22.803817749023438 3781.080078125 -16.2418212890625 3792.389892578125 -13.3076171875 3793.889892578125Z" fill="black" /></g></svg>