<?xml version="1.0" encoding="utf-8" ?>
<svg baseProfile="tiny" height="100%" version="1.2" width="100%" xmlns="http://www.w3.org/2000/svg" xmlns:ev="http://www.w3.org/2001/xml-events" xmlns:xlink="http://www.w3.org/1999/xlink"><defs /><g transform="translate(0, 1000) scale(1, -1)"><path d="M-12.285903930664062 3948.6201171875C-11.278213500976562 3948.989990234375 -10.261810302734375 3949.14990234375 -9.26806640625 3949.14990234375C-4.356353759765625 3949.14990234375 -1.52587890625e-05 3945.02001953125 -1.52587890625e-05 3940.179931640625C-1.52587890625e-05 3939.469970703125 -0.09356689453125 3938.739990234375 -0.292633056640625 3938.010009765625C-0.57025146484375 3936.89990234375 -4.4569854736328125 3929.4599609375 -8.843429565429688 3921.469970703125C-207.56600952148438 3561.719970703125 -318.00401306152344 3151.1201171875 -334.6060028076172 2710.419921875C-336.0500030517578 2671.219970703125 -336.32801818847656 2657.010009765625 -336.66102600097656 2606.590087890625C-336.69801330566406 2600.2099609375 -336.71702575683594 2593.830078125 -336.71702575683594 2587.449951171875C-336.71702575683594 2197.590087890625 -266.7150115966797 1790.780029296875 -132.05300903320312 1398.3699951171875C-107.89901733398438 1327.969970703125 -103.18000793457031 1312.5899658203125 -92.24140930175781 1269.6099853515625C-78.86001586914062 1216.699951171875 -68.64341735839844 1158.4000244140625 -63.36860656738281 1104.3699951171875C-59.732513427734375 1067.1099853515625 -57.93341064453125 1029.9300537109375 -57.93341064453125 992.89697265625C-57.93341064453125 638.072998046875 -223.13401794433594 297.8039855957031 -520.2249908447266 49.180694580078125C-538.3820343017578 33.96699523925781 -573.8060455322266 6.20465087890625 -585.6890411376953 -2.235107421875C-587.3339996337891 -3.378204345703125 -588.1530303955078 -3.9193267822265625 -588.1530303955078 -4.4630126953125C-588.1530303955078 -5.0020751953125 -587.3480377197266 -5.543670654296875 -585.7440338134766 -6.67706298828125C-579.7480010986328 -10.896896362304688 -557.2050323486328 -28.220596313476562 -544.3780059814453 -38.437103271484375C-262.03602600097656 -263.4779968261719 -87.13311767578125 -579.468994140625 -61.48081970214844 -910.89599609375C-59.08860778808594 -941.68701171875 -57.88691711425781 -972.1710205078125 -57.88691711425781 -1002.4400024414062C-57.88691711425781 -1130.93994140625 -79.54801940917969 -1255.5 -123.72401428222656 -1382.8499755859375C-265.73500061035156 -1792.25 -336.3770294189453 -2199.330078125 -336.3770294189453 -2587.800048828125C-336.3770294189453 -3071.760009765625 -226.7320098876953 -3526.840087890625 -8.843429565429688 -3921.5C-1.820220947265625 -3934.27001953125 -0.0369110107421875 -3937.739990234375 -0.0369110107421875 -3940.340087890625C-0.0369110107421875 -3941.030029296875 -0.162078857421875 -3941.64990234375 -0.3481597900390625 -3942.3701171875C-1.5098419189453125 -3946.669921875 -5.3719635009765625 -3949.14990234375 -9.288619995117188 -3949.14990234375C-11.549713134765625 -3949.14990234375 -13.829010009765625 -3948.330078125 -15.617416381835938 -3946.5400390625C-16.561309814453125 -3945.5400390625 -22.113815307617188 -3936.14990234375 -27.94390869140625 -3925.60009765625C-319.95098876953125 -3397.4599609375 -469.7749938964844 -2835.969970703125 -469.7749938964844 -2286.260009765625C-469.7749938964844 -2084.2099609375 -449.5350036621094 -1883.760009765625 -408.6759948730469 -1687.1300048828125C-381.635986328125 -1557.260009765625 -351.2080078125 -1448.0400390625 -302.1239929199219 -1305.1199951171875C-275.19500732421875 -1226.6099853515625 -255.8719940185547 -1150.6500244140625 -241.8800048828125 -1068.030029296875C-229.2530059814453 -993.5029907226562 -222.86199951171875 -916.3670043945312 -222.86199951171875 -841.0700073242188C-222.86199951171875 -801.1420288085938 -224.66000366210938 -761.7310180664062 -228.27699279785156 -723.5C-256.4830017089844 -427.1090087890625 -388.35400390625 -177.58200073242188 -600.9019775390625 -18.614898681640625C-609.6749877929688 -12.035202026367188 -614.06201171875 -8.245635986328125 -614.06201171875 -4.456085205078125C-614.06201171875 -0.6665191650390625 -609.6749877929688 3.1230316162109375 -600.9019775390625 9.70269775390625C-380.8580017089844 174.2779998779297 -247.9320068359375 434.8550262451172 -225.7779998779297 744.8490142822266C-223.7790069580078 773.2769927978516 -223.4459991455078 781.7730255126953 -223.16799926757812 820.9730377197266C-223.14100646972656 824.6040191650391 -223.1269989013672 828.2329864501953 -223.1269989013672 831.8590240478516C-223.1269989013672 989.1800079345703 -249.0449981689453 1141.469985961914 -302.1239929199219 1296.209976196289C-409.2309875488281 1608.0899810791016 -458.5369873046875 1874.500015258789 -469.6419982910156 2200.979995727539C-470.114013671875 2214.560073852539 -470.3500061035156 2248.709976196289 -470.3500061035156 2282.959976196289C-470.3500061035156 2317.219985961914 -470.114013671875 2351.590103149414 -469.6419982910156 2365.610122680664C-466.47698974609375 2462.340103149414 -461.2019958496094 2538.290054321289 -451.7080078125 2623.520034790039C-402.84600830078125 3064.560073852539 -258.0379943847656 3510.030044555664 -29.332000732421875 3923.020034790039C-16.561294555664062 3946.120132446289 -15.728500366210938 3947.399917602539 -12.285903930664062 3948.620132446289Z" fill="black" /></g></svg>