<?xml version="1.0" encoding="utf-8" ?>
<svg baseProfile="tiny" height="100%" version="1.2" width="100%" xmlns="http://www.w3.org/2000/svg" xmlns:ev="http://www.w3.org/2001/xml-events" xmlns:xlink="http://www.w3.org/1999/xlink"><defs /><g transform="translate(0, 1000) scale(1, -1)"><path d="M-16.716995239257812 1017.9000244140625C-15.854278564453125 1018.1400146484375 -15.002182006835938 1018.25 -14.175186157226562 1018.25C-9.187530517578125 1018.25 -5.1122894287109375 1014.2000122070312 -5.1122894287109375 1009.2100219726562C-5.1122894287109375 1008.4099731445312 -5.217529296875 1007.5900268554688 -5.44110107421875 1006.75C-5.6180572509765625 1006.0399780273438 -6.907470703125 1003.4400024414062 -8.297988891601562 1000.9299926757812C-55.90618896484375 915.5009765625 -79.73127746582031 815.5139770507812 -79.73127746582031 704.1190185546875C-79.73127746582031 600.1859741210938 -58.99067687988281 486.3210144042969 -17.475479125976562 365.0830078125C-7.3878326416015625 335.60400390625 -2.609466552734375 313.93701171875 -0.814422607421875 289.2359924316406C-0.2709808349609375 281.84600830078125 1.52587890625e-05 274.5 1.52587890625e-05 267.20098876953125C1.52587890625e-05 167.1929931640625 -50.87107849121094 75.94549560546875 -148.86798095703125 0.6629791259765625C-150.13198852539062 -0.310394287109375 -150.7639923095703 -0.7212371826171875 -150.7639923095703 -1.1320648193359375C-150.7639923095703 -1.54290771484375 -150.13198852539062 -1.9537506103515625 -148.86798095703125 -2.9271240234375C-50.87107849121094 -78.2095947265625 1.52587890625e-05 -169.47900390625 1.52587890625e-05 -269.468994140625C1.52587890625e-05 -276.7669982910156 -0.2709808349609375 -284.11199951171875 -0.814422607421875 -291.5C-2.6347503662109375 -316.302001953125 -7.362548828125 -337.7919921875 -17.601882934570312 -367.70098876953125C-58.85557556152344 -488.3070068359375 -79.56918334960938 -601.302978515625 -79.56918334960938 -705.5670166015625C-79.56918334960938 -723.2849731445312 -78.97108459472656 -740.7509765625 -77.77388000488281 -757.958984375C-71.63029479980469 -845.9420166015625 -47.435089111328125 -930.5869750976562 -8.323287963867188 -1000.9000244140625C-5.9687042236328125 -1005.1099853515625 -5.076812744140625 -1007.1699829101562 -5.076812744140625 -1009.1599731445312C-5.076812744140625 -1009.9199829101562 -5.2091064453125 -1010.6799926757812 -5.44110107421875 -1011.5399780273438C-6.5605316162109375 -1015.780029296875 -10.350479125976562 -1018.25 -14.225982666015625 -1018.25C-16.477386474609375 -1018.25 -18.757583618164062 -1017.4099731445312 -20.559982299804688 -1015.6099853515625C-23.340988159179688 -1012.8300170898438 -46.24678039550781 -969.5980224609375 -58.98908996582031 -943.051025390625C-123.98098754882812 -807.739990234375 -155.71798706054688 -680.7119750976562 -155.71798706054688 -555.7659912109375C-155.71798706054688 -553.8060302734375 -155.70999145507812 -551.844970703125 -155.69398498535156 -549.885986328125C-155.5419921875 -532.7689819335938 -155.46697998046875 -530.0390014648438 -154.63198852539062 -514.7429809570312C-151.1689910888672 -451.9159851074219 -138.8809814453125 -389.74700927734375 -117.97297668457031 -329.04400634765625C-102.57597351074219 -284.3450012207031 -95.06709289550781 -248.87399291992188 -92.00788879394531 -206.29800415039062C-91.77897644042969 -203.05999755859375 -91.66928100585938 -195.91700744628906 -91.66928100585938 -188.4219970703125C-91.66928100585938 -179.35800170898438 -91.82978820800781 -169.7790069580078 -92.13429260253906 -165.97300720214844C-97.67108154296875 -97.710693359375 -123.66099548339844 -45.04750061035156 -168.53797912597656 -11.169204711914062C-174.6309814453125 -6.567779541015625 -175.74298095703125 -5.025543212890625 -175.74298095703125 -1.1320648193359375C-175.74298095703125 2.76141357421875 -174.6309814453125 4.3036346435546875 -168.53797912597656 8.905014038085938C-129.90599060058594 38.080902099609375 -104.16899108886719 83.38681030273438 -95.11758422851562 138.1739959716797C-92.8350830078125 152.0 -91.49398803710938 171.3090057373047 -91.49398803710938 187.9040069580078C-91.49398803710938 193.73399353027344 -91.65948486328125 199.22900390625 -92.00788879394531 204.03399658203125C-95.06709289550781 246.5590057373047 -102.67698669433594 282.510986328125 -117.99798583984375 326.80499267578125C-139.0079803466797 387.6090087890625 -151.42098999023438 450.7650146484375 -154.88497924804688 514.2490234375C-155.69398498535156 529.0390014648438 -155.79498291015625 532.906982421875 -155.94699096679688 548.7589721679688C-155.9659881591797 550.8690185546875 -155.97499084472656 552.97998046875 -155.97499084472656 555.0919799804688C-155.97499084472656 699.35400390625 -112.583984375 850.0670166015625 -25.995681762695312 1006.7000122070312C-20.838088989257812 1016.030029296875 -20.07958984375 1016.9600219726562 -16.71697998046875 1017.9000244140625Z" fill="black" /></g></svg>