<?xml version="1.0" encoding="utf-8" ?>
<svg baseProfile="tiny" height="100%" version="1.2" width="100%" xmlns="http://www.w3.org/2000/svg" xmlns:ev="http://www.w3.org/2001/xml-events" xmlns:xlink="http://www.w3.org/1999/xlink"><defs /><g transform="translate(0, 1000) scale(1, -1)"><path d="M-11.395904541015625 2667.81005859375C-10.282302856445312 2668.110107421875 -9.382843017578125 2668.409912109375 -9.382843017578125 2668.409912109375C-9.382843017578125 2668.60009765625 -9.24835205078125 2668.679931640625 -9.014083862304688 2668.679931640625C-7.5972442626953125 2668.679931640625 -2.5312652587890625 2665.699951171875 -1.5021820068359375 2664.0400390625C-0.5518646240234375 2662.510009765625 0.0 2661.280029296875 0.0 2659.77001953125C0.0 2656.97998046875 -1.8671112060546875 2653.199951171875 -6.55609130859375 2644.68994140625C-148.4080047607422 2388.010009765625 -219.677001953125 2095.8701171875 -219.677001953125 1771.1700439453125C-219.677001953125 1725.68994140625 -219.4199981689453 1711.8499755859375 -217.96400451660156 1676.949951171875C-208.07000732421875 1440.699951171875 -158.6020050048828 1186.800048828125 -75.5548095703125 945.6300048828125C-61.20680236816406 904.0419921875 -58.380096435546875 895.0050048828125 -51.613006591796875 868.9219970703125C-35.145599365234375 805.7020263671875 -27.113006591796875 741.8510131835938 -27.113006591796875 678.406005859375C-27.113006591796875 425.0270080566406 -155.2310028076172 178.13400268554688 -385.8559875488281 3.8892974853515625C-390.7820129394531 0.1202850341796875 -394.85101318359375 -3.091949462890625 -394.85101318359375 -3.263275146484375C-394.85101318359375 -3.4345855712890625 -390.7820129394531 -6.646820068359375 -385.8559875488281 -10.415802001953125C-172.86399841308594 -171.32699584960938 -42.875701904296875 -399.39599609375 -28.6990966796875 -636.9290161132812C-27.710601806640625 -653.4760131835938 -27.212295532226562 -669.7930297851562 -27.212295532226562 -685.9400024414062C-27.212295532226562 -771.9359741210938 -41.34710693359375 -853.0989990234375 -70.843505859375 -938.4509887695312C-170.08099365234375 -1225.300048828125 -219.50900268554688 -1506.780029296875 -219.50900268554688 -1772.68994140625C-219.50900268554688 -2091.840087890625 -148.3040008544922 -2388.56005859375 -6.55609130859375 -2645.219970703125C-1.5157318115234375 -2654.389892578125 -0.0607452392578125 -2657.340087890625 -0.0607452392578125 -2659.739990234375C-0.0607452392578125 -2660.39990234375 -0.1704559326171875 -2661.010009765625 -0.3457794189453125 -2661.7099609375C-1.49658203125 -2666.1298828125 -5.522308349609375 -2668.679931640625 -9.4871826171875 -2668.679931640625C-12.014999389648438 -2668.679931640625 -14.518096923828125 -2667.639892578125 -16.235595703125 -2665.389892578125C-21.289505004882812 -2658.75 -63.81950378417969 -2578.570068359375 -83.77810668945312 -2538.010009765625C-249.30799865722656 -2201.739990234375 -332.885009765625 -1858.5999755859375 -332.885009765625 -1524.3199462890625C-332.885009765625 -1328.6700439453125 -304.25201416015625 -1136.050048828125 -246.66000366210938 -949.6290283203125C-241.13499450683594 -931.6409912109375 -233.2969970703125 -907.8699951171875 -222.2469940185547 -875.4910278320312C-184.5540008544922 -764.8720092773438 -166.2259979248047 -655.4910278320312 -166.2259979248047 -552.093017578125C-166.2259979248047 -329.6929931640625 -251.01600646972656 -134.968994140625 -410.2690124511719 -15.127105712890625C-414.5090026855469 -11.95770263671875 -418.2359924316406 -8.916793823242188 -418.5780029296875 -8.360015869140625C-419.4779968261719 -6.8609771728515625 -419.927001953125 -5.0621185302734375 -419.927001953125 -3.263275146484375C-419.927001953125 -1.46441650390625 -419.4779968261719 0.3344268798828125 -418.5780029296875 1.833465576171875C-418.2359924316406 2.3902587890625 -414.5090026855469 5.4311676025390625 -410.2690124511719 8.600570678710938C-251.01600646972656 128.44200134277344 -166.2259979248047 323.12701416015625 -166.2259979248047 545.5280151367188C-166.2259979248047 648.927978515625 -184.5540008544922 758.3189697265625 -222.2469940185547 868.9650268554688C-245.33200073242188 936.677978515625 -256.42498779296875 972.9119873046875 -269.7879943847656 1024.1400146484375C-307.43499755859375 1168.5999755859375 -326.62298583984375 1301.2900390625 -332.57598876953125 1458.300048828125C-333.03399658203125 1470.449951171875 -333.3059997558594 1500.8599853515625 -333.3059997558594 1527.4000244140625C-333.3059997558594 1543.06005859375 -333.21099853515625 1557.3800048828125 -333.0039978027344 1565.800048828125C-324.010009765625 1930.199951171875 -220.10499572753906 2296.52001953125 -26.172103881835938 2647.469970703125C-15.378997802734375 2667.0 -15.636001586914062 2666.659912109375 -11.395904541015625 2667.81005859375Z" fill="black" /></g></svg>