<?xml version="1.0" encoding="utf-8" ?>
<svg baseProfile="tiny" height="100%" version="1.2" width="100%" xmlns="http://www.w3.org/2000/svg" xmlns:ev="http://www.w3.org/2001/xml-events" xmlns:xlink="http://www.w3.org/1999/xlink"><defs /><g transform="translate(0, 1000) scale(1, -1)"><path d="M-13.620697021484375 305.7300109863281C-13.096893310546875 305.82598876953125 -12.571807861328125 305.87298583984375 -12.050796508789062 305.87298583984375C-8.286392211914062 305.87298583984375 -4.741302490234375 303.4360046386719 -3.513946533203125 299.7980041503906C-3.17059326171875 298.7829895019531 -2.99609375 297.8139953613281 -2.99609375 296.84600830078125C-2.99609375 295.2200012207031 -3.488861083984375 293.59600830078125 -4.501190185546875 291.7659912109375C-15.896392822265625 271.1340026855469 -22.020706176757812 247.9340057373047 -22.932601928710938 221.91400146484375C-22.972991943359375 220.74000549316406 -22.991500854492188 218.52200317382812 -22.991500854492188 216.0570068359375C-22.991500854492188 211.8800048828125 -22.938400268554688 206.9969940185547 -22.8489990234375 205.29800415039062C-21.451797485351562 178.4409942626953 -15.82110595703125 150.53900146484375 -5.270904541015625 118.11900329589844L-2.551788330078125 110.04499816894531C-1.464141845703125 106.87400817871094 -1.045806884765625 105.52702331542969 -0.4601593017578125 103.31001281738281L0.0 101.52801513671875V80.51132202148438V59.49462890625L-0.4183197021484375 57.87152099609375C-5.77288818359375 37.30662536621094 -18.899978637695312 18.607437133789062 -40.41029357910156 0.9122161865234375C-41.21348571777344 0.2512664794921875 -41.8743896484375 -0.317657470703125 -41.8743896484375 -0.3511199951171875C-41.8743896484375 -0.38458251953125 -41.21348571777344 -0.9535064697265625 -40.41029357910156 -1.614471435546875C-18.899978637695312 -19.309661865234375 -5.77288818359375 -38.00886535644531 -0.418304443359375 -58.573760986328125L1.52587890625e-05 -60.196868896484375V-81.21356201171875V-102.22996520996094L-0.46014404296875 -103.99595642089844C-1.0709075927734375 -106.3299560546875 -1.5059661865234375 -107.70994567871094 -2.995208740234375 -112.04396057128906C-16.302001953125 -150.73194885253906 -22.95379638671875 -184.8959503173828 -22.95379638671875 -215.10694885253906C-22.95379638671875 -244.13995361328125 -16.810302734375 -269.52195739746094 -4.5262908935546875 -291.75694274902344C-3.4959564208984375 -293.6179656982422 -2.9973907470703125 -295.24794006347656 -2.9973907470703125 -296.88096618652344C-2.9973907470703125 -297.84693908691406 -3.171875 -298.81394958496094 -3.513946533203125 -299.83094787597656C-4.8361663818359375 -303.7449493408203 -8.47906494140625 -305.87294006347656 -12.1322021484375 -305.87294006347656C-14.858901977539062 -305.87294006347656 -17.591293334960938 -304.6869659423828 -19.368499755859375 -302.17295837402344C-20.17999267578125 -301.02696228027344 -24.1708984375 -293.7229461669922 -27.65130615234375 -287.0299530029297C-51.7886962890625 -240.59194946289062 -63.647491455078125 -198.6839599609375 -63.647491455078125 -158.59695434570312C-63.647491455078125 -140.4219512939453 -61.209808349609375 -122.62095642089844 -56.37359619140625 -104.94096374511719C-55.269195556640625 -100.89195251464844 -54.32379150390625 -97.88795471191406 -52.17359924316406 -91.58805847167969C-46.66169738769531 -75.42155456542969 -43.88569641113281 -61.00675964355469 -43.88569641113281 -48.72904968261719C-43.88569641113281 -42.64994812011719 -44.56629943847656 -37.0948486328125 -45.93220520019531 -32.11045837402344C-48.73500061035156 -21.894851684570312 -54.114593505859375 -13.737548828125 -61.870391845703125 -7.9311676025390625C-64.597900390625 -5.889739990234375 -65.92819213867188 -3.4048919677734375 -65.92819213867188 -0.351104736328125C-65.92819213867188 2.7026824951171875 -64.597900390625 5.187530517578125 -61.870391845703125 7.2289581298828125C-52.74249267578125 14.056045532226562 -46.92779541015625 24.120941162109375 -44.760894775390625 36.82135009765625C-44.17620849609375 40.25263977050781 -43.8861083984375 43.968841552734375 -43.8861083984375 47.93003845214844C-43.8861083984375 59.103851318359375 -46.194305419921875 72.22784423828125 -50.709503173828125 86.40974426269531C-51.035797119140625 87.4471435546875 -51.362091064453125 88.46784973144531 -51.42900085449219 88.69374084472656C-51.48759460449219 88.91123962402344 -52.05650329589844 90.56785583496094 -52.67559814453125 92.37504577636719C-60.02619934082031 113.69703674316406 -63.705108642578125 135.5010528564453 -63.705108642578125 157.94204711914062C-63.705108642578125 187.9930419921875 -57.108795166015625 219.18605041503906 -43.89910888671875 251.8990478515625C-37.666107177734375 267.32704162597656 -28.412704467773438 286.43605041503906 -20.221893310546875 300.7600555419922C-18.573699951171875 303.65504455566406 -16.507095336914062 305.21104431152344 -13.620697021484375 305.7300567626953Z" fill="black" /></g></svg>