<?xml version="1.0" encoding="utf-8" ?>
<svg baseProfile="tiny" height="100%" version="1.2" width="100%" xmlns="http://www.w3.org/2000/svg" xmlns:ev="http://www.w3.org/2001/xml-events" xmlns:xlink="http://www.w3.org/1999/xlink"><defs /><g transform="translate(0, 1000) scale(1, -1)"><path d="M-16.714202880859375 1045.18994140625C-15.784698486328125 1045.489990234375 -14.852493286132812 1045.6300048828125 -13.94219970703125 1045.6300048828125C-9.155960083007812 1045.6300048828125 -4.976043701171875 1041.699951171875 -4.976043701171875 1036.43994140625C-4.976043701171875 1036.0799560546875 -4.9702606201171875 1035.780029296875 -4.9702606201171875 1035.510009765625C-4.9702606201171875 1033.6400146484375 -5.2479095458984375 1033.31005859375 -9.650543212890625 1025.300048828125C-34.9447021484375 979.3820190429688 -54.603607177734375 925.8330078125 -66.7572021484375 869.8690185546875C-76.84410095214844 823.3489990234375 -81.86759948730469 774.0170288085938 -81.86759948730469 722.2680053710938C-81.86759948730469 615.739013671875 -60.57899475097656 498.968994140625 -18.350296020507812 375.4119873046875C-13.208297729492188 360.375 -12.377304077148438 357.8299865722656 -10.715301513671875 351.6499938964844C-3.541656494140625 325.13299560546875 0.0 298.7460021972656 0.0 272.7170104980469C0.0 173.3280029296875 -51.637603759765625 79.14279174804688 -149.88499450683594 2.75079345703125C-152.58599853515625 0.64727783203125 -154.81900024414062 -1.1705780029296875 -154.81900024414062 -1.2744598388671875C-154.81900024414062 -1.3783416748046875 -152.58599853515625 -3.196197509765625 -149.88499450683594 -5.299713134765625C-51.447601318359375 -81.837890625 -0.1108245849609375 -174.97500610351562 -0.1108245849609375 -276.5669860839844C-0.1108245849609375 -282.7969970703125 -0.303924560546875 -289.05999755859375 -0.69110107421875 -295.35198974609375C-2.2752227783203125 -321.1650085449219 -7.287322998046875 -345.6029968261719 -16.558395385742188 -372.6369934082031C-58.23930358886719 -494.3810119628906 -78.98880004882812 -601.322998046875 -81.48190307617188 -707.2520141601562C-81.61849975585938 -713.073974609375 -81.68659973144531 -718.8790283203125 -81.68659973144531 -724.6680297851562C-81.68659973144531 -835.5040283203125 -56.716094970703125 -940.0640258789062 -9.650543212890625 -1025.510009765625C-5.2479095458984375 -1033.52001953125 -4.9702606201171875 -1033.8499755859375 -4.9702606201171875 -1035.719970703125C-4.9702606201171875 -1035.989990234375 -4.976043701171875 -1036.2900390625 -4.976043701171875 -1036.6500244140625C-4.976043701171875 -1042.0799560546875 -8.507888793945312 -1045.6300048828125 -13.935501098632812 -1045.6300048828125H-13.970993041992188C-19.700790405273438 -1045.6300048828125 -19.728591918945312 -1045.6099853515625 -33.282684326171875 -1020.4400024414062C-116.75999450683594 -865.4929809570312 -158.76197814941406 -714.1129760742188 -158.76197814941406 -570.35400390625C-158.76197814941406 -491.75201416015625 -146.2059783935547 -415.4289855957031 -121.00698852539062 -342.0450134277344C-102.49098205566406 -288.0799865722656 -94.20689392089844 -246.78900146484375 -92.85649108886719 -201.80999755859375C-92.76057434082031 -198.5780029296875 -92.71278381347656 -195.3679962158203 -92.71278381347656 -192.17999267578125C-92.71278381347656 -114.19900512695312 -121.29798889160156 -49.71220397949219 -173.51698303222656 -10.441696166992188C-178.6329803466797 -6.598175048828125 -179.489990234375 -5.299713134765625 -179.489990234375 -1.2744598388671875C-179.489990234375 2.75079345703125 -178.6329803466797 4.0492706298828125 -173.51698303222656 7.8927459716796875C-120.30299377441406 47.90020751953125 -92.76737976074219 112.40899658203125 -92.76737976074219 190.71499633789062C-92.76737976074219 233.28199768066406 -100.90397644042969 279.92498779296875 -117.47499084472656 328.9259948730469C-123.49998474121094 346.7929992675781 -126.22697448730469 355.0780029296875 -128.58998107910156 362.97198486328125C-148.82798767089844 430.2489929199219 -158.9299774169922 499.3630065917969 -158.9299774169922 570.0679931640625C-158.9299774169922 714.2080078125 -116.94798278808594 864.9580078125 -33.282684326171875 1020.22998046875C-20.869277954101562 1043.239990234375 -20.375885009765625 1043.989990234375 -16.714187622070312 1045.18994140625Z" fill="black" /></g></svg>