<?xml version="1.0" encoding="utf-8" ?>
<svg baseProfile="tiny" height="100%" version="1.2" width="100%" xmlns="http://www.w3.org/2000/svg" xmlns:ev="http://www.w3.org/2001/xml-events" xmlns:xlink="http://www.w3.org/1999/xlink"><defs /><g transform="translate(0, 1000) scale(1, -1)"><path d="M-11.5830078125 274.98699951171875C-11.281204223632812 275.0090026855469 -10.963302612304688 275.02301025390625 -10.767501831054688 275.02301025390625C-10.695892333984375 275.02301025390625 -10.640594482421875 275.02099609375 -10.6083984375 275.0169982910156C-10.481002807617188 275.0090026855469 -10.12860107421875 274.98699951171875 -9.82122802734375 274.9639892578125C-6.09515380859375 274.7090148925781 -2.7364501953125 271.6499938964844 -1.949249267578125 267.7969970703125C-1.8232421875 267.177001953125 -1.7585906982421875 266.5780029296875 -1.7585906982421875 265.9840087890625C-1.7585906982421875 264.3529968261719 -2.246826171875 262.7590026855469 -3.291229248046875 260.86199951171875C-13.74969482421875 241.90899658203125 -19.267593383789062 221.34500122070312 -20.482101440429688 196.83700561523438C-20.5458984375 195.572998046875 -20.57769775390625 192.2729949951172 -20.57769775390625 188.94700622558594C-20.57769775390625 185.62100219726562 -20.5458984375 182.27000427246094 -20.482101440429688 180.90499877929688C-19.29010009765625 154.84500122070312 -13.997100830078125 129.35499572753906 -3.1338043212890625 97.38749694824219C-2.623992919921875 95.8804931640625 -2.06170654296875 94.14869689941406 -1.8892669677734375 93.52639770507812C-1.2969970703125 91.39730834960938 -0.607269287109375 88.57080078125 -0.3073883056640625 87.06390380859375L0.0 85.54949951171875V71.23001098632812V56.91050720214844L-0.2998809814453125 55.418609619140625C-4.3408203125 35.31880187988281 -15.79638671875 17.235794067382812 -34.86158752441406 0.86956787109375C-35.58128356933594 0.254791259765625 -36.173583984375 -0.277496337890625 -36.173583984375 -0.29998779296875C-36.173583984375 -0.322479248046875 -35.58128356933594 -0.8547821044921875 -34.86158752441406 -1.46954345703125C-15.79638671875 -17.835693359375 -4.3408203125 -35.918792724609375 -0.29986572265625 -56.01860046386719L1.52587890625e-05 -57.510498046875V-71.83000183105469V-86.14949035644531L-0.307373046875 -87.66389465332031C-0.607269287109375 -89.17079162597656 -1.2969970703125 -91.99717712402344 -1.8892669677734375 -94.12638854980469C-2.06170654296875 -94.74119567871094 -2.60150146484375 -96.42799377441406 -3.0963134765625 -97.87498474121094C-8.801620483398438 -114.66099548339844 -11.995407104492188 -125.96699523925781 -14.949295043945312 -139.82098388671875C-18.693695068359375 -157.3829803466797 -20.568496704101562 -173.84298706054688 -20.568496704101562 -189.25498962402344C-20.568496704101562 -216.27297973632812 -14.806594848632812 -240.0699920654297 -3.253753662109375 -260.93699645996094C-2.241668701171875 -262.7689971923828 -1.7622833251953125 -264.3669891357422 -1.7622833251953125 -265.99598693847656C-1.7622833251953125 -266.58799743652344 -1.8254547119140625 -267.18397521972656 -1.949249267578125 -267.79698181152344C-2.8690338134765625 -272.31297302246094 -6.802520751953125 -275.0229949951172 -10.852203369140625 -275.0229949951172C-13.04119873046875 -275.0229949951172 -15.26409912109375 -274.23097229003906 -17.063400268554688 -272.50498962402344C-17.918106079101562 -271.6809844970703 -18.34539794921875 -271.0509796142578 -19.77740478515625 -268.4719696044922C-41.8114013671875 -228.76698303222656 -54.024200439453125 -190.51698303222656 -55.8909912109375 -155.37799072265625C-56.11590576171875 -151.10498046875 -56.15339660644531 -149.92698669433594 -56.198394775390625 -146.15599060058594C-56.20759582519531 -145.41497802734375 -56.21220397949219 -144.67298889160156 -56.21220397949219 -143.9309844970703C-56.21220397949219 -128.99598693847656 -54.347900390625 -113.8599853515625 -50.7554931640625 -99.56178283691406C-49.12860107421875 -93.09928894042969 -48.24400329589844 -90.1453857421875 -45.62750244140625 -82.43089294433594C-41.961395263671875 -71.60508728027344 -40.004608154296875 -62.50358581542969 -39.15739440917969 -52.29248046875C-39.06719970703125 -51.19258117675781 -39.01959228515625 -48.70439147949219 -39.01959228515625 -46.3809814453125C-39.01959228515625 -44.4600830078125 -39.052093505859375 -42.65177917480469 -39.1199951171875 -41.833984375C-40.40950012207031 -26.517379760742188 -45.889892578125 -15.466690063476562 -55.996002197265625 -7.842071533203125C-58.706207275390625 -5.7953643798828125 -60.06129455566406 -3.04766845703125 -60.06129455566406 -0.2999725341796875C-60.06129455566406 2.447723388671875 -58.706207275390625 5.1954193115234375 -55.996002197265625 7.24212646484375C-45.889892578125 14.866714477539062 -40.40950012207031 25.91741943359375 -39.1199951171875 41.23402404785156C-39.052093505859375 42.05181884765625 -39.01959228515625 43.86012268066406 -39.01959228515625 45.78111267089844C-39.01959228515625 48.10441589355469 -39.06719970703125 50.59271240234375 -39.15739440917969 51.69252014160156C-39.569793701171875 56.61811828613281 -40.049591064453125 60.05931091308594 -40.97169494628906 64.70001220703125C-42.2987060546875 71.3275146484375 -43.5133056640625 75.64581298828125 -46.7294921875 85.12971496582031C-51.07789611816406 97.94221496582031 -54.13670349121094 112.34400939941406 -55.43370056152344 126.17601013183594C-55.99090576171875 132.09201049804688 -56.270294189453125 138.04000854492188 -56.270294189453125 144.02601623535156C-56.270294189453125 181.6890106201172 -45.21099853515625 220.85801696777344 -22.731292724609375 263.03602600097656C-20.894500732421875 266.48500061035156 -18.780303955078125 270.2930145263672 -18.307998657226562 271.02101135253906C-16.860992431640625 273.2320098876953 -14.2294921875 274.7840118408203 -11.5830078125 274.9870147705078Z" fill="black" /></g></svg>