<?xml version="1.0" encoding="utf-8" ?>
<svg baseProfile="tiny" height="100%" version="1.2" width="100%" xmlns="http://www.w3.org/2000/svg" xmlns:ev="http://www.w3.org/2001/xml-events" xmlns:xlink="http://www.w3.org/1999/xlink"><defs /><g transform="translate(0, 1000) scale(1, -1)"><path d="M-20.136993408203125 639.3300170898438C-19.498306274414062 639.4559936523438 -18.867706298828125 639.5159912109375 -18.2510986328125 639.5159912109375C-13.255706787109375 639.5159912109375 -9.180816650390625 635.5679931640625 -9.180816650390625 630.43798828125C-9.180816650390625 630.1950073242188 -9.190032958984375 629.947998046875 -9.208786010742188 629.698974609375C-9.333175659179688 627.9400024414062 -9.670791625976562 627.1400146484375 -12.140701293945312 622.64501953125C-39.266998291015625 573.197021484375 -52.831207275390625 515.625 -52.831207275390625 450.64599609375C-52.831207275390625 384.1839904785156 -38.640594482421875 309.9750061035156 -10.2572021484375 228.78700256347656C-3.510833740234375 209.47300720214844 -0.1273193359375 189.62399291992188 -0.1273193359375 169.74600219726562C-0.1273193359375 155.27699279785156 -1.9198150634765625 140.79299926757812 -5.51275634765625 126.48800659179688C-15.694595336914062 85.95639038085938 -39.68330383300781 49.40480041503906 -78.22500610351562 15.678497314453125C-83.66250610351562 10.916305541992188 -94.87490844726562 1.7118072509765625 -97.43370056152344 -0.100677490234375C-97.87789916992188 -0.4116363525390625 -98.10009765625 -0.5582427978515625 -98.10009765625 -0.704833984375C-98.10009765625 -0.8514251708984375 -97.87789916992188 -0.9980316162109375 -97.43370056152344 -1.308990478515625C-90.50369262695312 -6.2133331298828125 -73.81820678710938 -20.677597045898438 -64.50711059570312 -29.846603393554688C-22.000701904296875 -71.7412109375 0.0 -120.56500244140625 0.0 -170.7779998779297C0.0 -190.5709991455078 -3.4181671142578125 -210.5780029296875 -10.345993041992188 -230.46299743652344C-38.59149169921875 -311.50799560546875 -52.715301513671875 -385.3450012207031 -52.715301513671875 -451.427001953125C-52.715301513671875 -516.0910034179688 -39.191192626953125 -573.3300170898438 -12.140701293945312 -622.6329956054688C-9.670791625976562 -627.1279907226562 -9.333175659179688 -627.927978515625 -9.208786010742188 -629.68701171875C-9.189468383789062 -629.9420166015625 -9.180023193359375 -630.1939697265625 -9.180023193359375 -630.4409790039062C-9.180023193359375 -635.8330078125 -13.652496337890625 -639.5159912109375 -18.311203002929688 -639.5159912109375C-20.530502319335938 -639.5159912109375 -22.792098999023438 -638.6799926757812 -24.632598876953125 -636.7949829101562C-27.067001342773438 -634.3070068359375 -43.61029052734375 -603.0689697265625 -53.95210266113281 -581.4080200195312C-94.88240051269531 -495.81201171875 -115.1820068359375 -416.60699462890625 -115.1820068359375 -340.4209899902344C-115.1820068359375 -293.3689880371094 -107.43899536132812 -247.46800231933594 -92.03179931640625 -201.9250030517578C-81.0325927734375 -169.4250030517578 -76.03939819335938 -146.3070068359375 -74.15579223632812 -119.04901123046875C-74.031494140625 -117.34300231933594 -73.94259643554688 -112.385009765625 -73.9248046875 -108.03199768066406V-107.95500183105469C-73.9248046875 -64.95378112792969 -88.81460571289062 -30.882186889648438 -117.0159912109375 -9.39404296875C-120.87200927734375 -6.46209716796875 -121.97299194335938 -4.951690673828125 -122.38200378417969 -2.0197601318359375C-122.46701049804688 -1.436431884765625 -122.51199340820312 -0.885711669921875 -122.51199340820312 -0.3596649169921875C-122.51199340820312 2.7357940673828125 -120.96499633789062 4.9771270751953125 -117.0159912109375 7.984405517578125C-103.36900329589844 18.3795166015625 -92.56491088867188 32.15071105957031 -85.29721069335938 48.39192199707031C-77.67919921875 65.41450500488281 -73.876708984375 84.614013671875 -73.876708984375 106.34901428222656C-73.876708984375 123.09400939941406 -76.13360595703125 141.34400939941406 -80.64169311523438 161.2630157470703C-83.48480224609375 173.8610076904297 -85.9368896484375 182.30201721191406 -91.9429931640625 200.2670135498047C-105.00299072265625 239.3240203857422 -111.77400207519531 272.49900817871094 -114.22599792480469 309.5480194091797C-114.88299560546875 319.44300842285156 -115.21299743652344 329.34901428222656 -115.21299743652344 339.2820281982422C-115.21299743652344 430.61402893066406 -87.27719116210938 524.1430206298828 -28.524093627929688 630.6230010986328C-24.899093627929688 637.1980133056641 -23.47760009765625 638.6729888916016 -20.136993408203125 639.3300323486328Z" fill="black" /></g></svg>