<?xml version="1.0" encoding="utf-8" ?>
<svg baseProfile="tiny" height="100%" version="1.2" width="100%" xmlns="http://www.w3.org/2000/svg" xmlns:ev="http://www.w3.org/2001/xml-events" xmlns:xlink="http://www.w3.org/1999/xlink"><defs /><g transform="translate(0, 1000) scale(1, -1)"><path d="M-18.238998413085938 977.802001953125C-17.0380859375 978.2639770507812 -15.837188720703125 978.47900390625 -14.680679321289062 978.47900390625C-9.820068359375 978.47900390625 -5.743072509765625 974.6799926757812 -5.743072509765625 969.4340209960938C-5.743072509765625 969.2830200195312 -5.7464447021484375 969.1309814453125 -5.753265380859375 968.97802734375C-5.862548828125 966.4099731445312 -5.835235595703125 966.5189819335938 -10.206588745117188 958.5960083007812C-22.6923828125 935.9739990234375 -35.66987609863281 906.4400024414062 -45.28688049316406 878.7630004882812C-66.43809509277344 817.822021484375 -76.98527526855469 750.677978515625 -76.98527526855469 678.31201171875C-76.98527526855469 578.3090209960938 -56.8433837890625 468.3340148925781 -16.708984375 350.9739990234375C-4.7483062744140625 316.04998779296875 1.52587890625e-05 289.760986328125 1.52587890625e-05 257.95001220703125C1.52587890625e-05 256.1910095214844 -0.0145111083984375 254.41400146484375 -0.04315185546875 252.6179962158203C-1.6004486083984375 158.44200134277344 -49.548980712890625 73.61029052734375 -141.7579803466797 2.0016632080078125C-143.7799835205078 0.444366455078125 -145.44598388671875 -0.949005126953125 -145.44598388671875 -1.05828857421875C-145.44598388671875 -1.1675872802734375 -143.7799835205078 -2.560943603515625 -141.7579803466797 -4.118255615234375C-49.548980712890625 -75.72689819335938 -1.6004486083984375 -160.5590057373047 -0.04315185546875 -254.73500061035156C-0.0146331787109375 -256.5159912109375 -0.00018310546875 -258.2799987792969 -0.00018310546875 -260.0270080566406C-0.00018310546875 -291.7550048828125 -4.764373779296875 -318.2699890136719 -16.5723876953125 -352.7359924316406C-52.49967956542969 -457.593994140625 -71.62448120117188 -552.1799926757812 -76.21438598632812 -647.6119995117188C-76.54298400878906 -654.6489868164062 -76.70237731933594 -664.7069702148438 -76.70237731933594 -675.4240112304688C-76.70237731933594 -690.5490112304688 -76.3848876953125 -706.9869995117188 -75.77728271484375 -718.1010131835938C-70.96879577636719 -806.0469970703125 -48.15559387207031 -889.677001953125 -10.206588745117188 -958.5269775390625C-5.835235595703125 -966.4500122070312 -5.862548828125 -966.3679809570312 -5.753265380859375 -968.9089965820312C-5.7459869384765625 -969.0650024414062 -5.742401123046875 -969.219970703125 -5.742401123046875 -969.3740234375C-5.742401123046875 -974.7890014648438 -10.198684692382812 -978.47900390625 -14.842681884765625 -978.47900390625C-16.996078491210938 -978.47900390625 -19.18988037109375 -977.6859741210938 -20.998489379882812 -975.9030151367188C-23.21148681640625 -973.7169799804688 -38.31999206542969 -945.822021484375 -50.99699401855469 -920.4140014648438C-118.1829833984375 -785.9869995117188 -151.8009796142578 -656.5590209960938 -151.8009796142578 -532.5390014648438C-151.8009796142578 -470.010009765625 -143.25498962402344 -408.8559875488281 -126.156982421875 -349.1289978027344C-122.96098327636719 -338.010009765625 -119.92799377441406 -328.50201416015625 -113.64398193359375 -310.05999755859375C-103.72697448730469 -280.8810119628906 -96.67788696289062 -251.59300231933594 -93.15348815917969 -224.8179931640625C-91.05189514160156 -208.91400146484375 -90.01148986816406 -193.53799438476562 -90.01148986816406 -178.7550048828125C-90.01148986816406 -105.5159912109375 -115.54498291015625 -46.805694580078125 -164.0789794921875 -10.320098876953125C-169.10598754882812 -6.5225067138671875 -170.17198181152344 -4.937896728515625 -170.17198181152344 -1.05828857421875C-170.17198181152344 2.8213043212890625 -169.10598754882812 4.4059295654296875 -164.0789794921875 8.203567504882812C-141.92198181152344 24.869400024414062 -123.20698547363281 48.065093994140625 -111.10298156738281 73.93820190429688C-96.93467712402344 104.177001953125 -89.85478210449219 138.68699645996094 -89.85478210449219 176.66799926757812C-89.85478210449219 218.36900329589844 -98.38958740234375 264.2560119628906 -115.44798278808594 313.27099609375C-139.81698608398438 383.3190002441406 -151.96798706054688 456.02801513671875 -151.96798706054688 530.8790283203125C-151.96798706054688 665.906982421875 -112.42399597167969 807.9039916992188 -33.73008728027344 953.8150024414062C-21.8726806640625 975.7529907226562 -21.326278686523438 976.6279907226562 -18.238983154296875 977.802001953125Z" fill="black" /></g></svg>