<?xml version="1.0" encoding="utf-8" ?>
<svg baseProfile="tiny" height="100%" version="1.2" width="100%" xmlns="http://www.w3.org/2000/svg" xmlns:ev="http://www.w3.org/2001/xml-events" xmlns:xlink="http://www.w3.org/1999/xlink"><defs /><g transform="translate(0, 1000) scale(1, -1)"><path d="M-12.082901000976562 1675.4599609375C-11.057510375976562 1675.81005859375 -10.028213500976562 1675.97998046875 -9.026412963867188 1675.97998046875C-4.8874053955078125 1675.97998046875 -1.2171478271484375 1673.1199951171875 -0.2268218994140625 1668.68994140625C-0.084808349609375 1668.0699462890625 -1.52587890625e-05 1667.5 -1.52587890625e-05 1666.9100341796875C-1.52587890625e-05 1664.81005859375 -1.0811309814453125 1662.4599609375 -4.49774169921875 1656.2900390625C-88.95960998535156 1503.4200439453125 -131.34600830078125 1325.0799560546875 -131.34600830078125 1130.97998046875C-131.34600830078125 964.843994140625 -100.28901672363281 787.1630249023438 -37.981719970703125 604.0390014648438C-29.679122924804688 579.6430053710938 -26.774917602539062 570.7260131835938 -24.895614624023438 564.2680053710938C-12.21661376953125 520.2329711914062 -5.9958343505859375 475.8909912109375 -5.9958343505859375 431.93798828125C-5.9958343505859375 284.3659973144531 -76.12071228027344 141.17100524902344 -207.38401794433594 28.626495361328125C-217.87301635742188 19.6405029296875 -239.39801025390625 2.317657470703125 -244.6940155029297 -1.406585693359375L-245.37802124023438 -1.884918212890625L-244.6940155029297 -2.3632659912109375C-242.54202270507812 -3.900787353515625 -226.8930206298828 -16.201080322265625 -220.9140167236328 -21.052780151367188C-82.01261901855469 -134.61997985839844 -6.126068115234375 -281.0719757080078 -6.126068115234375 -435.38697814941406C-6.126068115234375 -437.5769805908203 -6.141357421875 -439.7679901123047 -6.1719512939453125 -441.9609832763672C-6.88946533203125 -493.38197326660156 -14.645416259765625 -538.6879730224609 -31.114120483398438 -587.3430023193359C-55.09962463378906 -658.2739715576172 -67.980712890625 -700.9829559326172 -80.86181640625 -752.5419769287109C-114.32801818847656 -886.1939544677734 -131.00201416015625 -1014.2800140380859 -131.00201416015625 -1135.439926147461C-131.00201416015625 -1328.469955444336 -88.67521667480469 -1503.9200286865234 -4.49774169921875 -1656.300033569336C-1.0811309814453125 -1662.469955444336 -1.52587890625e-05 -1664.8199310302734 -1.52587890625e-05 -1666.9200286865234C-1.52587890625e-05 -1667.509994506836 -0.084808349609375 -1668.0799407958984 -0.2268218994140625 -1668.709945678711C-1.255645751953125 -1673.300033569336 -5.3294830322265625 -1675.979965209961 -9.387786865234375 -1675.979965209961C-11.933517456054688 -1675.979965209961 -14.473220825195312 -1674.9300384521484 -16.251312255859375 -1672.6299896240234C-17.686309814453125 -1670.8199310302734 -33.232513427734375 -1642.4000091552734 -43.82441711425781 -1622.270004272461C-161.3360137939453 -1398.6600189208984 -224.98001098632812 -1158.759994506836 -224.98001098632812 -941.8820037841797C-224.98001098632812 -926.8300018310547 -224.67401123046875 -911.8879852294922 -224.05702209472656 -897.0699920654297C-218.83001708984375 -771.1290130615234 -198.91001892089844 -663.7410125732422 -159.75401306152344 -550.2709808349609C-133.1190185546875 -473.11497497558594 -120.09202575683594 -398.43299865722656 -120.09202575683594 -329.2939910888672C-120.09202575683594 -195.77598571777344 -168.67201232910156 -82.92828369140625 -261.64100646972656 -12.852691650390625C-267.53501892089844 -8.410888671875 -270.4820098876953 -5.1479034423828125 -270.4820098876953 -1.884918212890625C-270.4820098876953 1.3780670166015625 -267.53501892089844 4.64105224609375 -261.64100646972656 9.082809448242188C-168.66702270507812 79.14570617675781 -120.10902404785156 191.84701538085938 -120.10902404785156 325.33900451660156C-120.10902404785156 394.5030059814453 -133.1430206298828 469.2480010986328 -159.7880096435547 546.5349884033203C-203.32501220703125 672.8410186767578 -224.98802185058594 803.6790313720703 -224.98802185058594 937.2230377197266C-224.98802185058594 1166.0899810791016 -161.36302185058594 1402.9100494384766 -35.18000793457031 1638.490005493164C-17.13970947265625 1672.1800689697266 -15.909622192382812 1674.1300201416016 -12.082916259765625 1675.459976196289Z" fill="black" /></g></svg>