<?xml version="1.0" encoding="utf-8" ?>
<svg baseProfile="tiny" height="100%" version="1.2" width="100%" xmlns="http://www.w3.org/2000/svg" xmlns:ev="http://www.w3.org/2001/xml-events" xmlns:xlink="http://www.w3.org/1999/xlink"><defs /><g transform="translate(0, 1000) scale(1, -1)"><path d="M-12.492202758789062 6082.0498046875C-11.43621826171875 6082.35986328125 -10.394912719726562 6082.509765625 -9.391921997070312 6082.509765625C-4.2823486328125 6082.509765625 -0.167816162109375 6078.64990234375 -0.167816162109375 6073.2099609375C-0.2362823486328125 6070.41015625 -1.537200927734375 6067.669921875 -11.876022338867188 6049.18017578125C-260.4180145263672 5603.240234375 -425.29100036621094 5094.31005859375 -495.74501037597656 4555.18994140625C-522.1179962158203 4353.52001953125 -535.1980133056641 4147.08984375 -535.1980133056641 3937.7900390625C-535.1980133056641 3345.60009765625 -430.4910125732422 2730.43994140625 -225.91001892089844 2135.159912109375L-208.24501037597656 2083.739990234375C-145.82101440429688 1901.719970703125 -113.54002380371094 1706.77001953125 -113.54002380371094 1511.52001953125C-113.54002380371094 1505.8900146484375 -113.5670166015625 1500.260009765625 -113.62101745605469 1494.6300048828125C-114.03201293945312 1454.6500244140625 -114.30500793457031 1446.0899658203125 -116.49601745605469 1405.9599609375C-146.55401611328125 865.4030151367188 -435.56103515625 345.79302978515625 -896.4940490722656 3.722412109375C-904.0940246582031 -1.96051025390625 -910.3240051269531 -6.6848602294921875 -910.3240051269531 -6.8902587890625C-910.3240051269531 -7.095672607421875 -904.0940246582031 -11.819992065429688 -896.4940490722656 -17.50299072265625C-435.56103515625 -359.572998046875 -146.55401611328125 -879.1840209960938 -116.49601745605469 -1419.75C-114.30500793457031 -1459.8699951171875 -114.03201293945312 -1468.4300537109375 -113.62101745605469 -1508.4100341796875C-113.56501770019531 -1514.219970703125 -113.53800964355469 -1520.010009765625 -113.53800964355469 -1525.81005859375C-113.53800964355469 -1706.800048828125 -140.4920196533203 -1882.699951171875 -194.96202087402344 -2057.1201171875C-200.9190216064453 -2076.219970703125 -203.52001953125 -2083.760009765625 -225.5670166015625 -2147.909912109375C-428.92002868652344 -2738.949951171875 -533.9199981689453 -3353.64990234375 -533.9199981689453 -3944.889892578125C-533.9199981689453 -4051.989990234375 -530.4740142822266 -4158.31982421875 -523.5440216064453 -4263.60009765625C-480.8190155029297 -4912.14013671875 -305.4700164794922 -5522.9501953125 -10.164321899414062 -6052.35009765625C-2.668426513671875 -6065.81005859375 -1.52587890625e-05 -6071.0498046875 -1.52587890625e-05 -6074.43017578125C-1.52587890625e-05 -6075.89990234375 -0.5028076171875 -6077.009765625 -1.331787109375 -6078.2998046875C-3.136962890625 -6080.97998046875 -6.5276336669921875 -6082.509765625 -9.756011962890625 -6082.509765625C-11.548110961914062 -6082.509765625 -13.290115356445312 -6082.0400390625 -14.683212280273438 -6081.0400390625C-21.46160888671875 -6075.97021484375 -117.11302185058594 -5895.35009765625 -164.49301147460938 -5797.990234375C-516.3950500488281 -5074.43017578125 -694.5140075683594 -4316.18017578125 -694.5140075683594 -3567.6298828125C-694.5140075683594 -3125.389892578125 -632.3440246582031 -2686.530029296875 -507.11102294921875 -2260.199951171875C-485.8860168457031 -2187.89990234375 -463.3600158691406 -2118.1298828125 -430.8370361328125 -2023.6400146484375C-373.5970153808594 -1857.5999755859375 -336.6240234375 -1686.1600341796875 -320.87603759765625 -1514.22998046875C-315.176025390625 -1451.780029296875 -312.3620300292969 -1389.9300537109375 -312.3620300292969 -1328.8699951171875C-312.3620300292969 -792.2139892578125 -529.6690368652344 -316.57501220703125 -913.8850402832031 -28.32098388671875C-928.9480285644531 -16.9893798828125 -936.4790344238281 -11.93988037109375 -936.4790344238281 -6.8902587890625C-936.4790344238281 -1.8406982421875 -928.9480285644531 3.2088775634765625 -913.8850402832031 14.540512084960938C-529.6690368652344 302.7940216064453 -312.3620300292969 778.4329986572266 -312.3620300292969 1315.0899810791016C-312.3620300292969 1376.1500396728516 -315.176025390625 1438.000015258789 -320.87603759765625 1500.449966430664C-336.6240234375 1672.449966430664 -373.46002197265625 1843.1400299072266 -430.7680358886719 2009.8600006103516C-498.0730285644531 2205.340103149414 -539.2230529785156 2347.889907836914 -580.0990295410156 2526.320083618164C-657.5090026855469 2864.750015258789 -695.7950134277344 3210.719985961914 -695.7950134277344 3558.800064086914C-695.7950134277344 4403.439956665039 -470.3620300292969 5260.569839477539 -31.4581298828125 6052.950210571289C-16.531936645507812 6079.790054321289 -15.778732299804688 6081.020034790039 -12.492233276367188 6082.049819946289Z" fill="black" /></g></svg>