<?xml version="1.0" encoding="utf-8" ?>
<svg baseProfile="tiny" height="100%" version="1.2" width="100%" xmlns="http://www.w3.org/2000/svg" xmlns:ev="http://www.w3.org/2001/xml-events" xmlns:xlink="http://www.w3.org/1999/xlink"><defs /><g transform="translate(0, 1000) scale(1, -1)"><path d="M-11.176895141601562 1913.969970703125C-10.505584716796875 1914.0999755859375 -9.841415405273438 1914.1700439453125 -9.1915283203125 1914.1700439453125C-4.7817230224609375 1914.1700439453125 -1.0299835205078125 1911.2099609375 -0.1876373291015625 1906.81005859375C-0.0763397216796875 1906.2099609375 -0.012725830078125 1905.6600341796875 -0.012725830078125 1905.0999755859375C-0.012725830078125 1902.97998046875 -0.9431610107421875 1900.8299560546875 -3.6956024169921875 1895.8900146484375C-102.69898986816406 1718.1800537109375 -152.3739776611328 1511.3499755859375 -152.3739776611328 1286.3299560546875C-152.3739776611328 1092.9300537109375 -115.67799377441406 886.0960083007812 -42.068389892578125 672.760986328125C-39.27629089355469 664.7069702148438 -35.91157531738281 654.469970703125 -34.55128479003906 650.031005859375C-18.557586669921875 597.7150268554688 -10.760482788085938 544.7000122070312 -10.760482788085938 492.0539855957031C-10.760482788085938 309.0469970703125 -104.97999572753906 130.51300048828125 -276.63597106933594 1.41668701171875C-279.10597229003906 -0.4446868896484375 -281.14598083496094 -2.05548095703125 -281.14598083496094 -2.162872314453125C-281.14598083496094 -2.2702484130859375 -279.10597229003906 -3.88104248046875 -276.63597106933594 -5.7424163818359375C-216.74998474121094 -50.773101806640625 -162.26998901367188 -106.22000122070312 -120.46098327636719 -164.6739959716797C-48.02409362792969 -265.9570007324219 -10.73028564453125 -381.052001953125 -10.73028564453125 -496.427001953125C-10.73028564453125 -555.2880249023438 -20.436782836914062 -614.2219848632812 -40.13539123535156 -671.4310302734375C-75.3223876953125 -773.698974609375 -98.01667785644531 -856.135986328125 -116.8809814453125 -950.385009765625C-140.281982421875 -1067.239990234375 -151.92298889160156 -1180.5400390625 -151.92298889160156 -1289.260009765625C-151.92298889160156 -1513.31005859375 -102.48698425292969 -1717.9100341796875 -4.662078857421875 -1894.1300048828125C-1.0730133056640625 -1900.5999755859375 1.52587890625e-05 -1902.9200439453125 1.52587890625e-05 -1905.1300048828125C1.52587890625e-05 -1905.699951171875 -0.0706634521484375 -1906.260009765625 -0.1876373291015625 -1906.8800048828125C-1.05181884765625 -1911.4200439453125 -5.23907470703125 -1914.1700439453125 -9.426528930664062 -1914.1700439453125C-11.830184936523438 -1914.1700439453125 -14.23388671875 -1913.260009765625 -16.009292602539062 -1911.280029296875C-18.693878173828125 -1908.239990234375 -49.1558837890625 -1851.0400390625 -64.94169616699219 -1819.3199462890625C-188.4399871826172 -1571.3299560546875 -250.9089813232422 -1320.6199951171875 -250.9089813232422 -1078.0C-250.9089813232422 -962.0499877929688 -236.63998413085938 -847.9429931640625 -207.9449920654297 -736.864990234375C-197.7069854736328 -697.1320190429688 -189.54598999023438 -670.3209838867188 -174.010986328125 -624.8250122070312C-152.35398864746094 -561.6820068359375 -139.57498168945312 -502.8699951171875 -134.09898376464844 -441.7309875488281C-132.32598876953125 -421.9590148925781 -131.45098876953125 -402.48699951171875 -131.45098876953125 -383.3680114746094C-131.45098876953125 -225.61399841308594 -191.0789794921875 -91.90921020507812 -298.82899475097656 -12.221405029296875C-303.8939971923828 -8.48077392578125 -306.42698669433594 -5.3218231201171875 -306.42698669433594 -2.162872314453125C-306.42698669433594 0.9960784912109375 -303.8939971923828 4.1550445556640625 -298.82899475097656 7.8956756591796875C-268.51097106933594 30.303604125976562 -240.87698364257812 58.29570007324219 -217.82398986816406 89.83149719238281C-160.5179901123047 168.3509979248047 -131.4019775390625 268.2659912109375 -131.4019775390625 378.6260070800781C-131.4019775390625 455.4219970703125 -145.50099182128906 537.2769775390625 -174.010986328125 620.5C-206.333984375 714.9639892578125 -225.12698364257812 792.3900146484375 -238.19198608398438 885.2069702148438C-247.02098083496094 947.8319702148438 -251.406982421875 1011.3699951171875 -251.406982421875 1075.550048828125C-251.406982421875 1338.18994140625 -177.94198608398438 1611.5999755859375 -34.8018798828125 1877.4599609375C-16.116683959960938 1912.1099853515625 -15.508087158203125 1913.0699462890625 -11.1768798828125 1913.969970703125Z" fill="black" /></g></svg>