<?xml version="1.0" encoding="utf-8" ?>
<svg baseProfile="tiny" height="100%" version="1.2" width="100%" xmlns="http://www.w3.org/2000/svg" xmlns:ev="http://www.w3.org/2001/xml-events" xmlns:xlink="http://www.w3.org/1999/xlink"><defs /><g transform="translate(0, 1000) scale(1, -1)"><path d="M-10.947998046875 3744.489990234375C-10.345901489257812 3744.6298828125 -9.736907958984375 3744.699951171875 -9.130691528320312 3744.699951171875C-4.7017822265625 3744.699951171875 -0.4212188720703125 3741.169921875 -0.0507659912109375 3736.860107421875C-0.019989013671875 3736.4599609375 0.0 3736.090087890625 0.0 3735.719970703125C0.0 3732.989990234375 -1.139068603515625 3730.68994140625 -7.3682403564453125 3719.489990234375C-213.29200744628906 3347.56005859375 -317.9739990234375 2920.389892578125 -317.9739990234375 2458.0400390625C-317.9739990234375 2325.85009765625 -309.4169921875 2190.7900390625 -292.2229919433594 2053.320068359375C-262.0060119628906 1811.93994140625 -203.41299438476562 1560.780029296875 -121.92098999023438 1323.93994140625C-99.54730224609375 1258.8199462890625 -94.65139770507812 1242.760009765625 -83.85940551757812 1199.219970703125C-63.115509033203125 1115.6500244140625 -52.732696533203125 1029.06005859375 -52.732696533203125 942.3099975585938C-52.732696533203125 861.2999877929688 -61.78619384765625 780.14501953125 -79.91119384765625 701.1630249023438C-118.18299865722656 534.2830200195312 -195.46400451660156 376.0889892578125 -306.9630126953125 236.32000732421875C-375.9259948730469 149.87899780273438 -454.7869873046875 73.28240966796875 -544.8599853515625 5.3194732666015625C-551.5460205078125 0.2657012939453125 -557.072998046875 -4.05108642578125 -557.072998046875 -4.26165771484375C-557.072998046875 -4.47222900390625 -551.5460205078125 -8.789016723632812 -544.8070068359375 -13.842803955078125C-258.37298583984375 -230.0500030517578 -80.91140747070312 -539.7000274658203 -55.90570068359375 -866.8280181884766C-53.78350830078125 -894.7210235595703 -52.7257080078125 -922.6110382080078 -52.7257080078125 -950.4199981689453C-52.7257080078125 -1037.810073852539 -63.172607421875 -1124.4000396728516 -83.85940551757812 -1207.750015258789C-94.59880065917969 -1251.1800689697266 -99.7052001953125 -1267.9200592041016 -121.65798950195312 -1331.6700592041016C-249.77099609375 -1703.6400299072266 -317.21099853515625 -2094.800064086914 -317.21099853515625 -2462.240005493164C-317.21099853515625 -2496.580093383789 -316.62200927734375 -2530.699966430664 -315.4389953613281 -2564.590103149414C-301.8039855957031 -2954.520034790039 -213.0469970703125 -3314.649917602539 -51.3782958984375 -3636.149917602539C-35.37469482421875 -3667.939956665039 -25.372406005859375 -3686.889907836914 -3.5252532958984375 -3726.540054321289C-1.331878662109375 -3730.530044555664 -0.2677154541015625 -3734.070083618164 -0.2677154541015625 -3736.929946899414C-0.2677154541015625 -3741.770034790039 -3.3003997802734375 -3744.699966430664 -9.052825927734375 -3744.699966430664C-14.527801513671875 -3744.699966430664 -15.001602172851562 -3744.169937133789 -24.845901489257812 -3726.429946899414C-173.98500061035156 -3458.159927368164 -285.3269958496094 -3178.250015258789 -357.0270080566406 -2891.240005493164C-417.5989990234375 -2648.800064086914 -447.8590087890625 -2405.490005493164 -447.8590087890625 -2165.169937133789C-447.8590087890625 -1902.3299713134766 -411.6629943847656 -1643.0799713134766 -339.3389892578125 -1392.469985961914C-325.0199890136719 -1342.8299713134766 -312.59600830078125 -1303.979995727539 -289.9070129394531 -1237.969985961914C-238.7310028076172 -1088.8199615478516 -213.97999572753906 -939.2429962158203 -213.97999572753906 -796.4450225830078C-213.97999572753906 -474.1730194091797 -340.04901123046875 -186.4300079345703 -572.9719848632812 -16.106521606445312C-579.60498046875 -11.263320922851562 -582.9210205078125 -7.762481689453125 -582.9210205078125 -4.2616729736328125C-582.9210205078125 -0.7608642578125 -579.60498046875 2.73992919921875 -572.9719848632812 7.5831451416015625C-342.14898681640625 176.41798400878906 -213.7899932861328 464.31297302246094 -213.7899932861328 788.4319915771484C-213.7899932861328 877.7579803466797 -223.5399932861328 969.8359832763672 -243.5800018310547 1062.9300384521484C-257.89898681640625 1129.5799407958984 -270.27099609375 1172.5899505615234 -299.2770080566406 1256.8199310302734C-389.1400146484375 1517.9300384521484 -437.41400146484375 1785.729965209961 -447.67999267578125 2080.429916381836C-448.12701416015625 2093.379867553711 -448.35101318359375 2127.280014038086 -448.35101318359375 2161.199935913086C-448.35101318359375 2195.110092163086 -448.12701416015625 2229.040023803711 -447.67999267578125 2242.040023803711C-441.572998046875 2418.030014038086 -424.885009765625 2567.060043334961 -392.87799072265625 2731.259994506836C-340.1289978027344 3001.850082397461 -245.0540008544922 3285.389877319336 -122.28900146484375 3538.340072631836C-119.0780029296875 3544.969955444336 -116.44599914550781 3550.499984741211 -116.44599914550781 3550.610092163086C-116.44599914550781 3553.030014038086 -60.696197509765625 3661.050033569336 -38.63859558105469 3701.320053100586C-14.89630126953125 3744.699935913086 -15.738601684570312 3743.439926147461 -10.947998046875 3744.489974975586Z" fill="black" /></g></svg>