<?xml version="1.0" encoding="utf-8" ?>
<svg baseProfile="tiny" height="100%" version="1.2" width="100%" xmlns="http://www.w3.org/2000/svg" xmlns:ev="http://www.w3.org/2001/xml-events" xmlns:xlink="http://www.w3.org/1999/xlink"><defs /><g transform="translate(0, 1000) scale(1, -1)"><path d="M-19.227294921875 458.6080017089844C-18.658203125 458.68798828125 -18.119796752929688 458.73699951171875 -17.942398071289062 458.73699951171875L-17.896392822265625 458.7349853515625C-17.794998168945312 458.7090148925781 -17.313400268554688 458.65899658203125 -16.844406127929688 458.6080017089844C-12.407501220703125 458.177001953125 -9.0191650390625 454.1940002441406 -9.0191650390625 449.70599365234375C-9.0191650390625 449.3089904785156 -9.045623779296875 448.90899658203125 -9.100173950195312 448.5060119628906C-9.315643310546875 446.8590087890625 -9.5311279296875 446.3389892578125 -11.419692993164062 442.8909912109375C-29.7864990234375 409.3630065917969 -38.96989440917969 370.6619873046875 -38.96989440917969 326.4679870605469C-38.96989440917969 280.4809875488281 -29.0260009765625 228.5449981689453 -9.138214111328125 170.2969970703125L-6.615936279296875 162.90699768066406C-2.20587158203125 150.0180206298828 0.0 136.1730194091797 0.0 122.29701232910156C0.0 108.81602478027344 -2.0822906494140625 95.30500793457031 -6.248382568359375 82.61311340332031C-16.0458984375 52.76420593261719 -34.95660400390625 27.997817993164062 -68.08819580078125 1.62176513671875C-69.5205078125 0.49371337890625 -70.68649291992188 -0.48223876953125 -70.68649291992188 -0.532928466796875C-70.68649291992188 -0.5836334228515625 -69.5205078125 -1.5595855712890625 -68.08819580078125 -2.6876373291015625C-34.95660400390625 -29.063690185546875 -16.0458984375 -53.83009338378906 -6.248382568359375 -83.67898559570312C-2.0869140625 -96.36918640136719 -0.0077056884765625 -109.885986328125 -0.0077056884765625 -123.36798095703125C-0.0077056884765625 -137.2749786376953 -2.2200164794921875 -151.14598083496094 -6.64129638671875 -164.0369873046875C-28.899505615234375 -228.95797729492188 -38.90960693359375 -279.4969940185547 -38.90960693359375 -327.29798889160156C-38.90960693359375 -328.2209930419922 -38.905792236328125 -329.14198303222656 -38.898406982421875 -330.06199645996094C-38.834991455078125 -338.4149932861328 -38.771697998046875 -340.3419952392578 -38.42939758300781 -345.6019744873047C-36.033905029296875 -382.3579864501953 -26.768707275390625 -415.34999084472656 -10.735198974609375 -444.2109832763672C-9.556472778320312 -446.3269805908203 -9.302978515625 -446.9989776611328 -9.100173950195312 -448.5459747314453C-9.0404052734375 -448.98997497558594 -9.011566162109375 -449.4249725341797 -9.011566162109375 -449.84999084472656C-9.011566162109375 -455.0459747314453 -13.314300537109375 -458.7369842529297 -18.021499633789062 -458.7369842529297C-19.953399658203125 -458.7369842529297 -21.953399658203125 -458.11497497558594 -23.752105712890625 -456.7209930419922C-25.146392822265625 -455.6429901123047 -26.160293579101562 -453.9449920654297 -32.62440490722656 -441.92897033691406C-72.90420532226562 -367.1289825439453 -92.01348876953125 -302.39198303222656 -92.01348876953125 -239.59898376464844C-92.01348876953125 -230.114990234375 -91.57749938964844 -220.67398071289062 -90.71260070800781 -211.24998474121094C-88.62120056152344 -188.510986328125 -83.5513916015625 -164.9619903564453 -76.03530883789062 -143.18698120117188C-68.3037109375 -120.73997497558594 -64.1083984375 -102.75398254394531 -62.52400207519531 -85.26329040527344C-62.156097412109375 -81.20979309082031 -61.973602294921875 -77.25187683105469 -61.973602294921875 -73.39799499511719C-61.973602294921875 -45.39057922363281 -71.6123046875 -22.873977661132812 -89.76199340820312 -9.024978637695312C-92.2716064453125 -7.1110992431640625 -92.36029052734375 -7.0350494384765625 -92.96868896484375 -6.2492218017578125C-94.32489013671875 -4.5001220703125 -95.00299072265625 -2.5165252685546875 -95.00299072265625 -0.532928466796875C-95.00299072265625 1.450653076171875 -94.32489013671875 3.4342498779296875 -92.96868896484375 5.183349609375C-92.36029052734375 5.9691925048828125 -92.2716064453125 6.0452423095703125 -89.76199340820312 7.9591217041015625C-75.26210021972656 19.02410888671875 -65.61669921875 36.743316650390625 -62.8916015625 57.28901672363281C-62.264801025390625 62.02030944824219 -61.949493408203125 66.94371032714844 -61.949493408203125 72.08421325683594C-61.949493408203125 91.78671264648438 -66.58149719238281 114.67901611328125 -76.06060791015625 142.1710205078125C-86.739501953125 173.14801025390625 -92.09320068359375 205.61502075195312 -92.09320068359375 238.9140167236328C-92.09320068359375 262.17100524902344 -89.48150634765625 285.8350067138672 -84.24850463867188 309.6800079345703C-74.62840270996094 353.48402404785156 -56.04730224609375 399.8990020751953 -27.757293701171875 450.8000030517578C-24.39849853515625 456.8460235595703 -23.080398559570312 458.06300354003906 -19.227294921875 458.60801696777344Z" fill="black" /></g></svg>