<?xml version="1.0" encoding="utf-8" ?>
<svg baseProfile="tiny" height="100%" version="1.2" width="100%" xmlns="http://www.w3.org/2000/svg" xmlns:ev="http://www.w3.org/2001/xml-events" xmlns:xlink="http://www.w3.org/1999/xlink"><defs /><g transform="translate(0, 1000) scale(1, -1)"><path d="M-18.94000244140625 443.65399169921875C-18.505401611328125 443.7120056152344 -18.07550048828125 443.7409973144531 -17.652297973632812 443.7409973144531C-12.70660400390625 443.7409973144531 -8.672637939453125 439.8330078125 -8.672637939453125 434.7090148925781C-8.672637939453125 432.5899963378906 -8.929916381835938 431.7929992675781 -10.669692993164062 428.6449890136719C-28.596298217773438 396.2430114746094 -37.562408447265625 359.0989990234375 -37.562408447265625 316.4200134277344C-37.562408447265625 271.385986328125 -27.57940673828125 220.19000244140625 -7.6066741943359375 161.9010009765625C-3.0856170654296875 148.72999572753906 -0.990478515625 139.3939971923828 -0.1328125 128.5989990234375C-0.041900634765625 127.47100830078125 0.0 123.73899841308594 0.0 119.68399047851562C0.0 114.44999694824219 -0.0698089599609375 108.677001953125 -0.1940765380859375 107.26800537109375C-2.2279510498046875 84.16049194335938 -10.890304565429688 61.77569580078125 -25.531707763671875 41.79229736328125C-35.52949523925781 28.155593872070312 -47.62249755859375 15.964599609375 -64.94720458984375 2.0950469970703125C-66.66250610351562 0.710540771484375 -68.07150268554688 -0.441162109375 -68.07150268554688 -0.49017333984375C-68.07150268554688 -0.5391845703125 -66.66250610351562 -1.690887451171875 -64.94720458984375 -3.0753936767578125C-47.62249755859375 -16.944900512695312 -35.52949523925781 -29.135894775390625 -25.531707763671875 -42.772705078125C-10.890304565429688 -62.756103515625 -2.2279510498046875 -85.14089965820312 -0.1940765380859375 -108.24899291992188C-0.0698089599609375 -109.65699768066406 0.0 -115.42999267578125 0.0 -120.66500854492188C0.0 -124.72000122070312 -0.041900634765625 -128.4510040283203 -0.1328125 -129.5800018310547C-0.990478515625 -140.31300354003906 -3.0978546142578125 -149.7469940185547 -7.5454254150390625 -162.7100067138672C-23.032302856445312 -207.8719940185547 -32.58900451660156 -249.13699340820312 -36.01959228515625 -285.72198486328125C-37.00520324707031 -296.1839904785156 -37.49729919433594 -306.3890075683594 -37.49729919433594 -316.3280029296875C-37.49729919433594 -358.7799987792969 -28.520004272460938 -396.39898681640625 -10.669692993164062 -428.6449890136719C-9.229995727539062 -431.25201416015625 -8.578094482421875 -433.0880126953125 -8.578094482421875 -434.8429870605469C-8.578094482421875 -435.61199951171875 -8.703262329101562 -436.364990234375 -8.942184448242188 -437.1600036621094C-10.247406005859375 -441.4840087890625 -13.836700439453125 -443.7409973144531 -17.523300170898438 -443.7409973144531C-20.688705444335938 -443.7409973144531 -23.925796508789062 -442.0769958496094 -25.850296020507812 -438.6300048828125C-60.0830078125 -377.197998046875 -79.1719970703125 -325.6400146484375 -86.4989013671875 -274.7569885253906C-88.1160888671875 -263.5830078125 -88.8389892578125 -255.50799560546875 -89.47610473632812 -241.61399841308594C-89.56658935546875 -239.61300659179688 -89.61250305175781 -235.56900024414062 -89.61250305175781 -231.49200439453125C-89.61250305175781 -227.28199768066406 -89.56350708007812 -223.03599548339844 -89.46389770507812 -220.968994140625C-88.4346923828125 -198.51100158691406 -86.09449768066406 -181.59100341796875 -81.3529052734375 -162.58700561523438C-78.73089599609375 -152.06300354003906 -77.468994140625 -147.81100463867188 -72.93560791015625 -134.40699768066406C-64.67910766601562 -110.01800537109375 -60.54530334472656 -88.595703125 -60.54530334472656 -70.31280517578125C-60.54530334472656 -61.51899719238281 -61.50160217285156 -53.451507568359375 -63.41560363769531 -46.129791259765625C-67.50790405273438 -30.471405029296875 -75.76589965820312 -17.631103515625 -87.47900390625 -8.699172973632812C-91.1669921875 -5.8934173583984375 -92.306396484375 -3.9575653076171875 -92.306396484375 -0.49017333984375C-92.306396484375 2.977203369140625 -91.1669921875 4.913055419921875 -87.47900390625 7.7188262939453125C-75.76589965820312 16.65069580078125 -67.50790405273438 29.491104125976562 -63.41560363769531 45.14939880371094C-61.50160217285156 52.47119140625 -60.54530334472656 60.53990173339844 -60.54530334472656 69.33509826660156C-60.54530334472656 87.62069702148438 -64.67910766601562 109.04598999023438 -72.93560791015625 133.427001953125C-77.6527099609375 147.3699951171875 -79.5028076171875 153.67999267578125 -82.1492919921875 164.76800537109375C-87.16390991210938 185.73300170898438 -89.69270324707031 208.18699645996094 -89.69270324707031 230.90899658203125C-89.69270324707031 245.0500030517578 -88.71319580078125 259.29400634765625 -86.743896484375 273.34698486328125C-79.63760375976562 323.99798583984375 -60.87939453125 375.3110046386719 -27.161300659179688 436.2409973144531C-24.122695922851562 441.74200439453125 -22.542205810546875 443.1629943847656 -18.94000244140625 443.65399169921875Z" fill="black" /></g></svg>