<?xml version="1.0" encoding="utf-8" ?>
<svg baseProfile="tiny" height="100%" version="1.2" width="100%" xmlns="http://www.w3.org/2000/svg" xmlns:ev="http://www.w3.org/2001/xml-events" xmlns:xlink="http://www.w3.org/1999/xlink"><defs /><g transform="translate(0, 1000) scale(1, -1)"><path d="M-14.158294677734375 8881.58984375C-12.629898071289062 8882.419921875 -10.897705078125 8882.8095703125 -9.190185546875 8882.8095703125C-5.775177001953125 8882.8095703125 -2.458984375 8881.259765625 -1.0695343017578125 8878.58984375C-0.4395599365234375 8877.330078125 0.0 8876.2998046875 0.0 8874.919921875C0.0 8870.8203125 -3.8774871826171875 8863.580078125 -18.160003662109375 8837.8203125C-533.6740417480469 7906.3798828125 -798.5640563964844 6839.009765625 -798.5640563964844 5698.10009765625C-798.5640563964844 5615.56005859375 -797.1770324707031 5532.6298828125 -794.3990173339844 5449.330078125C-768.3880310058594 4669.33984375 -616.4080505371094 3861.169921875 -352.04803466796875 3097.110107421875C-275.26702880859375 2875.10009765625 -238.50103759765625 2725.199951171875 -212.1570281982422 2527.2900390625C-197.09902954101562 2414.1298828125 -189.7050323486328 2300.85009765625 -189.7050323486328 2188.070068359375C-189.7050323486328 1346.199951171875 -601.7210235595703 532.364990234375 -1312.949966430664 5.158203125C-1323.699966430664 -2.845123291015625 -1332.540054321289 -9.681289672851562 -1332.540054321289 -10.014724731445312C-1332.540054321289 -10.431625366210938 -1323.699966430664 -17.184432983398438 -1312.949966430664 -25.187728881835938C-1050.000015258789 -219.60203552246094 -816.5739898681641 -465.7870178222656 -636.4160308837891 -738.6500549316406C-341.6940155029297 -1184.8900451660156 -190.0460205078125 -1692.5000305175781 -190.0460205078125 -2206.470001220703C-190.0460205078125 -2449.830108642578 -224.041015625 -2694.610137939453 -292.94102478027344 -2934.980010986328C-306.94602966308594 -2983.750030517578 -321.78602600097656 -3029.520050048828 -352.0480194091797 -3117.139923095703C-645.8870391845703 -3966.449981689453 -796.5139923095703 -4854.370147705078 -796.5139923095703 -5711.660186767578C-796.5139923095703 -6032.819854736328 -775.3750152587891 -6349.680206298828 -732.7060089111328 -6658.609893798828C-623.4940338134766 -7449.680206298828 -385.97901916503906 -8173.069854736328 -16.075820922851562 -8841.599639892578C-3.4706878662109375 -8864.349639892578 -0.013763427734375 -8870.900421142578 -0.013763427734375 -8874.830108642578C-0.013763427734375 -8876.099639892578 -0.3739013671875 -8877.099639892578 -0.902801513671875 -8878.280303955078C-2.2159271240234375 -8881.129913330078 -5.640350341796875 -8882.809600830078 -9.194686889648438 -8882.809600830078C-10.830520629882812 -8882.809600830078 -12.493820190429688 -8882.459991455078 -13.991622924804688 -8881.700225830078C-16.242507934570312 -8880.440460205078 -40.16911315917969 -8838.339874267578 -74.76681518554688 -8774.480499267578C-554.0490417480469 -7889.120147705078 -850.1720275878906 -6938.560089111328 -949.0460510253906 -5967.899932861328C-950.7130432128906 -5951.810089111328 -952.2140197753906 -5937.970245361328 -952.4640197753906 -5937.060089111328C-952.8810119628906 -5934.890167236328 -957.8830261230469 -5880.029815673828 -961.0510559082031 -5842.020050048828C-972.4730529785156 -5705.209991455078 -978.8920593261719 -5588.660186767578 -983.7270202636719 -5426.430206298828C-984.8400573730469 -5389.200225830078 -985.3670349121094 -5338.899932861328 -985.3670349121094 -5283.980010986328C-985.3670349121094 -5186.620147705078 -983.7110290527344 -5074.730010986328 -980.7260437011719 -4995.419952392578C-954.7990417480469 -4311.629913330078 -829.8300476074219 -3647.360137939453 -604.9030456542969 -2998.750030517578C-548.7130432128906 -2836.600128173828 -513.2820129394531 -2707.800079345703 -483.10302734375 -2555.649932861328C-444.18902587890625 -2359.360137939453 -425.2320251464844 -2164.439971923828 -425.2320251464844 -1973.8299865722656C-425.2320251464844 -1178.2500305175781 -755.4730529785156 -457.7920227050781 -1343.2099914550781 -26.354827880859375C-1357.5500793457031 -15.933929443359375 -1358.7200012207031 -14.60003662109375 -1358.7200012207031 -10.014724731445312C-1358.7200012207031 -5.429534912109375 -1357.5500793457031 -4.09564208984375 -1343.2099914550781 6.325347900390625C-755.4730529785156 437.7629699707031 -425.2320251464844 1158.2199401855469 -425.2320251464844 1953.8000183105469C-425.2320251464844 2144.409881591797 -444.18902587890625 2339.330047607422 -483.10302734375 2535.620086669922C-513.2820129394531 2687.769989013672 -548.7970275878906 2816.909881591797 -604.9030456542969 2978.729949951172C-859.5160217285156 3712.570037841797 -987.5680236816406 4472.240203857422 -987.5680236816406 5246.060028076172C-987.5680236816406 5411.999969482422 -981.6790466308594 5578.580047607422 -969.8880310058594 5745.709930419922C-965.5530090332031 5807.399871826172 -956.8830261230469 5909.019989013672 -954.0480041503906 5932.029754638672C-953.3810119628906 5937.540008544922 -951.8810119628906 5951.629852294922 -950.7130432128906 5963.299774169922C-860.2590026855469 6870.009735107422 -583.0610046386719 7794.060028076172 -149.96502685546875 8632.320281982422C-94.10812377929688 8740.450164794922 -18.410125732421875 8879.259735107422 -14.1583251953125 8881.589813232422Z" fill="black" /></g></svg>