<?xml version="1.0" encoding="utf-8" ?>
<svg baseProfile="tiny" height="100%" version="1.2" width="100%" xmlns="http://www.w3.org/2000/svg" xmlns:ev="http://www.w3.org/2001/xml-events" xmlns:xlink="http://www.w3.org/1999/xlink"><defs /><g transform="translate(0, 1000) scale(1, -1)"><path d="M-18.133697509765625 909.1489868164062C-17.2991943359375 909.375 -16.464706420898438 909.4829711914062 -15.647705078125 909.4829711914062C-11.595001220703125 909.4829711914062 -7.972808837890625 906.8300170898438 -6.91680908203125 902.7540283203125C-6.6873931884765625 901.8779907226562 -6.5512847900390625 901.1329956054688 -6.5512847900390625 900.3759765625C-6.5512847900390625 898.3679809570312 -7.50732421875 896.2680053710938 -10.215896606445312 891.385009765625C-51.57569885253906 816.52099609375 -72.25559997558594 730.3619995117188 -72.25559997558594 633.4580078125C-72.25559997558594 539.0830078125 -52.64149475097656 434.5159912109375 -13.413497924804688 320.26300048828125C-4.4377593994140625 294.09698486328125 0.0 266.8919982910156 0.0 239.6280059814453C0.0 195.1269989013672 -11.823593139648438 150.4709930419922 -35.03509521484375 109.93299865722656C-57.139007568359375 71.38490295410156 -90.20599365234375 34.663604736328125 -131.697998046875 2.5863800048828125C-134.16000366210938 0.6830596923828125 -136.19000244140625 -0.94110107421875 -136.19000244140625 -1.017242431640625C-136.19000244140625 -1.0933685302734375 -134.16000366210938 -2.717529296875 -131.697998046875 -4.620849609375C-90.20599365234375 -36.69810485839844 -57.139007568359375 -73.41940307617188 -35.03509521484375 -111.96800231933594C-11.823593139648438 -152.50599670410156 0.0 -197.14199829101562 0.0 -241.63999938964844C0.0 -268.9020080566406 -4.4377593994140625 -296.11199951171875 -13.413497924804688 -322.2969970703125C-34.781402587890625 -384.52301025390625 -48.00309753417969 -433.8059997558594 -58.15409851074219 -488.9010009765625C-67.38629150390625 -538.9739990234375 -71.98809814453125 -587.0269775390625 -71.98809814453125 -632.822998046875C-71.98809814453125 -729.906005859375 -51.30720520019531 -816.844970703125 -10.215896606445312 -891.3889770507812C-7.50732421875 -896.27197265625 -6.5512847900390625 -898.3720092773438 -6.5512847900390625 -900.3800048828125C-6.5512847900390625 -901.1380004882812 -6.6873931884765625 -901.8820190429688 -6.91680908203125 -902.7579956054688C-8.025604248046875 -907.0009765625 -11.841094970703125 -909.4829711914062 -15.734298706054688 -909.4829711914062C-17.989501953125 -909.4829711914062 -20.270706176757812 -908.6500244140625 -22.06719970703125 -906.843994140625C-24.807998657226562 -904.1290283203125 -46.73419189453125 -862.5859985351562 -58.81390380859375 -837.3350219726562C-116.22200012207031 -717.1229858398438 -144.7969970703125 -603.6270141601562 -144.7969970703125 -494.156005859375C-144.7969970703125 -425.447998046875 -133.54100036621094 -358.32501220703125 -111.09201049804688 -292.12298583984375C-103.32598876953125 -269.2330017089844 -99.16419982910156 -254.56399536132812 -95.38299560546875 -236.77499389648438C-89.81130981445312 -210.60499572753906 -87.04779052734375 -186.56900024414062 -87.04779052734375 -163.80799865722656C-87.04779052734375 -152.35800170898438 -87.7471923828125 -141.22999572753906 -89.14010620117188 -130.3159942626953C-95.63681030273438 -79.63690185546875 -118.73001098632812 -37.35789489746094 -154.79200744628906 -10.1278076171875C-159.13400268554688 -6.8394775390625 -160.83299255371094 -4.5491485595703125 -160.83299255371094 -1.48260498046875C-160.83299255371094 -0.8572235107421875 -160.76199340820312 -0.1995697021484375 -160.62899780273438 0.5054168701171875C-160.0449981689453 3.626861572265625 -159.1820068359375 4.7688446044921875 -154.79200744628906 8.093307495117188C-110.51998901367188 41.53019714355469 -87.01669311523438 95.88130187988281 -87.01669311523438 162.25999450683594C-87.01669311523438 179.0570068359375 -88.52178955078125 196.625 -91.57640075683594 214.81900024414062C-95.94129943847656 240.8560028076172 -100.55999755859375 258.57000732421875 -111.34500122070312 290.82501220703125C-122.76499938964844 324.9580078125 -129.44000244140625 350.4110107421875 -134.94700622558594 380.7879943847656C-141.59100341796875 417.4700012207031 -144.91700744628906 454.6099853515625 -144.91700744628906 492.24200439453125C-144.91700744628906 619.6199951171875 -106.81300354003906 752.6539916992188 -30.314895629882812 892.781005859375C-22.143295288085938 907.7789916992188 -21.86419677734375 908.1339721679688 -18.133697509765625 909.1489868164062Z" fill="black" /></g></svg>