<?xml version="1.0" encoding="utf-8" ?>
<svg baseProfile="tiny" height="100%" version="1.2" width="100%" xmlns="http://www.w3.org/2000/svg" xmlns:ev="http://www.w3.org/2001/xml-events" xmlns:xlink="http://www.w3.org/1999/xlink"><defs /><g transform="translate(0, 1000) scale(1, -1)"><path d="M-11.572402954101562 5396.52978515625C-10.747711181640625 5396.7099609375 -9.939651489257812 5396.7900390625 -9.158111572265625 5396.7900390625C-4.001708984375 5396.7900390625 -1.52587890625e-05 5393.10009765625 -1.52587890625e-05 5387.77001953125C-1.52587890625e-05 5384.9599609375 -0.9590606689453125 5382.91015625 -11.124908447265625 5364.56005859375C-315.4280090332031 4816.39013671875 -470.55499267578125 4186.85986328125 -470.55499267578125 3500.830078125C-470.55499267578125 3493.699951171875 -470.5379943847656 3486.56005859375 -470.5050048828125 3479.409912109375C-470.18499755859375 3409.14990234375 -469.9289855957031 3394.43994140625 -468.1390075683594 3343.22998046875C-454.52099609375 2951.0400390625 -387.1960144042969 2538.719970703125 -272.11199951171875 2142.449951171875C-245.25799560546875 2049.800048828125 -222.7530059814453 1979.469970703125 -179.1490020751953 1851.9200439453125C-122.72799682617188 1686.6600341796875 -94.86430358886719 1515.780029296875 -94.86430358886719 1345.22998046875C-94.86430358886719 1052.9200439453125 -176.7220001220703 761.5910034179688 -336.9429931640625 501.27301025390625C-454.9049987792969 309.5929870605469 -613.8489990234375 136.83799743652344 -796.9619750976562 1.3577880859375C-802.1409912109375 -2.478363037109375 -806.3610229492188 -5.80303955078125 -806.3610229492188 -6.05877685546875C-806.3610229492188 -6.3145294189453125 -802.1409912109375 -9.639205932617188 -796.9619750976562 -13.47540283203125C-613.7849731445312 -149.02000427246094 -454.9679870605469 -321.6470031738281 -336.9429931640625 -513.3909912109375C-176.73800659179688 -773.6829833984375 -94.88040161132812 -1065.030029296875 -94.88040161132812 -1357.3199462890625C-94.88040161132812 -1527.9000244140625 -122.75900268554688 -1698.800048828125 -179.21299743652344 -1864.0400390625C-301.9700012207031 -2223.489990234375 -374.9849853515625 -2519.06005859375 -421.4020080566406 -2844.5C-446.4010009765625 -3019.6201171875 -460.65899658203125 -3178.3701171875 -467.17999267578125 -3355.030029296875C-469.1449890136719 -3408.10009765625 -470.12298583984375 -3461.010009765625 -470.12298583984375 -3513.72998046875C-470.12298583984375 -4183.39990234375 -312.22601318359375 -4822.14013671875 -11.252685546875 -5364.27978515625C-5.1787872314453125 -5375.2099609375 -0.1917877197265625 -5384.990234375 -0.0639190673828125 -5386.02001953125C-0.0343017578125 -5386.39013671875 -0.0197601318359375 -5386.77001953125 -0.0197601318359375 -5387.1298828125C-0.0197601318359375 -5392.93017578125 -3.7098541259765625 -5396.7900390625 -8.90338134765625 -5396.7900390625C-9.716384887695312 -5396.7900390625 -10.566177368164062 -5396.7001953125 -11.444488525390625 -5396.5C-15.792190551757812 -5395.47998046875 -16.047882080078125 -5395.02978515625 -45.71418762207031 -5340.81005859375C-319.7439727783203 -4839.2998046875 -501.64198303222656 -4299.81005859375 -578.6849822998047 -3760.0C-607.8530120849609 -3555.72998046875 -622.3170013427734 -3356.830078125 -622.3170013427734 -3156.550048828125C-622.3170013427734 -3061.81005859375 -619.0809783935547 -2966.77001953125 -612.6349945068359 -2870.7099609375C-589.1699676513672 -2521.6201171875 -516.2830047607422 -2160.1298828125 -403.4359893798828 -1832.7099609375C-356.44297790527344 -1696.4599609375 -334.44898986816406 -1615.199951171875 -313.73399353027344 -1501.8399658203125C-293.5279998779297 -1391.0999755859375 -283.6759796142578 -1281.300048828125 -283.6759796142578 -1173.93994140625C-283.6759796142578 -702.43798828125 -473.7019805908203 -277.9110107421875 -811.2199554443359 -26.582199096679688C-829.8889617919922 -12.644195556640625 -831.2319793701172 -11.493301391601562 -831.9349822998047 -8.424407958984375C-832.1879730224609 -7.2452392578125 -832.3790130615234 -6.269866943359375 -832.3790130615234 -5.35595703125C-832.3790130615234 -1.4136505126953125 -828.8149871826172 1.38494873046875 -811.2199554443359 14.464706420898438C-475.9139862060547 264.1090087890625 -283.7069854736328 687.343017578125 -283.7069854736328 1160.31005859375C-283.7069854736328 1214.75 -286.2529754638672 1269.8399658203125 -291.4199981689453 1325.4100341796875C-307.08497619628906 1494.52001953125 -337.83799743652344 1630.510009765625 -403.11598205566406 1819.6300048828125C-550.4369964599609 2246.610107421875 -623.2969818115234 2693.830078125 -623.2969818115234 3146.199951171875C-623.2969818115234 3898.2900390625 -421.90599060058594 4664.60986328125 -26.469467163085938 5375.75C-16.687271118164062 5393.39990234375 -15.02496337890625 5395.7001953125 -11.572372436523438 5396.52978515625Z" fill="black" /></g></svg>