<?xml version="1.0" encoding="utf-8" ?>
<svg baseProfile="tiny" height="100%" version="1.2" width="100%" xmlns="http://www.w3.org/2000/svg" xmlns:ev="http://www.w3.org/2001/xml-events" xmlns:xlink="http://www.w3.org/1999/xlink"><defs /><g transform="translate(0, 1000) scale(1, -1)"><path d="M-11.49200439453125 1467.1800537109375C-10.738906860351562 1467.3699951171875 -9.98382568359375 1467.4599609375 -9.24053955078125 1467.4599609375C-4.7263336181640625 1467.4599609375 -0.646636962890625 1464.1099853515625 -0.0819854736328125 1459.47998046875C-0.029815673828125 1459.06005859375 0.0 1458.6700439453125 0.0 1458.280029296875C0.0 1456.219970703125 -0.838958740234375 1454.260009765625 -3.6332244873046875 1449.260009765625C-70.05470275878906 1329.8299560546875 -105.63299560546875 1195.9300537109375 -112.43899536132812 1039.8800048828125C-112.718994140625 1033.3699951171875 -112.8590087890625 1015.9199829101562 -112.8590087890625 998.3460083007812C-112.8590087890625 980.77099609375 -112.718994140625 963.0640258789062 -112.43899536132812 956.0269775390625C-106.71800231933594 814.405029296875 -79.09719848632812 673.406982421875 -27.47259521484375 522.47900390625C-17.608001708984375 493.57598876953125 -12.577102661132812 475.2279968261719 -8.82855224609375 454.2489929199219C-4.3515625 429.2359924316406 -2.13916015625 404.3389892578125 -2.13916015625 379.67498779296875C-2.13916015625 239.86000061035156 -73.23800659179688 107.57000732421875 -205.92300415039062 4.457733154296875C-210.0659942626953 1.2353057861328125 -213.48599243164062 -1.526763916015625 -213.48599243164062 -1.658294677734375C-213.48599243164062 -1.789825439453125 -210.0659942626953 -4.5518951416015625 -205.92300415039062 -7.774322509765625C-73.50729370117188 -110.66200256347656 -2.21929931640625 -242.15699768066406 -2.21929931640625 -383.5820007324219C-2.21929931640625 -430.89898681640625 -9.35467529296875 -472.822998046875 -25.269500732421875 -519.218994140625C-45.78779602050781 -579.0969848632812 -60.51890563964844 -629.208984375 -73.11270141601562 -681.9849853515625C-99.56990051269531 -792.9219970703125 -112.75 -899.22900390625 -112.75 -999.801025390625C-112.75 -1167.219970703125 -76.2279052734375 -1318.739990234375 -3.6332244873046875 -1449.280029296875C-0.838958740234375 -1454.2900390625 0.0 -1456.25 0.0 -1458.31005859375C0.0 -1458.699951171875 -0.029815673828125 -1459.0899658203125 -0.0819854736328125 -1459.510009765625C-0.686798095703125 -1464.3900146484375 -4.9810638427734375 -1467.4599609375 -9.329254150390625 -1467.4599609375C-11.60009765625 -1467.4599609375 -13.885604858398438 -1466.6199951171875 -15.667999267578125 -1464.77001953125C-19.08770751953125 -1461.18994140625 -50.81880187988281 -1400.8199462890625 -66.79940795898438 -1367.4100341796875C-146.63699340820312 -1200.5999755859375 -191.4550018310547 -1034.6400146484375 -200.00399780273438 -874.1799926757812C-201.18800354003906 -851.4580078125 -201.31900024414062 -846.427001953125 -201.31900024414062 -816.635986328125C-201.31900024414062 -786.81201171875 -201.2209930419922 -782.2750244140625 -199.9709930419922 -759.093017578125C-194.97300720214844 -664.3599853515625 -176.78900146484375 -571.468994140625 -145.4530029296875 -480.41900634765625C-124.50700378417969 -419.6199951171875 -114.51100158691406 -371.6130065917969 -110.4010009765625 -312.06298828125C-110.0260009765625 -306.8380126953125 -109.80899047851562 -293.4679870605469 -109.80899047851562 -281.8160095214844C-109.80899047851562 -275.06298828125 -109.88200378417969 -268.885986328125 -110.03900146484375 -265.2070007324219C-114.8070068359375 -156.13699340820312 -157.12600708007812 -67.65229797363281 -231.33999633789062 -11.687301635742188C-236.3800048828125 -7.883209228515625 -238.9029998779297 -4.763671875 -238.9029998779297 -1.6430206298828125C-238.9029998779297 1.4674530029296875 -236.39599609375 4.5790252685546875 -231.3730010986328 8.370697021484375C-157.15899658203125 64.30279541015625 -114.77400207519531 152.8209991455078 -110.03900146484375 261.8900146484375C-109.88200378417969 265.57000732421875 -109.80899047851562 271.7460021972656 -109.80899047851562 278.4989929199219C-109.80899047851562 290.1520080566406 -110.0260009765625 303.5220031738281 -110.4010009765625 308.74700927734375C-114.64300537109375 370.1369934082031 -124.21099853515625 415.2179870605469 -147.36000061035156 482.85699462890625C-183.76199340820312 589.1370239257812 -201.85800170898438 699.9580078125 -201.85800170898438 813.5980224609375C-201.85800170898438 1016.739990234375 -144.03199768066406 1228.8900146484375 -29.576995849609375 1440.2099609375C-15.700897216796875 1465.8599853515625 -15.470703125 1466.1600341796875 -11.49200439453125 1467.1800537109375Z" fill="black" /></g></svg>