<?xml version="1.0" encoding="utf-8" ?>
<svg baseProfile="tiny" height="100%" version="1.2" width="100%" xmlns="http://www.w3.org/2000/svg" xmlns:ev="http://www.w3.org/2001/xml-events" xmlns:xlink="http://www.w3.org/1999/xlink"><defs /><g transform="translate(0, 1000) scale(1, -1)"><path d="M-14.24749755859375 7522.02001953125C-12.723495483398438 7522.97021484375 -10.984405517578125 7523.41015625 -9.262603759765625 7523.41015625C-5.9377288818359375 7523.41015625 -2.6773529052734375 7521.759765625 -1.1551971435546875 7518.85986328125C-0.5175323486328125 7517.60986328125 -0.088653564453125 7516.60009765625 -0.088653564453125 7515.27001953125C-0.088653564453125 7511.6298828125 -3.3179931640625 7505.6201171875 -14.324493408203125 7485.75C-445.1199951171875 6709.0400390625 -670.8820190429688 5800.9501953125 -670.8820190429688 4851.9599609375C-670.8820190429688 4783.2099609375 -669.697998046875 4714.25 -667.3200073242188 4645.10986328125C-643.3690185546875 3949.909912109375 -517.0670166015625 3284.89990234375 -277.7869873046875 2593.860107421875C-193.25799560546875 2349.72998046875 -152.6300048828125 2112.090087890625 -152.6300048828125 1861.25C-152.6300048828125 1854.530029296875 -152.65899658203125 1847.800048828125 -152.7169952392578 1841.06005859375C-153.1790008544922 1791.3900146484375 -153.56500244140625 1778.989990234375 -155.95199584960938 1734.780029296875C-192.0709991455078 1080.7099609375 -523.3050079345703 462.9830322265625 -1065.0899810791016 39.33294677734375C-1081.040054321289 26.856842041015625 -1124.3900299072266 -5.7967987060546875 -1127.469985961914 -7.722137451171875C-1127.979995727539 -8.030181884765625 -1128.229995727539 -8.22271728515625 -1128.229995727539 -8.415252685546875C-1128.229995727539 -8.6077880859375 -1127.979995727539 -8.800323486328125 -1127.469985961914 -9.108367919921875C-1124.3900299072266 -11.03375244140625 -1081.040054321289 -43.68736267089844 -1065.0899810791016 -56.1634521484375C-523.3050079345703 -479.81396484375 -192.0709991455078 -1097.5400390625 -155.95199584960938 -1751.6099853515625C-153.56500244140625 -1795.8199462890625 -153.1790008544922 -1808.219970703125 -152.7169952392578 -1857.8900146484375C-152.66099548339844 -1864.52001953125 -152.63299560546875 -1871.1300048828125 -152.63299560546875 -1877.739990234375C-152.63299560546875 -2087.239990234375 -181.0659942626953 -2287.530029296875 -239.89599609375 -2492.090087890625C-252.4499969482422 -2535.840087890625 -261.8450012207031 -2564.8701171875 -287.6449890136719 -2639.18994140625C-539.0789794921875 -3365.2900390625 -668.31201171875 -4117.0498046875 -668.31201171875 -4853.0C-668.31201171875 -4862.740234375 -668.2899780273438 -4872.47021484375 -668.2440185546875 -4882.2001953125C-667.781982421875 -4970.83984375 -667.4739990234375 -4991.10009765625 -665.39501953125 -5055.10009765625C-636.5150146484375 -5935.97021484375 -416.17999267578125 -6759.02001953125 -14.94061279296875 -7484.56005859375C-4.1587371826171875 -7504.0400390625 -1.52587890625e-05 -7512.2099609375 -1.52587890625e-05 -7514.0498046875C-1.52587890625e-05 -7519.56982421875 -4.4124603271484375 -7523.41015625 -9.27545166015625 -7523.41015625C-10.932708740234375 -7523.41015625 -12.642318725585938 -7522.97021484375 -14.247512817382812 -7521.990234375C-16.634918212890625 -7520.52001953125 -35.19511413574219 -7487.72021484375 -69.15791320800781 -7425.18017578125C-465.2370147705078 -6694.39990234375 -720.6129913330078 -5888.52978515625 -807.4840240478516 -5095.14013671875C-809.4099884033203 -5077.580078125 -811.6430206298828 -5057.47998046875 -812.4900054931641 -5050.47998046875C-830.9730377197266 -4895.91015625 -844.8360137939453 -4631.990234375 -844.8360137939453 -4435.14013671875C-844.8360137939453 -3778.139892578125 -738.0180206298828 -3151.8701171875 -517.3750152587891 -2514.81005859375C-418.6050262451172 -2229.639892578125 -370.90501403808594 -1940.800048828125 -370.90501403808594 -1661.989990234375C-370.90501403808594 -1002.0999755859375 -638.1170196533203 -398.39300537109375 -1127.8600006103516 -32.5205078125C-1151.8900299072266 -14.576400756835938 -1153.6600494384766 -12.882095336914062 -1153.6600494384766 -8.415298461914062C-1153.6600494384766 -3.9485321044921875 -1151.8900299072266 -2.254241943359375 -1127.8600006103516 15.689895629882812C-638.0789947509766 381.5500030517578 -370.89002990722656 985.1120147705078 -370.89002990722656 1644.990005493164C-370.89002990722656 1923.8299713134766 -418.5970001220703 2212.719985961914 -517.3750152587891 2497.979995727539C-551.8000030517578 2597.409927368164 -575.5970001220703 2670.570083618164 -599.9340362548828 2751.360122680664C-763.8889923095703 3296.209976196289 -846.2819976806641 3857.800064086914 -846.2819976806641 4427.149917602539C-846.2819976806641 4621.600112915039 -836.6720123291016 4816.950210571289 -817.4190216064453 5012.850112915039C-815.9560089111328 5027.870132446289 -814.4160308837891 5042.120132446289 -814.0310211181641 5044.430191040039C-813.7220001220703 5046.740249633789 -813.1829986572266 5051.129898071289 -812.8750152587891 5054.049819946289L-808.9480133056641 5090.629898071289C-721.0750274658203 5888.180191040039 -466.16102600097656 6692.669937133789 -69.15791320800781 7425.290054321289C-35.11811828613281 7488.140151977539 -16.7119140625 7520.560073852539 -14.247512817382812 7522.020034790039Z" fill="black" /></g></svg>