<?xml version="1.0" encoding="utf-8" ?>
<svg baseProfile="tiny" height="100%" version="1.2" width="100%" xmlns="http://www.w3.org/2000/svg" xmlns:ev="http://www.w3.org/2001/xml-events" xmlns:xlink="http://www.w3.org/1999/xlink"><defs /><g transform="translate(0, 1000) scale(1, -1)"><path d="M-20.396499633789062 692.2239990234375C-19.525421142578125 692.47998046875 -18.653915405273438 692.6019897460938 -17.801712036132812 692.6019897460938C-12.961318969726562 692.6019897460938 -8.741012573242188 688.6950073242188 -8.741012573242188 683.5349731445312C-8.741012573242188 681.5120239257812 -9.184112548828125 680.3759765625 -11.84271240234375 675.52099609375C-38.698516845703125 626.4329833984375 -53.07041931152344 572.3740234375 -56.36482238769531 508.02801513671875C-56.52851867675781 504.8299865722656 -56.61041259765625 496.093994140625 -56.61041259765625 487.2869873046875C-56.61041259765625 478.4800109863281 -56.52851867675781 469.60400390625 -56.36482238769531 466.1260070800781C-53.20521545410156 398.65899658203125 -38.85261535644531 328.8039855957031 -12.093215942382812 250.6060028076172C-5.523712158203125 231.37899780273438 -2.5183258056640625 218.375 -0.938568115234375 202.28900146484375C-0.31195068359375 195.9040069580078 -1.52587890625e-05 189.5540008544922 -1.52587890625e-05 183.2429962158203C-1.52587890625e-05 115.43699645996094 -36.012115478515625 52.18109130859375 -104.64401245117188 0.0994720458984375C-105.25001525878906 -0.3628997802734375 -105.55401611328125 -0.565185546875 -105.55401611328125 -0.7674713134765625C-105.55401611328125 -0.969757080078125 -105.25001525878906 -1.1720428466796875 -104.64401245117188 -1.6344146728515625C-35.90501403808594 -53.785491943359375 -0.0716400146484375 -116.62899780273438 -0.0716400146484375 -184.9429931640625C-0.0716400146484375 -208.13900756835938 -3.365997314453125 -226.6529998779297 -12.01611328125 -251.8520050048828C-41.71351623535156 -338.58599853515625 -56.56231689453125 -417.2550048828125 -56.56231689453125 -487.8240051269531C-56.56231689453125 -558.530029296875 -41.65571594238281 -621.10498046875 -11.84271240234375 -675.5139770507812C-9.184112548828125 -680.3690185546875 -8.741012573242188 -681.5059814453125 -8.741012573242188 -683.5289916992188C-8.741012573242188 -688.8070068359375 -13.093109130859375 -692.6019897460938 -17.848007202148438 -692.6019897460938C-19.340713500976562 -692.6019897460938 -20.873123168945312 -692.22802734375 -22.323013305664062 -691.4080200195312C-24.211013793945312 -690.3489990234375 -25.00091552734375 -689.3079833984375 -27.96771240234375 -683.9719848632812C-90.25660705566406 -572.0490112304688 -121.20201110839844 -468.19000244140625 -121.20201110839844 -369.6730041503906C-121.20201110839844 -318.06298828125 -112.71000671386719 -267.9200134277344 -95.78150939941406 -218.85000610351562C-89.50102233886719 -200.70199584960938 -85.01222229003906 -184.25 -81.77561950683594 -167.60499572753906C-78.39601135253906 -150.20599365234375 -76.70791625976562 -133.85299682617188 -76.70791625976562 -118.57499694824219C-76.70791625976562 -83.86138916015625 -85.42262268066406 -54.69529724121094 -102.81301879882812 -31.418502807617188C-108.593017578125 -23.673904418945312 -117.416015625 -14.7926025390625 -124.60200500488281 -9.494644165039062C-128.78302001953125 -6.4121856689453125 -130.1120147705078 -4.2930145263671875 -130.1120147705078 -0.7674713134765625C-130.1120147705078 2.758087158203125 -128.78302001953125 4.87725830078125 -124.60200500488281 7.9597015380859375C-117.416015625 13.257705688476562 -108.593017578125 22.138900756835938 -102.81301879882812 29.88360595703125C-85.41731262207031 53.17179870605469 -76.70420837402344 82.57550048828125 -76.70420837402344 117.28799438476562C-76.70420837402344 146.927001953125 -83.05702209472656 180.43800354003906 -95.78150939941406 217.31500244140625C-112.80302429199219 266.6579895019531 -121.34202575683594 317.0639953613281 -121.34202575683594 368.9280090332031C-121.34202575683594 467.98699951171875 -90.19142150878906 572.3699951171875 -27.486114501953125 684.844970703125C-24.519317626953125 690.1619873046875 -23.40191650390625 691.3179931640625 -20.396514892578125 692.2239990234375Z" fill="black" /></g></svg>