<?xml version="1.0" encoding="utf-8" ?>
<svg baseProfile="tiny" height="100%" version="1.2" width="100%" xmlns="http://www.w3.org/2000/svg" xmlns:ev="http://www.w3.org/2001/xml-events" xmlns:xlink="http://www.w3.org/1999/xlink"><defs /><g transform="translate(0, 1000) scale(1, -1)"><path d="M-19.299606323242188 455.6189880371094C-18.871719360351562 455.67498779296875 -18.448715209960938 455.7030029296875 -18.03240966796875 455.7030029296875C-13.072113037109375 455.7030029296875 -9.064682006835938 451.8009948730469 -9.064682006835938 446.6679992675781C-9.064682006835938 444.489990234375 -9.278701782226562 443.885986328125 -11.217422485351562 440.30999755859375C-29.617111206054688 406.58099365234375 -38.81910705566406 368.2139892578125 -38.81910705566406 324.3609924316406C-38.81910705566406 279.0119934082031 -28.97821044921875 227.7949981689453 -9.291290283203125 169.77099609375C-5.2627716064453125 157.91200256347656 -5.1998291015625 157.697998046875 -3.89056396484375 152.56199645996094C-1.327392578125 142.48599243164062 -0.0569915771484375 131.9010009765625 -0.0569915771484375 121.33999633789062C-0.0569915771484375 107.10600280761719 -2.36444091796875 92.91571044921875 -6.924530029296875 80.07369995117188C-17.3231201171875 50.804107666015625 -35.18701171875 27.615005493164062 -66.89891052246094 2.2606048583984375L-69.92030334472656 -0.1439208984375L-70.34829711914062 -0.4964141845703125L-69.92030334472656 -0.8363189697265625L-66.89891052246094 -3.2660064697265625C-44.77992248535156 -20.953720092773438 -30.05072021484375 -36.92921447753906 -19.073013305664062 -55.14561462402344C-6.4276275634765625 -76.13461303710938 -1.52587890625e-05 -99.13531494140625 -1.52587890625e-05 -122.33601379394531C-1.52587890625e-05 -136.20701599121094 -2.2974395751953125 -150.15000915527344 -6.9371185302734375 -163.77700805664062C-19.4381103515625 -200.5120086669922 -26.739715576171875 -227.5150146484375 -32.20341491699219 -257.3140106201172C-36.58030700683594 -281.1630096435547 -38.77391052246094 -303.6730194091797 -38.77391052246094 -324.9300079345703C-38.77391052246094 -368.36000061035156 -29.61761474609375 -406.5640106201172 -11.217422485351562 -440.29600524902344C-9.278701782226562 -443.8710174560547 -9.064682006835938 -444.4750213623047 -9.064682006835938 -446.6530303955078C-9.064682006835938 -452.05201721191406 -13.408920288085938 -455.70301818847656 -18.067214965820312 -455.70301818847656C-20.024520874023438 -455.70301818847656 -22.037307739257812 -455.0580291748047 -23.8065185546875 -453.6280059814453C-24.864013671875 -452.75901794433594 -25.480819702148438 -451.9030303955078 -27.079620361328125 -449.0330047607422C-67.17591857910156 -377.13600158691406 -87.91011047363281 -314.3550262451172 -91.12031555175781 -255.2360076904297C-91.44480895996094 -249.21202087402344 -91.60832214355469 -243.27401733398438 -91.60832214355469 -237.40602111816406C-91.60832214355469 -203.89102172851562 -86.27401733398438 -172.6420135498047 -75.13221740722656 -140.2980194091797C-66.23692321777344 -114.47601318359375 -61.78581237792969 -91.95442199707031 -61.78581237792969 -72.62312316894531C-61.78581237792969 -49.1107177734375 -68.37051391601562 -30.317611694335938 -81.5526123046875 -16.043914794921875C-83.99491882324219 -13.400222778320312 -86.71412658691406 -10.983108520507812 -90.62931823730469 -7.9617462158203125C-93.27302551269531 -5.9223175048828125 -94.59492492675781 -3.2093658447265625 -94.59492492675781 -0.4964141845703125C-94.59492492675781 2.216522216796875 -93.27302551269531 4.929473876953125 -90.62931823730469 6.968902587890625C-86.71412658691406 9.990280151367188 -83.99491882324219 12.407379150390625 -81.5526123046875 15.05108642578125C-68.37051391601562 29.324691772460938 -61.78581237792969 48.10649108886719 -61.78581237792969 71.61488342285156C-61.78581237792969 90.94279479980469 -66.23692321777344 113.46598815917969 -75.13221740722656 139.3049774169922C-83.00032043457031 162.1549835205078 -87.872314453125 183.94598388671875 -90.16351318359375 206.53099060058594C-91.20130920410156 216.75997924804688 -91.72431945800781 227.0249786376953 -91.72431945800781 237.3579864501953C-91.72431945800781 302.60499572753906 -70.86721801757812 370.5249786376953 -27.079620361328125 449.04698181152344C-24.511520385742188 453.6549835205078 -22.72381591796875 455.1649932861328 -19.29962158203125 455.6189727783203Z" fill="black" /></g></svg>