<?xml version="1.0" encoding="utf-8" ?>
<svg baseProfile="tiny" height="100%" version="1.2" width="100%" xmlns="http://www.w3.org/2000/svg" xmlns:ev="http://www.w3.org/2001/xml-events" xmlns:xlink="http://www.w3.org/1999/xlink"><defs /><g transform="translate(0, 1000) scale(1, -1)"><path d="M-12.027206420898438 1664.3800048828125C-11.131011962890625 1664.719970703125 -10.204208374023438 1664.8800048828125 -9.281341552734375 1664.8800048828125C-4.7870025634765625 1664.8800048828125 -0.38433837890625 1661.1099853515625 -0.04644775390625 1656.27001953125C-0.0178985595703125 1655.9100341796875 -1.52587890625e-05 1655.5899658203125 -1.52587890625e-05 1655.280029296875C-1.52587890625e-05 1653.3599853515625 -0.6723175048828125 1651.9300537109375 -3.678009033203125 1646.530029296875C-87.68672180175781 1495.77001953125 -130.24002075195312 1320.5799560546875 -130.24002075195312 1125.6300048828125C-130.24002075195312 1122.4200439453125 -130.22901916503906 1119.199951171875 -130.2060089111328 1115.97998046875C-130.00201416015625 1090.3199462890625 -129.83201599121094 1083.1300048828125 -128.95001220703125 1063.3699951171875C-122.02601623535156 910.1699829101562 -88.59550476074219 745.594970703125 -30.931716918945312 580.5460205078125C-24.21160888671875 561.3359985351562 -17.287918090820312 534.9310302734375 -13.554519653320312 514.2269897460938C-8.409072875976562 485.7030029296875 -5.8704986572265625 457.2720031738281 -5.8704986572265625 429.0889892578125C-5.8704986572265625 269.5150146484375 -87.25462341308594 117.91299438476562 -237.62501525878906 2.617889404296875C-240.78201293945312 0.242095947265625 -243.32701110839844 -1.8621673583984375 -243.32701110839844 -1.9979248046875C-243.32701110839844 -2.133697509765625 -240.78201293945312 -4.2379608154296875 -237.62501525878906 -6.6137542724609375C-140.218017578125 -81.31539916992188 -70.53950500488281 -172.2740020751953 -34.49540710449219 -271.82000732421875C-15.380020141601562 -324.66400146484375 -5.813323974609375 -379.1159973144531 -5.813323974609375 -433.489990234375C-5.813323974609375 -485.6990051269531 -14.633316040039062 -537.8369750976562 -32.28932189941406 -588.4110107421875C-96.84971618652344 -773.3519897460938 -130.02700805664062 -958.4450073242188 -130.02700805664062 -1129.1800537109375C-130.02700805664062 -1186.52001953125 -126.28501892089844 -1242.239990234375 -118.73402404785156 -1295.7900390625C-100.67802429199219 -1424.010009765625 -61.8170166015625 -1542.56005859375 -3.711944580078125 -1646.760009765625C-0.6757965087890625 -1652.18994140625 -0.0001068115234375 -1653.5999755859375 -0.0001068115234375 -1655.530029296875C-0.0001068115234375 -1655.8399658203125 -0.0179595947265625 -1656.1700439453125 -0.04644775390625 -1656.530029296875C-0.4197845458984375 -1661.56005859375 -4.0174102783203125 -1664.8800048828125 -9.142318725585938 -1664.8800048828125C-14.436920166015625 -1664.8800048828125 -15.047821044921875 -1664.239990234375 -22.175216674804688 -1651.4100341796875C-138.4870147705078 -1441.68994140625 -206.67201232910156 -1223.699951171875 -220.5880126953125 -1016.969970703125C-222.50502014160156 -988.4329833984375 -223.46401977539062 -960.1129760742188 -223.46401977539062 -932.0050048828125C-223.46401977539062 -800.9229736328125 -202.6070098876953 -674.4600219726562 -160.85301208496094 -552.1630249023438C-137.50302124023438 -483.8760070800781 -126.50601196289062 -434.5610046386719 -121.51701354980469 -376.0150146484375C-120.13301086425781 -359.7900085449219 -119.44902038574219 -343.81298828125 -119.44902038574219 -328.1210021972656C-119.44902038574219 -193.34300231933594 -169.9420166015625 -79.66738891601562 -261.41700744628906 -11.874404907226562C-266.32200622558594 -8.24285888671875 -268.7740020751953 -5.1204071044921875 -268.7740020751953 -1.9979248046875C-268.7740020751953 1.124542236328125 -266.32200622558594 4.24700927734375 -261.41700744628906 7.878570556640625C-169.9420166015625 75.6715087890625 -119.44902038574219 189.3470001220703 -119.44902038574219 324.125C-119.44902038574219 339.8169860839844 -120.13301086425781 355.7950134277344 -121.51701354980469 372.0190124511719C-126.47201538085938 430.36199951171875 -137.57101440429688 480.0840148925781 -160.65000915527344 547.6240234375C-202.864013671875 671.0830078125 -223.86001586914062 799.1090087890625 -223.86001586914062 929.9290161132812C-223.86001586914062 1164.5 -156.35401916503906 1408.050048828125 -22.616409301757812 1650.3599853515625C-15.794509887695312 1662.719970703125 -15.556915283203125 1663.06005859375 -12.0272216796875 1664.3800048828125Z" fill="black" /></g></svg>