<?xml version="1.0" encoding="utf-8" ?>
<svg baseProfile="tiny" height="100%" version="1.2" width="100%" xmlns="http://www.w3.org/2000/svg" xmlns:ev="http://www.w3.org/2001/xml-events" xmlns:xlink="http://www.w3.org/1999/xlink"><defs /><g transform="translate(0, 1000) scale(1, -1)"><path d="M4.5004730224609375 92.41580200195312C4.945831298828125 92.62359619140625 7.5591583251953125 92.71510314941406 11.20611572265625 92.71510314941406C19.196212768554688 92.71510314941406 32.14772033691406 92.27580261230469 38.13201904296875 91.65789794921875C69.584716796875 88.53160095214844 102.03201293945312 81.37890625 129.79000854492188 71.52630615234375L137.3690185546875 68.82630920410156C154.99000549316406 62.7158203125 188.71600341796875 47.273712158203125 205.34300231933594 37.70530700683594C206.38499450683594 37.08952331542969 208.7530059814453 35.763214111328125 210.55299377441406 34.81581115722656C214.1529998779297 32.82630920410156 229.1219940185547 23.87371826171875 235.08999633789062 20.084213256835938L240.6320037841797 16.57891845703125C244.7059783935547 14.021133422851562 259.53199768066406 3.884246826171875 264.2219696044922 0.521087646484375L270.42698669433594 -4.0262908935546875C271.1849822998047 -4.5473480224609375 272.51097106933594 -5.5420989990234375 273.36399841308594 -6.2052459716796875L279.7109832763672 -10.894683837890625C282.3159942626953 -12.836761474609375 284.8739776611328 -14.77886962890625 285.3949737548828 -15.2525634765625L293.6849822998047 -21.8841552734375L301.97398376464844 -28.515762329101562L307.8949737548828 -33.44206237792969L314.8109893798828 -39.26835632324219L319.7369842529297 -43.578857421875C321.3949737548828 -44.999969482421875 323.3369903564453 -46.70526123046875 324.04798889160156 -47.368377685546875L328.54798889160156 -51.394683837890625L333.2849884033203 -55.65788269042969L340.6269989013672 -62.526275634765625C360.7579803466797 -81.23677062988281 404.00599670410156 -126.89996337890625 410.1639862060547 -135.89996337890625C411.23097229003906 -137.45396423339844 411.6969757080078 -139.02696228027344 411.6969757080078 -140.5009765625C411.6969757080078 -144.6279754638672 408.0499725341797 -147.98297119140625 403.7639923095703 -147.98297119140625C401.9729766845703 -147.98297119140625 400.0699920654297 -147.39697265625 398.2739715576172 -146.03697204589844C396.8999786376953 -144.99496459960938 394.48497009277344 -143.24197387695312 392.92198181152344 -142.19996643066406L386.7639923095703 -137.88897705078125C381.45799255371094 -134.0999755859375 360.7579803466797 -120.31597900390625 354.3159942626953 -116.33697509765625C351.04798889160156 -114.29997253417969 347.8739776611328 -112.26296997070312 347.2109832763672 -111.78897094726562C346.54798889160156 -111.36297607421875 345.1739959716797 -110.51097106933594 344.13197326660156 -109.94197082519531C343.08998107910156 -109.37396240234375 341.05299377441406 -108.18896484375 339.63197326660156 -107.28897094726562C334.3739776611328 -104.06796264648438 324.2369842529297 -98.2420654296875 315.2849884033203 -93.2210693359375C304.57899475097656 -87.2525634765625 274.02699279785156 -71.52627563476562 273.1269989013672 -71.52627563476562C273.03199768066406 -71.52627563476562 270.2369842529297 -70.24737548828125 266.92198181152344 -68.68417358398438C263.60597229003906 -67.12106323242188 260.8579864501953 -65.84207153320312 260.7639923095703 -65.84207153320312C260.6689910888672 -65.84207153320312 258.96397399902344 -65.08416748046875 256.8789825439453 -64.13677978515625C252.2849884033203 -62.00526428222656 251.7159881591797 -61.76837158203125 244.1849822998047 -58.59466552734375C169.34298706054688 -26.95257568359375 94.21629333496094 -9.994705200195312 20.605682373046875 -8.052597045898438C5.637298583984375 -7.67364501953125 4.4057159423828125 -7.53155517578125 2.4162445068359375 -5.684173583984375C0.0818939208984375 -3.4379119873046875 -1.52587890625e-05 -4.631744384765625 -1.52587890625e-05 33.3453369140625C-1.52587890625e-05 36.21153259277344 0.000457763671875 39.30082702636719 0.000457763671875 42.631622314453125C0.000457763671875 79.20002746582031 0.095184326171875 86.96842956542969 0.663604736328125 88.29473876953125C1.3741302490234375 90.00003051757812 2.9846649169921875 91.75262451171875 4.500457763671875 92.41583251953125Z" fill="black" /></g></svg>