<?xml version="1.0" encoding="utf-8" ?>
<svg baseProfile="tiny" height="100%" version="1.2" width="100%" xmlns="http://www.w3.org/2000/svg" xmlns:ev="http://www.w3.org/2001/xml-events" xmlns:xlink="http://www.w3.org/1999/xlink"><defs /><g transform="translate(0, 1000) scale(1, -1)"><path d="M-11.369400024414062 2529.949951171875C-10.559921264648438 2530.14990234375 -9.758544921875 2530.25 -8.978408813476562 2530.25C-4.0697021484375 2530.25 -1.52587890625e-05 2526.409912109375 -1.52587890625e-05 2521.199951171875V2518.280029296875L-6.384368896484375 2506.68994140625C-139.87399291992188 2264.800048828125 -207.26600646972656 1986.030029296875 -207.26600646972656 1683.260009765625C-207.26600646972656 1510.1600341796875 -185.23699951171875 1329.219970703125 -140.93699645996094 1142.8399658203125C-120.7340087890625 1057.8699951171875 -97.12100219726562 977.719970703125 -62.92529296875 878.06298828125C-44.4281005859375 824.1019897460938 -32.359100341796875 768.655029296875 -27.1116943359375 713.4249877929688C-24.66290283203125 687.801025390625 -24.00689697265625 673.2830200195312 -24.00689697265625 644.552978515625V644.3829956054688C-24.00689697265625 454.052001953125 -97.46859741210938 273.4280090332031 -237.18299865722656 120.2919921875C-275.5769958496094 78.22549438476562 -325.60198974609375 33.01019287109375 -369.54901123046875 0.651153564453125C-371.99798583984375 -1.1417083740234375 -374.010009765625 -2.7159423828125 -374.010009765625 -2.8471221923828125C-374.010009765625 -2.9783172607421875 -371.99798583984375 -4.5525360107421875 -369.54901123046875 -6.34539794921875C-240.15699768066406 -101.5419921875 -134.42100524902344 -235.26400756835938 -77.70550537109375 -375.41400146484375C-41.80720520019531 -464.1319885253906 -23.802902221679688 -557.0130004882812 -23.802902221679688 -649.81298828125C-23.802902221679688 -728.7230224609375 -36.82099914550781 -807.5750122070312 -62.92529296875 -883.7570190429688C-107.74700927734375 -1014.5499877929688 -136.03900146484375 -1117.010009765625 -159.8280029296875 -1234.6800537109375C-191.14100646972656 -1389.6400146484375 -206.7100067138672 -1540.47998046875 -206.7100067138672 -1685.75C-206.7100067138672 -1987.800048828125 -139.40499877929688 -2265.780029296875 -6.3843536376953125 -2506.699951171875L0.0 -2518.280029296875V-2521.2099609375C0.0 -2526.860107421875 -4.2794342041015625 -2530.25 -8.812225341796875 -2530.25C-11.681900024414062 -2530.25 -14.653106689453125 -2528.889892578125 -16.704299926757812 -2525.889892578125C-17.403900146484375 -2524.840087890625 -21.033401489257812 -2518.5 -24.75030517578125 -2511.77001953125C-196.6909942626953 -2201.469970703125 -296.65399169921875 -1870.5799560546875 -314.5830078125 -1552.1500244140625C-316.5849914550781 -1516.300048828125 -317.6830139160156 -1471.4599609375 -317.6830139160156 -1432.5999755859375C-317.6830139160156 -1412.9100341796875 -317.4010009765625 -1394.75 -316.81298828125 -1380.0799560546875C-311.34698486328125 -1246.0 -296.47900390625 -1134.8900146484375 -267.9679870605469 -1015.1599731445312C-252.83799743652344 -951.6680297851562 -240.0260009765625 -908.114013671875 -212.17100524902344 -825.8170166015625C-176.927001953125 -721.7319946289062 -159.80499267578125 -618.7020263671875 -159.80499267578125 -521.2869873046875C-159.80499267578125 -310.73199462890625 -239.79299926757812 -126.41400146484375 -389.6650085449219 -14.391403198242188C-397.7980041503906 -8.269454956054688 -398.71600341796875 -7.0887908935546875 -398.71600341796875 -2.8471221923828125C-398.71600341796875 1.39453125 -397.7980041503906 2.5751953125 -389.6650085449219 8.697189331054688C-265.1260070800781 101.75099182128906 -185.71499633789062 247.97898864746094 -165.29400634765625 421.75599670410156C-161.66200256347656 452.6239776611328 -159.85400390625 484.00498962402344 -159.85400390625 515.7689666748047C-159.85400390625 614.8140106201172 -177.43800354003906 717.5809783935547 -212.17100524902344 820.1229705810547C-238.53900146484375 898.0909881591797 -247.7220001220703 928.6129608154297 -262.9830017089844 989.1339569091797C-299.8999938964844 1135.5899505615234 -318.20001220703125 1286.189926147461 -318.20001220703125 1438.8499603271484C-318.20001220703125 1786.3699798583984 -223.36900329589844 2144.540023803711 -37.43159484863281 2488.580062866211C-16.922897338867188 2526.580062866211 -15.436203002929688 2528.899887084961 -11.369400024414062 2529.949935913086Z" fill="black" /></g></svg>