<?xml version="1.0" encoding="utf-8" ?>
<svg baseProfile="tiny" height="100%" version="1.2" width="100%" xmlns="http://www.w3.org/2000/svg" xmlns:ev="http://www.w3.org/2001/xml-events" xmlns:xlink="http://www.w3.org/1999/xlink"><defs /><g transform="translate(0, 1000) scale(1, -1)"><path d="M-13.591094970703125 1250.5999755859375C-12.635101318359375 1250.9100341796875 -11.681594848632812 1251.06005859375 -10.7550048828125 1251.06005859375C-5.9813232421875 1251.06005859375 -1.922332763671875 1247.1500244140625 -1.922332763671875 1241.8599853515625V1238.9000244140625L-5.4385223388671875 1232.5799560546875C-57.68357849121094 1138.52001953125 -88.42689514160156 1026.9300537109375 -94.77467346191406 908.4409790039062C-95.77049255371094 890.1129760742188 -95.89488220214844 884.4500122070312 -95.89488220214844 857.2540283203125C-95.89488220214844 829.1240234375 -95.70817565917969 821.1270141601562 -94.61909484863281 801.8660278320312C-88.17799377441406 687.2630004882812 -63.004486083984375 565.7830200195312 -20.063385009765625 442.156005859375C-6.652801513671875 403.5360107421875 -0.0252532958984375 364.25201416015625 -0.0252532958984375 325.2250061035156C-0.0252532958984375 247.43600463867188 -26.3555908203125 170.66799926757812 -77.78498840332031 102.20599365234375C-104.85697937011719 66.20370483398438 -142.28997802734375 28.956893920898438 -179.5059814453125 1.0763397216796875C-181.34197998046875 -0.2928009033203125 -182.83499145507812 -1.4752349853515625 -182.83499145507812 -1.568572998046875C-182.83499145507812 -1.66192626953125 -181.34197998046875 -2.8443756103515625 -179.5059814453125 -4.2135162353515625C-142.28997802734375 -32.09410095214844 -104.85697937011719 -69.34089660644531 -77.78498840332031 -105.34300231933594C-26.380584716796875 -173.78500366210938 1.52587890625e-05 -250.83599853515625 1.52587890625e-05 -328.6499938964844C1.52587890625e-05 -367.510986328125 -6.57958984375 -406.56298828125 -19.907791137695312 -444.8269958496094C-64.6536865234375 -573.2139892578125 -89.39149475097656 -696.25 -95.14808654785156 -818.6939697265625C-95.53327941894531 -826.9639892578125 -95.71717834472656 -839.6309814453125 -95.71717834472656 -853.281005859375C-95.71717834472656 -872.708984375 -95.34468078613281 -894.1279907226562 -94.65028381347656 -907.68798828125C-88.52027893066406 -1026.739990234375 -57.839080810546875 -1138.5400390625 -5.4385223388671875 -1232.9200439453125L-1.922332763671875 -1239.239990234375V-1242.18994140625C-1.922332763671875 -1247.949951171875 -5.06512451171875 -1251.06005859375 -10.790603637695312 -1251.06005859375C-15.831497192382812 -1251.06005859375 -16.982803344726562 -1250.030029296875 -21.743698120117188 -1241.4200439453125C-126.58499145507812 -1051.739990234375 -178.9969940185547 -868.6519775390625 -178.9969940185547 -692.1099853515625C-178.9969940185547 -595.4520263671875 -163.28599548339844 -500.7560119628906 -131.86599731445312 -408.0159912109375C-114.53399658203125 -356.8599853515625 -106.10099792480469 -319.27099609375 -102.11799621582031 -275.239990234375C-100.9639892578125 -262.5010070800781 -100.39399719238281 -249.97500610351562 -100.39399719238281 -237.697998046875C-100.39399719238281 -141.75799560546875 -135.23399353027344 -61.0758056640625 -198.51800537109375 -13.019500732421875C-207.01300048828125 -6.5783843994140625 -207.29299926757812 -6.204986572265625 -207.29299926757812 -1.568572998046875C-207.29299926757812 3.06781005859375 -207.01300048828125 3.4412078857421875 -198.51800537109375 9.88238525390625C-135.23399353027344 57.9385986328125 -100.39399719238281 138.62100219726562 -100.39399719238281 234.56100463867188C-100.39399719238281 246.83799743652344 -100.9639892578125 259.364013671875 -102.11799621582031 272.1029968261719C-106.13200378417969 316.25799560546875 -114.06700134277344 351.7309875488281 -131.8350067138672 404.8160095214844C-164.7239990234375 503.0299987792969 -179.06900024414062 588.9000244140625 -179.06900024414062 688.4039916992188C-179.06900024414062 691.0430297851562 -179.0590057373047 693.6909790039062 -179.03900146484375 696.3489990234375C-178.88299560546875 718.6909790039062 -178.75900268554688 722.4249877929688 -177.73199462890625 741.0330200195312C-169.0189971923828 897.7680053710938 -118.26800537109375 1063.780029296875 -28.7449951171875 1228.3199462890625C-17.387405395507812 1249.22998046875 -17.262893676757812 1249.4200439453125 -13.591094970703125 1250.5999755859375Z" fill="black" /></g></svg>