<?xml version="1.0" encoding="utf-8" ?>
<svg baseProfile="tiny" height="100%" version="1.2" width="100%" xmlns="http://www.w3.org/2000/svg" xmlns:ev="http://www.w3.org/2001/xml-events" xmlns:xlink="http://www.w3.org/1999/xlink"><defs /><g transform="translate(0, 1000) scale(1, -1)"><path d="M-18.561996459960938 862.052001953125C-17.75958251953125 862.2750244140625 -16.961380004882812 862.3790283203125 -16.181381225585938 862.3790283203125C-11.269485473632812 862.3790283203125 -7.078399658203125 858.2340087890625 -7.078399658203125 853.3150024414062C-7.078399658203125 852.6010131835938 -7.1668701171875 851.8699951171875 -7.3544158935546875 851.1329956054688C-7.57086181640625 850.2429809570312 -8.50885009765625 848.2230224609375 -9.63922119140625 846.2269897460938C-45.18608093261719 782.323974609375 -64.49879455566406 709.97998046875 -68.39509582519531 626.2349853515625C-68.5994873046875 621.833984375 -68.70167541503906 611.3720092773438 -68.70167541503906 600.8679809570312C-68.70167541503906 590.3629760742188 -68.5994873046875 579.8170166015625 -68.39509582519531 575.2479858398438C-64.54689025878906 488.92999267578125 -47.32667541503906 405.0889892578125 -12.597488403320312 303.7149963378906C-6.1278228759765625 284.8840026855469 -1.774658203125 263.2139892578125 -0.524017333984375 243.82899475097656C-0.1745147705078125 238.3489990234375 1.52587890625e-05 232.9010009765625 1.52587890625e-05 227.48699951171875C1.52587890625e-05 143.11599731445312 -42.38517761230469 66.927001953125 -125.41899108886719 2.31231689453125C-127.63198852539062 0.6047210693359375 -129.4359893798828 -0.9104766845703125 -129.4359893798828 -1.006683349609375C-129.4359893798828 -1.102874755859375 -127.63198852539062 -2.618072509765625 -125.39497375488281 -4.3256683349609375C-42.3837890625 -68.9403076171875 1.52587890625e-05 -145.12899780273438 1.52587890625e-05 -229.5C1.52587890625e-05 -234.91400146484375 -0.1745147705078125 -240.36199951171875 -0.524017333984375 -245.84300231933594C-1.774658203125 -265.22698974609375 -6.1278228759765625 -286.87298583984375 -12.573379516601562 -305.72900390625C-16.132888793945312 -316.0950012207031 -22.84307861328125 -336.3210144042969 -24.76708984375 -342.5260009765625C-53.98197937011719 -435.8559875488281 -68.57638549804688 -522.6290283203125 -68.57638549804688 -601.9210205078125C-68.57638549804688 -694.0419921875 -48.87687683105469 -776.06298828125 -9.518966674804688 -846.531982421875C-7.8271636962890625 -849.56201171875 -7.05987548828125 -851.5499877929688 -7.05987548828125 -853.4819946289062C-7.05987548828125 -854.5709838867188 -7.303741455078125 -855.6430053710938 -7.763275146484375 -856.8740234375C-9.083419799804688 -860.385009765625 -12.621292114257812 -862.3790283203125 -16.199691772460938 -862.3790283203125C-18.358291625976562 -862.3790283203125 -20.531478881835938 -861.6530151367188 -22.241790771484375 -860.0969848632812C-25.199981689453125 -857.4030151367188 -47.95198059082031 -814.2319946289062 -60.62669372558594 -787.2230224609375C-82.41658020019531 -740.8779907226562 -96.34188842773438 -704.5850219726562 -111.49398803710938 -654.7039794921875C-129.46498107910156 -595.510986328125 -139.78099060058594 -526.5560302734375 -139.78099060058594 -466.9070129394531C-139.78099060058594 -461.8940124511719 -139.70797729492188 -456.9469909667969 -139.5609893798828 -452.0769958496094C-137.66098022460938 -388.60699462890625 -128.54598999023438 -337.9570007324219 -108.03099060058594 -276.62701416015625C-93.86468505859375 -234.2740020751953 -88.26087951660156 -208.2270050048828 -85.37478637695312 -171.0449981689453C-85.14848327636719 -168.21099853515625 -85.04289245605469 -162.02000427246094 -85.04289245605469 -155.48899841308594C-85.04289245605469 -147.4459991455078 -85.20307922363281 -138.88800048828125 -85.49508666992188 -135.4499969482422C-86.64949035644531 -122.12600708007812 -87.99638366699219 -113.29901123046875 -90.49757385253906 -102.3800048828125C-99.34828186035156 -64.06759643554688 -119.38198852539062 -31.91180419921875 -147.8579864501953 -10.338302612304688C-153.0769805908203 -6.3940277099609375 -154.06398010253906 -4.92694091796875 -154.06398010253906 -1.006683349609375C-154.06398010253906 2.91357421875 -153.0769805908203 4.38067626953125 -147.8579864501953 8.324981689453125C-116.92898559570312 31.774398803710938 -96.29377746582031 67.15289306640625 -88.45329284667969 110.22799682617188C-86.20329284667969 122.60299682617188 -84.88139343261719 139.85699462890625 -84.88139343261719 154.7259979248047C-84.88139343261719 159.8820037841797 -85.04039001464844 164.7519989013672 -85.37478637695312 169.03199768066406C-88.26087951660156 206.21400451660156 -93.86468505859375 232.3090057373047 -108.03099060058594 274.614013671875C-110.94099426269531 283.2720031738281 -114.18798828125 293.3009948730469 -115.24598693847656 296.8609924316406C-131.69699096679688 351.7349853515625 -139.93199157714844 407.8080139160156 -139.93199157714844 465.21099853515625C-139.93199157714844 587.822021484375 -102.35798645019531 716.5050048828125 -27.0037841796875 852.552001953125C-22.915176391601562 859.9600219726562 -21.8809814453125 861.114013671875 -18.561981201171875 862.052001953125Z" fill="black" /></g></svg>