<?xml version="1.0" encoding="utf-8" ?>
<svg baseProfile="tiny" height="100%" version="1.2" width="100%" xmlns="http://www.w3.org/2000/svg" xmlns:ev="http://www.w3.org/2001/xml-events" xmlns:xlink="http://www.w3.org/1999/xlink"><defs /><g transform="translate(0, 1000) scale(1, -1)"><path d="M-15.387496948242188 9119.75C-13.84197998046875 9121.3798828125 -11.665985107421875 9122.1796875 -9.430557250976562 9122.1796875C-7.0296478271484375 9122.1796875 -4.560272216796875 9121.259765625 -2.7300872802734375 9119.4296875C-1.071868896484375 9117.76953125 -0.0084075927734375 9116.5498046875 -0.0084075927734375 9114.4296875C-0.0084075927734375 9110.240234375 -4.1522216796875 9102.5595703125 -16.04498291015625 9081.1201171875C-548.2650146484375 8123.669921875 -821.3079833984375 7019.58984375 -821.3079833984375 5849.18994140625C-821.3079833984375 5517.0498046875 -799.3189697265625 5179.56982421875 -755.0250244140625 4838.58984375C-682.2860107421875 4278.77978515625 -546.9990234375 3708.050048828125 -358.1239929199219 3164.360107421875C-340.1239929199219 3112.570068359375 -327.13800048828125 3073.6201171875 -317.85101318359375 3043.530029296875C-236.68099975585938 2780.780029296875 -196.88299560546875 2512.139892578125 -196.88299560546875 2245.260009765625C-196.88299560546875 1614.1500244140625 -419.4519958496094 992.9340209960938 -843.791015625 482.87200927734375C-993.4609985351562 302.95599365234375 -1171.6500244140625 134.87600708007812 -1354.8499755859375 0.8219146728515625C-1364.949951171875 -6.59149169921875 -1368.6500244140625 -8.940093994140625 -1368.6500244140625 -10.586105346679688C-1368.6500244140625 -11.714004516601562 -1366.9100341796875 -12.511993408203125 -1364.31005859375 -14.383392333984375C-1329.699951171875 -39.205108642578125 -1267.0699462890625 -87.94439697265625 -1225.6500244140625 -122.30000305175781C-746.1480102539062 -520.3510284423828 -410.8909912109375 -1053.199966430664 -270.59100341796875 -1640.1200103759766C-221.45399475097656 -1845.5799713134766 -196.9010009765625 -2055.590103149414 -196.9010009765625 -2265.530044555664C-196.9010009765625 -2487.179946899414 -224.27000427246094 -2708.740005493164 -278.9739990234375 -2924.770034790039C-302.07000732421875 -3016.080093383789 -320.2340087890625 -3075.840103149414 -358.1239929199219 -3184.899917602539C-564.5059814453125 -3779.389907836914 -704.8880004882812 -4397.799819946289 -772.2849731445312 -5010.450210571289C-803.7340087890625 -5296.069839477539 -819.35498046875 -5579.060073852539 -819.35498046875 -5858.299819946289C-819.35498046875 -7028.390151977539 -545.0709838867188 -8132.620132446289 -11.7711181640625 -9088.929702758789C-3.2793426513671875 -9104.179702758789 -1.52587890625e-05 -9110.450210571289 -1.52587890625e-05 -9114.250015258789C-1.52587890625e-05 -9116.370132446289 -1.022186279296875 -9117.719741821289 -2.7301177978515625 -9119.429702758789C-4.560302734375 -9121.259780883789 -7.0296783447265625 -9122.179702758789 -9.430587768554688 -9122.179702758789C-11.666015625 -9122.179702758789 -13.842010498046875 -9121.379898071289 -15.38751220703125 -9119.750015258789C-18.593017578125 -9116.469741821289 -49.41461181640625 -9061.070327758789 -88.37321472167969 -8988.660171508789C-558.9170074462891 -8114.390151977539 -858.8319854736328 -7162.459976196289 -965.1870269775391 -6205.419937133789C-967.9000396728516 -6181.009780883789 -970.2830352783203 -6160.299819946289 -970.4470367431641 -6159.399917602539C-971.6800079345703 -6154.299819946289 -982.7760162353516 -6035.450210571289 -986.8029937744141 -5984.740249633789C-997.9810333251953 -5845.259780883789 -1004.3100128173828 -5726.250015258789 -1008.7500152587891 -5569.270034790039C-1009.9900054931641 -5525.680191040039 -1010.5800323486328 -5476.140151977539 -1010.5800323486328 -5423.509780883789C-1010.5800323486328 -5294.319839477539 -1006.9900054931641 -5146.439956665039 -1000.4500274658203 -5021.870132446289C-966.0910186767578 -4367.799819946289 -837.2979888916016 -3708.709976196289 -623.6010284423828 -3093.260025024414C-567.1360015869141 -2930.689956665039 -534.5059967041016 -2816.030044555664 -504.0130157470703 -2673.669937133789C-457.53501892089844 -2456.409927368164 -434.9230194091797 -2240.360122680664 -434.9230194091797 -2029.3499908447266C-434.9230194091797 -1217.560073852539 -769.6070098876953 -480.35804748535156 -1367.6800689697266 -35.58876037597656C-1394.729995727539 -15.483261108398438 -1394.959976196289 -15.3675537109375 -1394.959976196289 -10.538055419921875V-10.273956298828125V-10.009750366210938C-1394.959976196289 -5.1803436279296875 -1394.729995727539 -5.0645599365234375 -1367.6800689697266 15.04095458984375C-769.6070098876953 459.8099365234375 -434.9230194091797 1197.0099487304688 -434.9230194091797 2008.7999877929688C-434.9230194091797 2219.8099975585938 -457.53501892089844 2435.8600463867188 -504.0130157470703 2653.1298217773438C-534.5059967041016 2795.4799194335938 -567.4650421142578 2911.1200561523438 -623.6010284423828 3072.7098999023438C-850.2020416259766 3724.3200073242188 -980.6389923095703 4420.229919433594 -1007.4300079345703 5120.499938964844C-1010.8800201416016 5210.669860839844 -1012.5999908447266 5300.950134277344 -1012.5999908447266 5391.289978027344C-1012.5999908447266 6645.220153808594 -681.7589874267578 7911.049743652344 -52.70234680175781 9054.169860839844C-23.36004638671875 9107.589782714844 -17.853240966796875 9117.209899902344 -15.387542724609375 9119.749938964844Z" fill="black" /></g></svg>