<?xml version="1.0" encoding="utf-8" ?>
<svg baseProfile="tiny" height="100%" version="1.2" width="100%" xmlns="http://www.w3.org/2000/svg" xmlns:ev="http://www.w3.org/2001/xml-events" xmlns:xlink="http://www.w3.org/1999/xlink"><defs /><g transform="translate(0, 1000) scale(1, -1)"><path d="M-20.341094970703125 665.1900024414062C-19.507003784179688 665.4080200195312 -18.684799194335938 665.510009765625 -17.88720703125 665.510009765625C-12.904006958007812 665.510009765625 -8.87799072265625 661.5040283203125 -8.87799072265625 656.4949951171875C-8.87799072265625 655.760009765625 -8.9644775390625 655.0050048828125 -9.147125244140625 654.2369995117188C-9.332138061523438 653.4409790039062 -9.942718505859375 652.1090087890625 -10.960403442382812 650.2589721679688C-31.7200927734375 612.9210205078125 -46.26300048828125 567.3679809570312 -51.42509460449219 523.5170288085938C-53.572296142578125 505.2550048828125 -54.65809631347656 486.75799560546875 -54.65809631347656 467.85699462890625C-54.65809631347656 398.8080139160156 -40.16529846191406 324.3689880371094 -9.979736328125 236.26699829101562C-3.3083648681640625 216.79100036621094 -0.0052032470703125 196.63499450683594 -0.0052032470703125 176.5050048828125C-0.0052032470703125 145.38499450683594 -7.900054931640625 114.32598876953125 -23.449493408203125 85.93499755859375C-39.916595458984375 55.88710021972656 -64.59890747070312 28.281494140625 -98.86529541015625 1.545501708984375C-100.4010009765625 0.3613433837890625 -101.6409912109375 -0.6747894287109375 -101.6409912109375 -0.7487945556640625C-101.6409912109375 -0.82281494140625 -100.4010009765625 -1.8589324951171875 -98.86529541015625 -3.0431060791015625C-64.59890747070312 -29.779098510742188 -39.916595458984375 -57.38470458984375 -23.449493408203125 -87.43260192871094C-7.89239501953125 -115.81700134277344 0.0 -146.85499572753906 0.0 -177.96499633789062C0.0 -198.1009979248047 -3.305999755859375 -218.26699829101562 -9.979736328125 -237.76499938964844C-24.689102172851562 -280.69000244140625 -33.90330505371094 -313.6990051269531 -41.48930358886719 -350.4440002441406C-50.187591552734375 -392.60699462890625 -54.53790283203125 -432.3380126953125 -54.53790283203125 -469.6629943847656C-54.53790283203125 -537.85400390625 -40.016998291015625 -598.010009765625 -10.960403442382812 -650.2760009765625C-9.47735595703125 -652.9450073242188 -8.839218139648438 -654.6890258789062 -8.839218139648438 -656.4719848632812C-8.839218139648438 -657.2470092773438 -8.959854125976562 -658.0289916992188 -9.184112548828125 -658.8980102539062C-10.27630615234375 -663.0830078125 -14.118606567382812 -665.510009765625 -18.008102416992188 -665.510009765625C-20.3782958984375 -665.510009765625 -22.766098022460938 -664.6090087890625 -24.559600830078125 -662.6539916992188C-25.68829345703125 -661.4329833984375 -32.2196044921875 -649.6649780273438 -39.69459533691406 -635.3820190429688C-86.87579345703125 -545.3300170898438 -112.77899169921875 -460.5889892578125 -117.18299865722656 -381.9909973144531C-117.75599670410156 -371.77801513671875 -117.8489990234375 -368.79901123046875 -117.95999145507812 -358.77099609375C-117.97799682617188 -357.0429992675781 -117.98699951171875 -355.3219909667969 -117.98699951171875 -353.60699462890625C-117.98699951171875 -304.4949951171875 -110.53500366210938 -260.3089904785156 -93.96218872070312 -210.75100708007812C-85.58059692382812 -185.69900512695312 -81.88009643554688 -171.4709930419922 -78.5126953125 -151.468994140625C-76.2908935546875 -138.25100708007812 -75.19210815429688 -125.59300231933594 -75.19210815429688 -113.57598876953125C-75.19210815429688 -68.25050354003906 -90.8240966796875 -32.05039978027344 -120.79100036621094 -9.3524169921875C-124.93499755859375 -6.2070159912109375 -126.156005859375 -4.2457427978515625 -126.156005859375 -0.7487945556640625C-126.156005859375 2.7481536865234375 -124.93499755859375 4.70941162109375 -120.79100036621094 7.8548126220703125C-90.8240966796875 30.55279541015625 -75.19210815429688 66.75289916992188 -75.19210815429688 112.0780029296875C-75.19210815429688 124.09500122070312 -76.2908935546875 136.75399780273438 -78.5126953125 149.9720001220703C-81.88009643554688 169.97300720214844 -85.59909057617188 184.23800659179688 -93.96218872070312 209.25399780273438C-103.75 238.50599670410156 -108.98599243164062 259.74700927734375 -113.093994140625 286.77899169921875C-116.46600341796875 308.9570007324219 -118.15899658203125 331.3330078125 -118.15899658203125 353.97198486328125C-118.15899658203125 448.4739990234375 -88.65380859375 547.5650024414062 -28.57470703125 655.9760131835938C-24.559600830078125 663.2470092773438 -23.578994750976562 664.3389892578125 -20.341094970703125 665.1900024414062Z" fill="black" /></g></svg>