<?xml version="1.0" encoding="utf-8" ?>
<svg baseProfile="tiny" height="100%" version="1.2" width="100%" xmlns="http://www.w3.org/2000/svg" xmlns:ev="http://www.w3.org/2001/xml-events" xmlns:xlink="http://www.w3.org/1999/xlink"><defs /><g transform="translate(0, 1000) scale(1, -1)"><path d="M-17.0364990234375 401.5669860839844C-16.6636962890625 401.6130065917969 -16.294097900390625 401.635009765625 -15.929107666015625 401.635009765625C-11.005096435546875 401.635009765625 -6.908782958984375 397.5719909667969 -6.908782958984375 392.65399169921875C-6.908782958984375 392.32000732421875 -6.92767333984375 391.98199462890625 -6.966522216796875 391.6409912109375C-7.143585205078125 390.07000732421875 -7.4866180419921875 389.2179870605469 -9.113311767578125 386.2409973144531C-14.71270751953125 375.9939880371094 -20.444793701171875 362.4049987792969 -23.465805053710938 352.2130126953125C-29.197906494140625 332.8810119628906 -31.88690185546875 316.6809997558594 -32.7611083984375 296.2200012207031C-32.89860534667969 293.0060119628906 -32.96699523925781 289.72198486328125 -32.96699523925781 286.3699951171875C-32.96699523925781 246.28900146484375 -23.19110107421875 196.62600708007812 -4.9525299072265625 144.61700439453125C-3.22625732421875 139.6699981689453 -1.466766357421875 133.26300048828125 -0.481903076171875 128.23899841308594L-0.0503387451171875 126.08100891113281L-0.0171356201171875 107.3800048828125C-0.0094757080078125 102.58599853515625 -1.52587890625e-05 99.00309753417969 -1.52587890625e-05 96.27839660644531C-1.52587890625e-05 87.22470092773438 -0.10443115234375 87.64219665527344 -0.725372314453125 84.52899169921875C-5.7492828369140625 59.39830017089844 -19.74761962890625 35.8612060546875 -42.15611267089844 14.869094848632812C-47.37921142578125 9.98907470703125 -50.58831787109375 7.2115325927734375 -57.70372009277344 1.4904632568359375C-58.976318359375 0.4723968505859375 -60.02751159667969 -0.412872314453125 -60.02751159667969 -0.4571380615234375C-60.02751159667969 -0.50140380859375 -58.976318359375 -1.3866729736328125 -57.70372009277344 -2.4047393798828125C-45.2213134765625 -12.452606201171875 -36.999420166015625 -20.209808349609375 -28.99871826171875 -29.505096435546875C-14.424911499023438 -46.424896240234375 -4.664825439453125 -65.73489379882812 -0.725372314453125 -85.44329833984375C-0.10443115234375 -88.55650329589844 -1.52587890625e-05 -88.13900756835938 -1.52587890625e-05 -97.19270324707031C-1.52587890625e-05 -99.91738891601562 -0.0094757080078125 -103.5 -0.01715087890625 -108.29400634765625L-0.05035400390625 -126.99600219726562L-0.4819183349609375 -129.1540069580078C-1.47784423828125 -134.20001220703125 -3.2262725830078125 -140.58502197265625 -4.97467041015625 -145.5640106201172C-19.60382080078125 -187.3050079345703 -28.987716674804688 -228.2930145263672 -31.864822387695312 -263.05101013183594C-32.52351379394531 -271.01902770996094 -32.8524169921875 -278.82200622558594 -32.8524169921875 -286.4560089111328C-32.8524169921875 -323.96900939941406 -24.909820556640625 -357.4080047607422 -9.113327026367188 -386.27000427246094C-7.447509765625 -389.3090057373047 -6.8869781494140625 -390.7570037841797 -6.8869781494140625 -392.45802307128906C-6.8869781494140625 -392.81300354003906 -6.911468505859375 -393.1790008544922 -6.955474853515625 -393.57301330566406C-7.54052734375 -398.72300720214844 -11.707717895507812 -401.63502502441406 -15.95220947265625 -401.63502502441406C-19.013320922851562 -401.63502502441406 -22.114715576171875 -400.1210174560547 -23.941619873046875 -396.83802795410156C-63.96461486816406 -325.0530242919922 -82.12022399902344 -266.64002990722656 -82.12022399902344 -208.5480194091797C-82.12022399902344 -203.53302001953125 -81.98490905761719 -198.52001953125 -81.71672058105469 -193.50201416015625C-80.43301391601562 -169.56600952148438 -76.11732482910156 -147.81101989746094 -67.77360534667969 -123.12301635742188C-59.613616943359375 -98.99320983886719 -55.75080871582031 -79.98710632324219 -55.75080871582031 -63.28361511230469C-55.75080871582031 -58.89820861816406 -56.017120361328125 -54.67152404785156 -56.54182434082031 -50.552520751953125C-58.754913330078125 -33.23431396484375 -67.25361633300781 -17.69781494140625 -79.50352478027344 -8.601654052734375C-82.91181945800781 -6.06756591796875 -84.23971557617188 -3.7879791259765625 -84.23971557617188 -0.4571533203125C-84.23971557617188 2.873687744140625 -82.91181945800781 5.15325927734375 -79.50352478027344 7.687347412109375C-67.25361633300781 16.783493041992188 -58.754913330078125 32.32008361816406 -56.54182434082031 49.63818359375C-56.01692199707031 53.76768493652344 -55.750213623046875 58.00007629394531 -55.750213623046875 62.38978576660156C-55.750213623046875 79.10348510742188 -59.61701965332031 98.09788513183594 -67.82902526855469 122.37397766113281C-71.08241271972656 132.0129852294922 -72.28851318359375 136.07398986816406 -74.568115234375 145.05899047851562C-76.80342102050781 153.92298889160156 -78.20881652832031 161.20498657226562 -79.82441711425781 172.39198303222656C-81.405517578125 183.28797912597656 -82.19752502441406 195.3889923095703 -82.19752502441406 207.7039794921875C-82.19752502441406 219.2659912109375 -81.49951171875 231.01698303222656 -80.10111999511719 242.1409912109375C-74.10331726074219 289.98997497558594 -56.453216552734375 338.5909881591797 -23.941619873046875 396.80897521972656C-22.458816528320312 399.4759979248047 -19.935821533203125 401.21299743652344 -17.036514282226562 401.5669708251953Z" fill="black" /></g></svg>