<?xml version="1.0" encoding="utf-8" ?>
<svg baseProfile="tiny" height="100%" version="1.2" width="100%" xmlns="http://www.w3.org/2000/svg" xmlns:ev="http://www.w3.org/2001/xml-events" xmlns:xlink="http://www.w3.org/1999/xlink"><defs /><g transform="translate(0, 1000) scale(1, -1)"><path d="M-14.068206787109375 7828.009765625C-12.555496215820312 7828.93017578125 -10.845504760742188 7829.3701171875 -9.153488159179688 7829.3701171875C-5.7860260009765625 7829.3701171875 -2.4892730712890625 7827.64990234375 -0.9585113525390625 7824.64013671875C-0.344207763671875 7823.43017578125 0.0 7822.259765625 0.0 7820.91015625C0.0 7817.68017578125 -1.9328460693359375 7813.3701171875 -6.7850189208984375 7804.85986328125C-96.32929992675781 7646.85009765625 -192.08299255371094 7449.2900390625 -270.12799072265625 7261.990234375C-556.1129760742188 6575.4501953125 -699.2059936523438 5819.419921875 -699.2059936523438 5034.93994140625C-699.2059936523438 4274.58984375 -564.7760009765625 3487.52001953125 -295.7340087890625 2711.110107421875C-240.53500366210938 2552.030029296875 -208.79600524902344 2425.14990234375 -185.87399291992188 2272.35009765625C-173.3769989013672 2189.169921875 -167.6269989013672 2128.14990234375 -162.33799743652344 2023.5799560546875C-161.3159942626953 2003.1300048828125 -160.83200073242188 1976.7900390625 -160.83200073242188 1947.989990234375C-160.83200073242188 1892.4599609375 -162.63299560546875 1827.800048828125 -165.86399841308594 1778.6300048828125C-211.55599975585938 1087.6500244140625 -575.9429931640625 435.009033203125 -1156.219970703125 4.6905517578125C-1165.800048828125 -2.4392547607421875 -1173.6199951171875 -8.495758056640625 -1173.6199951171875 -8.802413940429688C-1173.6199951171875 -9.10906982421875 -1165.800048828125 -15.165557861328125 -1156.1400146484375 -22.29534912109375C-575.9429931640625 -452.61395263671875 -211.55599975585938 -1105.2599487304688 -165.86399841308594 -1796.2399291992188C-162.63299560546875 -1845.4099731445312 -160.83200073242188 -1910.0698852539062 -160.83200073242188 -1965.5899047851562C-160.83200073242188 -1994.3899536132812 -161.3159942626953 -2020.7299194335938 -162.33799743652344 -2041.1799926757812C-167.6269989013672 -2145.7499389648438 -173.3769989013672 -2206.7799682617188 -185.87399291992188 -2289.9598999023438C-208.79600524902344 -2442.8300170898438 -240.61199951171875 -2569.7799682617188 -295.7340087890625 -2728.8600463867188C-563.5449829101562 -3501.2299194335938 -697.4089965820312 -4285.229919433594 -697.4089965820312 -5042.859802246094C-697.4089965820312 -5810.999938964844 -559.8079833984375 -6552.039978027344 -284.6940002441406 -7226.390075683594C-202.74000549316406 -7427.330017089844 -103.84201049804688 -7633.180114746094 -6.7850189208984375 -7804.830017089844C-2.4738311767578125 -7812.459899902344 -0.301666259765625 -7818.269958496094 -0.301666259765625 -7822.309997558594C-0.301666259765625 -7827.039978027344 -3.216522216796875 -7829.359802246094 -9.0849609375 -7829.359802246094L-10.16259765625 -7829.370056152344C-15.114303588867188 -7829.370056152344 -15.575897216796875 -7828.220153808594 -35.5343017578125 -7792.259704589844C-466.0060119628906 -7016.559997558594 -737.1690063476562 -6179.919860839844 -835.9130249023438 -5323.189880371094L-840.052978515625 -5287.160095214844C-856.5360107421875 -5146.939880371094 -869.4149780273438 -4952.749938964844 -874.781982421875 -4763.160095214844C-875.4340209960938 -4739.970153808594 -875.7589721679688 -4679.749938964844 -875.7589721679688 -4619.589782714844C-875.7589721679688 -4559.439880371094 -875.4340209960938 -4499.359802246094 -874.781982421875 -4476.430114746094C-855.9219970703125 -3818.5700073242188 -748.7449951171875 -3231.8600463867188 -535.8480224609375 -2620.4598999023438C-459.7200012207031 -2401.7399291992188 -411.26800537109375 -2174.0399780273438 -392.0249938964844 -1944.9699096679688C-385.9779968261719 -1872.7098999023438 -382.9930114746094 -1801.0099487304688 -382.9930114746094 -1730.0599975585938C-382.9930114746094 -1031.8699340820312 -672.0250244140625 -405.88690185546875 -1176.9200439453125 -30.575103759765625C-1192.1700439453125 -19.228713989257812 -1199.800048828125 -14.0155029296875 -1199.800048828125 -8.802352905273438C-1199.800048828125 -3.5891571044921875 -1192.1700439453125 1.6240386962890625 -1176.9200439453125 12.97039794921875C-743.1489868164062 335.4220886230469 -463.3999938964844 847.6180725097656 -398.2349853515625 1439.0101013183594C-388.0780029296875 1531.0501403808594 -383.0 1623.3500671386719 -383.0 1715.9001159667969C-383.0 2015.2300720214844 -436.1189880371094 2317.1700134277344 -542.2869873046875 2621.5601501464844C-764.85498046875 3259.7200622558594 -878.0029907226562 3933.0401306152344 -878.0029907226562 4613.120208740234C-878.0029907226562 4767.930267333984 -872.1400146484375 4923.100189208984 -860.3690185546875 5078.279876708984C-855.156005859375 5147.810150146484 -842.81298828125 5280.140228271484 -840.5130004882812 5291.790130615234C-840.2830200195312 5292.859954833984 -838.5960083007812 5307.509857177734 -836.6799926757812 5324.370208740234C-743.8389892578125 6139.930267333984 -483.56201171875 6960.779876708984 -80.15310668945312 7710.560150146484C-39.52079772949219 7786.149993896484 -16.904693603515625 7826.250091552734 -14.068206787109375 7828.009857177734Z" fill="black" /></g></svg>