<?xml version="1.0" encoding="utf-8" ?>
<svg baseProfile="tiny" height="100%" version="1.2" width="100%" xmlns="http://www.w3.org/2000/svg" xmlns:ev="http://www.w3.org/2001/xml-events" xmlns:xlink="http://www.w3.org/1999/xlink"><defs /><g transform="translate(0, 1000) scale(1, -1)"><path d="M-11.633697509765625 3597.85009765625C-10.7200927734375 3598.110107421875 -9.815826416015625 3598.239990234375 -8.939117431640625 3598.239990234375C-4.039520263671875 3598.239990234375 0.0 3594.3798828125 0.0 3589.10009765625C0.0 3585.81005859375 -0.0505828857421875 3585.760009765625 -6.6261444091796875 3573.929931640625C-136.11399841308594 3341.659912109375 -226.1490020751953 3077.320068359375 -270.6090087890625 2798.77001953125C-289.4259948730469 2680.659912109375 -298.93499755859375 2577.8798828125 -303.33599853515625 2444.199951171875C-303.7650146484375 2431.25 -303.9800109863281 2397.659912109375 -303.9800109863281 2363.969970703125C-303.9800109863281 2330.27001953125 -303.7650146484375 2296.469970703125 -303.33599853515625 2283.090087890625C-292.1570129394531 1932.6199951171875 -229.68899536132812 1603.68994140625 -106.72599792480469 1247.43994140625C-67.8280029296875 1134.760009765625 -48.860107421875 1019.75 -48.860107421875 905.7369995117188C-48.860107421875 595.1420288085938 -189.62399291992188 291.8949890136719 -451.69000244140625 62.8319091796875C-474.2489929199219 43.155792236328125 -507.8349914550781 16.044296264648438 -529.2310180664062 0.414703369140625C-532.3170166015625 -1.9120330810546875 -534.89599609375 -3.9352874755859375 -534.89599609375 -4.1881866455078125C-534.89599609375 -4.3905181884765625 -531.10302734375 -7.37481689453125 -526.448974609375 -10.864898681640625C-457.10198974609375 -62.45770263671875 -388.31201171875 -125.98800659179688 -331.3070068359375 -191.08599853515625C-145.61000061035156 -403.0559997558594 -48.804290771484375 -656.4879760742188 -48.804290771484375 -913.9130249023438C-48.804290771484375 -1028.18994140625 -67.88088989257812 -1143.25 -106.72599792480469 -1255.8199462890625C-165.60299682617188 -1426.47998046875 -205.61300659179688 -1571.8499755859375 -238.49000549316406 -1734.8199462890625C-281.9590148925781 -1950.219970703125 -303.51300048828125 -2161.969970703125 -303.51300048828125 -2367.179931640625C-303.51300048828125 -2808.60009765625 -203.7760009765625 -3219.77001953125 -7.8906707763671875 -3571.929931640625L-0.0505828857421875 -3586.10009765625L0.0 -3589.3798828125C0.0 -3595.0 -3.2371978759765625 -3598.239990234375 -8.851715087890625 -3598.239990234375C-14.516799926757812 -3598.239990234375 -14.769699096679688 -3597.929931640625 -25.18939208984375 -3579.169921875C-260.2909851074219 -3156.360107421875 -399.135986328125 -2697.330078125 -426.65301513671875 -2251.760009765625C-430.260009765625 -2193.280029296875 -432.0639953613281 -2135.159912109375 -432.0639953613281 -2077.389892578125C-432.0639953613281 -1800.5799560546875 -390.6260070800781 -1531.8199462890625 -307.4330139160156 -1268.969970703125C-302.9809875488281 -1254.760009765625 -299.3900146484375 -1244.0899658203125 -278.3479919433594 -1181.719970703125C-230.39199829101562 -1039.75 -207.1490020751953 -897.9600219726562 -207.1490020751953 -762.7009887695312C-207.1490020751953 -456.2799987792969 -326.4339904785156 -183.39797973632812 -547.89599609375 -18.047378540039062C-559.2760009765625 -9.549789428710938 -559.9340209960938 -8.740478515625 -559.9340209960938 -4.18817138671875C-559.9340209960938 0.3641357421875 -559.2760009765625 1.173431396484375 -547.89599609375 9.67108154296875C-326.4339904785156 175.02101135253906 -207.1490020751953 447.9040069580078 -207.1490020751953 754.3239898681641C-207.1490020751953 889.5830230712891 -230.39199829101562 1031.3800201416016 -278.3479919433594 1173.3399810791016C-299.2380065917969 1235.250015258789 -303.0320129394531 1246.5799713134766 -308.4949951171875 1263.8800201416016C-376.42498779296875 1478.9000396728516 -417.0929870605469 1702.6200103759766 -428.9289855957031 1926.500015258789C-431.9639892578125 1984.310073852539 -432.468994140625 2004.949966430664 -432.468994140625 2073.939956665039C-432.468994140625 2142.979995727539 -431.9129943847656 2165.290054321289 -428.9289855957031 2222.139907836914C-404.6499938964844 2679.300064086914 -265.7030029296875 3146.060073852539 -25.138900756835938 3578.979995727539C-15.98370361328125 3595.469985961914 -14.921493530273438 3596.939956665039 -11.633697509765625 3597.850112915039Z" fill="black" /></g></svg>