<?xml version="1.0" encoding="utf-8" ?>
<svg baseProfile="tiny" height="100%" version="1.2" width="100%" xmlns="http://www.w3.org/2000/svg" xmlns:ev="http://www.w3.org/2001/xml-events" xmlns:xlink="http://www.w3.org/1999/xlink"><defs /><g transform="translate(0, 1000) scale(1, -1)"><path d="M-19.830398559570312 510.1059875488281C-19.336990356445312 510.1830139160156 -18.849090576171875 510.218994140625 -18.36968994140625 510.218994140625C-13.427291870117188 510.218994140625 -9.377975463867188 506.302001953125 -9.377975463867188 501.1510009765625C-9.377975463867188 498.8489990234375 -9.547470092773438 498.3970031738281 -11.793289184570312 494.2869873046875C-13.728485107421875 490.7550048828125 -17.923477172851562 482.364990234375 -19.378387451171875 479.1159973144531C-22.344589233398438 472.5060119628906 -24.096084594726562 468.2969970703125 -26.228988647460938 462.5899963378906C-37.512481689453125 432.43499755859375 -43.16618347167969 399.260986328125 -43.16618347167969 362.6919860839844C-43.16618347167969 310.635986328125 -31.709793090820312 251.6999969482422 -8.728240966796875 184.7969970703125C-4.92864990234375 173.72300720214844 -3.12066650390625 166.64599609375 -1.6940460205078125 157.21099853515625C-0.60406494140625 149.9949951171875 -0.063018798828125 142.8040008544922 -0.063018798828125 135.6649932861328C-0.063018798828125 100.4320068359375 -13.240280151367188 66.45010375976562 -38.644683837890625 36.852691650390625C-48.913482666015625 24.889007568359375 -65.04408264160156 9.860122680664062 -78.44859313964844 -0.2391510009765625L-78.87229919433594 -0.56402587890625L-78.44859313964844 -0.8747711181640625C-44.986785888671875 -26.087692260742188 -20.649581909179688 -56.25837707519531 -9.3497314453125 -86.51377868652344C-3.115325927734375 -103.19898986816406 1.52587890625e-05 -119.70799255371094 1.52587890625e-05 -136.43798828125C1.52587890625e-05 -152.60897827148438 -2.9105072021484375 -168.9849853515625 -8.728240966796875 -185.92498779296875C-29.449386596679688 -246.22398376464844 -40.353790283203125 -298.1179962158203 -42.81158447265625 -348.03599548339844C-42.93157958984375 -350.4509735107422 -42.99159240722656 -356.7369842529297 -42.99159240722656 -363.00099182128906C-42.99159240722656 -369.26499938964844 -42.93157958984375 -375.5089874267578 -42.81158447265625 -377.83897399902344C-40.55158996582031 -422.33299255371094 -30.480484008789062 -460.1019744873047 -11.793289184570312 -494.2849884033203C-9.547470092773438 -498.3949737548828 -9.377975463867188 -498.8469696044922 -9.377975463867188 -501.1489715576172C-9.377975463867188 -506.6739959716797 -13.8682861328125 -510.21897888183594 -18.478378295898438 -510.21897888183594C-20.96337890625 -510.21897888183594 -23.483184814453125 -509.18898010253906 -25.353179931640625 -506.8839874267578C-27.35888671875 -504.41197204589844 -42.47257995605469 -475.70997619628906 -49.70448303222656 -460.61097717285156C-82.77798461914062 -391.6229705810547 -99.13389587402344 -328.62998962402344 -99.13389587402344 -268.11997985839844C-99.13389587402344 -230.5579833984375 -92.83148193359375 -193.9519805908203 -80.31309509277344 -157.46298217773438C-72.29008483886719 -134.114990234375 -67.91139221191406 -114.33998107910156 -66.14578247070312 -93.50569152832031C-65.92588806152344 -90.87867736816406 -65.81779479980469 -87.23957824707031 -65.81779479980469 -83.477783203125C-65.81779479980469 -78.78468322753906 -65.98597717285156 -73.90058898925781 -66.31529235839844 -70.55268859863281C-68.91429138183594 -43.94148254394531 -79.80458068847656 -22.810684204101562 -98.15278625488281 -8.827056884765625C-102.02299499511719 -5.874969482421875 -103.02598571777344 -4.1941070556640625 -103.02598571777344 -0.5640106201171875C-103.02598571777344 3.066070556640625 -102.02299499511719 4.7469329833984375 -98.15278625488281 7.69903564453125C-87.92637634277344 15.49591064453125 -79.73399353027344 25.891815185546875 -74.36648559570312 37.89801025390625C-68.63069152832031 50.70820617675781 -65.77218627929688 64.99360656738281 -65.77218627929688 81.36140441894531C-65.77218627929688 94.69972229003906 -67.67048645019531 109.42100524902344 -71.456787109375 125.85401916503906C-73.61787414550781 135.2320098876953 -76.62648010253906 145.6000213623047 -80.31309509277344 156.33502197265625C-89.55067443847656 183.29901123046875 -94.90408325195312 207.32601928710938 -97.50297546386719 233.55601501464844C-98.60948181152344 244.70301818847656 -99.16598510742188 255.90802001953125 -99.16598510742188 267.19602966308594C-99.16598510742188 340.34800720214844 -75.79289245605469 416.95701599121094 -27.274185180664062 503.76402282714844C-24.915283203125 507.98802185058594 -23.00848388671875 509.6120147705078 -19.83038330078125 510.1060028076172Z" fill="black" /></g></svg>