<?xml version="1.0" encoding="utf-8" ?>
<svg baseProfile="tiny" height="100%" version="1.2" width="100%" xmlns="http://www.w3.org/2000/svg" xmlns:ev="http://www.w3.org/2001/xml-events" xmlns:xlink="http://www.w3.org/1999/xlink"><defs /><g transform="translate(0, 1000) scale(1, -1)"><path d="M-18.475997924804688 429.1099853515625C-17.96978759765625 429.1910095214844 -17.469589233398438 429.2300109863281 -16.978485107421875 429.2300109863281C-12.068588256835938 429.2300109863281 -8.065460205078125 425.3269958496094 -8.065460205078125 420.17999267578125C-8.065460205078125 417.8819885253906 -8.20758056640625 417.4209899902344 -10.102584838867188 413.9620056152344C-27.279678344726562 382.56201171875 -35.87419128417969 346.83099365234375 -35.87419128417969 305.8550109863281C-35.87419128417969 261.9020080566406 -25.98577880859375 211.9149932861328 -6.194183349609375 154.76499938964844C-3.43463134765625 146.7830047607422 -1.88311767578125 140.62399291992188 -0.5684814453125 132.44000244140625L1.52587890625e-05 128.88699340820312V114.37899780273438V99.87030029296875L-0.5092620849609375 96.61329650878906C-6.194183349609375 60.37202453613281 -26.304580688476562 29.922119140625 -63.86058044433594 0.6803131103515625C-64.65408325195312 0.0644378662109375 -65.30548095703125 -0.4685211181640625 -65.30548095703125 -0.5040435791015625C-65.30548095703125 -0.539581298828125 -64.65408325195312 -1.072540283203125 -63.86058044433594 -1.6884002685546875C-26.304580688476562 -30.930191040039062 -6.194183349609375 -61.38008117675781 -0.5092620849609375 -97.62147521972656L1.52587890625e-05 -100.87797546386719V-115.38697814941406V-129.8949737548828L-0.5684814453125 -133.44796752929688C-1.8002166748046875 -141.14697265625 -3.4701690673828125 -147.90896606445312 -5.744140625 -154.47096252441406C-25.791000366210938 -212.10797119140625 -35.80279541015625 -262.28497314453125 -35.80279541015625 -306.344970703125C-35.80279541015625 -347.14495849609375 -27.218093872070312 -382.7009582519531 -10.067001342773438 -414.08197021484375C-8.612106323242188 -416.7549743652344 -7.9469146728515625 -418.64398193359375 -7.9469146728515625 -420.4329833984375C-7.9469146728515625 -421.2369689941406 -8.08099365234375 -422.0209655761719 -8.337875366210938 -422.8459777832031C-9.609619140625 -426.9889831542969 -13.340103149414062 -429.22998046875 -17.08380126953125 -429.22998046875C-19.96429443359375 -429.22998046875 -22.852691650390625 -427.9029846191406 -24.63470458984375 -425.0969543457031C-25.025497436523438 -424.4689636230469 -29.004898071289062 -417.2559814453125 -31.350006103515625 -412.8979797363281C-65.03309631347656 -350.3519592285156 -82.94059753417969 -295.1249694824219 -86.33969116210938 -243.2979736328125C-86.79840087890625 -236.28497314453125 -87.03131103515625 -229.4419708251953 -87.03131103515625 -222.7129669189453C-87.03131103515625 -191.91397094726562 -82.15219116210938 -163.5149688720703 -71.712890625 -132.32296752929688C-62.89390563964844 -105.97998046875 -58.817596435546875 -86.01547241210938 -58.817596435546875 -68.23126220703125C-58.817596435546875 -63.77996826171875 -59.072998046875 -59.465362548828125 -59.57319641113281 -55.22137451171875C-61.81170654296875 -36.30717468261719 -70.81280517578125 -19.335372924804688 -83.97100830078125 -9.220916748046875L-86.02000427246094 -7.633880615234375C-88.30192565917969 -5.8394622802734375 -89.48820495605469 -3.18951416015625 -89.48820495605469 -0.505126953125C-89.48820495605469 1.5056915283203125 -88.82252502441406 3.53582763671875 -87.45301818847656 5.2401123046875C-86.89640808105469 5.927032470703125 -86.44630432128906 6.31787109375 -83.97102355957031 8.212844848632812C-70.81282043457031 18.327224731445312 -61.81172180175781 35.29913330078125 -59.573211669921875 54.21333312988281C-59.06951904296875 58.48333740234375 -58.81172180175781 62.812835693359375 -58.81172180175781 67.27603149414062C-58.81172180175781 85.058837890625 -62.90361022949219 104.96302795410156 -71.83131408691406 131.67002868652344C-80.65481567382812 158.0580291748047 -85.17912292480469 180.78602600097656 -86.57661437988281 205.57403564453125C-87.00300598144531 213.32003784179688 -87.0504150390625 214.8720245361328 -87.0504150390625 222.92503356933594C-87.0504150390625 230.97903442382812 -87.00300598144531 232.5540313720703 -86.56480407714844 240.27603149414062C-83.47361755371094 295.5260314941406 -63.91981506347656 354.46002197265625 -26.245407104492188 422.1820373535156C-23.521408081054688 427.0730285644531 -21.839614868164062 428.5650329589844 -18.47601318359375 429.1100158691406Z" fill="black" /></g></svg>