<?xml version="1.0" encoding="utf-8" ?>
<svg baseProfile="tiny" height="100%" version="1.2" width="100%" xmlns="http://www.w3.org/2000/svg" xmlns:ev="http://www.w3.org/2001/xml-events" xmlns:xlink="http://www.w3.org/1999/xlink"><defs /><g transform="translate(0, 1000) scale(1, -1)"><path d="M-15.904205322265625 1169.8299560546875C-14.4490966796875 1170.530029296875 -13.779800415039062 1170.6700439453125 -11.975494384765625 1170.6700439453125C-6.6745147705078125 1170.6700439453125 -2.9750823974609375 1166.9200439453125 -2.9750823974609375 1161.699951171875C-2.9750823974609375 1161.56005859375 -2.9777069091796875 1161.4200439453125 -2.9829864501953125 1161.27001953125L-3.0993804931640625 1158.8900146484375L-7.1445465087890625 1151.469970703125C-62.65577697753906 1050.0 -90.48338317871094 933.8270263671875 -90.48338317871094 804.5659790039062C-90.48338317871094 727.9559936523438 -80.70848083496094 646.7479858398438 -61.12858581542969 561.281005859375C-49.69148254394531 511.42999267578125 -37.11949157714844 468.09698486328125 -17.388381958007812 410.6789855957031C-5.84234619140625 377.0329895019531 1.52587890625e-05 341.19500732421875 1.52587890625e-05 305.3420104980469C1.52587890625e-05 283.3599853515625 -2.19622802734375 261.37200927734375 -6.6207122802734375 239.8800048828125C-24.838485717773438 151.38099670410156 -78.93888854980469 71.08920288085938 -165.92398071289062 3.427276611328125C-169.03797912597656 1.0118255615234375 -171.59898376464844 -1.1126251220703125 -171.59898376464844 -1.2581329345703125C-171.59898376464844 -1.403656005859375 -169.03797912597656 -3.5280914306640625 -165.92398071289062 -5.94354248046875C-78.93888854980469 -73.60542297363281 -24.838485717773438 -153.89801025390625 -6.6207122802734375 -242.39601135253906C-2.19622802734375 -263.8880157470703 1.52587890625e-05 -285.88902282714844 1.52587890625e-05 -307.8820037841797C1.52587890625e-05 -343.7530059814453 -5.84234619140625 -379.60301208496094 -17.388381958007812 -413.1950225830078C-66.02568054199219 -554.6270294189453 -90.33769226074219 -686.0440216064453 -90.33769226074219 -806.2260284423828C-90.33769226074219 -934.2780303955078 -62.7371826171875 -1049.5699615478516 -7.551971435546875 -1150.6400299072266L-3.0993804931640625 -1158.790054321289L-3.0120849609375 -1161.1700592041016C-3.0049285888671875 -1161.3299713134766 -3.0013885498046875 -1161.479995727539 -3.0013885498046875 -1161.6400299072266C-3.0013885498046875 -1166.8900299072266 -7.12164306640625 -1170.6700592041016 -11.853500366210938 -1170.6700592041016C-13.181396484375 -1170.6700592041016 -14.5574951171875 -1170.3800201416016 -15.904205322265625 -1169.729995727539C-18.406997680664062 -1168.530044555664 -19.0762939453125 -1167.6600494384766 -22.9468994140625 -1160.6800689697266C-45.791900634765625 -1119.5899810791016 -66.62879943847656 -1077.300064086914 -83.9735107421875 -1036.9100494384766C-103.58799743652344 -991.3040313720703 -119.30300903320312 -947.7390289306641 -132.6320037841797 -902.1070098876953C-158.25599670410156 -814.4470367431641 -171.0709991455078 -728.2150421142578 -171.0709991455078 -643.8470001220703C-171.0709991455078 -564.3620147705078 -159.6959991455078 -486.5320281982422 -136.93899536132812 -410.7220001220703C-135.42599487304688 -405.68702697753906 -131.05999755859375 -392.1840057373047 -127.218994140625 -380.7470245361328C-108.33200073242188 -324.31800842285156 -100.35800170898438 -285.61302185058594 -97.82598876953125 -238.2930145263672C-97.48199462890625 -231.90101623535156 -97.31170654296875 -225.56101989746094 -97.31170654296875 -219.28001403808594C-97.31170654296875 -130.4400177001953 -131.3990020751953 -53.42431640625 -190.51600646972656 -10.425216674804688C-195.25900268554688 -6.9912109375 -196.4810028076172 -5.099578857421875 -196.4810028076172 -1.258148193359375C-196.48098754882812 2.583282470703125 -195.2589874267578 4.47491455078125 -190.5159912109375 7.908935546875C-141.07098388671875 43.878875732421875 -108.01197814941406 105.19696044921875 -99.74678039550781 176.26296997070312C-98.12867736816406 190.1709747314453 -97.30989074707031 204.1489715576172 -97.30989074707031 218.3399658203125C-97.30989074707031 267.19097900390625 -107.01298522949219 318.56097412109375 -127.21897888183594 378.22998046875C-145.5819854736328 432.5049743652344 -156.93199157714844 480.3489685058594 -164.14898681640625 534.2169494628906C-168.9329833984375 569.7929992675781 -171.31898498535156 605.8199768066406 -171.31898498535156 642.2379455566406C-171.31898498535156 808.7509460449219 -121.44898986816406 983.4529724121094 -22.946884155273438 1160.7799987792969C-19.076278686523438 1167.7599792480469 -18.406982421875 1168.6399841308594 -15.904190063476562 1169.8299255371094Z" fill="black" /></g></svg>