<?xml version="1.0" encoding="utf-8" ?>
<svg baseProfile="tiny" height="100%" version="1.2" width="100%" xmlns="http://www.w3.org/2000/svg" xmlns:ev="http://www.w3.org/2001/xml-events" xmlns:xlink="http://www.w3.org/1999/xlink"><defs /><g transform="translate(0, 1000) scale(1, -1)"><path d="M-11.631301879882812 1653.3800048828125C-10.7169189453125 1653.6800537109375 -9.799942016601562 1653.8199462890625 -8.904251098632812 1653.8199462890625C-4.1529083251953125 1653.8199462890625 -1.52587890625e-05 1649.8599853515625 -1.52587890625e-05 1644.5799560546875V1641.7099609375L-4.9222412109375 1632.780029296875C-87.55718994140625 1482.9599609375 -129.2050018310547 1309.4599609375 -129.2050018310547 1118.780029296875C-129.2050018310547 1013.989990234375 -116.62799072265625 904.02001953125 -91.36459350585938 789.9320068359375C-75.51910400390625 718.2899780273438 -59.47129821777344 662.2579956054688 -30.10650634765625 575.8489990234375C-13.589508056640625 527.2750244140625 -5.399566650390625 477.08099365234375 -5.399566650390625 426.864013671875C-5.399566650390625 350.59600830078125 -24.291595458984375 274.27801513671875 -61.59519958496094 203.51300048828125C-100.80400085449219 129.10699462890625 -159.33200073242188 61.510406494140625 -235.1540069580078 3.0842132568359375C-238.59300231933594 0.45452880859375 -241.39100646972656 -1.8380126953125 -241.39100646972656 -2.0065765380859375C-241.39102172851562 -2.175140380859375 -238.593017578125 -4.467681884765625 -235.15402221679688 -7.09735107421875C-159.33201599121094 -65.52348327636719 -100.80401611328125 -133.11997985839844 -61.59521484375 -207.52598571777344C-24.357421875 -278.18898010253906 -5.4068603515625 -354.39698791503906 -5.4068603515625 -430.77598571777344C-5.4068603515625 -469.8779754638672 -10.373916625976562 -509.02598571777344 -20.39691162109375 -547.4969940185547C-24.543716430664062 -563.4769744873047 -25.285415649414062 -565.7700042724609 -36.916717529296875 -600.0909881591797C-98.27291870117188 -781.1519622802734 -128.86801147460938 -956.1179656982422 -128.86801147460938 -1119.4100189208984C-128.86801147460938 -1309.3599700927734 -87.46522521972656 -1483.520004272461 -4.9222412109375 -1633.0799407958984L-1.52587890625e-05 -1642.020004272461V-1644.8799896240234C-1.52587890625e-05 -1650.550033569336 -3.270263671875 -1653.8199310302734 -8.934188842773438 -1653.8199310302734H-9.561660766601562C-14.993316650390625 -1653.8199310302734 -15.196609497070312 -1653.219955444336 -33.140716552734375 -1619.939926147461C-142.74501037597656 -1416.3399505615234 -206.96900939941406 -1204.5799407958984 -219.47702026367188 -1005.4999847412109C-221.43301391601562 -974.1459808349609 -221.83702087402344 -960.8289642333984 -221.83702087402344 -925.9349822998047C-221.83702087402344 -893.4689788818359 -221.70201110839844 -887.5689544677734 -220.3200225830078 -861.2050018310547C-214.62301635742188 -753.8259735107422 -194.05702209472656 -647.7280120849609 -159.2980194091797 -546.6539764404297C-135.79901123046875 -478.34999084472656 -124.57301330566406 -426.1949920654297 -120.02101135253906 -364.4309844970703C-119.05201721191406 -351.22499084472656 -118.57301330566406 -338.1659698486328 -118.57301330566406 -325.28099060058594C-118.57301330566406 -192.93199157714844 -169.13601684570312 -78.91429138183594 -258.75401306152344 -12.491592407226562C-265.8340301513672 -7.232208251953125 -266.3400115966797 -6.52423095703125 -266.3400115966797 -2.006561279296875C-266.3400115966797 2.5110931396484375 -265.8340301513672 3.219085693359375 -258.75401306152344 8.47845458984375C-169.13601684570312 74.90121459960938 -118.57301330566406 188.9190216064453 -118.57301330566406 321.2680206298828C-118.57301330566406 334.1530303955078 -119.05201721191406 347.21202087402344 -120.02101135253906 360.4180145263672C-124.53901672363281 421.8780059814453 -136.10301208496094 475.61802673339844 -159.12901306152344 542.1350250244141C-201.1610107421875 663.5789947509766 -222.2720184326172 791.2540435791016 -222.2720184326172 923.8339996337891C-222.2720184326172 926.7340240478516 -222.2620086669922 929.6370391845703 -222.2420196533203 932.5420074462891C-222.07301330566406 957.8950347900391 -221.93801879882812 963.2550201416016 -220.9940185546875 982.6070098876953C-210.50901794433594 1198.6500396728516 -143.31800842285156 1420.6500396728516 -21.812911987304688 1640.3600006103516C-15.811813354492188 1651.250015258789 -15.002716064453125 1652.270034790039 -11.631317138671875 1653.3800201416016Z" fill="black" /></g></svg>