<?xml version="1.0" encoding="utf-8" ?>
<svg baseProfile="tiny" height="100%" version="1.2" width="100%" xmlns="http://www.w3.org/2000/svg" xmlns:ev="http://www.w3.org/2001/xml-events" xmlns:xlink="http://www.w3.org/1999/xlink"><defs /><g transform="translate(0, 1000) scale(1, -1)"><path d="M-11.619705200195312 3235.18994140625C-10.778610229492188 3235.419921875 -9.945556640625 3235.530029296875 -9.135421752929688 3235.530029296875C-4.2931060791015625 3235.530029296875 -0.271148681640625 3231.639892578125 -0.271148681640625 3226.360107421875C-0.3196563720703125 3223.260009765625 -0.3681488037109375 3223.110107421875 -6.1394195556640625 3212.780029296875C-153.5740203857422 2949.050048828125 -243.00401306152344 2637.840087890625 -265.5070037841797 2310.47998046875C-269.49501037597656 2252.35009765625 -271.4820098876953 2193.570068359375 -271.4820098876953 2134.260009765625C-271.4820098876953 1845.9000244140625 -224.53302001953125 1544.9300537109375 -132.38002014160156 1245.4599609375C-121.80702209472656 1211.0699462890625 -113.41700744628906 1185.4200439453125 -88.87721252441406 1113.06005859375C-56.10011291503906 1016.280029296875 -40.20082092285156 917.22998046875 -40.20082092285156 818.77001953125C-40.20082092285156 513.6820068359375 -192.85501098632812 214.23199462890625 -469.0539855957031 5.3130950927734375C-475.2619934082031 0.6087799072265625 -480.35400390625 -3.41656494140625 -480.35400390625 -3.6105499267578125C-480.35400390625 -3.8045501708984375 -475.2619934082031 -7.8299102783203125 -469.0539855957031 -12.534210205078125C-252.65499877929688 -176.2150115966797 -106.77301025390625 -400.22801208496094 -58.42039489746094 -643.0579986572266C-46.43009948730469 -703.3209991455078 -40.464996337890625 -764.3220367431641 -40.464996337890625 -825.1320343017578C-40.464996337890625 -925.4290313720703 -56.692108154296875 -1025.199966430664 -88.877197265625 -1120.280044555664L-121.85600280761719 -1218.969985961914C-221.29698181152344 -1531.9100494384766 -270.6969757080078 -1841.1300201416016 -270.6969757080078 -2135.540054321289C-270.6969757080078 -2530.060073852539 -181.99497985839844 -2898.010025024414 -6.1393890380859375 -3212.729995727539C-1.7889251708984375 -3220.490005493164 1.52587890625e-05 -3224.290054321289 1.52587890625e-05 -3227.090103149414C1.52587890625e-05 -3228.600112915039 -0.5185394287109375 -3229.820083618164 -1.435089111328125 -3231.209976196289C-3.3445587158203125 -3234.120132446289 -5.99188232421875 -3235.530044555664 -8.734176635742188 -3235.530044555664C-12.121078491210938 -3235.530044555664 -15.652877807617188 -3233.370132446289 -18.118392944335938 -3229.219985961914C-38.34217834472656 -3195.080093383789 -86.64628601074219 -3102.060073852539 -113.95097351074219 -3044.679946899414C-300.11399841308594 -2653.229995727539 -393.80799865722656 -2253.760025024414 -393.80799865722656 -1862.6300201416016C-393.80799865722656 -1596.4300689697266 -350.4099884033203 -1334.0899810791016 -263.2279815673828 -1080.750015258789C-224.67198181152344 -968.8679962158203 -204.88497924804688 -878.5650177001953 -195.71897888183594 -773.2760162353516C-192.96998596191406 -741.6870269775391 -191.6129913330078 -710.4350128173828 -191.6129913330078 -679.6090240478516C-191.6129913330078 -402.61500549316406 -301.1749725341797 -159.989013671875 -494.85499572753906 -16.365615844726562C-504.65098571777344 -9.139358520507812 -505.5239715576172 -8.072402954101562 -505.5239715576172 -3.610565185546875C-505.5239715576172 0.85125732421875 -504.65098571777344 1.918212890625 -494.85499572753906 9.144439697265625C-301.1749725341797 152.7679901123047 -191.6129913330078 395.3939971923828 -191.6129913330078 672.3879852294922C-191.6129913330078 703.2139739990234 -192.96998596191406 734.4659881591797 -195.71897888183594 766.0540008544922C-204.88497924804688 871.3439788818359 -224.67198181152344 961.6469573974609 -263.2279815673828 1073.530014038086C-350.81898498535156 1328.060043334961 -394.4819793701172 1588.520004272461 -394.4819793701172 1857.1299896240234C-394.4819793701172 1917.060043334961 -392.30897521972656 1977.3899993896484 -387.96498107910156 2038.1600189208984C-359.64198303222656 2434.100082397461 -233.69297790527344 2842.649887084961 -23.792678833007812 3219.189926147461C-15.6934814453125 3233.739974975586 -15.402587890625 3234.169906616211 -11.61968994140625 3235.189926147461Z" fill="black" /></g></svg>