<?xml version="1.0" encoding="utf-8" ?>
<svg baseProfile="tiny" height="100%" version="1.2" width="100%" xmlns="http://www.w3.org/2000/svg" xmlns:ev="http://www.w3.org/2001/xml-events" xmlns:xlink="http://www.w3.org/1999/xlink"><defs /><g transform="translate(0, 1000) scale(1, -1)"><path d="M-11.613906860351562 3027.159912109375C-10.436508178710938 3027.47998046875 -9.336563110351562 3027.6298828125 -8.32232666015625 3027.6298828125C-3.466278076171875 3027.6298828125 -0.5763397216796875 3024.14990234375 -0.5763397216796875 3019.110107421875C-0.5763397216796875 3016.300048828125 -1.47943115234375 3013.0 -3.446990966796875 3009.56005859375C-18.468215942382812 2983.159912109375 -43.89262390136719 2933.919921875 -59.59440612792969 2900.669921875C-177.67401123046875 2651.18994140625 -241.30801391601562 2378.280029296875 -251.322021484375 2078.8701171875C-252.17701721191406 2053.179931640625 -252.60301208496094 2027.280029296875 -252.60301208496094 2001.2099609375C-252.60301208496094 1702.6300048828125 -196.8200225830078 1380.550048828125 -91.53282165527344 1074.300048828125C-64.60151672363281 995.9810180664062 -54.10121154785156 955.3889770507812 -44.91340637207031 893.8460083007812C-38.56671142578125 851.4080200195312 -35.44471740722656 808.9459838867188 -35.44471740722656 766.6920166015625C-35.44471740722656 478.510986328125 -180.66201782226562 200.01898193359375 -438.4320373535156 4.8694305419921875C-444.16802978515625 0.494293212890625 -448.8830261230469 -3.248870849609375 -448.8830261230469 -3.4433135986328125C-448.8830261230469 -3.6377716064453125 -444.16802978515625 -7.38092041015625 -438.4320373535156 -11.756011962890625C-256.572021484375 -149.572021484375 -127.11703491210938 -332.2100067138672 -69.70584106445312 -532.1040191650391C-46.87742614746094 -611.5290069580078 -35.48283386230469 -692.8029937744141 -35.48283386230469 -773.8010406494141C-35.48283386230469 -867.0120391845703 -50.57252502441406 -959.8570098876953 -80.69223022460938 -1049.0999908447266L-96.10243225097656 -1094.790054321289C-199.34600830078125 -1400.469985961914 -251.77001953125 -1710.0899810791016 -251.77001953125 -2004.0799713134766C-251.77001953125 -2158.320083618164 -237.3410186767578 -2308.260025024414 -208.2510223388672 -2451.080093383789C-167.51402282714844 -2650.979995727539 -97.02601623535156 -2843.629898071289 -4.6623077392578125 -3007.449966430664C-1.4399566650390625 -3013.129898071289 -1.52587890625e-05 -3016.459976196289 -1.52587890625e-05 -3019.090103149414C-1.52587890625e-05 -3020.629898071289 -0.491180419921875 -3021.919937133789 -1.4052734375 -3023.300064086914C-3.3192596435546875 -3026.209976196289 -5.9728240966796875 -3027.629898071289 -8.721588134765625 -3027.629898071289C-12.11651611328125 -3027.629898071289 -15.6566162109375 -3025.469985961914 -18.128021240234375 -3021.310073852539C-44.67041015625 -2976.530044555664 -97.99830627441406 -2871.580093383789 -130.81201171875 -2799.389907836914C-279.0800018310547 -2473.540054321289 -357.10301208496094 -2151.820083618164 -370.4230194091797 -1811.5799713134766C-370.94200134277344 -1798.290054321289 -371.2510223388672 -1761.1300201416016 -371.2510223388672 -1729.219985961914C-371.2510223388672 -1710.4000396728516 -371.1430206298828 -1693.4000396728516 -370.9090118408203 -1684.219985961914C-366.0480194091797 -1497.790054321289 -341.1580047607422 -1326.8199615478516 -293.27500915527344 -1150.459976196289C-279.71202087402344 -1100.6800689697266 -267.8500213623047 -1062.560073852539 -245.4400177001953 -997.0830230712891C-203.13201904296875 -873.4130401611328 -182.62400817871094 -750.2290191650391 -182.62400817871094 -633.3010406494141C-182.62400817871094 -376.5970001220703 -281.46400451660156 -150.0390167236328 -465.4600067138672 -14.672821044921875C-473.14100646972656 -9.03375244140625 -474.11302185058594 -7.8184356689453125 -474.11302185058594 -3.4433135986328125C-474.11302185058594 0.9318084716796875 -473.14100646972656 2.147125244140625 -465.4600067138672 7.7861785888671875C-456.4180145263672 14.446090698242188 -443.2930145263672 24.84918212890625 -434.05601501464844 32.67578125C-269.4770050048828 171.7869873046875 -182.40402221679688 385.8309783935547 -182.40402221679688 626.1290130615234C-182.40402221679688 743.1339569091797 -203.0480194091797 866.3619842529297 -245.4400177001953 990.1959686279297C-299.10801696777344 1146.9200286865234 -329.9280242919922 1273.999984741211 -351.17201232910156 1426.249984741211C-365.23301696777344 1527.1299896240234 -372.20201110839844 1629.4300384521484 -372.20201110839844 1732.560043334961C-372.20201110839844 2156.419906616211 -254.48001098632812 2594.229965209961 -27.510208129882812 3004.449935913086C-15.697311401367188 3025.840072631836 -15.502914428710938 3026.090072631836 -11.613922119140625 3027.159896850586Z" fill="black" /></g></svg>