<?xml version="1.0" encoding="utf-8" ?>
<svg baseProfile="tiny" height="100%" version="1.2" width="100%" xmlns="http://www.w3.org/2000/svg" xmlns:ev="http://www.w3.org/2001/xml-events" xmlns:xlink="http://www.w3.org/1999/xlink"><defs /><g transform="translate(0, 1000) scale(1, -1)"><path d="M-11.615097045898438 3695.179931640625C-10.798080444335938 3695.3798828125 -9.993484497070312 3695.47998046875 -9.21295166015625 3695.47998046875C-4.2367095947265625 3695.47998046875 -0.238739013671875 3691.64990234375 -0.238739013671875 3686.35009765625C-0.238739013671875 3683.60009765625 -0.5504150390625 3682.820068359375 -6.991851806640625 3671.239990234375C-210.31198120117188 3304.169921875 -313.66297912597656 2882.8798828125 -313.66297912597656 2426.93994140625C-313.66297912597656 2295.77001953125 -305.10899353027344 2161.72998046875 -287.9209747314453 2025.300048828125C-256.8049774169922 1778.030029296875 -198.6239776611328 1532.989990234375 -111.40498352050781 1281.8800048828125C-71.25349426269531 1166.25 -51.780487060546875 1048.0 -51.780487060546875 930.7540283203125C-51.780487060546875 582.1530151367188 -223.9139862060547 242.3699951171875 -536.4879608154297 6.375030517578125C-543.7599945068359 0.92059326171875 -549.7339935302734 -3.8065948486328125 -549.7339935302734 -4.014373779296875C-549.7339935302734 -4.2221527099609375 -543.7599945068359 -8.9493408203125 -536.4879608154297 -14.403793334960938C-259.0909881591797 -223.802001953125 -84.39288330078125 -524.5750122070312 -55.97789001464844 -841.6599731445312C-53.02348327636719 -874.7230224609375 -51.53749084472656 -907.3900146484375 -51.53749084472656 -939.7990112304688C-51.53749084472656 -1059.5400390625 -71.82139587402344 -1175.760009765625 -113.27497863769531 -1295.4200439453125C-235.40298461914062 -1647.8800048828125 -299.60899353027344 -1986.8800048828125 -311.66099548339844 -2342.669921875C-312.1289825439453 -2355.989990234375 -312.3619842529297 -2392.6298828125 -312.3619842529297 -2429.239990234375C-312.3619842529297 -2465.85009765625 -312.1289825439453 -2502.429931640625 -311.66099548339844 -2515.64990234375C-298.82997131347656 -2891.43994140625 -223.29898071289062 -3221.300048828125 -79.87348937988281 -3528.10009765625C-57.276580810546875 -3576.4599609375 -34.05628967285156 -3621.969970703125 -8.550247192382812 -3668.10009765625C-2.68994140625 -3678.68994140625 1.52587890625e-05 -3684.25 1.52587890625e-05 -3687.820068359375C1.52587890625e-05 -3690.52001953125 -1.5337677001953125 -3692.10009765625 -4.394500732421875 -3693.860107421875C-6.09832763671875 -3694.929931640625 -7.6907806396484375 -3695.47998046875 -9.22796630859375 -3695.47998046875C-12.939788818359375 -3695.47998046875 -16.32928466796875 -3692.280029296875 -20.186386108398438 -3685.449951171875C-148.07998657226562 -3460.52001953125 -259.2469940185547 -3192.679931640625 -330.4659881591797 -2937.719970703125C-405.43299865722656 -2669.429931640625 -442.86997985839844 -2400.820068359375 -442.86997985839844 -2135.93994140625C-442.86997985839844 -1829.0799560546875 -392.6269989013672 -1527.2099609375 -292.2849884033203 -1236.6099853515625C-267.66197204589844 -1165.239990234375 -253.1689910888672 -1113.7099609375 -239.92198181152344 -1050.489990234375C-221.00997924804688 -960.0449829101562 -211.7869873046875 -870.8690185546875 -211.7869873046875 -784.4609985351562C-211.7869873046875 -467.62200927734375 -335.79298400878906 -187.98199462890625 -560.8509979248047 -19.494598388671875C-574.1489715576172 -9.520751953125 -575.0839691162109 -8.481826782226562 -575.0839691162109 -4.014373779296875C-575.0839691162109 0.45306396484375 -574.1489715576172 1.49200439453125 -560.8509979248047 11.465805053710938C-335.79298400878906 179.9530029296875 -211.7869873046875 459.5929870605469 -211.7869873046875 776.4320068359375C-211.7869873046875 862.8410034179688 -221.00997924804688 952.0159912109375 -239.92198181152344 1042.4599609375C-253.1169891357422 1105.52001953125 -267.81797790527344 1157.6800537109375 -292.2329864501953 1228.4300537109375C-378.0489959716797 1476.8399658203125 -426.9829864501953 1729.56005859375 -440.12599182128906 1992.050048828125C-442.8269805908203 2046.22998046875 -443.2429962158203 2065.39990234375 -443.2429962158203 2132.050048828125C-443.2429962158203 2198.639892578125 -442.8269805908203 2217.2900390625 -440.12599182128906 2272.56005859375C-417.00999450683594 2743.0 -276.0769805908203 3222.669921875 -30.316085815429688 3667.550048828125C-15.40728759765625 3694.4599609375 -15.615081787109375 3694.199951171875 -11.615081787109375 3695.179931640625Z" fill="black" /></g></svg>