<?xml version="1.0" encoding="utf-8" ?>
<svg baseProfile="tiny" height="100%" version="1.2" width="100%" xmlns="http://www.w3.org/2000/svg" xmlns:ev="http://www.w3.org/2001/xml-events" xmlns:xlink="http://www.w3.org/1999/xlink"><defs /><g transform="translate(0, 1000) scale(1, -1)"><path d="M-19.00799560546875 730.281005859375C-18.507797241210938 730.3560180664062 -18.01409912109375 730.3930053710938 -17.529495239257812 730.3930053710938C-12.45269775390625 730.3930053710938 -8.380340576171875 726.39599609375 -8.380340576171875 721.4089965820312C-8.380340576171875 720.9710083007812 -8.4117431640625 720.5260009765625 -8.47662353515625 720.0750122070312C-8.720596313476562 718.3469848632812 -8.740921020507812 718.3060302734375 -11.648193359375 713.0C-43.465301513671875 654.7999877929688 -59.384796142578125 587.9559936523438 -59.384796142578125 512.6160278320312C-59.384796142578125 471.260986328125 -54.58799743652344 427.3450012207031 -44.99090576171875 380.8940124511719C-36.533294677734375 339.9280090332031 -26.9573974609375 305.6700134277344 -10.652008056640625 258.09600830078125C-3.5532989501953125 237.343994140625 0.0 215.3780059814453 0.0 193.3560028076172C0.0 171.79600524902344 -3.4058990478515625 150.18299865722656 -10.22509765625 129.60400390625C-25.737503051757812 82.76199340820312 -57.087799072265625 41.57159423828125 -107.2030029296875 2.2109832763671875C-109.21600341796875 0.6455078125 -110.86300659179688 -0.73699951171875 -110.86300659179688 -0.8183135986328125C-110.86300659179688 -0.8996429443359375 -109.21600341796875 -2.282135009765625 -107.2030029296875 -3.847625732421875C-57.087799072265625 -43.20819091796875 -25.737503051757812 -84.39859008789062 -10.22509765625 -131.24099731445312C-3.408355712890625 -151.81199645996094 -0.0024566650390625 -173.4219970703125 -0.0024566650390625 -194.9770050048828C-0.0024566650390625 -217.00900268554688 -3.5608367919921875 -238.98399353027344 -10.672393798828125 -259.73199462890625C-28.868499755859375 -312.9179992675781 -39.887908935546875 -353.8240051269531 -48.243896484375 -399.406005859375C-55.583099365234375 -439.4649963378906 -59.25630187988281 -477.4859924316406 -59.25630187988281 -513.5289916992188C-59.25630187988281 -588.4110107421875 -43.4010009765625 -654.7470092773438 -11.627899169921875 -713.0499877929688C-8.740921020507812 -718.3159790039062 -8.720596313476562 -718.3569946289062 -8.47662353515625 -720.0650024414062C-8.410293579101562 -720.5239868164062 -8.378326416015625 -720.9749755859375 -8.378326416015625 -721.4180297851562C-8.378326416015625 -726.5180053710938 -12.627304077148438 -730.3930053710938 -17.464004516601562 -730.3930053710938C-18.76629638671875 -730.3930053710938 -20.111297607421875 -730.1119995117188 -21.427398681640625 -729.4979858398438C-23.745101928710938 -728.4210205078125 -24.477005004882812 -727.4450073242188 -28.156906127929688 -720.8369750976562C-93.25299072265625 -603.2780151367188 -125.41000366210938 -494.5889892578125 -125.41000366210938 -391.2980041503906C-125.41000366210938 -367.2590026855469 -123.66900634765625 -343.5119934082031 -120.19500732421875 -320.01300048828125C-115.6199951171875 -289.0090026855469 -109.78500366210938 -265.1000061035156 -98.66448974609375 -231.87899780273438C-91.77230834960938 -211.28399658203125 -89.1090087890625 -202.01300048828125 -85.77468872070312 -186.947998046875C-82.39981079101562 -171.63900756835938 -80.40730285644531 -158.44400024414062 -79.106201171875 -142.42300415039062C-78.85929870605469 -139.31500244140625 -78.72390747070312 -131.90899658203125 -78.72390747070312 -125.06900024414062C-78.72390747070312 -119.5159912109375 -78.81320190429688 -114.33499145507812 -79.00450134277344 -112.1300048828125C-82.8876953125 -66.50750732421875 -99.68099975585938 -32.5751953125 -129.60800170898438 -9.824905395507812C-133.91799926757812 -6.5516357421875 -134.9550018310547 -5.16912841796875 -135.3820037841797 -2.1398162841796875C-135.46800231933594 -1.5336151123046875 -135.51400756835938 -0.9665374755859375 -135.51400756835938 -0.42822265625C-135.51400756835938 2.7344970703125 -133.9340057373047 4.904632568359375 -129.60800170898438 8.188262939453125C-99.68099975585938 30.9385986328125 -82.8876953125 64.87078857421875 -79.00450134277344 110.49299621582031C-78.81320190429688 112.697998046875 -78.72390747070312 117.87899780273438 -78.72390747070312 123.43299865722656C-78.72390747070312 130.2729949951172 -78.85929870605469 137.67799377441406 -79.106201171875 140.78599548339844C-80.40730285644531 156.8070068359375 -82.39981079101562 170.0019989013672 -85.77468872070312 185.31100463867188C-89.1090087890625 200.37600708007812 -91.77230834960938 209.64700317382812 -98.66448974609375 230.24200439453125C-103.40200805664062 244.39300537109375 -105.5159912109375 251.2239990234375 -107.93499755859375 260.0270080566406C-119.65899658203125 302.8380126953125 -125.5469970703125 346.2669982910156 -125.5469970703125 390.614013671875C-125.5469970703125 494.3819885253906 -93.30770874023438 603.1740112304688 -28.156906127929688 720.8270263671875C-23.968795776367188 728.3699951171875 -22.647308349609375 729.7319946289062 -19.00799560546875 730.281005859375Z" fill="black" /></g></svg>