<?xml version="1.0" encoding="utf-8" ?>
<svg baseProfile="tiny" height="100%" version="1.2" width="100%" xmlns="http://www.w3.org/2000/svg" xmlns:ev="http://www.w3.org/2001/xml-events" xmlns:xlink="http://www.w3.org/1999/xlink"><defs /><g transform="translate(0, 1000) scale(1, -1)"><path d="M-11.424606323242188 2513.1201171875C-10.575408935546875 2513.300048828125 -9.74920654296875 2513.3798828125 -8.955062866210938 2513.3798828125C-3.8034210205078125 2513.3798828125 -0.00018310546875 2509.760009765625 -0.00018310546875 2504.3798828125C-0.00018310546875 2504.35009765625 -0.000274658203125 2504.330078125 -0.000457763671875 2504.300048828125L-0.0438995361328125 2501.0400390625L-3.95330810546875 2494.090087890625C-26.67132568359375 2453.780029296875 -52.3431396484375 2401.35009765625 -72.84573364257812 2353.530029296875C-161.25503540039062 2147.14990234375 -205.6620330810547 1917.219970703125 -205.6620330810547 1672.030029296875C-205.6620330810547 1491.0 -181.4540252685547 1301.6400146484375 -132.8770294189453 1107.2900390625C-113.41702270507812 1029.4100341796875 -95.99813842773438 971.6380004882812 -60.07502746582031 865.8670043945312C-35.733428955078125 794.1409912109375 -23.432525634765625 717.2100219726562 -23.432525634765625 640.0180053710938C-23.432525634765625 588.1380004882812 -28.98883056640625 536.1400146484375 -40.18052673339844 485.5249938964844C-80.75143432617188 302.0 -193.47303771972656 132.94000244140625 -360.0570373535156 5.7969512939453125L-370.04803466796875 -1.8915557861328125L-371.3510437011719 -2.9340667724609375L-370.04803466796875 -3.9765777587890625L-360.0570373535156 -11.665115356445312C-193.47303771972656 -138.80801391601562 -80.75143432617188 -307.86802673339844 -40.18052673339844 -491.3930206298828C-28.994537353515625 -542.0349884033203 -23.438232421875 -594.0160064697266 -23.438232421875 -645.8770294189453C-23.438232421875 -723.1070098876953 -35.76002502441406 -800.0720367431641 -60.16192626953125 -871.9520416259766C-80.794921875 -932.7650299072266 -90.43814086914062 -962.4329986572266 -100.90702819824219 -997.2270050048828C-170.44302368164062 -1229.1100006103516 -204.97402954101562 -1457.020034790039 -204.97402954101562 -1673.540054321289C-204.97402954101562 -1975.030044555664 -138.0160369873047 -2254.429946899414 -5.3867645263671875 -2491.709976196289L-0.0438995361328125 -2501.260025024414L-0.000457763671875 -2504.520034790039C-0.00018310546875 -2504.560073852539 -3.0517578125e-05 -2504.600112915039 -3.0517578125e-05 -2504.639907836914C-3.0517578125e-05 -2510.250015258789 -3.1667633056640625 -2513.379898071289 -8.861785888671875 -2513.379898071289H-9.498458862304688C-14.632110595703125 -2513.379898071289 -14.751617431640625 -2513.020034790039 -25.237808227539062 -2494.100112915039C-217.30001831054688 -2147.090103149414 -315.80101013183594 -1783.280044555664 -315.80101013183594 -1431.030044555664C-315.80101013183594 -1301.449966430664 -302.47300720214844 -1173.439956665039 -275.5700225830078 -1048.4000396728516C-258.89002990722656 -970.9900054931641 -242.94801330566406 -914.6510162353516 -210.76101684570312 -819.5659942626953C-181.35401916503906 -732.6900177001953 -165.41201782226562 -650.9829864501953 -159.9390106201172 -558.9390411376953C-159.55300903320312 -552.6870269775391 -159.36801147460938 -535.3990020751953 -159.36801147460938 -518.0150299072266C-159.36801147460938 -500.1280059814453 -159.5640106201172 -482.14002990722656 -159.9390106201172 -475.9720001220703C-162.84901428222656 -428.97300720214844 -167.71401977539062 -392.83201599121094 -176.35801696777344 -353.6950225830078C-207.67701721191406 -212.0440216064453 -281.6950225830078 -92.85041809082031 -386.98802185058594 -14.532012939453125C-395.41502380371094 -8.276931762695312 -396.06700134277344 -7.408172607421875 -396.06700134277344 -2.93408203125C-396.06700134277344 1.540008544921875 -395.41502380371094 2.40875244140625 -386.98802185058594 8.663818359375C-281.6950225830078 86.98226928710938 -207.67701721191406 206.17596435546875 -176.35801696777344 347.82696533203125C-167.71401977539062 386.9639587402344 -162.84901428222656 423.1039733886719 -159.9390106201172 470.1039733886719C-159.5640106201172 476.27197265625 -159.36801147460938 494.2599792480469 -159.36801147460938 512.1469421386719C-159.36801147460938 529.5309753417969 -159.55300903320312 546.8189392089844 -159.9390106201172 553.0709533691406C-165.41201782226562 645.1149597167969 -181.35401916503906 726.8219909667969 -210.76101684570312 813.6979675292969C-229.135009765625 868.0819396972656 -235.86801147460938 889.0189514160156 -244.46900939941406 918.9479675292969C-292.6540069580078 1086.1199645996094 -316.3260040283203 1254.1899108886719 -316.3260040283203 1428.8100280761719C-316.3260040283203 1433.6399841308594 -316.3080291748047 1438.4799499511719 -316.2720184326172 1443.3299255371094C-316.01100158691406 1476.5999450683594 -315.75001525878906 1486.5099792480469 -314.44700622558594 1515.6499938964844C-299.63502502441406 1842.8299255371094 -200.6400146484375 2177.040008544922 -24.15191650390625 2495.830047607422C-15.420913696289062 2511.600067138672 -14.812820434570312 2512.419891357422 -11.42462158203125 2513.120086669922Z" fill="black" /></g></svg>