<?xml version="1.0" encoding="utf-8" ?>
<svg baseProfile="tiny" height="100%" version="1.2" width="100%" xmlns="http://www.w3.org/2000/svg" xmlns:ev="http://www.w3.org/2001/xml-events" xmlns:xlink="http://www.w3.org/1999/xlink"><defs /><g transform="translate(0, 1000) scale(1, -1)"><path d="M-13.990097045898438 313.98199462890625C-13.438186645507812 314.0820007324219 -12.891387939453125 314.1300048828125 -12.354080200195312 314.1300048828125C-7.4673919677734375 314.1300048828125 -3.3687591552734375 310.1369934082031 -3.3687591552734375 305.0639953613281C-3.3687591552734375 304.9159851074219 -3.3722381591796875 304.7669982910156 -3.3792724609375 304.6180114746094C-3.46527099609375 302.81201171875 -3.706024169921875 302.10699462890625 -5.2451934814453125 299.27801513671875C-17.611785888671875 276.5509948730469 -23.801376342773438 250.85800170898438 -23.801376342773438 221.40499877929688C-23.801376342773438 189.88999938964844 -16.715377807617188 154.07000732421875 -2.5279998779296875 112.97000122070312C-1.5047607421875 110.01199340820312 -0.808258056640625 107.72500610351562 -0.26654052734375 105.53199768066406L1.52587890625e-05 104.48300170898438V82.86579895019531V61.24870300292969L-0.386932373046875 59.76969909667969C-5.898712158203125 38.53948974609375 -19.596405029296875 19.132278442382812 -41.84989929199219 0.997589111328125C-42.718292236328125 0.2924957275390625 -43.42340087890625 -0.309417724609375 -43.42340087890625 -0.34381103515625C-43.42340087890625 -0.378204345703125 -42.718292236328125 -0.9801177978515625 -41.85850524902344 -1.685211181640625C-19.596405029296875 -19.819915771484375 -5.898712158203125 -39.22711181640625 -0.3869476318359375 -60.45732116699219L0.0 -61.93632507324219V-83.55342102050781V-105.1710205078125L-0.3095550537109375 -106.38302612304688C-0.80828857421875 -108.38603210449219 -1.496185302734375 -110.68203735351562 -2.19268798828125 -112.68603515625C-10.051910400390625 -135.2400360107422 -15.718414306640625 -156.2640380859375 -19.390121459960938 -176.44503784179688C-22.295318603515625 -192.4100341796875 -23.751708984375 -207.46803283691406 -23.751708984375 -221.68603515625C-23.751708984375 -250.89703369140625 -17.604721069335938 -276.5660400390625 -5.2452239990234375 -299.2780456542969C-3.7060546875 -302.1070251464844 -3.465301513671875 -302.8120422363281 -3.379302978515625 -304.6170349121094C-3.3718719482421875 -304.7750244140625 -3.3682098388671875 -304.9310302734375 -3.3682098388671875 -305.0860290527344C-3.3682098388671875 -310.4740295410156 -7.8118896484375 -314.1300354003906 -12.468017578125 -314.1300354003906C-14.640213012695312 -314.1300354003906 -16.858612060546875 -313.33502197265625 -18.693618774414062 -311.54803466796875C-19.691009521484375 -310.5760192871094 -19.983413696289062 -310.10302734375 -22.717819213867188 -305.1250305175781C-51.65321350097656 -252.3770294189453 -65.37202453613281 -206.72402954101562 -65.37202453613281 -162.69003295898438C-65.37202453613281 -159.0530242919922 -65.27851867675781 -155.42703247070312 -65.09220886230469 -151.81002807617188C-64.08610534667969 -132.2560272216797 -60.86161804199219 -115.65203857421875 -54.214813232421875 -95.74642944335938C-50.21641540527344 -83.77703857421875 -48.54832458496094 -77.61172485351562 -46.914520263671875 -68.78092956542969C-46.166412353515625 -64.75672912597656 -45.83111572265625 -62.31463623046875 -45.44410705566406 -58.29902648925781C-45.16441345214844 -55.363037109375 -45.02500915527344 -52.517730712890625 -45.02500915527344 -49.76593017578125C-45.02500915527344 -31.370223999023438 -51.25331115722656 -17.151626586914062 -63.41542053222656 -7.9364776611328125C-66.18852233886719 -5.8383941650390625 -67.57501220703125 -3.0911102294921875 -67.57501220703125 -0.3438262939453125C-67.57501220703125 2.4034576416015625 -66.18852233886719 5.1507415771484375 -63.41542053222656 7.2488250732421875C-58.926910400390625 10.65386962890625 -55.220916748046875 14.764068603515625 -52.39192199707031 19.476165771484375C-47.467010498046875 27.678573608398438 -45.017120361328125 37.46037292480469 -45.017120361328125 49.02946472167969C-45.017120361328125 54.91276550292969 -45.65071105957031 61.2581787109375 -46.914520263671875 68.09326171875C-48.53971862792969 76.89826965332031 -50.233612060546875 83.14096069335938 -54.17181396484375 94.92977905273438C-62.06541442871094 118.532958984375 -65.38450622558594 138.4129638671875 -65.39311218261719 162.17196655273438C-65.39311218261719 168.35397338867188 -65.36732482910156 169.33396911621094 -65.04061889648438 175.06997680664062C-62.822113037109375 214.76097106933594 -48.96961975097656 257.3079833984375 -22.717819213867188 305.1249694824219C-20.731521606445312 308.7449645996094 -19.983413696289062 310.03497314453125 -19.56201171875 310.5849609375C-18.203414916992188 312.34796142578125 -16.165618896484375 313.5859680175781 -13.9901123046875 313.9819641113281Z" fill="black" /></g></svg>