<?xml version="1.0" encoding="utf-8" ?>
<svg baseProfile="tiny" height="100%" version="1.2" width="100%" xmlns="http://www.w3.org/2000/svg" xmlns:ev="http://www.w3.org/2001/xml-events" xmlns:xlink="http://www.w3.org/1999/xlink"><defs /><g transform="translate(0, 1000) scale(1, -1)"><path d="M-12.065994262695312 2200.2900390625C-10.989486694335938 2200.6201171875 -9.930831909179688 2200.77001953125 -8.914932250976562 2200.77001953125C-3.94580078125 2200.77001953125 1.52587890625e-05 2197.06005859375 1.52587890625e-05 2191.719970703125V2188.590087890625L-3.5827178955078125 2182.2099609375C-119.44898986816406 1974.6099853515625 -177.62098693847656 1732.97998046875 -177.62098693847656 1471.1199951171875C-177.62098693847656 1249.93994140625 -136.12197875976562 1014.3300170898438 -52.83497619628906 772.593017578125C-28.483291625976562 701.8989868164062 -16.310684204101562 631.916015625 -16.310684204101562 562.0159912109375C-16.310684204101562 503.89801025390625 -24.7255859375 445.8370056152344 -41.55137634277344 387.4700012207031C-83.26759338378906 242.67799377441406 -183.4189910888672 102.91000366210938 -316.80397033691406 3.335235595703125C-320.92198181152344 0.2878570556640625 -324.2579803466797 -2.3065338134765625 -324.2579803466797 -2.430084228515625C-324.2579803466797 -2.553619384765625 -320.92198181152344 -5.14801025390625 -316.80397033691406 -8.195388793945312C-183.4189910888672 -107.77099609375 -83.26759338378906 -247.53799438476562 -41.55137634277344 -392.3299865722656C-24.7255859375 -450.6969909667969 -16.310684204101562 -508.75799560546875 -16.310684204101562 -566.8759765625C-16.310684204101562 -636.7769775390625 -28.483291625976562 -706.7589721679688 -52.83497619628906 -777.4530029296875C-135.81698608398438 -1018.3300170898438 -177.17098999023438 -1252.8199462890625 -177.17098999023438 -1473.010009765625C-177.17098999023438 -1733.8399658203125 -119.14398193359375 -1974.5999755859375 -3.541534423828125 -2182.1298828125L1.52587890625e-05 -2188.510009765625V-2191.639892578125C1.52587890625e-05 -2197.159912109375 -4.293548583984375 -2200.77001953125 -8.833587646484375 -2200.77001953125C-11.03668212890625 -2200.77001953125 -13.29779052734375 -2199.919921875 -15.15447998046875 -2198.030029296875C-19.84918212890625 -2193.2900390625 -63.04777526855469 -2111.300048828125 -84.58538818359375 -2066.2099609375C-215.87498474121094 -1791.6600341796875 -281.9919891357422 -1515.81005859375 -281.9919891357422 -1247.4599609375C-281.9919891357422 -1097.47998046875 -261.33799743652344 -949.8350219726562 -219.86398315429688 -806.073974609375C-212.20498657226562 -779.552978515625 -206.60398864746094 -762.010009765625 -191.20298767089844 -716.5050048828125C-164.47598266601562 -637.47900390625 -150.59799194335938 -567.3480224609375 -145.4919891357422 -485.0690002441406C-145.12098693847656 -479.26300048828125 -144.9359893798828 -463.0480041503906 -144.9359893798828 -446.9200134277344C-144.9359893798828 -430.7929992675781 -145.12098693847656 -414.75299072265625 -145.4919891357422 -409.2959899902344C-156.9399871826172 -236.54299926757812 -222.74697875976562 -102.4169921875 -339.37098693847656 -14.290206909179688C-348.26597595214844 -7.5776824951171875 -348.8009796142578 -6.8776092529296875 -348.8009796142578 -2.430084228515625C-348.8009796142578 2.0174560546875 -348.26597595214844 2.7175140380859375 -339.37098693847656 9.42999267578125C-222.74697875976562 97.55690002441406 -156.9399871826172 231.68299865722656 -145.4919891357422 404.4360046386719C-145.12098693847656 409.89300537109375 -144.9359893798828 425.9330139160156 -144.9359893798828 442.05999755859375C-144.9359893798828 458.18798828125 -145.12098693847656 474.40301513671875 -145.4919891357422 480.2090148925781C-151.0509796142578 569.7769775390625 -164.68199157714844 634.6370239257812 -198.69699096679688 733.8829956054688C-246.5909881591797 873.6500244140625 -274.18199157714844 1022.3099975585938 -281.05897521972656 1177.81005859375C-281.8319854736328 1195.47998046875 -282.24598693847656 1224.969970703125 -282.24598693847656 1251.9300537109375C-282.24598693847656 1272.3399658203125 -282.0089874267578 1291.300048828125 -281.51197814941406 1302.5899658203125C-280.1529998779297 1333.800048828125 -279.0819854736328 1352.6700439453125 -277.51698303222656 1372.800048828125C-257.37998962402344 1637.969970703125 -172.17698669433594 1912.8900146484375 -29.361892700195312 2173.77001953125C-16.14288330078125 2197.89990234375 -15.1956787109375 2199.340087890625 -12.06597900390625 2200.2900390625Z" fill="black" /></g></svg>