<?xml version="1.0" encoding="utf-8" ?>
<svg baseProfile="tiny" height="100%" version="1.2" width="100%" xmlns="http://www.w3.org/2000/svg" xmlns:ev="http://www.w3.org/2001/xml-events" xmlns:xlink="http://www.w3.org/1999/xlink"><defs /><g transform="translate(0, 1000) scale(1, -1)"><path d="M-13.905593872070312 5615.10986328125C-12.422088623046875 5615.89990234375 -10.813385009765625 5616.27978515625 -9.234649658203125 5616.27978515625C-5.927459716796875 5616.27978515625 -2.751220703125 5614.6201171875 -1.129791259765625 5611.64990234375C-0.4156341552734375 5610.35986328125 -0.0364532470703125 5609.10009765625 -0.0364532470703125 5607.669921875C-0.0364532470703125 5604.97021484375 -1.3885650634765625 5601.669921875 -4.390289306640625 5596.41015625C-98.21278381347656 5431.72021484375 -192.10198974609375 5223.97998046875 -262.7679901123047 5024.490234375C-415.43299865722656 4593.52001953125 -491.59498596191406 4125.5498046875 -491.59498596191406 3640.659912109375C-491.59498596191406 3103.7099609375 -398.1969757080078 2546.02001953125 -211.86398315429688 1994.8900146484375L-186.31298828125 1919.3599853515625C-129.71800231933594 1751.9200439453125 -100.94200134277344 1575.449951171875 -100.94200134277344 1397.18994140625C-100.94200134277344 1367.1199951171875 -101.76100158691406 1337.0 -103.40299987792969 1306.8599853515625C-130.88400268554688 805.0059814453125 -392.2560119628906 331.43499755859375 -819.9140014648438 8.84576416015625C-830.5609741210938 0.7943267822265625 -839.343994140625 -6.0593719482421875 -839.343994140625 -6.325531005859375C-839.343994140625 -6.591705322265625 -830.5609741210938 -13.445404052734375 -819.9140014648438 -21.496795654296875C-520.1480102539062 -247.6020050048828 -298.7669982910156 -550.7620391845703 -185.58099365234375 -889.9870147705078C-129.12899780273438 -1059.280044555664 -100.89900207519531 -1235.199966430664 -100.89900207519531 -1410.8199615478516C-100.89900207519531 -1587.530044555664 -129.47799682617188 -1763.949966430664 -186.64500427246094 -1933.010025024414L-211.53199768066406 -2006.540054321289C-396.87901306152344 -2554.280044555664 -490.33900451660156 -3111.189956665039 -490.33900451660156 -3647.570083618164C-490.33900451660156 -4017.780044555664 -445.81700134277344 -4378.200210571289 -356.2580108642578 -4719.080093383789C-274.74501037597656 -5029.220230102539 -156.76901245117188 -5324.330093383789 -8.050048828125 -5589.759780883789C-2.1771087646484375 -5600.259780883789 -1.52587890625e-05 -5604.709976196289 -1.52587890625e-05 -5607.859878540039C-1.52587890625e-05 -5609.240249633789 -0.4194183349609375 -5610.370132446289 -1.12982177734375 -5611.649917602539C-2.734375 -5614.600112915039 -6.1195220947265625 -5616.279800415039 -9.516921997070312 -5616.279800415039C-11.332412719726562 -5616.279800415039 -13.151412963867188 -5615.799819946289 -14.704116821289062 -5614.779800415039C-17.03302001953125 -5613.250015258789 -47.24261474609375 -5558.819839477539 -78.78291320800781 -5499.270034790039C-356.99000549316406 -4974.459976196289 -540.6420440673828 -4401.740249633789 -610.1110382080078 -3842.399917602539C-611.9080352783203 -3827.560073852539 -613.9040069580078 -3812.120132446289 -614.4359893798828 -3808.129898071289C-627.4780426025391 -3712.310073852539 -639.3889923095703 -3550.020034790039 -644.1129913330078 -3403.229995727539C-645.0490264892578 -3374.179946899414 -645.4970245361328 -3340.240005493164 -645.4970245361328 -3303.939956665039C-645.4970245361328 -3224.030044555664 -643.3239898681641 -3132.709976196289 -639.3889923095703 -3056.889907836914C-618.9610137939453 -2667.490005493164 -542.2390289306641 -2270.639907836914 -417.4090118408203 -1908.729995727539C-375.48802185058594 -1787.1600494384766 -356.5910186767578 -1721.3499908447266 -336.3620147705078 -1626.5899810791016C-307.20701599121094 -1489.8800201416016 -293.0120086669922 -1354.469985961914 -293.0120086669922 -1222.740005493164C-293.0120086669922 -727.6320343017578 -493.5440216064453 -284.55101013183594 -853.9829864501953 -19.766830444335938C-862.0009918212891 -13.8779296875 -866.0100250244141 -10.101730346679688 -866.0100250244141 -6.3255767822265625C-866.0100250244141 -2.5493927001953125 -862.0009918212891 1.226806640625 -853.9829864501953 7.11566162109375C-493.5440216064453 271.89996337890625 -293.0120086669922 714.9809875488281 -293.0120086669922 1210.0899353027344C-293.0120086669922 1341.8199157714844 -307.20701599121094 1477.2299499511719 -336.3620147705078 1613.9399108886719C-356.6570281982422 1709.1600036621094 -375.08900451660156 1773.1700134277344 -418.0080108642578 1897.7399597167969C-483.6170196533203 2088.379852294922 -539.3120269775391 2301.840057373047 -576.5739898681641 2505.590057373047C-623.4470367431641 2761.979949951172 -646.7310333251953 3021.449920654297 -646.7310333251953 3281.919891357422C-646.7310333251953 3977.300018310547 -480.7840118408203 4679.850067138672 -154.7060089111328 5350.209930419922C-106.53001403808594 5449.149871826172 -20.093917846679688 5611.839813232422 -13.905609130859375 5615.109832763672Z" fill="black" /></g></svg>