<?xml version="1.0" encoding="utf-8" ?>
<svg baseProfile="tiny" height="100%" version="1.2" width="100%" xmlns="http://www.w3.org/2000/svg" xmlns:ev="http://www.w3.org/2001/xml-events" xmlns:xlink="http://www.w3.org/1999/xlink"><defs /><g transform="translate(0, 1000) scale(1, -1)"><path d="M-12.100601196289062 4136.75C-11.0316162109375 4137.08984375 -9.97808837890625 4137.240234375 -8.965408325195312 4137.240234375C-3.9897918701171875 4137.240234375 -1.52587890625e-05 4133.47021484375 -1.52587890625e-05 4128.14013671875C-1.52587890625e-05 4128.10986328125 -0.0001373291015625 4128.080078125 -0.000396728515625 4128.0498046875C-0.0003814697265625 4125.2001953125 -0.4384002685546875 4124.22021484375 -8.541732788085938 4109.7099609375C-149.14500427246094 3856.590087890625 -249.23199462890625 3573.409912109375 -303.7659912109375 3274.18994140625C-337.4840087890625 3089.159912109375 -354.2720031738281 2898.7900390625 -354.2720031738281 2704.610107421875C-354.2720031738281 2295.280029296875 -279.6789855957031 1868.9599609375 -131.843994140625 1439.8299560546875C-126.31399536132812 1423.8399658203125 -119.90798950195312 1404.72998046875 -117.60800170898438 1397.3900146484375C-80.49009704589844 1278.8299560546875 -62.3341064453125 1158.0400390625 -62.3341064453125 1038.0799560546875C-62.3341064453125 711.7930297851562 -196.6750030517578 391.6889953613281 -449.13299560546875 139.3509979248047C-499.66900634765625 88.86990356445312 -561.7579956054688 35.32220458984375 -611.3629760742188 -0.54046630859375C-614.5390014648438 -2.840057373046875 -616.1270141601562 -3.74346923828125 -616.1270141601562 -4.646881103515625C-616.1270141601562 -5.55029296875 -614.5390014648438 -6.453704833984375 -611.3629760742188 -8.7532958984375C-537.0650024414062 -62.410491943359375 -451.1579895019531 -141.47300720214844 -384.9630126953125 -217.0850067138672C-173.28399658203125 -458.7309875488281 -62.31269836425781 -750.77197265625 -62.31269836425781 -1047.27001953125C-62.31269836425781 -1167.3599853515625 -80.51719665527344 -1288.1800537109375 -117.60800170898438 -1406.68994140625C-119.90798950195312 -1414.02001953125 -126.31399536132812 -1433.1300048828125 -131.843994140625 -1449.1199951171875C-229.52200317382812 -1732.18994140625 -293.47198486328125 -2005.780029296875 -327.0350036621094 -2284.25C-344.47100830078125 -2428.81005859375 -353.1400146484375 -2571.199951171875 -353.1400146484375 -2710.8798828125C-353.1400146484375 -3223.860107421875 -236.20399475097656 -3700.139892578125 -7.17291259765625 -4112.16015625C-0.4384002685546875 -4124.259765625 -0.0003814697265625 -4125.18994140625 -0.0003814697265625 -4128.02978515625C-0.0002593994140625 -4128.06005859375 -0.0001983642578125 -4128.080078125 -0.0001983642578125 -4128.10009765625C-0.0001983642578125 -4133.919921875 -4.126953125 -4137.240234375 -8.627593994140625 -4137.240234375C-11.837493896484375 -4137.240234375 -15.237594604492188 -4135.5498046875 -17.466293334960938 -4131.8701171875C-31.647201538085938 -4108.2099609375 -74.18960571289062 -4028.219970703125 -102.33200073242188 -3972.260009765625C-359.18701171875 -3461.1201171875 -489.2909851074219 -2923.699951171875 -489.2909851074219 -2397.93994140625C-489.2909851074219 -2060.52001953125 -435.7019958496094 -1727.9100341796875 -327.63800048828125 -1410.1400146484375C-308.8580017089844 -1354.8900146484375 -302.8900146484375 -1337.0400390625 -298.3450012207031 -1322.260009765625C-252.71200561523438 -1174.25 -230.59500122070312 -1026.699951171875 -230.59500122070312 -885.1649780273438C-230.59500122070312 -529.47900390625 -370.27398681640625 -211.77001953125 -627.406005859375 -20.087020874023438C-633.0999755859375 -15.816314697265625 -638.4660034179688 -11.709915161132812 -639.2869873046875 -10.94342041015625C-640.9080200195312 -9.41754150390625 -641.677978515625 -7.0819091796875 -641.677978515625 -4.71405029296875C-641.677978515625 -1.644134521484375 -640.3839721679688 1.479949951171875 -637.9730224609375 2.963653564453125C-633.4290161132812 5.756011962890625 -606.052001953125 26.945083618164062 -592.0910034179688 38.49778747558594C-356.52301025390625 233.74598693847656 -230.4290008544922 538.9329681396484 -230.4290008544922 876.3589935302734C-230.4290008544922 1030.5899505615234 -256.77301025390625 1191.560043334961 -311.0480041503906 1351.8399505615234C-344.6650085449219 1451.209945678711 -354.0830078125 1480.6700286865234 -370.343994140625 1537.449935913086C-435.93701171875 1766.6399993896484 -474.5920104980469 1999.780014038086 -486.364013671875 2237.999984741211C-489.4849853515625 2300.090072631836 -489.9779968261719 2321.989974975586 -489.9779968261719 2395.419906616211C-489.9779968261719 2466.979965209961 -489.4849853515625 2489.749984741211 -486.6929931640625 2548.169906616211C-460.90399169921875 3084.090072631836 -301.4110107421875 3624.159896850586 -20.58721923828125 4126.410140991211C-16.371322631835938 4133.959945678711 -14.728713989257812 4135.990219116211 -12.100616455078125 4136.749984741211Z" fill="black" /></g></svg>