<?xml version="1.0" encoding="utf-8" ?>
<svg baseProfile="tiny" height="100%" version="1.2" width="100%" xmlns="http://www.w3.org/2000/svg" xmlns:ev="http://www.w3.org/2001/xml-events" xmlns:xlink="http://www.w3.org/1999/xlink"><defs /><g transform="translate(0, 1000) scale(1, -1)"><path d="M-15.302597045898438 11585.2998046875C-13.657485961914062 11586.7001953125 -11.590286254882812 11587.400390625 -9.492996215820312 11587.400390625C-7.0733642578125 11587.400390625 -4.6136474609375 11586.5 -2.71575927734375 11584.599609375C-1.0316009521484375 11582.900390625 1.52587890625e-05 11581.599609375 1.52587890625e-05 11579.5C1.52587890625e-05 11575.400390625 -3.6413116455078125 11568.599609375 -13.437881469726562 11551.2001953125C-595.6949615478516 10510.099609375 -943.9309844970703 9314.900390625 -1032.5999298095703 8053.240234375C-1047.8699493408203 7835.830078125 -1055.4599151611328 7616.740234375 -1055.4599151611328 7396.5C-1055.4599151611328 6274.64990234375 -858.3409576416016 5123.2900390625 -474.11595153808594 4015.199951171875C-453.5109405517578 3955.81005859375 -437.5669403076172 3908.35009765625 -427.9639434814453 3878.139892578125C-319.89195251464844 3535.590087890625 -267.10194396972656 3185.429931640625 -267.10194396972656 2838.159912109375C-267.10194396972656 1954.3699951171875 -608.9979400634766 1089.260009765625 -1251.6999053955078 415.83099365234375C-1395.8399200439453 264.7900085449219 -1593.9699249267578 91.27780151367188 -1739.7899932861328 -11.374801635742188L-1742.1199493408203 -13.053009033203125L-1739.7899932861328 -14.63800048828125C-1576.8199005126953 -129.50399780273438 -1365.2599639892578 -318.0270080566406 -1207.4099884033203 -489.0220031738281C-600.6519317626953 -1146.3299865722656 -267.1819610595703 -1992.2400207519531 -267.1819610595703 -2863.370147705078C-267.1819610595703 -2919.340118408203 -268.55796813964844 -2975.419952392578 -271.3279571533203 -3031.560089111328C-288.4829559326172 -3379.139923095703 -349.27296447753906 -3681.879913330078 -474.11595153808594 -4041.300079345703C-822.8169708251953 -5045.549835205078 -1018.8899688720703 -6098.640167236328 -1048.9099884033203 -7127.870147705078C-1051.7099151611328 -7225.580108642578 -1052.1800079345703 -7261.850128173828 -1052.1800079345703 -7405.250030517578C-1052.1800079345703 -7579.970245361328 -1050.7799835205078 -7652.980010986328 -1044.7199249267578 -7800.569854736328C-988.7769317626953 -9153.610382080078 -635.1339263916016 -10439.599639892578 -13.437881469726562 -11551.200225830078C-3.6413116455078125 -11568.599639892578 1.52587890625e-05 -11575.400421142578 1.52587890625e-05 -11579.500030517578C1.52587890625e-05 -11581.599639892578 -1.0316009521484375 -11582.900421142578 -2.71575927734375 -11584.599639892578C-4.6136474609375 -11586.500030517578 -7.0733642578125 -11587.400421142578 -9.492996215820312 -11587.400421142578C-11.590286254882812 -11587.400421142578 -13.657485961914062 -11586.700225830078 -15.302581787109375 -11585.299835205078C-19.218490600585938 -11581.700225830078 -81.87287902832031 -11467.900421142578 -133.05899047851562 -11371.500030517578C-674.1999816894531 -10352.700225830078 -1033.2499694824219 -9240.780303955078 -1182.7099304199219 -8121.490264892578C-1198.7399597167969 -8001.310089111328 -1210.9599304199219 -7893.250030517578 -1226.5299987792969 -7734.839874267578C-1239.6700134277344 -7601.879913330078 -1253.1899108886719 -7390.700225830078 -1259.1600036621094 -7226.700225830078C-1263.8199157714844 -7097.660186767578 -1264.7499694824219 -7043.500030517578 -1264.7499694824219 -6892.919952392578C-1264.7499694824219 -6742.439971923828 -1263.7299499511719 -6685.379913330078 -1259.1600036621094 -6559.600128173828C-1226.2499694824219 -5665.100128173828 -1061.0299987792969 -4779.919952392578 -770.4189758300781 -3941.080108642578C-714.1979675292969 -3778.850128173828 -681.9379577636719 -3672.740020751953 -650.3309631347656 -3545.760040283203C-582.2689514160156 -3272.300079345703 -545.5339660644531 -3014.129913330078 -534.1599426269531 -2728.540069580078C-532.4999694824219 -2686.780059814453 -531.6799621582031 -2644.320098876953 -531.6799621582031 -2601.360137939453C-531.6799621582031 -2354.679962158203 -558.7389831542969 -2091.770050048828 -609.4009704589844 -1852.5899963378906C-769.6729431152344 -1096.3600158691406 -1178.3299255371094 -445.5740051269531 -1755.9200134277344 -26.6654052734375C-1764.2199401855469 -20.651702880859375 -1768.3699645996094 -16.852401733398438 -1768.3699645996094 -13.052993774414062C-1768.3699645996094 -9.253646850585938 -1764.2199401855469 -5.45428466796875 -1755.9200134277344 0.559417724609375C-1178.3299255371094 419.4679870605469 -769.6729431152344 1070.2499694824219 -609.4009704589844 1826.4899597167969C-558.7389831542969 2065.659881591797 -531.6799621582031 2328.580047607422 -531.6799621582031 2575.259979248047C-531.6799621582031 2618.209930419922 -532.4999694824219 2660.679901123047 -534.1599426269531 2702.439910888672C-544.6949768066406 2965.269989013672 -575.9289855957031 3199.939910888672 -634.2019958496094 3452.519989013672C-667.2069396972656 3596.009979248047 -705.7129821777344 3727.939910888672 -761.9349670410156 3890.259979248047C-1056.8399353027344 4742.160125732422 -1219.1600036621094 5589.109832763672 -1259.1600036621094 6483.609832763672C-1264.7499694824219 6608.790008544922 -1267.4799499511719 6740.439910888672 -1267.4799499511719 6873.709930419922C-1267.4799499511719 7167.470184326172 -1254.1899108886719 7469.140106201172 -1228.8599548339844 7726.910125732422C-1216.1800231933594 7856.419891357422 -1206.0199890136719 7948.910125732422 -1194.2699890136719 8042.049774169922C-1043.9699401855469 9237.709930419922 -657.5099792480469 10419.900360107422 -64.06491088867188 11499.200164794922C-28.821807861328125 11563.400360107422 -17.633499145507812 11583.099578857422 -15.302597045898438 11585.299774169922Z" fill="black" /></g></svg>