<?xml version="1.0" encoding="utf-8" ?>
<svg baseProfile="tiny" height="100%" version="1.2" width="100%" xmlns="http://www.w3.org/2000/svg" xmlns:ev="http://www.w3.org/2001/xml-events" xmlns:xlink="http://www.w3.org/1999/xlink"><defs /><g transform="translate(0, 1000) scale(1, -1)"><path d="M-11.206695556640625 3047.300048828125C-10.42559814453125 3047.489990234375 -9.655548095703125 3047.580078125 -8.907241821289062 3047.580078125C-3.9828338623046875 3047.580078125 0.0 3043.7099609375 0.0 3038.43994140625C0.0 3035.75 -0.2936248779296875 3035.070068359375 -7.34063720703125 3022.25C-125.52499389648438 2807.360107421875 -200.30099487304688 2575.840087890625 -234.50900268554688 2319.06005859375C-247.5959930419922 2220.81005859375 -254.07400512695312 2119.25 -254.07400512695312 2015.52001953125C-254.07400512695312 1712.3699951171875 -198.7449951171875 1390.68994140625 -91.36639404296875 1078.989990234375C-77.66390991210938 1039.0999755859375 -74.72760009765625 1030.0999755859375 -69.14869689941406 1010.469970703125C-46.75640869140625 931.6680297851562 -35.8616943359375 851.7739868164062 -35.8616943359375 772.4210205078125C-35.8616943359375 483.0769958496094 -180.7100067138672 200.91201782226562 -441.17198181152344 4.8552093505859375C-447.0439910888672 0.4508209228515625 -451.83998107910156 -3.3173675537109375 -451.83998107910156 -3.5131072998046875C-451.83998107910156 -3.7088623046875 -447.0439910888672 -7.47705078125 -441.2209930419922 -11.881378173828125C-180.12998962402344 -208.3809814453125 -35.77748107910156 -491.2979736328125 -35.77748107910156 -779.6919860839844C-35.77748107910156 -874.3319396972656 -51.32289123535156 -969.5619812011719 -83.38958740234375 -1062.5199890136719C-193.79298400878906 -1382.6700134277344 -248.1619873046875 -1677.2299499511719 -253.20298767089844 -1982.0600280761719C-253.4019775390625 -1994.2199401855469 -253.50099182128906 -2006.4100036621094 -253.50099182128906 -2018.6099548339844C-253.50099182128906 -2243.149871826172 -219.93798828125 -2473.600067138672 -158.94898986816406 -2665.719940185547C-115.63899230957031 -2802.100067138672 -69.4423828125 -2910.159881591797 -3.327728271484375 -3029.759979248047C-1.1782379150390625 -3033.649871826172 -0.1354827880859375 -3037.090057373047 -0.1354827880859375 -3039.889862060547C-0.1354827880859375 -3044.669891357422 -3.1820220947265625 -3047.580047607422 -8.955551147460938 -3047.580047607422H-9.990768432617188C-14.854080200195312 -3047.580047607422 -15.152191162109375 -3046.759979248047 -29.607192993164062 -3020.509979248047C-103.35598754882812 -2886.909881591797 -166.72998046875 -2747.439910888672 -217.62498474121094 -2606.840057373047C-321.41697692871094 -2320.229949951172 -373.45298767089844 -2032.1999206542969 -373.45298767089844 -1749.6199645996094C-373.45298767089844 -1529.4999694824219 -341.8789825439453 -1312.6800231933594 -278.6009979248047 -1102.4100036621094C-269.64598083496094 -1072.6999206542969 -263.0389862060547 -1052.3899841308594 -246.54698181152344 -1004.0399475097656C-217.67398071289062 -919.2809753417969 -199.27398681640625 -838.8769836425781 -190.07298278808594 -756.9069519042969C-185.52098083496094 -716.4249572753906 -183.27398681640625 -676.5949401855469 -183.27398681640625 -637.5859680175781C-183.27398681640625 -393.5079650878906 -271.25498962402344 -181.52996826171875 -433.1949920654297 -42.712066650390625C-444.89097595214844 -32.67987060546875 -470.33897399902344 -12.664474487304688 -474.15599060058594 -10.462265014648438C-475.95399475097656 -9.41717529296875 -476.8479766845703 -6.4892730712890625 -476.8479766845703 -3.5546417236328125C-476.8479766845703 -0.580078125 -475.9299774169922 2.401397705078125 -474.1069793701172 3.43603515625C-472.58998107910156 4.3169097900390625 -456.1959991455078 16.844924926757812 -448.85499572753906 22.717437744140625C-303.41297912597656 139.4330291748047 -211.55699157714844 316.9790344238281 -188.84999084472656 525.2570495605469C-185.02198791503906 560.3400573730469 -183.1119842529297 595.7870178222656 -183.1119842529297 631.5390319824219C-183.1119842529297 750.7350158691406 -204.34597778320312 873.3100280761719 -246.54698181152344 997.0150451660156C-263.23497009277344 1045.9499816894531 -269.4499969482422 1064.9900207519531 -278.69898986816406 1095.6200256347656C-329.59397888183594 1264.5600891113281 -360.5229949951172 1439.9499816894531 -370.35899353027344 1615.1000061035156C-373.19798278808594 1665.8399963378906 -373.7849884033203 1688.4499816894531 -373.7849884033203 1746.2500305175781C-373.7849884033203 1804.1899719238281 -373.34498596191406 1822.2500305175781 -370.60398864746094 1873.4900207519531C-350.09898376464844 2256.520050048828 -232.11097717285156 2653.449981689453 -29.753982543945312 3020.139923095703C-14.876983642578125 3047.010040283203 -15.415283203125 3046.270050048828 -11.206680297851562 3047.300079345703Z" fill="black" /></g></svg>