<?xml version="1.0" encoding="utf-8" ?>
<svg baseProfile="tiny" height="100%" version="1.2" width="100%" xmlns="http://www.w3.org/2000/svg" xmlns:ev="http://www.w3.org/2001/xml-events" xmlns:xlink="http://www.w3.org/1999/xlink"><defs /><g transform="translate(0, 1000) scale(1, -1)"><path d="M-11.43670654296875 2740.02001953125C-10.622299194335938 2740.22998046875 -9.816268920898438 2740.330078125 -9.031524658203125 2740.330078125C-4.0937652587890625 2740.330078125 0.0 2736.4599609375 0.0 2731.22998046875C0.0 2728.320068359375 -0.0439910888671875 2728.22998046875 -4.6626434326171875 2719.969970703125C-152.1840057373047 2455.169921875 -226.32899475097656 2147.280029296875 -226.32899475097656 1816.06005859375C-226.32899475097656 1541.8699951171875 -175.51800537109375 1251.699951171875 -73.45870971679688 956.780029296875C-57.139404296875 909.6259765625 -46.58250427246094 868.8939819335938 -39.36859130859375 824.9940185546875C-32.26240539550781 781.8670043945312 -28.761001586914062 738.7760009765625 -28.761001586914062 695.9769897460938C-28.761001586914062 450.53900146484375 -143.91200256347656 214.74899291992188 -354.7130126953125 37.35859680175781C-369.3169860839844 25.086105346679688 -394.8739929199219 4.89599609375 -403.14300537109375 -0.954315185546875C-404.72698974609375 -2.053985595703125 -405.51800537109375 -2.559844970703125 -405.51800537109375 -3.065704345703125C-405.51800537109375 -3.5715484619140625 -404.72698974609375 -4.0774078369140625 -403.14300537109375 -5.177093505859375C-367.864990234375 -29.94189453125 -309.5379943847656 -81.53900146484375 -271.7969970703125 -121.3909912109375C-112.60501098632812 -289.5539855957031 -28.987594604492188 -489.635009765625 -28.987594604492188 -702.5150146484375V-702.6829833984375C-29.031585693359375 -792.3289794921875 -42.66758728027344 -874.1010131835938 -71.43528747558594 -957.1489868164062C-174.45298767089844 -1254.3699951171875 -225.76698303222656 -1545.6099853515625 -225.76698303222656 -1820.3199462890625C-225.76698303222656 -2149.239990234375 -152.208984375 -2454.47998046875 -5.7623138427734375 -2717.9599609375L1.52587890625e-05 -2728.300048828125V-2731.199951171875C1.52587890625e-05 -2736.780029296875 -4.504974365234375 -2740.330078125 -9.117324829101562 -2740.330078125C-11.696792602539062 -2740.330078125 -14.309890747070312 -2739.219970703125 -16.187286376953125 -2736.739990234375C-21.02587890625 -2730.360107421875 -57.62327575683594 -2661.610107421875 -79.4849853515625 -2617.840087890625C-252.73098754882812 -2271.219970703125 -340.36497497558594 -1913.3199462890625 -340.36497497558594 -1565.5699462890625C-340.36497497558594 -1348.4200439453125 -306.1919708251953 -1135.219970703125 -237.35498046875 -931.197021484375C-213.82199096679688 -861.3889770507812 -208.10398864746094 -842.6939697265625 -199.39398193359375 -807.3729858398438C-179.21298217773438 -725.1740112304688 -169.36097717285156 -644.7150268554688 -169.36097717285156 -567.7039794921875C-169.36097717285156 -337.197998046875 -257.6279754638672 -137.57400512695312 -421.3979949951172 -14.59039306640625C-429.75498962402344 -8.34417724609375 -430.54698181152344 -7.33245849609375 -430.54698181152344 -3.065704345703125C-430.54698181152344 1.2010650634765625 -429.75498962402344 2.2127685546875 -421.3979949951172 8.458953857421875C-326.69297790527344 79.63031005859375 -256.6659698486328 176.00599670410156 -213.9539794921875 294.0679931640625C-184.28997802734375 376.1300048828125 -169.45498657226562 467.0419921875 -169.45498657226562 561.9840087890625C-169.45498657226562 656.2550048828125 -184.0809783935547 754.5 -213.33798217773438 852.0020141601562C-217.42898559570312 865.551025390625 -221.7839813232422 878.8350219726562 -237.35498046875 925.0650024414062C-306.23899841308594 1129.300048828125 -340.81297302246094 1342.93994140625 -340.81297302246094 1564.199951171875C-340.81297302246094 1612.5400390625 -340.3729705810547 1630.31005859375 -337.9979705810547 1676.1500244140625C-320.0509796142578 2018.81005859375 -214.833984375 2374.360107421875 -32.814483642578125 2707.2099609375C-15.439483642578125 2739.010009765625 -15.439483642578125 2739.010009765625 -11.436691284179688 2740.02001953125Z" fill="black" /></g></svg>