<?xml version="1.0" encoding="utf-8" ?>
<svg baseProfile="tiny" height="100%" version="1.2" width="100%" xmlns="http://www.w3.org/2000/svg" xmlns:ev="http://www.w3.org/2001/xml-events" xmlns:xlink="http://www.w3.org/1999/xlink"><defs /><g transform="translate(0, 1000) scale(1, -1)"><path d="M-11.4739990234375 2289.89990234375C-10.592697143554688 2290.1298828125 -9.72479248046875 2290.239990234375 -8.885101318359375 2290.239990234375C-3.9570770263671875 2290.239990234375 0.0 2286.4599609375 0.0 2281.159912109375L-0.0395660400390625 2278.18994140625L-5.6183013916015625 2268.10009765625C-125.40000915527344 2051.8701171875 -185.67800903320312 1800.02001953125 -185.67800903320312 1527.6700439453125C-185.67800903320312 1317.3800048828125 -149.74002075195312 1094.8599853515625 -77.50880432128906 867.0850219726562C-72.64231872558594 851.7340087890625 -66.82612609863281 834.364013671875 -52.46382141113281 791.9110107421875C-29.68450927734375 724.593994140625 -18.365615844726562 655.1320190429688 -18.365615844726562 585.5380249023438C-18.365615844726562 485.2980041503906 -41.84791564941406 384.7869873046875 -88.38931274414062 290.0220031738281C-111.10002136230469 243.80999755859375 -140.4180145263672 197.63699340820312 -173.416015625 156.13299560546875C-219.62802124023438 97.93190002441406 -281.8250274658203 37.8319091796875 -335.83201599121094 -0.942291259765625C-336.97401428222656 -1.769622802734375 -337.5480194091797 -2.165435791015625 -337.5480194091797 -2.559417724609375C-337.5480194091797 -2.956756591796875 -336.9650115966797 -3.35223388671875 -335.79200744628906 -4.1866607666015625C-328.1170196533203 -9.725830078125 -309.2040252685547 -24.641998291015625 -296.3460235595703 -35.36430358886719C-224.29701232910156 -95.46429443359375 -162.614013671875 -166.64300537109375 -117.74702453613281 -241.46099853515625C-107.18301391601562 -259.0679931640625 -96.61891174316406 -278.3760070800781 -88.38931274414062 -295.1510009765625C-41.84791564941406 -389.9159851074219 -18.365615844726562 -490.41400146484375 -18.365615844726562 -590.6500244140625C-18.365615844726562 -660.2410278320312 -29.68450927734375 -729.7069702148438 -52.46382141113281 -797.0399780273438C-75.17442321777344 -864.10302734375 -81.74232482910156 -884.5590209960938 -93.77021789550781 -925.4299926757812C-145.3240203857422 -1100.93994140625 -176.30401611328125 -1282.1099853515625 -183.38601684570312 -1449.6700439453125C-184.4940185546875 -1475.8299560546875 -184.65200805664062 -1483.1800537109375 -184.8500213623047 -1519.699951171875C-184.87001037597656 -1523.300048828125 -184.88101196289062 -1526.8900146484375 -184.88101196289062 -1530.47998046875C-184.88101196289062 -1806.02001953125 -124.89802551269531 -2052.719970703125 -5.618316650390625 -2268.080078125L-0.039581298828125 -2278.169921875L-1.52587890625e-05 -2281.139892578125C-1.52587890625e-05 -2286.909912109375 -4.1375579833984375 -2290.239990234375 -8.609970092773438 -2290.239990234375C-11.712615966796875 -2290.239990234375 -14.976516723632812 -2288.639892578125 -17.131912231445312 -2285.139892578125C-19.22882080078125 -2281.699951171875 -26.627609252929688 -2268.320068359375 -34.69891357421875 -2253.449951171875C-205.17901611328125 -1938.5899658203125 -291.64601135253906 -1613.489990234375 -291.64601135253906 -1299.1400146484375C-291.64601135253906 -1119.4300537109375 -263.3880157470703 -943.239990234375 -206.4130096435547 -774.4869995117188C-193.6730194091797 -736.7420043945312 -190.1120147705078 -725.8610229492188 -186.3930206298828 -713.5560302734375C-161.1370086669922 -629.64501953125 -148.8710174560547 -546.8709716796875 -148.8710174560547 -468.25799560546875C-148.8710174560547 -278.39300537109375 -220.42501831054688 -112.80400085449219 -353.35902404785156 -14.117599487304688C-361.62901306152344 -7.984954833984375 -362.42002868652344 -6.9958038330078125 -362.42002868652344 -2.564483642578125C-362.42002868652344 1.8668670654296875 -361.62901306152344 2.855987548828125 -353.35902404785156 8.9886474609375C-222.85401916503906 105.86099243164062 -148.67800903320312 271.4519958496094 -148.67800903320312 461.67498779296875C-148.67800903320312 477.10400390625 -149.166015625 492.6940002441406 -150.15101623535156 508.42401123046875C-155.53201293945312 593.7269897460938 -170.7250213623047 665.3410034179688 -204.11801147460938 762.35498046875C-255.07901000976562 910.448974609375 -284.31800842285156 1068.989990234375 -291.00401306152344 1232.8699951171875C-291.8970184326172 1254.8599853515625 -292.3410186767578 1276.949951171875 -292.3410186767578 1299.1099853515625C-292.3410186767578 1619.989990234375 -199.1900177001953 1957.9100341796875 -22.473220825195312 2275.81005859375C-15.78662109375 2287.840087890625 -14.837112426757812 2289.030029296875 -11.474014282226562 2289.89990234375Z" fill="black" /></g></svg>