<?xml version="1.0" encoding="utf-8" ?>
<svg baseProfile="tiny" height="100%" version="1.2" width="100%" xmlns="http://www.w3.org/2000/svg" xmlns:ev="http://www.w3.org/2001/xml-events" xmlns:xlink="http://www.w3.org/1999/xlink"><defs /><g transform="translate(0, 1000) scale(1, -1)"><path d="M-18.461196899414062 785.72998046875C-17.9871826171875 785.7999877929688 -17.518783569335938 785.833984375 -17.058181762695312 785.833984375C-12.017181396484375 785.833984375 -7.926483154296875 781.7999877929688 -7.926483154296875 776.7940063476562C-7.926483154296875 776.364013671875 -7.9566192626953125 775.927001953125 -8.01885986328125 775.4849853515625C-8.237777709960938 773.8870239257812 -8.522369384765625 773.22998046875 -10.492584228515625 769.6840209960938C-41.951080322265625 713.3779907226562 -59.39888000488281 648.1190185546875 -63.010986328125 573.1610107421875C-63.19708251953125 569.2639770507812 -63.29008483886719 559.6370239257812 -63.29008483886719 549.9420166015625C-63.29008483886719 540.2470092773438 -63.19708251953125 530.4829711914062 -63.010986328125 526.31298828125C-59.61778259277344 451.1579895019531 -43.78999328613281 372.32598876953125 -15.243179321289062 288.3489990234375C-9.1572265625 270.4639892578125 -8.741287231445312 269.12799072265625 -6.39886474609375 259.7799987792969C-2.1368560791015625 242.77200317382812 -0.01092529296875 225.22500610351562 -0.01092529296875 207.63099670410156C-0.01092529296875 186.36599731445312 -3.11676025390625 165.03199768066406 -9.310470581054688 144.4980010986328C-25.050689697265625 92.2864990234375 -59.88047790527344 45.41619873046875 -114.95997619628906 2.2893829345703125C-117.06198120117188 0.647491455078125 -118.79098510742188 -0.7535858154296875 -118.79098510742188 -0.8411407470703125C-118.79098510742188 -0.9287109375 -117.06198120117188 -2.3297882080078125 -114.95997619628906 -3.9716644287109375C-59.88047790527344 -47.09849548339844 -25.050689697265625 -93.96868896484375 -9.310470581054688 -146.18099975585938C-3.0996856689453125 -166.75999450683594 1.52587890625e-05 -187.9929962158203 1.52587890625e-05 -209.2010040283203C1.52587890625e-05 -233.07000732421875 -3.9261932373046875 -256.906005859375 -11.76239013671875 -279.74200439453125C-46.84028625488281 -381.989990234375 -63.13838195800781 -467.8399963378906 -63.13838195800781 -550.6929931640625C-63.13838195800781 -552.2789916992188 -63.13238525390625 -553.864013671875 -63.1204833984375 -555.447021484375C-62.98908996582031 -573.0919799804688 -62.792083740234375 -577.9080200195312 -61.6536865234375 -593.2329711914062C-61.018890380859375 -601.6829833984375 -60.82179260253906 -603.6749877929688 -60.09938049316406 -609.97998046875C-53.33479309082031 -668.56201171875 -36.28118896484375 -723.489013671875 -10.492584228515625 -769.614990234375C-8.763107299804688 -772.7150268554688 -7.8983612060546875 -775.198974609375 -7.8983612060546875 -777.3460083007812C-7.8983612060546875 -779.52001953125 -8.785003662109375 -781.3480224609375 -10.55828857421875 -783.1220092773438C-12.39068603515625 -784.9539794921875 -14.584686279296875 -785.833984375 -16.7841796875 -785.833984375C-20.10308837890625 -785.833984375 -23.43438720703125 -783.8309936523438 -25.554183959960938 -780.0789794921875C-85.23118591308594 -674.0789794921875 -120.76197814941406 -568.7579956054688 -129.2769775390625 -472.6090087890625C-130.72097778320312 -456.4110107421875 -131.5179901123047 -436.6910095214844 -131.5179901123047 -419.6510009765625C-131.5179901123047 -412.3949890136719 -131.37298583984375 -405.6239929199219 -131.07298278808594 -399.8190002441406C-128.20498657226562 -344.6080017089844 -120.4329833984375 -303.4729919433594 -102.91998291015625 -251.1739959716797C-94.68838500976562 -226.58900451660156 -91.4921875 -215.07400512695312 -87.70487976074219 -196.46600341796875C-84.59628295898438 -181.09800720214844 -83.06388854980469 -169.8459930419922 -81.75038146972656 -152.55099487304688C-81.57518005371094 -150.3179931640625 -81.48768615722656 -144.6699981689453 -81.48768615722656 -137.6649932861328C-81.50958251953125 -82.08149719238281 -101.18998718261719 -37.093902587890625 -137.28997802734375 -10.03570556640625C-141.77297973632812 -6.682464599609375 -143.4359893798828 -4.3991546630859375 -143.4359893798828 -1.163055419921875C-143.4359893798828 -0.638519287109375 -143.39198303222656 -0.088958740234375 -143.3099822998047 0.4942474365234375C-142.89398193359375 3.4934234619140625 -141.66798400878906 5.091522216796875 -137.28997802734375 8.3533935546875C-111.54498291015625 27.639999389648438 -93.30918884277344 57.65370178222656 -85.64707946777344 93.33731079101562C-82.90159606933594 106.10501098632812 -81.30949401855469 123.21299743652344 -81.30949401855469 138.17300415039062C-81.30949401855469 142.656005859375 -81.45248413085938 146.9459991455078 -81.75038146972656 150.86900329589844C-84.35548400878906 185.2169952392578 -89.91598510742188 211.13699340820312 -102.91998291015625 249.49099731445312C-122.66598510742188 307.7449951171875 -131.55398559570312 361.1830139160156 -131.57598876953125 421.6700134277344C-131.57798767089844 422.7720031738281 -131.5789794921875 423.81298828125 -131.5789794921875 424.802001953125C-131.5789794921875 437.4679870605469 -131.4309844970703 441.552001953125 -130.69998168945312 454.50799560546875C-125.02998352050781 555.8889770507812 -89.01838684082031 667.427001953125 -25.554183959960938 780.1480102539062C-23.671478271484375 783.4970092773438 -21.372879028320312 785.3140258789062 -18.461181640625 785.72998046875Z" fill="black" /></g></svg>