<?xml version="1.0" encoding="utf-8" ?>
<svg baseProfile="tiny" height="100%" version="1.2" width="100%" xmlns="http://www.w3.org/2000/svg" xmlns:ev="http://www.w3.org/2001/xml-events" xmlns:xlink="http://www.w3.org/1999/xlink"><defs /><g transform="translate(0, 1000) scale(1, -1)"><path d="M-19.742904663085938 552.35400390625C-19.263717651367188 552.468017578125 -18.769515991210938 552.5230102539062 -18.269012451171875 552.5230102539062C-14.673614501953125 552.5230102539062 -10.7451171875 549.7119750976562 -9.602203369140625 546.0280151367188C-9.347808837890625 545.2009887695312 -9.210617065429688 544.4320068359375 -9.210617065429688 543.6370239257812C-9.210617065429688 541.7520141601562 -9.982452392578125 539.719970703125 -11.792709350585938 536.4229736328125C-34.772216796875 494.375 -46.26380920410156 446.25201416015625 -46.26380920410156 391.52301025390625C-46.26380920410156 334.1400146484375 -33.631011962890625 269.4939880371094 -8.361419677734375 196.97000122070312C-2.7906494140625 180.9759979248047 -1.52587890625e-05 163.89999389648438 -1.52587890625e-05 146.84300231933594C-1.52587890625e-05 130.78599548339844 -2.4727630615234375 114.7449951171875 -7.4270172119140625 99.6376953125C-19.191421508789062 63.82350158691406 -42.10762023925781 33.554595947265625 -80.70960998535156 2.8261260986328125L-84.61579895019531 -0.268157958984375L-85.15190124511719 -0.6970672607421875L-84.61579895019531 -1.11065673828125C-84.32481384277344 -1.3557586669921875 -82.57850646972656 -2.749725341796875 -80.70960998535156 -4.22027587890625C-42.12290954589844 -34.93339538574219 -19.176116943359375 -65.23300170898438 -7.4270172119140625 -101.03199768066406C-2.4727630615234375 -116.13200378417969 -1.52587890625e-05 -132.17999267578125 -1.52587890625e-05 -148.24200439453125C-1.52587890625e-05 -165.30599975585938 -2.7906494140625 -182.38600158691406 -8.361419677734375 -198.36399841308594C-33.5526123046875 -270.5899963378906 -46.14311218261719 -334.989990234375 -46.14311218261719 -392.16900634765625C-46.14311218261719 -446.7049865722656 -34.69001770019531 -494.6709899902344 -11.792709350585938 -536.5919799804688C-9.494979858398438 -540.8040161132812 -9.341796875 -541.2329711914062 -9.341796875 -543.5770263671875C-9.341796875 -548.7999877929688 -13.064117431640625 -552.5230102539062 -18.2877197265625 -552.5230102539062C-22.423614501953125 -552.5230102539062 -24.537521362304688 -551.02197265625 -27.279510498046875 -546.10400390625C-74.06150817871094 -462.3290100097656 -99.19880676269531 -386.4570007324219 -103.61001586914062 -315.7170104980469C-104.13700866699219 -307.260009765625 -104.40202331542969 -298.9460144042969 -104.40202331542969 -290.7380065917969C-104.40202331542969 -250.45399475097656 -98.00300598144531 -212.73199462890625 -84.61581420898438 -173.18099975585938C-75.14912414550781 -145.22500610351562 -70.82931518554688 -125.84700012207031 -68.89921569824219 -102.79299926757812C-68.66072082519531 -99.89678955078125 -68.54351806640625 -95.93289184570312 -68.54351806640625 -91.82699584960938C-68.54351806640625 -86.70469665527344 -68.72590637207031 -81.36160278320312 -69.08311462402344 -77.59480285644531C-71.82501220703125 -48.29100036621094 -84.12562561035156 -24.394393920898438 -104.31501770019531 -9.106796264648438C-108.28300476074219 -6.1044158935546875 -109.33900451660156 -4.3274993896484375 -109.33900451660156 -0.6970672607421875C-109.33900451660156 2.9333648681640625 -108.28300476074219 4.7102813720703125 -104.31501770019531 7.712677001953125C-85.36640930175781 22.065902709960938 -72.94331359863281 44.813507080078125 -69.61921691894531 71.29879760742188C-68.86552429199219 77.29550170898438 -68.48431396484375 83.43740844726562 -68.48431396484375 89.78439331054688C-68.48431396484375 113.23699951171875 -73.68911743164062 139.48899841308594 -84.53921508789062 171.5570068359375C-91.00352478027344 190.6739959716797 -95.17012023925781 206.28399658203125 -98.31031799316406 223.25599670410156C-102.4420166015625 245.55799865722656 -104.52500915527344 268.00201416015625 -104.52500915527344 290.7449951171875C-104.52500915527344 369.947998046875 -79.26261901855469 452.7869873046875 -27.279510498046875 545.9359741210938C-24.843917846679688 550.2860107421875 -23.449920654296875 551.4660034179688 -19.742919921875 552.35400390625Z" fill="black" /></g></svg>