<?xml version="1.0" encoding="utf-8" ?>
<svg baseProfile="tiny" height="100%" version="1.2" width="100%" xmlns="http://www.w3.org/2000/svg" xmlns:ev="http://www.w3.org/2001/xml-events" xmlns:xlink="http://www.w3.org/1999/xlink"><defs /><g transform="translate(0, 1000) scale(1, -1)"><path d="M-20.865097045898438 590.1290283203125C-19.999786376953125 590.385986328125 -19.133987426757812 590.5079956054688 -18.287277221679688 590.5079956054688C-13.474288940429688 590.5079956054688 -9.278732299804688 586.5859985351562 -9.278732299804688 581.4429931640625C-9.278732299804688 579.4600219726562 -9.688430786132812 578.2310180664062 -11.294479370117188 575.3309936523438C-36.54109191894531 529.9240112304688 -49.21537780761719 477.0589904785156 -49.21537780761719 417.50201416015625C-49.21537780761719 392.239990234375 -46.93498229980469 365.77398681640625 -42.36628723144531 338.1619873046875C-35.56529235839844 297.02801513671875 -25.666885375976562 259.1549987792969 -8.819869995117188 209.76100158691406C-3.0186920166015625 192.7729949951172 1.52587890625e-05 174.18699645996094 1.52587890625e-05 156.3040008544922C1.52587890625e-05 149.48399353027344 -0.439117431640625 142.76499938964844 -1.3304901123046875 136.27699279785156C-8.37738037109375 84.98190307617188 -35.696380615234375 42.56939697265625 -88.18748474121094 1.45166015625C-89.58049011230469 0.3700408935546875 -90.72767639160156 -0.59686279296875 -90.72767639160156 -0.66241455078125C-90.72767639160156 -0.72796630859375 -89.58049011230469 -1.694854736328125 -88.18748474121094 -2.7764739990234375C-35.696380615234375 -43.894195556640625 -8.37738037109375 -86.30670166015625 -1.3304901123046875 -137.6009979248047C-0.439117431640625 -144.08999633789062 1.52587890625e-05 -150.80999755859375 1.52587890625e-05 -157.6320037841797C1.52587890625e-05 -175.51800537109375 -3.0186920166015625 -194.10899353027344 -8.819869995117188 -211.08599853515625C-24.42138671875 -256.7919921875 -33.51678466796875 -290.6499938964844 -40.563690185546875 -329.2439880371094C-46.25318908691406 -360.35400390625 -49.094085693359375 -390.010986328125 -49.094085693359375 -418.1520080566406C-49.094085693359375 -477.4729919433594 -36.47038269042969 -530.0609741210938 -11.294479370117188 -575.343994140625C-9.688430786132812 -578.2449951171875 -9.278732299804688 -579.4739990234375 -9.278732299804688 -581.4569702148438C-9.278732299804688 -586.906982421875 -13.711380004882812 -590.5079956054688 -18.3455810546875 -590.5079956054688C-20.5673828125 -590.5079956054688 -22.83538818359375 -589.6799926757812 -24.683578491210938 -587.8319702148438C-25.601287841796875 -586.9140014648438 -26.076583862304688 -586.177001953125 -28.1414794921875 -582.4240112304688C-82.79458618164062 -483.72698974609375 -109.16099548339844 -396.7380065917969 -109.16099548339844 -312.9219970703125C-109.16099548339844 -290.5769958496094 -107.2869873046875 -268.4580078125 -103.57597351074219 -246.40199279785156C-100.19998168945312 -226.34300231933594 -95.69328308105469 -208.84100341796875 -87.94169616699219 -185.6840057373047C-77.58438110351562 -154.7429962158203 -73.12678527832031 -134.4550018310547 -71.30778503417969 -110.135009765625C-71.00477600097656 -106.08099365234375 -70.85487365722656 -102.08099365234375 -70.85487365722656 -98.14349365234375C-70.85487365722656 -60.12080383300781 -84.82688903808594 -27.918106079101562 -109.81999206542969 -9.26617431640625C-113.88398742675781 -6.234375 -115.14598083496094 -4.202239990234375 -115.14598083496094 -0.66241455078125C-115.14598083496094 2.8774261474609375 -113.88398742675781 4.9095458984375 -109.81999206542969 7.94134521484375C-84.82688903808594 26.59320068359375 -70.85487365722656 58.79600524902344 -70.85487365722656 96.81869506835938C-70.85487365722656 100.75599670410156 -71.00477600097656 104.75599670410156 -71.30778503417969 108.80999755859375C-73.12678527832031 133.1300048828125 -77.58438110351562 153.40199279785156 -87.94169616699219 184.35899353027344C-99.4788818359375 218.8560028076172 -105.64097595214844 248.33900451660156 -108.08299255371094 280.9670104980469C-108.85697937011719 291.24798583984375 -109.24699401855469 301.5429992675781 -109.24699401855469 311.8699951171875C-109.24699401855469 396.3919982910156 -83.13938903808594 483.0899963378906 -28.1414794921875 582.4099731445312C-25.027679443359375 588.0479736328125 -23.913284301757812 589.22802734375 -20.865081787109375 590.1290283203125Z" fill="black" /></g></svg>