<?xml version="1.0" encoding="utf-8" ?>
<svg baseProfile="tiny" height="100%" version="1.2" width="100%" xmlns="http://www.w3.org/2000/svg" xmlns:ev="http://www.w3.org/2001/xml-events" xmlns:xlink="http://www.w3.org/1999/xlink"><defs /><g transform="translate(0, 1000) scale(1, -1)"><path d="M-13.3876953125 3343.60009765625C-11.927001953125 3344.330078125 -10.426193237304688 3344.669921875 -8.981842041015625 3344.669921875C-4.17877197265625 3344.669921875 -3.0517578125e-05 3340.949951171875 -3.0517578125e-05 3335.6298828125C-3.0517578125e-05 3335.580078125 0.0 3335.5400390625 0.0 3335.489990234375C0.0 3332.820068359375 -0.0970611572265625 3332.659912109375 -12.083999633789062 3310.81005859375C-189.60499572753906 2987.610107421875 -281.3500061035156 2609.47998046875 -281.3500061035156 2203.179931640625C-281.3500061035156 2172.580078125 -280.8290100097656 2141.830078125 -279.7869873046875 2110.929931640625C-269.50799560546875 1806.72998046875 -209.43899536132812 1489.3399658203125 -104.24299621582031 1183.280029296875C-85.49040222167969 1128.6700439453125 -81.47909545898438 1115.7900390625 -72.75460815429688 1081.7900390625C-52.595794677734375 1003.2999877929688 -42.77239990234375 923.9710083007812 -42.77239990234375 845.1279907226562C-42.77239990234375 528.4240112304688 -201.2779998779297 219.62600708007812 -485.11399841308594 5.3638916015625C-491.43199157714844 0.55035400390625 -496.64598083496094 -3.5612030029296875 -496.64598083496094 -3.7617645263671875C-496.64598083496094 -3.9623260498046875 -491.43199157714844 -8.073883056640625 -485.11399841308594 -12.887405395507812C-319.84898376464844 -137.63800048828125 -192.13998413085938 -299.6440124511719 -117.83097839355469 -478.59698486328125C-67.96049499511719 -598.7949829101562 -42.90357971191406 -725.6129760742188 -42.90357971191406 -852.219970703125C-42.90357971191406 -958.0490112304688 -60.411285400390625 -1063.72998046875 -95.56867980957031 -1165.280029296875C-151.07498168945312 -1325.6800537109375 -190.1849822998047 -1468.0799560546875 -220.87098693847656 -1621.56005859375C-260.7519989013672 -1820.8900146484375 -280.54197692871094 -2016.43994140625 -280.54197692871094 -2205.77001953125C-280.54197692871094 -2610.570068359375 -190.07298278808594 -2986.909912109375 -12.083984375 -3310.81005859375C-0.0970458984375 -3332.610107421875 1.52587890625e-05 -3332.820068359375 1.52587890625e-05 -3335.5C1.52587890625e-05 -3335.5400390625 -1.52587890625e-05 -3335.580078125 -1.52587890625e-05 -3335.6298828125C-1.52587890625e-05 -3341.25 -4.5108795166015625 -3344.669921875 -9.13677978515625 -3344.669921875C-12.066482543945312 -3344.669921875 -15.042282104492188 -3343.300048828125 -16.947677612304688 -3340.239990234375C-20.256988525390625 -3334.929931640625 -38.407989501953125 -3301.93994140625 -52.24688720703125 -3275.9599609375C-261.88597106933594 -2882.909912109375 -382.1749725341797 -2462.320068359375 -402.13099670410156 -2052.52001953125C-404.1069793701172 -2011.760009765625 -405.18299865722656 -1959.6099853515625 -405.18299865722656 -1914.219970703125C-405.18299865722656 -1889.3599853515625 -404.86097717285156 -1866.530029296875 -404.1859893798828 -1848.699951171875C-396.76597595214844 -1654.949951171875 -374.2519989013672 -1494.0 -330.22898864746094 -1319.7099609375C-310.8739776611328 -1243.25 -296.5339813232422 -1195.56005859375 -264.4939727783203 -1101.5999755859375C-218.6069793701172 -966.8519897460938 -196.35498046875 -832.5280151367188 -196.35498046875 -704.7420043945312C-196.35498046875 -421.4519958496094 -305.71897888183594 -170.302001953125 -509.38197326660156 -17.951705932617188C-520.7639617919922 -9.427688598632812 -521.9680023193359 -8.073883056640625 -521.9680023193359 -3.7617645263671875C-521.9680023193359 0.55035400390625 -520.7639617919922 1.9041748046875 -509.38197326660156 10.4281005859375C-305.71998596191406 162.77699279785156 -196.3319854736328 413.97198486328125 -196.3319854736328 697.2570190429688C-196.3319854736328 825.0430297851562 -218.58998107910156 959.3579711914062 -264.4939727783203 1094.0699462890625C-299.6429901123047 1197.2099609375 -318.49598693847656 1261.239990234375 -339.1539764404297 1348.0400390625C-383.81898498535156 1535.550048828125 -405.9399871826172 1727.75 -405.9399871826172 1921.949951171875C-405.9399871826172 2390.300048828125 -277.2899932861328 2870.31005859375 -25.922882080078125 3324.35009765625C-16.245681762695312 3341.89990234375 -15.94488525390625 3342.35009765625 -13.387680053710938 3343.60009765625Z" fill="black" /></g></svg>