<?xml version="1.0" encoding="utf-8" ?>
<svg baseProfile="tiny" height="100%" version="1.2" width="100%" xmlns="http://www.w3.org/2000/svg" xmlns:ev="http://www.w3.org/2001/xml-events" xmlns:xlink="http://www.w3.org/1999/xlink"><defs /><g transform="translate(0, 1000) scale(1, -1)"><path d="M-19.156295776367188 567.3980102539062C-18.886093139648438 567.4199829101562 -18.618484497070312 567.4310302734375 -18.353790283203125 567.4310302734375C-13.295379638671875 567.4310302734375 -9.304107666015625 563.52197265625 -9.304107666015625 558.3880004882812C-9.304107666015625 558.3590087890625 -9.304229736328125 558.3309936523438 -9.304473876953125 558.302001953125C-9.304473876953125 556.2249755859375 -9.603500366210938 555.343017578125 -11.2559814453125 552.3690185546875C-32.62779235839844 513.9219970703125 -44.305084228515625 470.7690124511719 -47.10638427734375 419.9679870605469C-47.26737976074219 416.89898681640625 -47.3704833984375 407.6390075683594 -47.3704833984375 399.7250061035156C-47.3704833984375 395.2569885253906 -47.33758544921875 391.218994140625 -47.26377868652344 388.9639892578125C-45.46968078613281 334.2919921875 -32.564788818359375 271.45098876953125 -9.367431640625 204.51800537109375C-3.099822998046875 186.42100524902344 1.52587890625e-05 168.2480010986328 1.52587890625e-05 150.3260040283203C1.52587890625e-05 111.50199890136719 -14.547378540039062 73.86160278320312 -42.95167541503906 40.75199890136719C-54.4716796875 27.32769775390625 -72.08218383789062 10.897506713867188 -86.63958740234375 0.007049560546875C-87.08018493652344 -0.3313140869140625 -87.30049133300781 -0.4768829345703125 -87.30049133300781 -0.622467041015625C-87.30049133300781 -0.768035888671875 -87.08018493652344 -0.913604736328125 -86.63958740234375 -1.2519683837890625C-72.08218383789062 -12.142501831054688 -54.4716796875 -28.572601318359375 -42.95167541503906 -41.99690246582031C-14.547378540039062 -75.10650634765625 1.52587890625e-05 -112.73899841308594 1.52587890625e-05 -151.56399536132812C1.52587890625e-05 -169.48599243164062 -3.099822998046875 -187.66099548339844 -9.367431640625 -205.76300048828125C-34.63047790527344 -278.7229919433594 -47.26197814941406 -344.2380065917969 -47.26197814941406 -402.4960021972656C-47.26197814941406 -459.28399658203125 -35.259979248046875 -509.1789855957031 -11.2559814453125 -552.35498046875C-9.603500366210938 -555.3289794921875 -9.304473876953125 -556.2109985351562 -9.304473876953125 -558.2880249023438C-9.304275512695312 -558.3140258789062 -9.304168701171875 -558.3410034179688 -9.304168701171875 -558.3670043945312C-9.304168701171875 -563.8270263671875 -13.6995849609375 -567.4310302734375 -18.317184448242188 -567.4310302734375C-20.535980224609375 -567.4310302734375 -22.80609130859375 -566.5989990234375 -24.66448974609375 -564.739990234375C-25.860580444335938 -563.5440063476562 -27.2139892578125 -561.198974609375 -33.83958435058594 -548.9240112304688C-82.39347839355469 -458.8330078125 -106.33998107910156 -377.3340148925781 -106.33998107910156 -299.75C-106.33998107910156 -258.4880065917969 -99.56687927246094 -218.33399963378906 -86.12019348144531 -178.58399963378906C-79.17988586425781 -158.0780029296875 -75.90638732910156 -145.85000610351562 -72.82188415527344 -128.96299743652344C-70.55827331542969 -116.56900024414062 -69.43368530273438 -104.83599853515625 -69.43368530273438 -93.81369018554688C-69.43368530273438 -56.48150634765625 -82.33438110351562 -27.31060791015625 -107.57098388671875 -8.27099609375C-110.35598754882812 -6.1621246337890625 -111.74897766113281 -3.392303466796875 -111.74897766113281 -0.622467041015625C-111.74897766113281 2.147369384765625 -110.35598754882812 4.917205810546875 -107.57098388671875 7.02606201171875C-82.33438110351562 26.065704345703125 -69.43368530273438 55.236602783203125 -69.43368530273438 92.56880187988281C-69.43368530273438 103.59100341796875 -70.55827331542969 115.32400512695312 -72.82188415527344 127.71800231933594C-75.85917663574219 144.36900329589844 -79.3057861328125 157.2899932861328 -85.88407897949219 176.66299438476562C-99.58198547363281 216.9929962158203 -106.49398803710938 257.5820007324219 -106.49398803710938 299.27099609375C-106.49398803710938 379.6719970703125 -80.78448486328125 464.1619873046875 -28.457290649414062 558.7739868164062C-24.69598388671875 565.572998046875 -23.074981689453125 567.083984375 -19.156280517578125 567.3980102539062Z" fill="black" /></g></svg>