<?xml version="1.0" encoding="utf-8" ?>
<svg baseProfile="tiny" height="100%" version="1.2" width="100%" xmlns="http://www.w3.org/2000/svg" xmlns:ev="http://www.w3.org/2001/xml-events" xmlns:xlink="http://www.w3.org/1999/xlink"><defs /><g transform="translate(0, 1000) scale(1, -1)"><path d="M-17.412994384765625 891.4039916992188C-16.874298095703125 891.4940185546875 -16.3424072265625 891.5369873046875 -15.820892333984375 891.5369873046875C-10.876693725585938 891.5369873046875 -6.8674163818359375 887.6240234375 -6.8674163818359375 882.4500122070312C-6.8674163818359375 880.0369873046875 -7.0415191650390625 879.5889892578125 -10.523605346679688 873.2470092773438C-50.839202880859375 799.8090209960938 -71.00030517578125 715.802978515625 -71.00030517578125 621.3150024414062C-71.00030517578125 528.9190063476562 -51.722198486328125 426.49798583984375 -13.160003662109375 314.1310119628906C-4.3552703857421875 288.4649963378906 0.0 261.77899169921875 0.0 235.03500366210938C0.0 192.42799377441406 -11.054794311523438 149.677001953125 -32.78369140625 110.68099975585938C-54.42210388183594 71.856201171875 -88.86940002441406 33.32989501953125 -129.98199462890625 1.9915771484375C-132.0469970703125 0.4246673583984375 -133.73800659179688 -0.9184112548828125 -133.73800659179688 -0.9930267333984375C-133.73800659179688 -1.0676422119140625 -132.0469970703125 -2.41070556640625 -129.98199462890625 -3.977630615234375C-88.86940002441406 -35.316009521484375 -54.42210388183594 -73.84219360351562 -32.78369140625 -112.6669921875C-11.054794311523438 -151.66299438476562 0.0 -194.44200134277344 0.0 -237.0540008544922C0.0 -263.79998779296875 -4.3552703857421875 -290.4800109863281 -13.160003662109375 -316.11700439453125C-51.61669921875 -427.9840087890625 -70.8450927734375 -529.8829956054688 -70.8450927734375 -621.89501953125C-70.8450927734375 -716.0239868164062 -50.72129821777344 -799.8040161132812 -10.473800659179688 -873.3179931640625C-7.560882568359375 -878.6389770507812 -6.7555389404296875 -880.3359985351562 -6.7555389404296875 -882.1740112304688C-6.7555389404296875 -882.6900024414062 -6.8190155029296875 -883.2169799804688 -6.9171600341796875 -883.8389892578125C-7.6988525390625 -888.6099853515625 -11.828704833984375 -891.5369873046875 -16.032302856445312 -891.5369873046875C-18.248703002929688 -891.5369873046875 -20.485595703125 -890.7239990234375 -22.26300048828125 -888.93798828125C-25.073501586914062 -886.1270141601562 -47.85600280761719 -842.8250122070312 -59.769500732421875 -817.655029296875C-115.29100036621094 -700.5369873046875 -142.92799377441406 -590.0239868164062 -142.92799377441406 -483.57598876953125C-142.92799377441406 -416.5920104980469 -131.98399353027344 -351.2170104980469 -110.16000366210938 -286.8190002441406C-100.1610107421875 -257.34600830078125 -95.13710021972656 -238.09500122070312 -90.88400268554688 -213.1490020751953C-87.7587890625 -194.7989959716797 -86.21649169921875 -177.13800048828125 -86.21649169921875 -160.2989959716797C-86.21649169921875 -95.6593017578125 -108.94500732421875 -43.13279724121094 -152.1179962158203 -10.22039794921875C-157.14199829101562 -6.4150543212890625 -158.18699645996094 -4.7983856201171875 -158.18699645996094 -0.9930267333984375C-158.18699645996094 2.812347412109375 -157.14199829101562 4.42901611328125 -152.1179962158203 8.234375C-108.94500732421875 41.146697998046875 -86.21649169921875 93.67330932617188 -86.21649169921875 158.31300354003906C-86.21649169921875 175.15199279785156 -87.7587890625 192.81199645996094 -90.88400268554688 211.16299438476562C-95.11219787597656 235.98500061035156 -100.18600463867188 255.45899963378906 -110.03500366210938 284.4840087890625C-131.9949951171875 349.22698974609375 -142.9969940185547 415.2330017089844 -142.9969940185547 482.822998046875C-142.9969940185547 609.1439819335938 -104.56700134277344 740.9990234375 -27.411407470703125 880.4849853515625C-22.362503051757812 889.5880126953125 -21.317901611328125 890.7319946289062 -17.412994384765625 891.4039916992188Z" fill="black" /></g></svg>