<?xml version="1.0" encoding="utf-8" ?>
<svg baseProfile="tiny" height="100%" version="1.2" width="100%" xmlns="http://www.w3.org/2000/svg" xmlns:ev="http://www.w3.org/2001/xml-events" xmlns:xlink="http://www.w3.org/1999/xlink"><defs /><g transform="translate(0, 1000) scale(1, -1)"><path d="M-12.130096435546875 2479.75C-10.97149658203125 2480.110107421875 -9.841445922851562 2480.280029296875 -8.766357421875 2480.280029296875C-3.7955780029296875 2480.280029296875 0.0 2476.64990234375 0.0 2471.219970703125V2468.010009765625L-6.086456298828125 2457.080078125C-136.88099670410156 2221.360107421875 -202.58999633789062 1946.72998046875 -202.58999633789062 1650.3499755859375C-202.58999633789062 1401.1700439453125 -156.1439971923828 1136.6199951171875 -62.87910461425781 866.8839721679688C-39.004791259765625 797.7899780273438 -27.560501098632812 739.5830078125 -23.2742919921875 665.2169799804688C-22.843994140625 657.7009887695312 -22.639297485351562 648.02001953125 -22.639297485351562 637.4520263671875C-22.639297485351562 616.43798828125 -23.4486083984375 591.9149780273438 -24.902999877929688 573.9199829101562C-42.262298583984375 357.6789855957031 -162.70599365234375 151.3820037841797 -357.9010009765625 3.7216033935546875C-362.3580017089844 0.335479736328125 -366.0450134277344 -2.6220245361328125 -366.0450134277344 -2.7934722900390625C-366.0450134277344 -2.9649200439453125 -362.3580017089844 -5.92242431640625 -357.9010009765625 -9.308547973632812C-206.33900451660156 -123.96499633789062 -97.94049072265625 -275.9549865722656 -50.62049865722656 -440.1180114746094C-31.924407958984375 -504.9330139160156 -22.603607177734375 -571.52001953125 -22.603607177734375 -637.8619995117188C-22.603607177734375 -715.5540161132812 -35.38639831542969 -792.9089965820312 -60.864593505859375 -866.6849975585938L-79.50968933105469 -921.8060302734375C-161.35098266601562 -1173.1500244140625 -202.07598876953125 -1419.4200439453125 -202.07598876953125 -1652.280029296875C-202.07598876953125 -1947.8499755859375 -136.4639892578125 -2221.81005859375 -6.0435791015625 -2457.090087890625L1.52587890625e-05 -2468.02001953125V-2471.239990234375C1.52587890625e-05 -2476.719970703125 -3.619781494140625 -2480.280029296875 -8.610061645507812 -2480.280029296875C-9.593063354492188 -2480.280029296875 -10.629287719726562 -2480.139892578125 -11.701385498046875 -2479.85009765625C-15.3018798828125 -2478.8701171875 -15.387588500976562 -2478.739990234375 -32.27537536621094 -2447.8798828125C-189.10897827148438 -2160.7900390625 -283.5349884033203 -1855.010009765625 -306.4659881591797 -1559.97998046875C-310.30198669433594 -1510.56005859375 -312.21897888183594 -1461.449951171875 -312.21897888183594 -1412.6600341796875C-312.21897888183594 -1238.43994140625 -287.7779998779297 -1068.239990234375 -238.95797729492188 -902.260009765625C-231.2419891357422 -876.156982421875 -224.083984375 -853.9539794921875 -210.8829803466797 -815.25C-179.635986328125 -723.6959838867188 -163.64898681640625 -643.156982421875 -158.37599182128906 -551.0029907226562C-157.8879852294922 -542.8619995117188 -157.60598754882812 -522.9190063476562 -157.60598754882812 -505.5950012207031C-157.60598754882812 -495.5559997558594 -157.70098876953125 -486.39599609375 -157.9049835205078 -480.9230041503906C-165.3199920654297 -282.385009765625 -245.12998962402344 -116.50700378417969 -382.54698181152344 -13.852005004882812C-390.38999938964844 -8.022674560546875 -390.9049835205078 -7.336883544921875 -390.9049835205078 -2.7934722900390625C-390.9049835205078 1.7499237060546875 -390.38999938964844 2.4357147216796875 -382.54698181152344 8.264999389648438C-254.60198974609375 103.84797668457031 -176.1639862060547 254.85198974609375 -160.3049774169922 436.1169891357422C-158.32498168945312 458.7749786376953 -157.3359832763672 481.66197204589844 -157.3359832763672 504.75599670410156C-157.3359832763672 603.1129608154297 -175.2679901123047 705.2490081787109 -210.8829803466797 809.6630096435547C-236.17198181152344 883.7289886474609 -251.9879913330078 938.3779754638672 -266.98997497558594 1003.6099700927734C-297.5549774169922 1136.5799407958984 -312.72398376464844 1272.469955444336 -312.72398376464844 1409.9100189208984C-312.72398376464844 1757.999984741211 -215.43399047851562 2116.100082397461 -24.517288208007812 2462.009994506836C-16.544891357421875 2476.449935913086 -14.787490844726562 2478.939926147461 -12.130081176757812 2479.749984741211Z" fill="black" /></g></svg>