<?xml version="1.0" encoding="utf-8" ?>
<svg baseProfile="tiny" height="100%" version="1.2" width="100%" xmlns="http://www.w3.org/2000/svg" xmlns:ev="http://www.w3.org/2001/xml-events" xmlns:xlink="http://www.w3.org/1999/xlink"><defs /><g transform="translate(0, 1000) scale(1, -1)"><path d="M-14.861297607421875 346.94000244140625C-14.346893310546875 346.99700927734375 -14.06109619140625 347.0260009765625 -13.776504516601562 347.0260009765625C-13.491897583007812 347.0260009765625 -13.208404541015625 346.99700927734375 -12.698806762695312 346.94000244140625C-8.09942626953125 346.42498779296875 -4.7082977294921875 342.54998779296875 -4.7082977294921875 338.0220031738281C-4.7082977294921875 337.6919860839844 -4.7263336181640625 337.3590087890625 -4.7632293701171875 337.02301025390625C-4.9251861572265625 335.5559997558594 -5.2871856689453125 334.5840148925781 -6.43035888671875 332.5169982910156C-18.83380126953125 310.177001953125 -25.8739013671875 283.4750061035156 -26.95989990234375 254.63800048828125C-27.058395385742188 252.03599548339844 -27.107498168945312 249.38999938964844 -27.107498168945312 246.70199584960938C-27.107498168945312 212.4810028076172 -19.147003173828125 171.46099853515625 -3.84869384765625 127.17401123046875C-2.0958251953125 122.07699584960938 -1.49566650390625 120.16200256347656 -0.6668548583984375 116.96099853515625L0.0 114.41799926757812V92.11639404296875V69.81500244140625L-0.4382171630859375 68.08110046386719C-6.573272705078125 43.540985107421875 -21.758407592773438 22.087387084960938 -47.746612548828125 1.19580078125C-48.78501892089844 0.36700439453125 -49.63291931152344 -0.34747314453125 -49.63291931152344 -0.385589599609375C-49.63291931152344 -0.4236907958984375 -48.78501892089844 -1.1381683349609375 -47.75621032714844 -1.96697998046875C-21.758407592773438 -22.8585205078125 -6.573272705078125 -44.31211853027344 -0.438232421875 -68.85231018066406L-1.52587890625e-05 -70.58610534667969V-92.88749694824219V-115.18901062011719L-0.6668701171875 -117.73301696777344C-1.5052032470703125 -120.97201538085938 -2.086334228515625 -122.83900451660156 -3.9439849853515625 -128.23101806640625C-17.671630859375 -168.0130157470703 -25.616729736328125 -205.91001892089844 -26.8646240234375 -237.49900817871094C-26.984024047851562 -240.53102111816406 -27.043533325195312 -243.53701782226562 -27.043533325195312 -246.5170135498047C-27.043533325195312 -278.74400329589844 -20.077529907226562 -307.87400817871094 -6.430389404296875 -332.52601623535156C-5.189117431640625 -334.7730255126953 -4.699371337890625 -336.2160186767578 -4.699371337890625 -337.8770294189453C-4.699371337890625 -338.2300262451172 -4.7215118408203125 -338.59300231933594 -4.7632598876953125 -338.9750213623047C-5.295196533203125 -343.7840118408203 -9.341842651367188 -347.02601623535156 -13.727325439453125 -347.02601623535156C-15.153823852539062 -347.02601623535156 -16.616134643554688 -346.6830291748047 -18.005035400390625 -345.9390106201172C-20.05322265625 -344.8340301513672 -20.701034545898438 -344.0430145263672 -23.158828735351562 -339.61302185058594L-25.769134521484375 -334.9070281982422C-33.60943603515625 -320.9610137939453 -44.26002502441406 -298.4590301513672 -50.63323974609375 -282.36900329589844C-64.91412353515625 -246.29901123046875 -72.00433349609375 -212.4400177001953 -72.00433349609375 -179.59400939941406C-72.00433349609375 -159.17601013183594 -69.26432800292969 -139.15000915527344 -63.80833435058594 -119.22801208496094C-62.58892822265625 -114.77900695800781 -61.560028076171875 -111.52101135253906 -58.97833251953125 -103.93801879882812C-52.514434814453125 -84.93360900878906 -49.28253173828125 -68.41421508789062 -49.28253173828125 -54.322509765625C-49.28253173828125 -43.09771728515625 -51.333221435546875 -33.41322326660156 -55.434539794921875 -25.2401123046875C-58.73072814941406 -18.676406860351562 -63.646331787109375 -12.569915771484375 -68.69532775878906 -8.768875122070312C-71.18173217773438 -6.9016876220703125 -71.934326171875 -6.1300506591796875 -72.71553039550781 -4.6725006103515625C-73.43002319335938 -3.3340301513671875 -73.7872314453125 -1.85980224609375 -73.7872314453125 -0.385589599609375C-73.7872314453125 1.0886383056640625 -73.43002319335938 2.5628509521484375 -72.71553039550781 3.9013214111328125C-71.934326171875 5.3588714599609375 -71.18173217773438 6.1305084228515625 -68.69532775878906 7.997711181640625C-66.75192260742188 9.464767456054688 -63.6749267578125 12.446578979492188 -61.82682800292969 14.666183471679688C-53.451934814453125 24.7349853515625 -49.26933288574219 37.50547790527344 -49.26933288574219 53.44117736816406C-49.26933288574219 67.97708129882812 -52.74943542480469 85.146484375 -59.702423095703125 105.30097961425781C-63.31292724609375 115.77098083496094 -66.24703979492188 126.78297424316406 -68.15232849121094 136.98597717285156C-70.74581909179688 150.89598083496094 -72.04962158203125 164.89797973632812 -72.04962158203125 179.08297729492188C-72.04962158203125 218.5159912109375 -61.97422790527344 259.3669891357422 -41.516326904296875 303.60398864746094C-36.85792541503906 313.67298889160156 -29.64642333984375 328.01097106933594 -25.769134521484375 334.8979949951172L-23.158828735351562 339.59498596191406C-21.901321411132812 341.8719940185547 -21.053512573242188 343.2909698486328 -20.691513061523438 343.72898864746094C-19.26251220703125 345.46299743652344 -17.033309936523438 346.6919708251953 -14.861312866210938 346.9399871826172Z" fill="black" /></g></svg>