<?xml version="1.0" encoding="utf-8" ?>
<svg baseProfile="tiny" height="100%" version="1.2" width="100%" xmlns="http://www.w3.org/2000/svg" xmlns:ev="http://www.w3.org/2001/xml-events" xmlns:xlink="http://www.w3.org/1999/xlink"><defs /><g transform="translate(0, 1000) scale(1, -1)"><path d="M-13.164901733398438 1546.5799560546875C-11.797210693359375 1547.219970703125 -10.409317016601562 1547.52001953125 -9.075164794921875 1547.52001953125C-4.29705810546875 1547.52001953125 -0.2082977294921875 1543.699951171875 -0.2082977294921875 1538.4100341796875C-0.2082977294921875 1538.2099609375 -0.2142181396484375 1538.010009765625 -0.2262420654296875 1537.800048828125C-0.3303070068359375 1535.510009765625 -0.503753662109375 1535.1600341796875 -5.880401611328125 1525.3800048828125C-81.91102600097656 1386.6099853515625 -120.11701965332031 1226.8800048828125 -120.11701965332031 1050.6199951171875C-120.11701965332031 940.677001953125 -105.25201416015625 824.3049926757812 -75.43011474609375 702.5789794921875C-63.1505126953125 652.4550170898438 -49.31001281738281 606.0070190429688 -27.317718505859375 541.2789916992188C-11.361923217773438 494.32000732421875 -3.56524658203125 446.7959899902344 -3.56524658203125 399.71600341796875C-3.56524658203125 252.4290008544922 -79.87422180175781 109.48599243164062 -221.39801025390625 1.739776611328125C-223.72201538085938 -0.029327392578125 -225.63002014160156 -1.6249847412109375 -225.63002014160156 -1.76373291015625C-225.63002014160156 -1.902496337890625 -223.72201538085938 -3.498138427734375 -221.36302185058594 -5.267242431640625C-80.03071594238281 -112.87899780273438 -3.623992919921875 -255.4510040283203 -3.623992919921875 -403.3559875488281C-3.623992919921875 -443.20098876953125 -9.169219970703125 -483.4330139160156 -20.484115600585938 -523.4739990234375C-22.496017456054688 -530.5850219726562 -25.548614501953125 -539.8809814453125 -33.07591247558594 -561.9429931640625C-79.34991455078125 -697.2960205078125 -108.34901428222656 -837.5750122070312 -117.02101135253906 -968.3489990234375C-118.90000915527344 -996.5499877929688 -119.8380126953125 -1024.3900146484375 -119.8380126953125 -1051.8399658203125C-119.8380126953125 -1227.6099853515625 -81.4254150390625 -1387.550048828125 -5.880401611328125 -1525.43994140625C-1.49609375 -1533.4300537109375 -1.52587890625e-05 -1536.4300537109375 -1.52587890625e-05 -1538.8199462890625C-1.52587890625e-05 -1539.8199462890625 -0.2592010498046875 -1540.7099609375 -0.67718505859375 -1541.81005859375C-2.0694122314453125 -1545.4599609375 -5.7706298828125 -1547.52001953125 -9.432815551757812 -1547.52001953125C-11.792816162109375 -1547.52001953125 -14.13671875 -1546.6700439453125 -15.835922241210938 -1544.8299560546875C-19.33941650390625 -1541.050048828125 -53.22972106933594 -1476.4300537109375 -68.9088134765625 -1443.6500244140625C-163.1630096435547 -1246.530029296875 -210.55101013183594 -1051.72998046875 -210.55101013183594 -863.3270263671875C-210.55101013183594 -770.7059936523438 -199.0980224609375 -679.6329956054688 -176.13002014160156 -590.594970703125C-167.97801208496094 -558.9940185546875 -162.3590087890625 -540.4710083007812 -148.37901306152344 -499.364990234375C-126.9420166015625 -436.26800537109375 -115.66801452636719 -376.04901123046875 -113.89901733398438 -315.2409973144531C-113.76600646972656 -310.56298828125 -113.69902038574219 -305.90899658203125 -113.69902038574219 -301.2799987792969C-113.69902038574219 -179.85699462890625 -159.5080108642578 -75.63349914550781 -240.3380126953125 -14.251495361328125L-246.92800903320312 -9.2216796875C-249.426025390625 -7.261810302734375 -250.67503356933594 -4.5127716064453125 -250.67503356933594 -1.76373291015625C-250.67503356933594 0.9853057861328125 -249.426025390625 3.734344482421875 -246.9280242919922 5.6942138671875L-240.33802795410156 10.7239990234375C-157.45101928710938 73.64179992675781 -113.85401916503906 177.31100463867188 -113.85401916503906 298.9419860839844C-113.85401916503906 360.9159851074219 -125.17301940917969 427.5530090332031 -148.37901306152344 495.8380126953125C-163.885009765625 541.4530029296875 -171.343017578125 566.6019897460938 -180.3620147705078 603.718017578125C-200.7420196533203 687.4569702148438 -210.87200927734375 773.3770141601562 -210.87200927734375 860.77001953125C-210.87200927734375 1079.7900390625 -147.25302124023438 1308.050048828125 -21.941009521484375 1534.4000244140625C-16.286819458007812 1544.5999755859375 -15.7318115234375 1545.3599853515625 -13.1649169921875 1546.5799560546875Z" fill="black" /></g></svg>