<?xml version="1.0" encoding="utf-8" ?>
<svg baseProfile="tiny" height="100%" version="1.2" width="100%" xmlns="http://www.w3.org/2000/svg" xmlns:ev="http://www.w3.org/2001/xml-events" xmlns:xlink="http://www.w3.org/1999/xlink"><defs /><g transform="translate(0, 1000) scale(1, -1)"><path d="M-11.49139404296875 10628.2001953125C-10.891494750976562 10628.2998046875 -10.278305053710938 10628.400390625 -9.663131713867188 10628.400390625C-6.094970703125 10628.400390625 -2.4641571044921875 10626.5 -1.0269775390625 10623.7998046875C-0.396759033203125 10622.599609375 0.0 10621.5 0.0 10620.099609375C0.0 10616.2998046875 -3.1092071533203125 10610.2998046875 -12.910293579101562 10592.7998046875C-570.9820098876953 9593.4599609375 -891.4770050048828 8447.16015625 -953.1100006103516 7230.990234375C-960.4080352783203 7086.64990234375 -964.0420074462891 6941.5 -964.0420074462891 6795.77001953125C-964.0420074462891 5763.7998046875 -781.8400421142578 4701.97998046875 -428.1160125732422 3682.85009765625C-385.4610137939453 3559.93994140625 -365.1530303955078 3493.9599609375 -339.5240020751953 3394.6298828125C-272.3190155029297 3134.06005859375 -239.39401245117188 2869.93994140625 -239.39401245117188 2607.6201171875C-239.39401245117188 1823.2099609375 -533.8260192871094 1054.949951171875 -1086.4900207519531 446.0660400390625C-1234.8500061035156 282.53802490234375 -1433.0500793457031 104.46603393554688 -1592.2400207519531 -8.514236450195312C-1594.6300354003906 -10.1104736328125 -1596.4900207519531 -11.706771850585938 -1596.4900207519531 -12.06146240234375C-1596.4900207519531 -12.416168212890625 -1594.6300354003906 -14.012466430664062 -1592.2400207519531 -15.6087646484375C-1581.2400207519531 -23.412673950195312 -1534.2400207519531 -58.88526916503906 -1514.0200500488281 -74.58187866210938C-707.4600524902344 -701.5209655761719 -239.36502075195312 -1644.7699890136719 -239.36502075195312 -2629.100067138672C-239.36502075195312 -2677.469940185547 -240.4960174560547 -2725.949920654297 -242.7720184326172 -2774.489959716797C-257.76002502441406 -3093.120086669922 -313.98301696777344 -3378.580047607422 -424.1260223388672 -3695.439910888672C-780.2540435791016 -4719.549774169922 -961.7020416259766 -5776.680145263672 -961.7020416259766 -6805.100067138672C-961.7020416259766 -7189.790008544922 -936.3130035400391 -7570.470184326172 -885.1800079345703 -7943.899871826172C-755.1729888916016 -8893.769500732422 -463.58900451660156 -9781.469696044922 -17.787734985351562 -10584.200164794922C-3.938934326171875 -10608.999969482422 -0.027984619140625 -10616.400360107422 -0.027984619140625 -10620.499969482422C-0.027984619140625 -10621.799774169922 -0.4262847900390625 -10622.799774169922 -1.027008056640625 -10623.900360107422C-2.588836669921875 -10626.900360107422 -5.887664794921875 -10628.400360107422 -9.173309326171875 -10628.400360107422C-12.230728149414062 -10628.400360107422 -15.276626586914062 -10627.099578857422 -16.900924682617188 -10624.499969482422C-27.276626586914062 -10607.900360107422 -100.35003662109375 -10473.900360107422 -137.06402587890625 -10404.200164794922C-552.4480285644531 -9615.009735107422 -843.3230285644531 -8788.769500732422 -1012.5300598144531 -7917.120086669922C-1057.2200012207031 -7687.169891357422 -1098.3700256347656 -7406.399871826172 -1121.1600646972656 -7177.519989013672C-1122.1400451660156 -7167.490203857422 -1123.5600891113281 -7154.720184326172 -1124.2700500488281 -7149.140106201172C-1133.6700744628906 -7076.330047607422 -1150.6000061035156 -6843.009735107422 -1157.5200500488281 -6691.540008544922C-1163.2500305175781 -6565.640106201172 -1166.1000061035156 -6439.709930419922 -1166.1000061035156 -6313.870086669922C-1166.1000061035156 -5393.169891357422 -1013.3200378417969 -4477.490203857422 -714.8230285644531 -3615.629852294922C-644.3220520019531 -3412.100067138672 -606.6320495605469 -3278.729949951172 -569.9180603027344 -3103.229949951172C-518.9680480957031 -2859.219940185547 -494.1910400390625 -2616.229949951172 -494.1910400390625 -2378.399871826172C-494.1910400390625 -1424.0299987792969 -893.1870422363281 -552.8189392089844 -1601.1000061035156 -32.812957763671875C-1615.6500549316406 -22.126754760742188 -1622.9200744628906 -17.094161987304688 -1622.9200744628906 -12.061447143554688C-1622.9200744628906 -7.02880859375 -1615.6500549316406 -1.9961395263671875 -1601.1000061035156 8.689971923828125C-899.7380065917969 523.9080505371094 -494.2160339355469 1391.7700500488281 -494.2160339355469 2351.860137939453C-494.2160339355469 2439.649932861328 -497.60601806640625 2528.209991455078 -504.4710388183594 2617.340118408203C-529.3910217285156 2941.470001220703 -592.7980041503906 3239.620147705078 -706.7530212402344 3568.010040283203C-994.3470153808594 4397.000030517578 -1142.2700500488281 5215.879913330078 -1166.5699768066406 6114.049835205078C-1167.3600158691406 6142.290069580078 -1167.7600402832031 6221.839874267578 -1167.7600402832031 6301.390167236328C-1167.7600402832031 6380.930206298828 -1167.3600158691406 6460.480010986328 -1166.5699768066406 6488.730010986328C-1161.6899719238281 6669.899932861328 -1154.3299865722656 6813.830108642578 -1142.0000305175781 6969.819854736328C-1137.5699768066406 7025.600128173828 -1127.9000549316406 7132.730010986328 -1126.9300842285156 7137.160186767578C-1126.6600646972656 7138.319854736328 -1125.0600891113281 7152.859893798828 -1123.3800354003906 7169.529815673828C-1003.8400573730469 8336.759796142578 -638.7350158691406 9495.910186767578 -58.669952392578125 10549.400421142578C-16.989654541015625 10625.200225830078 -15.659454345703125 10627.400421142578 -11.491455078125 10628.200225830078Z" fill="black" /></g></svg>