<?xml version="1.0" encoding="utf-8" ?>
<svg baseProfile="tiny" height="100%" version="1.2" width="100%" xmlns="http://www.w3.org/2000/svg" xmlns:ev="http://www.w3.org/2001/xml-events" xmlns:xlink="http://www.w3.org/1999/xlink"><defs /><g transform="translate(0, 1000) scale(1, -1)"><path d="M-14.44720458984375 1185.97998046875C-13.60650634765625 1186.239990234375 -12.770294189453125 1186.3599853515625 -11.95379638671875 1186.3599853515625C-6.91510009765625 1186.3599853515625 -2.6243438720703125 1181.8499755859375 -2.6243438720703125 1177.010009765625C-2.6243438720703125 1175.72998046875 -2.9254150390625 1174.4300537109375 -3.5933685302734375 1173.1800537109375L-8.253448486328125 1164.6300048828125C-63.72709655761719 1063.280029296875 -91.54269409179688 945.1329956054688 -91.54269409179688 814.375C-91.54269409179688 705.2160034179688 -72.1571044921875 587.2670288085938 -33.29400634765625 462.96099853515625C-30.285598754882812 453.34600830078125 -23.561004638671875 433.0840148925781 -17.780105590820312 416.06500244140625C-5.8921051025390625 381.17498779296875 0.0 345.2749938964844 0.0 309.4110107421875C0.0 250.95700073242188 -15.652297973632812 192.6009979248047 -46.50750732421875 138.87899780273438C-75.17579650878906 88.94509887695312 -117.677001953125 41.81329345703125 -170.4720001220703 1.4062042236328125C-172.3300018310547 -0.03900146484375 -173.86300659179688 -1.3072662353515625 -173.86300659179688 -1.42523193359375C-173.86300659179688 -1.543212890625 -172.3300018310547 -2.81146240234375 -170.4720001220703 -4.256683349609375C-117.677001953125 -44.66380310058594 -75.17579650878906 -91.79550170898438 -46.50750732421875 -141.72900390625C-15.652297973632812 -195.45199584960938 0.0 -253.8070068359375 0.0 -312.260986328125C0.0 -348.125 -5.8921051025390625 -384.0260009765625 -17.780105590820312 -418.9159851074219C-41.28700256347656 -487.90301513671875 -54.70680236816406 -535.9190063476562 -67.389404296875 -596.323974609375C-83.36039733886719 -672.4500122070312 -91.30909729003906 -745.7340087890625 -91.30909729003906 -815.4559936523438C-91.30909729003906 -945.9539794921875 -63.46330261230469 -1063.97998046875 -8.253448486328125 -1164.8199462890625C-6.100372314453125 -1168.719970703125 -4.00628662109375 -1172.550048828125 -3.5933685302734375 -1173.3800048828125C-2.8998565673828125 -1174.6700439453125 -2.58221435546875 -1176.030029296875 -2.58221435546875 -1177.3599853515625C-2.58221435546875 -1182.030029296875 -6.490936279296875 -1186.3599853515625 -11.792800903320312 -1186.3599853515625C-16.806793212890625 -1186.3599853515625 -17.898101806640625 -1185.2900390625 -23.76739501953125 -1174.6800537109375C-103.31300354003906 -1030.8599853515625 -151.4770050048828 -888.4929809570312 -167.0500030517578 -751.3159790039062C-169.3800048828125 -730.8170166015625 -170.50100708007812 -716.2470092773438 -171.9759979248047 -688.051025390625C-172.29100036621094 -682.041015625 -172.47799682617188 -664.1790161132812 -172.47799682617188 -648.9169921875C-172.47799682617188 -639.9119873046875 -172.41299438476562 -631.81201171875 -172.27099609375 -627.5880126953125C-169.29200744628906 -540.9920043945312 -155.51800537109375 -466.135986328125 -127.468994140625 -384.1130065917969C-107.7860107421875 -326.5539855957031 -97.98429870605469 -273.27899169921875 -97.98429870605469 -223.63999938964844C-97.98429870605469 -208.41799926757812 -98.90609741210938 -193.53700256347656 -100.74700927734375 -178.97999572753906C-109.802001953125 -107.04400634765625 -142.71800231933594 -47.170806884765625 -193.77200317382812 -9.7720947265625C-197.1929931640625 -7.2650909423828125 -198.9040069580078 -4.34515380859375 -198.9040069580078 -1.42523193359375C-198.9040069580078 1.4947052001953125 -197.1929931640625 4.4146270751953125 -193.77200317382812 6.921630859375C-142.71800231933594 44.32029724121094 -109.802001953125 104.19400024414062 -100.74700927734375 176.1300048828125C-98.908203125 190.6699981689453 -97.98800659179688 205.53799438476562 -97.98800659179688 220.74899291992188C-97.98800659179688 270.4230041503906 -107.802001953125 323.7510070800781 -127.468994140625 381.2619934082031C-133.51499938964844 398.9289855957031 -137.05499267578125 410.0190124511719 -140.9770050048828 423.7040100097656C-162.28700256347656 498.0840148925781 -172.92799377441406 574.1389770507812 -172.92799377441406 651.698974609375C-172.92799377441406 819.322998046875 -123.22799682617188 993.9739990234375 -24.121307373046875 1173.9200439453125C-18.635406494140625 1183.8599853515625 -17.750595092773438 1184.97998046875 -14.44720458984375 1185.97998046875Z" fill="black" /></g></svg>