<?xml version="1.0" encoding="utf-8" ?>
<svg baseProfile="tiny" height="100%" version="1.2" width="100%" xmlns="http://www.w3.org/2000/svg" xmlns:ev="http://www.w3.org/2001/xml-events" xmlns:xlink="http://www.w3.org/1999/xlink"><defs /><g transform="translate(0, 1000) scale(1, -1)"><path d="M-19.552093505859375 697.0579833984375C-18.98260498046875 697.156005859375 -18.421096801757812 697.2039794921875 -17.87139892578125 697.2039794921875C-12.820693969726562 697.2039794921875 -8.770172119140625 693.2230224609375 -8.770172119140625 688.2230224609375C-8.770172119140625 687.7440185546875 -8.80743408203125 687.2550048828125 -8.884628295898438 686.7589721679688C-9.136764526367188 685.0910034179688 -9.330734252929688 684.6840209960938 -12.278793334960938 679.3309936523438C-33.361602783203125 641.0830078125 -47.966400146484375 594.3790283203125 -53.86259460449219 546.375C-56.03379821777344 528.719970703125 -57.11309814453125 510.29998779296875 -57.11309814453125 491.20098876953125C-57.11309814453125 418.1709899902344 -41.332000732421875 335.22100830078125 -10.47509765625 247.2010040283203C-3.7757415771484375 228.06300354003906 -0.0710906982421875 205.4040069580078 -0.0710906982421875 184.2830047607422C-0.0710906982421875 181.06700134277344 -0.156982421875 177.88600158691406 -0.331268310546875 174.75999450683594C-3.7060546875 114.76998901367188 -32.8572998046875 61.41279602050781 -88.11480712890625 14.146194458007812C-93.739501953125 9.336151123046875 -103.96099853515625 1.0349273681640625 -106.05599975585938 -0.4391326904296875L-106.52099609375 -0.76885986328125L-106.05599975585938 -1.09857177734375C-100.06199645996094 -5.307373046875 -83.69270324707031 -19.2720947265625 -73.97560119628906 -28.484893798828125C-25.3367919921875 -74.59770202636719 0.0 -129.4929962158203 0.0 -185.9199981689453C0.0 -207.48199462890625 -3.69952392578125 -229.26800537109375 -11.21209716796875 -250.8730010986328C-34.71929931640625 -318.4070129394531 -49.459808349609375 -383.51800537109375 -54.832305908203125 -443.468994140625C-56.2615966796875 -459.37799072265625 -56.97210693359375 -475.0270080566406 -56.97210693359375 -490.37298583984375C-56.97210693359375 -562.2860107421875 -41.36900329589844 -627.541015625 -10.998703002929688 -681.6640014648438C-9.253143310546875 -684.7670288085938 -9.136764526367188 -685.0770263671875 -8.865234375 -686.7650146484375C-8.791397094726562 -687.2479858398438 -8.755889892578125 -687.7230224609375 -8.755889892578125 -688.1890258789062C-8.755889892578125 -693.2940063476562 -13.028305053710938 -697.2039794921875 -17.851303100585938 -697.2039794921875C-19.171798706054688 -697.2039794921875 -20.53350830078125 -696.9099731445312 -21.860198974609375 -696.2680053710938C-24.12939453125 -695.1439819335938 -24.88580322265625 -694.1740112304688 -28.59039306640625 -687.4630126953125C-48.17970275878906 -652.0659790039062 -64.4136962890625 -618.0859985351562 -77.83529663085938 -584.3759765625C-107.1820068359375 -510.6510009765625 -121.74299621582031 -440.68798828125 -121.74299621582031 -372.6289978027344C-121.74299621582031 -345.0580139160156 -119.35400390625 -317.79998779296875 -114.58999633789062 -290.7300109863281C-110.5360107421875 -267.6499938964844 -105.29901123046875 -247.63400268554688 -96.26089477539062 -220.61599731445312C-84.42970275878906 -185.25799560546875 -79.522705078125 -162.41000366210938 -77.31159973144531 -132.46400451660156C-77.14669799804688 -130.1750030517578 -77.06430053710938 -124.83599853515625 -77.06430053710938 -119.55099487304688C-77.06430053710938 -114.2659912109375 -77.14669799804688 -109.03399658203125 -77.31159973144531 -106.95899963378906C-80.84159851074219 -63.454803466796875 -96.59060668945312 -31.374801635742188 -125.10198974609375 -9.671340942382812C-129.23300170898438 -6.5098876953125 -130.2220001220703 -5.1716156005859375 -130.68800354003906 -2.165313720703125C-130.78700256347656 -1.5266265869140625 -130.83900451660156 -0.9291839599609375 -130.83900451660156 -0.361602783203125C-130.83900451660156 2.74200439453125 -129.26699829101562 4.9526519775390625 -125.10198974609375 8.133636474609375C-96.59060668945312 29.83709716796875 -80.84159851074219 61.91709899902344 -77.31159973144531 105.42098999023438C-77.14669799804688 107.49600219726562 -77.06430053710938 112.72799682617188 -77.06430053710938 118.01300048828125C-77.06430053710938 123.29901123046875 -77.14669799804688 128.63699340820312 -77.31159973144531 130.92599487304688C-79.522705078125 160.9499969482422 -84.42970275878906 183.7010040283203 -96.35791015625 219.36900329589844C-106.79299926757812 250.5570068359375 -112.30099487304688 272.8999938964844 -116.60699462890625 301.4110107421875C-120.12600708007812 324.6789855957031 -121.89300537109375 348.14599609375 -121.89300537109375 371.8789978027344C-121.89300537109375 470.8380126953125 -91.16529846191406 574.4199829101562 -28.59039306640625 687.4769897460938C-24.362197875976562 695.1190185546875 -23.10150146484375 696.4569702148438 -19.552093505859375 697.0579833984375Z" fill="black" /></g></svg>