<?xml version="1.0" encoding="utf-8" ?>
<svg baseProfile="tiny" height="100%" version="1.2" width="100%" xmlns="http://www.w3.org/2000/svg" xmlns:ev="http://www.w3.org/2001/xml-events" xmlns:xlink="http://www.w3.org/1999/xlink"><defs /><g transform="translate(0, 1000) scale(1, -1)"><path d="M-15.341995239257812 11206.7001953125C-13.691787719726562 11208.099609375 -11.618179321289062 11208.7998046875 -9.514266967773438 11208.7998046875C-7.0870819091796875 11208.7998046875 -4.61968994140625 11207.900390625 -2.71588134765625 11206.0C-1.052520751953125 11204.400390625 1.52587890625e-05 11203.099609375 1.52587890625e-05 11201.0C1.52587890625e-05 11196.7001953125 -4.126739501953125 11189.099609375 -15.809677124023438 11168.2001953125C-617.0009613037109 10090.0 -957.3459930419922 8849.6201171875 -1011.4999847412109 7540.14990234375C-1017.2999725341797 7398.35986328125 -1018.8899993896484 7316.0498046875 -1018.8899993896484 7156.68017578125C-1018.8899993896484 6997.60009765625 -1017.2999725341797 6912.580078125 -1011.4999847412109 6769.9501953125C-972.4969940185547 5813.919921875 -780.8599700927734 4817.56982421875 -456.4149932861328 3885.110107421875C-367.0029754638672 3628.2900390625 -317.71498107910156 3426.360107421875 -285.35398864746094 3184.590087890625C-265.75999450683594 3038.429931640625 -256.1169891357422 2892.169921875 -256.1169891357422 2746.639892578125C-256.1169891357422 1791.1800537109375 -671.7570037841797 866.9010009765625 -1415.6299896240234 204.35601806640625C-1494.939926147461 133.65000915527344 -1615.6800384521484 36.28851318359375 -1682.550033569336 -10.94268798828125L-1684.8899993896484 -12.626083374023438L-1682.550033569336 -14.216079711914062C-1659.449935913086 -30.489791870117188 -1575.0899505615234 -95.49098205566406 -1539.9300384521484 -124.01698303222656C-714.5369720458984 -794.9199371337891 -256.1549835205078 -1767.8699493408203 -256.1549835205078 -2772.850051879883C-256.1549835205078 -3049.219924926758 -290.81898498535156 -3327.999954223633 -362.04698181152344 -3603.590042114258C-390.19798278808594 -3712.550003051758 -409.55799865722656 -3775.219924926758 -460.8109893798828 -3923.459915161133C-827.7180023193359 -4984.080032348633 -1016.4499969482422 -6086.779739379883 -1016.4499969482422 -7170.229934692383C-1016.4499969482422 -7183.490188598633 -1016.4199676513672 -7196.740188598633 -1016.3599700927734 -7209.990188598633C-1015.8899993896484 -7327.089797973633 -1015.4299774169922 -7355.990188598633 -1012.9000091552734 -7441.470169067383C-973.1519622802734 -8788.360305786133 -632.1519622802734 -10062.999954223633 -15.903182983398438 -11167.999954223633C-4.1482086181640625 -11188.999954223633 -0.003509521484375 -11196.700149536133 -0.003509521484375 -11200.999954223633C-0.003509521484375 -11203.099563598633 -1.0552978515625 -11204.400344848633 -2.71588134765625 -11205.999954223633C-4.61968994140625 -11207.900344848633 -7.0870819091796875 -11208.799758911133 -9.514266967773438 -11208.799758911133C-11.618179321289062 -11208.799758911133 -13.691787719726562 -11208.099563598633 -15.34197998046875 -11206.700149536133C-18.241378784179688 -11203.999954223633 -62.10548400878906 -11125.099563598633 -105.87599182128906 -11043.700149536133C-677.8869781494141 -9980.259719848633 -1043.3899688720703 -8813.799758911133 -1171.8000030517578 -7642.560012817383C-1201.9199981689453 -7368.339797973633 -1216.9799346923828 -7142.279739379883 -1224.3699493408203 -6855.529739379883C-1225.4599151611328 -6812.089797973633 -1225.9899444580078 -6747.850051879883 -1225.9899444580078 -6679.979934692383C-1225.9899444580078 -6591.330032348633 -1225.0799102783203 -6496.490188598633 -1223.3399200439453 -6433.720169067383C-1197.8999786376953 -5518.649856567383 -1040.2099151611328 -4654.930130004883 -739.9889678955078 -3787.379837036133C-592.4029693603516 -3360.889846801758 -522.1649322509766 -2967.610061645508 -517.5819244384766 -2542.999954223633C-517.4449615478516 -2530.279983520508 -517.3759307861328 -2517.580032348633 -517.3759307861328 -2504.889846801758C-517.3759307861328 -1487.5299835205078 -957.2399444580078 -562.9799346923828 -1698.7299346923828 -26.281082153320312C-1707.0600128173828 -20.248580932617188 -1711.2199249267578 -16.437393188476562 -1711.2199249267578 -12.626083374023438C-1711.2199249267578 -8.814910888671875 -1707.0600128173828 -5.0036773681640625 -1698.7299346923828 1.02880859375C-1040.8699493408203 477.17498779296875 -615.1309356689453 1263.550048828125 -532.7329254150391 2154.860107421875C-522.3139801025391 2267.300048828125 -517.0889434814453 2379.3701171875 -517.0889434814453 2491.35009765625C-517.0889434814453 2912.06005859375 -590.8509674072266 3331.260009765625 -739.9889678955078 3762.1201171875C-898.4239654541016 4219.66015625 -1013.6499786376953 4661.85009765625 -1095.7699737548828 5127.14990234375C-1184.2299346923828 5628.7900390625 -1228.6999053955078 6139.85009765625 -1228.6999053955078 6652.990234375C-1228.6999053955078 6841.2998046875 -1222.7099151611328 7029.89990234375 -1210.7099151611328 7218.41015625C-1205.8499298095703 7294.4501953125 -1195.5600128173828 7428.75 -1193.8799591064453 7437.72998046875C-1193.6898956298828 7439.0400390625 -1192.5699005126953 7449.7998046875 -1191.5399932861328 7461.580078125C-1078.9300079345703 8715.2197265625 -694.1609649658203 9968.5703125 -73.23518371582031 11103.900390625C-36.198486328125 11171.5 -17.586685180664062 11204.5 -15.34197998046875 11206.7001953125Z" fill="black" /></g></svg>