<?xml version="1.0" encoding="utf-8" ?>
<svg baseProfile="tiny" height="100%" version="1.2" width="100%" xmlns="http://www.w3.org/2000/svg" xmlns:ev="http://www.w3.org/2001/xml-events" xmlns:xlink="http://www.w3.org/1999/xlink"><defs /><g transform="translate(0, 1000) scale(1, -1)"><path d="M-19.674407958984375 626.77001953125C-19.1278076171875 626.875 -18.584197998046875 626.926025390625 -18.048599243164062 626.926025390625C-13.277496337890625 626.926025390625 -9.139144897460938 622.9080200195312 -9.139144897460938 617.8189697265625C-9.139144897460938 615.4340209960938 -9.2784423828125 615.0679931640625 -12.047195434570312 610.0180053710938C-38.620208740234375 561.4749755859375 -51.91090393066406 506.3450012207031 -51.91090393066406 443.4849853515625C-51.91090393066406 378.39898681640625 -37.662506103515625 305.0249938964844 -9.15655517578125 222.093994140625C-3.0709228515625 204.38800048828125 0.0 185.375 0.0 166.3730010986328C0.0 152.3159942626953 -1.6805267333984375 138.26499938964844 -5.0643463134765625 124.75199890136719C-16.557403564453125 78.86650085449219 -44.90679931640625 39.320098876953125 -93.50830078125 1.3757171630859375C-94.90139770507812 0.29608154296875 -96.03329467773438 -0.644256591796875 -96.03329467773438 -0.7139129638671875C-96.03329467773438 -0.7835693359375 -94.90139770507812 -1.723907470703125 -93.50830078125 -2.803558349609375C-44.90679931640625 -40.747894287109375 -16.557403564453125 -80.29440307617188 -5.0643463134765625 -126.17900085449219C-1.6805267333984375 -139.69200134277344 0.0 -153.74400329589844 0.0 -167.80099487304688C0.0 -186.80299377441406 -3.0709228515625 -205.81500244140625 -9.15655517578125 -223.52200317382812C-31.742095947265625 -289.2409973144531 -44.349609375 -343.6929931640625 -49.53880310058594 -397.7449951171875C-51.0133056640625 -413.1659851074219 -51.7489013671875 -428.2510070800781 -51.7489013671875 -442.97900390625C-51.7489013671875 -505.65399169921875 -38.42869567871094 -561.8720092773438 -12.047195434570312 -610.052978515625C-9.2784423828125 -615.10302734375 -9.139144897460938 -615.468017578125 -9.139144897460938 -617.85400390625C-9.139144897460938 -623.3519897460938 -13.56219482421875 -626.926025390625 -18.175201416015625 -626.926025390625C-20.5028076171875 -626.926025390625 -22.878692626953125 -626.0159912109375 -24.759201049804688 -623.9840087890625C-25.682098388671875 -622.9559936523438 -28.259307861328125 -618.4810180664062 -34.17999267578125 -607.4929809570312C-87.37890625 -508.7749938964844 -113.50100708007812 -418.71600341796875 -113.50100708007812 -332.93701171875C-113.50100708007812 -312.52398681640625 -112.02200317382812 -292.35400390625 -109.07598876953125 -272.36700439453125C-105.20999145507812 -246.05499267578125 -100.23001098632812 -225.75100708007812 -90.72219848632812 -197.31399536132812C-80.88339233398438 -167.90199279785156 -76.373291015625 -148.4340057373047 -74.0050048828125 -125.135009765625C-73.33859252929688 -118.53799438476562 -73.0087890625 -112.09600830078125 -73.0087890625 -105.82901000976562C-73.0087890625 -63.951995849609375 -87.73100280761719 -29.85980224609375 -115.10099792480469 -9.351089477539062C-119.29800415039062 -6.19921875 -120.41200256347656 -4.3881988525390625 -120.41200256347656 -0.7139129638671875C-120.41200256347656 2.9603729248046875 -119.29800415039062 4.771392822265625 -115.10099792480469 7.9232635498046875C-87.73100280761719 28.4320068359375 -73.0087890625 62.524200439453125 -73.0087890625 104.4010009765625C-73.0087890625 110.66799926757812 -73.33859252929688 117.11000061035156 -74.0050048828125 123.70700073242188C-76.373291015625 146.98899841308594 -80.88339233398438 166.47500610351562 -90.72219848632812 195.88600158691406C-98.15780639648438 218.12399291992188 -102.63299560546875 234.718994140625 -106.11599731445312 253.08999633789062C-111.10198974609375 279.33099365234375 -113.61399841308594 305.72900390625 -113.61399841308594 332.4649963378906C-113.61399841308594 421.427001953125 -85.79989624023438 514.14599609375 -28.746902465820312 617.3670043945312C-24.637298583984375 624.802001953125 -23.470596313476562 626.0390014648438 -19.674407958984375 626.77001953125Z" fill="black" /></g></svg>