<?xml version="1.0" encoding="utf-8" ?>
<svg baseProfile="tiny" height="100%" version="1.2" width="100%" xmlns="http://www.w3.org/2000/svg" xmlns:ev="http://www.w3.org/2001/xml-events" xmlns:xlink="http://www.w3.org/1999/xlink"><defs /><g transform="translate(0, 1000) scale(1, -1)"><path d="M-12.137802124023438 8649.759765625C-11.146621704101562 8650.0498046875 -10.151016235351562 8650.1904296875 -9.179351806640625 8650.1904296875C-6.012451171875 8650.1904296875 -3.0993499755859375 8648.7197265625 -1.4221343994140625 8646.1103515625C-0.57135009765625 8644.830078125 -0.0046234130859375 8643.7900390625 -0.0046234130859375 8642.26953125C-0.0046234130859375 8638.26953125 -3.9123382568359375 8631.01953125 -16.846221923828125 8607.7900390625C-483.7070007324219 7765.72021484375 -740.3140258789062 6805.2099609375 -773.1110229492188 5777.31982421875C-775.302978515625 5708.56005859375 -775.708984375 5684.3701171875 -776.114013671875 5585.740234375C-776.1599731445312 5575.08984375 -776.1829833984375 5564.43994140625 -776.1829833984375 5553.7900390625C-776.1829833984375 4698.669921875 -628.0919799804688 3843.719970703125 -332.06500244140625 2989.6298828125C-240.9010009765625 2726.530029296875 -198.36300659179688 2505.56005859375 -185.29299926757812 2226.949951171875C-184.072998046875 2200.89990234375 -183.48399353027344 2172.22998046875 -183.48399353027344 2142.030029296875C-183.48399353027344 2049.659912109375 -189.0 1943.0 -198.85000610351562 1853.1199951171875C-278.2430114746094 1129.3299560546875 -670.0130004882812 457.8170166015625 -1275.8499755859375 7.19140625C-1287.739990234375 -1.7010345458984375 -1297.3699951171875 -9.22491455078125 -1297.3699951171875 -9.608230590820312V-9.6126708984375C-1297.199951171875 -10.018569946289062 -1284.300048828125 -19.92236328125 -1268.7099609375 -31.612167358398438C-665.1430053710938 -484.83494567871094 -277.9179992675781 -1150.9100189208984 -198.85000610351562 -1872.189926147461C-189.0 -1962.060043334961 -183.48399353027344 -2068.719955444336 -183.48399353027344 -2161.100082397461C-183.48399353027344 -2191.290023803711 -184.072998046875 -2219.959945678711 -185.29299926757812 -2246.020004272461C-198.11900329589844 -2520.399887084961 -241.30599975585938 -2747.219955444336 -328.7359924316406 -2999.030014038086C-504.57000732421875 -3505.999984741211 -626.4199829101562 -4002.570053100586 -698.344970703125 -4505.640121459961C-749.4439697265625 -4862.959945678711 -774.8209838867188 -5215.990219116211 -774.8209838867188 -5562.629867553711C-774.8209838867188 -6665.950180053711 -517.7239990234375 -7704.560043334961 -14.654296875 -8611.190414428711C-4.464263916015625 -8629.570297241211 0.0 -8638.339828491211 0.0 -8643.110336303711C0.0 -8646.469711303711 -2.217803955078125 -8647.839828491211 -6.2116851806640625 -8649.179672241211C-7.8701324462890625 -8649.749984741211 -9.168136596679688 -8650.190414428711 -10.376495361328125 -8650.190414428711C-14.728302001953125 -8650.190414428711 -17.918106079101562 -8644.459945678711 -32.59489440917969 -8618.089828491211C-514.3119964599609 -7754.100082397461 -817.4349822998047 -6810.470199584961 -921.6689910888672 -5850.370101928711C-923.4550018310547 -5833.649887084961 -925.4839935302734 -5815.379867553711 -926.1329803466797 -5809.779769897461C-939.3660125732422 -5693.450180053711 -953.1660003662109 -5486.850082397461 -958.1989593505859 -5331.229965209961C-960.3909759521484 -5263.529769897461 -960.7159881591797 -5239.819808959961 -961.2029876708984 -5148.979965209961C-961.2549896240234 -5138.049789428711 -961.2819671630859 -5127.120101928711 -961.2819671630859 -5116.189926147461C-961.2819671630859 -4368.240219116211 -838.1030120849609 -3630.919906616211 -596.9520111083984 -2935.629867553711C-547.9199676513672 -2794.459945678711 -519.2639617919922 -2697.050033569336 -492.63697814941406 -2581.290023803711C-441.1599884033203 -2357.699935913086 -416.13197326660156 -2135.489974975586 -416.13197326660156 -1919.0899505615234C-416.13197326660156 -1145.479965209961 -735.9799652099609 -446.1379852294922 -1310.759994506836 -23.981369018554688C-1319.8499603271484 -17.324676513671875 -1324.4000091552734 -13.428070068359375 -1324.4000091552734 -9.531478881835938C-1324.4000091552734 -5.6348724365234375 -1319.8499603271484 -1.73828125 -1310.759994506836 4.91839599609375C-736.6869964599609 426.23602294921875 -416.15599060058594 1125.7500610351562 -416.15599060058594 1900.1400756835938C-416.15599060058594 2102.3301391601562 -438.00498962402344 2309.6101684570312 -482.8949737548828 2518.3899536132812C-510.9829864501953 2649.0000610351562 -542.1559906005859 2758.3501586914062 -593.2989959716797 2906.0200805664062C-839.2589569091797 3615.8899536132812 -963.5070037841797 4355.810119628906 -963.5070037841797 5106.480041503906C-963.5070037841797 5278.460021972656 -956.9860076904297 5451.009826660156 -943.9119720458984 5623.890197753906C-939.1219940185547 5687.620178222656 -928.6500091552734 5803.950256347656 -926.9449920654297 5812.629943847656C-926.7020111083984 5813.770080566406 -925.0779876708984 5828.549865722656 -923.2919769287109 5845.509826660156C-821.5749969482422 6800.910217285156 -511.7949981689453 7762.480041503906 -26.506484985351562 8629.549865722656C-16.034378051757812 8648.219787597656 -15.62847900390625 8648.790100097656 -12.137786865234375 8649.759826660156Z" fill="black" /></g></svg>