<?xml version="1.0" encoding="utf-8" ?>
<svg baseProfile="tiny" height="100%" version="1.2" width="100%" xmlns="http://www.w3.org/2000/svg" xmlns:ev="http://www.w3.org/2001/xml-events" xmlns:xlink="http://www.w3.org/1999/xlink"><defs /><g transform="translate(0, 1000) scale(1, -1)"><path d="M-11.612396240234375 3411.739990234375C-10.75799560546875 3411.8798828125 -9.935333251953125 3411.9599609375 -9.150054931640625 3411.9599609375C-3.70123291015625 3411.9599609375 -0.0501556396484375 3408.530029296875 -0.0501556396484375 3403.139892578125C-0.0501556396484375 3403.070068359375 -0.050689697265625 3403.0 -0.0517578125 3402.93994140625C-0.0517578125 3399.56005859375 -0.1029205322265625 3399.510009765625 -7.7758941650390625 3385.75C-193.72300720214844 3051.610107421875 -287.3070068359375 2661.800048828125 -287.3070068359375 2244.840087890625C-287.3070068359375 1906.3699951171875 -225.63699340820312 1550.010009765625 -101.64199829101562 1191.02001953125C-71.41049194335938 1103.449951171875 -54.5299072265625 1025.800048828125 -47.82890319824219 942.9290161132812C-45.32240295410156 912.5960083007812 -44.50390625 892.1849975585938 -44.50390625 861.083984375C-44.50390625 828.7039794921875 -45.629302978515625 802.77001953125 -48.34039306640625 772.5889892578125C-72.84280395507812 497.89599609375 -215.2530059814453 237.37298583984375 -446.8240051269531 43.55339050292969C-463.5 29.588577270507812 -490.6619873046875 8.206527709960938 -503.9110107421875 -1.3591156005859375C-505.8550109863281 -2.7402496337890625 -506.8269958496094 -3.328521728515625 -506.8269958496094 -3.916778564453125C-506.8269958496094 -4.5050506591796875 -505.8550109863281 -5.0933074951171875 -503.9110107421875 -6.4744415283203125C-440.5830078125 -52.30772399902344 -367.9460144042969 -119.06301879882812 -312.0350036621094 -182.95301818847656C-137.552001953125 -382.1950225830078 -44.50390625 -620.8250274658203 -44.50390625 -868.9180450439453C-44.50390625 -900.0189971923828 -45.32240295410156 -920.4290313720703 -47.82890319824219 -950.7630157470703C-54.5299072265625 -1033.6300201416016 -71.41049194335938 -1111.280044555664 -101.64199829101562 -1198.8600006103516C-225.06500244140625 -1556.229995727539 -286.4320068359375 -1911.510025024414 -286.4320068359375 -2248.909927368164C-286.4320068359375 -2666.350112915039 -192.4980010986328 -3056.419937133789 -5.93438720703125 -3389.240005493164C-0.1540679931640625 -3399.570083618164 -0.0517578125 -3399.770034790039 -0.0006103515625 -3403.100112915039C-0.0001983642578125 -3403.149917602539 0.0 -3403.189956665039 0.0 -3403.240005493164C0.0 -3408.879898071289 -3.16766357421875 -3411.949966430664 -9.003585815429688 -3411.949966430664L-10.104400634765625 -3411.959976196289C-15.012603759765625 -3411.959976196289 -15.533401489257812 -3410.699966430664 -36.52400207519531 -3372.360122680664C-248.5030059814453 -2984.669937133789 -376.2330017089844 -2564.240005493164 -405.3389892578125 -2158.229995727539C-409.9830017089844 -2093.419937133789 -412.3089904785156 -2029.1600494384766 -412.3089904785156 -1965.4000396728516C-412.3089904785156 -1682.250015258789 -366.4440002441406 -1408.969985961914 -274.1310119628906 -1140.800064086914C-252.4929962158203 -1077.8299713134766 -240.677001953125 -1037.010025024414 -228.86000061035156 -983.8590240478516C-208.85800170898438 -893.9669952392578 -199.10299682617188 -805.4980010986328 -199.10299682617188 -720.0860137939453C-199.10299682617188 -428.91600036621094 -312.468994140625 -173.2670135498047 -519.7169799804688 -17.830413818359375C-531.4829711914062 -9.0321044921875 -531.8920288085938 -8.571731567382812 -531.8920288085938 -3.916778564453125C-531.8920288085938 0.7381591796875 -531.4829711914062 1.19854736328125 -519.7169799804688 9.996902465820312C-311.18798828125 166.38497924804688 -198.98199462890625 423.8559875488281 -198.98199462890625 713.1099853515625C-198.98199462890625 841.5689697265625 -221.11300659179688 976.2969970703125 -266.7650146484375 1111.219970703125C-291.6759948730469 1184.8299560546875 -296.02398681640625 1198.1300048828125 -306.10101318359375 1231.68994140625C-377.50201416015625 1469.3399658203125 -413.08099365234375 1714.4599609375 -413.08099365234375 1962.93994140625C-413.08099365234375 2313.5 -342.27099609375 2670.739990234375 -201.33999633789062 3023.1298828125C-160.26400756835938 3125.840087890625 -105.22299194335938 3244.260009765625 -55.70649719238281 3336.639892578125L-27.9302978515625 3387.800048828125C-16.625396728515625 3408.260009765625 -14.579299926757812 3411.22998046875 -11.612396240234375 3411.739990234375Z" fill="black" /></g></svg>