<?xml version="1.0" encoding="utf-8" ?>
<svg baseProfile="tiny" height="100%" version="1.2" width="100%" xmlns="http://www.w3.org/2000/svg" xmlns:ev="http://www.w3.org/2001/xml-events" xmlns:xlink="http://www.w3.org/1999/xlink"><defs /><g transform="translate(0, 1000) scale(1, -1)"><path d="M-16.73199462890625 385.8330078125C-16.2572021484375 385.9010009765625 -15.788497924804688 385.9330139160156 -15.32830810546875 385.9330139160156C-10.35260009765625 385.9330139160156 -6.37139892578125 382.10699462890625 -6.34222412109375 376.9630126953125C-6.3419647216796875 376.90899658203125 -6.341827392578125 376.8559875488281 -6.341827392578125 376.8039855957031C-6.341827392578125 374.7619934082031 -6.5583038330078125 374.0830078125 -7.957000732421875 371.5450134277344C-23.44439697265625 343.3970031738281 -31.195297241210938 311.5740051269531 -31.195297241210938 274.9590148925781C-31.195297241210938 235.7760009765625 -22.318405151367188 191.10499572753906 -4.5468597412109375 139.5800018310547C-2.66650390625 134.14100646972656 -1.2960662841796875 129.25399780273438 -0.3293304443359375 124.56900024414062L0.0 122.99700927734375V102.71701049804688V82.43661499023438L-0.3293304443359375 80.86441040039062C-6.384735107421875 51.63909912109375 -23.796615600585938 26.100204467773438 -54.063018798828125 2.05926513671875C-55.75212097167969 0.720703125 -57.13322448730469 -0.4053955078125 -57.13322448730469 -0.4372711181640625C-57.13322448730469 -0.4691314697265625 -55.75212097167969 -1.5845947265625 -54.063018798828125 -2.9337921142578125C-23.796615600585938 -26.97479248046875 -6.384735107421875 -52.513702392578125 -0.329345703125 -81.7388916015625L-1.52587890625e-05 -83.31118774414062V-103.59098815917969V-123.87199401855469L-0.329345703125 -125.44398498535156C-1.2854766845703125 -130.0859832763672 -2.677154541015625 -135.0369873046875 -4.4937744140625 -140.29598999023438C-18.73992919921875 -181.5249786376953 -27.206832885742188 -218.34597778320312 -30.107025146484375 -251.6829833984375C-30.807235717773438 -259.7069854736328 -31.157135009765625 -267.5559844970703 -31.157135009765625 -275.2269744873047C-31.157135009765625 -311.3169708251953 -23.411834716796875 -343.48097229003906 -7.95703125 -371.56898498535156C-6.8145751953125 -373.63697814941406 -6.25048828125 -375.4209747314453 -6.25048828125 -377.1269989013672C-6.25048828125 -378.51499938964844 -6.6235809326171875 -379.8509979248047 -7.3621063232421875 -381.2469940185547C-8.994186401367188 -384.32298278808594 -12.131637573242188 -385.93299865722656 -15.297027587890625 -385.93299865722656C-17.859725952148438 -385.93299865722656 -20.44073486328125 -384.8779754638672 -22.2562255859375 -382.6919708251953C-22.617431640625 -382.25599670410156 -23.594833374023438 -380.60997009277344 -24.89093017578125 -378.2729949951172C-62.13682556152344 -311.11097717285156 -79.27252197265625 -254.95498657226562 -79.27252197265625 -200.052978515625C-79.27252197265625 -196.81298828125 -79.21942138671875 -192.8929901123047 -79.15573120117188 -191.34197998046875C-77.96592712402344 -164.15599060058594 -74.29013061523438 -144.385986328125 -65.60012817382812 -118.41099548339844C-59.268524169921875 -99.49078369140625 -56.26202392578125 -87.08247375488281 -54.72163391113281 -73.52688598632812C-54.224334716796875 -69.16168212890625 -53.97813415527344 -64.92898559570312 -53.97813415527344 -60.843780517578125C-53.97813415527344 -38.225189208984375 -61.525726318359375 -20.130584716796875 -75.78802490234375 -9.11663818359375C-78.26333618164062 -7.1938018798828125 -78.57144165039062 -6.9388275146484375 -79.15573120117188 -6.2483062744140625C-80.552734375 -4.585723876953125 -81.251220703125 -2.5114898681640625 -81.251220703125 -0.437255859375C-81.251220703125 1.6369781494140625 -80.552734375 3.7112274169921875 -79.15573120117188 5.373809814453125C-78.57144165039062 6.0643310546875 -78.26333618164062 6.3192901611328125 -75.78802490234375 8.242141723632812C-67.22552490234375 14.84991455078125 -60.4371337890625 25.165420532226562 -56.98443603515625 36.83001708984375C-54.967926025390625 43.63041687011719 -53.958526611328125 51.17231750488281 -53.958526611328125 59.490020751953125C-53.958526611328125 73.30091857910156 -56.741424560546875 89.25091552734375 -62.31742858886719 107.49702453613281C-62.753021240234375 108.93202209472656 -64.2828369140625 113.59501647949219 -65.70632934570312 117.85502624511719C-73.16403198242188 140.16500854492188 -77.11602783203125 159.27601623535156 -78.66702270507812 180.42800903320312C-79.13262939453125 186.82701110839844 -79.367431640625 193.22901916503906 -79.367431640625 199.64901733398438C-79.367431640625 254.75601196289062 -62.0660400390625 311.16700744628906 -24.89093017578125 378.2480010986328C-21.767532348632812 383.88902282714844 -20.2059326171875 385.3340301513672 -16.732025146484375 385.83302307128906Z" fill="black" /></g></svg>