<?xml version="1.0" encoding="utf-8" ?>
<svg baseProfile="tiny" height="100%" version="1.2" width="100%" xmlns="http://www.w3.org/2000/svg" xmlns:ev="http://www.w3.org/2001/xml-events" xmlns:xlink="http://www.w3.org/1999/xlink"><defs /><g transform="translate(0, 1000) scale(1, -1)"><path d="M-13.505401611328125 10077.099609375C-11.857192993164062 10077.900390625 -10.200302124023438 10078.2998046875 -8.638092041015625 10078.2998046875C-5.234527587890625 10078.2998046875 -2.2803192138671875 10076.400390625 -0.8439178466796875 10072.7998046875C-0.3545684814453125 10071.7001953125 0.0 10070.7998046875 0.0 10069.599609375C0.0 10066.099609375 -3.4165496826171875 10059.900390625 -16.8236083984375 10035.7998046875C-533.8489990234375 9106.41015625 -833.708984375 8046.25 -898.5880126953125 6918.5C-907.5050048828125 6763.2001953125 -911.9450073242188 6606.9501953125 -911.9450073242188 6450.009765625C-911.9450073242188 5466.60009765625 -737.6300048828125 4455.83984375 -398.239990234375 3481.1201171875C-279.7760009765625 3140.97998046875 -224.19700622558594 2820.56005859375 -224.19700622558594 2476.97998046875C-224.19700622558594 2468.5400390625 -224.2310028076172 2460.080078125 -224.29800415039062 2451.610107421875C-224.8209991455078 2389.43994140625 -225.17100524902344 2376.159912109375 -227.96499633789062 2321.070068359375C-273.89599609375 1416.77001953125 -739.7520141601562 562.1649780273438 -1489.489990234375 7.06695556640625C-1502.760009765625 -2.8002777099609375 -1513.6700439453125 -11.008468627929688 -1513.6700439453125 -11.270370483398438C-1513.6700439453125 -11.532363891601562 -1502.760009765625 -19.740463256835938 -1489.489990234375 -29.607772827148438C-739.8389892578125 -584.6179656982422 -273.89599609375 -1439.4000091552734 -227.96499633789062 -2343.610092163086C-225.17100524902344 -2398.709945678711 -224.8209991455078 -2411.979965209961 -224.29800415039062 -2474.149887084961C-224.2310028076172 -2482.620101928711 -224.19700622558594 -2491.080062866211 -224.19700622558594 -2499.530014038086C-224.19700622558594 -2843.189926147461 -279.7760009765625 -3163.689926147461 -398.239990234375 -3503.659896850586C-700.02099609375 -4369.970199584961 -872.47900390625 -5273.479965209961 -904.2639770507812 -6155.149887084961C-908.281005859375 -6266.310043334961 -909.0659790039062 -6316.259750366211 -909.0659790039062 -6458.160140991211C-909.0659790039062 -6586.959945678711 -908.6300048828125 -6619.870101928711 -906.010009765625 -6707.020004272461C-869.1610107421875 -7915.450180053711 -567.6430053710938 -9043.980453491211 -16.38702392578125 -10036.599594116211C-4.9875946044921875 -10057.099594116211 -0.0450439453125 -10066.700180053711 -0.0450439453125 -10071.700180053711C-0.0450439453125 -10075.099594116211 -2.3657073974609375 -10076.400375366211 -6.5197906494140625 -10077.700180053711C-7.6573028564453125 -10077.999984741211 -8.63214111328125 -10078.299789428711 -9.612808227539062 -10078.299789428711C-15.708526611328125 -10078.299789428711 -22.02923583984375 -10066.700180053711 -69.04142761230469 -9980.669906616211C-613.9220428466797 -8982.769515991211 -956.5690155029297 -7889.259750366211 -1067.1200408935547 -6795.649887084961C-1068.7800750732422 -6778.799789428711 -1070.6100311279297 -6762.290023803711 -1071.0500946044922 -6758.979965209961C-1071.4800262451172 -6755.569808959961 -1073.3199920654297 -6738.109848022461 -1074.9800262451172 -6720.120101928711C-1097.9800262451172 -6473.629867553711 -1109.4300994873047 -6226.999984741211 -1109.4300994873047 -5981.029769897461C-1109.4300994873047 -5106.399887084961 -964.6360321044922 -4240.089828491211 -679.4130706787109 -3418.090072631836C-537.6920623779297 -3009.860092163086 -472.90003967285156 -2643.199935913086 -472.90003967285156 -2249.739974975586C-472.90003967285156 -1442.459945678711 -765.8600311279297 -721.7119598388672 -1300.6999969482422 -213.3300018310547C-1362.3500213623047 -154.73800659179688 -1448.3600311279297 -83.13529968261719 -1520.5699920654297 -30.218994140625C-1533.5400848388672 -20.701004028320312 -1540.0200653076172 -15.985702514648438 -1540.0200653076172 -11.270401000976562C-1540.0200653076172 -6.5550994873046875 -1533.5400848388672 -1.83978271484375 -1520.5699920654297 7.6781768798828125C-1448.3600311279297 60.59449768066406 -1362.3500213623047 132.19700622558594 -1300.6999969482422 190.7899932861328C-1244.8101043701172 243.96800231933594 -1198.1899871826172 291.73199462890625 -1152.6899871826172 342.81500244140625C-706.3280487060547 843.1680297851562 -472.77503967285156 1514.1600341796875 -472.77503967285156 2226.830078125C-472.77503967285156 2599.93994140625 -536.7910614013672 2984.47998046875 -667.7990570068359 3361.929931640625C-723.7720184326172 3523.030029296875 -763.8520355224609 3648.860107421875 -805.0670623779297 3791.97998046875C-1009.1600189208984 4501.64013671875 -1111.6400604248047 5230.18017578125 -1111.6400604248047 5968.47998046875C-1111.6400604248047 6167.06005859375 -1104.2300262451172 6366.33984375 -1089.3800506591797 6566.16015625C-1085.0200653076172 6623.8798828125 -1074.2800750732422 6747.259765625 -1073.2300262451172 6750.83984375C-1073.0500946044922 6751.5400390625 -1071.4800262451172 6766.1298828125 -1069.7400360107422 6783.14990234375C-993.3310394287109 7544.759765625 -796.3350677490234 8338.599609375 -505.8190460205078 9055.669921875L-491.67405700683594 9090.599609375C-363.83604431152344 9406.5302734375 -204.03904724121094 9739.3896484375 -32.62864685058594 10046.7998046875C-18.6573486328125 10071.7998046875 -16.125045776367188 10075.7998046875 -13.505447387695312 10077.099609375Z" fill="black" /></g></svg>