<?xml version="1.0" encoding="utf-8" ?>
<svg baseProfile="tiny" height="100%" version="1.2" width="100%" xmlns="http://www.w3.org/2000/svg" xmlns:ev="http://www.w3.org/2001/xml-events" xmlns:xlink="http://www.w3.org/1999/xlink"><defs /><g transform="translate(0, 1000) scale(1, -1)"><path d="M-19.147308349609375 744.9630126953125C-18.6033935546875 745.052978515625 -18.0657958984375 745.0960083007812 -17.538299560546875 745.0960083007812C-12.486099243164062 745.0960083007812 -8.351898193359375 741.1229858398438 -8.351898193359375 736.1510009765625C-8.351898193359375 735.781005859375 -8.37481689453125 735.406005859375 -8.4219970703125 735.0260009765625C-8.62945556640625 733.2830200195312 -8.878387451171875 732.7440185546875 -11.741302490234375 727.4949951171875C-44.252105712890625 668.0700073242188 -60.51139831542969 599.4010009765625 -60.51139831542969 522.1640014648438C-60.51139831542969 445.385009765625 -44.444000244140625 360.1400146484375 -12.301406860351562 267.093994140625C-4.096343994140625 243.3260040283203 0.0 220.01600646972656 0.0 196.7830047607422C0.0 180.18899536132812 -2.08966064453125 163.63400268554688 -6.2644805908203125 146.97799682617188C-14.645599365234375 113.45401000976562 -30.847702026367188 82.66751098632812 -55.51390075683594 53.39579772949219C-68.39678955078125 38.10650634765625 -83.00149536132812 23.812896728515625 -100.32400512695312 9.519393920898438C-104.07901000976562 6.4283447265625 -111.81700134277344 0.2462310791015625 -112.85400390625 -0.4798583984375L-113.35200500488281 -0.8325347900390625L-112.85400390625 -1.185211181640625C-111.81700134277344 -1.911285400390625 -104.07901000976562 -8.093399047851562 -100.32400512695312 -11.184494018554688C-74.3092041015625 -32.635101318359375 -52.920806884765625 -55.724700927734375 -37.4447021484375 -79.04251098632812C-12.585693359375 -116.50900268554688 -0.035552978515625 -156.6959991455078 -0.035552978515625 -197.83700561523438C-0.035552978515625 -221.2760009765625 -4.109283447265625 -245.0260009765625 -12.301406860351562 -268.7590026855469C-44.37559509277344 -361.68701171875 -60.352203369140625 -446.3999938964844 -60.352203369140625 -523.5759887695312C-60.352203369140625 -538.7459716796875 -59.734893798828125 -553.625 -58.50129699707031 -568.218017578125C-53.68829345703125 -625.1840209960938 -37.4447021484375 -680.4910278320312 -11.741302490234375 -727.5C-9.095748901367188 -732.3560180664062 -8.319183349609375 -733.9879760742188 -8.319183349609375 -735.8099975585938C-8.319183349609375 -736.3309936523438 -8.382720947265625 -736.8670043945312 -8.484222412109375 -737.5C-9.2279052734375 -742.0880126953125 -13.12139892578125 -745.0960083007812 -17.412506103515625 -745.0960083007812C-18.74749755859375 -745.0960083007812 -20.121002197265625 -744.8049926757812 -21.450103759765625 -744.1799926757812C-23.732101440429688 -743.1220092773438 -24.478897094726562 -742.14697265625 -28.171600341796875 -735.4869995117188C-94.32000732421875 -616.083984375 -127.14300537109375 -505.0979919433594 -127.14300537109375 -399.5050048828125C-127.14300537109375 -353.8909912109375 -121.01800537109375 -309.28399658203125 -108.80899047851562 -265.4389953613281C-106.40200805664062 -256.76800537109375 -104.86700439453125 -251.89300537109375 -100.09600830078125 -237.64100646972656C-90.98849487304688 -210.4429931640625 -86.79789733886719 -194.3040008544922 -83.20899963378906 -172.9149932861328C-80.68740844726562 -157.83700561523438 -79.439208984375 -143.40499877929688 -79.439208984375 -129.7010040283203C-79.439208984375 -77.5625 -97.50669860839844 -35.968902587890625 -132.25100708007812 -9.504074096679688C-136.1300048828125 -6.5582427978515625 -137.10499572753906 -5.2097930908203125 -137.56199645996094 -2.18096923828125C-137.656005859375 -1.5734405517578125 -137.70599365234375 -1.00030517578125 -137.70599365234375 -0.452850341796875C-137.70599365234375 2.607574462890625 -136.1580047607422 4.86505126953125 -132.25100708007812 7.8390350341796875C-97.50669860839844 34.303802490234375 -79.439208984375 75.89739990234375 -79.439208984375 128.03599548339844C-79.439208984375 141.74000549316406 -80.68740844726562 156.1719970703125 -83.20899963378906 171.25C-86.77719116210938 192.55599975585938 -91.00920104980469 208.84100341796875 -99.99189758300781 235.66400146484375C-105.510009765625 252.15699768066406 -107.41900634765625 258.3599853515625 -110.239990234375 268.96099853515625C-121.58599853515625 311.68798828125 -127.2860107421875 354.9639892578125 -127.2860107421875 399.09100341796875C-127.2860107421875 504.87298583984375 -94.5303955078125 615.5440063476562 -28.275299072265625 735.2739868164062C-23.981002807617188 743.0540161132812 -22.736297607421875 744.3400268554688 -19.147308349609375 744.9630126953125Z" fill="black" /></g></svg>