<?xml version="1.0" encoding="utf-8" ?>
<svg baseProfile="tiny" height="100%" version="1.2" width="100%" xmlns="http://www.w3.org/2000/svg" xmlns:ev="http://www.w3.org/2001/xml-events" xmlns:xlink="http://www.w3.org/1999/xlink"><defs /><g transform="translate(0, 1000) scale(1, -1)"><path d="M-20.592605590820312 541.3309936523438C-19.8203125 541.5339965820312 -19.052017211914062 541.6309814453125 -18.300521850585938 541.6309814453125C-13.487014770507812 541.6309814453125 -9.367950439453125 537.676025390625 -9.367950439453125 532.5809936523438C-9.367950439453125 532.426025390625 -9.371734619140625 532.27099609375 -9.379409790039062 532.114013671875C-9.469467163085938 530.072998046875 -9.66461181640625 529.56201171875 -11.736114501953125 525.7949829101562C-30.109512329101562 492.260009765625 -41.03752136230469 454.4179992675781 -44.46000671386719 412.47698974609375C-45.19091796875 403.4849853515625 -45.55531311035156 394.2239990234375 -45.55531311035156 384.7070007324219C-45.55531311035156 329.1400146484375 -33.131317138671875 264.864990234375 -8.70391845703125 194.51800537109375C-2.89495849609375 177.78199768066406 -1.52587890625e-05 160.78700256347656 -1.52587890625e-05 143.89599609375C-1.52587890625e-05 121.50399780273438 -5.0877227783203125 99.29409790039062 -15.218719482421875 78.10820007324219C-28.038009643554688 51.29859924316406 -48.60301208496094 27.14599609375 -79.5255126953125 2.5880889892578125L-83.05311584472656 -0.203948974609375L-83.56352233886719 -0.6242523193359375L-83.05311584472656 -1.029541015625C-82.76791381835938 -1.2697296142578125 -81.17681884765625 -2.5306549072265625 -79.5255126953125 -3.8365936279296875C-48.60301208496094 -28.394500732421875 -28.038009643554688 -52.54710388183594 -15.218719482421875 -79.356689453125C-5.0877227783203125 -100.54299926757812 -1.52587890625e-05 -122.76300048828125 -1.52587890625e-05 -145.1580047607422C-1.52587890625e-05 -162.05099487304688 -2.89495849609375 -179.04299926757812 -8.70391845703125 -195.76699829101562C-33.14701843261719 -266.1289978027344 -45.36761474609375 -328.885009765625 -45.36761474609375 -384.6050109863281C-45.36761474609375 -437.9739990234375 -34.15650939941406 -484.885986328125 -11.736114501953125 -525.8419799804688C-9.66461181640625 -529.6099853515625 -9.469467163085938 -530.1199951171875 -9.379409790039062 -532.1619873046875C-9.371261596679688 -532.3280029296875 -9.36724853515625 -532.4929809570312 -9.36724853515625 -532.656982421875C-9.36724853515625 -537.8939819335938 -13.48870849609375 -541.6309814453125 -18.265609741210938 -541.6309814453125C-19.66461181640625 -541.6309814453125 -21.119720458984375 -541.3099975585938 -22.544021606445312 -540.6129760742188C-25.005813598632812 -539.4119873046875 -25.366119384765625 -538.8569946289062 -32.79652404785156 -525.1820068359375C-45.24052429199219 -502.2300109863281 -57.89482116699219 -475.8559875488281 -65.880615234375 -456.2820129394531C-81.46202087402344 -418.04901123046875 -91.05401611328125 -386.19500732421875 -96.90821838378906 -353.2309875488281C-101.05302429199219 -329.9100036621094 -103.13801574707031 -307.2799987792969 -103.13801574707031 -285.02801513671875C-103.13801574707031 -245.79400634765625 -96.65721130371094 -207.73300170898438 -83.56352233886719 -169.1219940185547C-74.79710388183594 -143.25799560546875 -70.36891174316406 -123.89399719238281 -68.49250793457031 -103.07400512695312C-68.04731750488281 -98.18049621582031 -67.82652282714844 -93.39889526367188 -67.82652282714844 -88.73880004882812C-67.82652282714844 -54.116302490234375 -80.01652526855469 -26.196807861328125 -102.95802307128906 -8.865264892578125C-106.56001281738281 -6.133270263671875 -107.80601501464844 -4.03173828125 -107.80601501464844 -0.6242523193359375C-107.80601501464844 2.783233642578125 -106.56001281738281 4.884765625 -102.95802307128906 7.6167449951171875C-80.01652526855469 24.94830322265625 -67.82652282714844 52.8677978515625 -67.82652282714844 87.49029541015625C-67.82652282714844 92.150390625 -68.04731750488281 96.9320068359375 -68.49250793457031 101.82499694824219C-70.38392639160156 122.781005859375 -74.76710510253906 141.9199981689453 -83.71360778808594 168.32400512695312C-90.21331787109375 187.50799560546875 -94.49151611328125 203.83999633789062 -97.58372497558594 221.23800659179688C-101.30601501464844 242.2239990234375 -103.18202209472656 263.3389892578125 -103.18202209472656 284.7179870605469C-103.18202209472656 359.64599609375 -80.14170837402344 437.82501220703125 -32.79652404785156 525.1339721679688C-24.780609130859375 539.905029296875 -24.465408325195312 540.3099975585938 -20.592620849609375 541.3309936523438Z" fill="black" /></g></svg>