<?xml version="1.0" encoding="utf-8" ?>
<svg baseProfile="tiny" height="100%" version="1.2" width="100%" xmlns="http://www.w3.org/2000/svg" xmlns:ev="http://www.w3.org/2001/xml-events" xmlns:xlink="http://www.w3.org/1999/xlink"><defs /><g transform="translate(0, 1000) scale(1, -1)"><path d="M-19.491607666015625 759.8099975585938C-18.727005004882812 760.0159912109375 -17.964706420898438 760.1129760742188 -17.217498779296875 760.1129760742188C-12.360504150390625 760.1129760742188 -8.147171020507812 756.02099609375 -8.147171020507812 751.083984375C-8.147171020507812 750.5989990234375 -8.187835693359375 750.1060180664062 -8.27252197265625 749.6069946289062C-8.547714233398438 748.041015625 -8.865234375 747.364013671875 -12.231002807617188 741.1829833984375C-33.483795166015625 702.1909790039062 -48.49200439453125 656.8909912109375 -55.85850524902344 609.6229858398438C-57.40380859375 599.6740112304688 -58.97019958496094 587.35400390625 -59.3511962890625 581.8920288085938C-59.45709228515625 580.4320068359375 -59.68989562988281 577.573974609375 -59.85929870605469 575.5419921875C-61.057403564453125 561.7109985351562 -61.653594970703125 547.448974609375 -61.653594970703125 532.7899780273438C-61.653594970703125 456.02801513671875 -45.303009033203125 368.4100036621094 -13.416397094726562 275.05999755859375C-7.0447845458984375 256.4110107421875 -4.610443115234375 247.05499267578125 -2.43011474609375 232.6179962158203C-0.806915283203125 221.91799926757812 0.0 211.24000549316406 0.0 200.62399291992188C0.0 158.63099670410156 -12.625106811523438 117.60800170898438 -37.29400634765625 79.99600219726562C-55.32929992675781 52.49859619140625 -83.41940307617188 23.286605834960938 -114.13400268554688 0.0863189697265625C-114.80099487304688 -0.4217071533203125 -115.135009765625 -0.64398193359375 -115.135009765625 -0.866241455078125C-115.135009765625 -1.0885162353515625 -114.80099487304688 -1.3107757568359375 -114.13400268554688 -1.818817138671875C-83.41940307617188 -25.01910400390625 -55.32929992675781 -54.23109436035156 -37.29400634765625 -81.72850036621094C-12.625106811523438 -119.33999633789062 0.0 -160.36399841308594 0.0 -202.3560028076172C0.0 -212.9720001220703 -0.806915283203125 -223.64999389648438 -2.43011474609375 -234.3509979248047C-4.610443115234375 -248.7239990234375 -7.12945556640625 -258.48199462890625 -13.373992919921875 -276.68701171875C-45.4407958984375 -370.2439880371094 -61.31880187988281 -455.1419982910156 -61.31880187988281 -533.6500244140625C-61.31880187988281 -551.3289794921875 -60.51359558105469 -568.6840209960938 -58.906707763671875 -585.7420043945312C-53.889801025390625 -639.3389892578125 -36.84950256347656 -696.0280151367188 -12.231002807617188 -741.2219848632812C-10.960906982421875 -743.5499877929688 -9.606124877929688 -746.0689697265625 -9.22509765625 -746.8309936523438C-8.493804931640625 -748.2780151367188 -8.164947509765625 -749.7349853515625 -8.164947509765625 -751.1270141601562C-8.164947509765625 -756.0239868164062 -12.23779296875 -760.1129760742188 -17.177703857421875 -760.1129760742188C-18.513595581054688 -760.1129760742188 -19.912796020507812 -759.8140258789062 -21.312103271484375 -759.1510009765625C-23.555908203125 -758.093017578125 -24.296798706054688 -757.1190185546875 -28.001205444335938 -750.4299926757812C-95.34329223632812 -628.9140014648438 -128.71200561523438 -516.0020141601562 -128.71200561523438 -408.2919921875C-128.71200561523438 -362.2560119628906 -122.61700439453125 -317.1709899902344 -110.47200012207031 -272.77099609375C-107.57199096679688 -262.1659851074219 -105.43399047851562 -255.37100219726562 -99.40130615234375 -237.5260009765625C-88.56320190429688 -205.54100036621094 -82.74200439453125 -177.5989990234375 -80.47698974609375 -146.71499633789062C-80.2449951171875 -143.50100708007812 -80.1343994140625 -139.4499969482422 -80.1343994140625 -135.07400512695312C-80.1343994140625 -126.2760009765625 -80.58139038085938 -116.16799926757812 -81.38720703125 -108.92999267578125C-86.00189208984375 -67.164794921875 -104.79901123046875 -31.6658935546875 -133.7570037841797 -9.968536376953125C-138.0679931640625 -6.75341796875 -139.80299377441406 -4.3460693359375 -139.80299377441406 -1.233428955078125C-139.80299377441406 -0.677734375 -139.7480010986328 -0.0995635986328125 -139.64199829101562 0.5096893310546875C-139.11300659179688 3.6002349853515625 -137.99099731445312 5.0608367919921875 -133.7570037841797 8.236053466796875C-113.1610107421875 23.6676025390625 -97.24220275878906 46.74090576171875 -88.28810119628906 74.1748046875C-83.07640075683594 90.1051025390625 -80.03179931640625 112.13699340820312 -80.03179931640625 132.19900512695312C-80.03179931640625 136.58200073242188 -80.17709350585938 140.87100219726562 -80.47698974609375 144.98199462890625C-82.74200439453125 175.86599731445312 -88.56320190429688 203.80799865722656 -99.40130615234375 235.79299926757812C-105.47698974609375 253.76499938964844 -107.57199096679688 260.3909912109375 -110.45098876953125 270.9540100097656C-122.70500183105469 315.760986328125 -128.85800170898438 361.1990051269531 -128.85800170898438 407.55999755859375C-128.85800170898438 515.5230102539062 -95.49380493164062 628.4940185546875 -28.128204345703125 750.1790161132812C-23.831100463867188 757.927001953125 -22.984405517578125 758.8579711914062 -19.491607666015625 759.8099975585938Z" fill="black" /></g></svg>