<?xml version="1.0" encoding="utf-8" ?>
<svg baseProfile="tiny" height="100%" version="1.2" width="100%" xmlns="http://www.w3.org/2000/svg" xmlns:ev="http://www.w3.org/2001/xml-events" xmlns:xlink="http://www.w3.org/1999/xlink"><defs /><g transform="translate(0, 1000) scale(1, -1)"><path d="M-13.79010009765625 307.7749938964844C-13.219406127929688 307.8789978027344 -12.655303955078125 307.9289855957031 -12.102294921875 307.9289855957031C-7.180023193359375 307.9289855957031 -3.1331634521484375 303.9729919433594 -3.1331634521484375 298.85198974609375C-3.1331634521484375 298.7130126953125 -3.1361236572265625 298.572998046875 -3.14215087890625 298.4330139160156C-3.21795654296875 296.5880126953125 -3.445404052734375 295.9219970703125 -4.9280242919921875 293.20098876953125C-17.116195678710938 270.87701416015625 -23.214202880859375 245.54100036621094 -23.214202880859375 216.53199768066406C-23.214202880859375 185.77200317382812 -16.35809326171875 150.8820037841797 -2.6367034912109375 111.07499694824219C-1.4994659423828125 107.781005859375 -0.8592529296875 105.68299865722656 -0.3032684326171875 103.46800231933594L0.0 102.27999877929688V81.10220336914062V59.92430114746094L-0.3790740966796875 58.47529602050781C-5.795684814453125 37.62599182128906 -18.962387084960938 18.874191284179688 -40.72998046875 0.981597900390625C-41.56398010253906 0.29083251953125 -42.24629211425781 -0.2988433837890625 -42.24629211425781 -0.332550048828125C-42.24629211425781 -0.366241455078125 -41.56398010253906 -0.9559173583984375 -40.72998046875 -1.6466827392578125C-18.962387084960938 -19.539215087890625 -5.795684814453125 -38.291015625 -0.379058837890625 -59.140411376953125L1.52587890625e-05 -60.58930969238281V-81.7672119140625V-102.94500732421875L-0.303253173828125 -104.13301086425781C-0.8592529296875 -106.34800720214844 -1.4994659423828125 -108.44601440429688 -2.6367034912109375 -111.74000549316406C-16.31719970703125 -151.41500854492188 -23.152206420898438 -186.1890106201172 -23.152206420898438 -216.8410186767578C-23.152206420898438 -245.73802185058594 -17.077392578125 -270.9710235595703 -4.93646240234375 -293.19200134277344C-3.445404052734375 -295.9130096435547 -3.21795654296875 -296.5790252685547 -3.14215087890625 -298.4240264892578C-3.13604736328125 -298.5690155029297 -3.133026123046875 -298.71202087402344 -3.133026123046875 -298.85401916503906C-3.133026123046875 -304.32701110839844 -7.59283447265625 -307.9290008544922 -12.226898193359375 -307.9290008544922C-14.622894287109375 -307.9290008544922 -17.065505981445312 -306.9660186767578 -18.96240234375 -304.80101013183594C-19.686904907226562 -303.96702575683594 -20.815704345703125 -302.0120086669922 -24.362197875976562 -295.4250030517578C-51.11419677734375 -245.7580108642578 -64.07080078125 -201.8050079345703 -64.07080078125 -159.59901428222656C-64.07080078125 -147.4210205078125 -62.992095947265625 -135.38902282714844 -60.85490417480469 -123.40701293945312C-59.09429931640625 -113.50901794433594 -56.61759948730469 -104.13301086425781 -52.82679748535156 -93.01321411132812C-48.37049865722656 -79.95611572265625 -45.80120849609375 -69.04701232910156 -44.69769287109375 -58.54231262207031C-44.352294921875 -55.26420593261719 -44.180206298828125 -52.10041809082031 -44.180206298828125 -49.05451965332031C-44.180206298828125 -30.92791748046875 -50.27510070800781 -16.976211547851562 -62.21110534667969 -7.9394073486328125C-65.05000305175781 -5.799713134765625 -66.29679870605469 -3.4662628173828125 -66.29679870605469 -0.332550048828125C-66.29679870605469 2.801177978515625 -65.05000305175781 5.1346282958984375 -62.21110534667969 7.2743072509765625C-57.822296142578125 10.601791381835938 -54.16619873046875 14.6536865234375 -51.411590576171875 19.253189086914062C-46.58149719238281 27.311477661132812 -44.165008544921875 36.94679260253906 -44.165008544921875 48.35308837890625C-44.165008544921875 60.81858825683594 -47.05110168457031 75.39927673339844 -52.82679748535156 92.34819030761719C-57.240997314453125 105.31298828125 -59.843994140625 115.69099426269531 -61.697296142578125 127.75398254394531C-62.96929931640625 136.0599822998047 -63.398895263671875 140.32298278808594 -63.91279602050781 149.74098205566406C-64.04180908203125 152.10098266601562 -64.10360717773438 154.90399169921875 -64.10360717773438 157.9139862060547C-64.10360717773438 164.7319793701172 -63.78630065917969 172.61598205566406 -63.213592529296875 178.84597778320312C-59.945098876953125 214.75698852539062 -47.18280029296875 253.06898498535156 -24.412704467773438 295.34898376464844C-22.449905395507812 298.9969940185547 -20.0238037109375 303.36097717285156 -19.661605834960938 303.8999786376953C-18.339004516601562 305.89598083496094 -16.140396118164062 307.35398864746094 -13.79010009765625 307.7749786376953Z" fill="black" /></g></svg>