<?xml version="1.0" encoding="utf-8" ?>
<svg baseProfile="tiny" height="100%" version="1.2" width="100%" xmlns="http://www.w3.org/2000/svg" xmlns:ev="http://www.w3.org/2001/xml-events" xmlns:xlink="http://www.w3.org/1999/xlink"><defs /><g transform="translate(0, 1000) scale(1, -1)"><path d="M-14.3428955078125 6673.93994140625C-12.757598876953125 6675.0 -10.974105834960938 6675.509765625 -9.215133666992188 6675.509765625C-6.129852294921875 6675.509765625 -3.120086669921875 6673.9501953125 -1.3878173828125 6671.080078125C-0.535919189453125 6669.68994140625 0.0 6668.580078125 0.0 6667.1201171875C0.0 6663.919921875 -2.57659912109375 6658.990234375 -10.04840087890625 6645.52001953125C-290.7650146484375 6139.490234375 -468.8429870605469 5590.14990234375 -547.7899780273438 4986.77978515625C-576.5130004882812 4767.39013671875 -590.739990234375 4542.240234375 -590.739990234375 4313.72998046875C-590.739990234375 3667.02001953125 -476.7879943847656 2993.3798828125 -254.97799682617188 2347.090087890625C-231.21499633789062 2277.8798828125 -223.77099609375 2255.77001953125 -217.8300018310547 2236.510009765625C-158.39199829101562 2044.75 -129.2779998779297 1848.989990234375 -129.2779998779297 1654.56005859375C-129.2779998779297 1169.0699462890625 -310.802001953125 691.843994140625 -655.010009765625 305.77899169921875C-754.5700073242188 194.05099487304688 -878.9669799804688 80.67620849609375 -991.4119873046875 -0.9191131591796875C-996.0640258789062 -4.28314208984375 -999.8569946289062 -7.1461334228515625 -999.8569946289062 -7.3608551025390625C-999.8569946289062 -7.5755615234375 -996.0640258789062 -10.438583374023438 -991.4119873046875 -13.802581787109375C-879.2540283203125 -95.18318176269531 -754.927978515625 -208.48597717285156 -655.6539916992188 -319.7849884033203C-310.9909973144531 -706.0549774169922 -129.27499389648438 -1183.469955444336 -129.27499389648438 -1669.219955444336C-129.27499389648438 -1863.6600189208984 -158.39199829101562 -2059.429916381836 -217.8300018310547 -2251.229965209961C-223.77099609375 -2270.489974975586 -229.63999938964844 -2288.020004272461 -256.40899658203125 -2366.110092163086C-475.8489990234375 -3006.570053100586 -588.8670043945312 -3670.499984741211 -588.8670043945312 -4318.120101928711C-588.8670043945312 -4327.009750366211 -588.8460083007812 -4335.910140991211 -588.802978515625 -4344.799789428711C-588.3729858398438 -4424.249984741211 -588.0869750976562 -4443.709945678711 -586.155029296875 -4500.830062866211C-559.8870239257812 -5280.569808959961 -365.4179992675781 -6004.620101928711 -10.04840087890625 -6645.209945678711C-3.1673431396484375 -6657.660140991211 -0.0340576171875 -6664.100082397461 -0.0340576171875 -6668.069808959961C-0.0340576171875 -6670.990219116211 -1.7364044189453125 -6672.560043334961 -4.894989013671875 -6674.200180053711C-6.55291748046875 -6675.049789428711 -8.02593994140625 -6675.509750366211 -9.423873901367188 -6675.509750366211C-13.457504272460938 -6675.509750366211 -16.865997314453125 -6671.660140991211 -22.287704467773438 -6662.040023803711C-144.03700256347656 -6446.879867553711 -268.8630065917969 -6184.200180053711 -363.70001220703125 -5943.419906616211C-545.0709838867188 -5483.270004272461 -662.4530029296875 -5021.040023803711 -719.6420288085938 -4541.629867553711L-723.219970703125 -4511.930160522461C-735.9609985351562 -4407.350082397461 -747.9849853515625 -4245.450180053711 -752.9240112304688 -4112.180160522461C-755.2260131835938 -4050.020004272461 -756.3720092773438 -3987.739974975586 -756.3720092773438 -3925.409896850586C-756.3720092773438 -3361.759994506836 -662.6599731445312 -2793.959945678711 -482.6570129394531 -2272.709945678711C-438.7099914550781 -2145.300033569336 -418.81298828125 -2078.379867553711 -396.9110107421875 -1983.9000091552734C-356.2829895019531 -1808.560043334961 -336.52398681640625 -1634.479965209961 -336.52398681640625 -1465.239974975586C-336.52398681640625 -879.2519989013672 -573.4110107421875 -351.3479461669922 -1001.1500244140625 -30.407943725585938C-1017.4299926757812 -18.204437255859375 -1025.5699462890625 -12.782638549804688 -1025.5699462890625 -7.3607940673828125C-1025.5699462890625 -1.938995361328125 -1017.4299926757812 3.4827880859375 -1001.1500244140625 15.686355590820312C-573.4240112304688 336.61708068847656 -336.4949951171875 864.5850982666016 -336.4949951171875 1450.5200958251953C-336.4949951171875 1619.7700958251953 -356.26300048828125 1793.8500518798828 -396.9110107421875 1969.1801300048828C-417.1659851074219 2056.4300079345703 -439.4259948730469 2132.7300567626953 -472.4939880371094 2228.2801055908203C-662.5900268554688 2777.2200469970703 -757.9840087890625 3341.8201446533203 -757.9840087890625 3916.1399688720703C-757.9840087890625 4073.5901641845703 -750.8150024414062 4231.770095825195 -736.4619750976562 4390.560134887695C-666.8909912109375 5159.129959106445 -429.1910095214844 5924.549880981445 -41.827606201171875 6627.200271606445C-18.064804077148438 6670.290115356445 -16.919601440429688 6672.220291137695 -14.3428955078125 6673.940017700195Z" fill="black" /></g></svg>