<?xml version="1.0" encoding="utf-8" ?>
<svg baseProfile="tiny" height="100%" version="1.2" width="100%" xmlns="http://www.w3.org/2000/svg" xmlns:ev="http://www.w3.org/2001/xml-events" xmlns:xlink="http://www.w3.org/1999/xlink"><defs /><g transform="translate(0, 1000) scale(1, -1)"><path d="M-14.2720947265625 6992.009765625C-12.72900390625 6993.0400390625 -10.98260498046875 6993.52978515625 -9.252105712890625 6993.52978515625C-6.1661834716796875 6993.52978515625 -3.130615234375 6991.9599609375 -1.3878936767578125 6989.06982421875C-0.53594970703125 6987.68017578125 0.0 6986.580078125 0.0 6985.1201171875C0.0 6981.919921875 -2.5767364501953125 6976.990234375 -10.048904418945312 6963.52001953125C-200.52000427246094 6619.93994140625 -343.0329895019531 6265.91015625 -445.82000732421875 5880.75C-562.583984375 5443.22998046875 -620.64599609375 4982.4501953125 -620.64599609375 4510.169921875C-620.64599609375 3827.56005859375 -499.3559875488281 3120.93994140625 -258.7130126953125 2425.7900390625C-181.90899658203125 2203.89990234375 -146.3350067138672 2015.9300537109375 -138.7469940185547 1791.25C-138.40199279785156 1780.8599853515625 -138.24400329589844 1761.8299560546875 -138.24400329589844 1740.7900390625C-138.24400329589844 1705.1300048828125 -138.697998046875 1663.699951171875 -139.46299743652344 1648.800048828125C-142.3260040283203 1593.9000244140625 -144.5449981689453 1562.18994140625 -148.1959991455078 1526.050048828125C-201.37899780273438 997.8670043945312 -459.8489990234375 502.39898681640625 -875.364013671875 131.97998046875C-924.89599609375 87.88719177246094 -988.0999755859375 36.56529235839844 -1036.56005859375 1.0622711181640625C-1042.7900390625 -3.4471893310546875 -1047.800048828125 -7.31243896484375 -1047.800048828125 -7.5271759033203125C-1047.800048828125 -7.7418975830078125 -1042.7900390625 -11.60711669921875 -1036.56005859375 -16.116622924804688C-988.0999755859375 -51.61961364746094 -924.89599609375 -102.9420166015625 -875.364013671875 -147.0340118408203C-459.8489990234375 -517.4539947509766 -201.37899780273438 -1012.9199981689453 -148.1959991455078 -1541.0999908447266C-144.5449981689453 -1577.250015258789 -142.3260040283203 -1608.959976196289 -139.46299743652344 -1663.8600006103516C-138.58200073242188 -1681.209976196289 -138.15899658203125 -1706.8399810791016 -138.15899658203125 -1734.770034790039C-138.15899658203125 -1774.9300689697266 -139.03399658203125 -1819.8399810791016 -140.67999267578125 -1851.750015258789C-150.55799865722656 -2045.1600494384766 -187.56399536132812 -2235.129898071289 -251.19700622558594 -2419.010025024414C-400.2239990234375 -2849.770034790039 -498.42999267578125 -3249.330093383789 -557.5540161132812 -3665.199966430664C-598.7329711914062 -3954.750015258789 -619.2059936523438 -4240.049819946289 -619.2059936523438 -4519.680191040039C-619.2059936523438 -5405.649917602539 -413.6910095214844 -6234.810073852539 -10.048919677734375 -6962.830093383789C-3.1675262451171875 -6975.270034790039 -0.034088134765625 -6981.709976196289 -0.034088134765625 -6985.680191040039C-0.034088134765625 -6988.600112915039 -1.73651123046875 -6990.180191040039 -4.895263671875 -6991.819839477539C-6.8930816650390625 -6992.830093383789 -8.45526123046875 -6993.529800415039 -9.937408447265625 -6993.529800415039C-14.402816772460938 -6993.529800415039 -18.141708374023438 -6987.209976196289 -30.878311157226562 -6964.259780883789C-409.38600158691406 -6283.470230102539 -653.2550201416016 -5546.359878540039 -746.0919952392578 -4802.870132446289L-750.7450103759766 -4766.439956665039C-751.1750030517578 -4763.640151977539 -753.2500152587891 -4745.459976196289 -755.3980255126953 -4725.990249633789C-778.2480010986328 -4520.569839477539 -789.6670074462891 -4316.279800415039 -789.6670074462891 -4113.229995727539C-789.6670074462891 -3515.500015258789 -690.7130279541016 -2928.580093383789 -493.1330108642578 -2355.669937133789C-421.0540008544922 -2146.659927368164 -381.3990020751953 -1970.719985961914 -361.07102966308594 -1769.439956665039C-353.2010040283203 -1691.479995727539 -349.32701110839844 -1614.1700592041016 -349.32701110839844 -1537.8199615478516C-349.32701110839844 -914.1370391845703 -607.8339996337891 -354.25001525878906 -1058.8900299072266 -23.274520874023438C-1068.9100494384766 -15.90191650390625 -1073.9200592041016 -11.714523315429688 -1073.9200592041016 -7.5271759033203125C-1073.9200592041016 -3.339813232421875 -1068.9100494384766 0.8475341796875 -1058.8900299072266 8.220138549804688C-600.2639923095703 344.80198669433594 -349.52601623535156 908.1149749755859 -349.52601623535156 1525.0999603271484C-349.52601623535156 1785.249984741211 -394.1060028076172 2054.949935913086 -486.4770050048828 2321.209945678711C-690.7580108642578 2910.199935913086 -790.9770050048828 3495.469955444336 -790.9770050048828 4104.200180053711C-790.9770050048828 4207.660140991211 -788.0819854736328 4311.799789428711 -782.3109893798828 4416.749984741211C-776.2990264892578 4525.770004272461 -761.2670440673828 4698.410140991211 -752.1770172119141 4762.120101928711L-747.5240020751953 4798.549789428711C-656.4040069580078 5528.799789428711 -420.1950225830078 6252.310043334961 -54.35609436035156 6922.359848022461C-23.219406127929688 6979.270004272461 -16.99200439453125 6990.149887084961 -14.2720947265625 6992.009750366211Z" fill="black" /></g></svg>