<?xml version="1.0" encoding="utf-8" ?>
<svg baseProfile="tiny" height="100%" version="1.2" width="100%" xmlns="http://www.w3.org/2000/svg" xmlns:ev="http://www.w3.org/2001/xml-events" xmlns:xlink="http://www.w3.org/1999/xlink"><defs /><g transform="translate(0, 1000) scale(1, -1)"><path d="M-10.9219970703125 2650.449951171875C-10.264297485351562 2650.60009765625 -9.612136840820312 2650.669921875 -8.973114013671875 2650.669921875C-4.1054840087890625 2650.669921875 0.0 2646.510009765625 0.0 2641.580078125C0.0 2640.9599609375 -0.0646820068359375 2640.320068359375 -0.2006378173828125 2639.68994140625C-0.4559173583984375 2638.580078125 -1.732269287109375 2635.72998046875 -3.0937042236328125 2633.35009765625C-68.95359802246094 2517.159912109375 -124.30499267578125 2377.610107421875 -160.46800231933594 2236.570068359375C-199.02699279785156 2086.2099609375 -218.197998046875 1926.1199951171875 -218.197998046875 1759.97998046875C-218.197998046875 1508.5400390625 -174.2830047607422 1243.280029296875 -87.20550537109375 977.0230102539062L-67.59220886230469 918.864013671875C-40.11781311035156 838.3289794921875 -26.598617553710938 755.8250122070312 -26.598617553710938 673.6840209960938C-26.598617553710938 498.5010070800781 -88.08941650390625 324.96600341796875 -206.84201049804688 175.68499755859375C-257.64100646972656 111.78199768066406 -319.41700744628906 51.7510986328125 -384.3830108642578 3.1645965576171875C-388.76502990722656 -0.11138916015625 -392.33900451660156 -2.8768157958984375 -392.33900451660156 -3.00445556640625C-392.33900451660156 -3.1320953369140625 -388.76502990722656 -5.89752197265625 -384.3830108642578 -9.173492431640625C-319.41700744628906 -57.80259704589844 -257.64100646972656 -117.79100036621094 -206.84201049804688 -181.69400024414062C-88.08941650390625 -330.9750061035156 -26.598617553710938 -504.489990234375 -26.598617553710938 -679.6740112304688C-26.598617553710938 -761.8150024414062 -40.11781311035156 -844.323974609375 -67.59220886230469 -924.8729858398438L-77.42010498046875 -953.676025390625C-169.85800170898438 -1224.9200439453125 -217.43299865722656 -1500.3699951171875 -217.43299865722656 -1763.739990234375C-217.43299865722656 -1768.1400146484375 -217.4199981689453 -1772.530029296875 -217.3939971923828 -1776.9200439453125C-217.13800048828125 -1814.7900390625 -216.96800231933594 -1824.280029296875 -215.81900024414062 -1851.5899658203125C-203.99200439453125 -2136.60009765625 -129.3249969482422 -2411.06005859375 -3.221343994140625 -2633.18994140625C-1.2549285888671875 -2636.64990234375 -0.3156890869140625 -2639.860107421875 -0.3156890869140625 -2642.56005859375C-0.3156890869140625 -2647.4599609375 -3.401763916015625 -2650.669921875 -9.050033569335938 -2650.669921875H-9.304473876953125C-14.750701904296875 -2650.669921875 -14.854202270507812 -2650.469970703125 -29.897201538085938 -2623.14990234375C-227.23399353027344 -2264.39990234375 -330.8999938964844 -1881.2099609375 -330.8999938964844 -1513.77001953125C-330.8999938964844 -1483.449951171875 -330.1940002441406 -1453.239990234375 -328.7770080566406 -1423.1600341796875C-319.6719970703125 -1230.93994140625 -286.4440002441406 -1059.6099853515625 -221.7760009765625 -871.7760009765625C-183.96400451660156 -761.8679809570312 -165.7100067138672 -656.5759887695312 -165.7100067138672 -547.6840209960938C-165.7100067138672 -544.9580078125 -165.7209930419922 -542.22900390625 -165.74400329589844 -539.4990234375C-165.99899291992188 -511.0790100097656 -166.16900634765625 -505.760009765625 -167.7429962158203 -485.0409851074219C-182.9320068359375 -285.97198486328125 -266.7030029296875 -121.11000061035156 -406.3370056152344 -15.76800537109375C-416.12200927734375 -8.365142822265625 -417.14300537109375 -7.1738739013671875 -417.14300537109375 -3.00445556640625C-417.14300537109375 1.1649627685546875 -416.12200927734375 2.356231689453125 -406.3370056152344 9.75909423828125C-266.7030029296875 115.14300537109375 -182.9320068359375 279.9209899902344 -167.7429962158203 479.0320129394531C-166.16900634765625 499.75201416015625 -165.99899291992188 505.07000732421875 -165.74400329589844 533.489990234375C-165.7209930419922 536.2210083007812 -165.7100067138672 538.948974609375 -165.7100067138672 541.6749877929688C-165.7100067138672 650.5670166015625 -183.96400451660156 755.8590087890625 -221.7760009765625 865.7670288085938C-287.97601318359375 1058.0699462890625 -321.4590148925781 1233.22998046875 -329.8399963378906 1431.18994140625C-330.97698974609375 1458.050048828125 -331.54400634765625 1485.02001953125 -331.54400634765625 1512.0899658203125C-331.54400634765625 1884.0999755859375 -224.57400512695312 2274.169921875 -22.111404418945312 2637.1298828125C-15.729598999023438 2648.6201171875 -14.921295166015625 2649.56005859375 -10.9219970703125 2650.449951171875Z" fill="black" /></g></svg>