<?xml version="1.0" encoding="utf-8" ?>
<svg baseProfile="tiny" height="100%" version="1.2" width="100%" xmlns="http://www.w3.org/2000/svg" xmlns:ev="http://www.w3.org/2001/xml-events" xmlns:xlink="http://www.w3.org/1999/xlink"><defs /><g transform="translate(0, 1000) scale(1, -1)"><path d="M-15.725906372070312 10911.599609375C-13.852218627929688 10913.7001953125 -11.49652099609375 10914.7001953125 -9.117568969726562 10914.7001953125C-6.8714141845703125 10914.7001953125 -4.604461669921875 10913.7998046875 -2.7026519775390625 10911.900390625C-1.0068359375 10910.099609375 -1.52587890625e-05 10908.7998046875 -1.52587890625e-05 10906.599609375C-1.52587890625e-05 10902.7998046875 -3.235321044921875 10896.599609375 -11.53662109375 10881.7001953125C-659.72900390625 9722.73046875 -991.3289794921875 8382.1904296875 -991.3289794921875 6972.08984375C-991.3289794921875 6340.75 -924.8569946289062 5695.47021484375 -790.5659790039062 5046.2900390625C-701.0430297851562 4613.43017578125 -586.1099853515625 4198.5 -435.11199951171875 3762.6298828125C-325.5530090332031 3446.52001953125 -267.72198486328125 3154.909912109375 -251.87600708007812 2839.159912109375C-248.68800354003906 2774.679931640625 -248.23300170898438 2756.64990234375 -248.23300170898438 2676.60009765625C-248.23300170898438 2586.6201171875 -249.50799560546875 2544.360107421875 -254.60800170898438 2464.860107421875C-315.0799865722656 1526.0899658203125 -789.9290161132812 645.968017578125 -1557.3900146484375 50.08441162109375C-1575.52001953125 35.96830749511719 -1636.1700439453125 -9.567718505859375 -1639.1700439453125 -11.389190673828125C-1639.9000244140625 -11.798980712890625 -1640.27001953125 -12.049392700195312 -1640.27001953125 -12.299880981445312C-1640.27001953125 -12.550277709960938 -1639.9000244140625 -12.80078125 -1639.1700439453125 -13.210586547851562C-1636.1700439453125 -15.031982421875 -1575.52001953125 -60.56797790527344 -1557.3900146484375 -74.68418884277344C-867.9769897460938 -610.0049896240234 -412.5270080566406 -1375.3699798583984 -284.75299072265625 -2213.509994506836C-265.1719970703125 -2341.649887084961 -255.51800537109375 -2445.199935913086 -249.41700744628906 -2591.459945678711C-248.64300537109375 -2609.949935913086 -248.2550048828125 -2655.530014038086 -248.2550048828125 -2701.020004272461C-248.2550048828125 -2746.509994506836 -248.64300537109375 -2791.909896850586 -249.41700744628906 -2810.030014038086C-264.89898681640625 -3173.949935913086 -318.9960021972656 -3452.999984741211 -443.5820007324219 -3811.820053100586C-741.0230102539062 -4668.990219116211 -922.802978515625 -5575.700180053711 -973.6209716796875 -6455.640121459961C-983.8519897460938 -6633.089828491211 -988.9500122070312 -6809.399887084961 -988.9500122070312 -6984.399887084961C-988.9500122070312 -8390.589828491211 -659.7960205078125 -9712.549789428711 -19.551025390625 -10867.299789428711C-4.860382080078125 -10893.700180053711 -0.0419769287109375 -10902.499984741211 -0.0419769287109375 -10906.999984741211C-0.0419769287109375 -10909.099594116211 -1.102935791015625 -10910.299789428711 -2.702667236328125 -10911.900375366211C-4.593994140625 -10913.799789428711 -6.846435546875 -10914.700180053711 -9.080413818359375 -10914.700180053711C-11.472030639648438 -10914.700180053711 -13.842437744140625 -10913.599594116211 -15.725936889648438 -10911.499984741211C-23.193832397460938 -10903.400375366211 -122.73602294921875 -10719.499984741211 -180.56602478027344 -10607.200180053711C-710.5140228271484 -9577.499984741211 -1036.3700408935547 -8484.730453491211 -1152.1200408935547 -7349.060043334961C-1181.1000213623047 -7065.430160522461 -1195.8700408935547 -6767.870101928711 -1195.8700408935547 -6478.879867553711C-1195.8700408935547 -6354.660140991211 -1193.1400604248047 -6232.020004272461 -1187.6400604248047 -6112.759750366211C-1148.4800262451172 -5264.970199584961 -998.8480682373047 -4485.120101928711 -721.5340423583984 -3683.870101928711C-622.6300506591797 -3397.989974975586 -563.2510223388672 -3142.629867553711 -530.1000213623047 -2861.030014038086C-513.5880584716797 -2720.489974975586 -505.47703552246094 -2580.999984741211 -505.47703552246094 -2443.300033569336C-505.47703552246094 -1454.759994506836 -923.4820404052734 -558.5759735107422 -1651.4700164794922 -27.873214721679688C-1661.4000701904297 -20.633010864257812 -1666.3600311279297 -16.466415405273438 -1666.3600311279297 -12.299911499023438C-1666.3600311279297 -8.13336181640625 -1661.4000701904297 -3.9668121337890625 -1651.4700164794922 3.273406982421875C-923.4820404052734 533.9769592285156 -505.47703552246094 1430.1600036621094 -505.47703552246094 2418.699920654297C-505.47703552246094 2556.399871826172 -513.5880584716797 2695.889862060547 -530.1000213623047 2836.429901123047C-563.2510223388672 3117.840057373047 -622.6300506591797 3373.120086669922 -721.5340423583984 3659.269989013672C-771.1680755615234 3802.889862060547 -807.2320404052734 3914.449920654297 -844.8450164794922 4041.310028076172C-1079.9600067138672 4833.660125732422 -1198.1600799560547 5648.080047607422 -1198.1600799560547 6473.350067138672C-1198.1600799560547 6635.540008544922 -1193.5900115966797 6798.140106201172 -1184.4499969482422 6961.080047607422C-1178.5300750732422 7066.450164794922 -1167.4200897216797 7215.450164794922 -1160.6800994873047 7278.470184326172L-1155.7600555419922 7327.649871826172C-1037.4600067138672 8512.400360107422 -686.7440643310547 9660.360321044922 -116.36003112792969 10729.599578857422C-73.46563720703125 10809.999969482422 -19.733123779296875 10907.099578857422 -15.725936889648438 10911.599578857422Z" fill="black" /></g></svg>