<?xml version="1.0" encoding="utf-8" ?>
<svg baseProfile="tiny" height="100%" version="1.2" width="100%" xmlns="http://www.w3.org/2000/svg" xmlns:ev="http://www.w3.org/2001/xml-events" xmlns:xlink="http://www.w3.org/1999/xlink"><defs /><g transform="translate(0, 1000) scale(1, -1)"><path d="M-11.449295043945312 1620.8699951171875C-10.639877319335938 1621.0899658203125 -9.83135986328125 1621.199951171875 -9.03948974609375 1621.199951171875C-4.852447509765625 1621.199951171875 -1.1310882568359375 1618.25 -0.21405029296875 1613.8299560546875C-0.079833984375 1613.2099609375 1.52587890625e-05 1612.6500244140625 1.52587890625e-05 1612.0799560546875C1.52587890625e-05 1609.989990234375 -1.0803375244140625 1607.719970703125 -4.5098724365234375 1601.510009765625C-85.85818481445312 1454.3599853515625 -126.62698364257812 1284.0699462890625 -126.62698364257812 1097.6099853515625C-126.62698364257812 933.4569702148438 -95.02949523925781 756.7750244140625 -31.705780029296875 572.3270263671875C-25.724685668945312 554.9119873046875 -23.279388427734375 546.9149780273438 -19.875686645507812 533.9290161132812C-9.86419677734375 495.47900390625 -4.959136962890625 456.8349914550781 -4.959136962890625 418.5C-4.959136962890625 263.24200439453125 -85.41578674316406 113.04800415039062 -232.94898986816406 1.3448944091796875C-235.06398010253906 -0.2743072509765625 -236.8149871826172 -1.6952362060546875 -236.8149871826172 -1.8274078369140625C-236.8149871826172 -1.9595947265625 -235.06398010253906 -3.380523681640625 -232.94898986816406 -4.999725341796875C-85.87298583984375 -116.3699951171875 -5.0243072509765625 -266.1570129394531 -5.0243072509765625 -422.2650146484375C-5.0243072509765625 -445.59698486328125 -6.83026123046875 -469.07000732421875 -10.490982055664062 -492.57598876953125C-14.918991088867188 -521.1929931640625 -20.734878540039062 -544.0269775390625 -31.705780029296875 -575.9819946289062C-51.169189453125 -632.719970703125 -65.74198913574219 -681.4940185546875 -78.36508178710938 -732.1190185546875C-110.28898620605469 -860.3209838867188 -126.19099426269531 -983.3040161132812 -126.19099426269531 -1099.6600341796875C-126.19099426269531 -1285.8499755859375 -85.46908569335938 -1455.0699462890625 -4.5098724365234375 -1601.530029296875C-1.0803375244140625 -1607.739990234375 1.52587890625e-05 -1610.0 1.52587890625e-05 -1612.0999755859375C1.52587890625e-05 -1612.6700439453125 -0.079833984375 -1613.22998046875 -0.21405029296875 -1613.8499755859375C-1.139678955078125 -1618.3900146484375 -4.946319580078125 -1621.199951171875 -9.099380493164062 -1621.199951171875C-10.728485107421875 -1621.199951171875 -12.410980224609375 -1620.77001953125 -13.993789672851562 -1619.8399658203125C-16.207778930664062 -1618.550048828125 -16.339889526367188 -1618.3199462890625 -27.046478271484375 -1598.719970703125C-138.96897888183594 -1393.8699951171875 -203.57199096679688 -1183.81005859375 -216.1619873046875 -983.7550048828125C-218.0129852294922 -954.14697265625 -218.47499084472656 -939.2440185546875 -218.47499084472656 -906.4299926757812C-218.47499084472656 -876.9539794921875 -218.34298706054688 -870.8079833984375 -217.15298461914062 -847.114990234375C-211.60198974609375 -736.9099731445312 -191.906982421875 -636.35498046875 -154.40098571777344 -527.0750122070312C-137.2839813232422 -477.21099853515625 -126.54498291015625 -430.6499938964844 -121.02598571777344 -382.3389892578125C-118.51997375488281 -360.40899658203125 -117.28099060058594 -338.95098876953125 -117.28099060058594 -318.0469970703125C-117.28099060058594 -188.1999969482422 -165.0599822998047 -79.76210021972656 -253.43698120117188 -12.732192993164062C-260.9049835205078 -7.08154296875 -261.73097229003906 -5.991058349609375 -261.73097229003906 -1.8274078369140625C-261.73097229003906 2.3362579345703125 -260.9049835205078 3.4267425537109375 -253.33798217773438 9.176528930664062C-164.7139892578125 76.28521728515625 -117.28297424316406 185.18301391601562 -117.28297424316406 314.6530303955078C-117.28297424316406 352.0220184326172 -121.23399353027344 391.10401916503906 -129.2869873046875 431.39100646972656C-135.99497985839844 464.96400451660156 -143.2319793701172 491.03602600097656 -156.64797973632812 530.1290435791016C-194.02198791503906 638.9450225830078 -213.1549835205078 742.1770172119141 -218.34298706054688 863.2870025634766C-218.92398071289062 876.9060211181641 -219.2119903564453 890.8170318603516 -219.2119903564453 904.9630279541016C-219.2119903564453 1006.6500396728516 -204.3599853515625 1120.479995727539 -177.0039825439453 1225.520034790039C-143.3309783935547 1354.8900299072266 -91.31867980957031 1483.0799713134766 -21.792282104492188 1608.280044555664C-15.579879760742188 1619.4200592041016 -15.216384887695312 1619.8800201416016 -11.44927978515625 1620.8700103759766Z" fill="black" /></g></svg>