<?xml version="1.0" encoding="utf-8" ?>
<svg baseProfile="tiny" height="100%" version="1.2" width="100%" xmlns="http://www.w3.org/2000/svg" xmlns:ev="http://www.w3.org/2001/xml-events" xmlns:xlink="http://www.w3.org/1999/xlink"><defs /><g transform="translate(0, 1000) scale(1, -1)"><path d="M-11.177993774414062 1755.5799560546875C-10.506591796875 1755.7099609375 -9.842239379882812 1755.780029296875 -9.192214965820312 1755.780029296875C-4.7815093994140625 1755.780029296875 -1.02899169921875 1752.8199462890625 -0.1864776611328125 1748.4200439453125C-0.075164794921875 1747.8199462890625 -0.0115203857421875 1747.260009765625 -0.0115203857421875 1746.7099609375C-0.0115203857421875 1744.5799560546875 -0.9421539306640625 1742.43994140625 -3.695159912109375 1737.5C-93.16267395019531 1577.06005859375 -138.30699157714844 1390.18994140625 -138.30699157714844 1184.989990234375C-138.30699157714844 1068.949951171875 -123.87098693847656 947.0549926757812 -94.84928894042969 820.7659912109375C-78.98858642578125 751.7730102539062 -62.80567932128906 696.0640258789062 -33.69798278808594 610.4240112304688C-16.271087646484375 559.14599609375 -7.604156494140625 505.87200927734375 -7.604156494140625 452.4909973144531C-7.604156494140625 383.91900634765625 -21.905380249023438 315.1700134277344 -50.31048583984375 250.2469940185547C-90.51707458496094 158.3769989013672 -159.15098571777344 73.48809814453125 -248.72998046875 4.710845947265625C-253.3839874267578 1.13055419921875 -257.21498107910156 -1.87689208984375 -257.21498107910156 -1.9842987060546875C-257.21498107910156 -2.0916900634765625 -253.3839874267578 -5.0991363525390625 -248.72998046875 -8.679412841796875C-92.43408203125 -128.64398193359375 -7.3514251708984375 -290.94898986816406 -7.3514251708984375 -456.48597717285156C-7.3514251708984375 -509.21498107910156 -15.984176635742188 -562.2719573974609 -33.69798278808594 -614.3920135498047C-58.759979248046875 -688.1459808349609 -72.57987976074219 -734.1529998779297 -86.79359436035156 -791.3300018310547C-120.93397521972656 -928.6139984130859 -137.91798400878906 -1061.030014038086 -137.91798400878906 -1186.6500091552734C-137.91798400878906 -1390.229965209961 -93.30427551269531 -1575.939926147461 -4.8050384521484375 -1735.489974975586C-1.09320068359375 -1742.1700286865234 1.52587890625e-05 -1744.499984741211 1.52587890625e-05 -1746.729965209961C1.52587890625e-05 -1747.300033569336 -0.0704803466796875 -1747.8599700927734 -0.1864776611328125 -1748.479965209961C-1.05084228515625 -1753.030014038086 -5.2389373779296875 -1755.780014038086 -9.427276611328125 -1755.780014038086C-11.831390380859375 -1755.780014038086 -14.235687255859375 -1754.8699798583984 -16.011383056640625 -1752.8899993896484C-18.803985595703125 -1749.699935913086 -51.52778625488281 -1687.979965209961 -65.41928100585938 -1659.6600189208984C-177.29598999023438 -1431.3199310302734 -233.5559844970703 -1205.4300384521484 -233.5559844970703 -985.7009735107422C-233.5559844970703 -911.8499603271484 -227.20098876953125 -838.6949920654297 -214.46697998046875 -766.3749847412109C-202.9019775390625 -700.7490081787109 -187.5789794921875 -642.3539886474609 -163.26898193359375 -571.4290008544922C-136.80398559570312 -494.13597106933594 -123.906982421875 -418.59498596191406 -123.906982421875 -348.1439971923828C-123.906982421875 -206.14898681640625 -176.29698181152344 -84.82908630371094 -275.5819854736328 -11.507888793945312C-280.14698791503906 -8.1602783203125 -282.42897033691406 -5.0722808837890625 -282.42897033691406 -1.984283447265625C-282.42897033691406 1.1037139892578125 -280.14698791503906 4.19171142578125 -275.5819854736328 7.5392913818359375C-176.29698181152344 80.86051940917969 -123.906982421875 202.16500854492188 -123.906982421875 344.1590118408203C-123.906982421875 414.6110076904297 -136.80398559570312 490.15501403808594 -163.26898193359375 567.4600372314453C-193.5579833984375 655.8930206298828 -211.24398803710938 729.5760040283203 -222.84498596191406 815.7530059814453C-230.22998046875 870.5380401611328 -233.89797973632812 926.1110382080078 -233.89797973632812 982.2490386962891C-233.89797973632812 1231.199966430664 -161.7539825439453 1491.270034790039 -21.668182373046875 1743.050064086914C-15.510086059570312 1754.1100006103516 -14.937286376953125 1754.8299713134766 -11.177978515625 1755.5799713134766Z" fill="black" /></g></svg>