<?xml version="1.0" encoding="utf-8" ?>
<svg baseProfile="tiny" height="100%" version="1.2" width="100%" xmlns="http://www.w3.org/2000/svg" xmlns:ev="http://www.w3.org/2001/xml-events" xmlns:xlink="http://www.w3.org/1999/xlink"><defs /><g transform="translate(0, 1000) scale(1, -1)"><path d="M-12.41009521484375 1778.699951171875C-11.249496459960938 1779.1099853515625 -10.098907470703125 1779.300048828125 -8.993331909179688 1779.300048828125C-4.045562744140625 1779.300048828125 0.0 1775.43994140625 0.0 1770.1199951171875C0.0 1769.8299560546875 -0.0122222900390625 1769.530029296875 -0.03717041015625 1769.22998046875C-0.18231201171875 1767.22998046875 -0.6177215576171875 1766.25 -5.116973876953125 1758.1600341796875C-94.84880065917969 1596.2099609375 -140.25399780273438 1407.219970703125 -140.25399780273438 1200.02001953125C-140.25399780273438 1101.989990234375 -130.09100341796875 999.8809814453125 -109.65200805664062 894.6309814453125C-91.54620361328125 801.489990234375 -71.00930786132812 726.0910034179688 -34.071807861328125 617.6010131835938C-16.675003051757812 566.510009765625 -7.95849609375 512.656982421875 -7.95849609375 458.52398681640625C-7.95849609375 409.010986328125 -15.250701904296875 359.26300048828125 -29.862899780273438 311.17999267578125C-65.31259155273438 194.49000549316406 -144.593994140625 86.0360107421875 -256.2040100097656 1.52984619140625C-258.5260009765625 -0.2480926513671875 -260.45001220703125 -1.8083038330078125 -260.45001220703125 -1.9534454345703125C-260.45001220703125 -2.09857177734375 -258.5260009765625 -3.6587982177734375 -256.2040100097656 -5.4367218017578125C-144.593994140625 -89.94288635253906 -65.31259155273438 -198.39698791503906 -29.862899780273438 -315.0869903564453C-15.256195068359375 -363.1739959716797 -7.964752197265625 -412.9619903564453 -7.964752197265625 -462.5029754638672C-7.964752197265625 -516.5819549560547 -16.6531982421875 -570.3679656982422 -33.999298095703125 -621.3259735107422C-66.11090087890625 -715.6290130615234 -83.2008056640625 -775.6069793701172 -100.47200012207031 -854.3799896240234C-126.77799987792969 -974.4109954833984 -139.85800170898438 -1090.6299896240234 -139.85800170898438 -1201.6500091552734C-139.85800170898438 -1408.0799407958984 -94.63519287109375 -1596.520004272461 -5.116973876953125 -1758.0799407958984C-0.6177215576171875 -1766.1700286865234 -0.18231201171875 -1767.1500091552734 -0.03717041015625 -1769.1399993896484C-0.01348876953125 -1769.4300384521484 -0.001922607421875 -1769.719955444336 -0.001922607421875 -1769.999984741211C-0.001922607421875 -1775.479965209961 -4.41156005859375 -1779.300033569336 -9.077545166015625 -1779.300033569336C-11.127105712890625 -1779.300033569336 -13.226104736328125 -1778.5699310302734 -15.022598266601562 -1776.9100189208984C-19.70330810546875 -1772.6299896240234 -59.108001708984375 -1697.1600189208984 -80.552001953125 -1651.509994506836C-184.01400756835938 -1431.020004272461 -236.00999450683594 -1211.249984741211 -236.00999450683594 -998.5839691162109C-236.00999450683594 -856.3119964599609 -212.73899841308594 -717.2219696044922 -166.03799438476562 -583.2280120849609C-138.37399291992188 -503.83299255371094 -124.88999938964844 -426.0549774169922 -124.88999938964844 -353.51097106933594C-124.88999938964844 -210.9259796142578 -176.9810028076172 -88.56288146972656 -275.8699951171875 -13.8909912109375C-284.6510009765625 -7.250946044921875 -285.4859924316406 -6.2349853515625 -285.4859924316406 -1.95343017578125C-285.4859924316406 2.3281097412109375 -284.6510009765625 3.3440704345703125 -275.8699951171875 9.984100341796875C-176.9810028076172 84.65602111816406 -124.88999938964844 206.95501708984375 -124.88999938964844 349.54002380371094C-124.88999938964844 422.08302307128906 -138.37399291992188 499.8770294189453 -166.03799438476562 579.3209991455078C-212.95599365234375 714.0739898681641 -236.35800170898438 853.9120025634766 -236.35800170898438 996.9240264892578C-236.35800170898438 1192.790054321289 -192.46400451660156 1394.5999908447266 -104.97100830078125 1597.459976196289C-79.68119812011719 1656.0899810791016 -53.592803955078125 1708.740005493164 -17.852798461914062 1773.260025024414C-16.365097045898438 1775.939956665039 -14.260604858398438 1778.050064086914 -12.41009521484375 1778.699966430664Z" fill="black" /></g></svg>