<?xml version="1.0" encoding="utf-8" ?>
<svg baseProfile="tiny" height="100%" version="1.2" width="100%" xmlns="http://www.w3.org/2000/svg" xmlns:ev="http://www.w3.org/2001/xml-events" xmlns:xlink="http://www.w3.org/1999/xlink"><defs /><g transform="translate(0, 1000) scale(1, -1)"><path d="M-13.601699829101562 3768.47998046875C-12.1527099609375 3769.199951171875 -10.596221923828125 3769.550048828125 -9.07696533203125 3769.550048828125C-5.7066192626953125 3769.550048828125 -2.519439697265625 3767.8701171875 -1.0948028564453125 3764.97998046875C-0.4152069091796875 3763.570068359375 -1.52587890625e-05 3762.43994140625 -1.52587890625e-05 3761.090087890625C-1.52587890625e-05 3758.139892578125 -2.0045318603515625 3754.169921875 -7.6132354736328125 3744.050048828125C-196.1710205078125 3404.610107421875 -301.9500274658203 3011.81005859375 -318.06101989746094 2591.18994140625C-319.43800354003906 2554.6201171875 -319.70301818847656 2541.419921875 -320.02101135253906 2491.820068359375C-320.0590057373047 2485.389892578125 -320.07801818847656 2478.969970703125 -320.07801818847656 2472.5400390625C-320.07801818847656 2088.47998046875 -253.02500915527344 1710.010009765625 -113.02101135253906 1303.1300048828125C-72.86131286621094 1186.449951171875 -53.280517578125 1067.030029296875 -53.280517578125 948.4359741210938C-53.280517578125 631.9730224609375 -192.7160186767578 321.45001220703125 -452.6160125732422 84.87240600585938C-484.89002990722656 55.51300048828125 -530.6250152587891 17.939193725585938 -557.9710235595703 -1.616119384765625C-559.8800201416016 -2.9978179931640625 -560.9080352783203 -3.581634521484375 -560.9080352783203 -4.2199859619140625C-560.9080352783203 -4.9282684326171875 -559.6430206298828 -5.7036895751953125 -556.9110260009766 -7.7105865478515625C-487.32801818847656 -58.215301513671875 -409.3190155029297 -130.0240020751953 -348.2150115966797 -199.66000366210938C-154.6070098876953 -420.510986328125 -53.219512939453125 -687.4210205078125 -53.219512939453125 -957.1829833984375C-53.219512939453125 -1075.75 -72.80561828613281 -1194.8699951171875 -112.75601196289062 -1310.8699951171875C-156.1590118408203 -1437.050048828125 -187.90402221679688 -1542.989990234375 -214.9840087890625 -1652.1600341796875C-284.8610076904297 -1934.1600341796875 -319.5500030517578 -2210.780029296875 -319.5500030517578 -2476.949951171875C-319.5500030517578 -2939.72998046875 -214.6940155029297 -3370.949951171875 -7.6132354736328125 -3744.10009765625C-2.0045318603515625 -3754.22998046875 -1.52587890625e-05 -3758.18994140625 -1.52587890625e-05 -3761.14990234375C-1.52587890625e-05 -3762.489990234375 -0.4152069091796875 -3763.6298828125 -1.0948028564453125 -3765.030029296875C-2.523651123046875 -3767.97998046875 -6.1186370849609375 -3769.550048828125 -9.566574096679688 -3769.550048828125C-12.384811401367188 -3769.550048828125 -15.10491943359375 -3768.5 -16.463516235351562 -3766.31005859375C-20.226119995117188 -3760.320068359375 -46.67091369628906 -3711.929931640625 -60.87361145019531 -3685.06005859375C-290.4500274658203 -3251.510009765625 -422.51502990722656 -2788.330078125 -446.5740203857422 -2332.360107421875C-449.54200744628906 -2275.60009765625 -450.2840118408203 -2245.919921875 -450.2840118408203 -2179.989990234375C-450.2840118408203 -2113.909912109375 -449.75401306152344 -2092.340087890625 -446.83900451660156 -2033.989990234375C-433.8560028076172 -1777.3299560546875 -385.04701232910156 -1521.3699951171875 -303.27500915527344 -1280.9300537109375C-289.2310028076172 -1239.5400390625 -279.69200134277344 -1210.9200439453125 -276.2470245361328 -1199.5799560546875C-234.95201110839844 -1064.0699462890625 -214.90602111816406 -929.5900268554688 -214.90602111816406 -800.9190063476562C-214.90602111816406 -478.9530029296875 -340.4180145263672 -193.36798095703125 -572.5980377197266 -19.157577514648438C-578.1090240478516 -15.076980590820312 -582.9320220947266 -11.473281860351562 -583.3560333251953 -11.26129150390625C-585.1309967041016 -10.2808837890625 -586.0189971923828 -7.2733612060546875 -586.0189971923828 -4.265869140625C-586.0189971923828 -1.2583770751953125 -585.1309967041016 1.7490997314453125 -583.3560333251953 2.729522705078125C-582.9320220947266 2.941497802734375 -578.1090240478516 6.545196533203125 -572.5980377197266 10.625808715820312C-340.42201232910156 184.8330078125 -214.8830108642578 470.46600341796875 -214.8830108642578 792.4180297851562C-214.8830108642578 921.0910034179688 -234.9350128173828 1055.5699462890625 -276.2470245361328 1191.050048828125C-279.74501037597656 1202.550048828125 -288.48902893066406 1228.8299560546875 -303.1160125732422 1271.9200439453125C-401.79502868652344 1562.2900390625 -451.3470001220703 1866.6500244140625 -451.3470001220703 2176.14990234375C-451.3470001220703 2390.739990234375 -427.5280303955078 2607.7900390625 -379.7470245361328 2824.3701171875C-309.8460235595703 3141.1201171875 -187.90402221679688 3459.570068359375 -24.571823120117188 3751.840087890625C-15.350616455078125 3768.3701171875 -16.092514038085938 3767.260009765625 -13.601715087890625 3768.47998046875Z" fill="black" /></g></svg>