<?xml version="1.0" encoding="utf-8" ?>
<svg baseProfile="tiny" height="100%" version="1.2" width="100%" xmlns="http://www.w3.org/2000/svg" xmlns:ev="http://www.w3.org/2001/xml-events" xmlns:xlink="http://www.w3.org/1999/xlink"><defs /><g transform="translate(0, 1000) scale(1, -1)"><path d="M-20.723800659179688 559.6409912109375C-19.933486938476562 559.8499755859375 -19.147979736328125 559.948974609375 -18.380584716796875 559.948974609375C-13.540084838867188 559.948974609375 -9.42376708984375 556.010986328125 -9.42376708984375 550.9010009765625C-9.42376708984375 550.7410278320312 -9.42779541015625 550.5800170898438 -9.435958862304688 550.4180297851562C-9.529129028320312 548.35302734375 -9.699920654296875 547.9030151367188 -11.656280517578125 544.3319702148438C-35.19038391113281 501.57501220703125 -46.961090087890625 452.7460021972656 -46.961090087890625 397.0570068359375C-46.961090087890625 340.0249938964844 -34.61589050292969 275.7959899902344 -9.91729736328125 203.5229949951172C-3.052459716796875 183.4080047607422 -0.0670623779296875 167.45899963378906 -0.0670623779296875 149.85000610351562C-0.0670623779296875 146.947998046875 -0.1481475830078125 144.0 -0.3063201904296875 140.98199462890625C-3.070068359375 88.57969665527344 -30.024185180664062 43.53700256347656 -83.83938598632812 1.382293701171875C-85.15919494628906 0.3575439453125 -86.24607849121094 -0.5585174560546875 -86.24607849121094 -0.620635986328125C-86.24607849121094 -0.6827392578125 -85.15919494628906 -1.59881591796875 -83.83938598632812 -2.623565673828125C-35.427490234375 -40.55499267578125 -9.016738891601562 -80.42730712890625 -1.9521484375 -126.30799865722656C-0.6598968505859375 -134.6929931640625 1.52587890625e-05 -142.71499633789062 1.52587890625e-05 -150.6490020751953C1.52587890625e-05 -168.0709991455078 -3.1824951171875 -185.0659942626953 -9.83966064453125 -204.5469970703125C-33.00538635253906 -272.28900146484375 -45.78367614746094 -335.52899169921875 -46.73088073730469 -387.0C-46.77738952636719 -389.468994140625 -46.83958435058594 -392.72900390625 -46.88609313964844 -394.2200012207031C-46.89988708496094 -394.68798828125 -46.90618896484375 -395.3760070800781 -46.90618896484375 -396.2250061035156C-46.90618896484375 -401.1180114746094 -46.696380615234375 -411.3349914550781 -46.49798583984375 -415.30499267578125C-44.10688781738281 -463.2669982910156 -32.33769226074219 -506.9119873046875 -11.687286376953125 -544.2839965820312C-9.699920654296875 -547.9019775390625 -9.529129028320312 -548.3369750976562 -9.435958862304688 -550.4169921875C-9.42791748046875 -550.5830078125 -9.4239501953125 -550.7479858398438 -9.4239501953125 -550.9110107421875C-9.4239501953125 -556.3200073242188 -13.806182861328125 -559.948974609375 -18.422683715820312 -559.948974609375C-20.63348388671875 -559.948974609375 -22.898086547851562 -559.1170043945312 -24.76068115234375 -557.2490234375C-26.018386840820312 -555.9910278320312 -26.530776977539062 -555.1060180664062 -33.113983154296875 -542.9650268554688C-81.64857482910156 -453.3710021972656 -105.46498107910156 -372.6969909667969 -105.46498107910156 -295.6679992675781C-105.46498107910156 -262.29998779296875 -100.99598693847656 -229.61599731445312 -92.13058471679688 -197.18699645996094C-90.15878295898438 -189.9669952392578 -88.41978454589844 -184.4709930419922 -84.32078552246094 -172.4219970703125C-74.95817565917969 -144.8780059814453 -69.91209411621094 -119.8179931640625 -69.15129089355469 -97.14950561523438C-69.09268188476562 -95.41000366210938 -69.06358337402344 -93.68521118164062 -69.06358337402344 -91.97549438476562C-69.06358337402344 -56.036407470703125 -81.94898986816406 -26.780899047851562 -105.85598754882812 -8.787612915039062C-109.3809814453125 -6.132568359375 -110.62298583984375 -4.00543212890625 -110.62298583984375 -0.620635986328125C-110.62298583984375 2.7641754150390625 -109.3809814453125 4.8913116455078125 -105.85598754882812 7.546356201171875C-81.94898986816406 25.539703369140625 -69.06358337402344 54.79510498046875 -69.06358337402344 90.73429870605469C-69.06358337402344 92.44400024414062 -69.09268188476562 94.16879272460938 -69.15129089355469 95.908203125C-69.94308471679688 119.57099914550781 -75.17558288574219 144.6929931640625 -85.54737854003906 174.8300018310547C-98.87577819824219 213.49000549316406 -105.54597473144531 253.62399291992188 -105.54597473144531 294.7929992675781C-105.54597473144531 323.5469970703125 -102.29197692871094 352.8070068359375 -95.77938842773438 382.4200134277344C-88.34208679199219 416.1600036621094 -77.41139221191406 448.81201171875 -60.891082763671875 486.60400390625C-52.6309814453125 505.5 -41.09468078613281 528.5570068359375 -28.2852783203125 551.8159790039062C-25.164382934570312 557.4669799804688 -23.875686645507812 558.802978515625 -20.723785400390625 559.6409912109375Z" fill="black" /></g></svg>