<?xml version="1.0" encoding="utf-8" ?>
<svg baseProfile="tiny" height="100%" version="1.2" width="100%" xmlns="http://www.w3.org/2000/svg" xmlns:ev="http://www.w3.org/2001/xml-events" xmlns:xlink="http://www.w3.org/1999/xlink"><defs /><g transform="translate(0, 1000) scale(1, -1)"><path d="M-11.42010498046875 3129.679931640625C-10.692092895507812 3129.840087890625 -9.9754638671875 3129.909912109375 -9.277786254882812 3129.909912109375C-4.139312744140625 3129.909912109375 -0.0308837890625 3125.89990234375 -0.0308837890625 3120.9599609375C-0.0308837890625 3120.300048828125 -0.103424072265625 3119.6201171875 -0.2557373046875 3118.93994140625C-0.4902801513671875 3117.860107421875 -3.3986358642578125 3112.139892578125 -6.7291717529296875 3106.179931640625C-174.76300048828125 2803.179931640625 -261.9530029296875 2447.5 -261.9530029296875 2068.030029296875C-261.9530029296875 2034.030029296875 -261.25299072265625 1999.8499755859375 -259.8500061035156 1965.5C-247.84100341796875 1671.3800048828125 -192.86399841308594 1391.8499755859375 -85.91140747070312 1081.27001953125C-54.01930236816406 988.6259765625 -37.91130065917969 890.656982421875 -37.91130065917969 792.1439819335938C-37.91130065917969 735.4710083007812 -43.242401123046875 678.6170043945312 -53.96649169921875 622.4959716796875C-99.23359680175781 385.6059875488281 -242.1649932861328 164.80599975585938 -453.5840148925781 5.268463134765625C-459.4939880371094 0.7652130126953125 -464.37298583984375 -3.0813140869140625 -464.37298583984375 -3.2689666748046875C-464.37298583984375 -3.45660400390625 -459.4939880371094 -7.303131103515625 -453.5840148925781 -11.806396484375C-272.7030029296875 -148.31100463867188 -140.60699462890625 -331.0220031738281 -78.73440551757812 -530.291015625C-51.49700927734375 -617.9180297851562 -37.90159606933594 -708.5430297851562 -37.90159606933594 -798.8729858398438C-37.90159606933594 -896.9359741210938 -53.92469787597656 -994.6510009765625 -85.91140747070312 -1087.800048828125C-133.71200561523438 -1227.030029296875 -163.49899291992188 -1330.9300537109375 -190.8939971923828 -1453.5999755859375C-237.79100036621094 -1663.93994140625 -261.0660095214844 -1869.9100341796875 -261.0660095214844 -2068.389892578125C-261.0660095214844 -2449.02001953125 -175.47000122070312 -2802.10009765625 -6.7291717529296875 -3105.639892578125C-2.068389892578125 -3114.0400390625 0.0 -3118.330078125 0.0 -3121.340087890625C0.0 -3123.419921875 -0.9871978759765625 -3124.89990234375 -2.788818359375 -3126.699951171875C-4.8924713134765625 -3128.820068359375 -6.880523681640625 -3129.909912109375 -8.881362915039062 -3129.909912109375C-12.859100341796875 -3129.909912109375 -16.887298583984375 -3125.590087890625 -21.974594116210938 -3116.3798828125L-42.33299255371094 -3079.320068359375C-179.16598510742188 -2826.530029296875 -278.6129913330078 -2555.25 -332.83998107910156 -2286.800048828125C-365.8619842529297 -2123.340087890625 -382.31297302246094 -1959.8199462890625 -382.31297302246094 -1798.1800537109375C-382.31297302246094 -1543.52001953125 -341.47898864746094 -1293.5699462890625 -260.27198791503906 -1056.0C-235.1759796142578 -982.6329956054688 -225.74697875976562 -950.2659912109375 -214.1599884033203 -898.0570068359375C-195.8569793701172 -815.4140014648438 -186.927978515625 -734.18798828125 -186.927978515625 -655.8610229492188C-186.927978515625 -389.7179870605469 -290.02198791503906 -157.04800415039062 -478.7739715576172 -16.0281982421875C-486.34898376464844 -10.375701904296875 -490.13697814941406 -6.8223114013671875 -490.13697814941406 -3.2689666748046875C-490.13697814941406 0.284393310546875 -486.34898376464844 3.837738037109375 -478.7739715576172 9.490264892578125C-288.8729705810547 151.3730010986328 -186.83499145507812 385.6619873046875 -186.83499145507812 650.0460205078125C-186.83499145507812 768.4290161132812 -207.29298400878906 892.8469848632812 -249.4829864501953 1017.7000122070312L-261.4919891357422 1053.1199951171875C-328.0079803466797 1248.6800537109375 -368.11497497558594 1456.9100341796875 -379.4669952392578 1665.280029296875C-382.18797302246094 1715.6600341796875 -382.75099182128906 1737.52001953125 -382.75099182128906 1795.449951171875C-382.75099182128906 1853.25 -382.18797302246094 1874.9200439453125 -379.4669952392578 1926.56005859375C-358.73399353027344 2316.10009765625 -238.458984375 2722.800048828125 -33.88938903808594 3095.300048828125C-15.360382080078125 3128.97998046875 -15.501083374023438 3128.7900390625 -11.420089721679688 3129.679931640625Z" fill="black" /></g></svg>