<?xml version="1.0" encoding="utf-8" ?>
<svg baseProfile="tiny" height="100%" version="1.2" width="100%" xmlns="http://www.w3.org/2000/svg" xmlns:ev="http://www.w3.org/2001/xml-events" xmlns:xlink="http://www.w3.org/1999/xlink"><defs /><g transform="translate(0, 1000) scale(1, -1)"><path d="M-14.453094482421875 5766.18994140625C-12.953598022460938 5767.2001953125 -11.175003051757812 5767.669921875 -9.3951416015625 5767.669921875C-6.24334716796875 5767.669921875 -3.08740234375 5766.18017578125 -1.469329833984375 5763.52978515625C-0.6129913330078125 5762.1201171875 -0.0483856201171875 5761.0498046875 -0.0483856201171875 5759.56005859375C-0.0483856201171875 5756.08984375 -3.1284027099609375 5750.35986328125 -12.765304565429688 5732.9501953125C-339.11900329589844 5143.06982421875 -505.8250274658203 4464.06982421875 -505.8250274658203 3738.409912109375C-505.8250274658203 3508.760009765625 -489.12901306152344 3274.43994140625 -455.5130157470703 3036.7900390625C-407.34400939941406 2695.840087890625 -321.26100158691406 2341.3798828125 -206.614013671875 2011.719970703125C-194.14901733398438 1975.949951171875 -182.85301208496094 1941.6700439453125 -176.4910125732422 1920.510009765625C-128.40802001953125 1760.1099853515625 -104.83001708984375 1596.800048828125 -104.83001708984375 1434.5899658203125C-104.83001708984375 1015.75 -262.01100158691406 604.1640014648438 -560.4229888916016 268.6440124511719C-647.0900421142578 171.1999969482422 -757.2570343017578 70.70539855957031 -855.4149932861328 -0.5757904052734375C-859.5700225830078 -3.56207275390625 -862.8809967041016 -6.0939178466796875 -862.8809967041016 -6.2886810302734375C-862.8809967041016 -6.4834442138671875 -859.5700225830078 -9.015274047851562 -855.4149932861328 -12.001602172851562C-748.6230010986328 -89.51499938964844 -632.4829864501953 -197.21600341796875 -539.9080352783203 -304.5920104980469C-254.72801208496094 -635.5590209960938 -104.88101196289062 -1038.1500244140625 -104.88101196289062 -1447.2900390625C-104.88101196289062 -1609.550048828125 -128.45001220703125 -1772.8299560546875 -176.4910125732422 -1933.0899658203125C-182.7880096435547 -1954.06005859375 -194.01901245117188 -1988.0699462890625 -206.614013671875 -2024.300048828125C-326.97401428222656 -2371.10009765625 -414.16001892089844 -2737.31005859375 -461.0320281982422 -3093.18994140625C-490.08302307128906 -3313.6298828125 -504.52000427246094 -3531.0 -504.52000427246094 -3744.260009765625C-504.52000427246094 -4467.89013671875 -338.2880096435547 -5144.169921875 -12.765304565429688 -5732.5400390625C-3.821624755859375 -5748.669921875 0.0 -5756.18017578125 0.0 -5760.4501953125C0.0 -5763.27978515625 -1.676025390625 -5764.68017578125 -4.6503753662109375 -5766.240234375C-6.4484100341796875 -5767.14990234375 -7.9945526123046875 -5767.669921875 -9.448654174804688 -5767.669921875C-13.664596557617188 -5767.669921875 -17.106903076171875 -5763.31005859375 -23.67169189453125 -5751.6298828125C-326.0 -5212.41015625 -530.7550048828125 -4614.509765625 -614.6300048828125 -4025.75C-617.8109741210938 -4003.679931640625 -619.3690185546875 -3992.06005859375 -625.0170288085938 -3949.800048828125C-648.8660278320312 -3770.97998046875 -661.1170043945312 -3573.080078125 -661.1170043945312 -3376.679931640625C-661.1170043945312 -3284.389892578125 -658.4119873046875 -3192.419921875 -652.9320068359375 -3102.929931640625C-629.2369995117188 -2716.530029296875 -551.1389770507812 -2321.429931640625 -427.5979919433594 -1962.8199462890625C-410.2650146484375 -1912.510009765625 -398.45001220703125 -1877.1300048828125 -391.37298583984375 -1854.0799560546875C-329.3580017089844 -1652.8800048828125 -299.22198486328125 -1451.300048828125 -299.22198486328125 -1256.8499755859375C-299.22198486328125 -787.31298828125 -474.947998046875 -359.41400146484375 -801.8569946289062 -79.19281005859375C-824.8380126953125 -59.522308349609375 -856.6489868164062 -34.268798828125 -877.8770141601562 -18.947906494140625C-885.1160278320312 -13.689498901367188 -888.7349853515625 -9.98907470703125 -888.7349853515625 -6.2886810302734375C-888.7349853515625 -2.588287353515625 -885.1160278320312 1.1121063232421875 -877.8770141601562 6.37054443359375C-816.0089721679688 51.09979248046875 -748.0390014648438 111.7340087890625 -692.0139770507812 172.1739959716797C-434.6099853515625 450.11997985839844 -299.2820129394531 831.9709930419922 -299.2820129394531 1244.259994506836C-299.2820129394531 1439.1299896240234 -329.51300048828125 1640.790023803711 -391.37298583984375 1841.499984741211C-398.45001220703125 1864.479965209961 -410.2650146484375 1899.9300384521484 -427.27398681640625 1949.4000091552734C-582.5170288085938 2399.999984741211 -662.5989990234375 2886.360092163086 -662.5989990234375 3374.020004272461C-662.5989990234375 3445.129867553711 -660.89697265625 3516.259994506836 -657.4769897460938 3587.310043334961C-626.2509765625 4236.169906616211 -456.0979919433594 4885.370101928711 -156.43099975585938 5498.529769897461C-108.19599914550781 5597.270004272461 -20.945098876953125 5761.709945678711 -14.453094482421875 5766.189926147461Z" fill="black" /></g></svg>