<?xml version="1.0" encoding="utf-8" ?>
<svg baseProfile="tiny" height="100%" version="1.2" width="100%" xmlns="http://www.w3.org/2000/svg" xmlns:ev="http://www.w3.org/2001/xml-events" xmlns:xlink="http://www.w3.org/1999/xlink"><defs /><g transform="translate(0, 1000) scale(1, -1)"><path d="M-12.914993286132812 5116.4501953125C-11.660385131835938 5117.009765625 -10.385391235351562 5117.27001953125 -9.151611328125 5117.27001953125C-4.3917388916015625 5117.27001953125 -0.244842529296875 5113.419921875 -0.244842529296875 5108.1201171875C-0.244842529296875 5108.08984375 -0.2449798583984375 5108.06005859375 -0.2452545166015625 5108.02978515625V5103.97021484375L-9.944549560546875 5086.68994140625C-58.198577880859375 5000.85009765625 -109.84696960449219 4895.7998046875 -153.43397521972656 4795.10009765625C-347.7319641113281 4345.9501953125 -444.9739685058594 3847.39990234375 -444.9739685058594 3325.68994140625C-444.9739685058594 2823.22998046875 -354.77996826171875 2299.2900390625 -174.22596740722656 1777.2900390625C-122.57797241210938 1627.9200439453125 -96.81387329101562 1498.1300048828125 -89.296875 1349.18994140625C-88.05447387695312 1324.5799560546875 -87.43756103515625 1300.010009765625 -87.43756103515625 1275.47998046875C-87.43756103515625 787.7310180664062 -331.333984375 318.0419921875 -751.5769958496094 3.65277099609375C-758.4269714355469 -1.439361572265625 -764.0039978027344 -5.804046630859375 -764.0039978027344 -6.0465240478515625C-764.0039978027344 -6.28900146484375 -758.4269714355469 -10.653701782226562 -751.5769958496094 -15.745803833007812C-593.9029846191406 -133.71400451660156 -456.71795654296875 -277.8089904785156 -350.4499816894531 -437.1199951171875C-176.7959747314453 -697.3720092773438 -87.4627685546875 -991.0709838867188 -87.4627685546875 -1288.030029296875C-87.4627685546875 -1422.2099609375 -105.70196533203125 -1557.06005859375 -142.64297485351562 -1689.780029296875C-152.15997314453125 -1723.9100341796875 -159.0709686279297 -1745.4300537109375 -183.80397033691406 -1817.3900146484375C-244.66796875 -1994.3399658203125 -298.49896240234375 -2187.719970703125 -338.386962890625 -2372.3701171875C-408.8609619140625 -2698.81005859375 -443.8229675292969 -3020.429931640625 -443.8229675292969 -3332.5400390625C-443.8229675292969 -3962.22998046875 -301.511962890625 -4553.169921875 -21.40185546875 -5066.64990234375L-5.2767486572265625 -5095.75C-1.7555999755859375 -5101.8701171875 4.57763671875e-05 -5106.72998046875 4.57763671875e-05 -5110.27001953125C4.57763671875e-05 -5114.89990234375 -2.9988555908203125 -5117.27001953125 -8.974594116210938 -5117.27001953125C-14.854751586914062 -5117.27001953125 -14.976058959960938 -5117.2099609375 -29.828048706054688 -5090.2998046875C-399.58094787597656 -4423.35986328125 -592.9139556884766 -3698.10009765625 -592.9139556884766 -2986.5C-592.9139556884766 -2899.75 -590.0409698486328 -2813.2099609375 -584.2639312744141 -2727.0C-560.9249420166016 -2379.340087890625 -493.45396423339844 -2047.510009765625 -378.33595275878906 -1715.0C-331.35496520996094 -1579.2099609375 -302.0149688720703 -1455.8499755859375 -285.76795959472656 -1325.449951171875C-276.58396911621094 -1251.9599609375 -272.0679473876953 -1179.4100341796875 -272.0679473876953 -1108.2099609375C-272.0679473876953 -659.1400146484375 -451.72096252441406 -263.7539978027344 -773.0969390869141 -23.323394775390625C-788.8519439697266 -11.47979736328125 -789.4689483642578 -11.220199584960938 -789.4689483642578 -7.1719207763671875L-789.4649810791016 -6.0465240478515625L-789.4679718017578 -5.0186004638671875C-789.4679718017578 -0.8566436767578125 -788.9449615478516 -0.6009979248046875 -774.1879425048828 10.381683349609375C-486.36195373535156 224.8569793701172 -308.31895446777344 567.9089813232422 -276.91795349121094 968.4299774169922C-273.6199493408203 1010.6199798583984 -271.9789581298828 1053.209945678711 -271.9789581298828 1096.060043334961C-271.9789581298828 1288.709945678711 -305.1339569091797 1486.6700286865234 -369.8489532470703 1677.689926147461C-411.8589630126953 1801.6600189208984 -424.34693908691406 1840.8799896240234 -445.1399688720703 1913.810043334961C-528.5539703369141 2206.790023803711 -576.2019805908203 2499.949935913086 -590.0229644775391 2805.229965209961C-592.9929351806641 2871.550033569336 -593.6599273681641 2902.040023803711 -593.6599273681641 2981.340072631836C-593.6599273681641 3064.989974975586 -592.7509307861328 3104.149887084961 -589.1139678955078 3177.749984741211C-557.5909576416016 3814.870101928711 -373.9109649658203 4455.020004272461 -52.13645935058594 5049.109848022461C-22.796051025390625 5103.359848022461 -15.885360717773438 5115.120101928711 -12.914947509765625 5116.450180053711Z" fill="black" /></g></svg>