<?xml version="1.0" encoding="utf-8" ?>
<svg baseProfile="tiny" height="100%" version="1.2" width="100%" xmlns="http://www.w3.org/2000/svg" xmlns:ev="http://www.w3.org/2001/xml-events" xmlns:xlink="http://www.w3.org/1999/xlink"><defs /><g transform="translate(0, 1000) scale(1, -1)"><path d="M-19.32989501953125 775.1929931640625C-18.58489990234375 775.3779907226562 -17.844100952148438 775.4660034179688 -17.118804931640625 775.4660034179688C-12.27099609375 775.4660034179688 -8.1197509765625 771.5250244140625 -8.1197509765625 766.3579711914062C-8.1197509765625 763.7020263671875 -8.141357421875 763.6370239257812 -11.44610595703125 757.697021484375C-38.3804931640625 709.27099609375 -56.02729797363281 648.3610229492188 -60.9302978515625 586.9539794921875C-62.04710388183594 572.9130249023438 -62.602996826171875 558.531982421875 -62.602996826171875 543.8389892578125C-62.602996826171875 462.76300048828125 -45.673004150390625 372.22698974609375 -12.612396240234375 277.4339904785156C-4.11810302734375 253.06100463867188 0.0 229.5919952392578 0.0 205.26100158691406C0.0 201.19400024414062 -0.11505126953125 197.10299682617188 -0.343963623046875 192.97999572753906C-4.3182525634765625 121.593994140625 -42.50599670410156 57.357208251953125 -114.02200317382812 1.8466796875C-115.81399536132812 0.442718505859375 -117.30499267578125 -0.7884521484375 -117.30499267578125 -0.874847412109375C-117.30499267578125 -0.96124267578125 -115.81399536132812 -2.192413330078125 -114.0 -3.59637451171875C-42.50599670410156 -59.106903076171875 -4.3182525634765625 -123.343994140625 -0.343963623046875 -194.72999572753906C-0.11505126953125 -198.85299682617188 0.0 -202.94400024414062 0.0 -207.00999450683594C0.0 -231.33700561523438 -4.11810302734375 -254.79200744628906 -12.612396240234375 -279.1830139160156C-37.64619445800781 -351.00201416015625 -54.06170654296875 -423.5539855957031 -59.958404541015625 -488.3739929199219C-61.634796142578125 -506.906005859375 -62.482391357421875 -526.0159912109375 -62.482391357421875 -544.364013671875C-62.482391357421875 -556.510986328125 -62.11090087890625 -568.3250122070312 -61.3623046875 -579.416015625C-56.86970520019531 -645.4229736328125 -39.546905517578125 -707.3060302734375 -11.44610595703125 -757.718994140625C-8.141357421875 -763.6589965820312 -8.1197509765625 -763.7230224609375 -8.1197509765625 -766.3800048828125C-8.1197509765625 -771.8629760742188 -12.60650634765625 -775.4660034179688 -17.223907470703125 -775.4660034179688C-19.537200927734375 -775.4660034179688 -21.883392333984375 -774.56201171875 -23.714508056640625 -772.5360107421875C-26.565704345703125 -769.3820190429688 -47.646697998046875 -729.1430053710938 -58.511199951171875 -706.1829833984375C-106.64300537109375 -604.1840209960938 -130.39999389648438 -509.0929870605469 -130.39999389648438 -417.1199951171875C-130.39999389648438 -385.7690124511719 -127.63999938964844 -354.77899169921875 -122.14300537109375 -324.00201416015625C-117.62899780273438 -298.7090148925781 -111.947998046875 -276.9590148925781 -102.29299926757812 -248.0800018310547C-92.87590026855469 -219.93600463867188 -88.77200317382812 -204.32000732421875 -85.03530883789062 -182.5260009765625C-82.2510986328125 -166.29800415039062 -80.8743896484375 -150.75599670410156 -80.8743896484375 -136.00599670410156C-80.8743896484375 -81.29580688476562 -99.8131103515625 -37.46699523925781 -136.1179962158203 -9.838607788085938C-140.89100646972656 -6.2099151611328125 -141.82000732421875 -4.74114990234375 -141.82000732421875 -0.874847412109375C-141.82000732421875 2.991455078125 -140.89100646972656 4.460205078125 -136.1179962158203 8.088912963867188C-99.94560241699219 35.613800048828125 -80.86318969726562 79.472900390625 -80.86318969726562 134.0760040283203C-80.86318969726562 142.07400512695312 -81.272705078125 150.30299377441406 -82.09780883789062 158.7449951171875C-84.86250305175781 186.8459930419922 -90.67279052734375 212.11700439453125 -102.29299926757812 246.33099365234375C-121.11000061035156 301.7650146484375 -130.54600524902344 358.2760009765625 -130.54600524902344 416.26300048828125C-130.54600524902344 524.4769897460938 -97.68299865722656 637.8259887695312 -31.598297119140625 758.885009765625C-23.498504638671875 773.7239990234375 -23.131393432617188 774.2210083007812 -19.32989501953125 775.1929931640625Z" fill="black" /></g></svg>