<?xml version="1.0" encoding="utf-8" ?>
<svg baseProfile="tiny" height="100%" version="1.2" width="100%" xmlns="http://www.w3.org/2000/svg" xmlns:ev="http://www.w3.org/2001/xml-events" xmlns:xlink="http://www.w3.org/1999/xlink"><defs /><g transform="translate(0, 1000) scale(1, -1)"><path d="M-11.317901611328125 2398.909912109375C-10.520706176757812 2399.080078125 -9.739974975585938 2399.159912109375 -8.984970092773438 2399.159912109375C-3.9134674072265625 2399.159912109375 0.0 2395.4599609375 0.0 2390.14990234375C0.0 2390.1298828125 -7.62939453125e-05 2390.10009765625 -0.000244140625 2390.080078125V2386.969970703125L-5.431060791015625 2377.22998046875C-130.50599670410156 2152.4599609375 -195.4709930419922 1885.8499755859375 -195.4709930419922 1599.22998046875C-195.4709930419922 1575.9599609375 -195.04299926757812 1552.550048828125 -194.18299865722656 1529.02001953125C-186.14100646972656 1309.0999755859375 -141.4499969482422 1075.9000244140625 -64.7554931640625 853.3619995117188C-55.51069641113281 826.4569702148438 -51.447998046875 814.0609741210938 -48.048492431640625 802.2459716796875C-29.785202026367188 738.8380126953125 -20.846405029296875 674.8079833984375 -20.846405029296875 611.3099975585938C-20.846405029296875 400.5169982910156 -119.35501098632812 195.59300231933594 -302.260986328125 38.7803955078125C-316.72900390625 26.343399047851562 -338.9909973144531 8.558486938476562 -350.7650146484375 -0.10595703125C-352.8169860839844 -1.598388671875 -353.8429870605469 -2.1995086669921875 -353.8429870605469 -2.800628662109375C-353.8429870605469 -3.4017486572265625 -352.8169860839844 -4.0028839111328125 -350.7650146484375 -5.4953155517578125C-338.9909973144531 -14.159805297851562 -316.72900390625 -31.9447021484375 -302.260986328125 -44.38169860839844C-119.35501098632812 -201.19400024414062 -20.846405029296875 -406.1180114746094 -20.846405029296875 -616.9110107421875C-20.846405029296875 -680.4089965820312 -29.785202026367188 -744.4390258789062 -48.048492431640625 -807.8469848632812C-51.406494140625 -819.6209716796875 -55.42779541015625 -831.8920288085938 -64.7554931640625 -858.9639892578125C-150.6300048828125 -1108.3599853515625 -194.76300048828125 -1363.3800048828125 -194.76300048828125 -1602.800048828125C-194.76300048828125 -1690.3699951171875 -188.86000061035156 -1775.8399658203125 -176.93699645996094 -1858.18994140625C-149.53399658203125 -2047.5699462890625 -89.04910278320312 -2229.64990234375 -3.0680389404296875 -2381.7900390625C-1.0128936767578125 -2385.419921875 -0.02166748046875 -2388.699951171875 -0.02166748046875 -2391.39990234375C-0.02166748046875 -2396.169921875 -3.104644775390625 -2399.159912109375 -8.871963500976562 -2399.159912109375C-14.551483154296875 -2399.159912109375 -14.675888061523438 -2399.0 -25.537490844726562 -2379.300048828125C-208.8839874267578 -2047.3299560546875 -303.5509796142578 -1699.5799560546875 -303.5509796142578 -1363.75C-303.5509796142578 -1292.1099853515625 -299.2429962158203 -1221.02001953125 -290.5699920654297 -1150.739990234375C-275.0239715576172 -1025.0400390625 -249.6519775390625 -916.6300048828125 -205.37698364257812 -787.1610107421875C-175.81797790527344 -700.5989990234375 -160.27198791503906 -622.7849731445312 -154.7579803466797 -533.4459838867188C-154.1079864501953 -522.8740234375 -153.79698181152344 -510.864013671875 -153.79698181152344 -498.14801025390625C-153.79698181152344 -464.6390075683594 -155.95797729492188 -426.21600341796875 -159.77398681640625 -396.2239990234375C-180.4609832763672 -234.33599853515625 -257.15599060058594 -96.11959838867188 -372.98597717285156 -11.962600708007812C-377.13099670410156 -8.956954956054688 -379.20399475097656 -5.8787841796875 -379.20399475097656 -2.800628662109375C-379.20399475097656 0.27752685546875 -377.13099670410156 3.355682373046875 -372.98597717285156 6.361297607421875C-257.15599060058594 90.518310546875 -180.4609832763672 228.73500061035156 -159.77398681640625 390.62298583984375C-155.95797729492188 420.614990234375 -153.79698181152344 459.0369873046875 -153.79698181152344 492.5459899902344C-153.79698181152344 505.26300048828125 -154.1079864501953 517.27197265625 -154.7579803466797 527.844970703125C-159.1519775390625 599.1500244140625 -170.09698486328125 663.448974609375 -189.00099182128906 729.531005859375C-195.38497924804688 751.8350219726562 -198.9919891357422 762.9869995117188 -212.00997924804688 801.0029907226562C-272.9089813232422 979.0590209960938 -303.7949981689453 1167.68994140625 -303.8359832763672 1361.949951171875C-303.8359832763672 1406.8900146484375 -303.29698181152344 1426.4599609375 -300.93397521972656 1468.5C-283.9779815673828 1768.31005859375 -189.33297729492188 2081.889892578125 -26.822677612304688 2376.81005859375C-15.670883178710938 2397.0 -14.841690063476562 2398.159912109375 -11.317886352539062 2398.909912109375Z" fill="black" /></g></svg>