<?xml version="1.0" encoding="utf-8" ?>
<svg baseProfile="tiny" height="100%" version="1.2" width="100%" xmlns="http://www.w3.org/2000/svg" xmlns:ev="http://www.w3.org/2001/xml-events" xmlns:xlink="http://www.w3.org/1999/xlink"><defs /><g transform="translate(0, 1000) scale(1, -1)"><path d="M-11.71240234375 2128.449951171875C-10.83489990234375 2128.64990234375 -9.97772216796875 2128.75 -9.15179443359375 2128.75C-3.95831298828125 2128.75 0.0 2125.0 0.0 2120.02001953125C0.0 2119.320068359375 -0.077972412109375 2118.60009765625 -0.2414703369140625 2117.860107421875C-0.480438232421875 2116.780029296875 -2.750732421875 2112.199951171875 -5.459136962890625 2107.219970703125C-105.27200317382812 1926.3599853515625 -160.31700134277344 1721.469970703125 -169.9550018310547 1495.0400390625C-170.70399475097656 1477.3599853515625 -171.10299682617188 1446.800048828125 -171.10299682617188 1418.6700439453125C-171.10299682617188 1397.3800048828125 -170.87399291992188 1377.469970703125 -170.3939971923828 1365.5899658203125C-167.5260009765625 1294.97998046875 -162.26800537109375 1235.469970703125 -152.98800659179688 1168.6400146484375C-133.4320068359375 1027.56005859375 -102.2449951171875 900.822998046875 -47.00140380859375 737.8800048828125C-25.682296752929688 675.0189819335938 -15.08050537109375 610.2169799804688 -15.08050537109375 545.322021484375C-15.08050537109375 454.6659851074219 -35.77009582519531 363.8280029296875 -76.83380126953125 277.8479919433594C-87.62770080566406 255.26400756835938 -103.79800415039062 226.26800537109375 -117.89801025390625 204.36199951171875C-166.21200561523438 129.16400146484375 -233.60299682617188 57.58979797363281 -309.4389953613281 0.8325653076171875C-311.78900146484375 -0.9199371337890625 -312.9639892578125 -1.636871337890625 -312.9639892578125 -2.3587799072265625C-312.9639892578125 -3.0806884765625 -311.78900146484375 -3.807586669921875 -309.4389953613281 -5.5800018310546875C-212.81199645996094 -77.91059875488281 -138.01199340820312 -164.97799682617188 -84.08279418945312 -267.8179931640625C-38.721099853515625 -354.4079895019531 -15.373001098632812 -452.3269958496094 -15.373001098632812 -550.1300048828125C-15.373001098632812 -600.2899780273438 -21.514404296875 -650.4190063476562 -33.977203369140625 -698.9739990234375C-39.314300537109375 -719.7650146484375 -41.027008056640625 -725.2219848632812 -55.843597412109375 -768.875C-125.14700317382812 -973.281005859375 -162.26800537109375 -1168.9200439453125 -170.03500366210938 -1371.0999755859375C-170.37399291992188 -1379.97998046875 -170.54299926757812 -1403.8499755859375 -170.54299926757812 -1427.6300048828125C-170.54299926757812 -1451.4100341796875 -170.37399291992188 -1475.0899658203125 -170.03500366210938 -1483.6199951171875C-160.55599975585938 -1720.719970703125 -107.26400756835938 -1922.5400390625 -5.459136962890625 -2107.14990234375C-1.2945709228515625 -2114.72998046875 -0.0347747802734375 -2117.3798828125 -0.0347747802734375 -2119.840087890625C-0.0347747802734375 -2120.5 -0.12799072265625 -2121.14990234375 -0.2812957763671875 -2121.889892578125C-1.161224365234375 -2126.159912109375 -5.118621826171875 -2128.75 -9.115707397460938 -2128.75C-11.270095825195312 -2128.75 -13.436004638671875 -2127.989990234375 -15.1376953125 -2126.35009765625C-18.4833984375 -2123.080078125 -45.607391357421875 -2072.820068359375 -66.55780029296875 -2031.0799560546875C-204.5030059814453 -1756.1400146484375 -274.2380065917969 -1474.760009765625 -274.2380065917969 -1203.0C-274.2380065917969 -1034.0999755859375 -247.2989959716797 -868.9190063476562 -193.0570068359375 -711.3209838867188C-180.4709930419922 -674.7969970703125 -173.5800018310547 -652.4530029296875 -167.20700073242188 -627.6790161132812C-149.86900329589844 -560.135986328125 -141.40699768066406 -494.1679992675781 -141.40699768066406 -431.3489990234375C-141.40699768066406 -256.3450012207031 -207.07899475097656 -105.77301025390625 -329.4729919433594 -13.625595092773438C-336.26800537109375 -8.47332763671875 -338.4020080566406 -6.2369232177734375 -338.4020080566406 -2.9382171630859375C-338.4020080566406 -2.1568145751953125 -338.2820129394531 -1.3158111572265625 -338.07598876953125 -0.3623199462890625C-337.4389953613281 2.5850677490234375 -336.4830017089844 3.620635986328125 -329.4729919433594 8.917984008789062C-206.5189971923828 101.510009765625 -141.39500427246094 252.43800354003906 -141.39500427246094 426.5669860839844C-141.39500427246094 510.7820129394531 -156.6280059814453 600.4240112304688 -187.91900634765625 691.5180053710938C-241.72799682617188 848.2479858398438 -266.9410095214844 982.35400390625 -273.95098876953125 1149.1199951171875C-274.4729919433594 1161.8199462890625 -274.7239990234375 1177.6700439453125 -274.7239990234375 1194.8499755859375C-274.7239990234375 1227.489990234375 -273.81500244140625 1264.9599609375 -272.1180114746094 1294.9000244140625C-256.90399169921875 1564.300048828125 -171.78799438476562 1844.7099609375 -24.457901000976562 2111.010009765625C-16.173294067382812 2125.93994140625 -14.858901977539062 2127.77001953125 -11.71240234375 2128.449951171875Z" fill="black" /></g></svg>