<?xml version="1.0" encoding="utf-8" ?>
<svg baseProfile="tiny" height="100%" version="1.2" width="100%" xmlns="http://www.w3.org/2000/svg" xmlns:ev="http://www.w3.org/2001/xml-events" xmlns:xlink="http://www.w3.org/1999/xlink"><defs /><g transform="translate(0, 1000) scale(1, -1)"><path d="M-19.342803955078125 506.75C-18.979400634765625 506.7929992675781 -18.61920166015625 506.8139953613281 -18.263504028320312 506.8139953613281C-13.346405029296875 506.8139953613281 -9.283584594726562 502.8479919433594 -9.283584594726562 497.77099609375C-9.283584594726562 495.7650146484375 -9.634323120117188 494.7130126953125 -11.23370361328125 491.8370056152344C-32.04600524902344 454.52398681640625 -42.89410400390625 409.2900085449219 -42.89410400390625 360.0899963378906C-42.89410400390625 356.4570007324219 -42.83489990234375 352.802001953125 -42.71620178222656 349.12701416015625C-41.158905029296875 301.0060119628906 -30.047500610351562 246.45799255371094 -9.592239379882812 186.4530029296875C-6.8143768310546875 178.3159942626953 -6.2952728271484375 176.7310028076172 -5.5937957763671875 174.2480010986328C-1.867156982421875 161.04400634765625 -0.00592041015625 147.91200256347656 -0.00592041015625 134.84300231933594C-0.00592041015625 123.26199340820312 -1.4673309326171875 111.73001098632812 -4.387237548828125 100.24099731445312C-13.716995239257812 63.59590148925781 -36.515106201171875 32.14140319824219 -76.34530639648438 0.9815673828125C-77.35540771484375 0.181884765625 -78.19720458984375 -0.5055694580078125 -78.19720458984375 -0.5616912841796875C-78.19720458984375 -0.6178131103515625 -77.35540771484375 -1.305267333984375 -76.331298828125 -2.104949951171875C-44.820709228515625 -26.783096313476562 -24.351394653320312 -51.20869445800781 -12.215805053710938 -78.63670349121094C-4.199432373046875 -96.77590942382812 0.0 -116.80000305175781 0.0 -136.4530029296875C0.0 -141.01400756835938 -0.2262115478515625 -145.55499267578125 -0.68341064453125 -150.04800415039062C-1.763702392578125 -160.62600708007812 -4.1627655029296875 -171.63900756835938 -7.529876708984375 -181.4739990234375C-27.802703857421875 -240.6510009765625 -38.549407958984375 -288.67401123046875 -41.846405029296875 -334.8179931640625C-42.465301513671875 -343.4540100097656 -42.773406982421875 -351.968994140625 -42.773406982421875 -360.35101318359375C-42.773406982421875 -409.7300109863281 -32.07899475097656 -454.4649963378906 -11.23370361328125 -491.8380126953125C-9.634323120117188 -494.7139892578125 -9.283584594726562 -495.7659912109375 -9.283584594726562 -497.7720031738281C-9.283584594726562 -503.21600341796875 -13.720199584960938 -506.8139953613281 -18.35040283203125 -506.8139953613281C-20.569595336914062 -506.8139953613281 -22.833206176757812 -505.98699951171875 -24.674102783203125 -504.1419982910156C-25.740402221679688 -503.0899963378906 -27.129302978515625 -500.69000244140625 -32.83940124511719 -490.1260070800781C-77.13980102539062 -408.177001953125 -98.56478881835938 -335.7760009765625 -98.56478881835938 -266.156005859375C-98.56478881835938 -246.5030059814453 -96.85749816894531 -227.07200622558594 -93.47549438476562 -207.70899963378906C-90.64151000976562 -191.43499755859375 -86.881591796875 -177.0970001220703 -80.37179565429688 -157.62399291992188C-71.6173095703125 -131.42999267578125 -67.71710205078125 -114.21600341796875 -65.99139404296875 -94.139404296875C-65.6448974609375 -90.09519958496094 -65.4735107421875 -86.1221923828125 -65.4735107421875 -82.23069763183594C-65.4735107421875 -50.67039489746094 -76.74459838867188 -24.46490478515625 -97.27749633789062 -9.07769775390625C-101.2340087890625 -6.117431640625 -102.49700927734375 -4.0550689697265625 -102.49700927734375 -0.5616912841796875C-102.49700927734375 2.9316864013671875 -101.2340087890625 4.994049072265625 -97.27749633789062 7.9542999267578125C-76.74459838867188 23.34149169921875 -65.4735107421875 49.54710388183594 -65.4735107421875 81.1072998046875C-65.4735107421875 84.9989013671875 -65.6448974609375 88.97189331054688 -65.99139404296875 93.0159912109375C-67.71710205078125 113.14900207519531 -71.60330200195312 130.26499938964844 -80.44189453125 156.71099853515625C-84.931396484375 170.1510009765625 -86.22219848632812 174.48599243164062 -89.05609130859375 185.82200622558594C-95.39208984375 211.1529998779297 -98.65840148925781 238.1009979248047 -98.65840148925781 264.9599914550781C-98.65840148925781 266.1730041503906 -98.65170288085938 267.385009765625 -98.63839721679688 268.59698486328125C-98.55419921875 275.87799072265625 -98.47000122070312 278.1929931640625 -98.0491943359375 285.85400390625C-94.41549682617188 350.8389892578125 -71.78570556640625 419.85101318359375 -28.349899291992188 498.3179931640625C-24.64599609375 505.010986328125 -23.285202026367188 506.2869873046875 -19.342803955078125 506.75Z" fill="black" /></g></svg>