<?xml version="1.0" encoding="utf-8" ?>
<svg baseProfile="tiny" height="100%" version="1.2" width="100%" xmlns="http://www.w3.org/2000/svg" xmlns:ev="http://www.w3.org/2001/xml-events" xmlns:xlink="http://www.w3.org/1999/xlink"><defs /><g transform="translate(0, 1000) scale(1, -1)"><path d="M-15.177597045898438 9365.8798828125C-13.388778686523438 9367.509765625 -11.394088745117188 9368.3095703125 -9.3873291015625 9368.3095703125C-7.133056640625 9368.3095703125 -4.863677978515625 9367.2998046875 -2.85418701171875 9365.2900390625C-1.112701416015625 9363.5498046875 1.52587890625e-05 9362.330078125 1.52587890625e-05 9360.2099609375C1.52587890625e-05 9356.16015625 -4.0511322021484375 9348.8095703125 -15.515289306640625 9328.150390625C-64.21809387207031 9240.3701171875 -94.52018737792969 9182.9697265625 -139.33998107910156 9093.5C-606.5079803466797 8162.080078125 -844.7249603271484 7111.64013671875 -844.7249603271484 6004.27978515625C-844.7249603271484 5637.47998046875 -818.5879974365234 5264.43994140625 -765.9780120849609 4887.41015625C-689.8430023193359 4341.72021484375 -554.3699798583984 3781.429931640625 -370.53099060058594 3252.030029296875C-287.98097229003906 3014.419921875 -243.6669921875 2822.72998046875 -219.44297790527344 2598.719970703125C-208.8359832763672 2500.489990234375 -203.6099853515625 2402.35009765625 -203.6099853515625 2304.639892578125C-203.6099853515625 1418.7900390625 -633.2080078125 568.6719970703125 -1377.0799560546875 11.809814453125C-1392.8699951171875 -0.0072021484375 -1405.780029296875 -9.967239379882812 -1405.780029296875 -10.304885864257812C-1405.780029296875 -10.642486572265625 -1392.8699951171875 -20.602493286132812 -1377.0799560546875 -32.41947937011719C-692.0369873046875 -545.2759857177734 -265.10699462890625 -1315.489974975586 -210.24200439453125 -2137.780014038086C-206.04299926757812 -2200.629867553711 -203.94400024414062 -2263.290023803711 -203.94400024414062 -2325.739974975586C-203.94400024414062 -2599.709945678711 -244.33799743652344 -2869.800033569336 -325.0360107421875 -3135.469955444336C-335.1650085449219 -3168.729965209961 -350.69500732421875 -3215.659896850586 -370.4469909667969 -3272.639877319336C-681.9929809570312 -4170.049789428711 -841.9439697265625 -5099.459945678711 -841.9439697265625 -6012.069808959961C-841.9439697265625 -6134.709945678711 -841.52197265625 -6164.499984741211 -838.989990234375 -6247.979965209961C-804.2990112304688 -7365.950180053711 -525.5020141601562 -8408.629867553711 -15.51531982421875 -9327.660140991211C-4.0511627197265625 -9348.309555053711 -1.52587890625e-05 -9355.669906616211 -1.52587890625e-05 -9359.719711303711C-1.52587890625e-05 -9361.839828491211 -1.11273193359375 -9363.049789428711 -2.854217529296875 -9364.799789428711C-5.11248779296875 -9367.049789428711 -7.0674285888671875 -9368.309555053711 -9.062698364257812 -9368.309555053711C-13.555618286132812 -9368.309555053711 -18.25311279296875 -9361.919906616211 -27.079010009765625 -9346.139633178711C-427.3370056152344 -8629.360336303711 -714.1519775390625 -7864.040023803711 -878.155029296875 -7075.169906616211C-930.4030151367188 -6823.810043334961 -967.5419921875 -6584.259750366211 -995.9869995117188 -6315.509750366211C-997.3380126953125 -6302.259750366211 -999.2789916992188 -6284.620101928711 -1000.2100219726562 -6276.259750366211C-1005.27001953125 -6229.839828491211 -1014.219970703125 -6121.709945678711 -1019.2000122070312 -6047.939926147461C-1030.3900146484375 -5880.689926147461 -1035.969970703125 -5714.040023803711 -1035.969970703125 -5548.089828491211C-1035.969970703125 -4733.529769897461 -901.3469848632812 -3935.419906616211 -633.2059936523438 -3162.479965209961C-538.1630249023438 -2888.499984741211 -483.72100830078125 -2643.040023803711 -458.39898681640625 -2374.120101928711C-449.25299072265625 -2277.179916381836 -444.74798583984375 -2180.939926147461 -444.74798583984375 -2085.749984741211C-444.74798583984375 -1240.8599700927734 -799.6439819335938 -477.84397888183594 -1415.3199462890625 -27.692672729492188C-1426.969970703125 -19.167572021484375 -1432.7900390625 -14.736175537109375 -1432.7900390625 -10.30487060546875C-1432.7900390625 -5.87347412109375 -1426.969970703125 -1.442108154296875 -1415.3199462890625 7.0829925537109375C-799.6439819335938 457.2340545654297 -444.74798583984375 1220.2500457763672 -444.74798583984375 2065.139938354492C-444.74798583984375 2160.330123901367 -449.25299072265625 2256.570114135742 -458.39898681640625 2353.510055541992C-483.72100830078125 2622.429977416992 -537.9099731445312 2866.790084838867 -633.2059936523438 3141.870162963867C-903.0469970703125 3920.889938354492 -1038.1099853515625 4720.560104370117 -1038.1099853515625 5537.799850463867C-1038.1099853515625 5706.290084838867 -1032.3699951171875 5875.520065307617 -1020.8900146484375 6045.480026245117C-1015.489990234375 6124.990280151367 -1004.8499755859375 6250.160202026367 -1000.6300048828125 6283.500045776367C-999.9539794921875 6289.069869995117 -997.843994140625 6308.490280151367 -995.9869995117188 6326.549850463867C-899.1719970703125 7263.890182495117 -609.0650024414062 8227.309616088867 -162.468017578125 9094.259811401367C-105.40901184082031 9205.000045776367 -21.170516967773438 9360.309616088867 -15.1776123046875 9365.879928588867Z" fill="black" /></g></svg>