<?xml version="1.0" encoding="utf-8" ?>
<svg baseProfile="tiny" height="100%" version="1.2" width="100%" xmlns="http://www.w3.org/2000/svg" xmlns:ev="http://www.w3.org/2001/xml-events" xmlns:xlink="http://www.w3.org/1999/xlink"><defs /><g transform="translate(0, 1000) scale(1, -1)"><path d="M-15.74810791015625 1131.9100341796875C-14.738800048828125 1132.2900390625 -13.7073974609375 1132.469970703125 -12.693206787109375 1132.469970703125C-8.1072998046875 1132.469970703125 -3.8717041015625 1128.8199462890625 -3.618194580078125 1123.9100341796875C-3.5944366455078125 1123.52001953125 -3.57904052734375 1123.1700439453125 -3.57904052734375 1122.8399658203125C-3.57904052734375 1120.8399658203125 -4.1538848876953125 1119.6400146484375 -6.9109954833984375 1114.6500244140625C-54.16400146484375 1029.239990234375 -81.04110717773438 931.1019897460938 -86.72610473632812 823.1710205078125C-87.35420227050781 811.1710205078125 -87.69110107421875 792.22802734375 -87.69110107421875 774.9429931640625C-87.69110107421875 762.7990112304688 -87.52481079101562 751.4730224609375 -87.1763916015625 743.947021484375C-81.96990966796875 632.8930053710938 -60.29930114746094 524.4550170898438 -19.406707763671875 404.9580078125C-8.768463134765625 373.8590087890625 -3.646331787109375 351.343994140625 -1.3104248046875 325.1709899902344C-0.4356231689453125 315.3370056152344 0.0 305.56298828125 0.0 295.8550109863281C0.0 185.3260040283203 -56.474700927734375 83.46630859375 -164.177001953125 0.70379638671875C-165.58399963378906 -0.379730224609375 -166.28799438476562 -0.8370513916015625 -166.28799438476562 -1.2943878173828125C-166.28799438476562 -1.7517242431640625 -165.58399963378906 -2.2090606689453125 -164.177001953125 -3.2925872802734375C-56.474700927734375 -86.05509948730469 0.0 -187.9149932861328 0.0 -298.4440002441406C0.0 -308.1510009765625 -0.4356231689453125 -317.9259948730469 -1.3104248046875 -327.760009765625C-3.6744842529296875 -354.0459899902344 -8.740325927734375 -376.364013671875 -19.547393798828125 -407.968994140625C-64.90530395507812 -540.541015625 -87.55960083007812 -665.4249877929688 -87.55960083007812 -780.0269775390625C-87.55960083007812 -904.9169921875 -60.6553955078125 -1017.5999755859375 -6.9109954833984375 -1114.7099609375C-4.1538848876953125 -1119.68994140625 -3.57904052734375 -1120.8900146484375 -3.57904052734375 -1122.9000244140625C-3.57904052734375 -1123.22998046875 -3.5944366455078125 -1123.5799560546875 -3.618194580078125 -1123.969970703125C-3.88201904296875 -1129.1300048828125 -8.23443603515625 -1132.469970703125 -12.720901489257812 -1132.469970703125C-14.934494018554688 -1132.469970703125 -17.180694580078125 -1131.6500244140625 -18.984603881835938 -1129.8499755859375C-21.601898193359375 -1127.2099609375 -44.173095703125 -1084.8499755859375 -57.14720153808594 -1058.1400146484375C-130.9949951171875 -906.3400268554688 -167.18899536132812 -762.8569946289062 -167.18899536132812 -621.7670288085938V-621.43798828125C-167.18899536132812 -602.27197265625 -167.02000427246094 -596.052001953125 -166.09100341796875 -578.2369995117188C-162.1790008544922 -504.3039855957031 -148.95199584960938 -437.9419860839844 -122.91900634765625 -361.81298828125C-104.84700012207031 -308.9230041503906 -95.98429870605469 -258.32000732421875 -95.98429870605469 -211.9720001220703C-95.98429870605469 -126.45098876953125 -126.15899658203125 -55.41709899902344 -184.3280029296875 -11.229095458984375C-190.23800659179688 -6.726104736328125 -191.2790069580078 -5.2344970703125 -191.2790069580078 -1.2943878173828125C-191.27902221679688 2.645721435546875 -190.23802185058594 4.1373291015625 -184.32801818847656 8.640304565429688C-126.14701843261719 52.82341003417969 -95.9901123046875 123.81101989746094 -95.9901123046875 209.31800842285156C-95.9901123046875 255.67201232910156 -104.85301208496094 306.2940216064453 -122.91902160644531 359.2250213623047C-129.7860107421875 379.3470001220703 -133.0220184326172 389.3660125732422 -136.822021484375 402.56602478027344C-157.3100128173828 473.46202087402344 -167.53701782226562 546.1200103759766 -167.53701782226562 620.3109893798828C-167.53701782226562 780.8170318603516 -119.67301940917969 948.5020294189453 -24.3037109375 1121.0699615478516C-19.4630126953125 1129.8199615478516 -18.703109741210938 1130.780044555664 -15.748123168945312 1131.9100494384766Z" fill="black" /></g></svg>