<?xml version="1.0" encoding="utf-8" ?>
<svg baseProfile="tiny" height="100%" version="1.2" width="100%" xmlns="http://www.w3.org/2000/svg" xmlns:ev="http://www.w3.org/2001/xml-events" xmlns:xlink="http://www.w3.org/1999/xlink"><defs /><g transform="translate(0, 1000) scale(1, -1)"><path d="M-12.17999267578125 1567.719970703125C-11.239501953125 1568.1099853515625 -10.262802124023438 1568.2900390625 -9.290573120117188 1568.2900390625C-4.847442626953125 1568.2900390625 -0.4967803955078125 1564.550048828125 -0.1218109130859375 1559.7099609375C-0.0927581787109375 1559.3299560546875 -0.0730438232421875 1559.0 -0.0730438232421875 1558.6800537109375C-0.0730438232421875 1556.6600341796875 -0.8457794189453125 1555.1199951171875 -4.9380340576171875 1547.719970703125C-82.85519409179688 1406.8499755859375 -121.91299438476562 1242.2099609375 -121.91299438476562 1062.239990234375C-121.91299438476562 902.3920288085938 -91.10018920898438 730.4609985351562 -29.335601806640625 552.3770141601562C-12.27520751953125 503.17401123046875 -3.924072265625 453.5169982910156 -3.924072265625 404.4259948730469C-3.924072265625 256.2590026855469 -79.9989013671875 113.24700927734375 -222.30099487304688 3.3983154296875C-225.8520050048828 0.656219482421875 -228.73399353027344 -1.69915771484375 -228.73399353027344 -1.83978271484375C-228.73399353027344 -1.9803924560546875 -225.8520050048828 -4.335784912109375 -222.30099487304688 -7.0778656005859375C-80.58270263671875 -116.45899963378906 -4.063385009765625 -258.1000061035156 -4.063385009765625 -409.3039855957031C-4.063385009765625 -419.6839904785156 -4.4240264892578125 -430.1099853515625 -5.1489715576171875 -440.572998046875C-7.75042724609375 -477.9079895019531 -15.76580810546875 -517.0 -28.175399780273438 -552.7169799804688C-90.50959777832031 -732.0560302734375 -121.60198974609375 -904.5430297851562 -121.60198974609375 -1064.6400146484375C-121.60198974609375 -1245.31005859375 -82.00959777832031 -1410.199951171875 -3.0396728515625 -1551.3599853515625C-0.9510955810546875 -1555.050048828125 0.0 -1557.449951171875 0.0 -1559.5699462890625C0.0 -1560.81005859375 -0.3223876953125 -1561.9599609375 -0.9303741455078125 -1563.2099609375C-2.4995269775390625 -1566.489990234375 -5.886566162109375 -1568.2900390625 -9.283416748046875 -1568.2900390625C-11.59429931640625 -1568.2900390625 -13.90960693359375 -1567.4599609375 -15.660293579101562 -1565.7099609375C-17.136795043945312 -1564.22998046875 -29.651901245117188 -1541.6300048828125 -41.7803955078125 -1518.4200439453125C-137.7530059814453 -1335.27001953125 -194.70399475097656 -1148.31005859375 -209.01199340820312 -969.655029296875C-210.2429962158203 -954.2570190429688 -210.83999633789062 -944.8699951171875 -212.0709991455078 -919.5590209960938C-212.42999267578125 -911.9860229492188 -212.66099548339844 -888.8150024414062 -212.66099548339844 -869.3610229492188C-212.66099548339844 -858.3809814453125 -212.58700561523438 -848.5850219726562 -212.4219970703125 -843.447998046875C-208.58999633789062 -725.0819702148438 -190.16900634765625 -624.75 -151.21800231933594 -510.531005859375C-126.81399536132812 -438.91400146484375 -114.87399291992188 -369.718994140625 -114.87399291992188 -305.7349853515625C-114.87399291992188 -182.05799865722656 -159.48300170898438 -77.84739685058594 -244.90499877929688 -13.229995727539062C-252.77999877929688 -7.288787841796875 -253.8000030517578 -5.9528961181640625 -253.8000030517578 -1.83978271484375C-253.80001831054688 2.273345947265625 -252.78001403808594 3.6092376708984375 -244.90501403808594 9.5504150390625C-161.08001708984375 72.96009826660156 -114.67901611328125 178.4250030517578 -114.67901611328125 302.7349853515625C-114.67901611328125 315.8489990234375 -115.19502258300781 329.1719970703125 -116.239013671875 342.6780090332031C-120.52702331542969 398.1180114746094 -131.21401977539062 448.14300537109375 -151.3930206298828 507.3789978027344C-187.1110076904297 612.2109985351562 -206.05902099609375 708.2899780273438 -211.5080108642578 812.1719970703125C-212.6680145263672 834.3200073242188 -212.80902099609375 839.135986328125 -212.98501586914062 865.1160278320312C-213.00502014160156 867.9030151367188 -213.0150146484375 870.6920166015625 -213.0150146484375 873.4810180664062C-213.0150146484375 1095.280029296875 -149.5360107421875 1323.0999755859375 -24.238113403320312 1550.9200439453125C-15.590011596679688 1566.5999755859375 -15.83612060546875 1566.280029296875 -12.180007934570312 1567.719970703125Z" fill="black" /></g></svg>