<?xml version="1.0" encoding="utf-8" ?>
<svg baseProfile="tiny" height="100%" version="1.2" width="100%" xmlns="http://www.w3.org/2000/svg" xmlns:ev="http://www.w3.org/2001/xml-events" xmlns:xlink="http://www.w3.org/1999/xlink"><defs /><g transform="translate(0, 1000) scale(1, -1)"><path d="M-20.245193481445312 754.5499877929688C-19.253280639648438 754.8900146484375 -18.255279541015625 755.0490112304688 -17.281585693359375 755.0490112304688C-12.476181030273438 755.0490112304688 -8.260208129882812 751.1710205078125 -8.260208129882812 746.0130004882812C-8.260208129882812 743.9110107421875 -8.701766967773438 742.7540283203125 -11.224884033203125 738.1500244140625C-35.32098388671875 694.3939819335938 -50.88047790527344 644.9609985351562 -57.65089416503906 590.7969970703125C-58.576080322265625 583.458984375 -58.70219421386719 582.114013671875 -59.45918273925781 573.051025390625C-60.611785888671875 559.0349731445312 -61.18598937988281 544.6710205078125 -61.18598937988281 529.9849853515625C-61.18598937988281 451.1700134277344 -44.6475830078125 363.09600830078125 -12.213180541992188 269.9580078125C-4.0697479248046875 246.5679931640625 1.52587890625e-05 223.08999633789062 1.52587890625e-05 199.56900024414062C1.52587890625e-05 181.73300170898438 -2.3404388427734375 163.8719940185547 -7.0196685791015625 146.00799560546875C-8.176101684570312 141.65499877929688 -10.678176879882812 133.2030029296875 -11.203887939453125 131.98300170898438C-11.308990478515625 131.7100067138672 -12.023880004882812 129.7550048828125 -12.8018798828125 127.61000061035156C-28.277191162109375 84.56919860839844 -58.28169250488281 44.95570373535156 -103.19398498535156 8.264862060546875C-107.27299499511719 4.9427032470703125 -113.28599548339844 0.1697540283203125 -114.27497863769531 -0.52410888671875L-114.73698425292969 -0.86053466796875L-114.27497863769531 -1.19696044921875C-113.28599548339844 -1.8908233642578125 -107.27299499511719 -6.663787841796875 -103.19398498535156 -9.985931396484375C-58.28169250488281 -46.67680358886719 -28.277191162109375 -86.29019165039062 -12.8018798828125 -129.33099365234375C-12.023880004882812 -131.4759979248047 -11.308990478515625 -133.43099975585938 -11.203887939453125 -133.70399475097656C-10.678176879882812 -134.9239959716797 -8.176101684570312 -143.3769989013672 -7.0196685791015625 -147.72900390625C-2.3404388427734375 -165.59300231933594 1.52587890625e-05 -183.4499969482422 1.52587890625e-05 -201.28399658203125C1.52587890625e-05 -224.8000030517578 -4.0697479248046875 -248.27699279785156 -12.213180541992188 -271.6789855957031C-35.80458068847656 -339.42498779296875 -51.44818115234375 -406.85699462890625 -57.7559814453125 -467.85400390625C-59.986480712890625 -489.3280029296875 -61.09228515625 -509.4570007324219 -61.09228515625 -529.385009765625C-61.09228515625 -544.7739868164062 -60.43287658691406 -560.0419921875 -59.12278747558594 -575.718994140625C-54.32878112792969 -633.3939819335938 -37.38157653808594 -690.8579711914062 -11.266983032226562 -738.14599609375C-9.079910278320312 -742.1119995117188 -8.207229614257812 -744.1669921875 -8.207229614257812 -746.1199951171875C-8.207229614257812 -746.9840087890625 -8.377792358398438 -747.8270263671875 -8.680740356445312 -748.8070068359375C-9.91278076171875 -752.822998046875 -13.700485229492188 -755.0490112304688 -17.46759033203125 -755.0490112304688C-20.129486083984375 -755.0490112304688 -22.781082153320312 -753.93798828125 -24.51348876953125 -751.5609741210938C-26.342788696289062 -749.0380249023438 -38.47499084472656 -726.4769897460938 -46.33879089355469 -711.0230102539062C-101.02398681640625 -603.323974609375 -128.1849822998047 -502.0419921875 -128.1849822998047 -405.11700439453125C-128.1849822998047 -371.5690002441406 -124.93098449707031 -338.5419921875 -118.43798828125 -305.9519958496094C-114.08497619628906 -284.1260070800781 -109.31198120117188 -266.5060119628906 -100.8809814453125 -241.29600524902344C-92.26008605957031 -215.4969940185547 -88.64358520507812 -202.20799255371094 -84.92198181152344 -182.31700134277344C-81.59217834472656 -164.593994140625 -79.94578552246094 -147.70399475097656 -79.94578552246094 -131.781005859375C-79.94578552246094 -78.82949829101562 -98.15208435058594 -36.564697265625 -133.19798278808594 -9.859786987304688C-137.82398986816406 -6.348388671875 -139.0439910888672 -4.47705078125 -139.0439910888672 -0.86053466796875C-139.0439910888672 2.7559814453125 -137.82398986816406 4.6273193359375 -133.19798278808594 8.138702392578125C-98.15208435058594 34.843597412109375 -79.94578552246094 77.1083984375 -79.94578552246094 130.05999755859375C-79.94578552246094 145.98300170898438 -81.59217834472656 162.8730010986328 -84.92198181152344 180.5959930419922C-88.66468811035156 200.5500030517578 -92.23908996582031 213.73399353027344 -100.98597717285156 239.88999938964844C-110.13198852539062 267.2659912109375 -115.59898376464844 288.0190124511719 -119.99398803710938 312.114990234375C-125.53898620605469 342.5320129394531 -128.32098388671875 373.2669982910156 -128.32098388671875 404.41400146484375C-128.32098388671875 511.6910095214844 -95.31388854980469 623.8460083007812 -28.48748779296875 744.6259765625C-24.029891967773438 752.7000122070312 -23.357086181640625 753.4990234375 -20.24517822265625 754.5499877929688Z" fill="black" /></g></svg>