<?xml version="1.0" encoding="utf-8" ?>
<svg baseProfile="tiny" height="100%" version="1.2" width="100%" xmlns="http://www.w3.org/2000/svg" xmlns:ev="http://www.w3.org/2001/xml-events" xmlns:xlink="http://www.w3.org/1999/xlink"><defs /><g transform="translate(0, 1000) scale(1, -1)"><path d="M-19.600799560546875 850.2880249023438C-18.520004272460938 850.7410278320312 -17.407302856445312 850.9509887695312 -16.313400268554688 850.9509887695312C-11.73980712890625 850.9509887695312 -7.4957122802734375 847.2739868164062 -7.285064697265625 842.3150024414062C-7.269500732421875 841.9630126953125 -7.2584228515625 841.6500244140625 -7.2584228515625 841.3579711914062C-7.2584228515625 839.4240112304688 -7.7444305419921875 838.4119873046875 -10.630996704101562 833.155029296875C-48.88250732421875 763.3939819335938 -68.01300048828125 683.333984375 -68.01300048828125 593.4229736328125C-68.01300048828125 506.1300048828125 -49.97999572753906 409.5509948730469 -13.90570068359375 304.0979919433594C-3.9628753662109375 275.02899169921875 -0.0237274169921875 252.34300231933594 0.0 224.2469940185547C0.0 141.1929931640625 -42.310302734375 65.3048095703125 -123.79901123046875 2.3021392822265625C-126.10000610351562 0.52239990234375 -127.99899291992188 -0.996307373046875 -127.99899291992188 -1.0675048828125C-127.99899291992188 -1.1386871337890625 -126.10000610351562 -2.6573944091796875 -123.79901123046875 -4.4371337890625C-42.310302734375 -67.43978881835938 0.0 -143.3280029296875 0.0 -226.3820037841797C-0.0237274169921875 -255.23800659179688 -3.891693115234375 -276.95098876953125 -14.688796997070312 -308.5350036621094C-50.34869384765625 -413.0010070800781 -67.69720458984375 -506.62200927734375 -67.69720458984375 -594.7050170898438C-67.69720458984375 -596.4190063476562 -67.69059753417969 -598.1320190429688 -67.677490234375 -599.8419799804688C-67.53509521484375 -616.9749755859375 -67.46389770507812 -619.7520141601562 -66.56219482421875 -634.1790161132812C-62.07720947265625 -706.0570068359375 -42.90350341796875 -774.280029296875 -10.559799194335938 -833.510009765625C-7.7382354736328125 -838.6589965820312 -7.258270263671875 -839.6610107421875 -7.258270263671875 -841.5889892578125C-7.258270263671875 -841.8820190429688 -7.2693939208984375 -842.197021484375 -7.285064697265625 -842.551025390625C-7.498626708984375 -847.6530151367188 -11.034393310546875 -850.9509887695312 -16.254898071289062 -850.9509887695312C-21.143295288085938 -850.9509887695312 -22.377197265625 -849.8839721679688 -26.980804443359375 -841.5780029296875C-61.9822998046875 -778.4810180664062 -88.77330017089844 -716.8070068359375 -107.13999938964844 -657.0789794921875L-110.46199035644531 -646.281982421875C-113.23898315429688 -637.3590087890625 -118.53099060058594 -617.3079833984375 -121.63899230957031 -603.85302734375C-132.86097717285156 -555.3070068359375 -138.4609832763672 -507.20599365234375 -138.4609832763672 -459.9989929199219C-138.4609832763672 -395.4049987792969 -127.97697448730469 -332.4859924316406 -107.06898498535156 -272.3940124511719C-91.88508605957031 -228.77099609375 -84.38948059082031 -188.13900756835938 -84.38948059082031 -151.7310028076172C-84.38948059082031 -90.04429626464844 -105.906982421875 -40.4822998046875 -148.00299072265625 -9.040725708007812C-151.07598876953125 -6.75079345703125 -152.6119842529297 -3.9091339111328125 -152.6119842529297 -1.0675048828125C-152.6119842529297 1.7741546630859375 -151.07598876953125 4.6157989501953125 -148.00299072265625 6.905731201171875C-106.14198303222656 38.176605224609375 -84.38859558105469 87.57620239257812 -84.38859558105469 149.53700256347656C-84.38859558105469 166.99099731445312 -86.11468505859375 185.44200134277344 -89.6038818359375 204.76499938964844C-93.63789367675781 227.0469970703125 -98.78727722167969 246.2449951171875 -107.78099060058594 272.41900634765625C-128.3579864501953 332.2359924316406 -138.64797973632812 394.56500244140625 -138.64797973632812 458.6050109863281C-138.64797973632812 516.864013671875 -130.13198852539062 576.5390014648438 -113.09599304199219 637.0280151367188C-111.12698364257812 644.0280151367188 -110.48597717285156 646.1400146484375 -106.30998229980469 659.5709838867188C-88.10888671875 718.1129760742188 -61.86369323730469 778.291015625 -27.0994873046875 841.10400390625C-23.089080810546875 848.3889770507812 -22.519577026367188 849.0540161132812 -19.600784301757812 850.2880249023438Z" fill="black" /></g></svg>