<?xml version="1.0" encoding="utf-8" ?>
<svg baseProfile="tiny" height="100%" version="1.2" width="100%" xmlns="http://www.w3.org/2000/svg" xmlns:ev="http://www.w3.org/2001/xml-events" xmlns:xlink="http://www.w3.org/1999/xlink"><defs /><g transform="translate(0, 1000) scale(1, -1)"><path d="M-12.714706420898438 282.2950134277344C-12.164718627929688 282.3949890136719 -11.6190185546875 282.4429931640625 -11.082107543945312 282.4429931640625C-6.21807861328125 282.4429931640625 -2.0806121826171875 278.48199462890625 -2.0806121826171875 273.4020080566406C-2.0806121826171875 271.3680114746094 -2.3888397216796875 270.4590148925781 -4.1534881591796875 267.2380065917969C-15.357711791992188 246.8280029296875 -21.092620849609375 222.4290008544922 -21.092620849609375 195.45899963378906C-21.092620849609375 189.98599243164062 -20.856521606445312 184.4080047607422 -20.382110595703125 178.73599243164062C-18.324615478515625 154.19200134277344 -12.799514770507812 129.77999877929688 -2.473602294921875 99.71170043945312C-1.7569580078125 97.62339782714844 -1.42559814453125 96.48300170898438 -0.647308349609375 93.40829467773438L-1.52587890625e-05 90.84228515625L-0.0154266357421875 73.45008850097656L-0.038543701171875 56.05787658691406L-0.5625457763671875 54.015777587890625C-5.7486114501953125 33.81097412109375 -17.083908081054688 16.94287109375 -36.39491271972656 0.6911163330078125C-37.01911926269531 0.1671142578125 -37.527618408203125 -0.28753662109375 -37.527618408203125 -0.3106536865234375C-37.527618408203125 -0.333770751953125 -37.01911926269531 -0.7884063720703125 -36.38722229003906 -1.312408447265625C-17.083908081054688 -17.564132690429688 -5.7486114501953125 -34.43232727050781 -0.5625457763671875 -54.63713073730469L-0.038543701171875 -56.67912292480469L-0.0154266357421875 -74.07131958007812L-1.52587890625e-05 -91.46353149414062L-0.647308349609375 -94.029541015625C-1.43328857421875 -97.1273193359375 -1.7569427490234375 -98.22933959960938 -2.512115478515625 -100.44903564453125C-5.3247528076171875 -108.66302490234375 -6.758056640625 -113.10903930664062 -8.499588012695312 -118.98103332519531C-15.026504516601562 -140.97402954101562 -18.964202880859375 -161.27903747558594 -20.451400756835938 -180.6670379638672C-20.843902587890625 -185.76303100585938 -21.039199829101562 -190.78903198242188 -21.039199829101562 -195.7330322265625C-21.039199829101562 -222.530029296875 -15.304000854492188 -246.93203735351562 -4.153472900390625 -267.2420349121094C-2.388824462890625 -270.4630432128906 -2.080596923828125 -271.3730163574219 -2.080596923828125 -273.40704345703125C-2.080596923828125 -278.6460266113281 -6.34814453125 -282.4430236816406 -11.090499877929688 -282.4430236816406C-12.423904418945312 -282.4430236816406 -13.7947998046875 -282.1430358886719 -15.118896484375 -281.49102783203125C-17.083892822265625 -280.52703857421875 -18.070297241210938 -279.4790344238281 -19.588394165039062 -276.759033203125C-36.179107666015625 -247.07603454589844 -47.606903076171875 -218.2020263671875 -53.40179443359375 -191.3390350341797C-56.5906982421875 -176.56002807617188 -58.184295654296875 -161.8460235595703 -58.184295654296875 -147.4020233154297C-58.184295654296875 -131.8650360107422 -56.340301513671875 -116.64202880859375 -52.654296875 -101.99002075195312C-51.10540771484375 -95.80194091796875 -50.28089904785156 -93.02783203125 -47.96910095214844 -86.11563110351562C-43.684600830078125 -73.30844116210938 -41.812103271484375 -65.34832763671875 -40.810302734375 -55.71592712402344C-40.49530029296875 -52.68083190917969 -40.33869934082031 -49.74462890625 -40.33869934082031 -46.912628173828125C-40.33869934082031 -29.791824340820312 -46.06379699707031 -16.474533081054688 -57.13909912109375 -8.070465087890625C-59.01930236816406 -6.6448822021484375 -59.75140380859375 -5.82806396484375 -60.48350524902344 -4.3331146240234375C-61.12440490722656 -3.031463623046875 -61.432891845703125 -1.6569366455078125 -61.432891845703125 -0.30194091796875C-61.432891845703125 2.54638671875 -60.06939697265625 5.3083343505859375 -57.562896728515625 7.1255340576171875C-51.89910888671875 11.225067138671875 -47.17539978027344 17.351272583007812 -44.270294189453125 24.37896728515625C-41.63690185546875 30.751068115234375 -40.32029724121094 38.00016784667969 -40.32029724121094 46.177276611328125C-40.32029724121094 52.764068603515625 -41.174591064453125 59.95306396484375 -42.883209228515625 67.77076721191406C-44.17010498046875 73.665771484375 -45.12559509277344 76.99476623535156 -48.007598876953125 85.60997009277344C-48.93229675292969 88.38406372070312 -49.95719909667969 91.54347229003906 -50.28089904785156 92.62226867675781C-55.5924072265625 110.42596435546875 -58.259490966796875 128.53297424316406 -58.259490966796875 147.07896423339844C-58.259490966796875 187.72596740722656 -45.44810485839844 230.47996520996094 -19.588394165039062 276.75396728515625C-17.654205322265625 280.2219543457031 -15.766204833984375 281.7399597167969 -12.714706420898438 282.29498291015625Z" fill="black" /></g></svg>