<?xml version="1.0" encoding="utf-8" ?>
<svg baseProfile="tiny" height="100%" version="1.2" width="100%" xmlns="http://www.w3.org/2000/svg" xmlns:ev="http://www.w3.org/2001/xml-events" xmlns:xlink="http://www.w3.org/1999/xlink"><defs /><g transform="translate(0, 1000) scale(1, -1)"><path d="M-16.693206787109375 946.3709716796875C-16.22369384765625 946.4340209960938 -15.760696411132812 946.4650268554688 -15.306396484375 946.4650268554688C-10.212997436523438 946.4650268554688 -6.2044830322265625 942.6320190429688 -6.2044830322265625 937.4409790039062C-6.2044830322265625 934.905029296875 -6.2044830322265625 934.9320068359375 -10.537399291992188 926.9530029296875C-53.30290222167969 848.4949951171875 -74.8861083984375 757.7030029296875 -74.8861083984375 656.635986328125C-74.8861083984375 643.3170166015625 -74.51119995117188 629.8189697265625 -73.76058959960938 616.14697265625C-68.97850036621094 529.6220092773438 -48.76719665527344 432.97698974609375 -15.31939697265625 337.0190124511719C-5.1130523681640625 307.6969909667969 0.0 278.2170104980469 0.0 248.6269989013672C0.0 231.18699645996094 -1.77618408203125 213.70799255371094 -5.3326263427734375 196.1999969482422C-19.890106201171875 124.44400024414062 -64.17010498046875 59.133209228515625 -136.50799560546875 2.8056793212890625C-139.0449981689453 0.8241729736328125 -141.1320037841797 -0.89312744140625 -141.1320037841797 -1.0252227783203125C-141.1320037841797 -1.1573333740234375 -139.0449981689453 -2.8746337890625 -136.50799560546875 -4.8561248779296875C-64.19650268554688 -61.15730285644531 -19.890106201171875 -126.49400329589844 -5.3326263427734375 -198.25100708007812C-1.77618408203125 -215.75900268554688 0.0 -233.24099731445312 0.0 -250.68499755859375C0.0 -280.2799987792969 -5.1130523681640625 -309.7640075683594 -15.31939697265625 -339.07000732421875C-54.3843994140625 -451.0880126953125 -74.66519165039062 -560.7150268554688 -74.66519165039062 -658.7420043945312C-74.66519165039062 -669.7730102539062 -74.40840148925781 -680.656982421875 -73.8927001953125 -691.3809814453125C-69.74468994140625 -777.6690063476562 -48.053802490234375 -858.302978515625 -10.590194702148438 -926.8099975585938C-6.2044830322265625 -934.8679809570312 -6.2044830322265625 -934.8159790039062 -6.2044830322265625 -937.3779907226562C-6.2044830322265625 -942.6129760742188 -10.484603881835938 -946.4650268554688 -15.211502075195312 -946.4650268554688C-16.472900390625 -946.4650268554688 -17.766098022460938 -946.1900024414062 -19.018203735351562 -945.594970703125C-22.030105590820312 -944.1680297851562 -22.056503295898438 -944.1420288085938 -31.145004272460938 -927.4439697265625C-109.36599731445312 -784.0360107421875 -148.58799743652344 -645.7760009765625 -148.58799743652344 -514.1069946289062C-148.58799743652344 -459.4800109863281 -141.83700561523438 -405.98699951171875 -128.3179931640625 -353.7330017089844C-123.69400024414062 -335.89898681640625 -121.23699951171875 -327.6830139160156 -113.78700256347656 -305.3840026855469C-98.51609802246094 -259.7300109863281 -92.46600341796875 -231.72500610351562 -89.29550170898438 -192.04200744628906C-88.87960815429688 -186.81399536132812 -88.68020629882812 -180.7729949951172 -88.68020629882812 -174.3979949951172C-88.68020629882812 -160.1230010986328 -89.6802978515625 -144.1739959716797 -91.4884033203125 -131.93699645996094C-98.96530151367188 -81.23651123046875 -123.77400207519531 -36.90370178222656 -159.36199951171875 -10.58929443359375C-164.61900329589844 -6.705535888671875 -165.88699340820312 -4.8825531005859375 -165.88699340820312 -1.0252227783203125C-165.88699340820312 2.83209228515625 -164.61900329589844 4.6550750732421875 -159.36199951171875 8.538833618164062C-129.58599853515625 30.54669189453125 -106.52099609375 66.37229919433594 -96.21759033203125 106.68899536132812C-91.18820190429688 126.27499389648438 -88.67599487304688 147.14999389648438 -88.67599487304688 169.36900329589844C-88.67599487304688 195.70599365234375 -92.20550537109375 223.9320068359375 -99.25588989257812 254.13999938964844C-102.71701049804688 268.96099853515625 -105.99299621582031 280.0580139160156 -113.78700256347656 303.3340148925781C-128.343994140625 346.8999938964844 -136.2969970703125 379.7669982910156 -142.3209991455078 421.5899963378906C-146.6529998779297 451.68499755859375 -148.81500244140625 482.2040100097656 -148.81500244140625 513.1099853515625C-148.81500244140625 645.0490112304688 -109.40499877929688 784.0670166015625 -31.145004272460938 927.5079956054688C-21.422393798828125 945.3670043945312 -21.078994750976562 945.8170166015625 -16.693206787109375 946.3709716796875Z" fill="black" /></g></svg>