<?xml version="1.0" encoding="utf-8" ?>
<svg baseProfile="tiny" height="100%" version="1.2" width="100%" xmlns="http://www.w3.org/2000/svg" xmlns:ev="http://www.w3.org/2001/xml-events" xmlns:xlink="http://www.w3.org/1999/xlink"><defs /><g transform="translate(0, 1000) scale(1, -1)"><path d="M-11.3092041015625 1419.219970703125C-10.59869384765625 1419.3699951171875 -9.895477294921875 1419.43994140625 -9.20782470703125 1419.43994140625C-6.078857421875 1419.43994140625 -3.2727813720703125 1417.989990234375 -1.578155517578125 1415.4100341796875C-0.55780029296875 1413.8399658203125 0.0 1412.5400390625 0.0 1410.97998046875C0.0 1408.5699462890625 -1.3499298095703125 1405.550048828125 -4.408416748046875 1400.02001953125C-74.07089233398438 1273.72998046875 -108.99299621582031 1126.47998046875 -108.99299621582031 965.176025390625C-108.99299621582031 823.5460205078125 -82.07000732421875 671.0800170898438 -28.100006103515625 512.4559936523438C-20.722198486328125 490.8320007324219 -18.94140625 485.3940124511719 -17.128692626953125 479.09698486328125C-6.5183258056640625 442.18798828125 -1.304443359375 404.9540100097656 -1.304443359375 367.9939880371094C-1.304443359375 252.64100646972656 -52.092803955078125 139.96499633789062 -148.11599731445312 48.22819519042969C-166.33799743652344 30.8013916015625 -192.2239990234375 8.763412475585938 -205.3260040283203 -0.4906158447265625C-206.13699340820312 -1.0789337158203125 -206.54200744628906 -1.3412933349609375 -206.54200744628906 -1.6036529541015625C-206.54200744628906 -1.865997314453125 -206.13699340820312 -2.12835693359375 -205.3260040283203 -2.7166748046875C-192.2239990234375 -11.970703125 -166.33799743652344 -34.008697509765625 -148.11599731445312 -51.43550109863281C-52.092803955078125 -143.1719970703125 -1.304443359375 -255.84800720214844 -1.304443359375 -371.20098876953125C-1.304443359375 -408.1610107421875 -6.5183258056640625 -445.39599609375 -17.128692626953125 -482.3039855957031C-18.94140625 -488.5690002441406 -20.404205322265625 -493.02099609375 -28.895004272460938 -518.0479736328125C-69.47280883789062 -637.7470092773438 -95.0089111328125 -756.7449951171875 -104.58099365234375 -871.0369873046875C-107.34700012207031 -904.1010131835938 -108.72698974609375 -936.5910034179688 -108.72698974609375 -968.4730224609375C-108.72698974609375 -1129.0400390625 -73.72709655761719 -1274.22998046875 -4.503814697265625 -1399.8800048828125C-1.058685302734375 -1406.0999755859375 -0.0594482421875 -1408.25 -0.0594482421875 -1410.3699951171875C-0.0594482421875 -1410.93994140625 -0.1294097900390625 -1411.5 -0.242523193359375 -1412.1300048828125C-1.1117095947265625 -1416.780029296875 -5.21441650390625 -1419.43994140625 -9.321762084960938 -1419.43994140625C-12.126998901367188 -1419.43994140625 -14.934402465820312 -1418.199951171875 -16.715301513671875 -1415.5C-17.891998291015625 -1413.75 -25.65130615234375 -1399.72998046875 -32.329498291015625 -1387.3199462890625C-129.99000549316406 -1205.52001953125 -185.51400756835938 -1019.989990234375 -194.73599243164062 -844.6430053710938C-195.91299438476562 -821.8729858398438 -196.00799560546875 -817.9940185546875 -196.00799560546875 -788.8319702148438C-196.00799560546875 -758.81201171875 -195.88099670410156 -754.1380004882812 -194.5449981689453 -730.1599731445312C-189.4250030517578 -638.0009765625 -172.31700134277344 -552.1710205078125 -140.51600646972656 -459.5350036621094C-124.16999816894531 -411.802001953125 -113.96200561523438 -366.0090026855469 -109.70098876953125 -321.2019958496094C-108.16000366210938 -304.9989929199219 -107.39399719238281 -289.1549987792969 -107.39399719238281 -273.697998046875C-107.39399719238281 -189.28199768066406 -130.25799560546875 -116.4110107421875 -174.7969970703125 -59.830902099609375C-189.04400634765625 -41.7362060546875 -207.45599365234375 -23.86419677734375 -225.64700317382812 -10.507904052734375C-229.57400512695312 -7.6139984130859375 -231.53799438476562 -4.60882568359375 -231.53799438476562 -1.6036529541015625C-231.53799438476562 1.4015350341796875 -229.57400512695312 4.406707763671875 -225.64700317382812 7.3005828857421875C-207.45599365234375 20.688705444335938 -189.04400634765625 38.52899169921875 -174.7969970703125 56.62359619140625C-130.0030059814453 113.531005859375 -107.2860107421875 187.39700317382812 -107.2860107421875 270.8039855957031C-107.2860107421875 328.85699462890625 -118.29100036621094 391.5320129394531 -140.51600646972656 456.3280029296875C-172.8249969482422 550.489990234375 -190.06100463867188 637.4329833984375 -195.0540008544922 731.5640258789062C-196.2310028076172 754.0789794921875 -196.3260040283203 758.02197265625 -196.3260040283203 787.0560302734375C-196.3260040283203 816.0260009765625 -196.19900512695312 820.8280029296875 -195.0540008544922 842.8660278320312C-185.322998046875 1025.75 -126.968994140625 1215.949951171875 -22.630294799804688 1405.0999755859375C-15.761306762695312 1417.510009765625 -14.966293334960938 1418.52001953125 -11.3092041015625 1419.219970703125Z" fill="black" /></g></svg>