<?xml version="1.0" encoding="utf-8" ?>
<svg baseProfile="tiny" height="100%" version="1.2" width="100%" xmlns="http://www.w3.org/2000/svg" xmlns:ev="http://www.w3.org/2001/xml-events" xmlns:xlink="http://www.w3.org/1999/xlink"><defs /><g transform="translate(0, 1000) scale(1, -1)"><path d="M-15.780105590820312 1031.739990234375C-15.245010375976562 1031.8399658203125 -14.715011596679688 1031.8800048828125 -14.1942138671875 1031.8800048828125C-9.303817749023438 1031.8800048828125 -5.2182769775390625 1028.0 -5.171966552734375 1022.9000244140625C-5.1719818115234375 1020.5 -5.42822265625 1019.7999877929688 -8.323684692382812 1014.5800170898438C-56.77593994140625 927.2360229492188 -81.01072692871094 826.3880004882812 -81.01072692871094 713.7620239257812C-81.01072692871094 607.6199951171875 -59.485626220703125 491.0169982910156 -16.420730590820312 365.40301513671875C-5.414398193359375 333.3080139160156 -3.0517578125e-05 301.135009765625 -3.0517578125e-05 269.37799072265625C-3.0517578125e-05 172.56900024414062 -50.318328857421875 79.63320922851562 -145.92202758789062 4.5970306396484375L-152.32803344726562 -0.4251861572265625L-153.22503662109375 -1.14263916015625L-152.32803344726562 -1.83447265625C-151.84103393554688 -2.24444580078125 -148.97203063964844 -4.4993133544921875 -145.92202758789062 -6.8823089599609375C-60.10893249511719 -74.2210693359375 -10.7579345703125 -155.06396484375 -1.687164306640625 -243.0289764404297C-0.6019287109375 -253.55296325683594 -0.046173095703125 -263.7249755859375 -0.046173095703125 -273.7519836425781C-0.046173095703125 -305.86798095703125 -5.74664306640625 -336.49896240234375 -18.009429931640625 -372.428955078125C-59.84613037109375 -494.9749755859375 -80.74732971191406 -609.5299987792969 -80.74732971191406 -714.1329650878906C-80.74732971191406 -826.5859680175781 -56.591827392578125 -927.5379943847656 -8.323684692382812 -1014.5599670410156C-5.42822265625 -1019.7799987792969 -5.1719818115234375 -1020.4699401855469 -5.1719818115234375 -1022.8799743652344C-5.2243804931640625 -1028.2799987792969 -9.70556640625 -1031.8799743652344 -14.3226318359375 -1031.8799743652344C-16.4791259765625 -1031.8799743652344 -18.66522216796875 -1031.0899353027344 -20.443634033203125 -1029.3399353027344C-22.954727172851562 -1026.8599548339844 -38.89263916015625 -997.2849426269531 -52.908721923828125 -969.0739440917969C-122.56202697753906 -828.8579406738281 -157.46603393554688 -693.0299987792969 -157.46603393554688 -563.0419616699219C-157.46603393554688 -484.44195556640625 -144.7040252685547 -407.9769592285156 -119.14602661132812 -333.96697998046875C-105.56503295898438 -294.6099548339844 -97.72442626953125 -260.7099609375 -94.1627197265625 -225.73297119140625C-92.92013549804688 -213.51597595214844 -92.30442810058594 -201.59596252441406 -92.30442810058594 -190.0009765625C-92.30442810058594 -111.93797302246094 -120.21603393554688 -48.68896484375 -172.6220245361328 -9.6240234375C-176.19703674316406 -6.9591827392578125 -177.98402404785156 -4.0509033203125 -177.98402404785156 -1.1426239013671875C-177.98402404785156 1.765655517578125 -176.19703674316406 4.6739349365234375 -172.6220245361328 7.3387908935546875C-119.62503051757812 46.82513427734375 -92.35623168945312 109.8890380859375 -92.35623168945312 187.27903747558594C-92.35623168945312 231.12002563476562 -101.10702514648438 279.55902099609375 -118.8890380859375 330.91302490234375C-144.72503662109375 405.5160217285156 -157.6530303955078 482.87603759765625 -157.6530303955078 562.3540344238281C-157.6530303955078 620.9790344238281 -150.61903381347656 680.7560119628906 -136.54403686523438 741.4290466308594C-133.9310302734375 752.7030334472656 -128.55003356933594 773.5350036621094 -126.34603881835938 781.0180358886719L-123.47604370117188 790.7540588378906C-101.20903015136719 866.8310241699219 -69.25662231445312 942.1390075683594 -26.183334350585938 1020.0900573730469C-20.72552490234375 1029.9300842285156 -19.726226806640625 1031.0799865722656 -15.780136108398438 1031.7400207519531Z" fill="black" /></g></svg>