<?xml version="1.0" encoding="utf-8" ?>
<svg baseProfile="tiny" height="100%" version="1.2" width="100%" xmlns="http://www.w3.org/2000/svg" xmlns:ev="http://www.w3.org/2001/xml-events" xmlns:xlink="http://www.w3.org/1999/xlink"><defs /><g transform="translate(0, 1000) scale(1, -1)"><path d="M-12.497299194335938 6371.759765625C-11.443588256835938 6372.06982421875 -10.404586791992188 6372.22021484375 -9.404159545898438 6372.22021484375C-4.342529296875 6372.22021484375 -0.267852783203125 6368.419921875 -0.267852783203125 6363.06005859375C-0.267852783203125 6363.02001953125 -0.268035888671875 6362.97998046875 -0.2684326171875 6362.93994140625C-0.2684173583984375 6360.14013671875 -1.7714080810546875 6357.06982421875 -14.000274658203125 6335.14013671875C-374.6749572753906 5686.080078125 -562.4559631347656 4925.97998046875 -562.4559631347656 4119.2001953125C-562.4559631347656 4065.919921875 -561.6369934082031 4012.43994140625 -559.9949645996094 3958.780029296875C-542.6419982910156 3390.85009765625 -434.0169677734375 2804.68994140625 -242.59097290039062 2246.050048828125C-210.8919677734375 2153.47998046875 -207.8169708251953 2144.06005859375 -198.2529754638672 2111.81005859375C-146.47897338867188 1936.489990234375 -121.16497802734375 1758.1500244140625 -121.16497802734375 1581.1300048828125C-121.16497802734375 1081.93994140625 -322.47296142578125 593.2880249023438 -699.3629455566406 212.71697998046875C-774.8539733886719 136.40599060058594 -868.1069641113281 55.72288513183594 -946.1259460449219 -0.9124755859375C-950.5669860839844 -4.1233978271484375 -954.1879577636719 -6.856109619140625 -954.1879577636719 -7.061065673828125C-954.1879577636719 -7.2660369873046875 -950.5669860839844 -9.998733520507812 -946.1259460449219 -13.209625244140625C-868.1759948730469 -69.77664184570312 -774.7859802246094 -150.5960235595703 -699.3629455566406 -226.8390350341797C-322.47296142578125 -607.4110565185547 -121.16497802734375 -1096.0601043701172 -121.16497802734375 -1595.2600555419922C-121.16497802734375 -1772.2700653076172 -146.47897338867188 -1950.6200408935547 -198.2529754638672 -2125.929977416992C-207.8169708251953 -2158.179977416992 -210.8919677734375 -2167.610153198242 -242.59097290039062 -2260.179977416992C-430.4649658203125 -2808.490036010742 -539.0899963378906 -3388.510055541992 -557.9449768066406 -3943.870162963867C-560.0629577636719 -4008.020065307617 -560.3359680175781 -4025.980026245117 -560.3359680175781 -4124.569869995117C-560.3359680175781 -4226.500045776367 -560.0629577636719 -4243.439987182617 -557.6039733886719 -4313.120162963867C-531.0969543457031 -5047.540084838867 -345.54595947265625 -5737.750045776367 -13.931976318359375 -6334.980026245117C-4.0260162353515625 -6352.779830932617 3.0517578125e-05 -6360.419967651367 3.0517578125e-05 -6364.740280151367C3.0517578125e-05 -6367.450241088867 -1.585784912109375 -6368.850143432617 -4.299163818359375 -6370.640182495117C-5.92022705078125 -6371.689987182617 -7.5012359619140625 -6372.220260620117 -9.055435180664062 -6372.220260620117C-12.872268676757812 -6372.220260620117 -16.5274658203125 -6369.040084838867 -20.2171630859375 -6362.580123901367C-167.64697265625 -6103.799850463867 -314.59796142578125 -5780.040084838867 -419.7389831542969 -5482.379928588867C-552.5479431152344 -5106.290084838867 -638.0819396972656 -4744.140182495117 -688.0899963378906 -4345.439987182617C-706.2629699707031 -4201.009811401367 -718.2189636230469 -4036.850143432617 -723.3419494628906 -3863.929977416992C-724.1419982910156 -3836.090133666992 -724.5309753417969 -3794.970016479492 -724.5309753417969 -3751.550094604492C-724.5309753417969 -3694.840133666992 -723.8679504394531 -3634.199996948242 -722.5909729003906 -3594.080123901367C-706.4679870605469 -3087.850143432617 -619.4999694824219 -2617.139938354492 -453.62396240234375 -2137.550094604492C-427.458984375 -2061.990036010742 -408.3979797363281 -1998.7300262451172 -391.65997314453125 -1931.9100799560547C-346.2349548339844 -1750.4499969482422 -324.1629638671875 -1570.1600799560547 -324.1629638671875 -1395.3500213623047C-324.1629638671875 -836.3720550537109 -549.8289489746094 -333.37803649902344 -959.2429504394531 -27.214828491210938C-973.2819519042969 -16.72802734375 -980.3019714355469 -11.89453125 -980.3019714355469 -7.0610809326171875C-980.3019714355469 -2.22760009765625 -973.2819519042969 2.605865478515625 -959.2429504394531 13.092666625976562C-549.8289489746094 319.25599670410156 -324.1629638671875 822.2499847412109 -324.1629638671875 1381.229965209961C-324.1629638671875 1556.040023803711 -346.2349548339844 1736.3299407958984 -391.65997314453125 1917.790023803711C-408.3979797363281 1984.6700286865234 -427.458984375 2047.9300384521484 -453.62396240234375 2123.419906616211C-623.0519714355469 2613.060043334961 -708.7909851074219 3083.489974975586 -724.7089538574219 3610.360092163086C-725.6949768066406 3643.070053100586 -726.1699523925781 3679.749984741211 -726.1699523925781 3718.620101928711C-726.1699523925781 3819.759994506836 -722.9489440917969 3935.649887084961 -717.1249694824219 4034.610092163086C-671.3529968261719 4807.419906616211 -442.2149658203125 5590.479965209961 -53.214569091796875 6303.100082397461C-18.782470703125 6366.160140991211 -16.18646240234375 6370.600082397461 -12.497268676757812 6371.759750366211Z" fill="black" /></g></svg>