<?xml version="1.0" encoding="utf-8" ?>
<svg baseProfile="tiny" height="100%" version="1.2" width="100%" xmlns="http://www.w3.org/2000/svg" xmlns:ev="http://www.w3.org/2001/xml-events" xmlns:xlink="http://www.w3.org/1999/xlink"><defs /><g transform="translate(0, 1000) scale(1, -1)"><path d="M-10.931106567382812 3322.39990234375C-10.330322265625 3322.5400390625 -9.730850219726562 3322.60009765625 -9.139663696289062 3322.60009765625C-4.3026123046875 3322.60009765625 -0.0179443359375 3318.260009765625 -0.0179443359375 3313.3701171875C-0.0179443359375 3312.77001953125 -0.083740234375 3312.159912109375 -0.222412109375 3311.5400390625C-0.4216461181640625 3310.5 -2.7128143310546875 3305.9599609375 -5.2032318115234375 3301.429931640625C-163.6430206298828 3017.669921875 -255.78701782226562 2688.340087890625 -275.3620147705078 2336.449951171875C-278.03501892089844 2288.320068359375 -279.36402893066406 2239.669921875 -279.36402893066406 2190.6201171875C-279.36402893066406 1861.219970703125 -219.45001220703125 1513.27001953125 -104.22201538085938 1177.8199462890625C-91.66990661621094 1141.2099609375 -88.03392028808594 1130.449951171875 -84.14891052246094 1117.6500244140625C-56.32151794433594 1026.93994140625 -42.50621032714844 933.2620239257812 -42.50621032714844 839.510009765625C-42.50621032714844 705.0449829101562 -70.9254150390625 570.4340209960938 -127.18301391601562 444.2430114746094C-203.1900177001953 273.8500061035156 -329.0550079345703 119.04598999023438 -487.29502868652344 1.20062255859375C-490.7320098876953 -1.3395843505859375 -493.52101135253906 -3.5809478759765625 -493.52101135253906 -3.780181884765625C-493.52101135253906 -3.9794158935546875 -490.7320098876953 -6.22076416015625 -487.29502868652344 -8.760986328125C-403.4180145263672 -71.22019958496094 -326.16600036621094 -146.52999877929688 -262.11302185058594 -228.41400146484375C-117.42001342773438 -413.2860107421875 -42.39662170410156 -629.2570190429688 -42.39662170410156 -846.7960205078125C-42.39662170410156 -950.4359741210938 -59.425018310546875 -1054.4300537109375 -94.06071472167969 -1155.5899658203125C-138.6890106201172 -1285.93994140625 -167.12901306152344 -1382.3699951171875 -193.17901611328125 -1491.7900390625C-250.31101989746094 -1731.760009765625 -278.6800079345703 -1966.510009765625 -278.6800079345703 -2192.239990234375C-278.6800079345703 -2596.639892578125 -187.63002014160156 -2972.10009765625 -7.7932281494140625 -3296.840087890625C-3.8583984375 -3303.9599609375 -0.4216461181640625 -3310.6298828125 -0.222412109375 -3311.679931640625C-0.0714263916015625 -3312.35009765625 -1.52587890625e-05 -3313.0 -1.52587890625e-05 -3313.639892578125C-1.52587890625e-05 -3318.64990234375 -4.398162841796875 -3322.60009765625 -9.234420776367188 -3322.60009765625C-10.692916870117188 -3322.60009765625 -12.191207885742188 -3322.239990234375 -13.620819091796875 -3321.43994140625C-16.111221313476562 -3320.050048828125 -17.157119750976562 -3318.35009765625 -27.666610717773438 -3299.330078125C-275.9300079345703 -2849.7900390625 -403.0020294189453 -2374.610107421875 -403.0020294189453 -1911.8699951171875C-403.0020294189453 -1712.4000244140625 -379.39002990722656 -1515.239990234375 -331.6950225830078 -1323.43994140625C-311.47300720214844 -1242.06005859375 -295.73301696777344 -1189.3599853515625 -263.4080047607422 -1094.8199462890625C-217.6430206298828 -960.8779907226562 -195.46202087402344 -827.2559814453125 -195.46202087402344 -700.114013671875C-195.46202087402344 -416.8370056152344 -305.5690155029297 -165.72300720214844 -510.2570037841797 -14.837600708007812C-516.2089996337891 -10.454498291015625 -519.1850128173828 -7.1173248291015625 -519.1850128173828 -3.780181884765625C-519.1850128173828 -0.4430389404296875 -516.2089996337891 2.89410400390625 -510.2570037841797 7.2772064208984375C-305.5690155029297 158.16299438476562 -195.46202087402344 409.2770080566406 -195.46202087402344 692.5540161132812C-195.46202087402344 819.6959838867188 -217.6430206298828 953.3179931640625 -263.4080047607422 1087.260009765625C-293.54200744628906 1175.3699951171875 -307.6380157470703 1221.949951171875 -326.61402893066406 1295.4599609375C-366.31101989746094 1449.6199951171875 -391.1160125732422 1610.1500244140625 -399.8820037841797 1770.3800048828125C-402.82102966308594 1824.02001953125 -403.36900329589844 1846.489990234375 -403.36900329589844 1910.0899658203125C-403.36900329589844 1974.4000244140625 -402.7210235595703 1998.3499755859375 -399.6330108642578 2054.2900390625C-376.2730255126953 2472.22998046875 -248.7150115966797 2899.22998046875 -27.716415405273438 3299.239990234375C-15.81231689453125 3320.760009765625 -15.314208984375 3321.39990234375 -10.931121826171875 3322.39990234375Z" fill="black" /></g></svg>