<?xml version="1.0" encoding="utf-8" ?>
<svg baseProfile="tiny" height="100%" version="1.2" width="100%" xmlns="http://www.w3.org/2000/svg" xmlns:ev="http://www.w3.org/2001/xml-events" xmlns:xlink="http://www.w3.org/1999/xlink"><defs /><g transform="translate(0, 1000) scale(1, -1)"><path d="M-12.546493530273438 288.0480041503906C-12.147079467773438 288.0979919433594 -11.752487182617188 288.12200927734375 -11.3638916015625 288.12200927734375C-6.31463623046875 288.12200927734375 -2.290924072265625 284.0369873046875 -2.290924072265625 279.09698486328125C-2.290924072265625 278.4779968261719 -2.3538970947265625 277.84698486328125 -2.485687255859375 277.2090148925781C-2.6823272705078125 276.2489929199219 -3.0284423828125 275.4150085449219 -3.8622589111328125 273.8890075683594C-15.623489379882812 252.3979949951172 -21.504989624023438 227.96099853515625 -21.504989624023438 200.19700622558594C-21.504989624023438 171.50999450683594 -15.226181030273438 139.27200317382812 -2.6666107177734375 103.05999755859375C-1.6833343505859375 100.22799682617188 -1.3214874267578125 99.03269958496094 -0.5506134033203125 96.06719970703125L1.52587890625e-05 93.93550109863281V75.30839538574219V56.68928527832031L-0.4798126220703125 54.8328857421875C-5.63214111328125 34.79779052734375 -17.706680297851562 17.075393676757812 -37.22257995605469 0.8790740966796875C-37.98558044433594 0.241912841796875 -38.61488342285156 -0.2929840087890625 -38.61488342285156 -0.31658935546875C-38.61488342285156 -0.340179443359375 -37.98558044433594 -0.8750762939453125 -37.22257995605469 -1.512237548828125C-17.706680297851562 -17.708602905273438 -5.63214111328125 -35.430999755859375 -0.4798126220703125 -55.466094970703125L1.52587890625e-05 -57.32249450683594V-75.94158935546875V-94.568603515625L-0.5506134033203125 -96.70030212402344C-1.3214874267578125 -99.66587829589844 -1.6833343505859375 -100.86198425292969 -2.6666107177734375 -103.69297790527344C-15.18988037109375 -139.81198120117188 -21.448883056640625 -171.92498779296875 -21.448883056640625 -200.4919891357422C-21.448883056640625 -228.1429901123047 -15.5850830078125 -252.47097778320312 -3.8622589111328125 -273.8929901123047C-2.7456817626953125 -275.9459991455078 -2.283477783203125 -277.3719940185547 -2.283477783203125 -278.97999572753906C-2.283477783203125 -279.3429718017578 -2.307037353515625 -279.7159881591797 -2.351959228515625 -280.1069793701172C-2.930419921875 -285.06199645996094 -7.113372802734375 -288.1219940185547 -11.412582397460938 -288.1219940185547C-13.71978759765625 -288.1219940185547 -16.060379028320312 -287.24098205566406 -17.895492553710938 -285.2989959716797C-19.594482421875 -283.4969940185547 -27.44488525390625 -268.66197204589844 -33.36808776855469 -256.0449981689453C-50.767486572265625 -218.9819793701172 -59.615386962890625 -183.4659881591797 -59.615386962890625 -150.6899871826172C-59.615386962890625 -149.75498962402344 -59.608184814453125 -148.82298278808594 -59.593780517578125 -147.8929901123047C-59.26348876953125 -126.49699401855469 -56.18778991699219 -108.62498474121094 -49.281280517578125 -87.98469543457031C-43.821685791015625 -71.66648864746094 -41.19789123535156 -58.718780517578125 -41.19789123535156 -47.38258361816406C-41.19789123535156 -42.56538391113281 -41.67167663574219 -38.0391845703125 -42.60298156738281 -33.66899108886719C-44.87628173828125 -22.955276489257812 -50.28819274902344 -14.113784790039062 -58.2880859375 -8.033248901367188C-60.98619079589844 -5.9801788330078125 -62.17388916015625 -4.037261962890625 -62.47288513183594 -1.2133026123046875C-62.50968933105469 -0.85711669921875 -62.52818298339844 -0.5081634521484375 -62.52818298339844 -0.1660614013671875C-62.52818298339844 2.778228759765625 -61.156280517578125 5.2154388427734375 -58.2880859375 7.4001007080078125C-47.03187561035156 15.964218139648438 -41.25738525390625 29.3701171875 -41.25738525390625 46.63252258300781C-41.25738525390625 51.36181640625 -41.69078063964844 56.380615234375 -42.563690185546875 61.668609619140625C-43.948089599609375 70.06962585449219 -45.55278015136719 76.20521545410156 -49.281280517578125 87.35151672363281C-56.31208801269531 108.3690185546875 -59.660186767578125 128.07801818847656 -59.660186767578125 149.22801208496094C-59.660186767578125 154.7230224609375 -59.43418884277344 160.3150177001953 -58.988189697265625 166.05201721191406C-56.21928405761719 201.68601989746094 -42.74458312988281 241.7320098876953 -19.806884765625 282.4710235595703C-17.80108642578125 286.02601623535156 -15.685089111328125 287.65501403808594 -12.546478271484375 288.0480194091797Z" fill="black" /></g></svg>