<?xml version="1.0" encoding="utf-8" ?>
<svg baseProfile="tiny" height="100%" version="1.2" width="100%" xmlns="http://www.w3.org/2000/svg" xmlns:ev="http://www.w3.org/2001/xml-events" xmlns:xlink="http://www.w3.org/1999/xlink"><defs /><g transform="translate(0, 1000) scale(1, -1)"><path d="M-13.442306518554688 1588.1700439453125C-12.023117065429688 1588.8699951171875 -10.56561279296875 1589.199951171875 -9.160186767578125 1589.199951171875C-4.3752288818359375 1589.199951171875 -0.1952056884765625 1585.4300537109375 -0.1952056884765625 1580.0699462890625C-0.1952056884765625 1580.02001953125 -0.1951904296875 1579.97998046875 -0.1951904296875 1579.9300537109375C-0.1951904296875 1577.550048828125 -0.2574920654296875 1577.47998046875 -6.73779296875 1565.68994140625C-36.89201354980469 1510.68994140625 -63.06231689453125 1447.43994140625 -81.45930480957031 1384.9000244140625C-109.76002502441406 1288.75 -123.91201782226562 1185.969970703125 -123.91201782226562 1077.3199462890625C-123.91201782226562 980.0599975585938 -112.56901550292969 878.0989990234375 -89.88041687011719 771.9979858398438C-74.43081665039062 699.7379760742188 -57.84771728515625 641.114013671875 -28.470809936523438 554.5059814453125C-12.24652099609375 506.7170104980469 -4.3182220458984375 458.2909851074219 -4.3182220458984375 410.2690124511719C-4.3182220458984375 261.18701171875 -80.72801208496094 115.9949951171875 -222.5460205078125 5.8033294677734375L-231.12901306152344 -0.868804931640625L-232.2630157470703 -1.77569580078125L-231.12901306152344 -2.6501922607421875C-230.51402282714844 -3.1684112548828125 -226.6590118408203 -6.1805877685546875 -222.5460205078125 -9.354721069335938C-80.81541442871094 -119.46498107910156 -4.4321136474609375 -263.9449920654297 -4.4321136474609375 -413.70899963378906C-4.4321136474609375 -454.78199768066406 -10.177520751953125 -496.2539825439453 -21.89581298828125 -537.5229949951172C-24.001113891601562 -544.8419647216797 -26.333114624023438 -551.9680023193359 -34.851409912109375 -577.0049896240234C-93.43492126464844 -749.2509613037109 -123.57200622558594 -921.5729827880859 -123.57200622558594 -1080.189926147461C-123.57200622558594 -1129.759994506836 -120.62901306152344 -1177.989974975586 -114.69001770019531 -1224.459945678711C-98.75502014160156 -1349.0899505615234 -62.18782043457031 -1464.6299896240234 -6.73779296875 -1565.6800384521484C-1.69012451171875 -1574.8399505615234 -1.52587890625e-05 -1578.0999603271484 -1.52587890625e-05 -1580.489974975586C-1.52587890625e-05 -1581.5699310302734 -0.342498779296875 -1582.469955444336 -0.8753814697265625 -1583.6600189208984C-2.5052032470703125 -1587.239974975586 -6.1642913818359375 -1589.199935913086 -9.6920166015625 -1589.199935913086C-12.19342041015625 -1589.199935913086 -14.628707885742188 -1588.209945678711 -16.227813720703125 -1586.1199798583984C-17.847213745117188 -1584.009994506836 -32.55181884765625 -1557.0999603271484 -43.4669189453125 -1536.300033569336C-155.10301208496094 -1323.479965209961 -215.47901916503906 -1096.270004272461 -215.47901916503906 -890.9959564208984C-215.47901916503906 -876.8040008544922 -215.19100952148438 -862.7180023193359 -214.6110076904297 -848.7490081787109C-210.6590118408203 -753.2009735107422 -198.7080078125 -674.9169769287109 -174.7720184326172 -587.9520111083984C-168.197021484375 -564.1459808349609 -164.2130126953125 -551.4169769287109 -150.83702087402344 -511.9029998779297C-127.32200622558594 -442.31797790527344 -115.84800720214844 -374.58399963378906 -115.84800720214844 -311.5459747314453C-115.84800720214844 -184.94699096679688 -162.12701416015625 -77.28929138183594 -250.1090087890625 -11.621978759765625C-255.97100830078125 -7.249420166015625 -257.04002380371094 -5.7595367431640625 -257.04002380371094 -1.7756805419921875C-257.04002380371094 2.208160400390625 -255.97100830078125 3.69805908203125 -250.1090087890625 8.070571899414062C-162.14102172851562 73.72770690917969 -115.82801818847656 181.5180206298828 -115.82801818847656 308.13002014160156C-115.82801818847656 371.0170135498047 -127.25300598144531 438.5480194091797 -150.67501831054688 507.8660125732422C-162.85301208496094 543.8499908447266 -166.12400817871094 554.1490020751953 -171.6950225830078 573.4530181884766C-195.82501220703125 657.3730010986328 -209.78501892089844 741.3260040283203 -214.12501525878906 828.5170440673828C-215.09600830078125 848.4359893798828 -215.291015625 854.7840118408203 -215.48501586914062 876.4530181884766C-215.51402282714844 879.7610015869141 -215.52801513671875 883.0720367431641 -215.52801513671875 886.3860015869141C-215.52801513671875 1110.770034790039 -149.6370086669922 1345.8900299072266 -22.316909790039062 1575.540054321289C-16.098220825195312 1586.740005493164 -16.001022338867188 1586.8700103759766 -13.44232177734375 1588.1700592041016Z" fill="black" /></g></svg>