<?xml version="1.0" encoding="utf-8" ?>
<svg baseProfile="tiny" height="100%" version="1.2" width="100%" xmlns="http://www.w3.org/2000/svg" xmlns:ev="http://www.w3.org/2001/xml-events" xmlns:xlink="http://www.w3.org/1999/xlink"><defs /><g transform="translate(0, 1000) scale(1, -1)"><path d="M-12.4375 8256.400390625C-11.252593994140625 8256.7998046875 -10.086700439453125 8256.98046875 -8.972518920898438 8256.98046875C-4.0047149658203125 8256.98046875 -0.0667266845703125 8253.240234375 -0.0667266845703125 8247.8203125C-0.0667266845703125 8245.400390625 -2.9774932861328125 8239.5 -15.02490234375 8217.75C-460.94000244140625 7412.669921875 -705.2830200195312 6498.77001953125 -736.0889892578125 5521.31982421875C-738.1909790039062 5453.47998046875 -738.594970703125 5428.490234375 -739.0809936523438 5339.7998046875C-739.1370239257812 5328.41015625 -739.1649780273438 5317.02001953125 -739.1649780273438 5305.6201171875C-739.1649780273438 4495.52001953125 -597.4639892578125 3673.929931640625 -318.71600341796875 2868.06005859375C-299.14898681640625 2811.7099609375 -294.7829895019531 2798.68994140625 -285.322998046875 2768.610107421875C-210.45199584960938 2530.6201171875 -172.6439971923828 2284.159912109375 -172.6439971923828 2036.4200439453125C-172.6439971923828 1953.2099609375 -176.90899658203125 1869.8499755859375 -185.4669952392578 1786.6300048828125C-256.86199951171875 1093.1400146484375 -628.3090209960938 449.6109619140625 -1209.489990234375 12.832977294921875C-1225.02001953125 1.1090240478515625 -1237.7900390625 -8.755264282226562 -1237.7900390625 -9.1595458984375C-1237.7900390625 -9.563827514648438 -1225.02001953125 -19.428131103515625 -1209.489990234375 -31.152130126953125C-628.3090209960938 -467.9300231933594 -256.86199951171875 -1111.4499816894531 -185.4669952392578 -1804.9499816894531C-176.90899658203125 -1888.1700744628906 -172.6439971923828 -1971.5300598144531 -172.6439971923828 -2054.740020751953C-172.6439971923828 -2302.480010986328 -210.45199584960938 -2548.939971923828 -285.322998046875 -2786.929962158203C-294.864013671875 -2817.250030517578 -299.3919982910156 -2830.750030517578 -318.71600341796875 -2886.379913330078C-528.2919921875 -3491.100128173828 -661.7830200195312 -4116.270050048828 -713.3690185546875 -4734.720245361328C-729.6290283203125 -4929.580108642578 -737.7169799804688 -5122.799835205078 -737.7169799804688 -5313.959991455078C-737.7169799804688 -6367.120147705078 -492.22198486328125 -7357.950225830078 -15.105712890625 -8217.469757080078C-4.5777435302734375 -8236.330108642578 -1.52587890625e-05 -8245.259796142578 -1.52587890625e-05 -8250.080108642578C-1.52587890625e-05 -8253.429718017578 -2.2256927490234375 -8254.790069580078 -6.211700439453125 -8256.120147705078C-7.791351318359375 -8256.639678955078 -9.080078125 -8256.980499267578 -10.253921508789062 -8256.980499267578C-14.36761474609375 -8256.980499267578 -17.070816040039062 -8252.740264892578 -25.940322875976562 -8236.950225830078C-176.33001708984375 -7968.919952392578 -312.9750213623047 -7682.209991455078 -429.24501037597656 -7390.810089111328C-732.9359893798828 -6629.640167236328 -897.4749908447266 -5840.169952392578 -918.8209991455078 -5040.759796142578C-920.3339996337891 -4984.390167236328 -921.0900421142578 -4928.040069580078 -921.0900421142578 -4871.700225830078C-921.0900421142578 -4166.529815673828 -802.6660308837891 -3464.980010986328 -569.2849884033203 -2788.949981689453C-515.1120147705078 -2632.090118408203 -484.0640106201172 -2519.699981689453 -455.92701721191406 -2379.419952392578C-418.58702087402344 -2193.159942626953 -400.3820037841797 -2008.4700012207031 -400.3820037841797 -1828.1300354003906C-400.3820037841797 -1096.2500305175781 -700.2429962158203 -436.1159973144531 -1237.959976196289 -33.658599853515625C-1255.5799713134766 -20.438796997070312 -1264.3900299072266 -14.799102783203125 -1264.3900299072266 -9.159515380859375C-1264.3900299072266 -3.5198974609375 -1255.5799713134766 2.1197357177734375 -1237.959976196289 15.339508056640625C-700.2429962158203 417.7969970703125 -400.3820037841797 1077.93994140625 -400.3820037841797 1809.81005859375C-400.3820037841797 1990.1500244140625 -418.58702087402344 2174.840087890625 -455.92701721191406 2361.10009765625C-484.0640106201172 2501.389892578125 -515.1930084228516 2614.02001953125 -569.2849884033203 2770.6298828125C-804.7680206298828 3452.530029296875 -922.6770172119141 4152.3798828125 -922.6770172119141 4867.56982421875C-922.6770172119141 5042.7998046875 -915.5990142822266 5218.9501953125 -901.4370269775391 5395.990234375C-898.7689971923828 5428.740234375 -891.4920196533203 5509.830078125 -890.9260406494141 5512.18017578125C-890.6840362548828 5513.22998046875 -889.2280426025391 5526.490234375 -887.6920318603516 5541.68994140625C-793.0110015869141 6465.93994140625 -500.96302795410156 7383.080078125 -33.62150573730469 8223.490234375C-16.3994140625 8254.5400390625 -15.9951171875 8255.1796875 -12.437515258789062 8256.400390625Z" fill="black" /></g></svg>