<?xml version="1.0" encoding="utf-8" ?>
<svg baseProfile="tiny" height="100%" version="1.2" width="100%" xmlns="http://www.w3.org/2000/svg" xmlns:ev="http://www.w3.org/2001/xml-events" xmlns:xlink="http://www.w3.org/1999/xlink"><defs /><g transform="translate(0, 1000) scale(1, -1)"><path d="M-12.118698120117188 3389.1298828125C-10.881179809570312 3389.389892578125 -9.73291015625 3389.52001953125 -8.678634643554688 3389.52001953125C-3.4265289306640625 3389.52001953125 -0.506744384765625 3386.360107421875 -0.506744384765625 3381.3798828125C-0.506744384765625 3378.3798828125 -1.573272705078125 3374.7099609375 -3.836029052734375 3370.679931640625C-58.25738525390625 3274.43994140625 -110.69697570800781 3158.3798828125 -150.8909912109375 3045.469970703125C-240.7349853515625 2792.919921875 -285.5279998779297 2518.02001953125 -285.5279998779297 2230.6201171875C-285.5279998779297 1893.6800537109375 -223.9619903564453 1539.5699462890625 -101.24598693847656 1184.1700439453125C-87.42439270019531 1144.0799560546875 -82.24137878417969 1126.9100341796875 -73.39979553222656 1091.949951171875C-53.61479187011719 1013.469970703125 -43.96607971191406 934.2509765625 -43.96607971191406 855.5650024414062C-43.96607971191406 534.5230102539062 -204.58798217773438 222.281982421875 -492.7129821777344 4.6368865966796875C-498.6589660644531 0.165283203125 -503.5369567871094 -3.645721435546875 -503.5369567871094 -3.8489837646484375C-503.5369567871094 -4.0522308349609375 -498.6589660644531 -7.863250732421875 -492.76397705078125 -12.334808349609375C-231.22698974609375 -209.84701538085938 -69.79208374023438 -490.4900207519531 -46.97679138183594 -787.1400451660156C-45.01588439941406 -812.7850036621094 -44.032684326171875 -838.2480163574219 -44.032684326171875 -863.5680236816406C-44.032684326171875 -972.7540588378906 -62.31507873535156 -1079.2800598144531 -99.31468200683594 -1186.2800598144531C-212.8319854736328 -1514.3299865722656 -271.8779754638672 -1823.2300109863281 -283.5649871826172 -2149.959991455078C-284.2279815673828 -2168.840118408203 -284.5449981689453 -2194.439971923828 -284.5449981689453 -2222.159942626953C-284.5449981689453 -2268.810089111328 -283.64698791503906 -2321.480010986328 -281.98899841308594 -2358.300079345703C-265.47499084472656 -2725.530059814453 -172.28298950195312 -3066.639923095703 -6.8340301513671875 -3365.470001220703C-3.3787078857421875 -3371.620147705078 -0.4315185546875 -3377.409942626953 -0.228271484375 -3378.330108642578C-0.0731201171875 -3379.050079345703 1.52587890625e-05 -3379.750030517578 1.52587890625e-05 -3380.419952392578C1.52587890625e-05 -3385.699981689453 -4.4674072265625 -3389.520050048828 -9.160964965820312 -3389.520050048828C-11.340682983398438 -3389.520050048828 -13.569091796875 -3388.689971923828 -15.421478271484375 -3386.810089111328C-17.5048828125 -3384.679962158203 -21.265090942382812 -3378.070098876953 -39.10069274902344 -3345.350128173828C-262.3249969482422 -2935.939971923828 -388.9519805908203 -2495.949981689453 -407.7019805908203 -2064.340118408203C-409.5819854736328 -2021.8600158691406 -409.78599548339844 -2010.9300842285156 -409.78599548339844 -1953.3100891113281C-409.78599548339844 -1888.2700500488281 -409.1759796142578 -1865.0000305175781 -405.97499084472656 -1807.2200012207031C-393.5249786376953 -1583.8500061035156 -348.7589874267578 -1353.8100891113281 -277.4159698486328 -1146.1400451660156C-249.5699920654297 -1065.1899719238281 -237.6289825439453 -1023.4700012207031 -224.87498474121094 -962.9040222167969C-207.06597900390625 -878.2260437011719 -198.36997985839844 -795.0030212402344 -198.36997985839844 -714.5780334472656C-198.36997985839844 -424.4010314941406 -311.5759735107422 -170.6410369873047 -518.4249725341797 -16.349136352539062C-527.9780120849609 -9.184417724609375 -528.6890106201172 -8.371414184570312 -528.6890106201172 -3.8489990234375C-528.6890106201172 0.67340087890625 -527.9780120849609 1.4864349365234375 -518.4249725341797 8.651138305664062C-310.2519989013672 163.93597412109375 -198.19297790527344 420.1169738769531 -198.19297790527344 708.1059875488281C-198.19297790527344 835.7069396972656 -220.19198608398438 969.5529479980469 -265.5769805908203 1103.6299743652344L-281.1759796142578 1149.8699645996094C-367.7369842529297 1406.7299499511719 -410.58399963378906 1675.4799499511719 -410.58399963378906 1948.3499450683594C-410.58399963378906 2415.860076904297 -284.8149871826172 2895.469940185547 -37.62709045410156 3348.070037841797C-16.945877075195312 3385.919891357422 -15.370681762695312 3388.459930419922 -12.118682861328125 3389.129852294922Z" fill="black" /></g></svg>