<?xml version="1.0" encoding="utf-8" ?>
<svg baseProfile="tiny" height="100%" version="1.2" width="100%" xmlns="http://www.w3.org/2000/svg" xmlns:ev="http://www.w3.org/2001/xml-events" xmlns:xlink="http://www.w3.org/1999/xlink"><defs /><g transform="translate(0, 1000) scale(1, -1)"><path d="M-12.681106567382812 4851.5498046875C-11.4254150390625 4852.10986328125 -10.1494140625 4852.3701171875 -8.914642333984375 4852.3701171875C-4.150909423828125 4852.3701171875 -0.000640869140625 4848.52001953125 -0.000640869140625 4843.2099609375C-0.000640869140625 4843.18017578125 -0.0007781982421875 4843.14990234375 -0.0010528564453125 4843.1201171875V4839.06005859375L-8.070159912109375 4824.7998046875C-83.72563171386719 4690.89990234375 -158.22802734375 4526.91015625 -216.65403747558594 4365.52978515625C-352.3160400390625 3990.909912109375 -419.96502685546875 3582.510009765625 -419.96502685546875 3158.010009765625C-419.96502685546875 2678.8701171875 -333.7780456542969 2179.219970703125 -161.9290313720703 1684.52001953125C-114.9100341796875 1549.1600341796875 -89.73202514648438 1423.8800048828125 -82.45162963867188 1288.3399658203125C-81.06343078613281 1262.47998046875 -80.36312866210938 1237.8900146484375 -80.36312866210938 1213.1300048828125C-80.36312866210938 1184.8599853515625 -81.275634765625 1156.3599853515625 -83.11892700195312 1125.43994140625C-108.41802978515625 695.1719970703125 -337.08404541015625 285.89300537109375 -708.6270446777344 6.021881103515625C-716.9380187988281 -0.2271270751953125 -723.7340393066406 -5.5054168701171875 -723.7340393066406 -5.7480926513671875C-723.7340393066406 -5.9907684326171875 -716.9380187988281 -11.269088745117188 -708.6270446777344 -17.518081665039062C-434.09503173828125 -224.34197998046875 -233.7020263671875 -505.60797119140625 -140.99803161621094 -814.1759948730469C-100.40303039550781 -949.3329772949219 -80.11502075195312 -1085.6299743652344 -80.11502075195312 -1222.0999450683594C-80.11502075195312 -1380.3499450683594 -107.39602661132812 -1538.8299255371094 -161.9290313720703 -1696.0099792480469C-333.10302734375 -2189.580047607422 -418.9890441894531 -2686.779998779297 -418.9890441894531 -3163.679901123047C-418.9890441894531 -3572.499969482422 -355.8750305175781 -3966.399871826172 -229.2730255126953 -4330.310028076172C-169.2100372314453 -4502.910125732422 -89.61062622070312 -4681.040008544922 -8.070175170898438 -4825.370086669922L-0.001068115234375 -4839.629852294922V-4843.700164794922C-0.0003814697265625 -4843.759735107422 -3.0517578125e-05 -4843.830047607422 -3.0517578125e-05 -4843.899871826172C-3.0517578125e-05 -4849.819793701172 -2.619384765625 -4852.370086669922 -8.737533569335938 -4852.370086669922C-14.622512817382812 -4852.370086669922 -14.743820190429688 -4852.189910888672 -28.091217041015625 -4828.160125732422C-248.80902099609375 -4430.109832763672 -404.48802185058594 -4009.600067138672 -489.91102600097656 -3580.729949951172C-508.05201721191406 -3489.479949951172 -524.9180450439453 -3384.580047607422 -536.2630157470703 -3292.239959716797C-555.1610260009766 -3138.029998779297 -564.5579986572266 -2983.570037841797 -564.5579986572266 -2829.899871826172C-564.5579986572266 -2423.129852294922 -498.7210235595703 -2021.9300231933594 -368.9960174560547 -1645.6600036621094C-333.98902893066406 -1544.0999450683594 -317.7300262451172 -1488.0999450683594 -300.8030242919922 -1410.8699645996094C-273.81700134277344 -1287.6800231933594 -260.6680145263672 -1165.9499206542969 -260.6680145263672 -1047.8799743652344C-260.6680145263672 -624.9629821777344 -429.3660125732422 -248.98495483398438 -735.1389923095703 -21.279556274414062C-748.7899932861328 -11.098358154296875 -749.2169952392578 -10.94195556640625 -749.2169952392578 -6.6630096435546875L-749.2150421142578 -5.7480621337890625L-749.2169952392578 -4.8331146240234375C-749.2169952392578 -0.55413818359375 -748.7899932861328 -0.3977203369140625 -735.1389923095703 9.783462524414062C-427.2580108642578 239.05303955078125 -260.5480194091797 616.9840698242188 -260.5480194091797 1036.8400268554688C-260.5480194091797 1218.0601196289062 -291.60401916503906 1407.0800170898438 -355.77000427246094 1595.3300170898438C-381.67601013183594 1671.2300415039062 -391.2620086669922 1700.2901000976562 -403.94200134277344 1741.5501098632812C-511.5690155029297 2091.1101684570312 -565.7920074462891 2454.7700805664062 -565.7920074462891 2823.4500122070312C-565.7920074462891 2980.3601684570312 -555.9699859619141 3138.1799926757812 -536.2630157470703 3296.2200317382812C-530.5600128173828 3341.8999633789062 -521.0960235595703 3406.6399536132812 -513.2089996337891 3454.3201293945312C-437.5530242919922 3910.2600708007812 -279.2040252685547 4365.710021972656 -48.96171569824219 4789.609924316406C-20.628814697265625 4841.720275878906 -15.653915405273438 4850.220275878906 -12.681121826171875 4851.549865722656Z" fill="black" /></g></svg>