<?xml version="1.0" encoding="utf-8" ?>
<svg baseProfile="tiny" height="100%" version="1.2" width="100%" xmlns="http://www.w3.org/2000/svg" xmlns:ev="http://www.w3.org/2001/xml-events" xmlns:xlink="http://www.w3.org/1999/xlink"><defs /><g transform="translate(0, 1000) scale(1, -1)"><path d="M-12.171798706054688 271.27398681640625C-11.656890869140625 271.3609924316406 -11.146377563476562 271.40301513671875 -10.643890380859375 271.40301513671875C-5.7554473876953125 271.40301513671875 -1.6268463134765625 267.44000244140625 -1.6268463134765625 262.3710021972656C-1.6268463134765625 260.3739929199219 -1.9448089599609375 259.43499755859375 -3.65301513671875 256.3070068359375C-14.831390380859375 235.89700317382812 -20.443389892578125 212.09800720214844 -20.443389892578125 185.3209991455078C-20.443389892578125 172.5260009765625 -19.161880493164062 159.05099487304688 -16.593887329101562 144.9409942626953C-13.650787353515625 128.7760009765625 -9.70196533203125 114.0679931640625 -3.3276519775390625 95.51460266113281C-2.0335540771484375 91.74330139160156 -0.81341552734375 86.89230346679688 -0.2144317626953125 83.12100219726562L1.52587890625e-05 81.75289916992188V69.99520874023438V58.23750305175781L-0.2588043212890625 56.684600830078125C-3.5938568115234375 36.36370849609375 -15.418182373046875 16.944900512695312 -34.28968811035156 0.8316497802734375C-34.98478698730469 0.232666015625 -35.56158447265625 -0.270172119140625 -35.56158447265625 -0.2923583984375C-35.56158447265625 -0.314544677734375 -34.98478698730469 -0.8173828125 -34.28968811035156 -1.4163665771484375C-15.418182373046875 -17.52960205078125 -3.5938568115234375 -36.948394775390625 -0.2588043212890625 -57.26930236816406L1.52587890625e-05 -58.82220458984375V-70.57991027832031V-82.33760070800781L-0.2144317626953125 -83.70570373535156C-0.82080078125 -87.48442077636719 -2.0335540771484375 -92.33541870117188 -3.3276519775390625 -96.09941101074219C-9.443145751953125 -113.86201477050781 -13.281082153320312 -128.02301025390625 -16.231582641601562 -143.64102172851562C-19.004592895507812 -158.32601928710938 -20.388290405273438 -172.3240203857422 -20.388290405273438 -185.58702087402344C-20.388290405273438 -212.25502014160156 -14.794479370117188 -235.95301818847656 -3.65301513671875 -256.3000030517578C-1.9448089599609375 -259.4280242919922 -1.6268463134765625 -260.3670196533203 -1.6268463134765625 -262.36402893066406C-1.6268463134765625 -267.67002868652344 -6.001373291015625 -271.4030303955078 -10.700576782226562 -271.4030303955078C-12.374282836914062 -271.4030303955078 -14.089080810546875 -270.9290008544922 -15.662185668945312 -269.88502502441406C-17.229888916015625 -268.8340301513672 -17.887985229492188 -268.0060272216797 -19.647979736328125 -264.8040008544922C-41.2703857421875 -225.59701538085938 -52.96148681640625 -188.6900177001953 -54.83238220214844 -153.7340087890625C-55.07649230957031 -149.17901611328125 -55.12078857421875 -147.5010223388672 -55.12078857421875 -143.0120086669922C-55.12078857421875 -138.53102111816406 -55.07649230957031 -136.9630126953125 -54.83238220214844 -132.36302185058594C-53.94508361816406 -115.90301513671875 -50.72828674316406 -99.36051940917969 -45.33009338378906 -83.57261657714844C-42.34259033203125 -74.82450866699219 -40.94499206542969 -69.58161926269531 -39.64347839355469 -62.238616943359375C-38.69047546386719 -56.87672424316406 -38.21958923339844 -51.756011962890625 -38.21958923339844 -46.91511535644531C-38.21958923339844 -29.931320190429688 -44.016082763671875 -16.391220092773438 -55.12818908691406 -7.960784912109375C-58.03437805175781 -5.75714111328125 -59.30628967285156 -3.427764892578125 -59.30628967285156 -0.2923736572265625C-59.30628967285156 2.843017578125 -58.03437805175781 5.1723785400390625 -55.12818908691406 7.37603759765625C-44.016082763671875 15.806488037109375 -38.21958923339844 29.346588134765625 -38.21958923339844 46.33038330078125C-38.21958923339844 51.17127990722656 -38.69047546386719 56.29197692871094 -39.64347839355469 61.65388488769531C-40.93757629394531 68.93768310546875 -42.38697814941406 74.38029479980469 -45.29307556152344 82.86207580566406C-51.90379333496094 102.15898132324219 -55.20848083496094 122.03797912597656 -55.20848083496094 142.489990234375C-55.20848083496094 178.54598999023438 -44.93739318847656 216.3839874267578 -24.402786254882812 255.9519805908203C-22.095687866210938 260.3889923095703 -18.908493041992188 266.24598693847656 -18.220779418945312 267.28797912597656C-16.830581665039062 269.41798400878906 -14.634292602539062 270.85997009277344 -12.171783447265625 271.2739715576172Z" fill="black" /></g></svg>