<?xml version="1.0" encoding="utf-8" ?>
<svg baseProfile="tiny" height="100%" version="1.2" width="100%" xmlns="http://www.w3.org/2000/svg" xmlns:ev="http://www.w3.org/2001/xml-events" xmlns:xlink="http://www.w3.org/1999/xlink"><defs /><g transform="translate(0, 1000) scale(1, -1)"><path d="M-12.933807373046875 289.9169921875C-12.41619873046875 290.0039978027344 -11.904205322265625 290.0459899902344 -11.40130615234375 290.0459899902344C-6.4499053955078125 290.0459899902344 -2.3738250732421875 285.98199462890625 -2.3738250732421875 281.0190124511719C-2.3738250732421875 280.531005859375 -2.413177490234375 280.0350036621094 -2.494873046875 279.5329895019531C-2.7087249755859375 278.19500732421875 -2.97802734375 277.5530090332031 -4.42742919921875 274.9079895019531C-15.884002685546875 254.03700256347656 -21.611404418945312 229.71400451660156 -21.611404418945312 202.04299926757812C-21.611404418945312 172.74600219726562 -15.190994262695312 139.69700622558594 -2.352325439453125 103.02200317382812C-1.671173095703125 101.08999633789062 -1.1563568115234375 99.33920288085938 -0.5148162841796875 96.860107421875L0.0 94.84051513671875V75.87942504882812V56.91032409667969L-0.4831390380859375 55.04902648925781C-5.6233978271484375 35.0504150390625 -17.741409301757812 17.372314453125 -37.71632385253906 0.7397918701171875C-38.38160705566406 0.18536376953125 -38.92811584472656 -0.2977752685546875 -38.92811584472656 -0.321533203125C-38.92811584472656 -0.3452911376953125 -38.38160705566406 -0.82843017578125 -37.71632385253906 -1.382843017578125C-17.741409301757812 -18.015380859375 -5.6233978271484375 -35.6934814453125 -0.483154296875 -55.69209289550781L-1.52587890625e-05 -57.55339050292969V-76.52238464355469V-95.48358154296875L-0.51483154296875 -97.503173828125C-1.1563568115234375 -99.98226928710938 -1.671173095703125 -101.73297119140625 -2.352325439453125 -103.66497802734375C-15.1553955078125 -140.2859649658203 -21.557998657226562 -173.1969757080078 -21.557998657226562 -202.3589630126953C-21.557998657226562 -229.89796447753906 -15.848403930664062 -254.094970703125 -4.42742919921875 -274.9169616699219C-2.7008056640625 -278.0699768066406 -2.3760833740234375 -279.0359802246094 -2.3760833740234375 -281.0159606933594C-2.3760833740234375 -286.35797119140625 -6.7618255615234375 -290.04595947265625 -11.451904296875 -290.04595947265625C-13.290496826171875 -290.04595947265625 -15.175994873046875 -289.4789733886719 -16.8623046875 -288.22296142578125C-18.414596557617188 -287.06695556640625 -18.961105346679688 -286.2189636230469 -23.024200439453125 -278.678955078125C-47.99839782714844 -232.3499755859375 -60.04449462890625 -190.8949737548828 -60.04449462890625 -150.7909698486328C-60.04449462890625 -145.0829620361328 -59.80039978027344 -139.40196228027344 -59.31489562988281 -133.73797607421875C-58.00799560546875 -118.51596069335938 -54.998291015625 -104.41796875 -49.580902099609375 -88.23648071289062C-46.31770324707031 -78.48666381835938 -45.050506591796875 -73.8770751953125 -43.56939697265625 -66.37657165527344C-42.69819641113281 -61.94917297363281 -42.19920349121094 -58.36126708984375 -41.77149963378906 -53.466461181640625C-41.65809631347656 -52.203765869140625 -41.58830261230469 -48.9456787109375 -41.58830261230469 -46.31517028808594C-41.58830261230469 -44.90327453613281 -41.6083984375 -43.67216491699219 -41.65269470214844 -43.02757263183594C-42.745697021484375 -27.313766479492188 -48.432403564453125 -15.726470947265625 -58.966400146484375 -7.7903289794921875C-61.60780334472656 -5.802337646484375 -62.928497314453125 -3.0619354248046875 -62.928497314453125 -0.3215179443359375C-62.928497314453125 2.4188995361328125 -61.60780334472656 5.1593170166015625 -58.966400146484375 7.147308349609375C-52.43220520019531 12.07373046875 -47.7196044921875 18.497024536132812 -44.83660888671875 26.409423828125C-42.648193359375 32.4266357421875 -41.55439758300781 39.096527099609375 -41.55439758300781 46.57682800292969C-41.55439758300781 54.44642639160156 -42.76499938964844 63.21282958984375 -45.18510437011719 73.05972290039062C-46.127593994140625 76.901123046875 -47.52949523925781 81.54232788085938 -49.46209716796875 87.23703002929688C-55.52899169921875 105.14501953125 -58.80799865722656 121.57102966308594 -59.758392333984375 138.8770294189453C-60.01190185546875 143.59002685546875 -60.04359436035156 144.3980255126953 -60.091094970703125 148.738037109375C-60.098297119140625 149.4280242919922 -60.101898193359375 150.11802673339844 -60.101898193359375 150.8090362548828C-60.101898193359375 189.42002868652344 -48.789398193359375 229.61102294921875 -25.360702514648438 274.2740173339844C-22.850006103515625 279.0660400390625 -19.531402587890625 285.1010437011719 -18.873992919921875 286.1070251464844C-17.575103759765625 288.0470275878906 -15.286102294921875 289.5210266113281 -12.933807373046875 289.9170227050781Z" fill="black" /></g></svg>