<?xml version="1.0" encoding="utf-8" ?>
<svg baseProfile="tiny" height="100%" version="1.2" width="100%" xmlns="http://www.w3.org/2000/svg" xmlns:ev="http://www.w3.org/2001/xml-events" xmlns:xlink="http://www.w3.org/1999/xlink"><defs /><g transform="translate(0, 1000) scale(1, -1)"><path d="M-14.32220458984375 5467.3798828125C-12.825592041015625 5468.3798828125 -11.050506591796875 5468.85986328125 -9.2740478515625 5468.85986328125C-6.128387451171875 5468.85986328125 -2.9785919189453125 5467.3701171875 -1.3636627197265625 5464.72021484375C-0.4748687744140625 5463.27001953125 0.0 5461.89013671875 0.0 5460.31005859375C0.0 5457.740234375 -1.25299072265625 5454.6201171875 -4.0201568603515625 5449.68994140625C-292.7370147705078 4931.669921875 -451.15501403808594 4347.9501953125 -474.6750030517578 3715.510009765625C-476.94200134277344 3653.699951171875 -477.26600646972656 3633.610107421875 -477.26600646972656 3548.35009765625C-477.26600646972656 3463.340087890625 -476.94200134277344 3444.679931640625 -474.6750030517578 3380.530029296875C-457.63401794433594 2908.070068359375 -365.69300842285156 2418.10009765625 -204.81301879882812 1942.780029296875C-167.36302185058594 1832.1800537109375 -164.9650115966797 1824.800048828125 -154.5980224609375 1786.9599609375C-115.92201232910156 1646.030029296875 -96.89271545410156 1503.1700439453125 -96.89271545410156 1361.25C-96.89271545410156 994.1519775390625 -224.2110137939453 633.3250122070312 -468.1310272216797 328.47198486328125C-565.6439971923828 206.5970001220703 -687.3889923095703 89.45179748535156 -808.8109893798828 0.6209716796875C-813.6699981689453 -2.942626953125 -817.6870269775391 -5.987884521484375 -817.6870269775391 -6.1822662353515625C-817.6870269775391 -6.3766326904296875 -813.6699981689453 -9.421890258789062 -808.8109893798828 -12.985488891601562C-669.7650299072266 -114.70997619628906 -535.2559967041016 -248.7659912109375 -428.8660125732422 -391.69898986816406C-210.10101318359375 -685.5560150146484 -96.77381896972656 -1029.249984741211 -96.77381896972656 -1375.219955444336C-96.77381896972656 -1545.689926147461 -124.28701782226562 -1716.699935913086 -180.25601196289062 -1882.5799407958984L-206.1090087890625 -1959.040023803711C-364.9800109863281 -2429.300033569336 -456.27301025390625 -2916.149887084961 -473.3789978027344 -3384.479965209961C-475.4519958496094 -3441.689926147461 -475.7760009765625 -3457.820053100586 -476.1000061035156 -3530.909896850586C-476.1340026855469 -3538.159896850586 -476.1510009765625 -3545.409896850586 -476.1510009765625 -3552.649887084961C-476.1510009765625 -4251.470199584961 -318.31298828125 -4885.859848022461 -4.0201416015625 -5449.740219116211C-1.4836273193359375 -5454.259750366211 -0.2417755126953125 -5458.149887084961 -0.2417755126953125 -5461.220199584961C-0.2417755126953125 -5466.060043334961 -3.3416748046875 -5468.859848022461 -9.333160400390625 -5468.859848022461C-14.71099853515625 -5468.859848022461 -15.358901977539062 -5468.020004272461 -28.57659912109375 -5444.240219116211C-325.197998046875 -4911.379867553711 -519.7059936523438 -4329.089828491211 -593.8930053710938 -3751.850082397461L-598.0399780273438 -3719.780014038086C-618.5260009765625 -3562.969955444336 -629.7930297851562 -3370.379867553711 -629.7930297851562 -3190.219955444336C-629.7930297851562 -3141.320053100586 -628.9630126953125 -3093.330062866211 -627.260986328125 -3047.229965209961C-612.0999755859375 -2637.479965209961 -537.6530151367188 -2233.759994506836 -407.87298583984375 -1857.310043334961C-369.1919860839844 -1745.020004272461 -352.1520080566406 -1686.6500091552734 -333.1669921875 -1601.699935913086C-302.0060119628906 -1461.969955444336 -286.84600830078125 -1323.550033569336 -286.84600830078125 -1189.1099700927734C-286.84600830078125 -706.0369720458984 -482.5780029296875 -274.28697204589844 -835.052001953125 -17.002670288085938C-840.6019897460938 -12.948776245117188 -843.406982421875 -9.660385131835938 -843.406982421875 -6.31396484375C-843.406982421875 -2.7071380615234375 -840.1489868164062 0.967071533203125 -833.56201171875 5.7396240234375C-483.85101318359375 260.2230224609375 -286.7650146484375 694.2100524902344 -286.7650146484375 1177.7900695800781C-286.7650146484375 1287.7700500488281 -296.96099853515625 1400.3299865722656 -317.8760070800781 1513.9200744628906C-338.8689880371094 1628.0200500488281 -360.510009765625 1707.3299865722656 -408.1969909667969 1845.8500061035156C-555.2949829101562 2272.679962158203 -631.1220092773438 2732.870147705078 -631.1220092773438 3194.240020751953C-631.1220092773438 3251.699981689453 -629.9459838867188 3309.169952392578 -627.5850219726562 3366.600128173828C-622.7260131835938 3483.750030517578 -609.7030029296875 3642.560089111328 -598.4290161132812 3721.669952392578C-597.9099731445312 3725.230010986328 -596.4849853515625 3736.310089111328 -595.1890258789062 3746.290069580078C-526.3140258789062 4289.060089111328 -347.6159973144531 4844.200225830078 -78.01348876953125 5353.149932861328C-43.73809814453125 5417.879913330078 -17.237899780273438 5465.430206298828 -14.32220458984375 5467.379913330078Z" fill="black" /></g></svg>