<?xml version="1.0" encoding="utf-8" ?>
<svg baseProfile="tiny" height="100%" version="1.2" width="100%" xmlns="http://www.w3.org/2000/svg" xmlns:ev="http://www.w3.org/2001/xml-events" xmlns:xlink="http://www.w3.org/1999/xlink"><defs /><g transform="translate(0, 1000) scale(1, -1)"><path d="M-11.011398315429688 3975.300048828125C-10.339279174804688 3975.449951171875 -9.671157836914062 3975.530029296875 -9.015548706054688 3975.530029296875C-4.1643524169921875 3975.530029296875 1.52587890625e-05 3971.530029296875 1.52587890625e-05 3966.360107421875C1.52587890625e-05 3963.840087890625 -0.72662353515625 3962.280029296875 -7.82537841796875 3949.47998046875C-227.52297973632812 3552.47998046875 -339.20899963378906 3097.260009765625 -339.20899963378906 2604.669921875C-339.20899963378906 2475.77001953125 -331.56199645996094 2344.320068359375 -316.2019805908203 2210.669921875C-285.5709991455078 1944.780029296875 -222.46498107910156 1668.0400390625 -132.75198364257812 1406.6199951171875C-108.54899597167969 1336.1300048828125 -104.07798767089844 1321.6500244140625 -93.17799377441406 1278.6099853515625C-69.74458312988281 1185.97998046875 -58.32958984375 1092.3800048828125 -58.32958984375 999.385009765625C-58.32958984375 623.6939697265625 -244.65298461914062 258.02398681640625 -577.5139465332031 6.7095794677734375C-585.3389587402344 0.8405303955078125 -591.7669982910156 -4.2459716796875 -591.7669982910156 -4.46954345703125C-591.7669982910156 -4.6931304931640625 -585.3389587402344 -9.779632568359375 -577.5139465332031 -15.648696899414062C-268.4109802246094 -249.01300048828125 -79.986572265625 -586.9019775390625 -60.19956970214844 -943.2369995117188C-58.94667053222656 -965.8699951171875 -58.31427001953125 -988.2230224609375 -58.31427001953125 -1010.3800048828125C-58.31427001953125 -1140.4200439453125 -80.107666015625 -1263.5899658203125 -126.10096740722656 -1396.27001953125C-266.7339782714844 -1801.739990234375 -338.0009765625 -2209.43994140625 -338.0009765625 -2607.81005859375C-338.0009765625 -2668.7900390625 -337.66595458984375 -2687.010009765625 -336.04498291015625 -2730.219970703125C-318.8849792480469 -3177.5 -208.32296752929688 -3587.27001953125 -6.4279632568359375 -3951.989990234375C-0.67071533203125 -3962.3798828125 3.0517578125e-05 -3963.889892578125 3.0517578125e-05 -3966.35009765625C3.0517578125e-05 -3971.669921875 -4.4340057373046875 -3975.530029296875 -9.181243896484375 -3975.530029296875C-10.718063354492188 -3975.530029296875 -12.287673950195312 -3975.1201171875 -13.750274658203125 -3974.22998046875C-16.097869873046875 -3972.719970703125 -17.048171997070312 -3971.27001953125 -27.053466796875 -3953.219970703125C-291.5519714355469 -3476.5400390625 -443.4759826660156 -2961.35009765625 -468.5169677734375 -2456.330078125C-471.5359802246094 -2395.4599609375 -472.0939636230469 -2370.030029296875 -472.0939636230469 -2302.89990234375C-472.0939636230469 -2235.429931640625 -471.5359802246094 -2211.89990234375 -468.5169677734375 -2150.300048828125C-455.1019592285156 -1881.3299560546875 -404.1249694824219 -1611.5799560546875 -319.1639709472656 -1359.93994140625L-301.16595458984375 -1306.56005859375C-248.886962890625 -1151.6199951171875 -223.56097412109375 -996.5869750976562 -223.56097412109375 -848.3619995117188C-223.56097412109375 -508.4639892578125 -356.7389831542969 -204.385986328125 -603.5049743652344 -19.505477905273438C-613.0629577636719 -12.350784301757812 -617.8419494628906 -8.410171508789062 -617.8419494628906 -4.4695281982421875C-617.8419494628906 -0.5288848876953125 -613.0629577636719 3.4117431640625 -603.5049743652344 10.566421508789062C-357.09197998046875 195.197021484375 -223.6699676513672 498.4530029296875 -223.6699676513672 838.9979858398438C-223.6699676513672 975.6929931640625 -245.16796875 1118.4000244140625 -289.48297119140625 1261.8499755859375C-294.1229553222656 1276.8800048828125 -303.6249694824219 1305.3900146484375 -313.6299743652344 1334.4000244140625C-390.7659606933594 1557.699951171875 -442.0229797363281 1801.9100341796875 -462.6479797363281 2044.3800048828125C-469.7809753417969 2128.31005859375 -473.3249816894531 2212.739990234375 -473.3249816894531 2297.489990234375C-473.3249816894531 2854.25 -320.3539733886719 3424.639892578125 -27.053466796875 3953.219970703125C-15.538970947265625 3973.9599609375 -15.259475708007812 3974.35009765625 -11.011367797851562 3975.300048828125Z" fill="black" /></g></svg>