<?xml version="1.0" encoding="utf-8" ?>
<svg baseProfile="tiny" height="100%" version="1.2" width="100%" xmlns="http://www.w3.org/2000/svg" xmlns:ev="http://www.w3.org/2001/xml-events" xmlns:xlink="http://www.w3.org/1999/xlink"><defs /><g transform="translate(0, 1000) scale(1, -1)"><path d="M-18.947601318359375 434.82000732421875C-18.369400024414062 434.9330139160156 -17.796096801757812 434.9880065917969 -17.233200073242188 434.9880065917969C-12.442092895507812 434.9880065917969 -8.394790649414062 431.0369873046875 -8.394790649414062 425.92401123046875C-8.394790649414062 423.6549987792969 -8.5628662109375 423.114013671875 -10.27960205078125 419.9809875488281C-27.881195068359375 387.9630126953125 -36.645294189453125 351.4750061035156 -36.645294189453125 309.91900634765625C-36.645294189453125 289.7699890136719 -34.584991455078125 268.42999267578125 -30.472793579101562 245.8300018310547C-25.214401245117188 216.94500732421875 -18.11920166015625 190.6649932861328 -5.99371337890625 155.14100646972656C-3.196441650390625 146.92999267578125 -1.4076385498046875 139.0659942626953 -0.2791290283203125 129.94200134277344C-0.093048095703125 128.4709930419922 0.0 122.17401123046875 0.0 115.87899780273438C0.0 109.58399963378906 -0.093048095703125 103.29000854492188 -0.2791290283203125 101.82499694824219C-5.03326416015625 63.57600402832031 -24.914199829101562 32.39790344238281 -64.48410034179688 1.1357879638671875C-65.55259704589844 0.2834014892578125 -66.42900085449219 -0.4489288330078125 -66.42900085449219 -0.5089569091796875C-66.42900085449219 -0.5689849853515625 -65.55259704589844 -1.3013153076171875 -64.48410034179688 -2.1536865234375C-24.914199829101562 -33.415802001953125 -5.03326416015625 -64.59390258789062 -0.2791290283203125 -102.84300231933594C-0.093048095703125 -104.30799865722656 0.0 -110.60198974609375 0.0 -116.89700317382812C0.0 -123.19200134277344 -0.093048095703125 -129.48899841308594 -0.2791290283203125 -130.9600067138672C-1.4076385498046875 -140.08399963378906 -3.196441650390625 -147.9600067138672 -5.99371337890625 -156.15899658203125C-24.902206420898438 -211.50399780273438 -34.026397705078125 -253.77499389648438 -36.307403564453125 -296.62298583984375C-36.435699462890625 -299.00799560546875 -36.51190185546875 -306.0 -36.51190185546875 -311.9599914550781C-36.51190185546875 -315.47698974609375 -36.48539733886719 -318.6340026855469 -36.427398681640625 -320.27301025390625C-35.082794189453125 -357.54998779296875 -26.414901733398438 -390.5769958496094 -10.243606567382812 -420.0979919433594C-8.927398681640625 -422.4989929199219 -8.281387329101562 -424.4620056152344 -8.281387329101562 -426.27899169921875C-8.281387329101562 -427.6619873046875 -8.654891967773438 -428.9599914550781 -9.3912353515625 -430.3030090332031C-11.075393676757812 -433.3800048828125 -14.217193603515625 -434.9880065917969 -17.372299194335938 -434.9880065917969C-19.929794311523438 -434.9880065917969 -22.49609375 -433.9309997558594 -24.302001953125 -431.7439880371094C-24.998306274414062 -430.90301513671875 -29.152206420898438 -423.42401123046875 -33.858306884765625 -414.57598876953125C-70.46659851074219 -345.6600036621094 -88.13839721679688 -285.04998779296875 -88.13839721679688 -226.7480010986328C-88.13839721679688 -209.8520050048828 -86.654296875 -193.14999389648438 -83.716796875 -176.49600219726562C-81.33969116210938 -163.0260009765625 -78.02619934082031 -150.3249969482422 -73.00799560546875 -135.38999938964844C-63.79429626464844 -108.0 -59.558197021484375 -87.53309631347656 -59.558197021484375 -69.30470275878906C-59.558197021484375 -64.85031127929688 -59.81109619140625 -60.52960205078125 -60.30619812011719 -56.27410888671875C-62.58729553222656 -36.66929626464844 -71.90350341796875 -19.18939208984375 -85.51760864257812 -8.960769653320312C-88.15879821777344 -6.9798736572265625 -88.78309631347656 -6.3555908203125 -89.61151123046875 -4.830902099609375C-90.31979370117188 -3.540313720703125 -90.67388916015625 -2.0246429443359375 -90.67388916015625 -0.5089569091796875C-90.67388916015625 1.0067291259765625 -90.31979370117188 2.5224151611328125 -89.61151123046875 3.8130035400390625C-88.78309631347656 5.3376922607421875 -88.15879821777344 5.96197509765625 -85.51760864257812 7.9428558349609375C-71.90350341796875 18.171493530273438 -62.58729553222656 35.651397705078125 -60.30619812011719 55.256195068359375C-59.81939697265625 59.45750427246094 -59.57170104980469 63.74310302734375 -59.57170104980469 68.16729736328125C-59.57170104980469 86.43670654296875 -63.7958984375 107.06900024414062 -72.85189819335938 133.8800048828125C-80.51129150390625 156.54600524902344 -85.00140380859375 177.36300659179688 -87.00630187988281 199.50100708007812C-87.8131103515625 208.36700439453125 -88.22000122070312 217.24899291992188 -88.22000122070312 226.17300415039062C-88.22000122070312 288.28900146484375 -68.50489807128906 352.45098876953125 -26.715103149414062 427.66400146484375C-23.83380126953125 432.85101318359375 -22.44110107421875 434.135009765625 -18.947601318359375 434.82000732421875Z" fill="black" /></g></svg>