<?xml version="1.0" encoding="utf-8" ?>
<svg baseProfile="tiny" height="100%" version="1.2" width="100%" xmlns="http://www.w3.org/2000/svg" xmlns:ev="http://www.w3.org/2001/xml-events" xmlns:xlink="http://www.w3.org/1999/xlink"><defs /><g transform="translate(0, 1000) scale(1, -1)"><path d="M-19.2117919921875 449.6000061035156C-18.77520751953125 449.6579895019531 -18.343704223632812 449.6860046386719 -17.919296264648438 449.6860046386719C-12.937698364257812 449.6860046386719 -8.928298950195312 445.7799987792969 -8.928298950195312 440.6390075683594L-8.928390502929688 440.5950012207031C-8.9532470703125 438.4590148925781 -9.164382934570312 437.81298828125 -10.940414428710938 434.5719909667969C-29.156509399414062 401.3340148925781 -38.27311706542969 363.697998046875 -38.27311706542969 320.4939880371094C-38.27311706542969 274.8299865722656 -28.088409423828125 222.94400024414062 -7.6988677978515625 163.4530029296875C-4.221405029296875 153.3070068359375 -2.7186279296875 147.45700073242188 -1.40216064453125 138.9250030517578C-0.4753265380859375 132.9409942626953 -1.52587890625e-05 125.9840087890625 -1.52587890625e-05 119.24400329589844C-1.52587890625e-05 114.69500732421875 -0.2165679931640625 110.2449951171875 -0.6569976806640625 106.26100158691406C-4.5815582275390625 70.84089660644531 -22.652023315429688 39.41949462890625 -55.538909912109375 10.866897583007812C-59.38902282714844 7.5260772705078125 -67.66041564941406 0.7201690673828125 -69.07621765136719 -0.2733917236328125L-69.37431335449219 -0.484527587890625L-69.07621765136719 -0.6956634521484375C-67.66041564941406 -1.689239501953125 -59.38902282714844 -8.495147705078125 -55.538909912109375 -11.836013793945312C-24.353515625 -38.92301940917969 -6.4445037841796875 -68.64302062988281 -1.40216064453125 -101.70402526855469C-0.4753265380859375 -107.79902648925781 -1.52587890625e-05 -114.75701904296875 -1.52587890625e-05 -121.47901916503906C-1.52587890625e-05 -126.01600646972656 -0.2165679931640625 -130.4450225830078 -0.6569976806640625 -134.42901611328125C-1.774749755859375 -144.55101013183594 -3.6997833251953125 -152.7360076904297 -7.6988677978515625 -164.42201232910156C-28.038818359375 -223.8400115966797 -38.19862365722656 -275.5180206298828 -38.19862365722656 -320.97300720214844C-38.19862365722656 -363.9720001220703 -29.1068115234375 -401.4020233154297 -10.940414428710938 -434.54701232910156C-9.164382934570312 -437.7890167236328 -8.9532470703125 -438.4350128173828 -8.92840576171875 -440.57102966308594L-8.92828369140625 -440.6230010986328C-8.92828369140625 -445.92701721191406 -13.200424194335938 -449.68601989746094 -17.904327392578125 -449.68601989746094C-19.439834594726562 -449.68601989746094 -21.02142333984375 -449.28602600097656 -22.515426635742188 -448.4080047607422C-24.763336181640625 -447.0790252685547 -25.011734008789062 -446.7060089111328 -31.656234741210938 -434.4230194091797C-67.93362426757812 -367.43202209472656 -87.04733276367188 -308.04200744628906 -90.1273193359375 -252.78701782226562C-90.52484130859375 -245.59701538085938 -90.57452392578125 -243.9820098876953 -90.64903259277344 -237.13902282714844C-90.65902709960938 -236.13101196289062 -90.66403198242188 -235.12501525878906 -90.66403198242188 -234.1190185546875C-90.66403198242188 -201.52801513671875 -85.39022827148438 -170.0670166015625 -74.75202941894531 -139.27301025390625C-68.0206298828125 -119.79902648925781 -63.8724365234375 -102.62301635742188 -62.121337890625 -86.98661804199219C-61.5400390625 -81.76481628417969 -61.25152587890625 -76.71400451660156 -61.25152587890625 -71.8463134765625C-61.25152587890625 -44.15911865234375 -70.58822631835938 -22.397811889648438 -88.51283264160156 -8.793212890625C-92.313232421875 -5.9118804931640625 -93.45584106445312 -3.986846923828125 -93.45584106445312 -0.4845428466796875C-93.45584106445312 3.0177764892578125 -92.313232421875 4.94281005859375 -88.51283264160156 7.8241424560546875C-76.03121948242188 17.300277709960938 -67.02703857421875 32.00498962402344 -63.425323486328125 48.75898742675781C-61.97222900390625 55.5391845703125 -61.24372863769531 62.80589294433594 -61.24372863769531 70.58479309082031C-61.24372863769531 89.86457824707031 -65.71871948242188 112.29098510742188 -74.72712707519531 138.2539825439453C-85.41793823242188 169.0859832763672 -90.77462768554688 201.09698486328125 -90.77462768554688 233.97398376464844C-90.77462768554688 257.0509796142578 -88.13552856445312 280.5549774169922 -82.84953308105469 304.3779754638672C-73.44793701171875 346.80299377441406 -55.52653503417969 391.4259796142578 -27.681930541992188 441.71299743652344C-24.341033935546875 447.76197814941406 -22.888031005859375 449.11497497558594 -19.211822509765625 449.59999084472656Z" fill="black" /></g></svg>