<?xml version="1.0" encoding="utf-8" ?>
<svg baseProfile="tiny" height="100%" version="1.2" width="100%" xmlns="http://www.w3.org/2000/svg" xmlns:ev="http://www.w3.org/2001/xml-events" xmlns:xlink="http://www.w3.org/1999/xlink"><defs /><g transform="translate(0, 1000) scale(1, -1)"><path d="M-14.525802612304688 6203.68017578125C-13.059616088867188 6204.60009765625 -11.27911376953125 6205.02001953125 -9.488876342773438 6205.02001953125C-6.076568603515625 6205.02001953125 -2.6288299560546875 6203.47998046875 -1.2544097900390625 6200.81982421875C-0.5514373779296875 6199.47021484375 -0.08319091796875 6198.39990234375 -0.08319091796875 6196.990234375C-0.08319091796875 6193.35986328125 -3.19281005859375 6187.52978515625 -13.408218383789062 6169.10986328125C-366.7990264892578 5530.919921875 -546.7949981689453 4795.68994140625 -546.7949981689453 4013.989990234375C-546.7949981689453 3663.77001953125 -510.66600036621094 3304.22998046875 -437.81300354003906 2939.89990234375C-384.6580047607422 2673.97998046875 -315.1580047607422 2420.080078125 -221.28001403808594 2148.510009765625C-149.98101806640625 1942.18994140625 -116.7440185546875 1749.75 -116.7440185546875 1541.260009765625C-116.7440185546875 1530.7900390625 -116.82801818847656 1520.280029296875 -116.99501037597656 1509.72998046875C-126.07501220703125 930.4710083007812 -416.8590087890625 378.8699951171875 -907.9000244140625 9.156982421875C-919.0059814453125 0.775054931640625 -928.156005859375 -6.349578857421875 -928.156005859375 -6.6988372802734375C-928.156005859375 -7.0480804443359375 -919.0059814453125 -14.172714233398438 -907.9000244140625 -22.554611206054688C-416.78900146484375 -392.4070281982422 -126.14498901367188 -943.7989959716797 -116.9949951171875 -1523.1299896240234C-116.8280029296875 -1533.6600189208984 -116.7449951171875 -1544.1500091552734 -116.7449951171875 -1554.5999603271484C-116.7449951171875 -1763.0799407958984 -150.04200744628906 -1955.969955444336 -221.27999877929688 -2161.899887084961C-437.4849853515625 -2786.330062866211 -544.8839721679688 -3403.219955444336 -544.8839721679688 -4020.209945678711C-544.8839721679688 -4028.719955444336 -544.864013671875 -4037.229965209961 -544.822998046875 -4045.739974975586C-544.4730224609375 -4122.790023803711 -544.1240234375 -4140.600082397461 -542.2379760742188 -4195.569808959961C-517.5120239257812 -4912.290023803711 -337.78900146484375 -5582.709945678711 -13.408203125 -6168.540023803711C-3.986419677734375 -6185.580062866211 0.0 -6193.410140991211 0.0 -6197.779769897461C0.0 -6200.549789428711 -1.58721923828125 -6201.930160522461 -4.397613525390625 -6203.390121459961C-6.36541748046875 -6204.410140991211 -7.998748779296875 -6205.020004272461 -9.533477783203125 -6205.020004272461C-13.991302490234375 -6205.020004272461 -17.617202758789062 -6199.859848022461 -26.190597534179688 -6184.529769897461C-340.0239715576172 -5623.709945678711 -555.4399871826172 -5003.100082397461 -649.3870086669922 -4389.049789428711C-659.7249603271484 -4321.580062866211 -667.5479583740234 -4262.759750366211 -677.0479583740234 -4180.899887084961C-696.2589569091797 -4015.909896850586 -707.3719940185547 -3807.759994506836 -707.3719940185547 -3628.979965209961C-707.3719940185547 -3589.999984741211 -706.8439788818359 -3552.419906616211 -705.7559661865234 -3516.979965209961C-693.3229827880859 -3114.860092163086 -641.2150115966797 -2762.050033569336 -539.0250091552734 -2387.520004272461C-510.38697814941406 -2282.739974975586 -485.86997985839844 -2204.370101928711 -437.11497497558594 -2062.020004272461C-356.46299743652344 -1826.459945678711 -317.52699279785156 -1588.290023803711 -317.52699279785156 -1358.8399505615234C-317.52699279785156 -814.2679901123047 -536.8359832763672 -318.75498962402344 -938.2849578857422 -23.602401733398438C-949.3560028076172 -15.46490478515625 -954.8909759521484 -11.081893920898438 -954.8909759521484 -6.698822021484375C-954.8909759521484 -2.315765380859375 -949.3560028076172 2.0672760009765625 -938.2849578857422 10.204696655273438C-536.9000091552734 305.3459930419922 -317.5029754638672 801.2839813232422 -317.5029754638672 1345.780014038086C-317.5029754638672 1575.239974975586 -356.46397399902344 1813.310043334961 -437.1849822998047 2048.620101928711C-537.1389617919922 2339.959945678711 -597.9080047607422 2575.009994506836 -642.7519989013672 2843.509994506836C-686.6699676513672 3106.600082397461 -708.5879974365234 3369.749984741211 -708.5879974365234 3634.739974975586C-708.5879974365234 3769.280014038086 -702.9369964599609 3904.300033569336 -691.6459808349609 4040.030014038086C-686.4069671630859 4103.100082397461 -681.9369964599609 4147.180160522461 -673.9739837646484 4213.669906616211C-595.8129730224609 4866.069808959961 -392.75999450683594 5502.399887084961 -71.24348449707031 6102.680160522461C-38.48408508300781 6163.939926147461 -16.970489501953125 6202.149887084961 -14.525787353515625 6203.680160522461Z" fill="black" /></g></svg>