<?xml version="1.0" encoding="utf-8" ?>
<svg baseProfile="tiny" height="100%" version="1.2" width="100%" xmlns="http://www.w3.org/2000/svg" xmlns:ev="http://www.w3.org/2001/xml-events" xmlns:xlink="http://www.w3.org/1999/xlink"><defs /><g transform="translate(0, 1000) scale(1, -1)"><path d="M-20.932296752929688 634.81201171875C-19.975189208984375 635.1389770507812 -19.011489868164062 635.2919921875 -18.069290161132812 635.2919921875C-13.312286376953125 635.2919921875 -9.106735229492188 631.3880004882812 -9.106735229492188 626.2169799804688C-9.106735229492188 624.0280151367188 -9.406784057617188 623.2160034179688 -11.965988159179688 618.5390014648438C-38.96458435058594 569.1430053710938 -52.46287536621094 512.2639770507812 -52.46287536621094 447.9519958496094C-52.46287536621094 382.9809875488281 -38.68669128417969 310.4230041503906 -11.136489868164062 230.32699584960938C-6.618072509765625 217.21299743652344 -4.323577880859375 208.75900268554688 -2.7703704833984375 199.61599731445312C-0.9519500732421875 188.91000366210938 -0.0405426025390625 178.38800048828125 -0.0405426025390625 168.01800537109375C-0.0405426025390625 141.6490020751953 -5.93328857421875 116.26400756835938 -17.79058837890625 91.33329772949219C-32.93428039550781 59.457305908203125 -57.60899353027344 30.599594116210938 -94.53279113769531 1.5652923583984375C-96.0330810546875 0.3827362060546875 -97.26858520507812 -0.640960693359375 -97.26858520507812 -0.7115631103515625C-97.26858520507812 -0.78216552734375 -96.0330810546875 -1.8058624267578125 -94.53279113769531 -2.9884033203125C-45.37748718261719 -41.64190673828125 -17.102188110351562 -80.9132080078125 -5.4884796142578125 -126.64399719238281C-1.8372802734375 -140.98800659179688 1.52587890625e-05 -155.6750030517578 1.52587890625e-05 -170.20700073242188C1.52587890625e-05 -178.29600524902344 -0.5691070556640625 -186.33599853515625 -1.7113800048828125 -194.24400329589844C-3.68817138671875 -207.95799255371094 -5.66497802734375 -215.7949981689453 -11.189376831054688 -231.927001953125C-35.59938049316406 -303.1090087890625 -48.90748596191406 -367.14300537109375 -52.013885498046875 -428.4599914550781C-52.20259094238281 -432.1889953613281 -52.314483642578125 -442.4809875488281 -52.314483642578125 -451.2869873046875C-52.314483642578125 -456.4840087890625 -52.27558898925781 -461.1629943847656 -52.19038391113281 -463.6709899902344C-50.17828369140625 -521.510009765625 -36.74668884277344 -573.2069702148438 -11.965988159179688 -618.5499877929688C-9.406784057617188 -623.22802734375 -9.106735229492188 -624.0390014648438 -9.106735229492188 -626.2100219726562C-9.106735229492188 -631.68701171875 -13.518890380859375 -635.2919921875 -18.160888671875 -635.2919921875C-20.385482788085938 -635.2919921875 -22.662979125976562 -634.4639892578125 -24.532882690429688 -632.6170043945312C-25.53887939453125 -631.6110229492188 -27.868682861328125 -627.5869750976562 -34.48748779296875 -615.2849731445312C-88.07579040527344 -515.81298828125 -114.52699279785156 -424.6400146484375 -114.52699279785156 -337.6839904785156C-114.52699279785156 -299.7409973144531 -109.49098205566406 -262.60101318359375 -99.47477722167969 -225.92599487304688C-97.21559143066406 -217.61300659179688 -94.79759216308594 -209.97000122070312 -90.42039489746094 -197.0679931640625C-79.22828674316406 -164.24400329589844 -73.53878784179688 -133.73199462890625 -73.53878784179688 -106.94000244140625C-73.53878784179688 -98.537109375 -74.09849548339844 -90.5 -75.22367858886719 -82.87240600585938C-79.74208068847656 -52.26719665527344 -94.26808166503906 -26.127593994140625 -115.88899230957031 -9.71307373046875C-120.63697814941406 -6.112457275390625 -121.71397399902344 -4.4533538818359375 -121.71397399902344 -0.7115631103515625C-121.71397399902344 3.030242919921875 -120.63697814941406 4.6893463134765625 -115.88899230957031 8.289947509765625C-94.26808166503906 24.704498291015625 -79.74208068847656 50.84410095214844 -75.22367858886719 81.44920349121094C-74.09828186035156 89.0784912109375 -73.53858947753906 97.1134033203125 -73.53858947753906 105.51300048828125C-73.53858947753906 132.28700256347656 -79.22477722167969 162.7689971923828 -90.40269470214844 195.64500427246094C-95.68008422851562 211.14199829101562 -97.85098266601562 218.20199584960938 -100.69297790527344 229.0030059814453C-109.99098205566406 264.5360107421875 -114.67097473144531 300.4540100097656 -114.67097473144531 337.09600830078125C-114.67097473144531 427.38800048828125 -86.25209045410156 522.0780029296875 -28.486480712890625 626.2349853515625C-24.779983520507812 632.9420166015625 -24.073989868164062 633.7360229492188 -20.932281494140625 634.81201171875Z" fill="black" /></g></svg>