<?xml version="1.0" encoding="utf-8" ?>
<svg baseProfile="tiny" height="100%" version="1.2" width="100%" xmlns="http://www.w3.org/2000/svg" xmlns:ev="http://www.w3.org/2001/xml-events" xmlns:xlink="http://www.w3.org/1999/xlink"><defs /><g transform="translate(0, 1000) scale(1, -1)"><path d="M-19.648406982421875 630.9500122070312C-19.1322021484375 631.0339965820312 -18.622100830078125 631.073974609375 -18.121307373046875 631.073974609375C-13.190994262695312 631.073974609375 -9.164154052734375 627.1589965820312 -9.164154052734375 622.0120239257812C-9.164154052734375 621.9819946289062 -9.164306640625 621.9520263671875 -9.164581298828125 621.9210205078125C-9.182113647460938 619.7479858398438 -9.445083618164062 618.9760131835938 -11.198196411132812 615.8380126953125C-38.510498046875 566.9829711914062 -52.16780090332031 510.17498779296875 -52.16780090332031 445.64801025390625C-52.16780090332031 380.5740051269531 -38.2781982421875 307.64898681640625 -10.496994018554688 227.11300659179688C-3.497802734375 206.8070068359375 0.0 186.79299926757812 0.0 166.98899841308594C0.0 153.16000366210938 -1.7053375244140625 139.4340057373047 -5.11480712890625 125.78199768066406C-16.720596313476562 79.37579345703125 -44.71839904785156 40.24560546875 -94.0343017578125 1.5011444091796875C-95.50689697265625 0.344085693359375 -96.6990966796875 -0.6376800537109375 -96.6990966796875 -0.7078094482421875C-96.6990966796875 -0.7779388427734375 -95.45440673828125 -1.812286376953125 -93.92910766601562 -3.004425048828125C-51.695892333984375 -36.191497802734375 -25.41619873046875 -69.36090087890625 -11.233306884765625 -107.38699340820312C-3.7469482421875 -127.468994140625 -0.00262451171875 -147.84300231933594 -0.00262451171875 -168.41400146484375C-0.00262451171875 -188.21099853515625 -3.4708251953125 -208.19000244140625 -10.4093017578125 -228.26600646972656C-38.162200927734375 -308.6180114746094 -52.0386962890625 -381.3599853515625 -52.0386962890625 -446.2659912109375C-52.0386962890625 -510.5539855957031 -38.425201416015625 -567.155029296875 -11.198196411132812 -615.8510131835938C-9.745071411132812 -618.4500122070312 -9.0721435546875 -620.364990234375 -9.0721435546875 -622.1900024414062C-9.0721435546875 -623.072998046875 -9.229736328125 -623.9359741210938 -9.532745361328125 -624.844970703125C-10.884902954101562 -628.8380126953125 -14.585906982421875 -631.073974609375 -18.2998046875 -631.073974609375C-20.749496459960938 -631.073974609375 -23.204803466796875 -630.1010131835938 -24.995498657226562 -628.0180053710938C-27.222000122070312 -625.4229736328125 -44.981292724609375 -591.6580200195312 -53.396392822265625 -574.073974609375C-93.70120239257812 -489.6600036621094 -113.1090087890625 -414.55499267578125 -114.00299072265625 -339.50299072265625C-114.02200317382812 -337.7799987792969 -114.03199768066406 -336.06201171875 -114.03199768066406 -334.3479919433594C-114.03199768066406 -287.6289978027344 -106.63800048828125 -244.1179962158203 -90.82611083984375 -197.8489990234375C-79.15960693359375 -163.69000244140625 -73.31039428710938 -133.02000427246094 -73.31039428710938 -106.17401123046875C-73.31039428710938 -91.02290344238281 -75.17320251464844 -77.08990478515625 -78.90469360351562 -64.43460083007812C-85.77700805664062 -41.1177978515625 -98.29440307617188 -22.552001953125 -116.33399963378906 -8.912521362304688C-119.66500854492188 -6.396759033203125 -121.33099365234375 -3.5522918701171875 -121.33099365234375 -0.7078094482421875C-121.33099365234375 2.1366729736328125 -119.66500854492188 4.9811553955078125 -116.33399963378906 7.496917724609375C-92.01820373535156 25.887405395507812 -77.48458862304688 53.692291259765625 -74.10110473632812 88.35189819335938C-73.57279968261719 93.73309326171875 -73.30810546875 99.27200317382812 -73.30810546875 104.9739990234375C-73.30810546875 131.81900024414062 -79.173095703125 162.28399658203125 -91.00140380859375 196.95899963378906C-96.01541137695312 211.63299560546875 -98.22430419921875 219.0489959716797 -101.66000366210938 232.63600158691406C-109.94400024414062 265.2869873046875 -114.18099975585938 300.06500244140625 -114.18099975585938 334.75C-114.18099975585938 344.0360107421875 -113.87699890136719 353.3139953613281 -113.2659912109375 362.54400634765625C-107.86700439453125 444.25799560546875 -80.78050231933594 527.322021484375 -28.817306518554688 621.5709838867188C-24.644805908203125 629.1090087890625 -23.45269775390625 630.3369750976562 -19.648406982421875 630.9500122070312Z" fill="black" /></g></svg>