<?xml version="1.0" encoding="utf-8" ?>
<svg baseProfile="tiny" height="100%" version="1.2" width="100%" xmlns="http://www.w3.org/2000/svg" xmlns:ev="http://www.w3.org/2001/xml-events" xmlns:xlink="http://www.w3.org/1999/xlink"><defs /><g transform="translate(0, 1000) scale(1, -1)"><path d="M-14.894805908203125 1095.260009765625C-14.2528076171875 1095.3699951171875 -13.560302734375 1095.43994140625 -13.148101806640625 1095.43994140625L-12.88079833984375 1095.4300537109375C-10.703506469726562 1095.0999755859375 -10.05029296875 1094.93994140625 -9.152114868164062 1094.469970703125C-6.0856170654296875 1092.9000244140625 -4.2440948486328125 1089.760009765625 -4.2440948486328125 1086.300048828125C-4.2440948486328125 1085.800048828125 -4.28277587890625 1085.2900390625 -4.3620147705078125 1084.780029296875C-4.552520751953125 1083.56005859375 -5.4234466552734375 1081.760009765625 -8.553359985351562 1076.02001953125C-59.70440673828125 982.5280151367188 -85.3905029296875 874.8309936523438 -85.3905029296875 754.9730224609375C-85.3905029296875 693.7760009765625 -78.69439697265625 629.4089965820312 -65.27259826660156 562.1439819335938C-53.841705322265625 504.7720031738281 -39.471405029296875 451.9989929199219 -18.977294921875 392.0950012207031C-6.0738372802734375 354.35101318359375 -0.066925048828125 321.79998779296875 -0.066925048828125 287.5010070800781C-0.066925048828125 277.3800048828125 -0.5899505615234375 267.1059875488281 -1.6131439208984375 256.50201416015625C-10.78509521484375 161.48899841308594 -67.44999694824219 69.68789672851562 -159.49600219726562 0.6667633056640625C-160.9250030517578 -0.394683837890625 -161.63999938964844 -0.8165435791015625 -161.63999938964844 -1.2384033203125C-161.63999938964844 -1.6602630615234375 -160.9250030517578 -2.0821075439453125 -159.49600219726562 -3.1435546875C-75.125 -66.39480590820312 -19.5216064453125 -150.13999938964844 -4.7158203125 -236.2259979248047C-1.5881195068359375 -254.4340057373047 0.0 -271.947998046875 0.0 -289.30999755859375C0.0 -323.6159973144531 -6.2009429931640625 -357.3269958496094 -18.977294921875 -394.6260070800781C-63.1072998046875 -523.385986328125 -85.15249633789062 -644.4010009765625 -85.15249633789062 -755.3790283203125C-85.15249633789062 -874.85302734375 -59.602996826171875 -982.6959838867188 -8.553359985351562 -1076.050048828125C-5.1293487548828125 -1082.31005859375 -4.207366943359375 -1084.219970703125 -4.207366943359375 -1086.239990234375C-4.207366943359375 -1086.760009765625 -4.267730712890625 -1087.280029296875 -4.3620147705078125 -1087.8900146484375C-5.0890045166015625 -1092.5899658203125 -9.250778198242188 -1095.43994140625 -13.451507568359375 -1095.43994140625C-15.855804443359375 -1095.43994140625 -18.272796630859375 -1094.510009765625 -20.065994262695312 -1092.4599609375C-22.37939453125 -1089.7900390625 -39.49859619140625 -1057.8399658203125 -51.9093017578125 -1033.02001953125C-126.40798950195312 -883.9340209960938 -163.83799743652344 -738.2059936523438 -163.83799743652344 -599.1240234375C-163.83799743652344 -517.3319702148438 -150.8939971923828 -437.8389892578125 -124.93099975585938 -361.31298828125C-119.13400268554688 -344.22100830078125 -117.39199829101562 -338.8599853515625 -114.697998046875 -329.87799072265625C-101.31500244140625 -285.4179992675781 -94.7449951171875 -243.01499938964844 -94.7449951171875 -203.86000061035156C-94.7449951171875 -121.41999816894531 -123.8699951171875 -53.378692626953125 -179.85400390625 -10.845794677734375C-185.3520050048828 -6.6544952392578125 -186.4409942626953 -5.075927734375 -186.4409942626953 -1.2384033203125C-186.4409942626953 2.5991363525390625 -185.3520050048828 4.1776885986328125 -179.85400390625 8.369033813476562C-123.76499938964844 50.96549987792969 -94.73199462890625 119.08200073242188 -94.73199462890625 201.41600036621094C-94.73199462890625 245.968994140625 -103.23300170898438 294.6839904785156 -120.54901123046875 345.77301025390625C-128.6060028076172 369.5050048828125 -131.32699584960938 378.02398681640625 -135.46400451660156 392.6669921875C-154.5330047607422 459.7869873046875 -164.052001953125 528.5770263671875 -164.052001953125 598.843994140625C-164.052001953125 753.9240112304688 -117.68600463867188 916.1959838867188 -25.29150390625 1083.5899658203125C-19.875396728515625 1093.4100341796875 -18.78680419921875 1094.6400146484375 -14.894805908203125 1095.260009765625Z" fill="black" /></g></svg>