<?xml version="1.0" encoding="utf-8" ?>
<svg baseProfile="tiny" height="100%" version="1.2" width="100%" xmlns="http://www.w3.org/2000/svg" xmlns:ev="http://www.w3.org/2001/xml-events" xmlns:xlink="http://www.w3.org/1999/xlink"><defs /><g transform="translate(0, 1000) scale(1, -1)"><path d="M-16.482101440429688 1073.4200439453125C-15.590911865234375 1073.7099609375 -14.686111450195312 1073.8499755859375 -13.794219970703125 1073.8499755859375C-9.2401123046875 1073.8499755859375 -5.0219879150390625 1070.27001953125 -4.6650848388671875 1065.469970703125C-4.6442108154296875 1065.1500244140625 -4.632415771484375 1064.8399658203125 -4.632415771484375 1064.550048828125C-4.632415771484375 1062.5899658203125 -5.156829833984375 1061.219970703125 -7.012481689453125 1057.9200439453125C-58.21051025390625 966.5609741210938 -83.86691284179688 859.27001953125 -83.86691284179688 740.1309814453125C-83.86691284179688 636.9240112304688 -64.61341857910156 524.8270263671875 -26.031723022460938 406.4939880371094L-15.788528442382812 376.0849914550781C-8.319549560546875 354.1310119628906 -2.904541015625 327.8030090332031 -1.1706695556640625 304.9960021972656C-0.5569915771484375 297.010009765625 -0.2512969970703125 289.06298828125 -0.2512969970703125 281.15899658203125C-0.2512969970703125 184.6230010986328 -45.85691833496094 94.58029174804688 -132.9180145263672 19.921096801757812C-140.78701782226562 13.17230224609375 -154.97801208496094 1.702117919921875 -158.52601623535156 -0.7786407470703125L-159.166015625 -1.23211669921875L-158.52601623535156 -1.6855926513671875C-141.88101196289062 -13.342514038085938 -110.88502502441406 -41.35121154785156 -92.61241149902344 -61.25071716308594C-31.790512084960938 -127.48301696777344 -1.52587890625e-05 -205.5080108642578 -1.52587890625e-05 -283.92601013183594C-1.52587890625e-05 -315.7000274658203 -5.219451904296875 -347.5380096435547 -15.8419189453125 -378.6830291748047C-39.18241882324219 -447.10401916503906 -52.25321960449219 -494.3980255126953 -63.93681335449219 -552.8700103759766C-77.14122009277344 -618.8740386962891 -83.72761535644531 -681.9900054931641 -83.72761535644531 -741.9480133056641C-83.72761535644531 -859.6790313720703 -58.3336181640625 -965.2340240478516 -7.7860565185546875 -1056.5699615478516C-5.2462005615234375 -1061.1400299072266 -4.6250152587890625 -1062.540054321289 -4.6250152587890625 -1064.560073852539C-4.6250152587890625 -1064.8700103759766 -4.6399993896484375 -1065.199966430664 -4.6650848388671875 -1065.560073852539C-5.03729248046875 -1070.6100006103516 -9.413558959960938 -1073.8499908447266 -13.873611450195312 -1073.8499908447266C-16.126022338867188 -1073.8499908447266 -18.39971923828125 -1073.030044555664 -20.189910888671875 -1071.189956665039C-22.724014282226562 -1068.5999908447266 -45.47770690917969 -1025.709976196289 -57.668212890625 -1000.5300445556641C-126.27601623535156 -858.9650421142578 -160.23301696777344 -726.4699859619141 -161.6470184326172 -594.8830108642578C-161.67800903320312 -592.0130157470703 -161.69300842285156 -589.1519927978516 -161.69300842285156 -586.2990264892578C-161.69300842285156 -504.6530303955078 -149.11302185058594 -429.8660125732422 -121.71501159667969 -348.0060272216797C-105.20301818847656 -298.7110137939453 -98.05401611328125 -265.7940216064453 -94.93312072753906 -224.635009765625C-94.25932312011719 -215.83702087402344 -93.92570495605469 -207.16702270507812 -93.92570495605469 -198.64102172851562C-93.92570495605469 -117.72401428222656 -123.968017578125 -49.83531188964844 -178.26602172851562 -9.84814453125C-181.90402221679688 -7.170074462890625 -183.75601196289062 -3.9758148193359375 -183.75601196289062 -0.9023284912109375C-183.75601196289062 1.6570892333984375 -182.47201538085938 4.13275146484375 -179.8660125732422 6.156829833984375L-174.45101928710938 10.318084716796875C-122.68402099609375 50.18536376953125 -93.93203735351562 117.24496459960938 -93.93203735351562 196.31097412109375C-93.93203735351562 204.79896545410156 -94.26333618164062 213.4249725341797 -94.93313598632812 222.1709747314453C-98.02743530273438 262.8499755859375 -105.63003540039062 297.9539794921875 -121.4210205078125 344.68896484375C-126.91603088378906 360.906982421875 -129.8770294189453 370.29595947265625 -133.0250244140625 381.1529846191406C-152.301025390625 447.9949645996094 -161.9240264892578 516.5029602050781 -161.9240264892578 586.4809875488281C-161.9240264892578 739.1299743652344 -116.13504028320312 898.7699890136719 -24.884735107421875 1063.3599548339844C-20.430023193359375 1071.4499206542969 -19.629730224609375 1072.3799743652344 -16.482131958007812 1073.4200134277344Z" fill="black" /></g></svg>