<?xml version="1.0" encoding="utf-8" ?>
<svg baseProfile="tiny" height="100%" version="1.2" width="100%" xmlns="http://www.w3.org/2000/svg" xmlns:ev="http://www.w3.org/2001/xml-events" xmlns:xlink="http://www.w3.org/1999/xlink"><defs /><g transform="translate(0, 1000) scale(1, -1)"><path d="M-20.003097534179688 652.2100219726562C-19.356781005859375 652.3350219726562 -18.71978759765625 652.39501953125 -18.0977783203125 652.39501953125C-13.03558349609375 652.39501953125 -8.966949462890625 648.4349975585938 -8.966949462890625 643.3670043945312C-8.966949462890625 642.9080200195312 -9.000320434570312 642.4400024414062 -9.069320678710938 641.9650268554688C-9.286911010742188 640.4240112304688 -9.450103759765625 640.0789794921875 -12.4600830078125 634.5490112304688C-34.98028564453125 593.280029296875 -48.543182373046875 545.52001953125 -52.53228759765625 493.3900146484375C-53.392181396484375 482.2030029296875 -53.82469177246094 470.83099365234375 -53.82469177246094 459.2439880371094C-53.82469177246094 392.4070129394531 -39.43348693847656 318.4119873046875 -9.685821533203125 231.37899780273438C-3.2264404296875 212.48199462890625 -0.0181121826171875 192.8070068359375 -0.0181121826171875 173.13299560546875C-0.0181121826171875 146.85800170898438 -5.740570068359375 120.58499145507812 -17.083786010742188 96.16659545898438C-32.64128112792969 62.658203125 -57.319183349609375 33.1571044921875 -94.61729431152344 3.4564666748046875L-99.24098205566406 -0.2062530517578125L-99.87559509277344 -0.713958740234375L-99.24098205566406 -1.2035369873046875C-98.896484375 -1.49365234375 -96.82939147949219 -3.1436920166015625 -94.61729431152344 -4.884368896484375C-52.51417541503906 -38.410919189453125 -25.9141845703125 -72.35441589355469 -11.571578979492188 -110.86701965332031C-3.8606414794921875 -131.58502197265625 1.52587890625e-05 -153.12301635742188 1.52587890625e-05 -174.62001037597656C1.52587890625e-05 -194.27101135253906 -3.2259674072265625 -213.88601684570312 -9.685821533203125 -232.80702209472656C-39.32627868652344 -319.5500030517578 -53.71238708496094 -393.3830108642578 -53.71238708496094 -459.92002868652344C-53.71238708496094 -474.26002502441406 -53.044189453125 -488.26100158691406 -51.71638488769531 -501.9800262451172C-47.001983642578125 -550.7550201416016 -33.96488952636719 -594.7810211181641 -12.496292114257812 -634.4359893798828C-9.413848876953125 -640.1469879150391 -9.286911010742188 -640.4010162353516 -9.069320678710938 -641.9420318603516C-9.001907348632812 -642.4110260009766 -8.969436645507812 -642.8720245361328 -8.969436645507812 -643.3230133056641C-8.969436645507812 -648.4770050048828 -13.205184936523438 -652.3950347900391 -17.998382568359375 -652.3950347900391C-19.3328857421875 -652.3950347900391 -20.710479736328125 -652.0910186767578 -22.051986694335938 -651.4260406494141C-24.753677368164062 -650.0839996337891 -25.315780639648438 -649.2320098876953 -34.65388488769531 -631.8969879150391C-89.40528869628906 -530.2840118408203 -116.51898193359375 -436.3930206298828 -116.51898193359375 -347.0500030517578C-116.51898193359375 -307.44801330566406 -111.19099426269531 -268.74000549316406 -100.58299255371094 -230.64901733398438C-98.49757385253906 -223.17800903320312 -97.15577697753906 -218.88101196289062 -92.89468383789062 -206.15200805664062C-84.69888305664062 -181.67401123046875 -80.85487365722656 -166.86001586914062 -77.68168640136719 -147.67601013183594C-75.56217956542969 -134.84901428222656 -74.51338195800781 -122.57701110839844 -74.51338195800781 -110.93202209472656C-74.51338195800781 -66.59471130371094 -89.71908569335938 -31.3629150390625 -118.91398620605469 -9.290512084960938C-122.74198913574219 -6.4084014892578125 -124.26498413085938 -4.135406494140625 -124.26498413085938 -1.0117645263671875C-124.26498413085938 -0.4801788330078125 -124.22099304199219 0.0760345458984375 -124.13697814941406 0.664093017578125C-123.71897888183594 3.52899169921875 -122.57698059082031 5.1064910888671875 -118.91398620605469 7.862579345703125C-90.14079284667969 29.624191284179688 -74.44558715820312 65.35249328613281 -74.44558715820312 108.77998352050781C-74.44558715820312 110.94499206542969 -74.48457336425781 113.12998962402344 -74.56298828125 115.33198547363281C-75.54208374023438 142.802978515625 -81.09059143066406 169.89198303222656 -92.89468383789062 204.72398376464844C-108.70799255371094 251.41798400878906 -116.66798400878906 298.6179962158203 -116.66798400878906 347.0289764404297C-116.66798400878906 439.66697692871094 -87.52137756347656 536.7379608154297 -28.488983154296875 643.1799774169922C-24.626785278320312 650.1790008544922 -23.303176879882812 651.5749969482422 -20.003082275390625 652.2100067138672Z" fill="black" /></g></svg>