<?xml version="1.0" encoding="utf-8" ?>
<svg baseProfile="tiny" height="100%" version="1.2" width="100%" xmlns="http://www.w3.org/2000/svg" xmlns:ev="http://www.w3.org/2001/xml-events" xmlns:xlink="http://www.w3.org/1999/xlink"><defs /><g transform="translate(0, 1000) scale(1, -1)"><path d="M-14.307205200195312 6585.97021484375C-12.946319580078125 6586.81005859375 -11.312408447265625 6587.2099609375 -9.649246215820312 6587.2099609375C-6.306243896484375 6587.2099609375 -2.8444976806640625 6585.6201171875 -1.240936279296875 6582.93017578125C-0.4888458251953125 6581.6298828125 -1.52587890625e-05 6580.56005859375 -1.52587890625e-05 6579.14013671875C-1.52587890625e-05 6575.6201171875 -2.9937591552734375 6569.91015625 -12.400314331054688 6553.06005859375C-390.4760284423828 5872.6201171875 -582.5689849853516 5087.16015625 -582.5689849853516 4254.56982421875C-582.5689849853516 3791.699951171875 -523.1970367431641 3314.25 -403.40101623535156 2832.18994140625C-361.94200134277344 2665.300048828125 -307.06300354003906 2479.5400390625 -251.0550079345703 2316.60009765625C-227.39401245117188 2247.8798828125 -220.96701049804688 2228.530029296875 -214.46900939941406 2207.840087890625C-155.67901611328125 2018.719970703125 -126.82402038574219 1825.4200439453125 -126.82402038574219 1633.25C-126.82402038574219 1183.3800048828125 -284.96202087402344 739.7150268554688 -587.3889923095703 370.4289855957031C-699.9000396728516 233.12600708007812 -834.1660308837891 105.28799438476562 -975.2819976806641 1.111083984375C-981.2150421142578 -3.2678985595703125 -986.0880279541016 -7.08184814453125 -986.0880279541016 -7.43499755859375C-986.0880279541016 -7.78814697265625 -981.2150421142578 -11.602096557617188 -975.2819976806641 -15.981094360351562C-834.1660308837891 -120.15798950195312 -699.9000396728516 -247.99600219726562 -587.3889923095703 -385.29901123046875C-284.96202087402344 -754.5850219726562 -126.82402038574219 -1198.25 -126.82402038574219 -1648.1199951171875C-126.82402038574219 -1840.2900390625 -155.67901611328125 -2033.5899658203125 -214.46900939941406 -2222.7099609375C-220.89601135253906 -2243.330078125 -225.20501708984375 -2256.179931640625 -252.46701049804688 -2335.7099609375C-313.56101989746094 -2514.050048828125 -370.48802185058594 -2709.760009765625 -414.34800720214844 -2892.27001953125C-525.8560333251953 -3356.159912109375 -581.1230010986328 -3815.4599609375 -581.1230010986328 -4261.22998046875C-581.1230010986328 -5091.39013671875 -389.44700622558594 -5874.58984375 -12.400314331054688 -6553.08984375C-2.9937591552734375 -6569.93994140625 -1.52587890625e-05 -6575.64990234375 -1.52587890625e-05 -6579.18017578125C-1.52587890625e-05 -6580.60009765625 -0.4888458251953125 -6581.669921875 -1.240936279296875 -6582.97021484375C-2.936187744140625 -6585.77001953125 -6.265960693359375 -6587.2099609375 -9.524520874023438 -6587.2099609375C-12.510910034179688 -6587.2099609375 -15.437515258789062 -6586.0 -16.991119384765625 -6583.52978515625C-24.124618530273438 -6572.16015625 -74.90672302246094 -6478.580078125 -100.54501342773438 -6429.7099609375C-418.2330017089844 -5823.919921875 -627.010986328125 -5164.4599609375 -706.7509765625 -4514.60986328125C-708.8699951171875 -4497.08984375 -711.27197265625 -4478.02001953125 -712.0479736328125 -4472.22998046875C-717.8400268554688 -4428.16015625 -728.010986328125 -4321.72021484375 -733.2369995117188 -4250.10009765625C-742.5020141601562 -4123.169921875 -747.1300048828125 -3996.669921875 -747.1300048828125 -3870.719970703125C-747.1300048828125 -3337.050048828125 -664.06201171875 -2813.080078125 -498.75 -2306.39990234375L-462.8699951171875 -2200.4599609375C-375.6369934082031 -1947.800048828125 -332.93701171875 -1691.8299560546875 -332.93701171875 -1444.72998046875C-332.93701171875 -988.9910278320312 -478.1830139160156 -563.4180297851562 -757.1799926757812 -244.39398193359375C-830.4219970703125 -160.6289825439453 -921.5330200195312 -77.35737609863281 -1006.0800170898438 -16.969879150390625C-1010.3499755859375 -13.897491455078125 -1012.489990234375 -10.666290283203125 -1012.489990234375 -7.4349822998046875C-1012.489990234375 -4.2037200927734375 -1010.3499755859375 -0.9724578857421875 -1006.0800170898438 2.0998992919921875C-711.2009887695312 212.92701721191406 -489.2850036621094 551.0970001220703 -392.87701416015625 936.8000030517578C-352.7170104980469 1097.4100494384766 -332.68701171875 1262.540054321289 -332.68701171875 1430.459976196289C-332.68701171875 1681.5999908447266 -377.4880065917969 1938.990005493164 -466.7550048828125 2196.889907836914C-517.677978515625 2343.870132446289 -554.7579956054688 2467.110122680664 -592.4030151367188 2614.300064086914C-696.3070068359375 3020.729995727539 -748.551025390625 3440.580093383789 -748.551025390625 3864.580093383789C-748.551025390625 4053.620132446289 -738.166015625 4243.479995727539 -717.3460083007812 4433.350112915039C-715.5800170898438 4449.310073852539 -713.6729736328125 4465.620132446289 -713.1079711914062 4469.720230102539C-712.5430297851562 4473.819839477539 -710.7769775390625 4487.939956665039 -709.2230224609375 4501.149917602539C-625.4580078125 5199.390151977539 -388.7099914550781 5916.970230102539 -29.704315185546875 6560.819839477539C-15.154815673828125 6586.890151977539 -16.567413330078125 6584.629898071289 -14.307220458984375 6585.970230102539Z" fill="black" /></g></svg>