<?xml version="1.0" encoding="utf-8" ?>
<svg baseProfile="tiny" height="100%" version="1.2" width="100%" xmlns="http://www.w3.org/2000/svg" xmlns:ev="http://www.w3.org/2001/xml-events" xmlns:xlink="http://www.w3.org/1999/xlink"><defs /><g transform="translate(0, 1000) scale(1, -1)"><path d="M-14.45050048828125 326.7489929199219C-13.903396606445312 326.8529968261719 -13.35980224609375 326.90301513671875 -12.824493408203125 326.90301513671875C-8.047348022460938 326.90301513671875 -3.93017578125 322.9309997558594 -3.906005859375 317.8800048828125C-3.9058685302734375 317.84698486328125 -3.9058074951171875 317.81500244140625 -3.9058074951171875 317.7820129394531C-3.9058074951171875 315.77301025390625 -4.18756103515625 314.8659973144531 -5.54547119140625 312.4150085449219C-18.527603149414062 288.97198486328125 -25.023193359375 262.1669921875 -25.023193359375 231.33299255371094C-25.023193359375 198.39700317382812 -17.611495971679688 160.86399841308594 -2.7772064208984375 117.91999816894531C-1.567779541015625 114.40899658203125 -1.18255615234375 113.19000244140625 -0.49273681640625 110.55599975585938L0.0 108.66600036621094V86.45729064941406V64.25749206542969L-0.49273681640625 62.376190185546875C-6.3875885009765625 39.97930908203125 -20.53350830078125 20.180496215820312 -44.569793701171875 0.6951904296875C-45.25959777832031 0.1397552490234375 -45.824005126953125 -0.344024658203125 -45.824005126953125 -0.379852294921875C-45.824005126953125 -0.4156951904296875 -45.25959777832031 -0.8994598388671875 -44.569793701171875 -1.4549102783203125C-20.53350830078125 -20.940200805664062 -6.3875885009765625 -40.73899841308594 -0.49273681640625 -63.135894775390625L0.0 -65.01719665527344V-87.21699523925781V-109.42599487304688L-0.49273681640625 -111.31599426269531C-1.18255615234375 -113.94998168945312 -1.567779541015625 -115.17698669433594 -2.7772064208984375 -118.67997741699219C-17.592300415039062 -161.53598022460938 -24.9866943359375 -199.1799774169922 -24.9866943359375 -231.8309783935547C-24.9866943359375 -242.79498291015625 -24.152999877929688 -253.1949920654297 -22.486495971679688 -263.0409698486328C-19.485305786132812 -280.7259979248047 -13.82330322265625 -297.43397521972656 -6.0561065673828125 -311.51698303222656C-4.494171142578125 -314.34898376464844 -3.8232269287109375 -316.14097595214844 -3.8232269287109375 -317.91197204589844C-3.8232269287109375 -318.6389923095703 -3.9365386962890625 -319.3629913330078 -4.1479034423828125 -320.1529998779297C-5.307525634765625 -324.4829864501953 -9.09185791015625 -326.9029998779297 -12.940994262695312 -326.9029998779297C-15.57440185546875 -326.9029998779297 -18.23809814453125 -325.7699737548828 -20.112396240234375 -323.3429718017578C-21.00830078125 -322.18699645996094 -26.446197509765625 -312.1709747314453 -30.809097290039062 -303.6599884033203C-55.84429931640625 -254.76998901367188 -68.01229858398438 -211.1759796142578 -68.01229858398438 -169.17698669433594C-68.01229858398438 -155.68798828125 -66.75711059570312 -142.36398315429688 -64.27011108398438 -129.0809783935547C-62.5321044921875 -119.77299499511719 -60.14900207519531 -110.91297912597656 -56.350494384765625 -99.55317687988281C-52.014495849609375 -86.59889221191406 -50.061492919921875 -79.19888305664062 -48.341400146484375 -69.3173828125C-47.25239562988281 -63.06388854980469 -46.711395263671875 -57.149383544921875 -46.711395263671875 -51.597686767578125C-46.711395263671875 -32.486480712890625 -53.123199462890625 -17.674591064453125 -65.6676025390625 -8.129165649414062C-68.7493896484375 -5.7819671630859375 -69.90509033203125 -3.6677093505859375 -69.90509033203125 -0.3798370361328125C-69.90509033203125 2.8542633056640625 -68.73150634765625 5.0491485595703125 -65.802001953125 7.261962890625C-53.15980529785156 16.8408203125 -46.711395263671875 31.665512084960938 -46.711395263671875 50.82991027832031C-46.711395263671875 56.38221740722656 -47.25270080566406 62.298919677734375 -48.341400146484375 68.55772399902344C-50.061492919921875 78.43922424316406 -52.014495849609375 85.83912658691406 -56.350494384765625 98.79351806640625C-58.4468994140625 105.05601501464844 -59.369598388671875 107.9940185546875 -60.28340148925781 111.33601379394531C-65.44949340820312 130.25901794433594 -68.05718994140625 149.31600952148438 -68.05718994140625 168.77700805664062C-68.05718994140625 215.90101623535156 -52.76649475097656 265.38902282714844 -21.48309326171875 321.05101013183594C-19.431503295898438 324.7060089111328 -17.648696899414062 326.14002990722656 -14.45050048828125 326.74900817871094Z" fill="black" /></g></svg>