<?xml version="1.0" encoding="utf-8" ?>
<svg baseProfile="tiny" height="100%" version="1.2" width="100%" xmlns="http://www.w3.org/2000/svg" xmlns:ev="http://www.w3.org/2001/xml-events" xmlns:xlink="http://www.w3.org/1999/xlink"><defs /><g transform="translate(0, 1000) scale(1, -1)"><path d="M-13.859298706054688 7180.60009765625C-12.462692260742188 7181.330078125 -10.998886108398438 7181.64990234375 -9.567398071289062 7181.64990234375C-4.587738037109375 7181.64990234375 1.52587890625e-05 7177.68994140625 1.52587890625e-05 7172.58984375C1.52587890625e-05 7172.1298828125 -0.03668212890625 7171.669921875 -0.1130828857421875 7171.2001953125C-0.3336029052734375 7170.02001953125 -6.9494171142578125 7157.4501953125 -14.81488037109375 7143.259765625C-427.8759765625 6400.06005859375 -638.4419860839844 5539.27001953125 -638.4419860839844 4628.27001953125C-638.4419860839844 4175.97998046875 -586.5389709472656 3711.31005859375 -481.7449645996094 3242.5C-428.22998046875 3003.010009765625 -359.42596435546875 2758.889892578125 -280.1829833984375 2527.6298828125C-240.11996459960938 2410.669921875 -234.23997497558594 2392.3701171875 -219.39097595214844 2338.1201171875C-175.28497314453125 2177.5 -152.6439666748047 2031.6600341796875 -144.70497131347656 1856.8599853515625C-143.55996704101562 1831.7900390625 -142.99496459960938 1805.8800048828125 -142.99496459960938 1779.3800048828125C-142.99496459960938 1656.280029296875 -155.17596435546875 1520.3800048828125 -177.85797119140625 1396.3199462890625C-277.1689758300781 852.35302734375 -594.5809631347656 350.8739929199219 -1057.9100036621094 5.969390869140625C-1067.9100036621094 -1.4550323486328125 -1076.0699157714844 -7.7768096923828125 -1076.0699157714844 -8.070831298828125C-1076.0699157714844 -8.364852905273438 -1067.9100036621094 -14.686599731445312 -1057.9100036621094 -22.111099243164062C-594.5809631347656 -367.01600646972656 -277.1689758300781 -868.4950103759766 -177.85797119140625 -1412.459976196289C-155.17596435546875 -1536.520034790039 -142.99496459960938 -1672.4200592041016 -142.99496459960938 -1795.520034790039C-142.99496459960938 -1822.020034790039 -143.55996704101562 -1847.9300689697266 -144.70497131347656 -1873.000015258789C-151.98297119140625 -2031.8499908447266 -170.94796752929688 -2164.240005493164 -206.8939666748047 -2306.699966430664C-226.74197387695312 -2385.280044555664 -235.4159698486328 -2413.290054321289 -279.0799560546875 -2540.530044555664C-514.7039489746094 -3226.969985961914 -636.8569641113281 -3946.260025024414 -636.8569641113281 -4638.790054321289C-636.8569641113281 -4746.089859008789 -633.9249572753906 -4852.750015258789 -628.0279846191406 -4958.540054321289C-583.7019958496094 -5754.279800415039 -371.1139831542969 -6508.109878540039 -8.86065673828125 -7153.890151977539C-4.0090484619140625 -7162.560073852539 -0.333587646484375 -7169.990249633789 -0.113067626953125 -7171.529800415039C-0.072998046875 -7171.879898071289 -0.053558349609375 -7172.220230102539 -0.053558349609375 -7172.549819946289C-0.053558349609375 -7177.759780883789 -4.784515380859375 -7181.649917602539 -9.777099609375 -7181.649917602539C-11.511764526367188 -7181.649917602539 -13.278076171875 -7181.180191040039 -14.88836669921875 -7180.129898071289C-17.6817626953125 -7178.299819946289 -63.624969482421875 -7094.790054321289 -102.5849609375 -7020.839859008789C-452.3409729003906 -6356.830093383789 -681.9099426269531 -5629.390151977539 -767.2539978027344 -4914.799819946289L-772.8409729003906 -4868.859878540039C-789.8209533691406 -4731.689956665039 -802.6849670410156 -4544.020034790039 -807.9049987792969 -4359.069839477539C-808.5289611816406 -4337.279800415039 -808.8419494628906 -4283.140151977539 -808.8419494628906 -4229.040054321289C-808.8419494628906 -4174.930191040039 -808.5289611816406 -4120.870132446289 -807.9049987792969 -4099.220230102539C-791.0709533691406 -3504.530044555664 -694.7739562988281 -2971.080093383789 -504.89996337890625 -2421.010025024414C-429.25897216796875 -2201.879898071289 -387.6529846191406 -2014.8700103759766 -367.80596923828125 -1804.6300201416016C-360.7319641113281 -1729.6100006103516 -357.2459716796875 -1655.219985961914 -357.2459716796875 -1581.709976196289C-357.2459716796875 -935.6370391845703 -626.5029602050781 -357.54701232910156 -1095.6899108886719 -17.847518920898438C-1100.3599548339844 -14.466110229492188 -1102.6899108886719 -11.268508911132812 -1102.6899108886719 -8.070831298828125C-1102.6899108886719 -4.873199462890625 -1100.3599548339844 -1.6755523681640625 -1095.6899108886719 1.70587158203125C-627.3169860839844 340.85595703125 -357.1879577636719 919.10791015625 -357.1879577636719 1564.9398803710938C-357.1879577636719 1624.4699096679688 -359.48297119140625 1684.5798950195312 -364.1299743652344 1745.1199340820312C-381.2579650878906 1967.1199340820312 -424.9219665527344 2173.6100463867188 -501.7389831542969 2395.6000366210938C-694.7739562988281 2953.3898315429688 -791.6589660644531 3485.8898315429688 -809.3749694824219 4086.7499389648438C-809.9999694824219 4108.289978027344 -810.3119812011719 4164.819763183594 -810.3119812011719 4221.470153808594C-810.3119812011719 4278.120056152344 -809.9999694824219 4334.879821777344 -809.3749694824219 4356.899841308594C-803.9349670410156 4544.789978027344 -791.1449890136719 4727.019958496094 -773.2079772949219 4872.569763183594C-772.8409729003906 4875.799743652344 -770.7829895019531 4892.490173339844 -768.7239685058594 4909.689880371094C-681.3949890136719 5641.319763183594 -443.81396484375 6384.569763183594 -80.53207397460938 7062.399841308594C-39.0728759765625 7139.809997558594 -16.946670532226562 7178.990173339844 -13.859268188476562 7180.600036621094Z" fill="black" /></g></svg>