<?xml version="1.0" encoding="utf-8" ?>
<svg baseProfile="tiny" height="100%" version="1.2" width="100%" xmlns="http://www.w3.org/2000/svg" xmlns:ev="http://www.w3.org/2001/xml-events" xmlns:xlink="http://www.w3.org/1999/xlink"><defs /><g transform="translate(0, 1000) scale(1, -1)"><path d="M-12.22760009765625 1814.6600341796875C-11.236602783203125 1814.9599609375 -10.23699951171875 1815.1099853515625 -9.2598876953125 1815.1099853515625C-5.272857666015625 1815.1099853515625 -1.659576416015625 1812.68994140625 -0.5297698974609375 1808.8800048828125C-0.1993408203125 1807.77001953125 0.0 1806.8800048828125 0.0 1805.97998046875C0.0 1803.8599853515625 -1.1111297607421875 1801.6300048828125 -4.23162841796875 1796.030029296875C-85.82049560546875 1650.1099853515625 -133.61099243164062 1474.93994140625 -142.12600708007812 1290.68994140625C-143.08799743652344 1269.6700439453125 -143.2729949951172 1261.6400146484375 -143.4949951171875 1234.6099853515625C-143.5229949951172 1230.8299560546875 -143.53700256347656 1227.050048828125 -143.53700256347656 1223.27001953125C-143.53700256347656 1095.949951171875 -127.781005859375 968.8040161132812 -94.74200439453125 829.9990234375C-79.63839721679688 766.4749755859375 -63.42430114746094 711.6510009765625 -35.734405517578125 630.468994140625C-17.892303466796875 578.1610107421875 -9.099273681640625 522.822998046875 -9.099273681640625 467.3900146484375C-9.099273681640625 381.35699462890625 -30.27850341796875 295.0929870605469 -71.67939758300781 219.56300354003906C-118.322998046875 134.4199981689453 -177.14500427246094 66.67649841308594 -259.10400390625 3.596893310546875C-262.8800048828125 0.6724395751953125 -265.9530029296875 -1.844818115234375 -265.9530029296875 -1.9929046630859375C-265.9530029296875 -2.1409759521484375 -262.8800048828125 -4.658233642578125 -259.10400390625 -7.58270263671875C-181.2169952392578 -67.51570129394531 -120.95098876953125 -135.59300231933594 -78.08360290527344 -212.072998046875C-69.68038940429688 -227.0659942626953 -65.90451049804688 -234.3209991455078 -59.130096435546875 -248.7209930419922C-25.74859619140625 -319.5150146484375 -8.88165283203125 -395.7720031738281 -8.88165283203125 -471.6969909667969C-8.88165283203125 -526.8660278320312 -17.787506103515625 -581.8599853515625 -35.734405517578125 -634.4550170898438C-78.75 -760.4660034179688 -102.70098876953125 -853.27099609375 -121.61700439453125 -967.2509765625C-135.96299743652344 -1053.7900390625 -143.20399475097656 -1141.6099853515625 -143.20399475097656 -1226.18994140625C-143.20399475097656 -1282.8199462890625 -139.95799255371094 -1338.0 -133.42599487304688 -1390.3699951171875C-114.95401000976562 -1538.0799560546875 -70.8280029296875 -1676.6700439453125 -4.194610595703125 -1795.949951171875C-2.306671142578125 -1799.3499755859375 -0.6038055419921875 -1802.760009765625 -0.3816986083984375 -1803.5400390625C-0.15020751953125 -1804.3800048828125 -0.0424041748046875 -1805.199951171875 -0.0424041748046875 -1805.989990234375C-0.0424041748046875 -1811.1700439453125 -4.6581878662109375 -1815.1099853515625 -9.438232421875 -1815.1099853515625C-11.520797729492188 -1815.1099853515625 -13.634506225585938 -1814.3599853515625 -15.41119384765625 -1812.6400146484375C-16.891998291015625 -1811.199951171875 -21.149093627929688 -1803.760009765625 -33.402191162109375 -1781.0999755859375C-109.47500610351562 -1640.6199951171875 -166.89100646972656 -1492.06005859375 -201.1699981689453 -1347.06005859375C-227.15899658203125 -1237.1099853515625 -240.14300537109375 -1127.8599853515625 -240.14300537109375 -1020.3200073242188C-240.14300537109375 -891.4970092773438 -221.51300048828125 -765.1179809570312 -184.2899932861328 -642.89501953125C-181.17999267578125 -632.60400390625 -174.70199584960938 -612.947021484375 -165.85499572753906 -586.7009887695312C-149.41799926757812 -538.0579833984375 -137.97999572753906 -489.26800537109375 -132.16799926757812 -442.6990051269531C-128.6750030517578 -414.87701416015625 -126.95098876953125 -387.7080078125 -126.95098876953125 -361.3210144042969C-126.95098876953125 -213.2100067138672 -181.26199340820312 -89.71749877929688 -281.8710021972656 -13.61669921875C-289.3479919433594 -7.952880859375 -290.27398681640625 -6.9904022216796875 -290.97698974609375 -3.9178619384765625C-291.1990051269531 -2.9819793701171875 -291.3280029296875 -2.1536407470703125 -291.3280029296875 -1.377777099609375C-291.3280029296875 1.86669921875 -289.07000732421875 4.19378662109375 -281.8710021972656 9.630935668945312C-203.42799377441406 68.97171020507812 -151.56500244140625 159.5189971923828 -133.7969970703125 268.24200439453125C-129.13999938964844 296.75201416015625 -126.82901000976562 326.4429931640625 -126.82901000976562 356.9129943847656C-126.82901000976562 420.9219970703125 -137.0290069580078 488.36700439453125 -157.1179962158203 555.5059814453125C-160.48699951171875 566.6859741210938 -163.3000030517578 575.3480224609375 -171.18499755859375 598.6329956054688C-184.10499572753906 636.7249755859375 -192.06399536132812 663.6010131835938 -201.5399932861328 701.1370239257812C-227.59800720214844 804.3729858398438 -240.54400634765625 910.291015625 -240.54400634765625 1017.8800048828125C-240.54400634765625 1274.3499755859375 -166.97000122070312 1540.300048828125 -22.074600219726562 1801.9200439453125C-16.41070556640625 1812.0999755859375 -15.115097045898438 1813.77001953125 -12.22760009765625 1814.6600341796875Z" fill="black" /></g></svg>