<?xml version="1.0" encoding="utf-8" ?>
<svg baseProfile="tiny" height="100%" version="1.2" width="100%" xmlns="http://www.w3.org/2000/svg" xmlns:ev="http://www.w3.org/2001/xml-events" xmlns:xlink="http://www.w3.org/1999/xlink"><defs /><g transform="translate(0, 1000) scale(1, -1)"><path d="M-18.094894409179688 806.8690185546875C-17.63818359375 806.93701171875 -17.185989379882812 806.969970703125 -16.74078369140625 806.969970703125C-11.859390258789062 806.969970703125 -7.8177947998046875 803.0280151367188 -7.8177947998046875 797.89697265625C-7.8177947998046875 795.6929931640625 -8.222579956054688 794.6810302734375 -11.213485717773438 789.239013671875C-36.17549133300781 743.969970703125 -53.10908508300781 691.031982421875 -60.57518005371094 634.7440185546875C-63.55317687988281 612.3660278320312 -65.03419494628906 588.9970092773438 -65.03419494628906 564.7529907226562C-65.03419494628906 481.531005859375 -47.58277893066406 388.0010070800781 -13.327377319335938 288.875C-6.1086883544921875 267.93798828125 -1.9483642578125 248.5760040283203 -0.68902587890625 229.7310028076172C-0.3160858154296875 224.21499633789062 -0.1297149658203125 218.73899841308594 -0.1297149658203125 213.30299377441406C-0.1297149658203125 134.81700134277344 -38.97209167480469 64.59480285644531 -116.03099060058594 3.813934326171875L-121.20399475097656 -0.256439208984375L-121.99098205566406 -0.8861083984375L-121.20399475097656 -1.4932861328125C-120.77598571777344 -1.8531036376953125 -118.45997619628906 -3.674652099609375 -116.03099060058594 -5.586151123046875C-57.606781005859375 -51.66459655761719 -21.580581665039062 -102.48800659179688 -7.07568359375 -159.3159942626953C-2.360260009765625 -177.7779998779297 1.52587890625e-05 -196.1479949951172 1.52587890625e-05 -214.54299926757812C1.52587890625e-05 -239.66000366210938 -4.4006500244140625 -264.8240051269531 -13.214981079101562 -290.3320007324219C-43.66407775878906 -378.3739929199219 -60.327880859375 -459.10699462890625 -64.33079528808594 -538.0180053710938C-64.60017395019531 -543.4169921875 -64.72969055175781 -552.2249755859375 -64.72969055175781 -561.593017578125C-64.72969055175781 -574.1179809570312 -64.49827575683594 -587.6439819335938 -64.06088256835938 -595.3629760742188C-60.03547668457031 -667.572998046875 -42.17988586425781 -733.10400390625 -11.213485717773438 -789.2119750976562C-8.222579956054688 -794.6539916992188 -7.8177947998046875 -795.666015625 -7.8177947998046875 -797.8699951171875C-7.8177947998046875 -803.2150268554688 -12.158279418945312 -806.969970703125 -16.894683837890625 -806.969970703125C-18.554580688476562 -806.969970703125 -20.263076782226562 -806.5089721679688 -21.850479125976562 -805.4929809570312C-23.537078857421875 -804.3909912109375 -24.166778564453125 -803.4920043945312 -27.6973876953125 -797.1500244140625C-69.39057922363281 -721.9719848632812 -98.78279113769531 -649.2670288085938 -116.14398193359375 -578.3170166015625C-126.60098266601562 -535.5440063476562 -132.739990234375 -490.635009765625 -133.6849822998047 -449.75201416015625C-133.75198364257812 -446.85101318359375 -133.86398315429688 -442.2850036621094 -133.9089813232422 -439.6319885253906C-133.9349822998047 -438.68499755859375 -133.94699096679688 -437.45098876953125 -133.94699096679688 -436.0090026855469C-133.94699096679688 -428.572998046875 -133.62998962402344 -415.5889892578125 -133.2349853515625 -407.8110046386719C-130.60398864746094 -355.4580078125 -121.72099304199219 -309.1549987792969 -104.67498779296875 -258.9389953613281C-91.38407897949219 -219.74200439453125 -85.69459533691406 -193.52000427246094 -82.92857360839844 -158.64100646972656C-82.71688842773438 -156.02099609375 -82.61817932128906 -150.0679931640625 -82.61817932128906 -143.78599548339844C-82.61817932128906 -136.0489959716797 -82.76799011230469 -127.81100463867188 -83.04098510742188 -124.68399047851562C-87.58358764648438 -73.7705078125 -106.67597961425781 -35.697906494140625 -140.56597900390625 -9.926376342773438C-145.3109893798828 -6.3282623291015625 -146.4349822998047 -4.5741729736328125 -146.4349822998047 -0.8861083984375C-146.4349822998047 2.801971435546875 -145.3109893798828 4.5560455322265625 -140.56597900390625 8.1541748046875C-106.67597961425781 33.92570495605469 -87.58358764648438 71.998291015625 -83.04098510742188 122.91200256347656C-82.76799011230469 126.03900146484375 -82.61817932128906 134.27699279785156 -82.61817932128906 142.01400756835938C-82.61817932128906 148.29600524902344 -82.71688842773438 154.24899291992188 -82.92857360839844 156.86900329589844C-85.69459533691406 191.7480010986328 -91.38407897949219 217.94700622558594 -104.67498779296875 257.1669921875C-122.23799133300781 308.9570007324219 -130.64898681640625 353.4840087890625 -133.59498596191406 410.31201171875C-133.88697814941406 415.99700927734375 -134.02598571777344 422.9750061035156 -134.02598571777344 430.5260009765625C-134.02598571777344 445.0740051269531 -133.5079803466797 461.75 -132.5599822998047 475.4150085449219C-125.49897766113281 576.0499877929688 -90.10227966308594 684.64599609375 -27.6973876953125 797.177001953125C-23.199783325195312 805.2949829101562 -22.255279541015625 806.239990234375 -18.094879150390625 806.8690185546875Z" fill="black" /></g></svg>