<?xml version="1.0" encoding="utf-8" ?>
<svg baseProfile="tiny" height="100%" version="1.2" width="100%" xmlns="http://www.w3.org/2000/svg" xmlns:ev="http://www.w3.org/2001/xml-events" xmlns:xlink="http://www.w3.org/1999/xlink"><defs /><g transform="translate(0, 1000) scale(1, -1)"><path d="M-11.834304809570312 1516.6600341796875C-10.972610473632812 1516.9000244140625 -10.108108520507812 1517.02001953125 -9.260238647460938 1517.02001953125C-4.98992919921875 1517.02001953125 -1.1426239013671875 1514.0899658203125 -0.2064971923828125 1509.719970703125C-0.0776214599609375 1509.0899658203125 -1.52587890625e-05 1508.510009765625 -1.52587890625e-05 1507.9300537109375C-1.52587890625e-05 1505.75 -1.090728759765625 1503.4200439453125 -4.660430908203125 1496.969970703125C-79.58541870117188 1361.8399658203125 -117.38700866699219 1204.1400146484375 -117.38700866699219 1030.27001953125C-117.38700866699219 936.2030029296875 -106.32200622558594 837.3989868164062 -84.08331298828125 734.8740234375C-69.25950622558594 666.5349731445312 -53.48381042480469 610.9459838867188 -25.672119140625 529.177001953125C-10.362518310546875 484.1319885253906 -2.8610992431640625 438.2690124511719 -2.8610992431640625 392.6510009765625C-2.8610992431640625 268.17498779296875 -58.714813232421875 145.53500366210938 -164.18601989746094 46.38360595703125C-181.2880096435547 30.335800170898438 -208.9300079345703 7.0460968017578125 -220.72702026367188 -1.215789794921875L-221.44100952148438 -1.7257843017578125L-220.72702026367188 -2.23577880859375C-208.93002319335938 -10.497695922851562 -181.39002990722656 -33.685302734375 -164.18603515625 -49.83509826660156C-58.74623107910156 -148.85499572753906 -2.8864898681640625 -271.5899963378906 -2.8864898681640625 -396.135986328125C-2.8864898681640625 -441.7489929199219 -10.378936767578125 -487.6050109863281 -25.672134399414062 -532.6279907226562C-52.66783142089844 -611.9829711914062 -67.42362976074219 -663.6290283203125 -82.2474365234375 -730.166015625C-105.50703430175781 -834.7080078125 -117.07904052734375 -935.5640258789062 -117.07904052734375 -1031.56005859375C-117.07904052734375 -1204.8399658203125 -79.37632751464844 -1362.300048828125 -4.6604461669921875 -1497.030029296875C-1.0907440185546875 -1503.43994140625 -3.0517578125e-05 -1505.7900390625 -3.0517578125e-05 -1507.9599609375C-3.0517578125e-05 -1508.5400390625 -0.07763671875 -1509.1099853515625 -0.206512451171875 -1509.739990234375C-1.195404052734375 -1514.4100341796875 -5.1986083984375 -1517.02001953125 -9.237930297851562 -1517.02001953125C-12.142425537109375 -1517.02001953125 -15.06573486328125 -1515.6700439453125 -16.90032958984375 -1512.77001953125C-17.444229125976562 -1511.8800048828125 -19.824234008789062 -1507.699951171875 -22.13623046875 -1503.489990234375C-132.8390350341797 -1303.4000244140625 -195.12603759765625 -1100.219970703125 -205.49603271484375 -905.2630004882812C-206.72003173828125 -881.8380126953125 -206.8560333251953 -876.5339965820312 -206.8560333251953 -845.593994140625C-206.85601806640625 -814.552978515625 -206.75401306152344 -809.5549926757812 -205.4960174560547 -786.094970703125C-200.1920166015625 -687.6320190429688 -181.4580078125 -591.5159912109375 -149.39601135253906 -498.4590148925781C-130.0170135498047 -442.2919921875 -119.71501159667969 -396.8680114746094 -114.75102233886719 -346.1409912109375C-113.05302429199219 -328.8009948730469 -112.21202087402344 -311.79400634765625 -112.21202087402344 -295.1709899902344C-112.21202087402344 -174.02099609375 -156.83201599121094 -73.20790100097656 -239.01901245117188 -11.619705200195312C-243.93202209472656 -7.94769287109375 -246.38902282714844 -4.8367462158203125 -246.38902282714844 -1.7257843017578125C-246.38902282714844 1.385162353515625 -243.93202209472656 4.496124267578125 -239.01901245117188 8.168075561523438C-156.83201599121094 69.75640869140625 -112.21202087402344 170.56900024414062 -112.21202087402344 291.718994140625C-112.21202087402344 308.3429870605469 -113.05302429199219 325.3489990234375 -114.75102233886719 342.6889953613281C-119.71501159667969 393.4169921875 -130.0170135498047 438.8059997558594 -149.39601135253906 495.0069885253906C-181.73001098632812 588.8800048828125 -200.63401794433594 686.0170288085938 -205.8360137939453 784.85302734375C-206.92401123046875 805.8989868164062 -207.0600128173828 810.7949829101562 -207.26402282714844 835.343017578125C-207.28501892089844 838.1909790039062 -207.29501342773438 841.0380249023438 -207.29501342773438 843.885986328125C-207.29501342773438 946.5380249023438 -193.57501220703125 1048.6099853515625 -165.85202026367188 1152.219970703125C-134.3690185546875 1269.8199462890625 -87.75532531738281 1384.0999755859375 -24.006210327148438 1500.030029296875C-15.710311889648438 1515.1300048828125 -15.336318969726562 1515.6400146484375 -11.834320068359375 1516.6600341796875Z" fill="black" /></g></svg>