<?xml version="1.0" encoding="utf-8" ?>
<svg baseProfile="tiny" height="100%" version="1.2" width="100%" xmlns="http://www.w3.org/2000/svg" xmlns:ev="http://www.w3.org/2001/xml-events" xmlns:xlink="http://www.w3.org/1999/xlink"><defs /><g transform="translate(0, 1000) scale(1, -1)"><path d="M-12.520797729492188 1599.1700439453125C-11.430984497070312 1599.5999755859375 -10.319290161132812 1599.800048828125 -9.230377197265625 1599.800048828125C-4.3895416259765625 1599.800048828125 1.52587890625e-05 1595.8900146484375 1.52587890625e-05 1590.72998046875C1.52587890625e-05 1588.47998046875 -0.48907470703125 1587.300048828125 -4.1735687255859375 1580.719970703125C-84.22319030761719 1437.0799560546875 -124.57398986816406 1268.8299560546875 -124.57398986816406 1083.8499755859375C-124.57398986816406 966.843994140625 -108.42799377441406 843.1389770507812 -75.97238159179688 714.72998046875C-63.19078063964844 664.2230224609375 -51.32208251953125 624.9329833984375 -28.073883056640625 556.427001953125C-12.341079711914062 510.0050048828125 -4.59326171875 461.9949951171875 -4.59326171875 413.96099853515625C-4.59326171875 320.7330017089844 -33.779083251953125 227.41299438476562 -90.41688537597656 145.42599487304688C-127.09898376464844 92.37590026855469 -176.30198669433594 41.51029968261719 -229.6129913330078 1.4698944091796875C-231.89498901367188 -0.2256317138671875 -233.7539825439453 -1.6929168701171875 -233.7539825439453 -1.7907257080078125C-233.7539825439453 -1.8885345458984375 -231.89498901367188 -3.355804443359375 -229.6129913330078 -5.05133056640625C-176.30198669433594 -45.09169006347656 -127.09898376464844 -95.95738220214844 -90.41688537597656 -149.0079803466797C-33.76458740234375 -230.9849853515625 -4.585784912109375 -324.2489776611328 -4.585784912109375 -417.46498107910156C-4.585784912109375 -465.50999450683594 -12.3372802734375 -513.5419769287109 -28.073883056640625 -560.0089569091797C-44.47477722167969 -608.4290008544922 -49.43098449707031 -623.7859954833984 -58.234588623046875 -653.7509613037109C-102.30897521972656 -803.5640106201172 -124.23597717285156 -948.4109954833984 -124.23597717285156 -1084.5799407958984C-124.23597717285156 -1268.949935913086 -84.03297424316406 -1437.4000091552734 -4.1735687255859375 -1580.709945678711C-0.48907470703125 -1587.300033569336 1.52587890625e-05 -1588.469955444336 1.52587890625e-05 -1590.719955444336C1.52587890625e-05 -1596.1500091552734 -4.627960205078125 -1599.800033569336 -9.32440185546875 -1599.800033569336C-11.546279907226562 -1599.800033569336 -13.78338623046875 -1598.979965209961 -15.553085327148438 -1597.1500091552734C-19.43328857421875 -1593.0999603271484 -53.31108093261719 -1528.6099700927734 -70.91838073730469 -1491.729965209961C-148.4559783935547 -1329.290023803711 -195.44097900390625 -1166.8399505615234 -210.7659912109375 -1008.1799774169922C-212.885986328125 -986.4969940185547 -214.0269775390625 -969.1179656982422 -215.55899047851562 -936.7729949951172C-215.90798950195312 -929.4109954833984 -216.114990234375 -907.5670013427734 -216.114990234375 -888.8480072021484C-216.114990234375 -877.8029632568359 -216.04298400878906 -867.8449554443359 -215.885986328125 -862.5939788818359C-212.20098876953125 -741.5919647216797 -193.09397888183594 -637.4810028076172 -153.11898803710938 -520.3920135498047C-128.47898864746094 -448.3049774169922 -116.22099304199219 -379.9669952392578 -116.22099304199219 -314.5019989013672C-116.22099304199219 -292.5559844970703 -117.59898376464844 -270.93199157714844 -120.34898376464844 -249.59799194335938C-133.1309814453125 -150.27899169921875 -179.82298278808594 -65.17707824707031 -250.41497802734375 -12.55078125C-257.22999572753906 -7.4641876220703125 -258.5669708251953 -5.703460693359375 -258.5669708251953 -1.79071044921875C-258.5669708251953 2.1220245361328125 -257.22999572753906 3.8827667236328125 -250.41497802734375 8.969329833984375C-162.51498413085938 74.60292053222656 -116.37199401855469 182.43701171875 -116.37199401855469 309.6640167236328C-116.37199401855469 374.5170135498047 -128.3619842529297 444.41001892089844 -152.92298889160156 516.3209991455078C-177.93199157714844 589.4900054931641 -192.70298767089844 648.5720367431641 -203.4299774169922 718.4799957275391C-210.24497985839844 762.6610260009766 -213.3099822998047 795.1370391845703 -215.885986328125 849.0680084228516C-216.33499145507812 858.5900421142578 -216.54798889160156 871.1100006103516 -216.54798889160156 884.8770294189453C-216.54798889160156 911.0839996337891 -215.7749786376953 941.8100128173828 -214.385986328125 964.9829864501953C-202.19097900390625 1167.0799713134766 -136.65298461914062 1379.240005493164 -22.79168701171875 1584.990005493164C-16.237884521484375 1596.8600006103516 -15.35748291015625 1598.060073852539 -12.520782470703125 1599.1700592041016Z" fill="black" /></g></svg>