<?xml version="1.0" encoding="utf-8" ?>
<svg baseProfile="tiny" height="100%" version="1.2" width="100%" xmlns="http://www.w3.org/2000/svg" xmlns:ev="http://www.w3.org/2001/xml-events" xmlns:xlink="http://www.w3.org/1999/xlink"><defs /><g transform="translate(0, 1000) scale(1, -1)"><path d="M-13.327499389648438 3844.489990234375C-11.927978515625 3845.18994140625 -10.473190307617188 3845.52001953125 -9.059539794921875 3845.52001953125C-5.83135986328125 3845.52001953125 -2.8172607421875 3843.7900390625 -1.162872314453125 3840.7099609375C-0.4427947998046875 3839.360107421875 1.52587890625e-05 3838.27001953125 1.52587890625e-05 3836.929931640625C1.52587890625e-05 3834.050048828125 -2.0533294677734375 3830.02001953125 -7.8128662109375 3819.679931640625C-220.21298217773438 3438.02001953125 -327.40199279785156 2994.169921875 -327.40199279785156 2520.219970703125C-327.40199279785156 2174.5400390625 -270.38099670410156 1812.8399658203125 -155.57199096679688 1447.5799560546875C-148.6519775390625 1425.72998046875 -132.1079864501953 1375.8900146484375 -113.29399108886719 1320.52001953125C-74.85487365722656 1207.199951171875 -55.2764892578125 1087.1300048828125 -55.2764892578125 966.60498046875C-55.2764892578125 923.8790283203125 -57.73658752441406 881.0960083007812 -62.68878173828125 838.5349731445312C-100.15599060058594 516.739990234375 -278.7329864501953 217.760986328125 -560.6269989013672 4.8527984619140625C-567.0070037841797 0.041015625 -572.2509613037109 -4.121978759765625 -572.2509613037109 -4.3382415771484375C-572.2509613037109 -4.55450439453125 -567.0070037841797 -8.717514038085938 -560.6269989013672 -13.529312133789062C-278.7329864501953 -226.43701171875 -100.15599060058594 -525.4169921875 -62.68878173828125 -847.2109985351562C-57.732086181640625 -889.8109741210938 -55.268280029296875 -932.6300048828125 -55.268280029296875 -975.3900146484375C-55.268280029296875 -1095.8699951171875 -74.82737731933594 -1215.8800048828125 -113.29399108886719 -1329.199951171875C-192.66098022460938 -1563.030029296875 -234.34498596191406 -1719.77001953125 -271.37998962402344 -1923.9200439453125C-308.2909698486328 -2127.2900390625 -326.5809783935547 -2327.800048828125 -326.5809783935547 -2523.090087890625C-326.5809783935547 -2998.31005859375 -218.28298950195312 -3442.639892578125 -6.46124267578125 -3822.139892578125C-1.785308837890625 -3830.510009765625 -0.001312255859375 -3834.169921875 -0.001312255859375 -3836.909912109375C-0.001312255859375 -3838.260009765625 -0.4323577880859375 -3839.3798828125 -1.162872314453125 -3840.739990234375C-2.859161376953125 -3843.89990234375 -6.0338134765625 -3845.52001953125 -9.218017578125 -3845.52001953125C-12.123092651367188 -3845.52001953125 -15.036178588867188 -3844.169921875 -16.841690063476562 -3841.43994140625C-18.89617919921875 -3838.360107421875 -35.8184814453125 -3807.760009765625 -48.52378845214844 -3784.2900390625C-256.2419891357422 -3399.18994140625 -389.4039764404297 -2986.510009765625 -437.8999786376953 -2577.2900390625C-451.78297424316406 -2460.070068359375 -458.69297790527344 -2342.8701171875 -458.69297790527344 -2226.320068359375C-458.69297790527344 -1911.219970703125 -408.1859893798828 -1600.8499755859375 -308.4139862060547 -1307.5699462890625C-290.3569793701172 -1254.5400390625 -287.49098205566406 -1246.050048828125 -283.32798767089844 -1232.68994140625C-239.46798706054688 -1092.27001953125 -218.1949920654297 -952.4879760742188 -218.1949920654297 -818.677001953125C-218.1949920654297 -490.31201171875 -346.2939910888672 -197.89501953125 -583.0640106201172 -20.125213623046875C-593.2289886474609 -12.50201416015625 -598.3109588623047 -8.420150756835938 -598.3109588623047 -4.3382415771484375C-598.3109588623047 -0.25634765625 -593.2289886474609 3.8255615234375 -583.0640106201172 11.448684692382812C-379.0769805908203 164.614990234375 -251.48397827148438 406.33897399902344 -223.8569793701172 692.0189666748047C-220.10498046875 730.6879730224609 -218.24298095703125 769.9369964599609 -218.24298095703125 809.5629730224609C-218.24298095703125 956.6970062255859 -243.91998291015625 1109.030014038086 -293.9249725341797 1256.189926147461C-328.25599670410156 1357.3399505615234 -341.60997009277344 1400.219955444336 -359.7219696044922 1467.310043334961C-419.78797912597656 1690.3799896240234 -450.33497619628906 1898.0999603271484 -458.4989776611328 2138.259994506836C-459.22898864746094 2160.189926147461 -459.5859832763672 2185.040023803711 -459.5859832763672 2211.419906616211C-459.5859832763672 2269.020004272461 -457.88597106933594 2333.939926147461 -454.6599884033203 2391.820053100586C-428.32997131347656 2864.129867553711 -284.3009796142578 3352.939926147461 -39.548980712890625 3800.759994506836C-17.166091918945312 3841.679916381836 -16.4091796875 3842.979965209961 -13.327484130859375 3844.489974975586Z" fill="black" /></g></svg>