<?xml version="1.0" encoding="utf-8" ?>
<svg baseProfile="tiny" height="100%" version="1.2" width="100%" xmlns="http://www.w3.org/2000/svg" xmlns:ev="http://www.w3.org/2001/xml-events" xmlns:xlink="http://www.w3.org/1999/xlink"><defs /><g transform="translate(0, 1000) scale(1, -1)"><path d="M-17.365692138671875 398.8320007324219C-16.847396850585938 398.9119873046875 -16.336196899414062 398.95098876953125 -15.835296630859375 398.95098876953125C-10.87530517578125 398.95098876953125 -6.911285400390625 395.125 -6.891326904296875 389.9840087890625C-6.8910064697265625 389.91900634765625 -6.890838623046875 389.8559875488281 -6.890838623046875 389.7929992675781C-6.890838623046875 387.66400146484375 -7.090423583984375 387.0559997558594 -8.638885498046875 384.2690124511719C-11.485504150390625 379.125 -14.980606079101562 371.7829895019531 -17.552505493164062 365.5840148925781C-19.091293334960938 361.8580017089844 -22.751205444335938 351.9330139160156 -22.751205444335938 351.47198486328125C-22.751205444335938 351.4280090332031 -23.07000732421875 350.35101318359375 -23.454696655273438 349.0870056152344C-29.543899536132812 329.20098876953125 -32.59869384765625 307.65301513671875 -32.59869384765625 284.2070007324219C-32.59869384765625 243.62399291992188 -23.445892333984375 197.35299682617188 -5.033843994140625 144.1719970703125C-2.8026885986328125 137.7310028076172 -1.2199859619140625 131.86199951171875 -0.2857666015625 126.57499694824219L0.0 124.98200988769531L-0.0219879150390625 105.85700988769531L-0.054962158203125 86.74411010742188L-0.5825347900390625 84.22711181640625C-6.6385498046875 55.200103759765625 -23.79541015625 28.810806274414062 -51.15180969238281 6.4113006591796875L-53.51490783691406 4.4658966064453125L-57.15290832519531 1.52032470703125C-58.44981384277344 0.4761962890625 -59.51591491699219 -0.4250640869140625 -59.51591491699219 -0.469024658203125C-59.51591491699219 -0.51300048828125 -58.44981384277344 -1.41424560546875 -57.15290832519531 -2.4583892822265625L-53.51490783691406 -5.403961181640625L-51.15180969238281 -7.349365234375C-23.79541015625 -29.7489013671875 -6.6385498046875 -56.138092041015625 -0.5825347900390625 -85.16519165039062L-0.054962158203125 -87.68209838867188L-0.0219879150390625 -106.79499816894531L0.0 -125.91999816894531L-0.2857666015625 -127.51300048828125C-1.230987548828125 -132.86599731445312 -2.75872802734375 -138.51499938964844 -5.09979248046875 -145.30799865722656C-23.388702392578125 -198.38400268554688 -32.52330017089844 -244.52499389648438 -32.52330017089844 -284.96099853515625C-32.52330017089844 -322.7250061035156 -24.556396484375 -355.5119934082031 -8.638885498046875 -384.3280029296875C-7.3989715576171875 -386.572998046875 -6.7853240966796875 -388.4580078125 -6.7853240966796875 -390.2359924316406C-6.7853240966796875 -391.7040100097656 -7.2040557861328125 -393.0979919433594 -8.034378051757812 -394.55999755859375C-9.686737060546875 -397.4729919433594 -12.794097900390625 -398.95098876953125 -15.886398315429688 -398.95098876953125C-18.779693603515625 -398.95098876953125 -21.659896850585938 -397.6570129394531 -23.322799682617188 -395.0329895019531C-24.597702026367188 -393.0320129394531 -31.445098876953125 -380.3599853515625 -35.56669616699219 -372.4020080566406C-66.51290893554688 -312.5169982910156 -81.68939208984375 -258.68701171875 -81.68939208984375 -207.197998046875C-81.68939208984375 -184.25999450683594 -78.67709350585938 -161.78599548339844 -72.70500183105469 -139.44900512695312C-71.16629028320312 -133.7010040283203 -70.1221923828125 -130.33799743652344 -67.16560363769531 -121.62200927734375C-59.299102783203125 -98.46949768066406 -55.46040344238281 -79.19931030273438 -55.46040344238281 -62.62890625C-55.46040344238281 -58.8258056640625 -55.66259765625 -55.16490173339844 -56.06480407714844 -51.631805419921875C-58.109100341796875 -33.617706298828125 -66.33029174804688 -18.164398193359375 -78.94790649414062 -8.646286010742188C-82.57489013671875 -5.8985443115234375 -83.67401123046875 -4.01910400390625 -83.67401123046875 -0.469024658203125C-83.67401123046875 3.0810394287109375 -82.57489013671875 4.9604949951171875 -78.94790649414062 7.7082366943359375C-66.33029174804688 17.226394653320312 -58.109100341796875 32.679595947265625 -56.06480407714844 50.69380187988281C-55.6632080078125 54.22200012207031 -55.461395263671875 57.878509521484375 -55.461395263671875 61.67720031738281C-55.461395263671875 78.25588989257812 -59.30560302734375 97.54209899902344 -67.16560363769531 120.68399047851562C-71.71589660644531 134.08200073242188 -74.40859985351562 143.875 -76.705810546875 155.3280029296875C-79.42050170898438 168.91200256347656 -80.80538940429688 180.57400512695312 -81.55279541015625 196.32400512695312C-81.69270324707031 199.22999572753906 -81.76069641113281 202.42100524902344 -81.76069641113281 205.7760009765625C-81.76069641113281 215.06900024414062 -81.23880004882812 225.6230010986328 -80.27780151367188 234.90199279785156C-75.69461059570312 279.3599853515625 -60.010498046875 326.2699890136719 -32.115509033203125 378.93798828125C-29.15899658203125 384.5220031738281 -24.081100463867188 393.7980041503906 -23.322799682617188 394.9739990234375C-22.135696411132812 396.8529968261719 -19.607803344726562 398.4909973144531 -17.365692138671875 398.8320007324219Z" fill="black" /></g></svg>