<?xml version="1.0" encoding="utf-8" ?>
<svg baseProfile="tiny" height="100%" version="1.2" width="100%" xmlns="http://www.w3.org/2000/svg" xmlns:ev="http://www.w3.org/2001/xml-events" xmlns:xlink="http://www.w3.org/1999/xlink"><defs /><g transform="translate(0, 1000) scale(1, -1)"><path d="M-13.449005126953125 10144.900390625C-11.983993530273438 10145.5 -10.511993408203125 10145.7998046875 -9.108322143554688 10145.7998046875C-5.5426025390625 10145.7998046875 -2.4174041748046875 10143.7998046875 -0.966705322265625 10140.2998046875C-0.487823486328125 10139.099609375 -0.132904052734375 10138.2998046875 -0.132904052734375 10137.099609375C-0.132904052734375 10133.599609375 -3.4090118408203125 10127.7001953125 -16.437698364257812 10104.2998046875C-438.72499084472656 9344.580078125 -715.9730072021484 8504.9296875 -842.2020111083984 7603.919921875C-893.1840057373047 7240.06005859375 -918.4860076904297 6868.3798828125 -918.4860076904297 6492.39013671875C-918.4860076904297 5505.06005859375 -744.0070037841797 4488.08984375 -401.8939971923828 3505.429931640625C-331.4829864501953 3303.25 -288.4989776611328 3131.75 -259.1389923095703 2935.3701171875C-236.93898010253906 2787.159912109375 -226.02899169921875 2638.840087890625 -226.02899169921875 2491.39990234375C-226.02899169921875 1605.550048828125 -619.8779907226562 751.7750244140625 -1324.8800048828125 146.552001953125C-1381.489990234375 97.94129943847656 -1475.4599609375 23.574996948242188 -1522.219970703125 -9.56451416015625L-1524.4200439453125 -11.14678955078125L-1522.219970703125 -12.641082763671875C-1475.4599609375 -45.868560791015625 -1381.489990234375 -120.23497009277344 -1324.8800048828125 -168.844970703125C-664.6370239257812 -735.64599609375 -270.8299865722656 -1526.3399658203125 -229.60299682617188 -2367.840087890625C-227.13999938964844 -2418.31005859375 -225.9029998779297 -2468.4599609375 -225.9029998779297 -2518.3798828125C-225.9029998779297 -2858.610107421875 -283.3819885253906 -3187.510009765625 -401.8940124511719 -3527.719970703125C-625.52001953125 -4170.2099609375 -779.2630004882812 -4835.02001953125 -856.7059936523438 -5495.0C-896.5079956054688 -5834.080078125 -916.27197265625 -6170.02001953125 -916.27197265625 -6501.35009765625C-916.27197265625 -7803.9599609375 -610.7750244140625 -9035.0703125 -16.43768310546875 -10103.7998046875C-4.83538818359375 -10124.599609375 1.52587890625e-05 -10133.7001953125 1.52587890625e-05 -10138.5C1.52587890625e-05 -10141.599609375 -2.0533447265625 -10142.7998046875 -5.625579833984375 -10144.2998046875C-7.59375 -10145.099609375 -9.054122924804688 -10145.7998046875 -10.45208740234375 -10145.7998046875C-14.985382080078125 -10145.7998046875 -18.861892700195312 -10138.599609375 -37.270782470703125 -10105.5C-605.8299865722656 -9082.6796875 -962.2779846191406 -7958.490234375 -1074.7900085449219 -6833.330078125C-1076.7299499511719 -6813.72021484375 -1078.4899597167969 -6796.93017578125 -1078.7499694824219 -6795.8798828125C-1080.5999450683594 -6787.35009765625 -1092.8999938964844 -6639.5 -1097.9999694824219 -6563.89990234375C-1110.4200134277344 -6380.2001953125 -1116.6199645996094 -6197.3798828125 -1116.6199645996094 -6015.41015625C-1116.6199645996094 -5133.14013671875 -970.6749572753906 -4270.93994140625 -678.5259704589844 -3426.18994140625C-564.7789611816406 -3097.35009765625 -503.4219665527344 -2800.22998046875 -482.4129638671875 -2476.840087890625C-477.7609558105469 -2405.300048828125 -475.458984375 -2334.179931640625 -475.458984375 -2263.580078125C-475.458984375 -1347.0699462890625 -863.3519592285156 -518.8909912109375 -1531.6299743652344 -29.51861572265625C-1544.1499938964844 -20.332717895507812 -1550.4200134277344 -15.739715576171875 -1550.4200134277344 -11.146820068359375C-1550.4200134277344 -6.5538482666015625 -1544.1499938964844 -1.9608917236328125 -1531.6299743652344 7.225006103515625C-965.7059631347656 421.6889953613281 -592.3799743652344 1088.3500061035156 -499.46697998046875 1850.6500549316406C-483.45697021484375 1982.0300598144531 -475.4559631347656 2113.780059814453 -475.4559631347656 2245.810089111328C-475.4559631347656 2626.300079345703 -541.8989562988281 3009.139923095703 -674.5699768066406 3392.470001220703C-750.1669616699219 3610.909942626953 -803.6999816894531 3785.750030517578 -858.1119689941406 3992.409942626953C-1031.6099548339844 4651.149932861328 -1118.7799987792969 5326.689971923828 -1118.7799987792969 6009.609893798828C-1118.7799987792969 6207.649932861328 -1111.4499206542969 6406.299835205078 -1096.7699890136719 6605.339874267578C-1092.3699645996094 6664.230010986328 -1082.5299987792969 6779.209991455078 -1081.3899841308594 6784.220245361328C-1081.2099304199219 6785.189971923828 -1079.1899108886719 6803.819854736328 -1076.9899597167969 6825.540069580078C-962.0139465332031 7958.259796142578 -609.2579650878906 9074.459991455078 -44.303070068359375 10093.299835205078C-16.52557373046875 10143.500030517578 -16.52557373046875 10143.400421142578 -13.448974609375 10144.900421142578Z" fill="black" /></g></svg>