<?xml version="1.0" encoding="utf-8" ?>
<svg baseProfile="tiny" height="100%" version="1.2" width="100%" xmlns="http://www.w3.org/2000/svg" xmlns:ev="http://www.w3.org/2001/xml-events" xmlns:xlink="http://www.w3.org/1999/xlink"><defs /><g transform="translate(0, 1000) scale(1, -1)"><path d="M-13.645904541015625 4247.52978515625C-12.244705200195312 4248.22021484375 -10.80230712890625 4248.52978515625 -9.40423583984375 4248.52978515625C-4.4250640869140625 4248.52978515625 -0.007110595703125 4244.60009765625 -0.007110595703125 4239.68994140625C-0.007110595703125 4238.9501953125 -0.106842041015625 4238.18994140625 -0.319366455078125 4237.41015625C-0.65673828125 4236.22998046875 -4.76153564453125 4228.2998046875 -9.48486328125 4219.81005859375C-244.9499969482422 3794.85009765625 -364.58599853515625 3303.75 -364.58599853515625 2777.330078125C-364.58599853515625 2523.969970703125 -336.87200927734375 2262.419921875 -281.0199890136719 1996.1400146484375C-243.68299865722656 1817.8299560546875 -201.11700439453125 1665.9000244140625 -131.8419952392578 1463.4100341796875C-87.11869812011719 1332.739990234375 -65.27220153808594 1198.72998046875 -65.27220153808594 1065.52001953125C-65.27220153808594 731.7949829101562 -202.3979949951172 403.0929870605469 -460.4509735107422 144.47702026367188C-513.7009735107422 91.1151123046875 -575.3289642333984 37.8651123046875 -628.5789642333984 -0.877410888671875C-631.4749603271484 -2.9579315185546875 -632.9219818115234 -3.85760498046875 -632.9219818115234 -4.7572784423828125C-632.9219818115234 -5.6569671630859375 -631.4749603271484 -6.5566558837890625 -628.5789642333984 -8.637161254882812C-575.3289642333984 -47.37968444824219 -513.7009735107422 -100.62998962402344 -460.4509735107422 -153.9919891357422C-202.43296813964844 -412.61399841308594 -65.23516845703125 -741.5139617919922 -65.23516845703125 -1075.290023803711C-65.23516845703125 -1207.770004272461 -86.8521728515625 -1341.030014038086 -131.1109619140625 -1470.959945678711L-147.52996826171875 -1519.030014038086C-289.97998046875 -1937.219955444336 -363.57696533203125 -2369.759994506836 -363.57696533203125 -2783.090072631836C-363.57696533203125 -2859.060043334961 -361.0899658203125 -2934.389877319336 -356.08697509765625 -3008.850082397461C-326.6229553222656 -3448.350082397461 -208.3709716796875 -3861.409896850586 -9.484832763671875 -4219.770004272461C-4.761505126953125 -4228.259750366211 -0.656707763671875 -4236.189926147461 -0.3193359375 -4237.310043334961C-0.1015625 -4238.109848022461 3.0517578125e-05 -4238.890121459961 3.0517578125e-05 -4239.640121459961C3.0517578125e-05 -4244.720199584961 -4.6461334228515625 -4248.529769897461 -9.424972534179688 -4248.529769897461C-11.602767944335938 -4248.529769897461 -13.80816650390625 -4247.740219116211 -15.613967895507812 -4245.919906616211C-16.569869995117188 -4244.959945678711 -23.204971313476562 -4233.540023803711 -30.4024658203125 -4220.560043334961C-342.4399719238281 -3656.070053100586 -501.2659606933594 -3053.259994506836 -501.2659606933594 -2464.129867553711C-501.2659606933594 -2113.719955444336 -445.0759582519531 -1768.1399993896484 -331.5149841308594 -1438.3399505615234C-301.7129821777344 -1351.689926147461 -287.823974609375 -1304.520004272461 -273.2599792480469 -1240.1299896240234C-247.90696716308594 -1127.979965209961 -235.55596923828125 -1017.2499847412109 -235.55596923828125 -910.0800018310547C-235.55596923828125 -542.5930023193359 -380.7869567871094 -217.0129852294922 -644.9979553222656 -19.714492797851562C-654.5289611816406 -12.60137939453125 -659.2939758300781 -8.679336547851562 -659.2939758300781 -4.7572784423828125C-659.2939758300781 -0.835235595703125 -654.5289611816406 3.086822509765625 -644.9979553222656 10.199920654296875C-380.7869567871094 207.49801635742188 -235.55596923828125 533.0780334472656 -235.55596923828125 900.5650329589844C-235.55596923828125 1007.7300109863281 -247.90696716308594 1118.4700012207031 -273.2599792480469 1230.6200256347656C-287.823974609375 1295.0000305175781 -301.8819580078125 1342.6899719238281 -331.57098388671875 1428.8299865722656C-444.4249572753906 1756.2600402832031 -502.06097412109375 2105.500030517578 -502.06097412109375 2462.060089111328C-502.06097412109375 2535.159942626953 -501.3299560546875 2566.649932861328 -498.1249694824219 2629.340118408203C-470.6839599609375 3169.379913330078 -309.75396728515625 3716.220001220703 -29.277862548828125 4222.620147705078C-16.907272338867188 4244.950225830078 -16.063766479492188 4246.350128173828 -13.6458740234375 4247.529815673828Z" fill="black" /></g></svg>