<?xml version="1.0" encoding="utf-8" ?>
<svg baseProfile="tiny" height="100%" version="1.2" width="100%" xmlns="http://www.w3.org/2000/svg" xmlns:ev="http://www.w3.org/2001/xml-events" xmlns:xlink="http://www.w3.org/1999/xlink"><defs /><g transform="translate(0, 1000) scale(1, -1)"><path d="M-13.40240478515625 9619.48046875C-12.036895751953125 9620.0703125 -10.655792236328125 9620.33984375 -9.325408935546875 9620.33984375C-4.3006134033203125 9620.33984375 0.0 9616.48046875 0.0 9611.5C0.0 9610.849609375 -0.0729217529296875 9610.1904296875 -0.226654052734375 9609.509765625C-0.4867095947265625 9608.1201171875 -5.86102294921875 9597.98046875 -12.0155029296875 9586.7998046875C-576.8989868164062 8574.9697265625 -868.1790161132812 7408.7001953125 -868.1790161132812 6159.7001953125C-868.1790161132812 6147.3701171875 -868.1500244140625 6135.0400390625 -868.093017578125 6122.7001953125C-867.572998046875 6020.41015625 -867.1400146484375 5992.759765625 -864.885986328125 5916.39013671875C-839.22802734375 5064.39013671875 -674.3579711914062 4182.0498046875 -384.4909973144531 3345.3798828125C-274.2309875488281 3027.35009765625 -228.0290069580078 2791.739990234375 -212.85899353027344 2470.760009765625C-212.07899475097656 2455.409912109375 -211.73199462890625 2419.090087890625 -211.73199462890625 2365.0C-211.73199462890625 2283.610107421875 -211.99200439453125 2273.1201171875 -215.1999969482422 2211.580078125C-258.8009948730469 1389.8199462890625 -664.1290283203125 613.4080200195312 -1328.6400146484375 78.57568359375C-1361.3199462890625 52.31077575683594 -1423.0400390625 4.9820709228515625 -1441.0699462890625 -7.5869293212890625C-1443.3199462890625 -9.103866577148438 -1444.449951171875 -9.819000244140625 -1444.449951171875 -10.53411865234375C-1444.449951171875 -11.249313354492188 -1443.3199462890625 -11.96441650390625 -1441.0699462890625 -13.481307983398438C-1432.4000244140625 -19.549118041992188 -1388.3599853515625 -52.74861145019531 -1368.25 -68.35142517089844C-681.1190185546875 -603.0099945068359 -259.7550048828125 -1393.9000091552734 -215.1999969482422 -2232.639877319336C-211.99200439453125 -2294.189926147461 -211.73199462890625 -2304.679916381836 -211.73199462890625 -2386.070053100586C-211.73199462890625 -2467.469955444336 -211.99200439453125 -2478.219955444336 -215.1999969482422 -2539.499984741211C-229.8489990234375 -2813.499984741211 -280.6449890136719 -3066.790023803711 -376.6029968261719 -3343.479965209961C-704.1790161132812 -4287.979965209961 -866.7310180664062 -5243.740219116211 -866.7310180664062 -6168.160140991211C-866.7310180664062 -7396.129867553711 -579.8939819335938 -8568.780258178711 -12.0155029296875 -9586.190414428711C-3.811004638671875 -9600.990219116211 -0.1075897216796875 -9608.480453491211 -0.1075897216796875 -9612.839828491211C-0.1075897216796875 -9615.990219116211 -2.038848876953125 -9617.509750366211 -5.600982666015625 -9618.959945678711C-7.4808197021484375 -9619.749984741211 -8.936447143554688 -9620.339828491211 -10.3096923828125 -9620.339828491211C-14.825393676757812 -9620.339828491211 -18.450302124023438 -9613.950180053711 -33.33940124511719 -9587.230453491211C-576.2329559326172 -8612.660140991211 -915.5949554443359 -7543.259750366211 -1023.0800018310547 -6468.390121459961C-1025.249984741211 -6446.720199584961 -1027.5899505615234 -6423.839828491211 -1028.280014038086 -6417.680160522461C-1032.6199798583984 -6380.499984741211 -1042.3299407958984 -6256.629867553711 -1047.3499603271484 -6176.270004272461C-1057.280014038086 -6016.049789428711 -1062.239974975586 -5856.660140991211 -1062.239974975586 -5698.040023803711C-1062.239974975586 -4860.479965209961 -923.7910003662109 -4044.409896850586 -645.7519989013672 -3241.629867553711C-544.1599578857422 -2948.120101928711 -486.4299774169922 -2675.679916381836 -464.0659942626953 -2383.909896850586C-457.8769989013672 -2303.270004272461 -454.8199920654297 -2223.159896850586 -454.8199920654297 -2143.759994506836C-454.8199920654297 -1270.0999603271484 -824.8239593505859 -482.22801208496094 -1462.739974975586 -21.196121215820312C-1468.0699310302734 -17.338714599609375 -1470.729965209961 -13.958114624023438 -1470.729965209961 -10.566619873046875C-1470.729965209961 -7.1751861572265625 -1468.0699310302734 -3.77288818359375 -1462.739974975586 0.127838134765625C-977.5739593505859 351.3659973144531 -639.3379974365234 898.3340148925781 -511.6539764404297 1538.0500793457031C-473.68397521972656 1728.2700500488281 -454.8269805908203 1924.1100158691406 -454.8269805908203 2122.189971923828C-454.8269805908203 2476.709991455078 -515.2299652099609 2838.429962158203 -634.5699920654297 3188.060089111328L-657.5410003662109 3254.800079345703C-927.1439666748047 4036.169952392578 -1064.3299407958984 4862.649932861328 -1064.3299407958984 5695.020050048828C-1064.3299407958984 5914.410186767578 -1054.800033569336 6134.220245361328 -1035.6500091552734 6353.709991455078C-1032.6199798583984 6387.689971923828 -1032.270004272461 6391.410186767578 -1025.6800384521484 6455.990264892578C-914.2949676513672 7548.970245361328 -579.8740081787109 8605.459991455078 -35.76646423339844 9583.500030517578C-16.696365356445312 9617.740264892578 -16.436264038085938 9618.179718017578 -13.402374267578125 9619.480499267578Z" fill="black" /></g></svg>