<?xml version="1.0" encoding="utf-8" ?>
<svg baseProfile="tiny" height="100%" version="1.2" width="100%" xmlns="http://www.w3.org/2000/svg" xmlns:ev="http://www.w3.org/2001/xml-events" xmlns:xlink="http://www.w3.org/1999/xlink"><defs /><g transform="translate(0, 1000) scale(1, -1)"><path d="M-20.2095947265625 570.97900390625C-19.5657958984375 571.1190185546875 -18.927597045898438 571.1859741210938 -18.302398681640625 571.1859741210938C-13.496597290039062 571.1859741210938 -9.451156616210938 567.22998046875 -9.451156616210938 562.0800170898438L-9.4512939453125 562.0269775390625C-9.467147827148438 559.666015625 -9.625595092773438 559.1749877929688 -11.796295166015625 555.2930297851562C-35.77839660644531 512.1409912109375 -47.77040100097656 462.1300048828125 -47.77040100097656 405.05499267578125C-47.77040100097656 346.55499267578125 -35.172393798828125 280.63299560546875 -9.974166870117188 207.06700134277344C-3.905792236328125 189.35299682617188 -1.3390045166015625 177.10499572753906 -0.3883514404296875 161.4040069580078C-0.1943817138671875 158.17999267578125 -0.0977020263671875 154.96499633789062 -0.0977020263671875 151.75999450683594C-0.0977020263671875 111.51899719238281 -15.346405029296875 72.97189331054688 -44.60980224609375 39.48179626464844C-55.5740966796875 26.91729736328125 -67.23550415039062 15.968902587890625 -83.34919738769531 3.0715789794921875C-85.83670043945312 1.0751953125 -87.86480712890625 -0.6042938232421875 -87.86480712890625 -0.6835174560546875C-87.86480712890625 -0.7627410888671875 -85.83670043945312 -2.4422454833984375 -83.34919738769531 -4.4386138916015625C-32.99589538574219 -44.746490478515625 -7.5182952880859375 -85.03860473632812 -1.2122650146484375 -134.3300018310547C-0.4059600830078125 -140.61099243164062 0.0 -146.86199951171875 0.0 -153.13600158691406C0.0 -170.9029998779297 -3.25567626953125 -188.85699462890625 -9.894943237304688 -208.21200561523438C-30.920303344726562 -269.3869934082031 -43.23139953613281 -325.6340026855469 -46.733001708984375 -376.4309997558594C-47.395599365234375 -386.02099609375 -47.725494384765625 -395.4800109863281 -47.725494384765625 -404.7950134277344C-47.725494384765625 -461.4079895019531 -35.53839111328125 -512.6710205078125 -11.796295166015625 -555.3930053710938C-10.115493774414062 -558.4030151367188 -9.317535400390625 -560.52001953125 -9.317535400390625 -562.4749755859375C-9.317535400390625 -563.8740234375 -9.726333618164062 -565.1890258789062 -10.512893676757812 -566.6900024414062C-12.014892578125 -569.552978515625 -15.123504638671875 -571.1859741210938 -18.3760986328125 -571.1859741210938C-19.8927001953125 -571.1859741210938 -21.440505981445312 -570.8309936523438 -22.87139892578125 -570.0800170898438C-24.741104125976562 -569.0980224609375 -25.501602172851562 -568.0999755859375 -28.480300903320312 -562.72900390625C-81.63690185546875 -466.7409973144531 -106.8070068359375 -383.0880126953125 -106.8070068359375 -301.65301513671875C-106.8070068359375 -294.61199951171875 -106.61900329589844 -287.5870056152344 -106.24400329589844 -280.572998046875C-104.47000122070312 -247.28399658203125 -97.98930358886719 -213.53599548339844 -87.45278930664062 -182.5760040283203C-79.5465087890625 -159.3800048828125 -76.060791015625 -146.41900634765625 -72.89190673828125 -128.38900756835938C-70.83999633789062 -116.72900390625 -69.82669067382812 -105.5780029296875 -69.82669067382812 -95.02580261230469C-69.82669067382812 -57.587005615234375 -82.58219909667969 -27.6864013671875 -106.95700073242188 -9.31866455078125C-111.23500061035156 -6.102264404296875 -112.26499938964844 -4.4227752685546875 -112.26499938964844 -0.6835174560546875C-112.26499938964844 3.0557403564453125 -111.23500061035156 4.7352447509765625 -106.95700073242188 7.951629638671875C-87.61129760742188 22.528396606445312 -74.79319763183594 45.91459655761719 -71.085693359375 73.32530212402344C-70.2200927734375 79.73080444335938 -69.78500366210938 86.37091064453125 -69.78500366210938 93.27690124511719C-69.78500366210938 118.22900390625 -75.46609497070312 146.6510009765625 -87.05670166015625 180.02099609375C-100.26100158691406 218.03500366210938 -106.89801025390625 258.7959899902344 -106.89801025390625 300.7130126953125C-106.89801025390625 330.6199951171875 -103.51998901367188 361.114990234375 -96.73760986328125 391.62200927734375C-86.91409301757812 435.7959899902344 -68.32879638671875 485.9590148925781 -44.720703125 532.0020141601562L-41.52020263671875 538.260986328125C-34.10499572753906 552.7579956054688 -26.182891845703125 567.0969848632812 -24.852005004882812 568.4439697265625C-23.536895751953125 569.7750244140625 -22.031707763671875 570.5989990234375 -20.2095947265625 570.97900390625Z" fill="black" /></g></svg>