<?xml version="1.0" encoding="utf-8" ?>
<svg baseProfile="tiny" height="100%" version="1.2" width="100%" xmlns="http://www.w3.org/2000/svg" xmlns:ev="http://www.w3.org/2001/xml-events" xmlns:xlink="http://www.w3.org/1999/xlink"><defs /><g transform="translate(0, 1000) scale(1, -1)"><path d="M-15.130599975585938 11059C-13.502182006835938 11060.400390625 -11.455886840820312 11061.099609375 -9.379852294921875 11061.099609375C-6.9847412109375 11061.099609375 -4.5499267578125 11060.2001953125 -2.6712646484375 11058.2998046875C-1.064697265625 11056.7001953125 -0.004791259765625 11055.5 -0.004791259765625 11053.400390625C-0.004791259765625 11048.900390625 -4.688232421875 11040.400390625 -18.822280883789062 11015.0C-244.47499084472656 10608.599609375 -431.4569854736328 10183.7998046875 -581.0609588623047 9737.099609375C-863.4269866943359 8894.4404296875 -1005.3099822998047 7993.2001953125 -1005.3099822998047 7064.7900390625C-1005.3099822998047 6412.22998046875 -935.2129974365234 5746.25 -794.5309906005859 5077.77001953125C-703.6240081787109 4646.1201171875 -589.9210052490234 4239.580078125 -435.7939910888672 3795.3798828125C-325.0449981689453 3476.050048828125 -268.28599548339844 3172.68994140625 -253.61097717285156 2820.7900390625C-252.8269805908203 2802.330078125 -252.4349822998047 2756.85009765625 -252.4349822998047 2711.43994140625C-252.4349822998047 2666.0400390625 -252.8269805908203 2620.699951171875 -253.61097717285156 2602.52001953125C-268.93199157714844 2241.3798828125 -327.7209930419922 1933.5 -443.45497131347656 1607.989990234375C-668.4609832763672 975.791015625 -1097.520004272461 401.3699951171875 -1642.499984741211 2.6710205078125C-1653.300033569336 -5.1737518310546875 -1662.0699310302734 -11.818710327148438 -1662.0699310302734 -12.095611572265625C-1662.0699310302734 -12.37249755859375 -1653.300033569336 -19.01739501953125 -1642.499984741211 -26.862197875976562C-1098.1700286865234 -424.72999572753906 -668.3690032958984 -1000.0699615478516 -443.45497131347656 -1632.1800079345703C-327.7209930419922 -1957.6898956298828 -268.93199157714844 -2265.570022583008 -253.61097717285156 -2626.709915161133C-252.8269805908203 -2644.889846801758 -252.4349822998047 -2690.229934692383 -252.4349822998047 -2735.639846801758C-252.4349822998047 -2781.039993286133 -252.8269805908203 -2826.519973754883 -253.61097717285156 -2844.979934692383C-268.28599548339844 -3196.879837036133 -325.0449981689453 -3500.149856567383 -435.7939910888672 -3819.570022583008C-587.6139984130859 -4256.939895629883 -699.7479705810547 -4656.749954223633 -789.5469818115234 -5080.269973754883C-932.2559661865234 -5753.249954223633 -1002.9299774169922 -6421.850051879883 -1002.9299774169922 -7075.609817504883C-1002.9299774169922 -8492.269485473633 -671.0619964599609 -9839.259719848633 -21.129501342773438 -11010.200149536133C-5.1192169189453125 -11038.900344848633 0.0 -11048.200149536133 0.0 -11052.799758911133C0.0 -11054.900344848633 -1.075775146484375 -11055.999954223633 -2.6712799072265625 -11057.599563598633C-4.9310760498046875 -11059.799758911133 -6.8872528076171875 -11061.099563598633 -8.889114379882812 -11061.099563598633C-13.509506225585938 -11061.099563598633 -18.373199462890625 -11054.400344848633 -27.774505615234375 -11037.700149536133C-653.2330017089844 -9919.940383911133 -1044.4599914550781 -8686.190383911133 -1167.0200500488281 -7444.779739379883L-1173.9399719238281 -7375.560012817383C-1189.4499816894531 -7226.879837036133 -1203.6600646972656 -6977.689895629883 -1209.1999816894531 -6753.519973754883C-1209.9800109863281 -6722.870071411133 -1210.3700256347656 -6648.259719848633 -1210.3700256347656 -6573.620071411133C-1210.3700256347656 -6498.979934692383 -1209.9800109863281 -6424.310012817383 -1209.1999816894531 -6393.580032348633C-1185.9399719238281 -5457.189895629883 -1032.1800842285156 -4604.600051879883 -728.8190002441406 -3729.590042114258C-642.8960266113281 -3481.789993286133 -584.9370422363281 -3247.179885864258 -550.0510559082031 -3005.749954223633C-524.1990051269531 -2826.779983520508 -511.5230407714844 -2649.539993286133 -511.5230407714844 -2475.360061645508C-511.5230407714844 -1476.7899932861328 -928.1300354003906 -578.7279815673828 -1667.0500793457031 -32.49195861816406C-1687.1700744628906 -17.633056640625 -1688.0000305175781 -16.802352905273438 -1688.0000305175781 -12.095550537109375C-1688.0000305175781 -7.48095703125 -1686.9900207519531 -6.4657440185546875 -1670.7400207519531 5.5321197509765625C-926.8860168457031 552.8260650634766 -511.37103271484375 1456.5301055908203 -511.37103271484375 2451.1299591064453C-511.37103271484375 2716.4600372314453 -540.9400329589844 2988.2500762939453 -601.7340393066406 3261.4800567626953C-635.8820495605469 3414.8701934814453 -673.3520202636719 3545.1800079345703 -732.9730529785156 3717.3999786376953C-1052.9200744628906 4641.790115356445 -1213.3399963378906 5591.890213012695 -1213.3399963378906 6560.680252075195C-1213.3399963378906 6744.060134887695 -1207.5899963378906 6928.120193481445 -1196.0899963378906 7112.790115356445C-1190.9200744628906 7195.580154418945 -1179.9399719238281 7336.879959106445 -1176.7099914550781 7362.899978637695C-1176.1600646972656 7367.240310668945 -1174.0300598144531 7388.190017700195 -1172.0000305175781 7409.509841918945C-1052.2099914550781 8663.379959106445 -659.2320251464844 9909.780349731445 -27.774505615234375 11038.400466918945C-22.052505493164062 11048.599685668945 -16.422698974609375 11057.799880981445 -15.130599975585938 11059.000076293945Z" fill="black" /></g></svg>