<?xml version="1.0" encoding="utf-8" ?>
<svg baseProfile="tiny" height="100%" version="1.2" width="100%" xmlns="http://www.w3.org/2000/svg" xmlns:ev="http://www.w3.org/2001/xml-events" xmlns:xlink="http://www.w3.org/1999/xlink"><defs /><g transform="translate(0, 1000) scale(1, -1)"><path d="M-16.537704467773438 971.843994140625C-15.991912841796875 971.9349975585938 -15.452621459960938 971.97900390625 -14.923507690429688 971.97900390625C-9.928009033203125 971.97900390625 -5.845184326171875 968.06298828125 -5.845184326171875 962.8610229492188C-5.845184326171875 960.3909912109375 -6.0080108642578125 960.0659790039062 -10.56732177734375 951.760986328125C-54.15180969238281 872.3709716796875 -76.63520812988281 777.14501953125 -76.63520812988281 673.125C-76.63520812988281 653.7589721679688 -75.85591125488281 634.0880126953125 -74.28851318359375 614.1580200195312C-67.44961547851562 526.85400390625 -49.13111877441406 443.7829895019531 -14.25811767578125 341.552001953125C-4.734039306640625 313.677001953125 -1.52587890625e-05 284.614013671875 -1.52587890625e-05 255.45899963378906C-1.52587890625e-05 217.656005859375 -7.9595794677734375 179.69900512695312 -23.756607055664062 143.98399353027344C-46.44441223144531 92.71920776367188 -87.12501525878906 43.30000305175781 -140.18101501464844 2.64654541015625C-142.7320098876953 0.665435791015625 -144.84901428222656 -0.9900054931640625 -144.84901428222656 -1.0714263916015625C-144.84901428222656 -1.1528472900390625 -142.7320098876953 -2.80828857421875 -140.18101501464844 -4.789398193359375C-87.12501525878906 -45.442901611328125 -46.44441223144531 -94.86209106445312 -23.756607055664062 -146.1269989013672C-7.9595794677734375 -181.8419952392578 -1.52587890625e-05 -219.7989959716797 -1.52587890625e-05 -257.60198974609375C-1.52587890625e-05 -286.7560119628906 -4.734039306640625 -315.82000732421875 -14.25811767578125 -343.69500732421875C-39.496917724609375 -417.7019958496094 -54.12461853027344 -474.0409851074219 -64.79002380371094 -538.4140014648438C-72.51850891113281 -585.10400390625 -76.36201477050781 -630.3400268554688 -76.36201477050781 -673.8070068359375C-76.36201477050781 -778.0889892578125 -54.23960876464844 -872.1840209960938 -10.56732177734375 -951.7329711914062C-6.0080108642578125 -960.0369873046875 -5.845184326171875 -960.3629760742188 -5.845184326171875 -962.8330078125C-5.845184326171875 -968.1170043945312 -10.079315185546875 -971.97900390625 -14.855514526367188 -971.97900390625C-16.088821411132812 -971.97900390625 -17.35821533203125 -971.7210083007812 -18.600311279296875 -971.1640014648438C-21.666915893554688 -969.780029296875 -22.23681640625 -968.9119873046875 -33.68931579589844 -947.6079711914062C-104.4940185546875 -816.176025390625 -143.7360076904297 -687.8920288085938 -150.1680145263672 -566.7730102539062C-150.77301025390625 -555.1539916992188 -151.0980224609375 -539.1339721679688 -151.0980224609375 -524.8829956054688C-151.0980224609375 -514.8699951171875 -150.93801879882812 -505.7309875488281 -150.60202026367188 -499.6059875488281C-148.94601440429688 -469.75299072265625 -147.42701721191406 -453.87701416015625 -144.06201171875 -431.4880065917969C-137.7930145263672 -389.6679992675781 -129.2980194091797 -354.9849853515625 -114.88801574707031 -312.4859924316406C-100.77601623535156 -270.8280029296875 -93.77391052246094 -238.9949951171875 -90.76152038574219 -202.7100067138672C-90.03311157226562 -193.968994140625 -89.67240905761719 -185.3780059814453 -89.67240905761719 -176.95399475097656C-89.67240905761719 -105.97900390625 -115.27801513671875 -46.94380187988281 -162.2440185546875 -11.112701416015625C-168.45901489257812 -6.39056396484375 -169.38201904296875 -5.1150665283203125 -169.38201904296875 -1.0714263916015625C-169.38201904296875 2.9722137451171875 -168.45901489257812 4.2477264404296875 -162.2440185546875 8.969818115234375C-115.27801513671875 44.8009033203125 -89.67240905761719 103.83599853515625 -89.67240905761719 174.81100463867188C-89.67240905761719 183.23500061035156 -90.03311157226562 191.82699584960938 -90.76152038574219 200.5679931640625C-93.80101013183594 237.28599548339844 -100.31401062011719 266.8399963378906 -115.15901184082031 311.1570129394531C-122.97502136230469 334.468994140625 -126.31301879882812 345.7040100097656 -131.1710205078125 364.864013671875C-144.67201232910156 417.9939880371094 -151.4130096435547 472.33099365234375 -151.4130096435547 527.780029296875C-151.4130096435547 661.7000122070312 -112.08900451660156 802.10302734375 -33.68931579589844 947.635986328125C-21.314117431640625 970.6220092773438 -20.988418579101562 971.083984375 -16.5377197265625 971.843994140625Z" fill="black" /></g></svg>