<?xml version="1.0" encoding="utf-8" ?>
<svg baseProfile="tiny" height="100%" version="1.2" width="100%" xmlns="http://www.w3.org/2000/svg" xmlns:ev="http://www.w3.org/2001/xml-events" xmlns:xlink="http://www.w3.org/1999/xlink"><defs /><g transform="translate(0, 1000) scale(1, -1)"><path d="M-11.845993041992188 2632.929931640625C-10.947586059570312 2633.090087890625 -10.084381103515625 2633.169921875 -9.262741088867188 2633.169921875C-3.816497802734375 2633.169921875 -0.1933135986328125 2629.77001953125 -0.1933135986328125 2624.330078125C-0.1933135986328125 2624.27001953125 -0.1937255859375 2624.2099609375 -0.194580078125 2624.14990234375L-0.2400970458984375 2620.739990234375L-5.292083740234375 2611.77001953125C-142.8719940185547 2366.949951171875 -216.8280029296875 2064.889892578125 -216.8280029296875 1751.2099609375C-216.8280029296875 1728.8800048828125 -216.4530029296875 1706.5 -215.6999969482422 1684.0699462890625C-207.05299377441406 1426.8699951171875 -160.90199279785156 1187.6600341796875 -67.05380249023438 913.5280151367188C-46.754791259765625 854.2239990234375 -33.96549987792969 793.7369995117188 -28.867996215820312 733.2949829101562C-27.091400146484375 712.2160034179688 -26.211196899414062 691.177001953125 -26.211196899414062 670.2109985351562C-26.211196899414062 417.8039855957031 -153.78399658203125 176.08999633789062 -380.4129943847656 4.2163848876953125C-385.2829895019531 0.484283447265625 -389.28900146484375 -2.70166015625 -389.28900146484375 -2.8837127685546875C-389.28900146484375 -3.0657806396484375 -385.2829895019531 -6.251708984375 -380.4129943847656 -9.983810424804688C-230.30999755859375 -123.81301879882812 -121.03298950195312 -271.0030059814453 -66.32550048828125 -432.98500061035156C-39.58050537109375 -512.1320343017578 -26.210800170898438 -593.8440093994141 -26.210800170898438 -675.4300079345703C-26.210800170898438 -757.5349884033203 -39.75120544433594 -839.5110015869141 -66.82620239257812 -918.6129913330078C-99.04969787597656 -1012.6900177001953 -120.12200927734375 -1082.689956665039 -139.4199981689453 -1159.3800201416016C-190.5919952392578 -1363.060073852539 -216.01699829101562 -1561.520034790039 -216.01699829101562 -1751.250015258789C-216.01699829101562 -2067.610122680664 -145.33599853515625 -2359.719985961914 -5.4741363525390625 -2611.389907836914C-2.6978302001953125 -2616.350112915039 -0.3311309814453125 -2621.219985961914 -0.149078369140625 -2622.179946899414C-0.0481109619140625 -2622.770034790039 0.0 -2623.350112915039 0.0 -2623.909927368164C0.0 -2629.290054321289 -4.430633544921875 -2633.169937133789 -9.08740234375 -2633.169937133789C-11.163299560546875 -2633.169937133789 -13.284194946289062 -2632.399917602539 -15.077499389648438 -2630.639907836914C-20.81219482421875 -2625.050064086914 -73.38009643554688 -2524.870132446289 -99.59579467773438 -2469.479995727539C-252.0659942626953 -2147.750015258789 -328.7099914550781 -1824.4200592041016 -328.7560119628906 -1503.229995727539C-328.7560119628906 -1454.6700592041016 -328.16400146484375 -1433.4200592041016 -325.57000732421875 -1387.8600006103516C-315.9209899902344 -1218.729995727539 -282.2409973144531 -1046.229995727539 -227.71600341796875 -886.5260162353516C-200.31700134277344 -806.3770294189453 -188.48300170898438 -761.6829986572266 -177.6510009765625 -697.6909942626953C-168.81300354003906 -645.4569854736328 -164.48399353027344 -594.1569976806641 -164.48399353027344 -544.3289947509766C-164.48399353027344 -322.93101501464844 -249.9600067138672 -130.5900115966797 -405.2179870605469 -14.489608764648438C-413.7749938964844 -8.072250366210938 -414.3210144042969 -7.389556884765625 -414.3210144042969 -2.88372802734375C-414.3210144042969 1.6220855712890625 -413.7749938964844 2.304779052734375 -405.2179870605469 8.72216796875C-248.36900329589844 126.03097534179688 -164.55299377441406 318.94097900390625 -164.55299377441406 538.7229919433594C-164.55299377441406 639.4739685058594 -182.16600036621094 745.8719787597656 -218.43099975585938 853.2229919433594C-238.7760009765625 913.4369812011719 -244.6009979248047 931.6879577636719 -254.11399841308594 964.7309875488281C-304.80499267578125 1140.9300231933594 -329.34600830078125 1315.6099548339844 -329.34600830078125 1500.4899597167969C-329.34600830078125 1505.0099792480469 -329.33099365234375 1509.5400085449219 -329.302001953125 1514.0799255371094C-329.02899169921875 1556.6800231933594 -328.5740051269531 1571.4699401855469 -326.43499755859375 1611.2499694824219C-308.6839904785156 1943.4100036621094 -205.0050048828125 2288.899871826172 -25.909698486328125 2612.769989013672C-16.71600341796875 2629.469940185547 -14.622299194335938 2632.479949951172 -11.845993041992188 2632.929901123047Z" fill="black" /></g></svg>