<?xml version="1.0" encoding="utf-8" ?>
<svg baseProfile="tiny" height="100%" version="1.2" width="100%" xmlns="http://www.w3.org/2000/svg" xmlns:ev="http://www.w3.org/2001/xml-events" xmlns:xlink="http://www.w3.org/1999/xlink"><defs /><g transform="translate(0, 1000) scale(1, -1)"><path d="M-11.754806518554688 2615.300048828125C-10.744110107421875 2615.659912109375 -9.7333984375 2615.830078125 -8.752548217773438 2615.830078125C-4.02978515625 2615.830078125 -1.52587890625e-05 2611.93994140625 -1.52587890625e-05 2606.6201171875L-0.04522705078125 2603.22998046875L-5.8322296142578125 2592.8798828125C-23.916610717773438 2560.4599609375 -46.702911376953125 2515.110107421875 -63.52140808105469 2477.77001953125C-164.19601440429688 2254.699951171875 -214.8450164794922 2004.8800048828125 -214.8450164794922 1737.6700439453125C-214.8450164794922 1561.5999755859375 -192.85601806640625 1377.97998046875 -148.6990203857422 1189.47998046875C-126.72601318359375 1095.719970703125 -106.56201171875 1026.8599853515625 -65.23942565917969 904.4299926757812C-38.59161376953125 825.4739990234375 -25.541122436523438 744.9119873046875 -25.541122436523438 664.8579711914062C-25.541122436523438 459.0119934082031 -111.83001708984375 256.5270080566406 -275.10902404785156 93.34530639648438C-307.2990264892578 61.15510559082031 -343.28700256347656 29.869094848632812 -378.28001403808594 3.6015625C-382.93702697753906 0.120330810546875 -386.73402404785156 -2.8183746337890625 -386.73402404785156 -2.954010009765625C-386.73402404785156 -3.0896453857421875 -382.93702697753906 -6.0283660888671875 -378.28001403808594 -9.509597778320312C-249.47401428222656 -106.17098999023438 -146.6190185546875 -234.5240020751953 -87.70921325683594 -372.10101318359375C-46.42442321777344 -468.4880065917969 -25.579818725585938 -569.9769897460938 -25.579818725585938 -671.43798828125C-25.579818725585938 -734.3079833984375 -33.58341979980469 -797.1680297851562 -49.68681335449219 -858.7969970703125C-56.15202331542969 -883.4819946289062 -57.77961730957031 -888.635986328125 -76.18040466308594 -942.8889770507812C-153.2650146484375 -1170.260009765625 -199.15402221679688 -1401.6400146484375 -211.135009765625 -1623.77001953125C-213.39601135253906 -1666.3499755859375 -213.8480224609375 -1684.7099609375 -213.8480224609375 -1740.1800537109375C-213.8480224609375 -1797.3800048828125 -213.3050079345703 -1818.9000244140625 -210.68301391601562 -1863.3800048828125C-194.99501037597656 -2128.5 -123.92301940917969 -2381.639892578125 -5.8322296142578125 -2592.909912109375L-0.04522705078125 -2603.260009765625L-1.52587890625e-05 -2606.64990234375C-1.52587890625e-05 -2612.570068359375 -3.842315673828125 -2615.830078125 -8.193252563476562 -2615.830078125C-11.525314331054688 -2615.830078125 -15.155715942382812 -2613.909912109375 -17.587112426757812 -2609.820068359375C-28.573318481445312 -2591.330078125 -57.960418701171875 -2535.93994140625 -76.5421142578125 -2498.780029296875C-242.80801391601562 -2166.25 -326.79600524902344 -1824.739990234375 -326.79600524902344 -1492.6300048828125C-326.79600524902344 -1283.0799560546875 -293.35902404785156 -1077.27001953125 -226.0550079345703 -879.8200073242188C-201.1430206298828 -806.8049926757812 -190.70001220703125 -768.6920166015625 -180.166015625 -712.947021484375C-169.1330108642578 -654.3889770507812 -163.7440185546875 -596.8619995117188 -163.7440185546875 -541.166015625C-163.7440185546875 -319.3290100097656 -249.22601318359375 -126.5360107421875 -404.00502014160156 -13.352493286132812C-410.69602966308594 -8.469757080078125 -411.42002868652344 -7.429901123046875 -411.42002868652344 -2.954010009765625C-411.42002868652344 1.5218658447265625 -410.69602966308594 2.5617218017578125 -404.00502014160156 7.4445037841796875C-342.29200744628906 52.56500244140625 -287.08900451660156 116.04100036621094 -247.666015625 187.1580047607422C-191.78001403808594 287.9739990234375 -163.60202026367188 407.281005859375 -163.60202026367188 534.5440063476562C-163.60202026367188 635.7369995117188 -181.4180145263672 741.958984375 -217.2840118408203 847.916015625C-244.8170166015625 929.2050170898438 -255.26101684570312 964.06298828125 -270.99400329589844 1026.949951171875C-308.67201232910156 1177.47998046875 -327.3350067138672 1332.3399658203125 -327.3350067138672 1489.260009765625C-327.3350067138672 1855.81005859375 -225.50401306152344 2233.669921875 -26.312820434570312 2594.18994140625C-15.507415771484375 2613.81005859375 -15.326522827148438 2614.0400390625 -11.75482177734375 2615.300048828125Z" fill="black" /></g></svg>