<?xml version="1.0" encoding="utf-8" ?>
<svg baseProfile="tiny" height="100%" version="1.2" width="100%" xmlns="http://www.w3.org/2000/svg" xmlns:ev="http://www.w3.org/2001/xml-events" xmlns:xlink="http://www.w3.org/1999/xlink"><defs /><g transform="translate(0, 1000) scale(1, -1)"><path d="M400.82000732421875 147.45799255371094C401.625 147.58297729492188 402.39801025390625 147.6429901123047 403.1340026855469 147.6429901123047C408.29400634765625 147.6429901123047 411.6390075683594 144.67698669433594 411.6390075683594 140.14498901367188C411.6390075683594 139.4299774169922 411.5559997558594 138.6759796142578 411.38299560546875 137.8889923095703C411.0039978027344 136.13697814941406 409.0150146484375 133.81597900390625 390.4939880371094 113.30497741699219C375.85699462890625 97.10528564453125 354.5409851074219 75.36317443847656 340.7569885253906 62.52629089355469C337.5360107421875 59.542083740234375 334.2200012207031 56.46318054199219 333.4150085449219 55.65788269042969L328.6780090332031 51.394683837890625L324.1780090332031 47.368377685546875C323.4670104980469 46.70526123046875 321.5249938964844 44.999969482421875 319.86700439453125 43.57887268066406L314.9410095214844 39.26837158203125C313.2359924316406 37.7525634765625 306.60400390625 32.21046447753906 301.3940124511719 27.947372436523438C293.5780029296875 21.552566528320312 290.83099365234375 19.373672485351562 288.36700439453125 17.526275634765625C286.8039855957031 16.342071533203125 285.33599853515625 15.157867431640625 285.052001953125 14.873672485351562C284.81500244140625 14.5894775390625 282.4460144042969 12.789474487304688 279.84100341796875 10.894668579101562L273.4939880371094 6.205230712890625L270.60400390625 4.0262908935546875L264.35198974609375 -0.4737091064453125L248.5780029296875 -11.368423461914062C235.031005859375 -20.415817260742188 219.7310028076172 -29.889511108398438 210.68299865722656 -34.76841735839844L205.47300720214844 -37.705322265625C188.84597778320312 -47.27372741699219 155.11997985839844 -62.71583557128906 137.4989776611328 -68.82632446289062L129.91998291015625 -71.52632141113281C94.01480102539062 -84.31581115722656 50.43589782714844 -92.46321105957031 17.183197021484375 -92.55790710449219C15.76220703125 -92.56260681152344 14.483200073242188 -92.56690979003906 13.330307006835938 -92.56690979003906C2.953765869140625 -92.56690979003906 2.783233642578125 -92.22161865234375 1.077972412109375 -88.76841735839844C0.392059326171875 -87.37022399902344 0.0 -59.96531677246094 0.0 -35.44862365722656C0.0 -15.945220947265625 0.24810791015625 1.730377197265625 0.79376220703125 3.0315704345703125C2.5937652587890625 7.3894500732421875 3.6358642578125 7.6262969970703125 20.73590087890625 8.0526123046875C58.72529602050781 9.047348022460938 107.41999816894531 15.44207763671875 136.552001953125 23.210479736328125C137.45199584960938 23.4473876953125 142.14100646972656 24.631576538085938 146.97300720214844 25.815780639648438C172.83599853515625 32.210479736328125 204.28900146484375 42.44209289550781 231.052001953125 53.14738464355469C241.14100646972656 57.22108459472656 250.4250030517578 61.10528564453125 257.010009765625 64.13679504394531C259.093994140625 65.08418273925781 260.79901123046875 65.84208679199219 260.8940124511719 65.84208679199219C260.989013671875 65.84208679199219 263.7359924316406 67.12107849121094 267.052001953125 68.68418884277344C270.36700439453125 70.24739074707031 273.1619873046875 71.52629089355469 273.2569885253906 71.52629089355469C274.1570129394531 71.52629089355469 304.7099914550781 87.25257873535156 315.4150085449219 93.22108459472656C324.36700439453125 98.24208068847656 334.5039978027344 104.06797790527344 339.7619934082031 107.28898620605469C341.1830139160156 108.18898010253906 343.2200012207031 109.37397766113281 344.2619934082031 109.94198608398438C345.3039855957031 110.510986328125 346.6780090332031 111.36299133300781 347.34100341796875 111.78898620605469C348.0039978027344 112.26298522949219 351.1780090332031 114.29998779296875 354.4460144042969 116.33699035644531C360.8890075683594 120.31599426269531 381.5889892578125 134.09999084472656 386.8940124511719 137.8889923095703L393.052001953125 142.19998168945312C394.614990234375 143.28897094726562 396.6990051269531 144.85296630859375 397.7409973144531 145.70497131347656C398.7359924316406 146.55796813964844 400.1099853515625 147.36297607421875 400.82000732421875 147.4579620361328Z" fill="black" /></g></svg>