<?xml version="1.0" encoding="utf-8" ?>
<svg baseProfile="tiny" height="100%" version="1.2" width="100%" xmlns="http://www.w3.org/2000/svg" xmlns:ev="http://www.w3.org/2001/xml-events" xmlns:xlink="http://www.w3.org/1999/xlink"><defs /><g transform="translate(0, 1000) scale(1, -1)"><path d="M-15.1632080078125 9181.0595703125C-13.727096557617188 9182.3798828125 -11.704193115234375 9183.0302734375 -9.61480712890625 9183.0302734375C-7.12957763671875 9183.0302734375 -4.5502166748046875 9182.1103515625 -2.75225830078125 9180.3095703125C-1.0883636474609375 9178.669921875 0.0 9177.5 0.0 9175.3701171875C0.0 9171.0595703125 -4.4998016357421875 9162.849609375 -17.810897827148438 9138.9404296875C-553.7729949951172 8174.669921875 -827.2029876708984 7060.1298828125 -827.2029876708984 5885.8701171875C-827.2029876708984 5302.10986328125 -759.6259613037109 4703.580078125 -623.1329803466797 4101.43017578125C-551.7289886474609 3786.52001953125 -466.01097106933594 3488.159912109375 -353.65098571777344 3163.989990234375C-250.11598205566406 2865.110107421875 -198.4119873046875 2564.77001953125 -198.4119873046875 2261.60009765625C-198.4119873046875 2113.159912109375 -210.8059844970703 1964.050048828125 -235.5809783935547 1814.0899658203125C-352.90599060058594 1104.43994140625 -760.9769744873047 446.573974609375 -1357.280014038086 5.82086181640625C-1368.949935913086 -2.7840423583984375 -1378.550033569336 -10.06512451171875 -1378.550033569336 -10.313323974609375C-1378.550033569336 -10.5615234375 -1369.030014038086 -17.759933471679688 -1357.3599700927734 -26.364837646484375C-758.9919891357422 -468.9380187988281 -351.6649932861328 -1126.9700012207031 -234.7539825439453 -1839.6800842285156C-210.489990234375 -1987.6700744628906 -198.35897827148438 -2135.030059814453 -198.35897827148438 -2281.830108642578C-198.35897827148438 -2585.060089111328 -250.12298583984375 -2885.850128173828 -353.65098571777344 -3184.620147705078C-668.4739837646484 -4093.010040283203 -824.6039886474609 -4991.890167236328 -824.6039886474609 -5895.580108642578C-824.6039886474609 -6033.339874267578 -823.2800140380859 -6101.350128173828 -818.0679779052734 -6222.399932861328C-772.6439666748047 -7275.589874267578 -498.77598571777344 -8273.589874267578 -17.810897827148438 -9138.879913330078C-4.4998016357421875 -9162.790069580078 0.0 -9171.000030517578 0.0 -9175.320343017578C0.0 -9177.440460205078 -1.0883636474609375 -9178.620147705078 -2.75225830078125 -9180.250030517578C-4.59466552734375 -9182.089874267578 -7.0805206298828125 -9183.030303955078 -9.497451782226562 -9183.030303955078C-11.747802734375 -9183.030303955078 -13.93829345703125 -9182.219757080078 -15.494094848632812 -9180.580108642578C-21.782302856445312 -9174.049835205078 -107.33499145507812 -9015.929718017578 -161.281005859375 -8911.019561767578C-592.27099609375 -8073.859893798828 -874.7440185546875 -7142.870147705078 -972.3770141601562 -6237.290069580078C-974.197021484375 -6220.250030517578 -976.4310302734375 -6200.310089111328 -977.3410034179688 -6193.020050048828C-979.4099731445312 -6176.230010986328 -984.7050170898438 -6121.620147705078 -988.427978515625 -6079.259796142578C-1007.4099731445312 -5864.160186767578 -1016.8900146484375 -5649.730010986328 -1016.8900146484375 -5436.259796142578C-1016.8900146484375 -4640.230010986328 -885.1370239257812 -3857.500030517578 -623.3809814453125 -3102.699981689453C-513.4210205078125 -2785.560089111328 -457.322998046875 -2504.409942626953 -440.7749938964844 -2188.020050048828C-438.3160095214844 -2140.860137939453 -437.0950012207031 -2093.240020751953 -437.0950012207031 -2045.3600158691406C-437.0950012207031 -1821.0200500488281 -463.8869934082031 -1590.9700012207031 -515.572021484375 -1376.5899963378906C-649.4439697265625 -821.2430114746094 -958.8070068359375 -342.0160217285156 -1385.25 -29.343414306640625C-1403.949951171875 -15.691421508789062 -1404.280029296875 -15.36041259765625 -1404.280029296875 -10.313308715820312C-1404.280029296875 -5.2662200927734375 -1403.949951171875 -4.9352569580078125 -1385.25 8.716766357421875C-879.6259765625 379.4729919433594 -545.1099853515625 976.6039733886719 -459.88800048828125 1660.6099548339844C-444.76800537109375 1781.8499450683594 -437.2120056152344 1903.4599304199219 -437.2120056152344 2025.3999938964844C-437.2120056152344 2371.899871826172 -498.22100830078125 2721.149871826172 -620.072021484375 3072.560028076172C-861.7540283203125 3769.149871826172 -992.4819946289062 4473.419891357422 -1015.4000244140625 5201.859832763672C-1017.6400146484375 5273.759735107422 -1018.0499877929688 5295.859832763672 -1018.4600219726562 5393.410125732422C-1018.52001953125 5406.549774169922 -1018.5499877929688 5419.589813232422 -1018.5499877929688 5432.519989013672C-1018.5499877929688 5643.450164794922 -1010.8599853515625 5827.779754638672 -993.4749755859375 6036.700164794922C-989.0900268554688 6089.160125732422 -980.4849853515625 6180.339813232422 -979.4920043945312 6184.810028076172C-979.2440185546875 6185.720184326172 -977.7550048828125 6198.959930419922 -976.0999755859375 6214.180145263672C-870.6900024414062 7193.649871826172 -565.2979736328125 8166.919891357422 -83.5059814453125 9058.769500732422C-47.59709167480469 9125.209930419922 -17.810882568359375 9178.570281982422 -15.163192749023438 9181.059539794922Z" fill="black" /></g></svg>