<?xml version="1.0" encoding="utf-8" ?>
<svg baseProfile="tiny" height="100%" version="1.2" width="100%" xmlns="http://www.w3.org/2000/svg" xmlns:ev="http://www.w3.org/2001/xml-events" xmlns:xlink="http://www.w3.org/1999/xlink"><defs /><g transform="translate(0, 1000) scale(1, -1)"><path d="M-11.630294799804688 10770.5C-11.022384643554688 10770.599609375 -10.400985717773438 10770.7001953125 -9.777587890625 10770.7001953125C-6.1616668701171875 10770.7001953125 -2.4822235107421875 10768.7001953125 -1.025787353515625 10766.0C-0.3841094970703125 10764.7998046875 1.52587890625e-05 10763.7001953125 1.52587890625e-05 10762.2998046875C1.52587890625e-05 10758.7998046875 -2.679901123046875 10753.400390625 -10.372177124023438 10739.7001953125C-651.2319793701172 9594.2197265625 -977.7230072021484 8271.5 -977.7230072021484 6881.740234375C-977.7230072021484 6127.919921875 -881.6680145263672 5354.3798828125 -687.6229705810547 4578.7099609375C-618.1539764404297 4301.009765625 -527.0269622802734 3996.27001953125 -432.03599548339844 3723.610107421875C-315.65599060058594 3389.659912109375 -260.5669708251953 3103.510009765625 -245.46897888183594 2753.919921875C-244.1669921875 2723.89990234375 -243.5389862060547 2690.39990234375 -243.5389862060547 2654.969970703125C-243.5389862060547 2555.840087890625 -248.45999145507812 2441.590087890625 -257.3309783935547 2345.919921875C-341.9879913330078 1429.3499755859375 -828.8969573974609 574.9669799804688 -1588.6500091552734 9.96185302734375L-1616.060043334961 -10.438308715820312L-1618.300033569336 -12.235702514648438L-1616.060043334961 -14.033096313476562L-1588.6500091552734 -34.43330383300781C-828.8969573974609 -599.4380035400391 -341.9879913330078 -1453.8199615478516 -257.3309783935547 -2370.389907836914C-248.45999145507812 -2466.060073852539 -243.5389862060547 -2580.310073852539 -243.5389862060547 -2679.439956665039C-243.5389862060547 -2714.870132446289 -244.1669921875 -2748.370132446289 -245.46897888183594 -2778.399917602539C-260.74598693847656 -3132.209976196289 -315.02699279785156 -3411.699966430664 -435.63099670410156 -3758.409927368164C-581.8469696044922 -4178.910171508789 -703.0800018310547 -4624.299819946289 -791.0619964599609 -5064.660171508789C-914.3179779052734 -5681.129898071289 -975.3409881591797 -6293.600112915039 -975.3409881591797 -6893.240249633789C-975.3409881591797 -8277.209976196289 -650.2769622802734 -9592.820327758789 -15.045272827148438 -10731.400405883789C-3.5196380615234375 -10752.099624633789 -0.0316162109375 -10758.700210571289 -0.0316162109375 -10762.700210571289C-0.0316162109375 -10764.000015258789 -0.4191741943359375 -10765.099624633789 -1.0257720947265625 -10766.200210571289C-2.5949859619140625 -10769.099624633789 -6.0512542724609375 -10770.700210571289 -9.437545776367188 -10770.700210571289C-12.451065063476562 -10770.700210571289 -15.409164428710938 -10769.500015258789 -16.932571411132812 -10767.000015258789C-26.99786376953125 -10751.000015258789 -104.28497314453125 -10608.900405883789 -141.0409698486328 -10539.000015258789C-685.4659576416016 -9504.080093383789 -1023.4599761962891 -8388.719741821289 -1137.9599151611328 -7249.359878540039C-1139.4799346923828 -7234.270034790039 -1140.9199981689453 -7221.149917602539 -1141.0999298095703 -7220.160171508789C-1141.6399688720703 -7217.910171508789 -1146.9398956298828 -7159.939956665039 -1150.4499053955078 -7118.160171508789C-1170.6599884033203 -6878.759780883789 -1180.7199249267578 -6639.319839477539 -1180.7199249267578 -6400.490249633789C-1180.7199249267578 -5464.629898071289 -1026.2099151611328 -4538.180191040039 -722.1319732666016 -3660.909927368164C-655.9889678955078 -3470.110122680664 -618.0639801025391 -3338.010025024414 -582.9259796142578 -3175.169937133789C-527.1489410400391 -2917.179946899414 -499.9579620361328 -2660.350112915039 -499.9579620361328 -2409.260025024414C-499.9579620361328 -1498.469985961914 -857.7579498291016 -663.3560333251953 -1506.8699493408203 -123.58302307128906C-1545.9599151611328 -91.05061340332031 -1616.2399444580078 -36.50032043457031 -1638.7899932861328 -21.222610473632812C-1642.5199737548828 -18.706314086914062 -1644.3899688720703 -15.47100830078125 -1644.3899688720703 -12.2357177734375C-1644.3899688720703 -9.000457763671875 -1642.5199737548828 -5.7651824951171875 -1638.7899932861328 -3.2488555908203125C-1616.2399444580078 12.028778076171875 -1545.9599151611328 66.57917785644531 -1506.8699493408203 99.11158752441406C-856.4139556884766 640.0079498291016 -500.01695251464844 1475.4799346923828 -500.01695251464844 2384.820022583008C-500.01695251464844 2674.939895629883 -536.2949371337891 2972.580032348633 -610.8749542236328 3270.580032348633C-641.0709381103516 3391.179885864258 -669.1999664306641 3483.389846801758 -726.0869293212891 3648.120071411133C-1028.8199005126953 4523.939895629883 -1183.1399688720703 5454.069778442383 -1183.1399688720703 6390.589797973633C-1183.1399688720703 6626.450149536133 -1173.3499298095703 6862.720169067383 -1153.6800079345703 7098.629837036133C-1149.4599151611328 7148.859817504883 -1144.4300079345703 7204.039993286133 -1143.3499298095703 7211.859817504883C-1142.8999786376953 7215.370071411133 -1140.6499786376953 7236.399856567383 -1138.3999786376953 7258.589797973633C-1019.3299713134766 8439.740188598633 -647.9009552001953 9621.870071411133 -60.78846740722656 10687.999954223633C-17.381866455078125 10766.999954223633 -15.67437744140625 10769.700149536133 -11.630264282226562 10770.499954223633Z" fill="black" /></g></svg>