<?xml version="1.0" encoding="utf-8" ?>
<svg baseProfile="tiny" height="100%" version="1.2" width="100%" xmlns="http://www.w3.org/2000/svg" xmlns:ev="http://www.w3.org/2001/xml-events" xmlns:xlink="http://www.w3.org/1999/xlink"><defs /><g transform="translate(0, 1000) scale(1, -1)"><path d="M-18.417800903320312 885.2940063476562C-17.587020874023438 885.5159912109375 -16.764419555664062 885.6199951171875 -15.963607788085938 885.6199951171875C-10.980209350585938 885.6199951171875 -6.8427581787109375 881.5880126953125 -6.8427581787109375 876.6820068359375C-6.8427581787109375 875.9539794921875 -6.93408203125 875.2059936523438 -7.1275177001953125 874.448974609375C-7.3498687744140625 873.5349731445312 -8.634552001953125 870.8909912109375 -10.512115478515625 867.531005859375C-50.2877197265625 795.4409790039062 -70.42251586914062 711.1220092773438 -70.42251586914062 616.5250244140625C-70.39781188964844 522.9660034179688 -52.63471984863281 428.2460021972656 -13.427413940429688 313.02099609375C-4.438232421875 286.6080017089844 -1.52587890625e-05 259.6570129394531 -1.52587890625e-05 232.8509979248047C-1.52587890625e-05 179.7239990234375 -17.433914184570312 127.16900634765625 -51.42411804199219 80.51910400390625C-72.07780456542969 52.15739440917969 -100.36500549316406 23.77099609375 -131.51901245117188 0.1280059814453125C-132.29701232910156 -0.4649200439453125 -132.68601989746094 -0.724334716796875 -132.68601989746094 -0.983734130859375C-132.68601989746094 -1.243133544921875 -132.29701232910156 -1.5025482177734375 -131.51901245117188 -2.0954742431640625C-100.36500549316406 -25.738494873046875 -72.07780456542969 -54.12480163574219 -51.42411804199219 -82.48651123046875C-17.433914184570312 -129.13699340820312 -1.52587890625e-05 -181.6909942626953 -1.52587890625e-05 -234.81900024414062C-1.52587890625e-05 -261.6239929199219 -4.438232421875 -288.57598876953125 -13.427413940429688 -314.9880065917969C-52.45170593261719 -429.71600341796875 -70.25021362304688 -524.2830200195312 -70.25021362304688 -617.2379760742188C-70.25021362304688 -619.2630004882812 -70.24171447753906 -621.2869873046875 -70.22491455078125 -623.3099975585938C-70.07661437988281 -639.7639770507812 -69.95310974121094 -643.469970703125 -69.18721008300781 -656.6630249023438C-64.66621398925781 -732.8779907226562 -44.23490905761719 -806.22802734375 -10.487411499023438 -867.52197265625C-8.65924072265625 -870.8820190429688 -7.3498687744140625 -873.5260009765625 -7.1275177001953125 -874.4400024414062C-6.9305572509765625 -875.2109985351562 -6.83819580078125 -875.9660034179688 -6.83819580078125 -876.6959838867188C-6.83819580078125 -881.7520141601562 -11.268814086914062 -885.6199951171875 -16.067123413085938 -885.6199951171875C-17.8756103515625 -885.6199951171875 -19.736419677734375 -885.0700073242188 -21.431915283203125 -883.8280029296875C-22.988311767578125 -882.6909790039062 -23.334213256835938 -882.1480102539062 -28.71990966796875 -872.3400268554688C-104.42901611328125 -734.7769775390625 -142.2370147705078 -604.073974609375 -142.2370147705078 -479.5409851074219C-142.2370147705078 -412.22601318359375 -131.1900177001953 -346.7139892578125 -109.11100769042969 -282.89599609375C-93.68661499023438 -238.32200622558594 -86.08621215820312 -196.50999450683594 -86.08621215820312 -158.89599609375C-86.08621215820312 -94.81509399414062 -108.14601135253906 -42.9208984375 -151.1590118408203 -10.322296142578125C-155.48301696777344 -7.0612335205078125 -156.47100830078125 -5.90008544921875 -157.1380157470703 -3.3307342529296875C-157.39501953125 -2.32354736328125 -157.5340118408203 -1.4104461669921875 -157.5340118408203 -0.5531768798828125C-157.5340118408203 2.5428314208984375 -155.72601318359375 4.91094970703125 -151.1590118408203 8.354873657226562C-108.13502502441406 40.961395263671875 -86.1024169921875 92.68060302734375 -86.1024169921875 156.718994140625C-86.1024169921875 194.42799377441406 -93.74221801757812 236.40899658203125 -109.23501586914062 281.27398681640625C-131.3620147705078 345.3590087890625 -142.4350128173828 411.0979919433594 -142.4350128173828 478.6199951171875C-142.4350128173828 603.4119873046875 -104.61500549316406 734.2979736328125 -28.868209838867188 872.1019897460938C-22.5189208984375 883.6389770507812 -21.950714111328125 884.3560180664062 -18.417816162109375 885.2940063476562Z" fill="black" /></g></svg>