<?xml version="1.0" encoding="utf-8" ?>
<svg baseProfile="tiny" height="100%" version="1.2" width="100%" xmlns="http://www.w3.org/2000/svg" xmlns:ev="http://www.w3.org/2001/xml-events" xmlns:xlink="http://www.w3.org/1999/xlink"><defs /><g transform="translate(0, 1000) scale(1, -1)"><path d="M-11.640594482421875 10349.5C-11.034103393554688 10349.599609375 -10.413894653320312 10349.7001953125 -9.79193115234375 10349.7001953125C-6.183807373046875 10349.7001953125 -2.5123138427734375 10347.7998046875 -1.05902099609375 10345.0C-0.421234130859375 10343.900390625 -0.0261077880859375 10342.7998046875 -0.0261077880859375 10341.400390625C-0.0261077880859375 10337.7001953125 -3.115478515625 10331.7001953125 -12.627105712890625 10314.7001953125C-572.8249816894531 9311.7099609375 -886.7759704589844 8156.43017578125 -931.9719543457031 6930.85009765625C-936.1869812011719 6816.25 -936.9049987792969 6770.68994140625 -936.9049987792969 6617.89013671875C-936.9049987792969 6477.990234375 -936.5459899902344 6449.2099609375 -933.7659606933594 6356.93017578125C-905.5179748535156 5428.259765625 -730.1149597167969 4495.72998046875 -409.79595947265625 3571.18994140625C-305.5049743652344 3270.14990234375 -250.80296325683594 2995.469970703125 -235.64796447753906 2695.9599609375C-232.5099639892578 2634.260009765625 -232.06097412109375 2614.97998046875 -232.06097412109375 2540.3798828125C-232.06097412109375 2462.989990234375 -232.59896850585938 2443.169921875 -236.0969696044922 2375.820068359375C-285.0589599609375 1451.280029296875 -756.7479553222656 585.0180053710938 -1523.3799743652344 11.727294921875C-1540.1499938964844 -0.7375335693359375 -1553.8699645996094 -11.408798217773438 -1553.8699645996094 -11.767501831054688C-1553.8699645996094 -12.126220703125 -1540.1499938964844 -22.797515869140625 -1523.3799743652344 -35.26231384277344C-756.7479553222656 -608.5529632568359 -285.0589599609375 -1474.810043334961 -236.0969696044922 -2399.360092163086C-232.59896850585938 -2466.699935913086 -232.06097412109375 -2486.520004272461 -232.06097412109375 -2563.909896850586C-232.06097412109375 -2638.520004272461 -232.5099639892578 -2657.800033569336 -235.64796447753906 -2719.499984741211C-250.80296325683594 -3019.009994506836 -305.5049743652344 -3293.679916381836 -409.79595947265625 -3594.719955444336C-760.8849792480469 -4607.990219116211 -935.7429504394531 -5634.229965209961 -935.7429504394531 -6628.299789428711C-935.7429504394531 -7793.689926147461 -695.4229431152344 -8914.849594116211 -216.9959716796875 -9919.030258178711C-152.3399658203125 -10054.799789428711 -70.73626708984375 -10212.400375366211 -5.90142822265625 -10326.999984741211C-1.7389373779296875 -10334.200180053711 3.0517578125e-05 -10338.200180053711 3.0517578125e-05 -10341.299789428711C3.0517578125e-05 -10342.700180053711 -0.37591552734375 -10343.999984741211 -1.058990478515625 -10345.299789428711C-2.6179962158203125 -10348.200180053711 -6.0435943603515625 -10349.700180053711 -9.421524047851562 -10349.700180053711C-12.45556640625 -10349.700180053711 -15.451065063476562 -10348.499984741211 -17.021072387695312 -10345.999984741211C-20.966766357421875 -10339.599594116211 -62.66557312011719 -10264.099594116211 -85.17385864257812 -10222.599594116211C-643.5779724121094 -9191.410140991211 -983.7149963378906 -8089.129867553711 -1098.3199157714844 -6940.040023803711C-1124.7399597167969 -6675.160140991211 -1137.8899841308594 -6409.560043334961 -1137.8899841308594 -6144.209945678711C-1137.8899841308594 -5244.200180053711 -986.5829772949219 -4347.080062866211 -688.5059509277344 -3491.149887084961C-577.2189636230469 -3171.639877319336 -513.6399841308594 -2865.580062866211 -491.31097412109375 -2541.489974975586C-485.9859619140625 -2464.439926147461 -483.3539733886719 -2387.800033569336 -483.3539733886719 -2311.729965209961C-483.3539733886719 -1377.0799407958984 -880.6639709472656 -527.6749725341797 -1561.3999938964844 -30.868179321289062C-1574.4499206542969 -21.362686157226562 -1580.9699401855469 -16.565078735351562 -1580.9699401855469 -11.767486572265625C-1580.9699401855469 -6.96990966796875 -1574.4499206542969 -2.1723175048828125 -1561.3999938964844 7.3332061767578125C-1417.0199890136719 112.70100402832031 -1272.3799743652344 246.9440155029297 -1151.1399841308594 388.18202209472656C-770.6479797363281 831.3540191650391 -541.3489685058594 1406.0799713134766 -493.0149841308594 2037.300064086914C-486.49298095703125 2122.719985961914 -483.2239685058594 2207.969985961914 -483.2239685058594 2293.189956665039C-483.2239685058594 2684.919937133789 -552.3009948730469 3075.860122680664 -692.0929870605469 3477.919937133789C-989.3219909667969 4332.890151977539 -1139.7399597167969 5227.689956665039 -1139.7399597167969 6133.350112915039C-1139.7399597167969 6362.180191040039 -1130.1399841308594 6591.700210571289 -1110.8699645996094 6821.450210571289C-1104.6899108886719 6894.799819946289 -1092.4899597167969 7014.250015258789 -1082.5400085449219 7098.990249633789C-952.2389831542969 8208.540054321289 -595.6029968261719 9305.259780883789 -39.888153076171875 10304.900405883789C-17.290145874023438 10345.599624633789 -15.227554321289062 10348.799819946289 -11.640548706054688 10349.500015258789Z" fill="black" /></g></svg>