<?xml version="1.0" encoding="utf-8" ?>
<svg baseProfile="tiny" height="100%" version="1.2" width="100%" xmlns="http://www.w3.org/2000/svg" xmlns:ev="http://www.w3.org/2001/xml-events" xmlns:xlink="http://www.w3.org/1999/xlink"><defs /><g transform="translate(0, 1000) scale(1, -1)"><path d="M-14.173599243164062 333.4440002441406C-14.0712890625 333.4630126953125 -13.888992309570312 333.47100830078125 -13.661590576171875 333.47100830078125C-12.892578125 333.47100830078125 -11.607589721679688 333.3760070800781 -11.155990600585938 333.2699890136719C-6.846221923828125 332.239990234375 -4.1281890869140625 328.5 -4.1281890869140625 324.4649963378906C-4.1281890869140625 323.0899963378906 -4.4441680908203125 321.67999267578125 -5.120758056640625 320.33099365234375C-5.3127899169921875 319.95599365234375 -5.8888702392578125 318.885986328125 -6.40093994140625 317.9530029296875C-19.217788696289062 294.6499938964844 -25.683090209960938 266.989990234375 -25.683090209960938 235.88800048828125C-25.683090209960938 222.67599487304688 -24.516586303710938 208.843994140625 -22.174789428710938 194.46099853515625C-18.315887451171875 170.7220001220703 -12.070388793945312 146.90199279785156 -2.3500518798828125 118.74600219726562C-1.5727996826171875 116.50599670410156 -1.20703125 115.29000854492188 -0.53948974609375 112.73001098632812L1.52587890625e-05 110.64500427246094V88.3236083984375V66.00260925292969L-0.53948974609375 63.936004638671875C-6.5838165283203125 40.910797119140625 -21.662673950195312 19.906494140625 -46.068572998046875 0.520751953125C-46.626373291015625 0.0726776123046875 -47.0927734375 -0.320526123046875 -47.0927734375 -0.3571014404296875C-47.0927734375 -0.3936767578125 -46.626373291015625 -0.7868804931640625 -46.068572998046875 -1.2349395751953125C-21.662673950195312 -20.620697021484375 -6.5838165283203125 -41.625 -0.5394744873046875 -64.65020751953125L3.0517578125e-05 -66.716796875V-89.03781127929688V-111.3590087890625L-0.5394744873046875 -113.44400024414062C-1.37158203125 -116.61700439453125 -1.554473876953125 -117.21099853515625 -3.520477294921875 -122.88999938964844C-16.413848876953125 -160.23500061035156 -23.985260009765625 -195.89700317382812 -25.42095947265625 -226.01800537109375C-25.584854125976562 -229.47500610351562 -25.666549682617188 -232.9040069580078 -25.666549682617188 -236.302001953125C-25.666549682617188 -266.8190002441406 -19.080352783203125 -294.8320007324219 -6.400909423828125 -317.9360046386719C-4.3800506591796875 -321.61199951171875 -4.1697235107421875 -322.2340087890625 -4.1697235107421875 -324.4289855957031C-4.1697235107421875 -329.7019958496094 -8.39434814453125 -333.47100830078125 -13.137359619140625 -333.47100830078125C-14.505661010742188 -333.47100830078125 -15.916946411132812 -333.1570129394531 -17.282546997070312 -332.4750061035156C-19.339950561523438 -331.4419860839844 -20.162948608398438 -330.4909973144531 -22.247848510742188 -326.7510070800781C-43.791656494140625 -288.0350036621094 -57.745758056640625 -252.69200134277344 -64.42105102539062 -219.8730010986328C-67.68255615234375 -203.88299560546875 -69.30815124511719 -187.99000549316406 -69.30815124511719 -172.36000061035156C-69.30815124511719 -148.7259979248047 -65.59135437011719 -125.69200134277344 -58.19386291503906 -103.82400512695312C-51.53684997558594 -84.18218994140625 -48.97645568847656 -73.08110046386719 -47.76025390625 -58.697296142578125C-47.625457763671875 -57.086395263671875 -47.560455322265625 -55.158905029296875 -47.560455322265625 -53.128692626953125C-47.560455322265625 -49.51179504394531 -47.76695251464844 -45.569305419921875 -48.15345764160156 -42.511993408203125C-49.97315979003906 -28.018402099609375 -56.492950439453125 -16.057693481445312 -66.86256408691406 -8.166275024414062C-69.99905395507812 -5.7796173095703125 -71.17866516113281 -3.6398773193359375 -71.17866516113281 -0.3571014404296875C-71.17866516113281 2.9256744384765625 -69.99905395507812 5.0654296875 -66.86256408691406 7.4520721435546875C-58.60536193847656 13.73419189453125 -52.93585205078125 22.338897705078125 -49.85426330566406 33.247894287109375C-48.33296203613281 38.64360046386719 -47.566650390625 44.769500732421875 -47.566650390625 51.49700927734375C-47.566650390625 54.75709533691406 -47.746551513671875 58.15840148925781 -48.107757568359375 61.686492919921875C-49.29646301269531 73.34539794921875 -52.32325744628906 85.99189758300781 -57.58116149902344 101.281005859375C-64.07356262207031 120.13600158691406 -67.92326354980469 139.64100646972656 -68.99314880371094 158.9810028076172C-69.25834655761719 163.91000366210938 -69.31324768066406 165.41900634765625 -69.36805725097656 169.81700134277344C-69.38015747070312 170.7530059814453 -69.38624572753906 171.6909942626953 -69.38624572753906 172.62899780273438C-69.38624572753906 215.62399291992188 -56.66505432128906 260.81201171875 -30.19415283203125 311.9639892578125C-26.600555419921875 318.91400146484375 -21.342559814453125 328.5610046386719 -20.52874755859375 329.7040100097656C-19.230255126953125 331.5329895019531 -17.072250366210938 332.9230041503906 -14.950759887695312 333.3070068359375C-14.6490478515625 333.36199951171875 -14.301559448242188 333.4259948730469 -14.173553466796875 333.4440002441406Z" fill="black" /></g></svg>