<?xml version="1.0" encoding="utf-8" ?>
<svg baseProfile="tiny" height="100%" version="1.2" width="100%" xmlns="http://www.w3.org/2000/svg" xmlns:ev="http://www.w3.org/2001/xml-events" xmlns:xlink="http://www.w3.org/1999/xlink"><defs /><g transform="translate(0, 1000) scale(1, -1)"><path d="M-13.110107421875 6287.1201171875C-11.960205078125 6287.64990234375 -10.7615966796875 6287.89013671875 -9.57708740234375 6287.89013671875C-4.6886138916015625 6287.89013671875 -0.0396728515625 6283.7998046875 -0.0396728515625 6278.7998046875C-0.0396728515625 6278.47998046875 -0.0590667724609375 6278.14990234375 -0.09906005859375 6277.81982421875C-0.301300048828125 6276.27001953125 -5.1551361083984375 6266.89990234375 -13.244903564453125 6252.2001953125C-371.29998779296875 5605.60009765625 -554.551025390625 4861.3701171875 -554.551025390625 4066.6201171875C-554.551025390625 3860.909912109375 -542.2739868164062 3651.81005859375 -517.572998046875 3440.139892578125C-467.75299072265625 3012.93994140625 -370.07000732421875 2592.93994140625 -220.94900512695312 2165.0C-152.8260040283203 1969.3699951171875 -118.9010009765625 1765.5799560546875 -118.9010009765625 1561.6700439453125C-118.9010009765625 1314.1700439453125 -168.8780059814453 1066.47998046875 -268.34100341796875 832.9539794921875C-406.406005859375 508.82501220703125 -639.9970092773438 215.43701171875 -930.6890258789062 1.0590667724609375C-936.3519897460938 -3.1206207275390625 -941.0029907226562 -6.761016845703125 -941.0029907226562 -7.09808349609375C-941.0029907226562 -7.4351348876953125 -936.3519897460938 -11.0755615234375 -930.7559814453125 -15.255264282226562C-639.9970092773438 -229.63296508789062 -406.3389892578125 -523.0889587402344 -268.34100341796875 -847.1499938964844C-168.8780059814453 -1080.6700134277344 -118.9010009765625 -1328.3599548339844 -118.9010009765625 -1575.8599548339844C-118.9010009765625 -1779.7799987792969 -152.8260040283203 -1983.5600280761719 -220.94900512695312 -2179.189910888672C-443.09698486328125 -2816.899871826172 -553.4860229492188 -3456.379852294922 -553.4860229492188 -4070.840057373047C-553.4860229492188 -4857.689910888672 -372.4700012207031 -5603.519989013672 -13.312286376953125 -6252.109832763672C-6.301177978515625 -6264.779754638672 -0.3686981201171875 -6276.040008544922 -0.1664581298828125 -6277.189910888672C-0.0535888671875 -6277.759735107422 1.52587890625e-05 -6278.319793701172 1.52587890625e-05 -6278.870086669922C1.52587890625e-05 -6284.069793701172 -4.8718414306640625 -6287.890106201172 -9.72174072265625 -6287.890106201172C-11.959991455078125 -6287.890106201172 -14.193588256835938 -6287.069793701172 -15.941482543945312 -6285.209930419922C-17.626785278320312 -6283.450164794922 -35.424285888671875 -6251.640106201172 -57.53617858886719 -6210.919891357422C-168.4329833984375 -6006.790008544922 -267.66697692871094 -5793.490203857422 -351.46299743652344 -5579.240203857422C-593.6890106201172 -4960.100067138672 -715.8400115966797 -4320.600067138672 -715.8400115966797 -3689.419891357422C-715.8400115966797 -3297.709930419922 -668.7919769287109 -2909.199920654297 -574.2009735107422 -2530.759979248047C-536.0439910888672 -2378.199920654297 -500.44898986816406 -2259.149871826172 -444.69798278808594 -2097.959930419922C-361.07997131347656 -1856.2399597167969 -320.67897033691406 -1612.2099304199219 -320.67897033691406 -1377.3399353027344C-320.67897033691406 -824.8659973144531 -544.2280120849609 -323.0649719238281 -954.6879730224609 -21.120269775390625C-963.2499847412109 -14.817062377929688 -967.5309906005859 -10.957565307617188 -967.5309906005859 -7.0980682373046875C-967.5309906005859 -3.23858642578125 -963.2499847412109 0.6208953857421875 -954.6879730224609 6.92413330078125C-544.2609710693359 308.8790283203125 -320.6909942626953 810.8040466308594 -320.6909942626953 1363.2900695800781C-320.6909942626953 1598.1400451660156 -361.0869903564453 1842.1200256347656 -444.69798278808594 2083.760040283203C-513.1229705810547 2281.620147705078 -561.0549774169922 2449.280059814453 -602.9189910888672 2637.570098876953C-679.4219818115234 2981.439971923828 -717.2859954833984 3331.870147705078 -717.2859954833984 3683.959991455078C-717.2859954833984 4558.060089111328 -483.9239959716797 5442.509796142578 -29.019882202148438 6262.790069580078C-17.289779663085938 6283.959991455078 -16.076278686523438 6285.779815673828 -13.110092163085938 6287.120147705078Z" fill="black" /></g></svg>