<?xml version="1.0" encoding="utf-8" ?>
<svg baseProfile="tiny" height="100%" version="1.2" width="100%" xmlns="http://www.w3.org/2000/svg" xmlns:ev="http://www.w3.org/2001/xml-events" xmlns:xlink="http://www.w3.org/1999/xlink"><defs /><g transform="translate(0, 1000) scale(1, -1)"><path d="M-11.117599487304688 1826.93994140625C-10.440887451171875 1827.0999755859375 -9.766891479492188 1827.1800537109375 -9.104537963867188 1827.1800537109375C-4.236480712890625 1827.1800537109375 1.52587890625e-05 1822.969970703125 1.52587890625e-05 1818.0999755859375C1.52587890625e-05 1817.5 -0.0639190673828125 1816.8900146484375 -0.1984710693359375 1816.280029296875C-0.4593353271484375 1815.239990234375 -2.9561920166015625 1810.2099609375 -6.1238555908203125 1804.4300537109375C-98.28257751464844 1636.4599609375 -144.69297790527344 1443.1099853515625 -144.69297790527344 1231.1500244140625C-144.69297790527344 1109.7900390625 -129.47598266601562 982.3209838867188 -98.91758728027344 850.0339965820312C-82.40849304199219 778.6680297851562 -65.93669128417969 722.1719970703125 -35.75077819824219 633.5150146484375C-17.951385498046875 581.2379760742188 -9.069992065429688 526.0540161132812 -9.069992065429688 470.6099853515625C-9.069992065429688 409.9700012207031 -19.69378662109375 349.0199890136719 -40.893585205078125 291.22100830078125C-49.53938293457031 267.6319885253906 -62.91807556152344 237.66900634765625 -72.19749450683594 220.9739990234375L-78.83088684082031 209.0489959716797C-120.41998291015625 134.4779815673828 -181.08998107910156 65.46058654785156 -256.7789764404297 6.65399169921875L-266.6539764404297 -1.022918701171875L-267.95899963378906 -2.066375732421875L-266.6919708251953 -3.07257080078125C-265.98399353027344 -3.6688232421875 -261.51197814941406 -7.134613037109375 -256.7419891357422 -10.824005126953125C-181.16497802734375 -69.518798828125 -120.38298034667969 -138.6479949951172 -78.83088684082031 -213.18099975585938L-72.19749450683594 -225.10699462890625C-62.91807556152344 -241.802001953125 -49.53938293457031 -271.7640075683594 -40.893585205078125 -295.35400390625C-19.69378662109375 -353.1520080566406 -9.069992065429688 -414.0830078125 -9.069992065429688 -474.7130126953125C-9.069992065429688 -530.1489868164062 -17.951385498046875 -585.3350219726562 -35.75077819824219 -637.6480102539062C-61.27838134765625 -712.7020263671875 -75.40238952636719 -759.3599853515625 -89.60098266601562 -815.8939819335938C-126.12998962402344 -961.1209716796875 -144.3269805908203 -1100.739990234375 -144.3269805908203 -1233.1199951171875C-144.3269805908203 -1444.1700439453125 -98.07469177246094 -1636.8199462890625 -6.1238555908203125 -1804.4599609375C-1.368804931640625 -1813.1400146484375 -0.021636962890625 -1815.9100341796875 -0.021636962890625 -1818.199951171875C-0.021636962890625 -1818.77001953125 -0.1032562255859375 -1819.300048828125 -0.2357330322265625 -1819.8900146484375C-1.1771392822265625 -1824.3499755859375 -5.03973388671875 -1827.1800537109375 -9.225173950195312 -1827.1800537109375C-10.673080444335938 -1827.1800537109375 -12.159591674804688 -1826.8399658203125 -13.577178955078125 -1826.1199951171875C-16.073989868164062 -1824.81005859375 -16.372177124023438 -1824.3299560546875 -29.452682495117188 -1800.3599853515625C-155.97299194335938 -1568.5699462890625 -228.12098693847656 -1326.9300537109375 -239.59898376464844 -1096.4000244140625C-241.01498413085938 -1068.6400146484375 -241.12698364257812 -1063.0799560546875 -241.12698364257812 -1027.4599609375C-241.12698364257812 -991.7919921875 -240.9779815673828 -985.7550048828125 -239.635986328125 -958.885009765625C-233.4869842529297 -838.81298828125 -210.90399169921875 -720.677978515625 -172.74298095703125 -609.1389770507812C-154.0349884033203 -554.4310302734375 -145.50099182128906 -522.7550048828125 -137.56298828125 -478.0719909667969C-130.64698791503906 -439.2349853515625 -127.25999450683594 -401.2550048828125 -127.25999450683594 -364.58099365234375C-127.25999450683594 -215.30499267578125 -183.3669891357422 -87.66839599609375 -285.9209747314453 -11.979293823242188C-290.7749786376953 -8.389938354492188 -293.19798278808594 -5.23681640625 -293.19798278808594 -2.0845184326171875C-293.19798278808594 1.0798797607421875 -290.75697326660156 4.2434234619140625 -285.8839874267578 7.8465423583984375C-183.36097717285156 83.53489685058594 -127.25999450683594 211.1929931640625 -127.25999450683594 360.4580078125C-127.25999450683594 397.1310119628906 -130.64598083496094 435.1080017089844 -137.56298828125 473.9389953613281C-145.53797912597656 518.6589965820312 -153.95999145507812 550.1119995117188 -172.74298095703125 605.0059814453125C-211.052978515625 717.10400390625 -233.7849884033203 835.760986328125 -239.97198486328125 956.2429809570312C-241.34999084472656 982.9630126953125 -241.4989776611328 989.1119995117188 -241.4989776611328 1025.3699951171875C-241.4989776611328 1062.6400146484375 -241.34999084472656 1068.7900390625 -239.82199096679688 1098.22998046875C-227.67398071289062 1328.68994140625 -155.59999084472656 1569.239990234375 -29.452682495117188 1800.3299560546875C-15.105087280273438 1826.5999755859375 -15.626785278320312 1825.8599853515625 -11.117584228515625 1826.93994140625Z" fill="black" /></g></svg>