<?xml version="1.0" encoding="utf-8" ?>
<svg baseProfile="tiny" height="100%" version="1.2" width="100%" xmlns="http://www.w3.org/2000/svg" xmlns:ev="http://www.w3.org/2001/xml-events" xmlns:xlink="http://www.w3.org/1999/xlink"><defs /><g transform="translate(0, 1000) scale(1, -1)"><path d="M-13.956100463867188 5015.169921875C-12.433883666992188 5016.0498046875 -10.790191650390625 5016.47021484375 -9.184402465820312 5016.47021484375C-5.893890380859375 5016.47021484375 -2.7623748779296875 5014.7099609375 -1.16058349609375 5011.58984375C-0.45458984375 5010.2001953125 1.52587890625e-05 5009.14990234375 1.52587890625e-05 5007.83984375C1.52587890625e-05 5004.9599609375 -2.197021484375 5000.81982421875 -8.750091552734375 4989.009765625C-199.24098205566406 4645.47998046875 -326.0669708251953 4271.4599609375 -389.9819793701172 3864.3798828125C-420.6119842529297 3669.419921875 -435.80699157714844 3468.449951171875 -435.80699157714844 3263.8701171875C-435.80699157714844 2779.7099609375 -350.7059783935547 2275.320068359375 -183.6849822998047 1782.5999755859375L-161.79498291015625 1717.989990234375C-110.39199829101562 1565.93994140625 -85.12950134277344 1409.2099609375 -85.12950134277344 1252.969970703125C-85.12950134277344 933.35498046875 -190.84500122070312 615.8070068359375 -394.7489929199219 344.66400146484375C-490.2139892578125 217.71299743652344 -606.0640258789062 101.92500305175781 -731.7620239257812 7.8404083251953125C-741.4840087890625 0.627227783203125 -749.3870239257812 -5.4569244384765625 -749.3870239257812 -5.6450958251953125C-749.3870239257812 -5.8332672119140625 -741.4210205078125 -11.917404174804688 -731.635986328125 -19.256103515625C-605.56201171875 -113.71701049804688 -490.1510009765625 -229.06500244140625 -394.7489929199219 -355.9549865722656C-190.84500122070312 -627.0969848632812 -85.12950134277344 -944.6740112304688 -85.12950134277344 -1264.2900390625C-85.12950134277344 -1420.530029296875 -110.39199829101562 -1577.25 -161.7949981689453 -1729.280029296875L-184.31300354003906 -1795.77001953125C-332.08900451660156 -2232.070068359375 -416.95301818847656 -2685.5 -432.0700225830078 -3119.5400390625C-433.7000274658203 -3166.39990234375 -434.01402282714844 -3183.7099609375 -434.39002990722656 -3243.419921875C-434.43800354003906 -3251.6298828125 -434.46302795410156 -3259.820068359375 -434.46302795410156 -3268.010009765625C-434.46302795410156 -3900.110107421875 -291.0500030517578 -4480.02001953125 -8.750137329101562 -4989.009765625C-2.1970672607421875 -5000.81982421875 -3.0517578125e-05 -5004.9599609375 -3.0517578125e-05 -5007.83984375C-3.0517578125e-05 -5009.14990234375 -0.4546356201171875 -5010.2001953125 -1.1606292724609375 -5011.58984375C-2.762420654296875 -5014.7099609375 -5.8939361572265625 -5016.47021484375 -9.1844482421875 -5016.47021484375C-10.790237426757812 -5016.47021484375 -12.433929443359375 -5016.0498046875 -13.956130981445312 -5015.169921875C-16.716033935546875 -5013.60009765625 -18.597732543945312 -5010.39990234375 -43.122528076171875 -4965.490234375C-397.5760192871094 -4317.64990234375 -582.6320495605469 -3614.25 -582.6320495605469 -2924.889892578125C-582.6320495605469 -2822.669921875 -578.5630187988281 -2720.760009765625 -570.3740539550781 -2619.389892578125C-545.0340270996094 -2306.2099609375 -480.24102783203125 -1993.8499755859375 -380.2600402832031 -1702.8699951171875L-357.30303955078125 -1635.199951171875C-305.93304443359375 -1476.8199462890625 -277.8330383300781 -1323.8399658203125 -269.49102783203125 -1157.239990234375C-268.926025390625 -1146.3299560546875 -268.64404296875 -1116.02001953125 -268.64404296875 -1085.719970703125C-268.64404296875 -1055.4100341796875 -268.926025390625 -1025.1199951171875 -269.49102783203125 -1014.239990234375C-290.5030212402344 -595.1810302734375 -463.80804443359375 -242.739013671875 -756.0350036621094 -24.650314331054688C-768.8940124511719 -15.053619384765625 -775.3230285644531 -10.349319458007812 -775.3230285644531 -5.645111083984375C-775.3230285644531 -0.94085693359375 -768.8940124511719 3.7633819580078125 -756.0350036621094 13.360092163085938C-463.80804443359375 231.44898986816406 -290.5030212402344 583.8909759521484 -269.49102783203125 1002.9499969482422C-268.926025390625 1013.8300018310547 -268.64404296875 1044.1199798583984 -268.64404296875 1074.4300384521484C-268.64404296875 1104.729965209961 -268.926025390625 1135.040023803711 -269.49102783203125 1145.949935913086C-277.8330383300781 1312.550033569336 -305.93304443359375 1465.530014038086 -357.30303955078125 1623.9100189208984L-380.5110168457031 1692.270004272461C-514.9160461425781 2083.520004272461 -583.9380187988281 2507.479965209961 -583.9380187988281 2928.350082397461C-583.9380187988281 3087.669906616211 -574.0460510253906 3246.550033569336 -554.0660095214844 3403.050033569336C-484.0670166015625 3951.689926147461 -315.0280456542969 4468.600082397461 -43.122528076171875 4965.490219116211C-18.597732543945312 5010.399887084961 -16.716033935546875 5013.600082397461 -13.956130981445312 5015.169906616211Z" fill="black" /></g></svg>