<?xml version="1.0" encoding="utf-8" ?>
<svg baseProfile="tiny" height="100%" version="1.2" width="100%" xmlns="http://www.w3.org/2000/svg" xmlns:ev="http://www.w3.org/2001/xml-events" xmlns:xlink="http://www.w3.org/1999/xlink"><defs /><g transform="translate(0, 1000) scale(1, -1)"><path d="M-14.406707763671875 1209.5999755859375C-13.345596313476562 1209.989990234375 -12.280792236328125 1210.1800537109375 -11.247406005859375 1210.1800537109375C-6.507049560546875 1210.1800537109375 -2.4298248291015625 1206.300048828125 -2.4298248291015625 1200.989990234375V1198.1300048828125L-5.3488006591796875 1192.8699951171875C-42.75389099121094 1125.219970703125 -68.18208312988281 1051.25 -81.84419250488281 970.4829711914062C-89.42399597167969 925.666015625 -93.19837951660156 878.8629760742188 -93.19837951660156 830.3480224609375C-93.19837951660156 706.6719970703125 -68.66938781738281 571.8709716796875 -20.124282836914062 430.47198486328125C-8.89971923828125 397.760986328125 -3.0918426513671875 370.8580017089844 -0.9552764892578125 341.7590026855469C-0.3175506591796875 333.0740051269531 1.52587890625e-05 324.4320068359375 1.52587890625e-05 315.8370056152344C1.52587890625e-05 197.88999938964844 -59.80207824707031 88.8760986328125 -172.7539825439453 1.9534759521484375C-175.07098388671875 0.1780242919921875 -176.96697998046875 -1.3867950439453125 -176.96697998046875 -1.507171630859375C-176.96697998046875 -1.627532958984375 -175.07098388671875 -3.192352294921875 -172.7539825439453 -4.9678192138671875C-59.80207824707031 -91.8905029296875 1.52587890625e-05 -200.9040069580078 1.52587890625e-05 -318.85101318359375C1.52587890625e-05 -327.4460144042969 -0.3175506591796875 -336.0880126953125 -0.9552764892578125 -344.77301025390625C-3.0918426513671875 -373.90301513671875 -8.89971923828125 -400.8059997558594 -20.124282836914062 -433.4859924316406C-57.58949279785156 -542.5419921875 -80.27928161621094 -645.2780151367188 -89.06639099121094 -745.697021484375C-91.63679504394531 -775.0020141601562 -92.91978454589844 -803.7440185546875 -92.91978454589844 -831.9010009765625C-92.91978454589844 -966.5859985351562 -63.56488037109375 -1087.8699951171875 -5.3488006591796875 -1193.1700439453125L-2.4298248291015625 -1198.43994140625V-1201.300048828125C-2.4298095703125 -1206.989990234375 -5.61962890625 -1210.1800537109375 -11.307083129882812 -1210.1800537109375H-11.794784545898438C-17.289688110351562 -1210.1800537109375 -17.405990600585938 -1209.780029296875 -32.76318359375 -1181.2900390625C-127.11898803710938 -1006.1500244140625 -174.8009796142578 -831.6019897460938 -174.8009796142578 -665.4169921875C-174.8009796142578 -574.4429931640625 -160.510986328125 -485.9739990234375 -131.7679901123047 -401.2869873046875C-119.54998779296875 -365.20599365234375 -115.45799255371094 -351.1830139160156 -110.16099548339844 -327.1090087890625C-104.50398254394531 -301.3500061035156 -101.43397521972656 -279.8940124511719 -99.41818237304688 -252.0279998779297C-99.13499450683594 -248.197998046875 -99.00288391113281 -239.64300537109375 -99.00288391113281 -230.6219940185547C-99.00288391113281 -219.51199340820312 -99.20329284667969 -207.69500732421875 -99.56867980957031 -203.1269989013672C-106.48997497558594 -117.45401000976562 -138.6589813232422 -53.5072021484375 -196.67698669433594 -9.9932861328125C-200.24298095703125 -7.330078125 -202.02598571777344 -4.4186248779296875 -202.02598571777344 -1.507171630859375C-202.02598571777344 1.404296875 -200.24298095703125 4.3157501220703125 -196.67698669433594 6.97894287109375C-132.63998413085938 55.00669860839844 -99.08717346191406 129.9669952392578 -99.02699279785156 225.08999633789062C-99.02699279785156 237.3679962158203 -99.14738464355469 245.43299865722656 -99.41818237304688 249.01400756835938C-103.14997863769531 300.5920104980469 -111.24497985839844 338.2080078125 -131.16598510742188 396.4670104980469C-160.50099182128906 482.1600036621094 -175.08998107910156 571.666015625 -175.08998107910156 663.7239990234375C-175.08998107910156 829.093017578125 -128.0139923095703 1002.7000122070312 -34.779388427734375 1177.219970703125C-19.101089477539062 1206.56005859375 -18.047882080078125 1208.239990234375 -14.406692504882812 1209.5999755859375Z" fill="black" /></g></svg>