<?xml version="1.0" encoding="utf-8" ?>
<svg baseProfile="tiny" height="100%" version="1.2" width="100%" xmlns="http://www.w3.org/2000/svg" xmlns:ev="http://www.w3.org/2001/xml-events" xmlns:xlink="http://www.w3.org/1999/xlink"><defs /><g transform="translate(0, 1000) scale(1, -1)"><path d="M-11.985702514648438 2185.659912109375C-10.916412353515625 2185.989990234375 -9.864822387695312 2186.139892578125 -8.855682373046875 2186.139892578125C-3.9196014404296875 2186.139892578125 -1.52587890625e-05 2182.449951171875 -1.52587890625e-05 2177.14990234375V2174.0400390625L-6.176971435546875 2162.7900390625C-83.53202819824219 2022.0699462890625 -134.17503356933594 1868.9200439453125 -159.2920379638672 1699.9300537109375C-170.6060333251953 1623.780029296875 -176.21603393554688 1544.6700439453125 -176.21603393554688 1463.4599609375C-176.21603393554688 1246.6500244140625 -136.23602294921875 1014.9099731445312 -58.087921142578125 784.843017578125C-42.33872985839844 738.4539794921875 -40.45703125 732.4819946289062 -34.3619384765625 708.1010131835938C-22.20013427734375 659.489990234375 -16.13983154296875 609.6079711914062 -16.13983154296875 559.5859985351562C-16.13983154296875 495.364013671875 -26.129135131835938 430.9100036621094 -46.02032470703125 368.614013671875C-90.28173828125 230.1439971923828 -184.81802368164062 101.53298950195312 -314.4930419921875 3.3558349609375C-318.5020446777344 0.3287353515625 -321.7330322265625 -2.2484130859375 -321.7330322265625 -2.4120330810546875C-321.7330322265625 -2.575653076171875 -318.5020446777344 -5.152801513671875 -314.4930419921875 -8.179901123046875C-179.21302795410156 -110.56999206542969 -82.38662719726562 -245.9309844970703 -40.74333190917969 -390.86497497558594C-24.297134399414062 -448.0759735107422 -16.084136962890625 -506.1489715576172 -16.084136962890625 -564.0519866943359C-16.084136962890625 -631.0170135498047 -27.068832397460938 -697.7540130615234 -49.006622314453125 -762.6680145263672C-79.97312927246094 -854.3820037841797 -95.3951416015625 -905.5560150146484 -112.04403686523438 -972.3159637451172C-154.60902404785156 -1142.6399993896484 -175.78602600097656 -1307.459945678711 -175.78602600097656 -1464.439926147461C-175.78602600097656 -1721.459945678711 -119.0250244140625 -1957.489974975586 -6.42242431640625 -2162.300033569336L-3.0517578125e-05 -2173.959945678711V-2177.070053100586C-3.0517578125e-05 -2182.540023803711 -4.2908935546875 -2186.139877319336 -8.815826416015625 -2186.139877319336C-10.9913330078125 -2186.139877319336 -13.220932006835938 -2185.310043334961 -15.0538330078125 -2183.449935913086C-18.65362548828125 -2179.810043334961 -46.75672912597656 -2127.570053100586 -68.846435546875 -2083.350082397461C-209.29103088378906 -1802.489974975586 -280.2580261230469 -1515.300033569336 -280.2580261230469 -1237.4100189208984C-280.2580261230469 -1063.979965209961 -252.6150360107422 -894.1680145263672 -196.96702575683594 -731.7830047607422C-182.97703552246094 -690.9579925537109 -175.85902404785156 -667.7230072021484 -169.19102478027344 -641.1739959716797C-152.19102478027344 -573.2589569091797 -143.89002990722656 -506.98997497558594 -143.89002990722656 -443.8479766845703C-143.89002990722656 -263.58399963378906 -211.54702758789062 -108.80198669433594 -337.60504150390625 -13.947784423828125C-345.74603271484375 -7.8117523193359375 -346.4820251464844 -6.8299713134765625 -346.4820251464844 -2.412017822265625C-346.4820251464844 1.9241180419921875 -345.70501708984375 2.987701416015625 -338.42303466796875 8.46923828125C-211.905029296875 103.46601867675781 -143.8820343017578 258.1110076904297 -143.8820343017578 438.81800842285156C-143.8820343017578 496.38002014160156 -150.78402709960938 556.5860137939453 -164.89602661132812 618.3510284423828C-172.83203125 653.0810089111328 -180.35902404785156 678.5250396728516 -196.96702575683594 726.9589996337891C-214.1480255126953 777.1110382080078 -229.73402404785156 832.2130279541016 -241.9240264892578 885.8830108642578C-267.8800354003906 1000.1900177001953 -280.7600402832031 1117.1700592041016 -280.7600402832031 1235.6800689697266C-280.7600402832031 1544.6800689697266 -193.19602966308594 1864.040054321289 -21.558029174804688 2173.229995727539C-16.567337036132812 2182.179946899414 -14.481124877929688 2184.919937133789 -11.985733032226562 2185.659927368164Z" fill="black" /></g></svg>