<?xml version="1.0" encoding="utf-8" ?>
<svg baseProfile="tiny" height="100%" version="1.2" width="100%" xmlns="http://www.w3.org/2000/svg" xmlns:ev="http://www.w3.org/2001/xml-events" xmlns:xlink="http://www.w3.org/1999/xlink"><defs /><g transform="translate(0, 1000) scale(1, -1)"><path d="M-11.51190185546875 276.8380126953125C-11.248199462890625 276.86199951171875 -10.986099243164062 276.8739929199219 -10.726104736328125 276.8739929199219C-5.9391326904296875 276.8739929199219 -1.8645477294921875 272.8080139160156 -1.8645477294921875 267.82501220703125C-1.8645477294921875 265.86199951171875 -2.16650390625 264.90301513671875 -3.60076904296875 262.2760009765625C-15.02020263671875 241.4010009765625 -20.72900390625 217.5260009765625 -20.72900390625 190.51300048828125C-20.72900390625 163.4199981689453 -14.986297607421875 133.1699981689453 -3.5026397705078125 99.62249755859375C-1.88720703125 94.90451049804688 -1.049285888671875 91.96800231933594 -0.271759033203125 88.29930114746094L0.0 87.04620361328125V71.82778930664062V56.61698913574219L-0.226470947265625 55.52998352050781C-4.416046142578125 35.38227844238281 -15.89019775390625 17.408584594726562 -35.06410217285156 0.9673309326171875C-35.84919738769531 0.2954864501953125 -36.49839782714844 -0.2782135009765625 -36.49839782714844 -0.30841064453125C-36.49839782714844 -0.3386077880859375 -35.84919738769531 -0.9123077392578125 -35.06410217285156 -1.5841522216796875C-15.89019775390625 -18.025421142578125 -4.416046142578125 -35.999114990234375 -0.226470947265625 -56.146820068359375L0.0 -57.23382568359375V-72.44462585449219V-87.66302490234375L-0.271759033203125 -88.91612243652344C-1.049285888671875 -92.59991455078125 -1.88720703125 -95.52131652832031 -3.5177459716796875 -100.26901245117188C-14.956100463867188 -133.65501403808594 -20.67620849609375 -163.7250213623047 -20.67620849609375 -190.68601989746094C-20.67620849609375 -217.56600952148438 -14.990005493164062 -241.35401916503906 -3.615875244140625 -262.2510223388672C-2.1589508056640625 -264.9240264892578 -1.8645477294921875 -265.8670196533203 -1.8645477294921875 -267.83802795410156C-1.8645477294921875 -273.2630157470703 -6.2742156982421875 -276.87400817871094 -10.921295166015625 -276.87400817871094C-13.069305419921875 -276.87400817871094 -15.268096923828125 -276.10301208496094 -17.105606079101562 -274.3820037841797C-18.041595458984375 -273.51402282714844 -18.449203491210938 -272.88002014160156 -20.736495971679688 -268.7060089111328C-44.74000549316406 -225.06201171875 -56.753692626953125 -183.63401794433594 -56.753692626953125 -144.59201049804688C-56.753692626953125 -124.46501159667969 -53.561004638671875 -104.97300720214844 -47.172393798828125 -86.13810729980469C-43.87359619140625 -76.43040466308594 -42.665802001953125 -72.12760925292969 -41.299407958984375 -65.21290588378906C-39.9873046875 -58.597015380859375 -39.33259582519531 -52.40650939941406 -39.33259582519531 -46.65690612792969C-39.33259582519531 -32.75791931152344 -43.158599853515625 -21.435012817382812 -50.773193359375 -12.907318115234375C-52.298004150390625 -11.193817138671875 -54.079498291015625 -9.578323364257812 -56.246002197265625 -7.925140380859375C-59.122100830078125 -5.735992431640625 -60.337493896484375 -3.4713592529296875 -60.337493896484375 -0.30841064453125C-60.337493896484375 2.8545379638671875 -59.122100830078125 5.119171142578125 -56.246002197265625 7.308319091796875C-51.29400634765625 11.082687377929688 -47.69329833984375 15.393081665039062 -44.79449462890625 21.016891479492188C-41.1416015625 28.107879638671875 -39.31689453125 36.47029113769531 -39.31689453125 46.03468322753906C-39.31689453125 57.30229187011719 -41.84930419921875 70.23808288574219 -46.908203125 84.72868347167969C-49.60310363769531 92.43598937988281 -52.31309509277344 102.89898681640625 -53.822906494140625 111.41398620605469C-55.78630065917969 122.46897888183594 -56.773193359375 133.60498046875 -56.773193359375 144.86898803710938C-56.773193359375 184.57798767089844 -44.509490966796875 225.8839874267578 -19.528701782226562 270.88197326660156C-17.2716064453125 274.9509735107422 -15.195693969726562 276.4979705810547 -11.51190185546875 276.83799743652344Z" fill="black" /></g></svg>