<?xml version="1.0" encoding="utf-8" ?>
<svg baseProfile="tiny" height="100%" version="1.2" width="100%" xmlns="http://www.w3.org/2000/svg" xmlns:ev="http://www.w3.org/2001/xml-events" xmlns:xlink="http://www.w3.org/1999/xlink"><defs /><g transform="translate(0, 1000) scale(1, -1)"><path d="M-13.818695068359375 9944.2001953125C-12.425994873046875 9944.9404296875 -10.961105346679688 9945.2802734375 -9.526870727539062 9945.2802734375C-4.5810394287109375 9945.2802734375 0.0 9941.2900390625 0.0 9936.2197265625C0.0 9935.759765625 -0.0383148193359375 9935.2900390625 -0.118194580078125 9934.8095703125C-0.3766937255859375 9933.33984375 -8.821044921875 9917.400390625 -18.81640625 9899.400390625C-541.073974609375 8961.1201171875 -839.3839721679688 7878.009765625 -891.2570190429688 6731.47021484375C-896.7080078125 6610.77001953125 -899.4229736328125 6489.43994140625 -899.4229736328125 6367.6298828125C-899.4229736328125 5403.56005859375 -729.3480224609375 4409.509765625 -399.9330139160156 3457.989990234375C-369.42999267578125 3370.010009765625 -356.59100341796875 3330.719970703125 -341.42498779296875 3279.18994140625C-260.6629943847656 3005.669921875 -220.29200744628906 2724.31005859375 -220.29200744628906 2443.10009765625C-220.29200744628906 2158.75 -261.5679931640625 1874.550048828125 -344.09698486328125 1598.760009765625C-531.85400390625 971.468017578125 -926.9299926757812 411.9859619140625 -1465.989990234375 9.75860595703125C-1480.2099609375 -0.839935302734375 -1492.43994140625 -9.887466430664062 -1493.1300048828125 -10.318328857421875C-1493.68994140625 -10.662933349609375 -1493.969970703125 -10.878326416015625 -1493.969970703125 -11.093826293945312C-1493.969970703125 -11.309234619140625 -1493.68994140625 -11.524627685546875 -1493.1300048828125 -11.86932373046875C-1485.2900390625 -16.608428955078125 -1417.9100341796875 -68.13632202148438 -1381.97998046875 -96.82992553710938C-959.5009765625 -434.2600402832031 -629.8259887695312 -875.1760559082031 -433.4519958496094 -1365.6400451660156C-291.6029968261719 -1719.9399719238281 -220.13600158691406 -2092.010040283203 -220.13600158691406 -2465.280059814453C-220.13600158691406 -2705.580108642578 -249.75599670410156 -2946.370147705078 -309.2850036621094 -3183.240020751953C-333.6700134277344 -3280.179962158203 -354.52301025390625 -3349.199981689453 -391.4880065917969 -3455.620147705078C-728.47802734375 -4425.819854736328 -897.2990112304688 -5414.450225830078 -897.2990112304688 -6373.480010986328C-897.2990112304688 -7261.209991455078 -752.6500244140625 -8123.569854736328 -462.8349914550781 -8922.480499267578C-337.4620056152344 -9268.259796142578 -178.57000732421875 -9616.120147705078 -7.8732147216796875 -9919.000030517578C-2.9830474853515625 -9927.629913330078 -0.542633056640625 -9934.000030517578 -0.542633056640625 -9938.309600830078C-0.542633056640625 -9943.040069580078 -3.478546142578125 -9945.280303955078 -9.338043212890625 -9945.280303955078H-9.76849365234375C-15.024002075195312 -9945.280303955078 -15.235305786132812 -9944.870147705078 -32.861602783203125 -9913.309600830078C-583.2960510253906 -8929.030303955078 -938.1310119628906 -7820.399932861328 -1051.1000061035156 -6732.540069580078C-1052.9900207519531 -6714.020050048828 -1055.1500549316406 -6694.459991455078 -1055.8399963378906 -6689.029815673828C-1059.7099914550781 -6658.439971923828 -1070.1400451660156 -6537.810089111328 -1076.0000305175781 -6455.089874267578C-1089.1100158691406 -6270.640167236328 -1095.6400451660156 -6085.970245361328 -1095.6400451660156 -5901.560089111328C-1095.6400451660156 -5037.689971923828 -952.4490051269531 -4179.359893798828 -672.3930358886719 -3374.620147705078C-541.3330383300781 -2997.899932861328 -478.2580261230469 -2664.780059814453 -468.6080322265625 -2298.389923095703C-467.87603759765625 -2270.590118408203 -467.51202392578125 -2242.860137939453 -467.51202392578125 -2215.209991455078C-467.51202392578125 -1314.8399963378906 -853.6220397949219 -498.6290588378906 -1508.0400695800781 -24.535858154296875C-1516.0100402832031 -18.762664794921875 -1520.0000305175781 -14.928253173828125 -1520.0000305175781 -11.093856811523438C-1520.0000305175781 -7.2593994140625 -1516.0100402832031 -3.4249725341796875 -1508.0400695800781 2.34820556640625C-1346.1300354003906 119.62094116210938 -1188.3600158691406 270.49993896484375 -1057.9000549316406 432.6659240722656C-669.4170227050781 915.6099243164062 -467.6650390625 1538.5399780273438 -467.6650390625 2196.6000366210938C-467.6650390625 2554.8500366210938 -527.4600524902344 2923.4999389648438 -649.4720153808594 3285.6498413085938L-672.2200012207031 3351.9999389648438C-954.5620422363281 4167.160095214844 -1097.9599914550781 5023.529724121094 -1097.9599914550781 5888.979919433594C-1097.9599914550781 6053.089782714844 -1092.8000793457031 6217.519958496094 -1082.4599914550781 6382.059997558594C-1076.6000061035156 6475.979919433594 -1065.9200744628906 6608.589782714844 -1059.2800598144531 6668.999938964844L-1053.2500305175781 6725.009704589844C-934.8570251464844 7831.220153808594 -591.4820251464844 8907.099548339844 -39.238006591796875 9901.980407714844C-17.696197509765625 9940.839782714844 -16.576095581054688 9942.650329589844 -13.818695068359375 9944.200134277344Z" fill="black" /></g></svg>