<?xml version="1.0" encoding="utf-8" ?>
<svg baseProfile="tiny" height="100%" version="1.2" width="100%" xmlns="http://www.w3.org/2000/svg" xmlns:ev="http://www.w3.org/2001/xml-events" xmlns:xlink="http://www.w3.org/1999/xlink"><defs /><g transform="translate(0, 1000) scale(1, -1)"><path d="M-13.5054931640625 4361.9599609375C-12.034103393554688 4362.68994140625 -10.497299194335938 4363.02978515625 -9.01055908203125 4363.02978515625C-5.654327392578125 4363.02978515625 -2.552734375 4361.27001953125 -1.0319976806640625 4358.14990234375C-0.4074554443359375 4356.830078125 0.0 4355.7998046875 0.0 4354.509765625C0.0 4351.39990234375 -2.388519287109375 4346.83984375 -9.867416381835938 4333.31982421875C-252.37100219726562 3894.949951171875 -375.1969909667969 3390.52001953125 -375.1969909667969 2850.260009765625C-375.1969909667969 2553.110107421875 -338.0409851074219 2245.1298828125 -263.2070007324219 1931.3499755859375C-230.17599487304688 1793.0400390625 -190.44500732421875 1658.489990234375 -136.50900268554688 1502.5699462890625C-91.0972900390625 1371.18994140625 -68.36489868164062 1232.739990234375 -68.36489868164062 1093.8800048828125C-68.36489868164062 960.093017578125 -89.46578979492188 825.927001953125 -131.71499633789062 697.3359985351562C-220.58900451660156 426.614013671875 -402.0329895019531 179.39500427246094 -642.4949951171875 1.4162750244140625C-647.0 -1.93310546875 -650.6959838867188 -4.76275634765625 -650.6959838867188 -4.9359893798828125C-650.6959838867188 -5.1092376708984375 -647.0 -7.938873291015625 -642.4949951171875 -11.288299560546875C-402.0329895019531 -189.26699829101562 -220.58900451660156 -436.4859924316406 -131.71499633789062 -707.2080078125C-89.46578979492188 -835.7990112304688 -68.36489868164062 -969.9509887695312 -68.36489868164062 -1103.72998046875C-68.36489868164062 -1242.5799560546875 -91.0972900390625 -1381.030029296875 -136.50900268554688 -1512.43994140625C-204.36199951171875 -1708.6700439453125 -250.56100463867188 -1873.47998046875 -288.9049987792969 -2056.139892578125C-345.9630126953125 -2328.010009765625 -374.27899169921875 -2595.1298828125 -374.27899169921875 -2854.050048828125C-374.27899169921875 -3393.090087890625 -251.552001953125 -3896.580078125 -9.9251708984375 -4333.3701171875C-2.3999176025390625 -4346.91015625 -0.001434326171875 -4351.47021484375 -0.001434326171875 -4354.56982421875C-0.001434326171875 -4355.85009765625 -0.4085540771484375 -4356.89013671875 -1.0319976806640625 -4358.2001953125C-2.5919647216796875 -4361.35009765625 -6.1878662109375 -4363.02978515625 -9.642623901367188 -4363.02978515625C-12.454498291015625 -4363.02978515625 -15.172897338867188 -4361.919921875 -16.6239013671875 -4359.58984375C-32.15809631347656 -4334.7001953125 -95.68080139160156 -4213.89013671875 -126.45999145507812 -4150.66015625C-383.5419921875 -3622.4599609375 -513.5789794921875 -3073.639892578125 -513.5789794921875 -2534.739990234375C-513.5789794921875 -2215.6201171875 -467.9800109863281 -1899.97998046875 -376.1619873046875 -1594.1600341796875C-363.3420104980469 -1551.4200439453125 -354.1600036621094 -1523.239990234375 -324.8819885253906 -1436.7900390625C-268.35198974609375 -1269.9599609375 -240.427001953125 -1100.3499755859375 -240.427001953125 -936.8140258789062C-240.427001953125 -699.9169921875 -299.0270080566406 -475.7829895019531 -414.1600036621094 -291.364990234375C-481.7829895019531 -183.02999877929688 -568.2890014648438 -88.72821044921875 -664.72802734375 -18.218002319335938C-672.6110229492188 -12.443206787109375 -676.552001953125 -8.689605712890625 -676.552001953125 -4.9359893798828125C-676.552001953125 -1.182373046875 -672.6110229492188 2.57122802734375 -664.72802734375 8.346023559570312C-593.06298828125 60.72340393066406 -523.1309814453125 130.07899475097656 -467.0570068359375 204.39999389648438C-317.4330139160156 402.7099914550781 -240.3280029296875 654.8579711914062 -240.3280029296875 925.8889770507812C-240.3280029296875 1076.0 -263.97900390625 1231.9000244140625 -312.06201171875 1387.6500244140625C-316.8550109863281 1403.18994140625 -319.79998779296875 1412.1400146484375 -342.9570007324219 1480.3399658203125C-457.60198974609375 1818.530029296875 -514.3469848632812 2171.580078125 -514.3469848632812 2529.06005859375C-514.3469848632812 3137.830078125 -349.7909851074219 3759.429931640625 -26.38330078125 4342.31982421875C-16.27740478515625 4360.52001953125 -16.161895751953125 4360.6298828125 -13.5054931640625 4361.9599609375Z" fill="black" /></g></svg>