<?xml version="1.0" encoding="utf-8" ?>
<svg baseProfile="tiny" height="100%" version="1.2" width="100%" xmlns="http://www.w3.org/2000/svg" xmlns:ev="http://www.w3.org/2001/xml-events" xmlns:xlink="http://www.w3.org/1999/xlink"><defs /><g transform="translate(0, 1000) scale(1, -1)"><path d="M-13.9552001953125 5150.39990234375C-12.493698120117188 5151.2900390625 -10.919204711914062 5151.7001953125 -9.374176025390625 5151.7001953125C-4.5971527099609375 5151.7001953125 -0.1024169921875 5147.81005859375 -0.1024169921875 5142.4599609375C-0.1024169921875 5140.14990234375 -1.3839569091796875 5137.4599609375 -10.415695190429688 5121.10986328125C-301.2570037841797 4595.43017578125 -447.89100646972656 4000.610107421875 -447.89100646972656 3346.47998046875C-447.89100646972656 3339.8798828125 -447.8760223388672 3333.27001953125 -447.8460235595703 3326.64990234375C-447.54100036621094 3257.8798828125 -447.2360076904297 3241.4599609375 -445.58802795410156 3194.840087890625C-429.3550262451172 2740.68994140625 -339.8920135498047 2266.8798828125 -185.19300842285156 1816.27001953125L-169.08201599121094 1769.280029296875C-114.69502258300781 1611.0799560546875 -88.37481689453125 1448.699951171875 -88.37481689453125 1287.4200439453125C-88.37481689453125 803.7329711914062 -325.1120147705078 329.9119873046875 -751.5089874267578 8.2718505859375C-761.2730255126953 0.8877716064453125 -769.3280181884766 -5.3978424072265625 -769.3280181884766 -5.6419525146484375C-769.3280181884766 -5.88604736328125 -761.2730255126953 -12.171676635742188 -751.5089874267578 -19.5557861328125C-325.07701110839844 -341.198974609375 -88.35762023925781 -815.0509948730469 -88.35762023925781 -1298.7599792480469C-88.35762023925781 -1460.1299743652344 -114.70402526855469 -1622.5899353027344 -169.1430206298828 -1780.8699645996094L-204.72100830078125 -1885.8399353027344C-366.97198486328125 -2382.749969482422 -447.5769958496094 -2877.189910888672 -447.5769958496094 -3351.790008544922C-447.5769958496094 -3991.769989013672 -301.0050048828125 -4595.649871826172 -10.41571044921875 -5120.799774169922C-3.1754608154296875 -5133.879852294922 -1.52587890625e-05 -5140.220184326172 -1.52587890625e-05 -5144.080047607422C-1.52587890625e-05 -5146.819793701172 -1.6053314208984375 -5148.310028076172 -4.4962615966796875 -5150.089813232422C-6.24285888671875 -5151.149871826172 -7.8415679931640625 -5151.700164794922 -9.374908447265625 -5151.700164794922C-13.145416259765625 -5151.700164794922 -16.520919799804688 -5148.350067138672 -20.729019165039062 -5140.930145263672C-79.98472595214844 -5036.269989013672 -152.666015625 -4892.249969482422 -204.35501098632812 -4777.220184326172C-465.2900085449219 -4196.390106201172 -596.8579711914062 -3598.009979248047 -596.8579711914062 -3008.100067138672C-596.8579711914062 -2643.159881591797 -546.5070190429688 -2281.469940185547 -445.2829895019531 -1929.1600036621094C-425.02301025390625 -1858.7399597167969 -415.92999267578125 -1830.3000183105469 -371.625 -1699.0999450683594C-305.5369873046875 -1503.3399353027344 -273.572998046875 -1306.3299255371094 -273.572998046875 -1116.9999694824219C-273.572998046875 -671.5399475097656 -450.52099609375 -268.6089782714844 -776.2849731445312 -24.681869506835938C-789.1610107421875 -15.009368896484375 -795.5999755859375 -10.325668334960938 -795.5999755859375 -5.641937255859375C-795.5999755859375 -0.9582366943359375 -789.1610107421875 3.7254638671875 -776.2849731445312 13.398025512695312C-494.7139892578125 224.4240264892578 -317.5570068359375 559.5150299072266 -280.8810119628906 950.6270294189453C-276.0849914550781 1001.6699981689453 -273.6990051269531 1053.229995727539 -273.6990051269531 1105.0999908447266C-273.6990051269531 1298.1300201416016 -306.739013671875 1495.6100006103516 -371.625 1687.810073852539L-396.4020080566406 1761.3499908447266C-531.0609741210938 2161.830093383789 -597.6959838867188 2579.439956665039 -597.6959838867188 3001.500015258789C-597.6959838867188 3719.409927368164 -404.90301513671875 4450.200210571289 -26.1602783203125 5131.479995727539C-17.12847900390625 5147.839859008789 -16.39617919921875 5148.930191040039 -13.955184936523438 5150.399917602539Z" fill="black" /></g></svg>