<?xml version="1.0" encoding="utf-8" ?>
<svg baseProfile="tiny" height="100%" version="1.2" width="100%" xmlns="http://www.w3.org/2000/svg" xmlns:ev="http://www.w3.org/2001/xml-events" xmlns:xlink="http://www.w3.org/1999/xlink"><defs /><g transform="translate(0, 1000) scale(1, -1)"><path d="M-15.177093505859375 8822.1103515625C-13.739700317382812 8823.4404296875 -11.714996337890625 8824.08984375 -9.623611450195312 8824.08984375C-7.1360931396484375 8824.08984375 -4.55438232421875 8823.169921875 -2.7547760009765625 8821.3701171875C-1.0893707275390625 8819.73046875 0.0 8818.5498046875 0.0 8816.4296875C0.0 8812.1103515625 -4.5039215087890625 8803.8896484375 -17.827194213867188 8779.9599609375C-477.28599548339844 7953.0498046875 -739.3140106201172 7001.5 -785.6899871826172 5992.06982421875C-790.6769866943359 5883.509765625 -793.1589813232422 5774.31982421875 -793.1589813232422 5664.6298828125C-793.1589813232422 4807.14990234375 -641.4780120849609 3919.72998046875 -349.2539825439453 3075.72998046875C-271.3249969482422 2850.800048828125 -233.22998046875 2692.8701171875 -208.13697814941406 2491.050048828125C-195.0129852294922 2385.60009765625 -188.5649871826172 2280.080078125 -188.5649871826172 2174.989990234375C-188.5649871826172 1335.77001953125 -599.7969818115234 524.5590209960938 -1306.3499603271484 3.6973876953125C-1316.290023803711 -3.590362548828125 -1324.3199310302734 -9.71868896484375 -1324.3199310302734 -9.967132568359375C-1324.3199310302734 -10.215606689453125 -1316.290023803711 -16.343902587890625 -1306.3499603271484 -23.631591796875C-658.9000091552734 -500.89599609375 -246.8939666748047 -1238.199951171875 -194.80296325683594 -2012.8499755859375C-190.55796813964844 -2076.090087890625 -188.40896606445312 -2138.239990234375 -188.40896606445312 -2199.679931640625C-188.40896606445312 -2496.639892578125 -238.6179656982422 -2777.070068359375 -345.11297607421875 -3083.659912109375C-640.2939758300781 -3933.97998046875 -791.1659851074219 -4816.72021484375 -791.1659851074219 -5672.18994140625C-791.1659851074219 -5983.39990234375 -771.1989440917969 -6291.0 -730.9489440917969 -6592.1201171875C-624.8629455566406 -7385.990234375 -377.49395751953125 -8140.60009765625 -7.640869140625 -8798.3203125C-2.32305908203125 -8807.75 -0.013946533203125 -8812.599609375 -0.013946533203125 -8815.9404296875C-0.013946533203125 -8818.1201171875 -0.9918212890625 -8819.66015625 -2.7547607421875 -8821.4296875C-4.4556884765625 -8823.1796875 -7.1270599365234375 -8824.08984375 -9.692291259765625 -8824.08984375C-11.623291015625 -8824.08984375 -13.494277954101562 -8823.5703125 -14.845779418945312 -8822.5C-16.916183471679688 -8820.9296875 -24.121078491210938 -8808.259765625 -54.431488037109375 -8753.1904296875C-539.4799499511719 -7870.8701171875 -845.8139953613281 -6898.2900390625 -943.0389709472656 -5931.259765625C-944.1989440917969 -5919.66015625 -945.3579406738281 -5909.56005859375 -945.5239562988281 -5908.89990234375C-945.9379577636719 -5907.490234375 -950.7409973144531 -5856.81005859375 -953.8049621582031 -5821.93994140625C-971.0859680175781 -5623.14013671875 -979.6779479980469 -5423.77978515625 -979.6779479980469 -5224.68017578125C-979.6779479980469 -4471.60009765625 -856.7459411621094 -3722.300048828125 -616.1669616699219 -3021.1298828125C-565.8979797363281 -2874.550048828125 -549.1699523925781 -2821.7099609375 -526.1469421386719 -2735.419921875C-456.8119812011719 -2475.820068359375 -423.24896240234375 -2215.7900390625 -423.24896240234375 -1962.780029296875C-423.24896240234375 -1176.510009765625 -747.3799743652344 -457.9320068359375 -1329.3699645996094 -30.25689697265625C-1349.8299255371094 -15.267303466796875 -1350.0799255371094 -15.018905639648438 -1350.0799255371094 -9.967132568359375C-1350.0799255371094 -4.9154052734375 -1349.8299255371094 -4.666961669921875 -1329.3699645996094 10.322601318359375C-749.0949401855469 436.7349853515625 -423.3649597167969 1153.6800537109375 -423.3649597167969 1941.8699951171875C-423.3649597167969 2151.89990234375 -446.49395751953125 2366.97998046875 -494.09796142578125 2582.97998046875C-524.7389831542969 2722.18994140625 -549.8319396972656 2808.14990234375 -615.3389587402344 2998.7099609375C-857.1599426269531 3702.469970703125 -981.1339416503906 4452.0400390625 -981.1339416503906 5211.1201171875C-981.1339416503906 5288.06005859375 -980.7199401855469 5345.77978515625 -980.0579528808594 5369.7099609375C-973.1009826660156 5622.6298828125 -958.6909484863281 5821.14013671875 -930.1199645996094 6057.91015625C-820.8869934082031 6964.47998046875 -531.4469909667969 7868.5 -85.07305908203125 8696.8095703125C-46.64686584472656 8768.0400390625 -17.992767333984375 8819.4599609375 -15.17706298828125 8822.1103515625Z" fill="black" /></g></svg>