<?xml version="1.0" encoding="utf-8" ?>
<svg baseProfile="tiny" height="100%" version="1.2" width="100%" xmlns="http://www.w3.org/2000/svg" xmlns:ev="http://www.w3.org/2001/xml-events" xmlns:xlink="http://www.w3.org/1999/xlink"><defs /><g transform="translate(0, 1000) scale(1, -1)"><path d="M-14.323394775390625 5843.68994140625C-12.876205444335938 5844.56982421875 -11.188201904296875 5844.990234375 -9.49688720703125 5844.990234375C-6.267425537109375 5844.990234375 -3.026336669921875 5843.47021484375 -1.4287872314453125 5840.7900390625C-0.5711517333984375 5839.39990234375 -0.0158538818359375 5838.31005859375 -0.0158538818359375 5836.830078125C-0.0158538818359375 5833.419921875 -2.94964599609375 5827.93994140625 -11.889205932617188 5811.85009765625C-327.15000915527344 5243.81982421875 -497.5430145263672 4587.77978515625 -511.9510040283203 3886.72998046875C-512.6309967041016 3853.409912109375 -512.9710235595703 3820.06005859375 -512.9710235595703 3786.679931640625C-512.9710235595703 3206.81005859375 -410.34800720214844 2617.719970703125 -206.49301147460938 2027.8599853515625C-147.02001953125 1855.68994140625 -117.7440185546875 1708.06005859375 -108.9940185546875 1535.3699951171875C-107.5670166015625 1507.239990234375 -106.85902404785156 1479.1400146484375 -106.85902404785156 1451.0999755859375C-106.85902404785156 898.4409790039062 -381.83900451660156 364.7659912109375 -854.0529937744141 9.197021484375C-865.1060333251953 0.841827392578125 -874.1190338134766 -6.131805419921875 -874.1190338134766 -6.32916259765625C-874.1190338134766 -6.5265350341796875 -865.1060333251953 -13.500198364257812 -854.0529937744141 -21.855300903320312C-416.88600158691406 -350.9970245361328 -144.7830352783203 -837.3090362548828 -110.967041015625 -1349.740005493164C-108.29403686523438 -1390.310073852539 -106.94403076171875 -1430.260025024414 -106.94403076171875 -1469.800064086914C-106.94403076171875 -1662.810073852539 -139.11203002929688 -1845.750015258789 -206.49302673339844 -2040.520034790039C-410.6380310058594 -2630.610122680664 -512.0620422363281 -3221.969985961914 -512.0620422363281 -3789.870132446289C-512.0620422363281 -4521.189956665039 -343.86602783203125 -5213.609878540039 -10.244537353515625 -5814.310073852539C-3.1890869140625 -5826.959976196289 -3.0517578125e-05 -5833.490249633789 -3.0517578125e-05 -5837.479995727539C-3.0517578125e-05 -5840.330093383789 -1.6336212158203125 -5841.890151977539 -4.6524658203125 -5843.450210571289C-6.5341949462890625 -5844.410171508789 -8.105316162109375 -5844.990249633789 -9.585067749023438 -5844.990249633789C-14.003128051757812 -5844.990249633789 -17.606826782226562 -5839.850112915039 -26.231231689453125 -5824.370132446289C-341.821044921875 -5257.729995727539 -551.2270202636719 -4634.580093383789 -629.0550231933594 -4030.639907836914C-630.5030212402344 -4019.260025024414 -632.1470031738281 -4006.949966430664 -632.6740417480469 -4003.340103149414C-634.6470031738281 -3989.719985961914 -640.5020446777344 -3939.780044555664 -644.1210021972656 -3905.310073852539C-661.0660095214844 -3743.979995727539 -669.5240173339844 -3583.229995727539 -669.5240173339844 -3423.360122680664C-669.5240173339844 -2987.379898071289 -606.6140441894531 -2558.000015258789 -481.3590393066406 -2141.510025024414C-462.2140197753906 -2077.830093383789 -447.21502685546875 -2031.9000396728516 -417.21502685546875 -1945.1300201416016C-339.9210205078125 -1721.3399810791016 -302.613037109375 -1494.949966430664 -302.613037109375 -1276.949966430664C-302.613037109375 -764.4409942626953 -508.8180236816406 -298.31202697753906 -886.4210510253906 -21.328994750976562C-895.8500061035156 -14.395599365234375 -900.6190490722656 -10.382003784179688 -900.6190490722656 -6.3338775634765625C-900.6190490722656 -2.1619873046875 -895.5540466308594 2.04669189453125 -885.3030090332031 9.525970458984375C-627.0160217285156 198.406005859375 -436.7540283203125 493.07501220703125 -353.4000244140625 833.4660034179688C-319.3930358886719 972.2509765625 -302.4640197753906 1116.0 -302.4640197753906 1262.2900390625C-302.4640197753906 1485.6099853515625 -341.9190368652344 1714.8299560546875 -420.3070373535156 1941.2900390625C-457.54302978515625 2048.97998046875 -484.51702880859375 2135.169921875 -510.3060302734375 2229.179931640625C-604.5160217285156 2572.39990234375 -654.3180236816406 2898.780029296875 -668.2000427246094 3263.3798828125C-669.9670104980469 3309.590087890625 -670.8360290527344 3359.489990234375 -670.8360290527344 3411.0400390625C-670.8360290527344 3497.679931640625 -668.3790588378906 3588.969970703125 -663.5940246582031 3675.219970703125C-624.6470031738281 4373.7001953125 -423.3330383300781 5079.93994140625 -77.546630859375 5730.47021484375C-42.41532897949219 5796.64990234375 -17.020828247070312 5842.0400390625 -14.32342529296875 5843.68994140625Z" fill="black" /></g></svg>