<?xml version="1.0" encoding="utf-8" ?>
<svg baseProfile="tiny" height="100%" version="1.2" width="100%" xmlns="http://www.w3.org/2000/svg" xmlns:ev="http://www.w3.org/2001/xml-events" xmlns:xlink="http://www.w3.org/1999/xlink"><defs /><g transform="translate(0, 1000) scale(1, -1)"><path d="M-14.238906860351562 6542.2998046875C-12.886917114257812 6543.14013671875 -11.263916015625 6543.52978515625 -9.611770629882812 6543.52978515625C-6.2909393310546875 6543.52978515625 -2.8521575927734375 6541.9501953125 -1.2592315673828125 6539.27978515625C-0.4968414306640625 6537.97998046875 -0.0041046142578125 6536.91015625 -0.0041046142578125 6535.490234375C-0.0041046142578125 6531.9501953125 -3.076568603515625 6526.18017578125 -12.6953125 6508.89990234375C-185.78102111816406 6197.0400390625 -320.1380157470703 5862.64990234375 -415.0650177001953 5507.080078125C-524.1580352783203 5098.759765625 -578.3920440673828 4668.10009765625 -578.3920440673828 4226.39990234375C-578.3920440673828 3585.530029296875 -464.2160186767578 2921.419921875 -237.77001953125 2268.6201171875C-168.9420166015625 2070.139892578125 -137.0900115966797 1905.75 -127.05702209472656 1697.510009765625C-125.86601257324219 1672.6800537109375 -125.27702331542969 1647.3800048828125 -125.27702331542969 1621.719970703125C-125.27702331542969 1453.9000244140625 -150.47801208496094 1271.010009765625 -197.21701049804688 1103.9599609375C-317.8930206298828 672.1900024414062 -594.5349884033203 276.9070129394531 -969.2620391845703 0.7557373046875C-974.9450225830078 -3.38372802734375 -979.5750274658203 -7.10223388671875 -979.5750274658203 -7.38287353515625C-979.5750274658203 -7.66351318359375 -974.9450225830078 -11.382003784179688 -969.2620391845703 -15.521499633789062C-594.5349884033203 -291.67298889160156 -317.8930206298828 -686.9559783935547 -197.21701049804688 -1118.719955444336C-150.47801208496094 -1285.780014038086 -125.27702331542969 -1468.6700286865234 -125.27702331542969 -1636.489974975586C-125.27702331542969 -1662.1399993896484 -125.86601257324219 -1687.439926147461 -127.05702209472656 -1712.280014038086C-137.0900115966797 -1920.520004272461 -168.87200927734375 -2084.479965209961 -237.77001953125 -2283.379867553711C-463.12501525878906 -2933.840072631836 -576.5040435791016 -3586.540023803711 -576.5040435791016 -4233.490219116211C-576.5040435791016 -4321.259750366211 -576.0830230712891 -4348.270004272461 -574.0479888916016 -4410.299789428711C-548.5800323486328 -5174.200180053711 -358.44602966308594 -5885.279769897461 -13.046127319335938 -6508.229965209961C-3.1202392578125 -6526.080062866211 -3.0517578125e-05 -6531.959945678711 -3.0517578125e-05 -6535.529769897461C-3.0517578125e-05 -6536.950180053711 -0.4981231689453125 -6538.009750366211 -1.259246826171875 -6539.310043334961C-2.92596435546875 -6542.100082397461 -6.183258056640625 -6543.529769897461 -9.397903442382812 -6543.529769897461C-12.407928466796875 -6543.529769897461 -15.380630493164062 -6542.279769897461 -16.975128173828125 -6539.729965209961C-20.974334716796875 -6533.490219116211 -58.29962158203125 -6465.430160522461 -76.75173950195312 -6430.910140991211C-513.6630554199219 -5613.999984741211 -742.5020446777344 -4722.770004272461 -742.5020446777344 -3844.399887084961C-742.5020446777344 -3777.439926147461 -741.1730041503906 -3710.560043334961 -738.5040588378906 -3643.790023803711C-718.7190246582031 -3147.479965209961 -628.7730407714844 -2672.699935913086 -464.738037109375 -2198.840072631836C-423.2740173339844 -2078.939926147461 -396.613037109375 -1981.6199798583984 -374.1610412597656 -1868.040023803711C-345.29302978515625 -1721.8399505615234 -331.2230224609375 -1576.939926147461 -331.2230224609375 -1435.530014038086C-331.2230224609375 -858.6469573974609 -565.3730163574219 -339.82395935058594 -984.2060241699219 -28.220443725585938C-998.6590270996094 -17.485931396484375 -1005.8900451660156 -12.434341430664062 -1005.8900451660156 -7.3828125C-1005.8900451660156 -2.3312530517578125 -998.6590270996094 2.72027587890625 -984.2060241699219 13.454864501953125C-565.3730163574219 325.0580749511719 -331.2230224609375 843.8810729980469 -331.2230224609375 1420.7601013183594C-331.2230224609375 1562.1801452636719 -345.29302978515625 1707.0800476074219 -374.1610412597656 1853.2701110839844C-398.2970275878906 1975.4201354980469 -422.291015625 2061.2200622558594 -475.3330383300781 2214.9500427246094C-628.0020446777344 2657.5201110839844 -718.0870056152344 3136.9900817871094 -739.2760314941406 3619.2100524902344C-742.8540344238281 3700.8702087402344 -743.4860534667969 3734.1299743652344 -743.4860534667969 3837.7601013183594C-743.4860534667969 3941.7300720214844 -742.8540344238281 3973.7300720214844 -739.2760314941406 4057.3601989746094C-702.9330139160156 4900.470306396484 -457.93304443359375 5749.549896240234 -29.25323486328125 6517.879974365234C-15.712234497070312 6542.230072021484 -16.484024047851562 6540.890228271484 -14.238937377929688 6542.299896240234Z" fill="black" /></g></svg>