<?xml version="1.0" encoding="utf-8" ?>
<svg baseProfile="tiny" height="100%" version="1.2" width="100%" xmlns="http://www.w3.org/2000/svg" xmlns:ev="http://www.w3.org/2001/xml-events" xmlns:xlink="http://www.w3.org/1999/xlink"><defs /><g transform="translate(0, 1000) scale(1, -1)"><path d="M-14.38409423828125 1217.7099609375C-13.343292236328125 1218.1099853515625 -12.2908935546875 1218.2900390625 -11.264205932617188 1218.2900390625C-6.52294921875 1218.2900390625 -2.3268280029296875 1214.3299560546875 -2.3268280029296875 1209.0699462890625C-2.326812744140625 1208.6800537109375 -2.3194122314453125 1208.3599853515625 -2.3194122314453125 1208.0699462890625C-2.3194122314453125 1206.1700439453125 -2.6389007568359375 1205.760009765625 -7.4769134521484375 1196.949951171875C-57.82667541503906 1105.1600341796875 -87.03077697753906 996.8579711914062 -92.75648498535156 880.677978515625C-93.46357727050781 866.2420043945312 -93.81538391113281 851.5989990234375 -93.81538391113281 836.77001953125C-93.81538391113281 710.552978515625 -68.33137512207031 570.8380126953125 -19.5341796875 430.9530029296875C-6.5175628662109375 393.6159973144531 1.52587890625e-05 355.8680114746094 1.52587890625e-05 317.7080078125C1.52587890625e-05 299.2049865722656 -1.532257080078125 280.6050109863281 -4.598907470703125 261.9079895019531C-20.41278076171875 165.4199981689453 -77.91209411621094 76.59539794921875 -171.885986328125 3.5549163818359375C-175.36997985839844 0.8586883544921875 -178.18798828125 -1.413421630859375 -178.18798828125 -1.53460693359375C-178.18800354003906 -1.6254730224609375 -176.85499572753906 -2.716094970703125 -175.24899291992188 -3.9581756591796875C-84.97079467773438 -72.45449829101562 -25.956695556640625 -159.3699951171875 -6.9922027587890625 -251.70799255371094C-2.3867645263671875 -274.17401123046875 -0.1077880859375 -297.3420104980469 -0.1077880859375 -320.4530029296875C-0.1077880859375 -358.45599365234375 -6.2699432373046875 -396.30499267578125 -18.38299560546875 -430.6289978027344C-67.77290344238281 -570.4920043945312 -93.5364990234375 -711.8519897460938 -93.5364990234375 -838.85302734375C-93.5364990234375 -874.4290161132812 -91.514892578125 -908.8779907226562 -87.42469787597656 -941.8519897460938C-75.82180786132812 -1035.4300537109375 -48.52630615234375 -1122.6500244140625 -7.4769287109375 -1197.239990234375C-2.638916015625 -1206.02001953125 -2.319427490234375 -1206.449951171875 -2.319427490234375 -1208.3499755859375C-2.319427490234375 -1208.6400146484375 -2.3268280029296875 -1208.9599609375 -2.3268280029296875 -1209.3499755859375C-2.3268280029296875 -1214.8699951171875 -5.7501373291015625 -1218.2900390625 -11.2637939453125 -1218.2900390625C-16.353302001953125 -1218.2900390625 -17.352996826171875 -1217.3199462890625 -23.169601440429688 -1206.8399658203125C-124.44500732421875 -1024.010009765625 -175.552001953125 -844.5759887695312 -175.58200073242188 -671.7750244140625C-175.58399963378906 -670.14599609375 -175.58599853515625 -668.6060180664062 -175.58599853515625 -667.1420288085938C-175.58599853515625 -648.4829711914062 -175.38400268554688 -642.2410278320312 -174.4010009765625 -623.7579956054688C-170.25 -546.68798828125 -156.10299682617188 -474.343994140625 -130.1699981689453 -397.63800048828125C-117.41600036621094 -359.8299865722656 -111.57000732421875 -337.7149963378906 -105.96499633789062 -305.96600341796875C-101.39498901367188 -280.052001953125 -99.14999389648438 -254.89500427246094 -99.14999389648438 -230.76199340820312C-99.14999389648438 -136.99400329589844 -133.03900146484375 -58.66999816894531 -196.0919952392578 -11.35009765625C-201.8780059814453 -7.0179443359375 -203.0290069580078 -5.3517303466796875 -203.0290069580078 -1.504302978515625C-203.0290069580078 2.3431243896484375 -201.8780059814453 4.0093231201171875 -196.0919952392578 8.341476440429688C-133.64500427246094 55.210906982421875 -99.07778930664062 133.8209991455078 -99.07778930664062 226.84300231933594C-99.07778930664062 236.39700317382812 -99.44229125976562 246.1020050048828 -100.17900085449219 255.94000244140625C-103.66299438476562 302.3210144042969 -112.05400085449219 341.15899658203125 -130.1699981689453 394.5989990234375C-138.8350067138672 420.197998046875 -143.25799560546875 434.8299865722656 -149.2259979248047 457.94500732421875C-167.08399963378906 527.0590209960938 -175.98899841308594 597.780029296875 -175.98899841308594 669.8179931640625C-175.98899841308594 842.4349975585938 -124.86199951171875 1022.6099853515625 -23.290802001953125 1206.3499755859375C-18.0498046875 1215.800048828125 -17.504501342773438 1216.52001953125 -14.38409423828125 1217.7099609375Z" fill="black" /></g></svg>