<?xml version="1.0" encoding="utf-8" ?>
<svg baseProfile="tiny" height="100%" version="1.2" width="100%" xmlns="http://www.w3.org/2000/svg" xmlns:ev="http://www.w3.org/2001/xml-events" xmlns:xlink="http://www.w3.org/1999/xlink"><defs /><g transform="translate(0, 1000) scale(1, -1)"><path d="M-16.210296630859375 1052.3299560546875C-15.447402954101562 1052.550048828125 -14.676605224609375 1052.6500244140625 -13.914703369140625 1052.6500244140625C-9.480194091796875 1052.6500244140625 -5.3430633544921875 1049.199951171875 -4.785308837890625 1044.5400390625C-4.7418365478515625 1044.1600341796875 -4.7151031494140625 1043.800048828125 -4.7151031494140625 1043.449951171875C-4.7151031494140625 1041.489990234375 -5.558624267578125 1039.6500244140625 -9.020645141601562 1033.3499755859375C-53.517791748046875 951.9910278320312 -77.28269958496094 861.6640014648438 -81.85791015625 756.3289794921875C-82.08010864257812 751.322998046875 -82.19119262695312 739.0999755859375 -82.19119262695312 726.8389892578125C-82.19119262695312 714.5770263671875 -82.08010864257812 702.2769775390625 -81.85791015625 697.1129760742188C-77.4656982421875 593.0339965820312 -56.39360046386719 487.6990051269531 -17.308303833007812 374.6260070800781C-5.7263946533203125 341.1090087890625 -0.0306396484375 307.56201171875 -0.0306396484375 274.510009765625C-0.0306396484375 173.86099243164062 -52.845794677734375 77.79029846191406 -153.10000610351562 1.0544586181640625C-154.7209930419922 -0.17431640625 -155.53199768066406 -0.684112548828125 -155.53199768066406 -1.1939239501953125C-155.53199768066406 -1.7037353515625 -154.7209930419922 -2.2135467529296875 -153.10000610351562 -3.4423065185546875C-52.88999938964844 -80.15139770507812 0.0 -176.43899536132812 0.0 -277.0379943847656C0.0 -309.9490051269531 -5.6608428955078125 -343.3219909667969 -17.177597045898438 -376.62200927734375C-50.066802978515625 -471.656005859375 -70.53750610351562 -563.2119750976562 -78.51150512695312 -650.6119995117188C-80.91229248046875 -676.926025390625 -82.11070251464844 -702.7059936523438 -82.11070251464844 -727.926025390625C-82.11070251464844 -841.9429931640625 -57.61810302734375 -944.5189819335938 -9.020645141601562 -1033.3900146484375C-5.5703277587890625 -1039.7099609375 -4.7165985107421875 -1041.5400390625 -4.7165985107421875 -1043.510009765625C-4.7165985107421875 -1043.8499755859375 -4.742584228515625 -1044.199951171875 -4.785308837890625 -1044.5799560546875C-5.3283233642578125 -1049.3599853515625 -9.429656982421875 -1052.6500244140625 -13.840301513671875 -1052.6500244140625C-15.163299560546875 -1052.6500244140625 -16.51409912109375 -1052.3499755859375 -17.80499267578125 -1051.7099609375C-20.680908203125 -1050.300048828125 -20.445602416992188 -1050.6700439453125 -29.909698486328125 -1033.3599853515625C-116.0360107421875 -875.8099975585938 -159.4149932861328 -721.2360229492188 -159.4149932861328 -574.4290161132812C-159.4149932861328 -495.9649963378906 -147.0240020751953 -419.72100830078125 -122.14599609375 -346.4259948730469C-112.21099853515625 -317.1180114746094 -108.08000183105469 -303.1839904785156 -103.92300415039062 -284.70001220703125C-98.22409057617188 -259.4179992675781 -95.53118896484375 -241.2220001220703 -93.51809692382812 -214.3979949951172C-93.281494140625 -211.19200134277344 -93.16799926757812 -203.80299377441406 -93.16799926757812 -196.01400756835938C-93.16799926757812 -186.59500122070312 -93.33399963378906 -176.59100341796875 -93.64889526367188 -172.69900512695312C-99.42669677734375 -101.11599731445312 -126.25 -46.97210693359375 -173.88499450683594 -10.841094970703125C-179.58399963378906 -6.527313232421875 -180.47300720214844 -5.1939544677734375 -180.47300720214844 -1.1939239501953125C-180.47300720214844 2.8061065673828125 -179.58399963378906 4.13946533203125 -173.88499450683594 8.453216552734375C-121.15200805664062 48.45359802246094 -93.20440673828125 111.90499877929688 -93.20440673828125 191.74899291992188C-93.20199584960938 193.18899536132812 -93.20050048828125 194.51300048828125 -93.20050048828125 195.73899841308594C-93.20050048828125 207.82400512695312 -93.34820556640625 210.40899658203125 -94.25019836425781 221.16099548339844C-97.30899047851562 257.73699951171875 -104.9949951171875 293.18798828125 -118.61599731445312 333.45001220703125C-135.66200256347656 383.8550109863281 -144.3939971923828 418.86199951171875 -151.4530029296875 465.21600341796875C-156.90899658203125 500.95098876953125 -159.62899780273438 537.22900390625 -159.62899780273438 573.97900390625C-159.62899780273438 721.0780029296875 -116.05000305175781 875.72900390625 -29.909698486328125 1033.3299560546875C-20.0010986328125 1051.43994140625 -20.184097290039062 1051.2099609375 -16.210296630859375 1052.3299560546875Z" fill="black" /></g></svg>