<?xml version="1.0" encoding="utf-8" ?>
<svg baseProfile="tiny" height="100%" version="1.2" width="100%" xmlns="http://www.w3.org/2000/svg" xmlns:ev="http://www.w3.org/2001/xml-events" xmlns:xlink="http://www.w3.org/1999/xlink"><defs /><g transform="translate(0, 1000) scale(1, -1)"><path d="M-15.222991943359375 11132.7998046875C-13.583694458007812 11134.2998046875 -11.5238037109375 11135.0 -9.43389892578125 11135.0C-7.022796630859375 11135.0 -4.571746826171875 11134.0 -2.6805572509765625 11132.2001953125C-1.0708160400390625 11130.599609375 -0.015838623046875 11129.400390625 -0.015838623046875 11127.2998046875C-0.015838623046875 11122.7998046875 -4.7424163818359375 11114.2001953125 -18.939300537109375 11088.599609375C-641.4169616699219 9968.240234375 -976.7189636230469 8693.650390625 -1009.8899841308594 7322.43017578125C-1011.6499938964844 7249.509765625 -1012.5299987792969 7176.47021484375 -1012.5299987792969 7103.31982421875C-1012.5299987792969 6024.419921875 -820.8669738769531 4922.330078125 -443.3389587402344 3832.3701171875C-316.2399597167969 3465.56005859375 -254.07896423339844 3105.72998046875 -254.07896423339844 2733.06005859375C-254.07896423339844 2663.330078125 -256.2559814453125 2593.14990234375 -260.5909729003906 2522.3798828125C-320.7939758300781 1539.4300537109375 -831.9689636230469 611.75 -1645.5600280761719 8.7830810546875C-1660.6999206542969 -2.45867919921875 -1673.1499938964844 -11.842300415039062 -1673.1499938964844 -12.121002197265625C-1673.1499938964844 -12.399703979492188 -1660.6999206542969 -21.783401489257812 -1645.5600280761719 -33.02510070800781C-832.2479553222656 -635.5280303955078 -320.7939758300781 -1563.760025024414 -260.5909729003906 -2546.629898071289C-256.2559814453125 -2617.389907836914 -254.07896423339844 -2687.570083618164 -254.07896423339844 -2757.300064086914C-254.07896423339844 -3129.969985961914 -316.2399597167969 -3489.800064086914 -443.3389587402344 -3856.620132446289C-820.1049499511719 -4944.200210571289 -1010.0599670410156 -6039.370132446289 -1010.0599670410156 -7117.660171508789C-1010.0599670410156 -7373.910171508789 -999.3299865722656 -7629.200210571289 -977.8329772949219 -7883.209976196289C-926.1769714355469 -8492.959976196289 -798.6159973144531 -9141.169937133789 -623.8569641113281 -9681.889663696289L-606.1119689941406 -9736.709976196289C-455.7879638671875 -10201.799819946289 -253.4369659423828 -10667.000015258789 -16.152069091796875 -11092.900405883789C-4.18817138671875 -11114.299819946289 3.0517578125e-05 -11122.000015258789 3.0517578125e-05 -11126.299819946289C3.0517578125e-05 -11128.400405883789 -1.0418548583984375 -11129.700210571289 -2.6805267333984375 -11131.299819946289C-4.9698638916015625 -11133.599624633789 -6.907440185546875 -11135.000015258789 -8.913040161132812 -11135.000015258789C-13.744369506835938 -11135.000015258789 -18.970474243164062 -11127.200210571289 -30.45977783203125 -11106.599624633789C-663.5289916992188 -9970.089859008789 -1051.22998046875 -8744.089859008789 -1175.260009765625 -7486.500015258789L-1181.2099609375 -7425.640151977539C-1187.989990234375 -7358.660171508789 -1197.469970703125 -7234.069839477539 -1203.1300048828125 -7138.560073852539C-1213.3900146484375 -6964.060073852539 -1218.52001953125 -6790.049819946289 -1218.52001953125 -6616.620132446289C-1218.52001953125 -5643.680191040039 -1057.22998046875 -4688.700210571289 -736.4609985351562 -3764.169937133789C-626.64501953125 -3447.830093383789 -563.468017578125 -3166.129898071289 -532.343994140625 -2854.610122680664C-520.2080078125 -2733.040054321289 -514.2329711914062 -2612.350112915039 -514.2329711914062 -2493.000015258789C-514.2329711914062 -1483.050064086914 -942.1240234375 -569.1480255126953 -1685.5999755859375 -27.079116821289062C-1698.3299560546875 -17.695419311523438 -1699.260009765625 -16.76641845703125 -1699.260009765625 -11.749420166015625C-1699.260009765625 -7.2898712158203125 -1698.050048828125 -6.0820770263671875 -1675.5699462890625 10.269577026367188C-1300.1300048828125 284.8099822998047 -992.0479736328125 673.4399871826172 -790.6259765625 1126.459945678711C-606.52197265625 1540.489974975586 -514.1729736328125 1995.3499603271484 -514.1729736328125 2464.580062866211C-514.1729736328125 2880.969955444336 -586.8920288085938 3308.679916381836 -732.7449951171875 3729.249984741211C-1034.1400146484375 4598.299789428711 -1192.6300048828125 5462.799789428711 -1218.0 6375.240219116211C-1219.739990234375 6438.479965209961 -1220.6800537109375 6537.020004272461 -1220.6800537109375 6627.919906616211C-1220.6800537109375 6696.740219116211 -1220.1400146484375 6761.180160522461 -1219.02001953125 6802.609848022461C-1214.75 6962.140121459961 -1209.0799560546875 7084.399887084961 -1199.8800048828125 7218.370101928711C-1195.6099853515625 7279.689926147461 -1187.3399658203125 7383.379867553711 -1185.47998046875 7398.149887084961C-1185.02001953125 7401.959945678711 -1183.719970703125 7414.499984741211 -1182.68994140625 7426.020004272461C-1068.7900390625 8661.129867553711 -695.5819702148438 9881.280258178711 -88.8983154296875 11001.099594116211C-52.01420593261719 11069.299789428711 -17.63861083984375 11130.599594116211 -15.223007202148438 11132.799789428711Z" fill="black" /></g></svg>