<?xml version="1.0" encoding="utf-8" ?>
<svg baseProfile="tiny" height="100%" version="1.2" width="100%" xmlns="http://www.w3.org/2000/svg" xmlns:ev="http://www.w3.org/2001/xml-events" xmlns:xlink="http://www.w3.org/1999/xlink"><defs /><g transform="translate(0, 1000) scale(1, -1)"><path d="M-14.076904296875 11819.599609375C-12.64990234375 11820.2998046875 -11.14410400390625 11820.7001953125 -9.669265747070312 11820.7001953125C-4.6563873291015625 11820.7001953125 0.0 11816.599609375 0.0 11811.0C0.0 11809.7998046875 -6.6580047607421875 11796.900390625 -14.837799072265625 11782.2998046875C-672.9339904785156 10600.400390625 -1031.4200134277344 9259.259765625 -1073.8399353027344 7819.7998046875C-1076.5999450683594 7723.919921875 -1077.1700134277344 7682.06982421875 -1077.1700134277344 7540.16015625C-1077.1700134277344 7397.97021484375 -1076.6899108886719 7356.1201171875 -1073.8399353027344 7258.14990234375C-1046.1600036621094 6306.91015625 -882.8519592285156 5348.5400390625 -588.2819519042969 4408.0498046875C-550.5219421386719 4287.43994140625 -519.2289733886719 4193.18017578125 -466.2509765625 4040.429931640625C-339.2969665527344 3674.080078125 -274.2529602050781 3282.3701171875 -274.2529602050781 2891.4599609375C-274.2529602050781 2775.1201171875 -280.0149841308594 2658.840087890625 -291.6209716796875 2543.330078125C-391.5859680175781 1547.0999755859375 -918.1389465332031 628.4860229492188 -1742.0199890136719 13.001220703125C-1760.8499450683594 -1.0756988525390625 -1776.2599792480469 -12.964981079101562 -1776.2599792480469 -13.345489501953125C-1776.2599792480469 -13.725906372070312 -1760.8499450683594 -25.615203857421875 -1742.0199890136719 -39.69219970703125C-916.8079528808594 -656.2239990234375 -389.9689636230469 -1576.739990234375 -291.0499572753906 -2574.780029296875C-279.79296875 -2688.550048828125 -274.2029724121094 -2803.090087890625 -274.2029724121094 -2917.72998046875C-274.2029724121094 -3308.7099609375 -339.22998046875 -3700.77001953125 -466.2509765625 -4067.1201171875C-525.3169860839844 -4237.3798828125 -563.6479797363281 -4354.080078125 -605.2129821777344 -4489.43017578125C-918.0949401855469 -5508.2900390625 -1074.5799255371094 -6530.31005859375 -1074.5799255371094 -7555.2001953125C-1074.5799255371094 -7568.1201171875 -1074.5600280761719 -7581.0400390625 -1074.5099792480469 -7593.9599609375C-1074.0299987792969 -7721.22998046875 -1073.6499938964844 -7749.66015625 -1070.9899597167969 -7838.41015625C-1028.9499206542969 -9264.080078125 -672.0779724121094 -10598.5 -17.596160888671875 -11777.2998046875C-7.894439697265625 -11794.7001953125 4.57763671875e-05 -11809.900390625 4.57763671875e-05 -11811.0C4.57763671875e-05 -11816.7001953125 -4.408599853515625 -11820.7001953125 -9.421493530273438 -11820.7001953125C-10.953048706054688 -11820.7001953125 -12.541061401367188 -11820.2998046875 -14.076858520507812 -11819.5C-18.261947631835938 -11817.2998046875 -86.64915466308594 -11693.5 -148.09295654296875 -11576.900390625C-843.18896484375 -10257.400390625 -1232.0199584960938 -8815.1396484375 -1283.5698852539062 -7366.16015625C-1287.5299682617188 -7254.81005859375 -1289.4999389648438 -7143.64990234375 -1289.4999389648438 -7032.68994140625C-1289.4999389648438 -5999.7099609375 -1118.1299438476562 -4984.35986328125 -777.7499389648438 -4001.969970703125C-618.9429321289062 -3543.580078125 -541.2149658203125 -3103.719970703125 -541.2149658203125 -2662.85009765625C-541.2149658203125 -2636.35009765625 -541.4959106445312 -2609.85009765625 -542.0569458007812 -2583.340087890625C-558.2259521484375 -1821.280029296875 -785.5499267578125 -1148.72998046875 -1217.5599975585938 -584.5070190429688C-1369.1699829101562 -386.5740051269531 -1575.0899047851562 -185.59800720214844 -1781.9699096679688 -33.89019775390625C-1796.1599731445312 -23.445693969726562 -1803.3899536132812 -18.490203857421875 -1803.3899536132812 -13.447601318359375C-1803.3899536132812 -8.249755859375 -1795.7098999023438 -2.9593048095703125 -1780.0698852539062 8.530838012695312C-1589.0798950195312 149.3000030517578 -1414.5399780273438 315.6549987792969 -1261.5999145507812 502.6499938964844L-1194.8298950195312 587.7769775390625C-764.9549560546875 1154.5999755859375 -541.4839477539062 1871.6199951171875 -541.4839477539062 2625.830078125C-541.4839477539062 3006.219970703125 -598.3309326171875 3396.06005859375 -714.2139282226562 3780.860107421875C-733.4269409179688 3844.679931640625 -747.5039672851562 3887.9599609375 -777.7499389648438 3975.280029296875C-1120.3999633789062 4965.2998046875 -1292.0499877929688 5982.06982421875 -1292.0499877929688 7019.85986328125C-1292.0499877929688 7197.759765625 -1286.9999389648438 7376.27978515625 -1276.9099731445312 7555.3798828125C-1271.1998901367188 7656.9599609375 -1259.5999145507812 7814.3798828125 -1254.0798950195312 7864.97998046875C-1253.3198852539062 7872.02001953125 -1252.0899047851562 7885.14013671875 -1251.2299194335938 7893.990234375C-1126.1499633789062 9241.759765625 -713.4529418945312 10564.400390625 -40.13824462890625 11776.099609375C-16.264541625976562 11819.2001953125 -17.025436401367188 11817.900390625 -14.07684326171875 11819.599609375Z" fill="black" /></g></svg>