<?xml version="1.0" encoding="utf-8" ?>
<svg baseProfile="tiny" height="100%" version="1.2" width="100%" xmlns="http://www.w3.org/2000/svg" xmlns:ev="http://www.w3.org/2001/xml-events" xmlns:xlink="http://www.w3.org/1999/xlink"><defs /><g transform="translate(0, 1000) scale(1, -1)"><path d="M-19.841903686523438 739.8400268554688C-19.022720336914062 740.0689697265625 -18.202621459960938 740.177978515625 -17.39862060546875 740.177978515625C-12.782608032226562 740.177978515625 -8.697677612304688 736.5969848632812 -8.364242553710938 731.7000122070312C-8.34332275390625 731.4180297851562 -8.33203125 731.1489868164062 -8.33203125 730.8870239257812C-8.33203125 729.083984375 -8.867340087890625 727.6300048828125 -10.486709594726562 724.7150268554688C-43.51112365722656 665.6799926757812 -60.02461242675781 596.843017578125 -60.02461242675781 519.166015625C-60.02461242675781 443.489990234375 -44.35081481933594 359.4230041503906 -13.0006103515625 267.8529968261719C-7.3133087158203125 251.26499938964844 -4.8405609130859375 241.99200439453125 -2.86236572265625 229.93800354003906C-0.958953857421875 218.33799743652344 -0.012176513671875 206.8070068359375 -0.012176513671875 195.38400268554688C-0.012176513671875 147.81700134277344 -16.42791748046875 102.10699462890625 -48.54652404785156 60.96620178222656C-54.46051025390625 53.40370178222656 -63.30061340332031 43.347808837890625 -70.90431213378906 35.59989929199219C-81.78440856933594 24.472503662109375 -98.47550964355469 9.800827026367188 -111.29301452636719 0.0746612548828125C-111.9420166015625 -0.419891357421875 -112.26600646972656 -0.636260986328125 -112.26600646972656 -0.852630615234375C-112.26600646972656 -1.0689849853515625 -111.9420166015625 -1.2853546142578125 -111.29301452636719 -1.7799072265625C-87.22441101074219 -20.057693481445312 -63.52720642089844 -43.17790222167969 -47.371917724609375 -64.17568969726562C-16.0006103515625 -105.0 -1.52587890625e-05 -150.14100646972656 -1.52587890625e-05 -197.52099609375C-1.52587890625e-05 -203.63900756835938 -0.2667999267578125 -209.79400634765625 -0.801727294921875 -215.98199462890625C-2.2647705078125 -232.83799743652344 -5.6442108154296875 -247.98399353027344 -12.23822021484375 -267.31201171875C-44.09040832519531 -360.4800109863281 -60.00392150878906 -444.5090026855469 -60.00392150878906 -520.0020141601562C-60.00392150878906 -579.3060302734375 -50.18421936035156 -633.3419799804688 -30.557220458984375 -682.405029296875C-24.78741455078125 -696.8300170898438 -17.369216918945312 -712.510986328125 -10.486709594726562 -724.77197265625C-8.99249267578125 -727.4669799804688 -8.292938232421875 -729.469970703125 -8.292938232421875 -731.3590087890625C-8.292938232421875 -732.3880004882812 -8.500411987304688 -733.3829956054688 -8.899993896484375 -734.4359741210938C-10.304412841796875 -738.1320190429688 -13.866714477539062 -740.177978515625 -17.451522827148438 -740.177978515625C-19.8629150390625 -740.177978515625 -22.284515380859375 -739.2520141601562 -24.066207885742188 -737.280029296875C-25.199508666992188 -736.0020141601562 -32.926910400390625 -722.052001953125 -40.96342468261719 -706.7210083007812C-97.94351196289062 -597.9609985351562 -126.48101806640625 -494.093994140625 -126.48101806640625 -395.8009948730469C-126.48101806640625 -342.2040100097656 -117.99601745605469 -290.2640075683594 -101.01002502441406 -240.09100341796875C-90.87181091308594 -210.19200134277344 -86.40022277832031 -193.2530059814453 -82.71171569824219 -170.85400390625C-80.28901672363281 -156.17799377441406 -79.09022521972656 -142.11199951171875 -79.09022521972656 -128.73899841308594C-79.09022521972656 -77.16419982910156 -96.92051696777344 -35.90330505371094 -131.13601684570312 -9.754547119140625C-135.85501098632812 -6.1484375 -136.7620086669922 -4.726593017578125 -136.7620086669922 -0.852630615234375C-136.7620086669922 3.0213623046875 -135.85501098632812 4.4431915283203125 -131.13601684570312 8.049285888671875C-97.17831420898438 34.002197265625 -79.08981323242188 75.25588989257812 -79.08981323242188 126.48199462890625C-79.08981323242188 128.65899658203125 -79.12251281738281 130.85499572753906 -79.18801879882812 133.0679931640625C-80.11531066894531 164.4510040283203 -86.68870544433594 196.76199340820312 -99.97972106933594 235.25399780273438C-117.76802062988281 286.81201171875 -126.66201782226562 340.0570068359375 -126.66201782226562 394.9960021972656C-126.66201782226562 498.01800537109375 -95.38461303710938 606.9920043945312 -32.82391357421875 721.9539794921875C-23.880722045898438 738.3560180664062 -23.57171630859375 738.7890014648438 -19.8419189453125 739.8400268554688Z" fill="black" /></g></svg>