<?xml version="1.0" encoding="utf-8" ?>
<svg baseProfile="tiny" height="100%" version="1.2" width="100%" xmlns="http://www.w3.org/2000/svg" xmlns:ev="http://www.w3.org/2001/xml-events" xmlns:xlink="http://www.w3.org/1999/xlink"><defs /><g transform="translate(0, 1000) scale(1, -1)"><path d="M-11.308303833007812 2215C-10.267715454101562 2215.219970703125 -9.288970947265625 2215.330078125 -8.3770751953125 2215.330078125C-3.22161865234375 2215.330078125 -0.20208740234375 2211.929931640625 -0.20208740234375 2206.93994140625C-0.20208740234375 2204.27001953125 -1.0675811767578125 2201.139892578125 -2.9341583251953125 2197.840087890625C-49.73851013183594 2115.010009765625 -91.77540588378906 2013.68994140625 -119.75801086425781 1916.3900146484375C-159.8050079345703 1777.1800537109375 -178.62701416015625 1637.719970703125 -178.62701416015625 1480.6800537109375C-178.58502197265625 1435.699951171875 -178.12901306152344 1416.1800537109375 -176.13902282714844 1380.1500244140625C-167.10202026367188 1217.469970703125 -136.50701904296875 1046.8800048828125 -86.42750549316406 879.77001953125C-75.40011596679688 842.9569702148438 -66.11381530761719 814.2689819335938 -51.023712158203125 770.531982421875C-28.022506713867188 703.8419799804688 -16.724319458007812 635.2650146484375 -16.724319458007812 566.85302734375C-16.724319458007812 417.0150146484375 -70.92091369628906 267.9620056152344 -175.06101989746094 141.22300720214844C-217.88601684570312 89.07049560546875 -273.89402770996094 35.674591064453125 -323.84901428222656 -0.558349609375C-325.35801696777344 -1.6596221923828125 -326.13502502441406 -2.12884521484375 -326.13502502441406 -2.612548828125C-326.13502502441406 -3.1121063232421875 -325.30601501464844 -3.62713623046875 -323.6000213623047 -4.8698272705078125C-261.12501525878906 -50.720703125 -197.697021484375 -114.10800170898438 -150.80902099609375 -177.5780029296875C-62.41651916503906 -297.1419982910156 -16.763320922851562 -434.489990234375 -16.763320922851562 -572.1790161132812C-16.763320922851562 -640.6820068359375 -28.063919067382812 -709.27001953125 -51.023712158203125 -775.7940063476562C-63.12892150878906 -810.8250122070312 -70.59111022949219 -833.5430297851562 -79.29701232910156 -861.6090087890625C-131.28302001953125 -1029.300048828125 -163.0390167236328 -1196.2900390625 -174.27401733398438 -1360.5400390625C-177.06800842285156 -1401.510009765625 -178.4560089111328 -1442.1400146484375 -178.4560089111328 -1482.3499755859375C-178.4560089111328 -1746.989990234375 -118.31301879882812 -1993.4599609375 -2.9341583251953125 -2198.169921875C-0.9529876708984375 -2201.669921875 -1.52587890625e-05 -2204.860107421875 -1.52587890625e-05 -2207.510009765625C-1.52587890625e-05 -2212.2900390625 -3.101348876953125 -2215.330078125 -8.862442016601562 -2215.330078125C-14.542007446289062 -2215.330078125 -14.66632080078125 -2215.199951171875 -25.776718139648438 -2195.06005859375C-102.26402282714844 -2056.389892578125 -161.63002014160156 -1916.1400146484375 -205.49002075195312 -1770.5400390625C-257.52101135253906 -1597.9000244140625 -283.5220184326172 -1425.31005859375 -283.5220184326172 -1256.0400390625C-283.5220184326172 -1078.02001953125 -254.76402282714844 -903.6829833984375 -197.28201293945312 -736.8250122070312C-162.41702270507812 -635.6719970703125 -146.7880096435547 -552.302978515625 -145.42001342773438 -460.1029968261719C-145.3660125732422 -456.50799560546875 -145.3380126953125 -452.9219970703125 -145.3380126953125 -449.3450012207031C-145.3380126953125 -265.1099853515625 -217.43101501464844 -106.0419921875 -343.49900817871094 -13.03680419921875C-350.1740264892578 -8.1448974609375 -351.0440216064453 -6.90118408203125 -351.0440216064453 -2.6311798095703125C-351.0440216064453 1.6388397216796875 -350.1740264892578 2.8825225830078125 -343.49900817871094 7.7743988037109375C-217.43101501464844 100.77999877929688 -145.3380126953125 259.84698486328125 -145.3380126953125 444.0830078125C-145.3380126953125 447.65899658203125 -145.3660125732422 451.2460021972656 -145.42001342773438 454.84100341796875C-146.7880096435547 547.1229858398438 -162.33401489257812 629.9119873046875 -197.3240203857422 731.68701171875C-244.1690216064453 867.9130249023438 -272.31800842285156 1009.8599853515625 -281.0240020751953 1153.800048828125C-283.2210235595703 1190.239990234375 -283.88502502441406 1213.780029296875 -283.88502502441406 1253.5C-283.88502502441406 1293.4599609375 -283.2210235595703 1316.8499755859375 -281.0240020751953 1354.030029296875C-264.52500915527344 1631.75 -177.21701049804688 1919.75 -26.771621704101562 2192.89990234375C-15.702713012695312 2213.090087890625 -14.832107543945312 2214.25 -11.308319091796875 2215.0Z" fill="black" /></g></svg>