<?xml version="1.0" encoding="utf-8" ?>
<svg baseProfile="tiny" height="100%" version="1.2" width="100%" xmlns="http://www.w3.org/2000/svg" xmlns:ev="http://www.w3.org/2001/xml-events" xmlns:xlink="http://www.w3.org/1999/xlink"><defs /><g transform="translate(0, 1000) scale(1, -1)"><path d="M-11.583206176757812 1802.6500244140625C-10.703018188476562 1802.93994140625 -9.81744384765625 1803.0799560546875 -8.9493408203125 1803.0799560546875C-4.2325286865234375 1803.0799560546875 -0.03106689453125 1799.0400390625 -1.52587890625e-05 1793.7900390625V1791.030029296875L-5.3687591552734375 1781.2900390625C-96.50532531738281 1616.030029296875 -142.39601135253906 1424.7900390625 -142.39601135253906 1215.31005859375C-142.39601135253906 1084.760009765625 -124.57200622558594 947.1129760742188 -88.76802062988281 804.25C-74.6107177734375 747.7680053710938 -60.232818603515625 699.927978515625 -35.41160583496094 627.0089721679688C-17.342620849609375 573.9320068359375 -8.361663818359375 519.0750122070312 -8.361663818359375 464.14898681640625C-8.361663818359375 388.62799072265625 -25.340316772460938 312.9750061035156 -59.019317626953125 241.63600158691406C-63.43202209472656 232.29600524902344 -70.93351745605469 217.55099487304688 -74.02241516113281 212.1820068359375L-79.61170959472656 202.2899932861328C-120.64901733398438 129.48101806640625 -190.14901733398438 52.25971984863281 -261.74400329589844 -0.1038818359375C-263.22901916503906 -1.2036590576171875 -263.97401428222656 -1.6821441650390625 -263.97401428222656 -2.158721923828125C-263.97401428222656 -2.6382293701171875 -263.2200164794922 -3.115814208984375 -261.70802307128906 -4.2223663330078125C-190.14901733398438 -56.58589172363281 -120.64901733398438 -133.80699157714844 -79.61170959472656 -206.61598205566406L-74.02241516113281 -216.5079803466797C-68.65361022949219 -225.8109893798828 -58.43101501464844 -246.6239776611328 -52.142913818359375 -261.0389862060547C-23.056320190429688 -327.53797912597656 -8.41851806640625 -398.0979766845703 -8.41851806640625 -468.46897888183594C-8.41851806640625 -523.3610076904297 -17.32501220703125 -578.1389617919922 -35.22770690917969 -630.7830047607422C-66.30021667480469 -722.1619720458984 -82.88450622558594 -779.7839813232422 -99.87321472167969 -855.4609832763672C-128.02101135253906 -980.7389984130859 -142.02700805664062 -1101.780014038086 -142.02700805664062 -1217.259994506836C-142.02700805664062 -1426.1500091552734 -96.20582580566406 -1616.8499603271484 -5.3687591552734375 -1781.5699310302734L-1.52587890625e-05 -1791.310043334961V-1794.0699310302734C-0.0367889404296875 -1799.6600189208984 -3.419830322265625 -1803.0799407958984 -9.009201049804688 -1803.0799407958984C-14.377914428710938 -1803.0799407958984 -14.96630859375 -1802.449935913086 -22.320709228515625 -1789.1099700927734C-165.93202209472656 -1529.4100189208984 -238.60202026367188 -1265.790023803711 -238.60202026367188 -1012.1799774169922C-238.60202026367188 -869.7310028076172 -215.67701721191406 -730.4390106201172 -169.52001953125 -596.7689666748047C-144.9190216064453 -525.4680023193359 -132.38002014160156 -467.55198669433594 -127.59901428222656 -402.97999572753906C-126.49702453613281 -388.0449981689453 -125.95100402832031 -373.29298400878906 -125.95100402832031 -358.7519989013672C-125.95100402832031 -212.75698852539062 -180.95001220703125 -88.08668518066406 -279.46800231933594 -14.114089965820312C-288.2570037841797 -7.5318603515625 -288.69801330566406 -7.0170440673828125 -289.10301208496094 -3.11920166015625C-289.16102600097656 -2.5644683837890625 -289.1950225830078 -2.0543670654296875 -289.1950225830078 -1.5747222900390625C-289.1950225830078 1.8881683349609375 -287.41200256347656 3.763397216796875 -279.98301696777344 9.383331298828125C-179.2620086669922 85.42710876464844 -125.95901489257812 210.23001098632812 -125.95901489257812 355.1050262451172C-125.95901489257812 424.8140106201172 -138.30001831054688 499.1690216064453 -163.63601684570312 574.9760284423828L-172.79202270507812 602.1870269775391C-217.08602905273438 733.3499908447266 -239.0870361328125 869.9279937744141 -239.0870361328125 1009.5999908447266C-239.0870361328125 1264.290054321289 -165.9340362548828 1529.270034790039 -21.40142822265625 1790.479995727539C-15.77532958984375 1800.699966430664 -15.113433837890625 1801.510025024414 -11.583236694335938 1802.6500396728516Z" fill="black" /></g></svg>