<?xml version="1.0" encoding="utf-8" ?>
<svg baseProfile="tiny" height="100%" version="1.2" width="100%" xmlns="http://www.w3.org/2000/svg" xmlns:ev="http://www.w3.org/2001/xml-events" xmlns:xlink="http://www.w3.org/1999/xlink"><defs /><g transform="translate(0, 1000) scale(1, -1)"><path d="M-11.22320556640625 2336.070068359375C-10.48809814453125 2336.25 -9.758316040039062 2336.330078125 -9.044586181640625 2336.330078125C-4.1929168701171875 2336.330078125 -0.0823516845703125 2332.35009765625 -0.0823516845703125 2327.110107421875C-0.0823516845703125 2326.8798828125 -0.079498291015625 2326.679931640625 -0.079498291015625 2326.5C-0.079498291015625 2324.469970703125 -0.41815185546875 2323.97998046875 -8.478302001953125 2309.260009765625C-128.65699768066406 2090.1298828125 -189.99400329589844 1835.5999755859375 -189.99400329589844 1558.6099853515625C-189.99400329589844 1511.56005859375 -188.2239990234375 1463.8599853515625 -184.67300415039062 1415.5799560546875C-170.7469940185547 1226.9100341796875 -130.05799865722656 1030.6500244140625 -65.31259155273438 839.969970703125C-51.46730041503906 799.1599731445312 -48.60139465332031 790.3610229492188 -45.493194580078125 779.4219970703125C-28.230697631835938 718.3209838867188 -19.796600341796875 656.7659912109375 -19.796600341796875 595.802978515625C-19.796600341796875 373.2340087890625 -132.21499633789062 158.56399536132812 -337.8590087890625 2.79461669921875C-341.6130065917969 -0.071319580078125 -344.72100830078125 -2.533599853515625 -344.72100830078125 -2.654693603515625C-344.72100830078125 -2.7758026123046875 -341.6130065917969 -5.2380828857421875 -337.8590087890625 -8.10400390625C-132.3249969482422 -163.77999877929688 -19.675994873046875 -379.15899658203125 -19.675994873046875 -601.447021484375C-19.675994873046875 -662.9639892578125 -28.303604125976562 -725.010009765625 -45.97760009765625 -786.4669799804688C-49.2471923828125 -797.8499755859375 -53.2030029296875 -809.9190063476562 -62.48699951171875 -836.9229736328125C-87.23089599609375 -908.85400390625 -110.48100280761719 -988.7769775390625 -127.91900634765625 -1061.8399658203125C-169.02099609375 -1234.1700439453125 -189.45899963378906 -1401.4000244140625 -189.45899963378906 -1561.199951171875C-189.45899963378906 -1839.4000244140625 -127.51100158691406 -2095.10009765625 -4.805084228515625 -2316.030029296875C-1.1883544921875 -2322.580078125 0.0 -2325.179931640625 0.0 -2327.449951171875C0.0 -2328.02001953125 -0.0742645263671875 -2328.56005859375 -0.2034454345703125 -2329.14990234375C-1.244476318359375 -2333.760009765625 -5.1561431884765625 -2336.330078125 -9.134124755859375 -2336.330078125C-11.942901611328125 -2336.330078125 -14.784698486328125 -2335.050048828125 -16.672500610351562 -2332.2900390625C-20.3052978515625 -2326.929931640625 -43.95939636230469 -2283.169921875 -59.822906494140625 -2252.409912109375C-215.09500122070312 -1951.75 -296.9599914550781 -1631.489990234375 -296.9599914550781 -1327.47998046875C-296.9599914550781 -1302.3199462890625 -296.39898681640625 -1277.280029296875 -295.27301025390625 -1252.3599853515625C-287.927001953125 -1090.300048828125 -258.7019958496094 -933.6380004882812 -208.28599548339844 -785.9420166015625C-198.84100341796875 -758.2919921875 -193.27000427246094 -741.3389892578125 -189.31500244140625 -728.260009765625C-163.58299255371094 -642.5919799804688 -151.0679931640625 -558.2639770507812 -151.0679931640625 -478.2139892578125C-151.0679931640625 -285.2569885253906 -223.78500366210938 -117.15399169921875 -359.41400146484375 -15.046798706054688C-366.5989990234375 -9.617706298828125 -370.1910095214844 -6.136199951171875 -370.1910095214844 -2.654693603515625C-370.1910095214844 0.8267974853515625 -366.5989990234375 4.3083038330078125 -359.41400146484375 9.7374267578125C-246.10800170898438 95.02920532226562 -174.01600646972656 229.1219940185547 -155.8520050048828 388.2829895019531C-152.6790008544922 416.0690002441406 -151.09800720214844 444.2650146484375 -151.09800720214844 472.7909851074219C-151.09800720214844 564.4000244140625 -167.40899658203125 659.4140014648438 -199.72900390625 755.2030029296875C-219.66900634765625 814.3779907226562 -225.56300354003906 833.0670166015625 -234.88699340820312 866.6110229492188C-277.2720031738281 1019.3499755859375 -297.2040100097656 1165.969970703125 -297.2040100097656 1325.0899658203125C-297.2040100097656 1328.8800048828125 -297.1929931640625 1332.6600341796875 -297.1700134277344 1336.4599609375C-296.968994140625 1372.06005859375 -296.7669982910156 1380.0999755859375 -295.4750061035156 1407.5C-280.9840087890625 1713.6800537109375 -186.57000732421875 2028.77001953125 -20.224594116210938 2326.219970703125C-15.9862060546875 2333.77001953125 -14.654205322265625 2335.260009765625 -11.22320556640625 2336.070068359375Z" fill="black" /></g></svg>