<?xml version="1.0" encoding="utf-8" ?>
<svg baseProfile="tiny" height="100%" version="1.2" width="100%" xmlns="http://www.w3.org/2000/svg" xmlns:ev="http://www.w3.org/2001/xml-events" xmlns:xlink="http://www.w3.org/1999/xlink"><defs /><g transform="translate(0, 1000) scale(1, -1)"><path d="M-12.004806518554688 2367.030029296875C-10.86871337890625 2367.3798828125 -9.7762451171875 2367.5400390625 -8.744613647460938 2367.5400390625C-3.6218414306640625 2367.5400390625 -1.52587890625e-05 2363.52001953125 -1.52587890625e-05 2358.4599609375C-1.52587890625e-05 2356.580078125 -0.501678466796875 2354.56005859375 -1.6143341064453125 2352.550048828125C-85.71981811523438 2200.93994140625 -140.00401306152344 2043.699951171875 -169.5390167236328 1866.1600341796875C-184.90701293945312 1773.8199462890625 -192.53302001953125 1677.8199462890625 -192.53302001953125 1579.22998046875C-192.53302001953125 1340.06005859375 -147.65501403808594 1085.5899658203125 -59.53910827636719 830.916015625C-43.17622375488281 783.708984375 -34.25840759277344 748.0789794921875 -27.46771240234375 703.1630249023438C-22.486114501953125 670.1519775390625 -20.034820556640625 637.1069946289062 -20.034820556640625 604.2039794921875C-20.034820556640625 378.2659912109375 -135.614013671875 159.00900268554688 -341.14500427246094 3.6473388671875C-345.56300354003906 0.3338470458984375 -349.1630096435547 -2.5296630859375 -349.1630096435547 -2.6932830810546875C-349.1630096435547 -2.856903076171875 -345.56300354003906 -5.720428466796875 -341.14500427246094 -9.033920288085938C-219.364013671875 -101.11598205566406 -125.114013671875 -220.156982421875 -72.09761047363281 -349.01499938964844C-37.44441223144531 -433.2259979248047 -20.066116333007812 -521.2750091552734 -20.066116333007812 -609.2969818115234C-20.066116333007812 -684.0989837646484 -32.61631774902344 -758.8809661865234 -57.780120849609375 -831.2709808349609C-147.447021484375 -1089.030014038086 -192.12901306152344 -1341.1600189208984 -192.12901306152344 -1578.770004272461C-192.12901306152344 -1858.989974975586 -129.98501586914062 -2119.009994506836 -6.195953369140625 -2344.229965209961L-0.018951416015625 -2355.479965209961V-2358.590072631836C-0.0189666748046875 -2363.919906616211 -3.776214599609375 -2367.540023803711 -8.691314697265625 -2367.540023803711C-9.623703002929688 -2367.540023803711 -10.597732543945312 -2367.409896850586 -11.595733642578125 -2367.139877319336C-14.786529541015625 -2366.280014038086 -16.177337646484375 -2364.399887084961 -24.808837890625 -2348.729965209961C-184.92002868652344 -2059.429916381836 -278.7210388183594 -1751.729965209961 -296.5560302734375 -1457.1500091552734C-298.84503173828125 -1419.4200286865234 -299.9930419921875 -1382.030014038086 -299.9930419921875 -1344.959945678711C-299.9930419921875 -1151.4200286865234 -268.71502685546875 -966.1949920654297 -205.16903686523438 -782.1819915771484C-174.3250274658203 -692.7589569091797 -158.73902893066406 -615.5259857177734 -153.176025390625 -524.4659881591797C-152.75802612304688 -517.2490081787109 -152.4900360107422 -497.16297912597656 -152.4900360107422 -479.94297790527344C-152.4900360107422 -470.22398376464844 -152.5750274658203 -461.41798400878906 -152.76702880859375 -456.35499572753906C-159.88502502441406 -267.7729949951172 -236.42202758789062 -109.13398742675781 -366.83502197265625 -12.797378540039062C-373.01202392578125 -8.256668090820312 -373.9120178222656 -6.9476470947265625 -373.9120178222656 -2.693267822265625C-373.9120178222656 1.5610809326171875 -373.01202392578125 2.8701171875 -366.83502197265625 7.41082763671875C-236.42202758789062 103.74801635742188 -159.88502502441406 262.38600158691406 -152.76702880859375 450.96900939941406C-152.5750274658203 456.03102111816406 -152.4900360107422 464.83702087402344 -152.4900360107422 474.55702209472656C-152.4900360107422 491.77601623535156 -152.75802612304688 511.86302185058594 -153.176025390625 519.0800323486328C-158.69802856445312 609.8939971923828 -174.3250274658203 687.5360260009766 -204.96502685546875 776.1820220947266C-237.97703552246094 871.7830352783203 -261.37603759765625 963.0470123291016 -276.9210205078125 1057.219985961914C-292.7290344238281 1152.9300689697266 -300.56103515625 1247.1600494384766 -300.56103515625 1343.1500396728516C-300.56103515625 1378.3199615478516 -299.5100402832031 1413.719985961914 -297.4150390625 1449.520034790039C-279.7840270996094 1750.270034790039 -185.6150360107422 2059.280044555664 -21.658935546875 2354.429946899414C-16.58642578125 2363.550064086914 -14.500137329101562 2366.290054321289 -12.004837036132812 2367.030044555664Z" fill="black" /></g></svg>