<?xml version="1.0" encoding="utf-8" ?>
<svg baseProfile="tiny" height="100%" version="1.2" width="100%" xmlns="http://www.w3.org/2000/svg" xmlns:ev="http://www.w3.org/2001/xml-events" xmlns:xlink="http://www.w3.org/1999/xlink"><defs /><g transform="translate(0, 1000) scale(1, -1)"><path d="M-15.38360595703125 7774.9501953125C-13.5791015625 7776.77978515625 -11.3251953125 7777.60009765625 -9.103836059570312 7777.60009765625C-4.4815826416015625 7777.60009765625 0.0 7774.06005859375 0.0 7768.7099609375C0.0 7765.740234375 -1.4469757080078125 7762.68994140625 -10.966506958007812 7745.7099609375C-415.2799835205078 7020.39013671875 -645.0439910888672 6190.43994140625 -687.3109588623047 5302.3798828125C-691.9619598388672 5204.47021484375 -694.2750091552734 5105.85986328125 -694.2750091552734 5006.7099609375C-694.2750091552734 4247.0400390625 -558.4699554443359 3455.72998046875 -297.77098083496094 2705.830078125C-209.96298217773438 2453.3798828125 -171.57998657226562 2255.60009765625 -160.53797912597656 1999.47998046875C-159.927978515625 1985.1700439453125 -159.6239776611328 1953.030029296875 -159.6239776611328 1920.8800048828125C-159.6239776611328 1888.72998046875 -159.927978515625 1856.5799560546875 -160.53797912597656 1842.219970703125C-168.8389892578125 1648.93994140625 -193.43698120117188 1488.550048828125 -241.71998596191406 1312.4000244140625C-381.23899841308594 803.906005859375 -702.0089569091797 338.5150146484375 -1137.469955444336 12.94659423828125L-1164.1299896240234 -7.006378173828125L-1166.3299407958984 -8.757980346679688L-1164.1299896240234 -10.433395385742188C-1162.9100189208984 -11.423385620117188 -1150.949935913086 -20.409881591796875 -1137.469955444336 -30.462478637695312C-713.1279754638672 -347.72999572753906 -398.8309783935547 -795.6810150146484 -252.5339813232422 -1291.8399505615234C-190.68399047851562 -1501.499984741211 -159.3929901123047 -1719.300033569336 -159.3929901123047 -1938.780014038086C-159.3929901123047 -1979.280014038086 -160.45797729492188 -2019.8399505615234 -162.59397888183594 -2060.409896850586C-174.54998779296875 -2286.370101928711 -215.21798706054688 -2486.050033569336 -297.77098083496094 -2723.350082397461C-413.0719757080078 -3054.860092163086 -508.5719757080078 -3413.939926147461 -573.7620086669922 -3760.979965209961C-653.1799774169922 -4183.819808959961 -692.5330047607422 -4602.330062866211 -692.5330047607422 -5011.470199584961C-692.5330047607422 -5999.020004272461 -463.24998474121094 -6931.890121459961 -14.698165893554688 -7738.850082397461C-1.8277130126953125 -7762.080062866211 3.0517578125e-05 -7765.810043334961 3.0517578125e-05 -7768.709945678711C3.0517578125e-05 -7774.060043334961 -4.4815521240234375 -7777.600082397461 -9.103805541992188 -7777.600082397461C-11.325164794921875 -7777.600082397461 -13.579071044921875 -7776.779769897461 -15.383575439453125 -7774.950180053711C-19.800567626953125 -7770.379867553711 -77.22247314453125 -7665.439926147461 -118.95596313476562 -7585.549789428711C-493.87396240234375 -6868.229965209961 -737.5739440917969 -6086.029769897461 -828.1999816894531 -5309.620101928711C-830.1039733886719 -5293.249984741211 -832.3119812011719 -5274.430160522461 -833.1499938964844 -5267.729965209961C-842.6699523925781 -5191.040023803711 -855.3879699707031 -5039.040023803711 -861.3279724121094 -4931.120101928711C-867.7129821777344 -4815.069808959961 -870.9119567871094 -4699.759750366211 -870.9119567871094 -4585.109848022461C-870.9119567871094 -3913.489974975586 -761.1439514160156 -3264.530014038086 -539.1869812011719 -2621.300033569336C-457.01397705078125 -2383.080062866211 -411.6249694824219 -2176.090072631836 -391.0629577636719 -1945.030014038086C-384.302978515625 -1869.040023803711 -380.969970703125 -1793.6099700927734 -380.969970703125 -1718.989974975586C-380.969970703125 -1022.6299896240234 -671.1449890136719 -395.78599548339844 -1174.7900085449219 -26.273880004882812C-1186.5199890136719 -17.668289184570312 -1192.3799743652344 -13.213088989257812 -1192.3799743652344 -8.757965087890625C-1192.3799743652344 -4.3028106689453125 -1186.5199890136719 0.1523284912109375 -1174.7900085449219 8.75799560546875C-694.1649475097656 361.36199951171875 -402.40997314453125 955.3049926757812 -382.3809814453125 1621.75C-381.553955078125 1649.18994140625 -381.1379699707031 1676.5 -381.1379699707031 1703.7099609375C-381.1379699707031 2004.6300048828125 -431.97998046875 2293.06005859375 -539.1869812011719 2603.780029296875C-761.8229675292969 3249.02001953125 -872.8709411621094 3905.6201171875 -872.8709411621094 4577.41015625C-872.8709411621094 4726.919921875 -867.3709411621094 4877.169921875 -856.3779602050781 5028.22021484375C-850.8179626464844 5104.0 -836.8059997558594 5254.7900390625 -834.2159729003906 5266.2099609375C-834.0639953613281 5267.0498046875 -832.5409851074219 5279.919921875 -830.8659973144531 5294.77001953125C-745.1899719238281 6046.81005859375 -509.7139587402344 6819.64990234375 -153.073974609375 7519.3701171875C-101.13597106933594 7621.27001953125 -21.932968139648438 7768.330078125 -15.383575439453125 7774.9501953125Z" fill="black" /></g></svg>