<?xml version="1.0" encoding="utf-8" ?>
<svg baseProfile="tiny" height="100%" version="1.2" width="100%" xmlns="http://www.w3.org/2000/svg" xmlns:ev="http://www.w3.org/2001/xml-events" xmlns:xlink="http://www.w3.org/1999/xlink"><defs /><g transform="translate(0, 1000) scale(1, -1)"><path d="M-19.430099487304688 578.7780151367188C-19.090377807617188 578.81298828125 -18.754180908203125 578.8289794921875 -18.422592163085938 578.8289794921875C-13.385879516601562 578.8289794921875 -9.376724243164062 574.9210205078125 -9.376724243164062 569.781005859375L-9.37677001953125 569.7520141601562C-9.376785278320312 567.6810302734375 -9.697967529296875 566.7969970703125 -11.96240234375 562.6539916992188C-36.213104248046875 518.3389892578125 -48.33740234375 467.2720031738281 -48.33740234375 409.3919982910156C-48.33740234375 349.5989990234375 -35.39799499511719 282.5350036621094 -9.521316528320312 208.13699340820312C-3.14788818359375 189.80999755859375 0.0 171.46800231933594 0.0 153.37899780273438C0.0 105.92401123046875 -21.6654052734375 60.20770263671875 -63.594207763671875 21.05780029296875C-70.66049194335938 14.441192626953125 -84.69659423828125 2.5731201171875 -88.92030334472656 -0.381866455078125L-89.27360534667969 -0.638824462890625L-88.92030334472656 -0.895782470703125C-86.27052307128906 -2.758697509765625 -74.51481628417969 -12.490798950195312 -68.89390563964844 -17.485397338867188C-25.613113403320312 -55.96440124511719 -2.8244476318359375 -99.0845947265625 -0.3191375732421875 -147.26400756835938C-0.1735382080078125 -150.05799865722656 -0.1004486083984375 -152.83799743652344 -0.1004486083984375 -155.60899353027344C-0.1004486083984375 -173.61500549316406 -3.1884613037109375 -191.19500732421875 -9.521331787109375 -209.41400146484375C-32.39031982421875 -275.21099853515625 -45.1898193359375 -336.1090087890625 -47.96821594238281 -392.2539978027344C-48.11271667480469 -395.11199951171875 -48.18501281738281 -402.78900146484375 -48.18501281738281 -410.41900634765625C-48.18501281738281 -418.04998779296875 -48.11271667480469 -425.6340026855469 -47.96821594238281 -428.3080139160156C-45.254119873046875 -479.6340026855469 -33.594818115234375 -523.1240234375 -11.962417602539062 -562.64697265625C-9.697982788085938 -566.7899780273438 -9.376800537109375 -567.6729736328125 -9.376800537109375 -569.7449951171875L-9.376693725585938 -569.791015625C-9.376678466796875 -575.0889892578125 -13.593521118164062 -578.8289794921875 -18.341110229492188 -578.8289794921875C-19.787017822265625 -578.8289794921875 -21.282119750976562 -578.4819946289062 -22.722412109375 -577.7269897460938C-24.842208862304688 -576.6190185546875 -25.372207641601562 -575.927978515625 -28.471710205078125 -570.35498046875C-82.16160583496094 -473.3489990234375 -107.80302429199219 -388.24200439453125 -107.80302429199219 -306.0060119628906C-107.80302429199219 -296.9570007324219 -107.49301147460938 -287.9440002441406 -106.87501525878906 -278.9530029296875C-104.57801818847656 -245.5970001220703 -98.34730529785156 -215.1959991455078 -86.8004150390625 -181.1490020751953C-77.791015625 -154.58700561523438 -73.03730773925781 -133.80599975585938 -71.06201171875 -112.49400329589844C-70.54780578613281 -106.9010009765625 -70.29240417480469 -101.44999694824219 -70.29240417480469 -96.14999389648438C-70.29240417480469 -58.244598388671875 -83.35391235351562 -28.078704833984375 -108.20802307128906 -9.198623657226562C-112.30302429199219 -6.0991058349609375 -113.47601318359375 -4.17193603515625 -113.47601318359375 -0.638824462890625C-113.47601318359375 2.894317626953125 -112.30302429199219 4.82147216796875 -108.20802307128906 7.9209747314453125C-83.35391235351562 26.801101684570312 -70.29240417480469 56.96699523925781 -70.29240417480469 94.87240600585938C-70.29240417480469 100.1719970703125 -70.54780578613281 105.62399291992188 -71.06201171875 111.21701049804688C-73.08552551269531 133.1060028076172 -77.61431884765625 152.61900329589844 -87.49101257324219 181.9600067138672C-93.51341247558594 199.86599731445312 -97.86552429199219 216.1020050048828 -100.91700744628906 231.98500061035156C-105.59101867675781 256.3330078125 -107.94902038574219 280.8030090332031 -107.94902038574219 305.593994140625C-107.94902038574219 387.87799072265625 -81.97151184082031 473.7049865722656 -28.471710205078125 570.3629760742188C-24.77801513671875 577.0430297851562 -23.316619873046875 578.3920288085938 -19.43011474609375 578.7780151367188Z" fill="black" /></g></svg>