<?xml version="1.0" encoding="utf-8" ?>
<svg baseProfile="tiny" height="100%" version="1.2" width="100%" xmlns="http://www.w3.org/2000/svg" xmlns:ev="http://www.w3.org/2001/xml-events" xmlns:xlink="http://www.w3.org/1999/xlink"><defs /><g transform="translate(0, 1000) scale(1, -1)"><path d="M-13.6195068359375 4304.3701171875C-12.353195190429688 4305.009765625 -10.943405151367188 4305.2998046875 -9.52728271484375 4305.2998046875C-5.973114013671875 4305.2998046875 -2.379058837890625 4303.43994140625 -0.912109375 4300.3798828125C-0.3457794189453125 4299.169921875 0.0 4298.1298828125 0.0 4296.89013671875C0.0 4293.759765625 -2.1988525390625 4289.39990234375 -8.604949951171875 4277.93017578125C-248.53700256347656 3847.64990234375 -369.73699951171875 3345.72998046875 -369.73699951171875 2811.449951171875C-369.73699951171875 2421.580078125 -305.20001220703125 2014.469970703125 -175.16900634765625 1605.3800048828125L-134.31199645996094 1483.1500244140625C-90.36868286132812 1355.75 -66.56398010253906 1213.02001953125 -66.56398010253906 1080.1099853515625C-66.56398010253906 1062.199951171875 -66.99577331542969 1044.47998046875 -67.8682861328125 1027.0C-73.22477722167969 918.9559936523438 -87.98358154296875 829.3200073242188 -116.58998107910156 730.0540161132812C-198.24798583984375 447.0719909667969 -383.55897521972656 186.59799194335938 -636.4539642333984 -0.651336669921875C-639.6379852294922 -2.9824981689453125 -641.2339935302734 -3.98046875 -641.2339935302734 -4.9754791259765625C-641.2339935302734 -5.97491455078125 -639.6240081787109 -6.97137451171875 -636.3969573974609 -9.312911987304688C-435.01597595214844 -158.49700927734375 -274.83399963378906 -355.60401916503906 -177.1639862060547 -574.5370025634766C-103.78898620605469 -739.0040435791016 -66.84379577636719 -914.4430084228516 -66.84379577636719 -1089.6500396728516C-66.84379577636719 -1226.040054321289 -89.2327880859375 -1362.290054321289 -134.25498962402344 -1493.1200103759766C-178.64498901367188 -1622.0699615478516 -207.87799072265625 -1717.4100494384766 -237.90798950195312 -1831.3199615478516C-324.4029998779297 -2159.560073852539 -368.7209930419922 -2496.199966430664 -368.7209930419922 -2820.250015258789C-368.7209930419922 -2895.000015258789 -366.3629913330078 -2969.080093383789 -361.62098693847656 -3042.229995727539C-332.5019989013672 -3490.179946899414 -211.1829833984375 -3914.990005493164 -8.604934692382812 -4278.209976196289C-2.1988372802734375 -4289.680191040039 1.52587890625e-05 -4294.040054321289 1.52587890625e-05 -4297.169937133789C1.52587890625e-05 -4298.399917602539 -0.34576416015625 -4299.450210571289 -0.9120941162109375 -4300.660171508789C-2.507659912109375 -4303.970230102539 -4.787017822265625 -4305.279800415039 -9.174774169921875 -4305.279800415039L-10.934783935546875 -4305.299819946289C-15.418670654296875 -4305.299819946289 -16.150970458984375 -4303.470230102539 -35.38737487792969 -4268.520034790039C-198.30496215820312 -3972.889907836914 -322.7009582519531 -3657.709976196289 -402.6489562988281 -3337.969985961914C-472.54498291015625 -3058.590103149414 -507.40997314453125 -2777.850112915039 -507.40997314453125 -2500.490005493164C-507.40997314453125 -2147.419937133789 -450.9129638671875 -1799.8199615478516 -338.2569580078125 -1467.479995727539C-316.8309631347656 -1404.280044555664 -314.3809814453125 -1396.990005493164 -309.1949768066406 -1380.3499908447266C-261.16796875 -1225.9100494384766 -237.89697265625 -1071.760025024414 -237.89697265625 -923.7840118408203C-237.89697265625 -553.6480255126953 -383.4949645996094 -222.1699981689453 -651.4409484863281 -21.67840576171875C-662.4109802246094 -13.472702026367188 -667.8949890136719 -9.2274169921875 -667.8949890136719 -4.98211669921875C-667.8949890136719 -0.7368011474609375 -662.4109802246094 3.5084991455078125 -651.4409484863281 11.714202880859375C-383.1299743652344 212.47999572753906 -237.82896423339844 544.8820343017578 -237.82896423339844 914.3920440673828C-237.82896423339844 1074.520034790039 -265.115966796875 1241.6200103759766 -321.50396728515625 1407.990005493164C-355.6939697265625 1508.9100494384766 -365.66595458984375 1540.0799713134766 -382.1349792480469 1597.4100494384766C-466.3699645996094 1890.800064086914 -508.3769836425781 2189.340103149414 -508.3769836425781 2495.199966430664C-508.3769836425781 2561.990005493164 -506.37396240234375 2629.120132446289 -502.3709716796875 2696.629898071289C-470.573974609375 3231.590103149414 -307.4859619140625 3777.209976196289 -29.233062744140625 4279.359878540039C-15.89886474609375 4303.399917602539 -16.12677001953125 4303.060073852539 -13.619476318359375 4304.370132446289Z" fill="black" /></g></svg>