<?xml version="1.0" encoding="utf-8" ?>
<svg baseProfile="tiny" height="100%" version="1.2" width="100%" xmlns="http://www.w3.org/2000/svg" xmlns:ev="http://www.w3.org/2001/xml-events" xmlns:xlink="http://www.w3.org/1999/xlink"><defs /><g transform="translate(0, 1000) scale(1, -1)"><path d="M-13.316497802734375 5048.830078125C-11.857101440429688 5049.5498046875 -10.375 5049.89013671875 -8.950363159179688 5049.89013671875C-5.628814697265625 5049.89013671875 -2.619842529296875 5048.02001953125 -0.9406585693359375 5044.66015625C-0.37322998046875 5043.4501953125 0.0 5042.490234375 0.0 5041.2900390625C0.0 5038.22021484375 -2.4475555419921875 5033.580078125 -10.348800659179688 5019.27978515625C-294.32102966308594 4506.77978515625 -438.4450225830078 3922.159912109375 -438.4450225830078 3282.590087890625C-438.4450225830078 3275.3798828125 -438.42601013183594 3268.169921875 -438.39002990722656 3260.9599609375C-438.0740203857422 3195.5400390625 -437.7580108642578 3178.739990234375 -436.0540008544922 3131.510009765625C-423.04600524902344 2768.949951171875 -361.7980194091797 2390.159912109375 -257.17201232910156 2024.949951171875C-229.5150146484375 1928.5899658203125 -214.3610076904297 1880.8599853515625 -162.83702087402344 1728.489990234375C-110.97901916503906 1575.0999755859375 -85.87440490722656 1417.9200439453125 -85.87440490722656 1261.8699951171875C-85.87440490722656 785.781982421875 -319.5530242919922 320.2550048828125 -740.0830230712891 5.15484619140625C-747.7230377197266 -0.591094970703125 -753.9749908447266 -5.4530487060546875 -753.9749908447266 -5.7056121826171875C-753.9749908447266 -5.95819091796875 -747.7230377197266 -10.8201904296875 -740.0830230712891 -16.566085815429688C-319.55601501464844 -331.68797302246094 -85.89091491699219 -797.1219940185547 -85.89091491699219 -1273.270004272461C-85.89091491699219 -1429.189926147461 -110.95001220703125 -1586.270004272461 -162.7110137939453 -1739.5899505615234L-185.37901306152344 -1806.520004272461C-354.11402893066406 -2304.759994506836 -437.9040069580078 -2804.479965209961 -437.9040069580078 -3284.459945678711C-437.9040069580078 -3912.330062866211 -294.5230255126953 -4506.439926147461 -10.348831176757812 -5019.319808959961C-2.4475860595703125 -5033.629867553711 -3.0517578125e-05 -5038.259750366211 -3.0517578125e-05 -5041.339828491211C-3.0517578125e-05 -5042.540023803711 -0.373260498046875 -5043.499984741211 -0.9406890869140625 -5044.709945678711C-2.6148834228515625 -5048.089828491211 -6.1965179443359375 -5049.890121459961 -9.652786254882812 -5049.890121459961C-12.45343017578125 -5049.890121459961 -15.171722412109375 -5048.709945678711 -16.726226806640625 -5046.220199584961C-22.598434448242188 -5036.879867553711 -57.26353454589844 -4973.229965209961 -78.79502868652344 -4932.379867553711C-325.5550231933594 -4464.049789428711 -488.0830383300781 -3958.340072631836 -552.6140441894531 -3458.070053100586L-556.7180480957031 -3426.429916381836C-574.9420471191406 -3286.409896850586 -586.0030212402344 -3102.879867553711 -586.0030212402344 -2944.830062866211C-586.0030212402344 -2929.830062866211 -585.9030456542969 -2915.060043334961 -585.7010192871094 -2900.590072631836C-579.8280334472656 -2477.219955444336 -510.9400329589844 -2085.100082397461 -371.9640197753906 -1684.3399505615234C-303.02703857421875 -1485.560043334961 -269.7020263671875 -1285.310043334961 -269.7020263671875 -1093.310043334961C-269.7020263671875 -655.3749847412109 -443.0760192871094 -260.33998107910156 -762.6880187988281 -23.385391235351562C-774.4960021972656 -14.640289306640625 -780.4000549316406 -10.172882080078125 -780.4000549316406 -5.7056121826171875C-780.4000549316406 -1.238311767578125 -774.4960021972656 3.22900390625 -762.6880187988281 11.974212646484375C-644.0440368652344 99.99441528320312 -540.6800231933594 215.4180145263672 -460.55303955078125 349.46900939941406C-333.80804443359375 561.5570220947266 -269.4400329589844 815.3289947509766 -269.4400329589844 1082.1600494384766C-269.4400329589844 1272.740005493164 -302.2780456542969 1469.990005493164 -368.6810302734375 1663.459976196289L-382.6350402832031 1704.189956665039C-517.9600524902344 2097.990005493164 -587.2170104980469 2522.500015258789 -587.2170104980469 2946.550064086914C-587.2170104980469 3103.610122680664 -577.7150573730469 3260.610122680664 -558.5490417480469 3415.969985961914C-489.6610412597656 3974.719985961914 -313.05303955078125 4511.799819946289 -30.175537109375 5022.310073852539C-16.22113037109375 5047.500015258789 -16.347427368164062 5047.310073852539 -13.3165283203125 5048.830093383789Z" fill="black" /></g></svg>