<?xml version="1.0" encoding="utf-8" ?>
<svg baseProfile="tiny" height="100%" version="1.2" width="100%" xmlns="http://www.w3.org/2000/svg" xmlns:ev="http://www.w3.org/2001/xml-events" xmlns:xlink="http://www.w3.org/1999/xlink"><defs /><g transform="translate(0, 1000) scale(1, -1)"><path d="M-12.120895385742188 1284.5999755859375C-11.477981567382812 1284.739990234375 -10.842178344726562 1284.800048828125 -10.21978759765625 1284.800048828125C-5.2281951904296875 1284.800048828125 -1.098236083984375 1280.699951171875 -1.098236083984375 1275.699951171875C-1.098236083984375 1275.1600341796875 -1.146697998046875 1274.6099853515625 -1.2477874755859375 1274.050048828125C-1.4779052734375 1272.8399658203125 -2.48468017578125 1270.7099609375 -5.1310272216796875 1265.93994140625C-67.28488159179688 1152.75 -98.4705810546875 1023.2100219726562 -98.4705810546875 879.3569946289062C-98.4705810546875 800.64697265625 -89.13468933105469 717.6489868164062 -70.42729187011719 630.6929931640625C-57.51177978515625 570.6320190429688 -43.47459411621094 521.0419921875 -19.19708251953125 449.7049865722656C-6.338592529296875 411.95098876953125 1.52587890625e-05 373.1730041503906 1.52587890625e-05 334.4649963378906C1.52587890625e-05 256.62200927734375 -25.635482788085938 179.06700134277344 -75.43228149414062 110.71099853515625C-104.11097717285156 71.30349731445312 -143.2889862060547 31.780593872070312 -183.7319793701172 1.404876708984375C-185.71697998046875 -0.0908966064453125 -187.35598754882812 -1.38531494140625 -187.35598754882812 -1.4716033935546875C-187.35597229003906 -1.557891845703125 -185.7169647216797 -2.8523101806640625 -183.73196411132812 -4.3480682373046875C-143.28897094726562 -34.723785400390625 -104.1109619140625 -74.24668884277344 -75.43226623535156 -113.65498352050781C-25.635467529296875 -182.00997924804688 3.0517578125e-05 -259.5649871826172 3.0517578125e-05 -337.40797424316406C3.0517578125e-05 -376.11598205566406 -6.3385772705078125 -414.8939971923828 -19.197067260742188 -452.6479949951172C-61.07867431640625 -575.7039642333984 -83.745361328125 -676.4099578857422 -93.58297729492188 -783.2999725341797C-96.64886474609375 -816.5560150146484 -98.18035888671875 -849.1049652099609 -98.18035888671875 -880.9329681396484C-98.18035888671875 -1024.3899993896484 -67.06927490234375 -1153.189926147461 -5.131011962890625 -1265.999984741211C-2.2535858154296875 -1271.239974975586 -1.0343475341796875 -1273.959945678711 -1.0343475341796875 -1276.229965209961C-1.0343475341796875 -1277.520004272461 -1.42974853515625 -1278.6600189208984 -2.1394805908203125 -1280.040023803711C-3.7131805419921875 -1283.1399993896484 -6.9822998046875 -1284.800033569336 -10.2625732421875 -1284.800033569336C-12.618362426757812 -1284.800033569336 -14.979873657226562 -1283.939926147461 -16.7232666015625 -1282.1399993896484C-19.743576049804688 -1278.979965209961 -46.66746520996094 -1228.030014038086 -61.10736083984375 -1198.0899505615234C-141.76397705078125 -1030.969955444336 -182.03497314453125 -868.5309906005859 -182.03497314453125 -710.2629852294922V-710.0939788818359C-182.03497314453125 -685.4130096435547 -181.5459747314453 -670.1389617919922 -180.0499725341797 -647.6739959716797C-175.01597595214844 -573.1439666748047 -159.94296264648438 -497.1189727783203 -136.44296264648438 -427.47898864746094C-125.19596862792969 -394.25599670410156 -121.80096435546875 -383.15199279785156 -117.34297180175781 -365.3469696044922C-106.77397155761719 -323.0969696044922 -101.58697509765625 -282.57798767089844 -101.58697509765625 -244.5649871826172C-101.58697509765625 -144.55899047851562 -137.4939727783203 -61.90238952636719 -205.7949676513672 -10.73388671875C-210.9149627685547 -6.90814208984375 -211.92196655273438 -5.38360595703125 -211.92196655273438 -1.471588134765625C-211.92196655273438 2.4404449462890625 -210.9149627685547 3.9649810791015625 -205.7949676513672 7.7906951904296875C-137.4939727783203 58.959228515625 -101.58697509765625 141.61602783203125 -101.58697509765625 241.6220245361328C-101.58697509765625 279.6350402832031 -106.77397155761719 320.1540222167969 -117.34297180175781 362.4040222167969C-121.80096435546875 380.20904541015625 -125.28196716308594 391.60003662109375 -136.44296264648438 424.5360412597656C-167.14697265625 515.3320007324219 -182.4149627685547 610.0270080566406 -182.4149627685547 707.2800598144531C-182.4149627685547 884.2690124511719 -131.844970703125 1069.7200012207031 -31.70977783203125 1255.5500793457031C-16.7520751953125 1283.3100891113281 -16.4931640625 1283.6800842285156 -12.120864868164062 1284.6000061035156Z" fill="black" /></g></svg>