<?xml version="1.0" encoding="utf-8" ?>
<svg baseProfile="tiny" height="100%" version="1.2" width="100%" xmlns="http://www.w3.org/2000/svg" xmlns:ev="http://www.w3.org/2001/xml-events" xmlns:xlink="http://www.w3.org/1999/xlink"><defs /><g transform="translate(0, 1000) scale(1, -1)"><path d="M-12.946304321289062 4631.18017578125C-11.73211669921875 4631.75 -10.478713989257812 4632.009765625 -9.253631591796875 4632.009765625C-4.519134521484375 4632.009765625 -0.2066192626953125 4628.080078125 -0.2066192626953125 4622.83984375C-0.2066192626953125 4619.64990234375 -0.5540618896484375 4618.9599609375 -9.240203857421875 4603.31982421875C-62.86271667480469 4507.2001953125 -117.75901794433594 4392.830078125 -159.916015625 4289.47021484375L-166.40200805664062 4273.5400390625C-321.7750244140625 3892.25 -399.7190246582031 3465.89990234375 -399.7190246582031 3019.550048828125C-399.7190246582031 2627.64990234375 -339.6290283203125 2220.330078125 -219.09703063964844 1814.550048828125C-199.17703247070312 1747.3800048828125 -185.801025390625 1706.0899658203125 -145.43902587890625 1586.9200439453125C-108.08901977539062 1476.5999755859375 -84.75173950195312 1358.1199951171875 -77.80282592773438 1243.22998046875C-75.71823120117188 1207.9100341796875 -75.48654174804688 1200.43994140625 -75.48654174804688 1158.1099853515625C-75.71823120117188 712.916015625 -299.18402099609375 286.3110046386719 -680.7370300292969 2.853057861328125C-686.5280456542969 -1.432098388671875 -691.2760314941406 -5.080291748046875 -691.2760314941406 -5.2540130615234375C-691.2760314941406 -5.4277191162109375 -686.5280456542969 -9.075912475585938 -680.7370300292969 -13.361114501953125C-513.8470153808594 -137.3410186767578 -368.3830261230469 -298.9610137939453 -266.87103271484375 -473.1480255126953C-139.59002685546875 -691.5750274658203 -75.60232543945312 -924.1320343017578 -75.48654174804688 -1168.6200103759766C-75.48654174804688 -1210.949966430664 -75.71823120117188 -1218.4200592041016 -77.80282592773438 -1253.740005493164C-84.75173950195312 -1368.6300201416016 -108.08901977539062 -1487.1100006103516 -145.43902587890625 -1597.4200592041016C-167.0960235595703 -1661.4100494384766 -186.72703552246094 -1720.300064086914 -193.21302795410156 -1740.750015258789C-330.8180236816406 -2176.030044555664 -399.1430358886719 -2608.429946899414 -399.1430358886719 -3023.110122680664C-399.1430358886719 -3596.840103149414 -268.35302734375 -4136.669937133789 -9.298126220703125 -4603.350112915039C-3.796905517578125 -4613.250015258789 -0.2645416259765625 -4620.319839477539 -0.0908203125 -4621.649917602539C-0.029541015625 -4622.089859008789 -3.0517578125e-05 -4622.529800415039 -3.0517578125e-05 -4622.959976196289C-3.0517578125e-05 -4628.240249633789 -4.5348663330078125 -4632.009780883789 -9.272491455078125 -4632.009780883789C-11.374725341796875 -4632.009780883789 -13.516937255859375 -4631.270034790039 -15.320526123046875 -4629.580093383789C-17.231430053710938 -4627.729995727539 -28.5234375 -4607.870132446289 -49.254425048828125 -4569.529800415039C-332.8280334472656 -4046.449966430664 -499.6600341796875 -3480.699966430664 -534.6940002441406 -2923.800064086914C-539.4920349121094 -2847.290054321289 -541.8910217285156 -2771.159927368164 -541.8910217285156 -2695.409927368164C-541.8910217285156 -2338.699966430664 -488.69903564453125 -1990.3499908447266 -382.2810363769531 -1650.699966430664C-376.6640319824219 -1632.750015258789 -360.5660400390625 -1584.510025024414 -341.1090393066406 -1527.0699615478516C-281.58502197265625 -1351.550064086914 -251.8340301513672 -1171.729995727539 -251.8340301513672 -997.7370147705078C-251.8340301513672 -821.8449859619141 -282.2370300292969 -651.8960113525391 -343.02001953125 -498.33702087402344C-421.13702392578125 -300.98802185058594 -541.9320373535156 -140.7580108642578 -703.7260437011719 -19.673019409179688C-715.9450378417969 -10.52362060546875 -716.5240173339844 -9.886611938476562 -716.5240173339844 -5.2540130615234375C-716.5240173339844 -0.505584716796875 -716.2340393066406 -0.216033935546875 -698.7460021972656 12.986892700195312C-540.3110046386719 132.44998168945312 -420.3260192871094 292.5649871826172 -343.02001953125 487.82899475097656C-282.21502685546875 641.3849945068359 -251.79803466796875 811.2839813232422 -251.79803466796875 987.1639862060547C-251.79803466796875 1161.020004272461 -281.52001953125 1340.729965209961 -340.9930419921875 1516.270004272461L-359.2340393066406 1570.1199798583984C-481.6910400390625 1931.699935913086 -542.9760437011719 2308.709945678711 -542.9760437011719 2691.100082397461C-542.9760437011719 3049.919906616211 -489.01702880859375 3413.489974975586 -381.00701904296875 3773.509994506836C-294.4350280761719 4062.179916381836 -177.2300262451172 4339.379867553711 -28.465530395507812 4607.379867553711C-16.768234252929688 4628.459945678711 -15.84173583984375 4629.850082397461 -12.946334838867188 4631.180160522461Z" fill="black" /></g></svg>