<?xml version="1.0" encoding="utf-8" ?>
<svg baseProfile="tiny" height="100%" version="1.2" width="100%" xmlns="http://www.w3.org/2000/svg" xmlns:ev="http://www.w3.org/2001/xml-events" xmlns:xlink="http://www.w3.org/1999/xlink"><defs /><g transform="translate(0, 1000) scale(1, -1)"><path d="M-15.75030517578125 9302.990234375C-13.698501586914062 9305.2099609375 -11.472396850585938 9306.3203125 -9.227432250976562 9306.3203125C-7.06884765625 9306.3203125 -4.8928680419921875 9305.2900390625 -2.8377838134765625 9303.240234375C-1.11358642578125 9301.51953125 0.0 9300.3203125 0.0 9298.2001953125C0.0 9294.1396484375 -4.0955657958984375 9286.669921875 -15.8341064453125 9265.509765625C-523.781982421875 8348.7998046875 -800.1430053710938 7314.6298828125 -835.1079711914062 6199.9599609375C-837.6229858398438 6117.7099609375 -838.0430297851562 6088.02001953125 -838.0430297851562 5963.509765625C-838.0430297851562 5839.080078125 -837.6229858398438 5808.14013671875 -835.1079711914062 5725.7998046875C-809.031005859375 4889.33984375 -649.7210083007812 4042.39990234375 -363.46600341796875 3218.760009765625C-297.22601318359375 3028.179931640625 -258.572998046875 2873.139892578125 -230.98699951171875 2686.75C-216.73300170898438 2590.909912109375 -208.68299865722656 2502.1201171875 -203.6529998779297 2387.419921875C-202.51400756835938 2361.110107421875 -201.96499633789062 2331.820068359375 -201.96499633789062 2300.909912109375C-201.96499633789062 2213.39990234375 -206.3699951171875 2112.830078125 -214.30099487304688 2029.81005859375C-289.67999267578125 1237.280029296875 -709.3369750976562 503.865966796875 -1369.6400146484375 10.507080078125C-1384.3900146484375 -0.560791015625 -1396.469970703125 -9.86785888671875 -1396.469970703125 -10.203216552734375C-1396.469970703125 -10.53863525390625 -1384.3900146484375 -19.845733642578125 -1369.6400146484375 -30.91363525390625C-810.9600219726562 -448.3900451660156 -420.39801025390625 -1041.7800598144531 -270.3949890136719 -1700.9900207519531C-225.0760040283203 -1900.1200256347656 -202.0240020751953 -2106.449981689453 -202.0240020751953 -2310.120147705078C-202.0240020751953 -2355.149932861328 -203.1510009765625 -2400.050079345703 -205.41299438476562 -2444.709991455078C-215.8939971923828 -2651.320098876953 -246.75 -2842.990020751953 -301.8380126953125 -3043.810089111328C-319.781005859375 -3109.459991455078 -334.70599365234375 -3156.409942626953 -367.239013671875 -3250.070098876953C-563.5260009765625 -3815.790069580078 -702.0419921875 -4407.080108642578 -774.6539916992188 -4989.490264892578C-816.0880126953125 -5321.730010986328 -836.6649780273438 -5650.540069580078 -836.6649780273438 -5974.350128173828C-836.6649780273438 -7163.560089111328 -559.125 -8285.219757080078 -17.9302978515625 -9261.179718017578C-4.514739990234375 -9285.379913330078 -0.0055999755859375 -9293.490264892578 -0.0055999755859375 -9297.719757080078C-0.0055999755859375 -9299.830108642578 -1.1328887939453125 -9300.980499267578 -2.8377838134765625 -9302.679718017578C-5.105194091796875 -9304.950225830078 -6.9853363037109375 -9306.320343017578 -8.95977783203125 -9306.320343017578C-13.92169189453125 -9306.320343017578 -19.47900390625 -9297.669952392578 -33.27439880371094 -9272.830108642578C-554.8060150146484 -8332.650421142578 -879.5469818115234 -7319.100128173828 -987.2910003662109 -6295.830108642578C-989.3870086669922 -6275.959991455078 -991.4000091552734 -6257.089874267578 -991.9029998779297 -6253.910186767578C-993.7469940185547 -6240.830108642578 -1002.2999725341797 -6146.919952392578 -1006.5800018310547 -6092.500030517578C-1021.9099578857422 -5897.730010986328 -1029.5699310302734 -5703.620147705078 -1029.5699310302734 -5510.339874267578C-1029.5699310302734 -4702.700225830078 -895.8719940185547 -3909.409942626953 -629.8489837646484 -3142.330108642578C-584.4039764404297 -3011.189971923828 -554.1349945068359 -2908.139923095703 -527.0519866943359 -2792.679962158203C-470.00099182128906 -2548.949981689453 -442.22898864746094 -2306.389923095703 -442.22898864746094 -2070.060089111328C-442.22898864746094 -1269.2400207519531 -761.1129608154297 -539.8430480957031 -1340.290023803711 -77.78433227539062C-1357.3899993896484 -64.11723327636719 -1414.6600189208984 -20.600326538085938 -1418.939926147461 -18.001129150390625C-1421.499984741211 -16.449935913085938 -1422.770004272461 -13.326629638671875 -1422.770004272461 -10.203231811523438C-1422.770004272461 -7.0799560546875 -1421.499984741211 -3.956634521484375 -1418.939926147461 -2.40545654296875C-1414.6600189208984 0.193817138671875 -1357.3899993896484 43.710662841796875 -1340.290023803711 57.377777099609375C-761.1129608154297 519.4369812011719 -442.22898864746094 1248.8399353027344 -442.22898864746094 2049.649871826172C-442.22898864746094 2285.989959716797 -470.00099182128906 2528.540008544922 -527.0519866943359 2772.279998779297C-554.0510101318359 2887.649871826172 -584.1519622802734 2989.939910888672 -629.8489837646484 3121.919891357422C-879.8820037841797 3844.100067138672 -1007.3300018310547 4548.580047607422 -1029.800033569336 5332.140106201172C-1030.560043334961 5357.379852294922 -1030.9300384521484 5429.669891357422 -1030.9300384521484 5502.069793701172C-1030.9300384521484 5574.459930419922 -1030.560043334961 5646.939910888672 -1029.800033569336 5672.560028076172C-1024.939926147461 5844.279754638672 -1017.9000091552734 5975.080047607422 -1005.3199920654297 6124.919891357422C-1001.7100067138672 6167.339813232422 -994.6699676513672 6243.310028076172 -993.9990081787109 6246.080047607422C-993.8309783935547 6246.999969482422 -992.1539764404297 6262.259735107422 -990.2259979248047 6280.029754638672C-917.0269622802734 6970.689910888672 -749.3319549560547 7650.859832763672 -490.3269805908203 8307.469696044922C-367.32298278808594 8619.299774169922 -225.2849884033203 8922.570281982422 -65.38798522949219 9215.120086669922C-31.848983764648438 9276.320281982422 -18.601089477539062 9299.799774169922 -15.750289916992188 9302.990203857422Z" fill="black" /></g></svg>