<?xml version="1.0" encoding="utf-8" ?>
<svg baseProfile="tiny" height="100%" version="1.2" width="100%" xmlns="http://www.w3.org/2000/svg" xmlns:ev="http://www.w3.org/2001/xml-events" xmlns:xlink="http://www.w3.org/1999/xlink"><defs /><g transform="translate(0, 1000) scale(1, -1)"><path d="M-12.623504638671875 1390.77001953125C-11.437301635742188 1391.22998046875 -10.243194580078125 1391.43994140625 -9.0875244140625 1391.43994140625C-4.19989013671875 1391.43994140625 0.0 1387.6600341796875 0.0 1382.3900146484375C0.0 1379.9300537109375 -0.249359130859375 1379.3299560546875 -3.92730712890625 1372.68994140625C-72.07350158691406 1249.739990234375 -106.4320068359375 1106.8399658203125 -106.4320068359375 948.72998046875C-106.4320068359375 870.7979736328125 -98.08439636230469 789.1740112304688 -81.32029724121094 704.427001953125C-66.92019653320312 631.5850219726562 -50.49400329589844 571.802978515625 -21.382003784179688 486.0880126953125C-7.4976043701171875 445.2070007324219 -0.6516265869140625 403.2239990234375 -0.6516265869140625 361.3160095214844C-0.6516265869140625 278.1929931640625 -27.584701538085938 195.36599731445312 -79.94889831542969 122.03199768066406C-111.14900207519531 78.36380004882812 -154.25599670410156 34.53990173339844 -198.9219970703125 1.095428466796875C-200.76100158691406 -0.2760162353515625 -202.2570037841797 -1.4604339599609375 -202.2570037841797 -1.553955078125C-202.25698852539062 -1.6474456787109375 -200.760986328125 -2.831878662109375 -198.92198181152344 -4.2033233642578125C-154.2559814453125 -37.647796630859375 -111.14898681640625 -81.47171020507812 -79.94888305664062 -125.13999938964844C-27.584793090820312 -198.4739990234375 -0.6654510498046875 -281.2869873046875 -0.6654510498046875 -364.4100036621094C-0.6654510498046875 -406.3179931640625 -7.50799560546875 -448.30499267578125 -21.381988525390625 -489.19500732421875C-50.68098449707031 -575.4719848632812 -66.54618835449219 -633.2899780273438 -81.16447448730469 -707.0679931640625C-97.65638732910156 -790.2459716796875 -106.31298828125 -876.0609741210938 -106.31298828125 -953.1840209960938C-106.31298828125 -976.343994140625 -105.53297424316406 -998.7210083007812 -103.94898986816406 -1020.010009765625C-103.85598754882812 -1021.1900024414062 -103.51298522949219 -1025.9599609375 -103.16998291015625 -1030.5999755859375C-94.0684814453125 -1152.3499755859375 -59.90708923339844 -1270.8900146484375 -5.3299102783203125 -1370.0400390625C-0.124664306640625 -1379.5400390625 -0.1869964599609375 -1379.3900146484375 -0.06231689453125 -1381.760009765625C-0.0500030517578125 -1381.9599609375 -0.0439300537109375 -1382.1700439453125 -0.0439300537109375 -1382.3800048828125C-0.0439300537109375 -1387.6600341796875 -4.0687713623046875 -1391.43994140625 -8.944854736328125 -1391.43994140625C-10.105880737304688 -1391.43994140625 -11.315292358398438 -1391.219970703125 -12.529983520507812 -1390.760009765625C-15.210479736328125 -1389.77001953125 -16.270278930664062 -1388.3599853515625 -21.911880493164062 -1378.1400146484375C-135.71798706054688 -1171.719970703125 -193.0159912109375 -967.5009765625 -193.0159912109375 -771.7139892578125C-193.0159912109375 -663.3560180664062 -175.46498107910156 -557.5800170898438 -140.22998046875 -455.4389953613281C-117.12898254394531 -388.50799560546875 -105.72697448730469 -326.97601318359375 -105.72697448730469 -268.5469970703125C-105.72697448730469 -250.97900390625 -106.75798034667969 -233.6909942626953 -108.81198120117188 -216.62100219726562C-119.19099426269531 -130.1580047607422 -159.2119903564453 -56.34930419921875 -220.05398559570312 -11.403396606445312C-225.7579803466797 -7.195556640625 -226.91098022460938 -5.5124359130859375 -226.91098022460938 -1.553955078125C-226.91098022460938 2.404541015625 -225.7579803466797 4.087677001953125 -220.05398559570312 8.295516967773438C-194.74497985839844 26.996994018554688 -171.6169891357422 52.36869812011719 -153.75698852539062 81.04429626464844C-121.84498596191406 132.2550048828125 -105.78297424316406 195.14500427246094 -105.78297424316406 264.7239990234375C-105.78297424316406 322.0220031738281 -116.67597961425781 383.8559875488281 -138.57798767089844 447.43798828125C-175.7849884033203 555.4739990234375 -193.19097900390625 658.2410278320312 -193.19097900390625 770.10302734375C-193.19097900390625 773.0360107421875 -193.17898559570312 775.9760131835938 -193.1549835205078 778.9219970703125C-192.96798706054688 800.2410278320312 -192.84397888183594 804.5430297851562 -191.84597778320312 824.2730102539062C-182.68199157714844 1003.5599975585938 -125.29998779296875 1190.6400146484375 -21.911880493164062 1378.1500244140625C-16.33258056640625 1388.25 -15.210479736328125 1389.77001953125 -12.623489379882812 1390.77001953125Z" fill="black" /></g></svg>