<?xml version="1.0" encoding="utf-8" ?>
<svg baseProfile="tiny" height="100%" version="1.2" width="100%" xmlns="http://www.w3.org/2000/svg" xmlns:ev="http://www.w3.org/2001/xml-events" xmlns:xlink="http://www.w3.org/1999/xlink"><defs /><g transform="translate(0, 1000) scale(1, -1)"><path d="M-11.9010009765625 7573.41015625C-11.194595336914062 7573.56982421875 -10.468902587890625 7573.64990234375 -9.741836547851562 7573.64990234375C-6.1942596435546875 7573.64990234375 -2.6126861572265625 7571.7900390625 -1.074127197265625 7568.9599609375C-0.3944549560546875 7567.7099609375 0.0 7566.580078125 0.0 7565.2099609375C0.0 7561.9599609375 -2.23870849609375 7557.41015625 -8.193145751953125 7546.85986328125C-402.7799987792969 6847.33984375 -633.3330078125 6008.0400390625 -669.6699829101562 5138.25C-673.3709716796875 5049.56982421875 -675.2230224609375 4960.8701171875 -675.2230224609375 4872.10986328125C-675.2230224609375 4121.5498046875 -542.7650146484375 3367.719970703125 -276.0469970703125 2599.1298828125C-194.9810028076172 2365.449951171875 -153.98800659179688 2118.97998046875 -153.98800659179688 1871.6700439453125C-153.98800659179688 1733.469970703125 -166.78799438476562 1595.02001953125 -192.54600524902344 1458.3800048828125C-299.7770080566406 889.156005859375 -630.7379760742188 368.428955078125 -1115.1300048828125 6.76708984375C-1126.0999755859375 -1.39013671875 -1135.0 -8.286697387695312 -1135.0 -8.583328247070312C-1135.0 -8.879928588867188 -1126.0999755859375 -15.776519775390625 -1115.1300048828125 -23.9337158203125C-995.8099975585938 -112.92201232910156 -883.2410278320312 -213.99700927734375 -782.3140258789062 -322.63600158691406C-371.89300537109375 -764.5689849853516 -153.8419952392578 -1321.1400299072266 -153.8419952392578 -1888.689956665039C-153.8419952392578 -2094.449966430664 -182.5019989013672 -2301.649917602539 -241.0449981689453 -2505.360122680664C-254.2449951171875 -2551.340103149414 -265.14599609375 -2585.229995727539 -288.8760070800781 -2653.379898071289C-543.0659790039062 -3385.000015258789 -673.364990234375 -4148.649917602539 -673.364990234375 -4885.850112915039C-673.364990234375 -5153.660171508789 -656.1690063476562 -5417.979995727539 -621.468017578125 -5676.000015258789C-530.8489990234375 -6349.560073852539 -318.8349914550781 -6996.359878540039 -8.193145751953125 -7546.970230102539C-2.316192626953125 -7557.410171508789 -0.0043792724609375 -7562.200210571289 -0.0043792724609375 -7565.540054321289C-0.0043792724609375 -7567.089859008789 -0.501495361328125 -7568.319839477539 -1.3707427978515625 -7569.660171508789C-3.0433349609375 -7572.189956665039 -6.37890625 -7573.649917602539 -9.611175537109375 -7573.649917602539C-11.394699096679688 -7573.649917602539 -13.146697998046875 -7573.209976196289 -14.570602416992188 -7572.259780883789C-18.649200439453125 -7569.589859008789 -88.43060302734375 -7441.220230102539 -135.1490020751953 -7350.459976196289C-483.90797424316406 -6672.959976196289 -713.4219818115234 -5937.250015258789 -803.1519622802734 -5209.479995727539L-809.0839691162109 -5161.720230102539C-818.2050018310547 -5093.200210571289 -831.4789886474609 -4946.149917602539 -838.0049896240234 -4841.740249633789C-845.9559783935547 -4714.600112915039 -849.9359588623047 -4588.209976196289 -849.9359588623047 -4462.500015258789C-849.9359588623047 -3809.699966430664 -742.6279754638672 -3175.290054321289 -526.9180145263672 -2551.040054321289C-448.1639862060547 -2323.229995727539 -403.81797790527344 -2121.899917602539 -383.4249725341797 -1899.949966430664C-376.3769989013672 -1823.1600494384766 -372.90199279785156 -1746.990005493164 -372.90199279785156 -1671.6800689697266C-372.90199279785156 -995.0850372314453 -653.4019622802734 -388.1289825439453 -1142.8599700927734 -27.122390747070312C-1155.540023803711 -17.7786865234375 -1161.8799896240234 -13.180984497070312 -1161.8799896240234 -8.583282470703125C-1161.8799896240234 -3.9855804443359375 -1155.540023803711 0.6121368408203125 -1142.8599700927734 9.95587158203125C-653.4019622802734 370.9620361328125 -372.90199279785156 977.9180908203125 -372.90199279785156 1654.5200805664062C-372.90199279785156 1729.8200073242188 -376.3769989013672 1805.9900512695312 -383.4249725341797 1882.7800903320312C-403.81797790527344 2104.8799438476562 -447.79298400878906 2304.5100708007812 -526.9180145263672 2533.8701782226562C-665.8140106201172 2936.8401489257812 -755.6909637451172 3322.0100708007812 -807.1559906005859 3735.2100219726562C-836.8929901123047 3973.8101196289062 -851.6309661865234 4214.399963378906 -851.6309661865234 4455.660217285156C-851.6309661865234 5492.899963378906 -579.2389984130859 6542.669982910156 -55.28257751464844 7500.879943847656C-18.649185180664062 7567.850158691406 -15.831283569335938 7572.589904785156 -11.900985717773438 7573.410217285156Z" fill="black" /></g></svg>