<?xml version="1.0" encoding="utf-8" ?>
<svg baseProfile="tiny" height="100%" version="1.2" width="100%" xmlns="http://www.w3.org/2000/svg" xmlns:ev="http://www.w3.org/2001/xml-events" xmlns:xlink="http://www.w3.org/1999/xlink"><defs /><g transform="translate(0, 1000) scale(1, -1)"><path d="M-11.441604614257812 2031.68994140625C-10.617507934570312 2031.9000244140625 -9.801467895507812 2032.0 -9.0072021484375 2032.0C-4.086212158203125 2032.0 -1.52587890625e-05 2028.1500244140625 -1.52587890625e-05 2022.9100341796875L-0.03802490234375 2020.06005859375L-4.4473876953125 2012.0799560546875C-97.9945068359375 1842.8499755859375 -150.98300170898438 1649.1400146484375 -160.7899932861328 1440.3800048828125C-162.00599670410156 1414.6400146484375 -162.1580047607422 1407.27001953125 -162.38600158691406 1374.81005859375C-162.41000366210938 1371.18994140625 -162.4219970703125 1367.56005859375 -162.4219970703125 1363.9300537109375C-162.4219970703125 1157.4200439453125 -124.1669921875 940.1339721679688 -49.60540771484375 723.2849731445312C-38.7340087890625 691.6209716796875 -35.427001953125 680.9400024414062 -30.257400512695312 660.3369750976562C-18.727203369140625 614.5029907226562 -13.002395629882812 567.8179931640625 -13.002395629882812 521.1270141601562C-13.002395629882812 437.59600830078125 -31.325103759765625 354.0469970703125 -67.50900268554688 275.3160095214844C-70.92999267578125 267.864990234375 -81.19320678710938 247.1490020751953 -83.51199340820312 243.00599670410156L-90.27809143066406 230.8419952392578C-137.3369903564453 146.15200805664062 -208.19097900390625 66.17471313476562 -292.6529998779297 2.39093017578125C-295.92198181152344 -0.079833984375 -298.58299255371094 -2.2085113525390625 -298.58299255371094 -2.3605499267578125C-298.58299255371094 -2.5125885009765625 -295.92198181152344 -4.6412506103515625 -292.6529998779297 -7.112030029296875C-208.19097900390625 -70.89588928222656 -137.3369903564453 -150.87298583984375 -90.27809143066406 -235.56298828125L-83.51199340820312 -247.72698974609375C-81.19320678710938 -251.8699951171875 -70.92999267578125 -272.5870056152344 -67.50900268554688 -280.0369873046875C-31.268997192382812 -358.90899658203125 -13.012496948242188 -442.4909973144531 -13.012496948242188 -525.906982421875C-13.012496948242188 -587.8200073242188 -23.069595336914062 -649.6420288085938 -43.295501708984375 -709.3800048828125L-52.38029479980469 -736.1790161132812C-110.15797424316406 -906.3189697265625 -146.1169891357422 -1080.1500244140625 -157.93898010253906 -1246.300048828125C-160.8009796142578 -1286.6700439453125 -162.22998046875 -1326.5 -162.22998046875 -1365.75C-162.22998046875 -1604.8299560546875 -109.22099304199219 -1822.4300537109375 -4.4093475341796875 -2012.239990234375L-0.037994384765625 -2020.219970703125L1.52587890625e-05 -2023.0699462890625C1.52587890625e-05 -2028.469970703125 -3.4970703125 -2032.0 -8.932769775390625 -2032.0C-14.406478881835938 -2032.0 -14.862579345703125 -2031.510009765625 -24.251480102539062 -2014.52001953125C-167.66998291015625 -1754.9300537109375 -248.59698486328125 -1485.5400390625 -261.7109832763672 -1224.06005859375C-263.2319793701172 -1193.68994140625 -263.42198181152344 -1184.8299560546875 -263.42198181152344 -1147.8499755859375C-263.42198181152344 -1110.93994140625 -263.2319793701172 -1102.989990234375 -261.7109832763672 -1072.3900146484375C-254.86898803710938 -935.968994140625 -229.2869873046875 -803.3070068359375 -184.92698669433594 -674.218994140625C-170.29298400878906 -631.64599609375 -162.99497985839844 -606.4439697265625 -155.46798706054688 -572.5380249023438C-142.93698120117188 -516.0679931640625 -136.79498291015625 -461.23699951171875 -136.79498291015625 -408.9070129394531C-136.79498291015625 -242.3459930419922 -199.01998901367188 -101.12600708007812 -315.4979705810547 -13.07989501953125C-322.6439971923828 -7.682220458984375 -323.48097229003906 -6.5418548583984375 -323.48097229003906 -2.360565185546875C-323.48097229003906 1.82073974609375 -322.6439971923828 2.961090087890625 -315.4979705810547 8.3587646484375C-277.5239715576172 37.057708740234375 -246.16497802734375 70.20401000976562 -219.70797729492188 109.58399963378906C-164.6429901123047 191.56300354003906 -136.7419891357422 293.2969970703125 -136.7419891357422 404.5740051269531C-136.7419891357422 484.4119873046875 -151.10398864746094 569.1619873046875 -180.09999084472656 655.0540161132812C-197.47097778320312 706.5599975585938 -203.47698974609375 725.718017578125 -212.48597717285156 758.75C-247.1809844970703 885.9030151367188 -263.91297912597656 1011.760009765625 -263.91297912597656 1145.550048828125C-263.91297912597656 1149.1099853515625 -263.90199279785156 1152.6700439453125 -263.8779754638672 1156.239990234375C-263.68797302246094 1187.030029296875 -263.4979705810547 1194.0999755859375 -262.28199768066406 1219.3399658203125C-249.54798889160156 1482.3800048828125 -167.97398376464844 1754.739990234375 -24.023483276367188 2014.739990234375C-15.736892700195312 2029.75 -14.938583374023438 2030.780029296875 -11.44158935546875 2031.68994140625Z" fill="black" /></g></svg>