<?xml version="1.0" encoding="utf-8" ?>
<svg baseProfile="tiny" height="100%" version="1.2" width="100%" xmlns="http://www.w3.org/2000/svg" xmlns:ev="http://www.w3.org/2001/xml-events" xmlns:xlink="http://www.w3.org/1999/xlink"><defs /><g transform="translate(0, 1000) scale(1, -1)"><path d="M287.1820068359375 864.7269897460938C288.6340026855469 865.260009765625 290.0780029296875 865.5380249023438 291.5589904785156 865.5380249023438C297.4280090332031 865.5380249023438 303.8840026855469 861.1719970703125 313.7770080566406 850.989013671875C344.98699951171875 818.7940063476562 373.08599853515625 763.5289916992188 388.5870056152344 703.8060302734375C395.6419982910156 676.7210083007812 399.1090087890625 649.5009765625 399.1090087890625 622.5560302734375C399.1090087890625 536.031982421875 363.3599853515625 452.3320007324219 295.8399963378906 384.968994140625L269.0369873046875 358.52899169921875L253.8470001220703 343.7539978027344L257.21600341796875 328.4599914550781L269.3999938964844 271.6910095214844C280.5979919433594 219.2779998779297 283.5530090332031 205.38400268554688 283.6570129394531 205.22799682617188C283.6570129394531 205.22500610351562 283.67401123046875 205.22300720214844 283.7080078125 205.22300720214844C284.1440124511719 205.22300720214844 287.2619934082031 205.52200317382812 290.9150085449219 205.95399475097656C296.7980041503906 206.6199951171875 302.78900146484375 206.9459991455078 308.84100341796875 206.9459991455078C347.1050109863281 206.9459991455078 387.7770080566406 193.90699768066406 418.7080078125 171.16700744628906C471.2669982910156 132.5260009765625 498.9739990234375 73.36709594726562 498.9739990234375 13.185394287109375C498.9739990234375 -27.965103149414062 486.0199890136719 -69.59381103515625 459.197998046875 -105.468994140625C435.7650146484375 -136.83399963378906 409.68798828125 -157.10499572753906 367.59100341796875 -176.80499267578125L365.4649963378906 -177.7899932861328L368.67999267578125 -192.8249969482422C376.50799560546875 -229.06298828125 384.54400634765625 -267.01197814941406 385.7359924316406 -273.4409942626953C389.4750061035156 -293.7529754638672 391.3370056152344 -312.9159698486328 391.3370056152344 -330.89198303222656C391.3370056152344 -396.42198181152344 366.5889892578125 -446.1749725341797 317.7690124511719 -478.2739715576172C290.1239929199219 -496.4259796142578 258.4360046386719 -505.18699645996094 226.83599853515625 -505.18699645996094C178.02000427246094 -505.18699645996094 129.41299438476562 -484.2789764404297 96.24288940429688 -444.78297424316406C82.83039855957031 -428.78599548339844 76.37190246582031 -409.70497131347656 76.37190246582031 -390.7699737548828C76.37190246582031 -363.37498474121094 89.88980102539062 -336.2839813232422 115.42500305175781 -319.27098083496094C129.33200073242188 -310.0199737548828 145.41099548339844 -305.54798889160156 161.35899353027344 -305.54798889160156C184.8280029296875 -305.54798889160156 208.01300048828125 -315.23399353027344 223.57000732421875 -333.63099670410156C236.97500610351562 -349.46498107910156 243.07000732421875 -367.80198669433594 243.07000732421875 -385.6229705810547C243.07000732421875 -423.7009735107422 215.24200439453125 -459.42298889160156 171.41600036621094 -463.3429718017578L164.41700744628906 -463.96498107910156L169.3419952392578 -466.1429901123047C187.86502075195312 -474.2899932861328 207.1850128173828 -478.1019744873047 226.13902282714844 -478.1019744873047C285.69700622558594 -478.1019744873047 341.62901306152344 -440.4619903564453 357.79200744628906 -381.4309844970703C362.1640167236328 -365.4879913330078 364.38002014160156 -349.8509979248047 364.38002014160156 -332.31297302246094C364.38002014160156 -311.5819854736328 361.2840118408203 -288.1949920654297 354.99302673339844 -258.50999450683594C347.6830291748047 -223.9309844970703 339.6990203857422 -186.6029815673828 339.5950164794922 -186.44798278808594C339.5910186767578 -186.43798828125 339.5690155029297 -186.4329833984375 339.53102111816406 -186.4329833984375C339.16700744628906 -186.4329833984375 337.34800720214844 -186.864990234375 335.1890106201172 -187.3809814453125C315.63902282714844 -192.37298583984375 295.2480010986328 -194.82398986816406 274.63902282714844 -194.82398986816406C228.90000915527344 -194.82398986816406 182.08401489257812 -182.75198364257812 140.9840087890625 -159.59298706054688C50.68951416015625 -108.66798400878906 1.52587890625e-05 -14.451980590820312 1.52587890625e-05 83.55992126464844C1.52587890625e-05 129.32901000976562 11.053817749023438 175.92701721191406 34.29020690917969 219.33001708984375C59.53791809082031 266.4030303955078 134.50302124023438 358.4770050048828 197.75201416015625 419.96302795410156L207.8620147705078 429.8140106201172L206.25401306152344 437.3310089111328C186.24301147460938 529.8709869384766 179.1400146484375 563.8800201416016 177.37802124023438 575.7530059814453C174.96401977539062 592.0560455322266 173.7580108642578 607.4450225830078 173.7580108642578 623.0510406494141C173.7580108642578 637.6170196533203 174.80902099609375 652.3730010986328 176.9110107421875 668.2410430908203C184.89501953125 728.6380157470703 210.97201538085938 786.1330108642578 250.7880096435547 831.0810089111328C262.34901428222656 844.1450347900391 282.93101501464844 863.1720123291016 287.18202209472656 864.7270050048828ZM328.96800231933594 749.3759918212891C325.68601989746094 750.1959991455078 322.3350067138672 750.6090240478516 318.8980255126953 750.6090240478516C307.78602600097656 750.6090240478516 295.7840118408203 746.2940216064453 282.36000061035156 737.5040435791016C236.67701721191406 707.5670318603516 209.33201599121094 646.3690338134766 209.33201599121094 579.3629913330078C209.33201599121094 566.0689849853516 210.40802001953125 552.5470123291016 212.63101196289062 538.9959869384766C213.7720184326172 531.9450225830078 230.4130096435547 452.88401794433594 230.88002014160156 452.36500549316406L230.89601135253906 452.36000061035156C231.4960174560547 452.36000061035156 244.7650146484375 465.68800354003906 253.0690155029297 474.6580047607422C319.2210235595703 546.3310089111328 358.24302673339844 627.6389923095703 358.24302673339844 690.6989898681641C358.24302673339844 699.8910064697266 357.4140167236328 708.6950225830078 355.71900939941406 717.0260162353516C351.8300018310547 736.1560211181641 344.0540008544922 745.5390167236328 328.96800231933594 749.3759918212891ZM231.81301879882812 318.2470245361328C231.62503051757812 319.1890106201172 231.5530242919922 319.82301330566406 231.14402770996094 319.82301330566406C230.4290313720703 319.82301330566406 228.6810302734375 317.8770294189453 223.46603393554688 312.23301696777344C185.051025390625 270.65501403808594 144.56103515625 220.4700164794922 119.6240234375 183.40200805664062C90.48342895507812 140.13902282714844 75.48532104492188 90.34892272949219 75.48532104492188 41.28840637207031C75.48532104492188 10.922821044921875 81.23092651367188 -19.1630859375 92.92503356933594 -47.24858093261719C125.48602294921875 -125.43199157714844 198.11402893066406 -174.65599060058594 275.72503662109375 -174.65599060058594C286.8380432128906 -174.65599060058594 298.05303955078125 -173.64698791503906 309.26702880859375 -171.56898498535156C318.5470275878906 -169.8579864501953 334.15203857421875 -165.34799194335938 334.5150451660156 -164.3109893798828L334.51904296875 -164.2749786376953C334.51904296875 -163.2639923095703 330.37603759765625 -143.12998962402344 325.18304443359375 -118.89598083496094C286.6120300292969 61.41502380371094 277.280029296875 105.1190185546875 276.9170227050781 107.14100646972656C276.7330322265625 108.15400695800781 276.5890197753906 108.71702575683594 275.7110290527344 108.71702575683594C274.61102294921875 108.71702575683594 272.3590393066406 107.83401489257812 267.4300231933594 105.84501647949219C222.68002319335938 87.83500671386719 198.96603393554688 48.61241149902344 198.96603393554688 9.559738159179688C198.96603393554688 -21.424285888671875 213.89303588867188 -52.30128479003906 245.0850372314453 -72.39259338378906C250.13003540039062 -75.63587951660156 252.57003784179688 -80.215087890625 252.57003784179688 -84.448486328125C252.57003784179688 -89.35047912597656 249.29803466796875 -93.78868103027344 243.0110321044922 -95.15177917480469C242.4070281982422 -95.28048706054688 241.74302673339844 -95.34309387207031 241.0250244140625 -95.34309387207031C227.27403259277344 -95.34309387207031 193.6530303955078 -72.37287902832031 175.71902465820312 -50.15177917480469C152.9640350341797 -21.98468017578125 142.40603637695312 11.39971923828125 142.40603637695312 44.60551452636719C142.40603637695312 109.37001037597656 182.56903076171875 173.4560089111328 250.73602294921875 196.83001708984375C254.1580352783203 198.0220184326172 256.95703125 199.26602172851562 256.95703125 199.57701110839844C256.95703125 199.9400177001953 251.3580322265625 226.32901000976562 244.56703186035156 258.26402282714844C237.72303771972656 290.1480255126953 231.96902465820312 317.1580047607422 231.8130340576172 318.2470245361328ZM326.946044921875 112.22102355957031C321.9430236816406 113.01301574707031 314.9630432128906 113.50401306152344 309.5360412597656 113.50401306152344C308.2140197753906 113.50401306152344 306.9840393066406 113.47502136230469 305.89703369140625 113.41401672363281L303.2530212402344 113.25801086425781L304.446044921875 107.71101379394531L316.8360290527344 49.80210876464844L335.70703125 -38.590789794921875L351.88201904296875 -114.07498168945312L360.2810363769531 -153.5269775390625L363.9620361328125 -151.4539794921875C386.0470275878906 -139.01100158691406 407.25103759765625 -118.58499145507812 420.8860168457031 -96.65530395507812C435.42803955078125 -73.29229736328125 442.12103271484375 -47.9580078125 442.12103271484375 -23.22540283203125C442.12103271484375 41.00640869140625 396.97802734375 101.17900085449219 326.946044921875 112.22100830078125Z" fill="black" /></g></svg>