<?xml version="1.0" encoding="utf-8" ?>
<svg baseProfile="tiny" height="100%" version="1.2" width="100%" xmlns="http://www.w3.org/2000/svg" xmlns:ev="http://www.w3.org/2001/xml-events" xmlns:xlink="http://www.w3.org/1999/xlink"><defs /><g transform="translate(0, 1000) scale(1, -1)"><path d="M359.40301513671875 1080.9100341796875C361.00799560546875 1081.5 362.6570129394531 1081.800048828125 364.37298583984375 1081.800048828125C373.0820007324219 1081.800048828125 383.5429992675781 1074.02001953125 398.9599914550781 1056.43994140625C457.8689880371094 989.3419799804688 499.16900634765625 872.6749877929688 499.16900634765625 777.3790283203125C499.16900634765625 770.6950073242188 498.9649963378906 764.1160278320312 498.5509948730469 757.666015625C491.2929992675781 644.698974609375 444.84100341796875 551.6409912109375 351.52301025390625 463.0400085449219L326.69000244140625 439.2439880371094L317.4100036621094 430.2749938964844L335.9700012207031 343.43798828125C346.1830139160156 295.69000244140625 354.5299987792969 256.5480041503906 354.5820007324219 256.49700927734375C354.5880126953125 256.4840087890625 354.6310119628906 256.47900390625 354.70599365234375 256.47900390625C355.2799987792969 256.47900390625 357.7619934082031 256.80999755859375 360.64801025390625 257.22198486328125C364.8760070800781 257.84698486328125 376.87200927734375 258.1759948730469 388.2340087890625 258.1759948730469C397.62799072265625 258.1759948730469 406.5880126953125 257.95098876953125 410.364990234375 257.48199462890625C532.35302734375 242.29100036621094 619.656982421875 145.60400390625 623.7520141601562 21.283401489257812C623.8330078125 18.860504150390625 623.8729858398438 16.438705444335938 623.8729858398438 14.018707275390625C623.8729858398438 -83.64999389648438 558.9530029296875 -178.24400329589844 462.88299560546875 -219.3730010986328C459.6679992675781 -220.7209930419922 457.02398681640625 -222.01699829101562 457.02398681640625 -222.2760009765625C457.02398681640625 -222.48399353027344 462.5199890136719 -248.35400390625 469.2080078125 -279.77099609375C482.11700439453125 -340.01300048828125 484.7090148925781 -353.6470031738281 486.7820129394531 -372.51800537109375C488.4020080566406 -386.9830017089844 489.2120056152344 -400.8810119628906 489.2120056152344 -414.2200012207031C489.2120056152344 -488.4200134277344 464.1310119628906 -545.302001953125 413.6830139160156 -585.906005859375C375.5840148925781 -616.5369873046875 329.5220031738281 -631.4459838867188 283.52301025390625 -631.4459838867188C223.1750030517578 -631.4459838867188 162.9340057373047 -605.7860107421875 120.92401123046875 -556.302978515625C103.92401123046875 -536.2869873046875 95.51519775390625 -512.427001953125 95.51519775390625 -488.57000732421875C95.51519775390625 -461.5710144042969 106.28500366210938 -434.57598876953125 127.55999755859375 -413.16400146484375C149.03599548339844 -391.5329895019531 175.55499267578125 -381.8370056152344 201.43299865722656 -381.8370056152344C253.81300354003906 -381.8370056152344 303.5679931640625 -421.56298828125 303.5679931640625 -482.46600341796875V-482.5299987792969C303.5679931640625 -535.6690063476562 261.2640075683594 -579.114013671875 209.31700134277344 -579.3729858398438L204.8070068359375 -579.4249877929688L207.2429962158203 -580.6690063476562C218.2860107421875 -586.4760131835938 237.8830108642578 -592.64501953125 253.79901123046875 -595.3930053710938C263.54200744628906 -597.073974609375 273.29600524902344 -597.885986328125 282.96302795410156 -597.885986328125C355.59400939941406 -597.885986328125 423.3460235595703 -552.0289916992188 445.3080291748047 -484.0849914550781C452.1210174560547 -463.0140075683594 455.5280303955078 -439.55499267578125 455.5280303955078 -413.8160095214844C455.5280303955078 -390.9840087890625 452.8470001220703 -366.35699462890625 447.48500061035156 -340.01300048828125C444.9450225830078 -327.4150085449219 424.7780303955078 -233.37100219726562 424.6220245361328 -233.16400146484375C424.61900329589844 -233.1580047607422 424.6060028076172 -233.15499877929688 424.5810089111328 -233.15499877929688C424.15101623535156 -233.15499877929688 420.43202209472656 -234.0019989013672 416.01600646972656 -235.08200073242188C392.50502014160156 -240.8419952392578 368.24501037597656 -243.6300048828125 343.8400115966797 -243.6300048828125C252.27700805664062 -243.6300048828125 158.6730194091797 -204.39500427246094 94.89881896972656 -135.75C31.915206909179688 -67.99870300292969 1.52587890625e-05 17.086105346679688 1.52587890625e-05 103.53799438476562C1.52587890625e-05 177.83799743652344 23.573623657226562 253.14700317382812 71.25822448730469 319.33099365234375C122.58302307128906 390.56298828125 174.42601013183594 451.5830078125 237.8310089111328 515.2979736328125L259.96800231933594 537.5910034179688L251.9840087890625 575.177001953125L243.1710205078125 616.1339721679688C239.95599365234375 630.1829833984375 224.5070037841797 703.489990234375 223.47000122070312 709.7109985351562C219.41799926757812 733.3889770507812 217.42100524902344 757.0440063476562 217.42100524902344 780.4429931640625C217.42100524902344 871.3900146484375 247.58700561523438 958.4660034179688 304.4490051269531 1028.030029296875C321.7650146484375 1049.22998046875 351.7820129394531 1078.1099853515625 359.40301513671875 1080.9100341796875ZM405.0249938964844 938.0289916992188C403.0450134277344 938.2969970703125 401.0119934082031 938.4290161132812 398.9330139160156 938.4290161132812C368.9129943847656 938.4290161132812 329.46099853515625 910.927978515625 302.8420104980469 870.6840209960938C275.8389892578125 829.9429931640625 261.74700927734375 779.218994140625 261.74700927734375 725.0250244140625C261.74700927734375 707.843994140625 263.1629943847656 690.3140258789062 266.03399658203125 672.6430053710938C267.17401123046875 665.7479858398438 288.32598876953125 565.3790283203125 288.7409973144531 564.9639892578125L288.75 564.9609985351562C289.35198974609375 564.9609985351562 312.9440002441406 589.2239990234375 319.89898681640625 597.0029907226562C393.3089904785156 678.760009765625 437.99798583984375 764.5609741210938 446.9670104980469 840.8740234375C447.71099853515625 847.177978515625 448.06201171875 853.9500122070312 448.06201171875 860.8060302734375C448.06201171875 882.1420288085938 444.6579895019531 904.281005859375 439.0870056152344 915.5809936523438C433.2279968261719 927.4530029296875 420.3190002441406 936.0070190429688 405.0249938964844 938.0289916992188ZM298.8500061035156 355.72503662109375C293.614013671875 380.35003662109375 289.2080078125 400.46502685546875 289.052001953125 400.46502685546875C287.9630126953125 400.46502685546875 252.2429962158203 360.5980224609375 234.04600524902344 339.0310363769531C196.51199340820312 294.5500183105469 156.17799377441406 241.15103149414062 140.67599487304688 215.38502502441406C110.06100463867188 164.4120330810547 94.42098999023438 107.40402221679688 94.42098999023438 51.33143615722656C94.42098999023438 14.729324340820312 101.08499145507812 -21.474365234375 114.5989990234375 -55.340972900390625C154.468994140625 -155.08396911621094 245.81500244140625 -218.1969757080078 344.42401123046875 -218.1969757080078C356.9859924316406 -218.1969757080078 369.6650085449219 -217.1729736328125 382.3699951171875 -215.06997680664062C396.1080017089844 -212.78897094726562 418.6600036621094 -206.77496337890625 418.6600036621094 -205.323974609375C418.6600036621094 -205.01296997070312 412.5950012207031 -176.2909698486328 405.1809997558594 -141.50497436523438L383.614013671875 -40.721160888671875L374.8529968261719 0.2350616455078125L373.0899963378906 8.270782470703125L358.989013671875 74.37104797363281C351.7820129394531 108.17304992675781 345.82000732421875 135.90904235839844 345.7170104980469 136.01304626464844C345.62799072265625 136.1250457763672 345.4339904785156 136.17904663085938 345.1470031738281 136.17904663085938C340.9289855957031 136.17904663085938 316.51300048828125 124.60104370117188 306.3680114746094 117.66004943847656C268.1570129394531 91.454345703125 248.98599243164062 50.76164245605469 248.98599243164062 10.96405029296875C248.98599243164062 -28.127761840820312 267.4830017089844 -66.35606384277344 304.6050109863281 -89.14285278320312C312.5459899902344 -94.01945495605469 315.88800048828125 -98.21354675292969 315.88800048828125 -103.84794616699219C315.88800048828125 -104.98295593261719 315.75299072265625 -106.17495727539062 315.49200439453125 -107.44395446777344C313.9159851074219 -115.00096130371094 308.802001953125 -119.04396057128906 301.635986328125 -119.04396057128906C298.42999267578125 -119.04396057128906 294.81298828125 -118.23495483398438 290.9179992675781 -116.56794738769531C241.4600067138672 -95.4676513671875 202.68099975585938 -52.33406066894531 186.66099548339844 -0.5425872802734375C180.74000549316406 18.57354736328125 177.91700744628906 37.91874694824219 177.91700744628906 56.97624206542969C177.91700744628906 140.87403869628906 232.6300048828125 219.19505310058594 318.6029968261719 247.83905029296875C320.1579895019531 248.35704040527344 321.5060119628906 248.8240509033203 321.6099853515625 248.8760528564453V248.8800506591797C321.6099853515625 249.4130401611328 310.7149963378906 300.75303649902344 309.0639953613281 307.92503356933594C308.64898681640625 309.6360321044922 304.0870056152344 331.1510467529297 298.8500061035156 355.7250518798828ZM403.781005859375 140.93804931640625C397.8370056152344 141.58506774902344 390.29998779296875 141.95706176757812 385.1619873046875 141.95706176757812C381.6510009765625 141.95706176757812 379.2590026855469 141.78306579589844 379.2590026855469 141.40406799316406C379.2590026855469 141.24905395507812 392.9460144042969 77.17056274414062 409.6400146484375 -1.0091552734375C426.3330078125 -79.13703918457031 440.6940002441406 -146.27394104003906 441.47100830078125 -150.11093139648438C443.5450134277344 -159.85693359375 450.2850036621094 -191.22193908691406 450.44000244140625 -191.68893432617188C450.44500732421875 -191.70693969726562 450.4639892578125 -191.7159423828125 450.4960021972656 -191.7159423828125C451.4880065917969 -191.7159423828125 465.1109924316406 -183.40293884277344 471.489013671875 -178.88394165039062C509.6969909667969 -152.02894592285156 537.2260131835938 -112.73193359375 547.75 -70.1163330078125C551.1630249023438 -56.307830810546875 552.7869873046875 -42.48454284667969 552.7869873046875 -28.886337280273438C552.7869873046875 55.64146423339844 490.01800537109375 131.47006225585938 403.781005859375 140.9380645751953Z" fill="black" /></g></svg>