<?xml version="1.0" encoding="utf-8" ?>
<svg baseProfile="tiny" height="100%" version="1.2" width="100%" xmlns="http://www.w3.org/2000/svg" xmlns:ev="http://www.w3.org/2001/xml-events" xmlns:xlink="http://www.w3.org/1999/xlink"><defs /><g transform="translate(0, 1000) scale(1, -1)"><path d="M0 0V406.4209899902344H48.78950500488281H97.57890319824219V0.0V-406.4209899902344H48.78950500488281H0.0ZM133.57899475097656 0.0V406.4209899902344H145.89500427246094H158.21099853515625V212.44700622558594C158.21099853515625 69.91578674316406 158.35299682617188 18.473678588867188 158.73199462890625 18.473678588867188C159.01600646972656 18.473678588867188 163.2790069580078 22.452590942382812 168.11099243164062 27.378890991210938C202.4530029296875 61.76838684082031 229.87899780273438 115.531982421875 244.6580047607422 177.39498901367188C246.72500610351562 186.04698181152344 249.41099548339844 189.8099822998047 253.9669952392578 189.8099822998047C255.04800415039062 189.8099822998047 256.2340087890625 189.59799194335938 257.5419921875 189.18898010253906C262.4679870605469 187.67398071289062 263.70001220703125 185.44699096679688 264.3630065917969 176.8739776611328C268.94000244140625 114.14497375488281 312.5799865722656 66.85838317871094 359.75799560546875 66.85838317871094C367.2650146484375 66.85838317871094 374.86199951171875 68.0557861328125 382.4049987792969 70.57888793945312C419.4469909667969 82.98948669433594 428.6839904785156 113.06797790527344 428.6839904785156 221.16297912597656V222.0039825439453C428.6839904785156 305.7589874267578 421.6029968261719 340.5549774169922 400.3110046386719 361.65797424316406C386.77899169921875 375.08299255371094 365.2950134277344 381.9879913330078 341.6709899902344 381.9879913330078C323.20001220703125 381.9879913330078 303.4209899902344 377.76698303222656 285.1109924316406 369.14198303222656C282.2080078125 367.79298400878906 280.8299865722656 366.9709930419922 280.8299865722656 366.5399932861328C280.8299865722656 366.2749786376953 281.35198974609375 366.15797424316406 282.3630065917969 366.15797424316406C294.1579895019531 366.15797424316406 310.0260009765625 354.7889862060547 316.6109924316406 341.66798400878906C319.88299560546875 335.1229705810547 321.37701416015625 328.3199920654297 321.37701416015625 321.6639862060547C321.37701416015625 297.02699279785156 300.9159851074219 274.41197204589844 274.4779968261719 274.41197204589844C272.8030090332031 274.41197204589844 271.10400390625 274.5029754638672 269.3840026855469 274.68898010253906C241.51699829101562 277.6639862060547 224.06100463867188 300.92198181152344 224.06100463867188 324.8569793701172C224.06100463867188 337.1329803466797 228.65199279785156 349.5859832763672 238.78399658203125 359.57398986816406C266.7720031738281 387.1239776611328 304.0840148925781 400.33497619628906 342.2070007324219 400.33497619628906C394.9309997558594 400.33497619628906 449.2030029296875 375.0649871826172 482.4949951171875 327.50498962402344C504.3059997558594 296.3199920654297 514.1619873046875 260.60398864746094 514.1619873046875 225.37098693847656C514.1619873046875 138.47998046875 454.2139892578125 54.52528381347656 365.77899169921875 48.69468688964844C363.343994140625 48.53169250488281 360.9530029296875 48.449188232421875 358.5989990234375 48.449188232421875C339.06298828125 48.449188232421875 322.0780029296875 54.12908935546875 303.77398681640625 66.59999084472656C300.20098876953125 69.03608703613281 298.43701171875 70.0452880859375 297.7980041503906 70.0452880859375C297.6910095214844 70.0452880859375 297.6159973144531 70.01728820800781 297.5679931640625 69.96318054199219C297.1889953613281 69.48948669433594 259.72100830078125 7.6262969970703125 256.1679992675781 1.563140869140625L255.26800537109375 0.0473480224609375L276.489013671875 -35.05262756347656C288.125 -54.3026123046875 297.8710021972656 -70.01060485839844 298.1830139160156 -70.01060485839844L298.1839904785156 -70.01051330566406C298.4209899902344 -69.91581726074219 301.73699951171875 -67.78422546386719 305.5260009765625 -65.27371215820312C322.54901123046875 -53.918609619140625 341.8630065917969 -48.29490661621094 362.0270080566406 -48.29490661621094C387.875 -48.29490661621094 415.11700439453125 -57.53532409667969 440.71600341796875 -75.78950500488281C471.8370056152344 -97.95791625976562 495.3789978027344 -132.20501708984375 506.4159851074219 -171.1890106201172C511.62701416015625 -189.6430206298828 514.1599731445312 -208.02101135253906 514.1599731445312 -225.90701293945312C514.1599731445312 -284.6000213623047 486.87298583984375 -337.9820098876953 437.3529968261719 -371.2740020751953C408.7200012207031 -390.52000427246094 375.28399658203125 -400.2260284423828 342.6369934082031 -400.2260284423828C313.17401123046875 -400.2260284423828 284.3550109863281 -392.32102966308594 260.28900146484375 -376.38902282714844C236.8419952392578 -360.85301208496094 226.8470001220703 -348.44200134277344 224.57400512695312 -331.86302185058594C224.22500610351562 -329.3730010986328 224.05799865722656 -326.9240264892578 224.05799865722656 -324.52500915527344C224.05799865722656 -295.81800842285156 248.07000732421875 -274.25001525878906 274.1080017089844 -274.25001525878906C282.8949890136719 -274.25001525878906 291.9129943847656 -276.70701599121094 300.3160095214844 -282.1740264892578C314.5780029296875 -291.4810028076172 321.156005859375 -306.1680145263672 321.156005859375 -320.69102478027344C321.156005859375 -341.57102966308594 307.5570068359375 -362.1110076904297 283.6419982910156 -365.8260040283203L279.80499267578125 -366.44200134277344L285.9159851074219 -369.33201599121094C303.2590026855469 -377.54002380371094 322.86700439453125 -381.7090301513672 341.4809875488281 -381.7090301513672C357.13299560546875 -381.7090301513672 372.0830078125 -378.76100158691406 384.3949890136719 -372.7890167236328C410.3529968261719 -360.2370147705078 422.76300048828125 -333.52101135253906 426.97900390625 -280.89500427246094C428.1700134277344 -266.47801208496094 428.7799987792969 -240.79000854492188 428.7799987792969 -215.82301330566406C428.7799987792969 -195.0980224609375 428.3590087890625 -174.87001037597656 427.5 -162.00001525878906C423.5679931640625 -103.92601013183594 412.0580139160156 -80.33680725097656 382.9259948730469 -70.62631225585938C375.1969909667969 -68.05421447753906 367.4289855957031 -66.83331298828125 359.7690124511719 -66.83331298828125C312.2669982910156 -66.83331298828125 268.8840026855469 -113.77900695800781 264.3160095214844 -176.6370086669922C263.65301513671875 -185.968017578125 261.0950012207031 -189.47401428222656 254.93699645996094 -189.47401428222656C248.92100524902344 -189.47401428222656 247.0260009765625 -187.05801391601562 244.23199462890625 -175.6890106201172C228.64700317382812 -111.60002136230469 197.38400268554688 -52.43681335449219 162.94700622558594 -21.931610107421875L158.44700622558594 -17.952606201171875L158.30499267578125 -212.21099853515625L158.21099853515625 -406.4209899902344H145.89500427246094H133.57899475097656Z" fill="black" /></g></svg>