<?xml version="1.0" encoding="utf-8" ?>
<svg baseProfile="tiny" height="100%" version="1.2" width="100%" xmlns="http://www.w3.org/2000/svg" xmlns:ev="http://www.w3.org/2001/xml-events" xmlns:xlink="http://www.w3.org/1999/xlink"><defs /><g transform="translate(0, 1000) scale(1, -1)"><path d="M185.76600646972656 202.64199829101562C190.07701110839844 202.86000061035156 194.4300079345703 202.96800231933594 198.81201171875 202.96800231933594C256.28501892089844 202.96800231933594 318.7000274658203 184.4980010986328 358.09202575683594 155.2740020751953C410.95201110839844 115.98699951171875 437.7890167236328 63.153900146484375 437.7890167236328 -1.2018890380859375C437.7890167236328 -13.431900024414062 436.8200225830078 -26.0780029296875 434.8760223388672 -39.12629699707031C407.54502868652344 -222.91600036621094 243.3660125732422 -383.1629943847656 33.7130126953125 -430.8160095214844C19.606109619140625 -434.0190124511719 12.389114379882812 -435.58099365234375 8.186798095703125 -435.58099365234375C4.247314453125 -435.58099365234375 2.9571380615234375 -434.2080078125 1.1235809326171875 -431.5260009765625C0.3442230224609375 -430.3689880371094 1.52587890625e-05 -428.8869934082031 1.52587890625e-05 -427.322998046875C1.52587890625e-05 -422.8030090332031 2.8745574951171875 -417.6000061035156 6.4288482666015625 -417.6000061035156C7.092010498046875 -417.6000061035156 24.097213745117188 -411.1109924316406 32.765716552734375 -407.5580139160156C205.28102111816406 -336.6000061035156 319.10801696777344 -197.05299377441406 333.65000915527344 -38.889495849609375C334.0760040283203 -34.31840515136719 334.2890167236328 -20.3092041015625 334.2890167236328 -6.424346923828125C334.2890167236328 7.4605255126953125 334.0760040283203 21.221099853515625 333.65000915527344 25.294708251953125C326.68702697753906 93.26840209960938 302.15000915527344 139.4530029296875 258.9030303955078 166.07400512695312C238.6900177001953 178.5290069580078 215.4870147705078 184.31100463867188 191.93101501464844 184.31100463867188C135.22100830078125 184.31100463867188 76.46672058105469 150.8040008544922 52.470916748046875 96.25259399414062C50.876220703125 92.60089111328125 50.05961608886719 90.75350952148438 50.05961608886719 90.08859252929688C50.05961608886719 89.88540649414062 50.13591003417969 89.79269409179688 50.28961181640625 89.79269409179688C50.66361999511719 89.79269409179688 51.49601745605469 90.341796875 52.802520751953125 91.1842041015625C65.01161193847656 99.1162109375 79.17552185058594 102.97100830078125 93.42121887207031 102.97100830078125C113.88502502441406 102.97100830078125 134.5170135498047 95.01669311523438 149.76602172851562 79.76840209960938C165.8170166015625 63.71659851074219 172.9960174560547 43.91740417480469 172.9960174560547 24.454299926757812C172.9960174560547 -16.44659423828125 141.2960205078125 -55.86259460449219 93.63410949707031 -55.89469909667969C39.826416015625 -55.89469909667969 4.35821533203125 -9.808547973632812 4.35821533203125 44.324005126953125C4.35821533203125 64.67529296875 9.371353149414062 86.16390991210938 20.307815551757812 106.76800537109375C50.33941650390625 163.23199462890625 111.87101745605469 198.89999389648438 185.76602172851562 202.64199829101562ZM494.1340026855469 124.9110107421875C495.5880126953125 125.10501098632812 497.0190124511719 125.197998046875 498.4230041503906 125.197998046875C515.8090209960938 125.197998046875 529.0339965820312 110.83499145507812 529.0339965820312 94.67080688476562C529.0339965820312 90.14730834960938 527.9990234375 85.48291015625 525.72900390625 80.95260620117188C520.2470092773438 69.98899841308594 509.37200927734375 64.39309692382812 498.4840087890625 64.39309692382812C488.48699951171875 64.39309692382812 478.47900390625 69.11190795898438 472.6289978027344 78.72630310058594C469.6080017089844 83.70120239257812 468.2229919433594 89.12490844726562 468.2229919433594 94.4534912109375C468.2229919433594 109.01400756835938 478.5639953613281 122.864990234375 494.1340026855469 124.9110107421875ZM494.1340026855469 -64.56320190429688C495.5880126953125 -64.36911010742188 497.0190124511719 -64.275390625 498.4230041503906 -64.275390625C515.8090209960938 -64.275390625 529.0339965820312 -78.63861083984375 529.0339965820312 -94.80290222167969C529.0339965820312 -99.32640075683594 527.9990234375 -103.99099731445312 525.72900390625 -108.52099609375C520.2470092773438 -119.48500061035156 509.37200927734375 -125.08099365234375 498.4840087890625 -125.08099365234375C488.48699951171875 -125.08099365234375 478.47900390625 -120.36199951171875 472.6289978027344 -110.74700927734375C469.6080017089844 -105.77200317382812 468.2229919433594 -100.3489990234375 468.2229919433594 -95.02011108398438C468.2229919433594 -80.45989990234375 478.5639953613281 -66.60910034179688 494.1340026855469 -64.56320190429688Z" fill="black" /></g></svg>