<?xml version="1.0" encoding="utf-8" ?>
<svg baseProfile="tiny" height="100%" version="1.2" width="100%" xmlns="http://www.w3.org/2000/svg" xmlns:ev="http://www.w3.org/2001/xml-events" xmlns:xlink="http://www.w3.org/1999/xlink"><defs /><g transform="translate(0, 1000) scale(1, -1)"><path d="M439.95001220703125 752.2579956054688C441.5820007324219 752.4920043945312 443.16400146484375 752.60498046875 444.6940002441406 752.60498046875C461.85101318359375 752.60498046875 472.4129943847656 738.469970703125 472.4129943847656 723.9080200195312C472.4129943847656 713.7990112304688 467.3240051269531 703.4840087890625 455.8190002441406 697.5469970703125C422.5190124511719 680.35302734375 370.8399963378906 669.3159790039062 323.7080078125 669.3159790039062H313.6189880371094L313.90301513671875 665.905029296875C315.67401123046875 645.8809814453125 316.5360107421875 625.7930297851562 316.5360107421875 605.8920288085938C316.5360107421875 503.3900146484375 293.6629943847656 405.8370056152344 254.31300354003906 347.4469909667969C226.41700744628906 306.02801513671875 183.93600463867188 283.9639892578125 132.80099487304688 283.9639892578125C126.97799682617188 283.9639892578125 121.0419921875 284.25 115.00299072265625 284.82598876953125C110.59700012207031 285.25299072265625 105.14999389648438 285.72601318359375 102.97100830078125 285.9159851074219C85.66009521484375 287.2980041503906 76.22659301757812 301.0480041503906 76.22659301757812 314.8160095214844C76.22659301757812 326.06298828125 82.52189636230469 337.3219909667969 95.96060180664062 341.8580017089844C98.81979370117188 342.822998046875 101.7449951171875 343.29400634765625 104.65798950195312 343.29400634765625C113.03700256347656 343.29400634765625 121.31100463867188 339.3999938964844 127.60299682617188 332.19500732421875C129.0590057373047 330.5169982910156 130.87399291992188 329.7279968261719 133.61399841308594 329.7279968261719C134.97500610351562 329.7279968261719 136.56399536132812 329.9230041503906 138.4499969482422 330.29998779296875C156.5919952392578 333.9469909667969 172.46099853515625 349.43701171875 186.2449951171875 376.9580078125C216.66600036621094 437.7239990234375 232.46499633789062 516.3189697265625 232.46499633789062 604.4329833984375C232.46499633789062 626.0800170898438 231.51100158691406 648.301025390625 229.58700561523438 670.9739990234375C228.68699645996094 681.5369873046875 229.49200439453125 680.2109985351562 222.718994140625 682.2470092773438C208.2689971923828 686.60498046875 193.98399353027344 688.697998046875 180.42799377441406 688.697998046875C142.7010040283203 688.697998046875 110.61399841308594 672.4849853515625 96.29220581054688 643.7369995117188C88.8529052734375 628.7960205078125 75.43060302734375 621.781982421875 62.390106201171875 621.781982421875C45.870697021484375 621.781982421875 29.964004516601562 633.0360107421875 27.608001708984375 653.6840209960938C27.453399658203125 655.0570068359375 27.375091552734375 656.4110107421875 27.375091552734375 657.7490234375C27.375091552734375 672.8040161132812 37.28450012207031 685.8510131835938 59.81849670410156 700.8159790039062C92.94949340820312 722.8369750976562 138.6479949951172 734.9299926757812 183.0189971923828 734.9299926757812C201.83399963378906 734.9299926757812 220.40899658203125 732.7550048828125 237.68699645996094 728.2420043945312L251.18699645996094 724.6890258789062C274.95399475097656 718.4559936523438 299.12599182128906 715.4359741210938 321.9939727783203 715.4359741210938C364.1179962158203 715.4359741210938 401.8169708251953 725.6829833984375 424.41297912597656 744.9630126953125C429.33998107910156 749.1320190429688 434.1709747314453 751.405029296875 439.9499969482422 752.2579956054688ZM306.37098693847656 261.0469970703125C308.50099182128906 261.3689880371094 310.6219940185547 261.5249938964844 312.71897888183594 261.5249938964844C334.0719757080078 261.5249938964844 352.9619903564453 245.3820037841797 354.68699645996094 224.28900146484375C356.39198303222656 203.39999389648438 364.30299377441406 145.37399291992188 370.83998107910156 106.34201049804688C386.23399353027344 13.926300048828125 408.78199768066406 -75.74209594726562 430.76097106933594 -132.1580047607422C438.86097717285156 -152.85800170898438 451.83998107910156 -169.91099548339844 463.77598571777344 -175.40499877929688L466.23997497558594 -176.54200744628906L469.41297912597656 -175.68899536132812C471.8729705810547 -175.0070037841797 474.24098205566406 -174.6909942626953 476.49598693847656 -174.6909942626953C490.6549835205078 -174.6909942626953 500.3619842529297 -187.1510009765625 500.3619842529297 -199.71400451660156C500.3619842529297 -207.38400268554688 496.74497985839844 -215.0919952392578 488.31297302246094 -220.0260009765625C484.91197204589844 -222.02000427246094 478.6069793701172 -223.03399658203125 469.95997619628906 -223.03399658203125C464.63697814941406 -223.03399658203125 458.42698669433594 -222.64999389648438 451.4609832763672 -221.87399291992188C408.5919952392578 -217.13699340820312 369.84498596191406 -186.8209991455078 351.0869903564453 -143.28900146484375C338.24998474121094 -113.44699096679688 319.0189971923828 -50.02110290527344 307.74497985839844 -0.0947418212890625C307.0599822998047 2.964080810546875 306.3309783935547 5.3628692626953125 306.10997009277344 5.3628692626953125C306.1009979248047 5.3628692626953125 306.09397888183594 5.3594970703125 306.0869903564453 5.352630615234375C305.89698791503906 5.11578369140625 304.23997497558594 1.6578826904296875 302.34498596191406 -2.3684234619140625C292.82398986816406 -22.87890625 277.4759979248047 -49.68949890136719 264.26097106933594 -68.92109680175781C261.67298889160156 -72.68499755859375 260.36997985839844 -74.40440368652344 260.36997985839844 -75.62271118164062C260.36997985839844 -76.85739135742188 261.70799255371094 -77.577392578125 264.4029998779297 -79.38949584960938C276.24497985839844 -87.34739685058594 287.80299377441406 -91.37370300292969 301.6339874267578 -92.41580200195312C309.4969940185547 -92.98419189453125 310.87098693847656 -93.36318969726562 313.38197326660156 -95.63681030273438C315.98497009277344 -97.97390747070312 317.2159881591797 -100.99700927734375 317.2159881591797 -104.01800537109375C317.2159881591797 -108.52799987792969 314.4709930419922 -113.03500366210938 309.4499969482422 -115.24700927734375C301.4669952392578 -118.75100708007812 291.70899963378906 -120.46499633789062 281.38099670410156 -120.46499633789062C267.13499450683594 -120.46499633789062 251.802978515625 -117.20500183105469 238.53997802734375 -110.88900756835938L233.6129913330078 -108.52101135253906L231.86097717285156 -110.51100158691406C177.4819793701172 -171.90000915527344 109.27098083496094 -211.35801696777344 46.79219055175781 -217.65802001953125C41.56648254394531 -218.17001342773438 33.644989013671875 -218.45201110839844 27.252090454101562 -218.45201110839844C22.402877807617188 -218.45201110839844 18.43328857421875 -218.2890167236328 17.186981201171875 -217.9420166015625C5.306060791015625 -214.60401916503906 -1.52587890625e-05 -205.3170166015625 -1.52587890625e-05 -195.93701171875C-1.52587890625e-05 -183.92001342773438 8.709503173828125 -171.75201416015625 23.46038818359375 -171.75201416015625C24.646484375 -171.75201416015625 25.87158203125 -171.8310089111328 27.134292602539062 -171.99501037597656C28.4622802734375 -172.1690216064453 29.877090454101562 -172.25401306152344 31.370880126953125 -172.25401306152344C47.77989196777344 -172.25401306152344 73.72808837890625 -161.9350128173828 99.03958129882812 -145.08901977539062C195.1029815673828 -81.14210510253906 263.78697204589844 60.773681640625 270.84498596191406 209.84197998046875C271.6969757080078 227.510986328125 272.6919708251953 232.72097778320312 276.5759735107422 239.82598876953125C282.73399353027344 251.00498962402344 294.29197692871094 259.2469940185547 306.37098693847656 261.04698181152344ZM265.16099548339844 -257.68397521972656C267.96397399902344 -257.4609832763672 273.30799865722656 -257.36097717285156 279.46998596191406 -257.36097717285156C291.62998962402344 -257.36097717285156 306.97898864746094 -257.74998474121094 312.29197692871094 -258.3469696044922C394.71299743652344 -267.48899841308594 459.4659881591797 -308.13197326660156 475.38197326660156 -360.7109832763672C477.13999938964844 -366.51197814941406 477.99497985839844 -372.45997619628906 477.99497985839844 -378.48497009277344C477.99497985839844 -415.95399475097656 444.93299865722656 -456.4099884033203 390.4969940185547 -483.01597595214844L383.24998474121094 -486.56797790527344L389.6449737548828 -489.7889862060547C435.5449981689453 -513.1890106201172 468.70298767089844 -547.3889617919922 480.68699645996094 -583.7679901123047C484.0819854736328 -594.0499725341797 485.7949981689453 -603.8159637451172 485.7949981689453 -613.3619842529297C485.7949981689453 -627.5219573974609 482.02598571777344 -641.1949920654297 474.38697814941406 -655.3419647216797C447.0969696044922 -705.8129730224609 382.41798400878906 -734.4929656982422 313.19798278808594 -734.4929656982422C277.88697814941406 -734.4929656982422 241.39498901367188 -727.0300140380859 208.0819854736328 -711.1890106201172C183.3079833984375 -699.3950042724609 176.6289825439453 -693.8530120849609 173.21897888183594 -682.2949676513672C172.6829833984375 -680.4739837646484 172.38998413085938 -676.9899749755859 172.38998413085938 -673.7819671630859C172.38998413085938 -671.3140106201172 172.56398010253906 -669.0089569091797 172.93399047851562 -667.7529754638672L173.45498657226562 -665.9529876708984L172.36598205566406 -666.8049774169922L166.82398986816406 -671.1630096435547C137.42098999023438 -694.2939910888672 102.87498474121094 -706.0900115966797 64.68878173828125 -706.0900115966797C63.07188415527344 -706.0900115966797 61.44837951660156 -706.0689544677734 59.8184814453125 -706.0259857177734C52.381683349609375 -705.8369598388672 43.95008850097656 -705.6469573974609 41.06059265136719 -705.5529632568359C24.671188354492188 -705.1739959716797 13.255386352539062 -693.9470062255859 13.255386352539062 -678.3159637451172C13.255386352539062 -662.0089569091797 26.649581909179688 -650.9730072021484 40.67338562011719 -650.9730072021484C46.85517883300781 -650.9730072021484 53.1591796875 -653.1179656982422 58.4921875 -657.9000091552734L61.1448974609375 -660.3159637451172H65.360595703125C90.08700561523438 -660.2679901123047 122.34500122070312 -633.1739959716797 140.2969970703125 -597.3629608154297C178.0019989013672 -522.2849578857422 198.4550018310547 -439.3789825439453 198.4550018310547 -363.8939971923828C198.4550018310547 -353.0809783935547 198.03599548339844 -342.4209747314453 197.18699645996094 -331.95799255371094C196.9029998779297 -328.7369842529297 196.5709991455078 -324.47398376464844 196.3820037841797 -322.43699645996094C196.16900634765625 -319.83399963378906 196.2100067138672 -318.71998596191406 195.0260009765625 -318.71998596191406C194.09800720214844 -318.71998596191406 192.41799926757812 -319.4029998779297 189.2760009765625 -320.58897399902344C144.08700561523438 -337.68898010253906 112.06600952148438 -362.17897033691406 97.33428955078125 -391.02598571777344C90.27069091796875 -404.8259735107422 77.71701049804688 -411.0719757080078 65.30099487304688 -411.0719757080078C47.16020202636719 -411.0719757080078 29.31329345703125 -397.73899841308594 29.31329345703125 -375.15797424316406C29.31329345703125 -362.17897033691406 33.52909851074219 -354.41099548339844 47.40800476074219 -341.7159881591797C100.7919921875 -292.8789825439453 173.0760040283203 -264.97898864746094 265.1610107421875 -257.68397521972656ZM308.97601318359375 -304.7679901123047C302.77099609375 -303.7259979248047 299.6919860839844 -303.48899841308594 289.2239990234375 -303.2999725341797L276.7659912109375 -303.01597595214844L277.47601318359375 -305.3369903564453C277.90301513671875 -306.61598205566406 278.6130065917969 -311.2579803466797 279.1340026855469 -315.66297912597656C281.0679931640625 -332.28199768066406 282.0299987792969 -349.09999084472656 282.0299987792969 -366.06297302246094C282.0299987792969 -437.1969757080078 265.10699462890625 -510.87599182128906 231.9080047607422 -583.0109710693359C218.64500427246094 -611.9529876708984 210.5919952392578 -625.5469818115234 196.9969940185547 -642.0789642333984C195.32200622558594 -644.0800018310547 194.01199340820312 -645.8079681396484 194.01199340820312 -645.9119720458984L194.01300048828125 -645.9160003662109C194.02200317382812 -645.9329681396484 194.08299255371094 -645.9409637451172 194.18800354003906 -645.9409637451172C194.66700744628906 -645.9409637451172 196.0679931640625 -645.7779998779297 197.66099548339844 -645.5839691162109C199.0659942626953 -645.4109954833984 200.42799377441406 -645.3229827880859 201.7570037841797 -645.3229827880859C208.81100463867188 -645.3229827880859 214.95599365234375 -647.8049774169922 221.77099609375 -653.3049774169922C250.7209930419922 -676.5720062255859 283.23199462890625 -688.8209686279297 313.7120056152344 -688.8209686279297C326.4219970703125 -688.8209686279297 338.77899169921875 -686.6909637451172 350.3760070800781 -682.3419647216797C384.760986328125 -669.4449920654297 402.2130126953125 -642.4529876708984 402.2130126953125 -613.2039642333984C402.2130126953125 -586.1630096435547 387.2969970703125 -557.1909637451172 357.05499267578125 -535.6420135498047C338.01300048828125 -522.0949554443359 318.45001220703125 -513.9949798583984 292.1130065917969 -508.7369842529297C276.81298828125 -505.70497131347656 269.18701171875 -497.8419952392578 269.18701171875 -485.05299377441406C269.18701171875 -472.3109893798828 277.95001220703125 -463.2159881591797 291.5920104980469 -461.7949981689453C335.7869873046875 -457.2949981689453 376.95001220703125 -431.57398986816406 390.1659851074219 -400.2629852294922C393.17498779296875 -393.1489715576172 394.6080017089844 -385.99598693847656 394.6080017089844 -378.9719696044922C394.6080017089844 -344.74598693847656 360.5799865722656 -313.5719757080078 308.97601318359375 -304.7679901123047Z" fill="black" /></g></svg>