<?xml version="1.0" encoding="utf-8" ?>
<svg baseProfile="tiny" height="100%" version="1.2" width="100%" xmlns="http://www.w3.org/2000/svg" xmlns:ev="http://www.w3.org/2001/xml-events" xmlns:xlink="http://www.w3.org/1999/xlink"><defs /><g transform="translate(0, 1000) scale(1, -1)"><path d="M226.42100524902344 252.89999389648438C232.12098693847656 253.23899841308594 238.14797973632812 253.4040069580078 244.39698791503906 253.4040069580078C270.4979705810547 253.4040069580078 300.46299743652344 250.5189971923828 326.60499572753906 245.3209991455078C446.63697814941406 221.44700622558594 529.8159637451172 141.1580047607422 545.4000091552734 34.10530090332031C546.9160003662109 23.712295532226562 547.6539764404297 12.589202880859375 547.6539764404297 0.906707763671875C547.6539764404297 -64.77679443359375 524.3359832763672 -148.14300537109375 485.00498962402344 -218.8419952392578C393.8679962158203 -382.6889953613281 224.95298767089844 -500.9209899902344 21.884185791015625 -543.0789794921875C17.80078125 -543.9349975585938 14.354782104492188 -544.375 11.492477416992188 -544.375C3.4310302734375 -544.375 -1.52587890625e-05 -540.8839721679688 -1.52587890625e-05 -533.3679809570312C-1.52587890625e-05 -526.1209716796875 1.79998779296875 -524.60498046875 16.863189697265625 -518.968017578125C248.92098999023438 -432.3789978027344 403.62599182128906 -247.78399658203125 417.7889862060547 -40.73680114746094C418.57899475097656 -29.222000122070312 418.96998596191406 -17.984695434570312 418.96998596191406 -7.04168701171875C418.96998596191406 93.02549743652344 386.2379913330078 168.49099731445312 325.56297302246094 206.62100219726562C299.87998962402344 222.7480010986328 270.1339874267578 230.26300048828125 239.9099884033203 230.26300048828125C171.85897827148438 230.26300048828125 101.38998413085938 192.16200256347656 69.44209289550781 128.46299743652344C67.07368469238281 123.77400207519531 62.052581787109375 112.26300048828125 62.052581787109375 111.60000610351562C62.052581787109375 111.58999633789062 62.06048583984375 111.58499145507812 62.07588195800781 111.58499145507812C62.26979064941406 111.58499145507812 63.65309143066406 112.39399719238281 65.32109069824219 113.44699096679688C81.01748657226562 123.60400390625 99.20579528808594 128.52699279785156 117.38298034667969 128.52699279785156C143.96798706054688 128.52699279785156 170.52899169921875 117.99700927734375 189.2369842529297 97.91049194335938C207.7489776611328 78.056396484375 216.1379852294922 53.99510192871094 216.1379852294922 30.358505249023438C216.1379852294922 -17.736602783203125 181.4019775390625 -64.0736083984375 126.52098083496094 -69.631591796875C122.93998718261719 -69.99288940429688 119.39398193359375 -70.16999816894531 115.88798522949219 -70.16999816894531C54.51548767089844 -70.16999816894531 5.7613677978515625 -15.881500244140625 5.7613677978515625 54.29229736328125C5.7613677978515625 55.76690673828125 5.78289794921875 57.248504638671875 5.8263092041015625 58.73680114746094C8.810516357421875 161.19500732421875 104.68397521972656 245.60499572753906 226.42098999023438 252.89999389648438ZM617.2109680175781 155.98399353027344C618.3299865722656 156.1389923095703 619.7689514160156 156.20999145507812 621.3559875488281 156.20999145507812C626.0839538574219 156.20999145507812 632.1249694824219 155.57998657226562 634.9259948730469 154.65798950195312C652.4699401855469 148.94398498535156 661.2219543457031 133.7539825439453 661.2219543457031 118.52998352050781C661.2219543457031 103.21397399902344 652.3639831542969 87.8621826171875 634.6889953613281 82.08949279785156C631.7289733886719 81.11839294433594 627.5489807128906 80.63288879394531 623.3679504394531 80.63288879394531C619.1879577636719 80.63288879394531 615.0079650878906 81.11839294433594 612.0469665527344 82.08949279785156C594.6599426269531 87.79039001464844 585.4659729003906 103.24398803710938 585.4659729003906 118.72598266601562C585.4659729003906 131.54498291015625 591.7689514160156 144.3829803466797 604.9419860839844 151.72097778320312C608.1159973144531 153.47398376464844 614.1789855957031 155.60498046875 617.2109680175781 155.98397827148438ZM617.2109680175781 -80.85791015625C619.0949401855469 -80.599609375 620.9699401855469 -80.47329711914062 622.8249816894531 -80.47329711914062C636.9569396972656 -80.47329711914062 649.8849792480469 -87.80940246582031 656.6679992675781 -99.99468994140625C659.6439514160156 -105.36900329589844 661.2379455566406 -112.43600463867188 661.2379455566406 -119.14999389648438C661.2379455566406 -122.9110107421875 660.7369689941406 -126.56199645996094 659.6999816894531 -129.74200439453125C653.7609558105469 -147.89300537109375 638.7359924316406 -156.27099609375 623.7689514160156 -156.27099609375C604.7159729003906 -156.27099609375 585.7579650878906 -142.69500732421875 585.7579650878906 -118.42098999023438C585.7579650878906 -99.28421020507812 599.1629943847656 -83.27369689941406 617.2109680175781 -80.85791015625Z" fill="black" /></g></svg>