<?xml version="1.0" encoding="utf-8" ?>
<svg baseProfile="tiny" height="100%" version="1.2" width="100%" xmlns="http://www.w3.org/2000/svg" xmlns:ev="http://www.w3.org/2001/xml-events" xmlns:xlink="http://www.w3.org/1999/xlink"><defs /><g transform="translate(0, 1000) scale(1, -1)"><path d="M0 0V507.78900146484375H60.631591796875H121.26300048828125V0.0V-507.78900146484375H60.631591796875H0.0ZM166.73699951171875 0.0V507.78900146484375H181.89500427246094H197.05299377441406L197.14700317382812 264.9320068359375L197.28900146484375 22.073699951171875L202.40499877929688 26.478897094726562C209.6999969482422 32.77888488769531 222.58399963378906 46.79998779296875 231.01600646972656 57.64738464355469C263.8890075683594 99.89997863769531 288.80499267578125 154.2319793701172 304.6260070800781 218.36798095703125C308.65301513671875 234.61598205566406 310.3580017089844 236.84197998046875 318.4110107421875 236.84197998046875C326.22601318359375 236.79498291015625 329.25799560546875 232.8629913330078 330.1579895019531 221.63697814941406C336.3840026855469 141.55398559570312 389.4530029296875 83.70347595214844 449.3949890136719 83.70347595214844C459.2279968261719 83.70347595214844 469.24700927734375 85.26048278808594 479.27398681640625 88.53158569335938C518.35302734375 101.32098388671875 532.3259887695312 136.27899169921875 535.2630004882812 228.7889862060547C535.8629760742188 247.52598571777344 536.1710205078125 264.8889923095703 536.1710205078125 280.97398376464844C536.1710205078125 384.3629913330078 523.4299926757812 434.9659881591797 493.3420104980469 458.2889862060547C477.0840148925781 470.8679962158203 453.0350036621094 477.18199157714844 427.09698486328125 477.18199157714844C401.95001220703125 477.18199157714844 375.02801513671875 471.2469940185547 351.71099853515625 459.3319854736328L349.3420104980469 458.14698791503906L351.23699951171875 457.8629913330078C359.8580017089844 456.48899841308594 364.5950012207031 455.06797790527344 370.4209899902344 452.13197326660156C391.17401123046875 441.65699768066406 401.1499938964844 421.7629852294922 401.1499938964844 401.77098083496094C401.1499938964844 378.3679962158203 387.4779968261719 354.8319854736328 361.4209899902344 346.12098693847656C354.87200927734375 343.9359893798828 348.385009765625 342.9259796142578 342.0989990234375 342.9259796142578C307.9490051269531 342.9259796142578 279.7250061035156 372.74497985839844 279.7250061035156 406.1029815673828C279.7250061035156 415.32899475097656 281.8840026855469 424.8259735107422 286.67401123046875 434.03697204589844C301.3110046386719 462.12599182128906 352.56298828125 491.68397521972656 398.0840148925781 498.3159942626953C408.1409912109375 499.77699279785156 418.1610107421875 500.4869842529297 428.0849914550781 500.4869842529297C525.6329956054688 500.4869842529297 613.9530029296875 431.88697814941406 636.8679809570312 333.47398376464844C640.5339965820312 317.80699157714844 642.3579711914062 300.66798400878906 642.3579711914062 283.1499786376953C642.3579711914062 265.1269989013672 640.427001953125 246.70498657226562 636.583984375 229.07398986816406C617.2579956054688 140.7319793701172 550.5159912109375 73.61048889160156 470.22601318359375 61.81578063964844C463.5539855957031 60.83998107910156 456.9800109863281 60.35289001464844 450.5119934082031 60.35289001464844C424.010009765625 60.35289001464844 399.2799987792969 68.53117370605469 376.8160095214844 84.78947448730469C374.45098876953125 86.49728393554688 372.3699951171875 87.80027770996094 371.91900634765625 87.80027770996094C371.8819885253906 87.80027770996094 371.8559875488281 87.79158020019531 371.8420104980469 87.773681640625C371.65301513671875 87.58418273925781 359.6210021972656 67.73678588867188 345.1260070800781 43.72108459472656L318.69500732421875 -1.52587890625e-05L345.1260070800781 -43.67372131347656C359.6210021972656 -67.73681640625 371.65301513671875 -87.58421325683594 371.8420104980469 -87.77371215820312C371.8559875488281 -87.79161071777344 371.8819885253906 -87.80030822753906 371.91900634765625 -87.80030822753906C372.3699951171875 -87.80030822753906 374.45098876953125 -86.497314453125 376.8160095214844 -84.78950500488281C399.19000244140625 -68.59661865234375 424.1449890136719 -60.43321228027344 450.8800048828125 -60.43321228027344C463.48199462890625 -60.43321228027344 476.4800109863281 -62.247314453125 489.78900146484375 -65.88951110839844C567.094970703125 -87.01582336425781 625.1209716796875 -155.74700927734375 639.1890258789062 -243.04701232910156C641.3590087890625 -256.46400451660156 642.4320068359375 -269.73402404785156 642.4320068359375 -282.77601623535156C642.4320068359375 -337.5130157470703 623.5280151367188 -388.2110137939453 587.416015625 -428.6840057373047C545.1370239257812 -476.0340118408203 485.72900390625 -500.4180145263672 427.9830017089844 -500.4180145263672C380.531005859375 -500.4180145263672 334.20001220703125 -483.95301818847656 299.4159851074219 -450.2370147705078C286.0450134277344 -437.2890167236328 280.05499267578125 -421.19200134277344 280.05499267578125 -405.4490203857422C280.05499267578125 -373.61802673339844 304.53900146484375 -343.2320098876953 342.0 -343.2320098876953C378.9230041503906 -343.2320098876953 401.31298828125 -373.0950164794922 401.31298828125 -402.7270050048828C401.31298828125 -422.0960235595703 391.74700927734375 -441.3660125732422 370.4209899902344 -452.1320037841797C364.5950012207031 -455.06800842285156 359.8580017089844 -456.48902893066406 351.23699951171875 -457.86302185058594L349.3420104980469 -458.1470184326172L351.71099853515625 -459.33201599121094C375.02801513671875 -471.2470245361328 401.9849853515625 -477.18202209472656 427.1499938964844 -477.18202209472656C453.1059875488281 -477.18202209472656 477.156005859375 -470.86802673339844 493.3420104980469 -458.2890167236328C523.4600219726562 -434.8920135498047 536.1729736328125 -384.3760223388672 536.1729736328125 -281.07701110839844C536.1729736328125 -264.9650115966797 535.864013671875 -247.56800842285156 535.2630004882812 -228.7890167236328C531.947021484375 -124.15301513671875 513.7579956054688 -89.90531921386719 458.5740051269531 -84.31581115722656C455.3739929199219 -83.99391174316406 452.1929931640625 -83.83570861816406 449.0369873046875 -83.83570861816406C388.0950012207031 -83.83570861816406 336.2829895019531 -142.8240203857422 330.1579895019531 -221.6370086669922C329.25799560546875 -232.86302185058594 326.22601318359375 -236.79501342773438 318.4110107421875 -236.84201049804688C310.3580017089844 -236.84201049804688 308.65301513671875 -234.6160125732422 304.6260070800781 -218.36801147460938C288.80499267578125 -154.2320098876953 263.8890075683594 -99.90000915527344 231.01600646972656 -57.64741516113281C222.58399963378906 -46.800018310546875 209.6999969482422 -32.77891540527344 202.40499877929688 -26.478912353515625L197.28900146484375 -22.073715209960938L197.14700317382812 -264.93202209472656L197.05299377441406 -507.7890167236328H181.89500427246094H166.73699951171875Z" fill="black" /></g></svg>