<?xml version="1.0" encoding="utf-8" ?>
<svg baseProfile="tiny" height="100%" version="1.2" width="100%" xmlns="http://www.w3.org/2000/svg" xmlns:ev="http://www.w3.org/2001/xml-events" xmlns:xlink="http://www.w3.org/1999/xlink"><defs /><g transform="translate(0, 1000) scale(1, -1)"><path d="M58.04539489746094 168.05299377441406C60.18309020996094 168.27500915527344 62.31529235839844 168.385009765625 64.43717956542969 168.385009765625C97.95527648925781 168.385009765625 128.91598510742188 141.07301330566406 138.760986328125 101.73701477050781C141.0039825439453 92.79351806640625 142.08998107910156 83.62971496582031 142.08998107910156 74.36592102050781C142.08998107910156 16.70391845703125 100.00798034667969 -44.83018493652344 32.75068664550781 -81.152587890625C27.63818359375 -83.92387390136719 23.935379028320312 -85.30949401855469 21.19268798828125 -85.30949401855469C18.497283935546875 -85.30949401855469 16.728988647460938 -83.97128295898438 15.461181640625 -81.29469299316406C14.860885620117188 -80.00657653808594 14.551177978515625 -78.81428527832031 14.551177978515625 -77.68537902832031C14.551177978515625 -74.53848266601562 16.95819091796875 -71.88499450683594 22.187484741210938 -69.02629089355469C54.96478271484375 -51.18048095703125 75.00688171386719 -19.068984985351562 75.00688171386719 10.535614013671875C75.00688171386719 19.9066162109375 72.99879455566406 29.026519775390625 68.75068664550781 37.36322021484375L67.80328369140625 39.21051025390625H62.876983642578125C39.61906433105469 39.21049499511719 16.313766479492188 54.22630310058594 6.2717132568359375 75.73159790039062C1.9871368408203125 84.89759826660156 -3.0517578125e-05 94.38020324707031 -3.0517578125e-05 103.625C-3.0517578125e-05 135.46800231933594 23.574462890625 164.49200439453125 58.04536437988281 168.05299377441406Z" fill="black" /></g></svg>