<?xml version="1.0" encoding="utf-8" ?>
<svg baseProfile="tiny" height="100%" version="1.2" width="100%" xmlns="http://www.w3.org/2000/svg" xmlns:ev="http://www.w3.org/2001/xml-events" xmlns:xlink="http://www.w3.org/1999/xlink"><defs /><g transform="translate(0, 1000) scale(1, -1)"><path d="M40.571502685546875 48.713592529296875C43.322296142578125 49.20719909667969 46.09230041503906 49.44599914550781 48.851104736328125 49.44599914550781C67.80270385742188 49.44599914550781 86.23019409179688 38.1741943359375 94.3345947265625 20.766204833984375C97.13739013671875 14.74310302734375 98.64520263671875 6.486480712890625 98.64520263671875 -1.1917724609375C98.64520263671875 -5.71136474609375 98.122802734375 -10.030593872070312 97.03460693359375 -13.575897216796875C93.52940368652344 -25.133804321289062 86.518798828125 -34.749603271484375 77.09249877929688 -41.09700012207031C68.59710693359375 -46.74290466308594 58.950897216796875 -49.44599914550781 49.41680908203125 -49.44599914550781C33.43409729003906 -49.44599914550781 17.766204833984375 -41.84979248046875 8.360931396484375 -27.786407470703125C2.632965087890625 -19.173904418945312 0.0 -9.649154663085938 0.0 -0.313079833984375C0.0 22.5458984375 15.784500122070312 44.27410888671875 40.571502685546875 48.713592529296875Z" fill="black" /></g></svg>