<?xml version="1.0" encoding="utf-8" ?>
<svg baseProfile="tiny" height="100%" version="1.2" width="100%" xmlns="http://www.w3.org/2000/svg" xmlns:ev="http://www.w3.org/2001/xml-events" xmlns:xlink="http://www.w3.org/1999/xlink"><defs /><g transform="translate(0, 1000) scale(1, -1)"><path d="M160.04299926757812 467.1839904785156C166.7989959716797 467.8550109863281 173.51499938964844 468.1820068359375 180.15899658203125 468.1820068359375C252.80099487304688 468.1820068359375 316.9630126953125 429.07501220703125 333.4110107421875 372.3529968261719C335.8789978027344 363.8450012207031 337.06500244140625 354.9209899902344 337.06500244140625 345.9119873046875C337.06500244140625 317.0530090332031 324.8900146484375 287.32000732421875 303.66400146484375 267.5740051269531C303.00799560546875 266.95599365234375 302.6050109863281 266.60400390625 302.6050109863281 266.2300109863281C302.6050109863281 265.6570129394531 303.54998779296875 265.02899169921875 305.9849853515625 263.3110046386719C340.760986328125 239.05799865722656 359.70599365234375 203.41700744628906 359.70599365234375 167.21800231933594C359.70599365234375 150.9550018310547 355.8819885253906 134.5800018310547 347.9530029296875 119.07400512695312C319.1419982910156 62.811492919921875 249.718994140625 31.8280029296875 179.1009979248047 31.8280029296875C131.64199829101562 31.8280029296875 83.64289855957031 45.82220458984375 47.06890869140625 75.54209899902344C15.58599853515625 101.14801025390625 0.0 134.86000061035156 0.0 168.15499877929688C0.0 204.09100341796875 18.15679931640625 239.54100036621094 54.079498291015625 263.78399658203125L57.58470153808594 266.15301513671875L53.03730773925781 270.93701171875C31.731414794921875 293.34100341796875 22.01751708984375 318.72198486328125 22.01751708984375 343.6409912109375C22.01751708984375 402.5429992675781 76.29371643066406 458.8630065917969 160.0430145263672 467.1839904785156ZM190.26402282714844 436.3949890136719C186.33702087402344 436.98199462890625 182.39501953125 437.2590026855469 178.48802185058594 437.2590026855469C146.3610076904297 437.2590026855469 116.54501342773438 418.5010070800781 116.54501342773438 398.7139892578125C116.54501342773438 395.85198974609375 117.16902160644531 392.9679870605469 118.50102233886719 390.1159973144531C130.864013671875 363.73199462890625 178.37400817871094 326.4530029296875 235.87901306152344 298.0320129394531L248.6690216064453 291.6839904785156L249.7580108642578 293.4840087890625C259.53700256347656 309.2179870605469 264.01002502441406 326.6669921875 264.01002502441406 343.83099365234375C264.01002502441406 387.6940002441406 234.7960205078125 429.68798828125 190.26402282714844 436.3949890136719ZM102.77401733398438 235.88400268554688C99.41104125976562 237.44700622558594 96.37953186035156 238.8209991455078 96.09523010253906 238.91600036621094C96.07643127441406 238.9239959716797 96.05403137207031 238.9290008544922 96.0283203125 238.9290008544922C94.63372802734375 238.9290008544922 83.32423400878906 226.48599243164062 79.18472290039062 220.3000030517578C67.83363342285156 203.42799377441406 62.67832946777344 185.39999389648438 62.67832946777344 167.7899932861328C62.67832946777344 113.39199829101562 111.87203979492188 62.989105224609375 179.5890350341797 62.989105224609375C180.78903198242188 62.989105224609375 181.99403381347656 63.00489807128906 183.20602416992188 63.03680419921875C223.82603454589844 64.07839965820312 255.02903747558594 87.47171020507812 255.02903747558594 113.94500732421875C255.02903747558594 117.57099914550781 254.44302368164062 121.2550048828125 253.21603393554688 124.94699096679688C239.95303344726562 164.83200073242188 189.74302673339844 203.2949981689453 115.09002685546875 230.8159942626953C111.72702026367188 232.0469970703125 106.18502807617188 234.3209991455078 102.77403259277344 235.88400268554688ZM179.85302734375 -0.1732330322265625H180.85302734375H178.85302734375ZM179.85302734375 485.8269805908203H180.85302734375H178.85302734375Z" fill="black" /></g></svg>