<?xml version="1.0" encoding="utf-8" ?>
<svg baseProfile="tiny" height="100%" version="1.2" width="100%" xmlns="http://www.w3.org/2000/svg" xmlns:ev="http://www.w3.org/2001/xml-events" xmlns:xlink="http://www.w3.org/1999/xlink"><defs /><g transform="translate(0, 1000) scale(1, -1)"><path d="M35.20649719238281 459.4159851074219C36.52488708496094 460.0220031738281 37.80317687988281 460.34600830078125 39.38899230957031 460.34600830078125C42.01939392089844 460.34600830078125 45.49607849121094 459.4540100097656 51.40647888183594 457.4739990234375C84.29678344726562 446.33599853515625 119.37797546386719 440.7699890136719 155.83798217773438 440.7699890136719C192.1029815673828 440.7699890136719 229.7329864501953 446.2770080566406 267.92799377441406 457.28399658203125C274.6239776611328 459.22100830078125 278.79197692871094 460.1919860839844 281.81898498535156 460.1919860839844C284.9359893798828 460.1919860839844 286.8429718017578 459.1619873046875 289.05397033691406 457.0950012207031C291.3939971923828 454.9070129394531 292.5459747314453 452.6239929199219 292.5459747314453 449.7170104980469C292.5459747314453 447.2099914550781 291.6899871826172 444.239990234375 290.00099182128906 440.4679870605469C271.2429962158203 398.5950012207031 249.4539794921875 375.1470031738281 219.7539825439453 364.8680114746094C204.27598571777344 359.5379943847656 181.73397827148438 356.99200439453125 157.0299835205078 356.99200439453125C120.26898193359375 356.99200439453125 78.71669006347656 362.62799072265625 48.51698303222656 373.1109924316406C47.11518859863281 373.6199951171875 45.90379333496094 373.9779968261719 45.63458251953125 373.9779968261719C45.60359191894531 373.9779968261719 45.5850830078125 373.9729919433594 45.58018493652344 373.9630126953125C45.30088806152344 373.6839904785156 38.894989013671875 297.2330017089844 38.894989013671875 294.3269958496094C38.894989013671875 294.2749938964844 38.89707946777344 294.2460021972656 38.90118408203125 294.24200439453125C38.904388427734375 294.239013671875 38.91078186035156 294.23699951171875 38.920379638671875 294.23699951171875C39.194580078125 294.23699951171875 42.05097961425781 295.53399658203125 45.438079833984375 297.27398681640625C63.7222900390625 306.6050109863281 85.41697692871094 313.3320007324219 106.49598693847656 316.26800537109375C116.5059814453125 317.6510009765625 126.40298461914062 318.3349914550781 136.1339874267578 318.3349914550781C179.0819854736328 318.3349914550781 218.79598999023438 305.0069885253906 250.7329864501953 279.5580139160156C285.37599182128906 251.9219970703125 301.85597229003906 214.63800048828125 301.85597229003906 177.25399780273438C301.85597229003906 124.92999267578125 269.5709991455078 72.41299438476562 209.6169891357422 45.889495849609375C188.66798400878906 36.620697021484375 167.46897888183594 32.005096435546875 146.22898864746094 32.005096435546875C106.13798522949219 32.005096435546875 65.90019226074219 48.4486083984375 26.916976928710938 81.08419799804688C7.5858917236328125 97.2611083984375 -1.52587890625e-05 110.73699951171875 -1.52587890625e-05 129.58700561523438C-1.52587890625e-05 130.552001953125 0.0198822021484375 131.53199768066406 0.059112548828125 132.5260009765625C1.3657684326171875 165.76199340820312 28.621292114257812 188.12100219726562 57.42088317871094 188.12100219726562C69.33868408203125 188.12100219726562 81.52078247070312 184.29200744628906 92.23808288574219 175.8209991455078C105.92698669433594 164.9969940185547 112.29597473144531 149.32699584960938 112.29597473144531 133.781005859375C112.29597473144531 111.02400207519531 98.64817810058594 88.53118896484375 74.33277893066406 81.88949584960938C72.39068603515625 81.368408203125 70.7327880859375 80.84739685058594 70.63807678222656 80.70529174804688C70.62077331542969 80.68899536132812 70.6121826171875 80.66999816894531 70.6121826171875 80.64849853515625C70.6121826171875 79.67050170898438 88.23667907714844 73.42330932617188 95.83808898925781 71.84739685058594C100.34397888183594 70.881103515625 104.84498596191406 70.41580200195312 109.30398559570312 70.41580200195312C152.93798828125 70.41580200195312 192.62098693847656 114.9739990234375 195.02798461914062 170.8000030517578C195.14797973632812 173.6750030517578 195.20797729492188 176.5449981689453 195.20797729492188 179.406005859375C195.20797729492188 225.86000061035156 179.5139923095703 269.802001953125 156.04298400878906 287.5159912109375C148.3529815673828 293.29400634765625 143.78797912597656 294.9179992675781 132.84498596191406 294.9179992675781C131.58798217773438 294.9179992675781 130.24697875976562 294.8970031738281 128.8059844970703 294.8580017089844C96.59599304199219 294.0050048828125 65.38018798828125 284.1050109863281 39.56437683105469 266.67401123046875C29.474884033203125 259.80499267578125 28.764389038085938 259.4739990234375 25.164382934570312 259.4739990234375C18.201187133789062 259.4739990234375 13.701187133789062 263.9259948730469 13.653884887695312 270.7950134277344C13.653884887695312 277.4259948730469 28.811782836914062 451.74200439453125 29.522293090820312 453.5889892578125C30.516983032226562 455.9110107421875 32.88539123535156 458.32598876953125 35.20648193359375 459.4159851074219ZM150.927978515625 -0.1732177734375H151.927978515625H149.927978515625ZM150.92799377441406 485.8269958496094H151.92799377441406H149.92799377441406Z" fill="black" /></g></svg>