<?xml version="1.0" encoding="utf-8" ?>
<svg baseProfile="tiny" height="100%" version="1.2" width="100%" xmlns="http://www.w3.org/2000/svg" xmlns:ev="http://www.w3.org/2001/xml-events" xmlns:xlink="http://www.w3.org/1999/xlink"><defs /><g transform="translate(0, 1000) scale(1, -1)"><path d="M203.8260040283203 993.8839721679688C205.76901245117188 994.5819702148438 207.5650177001953 994.9459838867188 209.27101135253906 994.9459838867188C215.09400939941406 994.9459838867188 219.8590087890625 990.697998046875 225.7580108642578 980.9530029296875C240.34701538085938 956.7000122070312 252.6160125732422 927.2839965820312 259.81602478027344 899.2890014648438C266.29200744628906 874.1300048828125 269.51100158691406 847.6589965820312 269.51100158691406 821.27001953125C269.51100158691406 788.9840087890625 264.69200134277344 756.822021484375 255.1260223388672 727.3419799804688L253.468017578125 722.1790161132812L255.6000213623047 715.2630004882812C256.7840118408203 711.4739990234375 258.6790008544922 704.7949829101562 259.81602478027344 700.3419799804688C266.29200744628906 675.2260131835938 269.51100158691406 648.7579956054688 269.51100158691406 622.3619995117188C269.51100158691406 590.0650024414062 264.69200134277344 557.8740234375 255.1260223388672 528.39501953125L253.468017578125 523.2319946289062L255.6000213623047 516.3159790039062C256.7840118408203 512.5260009765625 258.6790008544922 505.84698486328125 259.81602478027344 501.3949890136719C266.40501403808594 475.84100341796875 269.6070098876953 449.85699462890625 269.6070098876953 424.0459899902344C269.6070098876953 335.5570068359375 231.96401977539062 249.10499572753906 164.08401489257812 189.0C156.97901916503906 182.6529998779297 156.93202209472656 182.60499572753906 139.2630157470703 168.53700256347656C93.64741516113281 132.1580047607422 54.947418212890625 93.3157958984375 26.336807250976562 55.231597900390625C15.773712158203125 41.1632080078125 2.7473907470703125 20.794708251953125 -0.71051025390625 12.978897094726562C-2.93682861328125 7.9105224609375 -8.52630615234375 3.7894744873046875 -13.121078491210938 3.7894744873046875H-15.157882690429688V99.6632080078125V195.53701782226562L-12.884185791015625 195.82101440429688C44.62109375 203.8740234375 99.14208984375 222.91603088378906 137.8419952392578 248.44703674316406C199.1929931640625 288.91802978515625 235.8179931640625 360.9820251464844 235.8179931640625 437.1540222167969C235.8179931640625 447.72802734375 235.11199951171875 458.38201904296875 233.66799926757812 469.0420227050781L232.86300659179688 475.10504150390625L231.44200134277344 472.59503173828125C212.3999786376953 438.7740173339844 190.75299072265625 411.5370178222656 164.083984375 387.947021484375C156.97898864746094 381.60003662109375 156.93199157714844 381.55303955078125 139.2629852294922 367.4840393066406C93.64738464355469 331.10504150390625 54.9473876953125 292.2630310058594 26.336776733398438 254.1790313720703C15.773681640625 240.11102294921875 2.7473602294921875 219.74203491210938 -0.710540771484375 211.926025390625C-2.936859130859375 206.8580322265625 -8.526336669921875 202.73703002929688 -13.121109008789062 202.73703002929688H-15.157913208007812V298.61102294921875V394.4840393066406L-12.88421630859375 394.7680358886719C44.621063232421875 402.821044921875 99.14205932617188 421.863037109375 137.8419647216797 447.39501953125C199.19296264648438 487.86602783203125 235.81796264648438 559.9290466308594 235.81796264648438 636.1010437011719C235.81796264648438 646.6760559082031 235.11196899414062 657.3300476074219 233.66796875 667.9890441894531L232.86297607421875 674.0530090332031L231.4419708251953 671.5420227050781C212.3999481201172 637.7210388183594 190.75296020507812 610.4840393066406 164.08395385742188 586.8950500488281C156.9789581298828 580.5470275878906 156.9319610595703 580.5000305175781 139.26295471191406 566.4320373535156C93.64735412597656 530.0530090332031 54.947357177734375 491.2110290527344 26.336746215820312 453.12603759765625C15.773651123046875 439.05804443359375 2.7473297119140625 418.68902587890625 -0.7105712890625 410.8740234375C-2.9368896484375 405.8050231933594 -8.5263671875 401.68402099609375 -13.121139526367188 401.68402099609375H-15.157943725585938V497.55804443359375V593.4320373535156L-12.884246826171875 593.7160339355469C50.92103576660156 602.6680603027344 112.68893432617188 625.8790588378906 149.9209442138672 654.8680114746094C206.02493286132812 698.5720520019531 235.6919403076172 765.3480529785156 235.6919403076172 834.8640441894531C235.6919403076172 878.7410583496094 223.87193298339844 923.7100524902344 199.4209442138672 964.6580505371094C194.908935546875 972.1670227050781 193.1969451904297 975.7500305175781 193.1969451904297 979.2190246582031C193.1969451904297 980.6310119628906 193.48094177246094 982.0230407714844 193.97393798828125 983.6530456542969C195.4419403076172 988.6260070800781 198.7579345703125 992.0840148925781 203.82594299316406 993.8840026855469Z" fill="black" /></g></svg>