<?xml version="1.0" encoding="utf-8" ?>
<svg baseProfile="tiny" height="100%" version="1.2" width="100%" xmlns="http://www.w3.org/2000/svg" xmlns:ev="http://www.w3.org/2001/xml-events" xmlns:xlink="http://www.w3.org/1999/xlink"><defs /><g transform="translate(0, 1000) scale(1, -1)"><path d="M-17.052597045898438 -104.21099853515625V-3.789459228515625H-14.068389892578125C-6.8684234619140625 -3.7894744873046875 -1.75262451171875 -8.43157958984375 0.3789520263671875 -16.8157958984375C3.031585693359375 -27.37890625 11.84210205078125 -47.65260314941406 20.226303100585938 -62.52630615234375C39.93159484863281 -97.38949584960938 65.69999694824219 -127.42098999023438 102.60000610351562 -158.54200744628906C132.2050018310547 -183.5050048828125 153.5679931640625 -207.14199829101562 173.2259979248047 -236.60499572753906C211.53500366210938 -294.0830078125 231.3459930419922 -360.4880065917969 231.3459930419922 -426.87701416015625C231.3459930419922 -460.885009765625 226.1479949951172 -494.88800048828125 215.57400512695312 -527.6840209960938L213.2050018310547 -534.97900390625L216.0 -544.0260009765625C226.23199462890625 -577.3800048828125 231.34800720214844 -611.35400390625 231.34800720214844 -645.030029296875C231.34800720214844 -679.1699829101562 226.08999633789062 -713.0050048828125 215.57400512695312 -745.5789794921875L213.2050018310547 -752.8740234375L216.0 -761.9210205078125C226.23199462890625 -795.2750244140625 231.34800720214844 -829.2479858398438 231.34800720214844 -862.9240112304688C231.34800720214844 -897.0650024414062 226.08999633789062 -930.8989868164062 215.57400512695312 -963.4739990234375L213.2050018310547 -970.7680053710938L216.0 -979.8159790039062C226.29400634765625 -1013.4099731445312 231.42599487304688 -1047.1600341796875 231.42599487304688 -1080.5699462890625C231.42599487304688 -1127.0999755859375 221.4720001220703 -1172.9599609375 201.64700317382812 -1216.800048828125C195.11099243164062 -1231.199951171875 192.5050048828125 -1233.7099609375 184.0260009765625 -1233.7099609375C174.88400268554688 -1233.7099609375 168.8679962158203 -1227.510009765625 168.8679962158203 -1218.0799560546875V-1213.8199462890625L172.13699340820312 -1206.949951171875C190.75399780273438 -1167.5799560546875 199.6540069580078 -1126.300048828125 199.6540069580078 -1085.9599609375C199.6540069580078 -994.6019897460938 154.02000427246094 -908.0390014648438 72.23680114746094 -859.3109741210938C56.180999755859375 -849.7369995117188 43.11700439453125 -845.0050048828125 30.0404052734375 -845.0050048828125C18.272308349609375 -845.0050048828125 6.4940032958984375 -848.8369750976562 -7.4842071533203125 -856.4210205078125C-10.51580810546875 -858.0789794921875 -11.368392944335938 -858.3159790039062 -14.021102905273438 -858.3159790039062H-17.052597045898438V-757.89501953125V-657.4739990234375H-14.068389892578125C-6.8684234619140625 -657.4739990234375 -1.75262451171875 -662.1160278320312 0.3789520263671875 -670.5C3.031585693359375 -681.06298828125 11.84210205078125 -701.3369750976562 20.226303100585938 -716.2109985351562C39.93159484863281 -751.073974609375 65.69999694824219 -781.10498046875 102.60000610351562 -812.2260131835938C140.44700622558594 -844.2000122070312 168.39500427246094 -878.02099609375 189.9949951171875 -918.094970703125C191.8730010986328 -921.5770263671875 193.531005859375 -924.2620239257812 193.80799865722656 -924.2620239257812L193.83200073242188 -924.2529907226562C194.39999389648438 -923.6840209960938 197.0050048828125 -907.8629760742188 198.0 -899.052978515625C199.15899658203125 -888.7130126953125 199.72900390625 -878.4190063476562 199.72900390625 -868.2130126953125C199.72900390625 -774.9970092773438 152.2030029296875 -689.06201171875 72.23680114746094 -641.416015625C56.180999755859375 -631.8419799804688 43.11700439453125 -627.1110229492188 30.0404052734375 -627.1110229492188C18.272308349609375 -627.1110229492188 6.4940032958984375 -630.9429931640625 -7.4842071533203125 -638.5260009765625C-10.51580810546875 -640.1840209960938 -11.368392944335938 -640.4210205078125 -14.021102905273438 -640.4210205078125H-17.052597045898438V-540.0V-439.5790100097656H-14.068389892578125C-6.8684234619140625 -439.5790100097656 -1.75262451171875 -444.22100830078125 0.3789520263671875 -452.6050109863281C3.031585693359375 -463.1679992675781 11.84210205078125 -483.4419860839844 20.226303100585938 -498.3160095214844C39.93159484863281 -533.1790161132812 65.69999694824219 -563.2109985351562 102.60000610351562 -594.3319702148438C140.44700622558594 -626.3049926757812 168.39500427246094 -660.1259765625 189.9949951171875 -700.2000122070312C191.8730010986328 -703.6829833984375 193.531005859375 -706.3670043945312 193.80799865722656 -706.3670043945312L193.83200073242188 -706.3579711914062C194.39999389648438 -705.7890014648438 197.0050048828125 -689.968017578125 198.0 -681.1580200195312C199.15899658203125 -670.8179931640625 199.72900390625 -660.5239868164062 199.72900390625 -650.3179931640625C199.72900390625 -557.1019897460938 152.2030029296875 -471.1669921875 72.23680114746094 -423.52099609375C56.180999755859375 -413.9469909667969 43.11700439453125 -409.21600341796875 30.0404052734375 -409.21600341796875C18.272308349609375 -409.21600341796875 6.4940032958984375 -413.0480041503906 -7.4842071533203125 -420.6319885253906C-10.51580810546875 -422.28900146484375 -11.368392944335938 -422.5260009765625 -14.021102905273438 -422.5260009765625H-17.052597045898438V-322.1050109863281V-221.6840057373047H-14.068389892578125C-6.8684234619140625 -221.68399047851562 -1.75262451171875 -226.32598876953125 0.3789520263671875 -234.7109832763672C3.031585693359375 -245.27398681640625 11.84210205078125 -265.54698181152344 20.226303100585938 -280.4209747314453C39.93159484863281 -315.2839813232422 65.69999694824219 -345.3159942626953 102.60000610351562 -376.43699645996094C140.44700622558594 -408.41099548339844 168.39500427246094 -442.2319793701172 189.9949951171875 -482.3049774169922C191.8730010986328 -485.78797912597656 193.531005859375 -488.4719696044922 193.80799865722656 -488.4719696044922C193.8179931640625 -488.4719696044922 193.8249969482422 -488.46897888183594 193.83200073242188 -488.46299743652344C194.39999389648438 -487.8949737548828 197.0050048828125 -472.07398986816406 198.0 -463.2629852294922C199.15899658203125 -452.92298889160156 199.72900390625 -442.62998962402344 199.72900390625 -432.4239959716797C199.72900390625 -339.2069854736328 152.2030029296875 -253.27297973632812 72.23680114746094 -205.62599182128906C56.180999755859375 -196.052978515625 43.11700439453125 -191.32098388671875 30.0404052734375 -191.32098388671875C18.272308349609375 -191.32098388671875 6.4940032958984375 -195.15298461914062 -7.4842071533203125 -202.7369842529297C-10.51580810546875 -204.39498901367188 -11.368392944335938 -204.63198852539062 -14.021102905273438 -204.63198852539062H-17.052597045898438Z" fill="black" /></g></svg>