<?xml version="1.0" encoding="utf-8" ?>
<svg baseProfile="tiny" height="100%" version="1.2" width="100%" xmlns="http://www.w3.org/2000/svg" xmlns:ev="http://www.w3.org/2001/xml-events" xmlns:xlink="http://www.w3.org/1999/xlink"><defs /><g transform="translate(0, 1000) scale(1, -1)"><path d="M222.91600036621094 743.8740234375C224.68798828125 744.4420166015625 226.3809814453125 744.7260131835938 227.99598693847656 744.7260131835938C234.19699096679688 744.7260131835938 239.2539825439453 740.5339965820312 243.2369842529297 732.0789794921875C258.67298889160156 699.635986328125 266.4399871826172 663.0570068359375 266.4399871826172 625.7589721679688C266.4399871826172 594.4959716796875 260.9829864501953 562.72900390625 250.010986328125 532.468017578125L247.16798400878906 524.7470092773438L250.010986328125 517.3109741210938C261.0979919433594 488.3190002441406 266.5010070800781 457.75299072265625 266.5010070800781 426.9540100097656C266.5010070800781 358.6700134277344 239.94400024414062 289.24200439453125 189.89999389648438 233.28900146484375C179.47900390625 221.63699340820312 167.21099853515625 209.93699645996094 150.8679962158203 196.10499572753906C95.8262939453125 149.54200744628906 49.5 96.631591796875 15.868392944335938 41.92109680175781C9.852630615234375 32.1632080078125 0.7105255126953125 16.152603149414062 -0.7105255126953125 13.02630615234375C-2.9368438720703125 7.9105224609375 -8.526321411132812 3.7894744873046875 -13.12109375 3.7894744873046875H-15.15789794921875V101.55799865722656V199.2790069580078L-8.384201049804688 200.3209991455078C45.85261535644531 208.6110076904297 94.31051635742188 223.24700927734375 123.15800476074219 240.06301879882812C193.43601989746094 280.9770050048828 235.0740203857422 354.47801208496094 235.0740203857422 431.3310089111328C235.0740203857422 447.4600067138672 233.24002075195312 463.7360076904297 229.45301818847656 479.88902282714844L228.22100830078125 485.1000213623047L224.5740203857422 479.03700256347656C205.81600952148438 447.91600036621094 184.1680145263672 423.2370147705078 150.86801147460938 395.0530242919922C95.82630920410156 348.48902893066406 49.50001525878906 295.5790252685547 15.868408203125 240.86801147460938C9.852645874023438 231.1110076904297 0.710540771484375 215.1000213623047 -0.71051025390625 211.97401428222656C-2.93682861328125 206.85801696777344 -8.52630615234375 202.7370147705078 -13.121078491210938 202.7370147705078H-15.157882690429688V300.50502014160156V398.2260284423828L-8.384185791015625 399.2680206298828C45.852630615234375 407.5580291748047 94.31053161621094 422.1950225830078 123.15802001953125 439.01100158691406C194.19602966308594 480.3720245361328 235.2120361328125 555.1530303955078 235.2120361328125 630.7459869384766C235.2120361328125 659.6430206298828 229.21803283691406 688.6599884033203 216.61602783203125 715.9740142822266C212.8740234375 724.0260162353516 212.21102905273438 726.0630035400391 212.21102905273438 729.2370147705078C212.21102905273438 736.1530303955078 216.33203125 741.7890167236328 222.91603088378906 743.8740386962891Z" fill="black" /></g></svg>