<?xml version="1.0" encoding="utf-8" ?>
<svg baseProfile="tiny" height="100%" version="1.2" width="100%" xmlns="http://www.w3.org/2000/svg" xmlns:ev="http://www.w3.org/2001/xml-events" xmlns:xlink="http://www.w3.org/1999/xlink"><defs /><g transform="translate(0, 1000) scale(1, -1)"><path d="M-130.44700622558594 585.1420288085938C-128.9449920654297 585.3410034179688 -127.54399108886719 585.447998046875 -126.19297790527344 585.447998046875C-120.13298034667969 585.447998046875 -115.09599304199219 583.2869873046875 -106.57398986816406 577.5159912109375L-83.3157958984375 561.7890014648438L-36.42109680175781 530.052978515625L10.473709106445312 498.3160095214844L57.368408203125 466.5790100097656L104.26300048828125 434.8420104980469L151.1580047607422 403.1050109863281L198.05299377441406 371.3680114746094L244.23699951171875 340.1050109863281L290.3739929199219 308.8890075683594C310.8370056152344 295.010986328125 313.3949890136719 292.4049987792969 315.3370056152344 283.1679992675781C315.7340087890625 281.30499267578125 315.9219970703125 279.4779968261719 315.9219970703125 277.7019958496094C315.9219970703125 263.4230041503906 303.760009765625 252.468994140625 290.3039855957031 252.468994140625C285.8699951171875 252.468994140625 281.2950134277344 253.65899658203125 276.9679870605469 256.3110046386719C274.97900390625 257.5419921875 223.91600036621094 291.97900390625 200.89500427246094 307.6579895019531L154.71099853515625 338.9209899902344L107.81600952148438 370.6579895019531L61.868408203125 401.77899169921875L-24.34210205078125 460.0889892578125L-63.65789794921875 486.71099853515625L-110.31599426269531 518.2579956054688C-143.18898010253906 540.52099609375 -145.22598266601562 542.083984375 -148.2109832763672 547.10498046875C-150.5559844970703 551.1010131835938 -151.62998962402344 555.4569702148438 -151.62998962402344 559.7520141601562C-151.62998962402344 571.8519897460938 -143.1029815673828 583.4639892578125 -130.44699096679688 585.1420288085938Z" fill="black" /></g></svg>