<?xml version="1.0" encoding="utf-8" ?>
<svg baseProfile="tiny" height="100%" version="1.2" width="100%" xmlns="http://www.w3.org/2000/svg" xmlns:ev="http://www.w3.org/2001/xml-events" xmlns:xlink="http://www.w3.org/1999/xlink"><defs /><g transform="translate(0, 1000) scale(1, -1)"><path d="M-17.052597045898438 -115.81600952148438V-3.7894744873046875H-14.068389892578125C-6.6315765380859375 -3.78948974609375 -1.5157928466796875 -8.621063232421875 0.4263153076171875 -17.478912353515625C16.247406005859375 -89.81051635742188 62.952606201171875 -167.02101135253906 126.94699096679688 -226.4210205078125C197.88499450683594 -292.3040008544922 233.58799743652344 -382.1940155029297 233.58799743652344 -475.5500030517578C233.58799743652344 -563.2860260009766 202.0540008544922 -654.0839996337891 138.60000610351562 -730.8950347900391C127.75299072265625 -744.0630035400391 126.61599731445312 -744.8679962158203 119.60501098632812 -744.8679962158203C110.55799865722656 -744.8679962158203 104.44699096679688 -738.6160430908203 104.44699096679688 -729.4740142822266C104.4949951171875 -723.9790191650391 105.53700256347656 -721.8470001220703 112.73699951171875 -713.4160308837891C168.60000610351562 -647.4000396728516 196.88699340820312 -567.5500030517578 196.88699340820312 -491.5740203857422C196.88699340820312 -423.6280059814453 174.26400756835938 -358.78102111816406 128.51100158691406 -309.6950225830078C100.0889892578125 -279.1420135498047 49.87890625 -250.9110107421875 -16.436798095703125 -228.07901000976562C-16.910491943359375 -227.93701171875 -17.052597045898438 -205.05801391601562 -17.052597045898438 -115.81602478027344Z" fill="black" /></g></svg>