<?xml version="1.0" encoding="utf-8" ?>
<svg baseProfile="tiny" height="100%" version="1.2" width="100%" xmlns="http://www.w3.org/2000/svg" xmlns:ev="http://www.w3.org/2001/xml-events" xmlns:xlink="http://www.w3.org/1999/xlink"><defs /><g transform="translate(0, 1000) scale(1, -1)"><path d="M-17.052597045898438 -104.21099853515625V-3.789459228515625H-14.068389892578125C-7.057891845703125 -3.7894744873046875 -4.0263214111328125 -6.5842132568359375 1.989471435546875 -18.47369384765625C23.873703002929688 -61.62629699707031 71.62109375 -119.9840087890625 129.07899475097656 -173.88900756835938C191.1320037841797 -232.05799865722656 224.0050048828125 -302.77899169921875 231.7259979248047 -394.5790100097656C232.12899780273438 -399.48199462890625 232.3300018310547 -411.8089904785156 232.3300018310547 -424.1189880371094C232.3300018310547 -436.4289855957031 232.12899780273438 -448.72100830078125 231.7259979248047 -453.5530090332031C229.5469970703125 -478.989013671875 225.5679931640625 -503.47900390625 219.88400268554688 -525.7420043945312L217.56300354003906 -534.8839721679688L218.6999969482422 -538.7680053710938C224.99998474121094 -560.2260131835938 229.45298767089844 -585.6160278320312 231.72598266601562 -612.4739990234375C232.1289825439453 -617.3759765625 232.32998657226562 -629.7039794921875 232.32998657226562 -642.0139770507812C232.32998657226562 -654.323974609375 232.1289825439453 -666.6160278320312 231.72598266601562 -671.447021484375C229.54698181152344 -696.8839721679688 225.56797790527344 -721.3740234375 219.8839874267578 -743.6370239257812L217.56298828125 -752.7789916992188L218.69998168945312 -756.6630249023438C224.99996948242188 -778.1209716796875 229.45297241210938 -803.510986328125 231.72596740722656 -830.3679809570312C232.12896728515625 -835.27099609375 232.32997131347656 -847.5989990234375 232.32997131347656 -859.9089965820312C232.32997131347656 -872.218017578125 232.12896728515625 -884.510986328125 231.72596740722656 -889.3419799804688C225.37896728515625 -963.4739990234375 199.2789764404297 -1040.02001953125 160.19996643066406 -1099.0400390625C157.5459747314453 -1103.050048828125 153.09596252441406 -1104.9599609375 148.53497314453125 -1104.9599609375C142.75596618652344 -1104.9599609375 136.7999725341797 -1101.9000244140625 134.0999755859375 -1096.1500244140625C133.0969696044922 -1094.0 132.54397583007812 -1092.1199951171875 132.54397583007812 -1090.0799560546875C132.54397583007812 -1086.050048828125 134.70497131347656 -1081.4000244140625 139.83197021484375 -1072.8499755859375C177.34396362304688 -1010.6699829101562 196.9959716796875 -942.6849975585938 196.9959716796875 -876.9229736328125C196.9959716796875 -861.968994140625 195.97996520996094 -847.1290283203125 193.92596435546875 -832.5C182.55796813964844 -751.5469970703125 140.49496459960938 -684.5679931640625 81.75787353515625 -653.8740234375C64.27867126464844 -644.7340087890625 37.80216979980469 -640.3729858398438 0.0446624755859375 -640.3729858398438L-0.568450927734375 -640.3740234375L-17.052627563476562 -640.4210205078125V-540.0V-439.5790100097656H-14.06842041015625C-7.05792236328125 -439.5790100097656 -4.0263519287109375 -442.3739929199219 1.98944091796875 -454.26300048828125C23.873672485351562 -497.4159851074219 71.66836547851562 -555.8679809570312 129.07896423339844 -609.6790161132812C157.45297241210938 -636.2529907226562 174.5999755859375 -658.0889892578125 191.3209686279297 -688.9739990234375C193.27996826171875 -692.6690063476562 194.9459686279297 -695.4019775390625 195.13897705078125 -695.4019775390625C195.15196228027344 -695.4019775390625 195.15797424316406 -695.3909912109375 195.15797424316406 -695.3679809570312C195.15797424316406 -694.9420166015625 195.53697204589844 -690.916015625 195.9629669189453 -686.3679809570312C196.6179656982422 -679.4719848632812 196.93296813964844 -671.156005859375 196.93296813964844 -662.3350219726562C196.93296813964844 -646.2529907226562 195.88397216796875 -628.4929809570312 193.92596435546875 -614.60498046875C182.55796813964844 -533.6530151367188 140.49496459960938 -466.67401123046875 81.75787353515625 -435.97900390625C64.27867126464844 -426.8389892578125 37.80216979980469 -422.47900390625 0.0446624755859375 -422.47900390625H-0.568450927734375L-17.052627563476562 -422.5260009765625V-322.1050109863281V-221.6840057373047H-14.06842041015625C-7.05792236328125 -221.68399047851562 -4.0263519287109375 -224.47898864746094 1.98944091796875 -236.36798095703125C23.873672485351562 -279.52098083496094 71.66836547851562 -337.97398376464844 129.07896423339844 -391.7839813232422C157.45297241210938 -418.3579864501953 174.5999755859375 -440.1949920654297 191.3209686279297 -471.07899475097656C193.27996826171875 -474.7749786376953 194.9459686279297 -477.5079803466797 195.13897705078125 -477.5079803466797C195.15196228027344 -477.5079803466797 195.15797424316406 -477.49598693847656 195.15797424316406 -477.47398376464844C195.15797424316406 -477.04698181152344 195.53697204589844 -473.02098083496094 195.9629669189453 -468.47398376464844C196.6179656982422 -461.57798767089844 196.93296813964844 -453.26097106933594 196.93296813964844 -444.4399871826172C196.93296813964844 -428.3579864501953 195.88397216796875 -410.5979766845703 193.92596435546875 -396.7109832763672C182.55796813964844 -315.7579803466797 140.49496459960938 -248.77899169921875 81.75787353515625 -218.083984375C64.27867126464844 -208.94398498535156 37.80216979980469 -204.583984375 0.0446624755859375 -204.583984375H-0.568450927734375L-17.052627563476562 -204.63198852539062Z" fill="black" /></g></svg>