<?xml version="1.0" encoding="utf-8" ?>
<svg baseProfile="tiny" height="100%" version="1.2" width="100%" xmlns="http://www.w3.org/2000/svg" xmlns:ev="http://www.w3.org/2001/xml-events" xmlns:xlink="http://www.w3.org/1999/xlink"><defs /><g transform="translate(0, 1000) scale(1, -1)"><path d="M191.1320037841797 1119.219970703125C192.7939910888672 1119.6400146484375 194.26898193359375 1119.8800048828125 195.6899871826172 1119.8800048828125C200.34397888183594 1119.8800048828125 204.41297912597656 1117.31005859375 212.5419921875 1110.1300048828125C250.5789794921875 1076.6600341796875 270.6749725341797 1026.9100341796875 270.6749725341797 974.8469848632812C270.6749725341797 943.2059936523438 263.2529754638672 910.7080078125 247.9259796142578 880.4840087890625L244.13697814941406 873.0469970703125L245.22598266601562 871.2470092773438C262.1899719238281 843.7050170898438 270.7009582519531 810.6320190429688 270.7009582519531 776.5980224609375C270.7009582519531 744.4879760742188 263.1259765625 711.52197265625 247.92596435546875 681.5369873046875L244.136962890625 674.0999755859375L245.22596740722656 672.2999877929688C262.18995666503906 644.7579956054688 270.70094299316406 611.6849975585938 270.70094299316406 577.6500244140625C270.70094299316406 545.541015625 263.12596130371094 512.5750122070312 247.9259490966797 482.5889892578125L244.13694763183594 475.15301513671875L245.2259521484375 473.3529968261719C262.074951171875 445.9939880371094 270.6339416503906 412.4079895019531 270.6339416503906 377.98699951171875C270.6339416503906 350.6659851074219 265.241943359375 322.8190002441406 254.32093811035156 297.1419982910156C237.31593322753906 257.1159973144531 209.9369354248047 224.47900390625 170.762939453125 197.5260009765625C89.6683349609375 141.6790008544922 20.794647216796875 67.97369384765625 -0.4263763427734375 14.35260009765625C-2.8895263671875 8.242111206054688 -7.3895263671875 4.4052581787109375 -12.83685302734375 3.88421630859375L-15.157958984375 3.647369384765625V97.76840209960938V191.8419952392578H-12.363265991210938C15.4420166015625 191.84201049804688 71.09992980957031 201.07901000976562 98.47882080078125 210.2680206298828C180.0519256591797 237.60202026367188 234.61192321777344 312.9140167236328 234.61192321777344 387.7150115966797C234.61192321777344 403.91200256347656 232.05392456054688 420.0850067138672 226.65792846679688 435.7420196533203C224.78692626953125 441.1690216064453 224.1769256591797 443.4750213623047 223.19692993164062 443.4750213623047C222.4149169921875 443.4750213623047 221.3969268798828 442.0070037841797 219.31591796875 439.48402404785156C207.37892150878906 425.0840301513672 190.18392944335938 409.83201599121094 170.76292419433594 396.47401428222656C89.66831970214844 340.6260223388672 20.794631958007812 266.92100524902344 -0.4263916015625 213.30001831054688C-2.8895416259765625 207.1890106201172 -7.3895416259765625 203.35301208496094 -12.836868286132812 202.83201599121094L-15.157974243164062 202.5950164794922V296.7160186767578V390.7890167236328H-12.36328125C15.442001342773438 390.7890167236328 71.09991455078125 400.02601623535156 98.47880554199219 409.2160186767578C180.05191040039062 436.5500030517578 234.61190795898438 511.8610076904297 234.61190795898438 586.6620025634766C234.61190795898438 602.8600006103516 232.0539093017578 619.0330352783203 226.6579132080078 634.6890411376953C224.7869110107422 640.1170196533203 224.17691040039062 642.4229888916016 223.19691467285156 642.4229888916016C222.41490173339844 642.4229888916016 221.39691162109375 640.9539947509766 219.31590270996094 638.4320220947266C207.37890625 624.0319976806641 190.1839141845703 608.7790069580078 170.76290893554688 595.4210357666016C89.66830444335938 539.5739898681641 20.79461669921875 465.86802673339844 -0.4264068603515625 412.2470245361328C-2.889556884765625 406.1370086669922 -7.389556884765625 402.3000030517578 -12.836883544921875 401.7790069580078L-15.157989501953125 401.54200744628906V495.6630096435547V589.7370147705078H-12.363296508789062C15.441986083984375 589.7370147705078 71.09989929199219 598.9740142822266 98.47879028320312 608.1630401611328C180.05189514160156 635.4970245361328 234.6118927001953 710.8090362548828 234.6118927001953 785.6100006103516C234.6118927001953 801.8070220947266 232.05389404296875 817.9799957275391 226.65789794921875 833.6370391845703C224.78689575195312 839.0640411376953 224.17689514160156 841.3700103759766 223.1968994140625 841.3700103759766C222.41488647460938 841.3700103759766 221.3968963623047 839.9019927978516 219.31588745117188 837.3790435791016C207.37889099121094 822.9790191650391 190.18389892578125 807.7260284423828 170.7628936767578 794.3679962158203C89.66828918457031 738.5210113525391 20.794601440429688 664.8159942626953 -0.426422119140625 611.1950225830078C-2.8895721435546875 605.0839996337891 -7.3895721435546875 601.2470245361328 -12.836898803710938 600.7260284423828L-15.158004760742188 600.4890289306641V694.6110382080078V788.6840362548828H-12.363311767578125C9.757766723632812 788.6840362548828 58.547271728515625 795.8369903564453 84.315673828125 802.8950347900391C158.11587524414062 823.0739898681641 213.7258758544922 878.0210113525391 230.21087646484375 947.1320343017578C233.08187866210938 959.1259918212891 234.4668731689453 971.3339996337891 234.4668731689453 983.4099884033203C234.4668731689453 1025.3199615478516 217.78187561035156 1065.6400299072266 188.62088012695312 1089.949966430664C182.3208770751953 1095.250015258789 179.9998779296875 1099.040054321289 179.9998779296875 1104.250015258789C179.9998779296875 1110.979995727539 184.92587280273438 1117.6100006103516 191.1318817138672 1119.219985961914Z" fill="black" /></g></svg>