<?xml version="1.0" encoding="utf-8" ?>
<svg baseProfile="tiny" height="100%" version="1.2" width="100%" xmlns="http://www.w3.org/2000/svg" xmlns:ev="http://www.w3.org/2001/xml-events" xmlns:xlink="http://www.w3.org/1999/xlink"><defs /><g transform="translate(0, 1000) scale(1, -1)"><path d="M-17.052597045898438 -95.63681030273438V-3.7894744873046875H-14.068389892578125C-8.242111206054688 -3.78948974609375 -2.605255126953125 -7.8631744384765625 -0.4736785888671875 -13.68951416015625C10.468399047851562 -43.152618408203125 55.989501953125 -103.21601867675781 105.63200378417969 -153.7110137939453C144.89999389648438 -193.6890106201172 169.1529998779297 -226.84701538085938 190.7050018310547 -270.00001525878906C217.34800720214844 -323.34300231933594 230.9320068359375 -380.5130157470703 230.9320068359375 -435.71900939941406C230.9320068359375 -469.73402404785156 225.77499389648438 -503.00401306152344 215.33700561523438 -534.1740264892578C213.97300720214844 -538.2180328369141 212.9149932861328 -541.6090240478516 212.9149932861328 -541.9610137939453C212.9149932861328 -541.9760284423828 212.91700744628906 -541.9860382080078 212.92100524902344 -541.9890289306641C213.01600646972656 -542.0839996337891 214.1999969482422 -545.7790069580078 215.5260009765625 -550.1370391845703C225.7519989013672 -584.0730133056641 230.8679962158203 -619.0570220947266 230.8679962158203 -653.2400054931641C230.8679962158203 -687.6209869384766 225.6929931640625 -721.1900177001953 215.33700561523438 -752.0680084228516C213.97300720214844 -756.1129913330078 212.9149932861328 -759.5040435791016 212.9149932861328 -759.8560333251953C212.9149932861328 -759.8709869384766 212.91700744628906 -759.8800201416016 212.92100524902344 -759.8839874267578C213.01600646972656 -759.9790191650391 214.1999969482422 -763.6740264892578 215.5260009765625 -768.0319976806641C225.7519989013672 -801.9680328369141 230.8679962158203 -836.9520416259766 230.8679962158203 -871.1350250244141C230.8679962158203 -905.5150299072266 225.6929931640625 -939.0850372314453 215.33700561523438 -969.9630279541016C213.97300720214844 -974.0080108642578 212.9149932861328 -977.3980255126953 212.9149932861328 -977.7509918212891C212.9149932861328 -977.7660064697266 212.91700744628906 -977.7750396728516 212.92100524902344 -977.7790069580078C213.01600646972656 -977.8740386962891 214.1999969482422 -981.5680084228516 215.5260009765625 -985.9260406494141C225.7519989013672 -1019.8600006103516 230.8679962158203 -1054.8499908447266 230.8679962158203 -1089.030044555664C230.8679962158203 -1123.4100494384766 225.6929931640625 -1156.979995727539 215.33700561523438 -1187.8600006103516C213.97300720214844 -1191.9000396728516 212.9149932861328 -1195.290054321289 212.9149932861328 -1195.6500396728516C212.9149932861328 -1195.6600494384766 212.91700744628906 -1195.6700592041016 212.92100524902344 -1195.6700592041016C213.01600646972656 -1195.770034790039 214.1999969482422 -1199.459976196289 215.5260009765625 -1203.8199615478516C225.84100341796875 -1238.030044555664 230.9040069580078 -1272.8800201416016 230.9040069580078 -1306.770034790039C230.9040069580078 -1366.8900299072266 214.97500610351562 -1424.000015258789 184.16799926757812 -1469.1300201416016C175.78399658203125 -1481.449966430664 174.07899475097656 -1483.6300201416016 171.9949951171875 -1485.050064086914C169.1719970703125 -1486.9200592041016 166.13099670410156 -1487.780044555664 163.19000244140625 -1487.780044555664C155.52099609375 -1487.780044555664 148.53500366210938 -1481.939956665039 147.88400268554688 -1473.1100006103516C147.8470001220703 -1472.5799713134766 147.8260040283203 -1472.0799713134766 147.8260040283203 -1471.5999908447266C147.8260040283203 -1467.8299713134766 149.0749969482422 -1465.1300201416016 153.18899536132812 -1459.4200592041016C183.9340057373047 -1416.5999908447266 198.9409942626953 -1366.4300689697266 198.9409942626953 -1315.300064086914C198.9409942626953 -1243.9300689697266 169.70199584960938 -1170.699966430664 113.21099853515625 -1112.969985961914C85.35791015625 -1084.500015258789 43.721099853515625 -1066.260025024414 -6.8684234619140625 -1060.3399810791016C-10.231597900390625 -1059.959976196289 -13.926300048828125 -1059.540054321289 -15.01580810546875 -1059.3499908447266L-17.0526123046875 -1059.1100006103516V-967.2160186767578V-875.3679962158203H-14.068405151367188C-8.24212646484375 -875.3679962158203 -2.6052703857421875 -879.4420318603516 -0.47369384765625 -885.2680206298828C10.4683837890625 -914.7320098876953 55.98948669433594 -974.7949981689453 105.63198852539062 -1025.290054321289C144.3789825439453 -1064.750015258789 168.5369873046875 -1097.6200103759766 189.8999786376953 -1139.969985961914C192.22499084472656 -1144.530044555664 194.1389923095703 -1148.209976196289 194.208984375 -1148.209976196289H194.2109832763672C194.2109832763672 -1148.0699615478516 194.82598876953125 -1144.229995727539 195.583984375 -1139.6800689697266C197.88497924804688 -1125.959976196289 199.0129852294922 -1112.060073852539 199.0129852294922 -1098.1200103759766C199.0129852294922 -1025.3600006103516 168.30398559570312 -951.3590240478516 113.21098327636719 -895.0739898681641C85.35789489746094 -866.6049957275391 43.72108459472656 -848.3679962158203 -6.868438720703125 -842.4470367431641C-10.231613159179688 -842.0680084228516 -13.926315307617188 -841.6420440673828 -15.015823364257812 -841.4530181884766L-17.052627563476562 -841.2160186767578V-749.3209991455078V-657.4740142822266H-14.06842041015625C-8.242141723632812 -657.4740142822266 -2.60528564453125 -661.5470123291016 -0.4737091064453125 -667.3740386962891C10.468368530273438 -696.8369903564453 55.989471435546875 -756.9000396728516 105.63197326660156 -807.3950347900391C144.37896728515625 -846.8530426025391 168.53697204589844 -879.7260284423828 189.89996337890625 -922.0739898681641C192.2249755859375 -926.6300201416016 194.13897705078125 -930.3200225830078 194.20896911621094 -930.3200225830078L194.21096801757812 -930.3159942626953C194.21096801757812 -930.1740264892578 194.8259735107422 -926.3369903564453 195.58396911621094 -921.7890167236328C197.8849639892578 -908.0680084228516 199.01296997070312 -894.1680450439453 199.01296997070312 -880.2220001220703C199.01296997070312 -807.4619903564453 168.30397033691406 -733.4650421142578 113.21096801757812 -677.1790313720703C85.35787963867188 -648.7110137939453 43.7210693359375 -630.4740142822266 -6.8684539794921875 -624.5529937744141C-10.23162841796875 -624.1740264892578 -13.92633056640625 -623.7470245361328 -15.015838623046875 -623.5579986572266L-17.052642822265625 -623.3209991455078V-531.4260406494141V-439.5790252685547H-14.068435668945312C-8.242156982421875 -439.5790252685547 -2.6053009033203125 -443.6530303955078 -0.473724365234375 -449.47901916503906C10.468353271484375 -478.94200134277344 55.98945617675781 -539.0050201416016 105.6319580078125 -589.5000152587891C144.3789520263672 -628.9580230712891 168.53695678710938 -661.8319854736328 189.8999481201172 -704.1790313720703C192.22496032714844 -708.7360382080078 194.1389617919922 -712.4250030517578 194.20895385742188 -712.4250030517578L194.21095275878906 -712.4210357666016C194.21095275878906 -712.2790069580078 194.82595825195312 -708.4420318603516 195.58395385742188 -703.8950347900391C197.88494873046875 -690.1729888916016 199.01295471191406 -676.2730255126953 199.01295471191406 -662.3280181884766C199.01295471191406 -589.5680084228516 168.303955078125 -515.5700225830078 113.21095275878906 -459.2840118408203C85.35786437988281 -430.81602478027344 43.72105407714844 -412.5790252685547 -6.86846923828125 -406.6580047607422C-10.231643676757812 -406.2790069580078 -13.926345825195312 -405.85301208496094 -15.015853881835938 -405.6630096435547L-17.052658081054688 -405.42601013183594V-313.5320281982422V-221.68402099609375H-14.068450927734375C-8.242172241210938 -221.6840057373047 -2.605316162109375 -225.75799560546875 -0.4737396240234375 -231.58399963378906C10.468338012695312 -261.0469970703125 55.98944091796875 -321.1109924316406 105.63194274902344 -371.6050109863281C144.37893676757812 -411.06298828125 168.5369415283203 -443.93701171875 189.89993286132812 -486.28399658203125C192.22494506835938 -490.84100341796875 194.13894653320312 -494.5299987792969 194.2089385986328 -494.5299987792969L194.2109375 -494.5260009765625C194.2109375 -494.3840026855469 194.82594299316406 -490.5469970703125 195.5839385986328 -486.0C197.8849334716797 -472.27899169921875 199.012939453125 -458.3789978027344 199.012939453125 -444.4330139160156C199.012939453125 -371.6730041503906 168.30393981933594 -297.67498779296875 113.2109375 -241.38900756835938C85.35784912109375 -212.92100524902344 43.721038818359375 -194.6840057373047 -6.8684844970703125 -188.76300048828125C-10.231658935546875 -188.38400268554688 -13.926361083984375 -187.95799255371094 -15.015869140625 -187.76800537109375L-17.05267333984375 -187.53199768066406Z" fill="black" /></g></svg>