<?xml version="1.0" encoding="utf-8" ?>
<svg baseProfile="tiny" height="100%" version="1.2" width="100%" xmlns="http://www.w3.org/2000/svg" xmlns:ev="http://www.w3.org/2001/xml-events" xmlns:xlink="http://www.w3.org/1999/xlink"><defs /><g transform="translate(0, 1000) scale(1, -1)"><path d="M169.7209930419922 743.7319946289062C171.7589874267578 744.4409790039062 173.59898376464844 744.8209838867188 175.3309783935547 744.8209838867188C180.8839874267578 744.8209838867188 185.32199096679688 740.9119873046875 191.60498046875 731.416015625C243.3199920654297 653.1329956054688 270.8199920654297 564.1890258789062 270.8199920654297 477.2229919433594C270.8199920654297 462.7860107421875 270.06297302246094 448.4020080566406 268.53199768066406 434.1319885253906C259.8159942626953 352.4679870605469 224.47898864746094 277.76800537109375 171.7579803466797 229.35800170898438C114.82098388671875 177.1580047607422 76.54737854003906 135.14199829101562 42.20527648925781 87.20529174804688C23.589492797851562 61.247406005859375 5.0210418701171875 29.17889404296875 -0.663177490234375 13.16839599609375C-2.415802001953125 8.336837768554688 -8.478958129882812 3.7894744873046875 -13.121109008789062 3.7894744873046875H-15.157913208007812V115.81600952148438V227.84201049804688H-11.70001220703125C8.38421630859375 227.84202575683594 46.563201904296875 234.75802612304688 71.28948974609375 242.81103515625C167.73800659179688 274.3490295410156 232.12899780273438 380.20703125 232.12899780273438 501.37603759765625C232.12899780273438 511.78204345703125 231.6540069580078 522.3000183105469 230.6840057373047 532.8950500488281C224.90499877929688 595.8000183105469 201.69500732421875 660.6950378417969 165.64700317382812 714.5050354003906C161.4320068359375 720.8080139160156 159.343994140625 726.3710021972656 159.343994140625 730.9910583496094C159.343994140625 736.9610290527344 162.83099365234375 741.3550109863281 169.7209930419922 743.7320251464844Z" fill="black" /></g></svg>