<?xml version="1.0" encoding="utf-8" ?>
<svg baseProfile="tiny" height="100%" version="1.2" width="100%" xmlns="http://www.w3.org/2000/svg" xmlns:ev="http://www.w3.org/2001/xml-events" xmlns:xlink="http://www.w3.org/1999/xlink"><defs /><g transform="translate(0, 1000) scale(1, -1)"><path d="M-17.052597045898438 -105.11099243164062V-3.789459228515625H-14.068389892578125C-8.43157958984375 -3.7894744873046875 -2.605255126953125 -7.8631591796875 -0.6631622314453125 -13.16839599609375C5.6368408203125 -30.363204956054688 23.921096801757812 -61.48419189453125 43.34210205078125 -88.10530090332031C69.96319580078125 -124.67401123046875 99.47369384765625 -157.40499877929688 144.4739990234375 -200.46299743652344C202.68099975585938 -256.0849914550781 233.58599853515625 -331.35400390625 233.58599853515625 -410.7030029296875C233.58599853515625 -444.7449951171875 227.8979949951172 -479.5379943847656 216.23699951171875 -513.85302734375L213.6790008544922 -521.4320068359375L216.52099609375 -529.3889770507812C227.96600341796875 -561.406005859375 233.5749969482422 -595.0479736328125 233.5749969482422 -628.8579711914062C233.5749969482422 -693.8400268554688 212.8560028076172 -759.4400024414062 173.03700256347656 -815.3049926757812C168.53700256347656 -821.6530151367188 165.74200439453125 -825.2050170898438 154.51600646972656 -839.1320190429688C150.05299377441406 -844.6630249023438 144.52999877929688 -847.4119873046875 139.43499755859375 -847.4119873046875C134.14599609375 -847.4119873046875 129.3179931640625 -844.4500122070312 126.61599731445312 -838.56298828125C125.52899169921875 -836.1929931640625 124.94699096679688 -834.0540161132812 124.94699096679688 -831.9010009765625C124.94699096679688 -827.2969970703125 127.60600280761719 -822.6270141601562 133.6739959716797 -815.4949951171875C175.0489959716797 -766.8579711914062 198.85699462890625 -702.9869995117188 198.85699462890625 -641.1580200195312C198.85699462890625 -638.8569946289062 198.82400512695312 -636.5579833984375 198.75799560546875 -634.2630004882812C198.28399658203125 -617.4000244140625 195.6790008544922 -595.56298828125 193.0260009765625 -586.1840209960938C192.64700317382812 -584.8579711914062 191.46299743652344 -580.5 190.42100524902344 -576.4739990234375C177.1580047607422 -526.073974609375 146.08399963378906 -480.6000061035156 105.39498901367188 -452.1319885253906C83.22630310058594 -436.5950012207031 35.66839599609375 -424.9419860839844 -5.4473724365234375 -424.8949890136719C-9.094741821289062 -424.8949890136719 -13.215805053710938 -424.75299072265625 -14.542098999023438 -424.6109924316406L-17.052597045898438 -424.27899169921875V-323.0050048828125V-221.6840057373047H-14.068389892578125C-8.43157958984375 -221.68399047851562 -2.605255126953125 -225.7579803466797 -0.6631622314453125 -231.06298828125C5.6368408203125 -248.2579803466797 23.921096801757812 -279.3789825439453 43.34210205078125 -305.99998474121094C69.868408203125 -342.3789825439453 100.42098999023438 -376.3419952392578 143.9530029296875 -417.7889862060547C163.08900451660156 -436.02598571777344 180.33200073242188 -457.1999969482422 191.1320037841797 -475.7209930419922C191.78199768066406 -476.83497619628906 192.19900512695312 -477.49098205566406 192.5399932861328 -477.49098205566406C193.0679931640625 -477.49098205566406 193.41400146484375 -475.9139862060547 194.16299438476562 -472.02598571777344C197.25 -455.95899963378906 198.79100036621094 -439.41798400878906 198.79100036621094 -422.8309783935547C198.79100036621094 -407.0959930419922 197.4040069580078 -391.31898498535156 194.63699340820312 -375.8679962158203C194.11599731445312 -372.97898864746094 193.40499877929688 -369.56797790527344 193.0260009765625 -368.2889862060547C192.64700317382812 -366.96299743652344 191.46299743652344 -362.60499572753906 190.42100524902344 -358.57899475097656C177.1580047607422 -308.17897033691406 146.08399963378906 -262.70497131347656 105.39498901367188 -234.2369842529297C83.22630310058594 -218.69998168945312 35.66839599609375 -207.04698181152344 -5.4473724365234375 -206.99998474121094C-9.094741821289062 -206.99998474121094 -13.215805053710938 -206.8579864501953 -14.542098999023438 -206.7159881591797L-17.052597045898438 -206.3839874267578Z" fill="black" /></g></svg>