<?xml version="1.0" encoding="utf-8" ?>
<svg baseProfile="tiny" height="100%" version="1.2" width="100%" xmlns="http://www.w3.org/2000/svg" xmlns:ev="http://www.w3.org/2001/xml-events" xmlns:xlink="http://www.w3.org/1999/xlink"><defs /><g transform="translate(0, 1000) scale(1, -1)"><path d="M203.8260040283203 1369.0400390625C205.6950225830078 1369.7099609375 207.43601989746094 1370.06005859375 209.1070098876953 1370.06005859375C214.55201721191406 1370.06005859375 219.25601196289062 1366.3599853515625 225.2370147705078 1357.9100341796875C255.0980224609375 1315.68994140625 270.4490203857422 1266.010009765625 270.4490203857422 1215.8299560546875C270.4490203857422 1184.8299560546875 264.5860137939453 1153.6400146484375 252.6630096435547 1123.9100341796875L249.63201904296875 1116.3800048828125L252.90000915527344 1108.22998046875C264.58201599121094 1079.0400390625 270.42100524902344 1048.0400390625 270.42100524902344 1017.02001953125C270.42100524902344 985.7670288085938 264.49900817871094 954.4829711914062 252.6630096435547 924.9630126953125L249.63201904296875 917.4320068359375L252.90000915527344 909.2839965820312C264.58201599121094 880.0900268554688 270.42100524902344 849.0969848632812 270.42100524902344 818.0679931640625C270.42100524902344 786.8200073242188 264.49900817871094 755.5349731445312 252.6630096435547 726.0159912109375L249.63201904296875 718.4840087890625L252.90000915527344 710.3369750976562C264.58201599121094 681.1430053710938 270.42100524902344 650.1500244140625 270.42100524902344 619.1209716796875C270.42100524902344 587.8720092773438 264.49900817871094 556.5880126953125 252.6630096435547 527.0679931640625L249.63201904296875 519.5369873046875L252.90000915527344 511.3890075683594C264.6640167236328 481.9960021972656 270.4140167236328 451.0899963378906 270.4140167236328 420.3219909667969C270.4140167236328 363.6239929199219 250.88902282714844 307.3909912109375 213.489013671875 261.9469909667969C203.40000915527344 249.6790008544922 191.74700927734375 238.21600341796875 176.2110137939453 225.18899536132812C112.54701232910156 171.89999389648438 56.84211730957031 110.79499816894531 22.500015258789062 56.60530090332031C11.605316162109375 39.45790100097656 2.7473907470703125 22.83160400390625 -0.66314697265625 13.16839599609375C-2.415771484375 8.336837768554688 -8.478927612304688 3.7894744873046875 -13.168380737304688 3.7894744873046875H-15.157882690429688L-15.063186645507812 96.01580810546875L-14.92108154296875 188.24200439453125L-9.947357177734375 189.28399658203125C13.405303955078125 194.21099853515625 46.42109680175781 205.10499572753906 72.71051025390625 216.5679931640625C76.87890625 218.41600036621094 81.14208984375 220.26300048828125 82.1842041015625 220.68899536132812C91.13681030273438 224.62100219726562 115.81600952148438 236.93699645996094 123.39498901367188 241.3419952392578C194.14999389648438 282.3330078125 235.8459930419922 354.33099365234375 235.8459930419922 429.91900634765625C235.8459930419922 444.9110107421875 234.2050018310547 460.04400634765625 230.8260040283203 475.1050109863281C229.8820037841797 479.2869873046875 229.53700256347656 481.0409851074219 228.90699768066406 481.0409851074219C228.4320068359375 481.0409851074219 227.79299926757812 480.03900146484375 226.61099243164062 478.32598876953125C213.53700256347656 459.0950012207031 198.61599731445312 443.0369873046875 177.1580047607422 424.989013671875C104.96800231933594 364.26300048828125 46.65789794921875 298.5159912109375 12.931594848632812 239.7790069580078C6.6315765380859375 228.74200439453125 1.61053466796875 218.6529998779297 -0.6631622314453125 212.11599731445312C-2.4157867431640625 207.28399658203125 -8.47894287109375 202.73699951171875 -13.16839599609375 202.73699951171875H-15.15789794921875L-15.063201904296875 294.9630126953125L-14.921096801757812 387.1889953613281L-9.947372436523438 388.23199462890625C13.405288696289062 393.1579895019531 46.42108154296875 404.0530090332031 72.71049499511719 415.5159912109375C76.87889099121094 417.3630065917969 81.14207458496094 419.21099853515625 82.18418884277344 419.6369934082031C91.13679504394531 423.5679931640625 115.81599426269531 435.8840026855469 123.39497375488281 440.28900146484375C194.1499786376953 481.2799987792969 235.84597778320312 553.2780151367188 235.84597778320312 628.8660278320312C235.84597778320312 643.8579711914062 234.20498657226562 658.9920043945312 230.82598876953125 674.052978515625C229.88198852539062 678.2340087890625 229.5369873046875 679.9879760742188 228.906982421875 679.9879760742188C228.43199157714844 679.9879760742188 227.79298400878906 678.9860229492188 226.61097717285156 677.2739868164062C213.5369873046875 658.0419921875 198.61598205566406 641.9840087890625 177.15798950195312 623.93701171875C104.96798706054688 563.2109985351562 46.65788269042969 497.4630126953125 12.93157958984375 438.72601318359375C6.631561279296875 427.6889953613281 1.6105194091796875 417.6000061035156 -0.663177490234375 411.06298828125C-2.415802001953125 406.23199462890625 -8.478958129882812 401.6839904785156 -13.168411254882812 401.6839904785156H-15.157913208007812L-15.063217163085938 493.9110107421875L-14.921112060546875 586.1370239257812L-9.9473876953125 587.1790161132812C13.4052734375 592.10498046875 46.42106628417969 603.0 72.71047973632812 614.4630126953125C76.87887573242188 616.3109741210938 81.14205932617188 618.1580200195312 82.18417358398438 618.583984375C91.13677978515625 622.5159912109375 115.81597900390625 634.8319702148438 123.39495849609375 639.2369995117188C194.14996337890625 680.22802734375 235.84596252441406 752.2249755859375 235.84596252441406 827.8140258789062C235.84596252441406 842.8060302734375 234.20497131347656 857.9390258789062 230.8259735107422 873.0C229.88197326660156 877.1820068359375 229.53697204589844 878.9359741210938 228.90696716308594 878.9359741210938C228.43197631835938 878.9359741210938 227.79296875 877.9340209960938 226.6109619140625 876.2210083007812C213.53697204589844 856.989013671875 198.615966796875 840.9320068359375 177.15797424316406 822.8839721679688C104.96797180175781 762.1580200195312 46.657867431640625 696.4110107421875 12.931564331054688 637.6740112304688C6.6315460205078125 626.6370239257812 1.610504150390625 616.5469970703125 -0.6631927490234375 610.010986328125C-2.4158172607421875 605.1790161132812 -8.478973388671875 600.6320190429688 -13.168426513671875 600.6320190429688H-15.157928466796875L-15.063232421875 692.8579711914062L-14.921127319335938 785.083984375L-9.947402954101562 786.1259765625C13.405258178710938 791.052978515625 46.421051025390625 801.947021484375 72.71046447753906 813.4110107421875C76.87886047363281 815.2579956054688 81.14204406738281 817.10498046875 82.18415832519531 817.531982421875C91.13676452636719 821.4630126953125 115.81596374511719 833.7789916992188 123.39494323730469 838.1840209960938C194.1499481201172 879.1749877929688 235.845947265625 951.1729736328125 235.845947265625 1026.760009765625C235.845947265625 1041.75 234.2049560546875 1056.8900146484375 230.82595825195312 1071.949951171875C229.8819580078125 1076.1300048828125 229.53695678710938 1077.8800048828125 228.90695190429688 1077.8800048828125C228.4319610595703 1077.8800048828125 227.79295349121094 1076.8800048828125 226.61094665527344 1075.1700439453125C213.53695678710938 1055.93994140625 198.61595153808594 1039.8800048828125 177.157958984375 1021.8300170898438C104.96795654296875 961.10498046875 46.65785217285156 895.3579711914062 12.931549072265625 836.6209716796875C6.63153076171875 825.583984375 1.6104888916015625 815.4949951171875 -0.6632080078125 808.9580078125C-2.41583251953125 804.1259765625 -8.478988647460938 799.5789794921875 -13.168441772460938 799.5789794921875H-15.157943725585938L-15.063247680664062 891.8049926757812L-14.921142578125 984.031982421875L-9.947418212890625 985.073974609375C13.405242919921875 990.0 46.42103576660156 1000.8900146484375 72.71044921875 1012.3599853515625C76.87884521484375 1014.2100219726562 81.14202880859375 1016.0499877929688 82.18414306640625 1016.47998046875C127.70494079589844 1036.280029296875 158.63693237304688 1057.780029296875 184.07394409179688 1087.43994140625C218.28494262695312 1127.300048828125 235.71994018554688 1177.1099853515625 235.71994018554688 1226.239990234375C235.71994018554688 1266.9000244140625 223.7769317626953 1307.0899658203125 199.5159454345703 1340.760009765625C195.42593383789062 1346.449951171875 193.4019317626953 1351.6800537109375 193.4019317626953 1356.1500244140625C193.4019317626953 1362.02001953125 196.90794372558594 1366.5699462890625 203.82594299316406 1369.0400390625Z" fill="black" /></g></svg>