<?xml version="1.0" encoding="utf-8" ?>
<svg baseProfile="tiny" height="100%" version="1.2" width="100%" xmlns="http://www.w3.org/2000/svg" xmlns:ev="http://www.w3.org/2001/xml-events" xmlns:xlink="http://www.w3.org/1999/xlink"><defs /><g transform="translate(0, 1000) scale(1, -1)"><path d="M286.1579895019531 -252.80499267578125C287.6109924316406 -252.55999755859375 289.0480041503906 -252.44200134277344 290.4590148925781 -252.44200134277344C304.43701171875 -252.44200134277344 315.9070129394531 -264.0119934082031 315.9070129394531 -277.8299865722656C315.9070129394531 -279.5799865722656 315.7229919433594 -281.3659973144531 315.3370056152344 -283.1679992675781C313.3949890136719 -292.4049987792969 310.8370056152344 -295.010986328125 290.3739929199219 -308.8890075683594L244.23699951171875 -340.1050109863281L198.05299377441406 -371.3680114746094L151.1580047607422 -403.1050109863281L104.26300048828125 -434.8420104980469L57.368408203125 -466.5790100097656L10.473709106445312 -498.3160095214844L-36.42109680175781 -530.052978515625L-83.3157958984375 -561.7890014648438L-106.57398986816406 -577.5159912109375C-115.27098083496094 -583.39697265625 -119.9849853515625 -585.4030151367188 -125.97099304199219 -585.4030151367188C-126.83097839355469 -585.4030151367188 -127.71798706054688 -585.3619995117188 -128.64698791503906 -585.2839965820312C-142.4139862060547 -584.0869750976562 -151.75698852539062 -572.448974609375 -151.75698852539062 -559.9580078125C-151.75698852539062 -555.6439819335938 -150.6429901123047 -551.22802734375 -148.2109832763672 -547.10498046875C-144.84698486328125 -541.3740234375 -151.00498962402344 -545.7789916992188 -63.65788269042969 -486.71099853515625L-24.342086791992188 -460.0889892578125L61.86842346191406 -401.77899169921875L107.81602478027344 -370.6579895019531L154.7110137939453 -338.9209899902344L200.89501953125 -307.6579895019531C276.30499267578125 -256.3580017089844 280.3320007324219 -253.7530059814453 286.1579895019531 -252.80499267578125Z" fill="black" /></g></svg>