<?xml version="1.0" encoding="utf-8" ?>
<svg baseProfile="tiny" height="100%" version="1.2" width="100%" xmlns="http://www.w3.org/2000/svg" xmlns:ev="http://www.w3.org/2001/xml-events" xmlns:xlink="http://www.w3.org/1999/xlink"><defs /><g transform="translate(0, 1000) scale(1, -1)"><path d="M128.7949981689453 459.65301513671875C129.8670196533203 460.0589904785156 139.0120086669922 460.20599365234375 171.30300903320312 460.20599365234375C180.40000915527344 460.20599365234375 191.33401489257812 460.19500732421875 204.44300842285156 460.17401123046875L278.38502502441406 460.0790100097656L280.7060089111328 458.6579895019531C284.3770294189453 456.3760070800781 286.2300262451172 452.97698974609375 286.2300262451172 449.2699890136719C286.2300262451172 445.89801025390625 284.69700622558594 442.2720031738281 281.6060028076172 439.0C280.2320098876953 437.5790100097656 274.6900177001953 431.3739929199219 269.24302673339844 425.26300048828125L230.2110137939453 381.4469909667969L180.0480194091797 325.0790100097656L154.1370086669922 296.1839904785156L114.58500671386719 251.89500427246094L62.52690124511719 193.39500427246094C53.00578308105469 182.68898010253906 44.95318603515625 173.59498596191406 44.574188232421875 173.12098693847656C44.540679931640625 173.07998657226562 44.519287109375 173.04098510742188 44.519287109375 173.00299072265625C44.519287109375 172.3579864501953 50.930084228515625 172.31597900390625 111.031982421875 172.31597900390625H178.10598754882812L178.20098876953125 219.82598876953125C178.34300231933594 266.0580139160156 178.38999938964844 267.3370056152344 179.2899932861328 268.71099853515625C180.66400146484375 270.8890075683594 187.43699645996094 278.56298828125 213.1580047607422 307.3160095214844L223.34300231933594 318.73199462890625L233.00599670410156 329.6260070800781L249.82200622558594 348.47900390625L265.2640075683594 365.76800537109375L273.9800109863281 375.71600341796875C276.8389892578125 379.10699462890625 280.6730041503906 380.7659912109375 284.3559875488281 380.7659912109375C288.54400634765625 380.7659912109375 292.5369873046875 378.6210021972656 294.67999267578125 374.43701171875C295.4540100097656 372.96600341796875 295.5950012207031 371.65301513671875 295.5950012207031 317.3900146484375C295.5950012207031 305.2560119628906 295.5880126953125 290.4750061035156 295.5799865722656 272.4530029296875L295.5320129394531 172.3159942626953H313.2950134277344C333.9949951171875 172.31600952148438 334.3269958496094 172.2680206298828 338.6369934082031 168.00502014160156C341.6059875488281 165.01901245117188 342.99700927734375 161.0950164794922 342.99700927734375 157.20401000976562C342.99700927734375 151.16001892089844 339.6390075683594 145.1950225830078 333.6159973144531 142.947021484375C331.24798583984375 142.04701232910156 330.0159912109375 142.00001525878906 313.43701171875 142.00001525878906H295.8160095214844L295.9580078125 130.77401733398438C296.3370056152344 93.35263061523438 303.8219909667969 79.85263061523438 332.2900085449219 64.97892761230469C342.8529968261719 59.43682861328125 344.6059875488281 57.44743347167969 344.6059875488281 50.815826416015625C344.6059875488281 45.70002746582031 343.3739929199219 43.331634521484375 339.4429931640625 40.868438720703125L337.12200927734375 39.44743347167969H236.84300231933594H136.56399536132812L134.2429962158203 40.868438720703125C130.31101989746094 43.331634521484375 129.08001708984375 45.70002746582031 129.08001708984375 50.815826416015625C129.08001708984375 57.44743347167969 130.83201599121094 59.43682861328125 141.39501953125 64.97892761230469C169.864013671875 79.85263061523438 177.3480224609375 93.35263061523438 177.72702026367188 130.77403259277344L177.8690185546875 142.04702758789062L92.98481750488281 142.00003051757812C77.38362121582031 141.99102783203125 64.64912414550781 141.98402404785156 54.243011474609375 141.98402404785156C8.884063720703125 141.98402404785156 7.7646942138671875 142.12103271484375 6.3005828857421875 142.85302734375C2.1795196533203125 144.98402404785156 0.000579833984375 148.6320343017578 0.000579833984375 153.36802673339844C0.000579833984375 153.56602478027344 1.52587890625e-05 153.75503540039062 1.52587890625e-05 153.93603515625C1.52587890625e-05 158.1410369873047 0.304779052734375 158.37103271484375 15.063720703125 175.5370330810547C77.73211669921875 248.2470245361328 120.60101318359375 355.5370178222656 120.79002380371094 440.0890197753906C120.83702087402344 453.447021484375 122.44801330566406 457.3790283203125 128.79501342773438 459.6530456542969ZM172.30300903320312 -0.173187255859375H173.30300903320312H171.30300903320312ZM172.3030242919922 485.8270263671875H173.3030242919922H171.3030242919922Z" fill="black" /></g></svg>