<?xml version="1.0" encoding="utf-8" ?>
<svg baseProfile="tiny" height="100%" version="1.2" width="100%" xmlns="http://www.w3.org/2000/svg" xmlns:ev="http://www.w3.org/2001/xml-events" xmlns:xlink="http://www.w3.org/1999/xlink"><defs /><g transform="translate(0, 1000) scale(1, -1)"><path d="M15.958602905273438 271.8840026855469C17.830520629882812 272.5 71.49331665039062 272.8210144042969 123.15400695800781 272.8210144042969C170.8480224609375 272.8210144042969 216.83502197265625 272.5469970703125 218.79000854492188 271.97900390625C229.3690185546875 268.90301513671875 235.0650177001953 259.3580017089844 235.0650177001953 249.79600524902344C235.0650177001953 242.2740020751953 231.541015625 234.7429962158203 224.0950164794922 230.3419952392578C219.12200927734375 227.4409942626953 224.9920196533203 227.25900268554688 153.29701232910156 227.25900268554688C143.0550079345703 227.25900268554688 131.23001098632812 227.26300048828125 117.56401062011719 227.26300048828125C103.42701721191406 227.26300048828125 91.26060485839844 227.25900268554688 80.77911376953125 227.25900268554688C10.55291748046875 227.25900268554688 15.967819213867188 227.43800354003906 11.269119262695312 230.1999969482422C3.63751220703125 234.65199279785156 1.52587890625e-05 242.21499633789062 1.52587890625e-05 249.7740020751953C1.52587890625e-05 259.1059875488281 5.5431976318359375 268.42999267578125 15.9586181640625 271.8840026855469Z" fill="black" /></g></svg>