<?xml version="1.0" encoding="utf-8" ?>
<svg baseProfile="tiny" height="100%" version="1.2" width="100%" xmlns="http://www.w3.org/2000/svg" xmlns:ev="http://www.w3.org/2001/xml-events" xmlns:xlink="http://www.w3.org/1999/xlink"><defs /><g transform="translate(0, 1000) scale(1, -1)"><path d="M135.92100524902344 271.6109924316406C136.66598510742188 271.72198486328125 138.0059814453125 271.7699890136719 139.6589813232422 271.7699890136719C145.04898071289062 271.7699890136719 153.76898193359375 271.2539978027344 156.052978515625 270.71099853515625C172.63198852539062 266.73199462890625 186.98397827148438 256.73699951171875 195.65298461914062 243.18899536132812C197.97398376464844 239.58900451660156 201.95298767089844 231.53700256347656 202.2839813232422 229.83200073242188C202.38198852539062 229.31100463867188 202.4569854736328 228.97500610351562 202.6599884033203 228.97500610351562C203.04698181152344 228.97500610351562 203.8999786376953 230.20199584960938 206.2629852294922 233.71600341796875C212.79998779296875 243.37899780273438 220.7109832763672 251.90499877929688 229.66297912597656 258.8680114746094C232.031982421875 260.6679992675781 234.77899169921875 263.0840148925781 235.77398681640625 264.17401123046875C240.29898071289062 269.0889892578125 250.72198486328125 271.8039855957031 262.01499938964844 271.8039855957031C268.5709991455078 271.8039855957031 275.4199981689453 270.8890075683594 281.57899475097656 268.9580078125C294.46299743652344 264.8840026855469 307.63197326660156 254.7469940185547 315.02098083496094 243.18899536132812C317.3419952392578 239.58900451660156 321.3209991455078 231.53700256347656 321.6529998779297 229.83200073242188C321.74998474121094 229.31100463867188 321.8259735107422 228.97500610351562 322.0279998779297 228.97500610351562C322.4159698486328 228.97500610351562 323.2679901123047 230.20199584960938 325.63197326660156 233.71600341796875C332.16798400878906 243.37899780273438 340.07899475097656 251.90499877929688 349.03199768066406 258.8680114746094C351.3999786376953 260.6679992675781 354.14698791503906 263.0840148925781 355.14198303222656 264.17401123046875C359.6639862060547 269.0929870605469 370.41297912597656 271.864013671875 381.77198791503906 271.864013671875C388.0229949951172 271.864013671875 394.45899963378906 271.02398681640625 400.14198303222656 269.24200439453125C426.8579864501953 260.8110046386719 444.95298767089844 235.7050018310547 444.99998474121094 206.85800170898438C444.99998474121094 197.14700317382812 442.8679962158203 186.2530059814453 439.93199157714844 180.94700622558594C438.3679962158203 178.05799865722656 400.56797790527344 51.584197998046875 399.7629852294922 46.42109680175781C399.43199157714844 44.1947021484375 398.7679901123047 40.926300048828125 398.3419952392578 39.07890319824219C397.8429718017578 37.00079345703125 397.6129913330078 34.888397216796875 397.6129913330078 32.84049987792969C397.6129913330078 24.7532958984375 401.2059783935547 17.671295166015625 406.05699157714844 17.671295166015625C406.2779998779297 17.671295166015625 406.50099182128906 17.685897827148438 406.7259979248047 17.715805053710938C431.97398376464844 21.031600952148438 461.95799255371094 52.86320495605469 476.45298767089844 91.61050415039062C479.00599670410156 98.40631103515625 480.72999572753906 100.37699890136719 484.76698303222656 100.37699890136719C485.1479949951172 100.37699890136719 485.5489959716797 100.3590087890625 485.97398376464844 100.32598876953125C490.3169708251953 99.9696044921875 492.53199768066406 98.01419067382812 492.53199768066406 93.71490478515625C492.53199768066406 88.30859375 489.0299835205078 79.19580078125 481.8529815673828 64.89469909667969C464.98899841308594 31.263198852539062 443.2949981689453 7.9578857421875 413.45298767089844 -8.526321411132812L404.02598571777344 -13.784194946289062C397.67198181152344 -17.423385620117188 390.6329803466797 -19.10638427734375 383.46998596191406 -19.10638427734375C360.88999938964844 -19.10638427734375 337.0669708251953 -2.38446044921875 329.51597595214844 22.500015258789062C327.6269989013672 28.727813720703125 326.70997619628906 35.90132141113281 326.70997619628906 42.87150573730469C326.70997619628906 52.33601379394531 328.40098571777344 61.42552185058594 331.64698791503906 67.26321411132812C333.2579803466797 70.15261840820312 371.01097106933594 196.6260223388672 371.8159942626953 201.7890167236328C372.14698791503906 204.01602172851562 372.7629852294922 207.1890106201172 373.18898010253906 208.89501953125C373.77098083496094 211.30601501464844 374.0549774169922 213.64102172851562 374.0549774169922 215.87001037597656C374.0549774169922 224.71900939941406 369.5769805908203 231.90200805664062 361.4419708251953 235.6110076904297C360.13197326660156 236.197021484375 359.24998474121094 236.52500915527344 358.2989959716797 236.52500915527344C356.9459991455078 236.52500915527344 355.45399475097656 235.8610076904297 352.3949737548828 234.33201599121094C340.7419891357422 228.55300903320312 326.48399353027344 208.468017578125 324.9209747314453 195.63201904296875C324.49497985839844 191.93701171875 321.98399353027344 183.4580078125 320.56297302246094 180.947021484375C319.8999786376953 179.7160186767578 308.1529998779297 141.34701538085938 293.3739776611328 92.13160705566406C279.11598205566406 44.478912353515625 266.9419708251953 4.594757080078125 266.4209747314453 3.505279541015625C264.6009979248047 -0.0503692626953125 266.0339813232422 -0.239501953125 241.34597778320312 -0.239501953125C238.406982421875 -0.239501953125 235.09698486328125 -0.2368316650390625 231.36798095703125 -0.2368316650390625C228.15798950195312 -0.2368316650390625 225.260986328125 -0.238433837890625 222.6429901123047 -0.238433837890625C196.79698181152344 -0.238433837890625 198.29898071289062 -0.0821990966796875 196.3629913330078 3.3158111572265625C195.9569854736328 4.037506103515625 195.60897827148438 4.4974517822265625 195.60897827148438 5.7600555419921875C195.60897827148438 10.381210327148438 200.26698303222656 25.75482177734375 223.7419891357422 104.06800842285156C239.32598876953125 156.1260223388672 252.2579803466797 199.989013671875 252.44699096679688 201.55300903320312C252.63697814941406 203.1160125732422 253.15798950195312 206.1000213623047 253.67898559570312 208.18402099609375C254.3149871826172 210.86302185058594 254.62698364257812 213.4300079345703 254.62698364257812 215.85601806640625C254.62698364257812 224.62501525878906 250.552978515625 231.5380096435547 243.02098083496094 235.1370086669922C241.10398864746094 236.041015625 239.99998474121094 236.52500915527344 238.84898376464844 236.52500915527344C237.46897888183594 236.52500915527344 236.02297973632812 235.83001708984375 233.02598571777344 234.33201599121094C221.3739776611328 228.55300903320312 207.11598205566406 208.468017578125 205.552978515625 195.63201904296875C205.12599182128906 191.93701171875 202.61598205566406 183.4580078125 201.1949920654297 180.947021484375C200.531982421875 179.7160186767578 188.7839813232422 141.34701538085938 174.00498962402344 92.13160705566406C159.74697875976562 44.478912353515625 147.57398986816406 4.594757080078125 147.052978515625 3.505279541015625C145.2319793701172 -0.0503692626953125 146.66497802734375 -0.239501953125 121.97697448730469 -0.239501953125C119.03797912597656 -0.239501953125 115.72898864746094 -0.2368316650390625 111.99998474121094 -0.2368316650390625C108.78999328613281 -0.2368316650390625 105.89198303222656 -0.238433837890625 103.27497863769531 -0.238433837890625C77.42878723144531 -0.238433837890625 78.93028259277344 -0.0821990966796875 76.99467468261719 3.3158111572265625C76.58808898925781 4.037506103515625 76.24038696289062 4.4974517822265625 76.24038696289062 5.7600555419921875C76.24038696289062 10.381210327148438 80.89817810058594 25.75482177734375 104.37397766113281 104.06800842285156C119.95799255371094 156.1260223388672 132.8889923095703 199.989013671875 133.0789794921875 201.55300903320312C133.2679901123047 203.1160125732422 133.7889862060547 206.1000213623047 134.3109893798828 208.18402099609375C134.93798828125 210.81800842285156 135.24398803710938 213.36502075195312 135.24398803710938 215.78201293945312C135.24398803710938 224.4940185546875 131.27198791503906 231.52601623535156 124.07899475097656 234.90000915527344C122.4329833984375 235.67501831054688 120.81898498535156 236.08702087402344 118.99098205566406 236.08702087402344C115.45498657226562 236.08702087402344 111.11698913574219 234.54501342773438 104.18397521972656 231.1110076904297C83.29469299316406 220.83201599121094 63.542083740234375 196.6260223388672 51.79469299316406 166.83201599121094C48.08738708496094 157.4140167236328 46.71849060058594 155.39501953125 42.65287780761719 155.39501953125C42.199188232421875 155.39501953125 41.71199035644531 155.42001342773438 41.18418884277344 155.4630126953125C36.83018493652344 155.83001708984375 34.62419128417969 157.79501342773438 34.62419128417969 162.0910186767578C34.62419128417969 167.23501586914062 37.7880859375 175.7230224609375 44.215789794921875 188.81101989746094C60.46318054199219 221.968017578125 83.34208679199219 246.83702087402344 111.76298522949219 262.2790069580078C114.65298461914062 263.84202575683594 118.06298828125 265.7840118408203 119.34199523925781 266.6370086669922C122.70498657226562 268.7680206298828 128.8629913330078 270.6160125732422 135.92098999023438 271.6110076904297Z" fill="black" /></g></svg>