<?xml version="1.0" encoding="utf-8" ?>
<svg baseProfile="tiny" height="100%" version="1.2" width="100%" xmlns="http://www.w3.org/2000/svg" xmlns:ev="http://www.w3.org/2001/xml-events" xmlns:xlink="http://www.w3.org/1999/xlink"><defs /><g transform="translate(0, 1000) scale(1, -1)"><path d="M12.984893798828125 173.60499572753906C14.3302001953125 174.0380096435547 16.625701904296875 174.2510223388672 18.919998168945312 174.2510223388672C21.149703979492188 174.2510223388672 23.378204345703125 174.05001831054688 24.7322998046875 173.65301513671875C28.711196899414062 172.4210205078125 32.40589904785156 169.6260223388672 34.82170104980469 166.02601623535156C37.6986083984375 161.69100952148438 37.90660095214844 171.77401733398438 37.90660095214844 64.86691284179688C37.90660095214844 46.79801940917969 37.90069580078125 25.387222290039062 37.90069580078125 1.52587890625e-05C37.90069580078125 -25.387191772460938 37.90660095214844 -46.79798889160156 37.90660095214844 -64.86688232421875C37.90660095214844 -171.77398681640625 37.6986083984375 -161.69097900390625 34.82170104980469 -166.02598571777344C31.103302001953125 -171.61598205566406 25.028305053710938 -174.41098022460938 18.95330810546875 -174.41098022460938C12.8782958984375 -174.41098022460938 6.803314208984375 -171.61598205566406 3.0848846435546875 -166.02598571777344C0.207977294921875 -161.69097900390625 0.0 -171.77398681640625 0.0 -64.86688232421875C0.0 -46.79798889160156 0.0059356689453125 -25.387191772460938 0.0059356689453125 1.52587890625e-05C0.0059356689453125 25.387222290039062 0.0 46.79801940917969 0.0 64.86691284179688C0.0 171.77401733398438 0.207977294921875 161.69100952148438 3.0848846435546875 166.02601623535156C5.40594482421875 169.53201293945312 9.195404052734375 172.4210205078125 12.984893798828125 173.60501098632812ZM81.19540405273438 173.60501098632812C82.54071044921875 174.03802490234375 84.83619689941406 174.25103759765625 87.1304931640625 174.25103759765625C89.36019897460938 174.25103759765625 91.58869934082031 174.05003356933594 92.94281005859375 173.6530303955078C98.57958984375 171.9000244140625 103.69500732421875 166.78402709960938 105.4010009765625 161.19503784179688C106.0159912109375 159.25303649902344 106.11099243164062 148.54702758789062 106.15899658203125 89.05262756347656C106.15899658203125 33.169830322265625 106.23699951171875 21.377029418945312 106.71499633789062 21.377029418945312C106.76199340820312 21.377029418945312 106.81300354003906 21.4935302734375 106.86900329589844 21.694732666015625C124.67999267578125 87.93963623046875 221.57699584960938 134.73902893066406 331.42401123046875 134.73902893066406C345.4440002441406 134.73902893066406 359.67498779296875 133.9760284423828 373.9800109863281 132.39503479003906C468.4800109863281 121.926025390625 541.2379760742188 77.73162841796875 556.301025390625 21.694732666015625C556.3560180664062 21.4935302734375 556.4080200195312 21.377029418945312 556.4550170898438 21.377029418945312C556.9329833984375 21.377029418945312 557.010986328125 33.169830322265625 557.010986328125 89.05262756347656C557.0590209960938 166.26303100585938 556.8690185546875 161.0530242919922 560.1380004882812 166.02603149414062C563.8560180664062 171.61602783203125 569.9310302734375 174.41102600097656 576.0059814453125 174.41102600097656C582.0809936523438 174.41102600097656 588.156005859375 171.61602783203125 591.8740234375 166.02603149414062C594.7509765625 161.69102478027344 594.958984375 171.77403259277344 594.958984375 64.86692810058594L594.9530029296875 3.0517578125e-05L594.958984375 -64.86686706542969C594.958984375 -171.77398681640625 594.7509765625 -161.69097900390625 591.8740234375 -166.02598571777344C588.156005859375 -171.61598205566406 582.0809936523438 -174.41098022460938 576.0059814453125 -174.41098022460938C569.9310302734375 -174.41098022460938 563.8560180664062 -171.61598205566406 560.1380004882812 -166.02598571777344C556.8690185546875 -161.052978515625 557.0590209960938 -166.2629852294922 557.010986328125 -89.05258178710938C557.010986328125 -33.16978454589844 556.9329833984375 -21.376983642578125 556.4550170898438 -21.376983642578125C556.4080200195312 -21.376983642578125 556.3560180664062 -21.493484497070312 556.301025390625 -21.694686889648438C541.2379760742188 -77.73158264160156 468.4800109863281 -121.92597961425781 373.9800109863281 -132.39498901367188C359.67498779296875 -133.97598266601562 345.4440002441406 -134.73898315429688 331.42401123046875 -134.73898315429688C221.57699584960938 -134.73898315429688 124.67999267578125 -87.93959045410156 106.86900329589844 -21.694686889648438C106.81300354003906 -21.493484497070312 106.76199340820312 -21.376983642578125 106.71499633789062 -21.376983642578125C106.23699951171875 -21.376983642578125 106.15899658203125 -33.16978454589844 106.15899658203125 -89.05258178710938C106.11099243164062 -166.2629852294922 106.30099487304688 -161.052978515625 103.03199768066406 -166.02598571777344C99.31379699707031 -171.61598205566406 93.23880004882812 -174.41098022460938 87.16380310058594 -174.41098022460938C81.08880615234375 -174.41098022460938 75.0137939453125 -171.61598205566406 71.29541015625 -166.02598571777344C68.41850280761719 -161.69097900390625 68.21051025390625 -171.77398681640625 68.21051025390625 -64.86688232421875C68.21051025390625 -46.79798889160156 68.21649169921875 -25.387191772460938 68.21649169921875 1.52587890625e-05C68.21649169921875 25.387222290039062 68.21051025390625 46.79801940917969 68.21051025390625 64.86691284179688C68.21051025390625 171.77401733398438 68.41850280761719 161.69100952148438 71.29541015625 166.02601623535156C73.61650085449219 169.53201293945312 77.40589904785156 172.4210205078125 81.19540405273438 173.60501098632812ZM318.0849914550781 116.71601867675781C313.4410095214844 117.42802429199219 308.9469909667969 117.77201843261719 304.6099853515625 117.77201843261719C258.625 117.77201843261719 230.38699340820312 79.07931518554688 230.38699340820312 30.140213012695312C230.38699340820312 4.1773223876953125 238.33399963378906 -24.669387817382812 255.7949981689453 -52.152587890625C283.1449890136719 -95.14118957519531 323.1059875488281 -117.54798889160156 358.2409973144531 -117.54798889160156C387.489013671875 -117.54798889160156 413.39300537109375 -102.02098083496094 425.8949890136719 -69.91578674316406C430.68798828125 -57.62599182128906 432.9049987792969 -44.40708923339844 432.9049987792969 -30.88018798828125C432.9049987792969 34.475616455078125 381.15301513671875 107.02201843261719 318.0849914550781 116.71601867675781ZM638.2479858398438 173.60501098632812C639.593017578125 174.03802490234375 641.8889770507812 174.25103759765625 644.1829833984375 174.25103759765625C646.4130249023438 174.25103759765625 648.6409912109375 174.05003356933594 649.9949951171875 173.6530303955078C653.9739990234375 172.42103576660156 657.6690063476562 169.62603759765625 660.0850219726562 166.02603149414062C662.9619750976562 161.69102478027344 663.1699829101562 171.77403259277344 663.1699829101562 64.86692810058594L663.1640014648438 3.0517578125e-05L663.1699829101562 -64.86686706542969C663.1699829101562 -171.77398681640625 662.9619750976562 -161.69097900390625 660.0850219726562 -166.02598571777344C656.3660278320312 -171.61598205566406 650.291015625 -174.41098022460938 644.2160034179688 -174.41098022460938C638.1409912109375 -174.41098022460938 632.0659790039062 -171.61598205566406 628.3480224609375 -166.02598571777344C625.4710083007812 -161.69097900390625 625.2630004882812 -171.77398681640625 625.2630004882812 -64.86688232421875L625.2689819335938 1.52587890625e-05L625.2630004882812 64.86691284179688C625.2630004882812 171.77403259277344 625.4710083007812 161.69102478027344 628.3480224609375 166.02603149414062C630.6690063476562 169.5320281982422 634.458984375 172.42103576660156 638.2479858398438 173.6050262451172Z" fill="black" /></g></svg>