<?xml version="1.0" encoding="utf-8" ?>
<svg baseProfile="tiny" height="100%" version="1.2" width="100%" xmlns="http://www.w3.org/2000/svg" xmlns:ev="http://www.w3.org/2001/xml-events" xmlns:xlink="http://www.w3.org/1999/xlink"><defs /><g transform="translate(0, 1000) scale(1, -1)"><path d="M154.8470001220703 134.91600036621094C155.27902221679688 135.2659912109375 156.43101501464844 135.46298217773438 157.5010223388672 135.46298217773438C158.31101989746094 135.46298217773438 159.07501220703125 135.34999084472656 159.4420166015625 135.10498046875C159.77401733398438 134.91598510742188 162.56800842285156 130.93698120117188 165.6950225830078 126.24699401855469C198.90000915527344 76.273681640625 249.58401489257812 31.32098388671875 309.0790252685547 -0.8895263671875C317.93702697753906 -5.721099853515625 318.31602478027344 -6.00531005859375 318.31602478027344 -8.515838623046875C318.31602478027344 -10.88421630859375 318.0320281982422 -11.16851806640625 310.02601623535156 -16.142120361328125C254.416015625 -50.72111511230469 194.82601928710938 -98.27900695800781 168.4420166015625 -129.3050079345703C163.2320098876953 -135.416015625 163.1370086669922 -135.4630126953125 161.1000213623047 -135.4630126953125H161.0170135498047C158.7320098876953 -135.46299743652344 158.71701049804688 -135.41700744628906 153.56800842285156 -127.60000610351562C120.17402648925781 -76.82110595703125 69.67890930175781 -31.915802001953125 8.763168334960938 1.1947021484375C0.37896728515625 5.7420654296875 1.52587890625e-05 6.0736541748046875 1.52587890625e-05 8.53680419921875C1.52587890625e-05 10.905197143554688 0.2842254638671875 11.18939208984375 8.28948974609375 16.163101196289062C64.0421142578125 50.8367919921875 123.489013671875 98.30000305175781 149.87400817871094 129.3260040283203C152.2420196533203 132.07400512695312 154.468017578125 134.58399963378906 154.84701538085938 134.91600036621094Z" fill="black" /></g></svg>