<?xml version="1.0" encoding="utf-8" ?>
<svg baseProfile="tiny" height="100%" version="1.2" width="100%" xmlns="http://www.w3.org/2000/svg" xmlns:ev="http://www.w3.org/2001/xml-events" xmlns:xlink="http://www.w3.org/1999/xlink"><defs /><g transform="translate(0, 1000) scale(1, -1)"><path d="M187.8780059814453 134.20899963378906C192.23001098632812 134.5180206298828 196.50701904296875 134.67001342773438 200.70201110839844 134.67001342773438C269.1530303955078 134.67001342773438 316.06101989746094 94.22721862792969 316.06101989746094 36.54310607910156C316.06101989746094 30.604415893554688 315.5640106201172 24.48291015625 314.54200744628906 18.204010009765625C303.50502014160156 -49.43818664550781 234.25201416015625 -113.57498168945312 154.010009765625 -130.43798828125C140.42201232910156 -133.3049774169922 127.31501770019531 -134.66998291015625 114.87101745605469 -134.66998291015625C47.80451965332031 -134.66998291015625 1.52587890625e-05 -94.99577331542969 1.52587890625e-05 -36.715179443359375C1.52587890625e-05 -30.7537841796875 0.5001678466796875 -24.5977783203125 1.5310211181640625 -18.269683837890625C13.941513061523438 57.66181945800781 99.82051086425781 127.90901184082031 187.87802124023438 134.20901489257812ZM269.54200744628906 96.12501525878906C266.51600646972656 97.05711364746094 262.9390106201172 97.50950622558594 258.8920135498047 97.50950622558594C236.20301818847656 97.50950622558594 198.7460174560547 83.28822326660156 160.87802124023438 59.65132141113281C93.75730895996094 17.730316162109375 37.010009765625 -44.8433837890625 35.02052307128906 -79.13818359375C34.99070739746094 -79.6431884765625 34.97601318359375 -80.13719177246094 34.97601318359375 -80.6204833984375C34.97601318359375 -92.19578552246094 43.44660949707031 -97.54768371582031 57.42552185058594 -97.54768371582031C87.47590637207031 -97.54768371582031 142.98101806640625 -72.81498718261719 194.510009765625 -32.00657653808594C247.166015625 9.668991088867188 281.06700134277344 55.6107177734375 281.06700134277344 79.99061584472656C281.06700134277344 88.00381469726562 277.4040069580078 93.68771362304688 269.54200744628906 96.12501525878906Z" fill="black" /></g></svg>