<?xml version="1.0" encoding="utf-8" ?>
<svg baseProfile="tiny" height="100%" version="1.2" width="100%" xmlns="http://www.w3.org/2000/svg" xmlns:ev="http://www.w3.org/2001/xml-events" xmlns:xlink="http://www.w3.org/1999/xlink"><defs /><g transform="translate(0, 1000) scale(1, -1)"><path d="M46.83650207519531 131.92100524902344C49.21971130371094 132.364990234375 53.1356201171875 132.57798767089844 57.05511474609375 132.57798767089844C61.08201599121094 132.57798767089844 65.11271667480469 132.3529815673828 67.48912048339844 131.92098999023438C74.68911743164062 130.54698181152344 78.7628173828125 128.74697875976562 149.38902282714844 95.92108154296875L220.06301879882812 63.047393798828125L290.7840118408203 95.92108154296875C367.01002502441406 131.3730010986328 369.3100128173828 132.63900756835938 380.0960235595703 132.63900756835938C380.92601013183594 132.63900756835938 381.80601501464844 132.6320037841797 382.7730255126953 132.6320037841797C417.2100067138672 132.6320037841797 440.1260223388672 104.73800659179688 440.1260223388672 75.3905029296875C440.1260223388672 61.826904296875 435.2310028076172 47.95289611816406 424.3150177001953 36.37890625C417.1630096435547 28.800003051757812 414.6050262451172 27.37890625 381.02101135253906 11.794692993164062C367.2840118408203 5.4473724365234375 356.01002502441406 0.1421051025390625 356.01002502441406 0.0C356.01002502441406 -0.1421051025390625 367.2840118408203 -5.4473724365234375 381.02101135253906 -11.794692993164062C414.6050262451172 -27.37890625 417.1630096435547 -28.800003051757812 424.3150177001953 -36.37890625C435.2310028076172 -47.95289611816406 440.1260223388672 -61.826904296875 440.1260223388672 -75.3905029296875C440.1260223388672 -104.73800659179688 417.2100067138672 -132.6320037841797 382.7730255126953 -132.6320037841797C381.80601501464844 -132.6320037841797 380.92601013183594 -132.63900756835938 380.0960235595703 -132.63900756835938C369.3100128173828 -132.63900756835938 367.01002502441406 -131.3730010986328 290.7840118408203 -95.92109680175781L220.06301879882812 -63.04740905761719L149.38902282714844 -95.92109680175781C73.11921691894531 -131.37301635742188 70.81631469726562 -132.63902282714844 60.02961730957031 -132.63902282714844C59.199920654296875 -132.63902282714844 58.32002258300781 -132.63201904296875 57.35231018066406 -132.63201904296875C22.91571044921875 -132.63201904296875 1.52587890625e-05 -104.73802185058594 1.52587890625e-05 -75.39051818847656C1.52587890625e-05 -61.82691955566406 4.89508056640625 -47.952911376953125 15.810211181640625 -36.37892150878906C22.962814331054688 -28.800018310546875 25.520721435546875 -27.378921508789062 59.10491943359375 -11.794708251953125C72.84181213378906 -5.4473876953125 84.11541748046875 -0.142120361328125 84.11541748046875 -1.52587890625e-05C84.11541748046875 0.14208984375 72.84181213378906 5.447357177734375 59.10491943359375 11.794677734375C25.520721435546875 27.378890991210938 22.962814331054688 28.79998779296875 15.810211181640625 36.37889099121094C5.0739593505859375 47.76979064941406 0.1620330810546875 61.73358154296875 0.1620330810546875 75.46467590332031C0.1620330810546875 101.47499084472656 17.78741455078125 126.65098571777344 46.836517333984375 131.92098999023438ZM65.4049072265625 97.19998168945312C63.53559875488281 97.95936584472656 59.487091064453125 98.39456176757812 55.980194091796875 98.39456176757812C53.79969787597656 98.39456176757812 51.8284912109375 98.22637939453125 50.720703125 97.8631591796875C40.1903076171875 94.36276245117188 34.244598388671875 85.18197631835938 34.244598388671875 75.75347900390625C34.244598388671875 69.99847412109375 36.459808349609375 64.15127563476562 41.19970703125 59.44737243652344C44.70489501953125 55.94207763671875 39.54180908203125 58.45257568359375 110.5 25.531570434570312C140.531005859375 11.605270385742188 165.0679931640625 0.1420745849609375 165.0679931640625 -3.0517578125e-05C165.0679931640625 -0.1421356201171875 138.92100524902344 -12.363235473632812 106.94699096679688 -27.189529418945312C44.08909606933594 -56.321136474609375 43.61540222167969 -56.55792236328125 40.29969787597656 -60.25262451171875C36.079193115234375 -64.94853210449219 34.19340515136719 -70.42404174804688 34.19340515136719 -75.73753356933594C34.19340515136719 -87.47763061523438 43.39959716796875 -98.4266357421875 56.9700927734375 -98.4266357421875C57.4552001953125 -98.4266357421875 57.94580078125 -98.41262817382812 58.441802978515625 -98.38423156738281C64.36279296875 -98.05262756347656 56.1680908203125 -101.65303039550781 143.3260040283203 -61.10533142089844C184.8679962158203 -41.73162841796875 219.2100067138672 -25.863235473632812 219.58900451660156 -25.72113037109375C219.58999633789062 -25.7208251953125 219.5919952392578 -25.720626831054688 219.59300231933594 -25.720626831054688C220.1739959716797 -25.720626831054688 254.62399291992188 -41.50523376464844 296.27899169921875 -60.868438720703125C384.052001953125 -101.70002746582031 375.76300048828125 -98.05262756347656 381.6839904785156 -98.38423156738281C382.1709899902344 -98.41133117675781 382.6520080566406 -98.42462158203125 383.12799072265625 -98.42462158203125C396.79901123046875 -98.42462158203125 405.9100036621094 -87.42073059082031 405.9100036621094 -75.75152587890625C405.9100036621094 -70.07803344726562 403.7560119628906 -64.24722290039062 398.9259948730469 -59.44743347167969C395.4209899902344 -55.942138671875 400.5840148925781 -58.45263671875 329.6260070800781 -25.531631469726562C299.593994140625 -11.605331420898438 275.0580139160156 -0.1421356201171875 275.0580139160156 -3.0517578125e-05C275.0580139160156 0.1420745849609375 299.593994140625 11.605270385742188 329.6260070800781 25.531570434570312C400.5840148925781 58.45257568359375 395.4209899902344 55.94207763671875 398.9259948730469 59.44737243652344C403.7560119628906 64.24716186523438 405.9100036621094 70.07797241210938 405.9100036621094 75.75146484375C405.9100036621094 87.42066955566406 396.79901123046875 98.424560546875 383.12799072265625 98.424560546875C382.6520080566406 98.424560546875 382.1709899902344 98.41127014160156 381.6839904785156 98.38417053222656C381.2349853515625 98.35887145996094 380.8689880371094 98.35696411132812 380.5369873046875 98.35696411132812L380.37200927734375 98.3570556640625C376.5320129394531 98.35704040527344 376.30999755859375 98.09933471679688 296.32598876953125 60.86834716796875C254.62399291992188 41.50514221191406 220.1739959716797 25.720535278320312 219.59300231933594 25.720535278320312C219.5919952392578 25.720535278320312 219.58999633789062 25.720733642578125 219.58900451660156 25.721038818359375C219.2100067138672 25.863143920898438 184.8679962158203 41.731536865234375 143.3260040283203 61.10523986816406C101.78399658203125 80.43154907226562 66.731201171875 96.6788330078125 65.4049072265625 97.19993591308594Z" fill="black" /></g></svg>