<?xml version="1.0" encoding="utf-8" ?>
<svg baseProfile="tiny" height="100%" version="1.2" width="100%" xmlns="http://www.w3.org/2000/svg" xmlns:ev="http://www.w3.org/2001/xml-events" xmlns:xlink="http://www.w3.org/1999/xlink"><defs /><g transform="translate(0, 1000) scale(1, -1)"><path d="M169.16000366210938 177.8769989013672C173.18699645996094 178.06597900390625 176.73899841308594 178.302978515625 176.9759979248047 178.302978515625C177.67799377441406 178.39898681640625 178.63400268554688 178.44398498535156 179.7949981689453 178.44398498535156C188.968994140625 178.44398498535156 210.94400024414062 175.635986328125 221.83399963378906 172.90298461914062C305.40899658203125 151.87599182128906 357.1090087890625 76.96318054199219 357.1090087890625 -1.087738037109375C357.1090087890625 -34.16191101074219 347.82598876953125 -67.79951477050781 327.75 -98.138916015625C292.03399658203125 -152.1120147705078 235.447998046875 -178.4440155029297 179.0330047607422 -178.4440155029297C115.135009765625 -178.4440155029297 51.456695556640625 -144.6630096435547 18.576004028320312 -79.00212097167969C5.8552398681640625 -53.58171081542969 0.0 -26.991714477539062 0.0 -0.9576416015625C0.0 89.33988952636719 70.43879699707031 172.94998168945312 169.16000366210938 177.87698364257812ZM188.58099365234375 131.739990234375C183.1580047607422 132.04400634765625 180.2239990234375 132.18699645996094 177.5229949951172 132.18699645996094C175.5989990234375 132.18699645996094 173.79400634765625 132.11500549316406 171.29200744628906 131.9770050048828C147.93899536132812 130.60299682617188 124.87100219726562 123.02400207519531 106.2080078125 110.51899719238281L102.70201110839844 108.197998046875L140.69200134277344 70.20840454101562L178.63400268554688 32.26631164550781L216.5760040283203 70.20840454101562L254.5659942626953 108.197998046875L251.05999755859375 110.51899719238281C233.15499877929688 122.50300598144531 209.66000366210938 130.5080108642578 188.58099365234375 131.74002075195312ZM108.24400329589844 -38.123077392578125 146.18699645996094 -0.1810150146484375 108.24400329589844 37.76112365722656 70.25498962402344 75.75053405761719 67.93388366699219 72.24533081054688C53.806884765625 51.12263488769531 46.3505859375 25.422927856445312 46.3505859375 -0.3856353759765625C46.3505859375 -10.576370239257812 47.51318359375 -20.784072875976562 49.88658142089844 -30.733673095703125C53.43919372558594 -45.70207214355469 59.83387756347656 -60.48097229003906 67.93388366699219 -72.60726928710938L70.25498962402344 -76.11257934570312ZM289.38099670410156 72.19793701171875C288.1019744873047 74.04533386230469 287.0129852294922 75.60842895507812 286.9659881591797 75.60842895507812C286.91798400878906 75.60842895507812 269.81797790527344 58.55583190917969 248.97598266601562 37.71372985839844L211.0809783935547 -0.180999755859375L249.02297973632812 -38.12306213378906L287.0129852294922 -76.11256408691406L289.33399963378906 -72.60725402832031C303.6919708251953 -51.16426086425781 310.8689727783203 -25.667861938476562 310.8689727783203 -0.1731109619140625C310.8689727783203 25.300552368164062 303.70399475097656 50.77264404296875 289.38099670410156 72.19795227050781ZM216.71798706054688 -70.71255493164062C195.8759765625 -49.87046813964844 178.77597045898438 -32.86517333984375 178.63397216796875 -32.86517333984375C178.49197387695312 -32.86517333984375 161.3919677734375 -49.87046813964844 140.5499725341797 -70.71257019042969L102.70198059082031 -108.55996704101562L106.20797729492188 -110.88096618652344C127.32997131347656 -125.00798034667969 153.02996826171875 -132.4639892578125 178.83897399902344 -132.4639892578125C189.0289764404297 -132.4639892578125 199.23696899414062 -131.30198669433594 209.1869659423828 -128.927978515625C224.15496826171875 -125.37599182128906 238.93397521972656 -118.98098754882812 251.05996704101562 -110.8809814453125L254.5659637451172 -108.55998229980469Z" fill="black" /></g></svg>