<?xml version="1.0" encoding="utf-8" ?>
<svg baseProfile="tiny" height="100%" version="1.2" width="100%" xmlns="http://www.w3.org/2000/svg" xmlns:ev="http://www.w3.org/2001/xml-events" xmlns:xlink="http://www.w3.org/1999/xlink"><defs /><g transform="translate(0, 1000) scale(1, -1)"><path d="M108.75799560546875 246.03599548339844C110.83799743652344 246.43898010253906 173.56500244140625 246.6239776611328 242.46600341796875 246.6239776611328C327.3840026855469 246.6239776611328 421.6789855957031 246.34397888183594 423.3789978027344 245.84698486328125C433.05499267578125 243.01498413085938 439.67401123046875 234.16297912597656 439.67401123046875 224.02398681640625V223.91497802734375C439.67401123046875 220.97799682617188 360.8059997558594 -169.66900634765625 349.15301513671875 -224.37899780273438C346.4530029296875 -237.16900634765625 340.3420104980469 -244.1790008544922 330.25299072265625 -246.02699279785156C327.9700012207031 -246.44200134277344 278.52099609375 -246.62399291992188 219.58399963378906 -246.62399291992188C130.56900024414062 -246.62399291992188 19.911300659179688 -246.20899963378906 17.431793212890625 -245.55299377441406C6.857666015625 -242.76800537109375 0.0 -234.1020050048828 0.0 -223.44700622558594C0.0 -223.41099548339844 7.62939453125e-05 -223.37399291992188 0.000244140625 -223.33700561523438C0.000244140625 -217.1790008544922 90.94760131835938 229.03102111816406 93.12660217285156 233.72100830078125C96.06340026855469 239.92601013183594 102.22100830078125 244.8050079345703 108.75799560546875 246.0360107421875ZM388.468994140625 200.08901977539062C388.468994140625 200.51502990722656 362.5580139160156 200.6570281982422 260.5740051269531 200.6570281982422C158.63699340820312 200.6570281982422 132.58399963378906 200.51502990722656 132.44200134277344 200.0890350341797C132.3000030517578 199.7570343017578 113.92098999023438 109.52102661132812 91.56340026855469 -0.4215087890625L50.921295166015625 -200.3159637451172L178.8159942626953 -200.4579620361328C196.40200805664062 -200.46995544433594 213.1940155029297 -200.4759521484375 228.4920196533203 -200.4759521484375C274.3880157470703 -200.4759521484375 306.8410186767578 -200.42295837402344 306.94801330566406 -200.31594848632812C307.1840057373047 -200.03195190429688 388.46900939941406 199.00003051757812 388.46900939941406 200.0890350341797Z" fill="black" /></g></svg>