<?xml version="1.0" encoding="utf-8" ?>
<svg baseProfile="tiny" height="100%" version="1.2" width="100%" xmlns="http://www.w3.org/2000/svg" xmlns:ev="http://www.w3.org/2001/xml-events" xmlns:xlink="http://www.w3.org/1999/xlink"><defs /><g transform="translate(0, 1000) scale(1, -1)"><path d="M41.74729919433594 131.44700622558594C45.426483154296875 132.260986328125 49.18168640136719 132.66098022460938 52.93778991699219 132.66098022460938C63.39927673339844 132.66098022460938 73.86798095703125 129.55699157714844 82.72099304199219 123.63198852539062C85.32627868652344 121.87898254394531 101.47898864746094 108.89997863769531 118.62599182128906 94.78419494628906L149.7469940185547 69.15788269042969L180.8679962158203 94.78419494628906C220.08901977539062 127.08897399902344 222.97901916503906 129.031982421875 235.91001892089844 131.63697814941406C239.55902099609375 132.3739776611328 243.15101623535156 132.72499084472656 246.65701293945312 132.72499084472656C276.09400939941406 132.72499084472656 299.49501037597656 107.99198913574219 299.49501037597656 79.47657775878906C299.49501037597656 72.97718811035156 298.2790069580078 66.28117370605469 295.6420135498047 59.63677978515625C290.95301818847656 47.84208679199219 287.1160125732422 43.863189697265625 256.2320098876953 18.473678588867188C244.010009765625 8.478927612304688 234.06301879882812 0.14208984375 234.06301879882812 -1.52587890625e-05C234.06301879882812 -0.142120361328125 244.010009765625 -8.478958129882812 256.2320098876953 -18.473709106445312C287.1160125732422 -43.86322021484375 290.95301818847656 -47.84211730957031 295.6420135498047 -59.636810302734375C298.2790069580078 -66.28120422363281 299.49501037597656 -72.97721862792969 299.49501037597656 -79.47660827636719C299.49501037597656 -107.99201965332031 276.09400939941406 -132.7250213623047 246.65701293945312 -132.7250213623047C243.15101623535156 -132.7250213623047 239.55902099609375 -132.37400817871094 235.91001892089844 -131.6370086669922C222.97901916503906 -129.03201293945312 220.08901977539062 -127.08900451660156 180.86801147460938 -94.78422546386719L149.74700927734375 -69.15791320800781L118.62600708007812 -94.78422546386719C79.40519714355469 -127.08900451660156 76.51570129394531 -129.03201293945312 63.584197998046875 -131.6370086669922C59.936004638671875 -132.37400817871094 56.34410095214844 -132.7250213623047 52.837799072265625 -132.7250213623047C23.400802612304688 -132.7250213623047 0.0 -107.99201965332031 0.0 -79.47660827636719C0.0 -72.97721862792969 1.2156524658203125 -66.28120422363281 3.8525848388671875 -59.636810302734375C8.54205322265625 -47.84211730957031 12.37890625 -43.86322021484375 43.31050109863281 -18.473709106445312C55.48419189453125 -8.478958129882812 65.43150329589844 -0.142120361328125 65.43150329589844 -1.52587890625e-05C65.43150329589844 0.14208984375 55.48419189453125 8.478927612304688 43.31050109863281 18.473678588867188C17.636795043945312 39.552581787109375 13.0419921875 43.76838684082031 8.731521606445312 50.39997863769531C2.779632568359375 59.52897644042969 0.0298309326171875 69.56819152832031 0.0298309326171875 79.40489196777344C0.0298309326171875 103.15298461914062 16.0570068359375 125.71998596191406 41.74729919433594 131.44699096679688ZM61.2156982421875 96.96319580078125C58.97259521484375 98.03680419921875 56.2716064453125 98.55950927734375 53.502197265625 98.55950927734375C49.42939758300781 98.55950927734375 45.20869445800781 97.42900085449219 42.07890319824219 95.25790405273438C36.90159606933594 91.71099853515625 34.12519836425781 85.64230346679688 34.12519836425781 79.48210144042969C34.12519836425781 75.44090270996094 35.32000732421875 71.36019897460938 37.815704345703125 67.92630004882812C38.621002197265625 66.88420104980469 57.18939208984375 51.252593994140625 79.12100219726562 33.205291748046875C101.0050048828125 15.15789794921875 118.9580078125 0.236846923828125 118.9580078125 0.0C118.9580078125 -0.236846923828125 101.0050048828125 -15.15789794921875 79.12100219726562 -33.205291748046875C57.18939208984375 -51.252593994140625 38.621002197265625 -66.88420104980469 37.815704345703125 -67.92630004882812C35.29240417480469 -71.39801025390625 34.101104736328125 -75.42070007324219 34.101104736328125 -79.39689636230469C34.101104736328125 -86.54229736328125 37.94830322265625 -93.53768920898438 44.8262939453125 -96.91580200195312C46.935302734375 -97.9462890625 50.07499694824219 -98.45550537109375 53.183990478515625 -98.45550537109375C56.21989440917969 -98.45550537109375 59.22650146484375 -97.97000122070312 61.2156982421875 -97.010498046875C62.92100524902344 -96.15789794921875 79.02630615234375 -83.22630310058594 106.68899536132812 -60.39469909667969C130.23199462890625 -41.02110290527344 149.60499572753906 -25.105300903320312 149.7469940185547 -25.105300903320312C149.88900756835938 -25.105300903320312 169.26300048828125 -41.02110290527344 192.80499267578125 -60.39469909667969C220.46800231933594 -83.22630310058594 236.57400512695312 -96.15789794921875 238.2790069580078 -97.010498046875C240.26800537109375 -97.97000122070312 243.27499389648438 -98.45550537109375 246.31100463867188 -98.45550537109375C249.4199981689453 -98.45550537109375 252.5590057373047 -97.9462890625 254.66799926757812 -96.91580200195312C261.5459899902344 -93.53768920898438 265.3940124511719 -86.54229736328125 265.3940124511719 -79.39689636230469C265.3940124511719 -75.42070007324219 264.2019958496094 -71.39801025390625 261.6789855957031 -67.92630004882812C260.8739929199219 -66.88420104980469 242.30499267578125 -51.252593994140625 220.37399291992188 -33.205291748046875C198.48899841308594 -15.15789794921875 180.53700256347656 -0.236846923828125 180.53700256347656 0.0C180.53700256347656 0.236846923828125 198.48899841308594 15.15789794921875 220.37399291992188 33.205291748046875C242.30499267578125 51.252593994140625 260.8739929199219 66.88420104980469 261.6789855957031 67.92630004882812C264.2019958496094 71.39801025390625 265.3940124511719 75.42070007324219 265.3940124511719 79.39689636230469C265.3940124511719 86.54229736328125 261.5459899902344 93.53768920898438 254.66799926757812 96.91580200195312C252.5590057373047 97.9462890625 249.4199981689453 98.45550537109375 246.31100463867188 98.45550537109375C243.27499389648438 98.45550537109375 240.26800537109375 97.97000122070312 238.2790069580078 97.010498046875C236.57400512695312 96.15789794921875 220.46800231933594 83.22630310058594 192.80499267578125 60.39469909667969C169.26300048828125 41.02110290527344 149.88900756835938 25.105300903320312 149.7469940185547 25.105300903320312C149.60499572753906 25.105300903320312 130.23199462890625 41.02110290527344 106.68899536132812 60.39469909667969C78.17359924316406 83.93679809570312 62.96839904785156 96.11050415039062 61.2156982421875 96.96319580078125Z" fill="black" /></g></svg>