<?xml version="1.0" encoding="utf-8" ?>
<svg baseProfile="tiny" height="100%" version="1.2" width="100%" xmlns="http://www.w3.org/2000/svg" xmlns:ev="http://www.w3.org/2001/xml-events" xmlns:xlink="http://www.w3.org/1999/xlink"><defs /><g transform="translate(0, 1000) scale(1, -1)"><path d="M225.4739990234375 137.29299926757812C227.37100219726562 138.19200134277344 229.22799682617188 138.63999938964844 231.03199768066406 138.63999938964844C234.45399475097656 138.63999938964844 237.68499755859375 137.0290069580078 240.6320037841797 133.8350067138672L247.78399658203125 125.83000183105469C277.3420104980469 92.34019470214844 325.79998779296875 58.99278259277344 375.1579895019531 38.10337829589844C377.0050048828125 37.29808044433594 379.1369934082031 36.39808654785156 379.8949890136719 36.01908874511719C395.0530090332031 29.2454833984375 426.0790100097656 18.871780395507812 449.28900146484375 12.855987548828125C459.0950012207031 10.298080444335938 461.8420104980469 7.5033416748046875 461.8420104980469 0.066497802734375C461.8420104980469 -7.7019195556640625 459.75799560546875 -9.501922607421875 446.8739929199219 -12.91241455078125C360.80499267578125 -35.7440185546875 286.0580139160156 -78.89662170410156 243.0469970703125 -130.62301635742188C238.406005859375 -136.16702270507812 235.08099365234375 -138.6400146484375 231.4149932861328 -138.6400146484375C229.6929931640625 -138.6400146484375 227.89599609375 -138.09400939941406 225.85299682617188 -137.0650177001953C222.96299743652344 -135.59701538085938 222.44200134277344 -135.12301635742188 216.14199829101562 -127.59101867675781C211.78399658203125 -122.38101196289062 195.6320037841797 -106.27601623535156 189.23699951171875 -100.78102111816406C142.53199768066406 -60.56510925292969 84.60000610351562 -31.386123657226562 14.968399047851562 -12.91241455078125C2.0842132568359375 -9.501922607421875 0.0 -7.7019195556640625 0.0 0.066497802734375C0.0 7.5033416748046875 2.74737548828125 10.298080444335938 12.552597045898438 12.855987548828125C35.76319885253906 18.871780395507812 66.78948974609375 29.2454833984375 81.94740295410156 36.01908874511719C82.75259399414062 36.39808654785156 84.88420104980469 37.29808044433594 86.6842041015625 38.10337829589844C93.64739990234375 41.04017639160156 96.489501953125 42.366485595703125 107.05300903320312 47.57698059082031C147.2209930419922 67.47178649902344 180.4739990234375 90.96647644042969 207.0 118.29798889160156C212.02099609375 123.46098327636719 214.6739959716797 126.39799499511719 221.0679931640625 134.07199096679688C221.96800231933594 135.16098022460938 223.8159942626953 136.4879913330078 225.4739990234375 137.29298400878906ZM233.90499877929688 99.82438659667969C232.38900756835938 102.09797668457031 231.06300354003906 103.99298095703125 230.92100524902344 103.99298095703125C230.7790069580078 103.99298095703125 229.4530029296875 102.09797668457031 227.93699645996094 99.82438659667969C203.02099609375 61.31388854980469 162.18899536132812 24.79278564453125 119.93699645996094 3.14544677734375C117.14199829101562 1.7243804931640625 114.86799621582031 0.4454345703125 114.86799621582031 0.3033294677734375C114.86799621582031 0.161224365234375 117.37899780273438 -1.2124481201171875 120.4110107421875 -2.7756195068359375C162.28399658203125 -24.280914306640625 203.11599731445312 -60.89662170410156 227.98399353027344 -99.26512145996094C229.5 -101.53901672363281 230.7790069580078 -103.38601684570312 230.92100524902344 -103.38601684570312C231.06300354003906 -103.38601684570312 232.3419952392578 -101.53901672363281 233.85800170898438 -99.26512145996094C258.72601318359375 -60.89662170410156 299.5580139160156 -24.280914306640625 341.4320068359375 -2.7756195068359375C344.4630126953125 -1.2124481201171875 346.9739990234375 0.161224365234375 346.9739990234375 0.3033294677734375C346.9739990234375 0.4454345703125 344.70001220703125 1.7243804931640625 341.9049987792969 3.14544677734375C299.65301513671875 24.79278564453125 258.8210144042969 61.31388854980469 233.90499877929688 99.82438659667969Z" fill="black" /></g></svg>