<?xml version="1.0" encoding="utf-8" ?>
<svg baseProfile="tiny" height="100%" version="1.2" width="100%" xmlns="http://www.w3.org/2000/svg" xmlns:ev="http://www.w3.org/2001/xml-events" xmlns:xlink="http://www.w3.org/1999/xlink"><defs /><g transform="translate(0, 1000) scale(1, -1)"><path d="M108.75799560546875 246.03599548339844C110.79499816894531 246.43898010253906 127.906005859375 246.6239776611328 146.4499969482422 246.6239776611328C169.30499267578125 246.6239776611328 194.33700561523438 246.34397888183594 196.01100158691406 245.84698486328125C205.68699645996094 243.01498413085938 212.30599975585938 234.16297912597656 212.30599975585938 224.02398681640625V223.91497802734375C212.30599975585938 220.97799682617188 133.43699645996094 -169.66900634765625 121.78399658203125 -224.37899780273438C119.08399963378906 -237.16900634765625 112.9739990234375 -244.1790008544922 102.88400268554688 -246.02699279785156C100.69599914550781 -246.44200134277344 87.34490966796875 -246.62399291992188 71.81159973144531 -246.62399291992188C48.3507080078125 -246.62399291992188 19.911300659179688 -246.20899963378906 17.431793212890625 -245.55299377441406C6.857666015625 -242.76800537109375 0.0 -234.1020050048828 0.0 -223.44700622558594C0.0 -223.41099548339844 7.62939453125e-05 -223.37399291992188 0.000244140625 -223.33700561523438C0.000244140625 -217.1790008544922 90.94760131835938 229.03102111816406 93.12660217285156 233.72100830078125C96.06340026855469 239.92601013183594 102.22100830078125 244.8050079345703 108.75799560546875 246.0360107421875Z" fill="black" /></g></svg>