<?xml version="1.0" encoding="utf-8" ?>
<svg baseProfile="tiny" height="100%" version="1.2" width="100%" xmlns="http://www.w3.org/2000/svg" xmlns:ev="http://www.w3.org/2001/xml-events" xmlns:xlink="http://www.w3.org/1999/xlink"><defs /><g transform="translate(0, 1000) scale(1, -1)"><path d="M202.26300048828125 134.01199340820312C210.46099853515625 134.50599670410156 218.57899475097656 134.7469940185547 226.5959930419922 134.7469940185547C353.1600036621094 134.7469940185547 454.7359924316406 74.6737060546875 454.7359924316406 0.3577880859375C454.7359924316406 -5.073272705078125 454.1940002441406 -10.580398559570312 453.0790100097656 -16.145706176757812C439.260009765625 -85.11430358886719 340.7149963378906 -134.7469940185547 227.5030059814453 -134.7469940185547C213.4290008544922 -134.7469940185547 199.12899780273438 -133.97999572753906 184.73699951171875 -132.38800048828125C76.21578979492188 -120.35600280761719 0.0 -65.74050903320312 0.0 0.00689697265625C0.0 69.49639892578125 86.87370300292969 127.04901123046875 202.26300048828125 134.01199340820312ZM213.6320037841797 116.72299194335938C208.9879913330078 117.43499755859375 204.49398803710938 117.77899169921875 200.156982421875 117.77899169921875C154.17198181152344 117.77899169921875 125.9329833984375 79.08619689941406 125.9329833984375 30.1470947265625C125.9329833984375 4.1842041015625 133.8809814453125 -24.662506103515625 151.34197998046875 -52.14569091796875C178.69097900390625 -95.13430786132812 218.6519775390625 -117.54100036621094 253.78797912597656 -117.54100036621094C283.03599548339844 -117.54100036621094 308.9399871826172 -102.01400756835938 321.4419708251953 -69.90890502929688C326.23497009277344 -57.61909484863281 328.4519805908203 -44.40020751953125 328.4519805908203 -30.873306274414062C328.4519805908203 34.48249816894531 276.69898986816406 107.02899169921875 213.63198852539062 116.72299194335938Z" fill="black" /></g></svg>