<?xml version="1.0" encoding="utf-8" ?>
<svg baseProfile="tiny" height="100%" version="1.2" width="100%" xmlns="http://www.w3.org/2000/svg" xmlns:ev="http://www.w3.org/2001/xml-events" xmlns:xlink="http://www.w3.org/1999/xlink"><defs /><g transform="translate(0, 1000) scale(1, -1)"><path d="M108.75799560546875 246.03599548339844C110.83799743652344 246.43898010253906 143.16000366210938 246.6239776611328 178.48699951171875 246.6239776611328C222.02499389648438 246.6239776611328 270.12701416015625 246.34397888183594 271.79998779296875 245.84698486328125C281.47601318359375 243.01498413085938 288.0950012207031 234.16297912597656 288.0950012207031 224.02398681640625V223.91497802734375C288.0950012207031 220.97799682617188 209.2270050048828 -169.66900634765625 197.57400512695312 -224.37899780273438C194.87399291992188 -237.16900634765625 188.76300048828125 -244.1790008544922 178.6739959716797 -246.02699279785156C176.4290008544922 -246.44200134277344 151.0399932861328 -246.62399291992188 121.0419921875 -246.62399291992188C75.7340087890625 -246.62399291992188 19.911300659179688 -246.20899963378906 17.431793212890625 -245.55299377441406C6.857666015625 -242.76800537109375 0.0 -234.1020050048828 0.0 -223.44700622558594C0.0 -223.41099548339844 7.62939453125e-05 -223.37399291992188 0.000244140625 -223.33700561523438C0.000244140625 -217.1790008544922 90.94760131835938 229.03102111816406 93.12660217285156 233.72100830078125C96.06340026855469 239.92601013183594 102.22100830078125 244.8050079345703 108.75799560546875 246.0360107421875ZM236.88999938964844 200.08901977539062C236.88998413085938 200.51502990722656 226.13697814941406 200.6570281982422 184.7839813232422 200.6570281982422C143.47898864746094 200.6570281982422 132.583984375 200.51502990722656 132.44198608398438 200.0890350341797C132.29998779296875 199.7570343017578 113.92097473144531 109.52102661132812 91.56338500976562 -0.4215087890625L50.92127990722656 -200.3159637451172L103.0269775390625 -200.4579620361328C110.19097900390625 -200.46995544433594 117.03598022460938 -200.4759521484375 123.27496337890625 -200.4759521484375C141.9929656982422 -200.4759521484375 155.261962890625 -200.42295837402344 155.3689727783203 -200.31594848632812C155.60597229003906 -200.03195190429688 236.8899688720703 199.00003051757812 236.8899688720703 200.0890350341797Z" fill="black" /></g></svg>