<?xml version="1.0" encoding="utf-8" ?>
<svg baseProfile="tiny" height="100%" version="1.2" width="100%" xmlns="http://www.w3.org/2000/svg" xmlns:ev="http://www.w3.org/2001/xml-events" xmlns:xlink="http://www.w3.org/1999/xlink"><defs /><g transform="translate(0, 1000) scale(1, -1)"><path d="M156.07899475097656 137.85299682617188C157.31101989746094 138.4219970703125 159.06301879882812 138.7530059814453 161.05300903320312 138.7530059814453C166.87901306152344 138.7530059814453 168.86801147460938 137.09500122070312 174.31600952148438 127.8590087890625C204.67901611328125 76.13229370117188 251.33702087402344 36.53230285644531 308.7000274658203 13.7008056640625C317.98402404785156 10.005996704101562 319.54701232910156 8.916549682617188 321.44200134277344 4.9376068115234375C322.2530059814453 3.22418212890625 322.6430206298828 1.5245361328125 322.6430206298828 -0.104217529296875C322.6430206298828 -5.2296142578125 318.78501892089844 -9.652923583984375 312.06300354003906 -11.593994140625C301.35801696777344 -14.672897338867188 279.6160125732422 -25.42559814453125 262.89500427246094 -35.89399719238281C225.8050079345703 -59.15190124511719 190.989013671875 -95.38870239257812 172.80001831054688 -129.68299865722656C169.5950164794922 -135.74000549316406 165.81301879882812 -138.7530059814453 161.81301879882812 -138.7530059814453C157.2420196533203 -138.7530059814453 152.3880157470703 -134.8159942626953 147.7890167236328 -126.98300170898438C116.47901916503906 -73.69400024414062 66.60002136230469 -32.24659729003906 7.8631744384765625 -10.694000244140625C2.842132568359375 -8.846603393554688 1.52587890625e-05 -4.8676605224609375 1.52587890625e-05 0.4376068115234375C1.52587890625e-05 7.069183349609375 2.1789703369140625 9.295486450195312 12.789520263671875 13.41650390625C69.726318359375 35.490203857421875 117.33201599121094 75.84809875488281 147.7890167236328 127.8590087890625C151.72100830078125 134.5850067138672 153.37901306152344 136.6219940185547 156.07901000976562 137.85299682617188ZM176.968017578125 82.76390075683594C175.75599670410156 84.29498291015625 175.20199584960938 85.25848388671875 174.54800415039062 85.25848388671875C173.64300537109375 85.25848388671875 172.54600524902344 83.41758728027344 169.2469940185547 78.690185546875C144.14199829101562 42.595489501953125 103.21600341796875 6.2165374755859375 68.58950805664062 -10.741317749023438C67.07369995117188 -11.499221801757812 65.84210205078125 -12.209808349609375 65.84210205078125 -12.351913452148438C65.84210205078125 -12.4940185546875 67.07369995117188 -13.34661865234375 68.58950805664062 -14.19921875C96.06320190429688 -30.4940185546875 122.39999389648438 -53.894012451171875 146.2259979248047 -83.16770935058594C147.08200073242188 -84.21400451660156 147.53500366210938 -84.64491271972656 147.84100341796875 -84.64491271972656C147.99099731445312 -84.64491271972656 148.1060028076172 -84.53981018066406 148.21600341796875 -84.35191345214844C156.3159942626953 -70.9940185546875 178.76800537109375 -44.70451354980469 194.0679931640625 -30.683517456054688C212.58900451660156 -13.725616455078125 236.98399353027344 3.61126708984375 254.03700256347656 11.853378295898438C255.3800048828125 12.513381958007812 256.0769958496094 12.834381103515625 256.0769958496094 13.205184936523438C256.0769958496094 13.606185913085938 255.26100158691406 14.065383911132812 253.56300354003906 15.074386596679688C226.8000030517578 30.942886352539062 196.7209930419922 57.5164794921875 176.96800231933594 82.76388549804688Z" fill="black" /></g></svg>