<?xml version="1.0" encoding="utf-8" ?>
<svg baseProfile="tiny" height="100%" version="1.2" width="100%" xmlns="http://www.w3.org/2000/svg" xmlns:ev="http://www.w3.org/2001/xml-events" xmlns:xlink="http://www.w3.org/1999/xlink"><defs /><g transform="translate(0, 1000) scale(1, -1)"><path d="M157.29100036621094 148.1840057373047C158.1389923095703 148.4879913330078 159.0869903564453 148.62698364257812 160.08499145507812 148.62698364257812C165.4449920654297 148.62698364257812 172.2119903564453 144.6129913330078 172.2119903564453 140.69898986816406C172.2119903564453 140.36798095703125 173.1589813232422 137.9049835205078 174.29598999023438 135.20498657226562L180.26498413085938 121.0889892578125L192.34397888183594 93.37818908691406L199.6859893798828 77.27299499511719C216.64398193359375 39.70979309082031 242.12799072265625 -9.790191650390625 261.87998962402344 -43.516510009765625C280.7799835205078 -75.72700500488281 296.41197204589844 -99.9796142578125 309.7699737548828 -117.55302429199219C320.8829803466797 -132.2360076904297 321.68199157714844 -132.9920196533203 321.68199157714844 -135.8500213623047C321.68199157714844 -136.33001708984375 321.6589813232422 -136.8690185546875 321.6589813232422 -137.5430145263672C321.6589813232422 -144.65301513671875 317.6799774169922 -148.62701416015625 310.6529998779297 -148.62701416015625H310.5279998779297H306.5019989013672L298.6859893798828 -144.79000854492188C256.2229766845703 -123.9100341796875 208.552978515625 -113.1650390625 160.7799835205078 -113.1650390625C137.67498779296875 -113.1650390625 114.54498291015625 -115.67903137207031 91.96998596191406 -120.77403259277344C66.5330810546875 -126.50602722167969 44.790985107421875 -134.03802490234375 23.001480102539062 -144.79002380371094L15.185775756835938 -148.6270294189453H11.159378051757812H11.034271240234375C4.0068817138671875 -148.62701416015625 0.02783203125 -144.65301513671875 0.02783203125 -137.5430145263672C0.02783203125 -136.8240203857422 -3.0517578125e-05 -136.26101684570312 -3.0517578125e-05 -135.7630157470703C-3.0517578125e-05 -133.010009765625 0.848785400390625 -132.19100952148438 11.917266845703125 -117.55302429199219C27.359375 -97.13751220703125 53.601470947265625 -55.690216064453125 70.70147705078125 -24.569107055664062C88.08576965332031 6.978240966796875 109.25897216796875 49.0413818359375 122.00196838378906 77.27299499511719L129.34396362304688 93.37818908691406L135.50196838378906 107.114990234375L147.7699737548828 136.19900512695312C151.2279510498047 144.3470001220703 153.0279541015625 146.66799926757812 157.29095458984375 148.1840057373047Z" fill="black" /></g></svg>