<?xml version="1.0" encoding="utf-8" ?>
<svg baseProfile="tiny" height="100%" version="1.2" width="100%" xmlns="http://www.w3.org/2000/svg" xmlns:ev="http://www.w3.org/2001/xml-events" xmlns:xlink="http://www.w3.org/1999/xlink"><defs /><g transform="translate(0, 1000) scale(1, -1)"><path d="M16.735992431640625 132.01600646972656C18.004898071289062 132.38101196289062 19.89239501953125 132.5480194091797 21.930496215820312 132.5480194091797C25.446701049804688 132.5480194091797 29.411102294921875 132.05001831054688 31.420196533203125 131.2110137939453C35.54130554199219 129.4580078125 35.730804443359375 129.31600952148438 94.08859252929688 78.82112121582031C124.5469970703125 52.38951110839844 149.65199279785156 30.789520263671875 149.84100341796875 30.789520263671875C150.031005859375 30.789520263671875 175.13600158691406 52.38951110839844 205.64100646972656 78.82112121582031C236.14700317382812 105.25300598144531 262.1520080566406 127.56301879882812 263.38299560546875 128.4630126953125C267.6310119628906 131.5180206298828 272.1600036621094 132.85601806640625 276.52801513671875 132.85601806640625C288.7359924316406 132.85601806640625 299.6830139160156 122.40202331542969 299.6830139160156 109.76200866699219C299.6830139160156 106.44902038574219 298.92999267578125 102.98600769042969 297.25201416015625 99.5211181640625C295.2149963378906 95.30531311035156 293.0830078125 93.41050720214844 237.94700622558594 45.71051025390625C209.14700317382812 20.794723510742188 185.60400390625 0.2368621826171875 185.60400390625 1.52587890625e-05C185.60400390625 -0.2368316650390625 209.14700317382812 -20.794692993164062 237.94700622558594 -45.710479736328125C293.0830078125 -93.41047668457031 295.2149963378906 -95.30528259277344 297.25201416015625 -99.52108764648438C298.92999267578125 -102.98597717285156 299.6830139160156 -106.44898986816406 299.6830139160156 -109.76197814941406C299.6830139160156 -122.40199279785156 288.7359924316406 -132.85598754882812 276.52801513671875 -132.85598754882812C272.1600036621094 -132.85598754882812 267.6310119628906 -131.5179901123047 263.38299560546875 -128.46298217773438C262.10400390625 -127.56298828125 236.0989990234375 -105.20498657226562 205.593994140625 -78.82109069824219C175.13600158691406 -52.38948059082031 150.031005859375 -30.78948974609375 149.84100341796875 -30.78948974609375C149.65199279785156 -30.78948974609375 124.5469970703125 -52.38948059082031 94.08859252929688 -78.82109069824219C63.583404541015625 -105.20498657226562 37.578094482421875 -127.56298828125 36.2991943359375 -128.46298217773438C32.05169677734375 -131.5179901123047 27.52239990234375 -132.85598754882812 23.154693603515625 -132.85598754882812C10.946197509765625 -132.85598754882812 0.0 -122.40199279785156 0.0 -109.76197814941406C0.0 -106.44898986816406 0.752105712890625 -102.98597717285156 2.430755615234375 -99.52108764648438C4.46759033203125 -95.35258483886719 6.5518035888671875 -93.4578857421875 61.735992431640625 -45.710479736328125C90.5360107421875 -20.842086791992188 114.0780029296875 -0.2368316650390625 114.0780029296875 1.52587890625e-05C114.0780029296875 0.2368621826171875 90.5360107421875 20.794723510742188 61.735992431640625 45.71051025390625C32.936004638671875 70.62631225585938 8.114959716796875 92.32112121582031 6.5518035888671875 93.93162536621094C2.136138916015625 98.53851318359375 0.0875396728515625 104.24900817871094 0.0875396728515625 109.8690185546875C0.0875396728515625 119.56301879882812 6.181671142578125 128.9870147705078 16.735992431640625 132.01602172851562Z" fill="black" /></g></svg>