<?xml version="1.0" encoding="utf-8" ?>
<svg baseProfile="tiny" height="100%" version="1.2" width="100%" xmlns="http://www.w3.org/2000/svg" xmlns:ev="http://www.w3.org/2001/xml-events" xmlns:xlink="http://www.w3.org/1999/xlink"><defs /><g transform="translate(0, 1000) scale(1, -1)"><path d="M153.72500610351562 133.7259979248047C154.81700134277344 134.9919891357422 156.05999755859375 135.59698486328125 157.3560028076172 135.59698486328125C160.2760009765625 135.59698486328125 163.4600067138672 132.52598571777344 165.75599670410156 127.04698181152344C166.656005859375 124.91499328613281 173.57200622558594 115.06298828125 180.156005859375 106.6309814453125C212.36700439453125 65.23098754882812 255.8040008544922 28.994186401367188 308.2409973144531 -0.090057373046875C312.88299560546875 -2.6953277587890625 317.0979919433594 -5.158477783203125 317.5719909667969 -5.5847930908203125C318.4679870605469 -6.344696044921875 318.8919982910156 -7.385101318359375 318.8919982910156 -8.435699462890625C318.8919982910156 -9.939178466796875 318.0249938964844 -11.463516235351562 316.43499755859375 -12.216415405273438C312.5979919433594 -14.01641845703125 282.89801025390625 -33.53211975097656 268.2139892578125 -43.8585205078125C226.52999877929688 -73.22691345214844 184.56199645996094 -109.32200622558594 166.98800659179688 -131.01602172851562C165.66200256347656 -132.67401123046875 164.3350067138672 -134.33201599121094 164.05099487304688 -134.6160125732422C163.52099609375 -135.28701782226562 162.8209991455078 -135.59701538085938 162.02099609375 -135.59701538085938C159.31500244140625 -135.59701538085938 155.4600067138672 -132.05001831054688 153.156005859375 -126.89500427246094C151.9720001220703 -124.29002380371094 145.38800048828125 -114.864013671875 138.56700134277344 -106.14802551269531C106.26199340820312 -64.60581970214844 62.019500732421875 -27.800613403320312 9.8194580078125 0.9520416259765625C3.3579864501953125 4.5115203857421875 0.0 6.44329833984375 0.0 8.601531982421875C0.0 10.952484130859375 3.9845428466796875 13.572280883789062 12.2825927734375 18.857284545898438C61.92469787597656 50.40467834472656 104.79299926757812 83.6099853515625 135.677001953125 114.39898681640625C143.4459991455078 122.11997985839844 146.61900329589844 125.53099060058594 153.72500610351562 133.72598266601562ZM135.81900024414062 76.173095703125C133.11900329589844 79.7257080078125 130.8459930419922 82.66259765625 130.79800415039062 82.66259765625C130.75100708007812 82.66259765625 129.09300231933594 81.24150085449219 127.1510009765625 79.53630065917969C110.7139892578125 65.04150390625 86.08261108398438 45.57310485839844 68.5089111328125 33.115203857421875L65.09840393066406 30.746795654296875L75.66160583496094 23.641494750976562C118.15101623535156 -4.874267578125 155.0980224609375 -39.074310302734375 182.90402221679688 -75.69001770019531L187.83001708984375 -82.17951965332031L189.3930206298828 -80.90061950683594L198.01402282714844 -73.46372985839844C211.041015625 -62.19004821777344 235.57701110839844 -43.00584411621094 250.21401977539062 -32.63214111328125L253.62501525878906 -30.263748168945312L243.06201171875 -23.158554077148438C200.57200622558594 5.357269287109375 163.625 39.5572509765625 135.81900024414062 76.17304992675781Z" fill="black" /></g></svg>