<?xml version="1.0" encoding="utf-8" ?>
<svg baseProfile="tiny" height="100%" version="1.2" width="100%" xmlns="http://www.w3.org/2000/svg" xmlns:ev="http://www.w3.org/2001/xml-events" xmlns:xlink="http://www.w3.org/1999/xlink"><defs /><g transform="translate(0, 1000) scale(1, -1)"><path d="M157.31100463867188 137.8249969482422C158.28199768066406 138.10598754882812 159.31900024414062 138.23898315429688 160.37399291992188 138.23898315429688C164.4600067138672 138.23898315429688 168.8040008544922 136.25198364257812 170.57400512695312 133.2769775390625C177.3470001220703 121.76698303222656 181.13699340820312 115.65599060058594 183.83700561523438 111.77198791503906C215.4320068359375 66.3455810546875 256.73699951171875 33.66139221191406 308.4159851074219 13.103485107421875C320.0679931640625 8.508743286132812 321.6319885253906 6.8982086181640625 321.6319885253906 -0.396514892578125C321.6319885253906 -6.7438812255859375 319.1679992675781 -9.917572021484375 312.9159851074219 -11.764907836914062C290.0369873046875 -18.586013793945312 250.3419952392578 -42.27021789550781 227.6529998779297 -62.591217041015625C203.54200744628906 -84.23861694335938 189.09500122070312 -102.19102478027344 170.57400512695312 -133.59701538085938C168.53700256347656 -137.05401611328125 166.07400512695312 -138.239013671875 161.05299377441406 -138.239013671875C154.2790069580078 -138.239013671875 153.71099853515625 -137.718017578125 146.2259979248047 -125.40202331542969C119.74700927734375 -81.44392395019531 81.23680114746094 -45.96492004394531 35.52630615234375 -23.370208740234375C25.8157958984375 -18.586013793945312 13.16839599609375 -13.13861083984375 8.715789794921875 -11.764907836914062C2.463165283203125 -9.917572021484375 0.0 -6.7438812255859375 0.0 -0.396514892578125C0.0 6.8982086181640625 1.5631561279296875 8.508743286132812 13.215805053710938 13.103485107421875C70.010498046875 35.69818115234375 115.43699645996094 73.92457580566406 146.2259979248047 125.08198547363281C152.47900390625 135.36097717285156 153.71099853515625 136.82998657226562 157.31100463867188 137.82498168945312Z" fill="black" /></g></svg>