<?xml version="1.0" encoding="utf-8" ?>
<svg baseProfile="tiny" height="100%" version="1.2" width="100%" xmlns="http://www.w3.org/2000/svg" xmlns:ev="http://www.w3.org/2001/xml-events" xmlns:xlink="http://www.w3.org/1999/xlink"><defs /><g transform="translate(0, 1000) scale(1, -1)"><path d="M93.3153076171875 459.1789855957031 95.6837158203125 460.3160095214844 146.17800903320312 460.17401123046875 196.6730194091797 460.0790100097656 198.9940185546875 458.6579895019531C200.2729949951172 457.8529968261719 201.93099975585938 456.24200439453125 202.73599243164062 455.1050109863281L204.15699768066406 452.9739990234375L204.44200134277344 285.5260009765625C204.6309814453125 166.6320037841797 204.86798095703125 116.75299072265625 205.24697875976562 113.53199768066406C207.99398803710938 89.84739685058594 217.32598876953125 77.48419189453125 242.57298278808594 64.07890319824219C251.8569793701172 59.15260314941406 253.42098999023438 57.21049499511719 253.42098999023438 50.8157958984375C253.42098999023438 45.69999694824219 252.18898010253906 43.33160400390625 248.25698852539062 40.868408203125L245.9359893798828 39.44740295410156H145.656982421875H45.37847900390625L43.057373046875 40.868408203125C39.12586975097656 43.33160400390625 37.89427185058594 45.69999694824219 37.89427185058594 50.8157958984375C37.89427185058594 57.21049499511719 39.457366943359375 59.15260314941406 48.7415771484375 64.07890319824219C53.99946594238281 66.87370300292969 55.3731689453125 67.67889404296875 59.920562744140625 70.71051025390625C76.83106994628906 82.03160095214844 83.699462890625 93.21051025390625 86.06796264648438 113.34201049804688C86.39947509765625 116.18399047851562 86.63636779785156 160.66299438476562 86.7310791015625 249.5260009765625L86.96798706054688 381.4469909667969L74.88897705078125 363.21099853515625L28.799468994140625 293.20001220703125C18.283676147460938 277.1419982910156 17.19427490234375 276.0530090332031 11.367965698242188 276.0530090332031C4.2047119140625 276.0530090332031 -3.0517578125e-05 281.2449951171875 -3.0517578125e-05 287.90399169921875C-3.0517578125e-05 291.46099853515625 1.1996612548828125 295.43701171875 3.7889862060546875 299.26300048828125C4.4047698974609375 300.1629943847656 8.336349487304688 307.3160095214844 12.552169799804688 315.1319885253906L53.05216979980469 389.9739990234375L74.84156799316406 430.23699951171875C88.48365783691406 455.4840087890625 88.19944763183594 455.010986328125 89.71525573730469 456.71600341796875C90.37846374511719 457.4739990234375 92.03636169433594 458.56298828125 93.31526184082031 459.1789855957031ZM126.70994567871094 -0.1732177734375H127.70994567871094H125.70994567871094ZM126.70994567871094 485.8269958496094H127.70994567871094H125.70994567871094Z" fill="black" /></g></svg>