<?xml version="1.0" encoding="utf-8" ?>
<svg baseProfile="tiny" height="100%" version="1.2" width="100%" xmlns="http://www.w3.org/2000/svg" xmlns:ev="http://www.w3.org/2001/xml-events" xmlns:xlink="http://www.w3.org/1999/xlink"><defs /><g transform="translate(0, 1000) scale(1, -1)"><path d="M136.05799865722656 276.5840148925781C138.8620147705078 276.91400146484375 141.64501953125 277.07598876953125 144.39801025390625 277.07598876953125C169.3610076904297 277.07598876953125 191.79701232910156 263.75 204.1260223388672 241.01100158691406C207.916015625 234.0469970703125 212.08401489257812 221.87399291992188 212.08401489257812 217.7050018310547C212.10601806640625 215.90699768066406 212.1690216064453 214.9510040283203 212.6710205078125 214.9510040283203C213.25502014160156 214.9510040283203 214.4300079345703 216.23699951171875 216.82101440429688 218.98399353027344C238.75302124023438 244.37399291992188 270.5840301513672 265.3110046386719 290.5740203857422 267.6319885253906C293.00502014160156 267.90899658203125 295.43202209472656 268.0459899902344 297.8460235595703 268.0459899902344C333.71702575683594 268.0459899902344 366.9550018310547 237.9980010986328 375.7420196533203 196.05799865722656C377.0740203857422 189.73500061035156 377.72300720214844 181.24200439453125 377.72300720214844 171.66200256347656C377.72300720214844 157.05599975585938 376.2150115966797 139.9239959716797 373.3260040283203 124.10501098632812C358.54701232910156 43.19999694824219 303.0320281982422 -18.947402954101562 240.17401123046875 -24.915802001953125C237.3670196533203 -25.179901123046875 234.60801696777344 -25.308807373046875 231.92701721191406 -25.308807373046875C219.21900939941406 -25.308807373046875 208.24700927734375 -22.413497924804688 202.18402099609375 -17.289505004882812L195.1260223388672 -11.463211059570312C181.20001220703125 -1.52587890625e-05 171.06301879882812 15.110488891601562 165.85301208496094 32.16319274902344C165.0900115966797 34.71978759765625 164.32801818847656 36.681884765625 164.12802124023438 36.681884765625C164.1170196533203 36.681884765625 164.10801696777344 36.675689697265625 164.1000213623047 36.66319274902344C163.53201293945312 35.66838073730469 110.66801452636719 -139.97401428222656 110.43202209472656 -141.82101440429688C110.40701293945312 -141.99501037597656 110.39401245117188 -142.166015625 110.39401245117188 -142.33502197265625C110.39401245117188 -145.40200805664062 114.52401733398438 -147.82601928710938 125.16300964355469 -151.05801391601562C128.05300903320312 -151.9110107421875 129.42601013183594 -152.2890167236328 138.85301208496094 -154.75302124023438C148.1370086669922 -157.1210174560547 150.7420196533203 -159.82101440429688 150.7420196533203 -166.97401428222656C150.7420196533203 -172.08901977539062 149.51101684570312 -174.4580078125 145.57901000976562 -176.9210205078125L143.2580108642578 -178.34201049804688H56.24211120605469H-30.773696899414062L-33.094696044921875 -176.9210205078125C-37.02630615234375 -174.45799255371094 -38.257904052734375 -172.08900451660156 -38.257904052734375 -166.9739990234375C-38.257904052734375 -159.53700256347656 -35.60530090332031 -156.97900390625 -25.65789794921875 -154.7050018310547C-15.710494995117188 -152.47900390625 -14.242095947265625 -152.14700317382812 -9.836837768554688 -151.05799865722656C-7.5157928466796875 -150.48899841308594 -5.194732666015625 -149.87399291992188 -4.626312255859375 -149.6840057373047C-4.105255126953125 -149.44700622558594 -1.8789520263671875 -148.73699951171875 0.3473663330078125 -148.0260009765625C10.152603149414062 -144.89999389648438 16.736801147460938 -140.4949951171875 19.010498046875 -135.4739990234375C21.047393798828125 -131.02099609375 120.52099609375 199.32598876953125 120.85299682617188 202.64198303222656C120.9949951171875 204.25299072265625 121.70500183105469 207.7579803466797 122.36799621582031 210.45797729492188C123.1300048828125 213.37197875976562 123.4840087890625 216.2559814453125 123.4840087890625 218.9559783935547C123.4840087890625 227.44598388671875 119.98699951171875 234.10897827148438 114.68800354003906 234.10897827148438C114.55000305175781 234.10897827148438 114.41000366210938 234.10398864746094 114.26800537109375 234.09498596191406C92.14739990234375 232.5789794921875 63.01580810546875 202.3579864501953 48.85260009765625 166.2629852294922C45.39289855957031 157.42198181152344 43.97450256347656 155.39698791503906 39.908905029296875 155.39698791503906C39.4656982421875 155.39698791503906 38.99110412597656 155.42098999023438 38.47889709472656 155.46298217773438C34.12739562988281 155.82098388671875 31.91229248046875 157.75498962402344 31.91229248046875 162.0439910888672C31.91229248046875 167.4189910888672 35.391693115234375 176.49398803710938 42.50529479980469 190.79998779296875C57.47369384765625 220.8319854736328 77.368408203125 243.8529815673828 103.13699340820312 260.9049835205078C106.92599487304688 263.3679962158203 110.9530029296875 266.2579803466797 112.0889892578125 267.2529754638672C116.82598876953125 271.3739776611328 127.67401123046875 275.58897399902344 136.05799865722656 276.58399963378906ZM275.1789855957031 221.68399047851562C273.5480041503906 222.13397216796875 271.7309875488281 222.35096740722656 269.76300048828125 222.35096740722656C256.4150085449219 222.35096740722656 236.1999969482422 212.3779754638672 221.1320037841797 197.76296997070312C212.6529998779297 189.52096557617188 211.23199462890625 187.72096252441406 209.62100219726562 183.03196716308594C208.86300659179688 180.75796508789062 207.53700256347656 177.4889678955078 206.63699340820312 175.73696899414062C205.64199829101562 173.74696350097656 199.53199768066406 154.4209747314453 189.8209991455078 122.1629638671875L174.5679931640625 71.76315307617188L174.80499267578125 67.21575927734375C175.46800231933594 56.178863525390625 179.30499267578125 44.194671630859375 185.03700256347656 35.526275634765625C190.38800048828125 27.352569580078125 200.2729949951172 20.115768432617188 205.36000061035156 20.115768432617188C205.99200439453125 20.115768432617188 206.5500030517578 20.22747802734375 207.01600646972656 20.463165283203125C207.8679962158203 20.88946533203125 211.13699340820312 22.4052734375 214.31100463867188 23.826263427734375C246.80499267578125 38.321075439453125 278.6839904785156 79.81576538085938 291.1419982910156 123.91596984863281C296.4460144042969 142.72996520996094 299.2669982910156 162.46896362304688 299.2669982910156 178.0289764404297C299.2669982910156 187.6189727783203 298.19500732421875 195.62196350097656 295.9739990234375 200.8419647216797C292.1839904785156 209.65296936035156 282.1419982910156 219.74197387695312 275.1789855957031 221.68397521972656Z" fill="black" /></g></svg>