<?xml version="1.0" encoding="utf-8" ?>
<svg baseProfile="tiny" height="100%" version="1.2" width="100%" xmlns="http://www.w3.org/2000/svg" xmlns:ev="http://www.w3.org/2001/xml-events" xmlns:xlink="http://www.w3.org/1999/xlink"><defs /><g transform="translate(0, 1000) scale(1, -1)"><path d="M102.23599243164062 275.1340026855469C104.35198974609375 275.3529968261719 106.42900085449219 275.4599914550781 108.4639892578125 275.4599914550781C141.802001953125 275.4599914550781 163.98300170898438 246.83999633789062 163.98300170898438 216.99099731445312C163.98300170898438 201.093994140625 157.6929931640625 184.8489990234375 143.4459991455078 172.39199829101562C140.03599548339844 169.36000061035156 119.14599609375 153.06500244140625 117.91500854492188 152.40199279785156C116.114990234375 151.4550018310547 60.9779052734375 109.67599487304688 58.562103271484375 107.44999694824219C58.5177001953125 107.40798950195312 58.496307373046875 107.31500244140625 58.496307373046875 107.17500305175781C58.496307373046875 104.63400268554688 65.59469604492188 86.57308959960938 70.30950927734375 77.32319641113281C76.65689086914062 64.86529541015625 80.39900207519531 60.791595458984375 89.162109375 56.48109436035156C97.35820007324219 52.493804931640625 106.40200805664062 50.591094970703125 115.77400207519531 50.591094970703125C142.4759979248047 50.591094970703125 171.8489990234375 66.03579711914062 191.9040069580078 92.7178955078125C196.7830047607422 99.2073974609375 198.4409942626953 100.8179931640625 201.2830047607422 101.86000061035156C202.6300048828125 102.35600280761719 203.96200561523438 102.58399963378906 205.24400329589844 102.58399963378906C211.50599670410156 102.58399963378906 216.59100341796875 97.14610290527344 216.59100341796875 90.98489379882812C216.59100341796875 89.13780212402344 216.13400268554688 87.22579956054688 215.11500549316406 85.37579345703125C213.50399780273438 82.48638916015625 192.4250030517578 52.928497314453125 188.9199981689453 48.61790466308594C162.7790069580078 16.796905517578125 126.69100952148438 -0.2364349365234375 93.077392578125 -0.2364349365234375C71.75050354003906 -0.2364349365234375 51.41949462890625 6.620330810546875 35.25689697265625 20.907394409179688C23.177902221679688 31.5653076171875 7.830535888671875 67.51789855957031 2.8568572998046875 96.93370056152344C0.941619873046875 108.20999145507812 0.0 119.31300354003906 0.0 130.1230010986328C0.0 171.71499633789062 13.939102172851562 208.96800231933594 39.99369812011719 235.05999755859375C44.77789306640625 239.89199829101562 67.79901123046875 258.4129943847656 76.23049926757812 264.2860107421875C83.85690307617188 269.6390075683594 95.36740112304688 274.3760070800781 102.23599243164062 275.1340026855469ZM93.89900207519531 235.05999755859375C91.84501647949219 235.50100708007812 89.85441589355469 235.7169952392578 87.95231628417969 235.7169952392578C81.47611999511719 235.7169952392578 76.02491760253906 233.2100067138672 72.58320617675781 228.5229949951172C58.220611572265625 208.95799255371094 50.74540710449219 184.13299560546875 50.74540710449219 155.89100646972656C50.74540710449219 154.04800415039062 50.77720642089844 152.19000244140625 50.84111022949219 150.3179931640625C51.12532043457031 141.41299438476562 51.97792053222656 132.74400329589844 52.54631042480469 132.74400329589844C52.68841552734375 132.74400329589844 60.12532043457031 138.38099670410156 69.07792663574219 145.25L98.16212463378906 167.37100219726562C112.37301635742188 178.0760040283203 114.07801818847656 179.8280029296875 117.39401245117188 187.73899841308594C119.25801086425781 192.1439971923828 120.12701416015625 196.73199462890625 120.12701416015625 201.2480010986328C120.12701416015625 216.9320068359375 109.6400146484375 231.75 93.89901733398438 235.05999755859375Z" fill="black" /></g></svg>