<?xml version="1.0" encoding="utf-8" ?>
<svg baseProfile="tiny" height="100%" version="1.2" width="100%" xmlns="http://www.w3.org/2000/svg" xmlns:ev="http://www.w3.org/2001/xml-events" xmlns:xlink="http://www.w3.org/1999/xlink"><defs /><g transform="translate(0, 1000) scale(1, -1)"><path d="M206.29600524902344 499.1390075683594C208.8289794921875 499.7900085449219 213.2539825439453 500.12200927734375 217.6499786376953 500.12200927734375C221.885986328125 500.12200927734375 226.09498596191406 499.8139953613281 228.55899047851562 499.1860046386719C250.8359832763672 493.4649963378906 263.5139923095703 474.1549987792969 263.5139923095703 454.17498779296875C263.5139923095703 441.57000732421875 258.4679718017578 428.6969909667969 247.60198974609375 418.802001953125C236.32798767089844 408.5710144042969 229.364990234375 396.8710021972656 229.364990234375 388.343994140625C229.40399169921875 369.6099853515625 243.71298217773438 355.364990234375 259.88697814941406 355.364990234375C263.01499938964844 355.364990234375 266.21299743652344 355.89801025390625 269.39097595214844 357.03399658203125C287.2489776611328 363.3810119628906 292.83799743652344 373.47100830078125 292.83799743652344 399.1919860839844C292.83799743652344 422.3070068359375 301.41197204589844 437.08599853515625 320.0279998779297 445.8970031738281C325.63499450683594 448.55999755859375 331.8949737548828 449.82000732421875 338.2179718017578 449.82000732421875C352.2489776611328 449.82000732421875 366.58998107910156 443.61700439453125 374.78599548339844 432.7760009765625C381.57398986816406 423.7699890136719 384.8479766845703 413.5639953613281 384.8479766845703 403.59698486328125C384.8479766845703 388.6619873046875 377.4979705810547 374.2619934082031 363.6069793701172 365.2279968261719C354.7959747314453 359.49700927734375 348.7329864501953 358.02801513671875 332.48597717285156 357.7919921875C318.89097595214844 357.60198974609375 313.1119842529297 356.51300048828125 305.57997131347656 352.7229919433594C297.1189727783203 348.5150146484375 290.55299377441406 335.9580078125 290.55299377441406 324.25799560546875C290.55299377441406 323.97198486328125 290.55699157714844 323.68701171875 290.5649871826172 323.4020080566406L290.7069854736328 317.385986328125L292.93299865722656 312.9339904785156C297.43299865722656 303.885986328125 304.86997985839844 298.10699462890625 315.47999572753906 295.4070129394531C317.91197204589844 294.7879943847656 320.2589874267578 294.4649963378906 322.57798767089844 294.4649963378906C331.77598571777344 294.4649963378906 340.5199737548828 299.5379943847656 352.28599548339844 311.2279968261719C364.2539825439453 323.093994140625 375.85398864746094 328.8240051269531 388.51698303222656 328.8240051269531C393.4459991455078 328.8240051269531 398.5349884033203 327.95599365234375 403.86997985839844 326.2439880371094C424.6709747314453 319.5570068359375 435.10398864746094 300.9230041503906 435.10398864746094 282.3599853515625C435.10398864746094 263.97698974609375 424.8719940185547 245.66200256347656 404.34397888183594 239.08599853515625C398.7949981689453 237.3040008544922 393.51197814941406 236.4029998779297 388.4189910888672 236.4029998779297C375.6449737548828 236.4029998779297 364.0709991455078 242.072998046875 352.5229949951172 253.72300720214844C341.0749969482422 265.2959899902344 331.7739715576172 270.7349853515625 322.23597717285156 270.7349853515625C317.32899475097656 270.7349853515625 312.35899353027344 269.2959899902344 307.0019989013672 266.51300048828125C296.1489715576172 260.8590087890625 290.35597229003906 251.5500030517578 290.35597229003906 240.8489990234375C290.35597229003906 235.9499969482422 291.5709991455078 230.75799560546875 294.0699920654297 225.49200439453125C300.41697692871094 212.13400268554688 309.1329803466797 208.01300048828125 332.6279754638672 207.35000610351562C356.5959930419922 206.63900756835938 367.2539825439453 201.6179962158203 377.39097595214844 186.1280059814453C382.55699157714844 178.24099731445312 384.86399841308594 169.7570037841797 384.86399841308594 161.49400329589844C384.86399841308594 137.37899780273438 365.20799255371094 115.1510009765625 339.58299255371094 115.1510009765625C336.5509796142578 115.1510009765625 333.4359893798828 115.46200561523438 330.2589874267578 116.11799621582031C306.2439727783203 121.04400634765625 292.83799743652344 138.90199279785156 292.83799743652344 165.8070068359375C292.83799743652344 191.38600158691406 287.2019805908203 201.6179962158203 269.6279754638672 208.05999755859375C266.35899353027344 209.2550048828125 263.0459747314453 209.82699584960938 259.7959747314453 209.82699584960938C247.97698974609375 209.82699584960938 236.99598693847656 202.26600646972656 232.01698303222656 189.63400268554688C230.28598022460938 185.29200744628906 229.3739776611328 181.32400512695312 229.3739776611328 177.45700073242188C229.3739776611328 168.2030029296875 234.59698486328125 159.52499389648438 246.32298278808594 147.6649932861328C256.03297424316406 137.90699768066406 258.96998596191406 133.36000061035156 261.85899353027344 123.74400329589844C262.82997131347656 120.5469970703125 263.3159942626953 115.73899841308594 263.3159942626953 110.93699645996094C263.3159942626953 106.135009765625 262.82997131347656 101.3389892578125 261.85899353027344 98.16529846191406C254.927978515625 75.39140319824219 236.3599853515625 64.83590698242188 217.87599182128906 64.83590698242188C194.8009796142578 64.83590698242188 171.85897827148438 81.28729248046875 171.85897827148438 110.95500183105469C171.85897827148438 126.58599853515625 175.4119873046875 134.3070068359375 188.53298950195312 147.4759979248047C201.1099853515625 160.14700317382812 205.30198669433594 167.43099975585938 205.30198669433594 176.9669952392578V177.1280059814453C205.1829833984375 195.91500854492188 191.31198120117188 209.85501098632812 175.31298828125 209.85501098632812C172.0699920654297 209.85501098632812 168.73898315429688 209.28201293945312 165.4169921875 208.0600128173828C147.84397888183594 201.61801147460938 142.2069854736328 191.38601684570312 142.2069854736328 165.80702209472656C142.2069854736328 138.90200805664062 128.80198669433594 121.04402160644531 104.78599548339844 116.11801147460938C101.6099853515625 115.46202087402344 98.49418640136719 115.15101623535156 95.46238708496094 115.15101623535156C69.83699035644531 115.15101623535156 50.18067932128906 137.37901306152344 50.18067932128906 161.4940185546875C50.18067932128906 169.75701904296875 52.48838806152344 178.2410125732422 57.65419006347656 186.12802124023438C67.79098510742188 201.61801147460938 78.44888305664062 206.63902282714844 102.41697692871094 207.3500213623047C122.64398193359375 207.9180145263672 129.8909912109375 210.33401489257812 136.5699920654297 218.62301635742188C142.06698608398438 225.4610137939453 144.72198486328125 233.0430145263672 144.72198486328125 240.27902221679688C144.72198486328125 250.93601989746094 138.9619903564453 260.84202575683594 128.0439910888672 266.5130157470703C122.72898864746094 269.2740020751953 117.76997375488281 270.69602966308594 112.86698913574219 270.69602966308594C103.21598815917969 270.69602966308594 93.78169250488281 265.18702697753906 82.28578186035156 253.5340118408203C70.95628356933594 242.0080108642578 59.30229187011719 236.42001342773438 46.410980224609375 236.42001342773438C43.72569274902344 236.42001342773438 40.98667907714844 236.66201782226562 38.18577575683594 237.14401245117188C12.641387939453125 241.60801696777344 -1.52587890625e-05 262.13401794433594 -1.52587890625e-05 282.6230010986328C-1.52587890625e-05 303.66102600097656 13.328292846679688 324.6590118408203 39.70158386230469 328.18601989746094C42.175384521484375 328.51600646972656 44.55589294433594 328.6850128173828 46.86479187011719 328.6850128173828C59.8079833984375 328.6850128173828 70.49908447265625 323.36802673339844 82.75938415527344 311.22801208496094C94.52537536621094 299.5380096435547 103.26997375488281 294.4650115966797 112.46798706054688 294.4650115966797C114.78599548339844 294.4650115966797 117.13298034667969 294.7880096435547 119.56498718261719 295.4070281982422C130.17498779296875 298.1070098876953 137.6119842529297 303.88600158691406 142.1119842529297 312.9340057373047L144.33798217773438 317.38600158691406L144.47998046875 323.4020233154297C144.50599670410156 324.17201232910156 144.52000427246094 324.89500427246094 144.52000427246094 325.5790252685547C144.52000427246094 331.16700744628906 143.58700561523438 334.2410125732422 140.5489959716797 340.36000061035156C134.13800048828125 353.18202209472656 123.5360107421875 357.9390106201172 101.14700317382812 357.9390106201172L99.81210327148438 357.9340057373047L99.27828979492188 357.93202209472656C70.52481079101562 357.93202209472656 50.312103271484375 376.9540252685547 50.312103271484375 404.07102966308594C50.312103271484375 430.1840057373047 70.94960021972656 449.7740020751953 95.87420654296875 449.7740020751953C99.2073974609375 449.7740020751953 102.61700439453125 449.4240264892578 106.06500244140625 448.69200134277344C129.03799438476562 443.81300354003906 142.20700073242188 425.81300354003906 142.20700073242188 399.19200134277344C142.20700073242188 373.4710235595703 147.79600524902344 363.3810272216797 165.6540069580078 357.0340118408203C168.83200073242188 355.8980255126953 172.02999877929688 355.36500549316406 175.1580047607422 355.36500549316406C191.33299255371094 355.36500549316406 205.64100646972656 369.61000061035156 205.67999267578125 388.34400939941406C205.67999267578125 396.8710174560547 198.7169952392578 408.57102966308594 187.44400024414062 418.80201721191406C176.5919952392578 428.68101501464844 171.54800415039062 441.5490264892578 171.54800415039062 454.15602111816406C171.54800415039062 474.07200622558594 184.13499450683594 493.33802795410156 206.29600524902344 499.13902282714844ZM226.75900268554688 329.75001525878906C223.58999633789062 330.34800720214844 220.4759979248047 330.6330108642578 217.43699645996094 330.6330108642578C190.35400390625 330.6330108642578 169.30999755859375 307.99000549316406 169.30999755859375 282.59202575683594C169.30999755859375 275.4080047607422 170.99400329589844 268.0030059814453 174.70199584960938 260.82801818847656C183.74899291992188 243.30201721191406 200.63600158691406 234.5390167236328 217.5229949951172 234.5390167236328C234.40899658203125 234.5390167236328 251.29600524902344 243.30201721191406 260.343994140625 260.82801818847656C263.9410095214844 267.7890167236328 265.6080017089844 275.16200256347656 265.6080017089844 282.40602111816406C265.6080017089844 304.4440155029297 250.18099975585938 325.2930145263672 226.75900268554688 329.75001525878906Z" fill="black" /></g></svg>