<?xml version="1.0" encoding="utf-8" ?>
<svg baseProfile="tiny" height="100%" version="1.2" width="100%" xmlns="http://www.w3.org/2000/svg" xmlns:ev="http://www.w3.org/2001/xml-events" xmlns:xlink="http://www.w3.org/1999/xlink"><defs /><g transform="translate(0, 1000) scale(1, -1)"><path d="M7.420623779296875 430.02801513671875C8.593963623046875 430.56201171875 9.870254516601562 430.864990234375 11.79510498046875 430.864990234375C15.853805541992188 430.864990234375 22.7958984375 429.51800537109375 37.73640441894531 426.1440124511719C188.98399353027344 392.322998046875 309.5840148925781 292.3760070800781 335.635986328125 179.3070068359375C338.79901123046875 165.56900024414062 340.302001953125 151.91400146484375 340.302001953125 138.625C340.302001953125 68.11270141601562 297.9840087890625 7.9148101806640625 236.6840057373047 0.302154541015625C231.58299255371094 -0.327789306640625 226.56199645996094 -0.63555908203125 221.63699340820312 -0.63555908203125C158.41600036621094 -0.63555908203125 110.92098999023438 50.07330322265625 110.92098999023438 121.04400634765625C110.92098999023438 186.1280059814453 148.76800537109375 243.35000610351562 216.031005859375 279.9179992675781C217.3699951171875 280.6499938964844 218.14500427246094 280.947998046875 218.14500427246094 281.5950012207031C218.14500427246094 282.4129943847656 216.9040069580078 283.78900146484375 213.99400329589844 287.3070068359375C166.2469940185547 344.6709899902344 96.09429931640625 386.3550109863281 16.136398315429688 404.9230041503906C7.3732452392578125 406.9599914550781 4.7206268310546875 408.09698486328125 2.7311553955078125 410.7019958496094C0.877960205078125 413.12701416015625 0.0 415.906005859375 0.0 418.62298583984375C0.0 423.3380126953125 2.642822265625 427.864990234375 7.420623779296875 430.02801513671875ZM239.38400268554688 251.0229949951172C237.73699951171875 253.8569793701172 237.2169952392578 255.22898864746094 236.1840057373047 255.22898864746094C235.19700622558594 255.22898864746094 233.74099731445312 253.97499084472656 230.38400268554688 251.5439910888672C188.63999938964844 221.1029815673828 164.21600341796875 171.6389923095703 164.21600341796875 121.3079833984375C164.21600341796875 111.09999084472656 165.22000122070312 100.85598754882812 167.28900146484375 90.72848510742188C174.15699768066406 57.28639221191406 192.96299743652344 29.8599853515625 213.18899536132812 23.844284057617188C214.58799743652344 23.430892944335938 216.0229949951172 23.228485107421875 217.48399353027344 23.228485107421875C232.10400390625 23.228485107421875 249.43899536132812 43.47578430175781 261.4100036621094 75.42848205566406C268.0580139160156 93.19718933105469 271.5360107421875 115.56298828125 271.5360107421875 138.1549835205078C271.5360107421875 150.49497985839844 270.49798583984375 162.9019775390625 268.37298583984375 174.66497802734375C263.6839904785156 200.43399047851562 253.87899780273438 226.29698181152344 239.38400268554688 251.02297973632812Z" fill="black" /></g></svg>