<?xml version="1.0" encoding="utf-8" ?>
<svg baseProfile="tiny" height="100%" version="1.2" width="100%" xmlns="http://www.w3.org/2000/svg" xmlns:ev="http://www.w3.org/2001/xml-events" xmlns:xlink="http://www.w3.org/1999/xlink"><defs /><g transform="translate(0, 1000) scale(1, -1)"><path d="M218.281005859375 499.802001953125C222.16600036621094 500.135009765625 226.48599243164062 500.29400634765625 231.05799865722656 500.29400634765625C248.61399841308594 500.29400634765625 269.88299560546875 497.95098876953125 284.50201416015625 494.1180114746094C353.99700927734375 476.0119934082031 403.9930114746094 418.4519958496094 403.9930114746094 359.1789855957031C403.9930114746094 355.1830139160156 403.7659912109375 351.17999267578125 403.302001953125 347.1809997558594C398.6610107421875 307.3089904785156 367.35699462890625 285.9949951171875 335.9639892578125 285.9949951171875C309.3630065917969 285.9949951171875 282.697998046875 301.29901123046875 272.1390075683594 333.58599853515625C268.635986328125 344.2900085449219 266.8680114746094 352.5469970703125 266.8680114746094 358.56500244140625C266.8680114746094 367.1929931640625 270.50299072265625 371.21600341796875 277.8699951171875 371.2439880371094C284.1700134277344 371.2439880371094 287.7699890136719 368.1650085449219 289.57000732421875 361.2969970703125C292.60101318359375 349.4880065917969 304.5369873046875 342.9949951171875 318.3999938964844 342.9949951171875C327.50201416015625 342.9949951171875 337.4360046386719 345.7950134277344 346.2229919433594 351.7279968261719C356.239013671875 358.4440002441406 361.3320007324219 368.83599853515625 361.3320007324219 382.24798583984375C361.3320007324219 385.58099365234375 361.01800537109375 389.10101318359375 360.385986328125 392.7969970703125C352.6650085449219 437.843994140625 302.7860107421875 474.4129943847656 245.99099731445312 476.7340087890625L238.88600158691406 477.01800537109375L232.63299560546875 466.1709899902344C210.04100036621094 426.968994140625 198.61300659179688 401.0150146484375 198.61300659179688 378.9649963378906C198.61300659179688 355.8009948730469 211.22500610351562 336.9440002441406 236.7550048828125 311.55999755859375C249.73300170898438 298.62799072265625 252.9550018310547 294.6499938964844 257.9280090332031 285.4129943847656C264.2550048828125 273.6719970703125 267.43701171875 261.0719909667969 267.43701171875 247.81300354003906C267.43701171875 240.4239959716797 266.447998046875 232.82899475097656 264.4649963378906 225.06500244140625C256.2229919433594 192.90199279785156 234.76499938964844 149.22799682617188 210.18099975585938 114.64999389648438C208.6649932861328 112.47100830078125 207.38600158691406 110.67098999023438 207.38600158691406 110.57598876953125C207.38600158691406 110.56100463867188 207.4340057373047 110.55499267578125 207.5229949951172 110.55499267578125C208.0189971923828 110.55499267578125 209.8000030517578 110.76100158691406 211.88600158691406 111.00199890136719C219.57699584960938 111.97799682617188 227.125 112.46600341796875 234.5290069580078 112.46600341796875C273.5 112.46600341796875 308.4949951171875 98.95140075683594 339.54400634765625 71.92320251464844L341.6759948730469 70.07579040527344L364.1759948730469 88.07579040527344C388.7120056152344 107.68598937988281 388.9490051269531 107.87599182128906 393.54400634765625 107.87599182128906C400.4119873046875 107.87599182128906 404.9119873046875 103.32798767089844 404.9119873046875 96.41267395019531L404.9110107421875 96.15858459472656C404.9110107421875 95.68048095703125 404.9209899902344 95.25068664550781 404.9209899902344 94.85087585449219C404.9209899902344 90.35139465332031 403.739013671875 89.64747619628906 374.7860107421875 66.57058715820312L321.9700012207031 24.459991455078125C292.4599914550781 0.917938232421875 291.6549987792969 0.349517822265625 287.864990234375 0.349517822265625C280.99700927734375 0.349517822265625 277.4440002441406 3.5705718994140625 275.12298583984375 11.954803466796875C264.4200134277344 50.21519470214844 231.86500549316406 76.48089599609375 197.72900390625 76.48089599609375C193.49099731445312 76.48089599609375 189.22900390625 76.07598876953125 184.9810028076172 75.23899841308594L179.39100646972656 74.14949035644531L172.0019989013672 65.29159545898438C148.03298950195312 36.82319641113281 117.385986328125 2.81268310546875 114.11798095703125 1.2021484375C112.36198425292969 0.311370849609375 110.56797790527344 -0.0899505615234375 108.83299255371094 -0.0899505615234375C102.47999572753906 -0.0899505615234375 96.91319274902344 5.289825439453125 96.91319274902344 11.722000122070312C96.91319274902344 13.06170654296875 97.15467834472656 14.447097778320312 97.68089294433594 15.839004516601562C98.05978393554688 16.833694458007812 99.19657897949219 20.291595458984375 100.23898315429688 23.55999755859375C110.09098815917969 54.633697509765625 131.3599853515625 79.02850341796875 162.66998291015625 95.18109130859375C166.69699096679688 97.31269836425781 169.2069854736328 98.87579345703125 170.01197814941406 99.91790771484375C206.29698181152344 146.14999389648438 222.0699920654297 176.843994140625 222.0699920654297 201.0970001220703C222.0699920654297 216.39700317382812 217.7119903564453 223.17100524902344 195.35498046875 242.63900756835938C172.19097900390625 262.77099609375 157.885986328125 290.10198974609375 154.99697875976562 319.6600036621094C154.7109832763672 322.625 154.56698608398438 325.6820068359375 154.56698608398438 328.83599853515625C154.56698608398438 362.7619934082031 171.177978515625 407.75799560546875 205.6329803466797 467.3070068359375L210.6549835205078 475.97601318359375L208.66497802734375 475.6919860839844C175.93299865722656 471.3340148925781 155.09100341796875 465.2229919433594 130.41200256347656 452.7650146484375C82.28610229492188 428.51300048828125 49.98089599609375 388.864990234375 42.21240234375 344.4809875488281C41.476593017578125 340.2550048828125 41.133209228515625 335.8429870605469 41.133209228515625 331.4679870605469C41.133209228515625 315.0039978027344 45.99659729003906 299.0669860839844 53.107208251953125 295.54998779296875C58.552001953125 292.8609924316406 64.16879272460938 291.614013671875 69.68009948730469 291.614013671875C91.45030212402344 291.614013671875 111.572998046875 311.0690002441406 112.93299865722656 337.9440002441406C113.45500183105469 348.27099609375 116.67599487304688 352.2969970703125 124.49099731445312 352.2969970703125C133.54800415039062 352.2969970703125 136.0500030517578 348.1130065917969 136.0500030517578 333.0679931640625L136.0489959716797 332.6390075683594C135.906982421875 295.1709899902344 124.11198425292969 266.4649963378906 101.28099060058594 248.13400268554688C88.13258361816406 237.5590057373047 72.66499328613281 232.4810028076172 58.01048278808594 232.4810028076172C37.87318420410156 232.4810028076172 19.271286010742188 242.07000732421875 10.333480834960938 260.1650085449219C3.334930419921875 274.3030090332031 -1.52587890625e-05 290.2829895019531 -1.52587890625e-05 307.0570068359375C-1.52587890625e-05 352.5 24.474990844726562 403.77801513671875 66.89138793945312 440.0710144042969C108.33897399902344 475.59698486328125 155.94398498535156 494.4020080566406 218.28099060058594 499.802001953125Z" fill="black" /></g></svg>