<?xml version="1.0" encoding="utf-8" ?>
<svg baseProfile="tiny" height="100%" version="1.2" width="100%" xmlns="http://www.w3.org/2000/svg" xmlns:ev="http://www.w3.org/2001/xml-events" xmlns:xlink="http://www.w3.org/1999/xlink"><defs /><g transform="translate(0, 1000) scale(1, -1)"><path d="M218.281005859375 499.802001953125C222.16600036621094 500.135009765625 226.48599243164062 500.29400634765625 231.05799865722656 500.29400634765625C248.61399841308594 500.29400634765625 269.88299560546875 497.95098876953125 284.50201416015625 494.1180114746094C353.99700927734375 476.0119934082031 403.9930114746094 418.4519958496094 403.9930114746094 359.1789855957031C403.9930114746094 355.1830139160156 403.7659912109375 351.17999267578125 403.302001953125 347.1809997558594C398.6610107421875 307.3089904785156 367.35699462890625 285.9949951171875 335.9639892578125 285.9949951171875C309.3630065917969 285.9949951171875 282.697998046875 301.29901123046875 272.1390075683594 333.58599853515625C268.635986328125 344.2900085449219 266.8680114746094 352.5469970703125 266.8680114746094 358.56500244140625C266.8680114746094 367.1929931640625 270.50299072265625 371.21600341796875 277.8699951171875 371.2439880371094C284.1700134277344 371.2439880371094 287.7699890136719 368.1650085449219 289.57000732421875 361.2969970703125C292.60101318359375 349.4880065917969 304.5369873046875 342.9949951171875 318.3999938964844 342.9949951171875C327.50201416015625 342.9949951171875 337.4360046386719 345.7950134277344 346.2229919433594 351.7279968261719C356.239013671875 358.4440002441406 361.3320007324219 368.83599853515625 361.3320007324219 382.24798583984375C361.3320007324219 385.58099365234375 361.01800537109375 389.10101318359375 360.385986328125 392.7969970703125C352.6650085449219 437.843994140625 302.7860107421875 474.4129943847656 245.99099731445312 476.7340087890625L238.88600158691406 477.01800537109375L232.63299560546875 466.1709899902344C210.04100036621094 426.968994140625 198.61300659179688 401.0150146484375 198.61300659179688 378.9649963378906C198.61300659179688 355.8009948730469 211.22500610351562 336.9440002441406 236.7550048828125 311.55999755859375C249.73300170898438 298.62799072265625 252.9550018310547 294.6499938964844 257.9280090332031 285.4129943847656C264.2550048828125 273.6719970703125 267.43701171875 261.0719909667969 267.43701171875 247.81300354003906C267.43701171875 240.4239959716797 266.447998046875 232.82899475097656 264.4649963378906 225.06500244140625C256.2229919433594 192.90199279785156 234.76499938964844 149.22799682617188 210.18099975585938 114.64999389648438C208.6649932861328 112.47100830078125 207.38600158691406 110.67098999023438 207.38600158691406 110.57598876953125C207.38600158691406 110.56100463867188 207.4340057373047 110.55499267578125 207.5229949951172 110.55499267578125C208.0189971923828 110.55499267578125 209.8000030517578 110.76100158691406 211.88600158691406 111.00199890136719C219.5919952392578 111.98001098632812 227.15199279785156 112.468994140625 234.56700134277344 112.468994140625C273.5119934082031 112.468994140625 308.4670104980469 98.98150634765625 339.54400634765625 71.92320251464844L341.6759948730469 70.07579040527344L355.64898681640625 81.20738220214844C363.322998046875 87.31788635253906 370.00201416015625 92.67057800292969 370.47601318359375 93.09687805175781C370.8429870605469 93.48768615722656 371.0329895019531 93.76689147949219 371.0329895019531 94.61668395996094C371.0329895019531 95.51799011230469 370.82000732421875 97.06108093261719 370.3810119628906 100.05998229980469C368.8160095214844 110.39198303222656 368.04400634765625 120.52497863769531 368.04400634765625 130.3829803466797C368.04400634765625 172.13998413085938 381.8949890136719 208.96298217773438 407.9909973144531 235.0599822998047C412.7760009765625 239.89198303222656 435.60699462890625 258.31797790527344 444.2279968261719 264.33399963378906C454.77301025390625 271.6909942626953 465.97900390625 275.35398864746094 477.02099609375 275.35398864746094C489.4410095214844 275.35398864746094 501.65399169921875 270.71897888183594 512.4860229492188 261.4919891357422C525.56201171875 250.37698364257812 532.0770263671875 234.32498168945312 532.0770263671875 218.06698608398438C532.0770263671875 201.34298706054688 525.1829833984375 184.40098571777344 511.4440002441406 172.39198303222656C508.0329895019531 169.3599853515625 487.1440124511719 153.0649871826172 485.9119873046875 152.4019775390625C484.11199951171875 151.45498657226562 428.97601318359375 109.67597961425781 426.55999755859375 107.44998168945312C426.5150146484375 107.40797424316406 426.4939880371094 107.31498718261719 426.4939880371094 107.17498779296875C426.4939880371094 104.63398742675781 433.5920104980469 86.57307434082031 438.3070068359375 77.32318115234375C444.6549987792969 64.86528015136719 448.3970031738281 60.79158020019531 457.1600036621094 56.4810791015625C465.3559875488281 52.49519348144531 474.4339904785156 50.57188415527344 483.8659973144531 50.57188415527344C506.26800537109375 50.57188415527344 530.6680297851562 61.42127990722656 550.0020141601562 81.25477600097656C554.5709838867188 85.95658874511719 555.8770141601562 87.25608825683594 555.8770141601562 89.23028564453125C555.8770141601562 90.08027648925781 555.635009765625 91.05537414550781 555.3070068359375 92.48109436035156C553.5679931640625 99.94789123535156 552.7219848632812 109.51698303222656 552.7219848632812 119.59098815917969C552.7219848632812 132.84298706054688 554.18701171875 146.96697998046875 557.0120239257812 158.32298278808594C569.7550048828125 209.43399047851562 603.906982421875 250.64398193359375 657.81201171875 279.91798400878906C659.1510009765625 280.6499786376953 659.926025390625 280.94798278808594 659.926025390625 281.59498596191406C659.926025390625 282.41297912597656 658.6859741210938 283.7889862060547 655.7760009765625 287.30699157714844C608.0280151367188 344.6709747314453 537.8759765625 386.35499572753906 457.9179992675781 404.92298889160156C445.2229919433594 407.85997009277344 441.8599853515625 410.74998474121094 441.8599853515625 418.7069854736328C441.8970031738281 426.65797424316406 446.10101318359375 430.5869903564453 454.6990051269531 430.5869903564453C457.0639953613281 430.5869903564453 459.7619934082031 430.2899932861328 462.7969970703125 429.6969757080078C622.3330078125 398.90699768066406 750.2760009765625 297.0179901123047 777.4180297851562 179.30699157714844C780.5800170898438 165.56898498535156 782.0830078125 151.9139862060547 782.0830078125 138.62498474121094C782.0830078125 68.11268615722656 739.7650146484375 7.914794921875 678.4650268554688 0.3021392822265625C673.2730102539062 -0.3429412841796875 668.1530151367188 -0.661041259765625 663.125 -0.661041259765625C623.10498046875 -0.661041259765625 588.822021484375 19.486083984375 569.0440063476562 55.29689025878906C566.875 59.20698547363281 566.2429809570312 60.43788146972656 565.81298828125 60.43788146972656C565.5770263671875 60.43788146972656 565.4010009765625 60.06468200683594 565.0650024414062 59.55998229980469C539.4550170898438 21.190582275390625 498.7590026855469 -0.1529541015625 461.00299072265625 -0.1529541015625C439.75 -0.1529541015625 419.4280090332031 6.6104278564453125 403.2550048828125 20.907379150390625C395.9119873046875 27.3494873046875 386.3909912109375 44.78108215332031 379.3330078125 64.62849426269531L377.7699890136719 69.03369140625L375.59100341796875 67.23370361328125L333.9070129394531 33.98109436035156C291.7489929199219 0.3021392822265625 291.8909912109375 0.396881103515625 287.9599914550781 0.3495025634765625C287.9100036621094 0.3491668701171875 287.8599853515625 0.3489837646484375 287.80999755859375 0.3489837646484375C280.9930114746094 0.3489837646484375 277.4739990234375 3.5841522216796875 275.12298583984375 11.954788208007812C264.4200134277344 50.215179443359375 231.86500549316406 76.48088073730469 197.72900390625 76.48088073730469C193.49099731445312 76.48088073730469 189.22900390625 76.07597351074219 184.9810028076172 75.23898315429688L179.39100646972656 74.14947509765625L172.0019989013672 65.29158020019531C148.03298950195312 36.82318115234375 117.385986328125 2.8126678466796875 114.11798095703125 1.2021331787109375C112.36198425292969 0.3113555908203125 110.56797790527344 -0.0899658203125 108.83299255371094 -0.0899658203125C102.47999572753906 -0.0899658203125 96.91319274902344 5.2898101806640625 96.91319274902344 11.72198486328125C96.91319274902344 13.061691284179688 97.15467834472656 14.44708251953125 97.68089294433594 15.8389892578125C98.05978393554688 16.83367919921875 99.19657897949219 20.291580200195312 100.23898315429688 23.559982299804688C110.09098815917969 54.63368225097656 131.3599853515625 79.02848815917969 162.66998291015625 95.18107604980469C166.69699096679688 97.31268310546875 169.2069854736328 98.87577819824219 170.01197814941406 99.91789245605469C206.29698181152344 146.1499786376953 222.0699920654297 176.84397888183594 222.0699920654297 201.09698486328125C222.0699920654297 216.39698791503906 217.7119903564453 223.17098999023438 195.35498046875 242.6389923095703C172.19097900390625 262.77098083496094 157.885986328125 290.1019744873047 154.99697875976562 319.6599884033203C154.7109832763672 322.62498474121094 154.56698608398438 325.68199157714844 154.56698608398438 328.8359832763672C154.56698608398438 362.76197814941406 171.177978515625 407.7579803466797 205.6329803466797 467.30699157714844L210.6549835205078 475.9759979248047L208.66497802734375 475.6919708251953C175.93299865722656 471.33399963378906 155.09100341796875 465.2229766845703 130.41200256347656 452.76499938964844C82.28610229492188 428.5129852294922 49.98089599609375 388.86497497558594 42.21240234375 344.48097229003906C41.476593017578125 340.25498962402344 41.133209228515625 335.8429718017578 41.133209228515625 331.4679718017578C41.133209228515625 315.0039825439453 45.99659729003906 299.0669708251953 53.107208251953125 295.5499725341797C58.552001953125 292.86097717285156 64.16879272460938 291.61399841308594 69.68009948730469 291.61399841308594C91.45030212402344 291.61399841308594 111.572998046875 311.06898498535156 112.93299865722656 337.94398498535156C113.45500183105469 348.27098083496094 116.67599487304688 352.29698181152344 124.49099731445312 352.29698181152344C133.54800415039062 352.29698181152344 136.0500030517578 348.1129913330078 136.0500030517578 333.06797790527344L136.0489959716797 332.6389923095703C135.906982421875 295.1709747314453 124.11198425292969 266.46498107910156 101.28099060058594 248.1339874267578C88.13258361816406 237.55899047851562 72.66499328613281 232.48098754882812 58.01048278808594 232.48098754882812C37.87318420410156 232.48098754882812 19.271286010742188 242.0699920654297 10.333480834960938 260.1649932861328C3.334930419921875 274.30299377441406 -1.52587890625e-05 290.28297424316406 -1.52587890625e-05 307.05699157714844C-1.52587890625e-05 352.49998474121094 24.474990844726562 403.7779998779297 66.89138793945312 440.0709991455078C108.33897399902344 475.5969696044922 155.94398498535156 494.40199279785156 218.28099060058594 499.80198669433594ZM681.1649627685547 251.02297973632812C679.5179901123047 253.85696411132812 678.9979705810547 255.22897338867188 677.9650115966797 255.22897338867188C676.9780120849609 255.22897338867188 675.5219573974609 253.9749755859375 672.1649627685547 251.54397583007812C630.4210052490234 221.10296630859375 605.9969940185547 171.63897705078125 605.9969940185547 121.30796813964844C605.9969940185547 111.0999755859375 607.0019989013672 100.85597229003906 609.0699920654297 90.72846984863281C615.9390106201172 57.286376953125 634.7440032958984 29.859970092773438 654.9699554443359 23.844268798828125C656.3699798583984 23.430877685546875 657.8040008544922 23.228469848632812 659.2659759521484 23.228469848632812C673.8849945068359 23.228469848632812 691.2199554443359 43.47576904296875 703.1909637451172 75.428466796875C709.8389739990234 93.19717407226562 713.3170013427734 115.56297302246094 713.3170013427734 138.15496826171875C713.3170013427734 150.49496459960938 712.2800140380859 162.90196228027344 710.1550140380859 174.6649627685547C705.4650115966797 200.43397521972656 695.6599578857422 226.29696655273438 681.1649627685547 251.02296447753906ZM461.89698791503906 235.05996704101562C459.8429718017578 235.5009765625 457.8519744873047 235.7169647216797 455.9499969482422 235.7169647216797C449.47398376464844 235.7169647216797 444.0229949951172 233.20997619628906 440.5809783935547 228.52296447753906C426.2179718017578 208.9579620361328 418.7429962158203 184.13296508789062 418.7429962158203 155.89097595214844C418.7429962158203 154.0479736328125 418.7749786376953 152.18997192382812 418.83897399902344 150.31796264648438C419.1229705810547 141.4129638671875 419.9759979248047 132.7439727783203 420.5439910888672 132.7439727783203C420.6859893798828 132.7439727783203 428.1229705810547 138.38096618652344 437.0759735107422 145.24996948242188L466.1599884033203 167.3709716796875C480.36997985839844 178.0759735107422 482.0759735107422 179.82797241210938 485.39097595214844 187.7389678955078C487.25498962402344 192.1439666748047 488.12498474121094 196.73196411132812 488.12498474121094 201.2479705810547C488.12498474121094 216.93197631835938 477.6379852294922 231.74996948242188 461.89698791503906 235.05996704101562Z" fill="black" /></g></svg>