<?xml version="1.0" encoding="utf-8" ?>
<svg baseProfile="tiny" height="100%" version="1.2" width="100%" xmlns="http://www.w3.org/2000/svg" xmlns:ev="http://www.w3.org/2001/xml-events" xmlns:xlink="http://www.w3.org/1999/xlink"><defs /><g transform="translate(0, 1000) scale(1, -1)"><path d="M110.66500854492188 366.6210021972656C112.75700378417969 367.30499267578125 114.94500732421875 367.6300048828125 117.1409912109375 367.6300048828125C125.135009765625 367.6300048828125 133.24600219726562 363.3179931640625 137.33299255371094 356.2950134277344C140.18699645996094 351.43499755859375 140.27099609375 352.2820129394531 140.27099609375 317.60699462890625L140.27000427246094 310.6789855957031V272.73699951171875H178.21200561523438H184.90699768066406C220.0690155029297 272.73699951171875 218.92401123046875 272.65301513671875 224.0650177001953 269.6579895019531C231.40701293945312 265.3240051269531 235.07801818847656 257.6619873046875 235.07801818847656 250.0C235.07801818847656 242.33799743652344 231.40701293945312 234.67599487304688 224.0650177001953 230.3419952392578C218.92401123046875 227.3470001220703 220.0690155029297 227.26300048828125 184.90701293945312 227.26300048828125H178.21202087402344H140.27001953125V189.3209991455078C140.27000427246094 155.83201599121094 140.1750030517578 151.0950164794922 139.51199340820312 148.77401733398438C136.43699645996094 138.1950225830078 126.8909912109375 132.49900817871094 117.32901000976562 132.49900817871094C109.8070068359375 132.49900817871094 102.2760009765625 136.02301025390625 97.87550354003906 143.468017578125C94.88059997558594 148.6090087890625 94.79620361328125 147.46401977539062 94.79620361328125 182.6260223388672L94.7965087890625 189.32101440429688V227.2630157470703H56.854400634765625H50.15950012207031C14.997711181640625 227.2630157470703 16.1422119140625 227.34701538085938 11.001815795898438 230.34201049804688C3.6595306396484375 234.67201232910156 1.52587890625e-05 242.29901123046875 1.52587890625e-05 249.94100952148438C1.52587890625e-05 257.68202209472656 3.7542724609375 265.43800354003906 11.238616943359375 269.8000030517578C16.098114013671875 272.6530303955078 15.251022338867188 272.7370147705078 49.92640686035156 272.7370147705078H56.85441589355469H94.79652404785156V310.6790008544922L94.79621887207031 317.37400817871094C94.79621887207031 352.53602600097656 94.880615234375 351.39100646972656 97.87551879882812 356.5320281982422C100.62301635742188 361.2210235595703 105.12301635742188 364.7740020751953 110.66502380371094 366.6210174560547Z" fill="black" /></g></svg>