<?xml version="1.0" encoding="utf-8" ?>
<svg baseProfile="tiny" height="100%" version="1.2" width="100%" xmlns="http://www.w3.org/2000/svg" xmlns:ev="http://www.w3.org/2001/xml-events" xmlns:xlink="http://www.w3.org/1999/xlink"><defs /><g transform="translate(0, 1000) scale(1, -1)"><path d="M266.0469970703125 273.97900390625C270.2080078125 274.4859924316406 274.4830017089844 274.7300109863281 278.802001953125 274.7300109863281C305.1659851074219 274.7300109863281 333.19500732421875 265.6419982910156 347.23699951171875 251.76300048828125C354.09698486328125 244.96400451660156 357.385986328125 236.03799438476562 357.385986328125 227.21600341796875C357.385986328125 215.38800048828125 351.47198486328125 203.74600219726562 340.3210144042969 197.66799926757812C334.7090148925781 194.60400390625 328.9150085449219 193.11000061035156 323.2430114746094 193.11000061035156C312.2560119628906 193.11000061035156 301.7250061035156 198.71499633789062 293.8529968261719 209.3679962158203C283.2550048828125 223.71200561523438 268.02398681640625 230.46400451660156 253.1929931640625 230.46400451660156C232.95399475097656 230.46400451660156 213.45899963378906 217.89100646972656 207.5 194.87399291992188C206.78900146484375 192.3159942626953 205.93699645996094 189.71099853515625 205.55799865722656 189.09500122070312C205.1790008544922 188.5260009765625 204.42100524902344 186.6790008544922 203.94700622558594 185.0679931640625C203.42599487304688 183.45799255371094 202.57400512695312 181.37399291992188 202.0050048828125 180.4739990234375C201.43699645996094 179.57400512695312 189.31100463867188 139.83200073242188 175.0050048828125 92.131591796875C160.7469940185547 44.47889709472656 148.57400512695312 4.5947418212890625 148.05299377441406 3.5052642822265625C146.23199462890625 -0.050384521484375 147.6649932861328 -0.2395172119140625 122.97698974609375 -0.2395172119140625C120.03799438476562 -0.2395172119140625 116.72900390625 -0.236846923828125 113.0 -0.236846923828125C109.79000854492188 -0.236846923828125 106.89199829101562 -0.2384490966796875 104.27499389648438 -0.2384490966796875C78.42880249023438 -0.2384490966796875 79.9302978515625 -0.08221435546875 77.99468994140625 3.3157958984375C77.58810424804688 4.0374908447265625 77.24040222167969 4.4974365234375 77.24040222167969 5.760040283203125C77.24040222167969 10.381195068359375 81.898193359375 25.754806518554688 105.37399291992188 104.0679931640625C121.66799926757812 158.39999389648438 133.88900756835938 199.98899841308594 134.07899475097656 201.64700317382812C134.26800537109375 203.30499267578125 134.83700561523438 206.14700317382812 135.31100463867188 208.04200744628906C136.28500366210938 211.6580047607422 136.75 215.12100219726562 136.75 218.33200073242188C136.75 229.6320037841797 130.99600219726562 237.80999755859375 121.47900390625 238.5469970703125C120.29400634765625 238.63900756835938 119.10600280761719 238.68499755859375 117.91799926757812 238.68499755859375C103.18899536132812 238.68499755859375 88.26510620117188 231.66299438476562 75.24740600585938 218.55799865722656C70.60530090332031 213.91600036621094 69.08950805664062 212.6840057373047 67.76319885253906 212.39999389648438C67.03759765625 212.26400756835938 66.34230041503906 212.19900512695312 65.68080139160156 212.19900512695312C61.04170227050781 212.19900512695312 58.07060241699219 215.37899780273438 58.07060241699219 219.41200256347656C58.07060241699219 221.41200256347656 58.80110168457031 223.6219940185547 60.42109680175781 225.75799560546875C78.83279418945312 250.1529998779297 118.20401000976562 269.0780029296875 147.41400146484375 269.0780029296875C151.27000427246094 269.0780029296875 154.94900512695312 268.74798583984375 158.37899780273438 268.0580139160156C173.06300354003906 265.1210021972656 187.60499572753906 255.1739959716797 196.41600036621094 242.19500732421875C197.26800537109375 240.91600036621094 198.0260009765625 239.8260040283203 198.07400512695312 239.73199462890625C198.07699584960938 239.72900390625 198.08099365234375 239.7270050048828 198.08700561523438 239.7270050048828C198.2740020751953 239.7270050048828 199.88800048828125 241.11599731445312 201.76800537109375 242.90499877929688C219.62600708007812 259.8630065917969 243.12100219726562 271.1839904785156 266.0469970703125 273.97900390625Z" fill="black" /></g></svg>