<?xml version="1.0" encoding="utf-8" ?>
<svg baseProfile="tiny" height="100%" version="1.2" width="100%" xmlns="http://www.w3.org/2000/svg" xmlns:ev="http://www.w3.org/2001/xml-events" xmlns:xlink="http://www.w3.org/1999/xlink"><defs /><g transform="translate(0, 1000) scale(1, -1)"><path d="M169.91099548339844 207.2830047607422C172.29998779296875 207.6689910888672 175.87298583984375 207.84799194335938 179.7119903564453 207.84799194335938C185.7659912109375 207.84799194335938 192.47898864746094 207.4019775390625 196.24697875976562 206.61898803710938C235.35398864746094 198.19898986816406 257.7059783935547 164.5079803466797 257.7059783935547 130.489990234375C257.7059783935547 108.05699157714844 247.9869842529297 85.48109436035156 226.94198608398438 69.9141845703125C206.1309814453125 54.54087829589844 180.40798950195312 46.94938659667969 153.77198791503906 46.94938659667969C122.6309814453125 46.94938659667969 90.24188232421875 57.3267822265625 62.99998474121094 77.77738952636719C59.74348449707031 80.21968078613281 57.09169006347656 82.10069274902344 56.85868835449219 82.10069274902344C56.847686767578125 82.10069274902344 56.84208679199219 82.09648132324219 56.84208679199219 82.08787536621094C56.84208679199219 81.94578552246094 75.17369079589844 20.74578857421875 97.57888793945312 -53.95420837402344C132.2639923095703 -169.52301025390625 138.36997985839844 -189.3930206298828 138.36997985839844 -195.13002014160156C138.36997985839844 -196.8050079345703 137.84999084472656 -197.27500915527344 137.36798095703125 -198.5700225830078C135.07398986816406 -204.67201232910156 128.9539794921875 -207.8480224609375 122.88899230957031 -207.8480224609375C117.55998229980469 -207.8480224609375 112.27198791503906 -205.39601135253906 109.65797424316406 -200.32301330566406C107.52598571777344 -196.20201110839844 -1.52587890625e-05 164.3669891357422 -1.52587890625e-05 167.39797973632812C-1.52587890625e-05 176.72299194335938 7.4205322265625 182.54898071289062 15.195083618164062 182.54898071289062C19.6243896484375 182.54898071289062 24.1685791015625 180.65798950195312 27.521087646484375 176.44598388671875C28.184188842773438 175.59298706054688 29.794692993164062 172.32498168945312 30.9788818359375 169.19798278808594C47.79469299316406 126.2349853515625 83.22628784179688 92.84048461914062 123.583984375 81.80369567871094L128.083984375 80.57209777832031L125.90498352050781 82.84580993652344C112.17597961425781 96.92460632324219 105.93498229980469 114.45501708984375 105.93498229980469 131.90701293945312C105.93498229980469 166.53701782226562 130.5089874267578 200.8570098876953 169.91098022460938 207.28302001953125Z" fill="black" /></g></svg>