<?xml version="1.0" encoding="utf-8" ?>
<svg baseProfile="tiny" height="100%" version="1.2" width="100%" xmlns="http://www.w3.org/2000/svg" xmlns:ev="http://www.w3.org/2001/xml-events" xmlns:xlink="http://www.w3.org/1999/xlink"><defs /><g transform="translate(0, 1000) scale(1, -1)"><path d="M360.8179931640625 710.9500122070312C364.5539855957031 711.530029296875 368.2829895019531 711.8099975585938 371.9779968261719 711.8099975585938C405.77099609375 711.8099975585938 436.7850036621094 688.3369750976562 444.8970031738281 654.8189697265625C446.2969970703125 649.0770263671875 446.9739990234375 643.1810302734375 446.9739990234375 637.302001953125C446.9739990234375 618.2999877929688 439.9010009765625 599.4639892578125 427.2760009765625 586.5139770507812L425.09698486328125 584.239990234375L429.59698486328125 585.4719848632812C469.9549865722656 596.5079956054688 505.3869934082031 629.9030151367188 522.2030029296875 672.8660278320312C523.3870239257812 675.9929809570312 524.9970092773438 679.260986328125 525.6610107421875 680.114013671875C529.0130004882812 684.3259887695312 533.5570068359375 686.2169799804688 537.9860229492188 686.2169799804688C545.760986328125 686.2169799804688 553.1820068359375 680.3909912109375 553.1820068359375 671.0659790039062C553.1820068359375 668.0349731445312 150.07598876953125 -677.7499389648438 147.9449920654297 -681.91796875C145.3309783935547 -686.990966796875 140.04298400878906 -689.4429321289062 134.7139892578125 -689.4429321289062C128.64797973632812 -689.4429321289062 122.52897644042969 -686.2669677734375 120.23399353027344 -680.1649169921875C119.75297546386719 -678.8699340820312 119.23197937011719 -678.3999633789062 119.23197937011719 -676.7249145507812C119.23197937011719 -670.9879150390625 125.33798217773438 -651.117919921875 160.02398681640625 -535.5499267578125C182.42898559570312 -460.8499450683594 200.760986328125 -399.6499328613281 200.760986328125 -399.5069274902344C200.760986328125 -399.4989318847656 200.75498962402344 -399.49493408203125 200.74398803710938 -399.49493408203125C200.510986328125 -399.49493408203125 197.85897827148438 -401.3759460449219 194.6029815673828 -403.81793212890625C167.3199920654297 -424.2989501953125 134.94898986816406 -434.6309509277344 103.8599853515625 -434.6309509277344C75.6298828125 -434.6309509277344 48.456085205078125 -426.1119384765625 27.107879638671875 -408.9339294433594C9.367507934570312 -394.6109313964844 -1.52587890625e-05 -372.825927734375 -1.52587890625e-05 -350.64093017578125C-1.52587890625e-05 -335.62493896484375 4.2910614013671875 -320.4259338378906 13.18157958984375 -307.23394775390625C28.361587524414062 -284.7259521484375 52.36387634277344 -273.6259460449219 76.27207946777344 -273.6259460449219C101.97598266601562 -273.6259460449219 127.57098388671875 -286.4559326171875 141.97598266601562 -311.73394775390625C148.281982421875 -322.8009338378906 151.3389892578125 -335.46295166015625 151.3389892578125 -348.0839538574219C151.3389892578125 -366.8479309082031 144.58297729492188 -385.5249328613281 131.69699096679688 -398.74993896484375L129.5179901123047 -401.02294921875L134.0179901123047 -399.79193115234375C174.04498291015625 -388.8499450683594 209.85498046875 -355.26495361328125 226.2919921875 -313.24993896484375C227.760986328125 -309.4599304199219 274.6549835205078 -154.28094482421875 274.6549835205078 -153.1919403076172C274.6549835205078 -153.1829376220703 274.6499786376953 -153.17893981933594 274.6389923095703 -153.17893981933594C274.40599060058594 -153.17893981933594 271.7539825439453 -155.0599365234375 268.4969940185547 -157.50193786621094C241.2139892578125 -177.98294067382812 208.84397888183594 -188.31593322753906 177.75498962402344 -188.31593322753906C149.5249786376953 -188.31593322753906 122.35098266601562 -179.7959442138672 101.00297546386719 -162.61793518066406C83.26228332519531 -148.2959442138672 73.89468383789062 -126.50994873046875 73.89468383789062 -104.32493591308594C73.89468383789062 -89.30914306640625 78.18577575683594 -74.1102294921875 87.07627868652344 -60.9178466796875C102.2559814453125 -38.410430908203125 126.25898742675781 -27.310440063476562 150.1669921875 -27.310440063476562C175.86997985839844 -27.310440063476562 201.46498107910156 -40.14024353027344 215.87098693847656 -65.4178466796875C222.1759796142578 -76.48564147949219 225.23397827148438 -89.146728515625 225.23397827148438 -101.76893615722656C225.23397827148438 -120.53193664550781 218.47698974609375 -139.2089385986328 205.59197998046875 -152.43394470214844L203.41297912597656 -154.70693969726562L207.91297912597656 -153.47593688964844C247.93898010253906 -142.53392028808594 283.74998474121094 -108.94992065429688 300.18699645996094 -66.93362426757812C301.6549835205078 -63.14422607421875 348.5499725341797 92.03477478027344 348.5499725341797 93.12428283691406C348.5499725341797 93.13276672363281 348.5439910888672 93.13697814941406 348.53297424316406 93.13697814941406C348.2999725341797 93.13697814941406 345.6489715576172 91.25607299804688 342.39198303222656 88.81367492675781C315.10899353027344 68.33277893066406 282.73899841308594 58.00016784667969 251.6499786376953 58.00016784667969C223.4189910888672 58.00016784667969 196.24598693847656 66.52018737792969 174.89698791503906 83.6978759765625C157.156982421875 98.02018737792969 147.7889862060547 119.80506896972656 147.7889862060547 141.99107360839844C147.7889862060547 157.007080078125 152.0809783935547 172.205078125 160.97097778320312 185.3980712890625C176.15098571777344 207.9050750732422 200.15298461914062 219.0050811767578 224.06198120117188 219.0050811767578C249.76498413085938 219.0050811767578 275.35997009277344 206.17507934570312 289.76597595214844 180.8980712890625C296.0709991455078 169.830078125 299.1279754638672 157.16908264160156 299.1279754638672 144.5470733642578C299.1279754638672 125.78407287597656 292.3719940185547 107.10707092285156 279.4869842529297 93.88218688964844L277.30799865722656 91.60847473144531L281.80799865722656 92.83998107910156C321.83399963378906 103.78207397460938 357.6449737548828 137.36607360839844 374.0819854736328 179.382080078125C375.5499725341797 183.1720733642578 422.4449920654297 338.35008239746094 422.4449920654297 339.44007873535156C422.4449920654297 339.44908142089844 422.43898010253906 339.4530792236328 422.42799377441406 339.4530792236328C422.1949920654297 339.4530792236328 419.54298400878906 337.5720672607422 416.28697204589844 335.1290740966797C389.0039825439453 314.64808654785156 356.6329803466797 304.3160858154297 325.5449981689453 304.3160858154297C297.31398010253906 304.3160858154297 270.13999938964844 312.83607482910156 248.7919921875 330.0140838623047C231.05198669433594 344.33607482910156 221.68399047851562 366.12107849121094 221.68399047851562 388.3070831298828C221.68399047851562 403.3220672607422 225.97499084472656 418.5210723876953 234.86598205566406 431.7140655517578C250.04598999023438 454.22108459472656 274.04798889160156 465.3210906982422 297.9559783935547 465.3210906982422C323.6599884033203 465.3210906982422 349.25498962402344 452.49107360839844 363.66099548339844 427.2140655517578C369.9659881591797 416.1460723876953 373.0229949951172 403.4850616455078 373.0229949951172 390.8630828857422C373.0229949951172 372.0990753173828 366.26698303222656 353.42308044433594 353.38197326660156 340.1980743408203L351.20298767089844 337.92408752441406L355.70298767089844 339.1560821533203C395.72898864746094 350.0980682373047 431.5389862060547 383.6820831298828 447.9759979248047 425.6980743408203C449.4449920654297 429.48707580566406 496.33897399902344 584.6660919189453 496.33897399902344 585.7560577392578C496.33897399902344 585.7640533447266 496.33399963378906 585.7690582275391 496.32298278808594 585.7690582275391C496.08998107910156 585.7690582275391 493.43797302246094 583.8880767822266 490.18199157714844 581.4450836181641C462.8979949951172 560.9640655517578 430.5279998779297 550.6320953369141 399.43898010253906 550.6320953369141C371.20899963378906 550.6320953369141 344.0349884033203 559.1520538330078 322.68699645996094 576.3290557861328C303.9659881591797 591.4150543212891 295.44798278808594 612.4261016845703 295.44798278808594 633.4120635986328C295.44798278808594 669.0290679931641 319.98399353027344 704.5720977783203 360.81797790527344 710.9500885009766Z" fill="black" /></g></svg>