<?xml version="1.0" encoding="utf-8" ?>
<svg baseProfile="tiny" height="100%" version="1.2" width="100%" xmlns="http://www.w3.org/2000/svg" xmlns:ev="http://www.w3.org/2001/xml-events" xmlns:xlink="http://www.w3.org/1999/xlink"><defs /><g transform="translate(0, 1000) scale(1, -1)"><path d="M139.13400268554688 218.31900024414062C142.8699951171875 218.8979949951172 146.5989990234375 219.1790008544922 150.29400634765625 219.1790008544922C184.08599853515625 219.1790008544922 215.10000610351562 195.70599365234375 223.21299743652344 162.18699645996094C224.61199951171875 156.44500732421875 225.28900146484375 150.5500030517578 225.28900146484375 144.6699981689453C225.28900146484375 125.66799926757812 218.2169952392578 106.8330078125 205.5919952392578 93.88211059570312L203.41299438476562 91.6083984375L207.91299438476562 92.83990478515625C248.27099609375 103.87699890136719 283.7030029296875 137.27200317382812 300.51800537109375 180.23500061035156C301.7030029296875 183.36099243164062 303.31298828125 186.62899780273438 303.97601318359375 187.48199462890625C307.3290100097656 191.69400024414062 311.87298583984375 193.5850067138672 316.302001953125 193.5850067138672C324.0769958496094 193.5850067138672 331.49700927734375 187.75900268554688 331.49700927734375 178.43499755859375C331.49700927734375 175.4029998779297 150.0760040283203 -431.43397521972656 147.94500732421875 -435.6019744873047C145.33099365234375 -440.6749725341797 140.04299926757812 -443.1269989013672 134.71400451660156 -443.1269989013672C128.6479949951172 -443.1269989013672 122.52899169921875 -439.9509735107422 120.2340087890625 -433.84999084472656C119.75299072265625 -432.55397033691406 119.23199462890625 -432.08399963378906 119.23199462890625 -430.4089813232422C119.23199462890625 -424.67198181152344 125.33799743652344 -404.80299377441406 160.0240020751953 -289.23399353027344C182.4290008544922 -214.5339813232422 200.76100158691406 -153.333984375 200.76100158691406 -153.19198608398438C200.76100158691406 -153.1829833984375 200.7550048828125 -153.17898559570312 200.74400329589844 -153.17898559570312C200.51100158691406 -153.17898559570312 197.85899353027344 -155.0599822998047 194.60299682617188 -157.50198364257812C167.32000732421875 -177.9829864501953 134.94900512695312 -188.31597900390625 103.86000061035156 -188.31597900390625C75.62989807128906 -188.31597900390625 48.45610046386719 -179.79598999023438 27.107894897460938 -162.61798095703125C9.367523193359375 -148.29598999023438 0.0 -126.50999450683594 0.0 -104.32498168945312C0.0 -89.30918884277344 4.29107666015625 -74.11027526855469 13.181594848632812 -60.91789245605469C28.361602783203125 -38.41047668457031 52.3638916015625 -27.31048583984375 76.2720947265625 -27.31048583984375C101.97599792480469 -27.31048583984375 127.57099914550781 -40.140289306640625 141.9759979248047 -65.41789245605469C148.28199768066406 -76.48568725585938 151.33900451660156 -89.14677429199219 151.33900451660156 -101.76898193359375C151.33900451660156 -120.531982421875 144.58299255371094 -139.208984375 131.69700622558594 -152.43399047851562L129.51800537109375 -154.7069854736328L134.01800537109375 -153.47598266601562C174.0449981689453 -142.53396606445312 209.85499572753906 -108.94996643066406 226.29200744628906 -66.93367004394531C227.76100158691406 -63.14427185058594 274.6549987792969 92.03472900390625 274.6549987792969 93.12423706054688C274.6549987792969 93.13272094726562 274.6499938964844 93.13693237304688 274.6390075683594 93.13693237304688C274.406005859375 93.13693237304688 271.7539978027344 91.25602722167969 268.49700927734375 88.81362915039062C241.21400451660156 68.33273315429688 208.843994140625 58.0001220703125 177.7550048828125 58.0001220703125C149.52499389648438 58.0001220703125 122.35099792480469 66.5201416015625 101.00299072265625 83.69783020019531C82.281494140625 98.78372192382812 73.76339721679688 119.79502868652344 73.76339721679688 140.780029296875C73.76339721679688 176.39703369140625 98.29949951171875 211.94003295898438 139.13400268554688 218.31903076171875Z" fill="black" /></g></svg>