<?xml version="1.0" encoding="utf-8" ?>
<svg baseProfile="tiny" height="100%" version="1.2" width="100%" xmlns="http://www.w3.org/2000/svg" xmlns:ev="http://www.w3.org/2001/xml-events" xmlns:xlink="http://www.w3.org/1999/xlink"><defs /><g transform="translate(0, 1000) scale(1, -1)"><path d="M7.610504150390625 10.705307006835938C8.682235717773438 11.11181640625 38.81809997558594 11.258819580078125 153.4929962158203 11.258819580078125C185.8000030517578 11.258819580078125 224.81700134277344 11.247116088867188 271.78399658203125 11.226318359375L534.2529907226562 11.131622314453125L536.573974609375 9.710556030273438C540.2210083007812 7.436859130859375 542.0449829101562 3.6000213623046875 542.0449829101562 -0.2368316650390625C542.0449829101562 -4.07366943359375 540.2210083007812 -7.9105072021484375 536.573974609375 -10.184188842773438L534.2529907226562 -11.60528564453125L485.0369873046875 -11.747390747070312L435.8680114746094 -11.842086791992188V-68.4473876953125V-125.052978515625H271.0260009765625H106.18399047851562V-68.4473876953125V-11.842086791992188L57.01579284667969 -11.747390747070312L7.799957275390625 -11.60528564453125L5.478912353515625 -10.184188842773438C1.7783203125 -7.873992919921875 0.0 -4.0472412109375 0.0 -0.2480926513671875C0.0 4.36572265625 2.6227874755859375 8.938796997070312 7.610504150390625 10.705322265625Z" fill="black" /></g></svg>