<?xml version="1.0" encoding="utf-8" ?>
<svg baseProfile="tiny" height="100%" version="1.2" width="100%" xmlns="http://www.w3.org/2000/svg" xmlns:ev="http://www.w3.org/2001/xml-events" xmlns:xlink="http://www.w3.org/1999/xlink"><defs /><g transform="translate(0, 1000) scale(1, -1)"><path d="M65.37078857421875 218.31900024414062C69.10650634765625 218.8979949951172 72.83529663085938 219.1790008544922 76.53089904785156 219.1790008544922C110.322998046875 219.1790008544922 141.33700561523438 195.70599365234375 149.4499969482422 162.18699645996094C150.8489990234375 156.44500732421875 151.5260009765625 150.5500030517578 151.5260009765625 144.6699981689453C151.5260009765625 125.66799926757812 144.45399475097656 106.8330078125 131.82899475097656 93.88211059570312L129.64999389648438 91.6083984375L134.14999389648438 92.83990478515625C174.50799560546875 103.87699890136719 209.93899536132812 137.27200317382812 226.7550048828125 180.23500061035156C227.93899536132812 183.36099243164062 229.5500030517578 186.62899780273438 230.21299743652344 187.48199462890625C233.56500244140625 191.69400024414062 238.11000061035156 193.5850067138672 242.53900146484375 193.5850067138672C250.31300354003906 193.5850067138672 257.7340087890625 187.75900268554688 257.7340087890625 178.43499755859375C257.7340087890625 175.4029998779297 150.20799255371094 -185.1649932861328 148.0760040283203 -189.28599548339844C145.46200561523438 -194.36000061035156 140.1739959716797 -196.81199645996094 134.84500122070312 -196.81199645996094C128.77999877929688 -196.81199645996094 122.66000366210938 -193.63600158691406 120.36599731445312 -187.53399658203125C119.88400268554688 -186.23899841308594 119.36399841308594 -185.76800537109375 119.36399841308594 -184.093994140625C119.36399841308594 -178.35699462890625 125.47000122070312 -158.48699951171875 160.15499877929688 -42.91790771484375C182.55999755859375 31.7821044921875 200.89199829101562 92.98210144042969 200.89199829101562 93.12420654296875C200.89199829101562 93.1326904296875 200.88600158691406 93.13690185546875 200.875 93.13690185546875C200.64199829101562 93.13690185546875 197.99000549316406 91.25599670410156 194.73399353027344 88.8135986328125C167.4510040283203 68.33270263671875 135.08099365234375 58.000091552734375 103.99200439453125 58.000091552734375C75.76119995117188 58.000091552734375 48.587493896484375 66.52011108398438 27.239303588867188 83.69779968261719C8.518081665039062 98.78369140625 0.0 119.79499816894531 0.0 140.77999877929688C0.0 176.39700317382812 24.53619384765625 211.94000244140625 65.37078857421875 218.31900024414062Z" fill="black" /></g></svg>