<?xml version="1.0" encoding="utf-8" ?>
<svg baseProfile="tiny" height="100%" version="1.2" width="100%" xmlns="http://www.w3.org/2000/svg" xmlns:ev="http://www.w3.org/2001/xml-events" xmlns:xlink="http://www.w3.org/1999/xlink"><defs /><g transform="translate(0, 1000) scale(1, -1)"><path d="M286.92401123046875 464.635009765625C290.65899658203125 465.2139892578125 294.38800048828125 465.4939880371094 298.0840148925781 465.4939880371094C331.8760070800781 465.4939880371094 362.8900146484375 442.0220031738281 371.00299072265625 408.50299072265625C372.4020080566406 402.760986328125 373.0790100097656 396.864990234375 373.0790100097656 390.9859924316406C373.0790100097656 371.9840087890625 366.0069885253906 353.14898681640625 353.3819885253906 340.197998046875L351.2030029296875 337.92401123046875L355.7030029296875 339.156005859375C396.0610046386719 350.1929931640625 431.49200439453125 383.5870056152344 448.3080139160156 426.54998779296875C449.49200439453125 429.677001953125 451.1029968261719 432.94500732421875 451.7659912109375 433.7980041503906C455.1180114746094 438.010009765625 459.6619873046875 439.9010009765625 464.0920104980469 439.9010009765625C471.8659973144531 439.9010009765625 479.2869873046875 434.07501220703125 479.2869873046875 424.75C479.2869873046875 421.718994140625 150.07598876953125 -677.75 147.9449920654297 -681.9180297851562C145.3309783935547 -686.9910278320312 140.04298400878906 -689.4429931640625 134.7139892578125 -689.4429931640625C128.64797973632812 -689.4429931640625 122.52897644042969 -686.2670288085938 120.23399353027344 -680.1649780273438C119.75297546386719 -678.8699951171875 119.23197937011719 -678.4000244140625 119.23197937011719 -676.7249755859375C119.23197937011719 -670.9879760742188 125.33798217773438 -651.1179809570312 160.02398681640625 -535.5499877929688C182.42898559570312 -460.8500061035156 200.760986328125 -399.6499938964844 200.760986328125 -399.5069885253906C200.760986328125 -399.4989929199219 200.75498962402344 -399.4949951171875 200.74398803710938 -399.4949951171875C200.510986328125 -399.4949951171875 197.85897827148438 -401.3760070800781 194.6029815673828 -403.8179931640625C167.3199920654297 -424.29901123046875 134.94898986816406 -434.6310119628906 103.8599853515625 -434.6310119628906C75.6298828125 -434.6310119628906 48.456085205078125 -426.11199951171875 27.107879638671875 -408.9339904785156C9.367507934570312 -394.6109924316406 -1.52587890625e-05 -372.82598876953125 -1.52587890625e-05 -350.6409912109375C-1.52587890625e-05 -335.625 4.2910614013671875 -320.4259948730469 13.18157958984375 -307.2340087890625C28.361587524414062 -284.72601318359375 52.36387634277344 -273.6260070800781 76.27207946777344 -273.6260070800781C101.97598266601562 -273.6260070800781 127.57098388671875 -286.45599365234375 141.97598266601562 -311.7340087890625C148.281982421875 -322.8009948730469 151.3389892578125 -335.4630126953125 151.3389892578125 -348.0840148925781C151.3389892578125 -366.8479919433594 144.58297729492188 -385.5249938964844 131.69699096679688 -398.75L129.5179901123047 -401.02301025390625L134.0179901123047 -399.7919921875C174.04498291015625 -388.8500061035156 209.85498046875 -355.2650146484375 226.2919921875 -313.25C227.760986328125 -309.4599914550781 274.6549835205078 -154.281005859375 274.6549835205078 -153.19200134277344C274.6549835205078 -153.18299865722656 274.6499786376953 -153.1790008544922 274.6389923095703 -153.1790008544922C274.40599060058594 -153.1790008544922 271.7539825439453 -155.05999755859375 268.4969940185547 -157.5019989013672C241.2139892578125 -177.98300170898438 208.84397888183594 -188.3159942626953 177.75498962402344 -188.3159942626953C149.5249786376953 -188.3159942626953 122.35098266601562 -179.79600524902344 101.00297546386719 -162.6179962158203C83.26228332519531 -148.29600524902344 73.89468383789062 -126.510009765625 73.89468383789062 -104.32499694824219C73.89468383789062 -89.3092041015625 78.18577575683594 -74.11029052734375 87.07627868652344 -60.91790771484375C102.2559814453125 -38.410491943359375 126.25898742675781 -27.310501098632812 150.1669921875 -27.310501098632812C175.86997985839844 -27.310501098632812 201.46498107910156 -40.14030456542969 215.87098693847656 -65.41790771484375C222.1759796142578 -76.48570251464844 225.23397827148438 -89.14678955078125 225.23397827148438 -101.76899719238281C225.23397827148438 -120.53199768066406 218.47698974609375 -139.20899963378906 205.59197998046875 -152.4340057373047L203.41297912597656 -154.70700073242188L207.91297912597656 -153.4759979248047C247.93898010253906 -142.5339813232422 283.74998474121094 -108.94998168945312 300.18699645996094 -66.93368530273438C301.6549835205078 -63.144287109375 348.5499725341797 92.03471374511719 348.5499725341797 93.12422180175781C348.5499725341797 93.13270568847656 348.5439910888672 93.13691711425781 348.53297424316406 93.13691711425781C348.2999725341797 93.13691711425781 345.6489715576172 91.25601196289062 342.39198303222656 88.81361389160156C315.10899353027344 68.33271789550781 282.73899841308594 58.00010681152344 251.6499786376953 58.00010681152344C223.4189910888672 58.00010681152344 196.24598693847656 66.52012634277344 174.89698791503906 83.69781494140625C157.156982421875 98.02012634277344 147.7889862060547 119.80500793457031 147.7889862060547 141.9910125732422C147.7889862060547 157.00701904296875 152.0809783935547 172.20501708984375 160.97097778320312 185.39801025390625C176.15098571777344 207.90501403808594 200.15298461914062 219.00502014160156 224.06198120117188 219.00502014160156C249.76498413085938 219.00502014160156 275.35997009277344 206.17501831054688 289.76597595214844 180.89801025390625C296.0709991455078 169.83001708984375 299.1279754638672 157.1690216064453 299.1279754638672 144.54701232910156C299.1279754638672 125.78401184082031 292.3719940185547 107.10700988769531 279.4869842529297 93.88212585449219L277.30799865722656 91.60841369628906L281.80799865722656 92.83992004394531C321.83399963378906 103.78201293945312 357.6449737548828 137.3660125732422 374.0819854736328 179.38201904296875C375.5499725341797 183.17201232910156 422.4449920654297 338.3500213623047 422.4449920654297 339.4400177001953C422.4449920654297 339.4490203857422 422.43898010253906 339.45301818847656 422.42799377441406 339.45301818847656C422.1949920654297 339.45301818847656 419.54298400878906 337.57200622558594 416.28697204589844 335.12901306152344C389.0039825439453 314.6480255126953 356.6329803466797 304.31602478027344 325.5449981689453 304.31602478027344C297.31398010253906 304.31602478027344 270.13999938964844 312.8360137939453 248.7919921875 330.01402282714844C230.07098388671875 345.09901428222656 221.552978515625 366.1110076904297 221.552978515625 387.0960235595703C221.552978515625 422.71302795410156 246.0889892578125 458.2560272216797 286.9239959716797 464.63502502441406Z" fill="black" /></g></svg>