<?xml version="1.0" encoding="utf-8" ?>
<svg baseProfile="tiny" height="100%" version="1.2" width="100%" xmlns="http://www.w3.org/2000/svg" xmlns:ev="http://www.w3.org/2001/xml-events" xmlns:xlink="http://www.w3.org/1999/xlink"><defs /><g transform="translate(0, 1000) scale(1, -1)"><path d="M213.0290069580078 464.635009765625C216.7650146484375 465.2139892578125 220.49301147460938 465.4939880371094 224.1890106201172 465.4939880371094C257.9810028076172 465.4939880371094 288.99501037597656 442.0220031738281 297.10801696777344 408.50299072265625C298.5070037841797 402.760986328125 299.1840057373047 396.864990234375 299.1840057373047 390.9859924316406C299.1840057373047 371.9840087890625 292.1120147705078 353.14898681640625 279.4870147705078 340.197998046875L277.3080291748047 337.92401123046875L281.8080291748047 339.156005859375C322.16600036621094 350.1929931640625 357.5970001220703 383.5870056152344 374.4130096435547 426.54998779296875C375.5970001220703 429.677001953125 377.20802307128906 432.94500732421875 377.8710174560547 433.7980041503906C381.22300720214844 438.010009765625 385.7680206298828 439.9010009765625 390.19700622558594 439.9010009765625C397.9720001220703 439.9010009765625 405.3920135498047 434.07501220703125 405.3920135498047 424.75C405.3920135498047 421.718994140625 150.07601928710938 -431.4339599609375 147.9450225830078 -435.6019592285156C145.3310089111328 -440.6749572753906 140.0430145263672 -443.1269836425781 134.71401977539062 -443.1269836425781C128.64801025390625 -443.1269836425781 122.52900695800781 -439.9509582519531 120.23402404785156 -433.8499755859375C119.75300598144531 -432.553955078125 119.23200988769531 -432.083984375 119.23200988769531 -430.4089660644531C119.23200988769531 -424.6719665527344 125.3380126953125 -404.802978515625 160.02401733398438 -289.2339782714844C182.42901611328125 -214.53396606445312 200.76101684570312 -153.33396911621094 200.76101684570312 -153.1919708251953C200.76101684570312 -153.18296813964844 200.75502014160156 -153.17897033691406 200.7440185546875 -153.17897033691406C200.51101684570312 -153.17897033691406 197.8590087890625 -155.05996704101562 194.60301208496094 -157.50196838378906C167.3200225830078 -177.98297119140625 134.9490203857422 -188.3159637451172 103.86001586914062 -188.3159637451172C75.62991333007812 -188.3159637451172 48.45611572265625 -179.7959747314453 27.10791015625 -162.6179656982422C9.367538452148438 -148.2959747314453 1.52587890625e-05 -126.50997924804688 1.52587890625e-05 -104.32496643066406C1.52587890625e-05 -89.30917358398438 4.2910919189453125 -74.11026000976562 13.181610107421875 -60.917877197265625C28.361618041992188 -38.41046142578125 52.36390686035156 -27.310470581054688 76.27210998535156 -27.310470581054688C101.97601318359375 -27.310470581054688 127.57101440429688 -40.14027404785156 141.97601318359375 -65.41787719726562C148.28201293945312 -76.48567199707031 151.33901977539062 -89.14675903320312 151.33901977539062 -101.76896667480469C151.33901977539062 -120.53196716308594 144.5830078125 -139.20896911621094 131.697021484375 -152.43397521972656L129.5180206298828 -154.70697021484375L134.0180206298828 -153.47596740722656C174.04501342773438 -142.53395080566406 209.85501098632812 -108.949951171875 226.29202270507812 -66.93365478515625C227.76101684570312 -63.144256591796875 274.65501403808594 92.03474426269531 274.65501403808594 93.12425231933594C274.65501403808594 93.13273620605469 274.65000915527344 93.13694763183594 274.63902282714844 93.13694763183594C274.40602111816406 93.13694763183594 271.75401306152344 91.25604248046875 268.4970245361328 88.81364440917969C241.21401977539062 68.33274841308594 208.84400939941406 58.00013732910156 177.75502014160156 58.00013732910156C149.52500915527344 58.00013732910156 122.35101318359375 66.52015686035156 101.00300598144531 83.69784545898438C83.26231384277344 98.02015686035156 73.89471435546875 119.80503845214844 73.89471435546875 141.9910430908203C73.89471435546875 157.00704956054688 78.18580627441406 172.20504760742188 87.07630920410156 185.39804077148438C102.25601196289062 207.90504455566406 126.25901794433594 219.0050506591797 150.16702270507812 219.0050506591797C175.87001037597656 219.0050506591797 201.4650115966797 206.175048828125 215.8710174560547 180.89804077148438C222.17601013183594 169.83004760742188 225.2340087890625 157.16905212402344 225.2340087890625 144.5470428466797C225.2340087890625 125.78404235839844 218.47702026367188 107.10704040527344 205.59201049804688 93.88215637207031L203.4130096435547 91.60844421386719L207.9130096435547 92.83995056152344C247.9390106201172 103.78204345703125 283.75001525878906 137.3660430908203 300.18702697753906 179.38204956054688C301.65501403808594 183.1720428466797 348.5500030517578 338.3500518798828 348.5500030517578 339.44004821777344C348.5500030517578 339.4490509033203 348.5440216064453 339.4530487060547 348.5330047607422 339.4530487060547C348.3000030517578 339.4530487060547 345.6490020751953 337.57203674316406 342.3920135498047 335.12904357910156C315.10902404785156 314.64805603027344 282.73902893066406 304.31605529785156 251.65000915527344 304.31605529785156C223.4190216064453 304.31605529785156 196.2460174560547 312.83604431152344 174.8970184326172 330.01405334472656C156.17601013183594 345.0990447998047 147.65802001953125 366.1110382080078 147.65802001953125 387.09605407714844C147.65802001953125 422.7130584716797 172.1940155029297 458.2560577392578 213.02902221679688 464.6350555419922Z" fill="black" /></g></svg>