<?xml version="1.0" encoding="utf-8" ?>
<svg baseProfile="tiny" height="100%" version="1.2" width="100%" xmlns="http://www.w3.org/2000/svg" xmlns:ev="http://www.w3.org/2001/xml-events" xmlns:xlink="http://www.w3.org/1999/xlink"><defs /><g transform="translate(0, 1000) scale(1, -1)"><path d="M181.08399963378906 269.47900390625C183.1380157470703 269.5899963378906 185.2160186767578 269.6440124511719 187.31301879882812 269.6440124511719C223.7620086669922 269.6440124511719 265.6280059814453 253.31199645996094 274.54200744628906 234.94700622558594C277.1420135498047 229.59800720214844 278.34800720214844 223.9409942626953 278.34800720214844 218.37600708007812C278.34800720214844 201.2239990234375 266.89002990722656 184.93899536132812 249.43701171875 181.1840057373047C246.88002014160156 180.6300048828125 244.3670196533203 180.3679962158203 241.9230194091797 180.3679962158203C223.3150177001953 180.3679962158203 208.67901611328125 195.55999755859375 208.67901611328125 212.7969970703125C208.67901611328125 217.49600219726562 209.7670135498047 222.3470001220703 212.15802001953125 227.08399963378906C213.14401245117188 229.0570068359375 213.9180145263672 230.73199462890625 213.9180145263672 230.9459991455078C213.9180145263672 230.95799255371094 213.916015625 230.96600341796875 213.9110107421875 230.96800231933594C213.86302185058594 231.01600646972656 211.35301208496094 231.44200134277344 208.36801147460938 231.91600036621094C205.36801147460938 232.35400390625 202.3380126953125 232.56399536132812 199.3200225830078 232.56399536132812C178.51402282714844 232.56399536132812 158.30702209472656 222.58099365234375 152.8050079345703 208.51600646972656C152.38601684570312 207.447998046875 152.1850128173828 206.25799560546875 152.1850128173828 204.96800231933594C152.1850128173828 193.14700317382812 169.07301330566406 172.9010009765625 189.65802001953125 161.24200439453125C200.88401794433594 154.89500427246094 204.9110107421875 152.4320068359375 209.07901000976562 149.35299682617188C241.00401306152344 125.77700805664062 258.7160186767578 94.71150207519531 258.7160186767578 65.85220336914062C258.7160186767578 54.76060485839844 256.1000213623047 43.99479675292969 250.6680145263672 34.10530090332031C231.0650177001953 -1.4805145263671875 194.63902282714844 -21.779800415039062 151.99501037597656 -21.779800415039062C146.10601806640625 -21.779800415039062 140.0980224609375 -21.3927001953125 134.00001525878906 -20.605300903320312C108.70501708984375 -17.384201049804688 76.87371826171875 -3.078948974609375 62.18951416015625 11.557907104492188C55.63111877441406 18.132598876953125 52.636810302734375 26.693695068359375 52.636810302734375 35.36309814453125C52.636810302734375 51.74000549316406 63.322113037109375 68.50369262695312 80.85261535644531 72.99468994140625C83.88121032714844 73.76870727539062 86.85081481933594 74.13088989257812 89.72441101074219 74.13088989257812C108.69300842285156 74.13088989257812 123.48301696777344 58.34849548339844 123.48301696777344 41.03919982910156C123.48301696777344 35.132598876953125 121.76002502441406 29.048294067382812 117.89500427246094 23.35260009765625L115.52601623535156 19.847396850585938L116.85301208496094 19.373703002929688C123.41102600097656 16.832809448242188 131.97100830078125 15.55291748046875 140.47601318359375 15.55291748046875C148.61801147460938 15.55291748046875 156.71002197265625 16.726211547851562 162.9420166015625 19.089523315429688C179.27801513671875 25.261520385742188 190.75201416015625 37.4027099609375 190.75201416015625 47.409210205078125C190.75201416015625 48.922210693359375 190.49002075195312 50.38630676269531 189.9420166015625 51.773712158203125C183.40501403808594 68.21052551269531 172.65301513671875 79.05790710449219 150.6260223388672 91.37371826171875C109.21900939941406 114.60002136230469 84.60340881347656 151.8870086669922 84.60340881347656 186.23802185058594C84.60340881347656 197.35301208496094 87.18061828613281 208.16001892089844 92.60002136230469 218.08401489257812C108.84701538085938 247.92601013183594 142.38401794433594 267.39500427246094 181.08401489257812 269.47901916503906Z" fill="black" /></g></svg>