<?xml version="1.0" encoding="utf-8" ?>
<svg baseProfile="tiny" height="100%" version="1.2" width="100%" xmlns="http://www.w3.org/2000/svg" xmlns:ev="http://www.w3.org/2001/xml-events" xmlns:xlink="http://www.w3.org/1999/xlink"><defs /><g transform="translate(0, 1000) scale(1, -1)"><path d="M-117.552001953125 -0.6876068115234375C-116.22599792480469 -0.2139129638671875 -109.83099365234375 -0.071807861328125 -89.79409790039062 -0.071807861328125L-63.74139404296875 -0.024444580078125L-61.37298583984375 -1.161285400390625C-57.820404052734375 -2.771820068359375 -56.20989990234375 -4.950775146484375 -54.59930419921875 -10.066604614257812C-53.841400146484375 -12.482406616210938 -35.98350524902344 -73.16130065917969 -14.90460205078125 -144.8300018310547C6.174346923828125 -216.54600524902344 23.511199951171875 -275.2349853515625 23.700698852539062 -275.2349853515625C23.842803955078125 -275.2349853515625 41.60589599609375 -215.1719970703125 63.158599853515625 -141.75100708007812C84.75860595703125 -68.37710571289062 102.71099853515625 -7.5560455322265625 103.08999633789062 -6.656036376953125C104.88600158691406 -2.226837158203125 109.20999145507812 0.0 113.56900024414062 0.0C117.83399963378906 0.0 122.1300048828125 -2.1320953369140625 124.12200927734375 -6.419189453125C124.51199340820312 -7.273406982421875 124.95401000976562 -7.499725341796875 124.95401000976562 -8.874771118164062C124.95401000976562 -14.514694213867188 117.50599670410156 -39.47979736328125 68.41650390625 -206.36099243164062C37.29539489746094 -312.2300109863281 11.811203002929688 -399.197998046875 11.811203002929688 -399.6719970703125C11.7637939453125 -404.3609924316406 5.605926513671875 -409.760986328125 0.2059326171875 -409.760986328125C-5.4309234619140625 -409.760986328125 -12.299301147460938 -403.5559997558594 -12.346694946289062 -398.4880065917969C-12.346694946289062 -397.87200927734375 -37.7362060546875 -311.1400146484375 -68.76249694824219 -205.697998046875C-121.79299926757812 -25.456893920898438 -124.95401000976562 -14.56329345703125 -124.95401000976562 -11.08819580078125C-124.95401000976562 -10.944000244140625 -124.94900512695312 -10.812606811523438 -124.94100952148438 -10.682403564453125C-124.65699768066406 -5.6613006591796875 -122.19400024414062 -2.3455047607421875 -117.552001953125 -0.6876068115234375Z" fill="black" /></g></svg>