<?xml version="1.0" encoding="utf-8" ?>
<svg baseProfile="tiny" height="100%" version="1.2" width="100%" xmlns="http://www.w3.org/2000/svg" xmlns:ev="http://www.w3.org/2001/xml-events" xmlns:xlink="http://www.w3.org/1999/xlink"><defs /><g transform="translate(0, 1000) scale(1, -1)"><path d="M72.33160400390625 124.86399841308594C75.48440551757812 125.26597595214844 78.60009765625 125.46998596191406 81.69380187988281 125.46998596191406C105.2340087890625 125.46998596191406 127.5 113.64898681640625 155.1320037841797 87.06448364257812C173.3679962158203 69.49078369140625 194.16299438476562 54.00128173828125 207.52099609375 48.08018493652344C210.2050018310547 46.89097595214844 213.10899353027344 46.30027770996094 216.21099853515625 46.30027770996094C226.08099365234375 46.30027770996094 237.95599365234375 52.28228759765625 251.14700317382812 63.99598693847656C256.12799072265625 68.44828796386719 259.7200012207031 70.61198425292969 262.56500244140625 70.61198425292969C264.56298828125 70.61198425292969 266.1940002441406 69.54487609863281 267.6789855957031 67.45388793945312C268.7449951171875 65.95828247070312 269.32501220703125 64.63908386230469 269.32501220703125 63.23948669433594C269.32501220703125 60.4722900390625 267.0589904785156 57.391082763671875 261.80499267578125 52.01177978515625C233.62100219726562 23.3538818359375 212.44700622558594 7.1065521240234375 197.5260009765625 2.7012786865234375C191.48300170898438 0.9083099365234375 185.4429931640625 -1.52587890625e-05 179.34800720214844 -1.52587890625e-05C156.78199768066406 -1.52587890625e-05 133.45599365234375 12.452285766601562 106.34201049804688 38.55918884277344C88.10530090332031 56.13288879394531 67.31050109863281 71.62239074707031 53.952606201171875 77.54338073730469C51.26829528808594 78.73268127441406 48.364593505859375 79.32337951660156 45.26300048828125 79.32337951660156C35.39289855957031 79.32337951660156 23.517791748046875 73.34129333496094 10.3262939453125 61.62757873535156C4.0736846923828125 56.0380859375 2.79473876953125 55.232879638671875 0.0947418212890625 55.232879638671875C-4.5511474609375 55.232879638671875 -7.5554962158203125 58.33747863769531 -7.5554962158203125 62.84318542480469C-7.5554962158203125 63.52857971191406 -7.4859619140625 64.24647521972656 -7.3421173095703125 64.99078369140625C-6.536834716796875 69.39598083496094 32.35260009765625 105.39598083496094 46.1842041015625 114.53797912597656C54.0 119.70097351074219 64.65789794921875 123.91697692871094 72.33160400390625 124.86398315429688Z" fill="black" /></g></svg>