<?xml version="1.0" encoding="utf-8" ?>
<svg baseProfile="tiny" height="100%" version="1.2" width="100%" xmlns="http://www.w3.org/2000/svg" xmlns:ev="http://www.w3.org/2001/xml-events" xmlns:xlink="http://www.w3.org/1999/xlink"><defs /><g transform="translate(0, 1000) scale(1, -1)"><path d="M67.30819702148438 154.9550018310547C69.58979797363281 155.17498779296875 71.86180114746094 155.28298950195312 74.12078857421875 155.28298950195312C123.02799987792969 155.28298950195312 165.822998046875 104.72198486328125 167.63499450683594 42.691986083984375C167.67599487304688 41.249481201171875 167.6959991455078 39.80628967285156 167.6959991455078 38.36268615722656C167.6959991455078 -30.255218505859375 121.56199645996094 -99.79351806640625 45.803009033203125 -144.8870086669922C33.81280517578125 -152.0120086669922 27.095306396484375 -155.28302001953125 22.956100463867188 -155.28302001953125C20.243606567382812 -155.28302001953125 18.6383056640625 -153.87802124023438 17.38189697265625 -151.2340087890625C16.751693725585938 -149.90000915527344 16.417999267578125 -148.697021484375 16.417999267578125 -147.56600952148438C16.417999267578125 -144.36302185058594 19.095703125 -141.7340087890625 25.292404174804688 -138.30300903320312C66.60690307617188 -115.38002014160156 90.46200561523438 -76.47410583496094 90.46200561523438 -39.33882141113281C90.46200561523438 -23.678619384765625 86.21969604492188 -8.3333740234375 77.25559997558594 5.3657073974609375L76.11878967285156 7.16571044921875H71.52400207519531C42.15562438964844 7.2130889892578125 13.592422485351562 28.339401245117188 3.9293060302734375 57.234100341796875C1.2575836181640625 65.20779418945312 1.52587890625e-05 73.24539184570312 1.52587890625e-05 81.10459899902344C1.52587890625e-05 118.11300659179688 27.885421752929688 151.1649932861328 67.30821228027344 154.9550018310547Z" fill="black" /></g></svg>