<?xml version="1.0" encoding="utf-8" ?>
<svg baseProfile="tiny" height="100%" version="1.2" width="100%" xmlns="http://www.w3.org/2000/svg" xmlns:ev="http://www.w3.org/2001/xml-events" xmlns:xlink="http://www.w3.org/1999/xlink"><defs /><g transform="translate(0, 1000) scale(1, -1)"><path d="M-4.9358062744140625 408.6000061035156C-3.7042083740234375 409.1679992675781 -1.9515838623046875 409.5 0.0378875732421875 409.5C5.2484130859375 409.5 9.369461059570312 406.6109924316406 11.074722290039062 401.8739929199219C11.453720092773438 400.73699951171875 37.31681823730469 312.9630126953125 68.53260803222656 206.85800170898438C122.07501220703125 24.510101318359375 125.0150146484375 14.463394165039062 125.0150146484375 10.969894409179688C125.0150146484375 10.776199340820312 125.00601196289062 10.602706909179688 124.99601745605469 10.421096801757812C124.71202087402344 6.20526123046875 123.14802551269531 3.600006103515625 119.69102478027344 1.421051025390625L117.36903381347656 0.0H90.03793334960938H62.706329345703125L60.385223388671875 1.421051025390625C56.216827392578125 4.0263214111328125 58.49053955078125 -3.126312255859375 16.0958251953125 141.06300354003906C-5.6463165283203125 214.95799255371094 -23.504165649414062 275.4469909667969 -23.69366455078125 275.4469909667969C-23.835769653320312 275.4469909667969 -41.598968505859375 215.38400268554688 -63.15156555175781 142.01100158691406C-84.75157165527344 68.58950805664062 -102.7039794921875 7.7684173583984375 -103.08297729492188 6.8684234619140625C-104.96797180175781 2.23406982421875 -109.05996704101562 0.1396331787109375 -113.2039794921875 0.1396331787109375C-119.05596923828125 0.1396331787109375 -125.01496887207031 4.316558837890625 -125.01496887207031 11.415802001953125C-125.01496887207031 13.594696044921875 -17.630462646484375 381.17401123046875 -10.99896240234375 401.6369934082031C-10.098968505859375 404.4320068359375 -7.493682861328125 407.4630126953125 -4.9357757568359375 408.6000061035156Z" fill="black" /></g></svg>