<?xml version="1.0" encoding="utf-8" ?>
<svg baseProfile="tiny" height="100%" version="1.2" width="100%" xmlns="http://www.w3.org/2000/svg" xmlns:ev="http://www.w3.org/2001/xml-events" xmlns:xlink="http://www.w3.org/1999/xlink"><defs /><g transform="translate(0, 1000) scale(1, -1)"><path d="M100.37399291992188 332.8110046386719C101.97000122070312 333.4110107421875 103.7239990234375 333.6919860839844 105.5360107421875 333.6919860839844C112.16500854492188 333.6919860839844 119.572998046875 329.9280090332031 122.92098999023438 324.23699951171875C124.19999694824219 322.010986328125 124.29499816894531 321.6789855957031 126.9949951171875 309.3160095214844C143.76300048828125 232.05799865722656 175.87899780273438 151.43699645996094 212.11599731445312 95.6842041015625C219.1739959716797 84.8367919921875 219.78900146484375 83.41580200195312 219.78900146484375 77.6842041015625C219.78900146484375 66.1138916015625 211.69500732421875 58.8446044921875 201.54600524902344 58.8446044921875C197.48500061035156 58.8446044921875 193.09500122070312 60.008392333984375 188.76300048828125 62.52630615234375C166.35800170898438 75.50531005859375 135.61599731445312 84.78948974609375 114.86799621582031 84.78948974609375H112.0260009765625L110.27400207519531 78.25259399414062C109.27900695800781 74.69999694824219 106.91102600097656 66.8367919921875 104.968017578125 60.868408203125C101.46900939941406 50.06739807128906 99.61721801757812 42.22149658203125 99.61721801757812 35.3323974609375C99.61721801757812 25.997406005859375 103.01701354980469 18.419204711914062 110.32101440429688 7.626312255859375C112.5670166015625 4.281890869140625 113.69300842285156 1.4784393310546875 113.69300842285156 -0.8553466796875C113.69300842285156 -3.0500030517578125 112.69700622558594 -4.8293304443359375 110.70001220703125 -6.25262451171875C109.43301391601562 -7.16326904296875 108.12602233886719 -7.6436920166015625 106.66502380371094 -7.6436920166015625C102.88301086425781 -7.6436920166015625 98.07521057128906 -4.4230804443359375 90.28422546386719 2.88946533203125C77.03190612792969 15.317092895507812 70.52360534667969 28.478805541992188 70.52360534667969 44.004608154296875C70.52360534667969 54.339202880859375 73.40731811523438 65.72129821777344 79.10531616210938 78.631591796875C79.9044189453125 80.42959594726562 80.40411376953125 81.53131103515625 80.40411376953125 82.1448974609375C80.40411376953125 82.60369873046875 80.12461853027344 82.78959655761719 79.48200988769531 82.78959655761719C78.74272155761719 82.78959655761719 77.52281188964844 82.54360961914062 75.69471740722656 82.1842041015625C56.88951110839844 78.39469909667969 39.74211120605469 71.95260620117188 23.447418212890625 62.52630615234375C19.115509033203125 60.008392333984375 14.725616455078125 58.8446044921875 10.664718627929688 58.8446044921875C0.5156707763671875 58.8446044921875 -7.5789337158203125 66.1138916015625 -7.5789337158203125 77.6842041015625C-7.5789337158203125 83.41580200195312 -6.9631500244140625 84.8367919921875 0.094757080078125 95.6842041015625C36.5211181640625 151.76800537109375 67.45262145996094 229.4530029296875 85.50001525878906 310.26300048828125C88.86320495605469 325.3739929199219 91.56321716308594 329.4469909667969 100.37400817871094 332.8110046386719Z" fill="black" /></g></svg>