<?xml version="1.0" encoding="utf-8" ?>
<svg baseProfile="tiny" height="100%" version="1.2" width="100%" xmlns="http://www.w3.org/2000/svg" xmlns:ev="http://www.w3.org/2001/xml-events" xmlns:xlink="http://www.w3.org/1999/xlink"><defs /><g transform="translate(0, 1000) scale(1, -1)"><path d="M-7.8631591796875 197.0050048828125C-6.0235748291015625 197.71800231933594 -4.097503662109375 198.0540008544922 -2.18853759765625 198.0540008544922C3.767303466796875 198.0540008544922 9.556472778320312 194.7830047607422 12.031600952148438 189.4739990234375C13.02630615234375 187.3419952392578 13.02630615234375 187.10499572753906 13.263198852539062 114.15798950195312L13.5 41.021087646484375L46.989501953125 81.9473876953125C81.71051025390625 124.43699645996094 81.89999389648438 124.67401123046875 86.49468994140625 126.0C87.52011108398438 126.29800415039062 88.86300659179688 126.43899536132812 90.29570007324219 126.43899536132812C92.96659851074219 126.43899536132812 95.94940185546875 125.94699096679688 97.76840209960938 125.05300903320312C99.89999389648438 124.01100158691406 126.80499267578125 97.76840209960938 217.6580047607422 8.005264282226562L226.1840057373047 -0.378936767578125L247.26300048828125 25.20001220703125C269.9049987792969 52.6737060546875 271.4209899902344 54.33160400390625 275.21099853515625 55.563201904296875C276.9599914550781 56.12939453125 278.69000244140625 56.39149475097656 280.3609924316406 56.39149475097656C288.968994140625 56.39149475097656 295.99700927734375 49.43589782714844 295.99700927734375 41.303192138671875C295.99700927734375 39.2633056640625 295.5539855957031 37.14939880371094 294.5840148925781 35.05259704589844C292.6419982910156 30.884201049804688 169.1529998779297 -119.93699645996094 164.93699645996094 -123.25299072265625C162.28199768066406 -125.38800048828125 158.66099548339844 -126.50399780273438 155.1009979248047 -126.50399780273438C152.8159942626953 -126.50399780273438 150.5570068359375 -126.04400634765625 148.59500122070312 -125.10000610351562C146.8419952392578 -124.24700927734375 131.8260040283203 -109.65798950195312 83.46319580078125 -62.00529479980469C48.88420104980469 -27.899993896484375 20.46319580078125 0.0 20.32110595703125 0.0C20.131591796875 0.0 18.47369384765625 -1.8473663330078125 16.626296997070312 -4.1210479736328125L13.263198852539062 -8.242111206054688V-105.72599792480469C13.26318359375 -124.13298034667969 13.276077270507812 -139.19297790527344 13.276077270507812 -151.5299835205078C13.276077270507812 -213.8309783935547 12.946090698242188 -206.708984375 8.952621459960938 -210.7419891357422C5.9809112548828125 -213.7139892578125 2.062469482421875 -215.11798095703125 -1.835296630859375 -215.11798095703125C-7.5676116943359375 -215.11798095703125 -13.255218505859375 -212.0809783935547 -15.821121215820312 -206.52598571777344C-16.815811157226562 -204.39498901367188 -16.815811157226562 -204.25299072265625 -17.0526123046875 -125.00498962402344L-17.289505004882812 -45.66319274902344L-48.74211120605469 -84.17369079589844C-80.2191162109375 -122.69099426269531 -83.08111572265625 -126.54498291015625 -88.87110900878906 -126.54498291015625C-89.78150939941406 -126.54498291015625 -90.76431274414062 -126.44998168945312 -91.94212341308594 -126.37898254394531C-98.52632141113281 -125.99998474121094 -91.61051940917969 -132.5369873046875 -217.65802001953125 -8.0052490234375L-226.18402099609375 0.3789520263671875L-247.02601623535156 -24.96319580078125C-269.5740203857422 -52.34210205078125 -271.37400817871094 -54.33160400390625 -275.2110137939453 -55.563201904296875C-276.9600067138672 -56.12939453125 -278.6900177001953 -56.39149475097656 -280.3610076904297 -56.39149475097656C-288.96900939941406 -56.39149475097656 -295.9970245361328 -49.43589782714844 -295.9970245361328 -41.303192138671875C-295.9970245361328 -39.2633056640625 -295.5540008544922 -37.14939880371094 -294.5840301513672 -35.05259704589844C-292.6420135498047 -30.884201049804688 -169.15301513671875 119.93699645996094 -164.93701171875 123.25299072265625C-162.26602172851562 125.37799072265625 -158.6730194091797 126.49299621582031 -155.12802124023438 126.49299621582031C-152.82501220703125 126.49299621582031 -150.5430145263672 126.02301025390625 -148.54701232910156 125.05300903320312C-146.4630126953125 124.05799865722656 -110.4630126953125 88.86318969726562 -28.752609252929688 8.100006103515625L-20.32110595703125 -0.2368316650390625L-18.71051025390625 1.65789794921875L-17.0526123046875 3.552642822265625V94.83160400390625C-17.052597045898438 185.39999389648438 -17.052597045898438 186.1580047607422 -16.105300903320312 188.66799926757812C-14.8262939453125 192.03199768066406 -11.17889404296875 195.7259979248047 -7.8631591796875 197.0050048828125Z" fill="black" /></g></svg>