<?xml version="1.0" encoding="utf-8" ?>
<svg baseProfile="tiny" height="100%" version="1.2" width="100%" xmlns="http://www.w3.org/2000/svg" xmlns:ev="http://www.w3.org/2001/xml-events" xmlns:xlink="http://www.w3.org/1999/xlink"><defs /><g transform="translate(0, 1000) scale(1, -1)"><path d="M-11.457794189453125 109.61099243164062C-10.575393676757812 109.739990234375 -8.632186889648438 109.79598999023438 -6.142852783203125 109.79598999023438C1.390167236328125 109.79598999023438 13.924697875976562 109.27999877929688 17.200103759765625 108.71099853515625C64.90010070800781 100.37399291992188 100.66299438476562 64.61050415039062 108.33700561523438 17.52630615234375C109.63600158691406 9.656173706054688 109.98599243164062 0.6092071533203125 109.98599243164062 -46.194793701171875C109.98599243164062 -55.731201171875 109.97200012207031 -66.83499145507812 109.947998046875 -79.8157958984375L109.80499267578125 -155.60498046875L108.81098937988281 -157.7839813232422C106.01597595214844 -163.79998779296875 100.33198547363281 -166.8079833984375 94.64747619628906 -166.8079833984375C88.96328735351562 -166.8079833984375 83.27908325195312 -163.79998779296875 80.48439025878906 -157.7839813232422L79.48959350585938 -155.60498046875L79.20538330078125 -74.36837768554688C78.96859741210938 -0.7578582763671875 78.87380981445312 7.294769287109375 78.16329956054688 11.368423461914062C70.96330261230469 51.631622314453125 39.13169860839844 79.10533142089844 -0.326171875 79.10533142089844C-36.18409729003906 79.10533142089844 -67.77880859375 54.852630615234375 -76.87350463867188 20.368438720703125C-79.24200439453125 11.321136474609375 -79.09989929199219 16.43682861328125 -79.38409423828125 -72.47366333007812L-79.66828918457031 -155.60494995117188L-80.66299438476562 -157.78395080566406C-83.45779418945312 -163.79995727539062 -89.14199829101562 -166.80795288085938 -94.82620239257812 -166.80795288085938C-100.510009765625 -166.80795288085938 -106.19500732421875 -163.79995727539062 -108.98899841308594 -157.78395080566406L-109.98399353027344 -155.60494995117188V-71.76315307617188C-109.98399353027344 -62.10736083984375 -109.98597717285156 -53.527862548828125 -109.98597717285156 -45.89067077636719C-109.98597717285156 19.980438232421875 -109.833984375 15.758331298828125 -106.90498352050781 27.473724365234375C-97.19459533691406 66.03163146972656 -66.3577880859375 96.86843872070312 -27.799880981445312 106.57904052734375C-23.157791137695312 107.76303100585938 -19.320877075195312 108.47402954101562 -11.457778930664062 109.61102294921875Z" fill="black" /></g></svg>