<?xml version="1.0" encoding="utf-8" ?>
<svg baseProfile="tiny" height="100%" version="1.2" width="100%" xmlns="http://www.w3.org/2000/svg" xmlns:ev="http://www.w3.org/2001/xml-events" xmlns:xlink="http://www.w3.org/1999/xlink"><defs /><g transform="translate(0, 1000) scale(1, -1)"><path d="M-97.76220703125 348.864990234375C-93.78170776367188 349.2850036621094 -89.81880187988281 349.4909973144531 -85.88580322265625 349.4909973144531C-37.024200439453125 349.4909973144531 7.2329254150390625 317.70599365234375 23.453598022460938 269.57000732421875C25.519699096679688 263.4159851074219 26.493499755859375 257.36700439453125 26.493499755859375 251.5989990234375C26.493499755859375 226.55299377441406 8.134063720703125 206.8070068359375 -18.893798828125 206.8070068359375C-40.5885009765625 206.8070068359375 -55.60430908203125 218.0330047607422 -63.0885009765625 239.96499633789062C-73.82119750976562 271.2879943847656 -97.9169921875 290.8680114746094 -122.57499694824219 290.8680114746094C-128.60699462890625 290.8680114746094 -134.6719970703125 289.6960144042969 -140.58299255371094 287.239013671875C-157.89300537109375 280.10699462890625 -166.63699340820312 266.260986328125 -166.63699340820312 246.21099853515625C-166.63699340820312 241.625 -166.1790008544922 236.71499633789062 -165.26199340820312 231.48599243164062C-153.7519989013672 166.1179962158203 -91.98330688476562 96.10699462890625 -9.372726440429688 54.80180358886719C-2.456939697265625 51.343902587890625 4.222015380859375 48.122802734375 5.453582763671875 47.64910888671875L7.679901123046875 46.7965087890625L8.48516845703125 47.93330383300781C9.243057250976562 49.02281188964844 30.843093872070312 81.75440979003906 86.974609375 167.0180206298828L139.17501831054688 246.2650146484375L178.6800079345703 306.28102111816406C193.8380126953125 329.34901428222656 194.3590087890625 330.0120086669922 197.864013671875 332.33302307128906C201.25201416015625 334.5790252685547 204.9190216064453 335.59901428222656 208.48001098632812 335.59901428222656C218.3610076904297 335.59901428222656 227.42201232910156 327.7470245361328 227.42201232910156 316.4650115966797L227.4230194091797 315.44700622558594C227.4230194091797 310.0020294189453 227.0010223388672 309.5650177001953 211.79000854492188 286.4810028076172L70.15890502929688 71.42811584472656L44.05889892578125 31.780715942382812L43.25360107421875 30.549118041992188L48.985198974609375 27.51751708984375C111.55899047851562 -5.971893310546875 160.15899658203125 -55.61396789550781 186.30599975585938 -112.8349609375C200.46200561523438 -143.80096435546875 207.0970001220703 -175.4939727783203 207.0970001220703 -205.2169647216797C207.0970001220703 -274.65997314453125 170.8780059814453 -333.3489685058594 109.71099853515625 -346.8819580078125C101.79800415039062 -348.6429748535156 93.85330200195312 -349.490966796875 85.98880004882812 -349.490966796875C38.20709228515625 -349.490966796875 -6.5959930419921875 -318.2009582519531 -23.109603881835938 -270.2879638671875C-25.31939697265625 -263.8589782714844 -26.360397338867188 -257.5469665527344 -26.360397338867188 -251.54397583007812C-26.360397338867188 -226.41197204589844 -8.108917236328125 -206.71896362304688 19.001007080078125 -206.71896362304688C40.695709228515625 -206.71896362304688 55.71150207519531 -217.9459686279297 63.195709228515625 -239.87696838378906C74.05709838867188 -271.5209655761719 98.60610961914062 -290.8599548339844 122.947998046875 -290.8599548339844C131.7270050048828 -290.8599548339844 140.47999572753906 -288.3439636230469 148.5540008544922 -282.9819641113281C160.81399536132812 -274.85797119140625 166.79800415039062 -262.9629821777344 166.79800415039062 -246.48797607421875C166.79800415039062 -241.82997131347656 166.31900024414062 -236.80596923828125 165.36900329589844 -231.39796447753906C153.85899353027344 -166.02996826171875 92.09039306640625 -96.01927185058594 9.479904174804688 -54.71397399902344C2.564117431640625 -51.256072998046875 -4.114837646484375 -48.035064697265625 -5.346405029296875 -47.561370849609375L-7.5727081298828125 -46.708770751953125L-8.377975463867188 -47.84556579589844C-9.1358642578125 -48.93505859375 -30.735885620117188 -81.66665649414062 -86.86747741699219 -166.92994689941406L-139.0669708251953 -246.1769561767578L-178.57296752929688 -306.1929473876953C-193.73097229003906 -329.2609405517578 -194.25196838378906 -329.92494201660156 -197.75697326660156 -332.24595642089844C-201.1449737548828 -334.49195861816406 -204.8119659423828 -335.5109405517578 -208.37196350097656 -335.5109405517578C-218.2529754638672 -335.5109405517578 -227.31497192382812 -327.65895080566406 -227.31497192382812 -316.37696838378906L-227.3159637451172 -315.3589630126953C-227.31597900390625 -309.9149627685547 -226.89398193359375 -309.47694396972656 -211.6829833984375 -286.39295959472656L-70.05168151855469 -71.34034729003906L-43.95167541503906 -31.692947387695312L-43.14637756347656 -30.461349487304688L-48.87797546386719 -27.42974853515625C-145.9829864501953 24.486053466796875 -206.89898681640625 114.1070556640625 -206.99398803710938 205.19606018066406V205.44105529785156C-206.9939727783203 283.0050811767578 -161.97396850585938 342.0980682373047 -97.76217651367188 348.8650665283203ZM187.44302368164062 128.12808227539062C190.12303161621094 128.72909545898438 193.01502990722656 129.01708984375 195.99403381347656 129.01708984375C205.2300262451172 129.01708984375 215.3080291748047 126.24908447265625 222.54302978515625 121.4490966796875C235.92503356933594 112.59109497070312 242.6150360107422 98.00189208984375 242.6150360107422 83.41238403320312C242.6150360107422 68.82289123535156 235.92503356933594 54.2333984375 222.54302978515625 45.37548828125C214.94102478027344 40.31439208984375 206.0960235595703 37.83879089355469 197.27203369140625 37.83879089355469C185.86402893066406 37.83879089355469 174.49102783203125 41.977691650390625 165.89002990722656 50.01759338378906C156.02603149414062 59.236083984375 151.4900360107422 71.18309020996094 151.4900360107422 82.99578857421875C151.4900360107422 103.23208618164062 164.80203247070312 123.07308959960938 187.44302368164062 128.1280975341797ZM-206.66195678710938 -38.60870361328125C-203.98196411132812 -38.00801086425781 -201.09097290039062 -37.720001220703125 -198.11196899414062 -37.720001220703125C-188.8759765625 -37.720001220703125 -178.79696655273438 -40.48820495605469 -171.5619659423828 -45.28761291503906C-158.18096923828125 -54.1455078125 -151.48997497558594 -68.73501586914062 -151.48997497558594 -83.32450866699219C-151.48997497558594 -97.91390991210938 -158.18096923828125 -112.50390625 -171.5619659423828 -121.36090087890625C-179.16397094726562 -126.42291259765625 -188.00897216796875 -128.8979034423828 -196.8329620361328 -128.8979034423828C-208.24197387695312 -128.8979034423828 -219.6139678955078 -124.7589111328125 -228.2149658203125 -116.71890258789062C-238.07896423339844 -107.50091552734375 -242.61497497558594 -95.5537109375 -242.61497497558594 -83.74111938476562C-242.61497497558594 -63.5050048828125 -229.30296325683594 -43.663299560546875 -206.66197204589844 -38.60870361328125Z" fill="black" /></g></svg>