<?xml version="1.0" encoding="utf-8" ?>
<svg baseProfile="tiny" height="100%" version="1.2" width="100%" xmlns="http://www.w3.org/2000/svg" xmlns:ev="http://www.w3.org/2001/xml-events" xmlns:xlink="http://www.w3.org/1999/xlink"><defs /><g transform="translate(0, 1000) scale(1, -1)"><path d="M-117.552001953125 409.0740051269531C-116.22599792480469 409.5469970703125 -109.83099365234375 409.6889953613281 -89.79409790039062 409.6889953613281L-63.74139404296875 409.73699951171875L-61.37298583984375 408.6000061035156C-57.820404052734375 406.989013671875 -56.20989990234375 404.8110046386719 -54.59930419921875 399.69500732421875C-53.841400146484375 397.27899169921875 -35.98350524902344 336.6000061035156 -14.90460205078125 264.9320068359375C6.174346923828125 193.21600341796875 23.511199951171875 134.5260009765625 23.700698852539062 134.5260009765625C23.842803955078125 134.5260009765625 41.60589599609375 194.58900451660156 63.158599853515625 268.010986328125C84.75860595703125 341.3840026855469 102.71099853515625 402.2049865722656 103.08999633789062 403.1050109863281C104.88600158691406 407.53399658203125 109.20999145507812 409.760986328125 113.56900024414062 409.760986328125C117.83399963378906 409.760986328125 122.1300048828125 407.6289978027344 124.12200927734375 403.3420104980469C124.51199340820312 402.4880065917969 124.95401000976562 402.2619934082031 124.95401000976562 400.8869934082031C124.95401000976562 395.24700927734375 117.50599670410156 370.2820129394531 68.41650390625 203.39999389648438C37.29539489746094 97.53160095214844 11.811203002929688 10.563201904296875 11.811203002929688 10.089508056640625C11.7637939453125 5.399993896484375 5.605926513671875 0.0 0.2059326171875 0.0C-5.4309234619140625 0.0 -12.299301147460938 6.20526123046875 -12.346694946289062 11.273696899414062C-12.346694946289062 11.889495849609375 -37.7362060546875 98.62109375 -68.76249694824219 204.06300354003906C-121.79299926757812 384.3039855957031 -124.95401000976562 395.197998046875 -124.95401000976562 398.6730041503906C-124.95401000976562 398.8169860839844 -124.94900512695312 398.9490051269531 -124.94100952148438 399.0790100097656C-124.65699768066406 404.1000061035156 -122.19400024414062 407.4159851074219 -117.552001953125 409.0740051269531Z" fill="black" /></g></svg>