<?xml version="1.0" encoding="utf-8" ?>
<svg baseProfile="tiny" height="100%" version="1.2" width="100%" xmlns="http://www.w3.org/2000/svg" xmlns:ev="http://www.w3.org/2001/xml-events" xmlns:xlink="http://www.w3.org/1999/xlink"><defs /><g transform="translate(0, 1000) scale(1, -1)"><path d="M-160.62600708007812 125.81100463867188C-159.59100341796875 126.20999145507812 -157.9929962158203 126.39399719238281 -156.25799560546875 126.39399719238281C-153.46499633789062 126.39399719238281 -150.3179931640625 125.91799926757812 -148.59500122070312 125.10000610351562C-146.8419952392578 124.24700927734375 -131.63699340820312 109.5159912109375 -83.46319580078125 62.00529479980469C-48.88420104980469 27.899993896484375 -20.46319580078125 0.0 -20.32110595703125 0.0C-20.131591796875 0.0 2.605255126953125 27.6632080078125 30.221099853515625 61.48419189453125C82.46839904785156 125.38400268554688 81.8052978515625 124.62600708007812 86.49468994140625 126.0C87.52011108398438 126.29800415039062 88.86300659179688 126.43899536132812 90.29570007324219 126.43899536132812C92.96659851074219 126.43899536132812 95.94940185546875 125.94699096679688 97.76840209960938 125.05300903320312C99.89999389648438 124.01100158691406 126.80499267578125 97.76840209960938 217.6580047607422 8.005264282226562L226.1840057373047 -0.378936767578125L247.26300048828125 25.20001220703125C269.9049987792969 52.6737060546875 271.4209899902344 54.33160400390625 275.21099853515625 55.563201904296875C276.9599914550781 56.12939453125 278.69000244140625 56.39149475097656 280.3609924316406 56.39149475097656C288.968994140625 56.39149475097656 295.99700927734375 49.43589782714844 295.99700927734375 41.303192138671875C295.99700927734375 39.2633056640625 295.5539855957031 37.14939880371094 294.5840148925781 35.05259704589844C292.6419982910156 30.884201049804688 169.1529998779297 -119.93699645996094 164.93699645996094 -123.25299072265625C162.28199768066406 -125.38800048828125 158.66099548339844 -126.50399780273438 155.1009979248047 -126.50399780273438C152.8159942626953 -126.50399780273438 150.5570068359375 -126.04400634765625 148.59500122070312 -125.10000610351562C146.8419952392578 -124.24700927734375 131.8260040283203 -109.65798950195312 83.46319580078125 -62.00529479980469C48.88420104980469 -27.899993896484375 20.46319580078125 0.0 20.32110595703125 0.0C20.131591796875 0.0 -2.605255126953125 -27.6632080078125 -30.221099853515625 -61.436798095703125C-82.46839904785156 -125.38400268554688 -81.8052978515625 -124.62600708007812 -86.49468994140625 -126.0C-87.52011108398438 -126.29800415039062 -88.86300659179688 -126.43899536132812 -90.29570007324219 -126.43899536132812C-92.96659851074219 -126.43899536132812 -95.94940185546875 -125.94699096679688 -97.76840209960938 -125.05300903320312C-99.89999389648438 -124.01100158691406 -126.37899780273438 -98.1947021484375 -217.6580047607422 -8.005264282226562L-226.1840057373047 0.378936767578125L-247.0260009765625 -24.963211059570312C-269.5740051269531 -52.34211730957031 -271.3739929199219 -54.33161926269531 -275.21099853515625 -55.56321716308594C-276.9599914550781 -56.12940979003906 -278.69000244140625 -56.391510009765625 -280.3609924316406 -56.391510009765625C-288.968994140625 -56.391510009765625 -295.99700927734375 -49.4359130859375 -295.99700927734375 -41.30320739746094C-295.99700927734375 -39.26332092285156 -295.5539855957031 -37.1494140625 -294.5840148925781 -35.0526123046875C-292.5 -30.5526123046875 -167.44700622558594 121.87898254394531 -164.08399963378906 124.0579833984375C-163.13699340820312 124.62599182128906 -161.57400512695312 125.43199157714844 -160.62600708007812 125.81098937988281Z" fill="black" /></g></svg>