<?xml version="1.0" encoding="utf-8" ?>
<svg baseProfile="tiny" height="100%" version="1.2" width="100%" xmlns="http://www.w3.org/2000/svg" xmlns:ev="http://www.w3.org/2001/xml-events" xmlns:xlink="http://www.w3.org/1999/xlink"><defs /><g transform="translate(0, 1000) scale(1, -1)"><path d="M-13.43719482421875 80.39990234375C-8.650787353515625 81.24870300292969 -3.92144775390625 81.65579223632812 0.71905517578125 81.65579223632812C45.304290771484375 81.65579223632812 81.68949890136719 44.078704833984375 81.68949890136719 -0.323760986328125C81.68949890136719 -7.006744384765625 80.86529541015625 -13.84429931640625 79.12069702148438 -20.731704711914062C69.36550903320312 -59.18229675292969 34.88380432128906 -81.65579223632812 -0.375640869140625 -81.65579223632812C-20.759201049804688 -81.65579223632812 -41.402801513671875 -74.14511108398438 -57.679290771484375 -57.86859130859375C-74.15370178222656 -41.410797119140625 -81.68949890136719 -20.884201049804688 -81.68949890136719 -0.6756134033203125C-81.68949890136719 36.640106201171875 -55.994903564453125 72.87159729003906 -13.43719482421875 80.39990234375ZM13.799697875976562 68.32089233398438C9.770156860351562 69.22149658203125 5.495819091796875 69.65769958496094 1.11590576171875 69.65769958496094C-12.473419189453125 69.65769958496094 -27.079208374023438 65.45840454101562 -38.54241943359375 57.89990234375C-58.82362365722656 44.525909423828125 -69.54472351074219 22.215194702148438 -69.54472351074219 -0.2925262451171875C-69.54472351074219 -16.527999877929688 -63.96641540527344 -32.865997314453125 -52.37400817871094 -46.026397705078125C-38.15852355957031 -62.15629577636719 -19.051116943359375 -69.70840454101562 -0.159423828125 -69.70840454101562C28.161590576171875 -69.70840454101562 55.99778747558594 -52.73609924316406 66.14178466796875 -22.24749755859375C68.60667419433594 -14.826095581054688 69.77479553222656 -7.342132568359375 69.77479553222656 -0.017425537109375C69.77479553222656 31.929000854492188 47.55497741699219 60.84539794921875 13.7996826171875 68.32089233398438Z" fill="black" /></g></svg>