<?xml version="1.0" encoding="utf-8" ?>
<svg baseProfile="tiny" height="100%" version="1.2" width="100%" xmlns="http://www.w3.org/2000/svg" xmlns:ev="http://www.w3.org/2001/xml-events" xmlns:xlink="http://www.w3.org/1999/xlink"><defs /><g transform="translate(0, 1000) scale(1, -1)"><path d="M202.05599975585938 310.15899658203125C203.0449981689453 310.27099609375 204.01699829101562 310.32501220703125 204.97000122070312 310.32501220703125C218.5279998779297 310.32501220703125 228.21400451660156 299.260986328125 228.21400451660156 284.82000732421875C228.21400451660156 282.2430114746094 227.90499877929688 279.5589904785156 227.25599670410156 276.8110046386719C226.9239959716797 275.5320129394531 226.16600036621094 270.5589904785156 225.5030059814453 265.77398681640625C219.25 220.34800720214844 200.0189971923828 152.468994140625 174.91400146484375 87.33749389648438C139.86099243164062 -3.6572113037109375 92.8240966796875 -96.12039184570312 30.345199584960938 -196.8260040283203C26.23419189453125 -203.4199981689453 20.574798583984375 -206.88299560546875 15.005294799804688 -206.88299560546875C11.333602905273438 -206.88299560546875 7.700927734375 -205.3780059814453 4.5767669677734375 -202.2729949951172C1.5604400634765625 -199.23599243164062 0.0 -196.50799560546875 0.0 -192.99899291992188C0.0 -188.6280059814453 2.4213714599609375 -183.04299926757812 7.4662322998046875 -174.13600158691406C101.82400512695312 -8.062469482421875 171.31399536132812 175.30099487304688 181.8769989013672 285.8110046386719C183.29800415039062 300.73199462890625 189.9770050048828 308.7850036621094 202.05599975585938 310.15899658203125ZM344.1610107421875 310.15899658203125C345.1499938964844 310.27099609375 346.12200927734375 310.32501220703125 347.07501220703125 310.32501220703125C360.63299560546875 310.32501220703125 370.3190002441406 299.260986328125 370.3190002441406 284.82000732421875C370.3190002441406 282.2430114746094 370.010986328125 279.5589904785156 369.3609924316406 276.8110046386719C369.02899169921875 275.5320129394531 368.27099609375 270.5589904785156 367.6080017089844 265.77398681640625C361.3559875488281 220.34800720214844 342.1239929199219 152.468994140625 317.0190124511719 87.33749389648438C281.96600341796875 -3.6572113037109375 234.9290008544922 -96.12039184570312 172.4499969482422 -196.8260040283203C168.33999633789062 -203.4199981689453 162.67999267578125 -206.88299560546875 157.11099243164062 -206.88299560546875C153.43899536132812 -206.88299560546875 149.80599975585938 -205.3780059814453 146.6820068359375 -202.2729949951172C143.66600036621094 -199.23599243164062 142.10499572753906 -196.50799560546875 142.10499572753906 -192.99899291992188C142.10499572753906 -188.6280059814453 144.52699279785156 -183.04299926757812 149.5709991455078 -174.13600158691406C243.9290008544922 -8.062469482421875 313.41900634765625 175.30099487304688 323.98199462890625 285.8110046386719C325.40301513671875 300.73199462890625 332.0820007324219 308.7850036621094 344.1610107421875 310.15899658203125Z" fill="black" /></g></svg>