<?xml version="1.0" encoding="utf-8" ?>
<svg baseProfile="tiny" height="100%" version="1.2" width="100%" xmlns="http://www.w3.org/2000/svg" xmlns:ev="http://www.w3.org/2001/xml-events" xmlns:xlink="http://www.w3.org/1999/xlink"><defs /><g transform="translate(0, 1000) scale(1, -1)"><path d="M-144.2899932861328 14.1632080078125C-142.3330078125 14.927093505859375 -70.10311889648438 15.305999755859375 1.580902099609375 15.305999755859375C72.135986328125 15.305999755859375 142.1619873046875 14.93890380859375 144.135986328125 14.210494995117188C150.1589813232422 11.962799072265625 153.51698303222656 5.9983673095703125 153.51698303222656 -0.0457763671875C153.51698303222656 -3.9366912841796875 152.12498474121094 -7.8606414794921875 149.156982421875 -10.847396850585938C145.14398193359375 -14.821701049804688 156.22698974609375 -15.174301147460938 70.27618408203125 -15.174301147460938C51.737884521484375 -15.174301147460938 28.68548583984375 -15.15789794921875 -0.006011962890625 -15.15789794921875C-28.697509765625 -15.15789794921875 -51.74992370605469 -15.174301147460938 -70.28822326660156 -15.174301147460938C-156.239013671875 -15.174301147460938 -145.15602111816406 -14.821701049804688 -149.1690216064453 -10.847396850585938C-152.13002014160156 -7.86785888671875 -153.5170135498047 -3.9439544677734375 -153.5170135498047 -0.05133056640625C-153.5170135498047 5.9576873779296875 -150.21202087402344 11.892196655273438 -144.29000854492188 14.1632080078125ZM-8.816543579101562 -81.94740295410156C-6.0656890869140625 -81.45381164550781 -3.2957305908203125 -81.21492004394531 -0.536865234375 -81.21492004394531C18.414688110351562 -81.21492004394531 36.84217834472656 -92.48681640625 44.94657897949219 -109.89500427246094C47.749481201171875 -115.91801452636719 49.25718688964844 -124.17402648925781 49.25718688964844 -131.85301208496094C49.25718688964844 -136.37200927734375 48.73478698730469 -140.6920166015625 47.64659118652344 -144.2370147705078C44.141387939453125 -155.79501342773438 37.13078308105469 -165.4110107421875 27.704483032226562 -171.7580108642578C19.209091186523438 -177.40402221679688 9.56292724609375 -180.1070098876953 0.0287628173828125 -180.1070098876953C-15.953811645507812 -180.1070098876953 -31.621810913085938 -172.51101684570312 -41.02711486816406 -158.447021484375C-46.75502014160156 -149.83502197265625 -49.38801574707031 -140.3100128173828 -49.38801574707031 -130.97401428222656C-49.38801574707031 -108.11500549316406 -33.603515625 -86.38682556152344 -8.816543579101562 -81.94741821289062Z" fill="black" /></g></svg>