<?xml version="1.0" encoding="utf-8" ?>
<svg baseProfile="tiny" height="100%" version="1.2" width="100%" xmlns="http://www.w3.org/2000/svg" xmlns:ev="http://www.w3.org/2001/xml-events" xmlns:xlink="http://www.w3.org/1999/xlink"><defs /><g transform="translate(0, 1000) scale(1, -1)"><path d="M-6.0223388671875 469.13800048828125C-4.0956573486328125 469.8800048828125 -2.1326751708984375 470.2380065917969 -0.204437255859375 470.2380065917969C5.49969482421875 470.2380065917969 10.899703979492188 467.1050109863281 14.156600952148438 461.5119934082031L17.709197998046875 455.6860046386719C18.893402099609375 453.885986328125 20.551300048828125 451.09100341796875 21.498703002929688 449.52801513671875L25.2882080078125 443.3699951171875L29.077713012695312 437.2120056152344L32.86711120605469 431.0539855957031L36.6566162109375 424.89599609375L40.44610595703125 418.7380065917969L44.23561096191406 412.5799865722656L48.02500915527344 406.4219970703125L51.81449890136719 400.2650146484375L55.60400390625 394.10699462890625L59.393402099609375 387.9490051269531L63.18290710449219 381.7909851074219C64.36711120605469 379.9909973144531 66.02500915527344 377.2909851074219 66.87771606445312 375.8699951171875L70.99871826171875 369.2380065917969L74.7882080078125 363.0799865722656L78.57769775390625 356.9219970703125L82.22500610351562 351.0010070800781L85.44610595703125 345.7909851074219L89.23561096191406 339.63299560546875L93.02500915527344 333.4750061035156L96.81449890136719 327.3169860839844L100.60398864746094 321.15899658203125L104.39299011230469 315.0010070800781L108.18299865722656 308.843994140625L111.97200012207031 302.6860046386719L115.76200866699219 296.52801513671875L119.55101013183594 290.3699951171875L123.34101867675781 284.2120056152344L127.13002014160156 278.0539855957031L130.92002868652344 271.89599609375C132.1040496826172 270.09600830078125 133.7620391845703 267.39599609375 134.61404418945312 265.9750061035156L138.7360382080078 259.343994140625L142.52503967285156 253.18600463867188L146.3140411376953 247.0279998779297L149.96205139160156 241.10699462890625L153.18304443359375 235.89599609375L156.9720458984375 229.73800659179688L160.7620391845703 223.5800018310547L164.55104064941406 217.4219970703125L168.34104919433594 211.26499938964844L172.1300506591797 205.10699462890625L175.9200439453125 198.94900512695312L179.70904541015625 192.79100036621094L183.49903869628906 186.63299560546875L187.2880401611328 180.47500610351562L191.0780487060547 174.31700134277344L194.86705017089844 168.15899658203125L198.65704345703125 162.00100708007812C199.841064453125 160.2010040283203 201.49905395507812 157.50100708007812 202.35105895996094 156.0800018310547L206.47206115722656 149.44900512695312L210.26205444335938 143.29100036621094L217.8880615234375 130.97500610351562L220.92005920410156 126.00100708007812L224.7090606689453 119.84400939941406L228.49905395507812 113.68600463867188L232.28805541992188 107.52801513671875L236.07806396484375 101.37002563476562L239.8670654296875 95.2119140625L243.6570587158203 89.05401611328125L247.44606018066406 82.8961181640625L251.23605346679688 76.73822021484375L255.02505493164062 70.580322265625L258.8140563964844 64.42251586914062L262.60406494140625 58.264617919921875L265.9670715332031 52.81721496582031C266.63006591796875 51.63301086425781 267.9090576171875 49.64350891113281 268.7620544433594 48.31721496582031C269.61407470703125 47.03822326660156 271.13006591796875 44.57511901855469 272.17205810546875 42.86981201171875L279.799072265625 30.55401611328125C284.0440673828125 23.958892822265625 286.1590576171875 18.563507080078125 286.1590576171875 14.022598266601562C286.1590576171875 10.051193237304688 284.5410461425781 6.73333740234375 281.3140563964844 3.8382415771484375C277.24505615234375 0.1582794189453125 278.16107177734375 0.0 255.27505493164062 0.0C253.12106323242188 0.0 250.7560577392578 0.00140380859375 248.1570587158203 0.00140380859375C247.80406188964844 0.00140380859375 247.45506286621094 0.00140380859375 247.1100616455078 0.00140380859375C216.04705810546875 0.00140380859375 216.31805419921875 0.0477294921875 211.39906311035156 8.4803466796875L207.6570587158203 14.685592651367188L203.8670654296875 20.843490600585938L200.07806396484375 27.001388549804688L196.28805541992188 33.15928649902344L192.49905395507812 39.31718444824219L188.7090606689453 45.47508239746094L184.92005920410156 51.63298034667969L181.13006591796875 57.79087829589844L177.341064453125 63.94877624511719L173.55105590820312 70.10667419433594L169.76205444335938 76.26457214355469L165.97206115722656 82.42247009277344L162.1830596923828 88.58027648925781L158.48806762695312 94.50138854980469L154.3670654296875 101.13298034667969L150.57806396484375 107.29096984863281L147.3570556640625 112.50096130371094L143.6620635986328 118.42195129394531C142.76206970214844 119.98594665527344 141.0570831298828 122.77995300292969 139.92007446289062 124.5799560546875L136.1300811767578 130.7379608154297L132.34107971191406 136.8959503173828L128.5510711669922 143.053955078125L124.76206970214844 149.2119598388672L120.97206115722656 155.3699493408203L117.18305969238281 161.5279541015625L113.39305114746094 167.6859588623047L109.60404968261719 173.8439483642578L105.81405639648438 180.00096130371094L102.02505493164062 186.15895080566406L98.23565673828125 192.31695556640625L94.44615173339844 198.47496032714844L90.75135803222656 204.3959503173828L86.63035583496094 211.0279541015625L82.84085083007812 217.1859588623047L79.61984252929688 222.3959503173828L75.925048828125 228.31695556640625C75.02505493164062 229.87994384765625 73.31985473632812 232.67494201660156 72.18295288085938 234.47494506835938L68.39346313476562 240.6329345703125L64.60406494140625 246.7909393310547L60.8145751953125 252.94894409179688L57.02508544921875 259.10693359375L53.235687255859375 265.26495361328125L49.44618225097656 271.42193603515625L45.65669250488281 277.5799255371094L41.8671875 283.7379455566406L38.077789306640625 289.89593505859375L34.28828430175781 296.0539245605469L30.498779296875 302.2119445800781L26.709274291992188 308.36993408203125L23.014572143554688 314.2909240722656L18.893478393554688 320.92193603515625L15.104080200195312 327.0799255371094L11.882980346679688 332.2909240722656L8.188262939453125 338.2119445800781C7.28826904296875 339.7749328613281 5.5830078125 342.5699462890625 4.4461669921875 344.36993408203125L0.6566925048828125 350.5279541015625L-3.132781982421875 356.6859436035156L-6.9222564697265625 362.84393310546875L-10.711715698242188 369.0009460449219C-11.848617553710938 370.84893798828125 -13.50653076171875 373.4539489746094 -14.311721801757812 374.87493896484375L-17.295913696289062 379.7539367675781L-20.65911865234375 385.10693359375C-21.767303466796875 386.9159240722656 -22.260009765625 387.8719482421875 -22.781707763671875 387.8719482421875C-23.35260009765625 387.8719482421875 -23.958206176757812 386.7269287109375 -25.443313598632812 384.3009338378906L-64.94862365722656 320.2119445800781L-137.80091857910156 202.02793884277344L-209.3279266357422 85.97503662109375L-251.6749267578125 17.29083251953125C-258.9699401855469 5.401336669921875 -261.2429504394531 2.6539764404296875 -265.1279296875 1.185546875C-267.0979309082031 0.454315185546875 -269.0719299316406 0.1125640869140625 -270.97894287109375 0.1125640869140625C-279.1989440917969 0.1125640869140625 -286.158935546875 6.4665374755859375 -286.158935546875 15.348739624023438V15.410842895507812C-286.158935546875 20.274856567382812 -286.1119384765625 20.33355712890625 -263.84893798828125 56.51185607910156L-58.64863586425781 389.3699493408203L-18.101242065429688 455.2119598388672C-12.132858276367188 464.96995544433594 -9.717041015625 467.7169647216797 -6.0222930908203125 469.13795471191406ZM-9.717041015625 96.11186218261719C-7.036956787109375 96.71255493164062 -4.145538330078125 97.00056457519531 -1.1665191650390625 97.00056457519531C8.06964111328125 97.00056457519531 18.148025512695312 94.23234558105469 25.3829345703125 89.43295288085938C38.7645263671875 80.57505798339844 45.455322265625 65.98554992675781 45.455322265625 51.39605712890625C45.455322265625 36.80665588378906 38.7645263671875 22.217147827148438 25.3829345703125 13.3592529296875C17.780929565429688 8.298110961914062 8.935653686523438 5.8225555419921875 0.11224365234375 5.8225555419921875C-11.29656982421875 5.8225555419921875 -22.668869018554688 9.96142578125 -31.269668579101562 18.001358032226562C-41.13417053222656 27.2198486328125 -45.67027282714844 39.16685485839844 -45.67027282714844 50.97944641113281C-45.67027282714844 71.21556091308594 -32.3582763671875 91.0572509765625 -9.717056274414062 96.11186218261719Z" fill="black" /></g></svg>