<?xml version="1.0" encoding="utf-8" ?>
<svg baseProfile="tiny" height="100%" version="1.2" width="100%" xmlns="http://www.w3.org/2000/svg" xmlns:ev="http://www.w3.org/2001/xml-events" xmlns:xlink="http://www.w3.org/1999/xlink"><defs /><g transform="translate(0, 1000) scale(1, -1)"><path d="M-277.5790100097656 362.59100341796875 -274.73699951171875 363.9179992675781H0.0H274.73699951171875L277.5790100097656 362.59100341796875C280.79998779296875 361.02801513671875 283.5950012207031 358.2330017089844 285.1109924316406 354.9649963378906L286.1050109863281 352.7860107421875V182.0229949951172V11.259796142578125L285.1109924316406 9.080841064453125C282.3160095214844 3.0650634765625 276.6319885253906 0.0571746826171875 270.9469909667969 0.0571746826171875C265.26300048828125 0.0571746826171875 259.5790100097656 3.0650634765625 256.78399658203125 9.080856323242188L255.78900146484375 11.259811401367188L255.64700317382812 126.98101806640625L255.55299377441406 242.65501403808594H0.0H-255.55299377441406L-255.64700317382812 126.98101806640625L-255.78900146484375 11.259811401367188L-256.78399658203125 9.080856323242188C-259.4440002441406 3.381988525390625 -265.1759948730469 1.52587890625e-05 -271.0790100097656 1.52587890625e-05C-273.27099609375 1.52587890625e-05 -275.4880065917969 0.4666595458984375 -277.5790100097656 1.454559326171875C-280.79998779296875 3.0177154541015625 -283.5950012207031 5.81243896484375 -285.1109924316406 9.08087158203125L-286.1050109863281 11.25982666015625V182.0230255126953V352.7860412597656L-285.1109924316406 354.96502685546875C-283.5950012207031 358.2330322265625 -280.79998779296875 361.0280456542969 -277.5790100097656 362.5910339355469ZM-9.899993896484375 96.00192260742188C-7.2198944091796875 96.60263061523438 -4.3284912109375 96.890625 -1.3494720458984375 96.890625C7.886688232421875 96.890625 17.965103149414062 94.12232971191406 25.199996948242188 89.32302856445312C38.58160400390625 80.46513366699219 45.27239990234375 65.87564086914062 45.27239990234375 51.2861328125C45.27239990234375 36.696624755859375 38.58160400390625 22.10723876953125 25.199996948242188 13.24932861328125C17.597991943359375 8.18817138671875 8.752700805664062 5.712615966796875 -0.070709228515625 5.712615966796875C-11.4794921875 5.712615966796875 -22.851806640625 9.851486206054688 -31.452606201171875 17.891433715820312C-41.317108154296875 27.10992431640625 -45.85319519042969 39.05693054199219 -45.85319519042969 50.869537353515625C-45.85319519042969 71.10562133789062 -32.54119873046875 90.94732666015625 -9.899993896484375 96.00192260742188Z" fill="black" /></g></svg>