<?xml version="1.0" encoding="utf-8" ?>
<svg baseProfile="tiny" height="100%" version="1.2" width="100%" xmlns="http://www.w3.org/2000/svg" xmlns:ev="http://www.w3.org/2001/xml-events" xmlns:xlink="http://www.w3.org/1999/xlink"><defs /><g transform="translate(0, 1000) scale(1, -1)"><path d="M-101.4580078125 165.41099548339844C-99.089599609375 166.49998474121094 -98.00019836425781 166.7369842529297 -94.82650756835938 166.7369842529297C-88.47909545898438 166.7369842529297 -83.31590270996094 163.46798706054688 -80.66329956054688 157.7839813232422L-79.66860961914062 155.60498046875L-79.3843994140625 72.47369384765625C-79.10018920898438 -16.436798095703125 -79.2423095703125 -11.32110595703125 -76.87380981445312 -20.368408203125C-70.33700561523438 -45.047393798828125 -51.10540771484375 -65.98419189453125 -27.089599609375 -74.55789184570312C-18.254898071289062 -77.69000244140625 -9.26708984375 -79.1708984375 -0.449249267578125 -79.1708984375C34.60679626464844 -79.1708984375 66.97659301757812 -55.765106201171875 76.36300659179688 -19.65789794921875C79.06300354003906 -9.236846923828125 78.9208984375 -13.83160400390625 79.20510864257812 74.368408203125L79.48931884765625 155.60501098632812L80.48411560058594 157.7840118408203C83.27882385253906 163.80001831054688 88.9630126953125 166.80801391601562 94.647216796875 166.80801391601562C100.33100891113281 166.80801391601562 106.01600646972656 163.80001831054688 108.81001281738281 157.7840118408203L109.80500793457031 155.60501098632812L109.94700622558594 79.81582641601562C109.96900939941406 66.00863647460938 109.98600769042969 54.266021728515625 109.98600769042969 44.22492980957031C109.98600769042969 -11.08197021484375 109.46000671386719 -14.765167236328125 106.25201416015625 -27.473663330078125C99.33671569824219 -54.89996337890625 81.38410949707031 -79.19996643066406 56.9420166015625 -94.07366943359375C39.03521728515625 -104.98497009277344 19.476715087890625 -110.03697204589844 0.2489471435546875 -110.03697204589844C-47.96748352050781 -110.03697204589844 -94.10478210449219 -78.269775390625 -106.90498352050781 -27.473663330078125C-109.833984375 -15.758270263671875 -109.98597717285156 -19.980377197265625 -109.98597717285156 45.89073181152344C-109.98597717285156 53.527923583984375 -109.98399353027344 62.107421875 -109.98399353027344 71.76322937011719V155.6050262451172L-108.989990234375 157.78402709960938C-107.4739990234375 161.0530242919922 -104.67900085449219 163.84703063964844 -101.4580078125 165.41102600097656Z" fill="black" /></g></svg>