<?xml version="1.0" encoding="utf-8" ?>
<svg baseProfile="tiny" height="100%" version="1.2" width="100%" xmlns="http://www.w3.org/2000/svg" xmlns:ev="http://www.w3.org/2001/xml-events" xmlns:xlink="http://www.w3.org/1999/xlink"><defs /><g transform="translate(0, 1000) scale(1, -1)"><path d="M-7.028289794921875 280.7850036621094C-5.683013916015625 281.2179870605469 -3.3874969482421875 281.4309997558594 -1.093170166015625 281.4309997558594C1.136505126953125 281.4309997558594 3.365020751953125 281.22900390625 4.719085693359375 280.8330078125C8.698028564453125 279.60101318359375 12.392807006835938 276.8059997558594 14.80859375 273.20599365234375C17.887496948242188 268.5169982910156 17.887496948242188 268.8479919433594 17.887496948242188 240.66400146484375C17.887496948242188 216.6959991455078 17.934906005859375 215.17999267578125 18.740097045898438 215.17999267578125C25.087493896484375 215.13299560546875 48.20330810546875 206.6060028076172 60.89799499511719 199.54800415039062C107.79299926757812 173.49600219726562 140.8090057373047 128.25900268554688 157.57699584960938 66.91670227050781C160.656005859375 55.595703125 165.2030029296875 26.890396118164062 165.2030029296875 18.600906372070312C165.2030029296875 18.269302368164062 173.11399841308594 18.127197265625 189.02999877929688 18.127197265625C214.0399932861328 18.127197265625 215.2239990234375 18.032501220703125 218.58799743652344 15.94830322265625C225.12399291992188 11.827194213867188 228.39300537109375 5.5035552978515625 228.39300537109375 -0.82012939453125C228.39300537109375 -7.1438140869140625 225.12399291992188 -13.467498779296875 218.58799743652344 -17.588592529296875C215.2239990234375 -19.672805786132812 214.0399932861328 -19.767501831054688 189.02999877929688 -19.767501831054688C173.11399841308594 -19.767501831054688 165.2030029296875 -19.90960693359375 165.2030029296875 -20.241195678710938C165.2030029296875 -28.53070068359375 160.656005859375 -57.23590087890625 157.57699584960938 -68.5570068359375C140.8090057373047 -129.8990020751953 107.79299926757812 -175.13600158691406 60.89799499511719 -201.18899536132812C48.20330810546875 -208.24600219726562 25.087493896484375 -216.7729949951172 18.740097045898438 -216.82000732421875C17.934906005859375 -216.82000732421875 17.887496948242188 -218.28900146484375 17.887496948242188 -241.30999755859375C17.887496948242188 -267.125 17.792800903320312 -268.2619934082031 15.708602905273438 -271.625C11.587493896484375 -278.1619873046875 5.263824462890625 -281.4309997558594 -1.05987548828125 -281.4309997558594C-7.383544921875 -281.4309997558594 -13.707199096679688 -278.1619873046875 -17.82830810546875 -271.625C-19.912506103515625 -268.2619934082031 -20.0072021484375 -267.125 -20.0072021484375 -241.30999755859375C-20.0072021484375 -218.28900146484375 -20.054595947265625 -216.82000732421875 -20.8125 -216.82000732421875C-27.207199096679688 -216.7729949951172 -50.322998046875 -208.24600219726562 -63.017791748046875 -201.18899536132812C-109.91299438476562 -175.13600158691406 -142.92799377441406 -129.8990020751953 -159.69700622558594 -68.5570068359375C-162.7760009765625 -57.23590087890625 -167.322998046875 -28.53070068359375 -167.322998046875 -20.241195678710938C-167.322998046875 -19.90960693359375 -174.90199279785156 -19.767501831054688 -190.15499877929688 -19.767501831054688L-193.27999877929688 -19.7677001953125C-216.72900390625 -19.7677001953125 -216.30299377441406 -19.680496215820312 -221.89100646972656 -15.40960693359375C-226.2259979248047 -12.070098876953125 -228.39300537109375 -6.44512939453125 -228.39300537109375 -0.82012939453125C-228.39300537109375 4.80487060546875 -226.2259979248047 10.429901123046875 -221.89100646972656 13.769302368164062C-216.30299377441406 18.040191650390625 -216.72900390625 18.127395629882812 -193.27999877929688 18.127395629882812L-190.15499877929688 18.127197265625C-175.37600708007812 18.127197265625 -167.322998046875 18.316696166992188 -167.322998046875 18.600906372070312C-167.322998046875 26.843002319335938 -162.7760009765625 55.64300537109375 -159.69700622558594 66.91670227050781C-142.92799377441406 128.25900268554688 -109.91299438476562 173.49600219726562 -63.017791748046875 199.54800415039062C-50.322998046875 206.6060028076172 -27.207199096679688 215.13299560546875 -20.8125 215.17999267578125C-20.054595947265625 215.17999267578125 -20.0072021484375 216.6959991455078 -20.0072021484375 240.66400146484375C-20.0072021484375 261.4590148925781 -19.865097045898438 266.5270080566406 -19.29669189453125 268.375C-17.6387939453125 273.8689880371094 -12.522994995117188 279.0799865722656 -7.028289794921875 280.7850036621094ZM-20.0072021484375 98.41670227050781C-20.0072021484375 142.5640106201172 -20.1492919921875 178.7060089111328 -20.33880615234375 178.7060089111328C-22.565093994140625 178.6110076904297 -38.24409484863281 164.0220184326172 -44.30720520019531 156.44300842285156C-69.69670104980469 124.56401062011719 -88.26510620117188 71.843017578125 -90.87039184570312 24.190414428710938L-91.20199584960938 18.127212524414062H-55.58088684082031H-20.007186889648438ZM22.861221313476562 175.53302001953125C20.540115356445312 177.23800659179688 18.455917358398438 178.70599365234375 18.26641845703125 178.70599365234375C18.029617309570312 178.70599365234375 17.88751220703125 142.56399536132812 17.88751220703125 98.41670227050781V18.127197265625H53.461212158203125H89.08221435546875L88.75071716308594 24.190399169921875C85.38751220703125 85.01139831542969 57.108612060546875 150.00100708007812 22.861221313476562 175.5330047607422ZM-20.007186889648438 -100.05699157714844V-19.767501831054688H-55.58088684082031H-91.20199584960938L-90.87039184570312 -25.783309936523438C-88.26510620117188 -73.48332214355469 -69.69670104980469 -126.20402526855469 -44.30720520019531 -158.0830078125C-38.24409484863281 -165.66201782226562 -22.565093994140625 -180.25201416015625 -20.33880615234375 -180.34600830078125C-20.1492919921875 -180.34600830078125 -20.0072021484375 -144.20401000976562 -20.0072021484375 -100.05702209472656ZM88.75070190429688 -25.783309936523438 89.08219909667969 -19.767501831054688H53.46119689941406H17.887496948242188V-100.05699157714844C17.887481689453125 -144.2039794921875 18.029586791992188 -180.34597778320312 18.266387939453125 -180.34597778320312C20.445388793945312 -180.25198364257812 36.12428283691406 -165.6619873046875 42.18748474121094 -158.08297729492188C67.57698059082031 -126.20399475097656 86.1453857421875 -73.48329162597656 88.75068664550781 -25.783279418945312Z" fill="black" /></g></svg>