<?xml version="1.0" encoding="utf-8" ?>
<svg baseProfile="tiny" height="100%" version="1.2" width="100%" xmlns="http://www.w3.org/2000/svg" xmlns:ev="http://www.w3.org/2001/xml-events" xmlns:xlink="http://www.w3.org/1999/xlink"><defs /><g transform="translate(0, 1000) scale(1, -1)"><path d="M-7.082550048828125 199.83900451660156C-5.2303619384765625 200.5600128173828 -3.2924957275390625 200.89901733398438 -1.3747100830078125 200.89901733398438C4.898193359375 200.89901733398438 10.95599365234375 197.27101135253906 13.096405029296875 191.50201416015625C14.043792724609375 188.9920196533203 14.043792724609375 188.13902282714844 14.043792724609375 118.98101806640625V49.018310546875L29.817489624023438 33.813018798828125C90.49638366699219 -24.87646484375 147.24398803710938 -58.12907409667969 204.65399169921875 -68.64486694335938C207.52899169921875 -69.17367553710938 210.4049835205078 -69.42977905273438 213.2639923095703 -69.42977905273438C244.47598266601562 -69.42977905273438 273.7639923095703 -38.91886901855469 278.40699768066406 0.6551513671875C278.7159881591797 3.2901458740234375 278.8669891357422 5.857147216796875 278.8669891357422 8.352157592773438C278.8669891357422 40.244232177734375 254.27098083496094 60.373931884765625 222.51698303222656 60.373931884765625C208.8369903564453 60.373931884765625 193.8289794921875 56.638031005859375 178.885986328125 48.497222900390625C170.3599853515625 43.846527099609375 161.62599182128906 41.704132080078125 153.34799194335938 41.704132080078125C129.25099182128906 41.704132080078125 109.01698303222656 59.86073303222656 109.01698303222656 87.14993286132812C109.01698303222656 109.74502563476562 121.19099426269531 124.66603088378906 147.9539794921875 134.89703369140625C162.84298706054688 140.5800323486328 177.8049774169922 143.25103759765625 192.29798889160156 143.25103759765625C251.2629852294922 143.25103759765625 302.47499084472656 99.04142761230469 309.43299865722656 33.528839111328125C310.0509796142578 27.717330932617188 310.3509979248047 21.905029296875 310.3509979248047 16.117523193359375C310.3509979248047 -61.968170166015625 255.70498657226562 -135.5619659423828 189.0699920654297 -142.39796447753906C185.63697814941406 -142.7479705810547 182.07098388671875 -142.9199676513672 178.385986328125 -142.9199676513672C133.20999145507812 -142.9199676513672 70.17689514160156 -117.02496337890625 15.606887817382812 -75.4185791015625L14.043792724609375 -74.28167724609375V-131.59799194335938C14.043792724609375 -140.73797607421875 14.051101684570312 -148.5009765625 14.051101684570312 -155.10496520996094C14.051101684570312 -195.9669647216797 13.770294189453125 -192.46197509765625 9.733245849609375 -196.5399627685547C6.7465057373046875 -199.50796508789062 2.8225555419921875 -200.8989715576172 -1.0683441162109375 -200.8989715576172C-7.11248779296875 -200.8989715576172 -13.076904296875 -197.5409698486328 -15.32470703125 -191.5189666748047C-16.272003173828125 -189.00796508789062 -16.272003173828125 -188.15496826171875 -16.272003173828125 -118.99797058105469V-49.03437805175781L-32.04570007324219 -33.82908630371094C-85.619384765625 17.992019653320312 -134.12498474121094 48.92350769042969 -183.4829864501953 62.75511169433594C-198.72299194335938 67.00502014160156 -208.05198669433594 68.93351745605469 -216.28298950195312 68.93351745605469C-221.35398864746094 68.93351745605469 -226.0079803466797 68.20130920410156 -231.37197875976562 66.82881164550781C-261.49098205566406 59.186309814453125 -279.1479949951172 31.8961181640625 -279.1479949951172 4.067230224609375C-279.1479949951172 -11.914688110351562 -273.3249969482422 -28.074386596679688 -260.69297790527344 -40.79219055175781C-248.86898803710938 -52.6973876953125 -234.7869873046875 -58.67167663574219 -219.0809783935547 -58.67167663574219C-207.10398864746094 -58.67167663574219 -194.1809844970703 -55.19718933105469 -180.59298706054688 -48.22908020019531C-171.9869842529297 -43.81169128417969 -163.40399169921875 -41.629180908203125 -155.25198364257812 -41.629180908203125C-143.12498474121094 -41.629180908203125 -131.9539794921875 -46.46018981933594 -123.08798217773438 -55.95008850097656C-114.87998962402344 -64.74818420410156 -110.91998291015625 -75.94548034667969 -110.91998291015625 -87.07987976074219C-110.91998291015625 -101.84298706054688 -117.88198852539062 -116.49497985839844 -131.13998413085938 -125.29798889160156C-142.74598693847656 -132.97097778320312 -159.75099182128906 -138.79798889160156 -175.57199096679688 -140.45498657226562C-179.77899169921875 -140.8999786376953 -183.94398498535156 -141.11798095703125 -188.05699157714844 -141.11798095703125C-256.23899841308594 -141.11798095703125 -310.3509979248047 -81.32109069824219 -310.3509979248047 -3.7626190185546875C-310.3509979248047 -2.233673095703125 -310.32997131347656 -0.6978302001953125 -310.28797912597656 0.8446044921875C-308.3929901123047 70.09721374511719 -265.9039764404297 125.75502014160156 -203.80398559570312 140.3920135498047C-196.86997985839844 142.02700805664062 -189.281982421875 142.822021484375 -181.16998291015625 142.822021484375C-135.46498107910156 142.822021484375 -73.14178466796875 117.60200500488281 -17.78778076171875 75.40251159667969L-16.27197265625 74.26560974121094V131.5810089111328C-16.27197265625 188.09201049804688 -16.27197265625 188.9920196533203 -15.324676513671875 191.50201416015625C-14.045669555664062 194.8660125732422 -10.398269653320312 198.5600128173828 -7.08251953125 199.83901977539062Z" fill="black" /></g></svg>