<?xml version="1.0" encoding="utf-8" ?>
<svg baseProfile="tiny" height="100%" version="1.2" width="100%" xmlns="http://www.w3.org/2000/svg" xmlns:ev="http://www.w3.org/2001/xml-events" xmlns:xlink="http://www.w3.org/1999/xlink"><defs /><g transform="translate(0, 1000) scale(1, -1)"><path d="M-8.85577392578125 179.5260009765625C-6.1049346923828125 180.02000427246094 -3.3349609375 180.25900268554688 -0.5760955810546875 180.25900268554688C18.375503540039062 180.25900268554688 36.803009033203125 168.98699951171875 44.90739440917969 151.57899475097656C47.710205078125 145.55599975585938 49.2178955078125 137.2989959716797 49.2178955078125 129.62100219726562C49.2178955078125 125.10099792480469 48.69549560546875 120.78199768066406 47.607391357421875 117.23699951171875C44.10209655761719 105.67900085449219 37.09159851074219 96.06320190429688 27.665298461914062 89.71578979492188C19.1697998046875 84.06990051269531 9.523696899414062 81.36669921875 -0.010467529296875 81.36669921875C-15.99310302734375 81.36669921875 -31.661102294921875 88.962890625 -41.06629943847656 103.0260009765625C-46.79429626464844 111.63900756835938 -49.42720031738281 121.16400146484375 -49.42720031738281 130.5C-49.42720031738281 153.35899353027344 -33.642791748046875 175.08700561523438 -8.85577392578125 179.5260009765625ZM-144.32899475097656 14.1632080078125C-142.37200927734375 14.927093505859375 -70.14231872558594 15.305999755859375 1.5416412353515625 15.305999755859375C72.09669494628906 15.305999755859375 142.12298583984375 14.93890380859375 144.09698486328125 14.210494995117188C150.11997985839844 11.962799072265625 153.4779815673828 5.9983673095703125 153.4779815673828 -0.0457763671875C153.4779815673828 -3.9366912841796875 152.0859832763672 -7.8606414794921875 149.11798095703125 -10.847396850585938C145.10498046875 -14.821701049804688 156.18698120117188 -15.174301147460938 70.23698425292969 -15.174301147460938C51.69859313964844 -15.174301147460938 28.646286010742188 -15.15789794921875 -0.0452728271484375 -15.15789794921875C-141.15602111816406 -15.15789794921875 -141.62901306152344 -15.15789794921875 -144.18701171875 -14.210494995117188C-150.37501525878906 -11.902099609375 -153.47801208496094 -5.9349822998046875 -153.47801208496094 0.026519775390625C-153.47801208496094 5.930877685546875 -150.43402099609375 11.829696655273438 -144.32901000976562 14.1632080078125Z" fill="black" /></g></svg>