<?xml version="1.0" encoding="utf-8" ?>
<svg baseProfile="tiny" height="100%" version="1.2" width="100%" xmlns="http://www.w3.org/2000/svg" xmlns:ev="http://www.w3.org/2001/xml-events" xmlns:xlink="http://www.w3.org/1999/xlink"><defs /><g transform="translate(0, 1000) scale(1, -1)"><path d="M17.746994018554688 138.69700622558594C20.040878295898438 139.14198303222656 22.308990478515625 139.35498046875 24.530288696289062 139.35498046875C42.90318298339844 139.35498046875 58.072784423828125 124.74198913574219 58.1995849609375 105.30299377441406C58.208282470703125 103.50099182128906 58.48777770996094 102.67997741699219 58.48777770996094 101.52098083496094C58.48777770996094 96.34617614746094 52.906585693359375 84.44319152832031 -7.3583221435546875 -51.72381591796875L-36.77412414550781 -118.1820068359375C-46.01091003417969 -139.0709991455078 -46.20042419433594 -139.35499572753906 -51.410919189453125 -139.35499572753906C-56.31501770019531 -139.35499572753906 -58.48780822753906 -138.218994140625 -58.48780822753906 -132.64599609375C-58.48780822753906 -128.90699768066406 -57.50950622558594 -123.16999816894531 -55.72151184082031 -114.44000244140625L-49.56361389160156 -83.93429565429688C-37.15301513671875 -22.450103759765625 -9.016220092773438 113.07099914550781 -8.06884765625 115.86599731445312C-4.18463134765625 127.51800537109375 5.8574676513671875 136.4239959716797 17.746978759765625 138.69700622558594Z" fill="black" /></g></svg>