<?xml version="1.0" encoding="utf-8" ?>
<svg baseProfile="tiny" height="100%" version="1.2" width="100%" xmlns="http://www.w3.org/2000/svg" xmlns:ev="http://www.w3.org/2001/xml-events" xmlns:xlink="http://www.w3.org/1999/xlink"><defs /><g transform="translate(0, 1000) scale(1, -1)"><path d="M-277.5790100097656 -1.397369384765625C-275.21099853515625 -0.307891845703125 -274.1210021972656 -0.0710601806640625 -270.9469909667969 -0.0710601806640625C-264.6000061035156 -0.0710601806640625 -259.43701171875 -3.3394775390625 -256.78399658203125 -9.023681640625L-255.78900146484375 -11.202606201171875L-255.64700317382812 -126.87600708007812L-255.55299377441406 -242.59701538085938H0.0H255.55299377441406L255.64700317382812 -126.87600708007812L255.78900146484375 -11.202606201171875L256.78399658203125 -9.023681640625C259.5790100097656 -3.0078887939453125 265.26300048828125 0.0 270.9469909667969 0.0C276.6319885253906 0.0 282.3160095214844 -3.0078887939453125 285.1109924316406 -9.023681640625L286.1050109863281 -11.202606201171875V-181.96600341796875V-352.72900390625L285.1109924316406 -354.9079895019531C283.5950012207031 -358.1759948730469 280.79998779296875 -360.97100830078125 277.5790100097656 -362.53399658203125L274.73699951171875 -363.8609924316406H0.0H-274.73699951171875L-277.5790100097656 -362.53399658203125C-280.79998779296875 -360.97100830078125 -283.5950012207031 -358.1759948730469 -285.1109924316406 -354.9079895019531L-286.1050109863281 -352.72900390625V-181.96600341796875V-11.202606201171875L-285.1109924316406 -9.023681640625C-283.5950012207031 -5.7552642822265625 -280.79998779296875 -2.9605255126953125 -277.5790100097656 -1.397369384765625ZM-9.899993896484375 -6.513153076171875C-7.2198944091796875 -5.912445068359375 -4.3284912109375 -5.6244659423828125 -1.3494720458984375 -5.6244659423828125C7.886688232421875 -5.6244659423828125 17.965103149414062 -8.392730712890625 25.199996948242188 -13.192092895507812C38.58160400390625 -22.050003051757812 45.27239990234375 -36.639495849609375 45.27239990234375 -51.22889709472656C45.27239990234375 -65.81838989257812 38.58160400390625 -80.40789794921875 25.199996948242188 -89.26580810546875C17.597991943359375 -94.326904296875 8.752700805664062 -96.802490234375 -0.070709228515625 -96.802490234375C-11.4794921875 -96.802490234375 -22.851806640625 -92.66360473632812 -31.452606201171875 -84.62370300292969C-41.317108154296875 -75.40519714355469 -45.85319519042969 -63.45819091796875 -45.85319519042969 -51.645599365234375C-45.85319519042969 -31.409500122070312 -32.54119873046875 -11.567794799804688 -9.899993896484375 -6.513153076171875Z" fill="black" /></g></svg>