<?xml version="1.0" encoding="utf-8" ?>
<svg baseProfile="tiny" height="100%" version="1.2" width="100%" xmlns="http://www.w3.org/2000/svg" xmlns:ev="http://www.w3.org/2001/xml-events" xmlns:xlink="http://www.w3.org/1999/xlink"><defs /><g transform="translate(0, 1000) scale(1, -1)"><path d="M-269.7659912109375 125.81100463867188C-268.7309875488281 126.20999145507812 -267.13299560546875 126.39399719238281 -265.3970031738281 126.39399719238281C-262.6050109863281 126.39399719238281 -259.4580078125 125.91799926757812 -257.7340087890625 125.10000610351562C-255.98199462890625 124.24700927734375 -240.7760009765625 109.5159912109375 -192.60299682617188 62.00529479980469C-158.0240020751953 27.899993896484375 -129.60299682617188 0.0 -129.46099853515625 0.0C-129.27099609375 0.0 -106.53399658203125 27.6632080078125 -78.91860961914062 61.48419189453125C-26.67120361328125 125.38400268554688 -27.334304809570312 124.62600708007812 -22.6448974609375 126.0C-21.6195068359375 126.29800415039062 -20.276596069335938 126.43899536132812 -18.845901489257812 126.43899536132812C-16.178802490234375 126.43899536132812 -13.206695556640625 125.94699096679688 -11.418594360351562 125.05300903320312C-9.665924072265625 124.24700927734375 5.255126953125 109.75299072265625 53.71299743652344 62.00529479980469C88.2919921875 27.899993896484375 116.71299743652344 0.0 116.85501098632812 0.0C117.04499816894531 0.0 139.781005859375 27.6632080078125 167.39700317382812 61.48419189453125C219.64500427246094 125.38400268554688 218.9810028076172 124.62600708007812 223.67100524902344 126.0C224.6959991455078 126.29800415039062 226.03900146484375 126.43899536132812 227.4720001220703 126.43899536132812C230.14300537109375 126.43899536132812 233.12600708007812 125.94699096679688 234.94500732421875 125.05300903320312C237.0760040283203 124.01100158691406 263.9809875488281 97.76840209960938 354.8340148925781 8.005264282226562L363.3599853515625 -0.378936767578125L384.4389953613281 25.20001220703125C407.08099365234375 52.6737060546875 408.59698486328125 54.33160400390625 412.3869934082031 55.563201904296875C414.135986328125 56.12939453125 415.86700439453125 56.39149475097656 417.5369873046875 56.39149475097656C426.1449890136719 56.39149475097656 433.1730041503906 49.43589782714844 433.1730041503906 41.303192138671875C433.1730041503906 39.2633056640625 432.7309875488281 37.14939880371094 431.760009765625 35.05259704589844C429.8179931640625 30.884201049804688 306.3290100097656 -119.93699645996094 302.1130065917969 -123.25299072265625C299.4580078125 -125.38800048828125 295.8370056152344 -126.50399780273438 292.2770080566406 -126.50399780273438C289.9930114746094 -126.50399780273438 287.7330017089844 -126.04400634765625 285.77099609375 -125.10000610351562C284.01800537109375 -124.24700927734375 269.00201416015625 -109.65798950195312 220.63900756835938 -62.00529479980469C186.05999755859375 -27.899993896484375 157.63900756835938 0.0 157.4969940185547 0.0C157.30799865722656 0.0 134.5709991455078 -27.6632080078125 106.95500183105469 -61.436798095703125C54.707794189453125 -125.38400268554688 55.37089538574219 -124.62600708007812 50.681396484375 -126.0C49.656097412109375 -126.29800415039062 48.313201904296875 -126.43899536132812 46.88250732421875 -126.43899536132812C44.21539306640625 -126.43899536132812 41.24330139160156 -125.94699096679688 39.455108642578125 -125.05300903320312C37.70249938964844 -124.24700927734375 22.781402587890625 -109.75299072265625 -25.676498413085938 -62.00529479980469C-60.255401611328125 -27.899993896484375 -88.67649841308594 0.0 -88.818603515625 0.0C-89.00799560546875 0.0 -111.7449951171875 -27.6632080078125 -139.36099243164062 -61.436798095703125C-191.60800170898438 -125.38400268554688 -190.94500732421875 -124.62600708007812 -195.63400268554688 -126.0C-196.66000366210938 -126.29800415039062 -198.0030059814453 -126.43899536132812 -199.43299865722656 -126.43899536132812C-202.10000610351562 -126.43899536132812 -205.07200622558594 -125.94699096679688 -206.86099243164062 -125.05300903320312C-208.61300659179688 -124.24700927734375 -223.58200073242188 -109.70500183105469 -272.22900390625 -61.768402099609375C-306.9209899902344 -27.550003051757812 -335.3699951171875 0.4263763427734375 -335.55999755859375 0.4263763427734375L-335.5610046386719 0.4263153076171875C-335.94000244140625 0.426300048828125 -345.7919921875 -11.842117309570312 -350.6709899902344 -18.426315307617188C-384.4429931640625 -63.65870666503906 -402.38800048828125 -115.26101684570312 -402.38800048828125 -163.3310089111328C-402.38800048828125 -182.6160125732422 -399.5 -201.3330078125 -393.5870056152344 -218.84201049804688C-392.3580017089844 -222.4940185546875 -391.7659912109375 -225.85801696777344 -391.7659912109375 -228.84901428222656C-391.7659912109375 -237.8450164794922 -397.12200927734375 -243.47401428222656 -406.6130065917969 -243.47401428222656C-415.5660095214844 -243.47401428222656 -419.260986328125 -239.77902221679688 -423.5710144042969 -226.32601928710938C-430.02099609375 -206.40802001953125 -433.1730041503906 -185.20201110839844 -433.1730041503906 -163.43701171875C-433.1730041503906 -110.87301635742188 -414.7909851074219 -55.045013427734375 -380.0870056152344 -6.2052764892578125C-373.9289855957031 2.415771484375 -370.6610107421875 6.5368194580078125 -341.3869934082031 41.9683837890625L-295.9129943847656 97.34208679199219C-275.3080139160156 122.49497985839844 -273.6499938964844 124.34199523925781 -269.7659912109375 125.81098937988281Z" fill="black" /></g></svg>