<?xml version="1.0" encoding="utf-8" ?>
<svg baseProfile="tiny" height="100%" version="1.2" width="100%" xmlns="http://www.w3.org/2000/svg" xmlns:ev="http://www.w3.org/2001/xml-events" xmlns:xlink="http://www.w3.org/1999/xlink"><defs /><g transform="translate(0, 1000) scale(1, -1)"><path d="M-410.7749938964844 253.51600646972656C-408.73199462890625 254.50701904296875 -406.54998779296875 254.97100830078125 -404.3819885253906 254.97100830078125C-398.052001953125 254.97100830078125 -391.8349914550781 251.02001953125 -389.5060119628906 244.70501708984375C-389.12701416015625 243.6160125732422 -388.93798828125 210.6470184326172 -388.74798583984375 122.30500793457031L-388.510986328125 1.373687744140625L-372.406005859375 20.936813354492188L-323.0480041503906 81.23681640625C-289.1759948730469 122.66400146484375 -286.2959899902344 126.51400756835938 -280.3330078125 126.51400756835938C-279.4909973144531 126.51400756835938 -278.5880126953125 126.43800354003906 -277.5270080566406 126.37899780273438C-271.0849914550781 126.0469970703125 -275.2539978027344 129.83700561523438 -206.47500610351562 62.00529479980469C-171.89599609375 27.899993896484375 -143.47500610351562 0.0 -143.33299255371094 0.0C-143.14300537109375 0.0 -120.406005859375 27.6632080078125 -92.7904052734375 61.48419189453125C-40.5430908203125 125.38400268554688 -41.206207275390625 124.62600708007812 -36.516693115234375 126.0C-35.49139404296875 126.29800415039062 -34.14849853515625 126.43899536132812 -32.717803955078125 126.43899536132812C-30.050704956054688 126.43899536132812 -27.078598022460938 125.94699096679688 -25.2904052734375 125.05300903320312C-23.537796020507812 124.24700927734375 -8.616744995117188 109.75299072265625 39.84120178222656 62.00529479980469C74.42010498046875 27.899993896484375 102.84100341796875 0.0 102.98300170898438 0.0C103.17300415039062 0.0 125.91000366210938 27.6632080078125 153.52499389648438 61.48419189453125C205.7729949951172 125.38400268554688 205.11000061035156 124.62600708007812 209.7989959716797 126.0C210.82400512695312 126.29800415039062 212.16700744628906 126.43899536132812 213.60000610351562 126.43899536132812C216.27099609375 126.43899536132812 219.25399780273438 125.94699096679688 221.072998046875 125.05300903320312C223.20399475097656 124.01100158691406 250.11000061035156 97.76840209960938 340.9620056152344 8.005264282226562L349.489013671875 -0.378936767578125L370.5669860839844 25.20001220703125C393.2099914550781 52.6737060546875 394.7250061035156 54.33160400390625 398.5150146484375 55.563201904296875C400.2650146484375 56.12939453125 401.9949951171875 56.39149475097656 403.6650085449219 56.39149475097656C412.27301025390625 56.39149475097656 419.3009948730469 49.43589782714844 419.3009948730469 41.303192138671875C419.3009948730469 39.2633056640625 418.8590087890625 37.14939880371094 417.8890075683594 35.05259704589844C415.9460144042969 30.884201049804688 292.4570007324219 -119.93699645996094 288.2409973144531 -123.25299072265625C285.5870056152344 -125.38800048828125 281.9649963378906 -126.50399780273438 278.4049987792969 -126.50399780273438C276.1210021972656 -126.50399780273438 273.86199951171875 -126.04400634765625 271.89898681640625 -125.10000610351562C270.14599609375 -124.24700927734375 255.13099670410156 -109.65798950195312 206.76699829101562 -62.00529479980469C172.18899536132812 -27.899993896484375 143.76699829101562 0.0 143.625 0.0C143.43600463867188 0.0 120.69900512695312 -27.6632080078125 93.08329772949219 -61.436798095703125C40.835906982421875 -125.38400268554688 41.49909973144531 -124.62600708007812 36.809600830078125 -126.0C35.78419494628906 -126.29800415039062 34.44129943847656 -126.43899536132812 33.01060485839844 -126.43899536132812C30.343505859375 -126.43899536132812 27.37139892578125 -125.94699096679688 25.583297729492188 -125.05300903320312C23.830596923828125 -124.24700927734375 8.909576416015625 -109.75299072265625 -39.548309326171875 -62.00529479980469C-74.12728881835938 -27.899993896484375 -102.54800415039062 0.0 -102.69000244140625 0.0C-102.8800048828125 0.0 -125.61700439453125 -27.6632080078125 -153.23300170898438 -61.436798095703125C-205.47999572753906 -125.38400268554688 -204.81700134277344 -124.62600708007812 -209.50599670410156 -126.0C-210.53199768066406 -126.29800415039062 -211.87399291992188 -126.43899536132812 -213.3070068359375 -126.43899536132812C-215.97799682617188 -126.43899536132812 -218.96099853515625 -125.94699096679688 -220.77999877929688 -125.05300903320312C-222.81700134277344 -124.05799865722656 -274.7330017089844 -73.37370300292969 -340.7170104980469 -7.9578857421875L-349.2430114746094 0.52105712890625L-371.4110107421875 -26.384201049804688C-387.65899658203125 -46.18421936035156 -394.14801025390625 -53.7158203125 -395.7590026855469 -54.80531311035156C-398.3810119628906 -56.52171325683594 -401.2969970703125 -57.33171081542969 -404.1700134277344 -57.33171081542969C-409.8580017089844 -57.33171081542969 -415.37799072265625 -54.15521240234375 -418.11700439453125 -48.5526123046875L-419.3009948730469 -46.1842041015625V98.52629089355469C-419.3009948730469 239.7319793701172 -419.3009948730469 243.2839813232422 -418.4010009765625 245.5579833984375C-417.16900634765625 248.77899169921875 -414.18499755859375 251.8579864501953 -410.7749938964844 253.5159912109375Z" fill="black" /></g></svg>