<?xml version="1.0" encoding="utf-8" ?>
<svg baseProfile="tiny" height="100%" version="1.2" width="100%" xmlns="http://www.w3.org/2000/svg" xmlns:ev="http://www.w3.org/2001/xml-events" xmlns:xlink="http://www.w3.org/1999/xlink"><defs /><g transform="translate(0, 1000) scale(1, -1)"><path d="M47.562896728515625 138.54200744628906C48.64610290527344 139.08401489257812 49.87080383300781 139.33702087402344 51.09840393066406 139.33702087402344C53.62860107421875 139.33702087402344 56.17070007324219 138.260009765625 57.51029968261719 136.41001892089844C58.231597900390625 135.3660125732422 58.64109802246094 134.45201110839844 58.64109802246094 132.59901428222656C58.64109802246094 129.82901000976562 57.725494384765625 124.9630126953125 55.568206787109375 114.43202209472656L49.410308837890625 83.92631530761719C36.99980163574219 22.442123413085938 8.862930297851562 -113.07899475097656 7.915557861328125 -115.87397766113281C5.4050445556640625 -123.49998474121094 -0.610748291015625 -130.98397827148438 -7.1475982666015625 -134.63198852539062C-12.912796020507812 -137.8579864501953 -18.930099487304688 -139.3369903564453 -24.72900390625 -139.3369903564453C-42.51429748535156 -139.3369903564453 -58.245697021484375 -125.42198181152344 -58.3529052734375 -105.31098937988281C-58.36149597167969 -103.50898742675781 -58.64109802246094 -102.68798828125 -58.64109802246094 -101.52897644042969C-58.64109802246094 -96.35429382324219 -53.059906005859375 -84.45118713378906 7.205047607421875 51.7158203125L36.62080383300781 118.17402648925781C44.67350769042969 136.41001892089844 45.19451904296875 137.40501403808594 47.56291198730469 138.54202270507812Z" fill="black" /></g></svg>