<?xml version="1.0" encoding="utf-8" ?>
<svg baseProfile="tiny" height="100%" version="1.2" width="100%" xmlns="http://www.w3.org/2000/svg" xmlns:ev="http://www.w3.org/2001/xml-events" xmlns:xlink="http://www.w3.org/1999/xlink"><defs /><g transform="translate(0, 1000) scale(1, -1)"><path d="M400.6549987792969 242.47900390625C403.0429992675781 243.40199279785156 405.2650146484375 243.86700439453125 407.3280029296875 243.86700439453125C414.47198486328125 243.86700439453125 419.71600341796875 238.2989959716797 423.3919982910156 226.94200134277344C429.9549865722656 206.82000732421875 433.1629943847656 185.39700317382812 433.1629943847656 163.4149932861328C433.1629943847656 110.82901000976562 414.8039855957031 55.0426025390625 380.09698486328125 6.20526123046875C373.9389953613281 -2.4157867431640625 370.6709899902344 -6.489471435546875 341.3970031738281 -41.96839904785156L295.9230041503906 -97.34210205078125C274.49798583984375 -123.5830078125 272.1809997558594 -126.4949951171875 266.28900146484375 -126.4949951171875C265.4590148925781 -126.4949951171875 264.5580139160156 -126.43699645996094 263.52301025390625 -126.37899780273438C257.2229919433594 -126.0 261.2019958496094 -129.64700317382812 192.61300659179688 -62.00529479980469C158.03399658203125 -27.899993896484375 129.61300659179688 0.0 129.4709930419922 0.0C129.281005859375 0.0 106.54400634765625 -27.6632080078125 78.92849731445312 -61.436798095703125C26.681198120117188 -125.38400268554688 27.34429931640625 -124.62600708007812 22.654800415039062 -126.0C21.629501342773438 -126.29800415039062 20.286605834960938 -126.43899536132812 18.85589599609375 -126.43899536132812C16.188796997070312 -126.43899536132812 13.216705322265625 -125.94699096679688 11.428497314453125 -125.05300903320312C9.675888061523438 -124.24700927734375 -5.2451629638671875 -109.75299072265625 -53.703094482421875 -62.00529479980469C-88.28199768066406 -27.899993896484375 -116.7030029296875 0.0 -116.84500122070312 0.0C-117.03500366210938 0.0 -139.77099609375 -27.6632080078125 -167.38699340820312 -61.436798095703125C-219.63499450683594 -125.38400268554688 -218.9709930419922 -124.62600708007812 -223.66099548339844 -126.0C-224.68600463867188 -126.29800415039062 -226.0290069580078 -126.43899536132812 -227.46200561523438 -126.43899536132812C-230.13299560546875 -126.43899536132812 -233.11599731445312 -125.94699096679688 -234.93499755859375 -125.05300903320312C-237.0659942626953 -124.01100158691406 -263.5450134277344 -98.1947021484375 -354.8240051269531 -8.005264282226562L-363.3500061035156 0.378936767578125L-384.1929931640625 -24.963211059570312C-406.739990234375 -52.34211730957031 -408.5400085449219 -54.33161926269531 -412.37701416015625 -55.56321716308594C-414.12701416015625 -56.12940979003906 -415.85699462890625 -56.391510009765625 -417.5270080566406 -56.391510009765625C-426.135009765625 -56.391510009765625 -433.1629943847656 -49.4359130859375 -433.1629943847656 -41.30320739746094C-433.1629943847656 -39.26332092285156 -432.72100830078125 -37.1494140625 -431.75 -35.0526123046875C-429.8080139160156 -30.88421630859375 -306.3190002441406 119.93698120117188 -302.1029968261719 123.25297546386719C-299.447998046875 125.38798522949219 -295.8269958496094 126.50398254394531 -292.2669982910156 126.50398254394531C-289.9830017089844 126.50398254394531 -287.7229919433594 126.04399108886719 -285.760986328125 125.09999084472656C-284.00799560546875 124.24699401855469 -268.9930114746094 109.65797424316406 -220.62899780273438 62.005279541015625C-186.0500030517578 27.899978637695312 -157.62899780273438 -1.52587890625e-05 -157.48699951171875 -1.52587890625e-05C-157.29800415039062 -1.52587890625e-05 -134.56100463867188 27.663192749023438 -106.94500732421875 61.48417663574219C-54.69779968261719 125.38398742675781 -55.360992431640625 124.62599182128906 -50.6715087890625 125.99998474121094C-49.64610290527344 126.29798889160156 -48.303192138671875 126.43898010253906 -46.87249755859375 126.43898010253906C-44.20539855957031 126.43898010253906 -41.233306884765625 125.94697570800781 -39.44520568847656 125.05299377441406C-37.6925048828125 124.24699401855469 -22.771499633789062 109.75297546386719 25.6864013671875 62.005279541015625C60.26539611816406 27.899978637695312 88.6864013671875 -1.52587890625e-05 88.8284912109375 -1.52587890625e-05C89.01800537109375 -1.52587890625e-05 111.7550048828125 27.663192749023438 139.37100219726562 61.48417663574219C191.6179962158203 125.38398742675781 190.9550018310547 124.62599182128906 195.6439971923828 125.99998474121094C196.6699981689453 126.29798889160156 198.01300048828125 126.43898010253906 199.4429931640625 126.43898010253906C202.11000061035156 126.43898010253906 205.08200073242188 125.94697570800781 206.87100219726562 125.05299377441406C208.6230010986328 124.24699401855469 223.5919952392578 109.70498657226562 272.239013671875 61.76838684082031C306.9309997558594 27.54998779296875 335.3800048828125 -0.4263916015625 335.57000732421875 -0.4263916015625L335.5710144042969 -0.42633056640625C335.95001220703125 -0.4263153076171875 345.802001953125 11.84210205078125 350.6809997558594 18.426300048828125C384.4530029296875 63.65869140625 402.39801025390625 115.26100158691406 402.39801025390625 163.33099365234375C402.39801025390625 182.61599731445312 399.510009765625 201.33299255371094 393.59698486328125 218.8419952392578C392.3169860839844 222.63600158691406 391.6830139160156 226.05099487304688 391.6830139160156 229.05499267578125C391.6830139160156 235.61300659179688 394.7090148925781 240.2050018310547 400.6549987792969 242.47900390625Z" fill="black" /></g></svg>