<?xml version="1.0" encoding="utf-8" ?>
<svg baseProfile="tiny" height="100%" version="1.2" width="100%" xmlns="http://www.w3.org/2000/svg" xmlns:ev="http://www.w3.org/2001/xml-events" xmlns:xlink="http://www.w3.org/1999/xlink"><defs /><g transform="translate(0, 1000) scale(1, -1)"><path d="M293.5889892578125 301.49200439453125C295.531005859375 302.239990234375 297.4729919433594 302.5840148925781 299.3500061035156 302.5840148925781C307.781005859375 302.5840148925781 314.9119873046875 295.65301513671875 314.9119873046875 287.3110046386719C314.9119873046875 285.63800048828125 314.625 283.9079895019531 314.0039978027344 282.1650085449219C312.6780090332031 278.4230041503906 28.136016845703125 -195.26101684570312 25.815017700195312 -197.53501892089844C22.852920532226562 -200.45901489257812 19.330612182617188 -201.7230224609375 15.855117797851562 -201.7230224609375C7.8019866943359375 -201.7230224609375 1.52587890625e-05 -194.93601989746094 1.52587890625e-05 -186.2930145263672C1.52587890625e-05 -184.64901733398438 0.28240966796875 -182.93701171875 0.899200439453125 -181.1920166015625C2.2255096435546875 -177.45001220703125 286.7680206298828 296.2340087890625 289.08900451660156 298.50799560546875C290.2260284423828 299.6440124511719 292.2620086669922 300.97100830078125 293.58900451660156 301.49200439453125ZM435.6940155029297 301.49200439453125C437.63600158691406 302.239990234375 439.57801818847656 302.5840148925781 441.4560089111328 302.5840148925781C449.88600158691406 302.5840148925781 457.0170135498047 295.65301513671875 457.0170135498047 287.3110046386719C457.0170135498047 285.63800048828125 456.7300262451172 283.9079895019531 456.11000061035156 282.1650085449219C454.7830047607422 278.4230041503906 170.2410125732422 -195.26101684570312 167.92001342773438 -197.53501892089844C164.9580078125 -200.45901489257812 161.43601989746094 -201.7230224609375 157.96002197265625 -201.7230224609375C149.90701293945312 -201.7230224609375 142.10501098632812 -194.93601989746094 142.10501098632812 -186.2930145263672C142.10501098632812 -184.64901733398438 142.3880157470703 -182.93701171875 143.00401306152344 -181.1920166015625C144.3310089111328 -177.45001220703125 428.8730010986328 296.2340087890625 431.1940155029297 298.50799560546875C432.3310089111328 299.6440124511719 434.36802673339844 300.97100830078125 435.6940155029297 301.49200439453125Z" fill="black" /></g></svg>