<?xml version="1.0" encoding="utf-8" ?>
<svg baseProfile="tiny" height="100%" version="1.2" width="100%" xmlns="http://www.w3.org/2000/svg" xmlns:ev="http://www.w3.org/2001/xml-events" xmlns:xlink="http://www.w3.org/1999/xlink"><defs /><g transform="translate(0, 1000) scale(1, -1)"><path d="M129.31300354003906 197.0050048828125C131.15301513671875 197.71800231933594 133.07901000976562 198.0540008544922 134.98802185058594 198.0540008544922C140.94300842285156 198.0540008544922 146.73301696777344 194.7830047607422 149.2080078125 189.4739990234375C150.20201110839844 187.3419952392578 150.20201110839844 187.10499572753906 150.4390106201172 114.15798950195312L150.67601013183594 41.021087646484375L184.166015625 81.9473876953125C218.88699340820312 124.43699645996094 219.0760040283203 124.67401123046875 223.67100524902344 126.0C224.6959991455078 126.29800415039062 226.03900146484375 126.43899536132812 227.4720001220703 126.43899536132812C230.14300537109375 126.43899536132812 233.12600708007812 125.94699096679688 234.94500732421875 125.05300903320312C237.0760040283203 124.01100158691406 263.9809875488281 97.76840209960938 354.8340148925781 8.005264282226562L363.3599853515625 -0.378936767578125L384.4389953613281 25.20001220703125C407.08099365234375 52.6737060546875 408.59698486328125 54.33160400390625 412.3869934082031 55.563201904296875C414.135986328125 56.12939453125 415.86700439453125 56.39149475097656 417.5369873046875 56.39149475097656C426.1449890136719 56.39149475097656 433.1730041503906 49.43589782714844 433.1730041503906 41.303192138671875C433.1730041503906 39.2633056640625 432.7309875488281 37.14939880371094 431.760009765625 35.05259704589844C429.8179931640625 30.884201049804688 306.3290100097656 -119.93699645996094 302.1130065917969 -123.25299072265625C299.4580078125 -125.38800048828125 295.8370056152344 -126.50399780273438 292.2770080566406 -126.50399780273438C289.9930114746094 -126.50399780273438 287.7330017089844 -126.04400634765625 285.77099609375 -125.10000610351562C284.01800537109375 -124.24700927734375 269.00201416015625 -109.65798950195312 220.63900756835938 -62.00529479980469C186.05999755859375 -27.899993896484375 157.63900756835938 0.0 157.4969940185547 0.0C157.30799865722656 0.0 155.64999389648438 -1.8473663330078125 153.802001953125 -4.1210479736328125L150.43899536132812 -8.242111206054688V-105.72599792480469C150.43899536132812 -124.13298034667969 150.45199584960938 -139.19297790527344 150.45199584960938 -151.5299835205078C150.45199584960938 -213.8309783935547 150.1219940185547 -206.708984375 146.12899780273438 -210.7419891357422C143.15699768066406 -213.7139892578125 139.23899841308594 -215.11798095703125 135.34100341796875 -215.11798095703125C129.60899353027344 -215.11798095703125 123.92098999023438 -212.0809783935547 121.35501098632812 -206.52598571777344C120.36000061035156 -204.39498901367188 120.36000061035156 -204.25299072265625 120.12399291992188 -125.00498962402344L119.88699340820312 -45.66319274902344L88.43408203125 -84.17369079589844C56.95709228515625 -122.69099426269531 54.0950927734375 -126.54498291015625 48.30499267578125 -126.54498291015625C47.39469909667969 -126.54498291015625 46.411895751953125 -126.44998168945312 45.234100341796875 -126.37898254394531C38.93409729003906 -125.99998474121094 42.912994384765625 -129.64698791503906 -25.676498413085938 -62.005279541015625C-60.255401611328125 -27.899978637695312 -88.67649841308594 1.52587890625e-05 -88.818603515625 1.52587890625e-05C-89.00799560546875 1.52587890625e-05 -111.7449951171875 -27.663192749023438 -139.36099243164062 -61.43678283691406C-191.60800170898438 -125.38398742675781 -190.94500732421875 -124.62599182128906 -195.63400268554688 -125.99998474121094C-196.66000366210938 -126.29798889160156 -198.0030059814453 -126.43898010253906 -199.43299865722656 -126.43898010253906C-202.10000610351562 -126.43898010253906 -205.07200622558594 -125.94697570800781 -206.86099243164062 -125.05299377441406C-208.61300659179688 -124.24699401855469 -223.58200073242188 -109.70498657226562 -272.22900390625 -61.76838684082031C-306.9209899902344 -27.54998779296875 -335.3699951171875 0.4263916015625 -335.55999755859375 0.4263916015625L-335.5610046386719 0.42633056640625C-335.94000244140625 0.4263153076171875 -345.7919921875 -11.84210205078125 -350.6709899902344 -18.426300048828125C-384.4429931640625 -63.65869140625 -402.38800048828125 -115.26100158691406 -402.38800048828125 -163.33099365234375C-402.38800048828125 -182.61599731445312 -399.5 -201.33299255371094 -393.5870056152344 -218.8419952392578C-392.3580017089844 -222.49400329589844 -391.7659912109375 -225.85800170898438 -391.7659912109375 -228.8489990234375C-391.7659912109375 -237.84500122070312 -397.12200927734375 -243.4739990234375 -406.6130065917969 -243.4739990234375C-415.5660095214844 -243.4739990234375 -419.260986328125 -239.7790069580078 -423.5710144042969 -226.3260040283203C-430.02099609375 -206.4080047607422 -433.1730041503906 -185.20199584960938 -433.1730041503906 -163.43699645996094C-433.1730041503906 -110.87300109863281 -414.7909851074219 -55.04499816894531 -380.0870056152344 -6.20526123046875C-373.9289855957031 2.4157867431640625 -370.6610107421875 6.536834716796875 -341.3869934082031 41.96839904785156L-295.9129943847656 97.34210205078125C-274.489013671875 123.5830078125 -272.1709899902344 126.4949951171875 -266.27899169921875 126.4949951171875C-265.4490051269531 126.4949951171875 -264.5480041503906 126.43699645996094 -263.51300048828125 126.37899780273438C-257.2130126953125 126.0 -261.1919860839844 129.64700317382812 -192.60299682617188 62.00529479980469C-158.0240020751953 27.899993896484375 -129.60299682617188 0.0 -129.46099853515625 0.0C-129.27099609375 0.0 -106.53399658203125 27.6632080078125 -78.91860961914062 61.48419189453125C-26.67120361328125 125.38400268554688 -27.334304809570312 124.62600708007812 -22.6448974609375 126.0C-21.6195068359375 126.29800415039062 -20.276596069335938 126.43899536132812 -18.843902587890625 126.43899536132812C-16.173004150390625 126.43899536132812 -13.190200805664062 125.94699096679688 -11.371200561523438 125.05300903320312C-9.2869873046875 124.05799865722656 26.618301391601562 89.00531005859375 108.42401123046875 8.100006103515625L116.85501098632812 -0.2368316650390625L118.46600341796875 1.65789794921875L120.12399291992188 3.552642822265625V94.83160400390625C120.12399291992188 185.39999389648438 120.12399291992188 186.1580047607422 121.07099914550781 188.66799926757812C122.35000610351562 192.03199768066406 125.99700927734375 195.7259979248047 129.31300354003906 197.0050048828125Z" fill="black" /></g></svg>