<?xml version="1.0" encoding="utf-8" ?>
<svg baseProfile="tiny" height="100%" version="1.2" width="100%" xmlns="http://www.w3.org/2000/svg" xmlns:ev="http://www.w3.org/2001/xml-events" xmlns:xlink="http://www.w3.org/1999/xlink"><defs /><g transform="translate(0, 1000) scale(1, -1)"><path d="M-314.9020080566406 -1.067718505859375C-313.03399658203125 -0.34844970703125 -311.0639953613281 0.0 -309.10699462890625 0.0C-305.00799560546875 0.0 -300.97198486328125 -1.5297393798828125 -298.08599853515625 -4.383514404296875C-294.2959899902344 -8.220352172851562 -293.822998046875 -10.067703247070312 -293.302001953125 -22.525604248046875C-287.8819885253906 -154.3350067138672 -157.36500549316406 -253.67999267578125 -0.4200439453125 -253.67999267578125C14.094894409179688 -253.67999267578125 28.835800170898438 -252.83099365234375 43.72479248046875 -251.0780029296875C184.02999877929688 -234.5469970703125 288.3349914550781 -138.95700073242188 293.1199951171875 -22.525604248046875C293.45098876953125 -13.809799194335938 293.68798828125 -11.678192138671875 294.5409851074219 -9.451934814453125C296.8590087890625 -3.2052154541015625 302.7829895019531 -0.0789031982421875 308.72198486328125 -0.0789031982421875C314.6730041503906 -0.0789031982421875 320.63800048828125 -3.2170562744140625 323.0090026855469 -9.499298095703125C323.6809997558594 -11.281997680664062 323.99200439453125 -15.390899658203125 323.99200439453125 -20.956100463867188C323.99200439453125 -34.61500549316406 322.1199951171875 -57.04640197753906 319.125 -75.3887939453125C292.41900634765625 -239.27000427246094 157.82699584960938 -352.7200012207031 0.4149932861328125 -352.7200012207031C-16.113800048828125 -352.7200012207031 -32.89430236816406 -351.468994140625 -49.82780456542969 -348.8940124511719C-205.85899353027344 -325.1619873046875 -320.8699951171875 -189.593994140625 -323.9490051269531 -25.651901245117188C-323.97601318359375 -24.194000244140625 -323.99200439453125 -22.829605102539062 -323.99200439453125 -21.551300048828125C-323.99200439453125 -7.4626617431640625 -322.15399169921875 -3.8471221923828125 -314.9020080566406 -1.067718505859375ZM-9.754150390625 -6.5150909423828125C-7.074066162109375 -5.914398193359375 -4.182647705078125 -5.62640380859375 -1.20361328125 -5.62640380859375C8.03253173828125 -5.62640380859375 18.110992431640625 -8.394668579101562 25.345794677734375 -13.194015502929688C38.72740173339844 -22.051910400390625 45.41819763183594 -36.64141845703125 45.41819763183594 -51.23091125488281C45.41819763183594 -65.82041931152344 38.72740173339844 -80.40980529785156 25.345794677734375 -89.26771545410156C17.743804931640625 -94.32891845703125 8.898544311523438 -96.80441284179688 0.07513427734375 -96.80441284179688C-11.333694458007812 -96.80441284179688 -22.705902099609375 -92.66551208496094 -31.306793212890625 -84.62562561035156C-41.171295166015625 -75.40711975097656 -45.7073974609375 -63.460113525390625 -45.7073974609375 -51.64750671386719C-45.7073974609375 -31.411422729492188 -32.39540100097656 -11.569717407226562 -9.754165649414062 -6.515106201171875Z" fill="black" /></g></svg>