<?xml version="1.0" encoding="utf-8" ?>
<svg baseProfile="tiny" height="100%" version="1.2" width="100%" xmlns="http://www.w3.org/2000/svg" xmlns:ev="http://www.w3.org/2001/xml-events" xmlns:xlink="http://www.w3.org/1999/xlink"><defs /><g transform="translate(0, 1000) scale(1, -1)"><path d="M-277.5790100097656 -1.397369384765625C-275.21099853515625 -0.307891845703125 -274.1210021972656 -0.0710601806640625 -270.9469909667969 -0.0710601806640625C-264.6000061035156 -0.0710601806640625 -259.43701171875 -3.3394775390625 -256.78399658203125 -9.023681640625L-255.78900146484375 -11.202606201171875L-255.64700317382812 -152.4550018310547L-255.55299377441406 -293.7550048828125H0.0H255.55299377441406L255.64700317382812 -152.4550018310547L255.78900146484375 -11.202606201171875L256.78399658203125 -9.023681640625C259.5790100097656 -3.0078887939453125 265.26300048828125 0.0 270.9469909667969 0.0C276.6319885253906 0.0 282.3160095214844 -3.0078887939453125 285.1109924316406 -9.023681640625L286.1050109863281 -11.202606201171875V-207.5449981689453V-403.8869934082031L285.1109924316406 -406.0660095214844C283.5950012207031 -409.3340148925781 280.79998779296875 -412.1289978027344 277.5790100097656 -413.6919860839844L274.73699951171875 -415.01800537109375H0.0H-274.73699951171875L-277.5790100097656 -413.6919860839844C-280.79998779296875 -412.1289978027344 -283.5950012207031 -409.3340148925781 -285.1109924316406 -406.0660095214844L-286.1050109863281 -403.8869934082031V-207.5449981689453V-11.202606201171875L-285.1109924316406 -9.023681640625C-283.5950012207031 -5.7552642822265625 -280.79998779296875 -2.9605255126953125 -277.5790100097656 -1.397369384765625ZM-201.78900146484375 -1.397369384765625C-199.42100524902344 -0.307891845703125 -198.33200073242188 -0.0710601806640625 -195.1580047607422 -0.0710601806640625C-188.81100463867188 -0.0710601806640625 -183.64700317382812 -3.3394775390625 -180.9949951171875 -9.023681640625L-180.0 -11.202606201171875L-179.85800170898438 -78.56051635742188L-179.76300048828125 -145.9660186767578H0.0H179.76300048828125L179.85800170898438 -78.56051635742188L180.0 -11.202606201171875L180.9949951171875 -9.023681640625C183.78900146484375 -3.0078887939453125 189.4739990234375 0.0 195.1580047607422 0.0C200.8419952392578 0.0 206.5260009765625 -3.0078887939453125 209.3209991455078 -9.023681640625L210.3159942626953 -11.202606201171875V-122.28201293945312V-233.3610076904297L209.3209991455078 -235.5390167236328C207.8050079345703 -238.80801391601562 205.01101684570312 -241.60301208496094 201.7890167236328 -243.166015625L198.947021484375 -244.4920196533203H1.52587890625e-05H-198.94699096679688L-201.7889862060547 -243.166015625C-205.010986328125 -241.60299682617188 -207.8049774169922 -238.80799865722656 -209.32098388671875 -235.53900146484375L-210.31597900390625 -233.36099243164062V-122.28199768066406V-11.202590942382812L-209.32098388671875 -9.023666381835938C-207.80499267578125 -5.7552490234375 -205.01100158691406 -2.96051025390625 -201.78900146484375 -1.3973541259765625ZM-9.899993896484375 -6.5131378173828125C-7.2198944091796875 -5.9124298095703125 -4.3284912109375 -5.62445068359375 -1.3494720458984375 -5.62445068359375C7.886688232421875 -5.62445068359375 17.965103149414062 -8.392715454101562 25.199996948242188 -13.19207763671875C38.58160400390625 -22.04998779296875 45.27239990234375 -36.63948059082031 45.27239990234375 -51.2288818359375C45.27239990234375 -65.81837463378906 38.58160400390625 -80.40788269042969 25.199996948242188 -89.26579284667969C17.597991943359375 -94.32688903808594 8.752700805664062 -96.80247497558594 -0.070709228515625 -96.80247497558594C-11.4794921875 -96.80247497558594 -22.851806640625 -92.66358947753906 -31.452606201171875 -84.62368774414062C-41.317108154296875 -75.40518188476562 -45.85319519042969 -63.45817565917969 -45.85319519042969 -51.64558410644531C-45.85319519042969 -31.40948486328125 -32.54119873046875 -11.567779541015625 -9.899993896484375 -6.5131378173828125Z" fill="black" /></g></svg>