<?xml version="1.0" encoding="utf-8" ?>
<svg baseProfile="tiny" height="100%" version="1.2" width="100%" xmlns="http://www.w3.org/2000/svg" xmlns:ev="http://www.w3.org/2001/xml-events" xmlns:xlink="http://www.w3.org/1999/xlink"><defs /><g transform="translate(0, 1000) scale(1, -1)"><path d="M-11.605300903320312 105.44200134277344C-7.76129150390625 106.0369873046875 -3.937042236328125 106.32597351074219 -0.1504974365234375 106.32597351074219C43.70318603515625 106.32597351074219 82.49919128417969 67.5181884765625 88.34208679199219 15.063186645507812C88.88888549804688 10.15478515625 89.15538024902344 5.2763519287109375 89.15538024902344 0.4528045654296875C89.15538024902344 -47.37202453613281 62.95668029785156 -89.79450988769531 24.015792846679688 -102.31602478027344L18.9473876953125 -103.926025390625V-129.55300903320312C18.947402954101562 -157.8790283203125 18.947402954101562 -157.54702758789062 15.868392944335938 -162.23703002929688C12.149993896484375 -167.82603454589844 6.0749969482421875 -170.62103271484375 0.0 -170.62103271484375C-6.0749969482421875 -170.62103271484375 -12.149993896484375 -167.82603454589844 -15.868392944335938 -162.23703002929688C-18.947402954101562 -157.54702758789062 -18.947402954101562 -157.8790283203125 -18.947402954101562 -129.5530242919922V-103.92604064941406L-24.01580810546875 -102.3160400390625C-62.956695556640625 -89.79452514648438 -89.1553955078125 -47.372039794921875 -89.1553955078125 0.452789306640625C-89.1553955078125 5.276336669921875 -88.88890075683594 10.154769897460938 -88.34210205078125 15.06317138671875C-83.131591796875 61.7210693359375 -51.252593994140625 99.23677062988281 -11.605300903320312 105.44197082519531ZM9.189468383789062 80.99996948242188C6.3775177001953125 82.17776489257812 3.4466094970703125 82.74356079101562 0.4570159912109375 82.74356079101562C-15.791412353515625 82.74356079101562 -33.77391052246094 66.03106689453125 -43.81581115722656 40.026275634765625C-48.60472106933594 27.636672973632812 -50.829010009765625 14.1751708984375 -50.829010009765625 0.8332061767578125C-50.829010009765625 -35.04893493652344 -34.7412109375 -70.06703186035156 -9.189483642578125 -81.04742431640625C-6.426910400390625 -82.22952270507812 -3.5397186279296875 -82.79212951660156 -0.590087890625 -82.79212951660156C18.207778930664062 -82.79212951660156 39.54168701171875 -59.943023681640625 47.32109069824219 -28.989532470703125C49.677886962890625 -19.630523681640625 50.78898620605469 -10.013031005859375 50.78898620605469 -0.52606201171875C50.78898620605469 35.93836975097656 34.37397766113281 70.47506713867188 9.189453125 80.99996948242188Z" fill="black" /></g></svg>