<?xml version="1.0" encoding="utf-8" ?>
<svg baseProfile="tiny" height="100%" version="1.2" width="100%" xmlns="http://www.w3.org/2000/svg" xmlns:ev="http://www.w3.org/2001/xml-events" xmlns:xlink="http://www.w3.org/1999/xlink"><defs /><g transform="translate(0, 1000) scale(1, -1)"><path d="M-7.028289794921875 280.7850036621094C-5.683013916015625 281.2179870605469 -3.3874969482421875 281.4309997558594 -1.093170166015625 281.4309997558594C1.136505126953125 281.4309997558594 3.365020751953125 281.22900390625 4.719085693359375 280.8330078125C8.698028564453125 279.60101318359375 12.392807006835938 276.8059997558594 14.80859375 273.20599365234375C17.8428955078125 268.6090087890625 17.887496948242188 269.0979919433594 17.887496948242188 240.718994140625V238.0590057373047V209.968994140625H20.634902954101562C46.21382141113281 209.9219970703125 95.09800720214844 204.52200317382812 127.593017578125 198.1269989013672C140.95101928710938 195.47500610351562 144.21900939941406 193.7689971923828 147.15602111816406 187.9429931640625C150.89801025390625 180.41099548339844 158.52401733398438 74.59039306640625 158.572021484375 29.258804321289062C158.572021484375 24.332504272460938 158.71401977539062 19.78509521484375 158.85601806640625 19.216705322265625L159.1400146484375 18.127197265625H185.99801635742188C214.2300262451172 18.127197265625 215.22402954101562 18.032501220703125 218.58802795410156 15.94830322265625C225.1240234375 11.827194213867188 228.39303588867188 5.5035552978515625 228.39303588867188 -0.82012939453125C228.39303588867188 -7.1438140869140625 225.1240234375 -13.467498779296875 218.58802795410156 -17.588592529296875C215.22402954101562 -19.672805786132812 214.2300262451172 -19.767501831054688 185.95103454589844 -19.767501831054688H159.09303283691406L158.8560333251953 -21.283309936523438C158.71401977539062 -22.135910034179688 158.52401733398438 -30.283309936523438 158.38201904296875 -39.4254150390625C157.76602172851562 -78.93070983886719 154.593017578125 -128.52500915527344 149.76101684570312 -174.89901733398438C147.67701721191406 -194.7460174560547 146.635009765625 -195.97801208496094 128.4450225830078 -199.57801818847656C97.46641540527344 -205.7360076904297 64.35591125488281 -209.66702270507812 30.58221435546875 -211.18301391601562L17.88751220703125 -211.79901123046875V-238.79901123046875C17.887496948242188 -267.2669982910156 17.792800903320312 -268.2619934082031 15.708602905273438 -271.625C11.587493896484375 -278.1619873046875 5.263824462890625 -281.4309997558594 -1.05987548828125 -281.4309997558594C-7.383544921875 -281.4309997558594 -13.707199096679688 -278.1619873046875 -17.82830810546875 -271.625C-19.912506103515625 -268.2619934082031 -20.0072021484375 -267.2669982910156 -20.0072021484375 -238.7989959716797V-211.7989959716797L-32.65460205078125 -211.18299865722656C-66.4757080078125 -209.66702270507812 -99.58619689941406 -205.7360076904297 -130.47000122070312 -199.57801818847656C-145.86500549316406 -196.5460205078125 -149.51300048828125 -193.89401245117188 -150.74400329589844 -184.89401245117188C-155.0070037841797 -154.62501525878906 -160.6439971923828 -66.94642639160156 -160.6909942626953 -30.89910888671875C-160.6909942626953 -25.9254150390625 -160.83399963378906 -21.4254150390625 -160.9759979248047 -20.809616088867188L-161.25999450683594 -19.76751708984375H-187.1699981689453C-188.95201110839844 -19.767532348632812 -190.62301635742188 -19.768035888671875 -192.19300842285156 -19.768035888671875C-217.0440216064453 -19.768035888671875 -216.3670196533203 -19.642333984375 -221.89102172851562 -15.409637451171875C-226.22601318359375 -12.07012939453125 -228.3930206298828 -6.445159912109375 -228.3930206298828 -0.820159912109375C-228.3930206298828 4.804840087890625 -226.22601318359375 10.42987060546875 -221.89102172851562 13.769271850585938C-216.3670196533203 18.001968383789062 -217.0440216064453 18.127670288085938 -192.19300842285156 18.127670288085938C-190.62301635742188 18.127670288085938 -188.95201110839844 18.127166748046875 -187.17001342773438 18.127166748046875H-161.260009765625L-160.97601318359375 19.2166748046875C-160.83399963378906 19.785064697265625 -160.6909942626953 24.332473754882812 -160.6909942626953 29.258773803710938C-160.6439971923828 75.44296264648438 -153.01800537109375 180.4109649658203 -149.18099975585938 187.98997497558594C-146.1490020751953 193.9109649658203 -143.1649932861328 195.4749755859375 -129.6649932861328 198.12696838378906C-97.3125 204.52197265625 -48.33360290527344 209.92196655273438 -22.707199096679688 209.96896362304688H-20.0072021484375V238.05897521972656C-20.0072021484375 261.12696838378906 -19.865097045898438 266.47996520996094 -19.29669189453125 268.3749542236328C-17.6387939453125 273.8689422607422 -12.522994995117188 279.07994079589844 -7.028289794921875 280.7849578857422ZM-20.0072021484375 98.41665649414062V178.70594787597656L-21.049301147460938 178.65895080566406C-33.270416259765625 178.04295349121094 -73.91252136230469 170.88995361328125 -75.80720520019531 168.99595642089844C-76.04411315917969 168.8059539794922 -77.13362121582031 157.67495727539062 -78.45991516113281 142.70594787597656C-81.63362121582031 106.75395202636719 -83.71781921386719 68.76405334472656 -84.19142150878906 38.258758544921875C-84.3336181640625 29.68505859375 -84.52302551269531 21.632461547851562 -84.66511535644531 20.400848388671875L-84.8546142578125 18.127151489257812H-52.454620361328125H-20.007217407226562ZM25.371688842773438 177.99595642089844C21.534881591796875 178.3749542236328 18.266387939453125 178.70594787597656 18.124282836914062 178.70594787597656C17.982192993164062 178.70594787597656 17.887481689453125 142.56394958496094 17.887481689453125 98.41665649414062V18.127151489257812H50.33488464355469H82.78218078613281L82.54537963867188 20.164047241210938C82.45066833496094 21.253555297851562 82.21377563476562 29.495651245117188 82.07167053222656 38.49565124511719C81.59796142578125 68.81135559082031 79.51376342773438 106.80094909667969 76.34007263183594 142.70594787597656C75.01376342773438 157.67495727539062 73.92427062988281 168.8059539794922 73.68746948242188 168.99595642089844C72.124267578125 170.60595703125 40.71907043457031 176.43295288085938 25.371673583984375 177.99595642089844ZM-20.007232666015625 -100.05705261230469V-19.767562866210938H-52.45463562011719H-84.90203857421875L-84.66513061523438 -21.757064819335938C-84.5704345703125 -22.893875122070312 -84.33363342285156 -31.135971069335938 -84.19143676757812 -40.13597106933594C-83.71783447265625 -70.45176696777344 -81.63363647460938 -108.44108581542969 -78.45993041992188 -144.3460693359375C-77.13363647460938 -159.31507873535156 -76.04412841796875 -170.44607543945312 -75.80722045898438 -170.63607788085938C-73.91253662109375 -172.5310821533203 -29.149322509765625 -180.3460693359375 -20.244125366210938 -180.3460693359375C-20.102035522460938 -180.3460693359375 -20.007232666015625 -144.20407104492188 -20.007232666015625 -100.05708312988281ZM82.54537963867188 -21.757080078125 82.78218078613281 -19.767578125H50.33488464355469H17.887481689453125V-100.05706787109375C17.887466430664062 -144.2040557861328 17.982177734375 -180.34605407714844 18.124267578125 -180.34605407714844C27.029571533203125 -180.34605407714844 71.79277038574219 -172.53106689453125 73.68746948242188 -170.6360626220703C73.92427062988281 -170.44606018066406 75.01376342773438 -159.3150634765625 76.34007263183594 -144.34605407714844C79.51376342773438 -108.44107055664062 81.59796142578125 -70.45175170898438 82.07167053222656 -40.135955810546875C82.21377563476562 -31.135955810546875 82.45066833496094 -22.89385986328125 82.54537963867188 -21.757064819335938Z" fill="black" /></g></svg>