<?xml version="1.0" encoding="utf-8" ?>
<svg baseProfile="tiny" height="100%" version="1.2" width="100%" xmlns="http://www.w3.org/2000/svg" xmlns:ev="http://www.w3.org/2001/xml-events" xmlns:xlink="http://www.w3.org/1999/xlink"><defs /><g transform="translate(0, 1000) scale(1, -1)"><path d="M-5.968414306640625 156.25999450683594C-4.116241455078125 156.98098754882812 -2.1783599853515625 157.3199920654297 -0.260589599609375 157.3199920654297C6.0123138427734375 157.3199920654297 12.070205688476562 153.69198608398438 14.210494995117188 147.92398071289062C15.15789794921875 145.41297912597656 15.15789794921875 144.5129852294922 15.15789794921875 80.28138732910156V15.149887084960938H79.34210205078125C142.62600708007812 15.149887084960938 143.5260009765625 15.149887084960938 146.03700256347656 14.202484130859375C152.05999755859375 11.954681396484375 155.41799926757812 5.9903106689453125 155.41799926757812 -0.0538177490234375C155.41799926757812 -3.944732666015625 154.0260009765625 -7.868682861328125 151.05799865722656 -10.855422973632812C146.97999572753906 -14.892410278320312 151.18699645996094 -15.173309326171875 105.59500122070312 -15.173309326171875C98.22640991210938 -15.173309326171875 89.55718994140625 -15.165908813476562 79.34210205078125 -15.165908813476562H15.15789794921875V-80.29750061035156C15.15789794921875 -144.52902221679688 15.15789794921875 -145.42901611328125 14.210494995117188 -147.9400177001953C11.962799072265625 -153.96202087402344 5.9983673095703125 -157.3200225830078 -0.0457763671875 -157.3200225830078C-3.9366912841796875 -157.3200225830078 -7.8606414794921875 -155.92901611328125 -10.847396850585938 -152.9610137939453C-14.8843994140625 -148.8830108642578 -15.165206909179688 -153.1950225830078 -15.165206909179688 -106.93701171875C-15.165206909179688 -99.46110534667969 -15.15789794921875 -90.66421508789062 -15.15789794921875 -80.29751586914062V-15.165924072265625H-79.34210205078125C-89.55718994140625 -15.165924072265625 -98.22640991210938 -15.173324584960938 -105.59500122070312 -15.173324584960938C-151.18699645996094 -15.173324584960938 -146.97999572753906 -14.892425537109375 -151.05799865722656 -10.855438232421875C-154.0260009765625 -7.8686981201171875 -155.41799926757812 -3.9447479248046875 -155.41799926757812 -0.0538330078125C-155.41799926757812 5.99029541015625 -152.05999755859375 11.954666137695312 -146.03700256347656 14.202468872070312C-143.5260009765625 15.149871826171875 -142.62600708007812 15.149871826171875 -79.34210205078125 15.149871826171875H-15.15789794921875V80.2813720703125C-15.15789794921875 144.51296997070312 -15.15789794921875 145.4129638671875 -14.210494995117188 147.92396545410156C-12.931594848632812 151.28697204589844 -9.284210205078125 154.98097229003906 -5.968414306640625 156.2599639892578Z" fill="black" /></g></svg>