<?xml version="1.0" encoding="utf-8" ?>
<svg baseProfile="tiny" height="100%" version="1.2" width="100%" xmlns="http://www.w3.org/2000/svg" xmlns:ev="http://www.w3.org/2001/xml-events" xmlns:xlink="http://www.w3.org/1999/xlink"><defs /><g transform="translate(0, 1000) scale(1, -1)"><path d="M-283.78399658203125 125.81100463867188C-282.7489929199219 126.20999145507812 -281.1510009765625 126.39399719238281 -279.4159851074219 126.39399719238281C-276.62298583984375 126.39399719238281 -273.47601318359375 125.91799926757812 -271.75299072265625 125.10000610351562C-270.0 124.24700927734375 -254.7949981689453 109.5159912109375 -206.62100219726562 62.00529479980469C-172.04200744628906 27.899993896484375 -143.62100219726562 0.0 -143.47900390625 0.0C-143.28900146484375 0.0 -120.55300903320312 27.6632080078125 -92.93679809570312 61.48419189453125C-40.68949890136719 125.38400268554688 -41.35260009765625 124.62600708007812 -36.6632080078125 126.0C-35.63780212402344 126.29800415039062 -34.294891357421875 126.43899536132812 -32.86419677734375 126.43899536132812C-30.197097778320312 126.43899536132812 -27.225006103515625 125.94699096679688 -25.436798095703125 125.05300903320312C-23.6842041015625 124.24700927734375 -8.763153076171875 109.75299072265625 39.6947021484375 62.00529479980469C74.27369689941406 27.899993896484375 102.69500732421875 0.0 102.83700561523438 0.0C103.0260009765625 0.0 125.76300048828125 27.6632080078125 153.37899780273438 61.48419189453125C205.62600708007812 125.38400268554688 204.96299743652344 124.62600708007812 209.6529998779297 126.0C210.67799377441406 126.29800415039062 212.02099609375 126.43899536132812 213.45399475097656 126.43899536132812C216.12399291992188 126.43899536132812 219.10699462890625 125.94699096679688 220.92599487304688 125.05300903320312C223.05799865722656 124.01100158691406 249.96299743652344 97.76840209960938 340.8160095214844 8.005264282226562L349.3420104980469 -0.378936767578125L370.4209899902344 25.20001220703125C393.06298828125 52.6737060546875 394.5790100097656 54.33160400390625 398.3680114746094 55.563201904296875C400.1180114746094 56.12939453125 401.8479919433594 56.39149475097656 403.5190124511719 56.39149475097656C412.1260070800781 56.39149475097656 419.1549987792969 49.43589782714844 419.1549987792969 41.303192138671875C419.1549987792969 39.2633056640625 418.7120056152344 37.14939880371094 417.74200439453125 35.05259704589844C415.79998779296875 30.884201049804688 292.3110046386719 -119.93699645996094 288.0950012207031 -123.25299072265625C285.44000244140625 -125.38800048828125 281.8190002441406 -126.50399780273438 278.2590026855469 -126.50399780273438C275.9739990234375 -126.50399780273438 273.7149963378906 -126.04400634765625 271.75299072265625 -125.10000610351562C270.0 -124.24700927734375 254.98399353027344 -109.65798950195312 206.62100219726562 -62.00529479980469C172.04200744628906 -27.899993896484375 143.62100219726562 0.0 143.47900390625 0.0C143.28900146484375 0.0 120.55300903320312 -27.6632080078125 92.93679809570312 -61.436798095703125C40.68949890136719 -125.38400268554688 41.35260009765625 -124.62600708007812 36.6632080078125 -126.0C35.63780212402344 -126.29800415039062 34.294891357421875 -126.43899536132812 32.86419677734375 -126.43899536132812C30.197097778320312 -126.43899536132812 27.225006103515625 -125.94699096679688 25.436798095703125 -125.05300903320312C23.6842041015625 -124.24700927734375 8.763153076171875 -109.75299072265625 -39.6947021484375 -62.00529479980469C-74.27369689941406 -27.899993896484375 -102.69500732421875 0.0 -102.83700561523438 0.0C-103.0260009765625 0.0 -125.76300048828125 -27.6632080078125 -153.37899780273438 -61.436798095703125C-205.62600708007812 -125.38400268554688 -204.96299743652344 -124.62600708007812 -209.6529998779297 -126.0C-210.67799377441406 -126.29800415039062 -212.02099609375 -126.43899536132812 -213.45399475097656 -126.43899536132812C-216.12399291992188 -126.43899536132812 -219.10699462890625 -125.94699096679688 -220.92599487304688 -125.05300903320312C-223.05799865722656 -124.01100158691406 -249.53700256347656 -98.1947021484375 -340.8160095214844 -8.005264282226562L-349.3420104980469 0.378936767578125L-370.1839904785156 -24.963211059570312C-392.73199462890625 -52.34211730957031 -394.5320129394531 -54.33161926269531 -398.3680114746094 -55.56321716308594C-400.1180114746094 -56.12940979003906 -401.8479919433594 -56.391510009765625 -403.5190124511719 -56.391510009765625C-412.1260070800781 -56.391510009765625 -419.1549987792969 -49.4359130859375 -419.1549987792969 -41.30320739746094C-419.1549987792969 -39.26332092285156 -418.7120056152344 -37.1494140625 -417.74200439453125 -35.0526123046875C-415.6579895019531 -30.5526123046875 -290.6050109863281 121.87898254394531 -287.24200439453125 124.0579833984375C-286.2950134277344 124.62599182128906 -284.73199462890625 125.43199157714844 -283.78399658203125 125.81098937988281Z" fill="black" /></g></svg>