<?xml version="1.0" encoding="utf-8" ?>
<svg baseProfile="tiny" height="100%" version="1.2" width="100%" xmlns="http://www.w3.org/2000/svg" xmlns:ev="http://www.w3.org/2001/xml-events" xmlns:xlink="http://www.w3.org/1999/xlink"><defs /><g transform="translate(0, 1000) scale(1, -1)"><path d="M134.9969940185547 152.15699768066406C139.07398986816406 154.2510223388672 142.1859893798828 155.30702209472656 144.59597778320312 155.30702209472656C147.3109893798828 155.30702209472656 149.1339874267578 153.9660186767578 150.43898010253906 151.25701904296875C151.06898498535156 149.92201232910156 151.40298461914062 148.71900939941406 151.40298461914062 147.5880126953125C151.40298461914062 144.385009765625 148.72499084472656 141.75601196289062 142.52899169921875 138.32501220703125C101.21397399902344 115.40202331542969 77.35908508300781 76.49641418457031 77.35908508300781 39.36100769042969C77.35908508300781 23.700912475585938 81.60128784179688 8.355667114257812 90.56538391113281 -5.3434295654296875L91.70228576660156 -7.1434326171875H96.29698181152344C115.33897399902344 -7.1434326171875 136.41798400878906 -17.090805053710938 149.4919891357422 -32.15399169921875C161.8629913330078 -46.416900634765625 167.73397827148438 -63.78070068359375 167.73397827148438 -80.93850708007812C167.73397827148438 -107.60000610351562 153.55699157714844 -133.76499938964844 127.55998229980469 -147.02200317382812C116.44998168945312 -152.69000244140625 105.11997985839844 -155.3070068359375 94.02568054199219 -155.3070068359375C44.683685302734375 -155.3070068359375 -1.52587890625e-05 -103.5260009765625 -1.52587890625e-05 -37.928497314453125C-1.52587890625e-05 -34.075103759765625 0.1541748046875 -30.173995971679688 0.470672607421875 -26.232894897460938C5.9654083251953125 42.49870300292969 59.06538391113281 112.88800048828125 134.99697875976562 152.15699768066406Z" fill="black" /></g></svg>