<?xml version="1.0" encoding="utf-8" ?>
<svg baseProfile="tiny" height="100%" version="1.2" width="100%" xmlns="http://www.w3.org/2000/svg" xmlns:ev="http://www.w3.org/2001/xml-events" xmlns:xlink="http://www.w3.org/1999/xlink"><defs /><g transform="translate(0, 1000) scale(1, -1)"><path d="M-22.5 351.9639892578125C-15.156906127929688 352.43798828125 -7.8607177734375 352.6730041503906 -0.6188812255859375 352.6730041503906C159.24000549316406 352.6730041503906 292.6159973144531 238.60699462890625 319.21600341796875 75.3800048828125C322.21099853515625 57.03770446777344 324.0830078125 34.606292724609375 324.0830078125 20.947296142578125C324.0830078125 15.382095336914062 323.7720031738281 11.273193359375 323.1000061035156 9.490524291992188C320.7909851074219 3.399383544921875 314.8219909667969 0.0 308.7749938964844 0.0C304.89898681640625 0.0 300.99200439453125 1.3961639404296875 297.9949951171875 4.3747406005859375C294.2049865722656 8.211578369140625 293.73199462890625 10.05889892578125 293.21099853515625 22.516799926757812C287.7909851074219 154.32699584960938 157.2740020751953 253.6719970703125 0.3290557861328125 253.6719970703125C-14.185897827148438 253.6719970703125 -28.926803588867188 252.82200622558594 -43.8157958984375 251.06900024414062C-184.12100219726562 234.53799438476562 -288.4259948730469 138.947998046875 -293.21099853515625 22.516799926757812C-293.73199462890625 10.05889892578125 -294.2049865722656 8.211578369140625 -297.9949951171875 4.3747406005859375C-300.99200439453125 1.3961639404296875 -304.89898681640625 0.0 -308.7749938964844 0.0C-314.8219909667969 0.0 -320.7909851074219 3.399383544921875 -323.1000061035156 9.490524291992188C-323.7720031738281 11.273193359375 -324.0830078125 15.382095336914062 -324.0830078125 20.947296142578125C-324.0830078125 34.606292724609375 -322.21099853515625 57.03770446777344 -319.21600341796875 75.3800048828125C-294.2049865722656 228.80599975585938 -172.51600646972656 342.2539978027344 -22.5 351.9639892578125ZM-9.663162231445312 95.93789672851562C-6.983062744140625 96.53860473632812 -4.0916595458984375 96.82659912109375 -1.112640380859375 96.82659912109375C8.123519897460938 96.82659912109375 18.201980590820312 94.05828857421875 25.436782836914062 89.2589111328125C38.818389892578125 80.40109252929688 45.509185791015625 65.81159973144531 45.509185791015625 51.22210693359375C45.509185791015625 36.632598876953125 38.818389892578125 22.043197631835938 25.436782836914062 13.185302734375C17.834793090820312 8.124130249023438 8.989532470703125 5.6485748291015625 0.1661224365234375 5.6485748291015625C-11.242721557617188 5.6485748291015625 -22.614913940429688 9.787445068359375 -31.2158203125 17.827392578125C-41.08030700683594 27.0458984375 -45.61640930175781 38.99290466308594 -45.61640930175781 50.80549621582031C-45.61640930175781 71.04150390625 -32.304412841796875 90.88320922851562 -9.663177490234375 95.93789672851562Z" fill="black" /></g></svg>