<?xml version="1.0" encoding="utf-8" ?>
<svg baseProfile="tiny" height="100%" version="1.2" width="100%" xmlns="http://www.w3.org/2000/svg" xmlns:ev="http://www.w3.org/2001/xml-events" xmlns:xlink="http://www.w3.org/1999/xlink"><defs /><g transform="translate(0, 1000) scale(1, -1)"><path d="M-159.1580047607422 351.1659851074219 -156.3159942626953 352.49200439453125H0.0H156.3159942626953L159.1580047607422 351.1659851074219C162.3789825439453 349.6029968261719 165.17398071289062 346.8080139160156 166.68898010253906 343.53900146484375L167.68399047851562 341.3609924316406V176.28199768066406V11.202606201171875L166.68898010253906 9.023681640625C163.89498901367188 3.0078887939453125 158.2109832763672 0.0 152.52598571777344 0.0C146.84197998046875 0.0 141.15798950195312 3.0078887939453125 138.3629913330078 9.023681640625L137.36798095703125 11.202606201171875L137.22598266601562 100.39700317382812L137.13198852539062 189.5449981689453H-1.52587890625e-05H-137.13201904296875L-137.22601318359375 100.39700317382812L-137.36801147460938 11.202606201171875L-138.36302185058594 9.023681640625C-141.15802001953125 3.0078887939453125 -146.84201049804688 0.0 -152.52601623535156 0.0C-158.2110137939453 0.0 -163.89501953125 3.0078887939453125 -166.6890106201172 9.023681640625L-167.68402099609375 11.202606201171875V176.28199768066406V341.3609924316406L-166.6890106201172 343.53900146484375C-165.17401123046875 346.8080139160156 -162.37901306152344 349.6029968261719 -159.15802001953125 351.1659851074219Z" fill="black" /></g></svg>