<?xml version="1.0" encoding="utf-8" ?>
<svg baseProfile="tiny" height="100%" version="1.2" width="100%" xmlns="http://www.w3.org/2000/svg" xmlns:ev="http://www.w3.org/2001/xml-events" xmlns:xlink="http://www.w3.org/1999/xlink"><defs /><g transform="translate(0, 1000) scale(1, -1)"><path d="M-206.7689971923828 126.2340087890625C-205.30001831054688 126.69900512695312 -203.6690216064453 126.93499755859375 -201.79000854492188 126.93499755859375C-198.70101928710938 126.93499755859375 -194.9440155029297 126.29800415039062 -190.1430206298828 125.00199890136719L-29.090118408203125 81.70729064941406L165.3569793701172 29.412490844726562C213.7679901123047 16.386184692382812 208.3199920654297 17.949386596679688 211.49398803710938 15.865188598632812C217.1309814453125 12.123092651367188 219.94898986816406 6.059906005859375 219.94898986816406 -0.0032501220703125C219.94898986816406 -6.0664215087890625 217.1309814453125 -12.129608154296875 211.49398803710938 -15.871719360351562C211.29298400878906 -16.00640869140625 211.23098754882812 -16.0985107421875 211.23098754882812 -16.168807983398438C211.23098754882812 -16.283309936523438 211.39598083496094 -16.339813232421875 211.39598083496094 -16.4287109375C211.39598083496094 -17.186813354492188 199.39797973632812 -20.300521850585938 -29.090118408203125 -81.71382141113281L-190.1430206298828 -125.00901794433594C-194.87301635742188 -126.29402160644531 -198.65701293945312 -126.93501281738281 -201.8140106201172 -126.93501281738281C-205.1680145263672 -126.93501281738281 -207.8140106201172 -126.21202087402344 -210.13201904296875 -124.77201843261719C-216.68101501464844 -120.65800476074219 -219.9490203857422 -114.35002136230469 -219.9490203857422 -108.03701782226562C-219.9490203857422 -101.70201110839844 -216.65701293945312 -95.36331176757812 -210.08502197265625 -91.23481750488281C-208.28501892089844 -90.09800720214844 -219.13201904296875 -93.03480529785156 -71.01121520996094 -53.24531555175781L32.01509094238281 -25.534820556640625L103.68399047851562 -6.255889892578125C115.95199584960938 -2.9401092529296875 126.04100036621094 -0.1453704833984375 126.04100036621094 -0.003265380859375C126.04100036621094 0.1388397216796875 115.95199584960938 2.933563232421875 103.68399047851562 6.249359130859375L32.01509094238281 25.528274536132812L-71.01121520996094 53.23887634277344C-219.13201904296875 93.02827453613281 -208.28501892089844 90.09147644042969 -210.08502197265625 91.22828674316406C-216.63002014160156 95.33238220214844 -219.77601623535156 101.94798278808594 -219.77601623535156 108.39898681640625C-219.77601623535156 116.09397888183594 -215.2980194091797 123.55398559570312 -206.76901245117188 126.23399353027344Z" fill="black" /></g></svg>