<?xml version="1.0" encoding="utf-8" ?>
<svg baseProfile="tiny" height="100%" version="1.2" width="100%" xmlns="http://www.w3.org/2000/svg" xmlns:ev="http://www.w3.org/2001/xml-events" xmlns:xlink="http://www.w3.org/1999/xlink"><defs /><g transform="translate(0, 1000) scale(1, -1)"><path d="M-144.32899475097656 14.097305297851562C-142.37200927734375 14.861221313476562 -70.14231872558594 15.2401123046875 1.5416412353515625 15.2401123046875C72.09669494628906 15.2401123046875 142.12298583984375 14.873123168945312 144.09698486328125 14.14471435546875C150.11997985839844 11.89691162109375 153.4779815673828 5.9325408935546875 153.4779815673828 -0.111602783203125C153.4779815673828 -4.0025177001953125 152.0859832763672 -7.9264678955078125 149.11798095703125 -10.913192749023438C145.10498046875 -14.887588500976562 156.18698120117188 -15.240081787109375 70.23698425292969 -15.240081787109375C51.69859313964844 -15.240081787109375 28.646286010742188 -15.223678588867188 -0.0452728271484375 -15.223678588867188C-141.15602111816406 -15.223678588867188 -141.62901306152344 -15.223678588867188 -144.18701171875 -14.276382446289062C-150.37501525878906 -11.967880249023438 -153.47801208496094 -6.0008087158203125 -153.47801208496094 -0.039306640625C-153.47801208496094 5.8650360107421875 -150.43402099609375 11.763916015625 -144.32901000976562 14.097320556640625Z" fill="black" /></g></svg>