<?xml version="1.0" encoding="utf-8" ?>
<svg baseProfile="tiny" height="100%" version="1.2" width="100%" xmlns="http://www.w3.org/2000/svg" xmlns:ev="http://www.w3.org/2001/xml-events" xmlns:xlink="http://www.w3.org/1999/xlink"><defs /><g transform="translate(0, 1000) scale(1, -1)"><path d="M-192.14300537109375 142.20700073242188C-188.83999633789062 142.5679931640625 -185.33200073242188 142.74600219726562 -181.65199279785156 142.74600219726562C-154.99000549316406 142.74600219726562 -119.26899719238281 133.43899536132812 -86.51170349121094 117.62200927734375C-44.638092041015625 97.44338989257812 -9.206466674804688 71.81700134277344 30.488296508789062 33.0697021484375C88.75140380859375 -23.819793701171875 147.82000732421875 -58.35139465332031 204.7570037841797 -68.77239990234375C207.63099670410156 -69.30120849609375 210.5070037841797 -69.55740356445312 213.36700439453125 -69.55740356445312C244.5780029296875 -69.55740356445312 273.8659973144531 -39.04640197753906 278.5090026855469 0.5275726318359375C278.8190002441406 3.1625518798828125 278.968994140625 5.72955322265625 278.968994140625 8.224563598632812C278.968994140625 40.11669921875 254.3730010986328 60.246307373046875 222.61900329589844 60.246307373046875C208.93899536132812 60.246307373046875 193.93099975585938 56.510406494140625 178.98800659179688 48.36970520019531C170.46200561523438 43.718994140625 161.72799682617188 41.576507568359375 153.4510040283203 41.576507568359375C129.35299682617188 41.576507568359375 109.1199951171875 59.73320007324219 109.1199951171875 87.02230834960938C109.1199951171875 109.61700439453125 121.29400634765625 124.53799438476562 148.0570068359375 134.77000427246094C162.94500732421875 140.45199584960938 177.90699768066406 143.1230010986328 192.4010009765625 143.1230010986328C251.36500549316406 143.1230010986328 302.5780029296875 98.91380310058594 309.5360107421875 33.40130615234375C310.14801025390625 27.641204833984375 310.44500732421875 21.883392333984375 310.44500732421875 16.151702880859375C310.44500732421875 -66.19290161132812 249.12100219726562 -143.1230010986328 180.67100524902344 -143.1230010986328C179.08700561523438 -143.1230010986328 177.5 -143.08200073242188 175.90899658203125 -142.99899291992188C109.78298950195312 -139.4929962158203 37.07249450683594 -101.26699829101562 -32.51170349121094 -33.34089660644531C-83.62229919433594 16.538101196289062 -134.54299926757812 48.93809509277344 -183.3800048828125 62.627593994140625C-198.62100219726562 66.87741088867188 -207.9499969482422 68.805908203125 -216.17999267578125 68.805908203125C-221.2519989013672 68.805908203125 -225.906005859375 68.07379150390625 -231.27000427246094 66.7012939453125C-261.38800048828125 59.05870056152344 -279.0459899902344 31.768600463867188 -279.0459899902344 3.939666748046875C-279.0459899902344 -12.04229736328125 -273.22198486328125 -28.201904296875 -260.59100341796875 -40.9197998046875C-248.76600646972656 -52.82499694824219 -234.68499755859375 -58.7991943359375 -218.97900390625 -58.7991943359375C-207.00100708007812 -58.7991943359375 -194.0780029296875 -55.32470703125 -180.49099731445312 -48.356597900390625C-171.88400268554688 -43.939300537109375 -163.30099487304688 -41.75669860839844 -155.14999389648438 -41.75669860839844C-143.0229949951172 -41.75669860839844 -131.8520050048828 -46.587799072265625 -122.98500061035156 -56.07769775390625C-114.77799987792969 -64.87579345703125 -110.81700134277344 -76.07308959960938 -110.81700134277344 -87.20748901367188C-110.81700134277344 -101.97000122070312 -117.77999877929688 -116.62200927734375 -131.03799438476562 -125.42500305175781C-142.64300537109375 -133.0989990234375 -159.6490020751953 -138.9250030517578 -175.47000122070312 -140.58299255371094C-179.7259979248047 -141.03199768066406 -183.927001953125 -141.2519989013672 -188.06700134277344 -141.2519989013672C-258.1189880371094 -141.2519989013672 -310.44500732421875 -78.41850280761719 -310.44500732421875 -3.96905517578125C-310.44500732421875 12.707305908203125 -307.82000732421875 29.966400146484375 -302.17999267578125 47.23280334472656C-285.17498779296875 99.243408203125 -241.6909942626953 136.75900268554688 -192.14300537109375 142.20700073242188Z" fill="black" /></g></svg>