<?xml version="1.0" encoding="utf-8" ?>
<svg baseProfile="tiny" height="100%" version="1.2" width="100%" xmlns="http://www.w3.org/2000/svg" xmlns:ev="http://www.w3.org/2001/xml-events" xmlns:xlink="http://www.w3.org/1999/xlink"><defs /><g transform="translate(0, 1000) scale(1, -1)"><path d="M-303.5260009765625 125.81100463867188C-302.49200439453125 126.20999145507812 -300.89300537109375 126.39399719238281 -299.1579895019531 126.39399719238281C-296.364990234375 126.39399719238281 -293.2179870605469 125.91799926757812 -291.4949951171875 125.10000610351562C-289.74200439453125 124.24700927734375 -274.5369873046875 109.5159912109375 -226.36300659179688 62.00529479980469C-191.78399658203125 27.899993896484375 -163.36300659179688 0.0 -163.2209930419922 0.0C-163.03199768066406 0.0 -140.2949981689453 27.6632080078125 -112.67900085449219 61.48419189453125C-60.43159484863281 125.38400268554688 -61.09480285644531 124.62600708007812 -56.405303955078125 126.0C-55.37989807128906 126.29800415039062 -54.03700256347656 126.43899536132812 -52.606292724609375 126.43899536132812C-49.939208984375 126.43899536132812 -46.96710205078125 125.94699096679688 -45.17900085449219 125.05300903320312C-43.426300048828125 124.24700927734375 -28.505294799804688 109.75299072265625 19.952606201171875 62.00529479980469C54.531494140625 27.899993896484375 82.95260620117188 0.0 83.09469604492188 0.0C83.28421020507812 0.0 106.02099609375 27.6632080078125 133.63699340820312 61.48419189453125C185.88400268554688 125.38400268554688 185.2209930419922 124.62600708007812 189.91000366210938 126.0C190.93600463867188 126.29800415039062 192.2790069580078 126.43899536132812 193.71099853515625 126.43899536132812C196.3820037841797 126.43899536132812 199.36500549316406 125.94699096679688 201.1840057373047 125.05300903320312C203.2209930419922 124.05799865722656 255.13699340820312 73.37370300292969 321.1210021972656 7.9578857421875L329.6470031738281 -0.52105712890625L351.8160095214844 26.384201049804688C376.9840087890625 57.041717529296875 377.114013671875 57.31591796875 384.4700012207031 57.31591796875L384.8789978027344 57.315826416015625C392.0790100097656 57.315826416015625 396.5790100097656 53.336822509765625 406.71600341796875 37.89472961425781C428.07598876953125 5.277496337890625 438.8970031738281 -36.076263427734375 438.8970031738281 -80.19137573242188C438.8970031738281 -115.7099609375 431.8819885253906 -153.0199737548828 417.7049865722656 -188.99996948242188C410.69500732421875 -206.76296997070312 400.1319885253906 -227.9839630126953 396.43701171875 -231.67897033691406C393.52301025390625 -234.5929718017578 389.6860046386719 -235.95396423339844 385.8609924316406 -235.95396423339844C379.8009948730469 -235.95396423339844 373.76800537109375 -232.5379638671875 371.4739990234375 -226.4679718017578C370.7650146484375 -224.5619659423828 370.3599853515625 -222.9749755859375 370.3599853515625 -221.261962890625C370.3599853515625 -217.823974609375 371.989990234375 -213.87696838378906 376.0679931640625 -205.8159637451172C397.4670104980469 -163.56297302246094 408.2619934082031 -121.54997253417969 408.2619934082031 -81.07096862792969C408.2619934082031 -61.783966064453125 405.81201171875 -42.84516906738281 400.8890075683594 -24.394668579101562C397.6210021972656 -11.984161376953125 390.1369934082031 6.0631866455078125 384.6889953613281 14.7789306640625L383.6000061035156 16.531631469726562L354.9419860839844 -18.331573486328125L298.4320068359375 -87.34736633300781C269.3869934082031 -123.01396179199219 266.7080078125 -126.49195861816406 260.5710144042969 -126.49195861816406C259.7720031738281 -126.49195861816406 258.91400146484375 -126.43394470214844 257.9320068359375 -126.37895202636719C251.48899841308594 -126.04695129394531 255.6580047607422 -129.8369598388672 186.87899780273438 -62.0052490234375C152.3000030517578 -27.899948120117188 123.87899780273438 4.57763671875e-05 123.73699951171875 4.57763671875e-05C123.5469970703125 4.57763671875e-05 100.80999755859375 -27.663162231445312 73.1947021484375 -61.43675231933594C20.947296142578125 -125.38395690917969 21.610504150390625 -124.62596130371094 16.921005249023438 -125.99995422363281C15.895706176757812 -126.29795837402344 14.552703857421875 -126.43894958496094 13.122100830078125 -126.43894958496094C10.455001831054688 -126.43894958496094 7.4828643798828125 -125.94694519042969 5.6947021484375 -125.05296325683594C3.94207763671875 -124.24696350097656 -10.97900390625 -109.75294494628906 -59.43690490722656 -62.0052490234375C-94.01580810546875 -27.899948120117188 -122.43699645996094 4.57763671875e-05 -122.57901000976562 4.57763671875e-05C-122.76800537109375 4.57763671875e-05 -145.5050048828125 -27.663162231445312 -173.12100219726562 -61.43675231933594C-225.3679962158203 -125.38395690917969 -224.7050018310547 -124.62596130371094 -229.39500427246094 -125.99995422363281C-230.4199981689453 -126.29795837402344 -231.76300048828125 -126.43894958496094 -233.1959991455078 -126.43894958496094C-235.86700439453125 -126.43894958496094 -238.8489990234375 -125.94694519042969 -240.66799926757812 -125.05296325683594C-242.8000030517578 -124.01095581054688 -269.27899169921875 -98.19465637207031 -360.5580139160156 -8.005218505859375L-369.0840148925781 0.3789825439453125L-389.9259948730469 -24.963165283203125C-412.4739990234375 -52.342071533203125 -414.27398681640625 -54.331573486328125 -418.1109924316406 -55.56317138671875C-419.8599853515625 -56.129364013671875 -421.5899963378906 -56.39146423339844 -423.260986328125 -56.39146423339844C-431.8689880371094 -56.39146423339844 -438.8970031738281 -49.43586730957031 -438.8970031738281 -41.30316162109375C-438.8970031738281 -39.263275146484375 -438.4549865722656 -37.14936828613281 -437.4840087890625 -35.05256652832031C-435.3999938964844 -30.552566528320312 -310.34698486328125 121.8790283203125 -306.9840087890625 124.05802917480469C-306.0369873046875 124.62603759765625 -304.4739990234375 125.43203735351562 -303.5260009765625 125.81103515625Z" fill="black" /></g></svg>