<?xml version="1.0" encoding="utf-8" ?>
<svg baseProfile="tiny" height="100%" version="1.2" width="100%" xmlns="http://www.w3.org/2000/svg" xmlns:ev="http://www.w3.org/2001/xml-events" xmlns:xlink="http://www.w3.org/1999/xlink"><defs /><g transform="translate(0, 1000) scale(1, -1)"><path d="M-8.751144409179688 48.713592529296875C-6.00030517578125 49.20719909667969 -3.2303314208984375 49.44599914550781 -0.4714813232421875 49.44599914550781C18.480087280273438 49.44599914550781 36.90757751464844 38.1741943359375 45.01197814941406 20.766204833984375C47.814788818359375 14.74310302734375 49.32258605957031 6.486480712890625 49.32258605957031 -1.1917724609375C49.32258605957031 -5.71136474609375 48.80018615722656 -10.030593872070312 47.71199035644531 -13.575897216796875C44.206787109375 -25.133804321289062 37.19618225097656 -34.749603271484375 27.769882202148438 -41.09700012207031C19.274490356445312 -46.74290466308594 9.628311157226562 -49.44599914550781 0.0941619873046875 -49.44599914550781C-15.888412475585938 -49.44599914550781 -31.556411743164062 -41.84979248046875 -40.96171569824219 -27.786407470703125C-46.68962097167969 -19.173904418945312 -49.32261657714844 -9.649154663085938 -49.32261657714844 -0.313079833984375C-49.32261657714844 22.5458984375 -33.538116455078125 44.27410888671875 -8.75115966796875 48.713592529296875Z" fill="black" /></g></svg>