<?xml version="1.0" encoding="utf-8" ?>
<svg baseProfile="tiny" height="100%" version="1.2" width="100%" xmlns="http://www.w3.org/2000/svg" xmlns:ev="http://www.w3.org/2001/xml-events" xmlns:xlink="http://www.w3.org/1999/xlink"><defs /><g transform="translate(0, 1000) scale(1, -1)"><path d="M-6.394744873046875 155.8179931640625C-4.0263214111328125 156.9080047607422 -2.9368438720703125 157.14500427246094 0.236846923828125 157.14500427246094C6.5842132568359375 157.14500427246094 11.747406005859375 153.87600708007812 14.399993896484375 148.19200134277344C15.394699096679688 146.01300048828125 15.394699096679688 145.7760009765625 15.53680419921875 103.76100158691406L15.678909301757812 61.507904052734375L17.431610107421875 61.22370910644531C70.86318969726562 52.98161315917969 109.65798950195312 7.2710723876953125 109.65798950195312 -47.486785888671875C109.65798950195312 -109.44499206542969 61.95790100097656 -157.14498901367188 0.0 -157.14498901367188C-61.95790100097656 -157.14498901367188 -109.65798950195312 -109.44499206542969 -109.65798950195312 -47.486785888671875C-109.65798950195312 7.0815887451171875 -69.72630310058594 54.16581726074219 -17.431594848632812 61.22370910644531L-15.205291748046875 61.507904052734375L-15.063186645507812 103.76100158691406C-14.92108154296875 145.77601623535156 -14.92108154296875 146.0130157470703 -13.926284790039062 148.1920166015625C-12.410476684570312 151.4610137939453 -9.615768432617188 154.25502014160156 -6.3947296142578125 155.81800842285156ZM-15.063186645507812 -10.634185791015625C-15.157089233398438 27.351104736328125 -15.250991821289062 30.150604248046875 -15.99078369140625 30.150604248046875C-15.997283935546875 30.150604248046875 -16.003890991210938 30.150405883789062 -16.010482788085938 30.149993896484375C-22.831588745117188 29.72369384765625 -38.79469299316406 22.381591796875 -48.078887939453125 15.37109375C-69.48788452148438 -0.8509368896484375 -79.04408264160156 -23.642303466796875 -79.04408264160156 -46.2239990234375C-79.04408264160156 -86.74569702148438 -48.2725830078125 -126.59201049804688 1.52587890625e-05 -126.59201049804688C47.56211853027344 -126.59201049804688 79.12051391601562 -87.46260070800781 79.12051391601562 -46.7821044921875C79.12051391601562 -27.379104614257812 71.94120788574219 -7.623260498046875 55.89471435546875 8.40789794921875C45.47370910644531 18.876296997070312 24.631607055664062 30.197402954101562 15.868408203125 30.197402954101562C15.773712158203125 30.197402954101562 15.584213256835938 11.818405151367188 15.536819458007812 -10.634201049804688C15.39471435546875 -51.22889709472656 15.39471435546875 -51.51319885253906 14.400009155273438 -53.692108154296875C11.692718505859375 -59.553192138671875 5.8279876708984375 -62.75030517578125 -0.0063018798828125 -62.75030517578125C-4.073822021484375 -62.75030517578125 -8.126541137695312 -61.19630432128906 -11.084182739257812 -57.90789794921875C-15.205291748046875 -53.360504150390625 -14.92108154296875 -56.86579895019531 -15.063186645507812 -10.634201049804688Z" fill="black" /></g></svg>