<?xml version="1.0" encoding="utf-8" ?>
<svg baseProfile="tiny" height="100%" version="1.2" width="100%" xmlns="http://www.w3.org/2000/svg" xmlns:ev="http://www.w3.org/2001/xml-events" xmlns:xlink="http://www.w3.org/1999/xlink"><defs /><g transform="translate(0, 1000) scale(1, -1)"><path d="M-391.6860046386719 234.89999389648438C-389.6409912109375 235.69000244140625 -387.59698486328125 236.05799865722656 -385.6300048828125 236.05799865722656C-377.4599914550781 236.05799865722656 -370.6369934082031 229.7010040283203 -370.6369934082031 220.82400512695312C-370.6369934082031 220.55999755859375 -370.64300537109375 220.29400634765625 -370.6549987792969 220.0260009765625C-370.7969970703125 216.23699951171875 -370.843994140625 216.18899536132812 -376.05499267578125 205.8159942626953C-397.4540100097656 163.56300354003906 -408.2489929199219 121.55000305175781 -408.2489929199219 81.07099914550781C-408.2489929199219 61.78399658203125 -405.7980041503906 42.84519958496094 -400.8760070800781 24.394699096679688C-397.6080017089844 11.98419189453125 -390.12298583984375 -6.0631561279296875 -384.6759948730469 -14.778900146484375L-383.58599853515625 -16.531600952148438L-360.3760070800781 11.699996948242188L-303.6289978027344 80.95259094238281C-269.5740051269531 122.64898681640625 -266.68701171875 126.51399230957031 -260.7149963378906 126.51399230957031C-259.875 126.51399230957031 -258.9750061035156 126.43698120117188 -257.9179992675781 126.37898254394531C-251.4759979248047 126.04698181152344 -255.6439971923828 129.8369903564453 -186.86500549316406 62.005279541015625C-152.28599548339844 27.899978637695312 -123.864990234375 -1.52587890625e-05 -123.72299194335938 -1.52587890625e-05C-123.53399658203125 -1.52587890625e-05 -100.7969970703125 27.663192749023438 -73.18119812011719 61.48417663574219C-20.933807373046875 125.38398742675781 -21.597000122070312 124.62599182128906 -16.907501220703125 125.99998474121094C-15.8822021484375 126.29798889160156 -14.539306640625 126.43898010253906 -13.108596801757812 126.43898010253906C-10.441497802734375 126.43898010253906 -7.4693756103515625 125.94697570800781 -5.68121337890625 125.05299377441406C-3.9285736083984375 124.24699401855469 10.99249267578125 109.75297546386719 59.450408935546875 62.005279541015625C94.029296875 27.899978637695312 122.44999694824219 -1.52587890625e-05 122.59201049804688 -1.52587890625e-05C122.78199768066406 -1.52587890625e-05 145.5189971923828 27.663192749023438 173.13499450683594 61.48417663574219C225.3820037841797 125.38398742675781 224.718994140625 124.62599182128906 229.4080047607422 125.99998474121094C230.4340057373047 126.29798889160156 231.77699279785156 126.43898010253906 233.20899963378906 126.43898010253906C235.8800048828125 126.43898010253906 238.86300659179688 125.94697570800781 240.6820068359375 125.05299377441406C242.81399536132812 124.010986328125 269.718994140625 97.76838684082031 360.5710144042969 8.0052490234375L369.0979919433594 -0.3789520263671875L390.177001953125 25.199996948242188C412.8190002441406 52.67369079589844 414.3349914550781 54.33158874511719 418.1239929199219 55.56318664550781C419.8739929199219 56.12937927246094 421.60400390625 56.3914794921875 423.2749938964844 56.3914794921875C431.8819885253906 56.3914794921875 438.9100036621094 49.435882568359375 438.9100036621094 41.30317687988281C438.9100036621094 39.26329040527344 438.4679870605469 37.149383544921875 437.49798583984375 35.052581787109375C435.5559997558594 30.884185791015625 312.0660095214844 -119.93701171875 307.8500061035156 -123.25300598144531C305.1960144042969 -125.38801574707031 301.57501220703125 -126.50401306152344 298.0140075683594 -126.50401306152344C295.7300109863281 -126.50401306152344 293.47100830078125 -126.04402160644531 291.50799560546875 -125.10002136230469C289.7560119628906 -124.24702453613281 274.739990234375 -109.65800476074219 226.3769989013672 -62.00531005859375C191.79800415039062 -27.900009155273438 163.3769989013672 -1.52587890625e-05 163.23500061035156 -1.52587890625e-05C163.0449981689453 -1.52587890625e-05 140.30799865722656 -27.663223266601562 112.69200134277344 -61.43681335449219C60.445098876953125 -125.38401794433594 61.108306884765625 -124.62602233886719 56.418792724609375 -126.00001525878906C55.393402099609375 -126.29801940917969 54.050506591796875 -126.43901062011719 52.61979675292969 -126.43901062011719C49.95269775390625 -126.43901062011719 46.9805908203125 -125.94700622558594 45.1925048828125 -125.05302429199219C43.43980407714844 -124.24702453613281 28.518798828125 -109.75300598144531 -19.939102172851562 -62.00531005859375C-54.518096923828125 -27.900009155273438 -82.93910217285156 -1.52587890625e-05 -83.08120727539062 -1.52587890625e-05C-83.27069091796875 -1.52587890625e-05 -106.00799560546875 -27.663223266601562 -133.6230010986328 -61.43681335449219C-185.87100219726562 -125.38401794433594 -185.20799255371094 -124.62602233886719 -189.89700317382812 -126.00001525878906C-190.9219970703125 -126.29801940917969 -192.26499938964844 -126.43901062011719 -193.697998046875 -126.43901062011719C-196.36900329589844 -126.43901062011719 -199.3520050048828 -125.94700622558594 -201.17100524902344 -125.05302429199219C-203.20799255371094 -124.05801391601562 -255.1230010986328 -73.37371826171875 -321.1080017089844 -7.9579010009765625L-329.6340026855469 0.5210418701171875L-351.802001953125 -26.38421630859375C-376.9700012207031 -57.04173278808594 -377.10101318359375 -57.31593322753906 -384.45599365234375 -57.31593322753906L-384.864990234375 -57.31584167480469C-392.06500244140625 -57.31584167480469 -396.56500244140625 -53.33683776855469 -406.7019958496094 -37.894744873046875C-428.1310119628906 -5.1690826416015625 -438.9100036621094 35.93934631347656 -438.9100036621094 79.84706115722656C-438.9100036621094 119.89395141601562 -429.9440002441406 162.26895141601562 -411.9129943847656 202.73695373535156C-402.343994140625 224.24195861816406 -396.8970031738281 232.91094970703125 -391.6860046386719 234.8999481201172Z" fill="black" /></g></svg>