<?xml version="1.0" encoding="utf-8" ?>
<svg baseProfile="tiny" height="100%" version="1.2" width="100%" xmlns="http://www.w3.org/2000/svg" xmlns:ev="http://www.w3.org/2001/xml-events" xmlns:xlink="http://www.w3.org/1999/xlink"><defs /><g transform="translate(0, 1000) scale(1, -1)"><path d="M102.4110107421875 340.2300109863281C103.49899291992188 340.76300048828125 104.57901000976562 341.04901123046875 105.72900390625 341.04901123046875C109.48500061035156 341.04901123046875 113.9840087890625 338.0010070800781 121.92599487304688 330.5669860839844C135.1790008544922 318.1390075683594 141.68699645996094 304.9779968261719 141.68699645996094 289.4519958496094C141.68699645996094 279.11700439453125 138.80299377441406 267.7349853515625 133.10499572753906 254.8249969482422C132.30599975585938 253.02699279785156 131.80599975585938 251.9250030517578 131.80599975585938 251.31199645996094C131.80599975585938 250.85299682617188 132.08599853515625 250.66700744628906 132.72900390625 250.66700744628906C133.46800231933594 250.66700744628906 134.68800354003906 250.91299438476562 136.51600646972656 251.27200317382812C155.3209991455078 255.06199645996094 172.46800231933594 261.5039978027344 188.76300048828125 270.92999267578125C193.09500122070312 273.447998046875 197.48500061035156 274.61199951171875 201.54600524902344 274.61199951171875C211.69500732421875 274.61199951171875 219.78900146484375 267.3429870605469 219.78900146484375 255.77200317382812C219.78900146484375 250.04100036621094 219.1739959716797 248.6199951171875 212.11599731445312 237.77200317382812C175.92599487304688 182.06700134277344 143.76300048828125 101.39900207519531 126.9949951171875 24.140701293945312C124.29499816894531 11.777496337890625 124.19999694824219 11.445999145507812 122.92098999023438 9.219635009765625C119.29400634765625 3.0316925048828125 112.83700561523438 0.0 106.38800048828125 0.0C99.3590087890625 0.0 92.33999633789062 3.60064697265625 89.00531005859375 10.640701293945312C88.19999694824219 12.345993041992188 86.77890014648438 17.36700439453125 85.5 23.19329833984375C67.45260620117188 104.00399780273438 36.52110290527344 181.68800354003906 0.0947418212890625 237.77200317382812C-4.9736785888671875 245.58799743652344 -6.20526123046875 247.6719970703125 -6.9157867431640625 250.08799743652344C-7.5837554931640625 252.28199768066406 -7.89471435546875 254.3979949951172 -7.89471435546875 256.4049987792969C-7.89471435546875 266.9159851074219 0.6332855224609375 274.4320068359375 11.07769775390625 274.4320068359375C15.045196533203125 274.4320068359375 19.289199829101562 273.34698486328125 23.447402954101562 270.92999267578125C45.85260009765625 257.95098876953125 76.59469604492188 248.66700744628906 97.34210205078125 248.66700744628906H100.18399047851562L101.93698120117188 255.20399475097656C102.93197631835938 258.7560272216797 105.29997253417969 266.62001037597656 107.24197387695312 272.58802795410156C110.7359619140625 283.39100646972656 112.5789794921875 291.26600646972656 112.5789794921875 298.1680145263672C112.5789794921875 307.5490264892578 109.17596435546875 315.1330108642578 101.88897705078125 325.8300018310547C99.67776489257812 329.04502868652344 98.57456970214844 331.94200134277344 98.57456970214844 334.3510284423828C98.57456970214844 336.94700622558594 99.85546875 338.9770050048828 102.41098022460938 340.2300262451172Z" fill="black" /></g></svg>