<?xml version="1.0" encoding="utf-8" ?>
<svg baseProfile="tiny" height="100%" version="1.2" width="100%" xmlns="http://www.w3.org/2000/svg" xmlns:ev="http://www.w3.org/2001/xml-events" xmlns:xlink="http://www.w3.org/1999/xlink"><defs /><g transform="translate(0, 1000) scale(1, -1)"><path d="M-277.5790100097656 413.7489929199219 -274.73699951171875 415.07598876953125H0.0H274.73699951171875L277.5790100097656 413.7489929199219C280.79998779296875 412.1860046386719 283.5950012207031 409.3909912109375 285.1109924316406 406.12298583984375L286.1050109863281 403.9440002441406V207.6020050048828V11.259796142578125L285.1109924316406 9.080841064453125C282.3160095214844 3.0650634765625 276.6319885253906 0.0571746826171875 270.9469909667969 0.0571746826171875C265.26300048828125 0.0571746826171875 259.5790100097656 3.0650634765625 256.78399658203125 9.080856323242188L255.78900146484375 11.259811401367188L255.64700317382812 152.5600128173828L255.55299377441406 293.81202697753906H0.0H-255.55299377441406L-255.64700317382812 152.5600128173828L-255.78900146484375 11.259811401367188L-256.78399658203125 9.080856323242188C-259.4440002441406 3.381988525390625 -265.1759948730469 1.52587890625e-05 -271.0790100097656 1.52587890625e-05C-273.27099609375 1.52587890625e-05 -275.4880065917969 0.4666595458984375 -277.5790100097656 1.454559326171875C-280.79998779296875 3.0177154541015625 -283.5950012207031 5.81243896484375 -285.1109924316406 9.08087158203125L-286.1050109863281 11.25982666015625V207.60203552246094V403.94403076171875L-285.1109924316406 406.1230163574219C-283.5950012207031 409.3910217285156 -280.79998779296875 412.18603515625 -277.5790100097656 413.7490234375ZM-201.78900146484375 243.22303771972656 -198.94700622558594 244.5490264892578H0.0H198.94700622558594L201.78900146484375 243.22303771972656C205.01100158691406 241.66001892089844 207.80499267578125 238.86502075195312 209.3209991455078 235.59701538085938L210.3159942626953 233.4180145263672V122.33900451660156V11.259811401367188L209.3209991455078 9.080856323242188C206.52601623535156 3.0650787353515625 200.84201049804688 0.05718994140625 195.15802001953125 0.05718994140625C189.47401428222656 0.05718994140625 183.7890167236328 3.0650787353515625 180.99501037597656 9.08087158203125L180.00001525878906 11.25982666015625L179.85801696777344 78.66513061523438L179.7630157470703 146.0230255126953H1.52587890625e-05H-179.7629852294922L-179.8579864501953 78.66513061523438L-179.99998474121094 11.25982666015625L-180.99497985839844 9.08087158203125C-183.7889862060547 3.065093994140625 -189.47398376464844 0.0572052001953125 -195.15798950195312 0.0572052001953125C-200.84197998046875 0.0572052001953125 -206.52598571777344 3.065093994140625 -209.32098388671875 9.080886840820312L-210.31597900390625 11.259841918945312V122.33903503417969V233.4180450439453L-209.32098388671875 235.5970458984375C-207.80499267578125 238.8650665283203 -205.01100158691406 241.66006469726562 -201.78900146484375 243.2230682373047ZM-9.899993896484375 96.00196838378906C-7.2198944091796875 96.60267639160156 -4.3284912109375 96.89067077636719 -1.3494720458984375 96.89067077636719C7.886688232421875 96.89067077636719 17.965103149414062 94.12237548828125 25.199996948242188 89.32307434082031C38.58160400390625 80.46517944335938 45.27239990234375 65.87568664550781 45.27239990234375 51.28617858886719C45.27239990234375 36.69667053222656 38.58160400390625 22.107284545898438 25.199996948242188 13.249374389648438C17.597991943359375 8.188217163085938 8.752700805664062 5.7126617431640625 -0.070709228515625 5.7126617431640625C-11.4794921875 5.7126617431640625 -22.851806640625 9.851531982421875 -31.452606201171875 17.8914794921875C-41.317108154296875 27.109970092773438 -45.85319519042969 39.056976318359375 -45.85319519042969 50.86958312988281C-45.85319519042969 71.10566711425781 -32.54119873046875 90.94737243652344 -9.899993896484375 96.00196838378906Z" fill="black" /></g></svg>