<?xml version="1.0" encoding="utf-8" ?>
<svg baseProfile="tiny" height="100%" version="1.2" width="100%" xmlns="http://www.w3.org/2000/svg" xmlns:ev="http://www.w3.org/2001/xml-events" xmlns:xlink="http://www.w3.org/1999/xlink"><defs /><g transform="translate(0, 1000) scale(1, -1)"><path d="M-11.706695556640625 105.44200134277344C-7.7302093505859375 106.05897521972656 -3.803131103515625 106.35697937011719 0.06103515625 106.35697937011719C49.91009521484375 106.35697937011719 89.28810119628906 56.70887756347656 89.28810119628906 -0.196197509765625C89.28810119628906 -11.760208129882812 87.66189575195312 -23.623916625976562 84.16690063476562 -35.431610107421875C70.79449462890625 -80.57461547851562 35.339202880859375 -106.13301086425781 -0.67938232421875 -106.13301086425781C-22.71270751953125 -106.13301086425781 -44.956695556640625 -96.56910705566406 -62.48570251464844 -76.07371520996094C-80.91299438476562 -54.536712646484375 -89.28810119628906 -27.445022583007812 -89.28810119628906 -0.7752227783203125C-89.28810119628906 49.33769226074219 -59.71839904785156 97.96058654785156 -11.706695556640625 105.44198608398438ZM9.087982177734375 80.99998474121094C6.27606201171875 82.17778015136719 3.34515380859375 82.74357604980469 0.3555450439453125 82.74357604980469C-15.892898559570312 82.74357604980469 -33.875396728515625 66.03108215332031 -43.91729736328125 40.02629089355469C-48.706207275390625 27.636688232421875 -50.93040466308594 14.175186157226562 -50.93040466308594 0.833221435546875C-50.93040466308594 -35.048919677734375 -34.84269714355469 -70.0670166015625 -9.29095458984375 -81.04740905761719C-6.5283660888671875 -82.22950744628906 -3.6411895751953125 -82.7921142578125 -0.691558837890625 -82.7921142578125C18.106292724609375 -82.7921142578125 39.44020080566406 -59.94300842285156 47.2196044921875 -28.989517211914062C49.57640075683594 -19.630508422851562 50.687591552734375 -10.013015747070312 50.687591552734375 -0.5260467529296875C50.687591552734375 35.938385009765625 34.272491455078125 70.47508239746094 9.087982177734375 80.99998474121094Z" fill="black" /></g></svg>