<?xml version="1.0" encoding="utf-8" ?>
<svg baseProfile="tiny" height="100%" version="1.2" width="100%" xmlns="http://www.w3.org/2000/svg" xmlns:ev="http://www.w3.org/2001/xml-events" xmlns:xlink="http://www.w3.org/1999/xlink"><defs /><g transform="translate(0, 1000) scale(1, -1)"><path d="M-23.441497802734375 375.7170104980469C-22.94549560546875 375.9649963378906 -22.257293701171875 376.0769958496094 -21.49560546875 376.0769958496094C-19.638198852539062 376.0769958496094 -17.343994140625 375.4119873046875 -16.336196899414062 374.43798828125C-15.171600341796875 373.29901123046875 -14.600799560546875 372.2449951171875 -14.600799560546875 370.6579895019531C-14.600799560546875 369.34100341796875 -14.99420166015625 367.6549987792969 -15.767807006835938 365.2489929199219C-16.572998046875 362.7380065917969 -19.69940185546875 352.5069885253906 -22.68359375 342.4639892578125L-38.03089904785156 290.8330078125L-48.73619079589844 254.92799377441406L-49.44670104980469 252.41700744628906L-41.53620910644531 252.7010040283203C-37.178314208984375 252.7960205078125 -29.125717163085938 253.03302001953125 -23.678314208984375 253.17501831054688C14.026992797851562 254.17001342773438 55.75848388671875 259.23802185058594 91.52168273925781 267.19602966308594C94.95808410644531 267.9550018310547 98.35238647460938 268.3190155029297 101.60197448730469 268.3190155029297C112.55299377441406 268.3190155029297 121.86497497558594 264.18202209472656 125.62698364257812 257.0590057373047C125.70399475097656 256.90501403808594 125.87898254394531 256.80601501464844 126.36997985839844 256.80601501464844C128.29098510742188 256.80601501464844 135.03997802734375 258.3260040283203 159.63697814941406 264.0220184326172C197.67398071289062 272.78602600097656 196.82199096679688 272.6430206298828 206.76898193359375 273.35401916503906C208.26498413085938 273.4590301513672 209.71798706054688 273.51100158691406 211.12799072265625 273.51100158691406C226.9619903564453 273.51100158691406 237.51197814941406 266.88002014160156 244.42698669433594 252.70101928710938C247.54798889160156 246.3380126953125 249.1239776611328 238.0220184326172 249.1239776611328 230.99801635742188C249.1239776611328 224.27101135253906 247.677978515625 218.72901916503906 244.7589874267578 217.22201538085938C242.36997985839844 216.00502014160156 181.10198974609375 202.01101684570312 178.09698486328125 202.01101684570312C178.06198120117188 202.01101684570312 178.0349884033203 202.0130157470703 178.0159912109375 202.0170135498047C174.99998474121094 202.56201171875 173.54498291015625 204.53001403808594 173.54498291015625 208.15602111816406C173.54498291015625 209.25502014160156 173.677978515625 210.50701904296875 173.94297790527344 211.91702270507812C174.3369903564453 214.00001525878906 174.5269775390625 216.09901428222656 174.5269775390625 218.17901611328125C174.5269775390625 228.35501098632812 169.96697998046875 238.09201049804688 162.3369903564453 243.322021484375L159.3529815673828 245.3590087890625L155.2319793701172 242.5170135498047C139.93199157714844 232.0010223388672 127.04798889160156 217.364013671875 117.10098266601562 199.22201538085938C112.97999572753906 191.7860107421875 115.20597839355469 198.70101928710938 87.87428283691406 108.46400451660156C62.91117858886719 26.185516357421875 63.19538879394531 26.990814208984375 60.969085693359375 25.853912353515625C58.58088684082031 24.636520385742188 -2.687835693359375 10.643020629882812 -5.692291259765625 10.643020629882812C-5.727081298828125 10.643020629882812 -5.7540740966796875 10.644912719726562 -5.7730560302734375 10.648712158203125C-8.6864013671875 11.17401123046875 -10.143112182617188 11.988311767578125 -10.143112182617188 15.05181884765625C-10.143112182617188 18.065109252929688 -8.733779907226562 23.2545166015625 -5.9151611328125 32.48551940917969C-3.3858184814453125 40.96351623535156 -1.31964111328125 47.913116455078125 -1.31964111328125 48.1129150390625C-1.31964111328125 48.11521911621094 -1.3199005126953125 48.11662292480469 -1.3204193115234375 48.11711120605469L-1.3211822509765625 48.1173095703125C-1.447967529296875 48.11729431152344 -15.106109619140625 40.08290100097656 -31.730911254882812 30.2117919921875C-71.56782531738281 6.5749969482421875 -71.70991516113281 6.480255126953125 -83.59941101074219 3.069732666015625C-90.847412109375 0.9832611083984375 -98.04351806640625 0.0 -105.03901672363281 0.0C-144.57301330566406 0.0 -177.7130126953125 31.39959716796875 -177.7130126953125 72.55239868164062C-177.7130126953125 74.70790100097656 -177.62200927734375 76.89019775390625 -177.43601989746094 79.09600830078125C-176.63101196289062 88.47500610351562 -177.7680206298828 84.30661010742188 -155.55201721191406 158.81700134277344C-144.697021484375 195.23500061035156 -135.9400177001953 225.22000122070312 -135.9400177001953 225.83399963378906L-135.94100952148438 225.84300231933594C-135.97003173828125 225.87197875976562 -136.97003173828125 225.88497924804688 -138.79103088378906 225.88497924804688C-146.07302856445312 225.88497924804688 -166.47503662109375 225.67298889160156 -190.2730255126953 225.36997985839844C-213.6830291748047 225.06698608398438 -227.59503173828125 224.9119873046875 -235.67202758789062 224.9119873046875C-242.7610321044922 224.9119873046875 -245.3550262451172 225.03099060058594 -245.9310302734375 225.2749786376953C-248.04502868652344 226.12498474121094 -249.1240234375 228.27198791503906 -249.1240234375 230.44297790527344C-249.1240234375 232.5039825439453 -248.1520233154297 234.5859832763672 -246.16802978515625 235.60098266601562C-245.4100341796875 235.97998046875 -230.5840301513672 239.57998657226562 -213.1050262451172 243.6069793701172L-181.41502380371094 250.94898986816406L-154.1780242919922 251.2799835205078C-139.21005249023438 251.42198181152344 -126.8470458984375 251.6589813232422 -126.75204467773438 251.7539825439453C-126.65704345703125 251.89598083496094 -125.14103698730469 256.8219757080078 -123.38905334472656 262.7429962158203C-110.41004943847656 306.36997985839844 -106.71504211425781 318.54298400878906 -106.05204772949219 319.7749786376953C-105.57804870605469 320.7219696044922 -102.73603820800781 322.94898986816406 -97.38365173339844 326.50099182128906L-56.788848876953125 353.5959930419922C-38.83625793457031 365.57997131347656 -23.86785888671875 375.5279998779297 -23.441558837890625 375.7169952392578ZM42.63743591308594 241.99598693847656C41.13111877441406 242.28099060058594 40.20213317871094 242.4349822998047 39.24522399902344 242.4349822998047C37.97541809082031 242.4349822998047 36.656524658203125 242.1639862060547 33.87422180175781 241.5699920654297C6.0689849853515625 235.4119873046875 -20.40997314453125 231.4329833984375 -51.29417419433594 228.82798767089844C-57.167877197265625 228.35398864746094 -57.07307434082031 228.44898986816406 -57.641571044921875 223.47499084472656C-58.020477294921875 220.6799774169922 -64.36787414550781 198.55899047851562 -79.90467834472656 146.35897827148438C-99.37446594238281 81.00938415527344 -103.54808044433594 67.15338134765625 -103.54808044433594 59.93278503417969C-103.54808044433594 57.79017639160156 -103.18107604980469 56.231781005859375 -102.73606872558594 54.085479736328125C-100.60908508300781 43.63728332519531 -93.10298156738281 36.745880126953125 -85.24238586425781 36.745880126953125C-83.12446594238281 36.745880126953125 -80.98097229003906 37.246185302734375 -78.90997314453125 38.31178283691406C-77.01518249511719 39.30657958984375 11.611129760742188 91.74339294433594 12.037429809570312 92.16969299316406C12.795318603515625 92.88029479980469 31.458419799804688 155.927978515625 31.505828857421875 157.82199096679688C31.505828857421875 160.52198791503906 33.06901550292969 165.6379852294922 36.57421875 174.54298400878906C39.321624755859375 181.4119873046875 54.24263000488281 229.86997985839844 54.24263000488281 231.7639923095703C54.19532775878906 236.12197875976562 48.89002990722656 240.85897827148438 42.637420654296875 241.99598693847656Z" fill="black" /></g></svg>