<?xml version="1.0" encoding="utf-8" ?>
<svg baseProfile="tiny" height="100%" version="1.2" width="100%" xmlns="http://www.w3.org/2000/svg" xmlns:ev="http://www.w3.org/2001/xml-events" xmlns:xlink="http://www.w3.org/1999/xlink"><defs /><g transform="translate(0, 1000) scale(1, -1)"><path d="M-100.70500183105469 275.6600036621094C-98.97007751464844 276.3380126953125 -97.10939025878906 276.656005859375 -95.24028015136719 276.656005859375C-89.40478515625 276.656005859375 -83.48698425292969 273.5530090332031 -81.04737854003906 268.60198974609375C-80.57368469238281 267.6549987792969 -62.24208068847656 220.0489959716797 -40.215789794921875 162.8280029296875C-18.236785888671875 105.55999755859375 -0.14208984375 58.71260070800781 1.52587890625e-05 58.71260070800781C0.142120361328125 58.71260070800781 18.23681640625 105.55999755859375 40.2158203125 162.8280029296875C84.22111511230469 277.27099609375 81.09471130371094 269.50201416015625 83.84211730957031 272.2019958496094C87.06071472167969 275.4360046386719 90.94792175292969 276.8890075683594 94.71791076660156 276.8890075683594C102.43301391601562 276.8890075683594 109.65800476074219 270.8039855957031 109.65800476074219 261.4490051269531V256.9490051269531L61.86320495605469 132.843994140625C8.715805053710938 -5.2347259521484375 13.594711303710938 7.0337066650390625 10.610519409179688 4.09686279296875C7.789886474609375 1.3153839111328125 3.916229248046875 0.0 0.0379638671875 0.0C-5.462371826171875 0.0 -10.97198486328125 2.645782470703125 -13.499984741210938 7.50738525390625C-13.831588745117188 8.1705322265625 -35.62107849121094 64.5863037109375 -61.863189697265625 132.843994140625L-109.65798950195312 256.9490051269531V261.4490051269531C-109.65798950195312 268.27099609375 -106.43699645996094 273.385986328125 -100.70500183105469 275.6600036621094Z" fill="black" /></g></svg>