<?xml version="1.0" encoding="utf-8" ?>
<svg baseProfile="tiny" height="100%" version="1.2" width="100%" xmlns="http://www.w3.org/2000/svg" xmlns:ev="http://www.w3.org/2001/xml-events" xmlns:xlink="http://www.w3.org/1999/xlink"><defs /><g transform="translate(0, 1000) scale(1, -1)"><path d="M-50.399993896484375 125.04901123046875C-46.10870361328125 126.22500610351562 -42.39349365234375 126.82499694824219 -39.146392822265625 126.82499694824219C-32.32170104980469 126.82499694824219 -27.564804077148438 124.17500305175781 -23.873703002929688 118.65499877929688C-21.71209716796875 115.38600158691406 -20.678497314453125 111.68699645996094 -20.678497314453125 108.03199768066406C-20.678497314453125 101.83399963378906 -23.649398803710938 95.7633056640625 -29.131591796875 92.1282958984375C-32.399993896484375 89.94940185546875 -15.300003051757812 94.68620300292969 -169.53199768066406 53.2388916015625L-272.5580139160156 25.528289794921875L-344.1789855957031 6.2493743896484375C-356.4949951171875 2.9335784912109375 -366.5840148925781 0.13885498046875 -366.5840148925781 -0.0032501220703125C-366.5840148925781 -0.145355224609375 -356.4949951171875 -2.940093994140625 -344.1789855957031 -6.255889892578125L-272.5580139160156 -25.534820556640625L-169.53199768066406 -53.24531555175781C-21.410507202148438 -93.03480529785156 -32.25791931152344 -90.09800720214844 -30.457916259765625 -91.23481750488281C-23.885513305664062 -95.36331176757812 -20.593414306640625 -101.70201110839844 -20.593414306640625 -108.03701782226562C-20.593414306640625 -114.35002136230469 -23.86181640625 -120.65800476074219 -30.410507202148438 -124.77201843261719C-32.72901916503906 -126.21202087402344 -35.374420166015625 -126.93501281738281 -38.728912353515625 -126.93501281738281C-41.88531494140625 -126.93501281738281 -45.66950988769531 -126.29402160644531 -50.40000915527344 -125.00901794433594L-211.45301818847656 -81.71382141113281L-405.90000915527344 -29.419021606445312C-452.84202575683594 -16.771713256835938 -449.00502014160156 -17.861114501953125 -450.7110137939453 -16.771713256835938C-457.29502868652344 -12.650619506835938 -460.58702087402344 -6.3269500732421875 -460.58702087402344 -0.0032501220703125C-460.58702087402344 6.3204193115234375 -457.29502868652344 12.644088745117188 -450.7110137939453 16.765182495117188C-450.63002014160156 16.815292358398438 -450.6020050048828 16.850082397460938 -450.6020050048828 16.876083374023438C-450.6020050048828 16.935684204101562 -450.74900817871094 16.94927978515625 -450.74900817871094 16.99658203125C-450.74900817871094 17.415481567382812 -439.2050018310547 20.478790283203125 -211.45301818847656 81.70729064941406ZM33.86839294433594 126.23399353027344C35.337188720703125 126.69898986816406 36.96858215332031 126.93498229980469 38.84698486328125 126.93498229980469C41.93608093261719 126.93498229980469 45.693389892578125 126.29798889160156 50.49468994140625 125.00198364257812L211.54698181152344 81.707275390625L405.99497985839844 29.4124755859375C454.4049835205078 16.38616943359375 448.95799255371094 17.949371337890625 452.13197326660156 15.86517333984375C457.7679901123047 12.123077392578125 460.5869903564453 6.0598907470703125 460.5869903564453 -0.003265380859375C460.5869903564453 -6.066436767578125 457.7679901123047 -12.129623413085938 452.13197326660156 -15.871734619140625C451.9309844970703 -16.006423950195312 451.8689727783203 -16.098526000976562 451.8689727783203 -16.1688232421875C451.8689727783203 -16.2833251953125 452.0339813232422 -16.339828491210938 452.0339813232422 -16.428726196289062C452.0339813232422 -17.18682861328125 440.0349884033203 -20.300537109375 211.54698181152344 -81.71383666992188L50.49468994140625 -125.009033203125C45.76429748535156 -126.29403686523438 41.97999572753906 -126.93502807617188 38.8236083984375 -126.93502807617188C35.46910095214844 -126.93502807617188 32.823699951171875 -126.2120361328125 30.505294799804688 -124.77203369140625C23.95660400390625 -120.65802001953125 20.688095092773438 -114.35003662109375 20.688095092773438 -108.03703308105469C20.688095092773438 -101.7020263671875 23.980300903320312 -95.36332702636719 30.552597045898438 -91.23483276367188C32.35260009765625 -90.0980224609375 21.505294799804688 -93.03482055664062 169.62600708007812 -53.245330810546875L272.65301513671875 -25.534835815429688L344.3210144042969 -6.2559051513671875C356.5889892578125 -2.94012451171875 366.6789855957031 -0.1453857421875 366.6789855957031 -0.0032806396484375C366.6789855957031 0.138824462890625 356.5889892578125 2.9335479736328125 344.3210144042969 6.2493438720703125L272.65301513671875 25.52825927734375L169.62600708007812 53.238861083984375C21.505294799804688 93.02825927734375 32.35260009765625 90.09146118164062 30.552597045898438 91.228271484375C24.007705688476562 95.33236694335938 20.860992431640625 101.94796752929688 20.860992431640625 108.39897155761719C20.860992431640625 116.09396362304688 25.339202880859375 123.55397033691406 33.868408203125 126.23397827148438Z" fill="black" /></g></svg>