<?xml version="1.0" encoding="utf-8" ?>
<svg baseProfile="tiny" height="100%" version="1.2" width="100%" xmlns="http://www.w3.org/2000/svg" xmlns:ev="http://www.w3.org/2001/xml-events" xmlns:xlink="http://www.w3.org/1999/xlink"><defs /><g transform="translate(0, 1000) scale(1, -1)"><path d="M102.4110107421875 268.24700927734375C103.51899719238281 268.7919921875 104.55099487304688 269.1189880371094 105.65299987792969 269.1189880371094C110.01199340820312 269.1189880371094 115.47200012207031 264.00299072265625 131.16299438476562 247.0260009765625C160.88299560546875 214.87399291992188 168.55299377441406 201.96400451660156 168.55299377441406 181.03799438476562C168.55299377441406 179.552001953125 168.51400756835938 178.02499389648438 168.44200134277344 176.44700622558594C167.44700622558594 153.4739990234375 156.64700317382812 133.62600708007812 130.35800170898438 106.34201049804688C112.78399658203125 88.10530090332031 97.29470825195312 67.31050109863281 91.37370300292969 53.952606201171875C90.18440246582031 51.26829528808594 89.59368896484375 48.364593505859375 89.59368896484375 45.26300048828125C89.59368896484375 35.39289855957031 95.5758056640625 23.517791748046875 107.28900146484375 10.3262939453125C111.74200439453125 5.3453521728515625 113.90499877929688 1.7538604736328125 113.90499877929688 -1.091552734375C113.90499877929688 -3.0897979736328125 112.83799743652344 -4.7200927734375 110.74700927734375 -6.20526123046875C109.25199890136719 -7.2712860107421875 107.9320068359375 -7.850982666015625 106.53298950195312 -7.850982666015625C103.7659912109375 -7.850982666015625 100.68499755859375 -5.584991455078125 95.3052978515625 -0.331573486328125C66.64739990234375 27.85260009765625 50.399993896484375 49.02630615234375 45.99470520019531 63.94740295410156C44.20179748535156 69.9910888671875 43.29339599609375 76.03050231933594 43.29339599609375 82.12539672851562C43.29339599609375 104.69200134277344 55.745697021484375 128.01800537109375 81.85260009765625 155.1320037841797C99.42630004882812 173.3679962158203 114.91600036621094 194.16299438476562 120.83700561523438 207.52099609375C122.03700256347656 210.2259979248047 122.63299560546875 213.13999938964844 122.63299560546875 216.2480010986328C122.63299560546875 226.14700317382812 116.58099365234375 238.02099609375 104.68399047851562 251.4320068359375C99.61279296875 257.1210021972656 98.56089782714844 258.5050048828125 98.56089782714844 260.9540100097656C98.56089782714844 261.3190002441406 98.58419799804688 261.7070007324219 98.62109375 262.1369934082031C98.85791015625 265.0740051269531 100.18399047851562 267.1579895019531 102.4110107421875 268.24700927734375Z" fill="black" /></g></svg>