<?xml version="1.0" encoding="utf-8" ?>
<svg baseProfile="tiny" height="100%" version="1.2" width="100%" xmlns="http://www.w3.org/2000/svg" xmlns:ev="http://www.w3.org/2001/xml-events" xmlns:xlink="http://www.w3.org/1999/xlink"><defs /><g transform="translate(0, 1000) scale(1, -1)"><path d="M108.4739990234375 467.8949890136719C113.197998046875 468.36199951171875 118.00299072265625 468.5920104980469 122.85600280761719 468.5920104980469C160.77000427246094 468.5920104980469 201.63499450683594 454.6059875488281 230.39999389648438 431.0889892578125C238.56300354003906 424.4309997558594 241.41400146484375 423.17401123046875 250.0260009765625 423.17401123046875L251.05299377441406 423.1789855957031C270.42601013183594 423.3210144042969 287.81101989746094 433.3630065917969 303.01600646972656 453.21099853515625C306.7000274658203 458.0140075683594 310.9340057373047 460.4739990234375 314.9400177001953 460.4739990234375C317.8870086669922 460.4739990234375 320.7110137939453 459.1419982910156 323.1000213623047 456.4320068359375C324.7840118408203 454.5119934082031 325.8040008544922 453.15301513671875 325.8040008544922 449.9909973144531C325.8040008544922 444.8819885253906 323.1430206298828 435.0669860839844 316.3260040283203 410.5790100097656C300.93202209472656 355.0159912109375 277.86302185058594 296.79998779296875 259.34202575683594 266.5790100097656C239.6370086669922 234.46299743652344 230.54202270507812 215.51600646972656 221.54202270507812 187.94700622558594C208.84701538085938 148.91600036621094 201.1260223388672 101.5469970703125 201.07901000976562 61.94740295410156C201.07901000976562 47.21580505371094 200.13201904296875 43.94740295410156 195.20501708984375 40.868408203125L192.88401794433594 39.44740295410156H133.34201049804688H73.80001831054688L71.47891235351562 40.868408203125C70.20002746582031 41.6737060546875 68.54212951660156 43.28419494628906 67.73683166503906 44.42109680175781L66.31584167480469 46.55259704589844L66.36323547363281 56.97369384765625C66.45794677734375 96.52630615234375 82.27894592285156 146.26300048828125 108.85304260253906 190.55299377441406C130.21604919433594 226.1739959716797 156.36305236816406 256.8680114746094 192.78904724121094 289.0790100097656C232.67404174804688 324.4159851074219 257.5890350341797 353.9259948730469 278.19505310058594 390.30499267578125L281.0370330810547 395.3739929199219L276.72605895996094 392.15301513671875C245.7720489501953 369.2969970703125 210.55604553222656 357.7770080566406 177.21005249023438 357.7770080566406C146.9750518798828 357.7770080566406 118.27705383300781 367.24700927734375 95.68424987792969 386.32598876953125C80.92964172363281 398.79901123046875 70.78314208984375 404.3429870605469 62.04144287109375 404.3429870605469C60.25904846191406 404.3429870605469 58.534942626953125 404.11199951171875 56.84214782714844 403.6629943847656C44.24214172363281 400.3949890136719 32.873748779296875 382.5369873046875 23.873748779296875 351.8420104980469C20.842147827148438 341.4679870605469 18.663253784179688 339.28900146484375 11.368438720703125 339.28900146484375C6.2526702880859375 339.28900146484375 3.8842620849609375 340.52099609375 1.4210968017578125 344.4530029296875L4.57763671875e-05 346.77398681640625V399.6839904785156V452.5950012207031L1.4210968017578125 454.9159851074219C3.5591278076171875 458.36199951171875 7.9758758544921875 460.4110107421875 12.021148681640625 460.4110107421875C13.98065185546875 460.4110107421875 15.852951049804688 459.92999267578125 17.336837768554688 458.8949890136719C27.331649780273438 451.8840026855469 29.27374267578125 451.1260070800781 36.94744873046875 451.1260070800781C44.384246826171875 451.1260070800781 59.30534362792969 454.9630126953125 71.52635192871094 460.0320129394531C73.08955383300781 460.69500732421875 75.88424682617188 461.5469970703125 77.68424987792969 461.9259948730469C79.53164672851562 462.3529968261719 83.46324157714844 463.29998779296875 86.44744873046875 464.1050109863281C92.22634887695312 465.5740051269531 101.46304321289062 467.1839904785156 108.47404479980469 467.8949890136719ZM162.90203857421875 -0.1732177734375H163.90203857421875H161.90203857421875ZM162.9020538330078 485.8269958496094H163.9020538330078H161.9020538330078Z" fill="black" /></g></svg>