<?xml version="1.0" encoding="utf-8" ?>
<svg baseProfile="tiny" height="100%" version="1.2" width="100%" xmlns="http://www.w3.org/2000/svg" xmlns:ev="http://www.w3.org/2001/xml-events" xmlns:xlink="http://www.w3.org/1999/xlink"><defs /><g transform="translate(0, 1000) scale(1, -1)"><path d="M188.74600219726562 467.3739929199219C191.36000061035156 467.6659851074219 196.33900451660156 467.7969970703125 202.0399932861328 467.7969970703125C212.9739990234375 467.7969970703125 226.56500244140625 467.3160095214844 231.23500061035156 466.5679931640625C275.90301513671875 459.510986328125 322.5610046386719 428.67401123046875 331.5140075683594 400.25299072265625C333.43499755859375 394.1549987792969 334.322998046875 388.1809997558594 334.322998046875 382.43499755859375C334.322998046875 350.2130126953125 306.4150085449219 325.1199951171875 276.3070068359375 325.1199951171875C264.65301513671875 325.1199951171875 252.66799926757812 328.8800048828125 241.8459930419922 337.4419860839844C228.24200439453125 348.197998046875 221.92300415039062 363.97900390625 221.92300415039062 379.62701416015625C221.92300415039062 402.50201416015625 235.427001953125 425.09100341796875 259.41900634765625 431.27899169921875C261.4150085449219 431.802001953125 262.40899658203125 432.0740051269531 262.40899658203125 432.43701171875C262.40899658203125 432.7969970703125 261.427001953125 433.24700927734375 259.4670104980469 434.1210021972656C243.6320037841797 441.1730041503906 227.65499877929688 444.62701416015625 212.6959991455078 444.62701416015625C189.9759979248047 444.62701416015625 169.6020050048828 436.6610107421875 155.63499450683594 421.23699951171875C139.86099243164062 403.8529968261719 128.4459991455078 366.9530029296875 121.718994140625 312.0530090332031C120.2659912109375 299.9129943847656 118.2340087890625 275.8940124511719 118.2340087890625 270.97198486328125C118.2340087890625 270.4389953613281 118.25799560546875 270.1300048828125 118.30899047851562 270.0840148925781C118.31100463867188 270.0799865722656 118.3179931640625 270.0780029296875 118.33000183105469 270.0780029296875C118.59600830078125 270.0780029296875 121.19999694824219 271.0429992675781 124.32499694824219 272.3110046386719C147.16799926757812 281.40899658203125 168.66700744628906 285.989013671875 190.09300231933594 285.989013671875C216.072998046875 285.989013671875 241.9459991455078 279.2560119628906 269.98199462890625 265.6789855957031C321.9880065917969 240.5030059814453 349.1709899902344 204.5760040283203 349.1709899902344 161.6750030517578C349.1709899902344 155.41900634765625 348.5929870605469 149.01499938964844 347.42999267578125 142.4739990234375C340.41900634765625 102.92098999023438 308.6820068359375 69.43161010742188 257.42999267578125 47.594696044921875C233.08999633789062 37.21549987792969 212.0019989013672 31.999496459960938 191.47300720214844 31.999496459960938C169.3730010986328 31.999496459960938 147.9199981689453 38.04429626464844 123.75599670410156 50.19999694824219C59.71400451660156 82.41049194335938 15.093002319335938 141.47900390625 3.535064697265625 209.5C1.1624603271484375 223.43299865722656 0.0 237.80099487304688 0.0 252.07899475097656C0.0 282.55499267578125 5.29608154296875 312.6260070800781 15.42449951171875 337.2049865722656C43.75090026855469 406.17401123046875 114.42500305175781 459.22601318359375 188.74600219726562 467.3739929199219ZM198.45599365234375 262.26800537109375C195.3159942626953 262.7080078125 192.2259979248047 262.9219970703125 189.2220001220703 262.9219970703125C174.7310028076172 262.9219970703125 162.21800231933594 257.9360046386719 155.58799743652344 249.14700317382812C144.77099609375 234.7899932861328 137.0570068359375 196.8179931640625 137.0570068359375 163.2209930419922C137.0570068359375 156.35899353027344 137.37899780273438 149.6790008544922 138.06100463867188 143.42100524902344C141.70899963378906 109.88400268554688 149.09800720214844 81.27369689941406 157.00900268554688 69.71578979492188C163.322998046875 60.55670166015625 175.76199340820312 55.27789306640625 189.86700439453125 55.27789306640625C192.9040069580078 55.27789306640625 196.0189971923828 55.522705078125 199.16700744628906 56.02630615234375C220.24600219726562 59.48419189453125 228.91400146484375 72.65260314941406 236.77699279785156 113.34201049804688C240.46800231933594 132.44400024414062 242.3159942626953 149.13600158691406 242.3159942626953 165.40499877929688C242.3159942626953 182.33900451660156 240.31399536132812 198.8159942626953 236.30299377441406 217.07899475097656C229.52999877929688 247.8679962158203 219.96099853515625 259.28399658203125 198.45599365234375 262.26800537109375ZM174.58599853515625 -0.1732177734375H175.58599853515625H173.58599853515625ZM174.58599853515625 485.8269958496094H175.58599853515625H173.58599853515625Z" fill="black" /></g></svg>