<?xml version="1.0" encoding="utf-8" ?>
<svg baseProfile="tiny" height="100%" version="1.2" width="100%" xmlns="http://www.w3.org/2000/svg" xmlns:ev="http://www.w3.org/2001/xml-events" xmlns:xlink="http://www.w3.org/1999/xlink"><defs /><g transform="translate(0, 1000) scale(1, -1)"><path d="M128.93899536132812 467.56298828125C130.9250030517578 467.75799560546875 135.75399780273438 467.84698486328125 141.37600708007812 467.84698486328125C150.7689971923828 467.84698486328125 162.3769989013672 467.5989990234375 166.6439971923828 467.1839904785156C233.86000061035156 460.78900146484375 286.1549987792969 424.6470031738281 296.7179870605469 377.32598876953125C297.531005859375 373.64599609375 297.9339904785156 368.4590148925781 297.9339904785156 363.385986328125C297.9339904785156 357.8160095214844 297.447998046875 352.385009765625 296.4809875488281 349.23699951171875C286.2489929199219 315.9840087890625 246.3179931640625 284.9110107421875 194.21200561523438 269.6109924316406C191.7729949951172 268.9330139160156 189.93600463867188 268.2120056152344 189.93600463867188 267.98199462890625C189.93600463867188 267.97100830078125 189.9409942626953 267.96099853515625 189.94900512695312 267.9530029296875C190.13900756835938 267.8110046386719 192.3179931640625 266.9580078125 194.781005859375 266.1050109863281C264.5769958496094 241.87399291992188 301.7959899902344 193.71499633789062 301.7959899902344 146.74099731445312C301.7959899902344 110.79499816894531 280.0010070800781 75.5430908203125 234.33299255371094 52.23680114746094C207.38299560546875 38.48089599609375 177.41600036621094 31.820892333984375 147.60000610351562 31.820892333984375C99.38710021972656 31.820892333984375 51.56739807128906 49.235504150390625 17.5281982421875 82.22109985351562C5.4773406982421875 93.90020751953125 0.0870819091796875 108.44100952148438 0.0870819091796875 122.72200012207031C0.0870819091796875 152.0959930419922 22.892898559570312 180.3679962158203 57.44879150390625 180.3679962158203H57.50718688964844C92.53529357910156 180.3410186767578 112.50398254394531 153.2160186767578 112.50398254394531 125.78001403808594C112.50398254394531 105.24301147460938 101.31599426269531 84.53120422363281 76.88087463378906 74.87892150878906C76.69639587402344 74.80691528320312 76.60838317871094 74.72261047363281 76.60838317871094 74.62760925292969C76.60838317871094 73.16191101074219 97.58207702636719 69.16300964355469 108.56999206542969 68.67372131347656C110.11698913574219 68.60520935058594 111.64997863769531 68.57142639160156 113.16899108886719 68.57142639160156C161.42698669433594 68.57142639160156 195.36898803710938 102.78001403808594 195.36898803710938 149.4190216064453C195.36898803710938 154.1370086669922 195.02198791503906 158.9820098876953 194.30699157714844 163.93202209472656C186.77598571777344 216.17901611328125 150.82298278808594 255.1630096435547 108.56999206542969 256.91600036621094C98.33879089355469 257.38902282714844 93.41238403320312 261.2740020751953 93.41238403320312 268.94700622558594C93.45979309082031 276.7630157470703 97.86508178710938 280.31602478027344 108.33299255371094 280.83702087402344C144.52297973632812 282.7320098876953 175.64398193359375 306.79502868652344 187.864990234375 342.32102966308594C190.22097778320312 349.1380157470703 191.33998107910156 356.00901794433594 191.33998107910156 362.74400329589844C191.33998107910156 392.83702087402344 168.9989776611328 420.2050018310547 134.8599853515625 427.86802673339844C129.72598266601562 429.03001403808594 122.7559814453125 429.59901428222656 115.11997985839844 429.59901428222656C105.63499450683594 429.59901428222656 95.12348937988281 428.7220001220703 85.83348083496094 427.01600646972656L82.75447082519531 426.44700622558594L85.92817687988281 424.6470184326172C104.1309814453125 414.4550018310547 112.58998107910156 396.7620086669922 112.58998107910156 378.9660186767578C112.58998107910156 354.66502380371094 96.8173828125 330.1730194091797 68.54399108886719 324.32102966308594C64.56779479980469 323.4980010986328 60.678985595703125 323.10902404785156 56.90217590332031 323.10902404785156C24.2681884765625 323.10902404785156 -1.52587890625e-05 352.18800354003906 -1.52587890625e-05 382.06101989746094C-1.52587890625e-05 395.1060028076172 4.6276397705078125 408.30201721191406 15.207183837890625 419.29502868652344C41.16508483886719 446.2000274658203 80.33879089355469 462.8260040283203 128.93898010253906 467.56300354003906ZM150.89797973632812 -0.1732025146484375H151.89797973632812H149.89797973632812ZM150.89796447753906 485.82701110839844H151.89796447753906H149.89796447753906Z" fill="black" /></g></svg>