<?xml version="1.0" encoding="utf-8" ?>
<svg baseProfile="tiny" height="100%" version="1.2" width="100%" xmlns="http://www.w3.org/2000/svg" xmlns:ev="http://www.w3.org/2001/xml-events" xmlns:xlink="http://www.w3.org/1999/xlink"><defs /><g transform="translate(0, 1000) scale(1, -1)"><path d="M213.98399353027344 393.10198974609375C215.8359832763672 393.822998046875 217.77398681640625 394.1629943847656 219.69097900390625 394.1629943847656C225.9639892578125 394.1629943847656 232.02198791503906 390.53399658203125 234.16297912597656 384.7659912109375C235.1099853515625 382.2550048828125 235.1099853515625 381.4020080566406 235.1099853515625 309.5920104980469V236.9759979248047L246.61997985839844 236.69200134277344C303.65199279785156 235.36598205566406 357.03599548339844 206.89698791503906 387.8259735107422 161.37599182128906C395.6899871826172 149.74798583984375 399.23899841308594 137.02098083496094 399.23899841308594 124.54098510742188C399.23899841308594 88.7725830078125 370.08799743652344 55.035186767578125 329.82997131347656 55.035186767578125C328.9719696044922 55.035186767578125 328.10899353027344 55.05049133300781 327.24098205566406 55.081390380859375C290.2019805908203 56.43028259277344 264.0489959716797 86.39768981933594 264.0489959716797 119.30897521972656C264.0489959716797 129.1599884033203 266.3929901123047 139.2749786376953 271.48899841308594 148.9659881591797C281.90098571777344 168.7329864501953 303.5249786376953 181.37599182128906 324.9929962158203 181.37599182128906C328.52699279785156 181.37599182128906 332.0559844970703 181.03298950195312 335.53099060058594 180.32398986816406C337.0439910888672 180.01197814941406 338.06398010253906 179.79698181152344 338.5489959716797 179.79698181152344C338.7639923095703 179.79698181152344 338.8739776611328 179.8389892578125 338.8739776611328 179.93399047851562C338.8739776611328 180.2749786376953 337.46897888183594 181.2889862060547 334.48899841308594 183.44998168945312C308.3889923095703 202.4449920654297 278.16798400878906 212.77098083496094 246.3839874267578 213.48098754882812L235.1099853515625 213.7659912109375V3.82879638671875V-206.10801696777344L236.67298889160156 -205.8710174560547C237.4779815673828 -205.72901916503906 239.70498657226562 -205.4920196533203 241.50498962402344 -205.3500213623047C312.65199279785156 -199.00302124023438 373.8049774169922 -142.30300903320312 385.74098205566406 -71.53440856933594C387.63597106933594 -60.21331787109375 390.4309844970703 -56.85011291503906 398.05699157714844 -56.85011291503906C405.51698303222656 -56.85011291503906 409.12098693847656 -60.47581481933594 409.12098693847656 -69.34062194824219C409.12098693847656 -75.50502014160156 407.3779754638672 -84.20271301269531 403.9779815673828 -95.97651672363281C383.4199981689453 -167.02902221679688 319.8049774169922 -220.27101135253906 246.24098205566406 -228.08702087402344C242.3569793701172 -228.5130157470703 238.23597717285156 -228.9400177001953 237.14698791503906 -229.08201599121094L235.1099853515625 -229.3190155029297V-305.77101135253906C235.11000061035156 -319.11000061035156 235.1199951171875 -330.22300720214844 235.1199951171875 -339.4960174560547C235.1199951171875 -391.01502990722656 234.81399536132812 -385.7480010986328 230.7989959716797 -389.8030242919922C227.81300354003906 -392.77101135253906 223.88900756835938 -394.1630096435547 219.9980010986328 -394.1630096435547C213.95399475097656 -394.1630096435547 207.98899841308594 -390.8050079345703 205.74099731445312 -384.7820281982422C204.79400634765625 -382.27101135253906 204.79400634765625 -381.4660186767578 204.79400634765625 -305.58201599121094V-228.8920135498047L201.85699462890625 -228.56101989746094C113.0889892578125 -219.08702087402344 38.00990295410156 -156.18202209472656 10.915206909179688 -68.69221496582031C3.5419921875 -44.88880920410156 0.0 -20.888412475585938 0.0 2.6490631103515625C0.0 91.01048278808594 49.91749572753906 172.84799194335938 134.45199584960938 213.24497985839844C155.67300415039062 223.3809814453125 183.28900146484375 231.95498657226562 202.093994140625 234.22898864746094L204.79400634765625 234.5599822998047V308.40797424316406C204.79400634765625 381.40199279785156 204.79400634765625 382.25498962402344 205.74099731445312 384.76597595214844C207.02000427246094 388.1289825439453 210.66799926757812 391.82398986816406 213.98399353027344 393.1019744873047ZM204.79400634765625 2.5972137451171875C204.79400634765625 116.84999084472656 204.65199279785156 210.3079833984375 204.46299743652344 210.3079833984375C204.2259979248047 210.25997924804688 201.33599853515625 209.54998779296875 197.92599487304688 208.69699096679688C132.2729949951172 191.8809814453125 106.69400024414062 133.85498046875 106.69400024414062 1.7919464111328125C106.74099731445312 -143.4400177001953 129.80999755859375 -192.8920135498047 203.2779998779297 -204.92401123046875L204.79400634765625 -205.1610107421875Z" fill="black" /></g></svg>