<?xml version="1.0" encoding="utf-8" ?>
<svg baseProfile="tiny" height="100%" version="1.2" width="100%" xmlns="http://www.w3.org/2000/svg" xmlns:ev="http://www.w3.org/2001/xml-events" xmlns:xlink="http://www.w3.org/1999/xlink"><defs /><g transform="translate(0, 1000) scale(1, -1)"><path d="M145.6580047607422 467.4209899902344C148.11097717285156 467.6440124511719 153.28598022460938 467.7439880371094 159.31298828125 467.7439880371094C171.20498657226562 467.7439880371094 186.41297912597656 467.3550109863281 190.56298828125 466.75799560546875C245.84197998046875 459.1789855957031 289.08897399902344 432.70001220703125 308.55799865722656 394.4739990234375C315.0509796142578 381.75799560546875 318.17799377441406 367.7919921875 318.17799377441406 353.35101318359375C318.17799377441406 317.1159973144531 298.4919891357422 277.8900146484375 262.8949737548828 247.91600036621094C237.97898864746094 226.9320068359375 212.2109832763672 213.47900390625 173.13198852539062 201.21099853515625C122.92097473144531 185.38900756835938 79.81578063964844 157.7259979248047 51.91578674316406 123.33700561523438C51.646881103515625 123.00900268554688 51.5048828125 122.80300903320312 51.5048828125 122.72698974609375C51.5048828125 122.70500183105469 51.51698303222656 122.6929931640625 51.54148864746094 122.6929931640625C51.77348327636719 122.6929931640625 53.119781494140625 123.70098876953125 55.894683837890625 125.89498901367188C83.60528564453125 147.8260040283203 120.59999084472656 160.94700622558594 154.84698486328125 160.94700622558594C182.69998168945312 160.94700622558594 202.2159881591797 155.87899780273438 228.7889862060547 141.81100463867188C244.8319854736328 133.3000030517578 259.50099182128906 129.14700317382812 273.9309844970703 129.14700317382812C279.73997497558594 129.14700317382812 285.51097106933594 129.82000732421875 291.3159942626953 131.1529998779297C301.54698181152344 133.52099609375 311.9209747314453 140.2949981689453 315.2369842529297 146.78399658203125C317.5189971923828 151.25100708007812 321.6809844970703 153.2760009765625 325.7939910888672 153.2760009765625C331.6689910888672 153.2760009765625 337.44398498535156 149.1439971923828 337.49998474121094 142.09500122070312C337.49998474121094 137.83200073242188 330.7739715576172 119.68899536132812 324.7109832763672 107.65798950195312C301.5089874267578 61.65289306640625 260.7989959716797 32.576202392578125 220.72698974609375 32.576202392578125C217.9309844970703 32.576202392578125 215.13697814941406 32.7178955078125 212.3529815673828 33.00529479980469C202.8319854736328 33.952606201171875 197.52598571777344 36.131591796875 184.2629852294922 44.610504150390625C156.53797912597656 62.34120178222656 121.83097839355469 72.11209106445312 90.84349060058594 72.11209106445312C77.62408447265625 72.11209106445312 65.081787109375 70.33389282226562 54.04737854003906 66.63681030273438C39.31578063964844 61.757904052734375 25.342086791992188 52.8052978515625 21.884185791015625 46.07890319824219C19.565185546875 41.514892578125 15.537277221679688 39.19940185546875 11.439987182617188 39.19940185546875C7.6702423095703125 39.19940185546875 3.841827392578125 41.159393310546875 1.2315673828125 45.131591796875L-1.52587890625e-05 47.02629089355469V57.92109680175781C-1.52587890625e-05 66.58949279785156 0.189453125 69.52629089355469 0.8052520751953125 72.36839294433594C1.2789306640625 74.31048583984375 2.2263031005859375 78.71577453613281 2.8894500732421875 82.07888793945312C15.063186645507812 142.7579803466797 60.394683837890625 196.8529815673828 121.73698425292969 223.94699096679688C171.7109832763672 246.06797790527344 204.06298828125 287.9419708251953 210.7889862060547 339.3369903564453C211.3409881591797 343.53599548339844 211.60897827148438 347.6439971923828 211.60897827148438 351.6499786376953C211.60897827148438 397.38197326660156 176.57398986816406 429.6709747314453 126.74798583984375 429.6709747314453C122.79899597167969 429.6709747314453 118.75698852539062 429.4679718017578 114.63198852539062 429.05299377441406C107.69499206542969 428.34999084472656 105.17399597167969 428.0809783935547 105.17399597167969 427.4309844970703C105.17399597167969 427.07398986816406 105.93698120117188 426.6019744873047 107.14698791503906 425.8789825439453C124.37397766113281 415.5039825439453 132.62498474121094 397.9819793701172 132.62498474121094 380.4049835205078C132.62498474121094 358.9779815673828 120.36398315429688 337.46998596191406 97.152587890625 328.7259979248047C90.50587463378906 326.21998596191406 83.84837341308594 325.0649871826172 77.38337707519531 325.0649871826172C46.53009033203125 325.0649871826172 20.059890747070312 351.38099670410156 20.059890747070312 382.8259735107422C20.059890747070312 388.5089874267578 20.924591064453125 394.35997009277344 22.7841796875 400.2529754638672C33.20527648925781 433.2679901123047 85.49998474121094 461.8789825439453 145.65798950195312 467.4209747314453ZM168.74998474121094 -0.1732330322265625H169.74998474121094H167.74998474121094ZM168.74998474121094 485.8269805908203H169.74998474121094H167.74998474121094Z" fill="black" /></g></svg>