<?xml version="1.0" encoding="utf-8" ?>
<svg baseProfile="tiny" height="100%" version="1.2" width="100%" xmlns="http://www.w3.org/2000/svg" xmlns:ev="http://www.w3.org/2001/xml-events" xmlns:xlink="http://www.w3.org/1999/xlink"><defs /><g transform="translate(0, 1000) scale(1, -1)"><path d="M85.76319885253906 249.6790008544922C86.70211791992188 249.98597717285156 122.03102111816406 250.12197875976562 163.8930206298828 250.12197875976562C225.50901794433594 250.12197875976562 301.2790069580078 249.8269805908203 302.37901306152344 249.34698486328125C306.91102600097656 247.4609832763672 309.43601989746094 242.79798889160156 309.43601989746094 238.260986328125C309.43601989746094 235.16297912597656 308.26002502441406 232.12498474121094 305.7420196533203 230.06797790527344C292.90501403808594 219.552978515625 132.4210205078125 86.82627868652344 131.7580108642578 86.21049499511719C131.5460205078125 86.00999450683594 131.39501953125 85.85408020019531 131.39501953125 85.73649597167969C131.39501953125 85.52598571777344 131.88002014160156 85.43838500976562 133.37200927734375 85.43838500976562C134.59201049804688 85.43838500976562 136.48501586914062 85.49699401855469 139.33702087402344 85.59468078613281C140.30300903320312 85.62338256835938 141.2580108642578 85.63768005371094 142.20401000976562 85.63768005371094C158.46900939941406 85.63768005371094 171.7980194091797 81.40019226074219 182.63201904296875 72.80528259277344C196.416015625 61.91047668457031 206.88401794433594 56.84208679199219 218.82101440429688 55.42108154296875C220.2370147705078 55.25408935546875 221.5080108642578 55.15937805175781 222.6690216064453 55.15937805175781C229.08401489257812 55.15937805175781 232.14601135253906 58.04878234863281 237.72100830078125 67.59468078613281C237.75502014160156 67.64949035644531 237.77301025390625 67.69538879394531 237.77301025390625 67.73237609863281C237.77301025390625 67.80897521972656 237.69801330566406 67.84738159179688 237.5430145263672 67.84738159179688C237.25601196289062 67.84738159179688 236.6950225830078 67.71577453613281 235.82601928710938 67.45259094238281C234.0010223388672 66.89788818359375 232.05902099609375 66.63557434082031 230.07501220703125 66.63557434082031C221.55401611328125 66.63557434082031 212.24700927734375 71.47358703613281 208.02101135253906 78.773681640625C205.3330078125 83.37199401855469 204.10401916503906 88.19418334960938 204.10401916503906 92.87889099121094C204.10401916503906 108.05398559570312 217.00502014160156 121.7869873046875 235.02301025390625 121.7869873046875C235.1640167236328 121.7869873046875 235.30601501464844 121.78599548339844 235.447021484375 121.78398132324219C255.21202087402344 121.57698059082031 266.41200256347656 107.93199157714844 266.41200256347656 86.99348449707031C266.41200256347656 79.17869567871094 264.8520050048828 70.34797668457031 261.5950164794922 60.82109069824219C257.47401428222656 48.69468688964844 250.65301513671875 41.16319274902344 229.2890167236328 25.10528564453125C209.489013671875 10.211685180664062 186.6470184326172 2.2202301025390625 165.53302001953125 2.2202301025390625C157.90602111816406 2.2202301025390625 150.50401306152344 3.263031005859375 143.55300903320312 5.3999786376953125C135.54701232910156 7.8631439208984375 131.7580108642578 9.66314697265625 124.60502624511719 14.4473876953125C111.69001770019531 23.094879150390625 96.05271911621094 27.362289428710938 81.48820495605469 27.362289428710938C65.49720764160156 27.362289428710938 50.80010986328125 22.217987060546875 42.421112060546875 12.078887939453125C40.7423095703125 10.046676635742188 38.1273193359375 9.115463256835938 35.35591125488281 9.115463256835938C30.698516845703125 9.115463256835938 25.59912109375 11.7454833984375 23.757919311523438 16.199981689453125C23.139816284179688 17.676483154296875 22.797119140625 19.092178344726562 22.797119140625 20.531890869140625C22.797119140625 27.03668212890625 29.793319702148438 34.02947998046875 50.00001525878906 49.31048583984375C54.73681640625 52.91047668457031 207.97401428222656 179.2889862060547 210.57901000976562 181.75299072265625C210.5830078125 181.75698852539062 210.58502197265625 181.760986328125 210.58502197265625 181.76498413085938C210.58502197265625 182.13697814941406 192.26101684570312 182.30198669433594 170.593017578125 182.30198669433594C140.71002197265625 182.30198669433594 104.46501159667969 181.9879913330078 101.15800476074219 181.46798706054688C90.50001525878906 179.7159881591797 81.16841125488281 174.8839874267578 69.46841430664062 164.93698120117188C65.42581176757812 161.49598693847656 61.71311950683594 159.77798461914062 58.39271545410156 159.77798461914062C55.176910400390625 159.77798461914062 52.329010009765625 161.3889923095703 49.90531921386719 164.60498046875C48.53330993652344 166.42898559570312 47.587310791015625 167.57598876953125 47.587310791015625 169.74998474121094C47.587310791015625 174.1799774169922 51.517913818359375 182.87599182128906 63.784210205078125 210.2679901123047C80.50532531738281 247.59498596191406 80.74211120605469 248.06797790527344 85.76321411132812 249.67898559570312Z" fill="black" /></g></svg>