<?xml version="1.0" encoding="utf-8" ?>
<svg baseProfile="tiny" height="100%" version="1.2" width="100%" xmlns="http://www.w3.org/2000/svg" xmlns:ev="http://www.w3.org/2001/xml-events" xmlns:xlink="http://www.w3.org/1999/xlink"><defs /><g transform="translate(0, 1000) scale(1, -1)"><path d="M174.07899475097656 467.6109924316406C175.51101684570312 467.7699890136719 178.385009765625 467.8399963378906 181.96202087402344 467.8399963378906C192.23001098632812 467.8399963378906 208.2930145263672 467.2590026855469 212.68402099609375 466.52099609375C268.5790252685547 457.3320007324219 315.42601013183594 423.9840087890625 347.96800231933594 370.22100830078125C369.2840118408203 335.0260009765625 378.47401428222656 298.74200439453125 378.47401428222656 250.0C378.47401428222656 196.42599487304688 367.34202575683594 157.53700256347656 340.7210235595703 118.4580078125C301.54701232910156 60.85789489746094 245.3920135498047 32.057891845703125 189.2370147705078 32.057891845703125C133.08201599121094 32.057891845703125 76.92631530761719 60.85789489746094 37.75260925292969 118.4580078125C11.131622314453125 157.53700256347656 1.52587890625e-05 196.42599487304688 1.52587890625e-05 250.0C1.52587890625e-05 298.74200439453125 9.189483642578125 335.0260009765625 30.50531005859375 370.22100830078125C64.75260925292969 426.77899169921875 114.58401489257812 460.6000061035156 174.07901000976562 467.6109924316406ZM204.53701782226562 443.5469970703125C201.2990264892578 444.1449890136719 192.9280242919922 444.5329895019531 186.26502990722656 444.5329895019531C182.8890380859375 444.5329895019531 179.95103454589844 444.4339904785156 178.34202575683594 444.21099853515625C142.2000274658203 439.1889953613281 133.34202575683594 425.4049987792969 125.05303955078125 360.8420104980469C120.19903564453125 322.97198486328125 117.79103088378906 287.6759948730469 117.79103088378906 251.7899932861328C117.79103088378906 222.18699645996094 119.43002319335938 192.1820068359375 122.68402099609375 160.0C128.79502868652344 100.22100830078125 135.04702758789062 77.76840209960938 148.64202880859375 66.92109680175781C158.35302734375 59.176300048828125 173.79502868652344 55.30389404296875 189.23703002929688 55.30389404296875C204.6790313720703 55.30389404296875 220.12103271484375 59.176300048828125 229.83203125 66.92109680175781C242.14703369140625 76.72630310058594 247.50003051757812 93.1632080078125 253.42103576660156 139.1580047607422C258.2750244140625 177.0540008544922 260.6820373535156 212.33399963378906 260.6820373535156 248.20700073242188C260.6820373535156 277.79998779296875 259.0440368652344 307.7959899902344 255.78903198242188 340.0C247.59503173828125 420.3370056152344 239.35302734375 437.0580139160156 204.5370330810547 443.5469970703125ZM189.23703002929688 -0.1732177734375H190.23703002929688H188.23703002929688ZM189.23703002929688 485.8269958496094H190.23703002929688H188.23703002929688Z" fill="black" /></g></svg>