<svg xmlns="http://www.w3.org/2000/svg" xmlns:xlink="http://www.w3.org/1999/xlink" version="1.2" width="210.00mm" height="297.00mm" viewBox="0.0000 -0.0000 119.5016 169.0094">
<style type="text/css">
<![CDATA[
tspan { white-space: pre; }
]]>
</style>
<g transform="translate(14.2264, 9.6243)">
<line stroke-linejoin="round" stroke-linecap="round" stroke-width="0.1000" stroke="currentColor" x1="0.0500" y1="0" x2="23.0806" y2="0"/>
</g>
<g transform="translate(14.2264, 8.6243)">
<line stroke-linejoin="round" stroke-linecap="round" stroke-width="0.1000" stroke="currentColor" x1="0.0500" y1="0" x2="23.0806" y2="0"/>
</g>
<g transform="translate(14.2264, 7.6243)">
<line stroke-linejoin="round" stroke-linecap="round" stroke-width="0.1000" stroke="currentColor" x1="0.0500" y1="0" x2="23.0806" y2="0"/>
</g>
<g transform="translate(14.2264, 6.6243)">
<line stroke-linejoin="round" stroke-linecap="round" stroke-width="0.1000" stroke="currentColor" x1="0.0500" y1="0" x2="23.0806" y2="0"/>
</g>
<g transform="translate(14.2264, 5.6243)">
<line stroke-linejoin="round" stroke-linecap="round" stroke-width="0.1000" stroke="currentColor" x1="0.0500" y1="0" x2="23.0806" y2="0"/>
</g>
<g transform="translate(5.6906, 10.6243)">
<rect x="16.6779" y="-0.1000" width="1.9563" height="0.2000" ry="0.1000" fill="currentColor"/>
</g>
<g transform="translate(31.9380, 7.6243)">
<rect x="0.0000" y="-2.0000" width="0.1900" height="4.0000" ry="0.0000" fill="currentColor"/>
</g>
<g transform="translate(36.7570, 7.6243)">
<rect x="0.0000" y="-2.0000" width="0.6000" height="4.0000" ry="0.0000" fill="currentColor"/>
</g>
<g transform="translate(36.2670, 7.6243)">
<rect x="0.0000" y="-2.0000" width="0.1900" height="4.0000" ry="0.0000" fill="currentColor"/>
</g>
<g transform="translate(34.2672, 7.6243)">
<rect x="-0.0650" y="-2.0000" width="0.1300" height="3.3139" ry="0.0400" fill="currentColor"/>
</g>
<g transform="translate(33.0280, 9.1243)">
<path transform="scale(0.0040, -0.0040)" d="M218 136c55 0 108 -28 108 -89c0 -71 -55 -121 -102 -149c-35 -21 -75 -34 -116 -34c-55 0 -108 28 -108 89c0 71 55 121 102 149c35 21 75 34 116 34z" fill="currentColor"/>
</g>
<g transform="translate(22.6945, 10.6243)">
<path transform="scale(0.0040, -0.0040)" d="M218 136c55 0 108 -28 108 -89c0 -71 -55 -121 -102 -149c-35 -21 -75 -34 -116 -34c-55 0 -108 28 -108 89c0 71 55 121 102 149c35 21 75 34 116 34z" fill="currentColor"/>
</g>
<g transform="translate(15.0264, 8.6243)">
<path transform="scale(0.0040, -0.0040)" d="M266 -635h-6c-108 0 -195 88 -195 197c0 58 53 103 112 103c54 0 95 -47 95 -103c0 -52 -43 -95 -95 -95c-11 0 -21 2 -31 6c26 -39 68 -65 117 -65h4zM461 -203c68 24 113 95 113 164c0 90 -66 179 -173 190c24 -116 46 -231 60 -354zM74 28c0 -135 129 -247 264 -247
c28 0 55 2 82 6c-14 127 -37 245 -63 364c-79 -8 -124 -61 -124 -119c0 -44 25 -91 81 -123c5 -5 7 -10 7 -15c0 -11 -10 -22 -22 -22c-3 0 -6 1 -9 2c-80 43 -117 115 -117 185c0 88 58 174 160 197c-14 58 -29 117 -46 175c-107 -121 -213 -243 -213 -403zM335 -262
c-188 0 -333 172 -333 374c0 177 131 306 248 441c-19 62 -37 125 -45 190c-6 52 -7 104 -7 156c0 115 55 224 149 292c6 5 14 5 20 0c71 -84 133 -245 133 -358c0 -143 -86 -255 -180 -364c21 -68 39 -138 56 -207c4 0 9 1 13 1c155 0 256 -128 256 -261
c0 -76 -33 -154 -107 -210c-22 -17 -47 -28 -73 -36c3 -35 5 -70 5 -105c0 -19 -1 -39 -2 -58c-7 -119 -88 -225 -202 -228l1 43c93 2 153 92 159 191c1 18 2 37 2 55c0 31 -1 61 -4 92c-29 -5 -58 -8 -89 -8zM428 916c0 55 -4 79 -20 129c-99 -48 -162 -149 -162 -259
c0 -74 18 -133 36 -194c80 97 146 198 146 324z" fill="currentColor"/>
</g>
<g transform="translate(19.2776, 7.6243)">
<path transform="scale(0.0040, -0.0040)" d="M170 259c-51 0 -53 -43 -53 -100v-18v-18c0 -57 2 -100 53 -100c57 0 61 51 61 118s-4 118 -61 118zM117 266c15 10 33 16 53 16c101 0 170 -46 170 -141s-69 -141 -170 -141c-112 0 -170 124 -170 250c0 128 72 250 190 250c70 0 136 -39 136 -103
c0 -36 -29 -66 -65 -66s-66 30 -66 66c0 24 40 25 40 49c0 20 -23 31 -45 31c-66 0 -75 -65 -75 -139c0 -24 2 -48 2 -72z" fill="currentColor"/>
</g>
<g transform="translate(19.2264, 9.6243)">
<path transform="scale(0.0040, -0.0040)" d="M261 287c25 30 44 64 44 103c0 54 -55 87 -114 87c-46 0 -73 -36 -73 -71c0 -21 10 -42 31 -54zM292 269c54 -31 80 -79 80 -125c0 -73 -66 -144 -189 -144c-94 0 -183 54 -183 140c0 50 36 87 72 123c-37 28 -55 66 -55 103c0 68 60 134 174 134c80 0 157 -39 157 -110
c0 -46 -25 -86 -56 -121zM103 244c-31 -30 -59 -61 -59 -104c0 -69 66 -117 139 -117c54 0 86 42 86 83c0 24 -10 48 -35 62z" fill="currentColor"/>
</g>
<g transform="translate(23.9338, 7.6243)">
<rect x="-0.0650" y="-0.5000" width="0.1300" height="3.3139" ry="0.0400" fill="currentColor"/>
</g>
<g transform="translate(29.9383, 7.6243)">
<rect x="-0.0650" y="-1.5000" width="0.1300" height="3.3139" ry="0.0400" fill="currentColor"/>
</g>
<g transform="translate(28.6991, 9.6243)">
<path transform="scale(0.0040, -0.0040)" d="M218 136c55 0 108 -28 108 -89c0 -71 -55 -121 -102 -149c-35 -21 -75 -34 -116 -34c-55 0 -108 28 -108 89c0 71 55 121 102 149c35 21 75 34 116 34z" fill="currentColor"/>
</g>
<g transform="translate(26.9360, 7.6243)">
<rect x="-0.0650" y="-1.0000" width="0.1300" height="3.3139" ry="0.0400" fill="currentColor"/>
</g>
<g transform="translate(25.6968, 10.1243)">
<path transform="scale(0.0040, -0.0040)" d="M218 136c55 0 108 -28 108 -89c0 -71 -55 -121 -102 -149c-35 -21 -75 -34 -116 -34c-55 0 -108 28 -108 89c0 71 55 121 102 149c35 21 75 34 116 34z" fill="currentColor"/>
</g>
</svg>
