<svg xmlns="http://www.w3.org/2000/svg" xmlns:xlink="http://www.w3.org/1999/xlink" version="1.2" width="210.00mm" height="297.00mm" viewBox="0.0000 -0.0000 119.5016 169.0094">
<style type="text/css">
<![CDATA[
tspan { white-space: pre; }
]]>
</style>
<g transform="translate(14.2264, 9.6243)">
<line stroke-linejoin="round" stroke-linecap="round" stroke-width="0.1000" stroke="currentColor" x1="0.0500" y1="0" x2="45.3682" y2="0"/>
</g>
<g transform="translate(14.2264, 8.6243)">
<line stroke-linejoin="round" stroke-linecap="round" stroke-width="0.1000" stroke="currentColor" x1="0.0500" y1="0" x2="45.3682" y2="0"/>
</g>
<g transform="translate(14.2264, 7.6243)">
<line stroke-linejoin="round" stroke-linecap="round" stroke-width="0.1000" stroke="currentColor" x1="0.0500" y1="0" x2="45.3682" y2="0"/>
</g>
<g transform="translate(14.2264, 6.6243)">
<line stroke-linejoin="round" stroke-linecap="round" stroke-width="0.1000" stroke="currentColor" x1="0.0500" y1="0" x2="45.3682" y2="0"/>
</g>
<g transform="translate(14.2264, 5.6243)">
<line stroke-linejoin="round" stroke-linecap="round" stroke-width="0.1000" stroke="currentColor" x1="0.0500" y1="0" x2="45.3682" y2="0"/>
</g>
<g transform="translate(50.6866, 7.6243)">
<rect x="0.0000" y="-2.0000" width="0.1900" height="4.0000" ry="0.0000" fill="currentColor"/>
</g>
<g transform="translate(26.0864, 7.6243)">
<rect x="0.0000" y="-2.0000" width="0.1900" height="4.0000" ry="0.0000" fill="currentColor"/>
</g>
<g transform="translate(59.4546, 7.6243)">
<rect x="0.0000" y="-2.0000" width="0.1900" height="4.0000" ry="0.0000" fill="currentColor"/>
</g>
<g transform="translate(42.5365, 7.6243)">
<rect x="0.0000" y="-2.0000" width="0.1900" height="4.0000" ry="0.0000" fill="currentColor"/>
</g>
<g transform="translate(34.3865, 7.6243)">
<rect x="0.0000" y="-2.0000" width="0.1900" height="4.0000" ry="0.0000" fill="currentColor"/>
</g>
<g transform="translate(43.4765, 8.6243)">
<path transform="scale(0.0040, -0.0040)" d="M27 41l-1 -66v-11c0 -22 1 -44 4 -66c45 38 93 80 93 139c0 33 -14 67 -43 67c-31 0 -52 -30 -53 -63zM-15 -138l-12 595c8 5 18 8 27 8s19 -3 27 -8l-7 -345c25 21 58 34 91 34c52 0 89 -48 89 -102c0 -80 -86 -117 -147 -169c-15 -13 -24 -38 -45 -38
c-13 0 -23 11 -23 25z" fill="currentColor"/>
</g>
<g transform="translate(44.6265, 8.6243)">
<path transform="scale(0.0040, -0.0040)" d="M213 112c-50 0 -69 -43 -69 -88c0 -77 57 -136 134 -136c50 0 69 43 69 88c0 77 -57 136 -134 136zM491 0c0 -43 -34 -75 -72 -96c-53 -29 -114 -40 -174 -40s-120 11 -173 40c-38 21 -72 53 -72 96s34 75 72 96c53 29 113 40 173 40s121 -11 174 -40
c38 -21 72 -53 72 -96z" fill="currentColor"/>
</g>
<g transform="translate(53.3946, 8.6243)">
<path transform="scale(0.0040, -0.0040)" d="M213 112c-50 0 -69 -43 -69 -88c0 -77 57 -136 134 -136c50 0 69 43 69 88c0 77 -57 136 -134 136zM491 0c0 -43 -34 -75 -72 -96c-53 -29 -114 -40 -174 -40s-120 11 -173 40c-38 21 -72 53 -72 96s34 75 72 96c53 29 113 40 173 40s121 -11 174 -40
c38 -21 72 -53 72 -96z" fill="currentColor"/>
</g>
<g transform="translate(51.5966, 8.6243)">
<path transform="scale(0.0040, -0.0040)" d="M190 41l-1 -66c0 -4 -1 -7 -1 -11c0 -22 1 -44 4 -66c44 37 87 82 87 139c0 33 -11 67 -40 67c-30 0 -48 -30 -49 -63zM189 457l-6 -345c24 21 55 34 87 34c53 0 92 -47 92 -101c0 -80 -86 -118 -147 -170c-15 -13 -23 -38 -44 -38c-13 0 -24 11 -24 25l-2 106
c-27 -34 -66 -62 -98 -93c-13 -13 -19 -38 -39 -38c-13 0 -23 12 -23 26l-12 594c8 5 18 8 27 8s19 -3 27 -8l-7 -345c17 21 43 34 70 34c20 0 38 -8 52 -21l-7 332c8 5 18 8 27 8s19 -3 27 -8zM17 -26v-10c0 -23 1 -45 4 -68c39 38 71 86 71 141c0 32 -6 67 -33 67
s-39 -31 -40 -62z" fill="currentColor"/>
</g>
<g transform="translate(28.3264, 8.6243)">
<path transform="scale(0.0040, -0.0040)" d="M213 112c-50 0 -69 -43 -69 -88c0 -77 57 -136 134 -136c50 0 69 43 69 88c0 77 -57 136 -134 136zM491 0c0 -43 -34 -75 -72 -96c-53 -29 -114 -40 -174 -40s-120 11 -173 40c-38 21 -72 53 -72 96s34 75 72 96c53 29 113 40 173 40s121 -11 174 -40
c38 -21 72 -53 72 -96z" fill="currentColor"/>
</g>
<g transform="translate(18.6287, 8.6243)">
<path transform="scale(0.0040, -0.0040)" d="M152 0c23 -23 56 -28 89 -28c6 0 10 -4 10 -10l9 -87c1 -6 -4 -11 -10 -10l-87 9c-5 1 -10 5 -10 10c0 33 -5 66 -28 89c-23 -23 -27 -56 -27 -89c0 -5 -5 -9 -10 -10l-88 -9c-6 -1 -11 4 -10 10l9 87c0 6 4 10 10 10c33 0 66 5 89 28c-23 23 -56 28 -89 28
c-6 0 -10 4 -10 10l-9 87c-1 6 4 11 10 10l88 -9c5 -1 9 -5 9 -10c0 -33 5 -66 28 -89c23 23 28 56 28 89c0 5 5 9 10 10l87 9c6 1 11 -4 10 -10l-9 -87c0 -6 -4 -10 -10 -10c-33 0 -66 -5 -89 -28z" fill="currentColor"/>
</g>
<g transform="translate(15.0264, 8.6243)">
<path transform="scale(0.0040, -0.0040)" d="M266 -635h-6c-108 0 -195 88 -195 197c0 58 53 103 112 103c54 0 95 -47 95 -103c0 -52 -43 -95 -95 -95c-11 0 -21 2 -31 6c26 -39 68 -65 117 -65h4zM461 -203c68 24 113 95 113 164c0 90 -66 179 -173 190c24 -116 46 -231 60 -354zM74 28c0 -135 129 -247 264 -247
c28 0 55 2 82 6c-14 127 -37 245 -63 364c-79 -8 -124 -61 -124 -119c0 -44 25 -91 81 -123c5 -5 7 -10 7 -15c0 -11 -10 -22 -22 -22c-3 0 -6 1 -9 2c-80 43 -117 115 -117 185c0 88 58 174 160 197c-14 58 -29 117 -46 175c-107 -121 -213 -243 -213 -403zM335 -262
c-188 0 -333 172 -333 374c0 177 131 306 248 441c-19 62 -37 125 -45 190c-6 52 -7 104 -7 156c0 115 55 224 149 292c6 5 14 5 20 0c71 -84 133 -245 133 -358c0 -143 -86 -255 -180 -364c21 -68 39 -138 56 -207c4 0 9 1 13 1c155 0 256 -128 256 -261
c0 -76 -33 -154 -107 -210c-22 -17 -47 -28 -73 -36c3 -35 5 -70 5 -105c0 -19 -1 -39 -2 -58c-7 -119 -88 -225 -202 -228l1 43c93 2 153 92 159 191c1 18 2 37 2 55c0 31 -1 61 -4 92c-29 -5 -58 -8 -89 -8zM428 916c0 55 -4 79 -20 129c-99 -48 -162 -149 -162 -259
c0 -74 18 -133 36 -194c80 97 146 198 146 324z" fill="currentColor"/>
</g>
<g transform="translate(20.0264, 8.6243)">
<path transform="scale(0.0040, -0.0040)" d="M213 112c-50 0 -69 -43 -69 -88c0 -77 57 -136 134 -136c50 0 69 43 69 88c0 77 -57 136 -134 136zM491 0c0 -43 -34 -75 -72 -96c-53 -29 -114 -40 -174 -40s-120 11 -173 40c-38 21 -72 53 -72 96s34 75 72 96c53 29 113 40 173 40s121 -11 174 -40
c38 -21 72 -53 72 -96z" fill="currentColor"/>
</g>
<g transform="translate(6.9270, 8.3934)">
<text font-family="serif" font-size="2.2001" text-anchor="start" fill="currentColor">
<tspan>Piano</tspan>
</text>
</g>
<g transform="translate(36.4765, 8.6243)">
<path transform="scale(0.0040, -0.0040)" d="M213 112c-50 0 -69 -43 -69 -88c0 -77 57 -136 134 -136c50 0 69 43 69 88c0 77 -57 136 -134 136zM491 0c0 -43 -34 -75 -72 -96c-53 -29 -114 -40 -174 -40s-120 11 -173 40c-38 21 -72 53 -72 96s34 75 72 96c53 29 113 40 173 40s121 -11 174 -40
c38 -21 72 -53 72 -96z" fill="currentColor"/>
</g>
<g transform="translate(26.8764, 8.6243)">
<path transform="scale(0.0040, -0.0040)" d="M0 119c0 8 5 15 13 18l46 17v158c0 10 8 19 18 19s19 -9 19 -19v-145l83 31v158c0 10 9 19 19 19s18 -9 18 -19v-145l32 12c2 1 5 1 7 1c11 0 20 -9 20 -20v-60c0 -8 -5 -16 -13 -19l-46 -16v-160l32 11c2 1 5 1 7 1c11 0 20 -9 20 -20v-60c0 -8 -5 -15 -13 -18l-46 -17
v-158c0 -10 -8 -19 -18 -19s-19 9 -19 19v145l-83 -31v-158c0 -10 -9 -19 -19 -19s-18 9 -18 19v145l-32 -12c-2 -1 -5 -1 -7 -1c-11 0 -20 9 -20 20v60c0 8 5 16 13 19l46 16v160l-32 -11c-2 -1 -5 -1 -7 -1c-11 0 -20 9 -20 20v60zM179 95l-83 -30v-160l83 30v160z" fill="currentColor"/>
</g>
</svg>
