<svg xmlns="http://www.w3.org/2000/svg" xmlns:xlink="http://www.w3.org/1999/xlink" version="1.2" width="210.00mm" height="297.00mm" viewBox="0.0000 -0.0000 119.5016 169.0094">
<style type="text/css">
<![CDATA[
tspan { white-space: pre; }
]]>
</style>
<g transform="translate(14.2264, 10.0853)">
<line stroke-linejoin="round" stroke-linecap="round" stroke-width="0.1000" stroke="currentColor" x1="0.0500" y1="0" x2="44.3487" y2="0"/>
</g>
<g transform="translate(14.2264, 9.0853)">
<line stroke-linejoin="round" stroke-linecap="round" stroke-width="0.1000" stroke="currentColor" x1="0.0500" y1="0" x2="44.3487" y2="0"/>
</g>
<g transform="translate(14.2264, 8.0853)">
<line stroke-linejoin="round" stroke-linecap="round" stroke-width="0.1000" stroke="currentColor" x1="0.0500" y1="0" x2="44.3487" y2="0"/>
</g>
<g transform="translate(14.2264, 7.0853)">
<line stroke-linejoin="round" stroke-linecap="round" stroke-width="0.1000" stroke="currentColor" x1="0.0500" y1="0" x2="44.3487" y2="0"/>
</g>
<g transform="translate(14.2264, 6.0853)">
<line stroke-linejoin="round" stroke-linecap="round" stroke-width="0.1000" stroke="currentColor" x1="0.0500" y1="0" x2="44.3487" y2="0"/>
</g>
<g transform="translate(58.4351, 8.0853)">
<rect x="0.0000" y="-2.0000" width="0.1900" height="4.0000" ry="0.0000" fill="currentColor"/>
</g>
<g transform="translate(41.5674, 9.5853)">
<path transform="scale(0.0040, -0.0040)" d="M-7 375c8 4 17 7 25 7s16 -3 24 -7l-2 -183l106 20h3c10 0 18 -7 18 -17l7 -570c-8 -4 -17 -7 -25 -7s-16 3 -24 7l2 183l-106 -20h-3c-10 0 -18 7 -18 17zM131 112l-92 -17l-3 -207l92 17z" fill="currentColor"/>
</g>
<g transform="translate(50.3643, 9.5853)">
<path transform="scale(0.0040, -0.0040)" d="M218 136c55 0 108 -28 108 -89c0 -71 -55 -121 -102 -149c-35 -21 -75 -34 -116 -34c-55 0 -108 28 -108 89c0 71 55 121 102 149c35 21 75 34 116 34z" fill="currentColor"/>
</g>
<g transform="translate(45.3559, 8.5853)">
<path transform="scale(0.0040, -0.0040)" d="M218 136c55 0 108 -28 108 -89c0 -71 -55 -121 -102 -149c-35 -21 -75 -34 -116 -34c-55 0 -108 28 -108 89c0 71 55 121 102 149c35 21 75 34 116 34z" fill="currentColor"/>
</g>
<g transform="translate(46.5951, 8.0853)">
<rect x="-0.0650" y="-2.7917" width="0.1300" height="3.1056" ry="0.0400" fill="currentColor"/>
</g>
<g transform="translate(48.1101, 7.0853)">
<path transform="scale(0.0040, -0.0040)" d="M218 136c55 0 108 -28 108 -89c0 -71 -55 -121 -102 -149c-35 -21 -75 -34 -116 -34c-55 0 -108 28 -108 89c0 71 55 121 102 149c35 21 75 34 116 34z" fill="currentColor"/>
</g>
<g transform="translate(49.3493, 8.0853)">
<rect x="-0.0650" y="-4.0000" width="0.1300" height="2.8139" ry="0.0400" fill="currentColor"/>
</g>
<g transform="translate(43.8409, 8.0853)">
<rect x="-0.0650" y="-2.0183" width="0.1300" height="3.3321" ry="0.0400" fill="currentColor"/>
</g>
<g transform="translate(42.6016, 9.5853)">
<path transform="scale(0.0040, -0.0040)" d="M218 136c55 0 108 -28 108 -89c0 -71 -55 -121 -102 -149c-35 -21 -75 -34 -116 -34c-55 0 -108 28 -108 89c0 71 55 121 102 149c35 21 75 34 116 34z" fill="currentColor"/>
</g>
<g transform="translate(39.2016, 8.0853)">
<path transform="scale(0.0040, -0.0040)" d="M72 -250l117 326c-34 -12 -69 -22 -105 -22c-46 0 -87 33 -87 79c0 40 33 72 73 72c25 0 48 -15 56 -39c10 -28 6 -59 35 -59c16 0 54 48 61 63c6 12 23 12 28 0l-123 -420c-8 -7 -17 -10 -27 -10s-20 3 -28 10z" fill="currentColor"/>
</g>
<g transform="translate(49.2843, 4.0853)">
<polygon stroke-linejoin="round" stroke-linecap="round" stroke-width="0.0800" fill="currentColor" stroke="currentColor" points="7.8526 -0.2000 7.8526 0.2000 0.0400 0.2000 0.0400 -0.2000"/>
</g>
<g transform="translate(49.2843, 4.8953)">
<polygon stroke-linejoin="round" stroke-linecap="round" stroke-width="0.0800" fill="currentColor" stroke="currentColor" points="7.8526 -0.2000 7.8526 0.2000 0.0400 0.2000 0.0400 -0.2000"/>
</g>
<g transform="translate(43.7759, 6.0853)">
<polygon stroke-linejoin="round" stroke-linecap="round" stroke-width="0.0800" fill="currentColor" stroke="currentColor" points="2.8442 -1.0100 2.8442 -0.6100 0.0400 0.2000 0.0400 -0.2000"/>
</g>
<g transform="translate(43.7759, 6.8953)">
<polygon stroke-linejoin="round" stroke-linecap="round" stroke-width="0.0800" fill="currentColor" stroke="currentColor" points="2.8442 -1.0100 2.8442 -0.6100 0.0400 0.2000 0.0400 -0.2000"/>
</g>
<g transform="translate(30.1090, 4.0853)">
<polygon stroke-linejoin="round" stroke-linecap="round" stroke-width="0.0800" fill="currentColor" stroke="currentColor" points="7.8526 -0.2000 7.8526 0.2000 0.0400 0.2000 0.0400 -0.2000"/>
</g>
<g transform="translate(30.1090, 4.8953)">
<polygon stroke-linejoin="round" stroke-linecap="round" stroke-width="0.0800" fill="currentColor" stroke="currentColor" points="7.8526 -0.2000 7.8526 0.2000 0.0400 0.2000 0.0400 -0.2000"/>
</g>
<g transform="translate(24.6006, 6.0853)">
<polygon stroke-linejoin="round" stroke-linecap="round" stroke-width="0.0800" fill="currentColor" stroke="currentColor" points="2.8442 -1.0100 2.8442 -0.6100 0.0400 0.2000 0.0400 -0.2000"/>
</g>
<g transform="translate(24.6006, 6.8953)">
<polygon stroke-linejoin="round" stroke-linecap="round" stroke-width="0.0800" fill="currentColor" stroke="currentColor" points="2.8442 -1.0100 2.8442 -0.6100 0.0400 0.2000 0.0400 -0.2000"/>
</g>
<g transform="translate(51.6035, 8.0853)">
<rect x="-0.0650" y="-4.0000" width="0.1300" height="5.3139" ry="0.0400" fill="currentColor"/>
</g>
<g transform="translate(57.1119, 8.0853)">
<rect x="-0.0650" y="-4.0000" width="0.1300" height="2.8139" ry="0.0400" fill="currentColor"/>
</g>
<g transform="translate(55.8727, 7.0853)">
<path transform="scale(0.0040, -0.0040)" d="M218 136c55 0 108 -28 108 -89c0 -71 -55 -121 -102 -149c-35 -21 -75 -34 -116 -34c-55 0 -108 28 -108 89c0 71 55 121 102 149c35 21 75 34 116 34z" fill="currentColor"/>
</g>
<g transform="translate(54.3577, 8.0853)">
<rect x="-0.0650" y="-4.0000" width="0.1300" height="4.3139" ry="0.0400" fill="currentColor"/>
</g>
<g transform="translate(53.1185, 8.5853)">
<path transform="scale(0.0040, -0.0040)" d="M218 136c55 0 108 -28 108 -89c0 -71 -55 -121 -102 -149c-35 -21 -75 -34 -116 -34c-55 0 -108 28 -108 89c0 71 55 121 102 149c35 21 75 34 116 34z" fill="currentColor"/>
</g>
<g transform="translate(27.4198, 8.0853)">
<rect x="-0.0650" y="-2.7917" width="0.1300" height="3.1056" ry="0.0400" fill="currentColor"/>
</g>
<g transform="translate(26.1806, 8.5853)">
<path transform="scale(0.0040, -0.0040)" d="M218 136c55 0 108 -28 108 -89c0 -71 -55 -121 -102 -149c-35 -21 -75 -34 -116 -34c-55 0 -108 28 -108 89c0 71 55 121 102 149c35 21 75 34 116 34z" fill="currentColor"/>
</g>
<g transform="translate(21.9764, 9.5853)">
<path transform="scale(0.0040, -0.0040)" d="M0 119c0 8 5 15 13 18l46 17v158c0 10 8 19 18 19s19 -9 19 -19v-145l83 31v158c0 10 9 19 19 19s18 -9 18 -19v-145l32 12c2 1 5 1 7 1c11 0 20 -9 20 -20v-60c0 -8 -5 -16 -13 -19l-46 -16v-160l32 11c2 1 5 1 7 1c11 0 20 -9 20 -20v-60c0 -8 -5 -15 -13 -18l-46 -17
v-158c0 -10 -8 -19 -18 -19s-19 9 -19 19v145l-83 -31v-158c0 -10 -9 -19 -19 -19s-18 9 -18 19v145l-32 -12c-2 -1 -5 -1 -7 -1c-11 0 -20 9 -20 20v60c0 8 5 16 13 19l46 16v160l-32 -11c-2 -1 -5 -1 -7 -1c-11 0 -20 9 -20 20v60zM179 95l-83 -30v-160l83 30v160z" fill="currentColor"/>
</g>
<g transform="translate(24.6656, 8.0853)">
<rect x="-0.0650" y="-2.0183" width="0.1300" height="3.3321" ry="0.0400" fill="currentColor"/>
</g>
<g transform="translate(23.4264, 9.5853)">
<path transform="scale(0.0040, -0.0040)" d="M218 136c55 0 108 -28 108 -89c0 -71 -55 -121 -102 -149c-35 -21 -75 -34 -116 -34c-55 0 -108 28 -108 89c0 71 55 121 102 149c35 21 75 34 116 34z" fill="currentColor"/>
</g>
<g transform="translate(36.6974, 7.0853)">
<path transform="scale(0.0040, -0.0040)" d="M218 136c55 0 108 -28 108 -89c0 -71 -55 -121 -102 -149c-35 -21 -75 -34 -116 -34c-55 0 -108 28 -108 89c0 71 55 121 102 149c35 21 75 34 116 34z" fill="currentColor"/>
</g>
<g transform="translate(15.0264, 9.0853)">
<path transform="scale(0.0040, -0.0040)" d="M266 -635h-6c-108 0 -195 88 -195 197c0 58 53 103 112 103c54 0 95 -47 95 -103c0 -52 -43 -95 -95 -95c-11 0 -21 2 -31 6c26 -39 68 -65 117 -65h4zM461 -203c68 24 113 95 113 164c0 90 -66 179 -173 190c24 -116 46 -231 60 -354zM74 28c0 -135 129 -247 264 -247
c28 0 55 2 82 6c-14 127 -37 245 -63 364c-79 -8 -124 -61 -124 -119c0 -44 25 -91 81 -123c5 -5 7 -10 7 -15c0 -11 -10 -22 -22 -22c-3 0 -6 1 -9 2c-80 43 -117 115 -117 185c0 88 58 174 160 197c-14 58 -29 117 -46 175c-107 -121 -213 -243 -213 -403zM335 -262
c-188 0 -333 172 -333 374c0 177 131 306 248 441c-19 62 -37 125 -45 190c-6 52 -7 104 -7 156c0 115 55 224 149 292c6 5 14 5 20 0c71 -84 133 -245 133 -358c0 -143 -86 -255 -180 -364c21 -68 39 -138 56 -207c4 0 9 1 13 1c155 0 256 -128 256 -261
c0 -76 -33 -154 -107 -210c-22 -17 -47 -28 -73 -36c3 -35 5 -70 5 -105c0 -19 -1 -39 -2 -58c-7 -119 -88 -225 -202 -228l1 43c93 2 153 92 159 191c1 18 2 37 2 55c0 31 -1 61 -4 92c-29 -5 -58 -8 -89 -8zM428 916c0 55 -4 79 -20 129c-99 -48 -162 -149 -162 -259
c0 -74 18 -133 36 -194c80 97 146 198 146 324z" fill="currentColor"/>
</g>
<g transform="translate(20.0264, 8.0853)">
<path transform="scale(0.0040, -0.0040)" d="M72 -250l117 326c-34 -12 -69 -22 -105 -22c-46 0 -87 33 -87 79c0 40 33 72 73 72c25 0 48 -15 56 -39c10 -28 6 -59 35 -59c16 0 54 48 61 63c6 12 23 12 28 0l-123 -420c-8 -7 -17 -10 -27 -10s-20 3 -28 10z" fill="currentColor"/>
</g>
<g transform="translate(6.9270, 8.8544)">
<text font-family="serif" font-size="2.2001" text-anchor="start" fill="currentColor">
<tspan>Piano</tspan>
</text>
</g>
<g transform="translate(31.1890, 9.5853)">
<path transform="scale(0.0040, -0.0040)" d="M218 136c55 0 108 -28 108 -89c0 -71 -55 -121 -102 -149c-35 -21 -75 -34 -116 -34c-55 0 -108 28 -108 89c0 71 55 121 102 149c35 21 75 34 116 34z" fill="currentColor"/>
</g>
<g transform="translate(37.9366, 8.0853)">
<rect x="-0.0650" y="-4.0000" width="0.1300" height="2.8139" ry="0.0400" fill="currentColor"/>
</g>
<g transform="translate(35.1824, 8.0853)">
<rect x="-0.0650" y="-4.0000" width="0.1300" height="4.3139" ry="0.0400" fill="currentColor"/>
</g>
<g transform="translate(33.9432, 8.5853)">
<path transform="scale(0.0040, -0.0040)" d="M218 136c55 0 108 -28 108 -89c0 -71 -55 -121 -102 -149c-35 -21 -75 -34 -116 -34c-55 0 -108 28 -108 89c0 71 55 121 102 149c35 21 75 34 116 34z" fill="currentColor"/>
</g>
<g transform="translate(32.4282, 8.0853)">
<rect x="-0.0650" y="-4.0000" width="0.1300" height="5.3139" ry="0.0400" fill="currentColor"/>
</g>
<g transform="translate(30.1740, 8.0853)">
<rect x="-0.0650" y="-4.0000" width="0.1300" height="2.8139" ry="0.0400" fill="currentColor"/>
</g>
<g transform="translate(28.9348, 7.0853)">
<path transform="scale(0.0040, -0.0040)" d="M218 136c55 0 108 -28 108 -89c0 -71 -55 -121 -102 -149c-35 -21 -75 -34 -116 -34c-55 0 -108 28 -108 89c0 71 55 121 102 149c35 21 75 34 116 34z" fill="currentColor"/>
</g>
</svg>
