<svg xmlns="http://www.w3.org/2000/svg" xmlns:xlink="http://www.w3.org/1999/xlink" version="1.2" width="210.00mm" height="297.00mm" viewBox="0.0000 -0.0000 119.5016 169.0094">
<style type="text/css">
<![CDATA[
tspan { white-space: pre; }
]]>
</style>
<g transform="translate(14.2264, 10.0571)">
<line stroke-linejoin="round" stroke-linecap="round" stroke-width="0.1000" stroke="currentColor" x1="0.0500" y1="0" x2="29.4055" y2="0"/>
</g>
<g transform="translate(14.2264, 9.0571)">
<line stroke-linejoin="round" stroke-linecap="round" stroke-width="0.1000" stroke="currentColor" x1="0.0500" y1="0" x2="29.4055" y2="0"/>
</g>
<g transform="translate(14.2264, 8.0571)">
<line stroke-linejoin="round" stroke-linecap="round" stroke-width="0.1000" stroke="currentColor" x1="0.0500" y1="0" x2="29.4055" y2="0"/>
</g>
<g transform="translate(14.2264, 7.0571)">
<line stroke-linejoin="round" stroke-linecap="round" stroke-width="0.1000" stroke="currentColor" x1="0.0500" y1="0" x2="29.4055" y2="0"/>
</g>
<g transform="translate(14.2264, 6.0571)">
<line stroke-linejoin="round" stroke-linecap="round" stroke-width="0.1000" stroke="currentColor" x1="0.0500" y1="0" x2="29.4055" y2="0"/>
</g>
<g transform="translate(5.6906, 11.0571)">
<rect x="28.9681" y="-0.1000" width="1.8141" height="0.2000" ry="0.1000" fill="currentColor"/>
</g>
<g transform="translate(43.0818, 8.0571)">
<rect x="0.0000" y="-2.0000" width="0.6000" height="4.0000" ry="0.0000" fill="currentColor"/>
</g>
<g transform="translate(42.5918, 8.0571)">
<rect x="0.0000" y="-2.0000" width="0.1900" height="4.0000" ry="0.0000" fill="currentColor"/>
</g>
<g transform="translate(41.0901, 8.0571)">
<rect x="-0.0650" y="-0.8022" width="0.1300" height="2.6161" ry="0.0400" fill="currentColor"/>
</g>
<g transform="translate(34.8425, 11.0571)">
<path transform="scale(0.0040, -0.0040)" d="M218 136c55 0 108 -28 108 -89c0 -71 -55 -121 -102 -149c-35 -21 -75 -34 -116 -34c-55 0 -108 28 -108 89c0 71 55 121 102 149c35 21 75 34 116 34z" fill="currentColor"/>
</g>
<g transform="translate(39.8509, 10.0571)">
<path transform="scale(0.0040, -0.0040)" d="M218 136c55 0 108 -28 108 -89c0 -71 -55 -121 -102 -149c-35 -21 -75 -34 -116 -34c-55 0 -108 28 -108 89c0 71 55 121 102 149c35 21 75 34 116 34z" fill="currentColor"/>
</g>
<g transform="translate(38.5859, 8.0571)">
<rect x="-0.0650" y="-0.5000" width="0.1300" height="2.8139" ry="0.0400" fill="currentColor"/>
</g>
<g transform="translate(37.3467, 10.5571)">
<path transform="scale(0.0040, -0.0040)" d="M218 136c55 0 108 -28 108 -89c0 -71 -55 -121 -102 -149c-35 -21 -75 -34 -116 -34c-55 0 -108 28 -108 89c0 71 55 121 102 149c35 21 75 34 116 34z" fill="currentColor"/>
</g>
<g transform="translate(33.8082, 11.0571)">
<path transform="scale(0.0040, -0.0040)" d="M-7 375c8 4 17 7 25 7s16 -3 24 -7l-2 -183l106 20h3c10 0 18 -7 18 -17l7 -570c-8 -4 -17 -7 -25 -7s-16 3 -24 7l2 183l-106 -20h-3c-10 0 -18 7 -18 17zM131 112l-92 -17l-3 -207l92 17z" fill="currentColor"/>
</g>
<g transform="translate(36.0817, 8.0571)">
<rect x="-0.0650" y="-0.1978" width="0.1300" height="3.0117" ry="0.0400" fill="currentColor"/>
</g>
<g transform="translate(38.1421, 6.8199)">
<text font-family="serif" font-style="italic" font-size="1.7461" text-anchor="start" fill="currentColor">
<tspan>3</tspan>
</text>
</g>
<g transform="translate(36.0167, 7.8671)">
<polygon stroke-linejoin="round" stroke-linecap="round" stroke-width="0.0800" fill="currentColor" stroke="currentColor" points="5.0984 -0.8200 5.0984 -0.4200 0.0400 0.2000 0.0400 -0.2000"/>
</g>
<g transform="translate(21.9811, 8.0571)">
<path stroke-width="0.0800" stroke-linejoin="round" stroke-linecap="round" stroke="currentColor" fill="currentColor" d="M0.6031 -2.5450C2.1030 -4.1205 7.6007 -4.7443 9.4154 -3.5450L9.4154 -3.5450C7.6142 -4.6251 2.1165 -4.0012 0.6031 -2.5450z"/>
</g>
<g transform="translate(15.0264, 6.0571)">
<path transform="scale(0.0040, -0.0040)" d="M0 119c0 8 5 15 13 18l46 17v158c0 10 8 19 18 19s19 -9 19 -19v-145l83 31v158c0 10 9 19 19 19s18 -9 18 -19v-145l32 12c2 1 5 1 7 1c11 0 20 -9 20 -20v-60c0 -8 -5 -16 -13 -19l-46 -16v-160l32 11c2 1 5 1 7 1c11 0 20 -9 20 -20v-60c0 -8 -5 -15 -13 -18l-46 -17
v-158c0 -10 -8 -19 -18 -19s-19 9 -19 19v145l-83 -31v-158c0 -10 -9 -19 -19 -19s-18 9 -18 19v145l-32 -12c-2 -1 -5 -1 -7 -1c-11 0 -20 9 -20 20v60c0 8 5 16 13 19l46 16v160l-32 -11c-2 -1 -5 -1 -7 -1c-11 0 -20 9 -20 20v60zM179 95l-83 -30v-160l83 30v160z" fill="currentColor"/>
</g>
<g transform="translate(16.1264, 7.5571)">
<path transform="scale(0.0040, -0.0040)" d="M0 119c0 8 5 15 13 18l46 17v158c0 10 8 19 18 19s19 -9 19 -19v-145l83 31v158c0 10 9 19 19 19s18 -9 18 -19v-145l32 12c2 1 5 1 7 1c11 0 20 -9 20 -20v-60c0 -8 -5 -16 -13 -19l-46 -16v-160l32 11c2 1 5 1 7 1c11 0 20 -9 20 -20v-60c0 -8 -5 -15 -13 -18l-46 -17
v-158c0 -10 -8 -19 -18 -19s-19 9 -19 19v145l-83 -31v-158c0 -10 -9 -19 -19 -19s-18 9 -18 19v145l-32 -12c-2 -1 -5 -1 -7 -1c-11 0 -20 9 -20 20v60c0 8 5 16 13 19l46 16v160l-32 -11c-2 -1 -5 -1 -7 -1c-11 0 -20 9 -20 20v60zM179 95l-83 -30v-160l83 30v160z" fill="currentColor"/>
</g>
<g transform="translate(22.0461, 8.0571)">
<rect x="-0.0650" y="-1.3139" width="0.1300" height="3.3139" ry="0.0400" fill="currentColor"/>
</g>
<g transform="translate(18.3764, 8.0571)">
<path transform="scale(0.0040, -0.0040)" d="M196 117h117c0 -48 27 -94 72 -94c8 0 12 -5 12 -11s-4 -12 -12 -12c-44 0 -87 13 -131 13s-87 -13 -131 -13c-8 0 -12 6 -12 12s4 11 12 11c45 0 73 46 73 94zM204 307c22 14 44 29 60 50c11 15 19 33 27 50c2 4 5 6 9 6c6 0 13 -5 13 -14v-245h72c10 0 15 -7 15 -14
s-5 -15 -15 -15h-72v-8h-117v8h-167c-23 0 -31 14 -31 23c0 3 1 5 2 6c80 93 138 207 138 330c0 10 7 19 16 16c23 -7 47 -13 71 -13s48 6 71 13c14 4 23 -9 17 -16l-284 -330h167v131c0 8 1 17 8 22z" fill="currentColor"/>
</g>
<g transform="translate(18.3764, 10.0731)">
<path transform="scale(0.0040, -0.0040)" d="M196 117h117c0 -48 27 -94 72 -94c8 0 12 -5 12 -11s-4 -12 -12 -12c-44 0 -87 13 -131 13s-87 -13 -131 -13c-8 0 -12 6 -12 12s4 11 12 11c45 0 73 46 73 94zM204 307c22 14 44 29 60 50c11 15 19 33 27 50c2 4 5 6 9 6c6 0 13 -5 13 -14v-245h72c10 0 15 -7 15 -14
s-5 -15 -15 -15h-72v-8h-117v8h-167c-23 0 -31 14 -31 23c0 3 1 5 2 6c80 93 138 207 138 330c0 10 7 19 16 16c23 -7 47 -13 71 -13s48 6 71 13c14 4 23 -9 17 -16l-284 -330h167v131c0 8 1 17 8 22z" fill="currentColor"/>
</g>
<g transform="translate(21.9811, 6.5571)">
<path transform="scale(0.0040, -0.0040)" d="M218 136c55 0 108 -28 108 -89c0 -71 -55 -121 -102 -149c-35 -21 -75 -34 -116 -34c-55 0 -108 28 -108 89c0 71 55 121 102 149c35 21 75 34 116 34z" fill="currentColor"/>
</g>
<g transform="translate(6.9270, 8.8263)">
<text font-family="serif" font-size="2.2001" text-anchor="start" fill="currentColor">
<tspan>Piano</tspan>
</text>
</g>
<g transform="translate(30.8585, 8.0571)">
<rect x="-0.0650" y="-2.3139" width="0.1300" height="3.3139" ry="0.0400" fill="currentColor"/>
</g>
<g transform="translate(30.7935, 5.5571)">
<path transform="scale(0.0040, -0.0040)" d="M218 136c55 0 108 -28 108 -89c0 -71 -55 -121 -102 -149c-35 -21 -75 -34 -116 -34c-55 0 -108 28 -108 89c0 71 55 121 102 149c35 21 75 34 116 34z" fill="currentColor"/>
</g>
<g transform="translate(26.4523, 8.0571)">
<rect x="-0.0650" y="-1.8139" width="0.1300" height="3.3139" ry="0.0400" fill="currentColor"/>
</g>
<g transform="translate(26.3873, 6.0571)">
<path transform="scale(0.0040, -0.0040)" d="M218 136c55 0 108 -28 108 -89c0 -71 -55 -121 -102 -149c-35 -21 -75 -34 -116 -34c-55 0 -108 28 -108 89c0 71 55 121 102 149c35 21 75 34 116 34z" fill="currentColor"/>
</g>
</svg>
